<?xml version="1.0" encoding="UTF-8" standalone="no"?>
<!DOCTYPE svg PUBLIC "-//W3C//DTD SVG 1.1//EN"
 "http://www.w3.org/Graphics/SVG/1.1/DTD/svg11.dtd">
<!-- Generated by graphviz version 2.38.0 (20140413.2041)
 -->
<!-- Title: dependency_map Pages: 1 -->
<svg width="407pt" height="836pt"
 viewBox="0.00 0.00 407.04 836.00" xmlns="http://www.w3.org/2000/svg" xmlns:xlink="http://www.w3.org/1999/xlink">
<g id="graph0" class="graph" transform="scale(1 1) rotate(0) translate(4 832)">
<title>dependency_map</title>
<polygon fill="white" stroke="none" points="-4,4 -4,-832 403.041,-832 403.041,4 -4,4"/>
<!-- algebra -->
<g id="node1" class="node"><title>algebra</title>
<ellipse fill="none" stroke="black" stroke-dasharray="5,2" cx="270.194" cy="-18" rx="36.2938" ry="18"/>
<text text-anchor="middle" x="270.194" y="-14.3" font-family="Times New Roman,serif" font-size="14.00">algebra</text>
</g>
<!-- ntrunc -->
<g id="node2" class="node"><title>ntrunc</title>
<ellipse fill="none" stroke="black" stroke-dasharray="5,2" cx="270.194" cy="-90" rx="33.5952" ry="18"/>
<text text-anchor="middle" x="270.194" y="-86.3" font-family="Times New Roman,serif" font-size="14.00">ntrunc</text>
</g>
<!-- ntrunc&#45;&gt;algebra -->
<g id="edge1" class="edge"><title>ntrunc&#45;&gt;algebra</title>
<path fill="none" stroke="black" d="M270.194,-71.6966C270.194,-63.9827 270.194,-54.7125 270.194,-46.1124"/>
<polygon fill="black" stroke="black" points="273.694,-46.1043 270.194,-36.1043 266.694,-46.1044 273.694,-46.1043"/>
</g>
<!-- circle -->
<g id="node3" class="node"><title>circle</title>
<ellipse fill="none" stroke="black" stroke-dasharray="5,2" cx="270.194" cy="-162" rx="30.5947" ry="18"/>
<text text-anchor="middle" x="270.194" y="-158.3" font-family="Times New Roman,serif" font-size="14.00">circle</text>
</g>
<!-- circle&#45;&gt;ntrunc -->
<g id="edge13" class="edge"><title>circle&#45;&gt;ntrunc</title>
<path fill="none" stroke="black" d="M270.194,-143.697C270.194,-135.983 270.194,-126.712 270.194,-118.112"/>
<polygon fill="black" stroke="black" points="273.694,-118.104 270.194,-108.104 266.694,-118.104 273.694,-118.104"/>
</g>
<!-- suspension -->
<g id="node4" class="node"><title>suspension</title>
<ellipse fill="none" stroke="black" cx="305.194" cy="-522" rx="51.1914" ry="18"/>
<text text-anchor="middle" x="305.194" y="-518.3" font-family="Times New Roman,serif" font-size="14.00">suspension</text>
</g>
<!-- suspension&#45;&gt;circle -->
<g id="edge2" class="edge"><title>suspension&#45;&gt;circle</title>
<path fill="none" stroke="black" d="M312.884,-503.907C323.987,-477.623 343.194,-425.447 343.194,-379 343.194,-379 343.194,-379 343.194,-305 343.194,-264.553 343.675,-251.446 324.194,-216 317.354,-203.555 306.662,-192.17 296.591,-183.169"/>
<polygon fill="black" stroke="black" points="298.617,-180.298 288.732,-176.486 294.083,-185.63 298.617,-180.298"/>
</g>
<!-- ua -->
<g id="node5" class="node"><title>ua</title>
<ellipse fill="none" stroke="black" stroke-dasharray="5,2" cx="198.194" cy="-234" rx="27" ry="18"/>
<text text-anchor="middle" x="198.194" y="-230.3" font-family="Times New Roman,serif" font-size="14.00">ua</text>
</g>
<!-- ua&#45;&gt;circle -->
<g id="edge3" class="edge"><title>ua&#45;&gt;circle</title>
<path fill="none" stroke="black" d="M212.764,-218.834C222.713,-209.162 236.096,-196.151 247.439,-185.122"/>
<polygon fill="black" stroke="black" points="250.169,-187.35 254.9,-177.869 245.29,-182.331 250.169,-187.35"/>
</g>
<!-- equiv -->
<g id="node6" class="node"><title>equiv</title>
<ellipse fill="none" stroke="black" cx="203.194" cy="-666" rx="30.5947" ry="18"/>
<text text-anchor="middle" x="203.194" y="-662.3" font-family="Times New Roman,serif" font-size="14.00">equiv</text>
</g>
<!-- coproduct -->
<g id="node7" class="node"><title>coproduct</title>
<ellipse fill="none" stroke="black" cx="131.194" cy="-594" rx="48.9926" ry="18"/>
<text text-anchor="middle" x="131.194" y="-590.3" font-family="Times New Roman,serif" font-size="14.00">coproduct</text>
</g>
<!-- equiv&#45;&gt;coproduct -->
<g id="edge4" class="edge"><title>equiv&#45;&gt;coproduct</title>
<path fill="none" stroke="black" d="M187.924,-650.155C178.332,-640.829 165.761,-628.607 154.891,-618.039"/>
<polygon fill="black" stroke="black" points="157.305,-615.504 147.695,-611.043 152.425,-620.523 157.305,-615.504"/>
</g>
<!-- pushout -->
<g id="node19" class="node"><title>pushout</title>
<ellipse fill="none" stroke="black" cx="310.194" cy="-594" rx="40.0939" ry="18"/>
<text text-anchor="middle" x="310.194" y="-590.3" font-family="Times New Roman,serif" font-size="14.00">pushout</text>
</g>
<!-- equiv&#45;&gt;pushout -->
<g id="edge17" class="edge"><title>equiv&#45;&gt;pushout</title>
<path fill="none" stroke="black" d="M222.819,-652.161C238.788,-641.714 261.598,-626.792 279.907,-614.814"/>
<polygon fill="black" stroke="black" points="282.032,-617.606 288.484,-609.202 278.2,-611.748 282.032,-617.606"/>
</g>
<!-- unit -->
<g id="node20" class="node"><title>unit</title>
<ellipse fill="none" stroke="black" cx="225.194" cy="-594" rx="27" ry="18"/>
<text text-anchor="middle" x="225.194" y="-590.3" font-family="Times New Roman,serif" font-size="14.00">unit</text>
</g>
<!-- equiv&#45;&gt;unit -->
<g id="edge25" class="edge"><title>equiv&#45;&gt;unit</title>
<path fill="none" stroke="black" d="M208.519,-648.055C211.033,-640.059 214.09,-630.331 216.897,-621.4"/>
<polygon fill="black" stroke="black" points="220.258,-622.378 219.917,-611.789 213.58,-620.28 220.258,-622.378"/>
</g>
<!-- lost -->
<g id="node23" class="node"><title>lost</title>
<ellipse fill="none" stroke="black" cx="37.1938" cy="-594" rx="27" ry="18"/>
<text text-anchor="middle" x="37.1938" y="-590.3" font-family="Times New Roman,serif" font-size="14.00">lost</text>
</g>
<!-- equiv&#45;&gt;lost -->
<g id="edge27" class="edge"><title>equiv&#45;&gt;lost</title>
<path fill="none" stroke="black" d="M178.104,-655.237C151.797,-644.892 109.34,-627.889 73.1938,-612 71.3904,-611.207 69.5424,-610.38 67.6821,-609.537"/>
<polygon fill="black" stroke="black" points="68.9726,-606.278 58.4268,-605.26 66.036,-612.632 68.9726,-606.278"/>
</g>
<!-- structures -->
<g id="node21" class="node"><title>structures</title>
<ellipse fill="none" stroke="black" cx="190.194" cy="-522" rx="46.2923" ry="18"/>
<text text-anchor="middle" x="190.194" y="-518.3" font-family="Times New Roman,serif" font-size="14.00">structures</text>
</g>
<!-- coproduct&#45;&gt;structures -->
<g id="edge19" class="edge"><title>coproduct&#45;&gt;structures</title>
<path fill="none" stroke="black" d="M145.176,-576.411C152.524,-567.693 161.667,-556.845 169.79,-547.208"/>
<polygon fill="black" stroke="black" points="172.543,-549.372 176.312,-539.47 167.191,-544.861 172.543,-549.372"/>
</g>
<!-- nat -->
<g id="node22" class="node"><title>nat</title>
<ellipse fill="none" stroke="black" cx="99.1938" cy="-522" rx="27" ry="18"/>
<text text-anchor="middle" x="99.1938" y="-518.3" font-family="Times New Roman,serif" font-size="14.00">nat</text>
</g>
<!-- coproduct&#45;&gt;nat -->
<g id="edge26" class="edge"><title>coproduct&#45;&gt;nat</title>
<path fill="none" stroke="black" d="M123.447,-576.055C119.658,-567.767 115.019,-557.618 110.816,-548.424"/>
<polygon fill="black" stroke="black" points="113.989,-546.947 106.648,-539.307 107.623,-549.857 113.989,-546.947"/>
</g>
<!-- heq -->
<g id="node8" class="node"><title>heq</title>
<ellipse fill="none" stroke="black" cx="332.194" cy="-666" rx="27" ry="18"/>
<text text-anchor="middle" x="332.194" y="-662.3" font-family="Times New Roman,serif" font-size="14.00">heq</text>
</g>
<!-- cubical -->
<g id="node9" class="node"><title>cubical</title>
<ellipse fill="none" stroke="black" cx="279.194" cy="-234" rx="36.2938" ry="18"/>
<text text-anchor="middle" x="279.194" y="-230.3" font-family="Times New Roman,serif" font-size="14.00">cubical</text>
</g>
<!-- heq&#45;&gt;cubical -->
<g id="edge5" class="edge"><title>heq&#45;&gt;cubical</title>
<path fill="none" stroke="black" d="M342.22,-649.084C357.33,-623.53 384.194,-571.307 384.194,-523 384.194,-523 384.194,-523 384.194,-377 384.194,-325.213 338.485,-279.947 307.384,-255.141"/>
<polygon fill="black" stroke="black" points="309.489,-252.345 299.439,-248.991 305.204,-257.88 309.489,-252.345"/>
</g>
<!-- heq&#45;&gt;pushout -->
<g id="edge16" class="edge"><title>heq&#45;&gt;pushout</title>
<path fill="none" stroke="black" d="M326.868,-648.055C324.419,-640.261 321.452,-630.822 318.704,-622.079"/>
<polygon fill="black" stroke="black" points="321.96,-620.766 315.623,-612.275 315.283,-622.865 321.96,-620.766"/>
</g>
<!-- product -->
<g id="node10" class="node"><title>product</title>
<ellipse fill="none" stroke="black" cx="236.194" cy="-306" rx="39.7935" ry="18"/>
<text text-anchor="middle" x="236.194" y="-302.3" font-family="Times New Roman,serif" font-size="14.00">product</text>
</g>
<!-- product&#45;&gt;ua -->
<g id="edge24" class="edge"><title>product&#45;&gt;ua</title>
<path fill="none" stroke="black" d="M227.188,-288.411C222.645,-280.042 217.036,-269.71 211.966,-260.37"/>
<polygon fill="black" stroke="black" points="214.982,-258.589 207.135,-251.47 208.83,-261.928 214.982,-258.589"/>
</g>
<!-- product&#45;&gt;cubical -->
<g id="edge6" class="edge"><title>product&#45;&gt;cubical</title>
<path fill="none" stroke="black" d="M246.384,-288.411C251.579,-279.955 258.004,-269.494 263.789,-260.078"/>
<polygon fill="black" stroke="black" points="266.825,-261.823 269.077,-251.47 260.86,-258.159 266.825,-261.823"/>
</g>
<!-- support -->
<g id="node11" class="node"><title>support</title>
<ellipse fill="none" stroke="black" cx="332.194" cy="-738" rx="38.9931" ry="18"/>
<text text-anchor="middle" x="332.194" y="-734.3" font-family="Times New Roman,serif" font-size="14.00">support</text>
</g>
<!-- support&#45;&gt;equiv -->
<g id="edge8" class="edge"><title>support&#45;&gt;equiv</title>
<path fill="none" stroke="black" d="M307.93,-723.834C287.018,-712.486 256.711,-696.04 234.073,-683.756"/>
<polygon fill="black" stroke="black" points="235.657,-680.633 225.198,-678.94 232.318,-686.786 235.657,-680.633"/>
</g>
<!-- support&#45;&gt;heq -->
<g id="edge7" class="edge"><title>support&#45;&gt;heq</title>
<path fill="none" stroke="black" d="M332.194,-719.697C332.194,-711.983 332.194,-702.712 332.194,-694.112"/>
<polygon fill="black" stroke="black" points="335.694,-694.104 332.194,-684.104 328.694,-694.104 335.694,-694.104"/>
</g>
<!-- functions -->
<g id="node12" class="node"><title>functions</title>
<ellipse fill="none" stroke="black" cx="159.194" cy="-738" rx="44.393" ry="18"/>
<text text-anchor="middle" x="159.194" y="-734.3" font-family="Times New Roman,serif" font-size="14.00">functions</text>
</g>
<!-- functions&#45;&gt;equiv -->
<g id="edge9" class="edge"><title>functions&#45;&gt;equiv</title>
<path fill="none" stroke="black" d="M169.621,-720.411C174.936,-711.955 181.512,-701.494 187.43,-692.078"/>
<polygon fill="black" stroke="black" points="190.483,-693.799 192.841,-683.47 184.556,-690.074 190.483,-693.799"/>
</g>
<!-- eq -->
<g id="node13" class="node"><title>eq</title>
<ellipse fill="none" stroke="black" cx="290.194" cy="-810" rx="27" ry="18"/>
<text text-anchor="middle" x="290.194" y="-806.3" font-family="Times New Roman,serif" font-size="14.00">eq</text>
</g>
<!-- eq&#45;&gt;support -->
<g id="edge20" class="edge"><title>eq&#45;&gt;support</title>
<path fill="none" stroke="black" d="M299.724,-793.116C304.786,-784.679 311.131,-774.104 316.866,-764.547"/>
<polygon fill="black" stroke="black" points="319.972,-766.173 322.115,-755.797 313.969,-762.572 319.972,-766.173"/>
</g>
<!-- int -->
<g id="node14" class="node"><title>int</title>
<ellipse fill="none" stroke="black" cx="248.194" cy="-738" rx="27" ry="18"/>
<text text-anchor="middle" x="248.194" y="-734.3" font-family="Times New Roman,serif" font-size="14.00">int</text>
</g>
<!-- eq&#45;&gt;int -->
<g id="edge10" class="edge"><title>eq&#45;&gt;int</title>
<path fill="none" stroke="black" d="M280.663,-793.116C275.528,-784.557 269.072,-773.797 263.273,-764.132"/>
<polygon fill="black" stroke="black" points="266.124,-762.081 257.978,-755.307 260.122,-765.683 266.124,-762.081"/>
</g>
<!-- trunc -->
<g id="node15" class="node"><title>trunc</title>
<ellipse fill="none" stroke="black" cx="190.194" cy="-450" rx="29.4969" ry="18"/>
<text text-anchor="middle" x="190.194" y="-446.3" font-family="Times New Roman,serif" font-size="14.00">trunc</text>
</g>
<!-- interval -->
<g id="node16" class="node"><title>interval</title>
<ellipse fill="none" stroke="black" cx="195.194" cy="-378" rx="36.2938" ry="18"/>
<text text-anchor="middle" x="195.194" y="-374.3" font-family="Times New Roman,serif" font-size="14.00">interval</text>
</g>
<!-- trunc&#45;&gt;interval -->
<g id="edge11" class="edge"><title>trunc&#45;&gt;interval</title>
<path fill="none" stroke="black" d="M191.43,-431.697C191.981,-423.983 192.643,-414.712 193.257,-406.112"/>
<polygon fill="black" stroke="black" points="196.751,-406.328 193.972,-396.104 189.768,-405.83 196.751,-406.328"/>
</g>
<!-- mere_eq_lemma -->
<g id="node17" class="node"><title>mere_eq_lemma</title>
<ellipse fill="none" stroke="black" cx="70.1938" cy="-378" rx="70.3881" ry="18"/>
<text text-anchor="middle" x="70.1938" y="-374.3" font-family="Times New Roman,serif" font-size="14.00">mere_eq_lemma</text>
</g>
<!-- trunc&#45;&gt;mere_eq_lemma -->
<g id="edge12" class="edge"><title>trunc&#45;&gt;mere_eq_lemma</title>
<path fill="none" stroke="black" d="M169.565,-436.967C152.17,-426.819 126.87,-412.061 106.152,-399.976"/>
<polygon fill="black" stroke="black" points="107.697,-396.825 97.296,-394.81 104.17,-402.872 107.697,-396.825"/>
</g>
<!-- interval&#45;&gt;product -->
<g id="edge14" class="edge"><title>interval&#45;&gt;product</title>
<path fill="none" stroke="black" d="M204.91,-360.411C209.812,-352.042 215.864,-341.71 221.334,-332.37"/>
<polygon fill="black" stroke="black" points="224.513,-333.868 226.547,-323.47 218.473,-330.33 224.513,-333.868"/>
</g>
<!-- prop -->
<g id="node18" class="node"><title>prop</title>
<ellipse fill="none" stroke="black" cx="150.194" cy="-306" rx="28.6953" ry="18"/>
<text text-anchor="middle" x="150.194" y="-302.3" font-family="Times New Roman,serif" font-size="14.00">prop</text>
</g>
<!-- interval&#45;&gt;prop -->
<g id="edge15" class="edge"><title>interval&#45;&gt;prop</title>
<path fill="none" stroke="black" d="M184.529,-360.411C179.015,-351.832 172.174,-341.191 166.053,-331.67"/>
<polygon fill="black" stroke="black" points="168.824,-329.507 160.472,-322.988 162.935,-333.293 168.824,-329.507"/>
</g>
<!-- pushout&#45;&gt;suspension -->
<g id="edge21" class="edge"><title>pushout&#45;&gt;suspension</title>
<path fill="none" stroke="black" d="M308.958,-575.697C308.407,-567.983 307.745,-558.712 307.13,-550.112"/>
<polygon fill="black" stroke="black" points="310.619,-549.83 306.416,-540.104 303.637,-550.328 310.619,-549.83"/>
</g>
<!-- unit&#45;&gt;suspension -->
<g id="edge22" class="edge"><title>unit&#45;&gt;suspension</title>
<path fill="none" stroke="black" d="M240.999,-579.17C251.935,-569.601 266.735,-556.651 279.369,-545.597"/>
<polygon fill="black" stroke="black" points="281.68,-548.225 286.901,-539.006 277.071,-542.957 281.68,-548.225"/>
</g>
<!-- unit&#45;&gt;structures -->
<g id="edge18" class="edge"><title>unit&#45;&gt;structures</title>
<path fill="none" stroke="black" d="M217.076,-576.765C212.999,-568.611 207.958,-558.529 203.347,-549.307"/>
<polygon fill="black" stroke="black" points="206.358,-547.503 198.756,-540.124 200.097,-550.633 206.358,-547.503"/>
</g>
<!-- structures&#45;&gt;trunc -->
<g id="edge23" class="edge"><title>structures&#45;&gt;trunc</title>
<path fill="none" stroke="black" d="M190.194,-503.697C190.194,-495.983 190.194,-486.712 190.194,-478.112"/>
<polygon fill="black" stroke="black" points="193.694,-478.104 190.194,-468.104 186.694,-478.104 193.694,-478.104"/>
</g>
<!-- sigma -->
<g id="node24" class="node"><title>sigma</title>
<ellipse fill="none" stroke="black" cx="367.194" cy="-810" rx="31.6951" ry="18"/>
<text text-anchor="middle" x="367.194" y="-806.3" font-family="Times New Roman,serif" font-size="14.00">sigma</text>
</g>
</g>
</svg>
