<?xml version="1.0" encoding="UTF-8" standalone="no"?>
<!DOCTYPE svg PUBLIC "-//W3C//DTD SVG 1.1//EN"
 "http://www.w3.org/Graphics/SVG/1.1/DTD/svg11.dtd">
<!-- Generated by graphviz version 2.38.0 (20140413.2041)
 -->
<!-- Title: dependency_map Pages: 1 -->
<svg width="398pt" height="836pt"
 viewBox="0.00 0.00 397.54 836.00" xmlns="http://www.w3.org/2000/svg" xmlns:xlink="http://www.w3.org/1999/xlink">
<g id="graph0" class="graph" transform="scale(1 1) rotate(0) translate(4 832)">
<title>dependency_map</title>
<polygon fill="white" stroke="none" points="-4,4 -4,-832 393.539,-832 393.539,4 -4,4"/>
<!-- algebra -->
<g id="node1" class="node"><title>algebra</title>
<ellipse fill="none" stroke="black" stroke-dasharray="5,2" cx="219.194" cy="-18" rx="36.2938" ry="18"/>
<text text-anchor="middle" x="219.194" y="-14.3" font-family="Times New Roman,serif" font-size="14.00">algebra</text>
</g>
<!-- ntrunc -->
<g id="node2" class="node"><title>ntrunc</title>
<ellipse fill="none" stroke="black" stroke-dasharray="5,2" cx="219.194" cy="-90" rx="33.5952" ry="18"/>
<text text-anchor="middle" x="219.194" y="-86.3" font-family="Times New Roman,serif" font-size="14.00">ntrunc</text>
</g>
<!-- ntrunc&#45;&gt;algebra -->
<g id="edge1" class="edge"><title>ntrunc&#45;&gt;algebra</title>
<path fill="none" stroke="black" d="M219.194,-71.6966C219.194,-63.9827 219.194,-54.7125 219.194,-46.1124"/>
<polygon fill="black" stroke="black" points="222.694,-46.1043 219.194,-36.1043 215.694,-46.1044 222.694,-46.1043"/>
</g>
<!-- circle -->
<g id="node3" class="node"><title>circle</title>
<ellipse fill="none" stroke="black" stroke-dasharray="5,2" cx="219.194" cy="-162" rx="30.5947" ry="18"/>
<text text-anchor="middle" x="219.194" y="-158.3" font-family="Times New Roman,serif" font-size="14.00">circle</text>
</g>
<!-- circle&#45;&gt;ntrunc -->
<g id="edge14" class="edge"><title>circle&#45;&gt;ntrunc</title>
<path fill="none" stroke="black" d="M219.194,-143.697C219.194,-135.983 219.194,-126.712 219.194,-118.112"/>
<polygon fill="black" stroke="black" points="222.694,-118.104 219.194,-108.104 215.694,-118.104 222.694,-118.104"/>
</g>
<!-- suspension -->
<g id="node4" class="node"><title>suspension</title>
<ellipse fill="none" stroke="black" cx="338.194" cy="-378" rx="51.1914" ry="18"/>
<text text-anchor="middle" x="338.194" y="-374.3" font-family="Times New Roman,serif" font-size="14.00">suspension</text>
</g>
<!-- suspension&#45;&gt;circle -->
<g id="edge2" class="edge"><title>suspension&#45;&gt;circle</title>
<path fill="none" stroke="black" d="M334.813,-359.727C328.143,-328.768 311.096,-262.706 279.194,-216 270.425,-203.163 257.865,-191.426 246.501,-182.278"/>
<polygon fill="black" stroke="black" points="248.559,-179.446 238.508,-176.096 244.277,-184.983 248.559,-179.446"/>
</g>
<!-- ua -->
<g id="node5" class="node"><title>ua</title>
<ellipse fill="none" stroke="black" stroke-dasharray="5,2" cx="129.194" cy="-234" rx="27" ry="18"/>
<text text-anchor="middle" x="129.194" y="-230.3" font-family="Times New Roman,serif" font-size="14.00">ua</text>
</g>
<!-- ua&#45;&gt;circle -->
<g id="edge3" class="edge"><title>ua&#45;&gt;circle</title>
<path fill="none" stroke="black" d="M146.122,-219.834C159.441,-209.475 178.222,-194.867 193.408,-183.055"/>
<polygon fill="black" stroke="black" points="195.673,-185.728 201.418,-176.826 191.375,-180.203 195.673,-185.728"/>
</g>
<!-- equiv -->
<g id="node6" class="node"><title>equiv</title>
<ellipse fill="none" stroke="black" cx="230.194" cy="-666" rx="30.5947" ry="18"/>
<text text-anchor="middle" x="230.194" y="-662.3" font-family="Times New Roman,serif" font-size="14.00">equiv</text>
</g>
<!-- coproduct -->
<g id="node7" class="node"><title>coproduct</title>
<ellipse fill="none" stroke="black" cx="109.194" cy="-594" rx="48.9926" ry="18"/>
<text text-anchor="middle" x="109.194" y="-590.3" font-family="Times New Roman,serif" font-size="14.00">coproduct</text>
</g>
<!-- equiv&#45;&gt;coproduct -->
<g id="edge4" class="edge"><title>equiv&#45;&gt;coproduct</title>
<path fill="none" stroke="black" d="M209.117,-652.807C190.869,-642.25 164.147,-626.791 142.927,-614.515"/>
<polygon fill="black" stroke="black" points="144.619,-611.45 134.21,-609.472 141.113,-617.509 144.619,-611.45"/>
</g>
<!-- heq -->
<g id="node8" class="node"><title>heq</title>
<ellipse fill="none" stroke="black" cx="258.194" cy="-522" rx="27" ry="18"/>
<text text-anchor="middle" x="258.194" y="-518.3" font-family="Times New Roman,serif" font-size="14.00">heq</text>
</g>
<!-- equiv&#45;&gt;heq -->
<g id="edge7" class="edge"><title>equiv&#45;&gt;heq</title>
<path fill="none" stroke="black" d="M233.571,-647.871C238.364,-623.564 247.187,-578.819 252.867,-550.013"/>
<polygon fill="black" stroke="black" points="256.304,-550.677 254.804,-540.189 249.436,-549.323 256.304,-550.677"/>
</g>
<!-- unit -->
<g id="node20" class="node"><title>unit</title>
<ellipse fill="none" stroke="black" cx="203.194" cy="-594" rx="27" ry="18"/>
<text text-anchor="middle" x="203.194" y="-590.3" font-family="Times New Roman,serif" font-size="14.00">unit</text>
</g>
<!-- equiv&#45;&gt;unit -->
<g id="edge26" class="edge"><title>equiv&#45;&gt;unit</title>
<path fill="none" stroke="black" d="M223.658,-648.055C220.574,-640.059 216.821,-630.331 213.376,-621.4"/>
<polygon fill="black" stroke="black" points="216.534,-619.859 209.67,-611.789 210.003,-622.379 216.534,-619.859"/>
</g>
<!-- lost -->
<g id="node23" class="node"><title>lost</title>
<ellipse fill="none" stroke="black" cx="313.194" cy="-594" rx="27" ry="18"/>
<text text-anchor="middle" x="313.194" y="-590.3" font-family="Times New Roman,serif" font-size="14.00">lost</text>
</g>
<!-- equiv&#45;&gt;lost -->
<g id="edge28" class="edge"><title>equiv&#45;&gt;lost</title>
<path fill="none" stroke="black" d="M246.99,-650.834C259.072,-640.645 275.546,-626.751 289.038,-615.372"/>
<polygon fill="black" stroke="black" points="291.599,-617.791 296.987,-608.668 287.087,-612.44 291.599,-617.791"/>
</g>
<!-- structures -->
<g id="node21" class="node"><title>structures</title>
<ellipse fill="none" stroke="black" cx="165.194" cy="-522" rx="46.2923" ry="18"/>
<text text-anchor="middle" x="165.194" y="-518.3" font-family="Times New Roman,serif" font-size="14.00">structures</text>
</g>
<!-- coproduct&#45;&gt;structures -->
<g id="edge19" class="edge"><title>coproduct&#45;&gt;structures</title>
<path fill="none" stroke="black" d="M122.465,-576.411C129.369,-567.781 137.944,-557.062 145.596,-547.497"/>
<polygon fill="black" stroke="black" points="148.504,-549.465 152.018,-539.47 143.038,-545.092 148.504,-549.465"/>
</g>
<!-- nat -->
<g id="node22" class="node"><title>nat</title>
<ellipse fill="none" stroke="black" cx="74.1938" cy="-522" rx="27" ry="18"/>
<text text-anchor="middle" x="74.1938" y="-518.3" font-family="Times New Roman,serif" font-size="14.00">nat</text>
</g>
<!-- coproduct&#45;&gt;nat -->
<g id="edge27" class="edge"><title>coproduct&#45;&gt;nat</title>
<path fill="none" stroke="black" d="M100.721,-576.055C96.577,-567.767 91.5027,-557.618 86.9058,-548.424"/>
<polygon fill="black" stroke="black" points="89.95,-546.686 82.3473,-539.307 83.689,-549.817 89.95,-546.686"/>
</g>
<!-- cubical -->
<g id="node9" class="node"><title>cubical</title>
<ellipse fill="none" stroke="black" cx="234.194" cy="-234" rx="36.2938" ry="18"/>
<text text-anchor="middle" x="234.194" y="-230.3" font-family="Times New Roman,serif" font-size="14.00">cubical</text>
</g>
<!-- heq&#45;&gt;cubical -->
<g id="edge5" class="edge"><title>heq&#45;&gt;cubical</title>
<path fill="none" stroke="black" d="M257.071,-503.736C254.511,-465.069 247.865,-368.577 240.194,-288 239.392,-279.574 238.397,-270.408 237.45,-262.105"/>
<polygon fill="black" stroke="black" points="240.927,-261.698 236.294,-252.17 233.974,-262.507 240.927,-261.698"/>
</g>
<!-- trunc -->
<g id="node15" class="node"><title>trunc</title>
<ellipse fill="none" stroke="black" cx="164.194" cy="-450" rx="29.4969" ry="18"/>
<text text-anchor="middle" x="164.194" y="-446.3" font-family="Times New Roman,serif" font-size="14.00">trunc</text>
</g>
<!-- heq&#45;&gt;trunc -->
<g id="edge24" class="edge"><title>heq&#45;&gt;trunc</title>
<path fill="none" stroke="black" d="M240.513,-507.834C226.423,-497.341 206.48,-482.489 190.513,-470.6"/>
<polygon fill="black" stroke="black" points="192.226,-467.511 182.115,-464.345 188.045,-473.125 192.226,-467.511"/>
</g>
<!-- interval -->
<g id="node16" class="node"><title>interval</title>
<ellipse fill="none" stroke="black" cx="195.194" cy="-378" rx="36.2938" ry="18"/>
<text text-anchor="middle" x="195.194" y="-374.3" font-family="Times New Roman,serif" font-size="14.00">interval</text>
</g>
<!-- heq&#45;&gt;interval -->
<g id="edge12" class="edge"><title>heq&#45;&gt;interval</title>
<path fill="none" stroke="black" d="M250.844,-504.433C240.043,-480.088 219.774,-434.404 206.907,-405.402"/>
<polygon fill="black" stroke="black" points="209.947,-403.623 202.692,-395.902 203.549,-406.462 209.947,-403.623"/>
</g>
<!-- pushout -->
<g id="node19" class="node"><title>pushout</title>
<ellipse fill="none" stroke="black" cx="327.194" cy="-450" rx="40.0939" ry="18"/>
<text text-anchor="middle" x="327.194" y="-446.3" font-family="Times New Roman,serif" font-size="14.00">pushout</text>
</g>
<!-- heq&#45;&gt;pushout -->
<g id="edge17" class="edge"><title>heq&#45;&gt;pushout</title>
<path fill="none" stroke="black" d="M272.491,-506.496C281.639,-497.215 293.713,-484.966 304.19,-474.337"/>
<polygon fill="black" stroke="black" points="306.944,-476.529 311.472,-466.95 301.959,-471.615 306.944,-476.529"/>
</g>
<!-- product -->
<g id="node10" class="node"><title>product</title>
<ellipse fill="none" stroke="black" cx="116.194" cy="-306" rx="39.7935" ry="18"/>
<text text-anchor="middle" x="116.194" y="-302.3" font-family="Times New Roman,serif" font-size="14.00">product</text>
</g>
<!-- product&#45;&gt;ua -->
<g id="edge25" class="edge"><title>product&#45;&gt;ua</title>
<path fill="none" stroke="black" d="M119.341,-288.055C120.772,-280.346 122.503,-271.027 124.112,-262.364"/>
<polygon fill="black" stroke="black" points="127.601,-262.746 125.986,-252.275 120.718,-261.468 127.601,-262.746"/>
</g>
<!-- product&#45;&gt;cubical -->
<g id="edge6" class="edge"><title>product&#45;&gt;cubical</title>
<path fill="none" stroke="black" d="M139.225,-291.337C157.372,-280.572 182.86,-265.452 202.863,-253.586"/>
<polygon fill="black" stroke="black" points="204.806,-256.503 211.621,-248.391 201.235,-250.482 204.806,-256.503"/>
</g>
<!-- support -->
<g id="node11" class="node"><title>support</title>
<ellipse fill="none" stroke="black" cx="144.194" cy="-738" rx="38.9931" ry="18"/>
<text text-anchor="middle" x="144.194" y="-734.3" font-family="Times New Roman,serif" font-size="14.00">support</text>
</g>
<!-- support&#45;&gt;equiv -->
<g id="edge8" class="edge"><title>support&#45;&gt;equiv</title>
<path fill="none" stroke="black" d="M162.854,-721.811C175.209,-711.755 191.561,-698.445 205.058,-687.46"/>
<polygon fill="black" stroke="black" points="207.485,-689.997 213.031,-680.97 203.066,-684.568 207.485,-689.997"/>
</g>
<!-- functions -->
<g id="node12" class="node"><title>functions</title>
<ellipse fill="none" stroke="black" cx="317.194" cy="-738" rx="44.393" ry="18"/>
<text text-anchor="middle" x="317.194" y="-734.3" font-family="Times New Roman,serif" font-size="14.00">functions</text>
</g>
<!-- functions&#45;&gt;equiv -->
<g id="edge9" class="edge"><title>functions&#45;&gt;equiv</title>
<path fill="none" stroke="black" d="M297.886,-721.465C285.449,-711.458 269.143,-698.339 255.652,-687.484"/>
<polygon fill="black" stroke="black" points="257.661,-684.607 247.675,-681.066 253.272,-690.061 257.661,-684.607"/>
</g>
<!-- eq -->
<g id="node13" class="node"><title>eq</title>
<ellipse fill="none" stroke="black" cx="186.194" cy="-810" rx="27" ry="18"/>
<text text-anchor="middle" x="186.194" y="-806.3" font-family="Times New Roman,serif" font-size="14.00">eq</text>
</g>
<!-- eq&#45;&gt;support -->
<g id="edge20" class="edge"><title>eq&#45;&gt;support</title>
<path fill="none" stroke="black" d="M176.663,-793.116C171.601,-784.679 165.256,-774.104 159.522,-764.547"/>
<polygon fill="black" stroke="black" points="162.418,-762.572 154.272,-755.797 156.416,-766.173 162.418,-762.572"/>
</g>
<!-- int -->
<g id="node14" class="node"><title>int</title>
<ellipse fill="none" stroke="black" cx="228.194" cy="-738" rx="27" ry="18"/>
<text text-anchor="middle" x="228.194" y="-734.3" font-family="Times New Roman,serif" font-size="14.00">int</text>
</g>
<!-- eq&#45;&gt;int -->
<g id="edge10" class="edge"><title>eq&#45;&gt;int</title>
<path fill="none" stroke="black" d="M195.724,-793.116C200.86,-784.557 207.315,-773.797 213.115,-764.132"/>
<polygon fill="black" stroke="black" points="216.266,-765.683 218.41,-755.307 210.263,-762.081 216.266,-765.683"/>
</g>
<!-- trunc&#45;&gt;interval -->
<g id="edge11" class="edge"><title>trunc&#45;&gt;interval</title>
<path fill="none" stroke="black" d="M171.54,-432.411C175.117,-424.335 179.503,-414.431 183.522,-405.355"/>
<polygon fill="black" stroke="black" points="186.835,-406.517 187.685,-395.956 180.435,-403.682 186.835,-406.517"/>
</g>
<!-- mere_eq_lemma -->
<g id="node17" class="node"><title>mere_eq_lemma</title>
<ellipse fill="none" stroke="black" cx="70.1938" cy="-378" rx="70.3881" ry="18"/>
<text text-anchor="middle" x="70.1938" y="-374.3" font-family="Times New Roman,serif" font-size="14.00">mere_eq_lemma</text>
</g>
<!-- trunc&#45;&gt;mere_eq_lemma -->
<g id="edge13" class="edge"><title>trunc&#45;&gt;mere_eq_lemma</title>
<path fill="none" stroke="black" d="M146.07,-435.503C133.015,-425.782 115.109,-412.448 99.9697,-401.174"/>
<polygon fill="black" stroke="black" points="102.003,-398.324 91.8921,-395.158 97.8221,-403.938 102.003,-398.324"/>
</g>
<!-- interval&#45;&gt;product -->
<g id="edge15" class="edge"><title>interval&#45;&gt;product</title>
<path fill="none" stroke="black" d="M178.052,-361.811C167.256,-352.245 153.139,-339.736 141.117,-329.084"/>
<polygon fill="black" stroke="black" points="143.381,-326.413 133.575,-322.401 138.738,-331.653 143.381,-326.413"/>
</g>
<!-- prop -->
<g id="node18" class="node"><title>prop</title>
<ellipse fill="none" stroke="black" cx="202.194" cy="-306" rx="28.6953" ry="18"/>
<text text-anchor="middle" x="202.194" y="-302.3" font-family="Times New Roman,serif" font-size="14.00">prop</text>
</g>
<!-- interval&#45;&gt;prop -->
<g id="edge16" class="edge"><title>interval&#45;&gt;prop</title>
<path fill="none" stroke="black" d="M196.924,-359.697C197.696,-351.983 198.623,-342.712 199.483,-334.112"/>
<polygon fill="black" stroke="black" points="202.971,-334.403 200.483,-324.104 196.006,-333.706 202.971,-334.403"/>
</g>
<!-- pushout&#45;&gt;suspension -->
<g id="edge21" class="edge"><title>pushout&#45;&gt;suspension</title>
<path fill="none" stroke="black" d="M329.913,-431.697C331.125,-423.983 332.582,-414.712 333.933,-406.112"/>
<polygon fill="black" stroke="black" points="337.411,-406.526 335.506,-396.104 330.496,-405.44 337.411,-406.526"/>
</g>
<!-- unit&#45;&gt;suspension -->
<g id="edge22" class="edge"><title>unit&#45;&gt;suspension</title>
<path fill="none" stroke="black" d="M226.606,-584.906C266.78,-569.527 347.31,-531.799 376.194,-468 382.793,-453.424 381.09,-447.232 376.194,-432 372.868,-421.652 366.692,-411.612 360.272,-403.104"/>
<polygon fill="black" stroke="black" points="362.866,-400.745 353.868,-395.152 357.415,-405.136 362.866,-400.745"/>
</g>
<!-- unit&#45;&gt;structures -->
<g id="edge18" class="edge"><title>unit&#45;&gt;structures</title>
<path fill="none" stroke="black" d="M194.38,-576.765C189.908,-568.525 184.366,-558.317 179.317,-549.016"/>
<polygon fill="black" stroke="black" points="182.337,-547.243 174.49,-540.124 176.185,-550.582 182.337,-547.243"/>
</g>
<!-- structures&#45;&gt;trunc -->
<g id="edge23" class="edge"><title>structures&#45;&gt;trunc</title>
<path fill="none" stroke="black" d="M164.947,-503.697C164.836,-495.983 164.704,-486.712 164.581,-478.112"/>
<polygon fill="black" stroke="black" points="168.081,-478.053 164.438,-468.104 161.081,-478.153 168.081,-478.053"/>
</g>
<!-- sigma -->
<g id="node24" class="node"><title>sigma</title>
<ellipse fill="none" stroke="black" cx="263.194" cy="-810" rx="31.6951" ry="18"/>
<text text-anchor="middle" x="263.194" y="-806.3" font-family="Times New Roman,serif" font-size="14.00">sigma</text>
</g>
</g>
</svg>
