<?xml version="1.0" encoding="UTF-8" standalone="no"?>
<!DOCTYPE svg PUBLIC "-//W3C//DTD SVG 1.1//EN"
 "http://www.w3.org/Graphics/SVG/1.1/DTD/svg11.dtd">
<!-- Generated by graphviz version 2.38.0 (20140413.2041)
 -->
<!-- Title: dependency_map Pages: 1 -->
<svg width="1042pt" height="908pt"
 viewBox="0.00 0.00 1041.59 908.00" xmlns="http://www.w3.org/2000/svg" xmlns:xlink="http://www.w3.org/1999/xlink">
<g id="graph0" class="graph" transform="scale(1 1) rotate(0) translate(4 904)">
<title>dependency_map</title>
<polygon fill="white" stroke="none" points="-4,4 -4,-904 1037.59,-904 1037.59,4 -4,4"/>
<!-- proto -->
<g id="node1" class="node"><title>proto</title>
<ellipse fill="none" stroke="black" cx="494.445" cy="-882" rx="30.5947" ry="18"/>
<text text-anchor="middle" x="494.445" y="-878.3" font-family="Times New Roman,serif" font-size="14.00">proto</text>
</g>
<!-- types/eq -->
<g id="node2" class="node"><title>types/eq</title>
<ellipse fill="none" stroke="black" cx="554.445" cy="-810" rx="41.6928" ry="18"/>
<text text-anchor="middle" x="554.445" y="-806.3" font-family="Times New Roman,serif" font-size="14.00">types/eq</text>
</g>
<!-- proto&#45;&gt;types/eq -->
<g id="edge1" class="edge"><title>proto&#45;&gt;types/eq</title>
<path fill="none" stroke="black" d="M507.761,-865.465C515.388,-856.566 525.126,-845.205 533.732,-835.164"/>
<polygon fill="black" stroke="black" points="536.479,-837.338 540.33,-827.467 531.165,-832.782 536.479,-837.338"/>
</g>
<!-- types/dep_path -->
<g id="node15" class="node"><title>types/dep_path</title>
<ellipse fill="none" stroke="black" cx="616.445" cy="-738" rx="66.8882" ry="18"/>
<text text-anchor="middle" x="616.445" y="-734.3" font-family="Times New Roman,serif" font-size="14.00">types/dep_path</text>
</g>
<!-- types/eq&#45;&gt;types/dep_path -->
<g id="edge10" class="edge"><title>types/eq&#45;&gt;types/dep_path</title>
<path fill="none" stroke="black" d="M568.825,-792.765C576.615,-783.969 586.394,-772.928 595.06,-763.144"/>
<polygon fill="black" stroke="black" points="597.702,-765.44 601.712,-755.633 592.462,-760.799 597.702,-765.44"/>
</g>
<!-- support -->
<g id="node23" class="node"><title>support</title>
<ellipse fill="none" stroke="black" cx="492.445" cy="-738" rx="38.9931" ry="18"/>
<text text-anchor="middle" x="492.445" y="-734.3" font-family="Times New Roman,serif" font-size="14.00">support</text>
</g>
<!-- types/eq&#45;&gt;support -->
<g id="edge37" class="edge"><title>types/eq&#45;&gt;support</title>
<path fill="none" stroke="black" d="M540.065,-792.765C532.161,-783.841 522.212,-772.608 513.453,-762.719"/>
<polygon fill="black" stroke="black" points="515.997,-760.313 506.747,-755.147 510.757,-764.954 515.997,-760.313"/>
</g>
<!-- meta/hott_theory -->
<g id="node3" class="node"><title>meta/hott_theory</title>
<ellipse fill="none" stroke="black" cx="615.445" cy="-882" rx="72.2875" ry="18"/>
<text text-anchor="middle" x="615.445" y="-878.3" font-family="Times New Roman,serif" font-size="14.00">meta/hott_theory</text>
</g>
<!-- meta/hott_theory&#45;&gt;types/eq -->
<g id="edge2" class="edge"><title>meta/hott_theory&#45;&gt;types/eq</title>
<path fill="none" stroke="black" d="M600.678,-864.055C593.075,-855.33 583.676,-844.544 575.342,-834.981"/>
<polygon fill="black" stroke="black" points="577.864,-832.547 568.655,-827.307 572.586,-837.146 577.864,-832.547"/>
</g>
<!-- algebra -->
<g id="node4" class="node"><title>algebra</title>
<ellipse fill="none" stroke="black" stroke-dasharray="5,2" cx="144.445" cy="-18" rx="36.2938" ry="18"/>
<text text-anchor="middle" x="144.445" y="-14.3" font-family="Times New Roman,serif" font-size="14.00">algebra</text>
</g>
<!-- HITs/ntrunc -->
<g id="node5" class="node"><title>HITs/ntrunc</title>
<ellipse fill="none" stroke="black" stroke-dasharray="5,2" cx="144.445" cy="-90" rx="55.4913" ry="18"/>
<text text-anchor="middle" x="144.445" y="-86.3" font-family="Times New Roman,serif" font-size="14.00">HITs/ntrunc</text>
</g>
<!-- HITs/ntrunc&#45;&gt;algebra -->
<g id="edge3" class="edge"><title>HITs/ntrunc&#45;&gt;algebra</title>
<path fill="none" stroke="black" d="M144.445,-71.6966C144.445,-63.9827 144.445,-54.7125 144.445,-46.1124"/>
<polygon fill="black" stroke="black" points="147.945,-46.1043 144.445,-36.1043 140.945,-46.1044 147.945,-46.1043"/>
</g>
<!-- HITs/circle -->
<g id="node6" class="node"><title>HITs/circle</title>
<ellipse fill="none" stroke="black" stroke-dasharray="5,2" cx="153.445" cy="-162" rx="51.9908" ry="18"/>
<text text-anchor="middle" x="153.445" y="-158.3" font-family="Times New Roman,serif" font-size="14.00">HITs/circle</text>
</g>
<!-- HITs/circle&#45;&gt;HITs/ntrunc -->
<g id="edge28" class="edge"><title>HITs/circle&#45;&gt;HITs/ntrunc</title>
<path fill="none" stroke="black" d="M151.22,-143.697C150.228,-135.983 149.036,-126.712 147.931,-118.112"/>
<polygon fill="black" stroke="black" points="151.39,-117.576 146.644,-108.104 144.448,-118.469 151.39,-117.576"/>
</g>
<!-- types/integers -->
<g id="node7" class="node"><title>types/integers</title>
<ellipse fill="none" stroke="black" cx="60.4446" cy="-522" rx="60.3893" ry="18"/>
<text text-anchor="middle" x="60.4446" y="-518.3" font-family="Times New Roman,serif" font-size="14.00">types/integers</text>
</g>
<!-- types/integers&#45;&gt;HITs/circle -->
<g id="edge4" class="edge"><title>types/integers&#45;&gt;HITs/circle</title>
<path fill="none" stroke="black" d="M61.0373,-503.953C61.9116,-477.297 63.4446,-424.125 63.4446,-379 63.4446,-379 63.4446,-379 63.4446,-305 63.4446,-256.917 100.714,-211.915 127.286,-185.94"/>
<polygon fill="black" stroke="black" points="129.948,-188.24 134.797,-178.819 125.132,-183.16 129.948,-188.24"/>
</g>
<!-- HITs/reals -->
<g id="node34" class="node"><title>HITs/reals</title>
<ellipse fill="none" stroke="black" cx="243.445" cy="-450" rx="48.9926" ry="18"/>
<text text-anchor="middle" x="243.445" y="-446.3" font-family="Times New Roman,serif" font-size="14.00">HITs/reals</text>
</g>
<!-- types/integers&#45;&gt;HITs/reals -->
<g id="edge34" class="edge"><title>types/integers&#45;&gt;HITs/reals</title>
<path fill="none" stroke="black" d="M96.1633,-507.337C126.328,-495.799 169.572,-479.257 201.402,-467.082"/>
<polygon fill="black" stroke="black" points="202.797,-470.296 210.886,-463.454 200.296,-463.758 202.797,-470.296"/>
</g>
<!-- HITs/suspension -->
<g id="node8" class="node"><title>HITs/suspension</title>
<ellipse fill="none" stroke="black" cx="491.445" cy="-450" rx="72.5877" ry="18"/>
<text text-anchor="middle" x="491.445" y="-446.3" font-family="Times New Roman,serif" font-size="14.00">HITs/suspension</text>
</g>
<!-- HITs/suspension&#45;&gt;HITs/circle -->
<g id="edge5" class="edge"><title>HITs/suspension&#45;&gt;HITs/circle</title>
<path fill="none" stroke="black" d="M448.098,-435.449C394.889,-417.091 304.254,-380.034 243.445,-324 202.293,-286.08 175.386,-224.909 162.452,-189.9"/>
<polygon fill="black" stroke="black" points="165.696,-188.579 159.03,-180.344 159.106,-190.939 165.696,-188.579"/>
</g>
<!-- theorems/ua -->
<g id="node9" class="node"><title>theorems/ua</title>
<ellipse fill="none" stroke="black" stroke-dasharray="5,2" cx="263.445" cy="-234" rx="54.6905" ry="18"/>
<text text-anchor="middle" x="263.445" y="-230.3" font-family="Times New Roman,serif" font-size="14.00">theorems/ua</text>
</g>
<!-- theorems/ua&#45;&gt;HITs/circle -->
<g id="edge6" class="edge"><title>theorems/ua&#45;&gt;HITs/circle</title>
<path fill="none" stroke="black" d="M239.576,-217.811C223.864,-207.813 203.098,-194.598 185.893,-183.649"/>
<polygon fill="black" stroke="black" points="187.582,-180.575 177.266,-178.159 183.824,-186.481 187.582,-180.575"/>
</g>
<!-- cubical/V -->
<g id="node22" class="node"><title>cubical/V</title>
<ellipse fill="none" stroke="black" stroke-dasharray="5,2" cx="263.445" cy="-90" rx="45.4919" ry="18"/>
<text text-anchor="middle" x="263.445" y="-86.3" font-family="Times New Roman,serif" font-size="14.00">cubical/V</text>
</g>
<!-- theorems/ua&#45;&gt;cubical/V -->
<g id="edge16" class="edge"><title>theorems/ua&#45;&gt;cubical/V</title>
<path fill="none" stroke="black" d="M263.445,-215.871C263.445,-191.67 263.445,-147.211 263.445,-118.393"/>
<polygon fill="black" stroke="black" points="266.945,-118.189 263.445,-108.189 259.945,-118.189 266.945,-118.189"/>
</g>
<!-- types/heq -->
<g id="node10" class="node"><title>types/heq</title>
<ellipse fill="none" stroke="black" cx="430.445" cy="-594" rx="46.2923" ry="18"/>
<text text-anchor="middle" x="430.445" y="-590.3" font-family="Times New Roman,serif" font-size="14.00">types/heq</text>
</g>
<!-- HITs/colimit -->
<g id="node11" class="node"><title>HITs/colimit</title>
<ellipse fill="none" stroke="black" cx="294.445" cy="-522" rx="56.59" ry="18"/>
<text text-anchor="middle" x="294.445" y="-518.3" font-family="Times New Roman,serif" font-size="14.00">HITs/colimit</text>
</g>
<!-- types/heq&#45;&gt;HITs/colimit -->
<g id="edge7" class="edge"><title>types/heq&#45;&gt;HITs/colimit</title>
<path fill="none" stroke="black" d="M403.575,-579.17C383.164,-568.665 354.834,-554.083 332.153,-542.409"/>
<polygon fill="black" stroke="black" points="333.629,-539.232 323.136,-537.768 330.426,-545.456 333.629,-539.232"/>
</g>
<!-- HITs/int -->
<g id="node25" class="node"><title>HITs/int</title>
<ellipse fill="none" stroke="black" cx="179.445" cy="-522" rx="40.8928" ry="18"/>
<text text-anchor="middle" x="179.445" y="-518.3" font-family="Times New Roman,serif" font-size="14.00">HITs/int</text>
</g>
<!-- types/heq&#45;&gt;HITs/int -->
<g id="edge23" class="edge"><title>types/heq&#45;&gt;HITs/int</title>
<path fill="none" stroke="black" d="M392.223,-583.907C351.418,-573.982 284.985,-557.197 228.445,-540 225.658,-539.153 222.794,-538.248 219.916,-537.314"/>
<polygon fill="black" stroke="black" points="220.763,-533.907 210.169,-534.067 218.55,-540.548 220.763,-533.907"/>
</g>
<!-- HITs/trunc -->
<g id="node26" class="node"><title>HITs/trunc</title>
<ellipse fill="none" stroke="black" cx="632.445" cy="-450" rx="50.8918" ry="18"/>
<text text-anchor="middle" x="632.445" y="-446.3" font-family="Times New Roman,serif" font-size="14.00">HITs/trunc</text>
</g>
<!-- types/heq&#45;&gt;HITs/trunc -->
<g id="edge41" class="edge"><title>types/heq&#45;&gt;HITs/trunc</title>
<path fill="none" stroke="black" d="M452.062,-577.804C488.265,-552.354 561.226,-501.065 602.399,-472.121"/>
<polygon fill="black" stroke="black" points="604.509,-474.916 610.677,-466.302 600.483,-469.189 604.509,-474.916"/>
</g>
<!-- HITs/pushout -->
<g id="node28" class="node"><title>HITs/pushout</title>
<ellipse fill="none" stroke="black" cx="430.445" cy="-522" rx="61.99" ry="18"/>
<text text-anchor="middle" x="430.445" y="-518.3" font-family="Times New Roman,serif" font-size="14.00">HITs/pushout</text>
</g>
<!-- types/heq&#45;&gt;HITs/pushout -->
<g id="edge31" class="edge"><title>types/heq&#45;&gt;HITs/pushout</title>
<path fill="none" stroke="black" d="M430.445,-575.697C430.445,-567.983 430.445,-558.712 430.445,-550.112"/>
<polygon fill="black" stroke="black" points="433.945,-550.104 430.445,-540.104 426.945,-550.104 433.945,-550.104"/>
</g>
<!-- HITs/infinitesimal -->
<g id="node12" class="node"><title>HITs/infinitesimal</title>
<ellipse fill="none" stroke="black" stroke-dasharray="5,2" cx="848.445" cy="-594" rx="74.9875" ry="18"/>
<text text-anchor="middle" x="848.445" y="-590.3" font-family="Times New Roman,serif" font-size="14.00">HITs/infinitesimal</text>
</g>
<!-- types/equiv -->
<g id="node13" class="node"><title>types/equiv</title>
<ellipse fill="none" stroke="black" cx="616.445" cy="-666" rx="51.9908" ry="18"/>
<text text-anchor="middle" x="616.445" y="-662.3" font-family="Times New Roman,serif" font-size="14.00">types/equiv</text>
</g>
<!-- types/equiv&#45;&gt;types/integers -->
<g id="edge19" class="edge"><title>types/equiv&#45;&gt;types/integers</title>
<path fill="none" stroke="black" d="M572.727,-656.193C524.303,-646.251 444.004,-629.208 375.445,-612 281.593,-588.444 173.235,-556.851 111.187,-538.333"/>
<polygon fill="black" stroke="black" points="111.849,-534.877 101.265,-535.365 109.843,-541.584 111.849,-534.877"/>
</g>
<!-- types/equiv&#45;&gt;types/heq -->
<g id="edge18" class="edge"><title>types/equiv&#45;&gt;types/heq</title>
<path fill="none" stroke="black" d="M582.329,-652.161C551.211,-640.45 505.152,-623.116 471.919,-610.608"/>
<polygon fill="black" stroke="black" points="473.071,-607.302 462.479,-607.056 470.605,-613.854 473.071,-607.302"/>
</g>
<!-- types/equiv&#45;&gt;HITs/infinitesimal -->
<g id="edge8" class="edge"><title>types/equiv&#45;&gt;HITs/infinitesimal</title>
<path fill="none" stroke="black" d="M654.236,-653.597C692.116,-642.168 750.823,-624.455 793.779,-611.494"/>
<polygon fill="black" stroke="black" points="794.95,-614.796 803.513,-608.557 792.928,-608.095 794.95,-614.796"/>
</g>
<!-- types/coproduct -->
<g id="node14" class="node"><title>types/coproduct</title>
<ellipse fill="none" stroke="black" cx="684.445" cy="-594" rx="70.6878" ry="18"/>
<text text-anchor="middle" x="684.445" y="-590.3" font-family="Times New Roman,serif" font-size="14.00">types/coproduct</text>
</g>
<!-- types/equiv&#45;&gt;types/coproduct -->
<g id="edge9" class="edge"><title>types/equiv&#45;&gt;types/coproduct</title>
<path fill="none" stroke="black" d="M632.216,-648.765C640.845,-639.882 651.698,-628.709 661.272,-618.854"/>
<polygon fill="black" stroke="black" points="663.829,-621.245 668.286,-611.633 658.808,-616.367 663.829,-621.245"/>
</g>
<!-- types/unit -->
<g id="node35" class="node"><title>types/unit</title>
<ellipse fill="none" stroke="black" cx="549.445" cy="-594" rx="46.2923" ry="18"/>
<text text-anchor="middle" x="549.445" y="-590.3" font-family="Times New Roman,serif" font-size="14.00">types/unit</text>
</g>
<!-- types/equiv&#45;&gt;types/unit -->
<g id="edge43" class="edge"><title>types/equiv&#45;&gt;types/unit</title>
<path fill="none" stroke="black" d="M600.905,-648.765C592.28,-639.753 581.399,-628.385 571.867,-618.426"/>
<polygon fill="black" stroke="black" points="574.343,-615.951 564.9,-611.147 569.286,-620.792 574.343,-615.951"/>
</g>
<!-- types/lost -->
<g id="node38" class="node"><title>types/lost</title>
<ellipse fill="none" stroke="black" cx="987.445" cy="-594" rx="46.2923" ry="18"/>
<text text-anchor="middle" x="987.445" y="-590.3" font-family="Times New Roman,serif" font-size="14.00">types/lost</text>
</g>
<!-- types/equiv&#45;&gt;types/lost -->
<g id="edge45" class="edge"><title>types/equiv&#45;&gt;types/lost</title>
<path fill="none" stroke="black" d="M664.489,-658.977C726.773,-650.706 838.539,-634.282 932.445,-612 936.061,-611.142 939.787,-610.174 943.515,-609.147"/>
<polygon fill="black" stroke="black" points="944.673,-612.456 953.313,-606.324 942.734,-605.73 944.673,-612.456"/>
</g>
<!-- structures -->
<g id="node36" class="node"><title>structures</title>
<ellipse fill="none" stroke="black" cx="632.445" cy="-522" rx="46.2923" ry="18"/>
<text text-anchor="middle" x="632.445" y="-518.3" font-family="Times New Roman,serif" font-size="14.00">structures</text>
</g>
<!-- types/coproduct&#45;&gt;structures -->
<g id="edge36" class="edge"><title>types/coproduct&#45;&gt;structures</title>
<path fill="none" stroke="black" d="M671.857,-576.055C665.597,-567.629 657.91,-557.28 650.991,-547.966"/>
<polygon fill="black" stroke="black" points="653.689,-545.729 644.916,-539.789 648.07,-549.904 653.689,-545.729"/>
</g>
<!-- types/nat -->
<g id="node37" class="node"><title>types/nat</title>
<ellipse fill="none" stroke="black" cx="740.445" cy="-522" rx="43.5923" ry="18"/>
<text text-anchor="middle" x="740.445" y="-518.3" font-family="Times New Roman,serif" font-size="14.00">types/nat</text>
</g>
<!-- types/coproduct&#45;&gt;types/nat -->
<g id="edge44" class="edge"><title>types/coproduct&#45;&gt;types/nat</title>
<path fill="none" stroke="black" d="M698.001,-576.055C704.911,-567.418 713.437,-556.76 721.03,-547.268"/>
<polygon fill="black" stroke="black" points="723.885,-549.302 727.399,-539.307 718.419,-544.929 723.885,-549.302"/>
</g>
<!-- types/dep_path&#45;&gt;types/equiv -->
<g id="edge20" class="edge"><title>types/dep_path&#45;&gt;types/equiv</title>
<path fill="none" stroke="black" d="M616.445,-719.697C616.445,-711.983 616.445,-702.712 616.445,-694.112"/>
<polygon fill="black" stroke="black" points="619.945,-694.104 616.445,-684.104 612.945,-694.104 619.945,-694.104"/>
</g>
<!-- cubical/Path -->
<g id="node16" class="node"><title>cubical/Path</title>
<ellipse fill="none" stroke="black" cx="507.445" cy="-162" rx="55.4913" ry="18"/>
<text text-anchor="middle" x="507.445" y="-158.3" font-family="Times New Roman,serif" font-size="14.00">cubical/Path</text>
</g>
<!-- cubical/connection -->
<g id="node17" class="node"><title>cubical/connection</title>
<ellipse fill="none" stroke="black" cx="705.445" cy="-90" rx="79.0865" ry="18"/>
<text text-anchor="middle" x="705.445" y="-86.3" font-family="Times New Roman,serif" font-size="14.00">cubical/connection</text>
</g>
<!-- cubical/Path&#45;&gt;cubical/connection -->
<g id="edge11" class="edge"><title>cubical/Path&#45;&gt;cubical/connection</title>
<path fill="none" stroke="black" d="M543.761,-148.161C574.988,-137.121 620.349,-121.084 655.082,-108.805"/>
<polygon fill="black" stroke="black" points="656.315,-112.081 664.577,-105.448 653.982,-105.482 656.315,-112.081"/>
</g>
<!-- cubical/Square -->
<g id="node20" class="node"><title>cubical/Square</title>
<ellipse fill="none" stroke="black" cx="867.445" cy="-90" rx="64.189" ry="18"/>
<text text-anchor="middle" x="867.445" y="-86.3" font-family="Times New Roman,serif" font-size="14.00">cubical/Square</text>
</g>
<!-- cubical/Path&#45;&gt;cubical/Square -->
<g id="edge14" class="edge"><title>cubical/Path&#45;&gt;cubical/Square</title>
<path fill="none" stroke="black" d="M555.134,-152.803C612.007,-142.879 709.881,-125.333 793.445,-108 798.769,-106.896 804.299,-105.706 809.829,-104.487"/>
<polygon fill="black" stroke="black" points="810.745,-107.868 819.742,-102.273 809.219,-101.037 810.745,-107.868"/>
</g>
<!-- cubical/example -->
<g id="node21" class="node"><title>cubical/example</title>
<ellipse fill="none" stroke="black" cx="395.445" cy="-90" rx="68.7879" ry="18"/>
<text text-anchor="middle" x="395.445" y="-86.3" font-family="Times New Roman,serif" font-size="14.00">cubical/example</text>
</g>
<!-- cubical/Path&#45;&gt;cubical/example -->
<g id="edge15" class="edge"><title>cubical/Path&#45;&gt;cubical/example</title>
<path fill="none" stroke="black" d="M483.142,-145.811C467.473,-136.018 446.868,-123.14 429.568,-112.327"/>
<polygon fill="black" stroke="black" points="431.201,-109.22 420.866,-106.888 427.491,-115.156 431.201,-109.22"/>
</g>
<!-- cubical/Path&#45;&gt;cubical/V -->
<g id="edge17" class="edge"><title>cubical/Path&#45;&gt;cubical/V</title>
<path fill="none" stroke="black" d="M466.192,-149.914C427.63,-139.451 368.495,-123.151 317.445,-108 314.141,-107.019 310.729,-105.989 307.301,-104.94"/>
<polygon fill="black" stroke="black" points="308.26,-101.573 297.672,-101.962 306.192,-108.26 308.26,-101.573"/>
</g>
<!-- HITs/moebius -->
<g id="node30" class="node"><title>HITs/moebius</title>
<ellipse fill="none" stroke="black" cx="545.445" cy="-90" rx="63.0888" ry="18"/>
<text text-anchor="middle" x="545.445" y="-86.3" font-family="Times New Roman,serif" font-size="14.00">HITs/moebius</text>
</g>
<!-- cubical/Path&#45;&gt;HITs/moebius -->
<g id="edge26" class="edge"><title>cubical/Path&#45;&gt;HITs/moebius</title>
<path fill="none" stroke="black" d="M516.643,-144.055C521.012,-136.007 526.334,-126.205 531.208,-117.226"/>
<polygon fill="black" stroke="black" points="534.372,-118.734 536.067,-108.275 528.22,-115.394 534.372,-118.734"/>
</g>
<!-- types/product -->
<g id="node18" class="node"><title>types/product</title>
<ellipse fill="none" stroke="black" cx="314.445" cy="-306" rx="61.99" ry="18"/>
<text text-anchor="middle" x="314.445" y="-302.3" font-family="Times New Roman,serif" font-size="14.00">types/product</text>
</g>
<!-- types/product&#45;&gt;theorems/ua -->
<g id="edge42" class="edge"><title>types/product&#45;&gt;theorems/ua</title>
<path fill="none" stroke="black" d="M302.099,-288.055C295.96,-279.629 288.42,-269.28 281.634,-259.966"/>
<polygon fill="black" stroke="black" points="284.394,-257.81 275.677,-251.789 278.736,-261.932 284.394,-257.81"/>
</g>
<!-- cubical/cubes -->
<g id="node19" class="node"><title>cubical/cubes</title>
<ellipse fill="none" stroke="black" cx="470.445" cy="-234" rx="60.3893" ry="18"/>
<text text-anchor="middle" x="470.445" y="-230.3" font-family="Times New Roman,serif" font-size="14.00">cubical/cubes</text>
</g>
<!-- types/product&#45;&gt;cubical/cubes -->
<g id="edge12" class="edge"><title>types/product&#45;&gt;cubical/cubes</title>
<path fill="none" stroke="black" d="M346.768,-290.496C370.693,-279.761 403.469,-265.053 429.27,-253.476"/>
<polygon fill="black" stroke="black" points="430.739,-256.653 438.43,-249.366 427.874,-250.266 430.739,-256.653"/>
</g>
<!-- cubical/cubes&#45;&gt;cubical/Path -->
<g id="edge13" class="edge"><title>cubical/cubes&#45;&gt;cubical/Path</title>
<path fill="none" stroke="black" d="M479.401,-216.055C483.719,-207.887 488.991,-197.912 493.795,-188.824"/>
<polygon fill="black" stroke="black" points="496.992,-190.266 498.57,-179.789 490.803,-186.994 496.992,-190.266"/>
</g>
<!-- support&#45;&gt;types/equiv -->
<g id="edge21" class="edge"><title>support&#45;&gt;types/equiv</title>
<path fill="none" stroke="black" d="M516.06,-723.669C534.546,-713.233 560.537,-698.561 581.44,-686.761"/>
<polygon fill="black" stroke="black" points="583.357,-689.698 590.345,-681.734 579.916,-683.602 583.357,-689.698"/>
</g>
<!-- theorems/functions -->
<g id="node24" class="node"><title>theorems/functions</title>
<ellipse fill="none" stroke="black" cx="781.445" cy="-738" rx="79.8859" ry="18"/>
<text text-anchor="middle" x="781.445" y="-734.3" font-family="Times New Roman,serif" font-size="14.00">theorems/functions</text>
</g>
<!-- theorems/functions&#45;&gt;types/equiv -->
<g id="edge22" class="edge"><title>theorems/functions&#45;&gt;types/equiv</title>
<path fill="none" stroke="black" d="M745.642,-721.811C719.613,-710.769 684.337,-695.803 657.223,-684.3"/>
<polygon fill="black" stroke="black" points="658.573,-681.071 648.001,-680.387 655.839,-687.515 658.573,-681.071"/>
</g>
<!-- HITs/rat -->
<g id="node33" class="node"><title>HITs/rat</title>
<ellipse fill="none" stroke="black" cx="135.445" cy="-450" rx="41.6928" ry="18"/>
<text text-anchor="middle" x="135.445" y="-446.3" font-family="Times New Roman,serif" font-size="14.00">HITs/rat</text>
</g>
<!-- HITs/int&#45;&gt;HITs/rat -->
<g id="edge32" class="edge"><title>HITs/int&#45;&gt;HITs/rat</title>
<path fill="none" stroke="black" d="M169.017,-504.411C163.702,-495.955 157.127,-485.494 151.208,-476.078"/>
<polygon fill="black" stroke="black" points="154.082,-474.074 145.797,-467.47 148.156,-477.799 154.082,-474.074"/>
</g>
<!-- HITs/interval -->
<g id="node27" class="node"><title>HITs/interval</title>
<ellipse fill="none" stroke="black" cx="455.445" cy="-378" rx="57.6901" ry="18"/>
<text text-anchor="middle" x="455.445" y="-374.3" font-family="Times New Roman,serif" font-size="14.00">HITs/interval</text>
</g>
<!-- HITs/trunc&#45;&gt;HITs/interval -->
<g id="edge24" class="edge"><title>HITs/trunc&#45;&gt;HITs/interval</title>
<path fill="none" stroke="black" d="M599.98,-436.161C571.671,-424.965 530.366,-408.63 499.155,-396.286"/>
<polygon fill="black" stroke="black" points="500.404,-393.017 489.818,-392.594 497.83,-399.526 500.404,-393.017"/>
</g>
<!-- theorems/mere_eq_lemma -->
<g id="node31" class="node"><title>theorems/mere_eq_lemma</title>
<ellipse fill="none" stroke="black" cx="637.445" cy="-378" rx="105.881" ry="18"/>
<text text-anchor="middle" x="637.445" y="-374.3" font-family="Times New Roman,serif" font-size="14.00">theorems/mere_eq_lemma</text>
</g>
<!-- HITs/trunc&#45;&gt;theorems/mere_eq_lemma -->
<g id="edge27" class="edge"><title>HITs/trunc&#45;&gt;theorems/mere_eq_lemma</title>
<path fill="none" stroke="black" d="M633.681,-431.697C634.232,-423.983 634.894,-414.712 635.508,-406.112"/>
<polygon fill="black" stroke="black" points="639.001,-406.328 636.223,-396.104 632.019,-405.83 639.001,-406.328"/>
</g>
<!-- HITs/interval&#45;&gt;types/product -->
<g id="edge29" class="edge"><title>HITs/interval&#45;&gt;types/product</title>
<path fill="none" stroke="black" d="M425.886,-362.326C404.878,-351.896 376.447,-337.781 353.56,-326.419"/>
<polygon fill="black" stroke="black" points="354.963,-323.208 344.45,-321.896 351.85,-329.478 354.963,-323.208"/>
</g>
<!-- theorems/prop -->
<g id="node32" class="node"><title>theorems/prop</title>
<ellipse fill="none" stroke="black" cx="457.445" cy="-306" rx="63.8893" ry="18"/>
<text text-anchor="middle" x="457.445" y="-302.3" font-family="Times New Roman,serif" font-size="14.00">theorems/prop</text>
</g>
<!-- HITs/interval&#45;&gt;theorems/prop -->
<g id="edge30" class="edge"><title>HITs/interval&#45;&gt;theorems/prop</title>
<path fill="none" stroke="black" d="M455.939,-359.697C456.159,-351.983 456.424,-342.712 456.67,-334.112"/>
<polygon fill="black" stroke="black" points="460.169,-334.2 456.956,-324.104 453.172,-334 460.169,-334.2"/>
</g>
<!-- HITs/pushout&#45;&gt;HITs/suspension -->
<g id="edge38" class="edge"><title>HITs/pushout&#45;&gt;HITs/suspension</title>
<path fill="none" stroke="black" d="M444.901,-504.411C452.387,-495.82 461.677,-485.159 469.984,-475.627"/>
<polygon fill="black" stroke="black" points="472.737,-477.795 476.669,-467.956 467.46,-473.196 472.737,-477.795"/>
</g>
<!-- HITs/join -->
<g id="node29" class="node"><title>HITs/join</title>
<ellipse fill="none" stroke="black" cx="355.445" cy="-450" rx="45.4919" ry="18"/>
<text text-anchor="middle" x="355.445" y="-446.3" font-family="Times New Roman,serif" font-size="14.00">HITs/join</text>
</g>
<!-- HITs/pushout&#45;&gt;HITs/join -->
<g id="edge25" class="edge"><title>HITs/pushout&#45;&gt;HITs/join</title>
<path fill="none" stroke="black" d="M412.671,-504.411C402.841,-495.237 390.483,-483.703 379.77,-473.703"/>
<polygon fill="black" stroke="black" points="382.017,-471.013 372.318,-466.749 377.241,-476.131 382.017,-471.013"/>
</g>
<!-- HITs/pushout&#45;&gt;HITs/reals -->
<g id="edge33" class="edge"><title>HITs/pushout&#45;&gt;HITs/reals</title>
<path fill="none" stroke="black" d="M393.945,-507.337C363.025,-495.763 318.656,-479.154 286.102,-466.968"/>
<polygon fill="black" stroke="black" points="286.999,-463.567 276.407,-463.339 284.545,-470.122 286.999,-463.567"/>
</g>
<!-- types/unit&#45;&gt;HITs/suspension -->
<g id="edge39" class="edge"><title>types/unit&#45;&gt;HITs/suspension</title>
<path fill="none" stroke="black" d="M542.564,-576.153C532.632,-551.838 514.179,-506.66 502.372,-477.753"/>
<polygon fill="black" stroke="black" points="505.519,-476.202 498.498,-468.268 499.039,-478.849 505.519,-476.202"/>
</g>
<!-- types/unit&#45;&gt;structures -->
<g id="edge35" class="edge"><title>types/unit&#45;&gt;structures</title>
<path fill="none" stroke="black" d="M567.865,-577.465C579.07,-568.015 593.565,-555.79 605.984,-545.316"/>
<polygon fill="black" stroke="black" points="608.401,-547.856 613.789,-538.734 603.888,-542.505 608.401,-547.856"/>
</g>
<!-- structures&#45;&gt;HITs/trunc -->
<g id="edge40" class="edge"><title>structures&#45;&gt;HITs/trunc</title>
<path fill="none" stroke="black" d="M632.445,-503.697C632.445,-495.983 632.445,-486.712 632.445,-478.112"/>
<polygon fill="black" stroke="black" points="635.945,-478.104 632.445,-468.104 628.945,-478.104 635.945,-478.104"/>
</g>
<!-- types/sigma -->
<g id="node39" class="node"><title>types/sigma</title>
<ellipse fill="none" stroke="black" cx="759.445" cy="-882" rx="53.8905" ry="18"/>
<text text-anchor="middle" x="759.445" y="-878.3" font-family="Times New Roman,serif" font-size="14.00">types/sigma</text>
</g>
</g>
</svg>
