<?xml version="1.0" encoding="UTF-8" standalone="no"?>
<!DOCTYPE svg PUBLIC "-//W3C//DTD SVG 1.1//EN"
 "http://www.w3.org/Graphics/SVG/1.1/DTD/svg11.dtd">
<!-- Generated by graphviz version 2.38.0 (20140413.2041)
 -->
<!-- Title: dependency_map Pages: 1 -->
<svg width="430pt" height="836pt"
 viewBox="0.00 0.00 430.39 836.00" xmlns="http://www.w3.org/2000/svg" xmlns:xlink="http://www.w3.org/1999/xlink">
<g id="graph0" class="graph" transform="scale(1 1) rotate(0) translate(4 832)">
<title>dependency_map</title>
<polygon fill="white" stroke="none" points="-4,4 -4,-832 426.39,-832 426.39,4 -4,4"/>
<!-- algebra -->
<g id="node1" class="node"><title>algebra</title>
<ellipse fill="none" stroke="black" stroke-dasharray="5,2" cx="234.194" cy="-18" rx="36.2938" ry="18"/>
<text text-anchor="middle" x="234.194" y="-14.3" font-family="Times New Roman,serif" font-size="14.00">algebra</text>
</g>
<!-- ntrunc -->
<g id="node2" class="node"><title>ntrunc</title>
<ellipse fill="none" stroke="black" stroke-dasharray="5,2" cx="234.194" cy="-90" rx="33.5952" ry="18"/>
<text text-anchor="middle" x="234.194" y="-86.3" font-family="Times New Roman,serif" font-size="14.00">ntrunc</text>
</g>
<!-- ntrunc&#45;&gt;algebra -->
<g id="edge1" class="edge"><title>ntrunc&#45;&gt;algebra</title>
<path fill="none" stroke="black" d="M234.194,-71.6966C234.194,-63.9827 234.194,-54.7125 234.194,-46.1124"/>
<polygon fill="black" stroke="black" points="237.694,-46.1043 234.194,-36.1043 230.694,-46.1044 237.694,-46.1043"/>
</g>
<!-- circle -->
<g id="node3" class="node"><title>circle</title>
<ellipse fill="none" stroke="black" stroke-dasharray="5,2" cx="234.194" cy="-162" rx="30.5947" ry="18"/>
<text text-anchor="middle" x="234.194" y="-158.3" font-family="Times New Roman,serif" font-size="14.00">circle</text>
</g>
<!-- circle&#45;&gt;ntrunc -->
<g id="edge14" class="edge"><title>circle&#45;&gt;ntrunc</title>
<path fill="none" stroke="black" d="M234.194,-143.697C234.194,-135.983 234.194,-126.712 234.194,-118.112"/>
<polygon fill="black" stroke="black" points="237.694,-118.104 234.194,-108.104 230.694,-118.104 237.694,-118.104"/>
</g>
<!-- suspension -->
<g id="node4" class="node"><title>suspension</title>
<ellipse fill="none" stroke="black" cx="338.194" cy="-306" rx="51.1914" ry="18"/>
<text text-anchor="middle" x="338.194" y="-302.3" font-family="Times New Roman,serif" font-size="14.00">suspension</text>
</g>
<!-- suspension&#45;&gt;circle -->
<g id="edge2" class="edge"><title>suspension&#45;&gt;circle</title>
<path fill="none" stroke="black" d="M330.469,-288.06C321.601,-269.481 305.968,-239.221 288.194,-216 279.5,-204.641 268.432,-193.357 258.582,-184.138"/>
<polygon fill="black" stroke="black" points="260.758,-181.385 251.013,-177.226 256.037,-186.554 260.758,-181.385"/>
</g>
<!-- ua -->
<g id="node5" class="node"><title>ua</title>
<ellipse fill="none" stroke="black" stroke-dasharray="5,2" cx="147.194" cy="-234" rx="27" ry="18"/>
<text text-anchor="middle" x="147.194" y="-230.3" font-family="Times New Roman,serif" font-size="14.00">ua</text>
</g>
<!-- ua&#45;&gt;circle -->
<g id="edge3" class="edge"><title>ua&#45;&gt;circle</title>
<path fill="none" stroke="black" d="M163.968,-219.503C176.681,-209.274 194.367,-195.045 208.809,-183.425"/>
<polygon fill="black" stroke="black" points="211.278,-185.93 216.875,-176.934 206.89,-180.476 211.278,-185.93"/>
</g>
<!-- equiv -->
<g id="node6" class="node"><title>equiv</title>
<ellipse fill="none" stroke="black" cx="291.194" cy="-666" rx="30.5947" ry="18"/>
<text text-anchor="middle" x="291.194" y="-662.3" font-family="Times New Roman,serif" font-size="14.00">equiv</text>
</g>
<!-- coproduct -->
<g id="node7" class="node"><title>coproduct</title>
<ellipse fill="none" stroke="black" cx="187.194" cy="-594" rx="48.9926" ry="18"/>
<text text-anchor="middle" x="187.194" y="-590.3" font-family="Times New Roman,serif" font-size="14.00">coproduct</text>
</g>
<!-- equiv&#45;&gt;coproduct -->
<g id="edge4" class="edge"><title>equiv&#45;&gt;coproduct</title>
<path fill="none" stroke="black" d="M271.632,-651.834C256.6,-641.716 235.547,-627.545 218.224,-615.885"/>
<polygon fill="black" stroke="black" points="219.806,-612.732 209.556,-610.052 215.898,-618.539 219.806,-612.732"/>
</g>
<!-- heq -->
<g id="node8" class="node"><title>heq</title>
<ellipse fill="none" stroke="black" cx="264.194" cy="-450" rx="27" ry="18"/>
<text text-anchor="middle" x="264.194" y="-446.3" font-family="Times New Roman,serif" font-size="14.00">heq</text>
</g>
<!-- equiv&#45;&gt;heq -->
<g id="edge7" class="edge"><title>equiv&#45;&gt;heq</title>
<path fill="none" stroke="black" d="M288.459,-647.834C286.843,-637.469 284.806,-623.989 283.194,-612 276.893,-565.135 270.679,-510.44 267.152,-478.377"/>
<polygon fill="black" stroke="black" points="270.629,-477.975 266.062,-468.415 263.67,-478.736 270.629,-477.975"/>
</g>
<!-- unit -->
<g id="node20" class="node"><title>unit</title>
<ellipse fill="none" stroke="black" cx="319.194" cy="-594" rx="27" ry="18"/>
<text text-anchor="middle" x="319.194" y="-590.3" font-family="Times New Roman,serif" font-size="14.00">unit</text>
</g>
<!-- equiv&#45;&gt;unit -->
<g id="edge25" class="edge"><title>equiv&#45;&gt;unit</title>
<path fill="none" stroke="black" d="M297.829,-648.411C301.107,-640.216 305.138,-630.14 308.812,-620.955"/>
<polygon fill="black" stroke="black" points="312.141,-622.055 312.606,-611.47 305.642,-619.455 312.141,-622.055"/>
</g>
<!-- lost -->
<g id="node23" class="node"><title>lost</title>
<ellipse fill="none" stroke="black" cx="391.194" cy="-594" rx="27" ry="18"/>
<text text-anchor="middle" x="391.194" y="-590.3" font-family="Times New Roman,serif" font-size="14.00">lost</text>
</g>
<!-- equiv&#45;&gt;lost -->
<g id="edge27" class="edge"><title>equiv&#45;&gt;lost</title>
<path fill="none" stroke="black" d="M310.475,-651.503C325.941,-640.677 347.809,-625.37 364.883,-613.417"/>
<polygon fill="black" stroke="black" points="367.131,-616.117 373.316,-607.515 363.116,-610.382 367.131,-616.117"/>
</g>
<!-- structures -->
<g id="node21" class="node"><title>structures</title>
<ellipse fill="none" stroke="black" cx="190.194" cy="-522" rx="46.2923" ry="18"/>
<text text-anchor="middle" x="190.194" y="-518.3" font-family="Times New Roman,serif" font-size="14.00">structures</text>
</g>
<!-- coproduct&#45;&gt;structures -->
<g id="edge19" class="edge"><title>coproduct&#45;&gt;structures</title>
<path fill="none" stroke="black" d="M187.935,-575.697C188.266,-567.983 188.663,-558.712 189.032,-550.112"/>
<polygon fill="black" stroke="black" points="192.529,-550.245 189.461,-540.104 185.536,-549.945 192.529,-550.245"/>
</g>
<!-- nat -->
<g id="node22" class="node"><title>nat</title>
<ellipse fill="none" stroke="black" cx="99.1938" cy="-522" rx="27" ry="18"/>
<text text-anchor="middle" x="99.1938" y="-518.3" font-family="Times New Roman,serif" font-size="14.00">nat</text>
</g>
<!-- coproduct&#45;&gt;nat -->
<g id="edge26" class="edge"><title>coproduct&#45;&gt;nat</title>
<path fill="none" stroke="black" d="M167.664,-577.465C154.832,-567.258 137.93,-553.813 124.129,-542.835"/>
<polygon fill="black" stroke="black" points="126.007,-539.856 116.002,-536.37 121.649,-545.334 126.007,-539.856"/>
</g>
<!-- cubical -->
<g id="node9" class="node"><title>cubical</title>
<ellipse fill="none" stroke="black" cx="243.194" cy="-234" rx="36.2938" ry="18"/>
<text text-anchor="middle" x="243.194" y="-230.3" font-family="Times New Roman,serif" font-size="14.00">cubical</text>
</g>
<!-- heq&#45;&gt;cubical -->
<g id="edge5" class="edge"><title>heq&#45;&gt;cubical</title>
<path fill="none" stroke="black" d="M262.511,-431.849C258.878,-394.832 250.277,-307.181 245.881,-262.386"/>
<polygon fill="black" stroke="black" points="249.345,-261.843 244.885,-252.232 242.378,-262.526 249.345,-261.843"/>
</g>
<!-- interval -->
<g id="node16" class="node"><title>interval</title>
<ellipse fill="none" stroke="black" cx="195.194" cy="-378" rx="36.2938" ry="18"/>
<text text-anchor="middle" x="195.194" y="-374.3" font-family="Times New Roman,serif" font-size="14.00">interval</text>
</g>
<!-- heq&#45;&gt;interval -->
<g id="edge12" class="edge"><title>heq&#45;&gt;interval</title>
<path fill="none" stroke="black" d="M249.897,-434.496C240.532,-424.995 228.1,-412.383 217.454,-401.583"/>
<polygon fill="black" stroke="black" points="219.942,-399.121 210.43,-394.457 214.957,-404.035 219.942,-399.121"/>
</g>
<!-- pushout -->
<g id="node19" class="node"><title>pushout</title>
<ellipse fill="none" stroke="black" cx="327.194" cy="-378" rx="40.0939" ry="18"/>
<text text-anchor="middle" x="327.194" y="-374.3" font-family="Times New Roman,serif" font-size="14.00">pushout</text>
</g>
<!-- heq&#45;&gt;pushout -->
<g id="edge17" class="edge"><title>heq&#45;&gt;pushout</title>
<path fill="none" stroke="black" d="M277.554,-434.155C285.729,-425.072 296.375,-413.243 305.711,-402.87"/>
<polygon fill="black" stroke="black" points="308.444,-405.065 312.532,-395.29 303.241,-400.382 308.444,-405.065"/>
</g>
<!-- product -->
<g id="node10" class="node"><title>product</title>
<ellipse fill="none" stroke="black" cx="116.194" cy="-306" rx="39.7935" ry="18"/>
<text text-anchor="middle" x="116.194" y="-302.3" font-family="Times New Roman,serif" font-size="14.00">product</text>
</g>
<!-- product&#45;&gt;ua -->
<g id="edge24" class="edge"><title>product&#45;&gt;ua</title>
<path fill="none" stroke="black" d="M123.698,-288.055C127.277,-279.973 131.64,-270.121 135.63,-261.112"/>
<polygon fill="black" stroke="black" points="138.91,-262.35 139.759,-251.789 132.509,-259.515 138.91,-262.35"/>
</g>
<!-- product&#45;&gt;cubical -->
<g id="edge6" class="edge"><title>product&#45;&gt;cubical</title>
<path fill="none" stroke="black" d="M140.38,-291.669C160.28,-280.701 188.671,-265.052 210.579,-252.977"/>
<polygon fill="black" stroke="black" points="212.459,-255.937 219.527,-248.045 209.08,-249.807 212.459,-255.937"/>
</g>
<!-- support -->
<g id="node11" class="node"><title>support</title>
<ellipse fill="none" stroke="black" cx="205.194" cy="-738" rx="38.9931" ry="18"/>
<text text-anchor="middle" x="205.194" y="-734.3" font-family="Times New Roman,serif" font-size="14.00">support</text>
</g>
<!-- support&#45;&gt;equiv -->
<g id="edge8" class="edge"><title>support&#45;&gt;equiv</title>
<path fill="none" stroke="black" d="M223.854,-721.811C236.209,-711.755 252.561,-698.445 266.058,-687.46"/>
<polygon fill="black" stroke="black" points="268.485,-689.997 274.031,-680.97 264.066,-684.568 268.485,-689.997"/>
</g>
<!-- functions -->
<g id="node12" class="node"><title>functions</title>
<ellipse fill="none" stroke="black" cx="378.194" cy="-738" rx="44.393" ry="18"/>
<text text-anchor="middle" x="378.194" y="-734.3" font-family="Times New Roman,serif" font-size="14.00">functions</text>
</g>
<!-- functions&#45;&gt;equiv -->
<g id="edge9" class="edge"><title>functions&#45;&gt;equiv</title>
<path fill="none" stroke="black" d="M358.886,-721.465C346.449,-711.458 330.143,-698.339 316.652,-687.484"/>
<polygon fill="black" stroke="black" points="318.661,-684.607 308.675,-681.066 314.272,-690.061 318.661,-684.607"/>
</g>
<!-- eq -->
<g id="node13" class="node"><title>eq</title>
<ellipse fill="none" stroke="black" cx="247.194" cy="-810" rx="27" ry="18"/>
<text text-anchor="middle" x="247.194" y="-806.3" font-family="Times New Roman,serif" font-size="14.00">eq</text>
</g>
<!-- eq&#45;&gt;support -->
<g id="edge20" class="edge"><title>eq&#45;&gt;support</title>
<path fill="none" stroke="black" d="M237.663,-793.116C232.601,-784.679 226.256,-774.104 220.522,-764.547"/>
<polygon fill="black" stroke="black" points="223.418,-762.572 215.272,-755.797 217.416,-766.173 223.418,-762.572"/>
</g>
<!-- int -->
<g id="node14" class="node"><title>int</title>
<ellipse fill="none" stroke="black" cx="289.194" cy="-738" rx="27" ry="18"/>
<text text-anchor="middle" x="289.194" y="-734.3" font-family="Times New Roman,serif" font-size="14.00">int</text>
</g>
<!-- eq&#45;&gt;int -->
<g id="edge10" class="edge"><title>eq&#45;&gt;int</title>
<path fill="none" stroke="black" d="M256.724,-793.116C261.86,-784.557 268.315,-773.797 274.115,-764.132"/>
<polygon fill="black" stroke="black" points="277.266,-765.683 279.41,-755.307 271.263,-762.081 277.266,-765.683"/>
</g>
<!-- trunc -->
<g id="node15" class="node"><title>trunc</title>
<ellipse fill="none" stroke="black" cx="190.194" cy="-450" rx="29.4969" ry="18"/>
<text text-anchor="middle" x="190.194" y="-446.3" font-family="Times New Roman,serif" font-size="14.00">trunc</text>
</g>
<!-- trunc&#45;&gt;interval -->
<g id="edge11" class="edge"><title>trunc&#45;&gt;interval</title>
<path fill="none" stroke="black" d="M191.43,-431.697C191.981,-423.983 192.643,-414.712 193.257,-406.112"/>
<polygon fill="black" stroke="black" points="196.751,-406.328 193.972,-396.104 189.768,-405.83 196.751,-406.328"/>
</g>
<!-- mere_eq_lemma -->
<g id="node17" class="node"><title>mere_eq_lemma</title>
<ellipse fill="none" stroke="black" cx="70.1938" cy="-378" rx="70.3881" ry="18"/>
<text text-anchor="middle" x="70.1938" y="-374.3" font-family="Times New Roman,serif" font-size="14.00">mere_eq_lemma</text>
</g>
<!-- trunc&#45;&gt;mere_eq_lemma -->
<g id="edge13" class="edge"><title>trunc&#45;&gt;mere_eq_lemma</title>
<path fill="none" stroke="black" d="M169.565,-436.967C152.17,-426.819 126.87,-412.061 106.152,-399.976"/>
<polygon fill="black" stroke="black" points="107.697,-396.825 97.296,-394.81 104.17,-402.872 107.697,-396.825"/>
</g>
<!-- interval&#45;&gt;product -->
<g id="edge15" class="edge"><title>interval&#45;&gt;product</title>
<path fill="none" stroke="black" d="M178.052,-361.811C167.256,-352.245 153.139,-339.736 141.117,-329.084"/>
<polygon fill="black" stroke="black" points="143.381,-326.413 133.575,-322.401 138.738,-331.653 143.381,-326.413"/>
</g>
<!-- prop -->
<g id="node18" class="node"><title>prop</title>
<ellipse fill="none" stroke="black" cx="202.194" cy="-306" rx="28.6953" ry="18"/>
<text text-anchor="middle" x="202.194" y="-302.3" font-family="Times New Roman,serif" font-size="14.00">prop</text>
</g>
<!-- interval&#45;&gt;prop -->
<g id="edge16" class="edge"><title>interval&#45;&gt;prop</title>
<path fill="none" stroke="black" d="M196.924,-359.697C197.696,-351.983 198.623,-342.712 199.483,-334.112"/>
<polygon fill="black" stroke="black" points="202.971,-334.403 200.483,-324.104 196.006,-333.706 202.971,-334.403"/>
</g>
<!-- pushout&#45;&gt;suspension -->
<g id="edge21" class="edge"><title>pushout&#45;&gt;suspension</title>
<path fill="none" stroke="black" d="M329.913,-359.697C331.125,-351.983 332.582,-342.712 333.933,-334.112"/>
<polygon fill="black" stroke="black" points="337.411,-334.526 335.506,-324.104 330.496,-333.44 337.411,-334.526"/>
</g>
<!-- unit&#45;&gt;suspension -->
<g id="edge22" class="edge"><title>unit&#45;&gt;suspension</title>
<path fill="none" stroke="black" d="M325.701,-576.484C338.477,-543.062 366.449,-464.741 376.194,-396 378.44,-380.158 381.09,-375.232 376.194,-360 372.868,-349.652 366.692,-339.612 360.272,-331.104"/>
<polygon fill="black" stroke="black" points="362.866,-328.745 353.868,-323.152 357.415,-333.136 362.866,-328.745"/>
</g>
<!-- unit&#45;&gt;structures -->
<g id="edge18" class="edge"><title>unit&#45;&gt;structures</title>
<path fill="none" stroke="black" d="M298.753,-581.908C279.06,-571.222 248.869,-554.839 225.321,-542.061"/>
<polygon fill="black" stroke="black" points="226.793,-538.878 216.334,-537.185 223.454,-545.03 226.793,-538.878"/>
</g>
<!-- structures&#45;&gt;trunc -->
<g id="edge23" class="edge"><title>structures&#45;&gt;trunc</title>
<path fill="none" stroke="black" d="M190.194,-503.697C190.194,-495.983 190.194,-486.712 190.194,-478.112"/>
<polygon fill="black" stroke="black" points="193.694,-478.104 190.194,-468.104 186.694,-478.104 193.694,-478.104"/>
</g>
<!-- sigma -->
<g id="node24" class="node"><title>sigma</title>
<ellipse fill="none" stroke="black" cx="324.194" cy="-810" rx="31.6951" ry="18"/>
<text text-anchor="middle" x="324.194" y="-806.3" font-family="Times New Roman,serif" font-size="14.00">sigma</text>
</g>
</g>
</svg>
