<?xml version="1.0" encoding="UTF-8" standalone="no"?>
<!DOCTYPE svg PUBLIC "-//W3C//DTD SVG 1.1//EN"
 "http://www.w3.org/Graphics/SVG/1.1/DTD/svg11.dtd">
<!-- Generated by graphviz version 2.38.0 (20140413.2041)
 -->
<!-- Title: dependency_map Pages: 1 -->
<svg width="987pt" height="620pt"
 viewBox="0.00 0.00 987.00 620.00" xmlns="http://www.w3.org/2000/svg" xmlns:xlink="http://www.w3.org/1999/xlink">
<g id="graph0" class="graph" transform="scale(1 1) rotate(0) translate(4 616)">
<title>dependency_map</title>
<polygon fill="white" stroke="none" points="-4,4 -4,-616 983,-616 983,4 -4,4"/>
<!-- ntrunc -->
<g id="node1" class="node"><title>ntrunc</title>
<ellipse fill="none" stroke="black" cx="525" cy="-90" rx="33.5952" ry="18"/>
<text text-anchor="middle" x="525" y="-86.3" font-family="Times New Roman,serif" font-size="14.00">ntrunc</text>
</g>
<!-- algebra -->
<g id="node2" class="node"><title>algebra</title>
<ellipse fill="none" stroke="black" cx="525" cy="-18" rx="36.2938" ry="18"/>
<text text-anchor="middle" x="525" y="-14.3" font-family="Times New Roman,serif" font-size="14.00">algebra</text>
</g>
<!-- ntrunc&#45;&gt;algebra -->
<g id="edge1" class="edge"><title>ntrunc&#45;&gt;algebra</title>
<path fill="none" stroke="black" d="M525,-71.6966C525,-63.9827 525,-54.7125 525,-46.1124"/>
<polygon fill="black" stroke="black" points="528.5,-46.1043 525,-36.1043 521.5,-46.1044 528.5,-46.1043"/>
</g>
<!-- structures -->
<g id="node3" class="node"><title>structures</title>
<ellipse fill="none" stroke="black" cx="587" cy="-378" rx="46.2923" ry="18"/>
<text text-anchor="middle" x="587" y="-374.3" font-family="Times New Roman,serif" font-size="14.00">structures</text>
</g>
<!-- structures&#45;&gt;algebra -->
<g id="edge2" class="edge"><title>structures&#45;&gt;algebra</title>
<path fill="none" stroke="black" d="M587,-359.951C587,-333.292 587,-280.115 587,-235 587,-235 587,-235 587,-161 587,-120.553 585.446,-108.491 568,-72 562.835,-61.1964 555.046,-50.6629 547.511,-41.8699"/>
<polygon fill="black" stroke="black" points="550.027,-39.4331 540.744,-34.3262 544.816,-44.1073 550.027,-39.4331"/>
</g>
<!-- circle -->
<g id="node6" class="node"><title>circle</title>
<ellipse fill="none" stroke="black" cx="528" cy="-162" rx="30.5947" ry="18"/>
<text text-anchor="middle" x="528" y="-158.3" font-family="Times New Roman,serif" font-size="14.00">circle</text>
</g>
<!-- structures&#45;&gt;circle -->
<g id="edge5" class="edge"><title>structures&#45;&gt;circle</title>
<path fill="none" stroke="black" d="M582.272,-359.849C572.019,-322.662 547.678,-234.374 535.381,-189.772"/>
<polygon fill="black" stroke="black" points="538.701,-188.645 532.669,-179.935 531.953,-190.506 538.701,-188.645"/>
</g>
<!-- interval -->
<g id="node7" class="node"><title>interval</title>
<ellipse fill="none" stroke="black" cx="364" cy="-234" rx="36.2938" ry="18"/>
<text text-anchor="middle" x="364" y="-230.3" font-family="Times New Roman,serif" font-size="14.00">interval</text>
</g>
<!-- structures&#45;&gt;interval -->
<g id="edge18" class="edge"><title>structures&#45;&gt;interval</title>
<path fill="none" stroke="black" d="M563.911,-362.15C536.356,-344.443 488.87,-313.977 448,-288 430.361,-276.788 410.594,-264.312 394.668,-254.282"/>
<polygon fill="black" stroke="black" points="396.108,-251.053 385.781,-248.687 392.379,-256.976 396.108,-251.053"/>
</g>
<!-- trunc -->
<g id="node15" class="node"><title>trunc</title>
<ellipse fill="none" stroke="black" cx="410" cy="-306" rx="29.4969" ry="18"/>
<text text-anchor="middle" x="410" y="-302.3" font-family="Times New Roman,serif" font-size="14.00">trunc</text>
</g>
<!-- structures&#45;&gt;trunc -->
<g id="edge36" class="edge"><title>structures&#45;&gt;trunc</title>
<path fill="none" stroke="black" d="M555.763,-364.647C524.194,-352.162 475.589,-332.939 443.301,-320.17"/>
<polygon fill="black" stroke="black" points="444.428,-316.852 433.842,-316.429 441.854,-323.361 444.428,-316.852"/>
</g>
<!-- ua -->
<g id="node20" class="node"><title>ua</title>
<ellipse fill="none" stroke="black" stroke-dasharray="5,2" cx="731" cy="-90" rx="27" ry="18"/>
<text text-anchor="middle" x="731" y="-86.3" font-family="Times New Roman,serif" font-size="14.00">ua</text>
</g>
<!-- structures&#45;&gt;ua -->
<g id="edge40" class="edge"><title>structures&#45;&gt;ua</title>
<path fill="none" stroke="black" d="M591.411,-359.934C599.538,-329.852 618.412,-265.859 644,-216 663.438,-178.124 692.842,-138.443 711.985,-114.212"/>
<polygon fill="black" stroke="black" points="714.788,-116.311 718.295,-106.314 709.319,-111.942 714.788,-116.311"/>
</g>
<!-- eq -->
<g id="node4" class="node"><title>eq</title>
<ellipse fill="none" stroke="black" cx="379" cy="-594" rx="27" ry="18"/>
<text text-anchor="middle" x="379" y="-590.3" font-family="Times New Roman,serif" font-size="14.00">eq</text>
</g>
<!-- eq&#45;&gt;algebra -->
<g id="edge3" class="edge"><title>eq&#45;&gt;algebra</title>
<path fill="none" stroke="black" d="M352.134,-590.756C286.616,-584.905 120.514,-567.691 73,-540 28.7992,-514.24 0,-502.159 0,-451 0,-451 0,-451 0,-161 0,-62.2729 350.328,-30.0866 478.633,-21.6093"/>
<polygon fill="black" stroke="black" points="479.159,-25.0828 488.915,-20.9496 478.711,-18.0972 479.159,-25.0828"/>
</g>
<!-- eq&#45;&gt;structures -->
<g id="edge31" class="edge"><title>eq&#45;&gt;structures</title>
<path fill="none" stroke="black" d="M400.457,-582.901C427.387,-570.169 471.987,-548.873 488,-540 540.746,-510.774 573.788,-520.754 603,-468 613.701,-448.675 607.805,-423.705 600.323,-405.135"/>
<polygon fill="black" stroke="black" points="603.453,-403.557 596.223,-395.812 597.045,-406.375 603.453,-403.557"/>
</g>
<!-- eq&#45;&gt;interval -->
<g id="edge17" class="edge"><title>eq&#45;&gt;interval</title>
<path fill="none" stroke="black" d="M352.244,-591.135C291.105,-586.359 143.615,-571.761 107,-540 55.8224,-495.608 68.2681,-462.805 57,-396 48.3794,-344.891 58.5335,-317.716 101,-288 135.594,-263.793 253.098,-247.291 318.726,-239.721"/>
<polygon fill="black" stroke="black" points="319.25,-243.184 328.793,-238.583 318.463,-236.229 319.25,-243.184"/>
</g>
<!-- equiv -->
<g id="node8" class="node"><title>equiv</title>
<ellipse fill="none" stroke="black" cx="448" cy="-522" rx="30.5947" ry="18"/>
<text text-anchor="middle" x="448" y="-518.3" font-family="Times New Roman,serif" font-size="14.00">equiv</text>
</g>
<!-- eq&#45;&gt;equiv -->
<g id="edge14" class="edge"><title>eq&#45;&gt;equiv</title>
<path fill="none" stroke="black" d="M393.297,-578.496C402.79,-568.865 415.435,-556.037 426.176,-545.141"/>
<polygon fill="black" stroke="black" points="428.718,-547.547 433.245,-537.968 423.733,-542.633 428.718,-547.547"/>
</g>
<!-- heq -->
<g id="node11" class="node"><title>heq</title>
<ellipse fill="none" stroke="black" cx="93" cy="-378" rx="27" ry="18"/>
<text text-anchor="middle" x="93" y="-374.3" font-family="Times New Roman,serif" font-size="14.00">heq</text>
</g>
<!-- eq&#45;&gt;heq -->
<g id="edge12" class="edge"><title>eq&#45;&gt;heq</title>
<path fill="none" stroke="black" d="M352.178,-590.717C295.268,-585.334 165.091,-569.982 134,-540 97.5912,-504.89 91.8242,-442.336 91.8037,-406.41"/>
<polygon fill="black" stroke="black" points="95.3067,-406.226 91.9542,-396.176 88.3074,-406.123 95.3067,-406.226"/>
</g>
<!-- support -->
<g id="node12" class="node"><title>support</title>
<ellipse fill="none" stroke="black" cx="233" cy="-450" rx="38.9931" ry="18"/>
<text text-anchor="middle" x="233" y="-446.3" font-family="Times New Roman,serif" font-size="14.00">support</text>
</g>
<!-- eq&#45;&gt;support -->
<g id="edge33" class="edge"><title>eq&#45;&gt;support</title>
<path fill="none" stroke="black" d="M364.197,-578.603C338.801,-553.903 286.739,-503.267 256.39,-473.749"/>
<polygon fill="black" stroke="black" points="258.78,-471.192 249.171,-466.728 253.9,-476.21 258.78,-471.192"/>
</g>
<!-- int -->
<g id="node14" class="node"><title>int</title>
<ellipse fill="none" stroke="black" cx="952" cy="-522" rx="27" ry="18"/>
<text text-anchor="middle" x="952" y="-518.3" font-family="Times New Roman,serif" font-size="14.00">int</text>
</g>
<!-- eq&#45;&gt;int -->
<g id="edge15" class="edge"><title>eq&#45;&gt;int</title>
<path fill="none" stroke="black" d="M399.067,-581.934C404.131,-579.591 409.652,-577.404 415,-576 628.775,-519.859 695.936,-590.981 911,-540 914.402,-539.194 917.886,-538.139 921.317,-536.949"/>
<polygon fill="black" stroke="black" points="922.648,-540.187 930.728,-533.334 920.138,-533.653 922.648,-540.187"/>
</g>
<!-- mere_eq_lemma -->
<g id="node16" class="node"><title>mere_eq_lemma</title>
<ellipse fill="none" stroke="black" cx="723" cy="-234" rx="70.3881" ry="18"/>
<text text-anchor="middle" x="723" y="-230.3" font-family="Times New Roman,serif" font-size="14.00">mere_eq_lemma</text>
</g>
<!-- eq&#45;&gt;mere_eq_lemma -->
<g id="edge20" class="edge"><title>eq&#45;&gt;mere_eq_lemma</title>
<path fill="none" stroke="black" d="M400.065,-582.325C404.905,-580.077 410.078,-577.834 415,-576 470.778,-555.217 486.987,-557.107 544,-540 667.854,-502.836 821,-580.31 821,-451 821,-451 821,-451 821,-377 821,-327.99 780.968,-283.623 752.076,-257.983"/>
<polygon fill="black" stroke="black" points="754.127,-255.131 744.265,-251.26 749.56,-260.436 754.127,-255.131"/>
</g>
<!-- pushout -->
<g id="node18" class="node"><title>pushout</title>
<ellipse fill="none" stroke="black" cx="150" cy="-306" rx="40.0939" ry="18"/>
<text text-anchor="middle" x="150" y="-302.3" font-family="Times New Roman,serif" font-size="14.00">pushout</text>
</g>
<!-- eq&#45;&gt;pushout -->
<g id="edge27" class="edge"><title>eq&#45;&gt;pushout</title>
<path fill="none" stroke="black" d="M355.289,-585.053C313.389,-569.68 226.746,-531.66 185,-468 157.966,-426.775 151.469,-368.086 150.109,-334.133"/>
<polygon fill="black" stroke="black" points="153.605,-333.93 149.829,-324.031 146.608,-334.125 153.605,-333.93"/>
</g>
<!-- eq&#45;&gt;ua -->
<g id="edge39" class="edge"><title>eq&#45;&gt;ua</title>
<path fill="none" stroke="black" d="M399.509,-581.978C404.465,-579.693 409.828,-577.52 415,-576 627.325,-513.584 897,-672.309 897,-451 897,-451 897,-451 897,-233 897,-163.812 812.7,-121.122 764.248,-102.3"/>
<polygon fill="black" stroke="black" points="765.376,-98.9845 754.784,-98.7482 762.917,-105.538 765.376,-98.9845"/>
</g>
<!-- suspension -->
<g id="node5" class="node"><title>suspension</title>
<ellipse fill="none" stroke="black" cx="470" cy="-234" rx="51.1914" ry="18"/>
<text text-anchor="middle" x="470" y="-230.3" font-family="Times New Roman,serif" font-size="14.00">suspension</text>
</g>
<!-- suspension&#45;&gt;circle -->
<g id="edge4" class="edge"><title>suspension&#45;&gt;circle</title>
<path fill="none" stroke="black" d="M483.745,-216.411C491.178,-207.441 500.479,-196.215 508.634,-186.373"/>
<polygon fill="black" stroke="black" points="511.463,-188.444 515.148,-178.511 506.073,-183.978 511.463,-188.444"/>
</g>
<!-- circle&#45;&gt;ntrunc -->
<g id="edge22" class="edge"><title>circle&#45;&gt;ntrunc</title>
<path fill="none" stroke="black" d="M527.258,-143.697C526.928,-135.983 526.531,-126.712 526.162,-118.112"/>
<polygon fill="black" stroke="black" points="529.658,-117.945 525.733,-108.104 522.665,-118.245 529.658,-117.945"/>
</g>
<!-- interval&#45;&gt;circle -->
<g id="edge6" class="edge"><title>interval&#45;&gt;circle</title>
<path fill="none" stroke="black" d="M390.855,-221.705C416.191,-211.028 455.218,-194.524 489,-180 490.832,-179.212 492.712,-178.402 494.608,-177.582"/>
<polygon fill="black" stroke="black" points="496.311,-180.658 504.091,-173.467 493.524,-174.237 496.311,-180.658"/>
</g>
<!-- cubical -->
<g id="node10" class="node"><title>cubical</title>
<ellipse fill="none" stroke="black" cx="273" cy="-90" rx="36.2938" ry="18"/>
<text text-anchor="middle" x="273" y="-86.3" font-family="Times New Roman,serif" font-size="14.00">cubical</text>
</g>
<!-- interval&#45;&gt;cubical -->
<g id="edge8" class="edge"><title>interval&#45;&gt;cubical</title>
<path fill="none" stroke="black" d="M371.958,-216.266C379.703,-197.326 388.497,-166.223 375,-144 361.915,-122.456 336.912,-109.269 314.936,-101.437"/>
<polygon fill="black" stroke="black" points="316.021,-98.1094 305.428,-98.3023 313.829,-104.757 316.021,-98.1094"/>
</g>
<!-- product -->
<g id="node13" class="node"><title>product</title>
<ellipse fill="none" stroke="black" cx="326" cy="-162" rx="39.7935" ry="18"/>
<text text-anchor="middle" x="326" y="-158.3" font-family="Times New Roman,serif" font-size="14.00">product</text>
</g>
<!-- interval&#45;&gt;product -->
<g id="edge24" class="edge"><title>interval&#45;&gt;product</title>
<path fill="none" stroke="black" d="M354.995,-216.411C350.517,-208.163 345.005,-198.009 339.993,-188.777"/>
<polygon fill="black" stroke="black" points="343.052,-187.075 335.205,-179.956 336.9,-190.415 343.052,-187.075"/>
</g>
<!-- prop -->
<g id="node17" class="node"><title>prop</title>
<ellipse fill="none" stroke="black" cx="451" cy="-162" rx="28.6953" ry="18"/>
<text text-anchor="middle" x="451" y="-158.3" font-family="Times New Roman,serif" font-size="14.00">prop</text>
</g>
<!-- interval&#45;&gt;prop -->
<g id="edge25" class="edge"><title>interval&#45;&gt;prop</title>
<path fill="none" stroke="black" d="M382.45,-218.155C395.09,-207.985 412.01,-194.371 425.877,-183.214"/>
<polygon fill="black" stroke="black" points="428.454,-185.633 434.051,-176.637 424.066,-180.179 428.454,-185.633"/>
</g>
<!-- equiv&#45;&gt;structures -->
<g id="edge30" class="edge"><title>equiv&#45;&gt;structures</title>
<path fill="none" stroke="black" d="M478.177,-518.44C510.035,-513.968 558.907,-501.691 583,-468 595.677,-450.273 595.611,-425.097 592.989,-406.043"/>
<polygon fill="black" stroke="black" points="596.439,-405.457 591.334,-396.173 589.536,-406.614 596.439,-405.457"/>
</g>
<!-- equiv&#45;&gt;interval -->
<g id="edge19" class="edge"><title>equiv&#45;&gt;interval</title>
<path fill="none" stroke="black" d="M420.712,-513.341C399.176,-505.697 370.576,-491.618 357,-468 319.111,-402.085 340.601,-307.434 354.725,-261.721"/>
<polygon fill="black" stroke="black" points="358.132,-262.557 357.86,-251.966 351.468,-260.416 358.132,-262.557"/>
</g>
<!-- coproduct -->
<g id="node9" class="node"><title>coproduct</title>
<ellipse fill="none" stroke="black" cx="525" cy="-450" rx="48.9926" ry="18"/>
<text text-anchor="middle" x="525" y="-446.3" font-family="Times New Roman,serif" font-size="14.00">coproduct</text>
</g>
<!-- equiv&#45;&gt;coproduct -->
<g id="edge7" class="edge"><title>equiv&#45;&gt;coproduct</title>
<path fill="none" stroke="black" d="M463.954,-506.496C474.361,-497.035 488.162,-484.489 500.008,-473.72"/>
<polygon fill="black" stroke="black" points="502.41,-476.266 507.455,-466.95 497.701,-471.087 502.41,-476.266"/>
</g>
<!-- equiv&#45;&gt;product -->
<g id="edge23" class="edge"><title>equiv&#45;&gt;product</title>
<path fill="none" stroke="black" d="M420.572,-513.59C396.339,-505.797 361.456,-491.363 339,-468 309.073,-436.864 300,-422.187 300,-379 300,-379 300,-379 300,-305 300,-264.331 310.446,-218.166 318.096,-189.812"/>
<polygon fill="black" stroke="black" points="321.555,-190.439 320.863,-179.866 314.811,-188.562 321.555,-190.439"/>
</g>
<!-- unit -->
<g id="node19" class="node"><title>unit</title>
<ellipse fill="none" stroke="black" cx="695" cy="-450" rx="27" ry="18"/>
<text text-anchor="middle" x="695" y="-446.3" font-family="Times New Roman,serif" font-size="14.00">unit</text>
</g>
<!-- equiv&#45;&gt;unit -->
<g id="edge44" class="edge"><title>equiv&#45;&gt;unit</title>
<path fill="none" stroke="black" d="M474.904,-513.376C520.173,-500.546 611.478,-474.67 661.074,-460.615"/>
<polygon fill="black" stroke="black" points="662.035,-463.98 670.702,-457.886 660.126,-457.245 662.035,-463.98"/>
</g>
<!-- equiv&#45;&gt;ua -->
<g id="edge38" class="edge"><title>equiv&#45;&gt;ua</title>
<path fill="none" stroke="black" d="M477.986,-518.054C541.761,-511.364 688.502,-493.597 731,-468 809.307,-420.835 859,-398.414 859,-307 859,-307 859,-307 859,-233 859,-174.712 798.763,-129.57 760.935,-106.968"/>
<polygon fill="black" stroke="black" points="762.259,-103.691 751.85,-101.713 758.754,-109.75 762.259,-103.691"/>
</g>
<!-- nat -->
<g id="node21" class="node"><title>nat</title>
<ellipse fill="none" stroke="black" cx="448" cy="-378" rx="27" ry="18"/>
<text text-anchor="middle" x="448" y="-374.3" font-family="Times New Roman,serif" font-size="14.00">nat</text>
</g>
<!-- equiv&#45;&gt;nat -->
<g id="edge45" class="edge"><title>equiv&#45;&gt;nat</title>
<path fill="none" stroke="black" d="M448,-503.871C448,-479.67 448,-435.211 448,-406.393"/>
<polygon fill="black" stroke="black" points="451.5,-406.189 448,-396.189 444.5,-406.189 451.5,-406.189"/>
</g>
<!-- lost -->
<g id="node22" class="node"><title>lost</title>
<ellipse fill="none" stroke="black" cx="393" cy="-450" rx="27" ry="18"/>
<text text-anchor="middle" x="393" y="-446.3" font-family="Times New Roman,serif" font-size="14.00">lost</text>
</g>
<!-- equiv&#45;&gt;lost -->
<g id="edge48" class="edge"><title>equiv&#45;&gt;lost</title>
<path fill="none" stroke="black" d="M435.794,-505.465C428.673,-496.402 419.547,-484.786 411.552,-474.612"/>
<polygon fill="black" stroke="black" points="414.103,-472.193 405.172,-466.492 408.598,-476.517 414.103,-472.193"/>
</g>
<!-- coproduct&#45;&gt;structures -->
<g id="edge32" class="edge"><title>coproduct&#45;&gt;structures</title>
<path fill="none" stroke="black" d="M539.38,-432.765C547.283,-423.841 557.233,-412.608 565.991,-402.719"/>
<polygon fill="black" stroke="black" points="568.688,-404.954 572.698,-395.147 563.448,-400.313 568.688,-404.954"/>
</g>
<!-- coproduct&#45;&gt;nat -->
<g id="edge46" class="edge"><title>coproduct&#45;&gt;nat</title>
<path fill="none" stroke="black" d="M507.528,-433.116C496.712,-423.284 482.703,-410.548 470.992,-399.902"/>
<polygon fill="black" stroke="black" points="473.073,-397.063 463.319,-392.927 468.364,-402.243 473.073,-397.063"/>
</g>
<!-- heq&#45;&gt;cubical -->
<g id="edge9" class="edge"><title>heq&#45;&gt;cubical</title>
<path fill="none" stroke="black" d="M91.8859,-360.005C91.2776,-341.641 92.0411,-311.813 101,-288 128.891,-213.866 151.101,-201.095 206,-144 217.526,-132.013 231.808,-120.359 244.222,-111.046"/>
<polygon fill="black" stroke="black" points="246.471,-113.737 252.46,-104.997 242.328,-108.094 246.471,-113.737"/>
</g>
<!-- heq&#45;&gt;pushout -->
<g id="edge26" class="edge"><title>heq&#45;&gt;pushout</title>
<path fill="none" stroke="black" d="M105.368,-361.811C112.706,-352.8 122.17,-341.177 130.494,-330.955"/>
<polygon fill="black" stroke="black" points="133.262,-333.098 136.863,-323.134 127.834,-328.678 133.262,-333.098"/>
</g>
<!-- support&#45;&gt;cubical -->
<g id="edge10" class="edge"><title>support&#45;&gt;cubical</title>
<path fill="none" stroke="black" d="M230.896,-431.721C225.727,-384.549 214.848,-250.01 244,-144 246.655,-134.345 251.363,-124.52 256.223,-115.995"/>
<polygon fill="black" stroke="black" points="259.287,-117.692 261.467,-107.324 253.297,-114.07 259.287,-117.692"/>
</g>
<!-- support&#45;&gt;heq -->
<g id="edge13" class="edge"><title>support&#45;&gt;heq</title>
<path fill="none" stroke="black" d="M207.322,-436.161C183.523,-424.261 148.113,-406.556 123.017,-394.009"/>
<polygon fill="black" stroke="black" points="124.46,-390.817 113.95,-389.475 121.329,-397.078 124.46,-390.817"/>
</g>
<!-- support&#45;&gt;trunc -->
<g id="edge37" class="edge"><title>support&#45;&gt;trunc</title>
<path fill="none" stroke="black" d="M251.608,-434.072C283.572,-408.428 348.933,-355.991 384.896,-327.14"/>
<polygon fill="black" stroke="black" points="387.336,-329.669 392.946,-320.682 382.956,-324.209 387.336,-329.669"/>
</g>
<!-- support&#45;&gt;pushout -->
<g id="edge28" class="edge"><title>support&#45;&gt;pushout</title>
<path fill="none" stroke="black" d="M223.316,-432.433C208.962,-407.875 181.916,-361.604 164.99,-332.646"/>
<polygon fill="black" stroke="black" points="167.947,-330.769 159.879,-323.902 161.904,-334.301 167.947,-330.769"/>
</g>
<!-- support&#45;&gt;ua -->
<g id="edge42" class="edge"><title>support&#45;&gt;ua</title>
<path fill="none" stroke="black" d="M235.628,-431.819C237.206,-421.449 239.242,-407.969 241,-396 249.222,-340.032 236.49,-183.483 277,-144 280.751,-140.344 587.365,-106.642 694.525,-94.9627"/>
<polygon fill="black" stroke="black" points="694.986,-98.4333 704.548,-93.8711 694.228,-91.4744 694.986,-98.4333"/>
</g>
<!-- support&#45;&gt;nat -->
<g id="edge47" class="edge"><title>support&#45;&gt;nat</title>
<path fill="none" stroke="black" d="M264.59,-439.171C298.044,-428.702 352.358,-411.534 399,-396 404.233,-394.257 409.766,-392.375 415.157,-390.521"/>
<polygon fill="black" stroke="black" points="416.307,-393.826 424.612,-387.247 414.017,-387.212 416.307,-393.826"/>
</g>
<!-- product&#45;&gt;cubical -->
<g id="edge11" class="edge"><title>product&#45;&gt;cubical</title>
<path fill="none" stroke="black" d="M313.708,-144.765C307.085,-136.018 298.782,-125.052 291.405,-115.308"/>
<polygon fill="black" stroke="black" points="294.053,-113.007 285.226,-107.147 288.472,-117.233 294.053,-113.007"/>
</g>
<!-- product&#45;&gt;ua -->
<g id="edge43" class="edge"><title>product&#45;&gt;ua</title>
<path fill="none" stroke="black" d="M361.514,-153.829C377.267,-150.708 396.039,-147.07 413,-144 515.093,-125.521 636.069,-106.014 695.052,-96.6571"/>
<polygon fill="black" stroke="black" points="695.659,-100.105 704.989,-95.0839 694.564,-93.1909 695.659,-100.105"/>
</g>
<!-- trunc&#45;&gt;interval -->
<g id="edge16" class="edge"><title>trunc&#45;&gt;interval</title>
<path fill="none" stroke="black" d="M399.562,-289.116C393.879,-280.469 386.721,-269.575 380.319,-259.833"/>
<polygon fill="black" stroke="black" points="383.133,-257.742 374.716,-251.307 377.283,-261.586 383.133,-257.742"/>
</g>
<!-- trunc&#45;&gt;mere_eq_lemma -->
<g id="edge21" class="edge"><title>trunc&#45;&gt;mere_eq_lemma</title>
<path fill="none" stroke="black" d="M436.957,-298.971C486.605,-287.868 593.64,-263.93 661.776,-248.692"/>
<polygon fill="black" stroke="black" points="662.954,-252.015 671.949,-246.417 661.426,-245.184 662.954,-252.015"/>
</g>
<!-- pushout&#45;&gt;suspension -->
<g id="edge34" class="edge"><title>pushout&#45;&gt;suspension</title>
<path fill="none" stroke="black" d="M186.637,-298.339C236.976,-288.998 330.253,-271.006 409,-252 413.148,-250.999 417.44,-249.911 421.738,-248.785"/>
<polygon fill="black" stroke="black" points="422.957,-252.081 431.71,-246.112 421.144,-245.32 422.957,-252.081"/>
</g>
<!-- unit&#45;&gt;structures -->
<g id="edge29" class="edge"><title>unit&#45;&gt;structures</title>
<path fill="none" stroke="black" d="M676.188,-436.807C660.223,-426.459 636.99,-411.401 618.239,-399.248"/>
<polygon fill="black" stroke="black" points="620.01,-396.224 609.714,-393.722 616.202,-402.098 620.01,-396.224"/>
</g>
<!-- unit&#45;&gt;suspension -->
<g id="edge35" class="edge"><title>unit&#45;&gt;suspension</title>
<path fill="none" stroke="black" d="M687.737,-432.591C678.827,-413.672 662.366,-382.317 642,-360 601.398,-315.509 542.677,-276.951 505.43,-254.838"/>
<polygon fill="black" stroke="black" points="506.845,-251.61 496.447,-249.577 503.307,-257.651 506.845,-251.61"/>
</g>
<!-- unit&#45;&gt;ua -->
<g id="edge41" class="edge"><title>unit&#45;&gt;ua</title>
<path fill="none" stroke="black" d="M706.783,-433.792C730.474,-402.135 783.217,-325.936 802,-252 815.201,-200.038 776.934,-143.655 751.562,-113.333"/>
<polygon fill="black" stroke="black" points="753.984,-110.782 744.802,-105.497 748.684,-115.355 753.984,-110.782"/>
</g>
<!-- functions -->
<g id="node23" class="node"><title>functions</title>
<ellipse fill="none" stroke="black" cx="468" cy="-594" rx="44.393" ry="18"/>
<text text-anchor="middle" x="468" y="-590.3" font-family="Times New Roman,serif" font-size="14.00">functions</text>
</g>
<!-- sigma -->
<g id="node24" class="node"><title>sigma</title>
<ellipse fill="none" stroke="black" cx="562" cy="-594" rx="31.6951" ry="18"/>
<text text-anchor="middle" x="562" y="-590.3" font-family="Times New Roman,serif" font-size="14.00">sigma</text>
</g>
</g>
</svg>
