<?xml version="1.0" encoding="UTF-8" standalone="no"?>
<!DOCTYPE svg PUBLIC "-//W3C//DTD SVG 1.1//EN"
 "http://www.w3.org/Graphics/SVG/1.1/DTD/svg11.dtd">
<!-- Generated by graphviz version 2.38.0 (20140413.2041)
 -->
<!-- Title: dependency_map Pages: 1 -->
<svg width="1011pt" height="836pt"
 viewBox="0.00 0.00 1010.66 836.00" xmlns="http://www.w3.org/2000/svg" xmlns:xlink="http://www.w3.org/1999/xlink">
<g id="graph0" class="graph" transform="scale(1 1) rotate(0) translate(4 832)">
<title>dependency_map</title>
<polygon fill="white" stroke="none" points="-4,4 -4,-832 1006.66,-832 1006.66,4 -4,4"/>
<!-- proto -->
<g id="node1" class="node"><title>proto</title>
<ellipse fill="none" stroke="black" cx="421.11" cy="-810" rx="30.5947" ry="18"/>
<text text-anchor="middle" x="421.11" y="-806.3" font-family="Times New Roman,serif" font-size="14.00">proto</text>
</g>
<!-- types/eq -->
<g id="node2" class="node"><title>types/eq</title>
<ellipse fill="none" stroke="black" cx="481.11" cy="-738" rx="41.6928" ry="18"/>
<text text-anchor="middle" x="481.11" y="-734.3" font-family="Times New Roman,serif" font-size="14.00">types/eq</text>
</g>
<!-- proto&#45;&gt;types/eq -->
<g id="edge1" class="edge"><title>proto&#45;&gt;types/eq</title>
<path fill="none" stroke="black" d="M434.426,-793.465C442.054,-784.566 451.791,-773.205 460.398,-763.164"/>
<polygon fill="black" stroke="black" points="463.145,-765.338 466.995,-755.467 457.83,-760.782 463.145,-765.338"/>
</g>
<!-- types/dep_path -->
<g id="node16" class="node"><title>types/dep_path</title>
<ellipse fill="none" stroke="black" cx="419.11" cy="-666" rx="66.8882" ry="18"/>
<text text-anchor="middle" x="419.11" y="-662.3" font-family="Times New Roman,serif" font-size="14.00">types/dep_path</text>
</g>
<!-- types/eq&#45;&gt;types/dep_path -->
<g id="edge11" class="edge"><title>types/eq&#45;&gt;types/dep_path</title>
<path fill="none" stroke="black" d="M466.73,-720.765C458.94,-711.969 449.161,-700.928 440.495,-691.144"/>
<polygon fill="black" stroke="black" points="443.093,-688.799 433.843,-683.633 437.853,-693.44 443.093,-688.799"/>
</g>
<!-- support -->
<g id="node24" class="node"><title>support</title>
<ellipse fill="none" stroke="black" cx="543.11" cy="-666" rx="38.9931" ry="18"/>
<text text-anchor="middle" x="543.11" y="-662.3" font-family="Times New Roman,serif" font-size="14.00">support</text>
</g>
<!-- types/eq&#45;&gt;support -->
<g id="edge41" class="edge"><title>types/eq&#45;&gt;support</title>
<path fill="none" stroke="black" d="M495.49,-720.765C503.393,-711.841 513.343,-700.608 522.101,-690.719"/>
<polygon fill="black" stroke="black" points="524.798,-692.954 528.808,-683.147 519.558,-688.313 524.798,-692.954"/>
</g>
<!-- meta/hott_theory -->
<g id="node3" class="node"><title>meta/hott_theory</title>
<ellipse fill="none" stroke="black" cx="542.11" cy="-810" rx="72.2875" ry="18"/>
<text text-anchor="middle" x="542.11" y="-806.3" font-family="Times New Roman,serif" font-size="14.00">meta/hott_theory</text>
</g>
<!-- meta/hott_theory&#45;&gt;types/eq -->
<g id="edge2" class="edge"><title>meta/hott_theory&#45;&gt;types/eq</title>
<path fill="none" stroke="black" d="M527.344,-792.055C519.741,-783.33 510.342,-772.544 502.008,-762.981"/>
<polygon fill="black" stroke="black" points="504.529,-760.547 495.32,-755.307 499.252,-765.146 504.529,-760.547"/>
</g>
<!-- algebra -->
<g id="node4" class="node"><title>algebra</title>
<ellipse fill="none" stroke="black" stroke-dasharray="5,2" cx="89.1101" cy="-18" rx="36.2938" ry="18"/>
<text text-anchor="middle" x="89.1101" y="-14.3" font-family="Times New Roman,serif" font-size="14.00">algebra</text>
</g>
<!-- HITs/ntrunc -->
<g id="node5" class="node"><title>HITs/ntrunc</title>
<ellipse fill="none" stroke="black" stroke-dasharray="5,2" cx="89.1101" cy="-90" rx="55.4913" ry="18"/>
<text text-anchor="middle" x="89.1101" y="-86.3" font-family="Times New Roman,serif" font-size="14.00">HITs/ntrunc</text>
</g>
<!-- HITs/ntrunc&#45;&gt;algebra -->
<g id="edge3" class="edge"><title>HITs/ntrunc&#45;&gt;algebra</title>
<path fill="none" stroke="black" d="M89.1101,-71.6966C89.1101,-63.9827 89.1101,-54.7125 89.1101,-46.1124"/>
<polygon fill="black" stroke="black" points="92.6102,-46.1043 89.1101,-36.1043 85.6102,-46.1044 92.6102,-46.1043"/>
</g>
<!-- HITs/circle -->
<g id="node6" class="node"><title>HITs/circle</title>
<ellipse fill="none" stroke="black" stroke-dasharray="5,2" cx="98.1101" cy="-162" rx="51.9908" ry="18"/>
<text text-anchor="middle" x="98.1101" y="-158.3" font-family="Times New Roman,serif" font-size="14.00">HITs/circle</text>
</g>
<!-- HITs/circle&#45;&gt;HITs/ntrunc -->
<g id="edge30" class="edge"><title>HITs/circle&#45;&gt;HITs/ntrunc</title>
<path fill="none" stroke="black" d="M95.8854,-143.697C94.8936,-135.983 93.7017,-126.712 92.596,-118.112"/>
<polygon fill="black" stroke="black" points="96.056,-117.576 91.3092,-108.104 89.1131,-118.469 96.056,-117.576"/>
</g>
<!-- types/integers -->
<g id="node7" class="node"><title>types/integers</title>
<ellipse fill="none" stroke="black" cx="62.1101" cy="-450" rx="60.3893" ry="18"/>
<text text-anchor="middle" x="62.1101" y="-446.3" font-family="Times New Roman,serif" font-size="14.00">types/integers</text>
</g>
<!-- types/integers&#45;&gt;HITs/circle -->
<g id="edge4" class="edge"><title>types/integers&#45;&gt;HITs/circle</title>
<path fill="none" stroke="black" d="M36.8919,-433.379C24.5315,-424.187 10.8779,-411.352 4.11011,-396 -2.34395,-381.359 0.577794,-375.605 4.11011,-360 19.0339,-294.069 58.8005,-224.369 81.5425,-188.165"/>
<polygon fill="black" stroke="black" points="84.511,-190.019 86.9321,-179.704 78.6072,-186.258 84.511,-190.019"/>
</g>
<!-- HITs/reals -->
<g id="node37" class="node"><title>HITs/reals</title>
<ellipse fill="none" stroke="black" cx="62.1101" cy="-378" rx="48.9926" ry="18"/>
<text text-anchor="middle" x="62.1101" y="-374.3" font-family="Times New Roman,serif" font-size="14.00">HITs/reals</text>
</g>
<!-- types/integers&#45;&gt;HITs/reals -->
<g id="edge37" class="edge"><title>types/integers&#45;&gt;HITs/reals</title>
<path fill="none" stroke="black" d="M62.1101,-431.697C62.1101,-423.983 62.1101,-414.712 62.1101,-406.112"/>
<polygon fill="black" stroke="black" points="65.6102,-406.104 62.1101,-396.104 58.6102,-406.104 65.6102,-406.104"/>
</g>
<!-- HITs/suspension -->
<g id="node8" class="node"><title>HITs/suspension</title>
<ellipse fill="none" stroke="black" cx="202.11" cy="-378" rx="72.5877" ry="18"/>
<text text-anchor="middle" x="202.11" y="-374.3" font-family="Times New Roman,serif" font-size="14.00">HITs/suspension</text>
</g>
<!-- HITs/suspension&#45;&gt;HITs/circle -->
<g id="edge5" class="edge"><title>HITs/suspension&#45;&gt;HITs/circle</title>
<path fill="none" stroke="black" d="M193.775,-359.849C175.588,-322.426 132.253,-233.255 110.712,-188.93"/>
<polygon fill="black" stroke="black" points="113.859,-187.4 106.34,-179.935 107.563,-190.459 113.859,-187.4"/>
</g>
<!-- theorems/ua -->
<g id="node9" class="node"><title>theorems/ua</title>
<ellipse fill="none" stroke="black" stroke-dasharray="5,2" cx="208.11" cy="-234" rx="54.6905" ry="18"/>
<text text-anchor="middle" x="208.11" y="-230.3" font-family="Times New Roman,serif" font-size="14.00">theorems/ua</text>
</g>
<!-- theorems/ua&#45;&gt;HITs/circle -->
<g id="edge6" class="edge"><title>theorems/ua&#45;&gt;HITs/circle</title>
<path fill="none" stroke="black" d="M184.242,-217.811C168.53,-207.813 147.764,-194.598 130.559,-183.649"/>
<polygon fill="black" stroke="black" points="132.248,-180.575 121.932,-178.159 128.489,-186.481 132.248,-180.575"/>
</g>
<!-- cubical/V -->
<g id="node23" class="node"><title>cubical/V</title>
<ellipse fill="none" stroke="black" stroke-dasharray="5,2" cx="208.11" cy="-90" rx="45.4919" ry="18"/>
<text text-anchor="middle" x="208.11" y="-86.3" font-family="Times New Roman,serif" font-size="14.00">cubical/V</text>
</g>
<!-- theorems/ua&#45;&gt;cubical/V -->
<g id="edge17" class="edge"><title>theorems/ua&#45;&gt;cubical/V</title>
<path fill="none" stroke="black" d="M208.11,-215.871C208.11,-191.67 208.11,-147.211 208.11,-118.393"/>
<polygon fill="black" stroke="black" points="211.61,-118.189 208.11,-108.189 204.61,-118.189 211.61,-118.189"/>
</g>
<!-- types/heq -->
<g id="node10" class="node"><title>types/heq</title>
<ellipse fill="none" stroke="black" cx="476.11" cy="-522" rx="46.2923" ry="18"/>
<text text-anchor="middle" x="476.11" y="-518.3" font-family="Times New Roman,serif" font-size="14.00">types/heq</text>
</g>
<!-- HITs/colimit -->
<g id="node11" class="node"><title>HITs/colimit</title>
<ellipse fill="none" stroke="black" cx="579.11" cy="-450" rx="56.59" ry="18"/>
<text text-anchor="middle" x="579.11" y="-446.3" font-family="Times New Roman,serif" font-size="14.00">HITs/colimit</text>
</g>
<!-- types/heq&#45;&gt;HITs/colimit -->
<g id="edge7" class="edge"><title>types/heq&#45;&gt;HITs/colimit</title>
<path fill="none" stroke="black" d="M498.206,-505.983C512.67,-496.154 531.787,-483.161 547.806,-472.274"/>
<polygon fill="black" stroke="black" points="550.034,-474.992 556.338,-466.476 546.1,-469.202 550.034,-474.992"/>
</g>
<!-- HITs/generalized -->
<g id="node12" class="node"><title>HITs/generalized</title>
<ellipse fill="none" stroke="black" cx="726.11" cy="-450" rx="72.2875" ry="18"/>
<text text-anchor="middle" x="726.11" y="-446.3" font-family="Times New Roman,serif" font-size="14.00">HITs/generalized</text>
</g>
<!-- types/heq&#45;&gt;HITs/generalized -->
<g id="edge8" class="edge"><title>types/heq&#45;&gt;HITs/generalized</title>
<path fill="none" stroke="black" d="M510.97,-510.027C517.644,-507.983 524.584,-505.895 531.11,-504 577.037,-490.665 629.345,-476.504 668.215,-466.177"/>
<polygon fill="black" stroke="black" points="669.53,-469.449 678.299,-463.504 667.736,-462.683 669.53,-469.449"/>
</g>
<!-- HITs/int -->
<g id="node26" class="node"><title>HITs/int</title>
<ellipse fill="none" stroke="black" cx="857.11" cy="-450" rx="40.8928" ry="18"/>
<text text-anchor="middle" x="857.11" y="-446.3" font-family="Times New Roman,serif" font-size="14.00">HITs/int</text>
</g>
<!-- types/heq&#45;&gt;HITs/int -->
<g id="edge24" class="edge"><title>types/heq&#45;&gt;HITs/int</title>
<path fill="none" stroke="black" d="M509.903,-509.567C516.859,-507.493 524.177,-505.512 531.11,-504 651.975,-477.639 686.626,-496.048 807.11,-468 810.471,-467.218 813.925,-466.298 817.371,-465.298"/>
<polygon fill="black" stroke="black" points="818.469,-468.622 826.982,-462.315 816.394,-461.936 818.469,-468.622"/>
</g>
<!-- HITs/interval -->
<g id="node28" class="node"><title>HITs/interval</title>
<ellipse fill="none" stroke="black" cx="459.11" cy="-378" rx="57.6901" ry="18"/>
<text text-anchor="middle" x="459.11" y="-374.3" font-family="Times New Roman,serif" font-size="14.00">HITs/interval</text>
</g>
<!-- types/heq&#45;&gt;HITs/interval -->
<g id="edge26" class="edge"><title>types/heq&#45;&gt;HITs/interval</title>
<path fill="none" stroke="black" d="M446.438,-507.895C430.464,-499.11 412.214,-485.86 403.11,-468 395.844,-453.745 396.784,-446.696 403.11,-432 408.237,-420.089 417.503,-409.603 427.041,-401.169"/>
<polygon fill="black" stroke="black" points="429.543,-403.643 435.032,-394.581 425.09,-398.242 429.543,-403.643"/>
</g>
<!-- HITs/pushout -->
<g id="node29" class="node"><title>HITs/pushout</title>
<ellipse fill="none" stroke="black" cx="293.11" cy="-450" rx="61.99" ry="18"/>
<text text-anchor="middle" x="293.11" y="-446.3" font-family="Times New Roman,serif" font-size="14.00">HITs/pushout</text>
</g>
<!-- types/heq&#45;&gt;HITs/pushout -->
<g id="edge34" class="edge"><title>types/heq&#45;&gt;HITs/pushout</title>
<path fill="none" stroke="black" d="M444.234,-508.807C414.968,-497.612 371.288,-480.904 338.404,-468.326"/>
<polygon fill="black" stroke="black" points="339.596,-465.034 329.006,-464.731 337.095,-471.572 339.596,-465.034"/>
</g>
<!-- HITs/truncation -->
<g id="node32" class="node"><title>HITs/truncation</title>
<ellipse fill="none" stroke="black" cx="625.11" cy="-378" rx="68.4888" ry="18"/>
<text text-anchor="middle" x="625.11" y="-374.3" font-family="Times New Roman,serif" font-size="14.00">HITs/truncation</text>
</g>
<!-- HITs/colimit&#45;&gt;HITs/truncation -->
<g id="edge45" class="edge"><title>HITs/colimit&#45;&gt;HITs/truncation</title>
<path fill="none" stroke="black" d="M590.245,-432.055C595.726,-423.715 602.445,-413.491 608.516,-404.252"/>
<polygon fill="black" stroke="black" points="611.51,-406.068 614.077,-395.789 605.661,-402.224 611.51,-406.068"/>
</g>
<!-- HITs/generalized&#45;&gt;HITs/truncation -->
<g id="edge46" class="edge"><title>HITs/generalized&#45;&gt;HITs/truncation</title>
<path fill="none" stroke="black" d="M702.939,-432.941C689.21,-423.425 671.624,-411.238 656.644,-400.855"/>
<polygon fill="black" stroke="black" points="658.386,-397.804 648.174,-394.985 654.399,-403.558 658.386,-397.804"/>
</g>
<!-- HITs/infinitesimal -->
<g id="node13" class="node"><title>HITs/infinitesimal</title>
<ellipse fill="none" stroke="black" stroke-dasharray="5,2" cx="775.11" cy="-522" rx="74.9875" ry="18"/>
<text text-anchor="middle" x="775.11" y="-518.3" font-family="Times New Roman,serif" font-size="14.00">HITs/infinitesimal</text>
</g>
<!-- types/equiv -->
<g id="node14" class="node"><title>types/equiv</title>
<ellipse fill="none" stroke="black" cx="543.11" cy="-594" rx="51.9908" ry="18"/>
<text text-anchor="middle" x="543.11" y="-590.3" font-family="Times New Roman,serif" font-size="14.00">types/equiv</text>
</g>
<!-- types/equiv&#45;&gt;types/integers -->
<g id="edge20" class="edge"><title>types/equiv&#45;&gt;types/integers</title>
<path fill="none" stroke="black" d="M498.665,-584.481C451.668,-575.094 375.56,-558.808 311.11,-540 238.189,-518.72 155.506,-487.766 106.147,-468.535"/>
<polygon fill="black" stroke="black" points="107.32,-465.236 96.7318,-464.851 104.769,-471.754 107.32,-465.236"/>
</g>
<!-- types/equiv&#45;&gt;types/heq -->
<g id="edge19" class="edge"><title>types/equiv&#45;&gt;types/heq</title>
<path fill="none" stroke="black" d="M527.571,-576.765C518.945,-567.753 508.064,-556.385 498.532,-546.426"/>
<polygon fill="black" stroke="black" points="501.008,-543.951 491.565,-539.147 495.952,-548.792 501.008,-543.951"/>
</g>
<!-- types/equiv&#45;&gt;HITs/infinitesimal -->
<g id="edge9" class="edge"><title>types/equiv&#45;&gt;HITs/infinitesimal</title>
<path fill="none" stroke="black" d="M580.901,-581.597C618.781,-570.168 677.488,-552.455 720.444,-539.494"/>
<polygon fill="black" stroke="black" points="721.616,-542.796 730.178,-536.557 719.594,-536.095 721.616,-542.796"/>
</g>
<!-- types/coproduct -->
<g id="node15" class="node"><title>types/coproduct</title>
<ellipse fill="none" stroke="black" cx="611.11" cy="-522" rx="70.6878" ry="18"/>
<text text-anchor="middle" x="611.11" y="-518.3" font-family="Times New Roman,serif" font-size="14.00">types/coproduct</text>
</g>
<!-- types/equiv&#45;&gt;types/coproduct -->
<g id="edge10" class="edge"><title>types/equiv&#45;&gt;types/coproduct</title>
<path fill="none" stroke="black" d="M558.882,-576.765C567.511,-567.882 578.364,-556.709 587.938,-546.854"/>
<polygon fill="black" stroke="black" points="590.495,-549.245 594.952,-539.633 585.474,-544.367 590.495,-549.245"/>
</g>
<!-- types/unit -->
<g id="node39" class="node"><title>types/unit</title>
<ellipse fill="none" stroke="black" cx="366.11" cy="-522" rx="46.2923" ry="18"/>
<text text-anchor="middle" x="366.11" y="-518.3" font-family="Times New Roman,serif" font-size="14.00">types/unit</text>
</g>
<!-- types/equiv&#45;&gt;types/unit -->
<g id="edge48" class="edge"><title>types/equiv&#45;&gt;types/unit</title>
<path fill="none" stroke="black" d="M510.233,-579.998C480.968,-568.424 438.058,-551.454 406.67,-539.041"/>
<polygon fill="black" stroke="black" points="407.913,-535.769 397.327,-535.346 405.339,-542.278 407.913,-535.769"/>
</g>
<!-- types/lost -->
<g id="node41" class="node"><title>types/lost</title>
<ellipse fill="none" stroke="black" cx="914.11" cy="-522" rx="46.2923" ry="18"/>
<text text-anchor="middle" x="914.11" y="-518.3" font-family="Times New Roman,serif" font-size="14.00">types/lost</text>
</g>
<!-- types/equiv&#45;&gt;types/lost -->
<g id="edge50" class="edge"><title>types/equiv&#45;&gt;types/lost</title>
<path fill="none" stroke="black" d="M591.155,-586.977C653.438,-578.706 765.204,-562.282 859.11,-540 862.726,-539.142 866.453,-538.174 870.18,-537.147"/>
<polygon fill="black" stroke="black" points="871.338,-540.456 879.978,-534.324 869.4,-533.73 871.338,-540.456"/>
</g>
<!-- structures -->
<g id="node27" class="node"><title>structures</title>
<ellipse fill="none" stroke="black" cx="458.11" cy="-450" rx="46.2923" ry="18"/>
<text text-anchor="middle" x="458.11" y="-446.3" font-family="Times New Roman,serif" font-size="14.00">structures</text>
</g>
<!-- types/coproduct&#45;&gt;structures -->
<g id="edge40" class="edge"><title>types/coproduct&#45;&gt;structures</title>
<path fill="none" stroke="black" d="M578.288,-505.983C554.229,-494.976 521.504,-480.004 496.277,-468.462"/>
<polygon fill="black" stroke="black" points="497.559,-465.2 487.01,-464.222 494.647,-471.565 497.559,-465.2"/>
</g>
<!-- types/nat -->
<g id="node40" class="node"><title>types/nat</title>
<ellipse fill="none" stroke="black" cx="959.11" cy="-450" rx="43.5923" ry="18"/>
<text text-anchor="middle" x="959.11" y="-446.3" font-family="Times New Roman,serif" font-size="14.00">types/nat</text>
</g>
<!-- types/coproduct&#45;&gt;types/nat -->
<g id="edge49" class="edge"><title>types/coproduct&#45;&gt;types/nat</title>
<path fill="none" stroke="black" d="M663.113,-509.601C672.421,-507.66 682.042,-505.718 691.11,-504 786.733,-485.881 812.588,-491.187 907.11,-468 910.487,-467.172 913.962,-466.232 917.437,-465.231"/>
<polygon fill="black" stroke="black" points="918.598,-468.537 927.152,-462.285 916.566,-461.838 918.598,-468.537"/>
</g>
<!-- types/dep_path&#45;&gt;types/equiv -->
<g id="edge21" class="edge"><title>types/dep_path&#45;&gt;types/equiv</title>
<path fill="none" stroke="black" d="M446.63,-649.465C464.739,-639.242 488.602,-625.771 508.065,-614.783"/>
<polygon fill="black" stroke="black" points="509.953,-617.737 516.941,-609.773 506.512,-611.641 509.953,-617.737"/>
</g>
<!-- cubical/Path -->
<g id="node17" class="node"><title>cubical/Path</title>
<ellipse fill="none" stroke="black" cx="403.11" cy="-162" rx="55.4913" ry="18"/>
<text text-anchor="middle" x="403.11" y="-158.3" font-family="Times New Roman,serif" font-size="14.00">cubical/Path</text>
</g>
<!-- cubical/connection -->
<g id="node18" class="node"><title>cubical/connection</title>
<ellipse fill="none" stroke="black" cx="351.11" cy="-90" rx="79.0865" ry="18"/>
<text text-anchor="middle" x="351.11" y="-86.3" font-family="Times New Roman,serif" font-size="14.00">cubical/connection</text>
</g>
<!-- cubical/Path&#45;&gt;cubical/connection -->
<g id="edge12" class="edge"><title>cubical/Path&#45;&gt;cubical/connection</title>
<path fill="none" stroke="black" d="M390.787,-144.411C384.532,-135.992 376.802,-125.585 369.831,-116.201"/>
<polygon fill="black" stroke="black" points="372.479,-113.897 363.706,-107.956 366.86,-118.071 372.479,-113.897"/>
</g>
<!-- cubical/Square -->
<g id="node21" class="node"><title>cubical/Square</title>
<ellipse fill="none" stroke="black" cx="513.11" cy="-90" rx="64.189" ry="18"/>
<text text-anchor="middle" x="513.11" y="-86.3" font-family="Times New Roman,serif" font-size="14.00">cubical/Square</text>
</g>
<!-- cubical/Path&#45;&gt;cubical/Square -->
<g id="edge15" class="edge"><title>cubical/Path&#45;&gt;cubical/Square</title>
<path fill="none" stroke="black" d="M427.25,-145.638C442.653,-135.837 462.829,-122.997 479.753,-112.227"/>
<polygon fill="black" stroke="black" points="481.707,-115.133 488.264,-106.811 477.949,-109.227 481.707,-115.133"/>
</g>
<!-- cubical/example -->
<g id="node22" class="node"><title>cubical/example</title>
<ellipse fill="none" stroke="black" cx="664.11" cy="-90" rx="68.7879" ry="18"/>
<text text-anchor="middle" x="664.11" y="-86.3" font-family="Times New Roman,serif" font-size="14.00">cubical/example</text>
</g>
<!-- cubical/Path&#45;&gt;cubical/example -->
<g id="edge16" class="edge"><title>cubical/Path&#45;&gt;cubical/example</title>
<path fill="none" stroke="black" d="M444.466,-149.908C488.574,-138.079 558.708,-119.269 607.827,-106.095"/>
<polygon fill="black" stroke="black" points="608.913,-109.428 617.665,-103.457 607.099,-102.667 608.913,-109.428"/>
</g>
<!-- cubical/Path&#45;&gt;cubical/V -->
<g id="edge18" class="edge"><title>cubical/Path&#45;&gt;cubical/V</title>
<path fill="none" stroke="black" d="M367.344,-148.161C334.279,-136.291 285.122,-118.645 250.184,-106.103"/>
<polygon fill="black" stroke="black" points="251.326,-102.795 240.732,-102.71 248.961,-109.383 251.326,-102.795"/>
</g>
<!-- HITs/moebius -->
<g id="node31" class="node"><title>HITs/moebius</title>
<ellipse fill="none" stroke="black" cx="814.11" cy="-90" rx="63.0888" ry="18"/>
<text text-anchor="middle" x="814.11" y="-86.3" font-family="Times New Roman,serif" font-size="14.00">HITs/moebius</text>
</g>
<!-- cubical/Path&#45;&gt;HITs/moebius -->
<g id="edge28" class="edge"><title>cubical/Path&#45;&gt;HITs/moebius</title>
<path fill="none" stroke="black" d="M453.293,-154.382C519.648,-145.351 640.101,-127.986 742.11,-108 747.388,-106.966 752.866,-105.815 758.337,-104.614"/>
<polygon fill="black" stroke="black" points="759.144,-108.02 768.133,-102.411 757.608,-101.19 759.144,-108.02"/>
</g>
<!-- types/product -->
<g id="node19" class="node"><title>types/product</title>
<ellipse fill="none" stroke="black" cx="316.11" cy="-306" rx="61.99" ry="18"/>
<text text-anchor="middle" x="316.11" y="-302.3" font-family="Times New Roman,serif" font-size="14.00">types/product</text>
</g>
<!-- types/product&#45;&gt;theorems/ua -->
<g id="edge47" class="edge"><title>types/product&#45;&gt;theorems/ua</title>
<path fill="none" stroke="black" d="M291.873,-289.291C276.76,-279.495 257.125,-266.769 240.664,-256.1"/>
<polygon fill="black" stroke="black" points="242.19,-252.918 231.895,-250.416 238.383,-258.792 242.19,-252.918"/>
</g>
<!-- cubical/cubes -->
<g id="node20" class="node"><title>cubical/cubes</title>
<ellipse fill="none" stroke="black" cx="372.11" cy="-234" rx="60.3893" ry="18"/>
<text text-anchor="middle" x="372.11" y="-230.3" font-family="Times New Roman,serif" font-size="14.00">cubical/cubes</text>
</g>
<!-- types/product&#45;&gt;cubical/cubes -->
<g id="edge13" class="edge"><title>types/product&#45;&gt;cubical/cubes</title>
<path fill="none" stroke="black" d="M329.381,-288.411C336.186,-279.906 344.612,-269.372 352.179,-259.914"/>
<polygon fill="black" stroke="black" points="355.031,-261.951 358.545,-251.956 349.565,-257.578 355.031,-261.951"/>
</g>
<!-- cubical/cubes&#45;&gt;cubical/Path -->
<g id="edge14" class="edge"><title>cubical/cubes&#45;&gt;cubical/Path</title>
<path fill="none" stroke="black" d="M379.614,-216.055C383.141,-208.091 387.428,-198.411 391.37,-189.51"/>
<polygon fill="black" stroke="black" points="394.611,-190.836 395.46,-180.275 388.21,-188.002 394.611,-190.836"/>
</g>
<!-- support&#45;&gt;types/equiv -->
<g id="edge22" class="edge"><title>support&#45;&gt;types/equiv</title>
<path fill="none" stroke="black" d="M543.11,-647.697C543.11,-639.983 543.11,-630.712 543.11,-622.112"/>
<polygon fill="black" stroke="black" points="546.61,-622.104 543.11,-612.104 539.61,-622.104 546.61,-622.104"/>
</g>
<!-- theorems/functions -->
<g id="node25" class="node"><title>theorems/functions</title>
<ellipse fill="none" stroke="black" cx="680.11" cy="-666" rx="79.8859" ry="18"/>
<text text-anchor="middle" x="680.11" y="-662.3" font-family="Times New Roman,serif" font-size="14.00">theorems/functions</text>
</g>
<!-- theorems/functions&#45;&gt;types/equiv -->
<g id="edge23" class="edge"><title>theorems/functions&#45;&gt;types/equiv</title>
<path fill="none" stroke="black" d="M649.365,-649.291C628.794,-638.78 601.617,-624.894 579.898,-613.797"/>
<polygon fill="black" stroke="black" points="581.457,-610.663 570.959,-609.229 578.272,-616.896 581.457,-610.663"/>
</g>
<!-- HITs/rat -->
<g id="node36" class="node"><title>HITs/rat</title>
<ellipse fill="none" stroke="black" cx="857.11" cy="-378" rx="41.6928" ry="18"/>
<text text-anchor="middle" x="857.11" y="-374.3" font-family="Times New Roman,serif" font-size="14.00">HITs/rat</text>
</g>
<!-- HITs/int&#45;&gt;HITs/rat -->
<g id="edge35" class="edge"><title>HITs/int&#45;&gt;HITs/rat</title>
<path fill="none" stroke="black" d="M857.11,-431.697C857.11,-423.983 857.11,-414.712 857.11,-406.112"/>
<polygon fill="black" stroke="black" points="860.61,-406.104 857.11,-396.104 853.61,-406.104 860.61,-406.104"/>
</g>
<!-- structures&#45;&gt;HITs/interval -->
<g id="edge25" class="edge"><title>structures&#45;&gt;HITs/interval</title>
<path fill="none" stroke="black" d="M458.357,-431.697C458.467,-423.983 458.6,-414.712 458.723,-406.112"/>
<polygon fill="black" stroke="black" points="462.222,-406.153 458.866,-396.104 455.223,-406.053 462.222,-406.153"/>
</g>
<!-- structures&#45;&gt;HITs/truncation -->
<g id="edge44" class="edge"><title>structures&#45;&gt;HITs/truncation</title>
<path fill="none" stroke="black" d="M488.353,-436.324C514.193,-425.492 551.714,-409.765 580.92,-397.523"/>
<polygon fill="black" stroke="black" points="582.608,-400.61 590.478,-393.517 579.902,-394.155 582.608,-400.61"/>
</g>
<!-- HITs/interval&#45;&gt;types/product -->
<g id="edge31" class="edge"><title>HITs/interval&#45;&gt;types/product</title>
<path fill="none" stroke="black" d="M429.48,-362.496C407.959,-351.961 378.622,-337.6 355.184,-326.127"/>
<polygon fill="black" stroke="black" points="356.714,-322.979 346.194,-321.726 353.637,-329.267 356.714,-322.979"/>
</g>
<!-- theorems/prop -->
<g id="node35" class="node"><title>theorems/prop</title>
<ellipse fill="none" stroke="black" cx="459.11" cy="-306" rx="63.8893" ry="18"/>
<text text-anchor="middle" x="459.11" y="-302.3" font-family="Times New Roman,serif" font-size="14.00">theorems/prop</text>
</g>
<!-- HITs/interval&#45;&gt;theorems/prop -->
<g id="edge32" class="edge"><title>HITs/interval&#45;&gt;theorems/prop</title>
<path fill="none" stroke="black" d="M459.11,-359.697C459.11,-351.983 459.11,-342.712 459.11,-334.112"/>
<polygon fill="black" stroke="black" points="462.61,-334.104 459.11,-324.104 455.61,-334.104 462.61,-334.104"/>
</g>
<!-- HITs/pushout&#45;&gt;HITs/suspension -->
<g id="edge42" class="edge"><title>HITs/pushout&#45;&gt;HITs/suspension</title>
<path fill="none" stroke="black" d="M272.004,-432.765C260.031,-423.554 244.857,-411.882 231.71,-401.769"/>
<polygon fill="black" stroke="black" points="233.477,-398.713 223.417,-395.39 229.209,-404.261 233.477,-398.713"/>
</g>
<!-- HITs/join -->
<g id="node30" class="node"><title>HITs/join</title>
<ellipse fill="none" stroke="black" cx="338.11" cy="-378" rx="45.4919" ry="18"/>
<text text-anchor="middle" x="338.11" y="-374.3" font-family="Times New Roman,serif" font-size="14.00">HITs/join</text>
</g>
<!-- HITs/pushout&#45;&gt;HITs/join -->
<g id="edge27" class="edge"><title>HITs/pushout&#45;&gt;HITs/join</title>
<path fill="none" stroke="black" d="M304.003,-432.055C309.365,-423.715 315.937,-413.491 321.877,-404.252"/>
<polygon fill="black" stroke="black" points="324.854,-406.093 327.317,-395.789 318.965,-402.308 324.854,-406.093"/>
</g>
<!-- HITs/pushout&#45;&gt;HITs/reals -->
<g id="edge36" class="edge"><title>HITs/pushout&#45;&gt;HITs/reals</title>
<path fill="none" stroke="black" d="M251.812,-436.485C211.444,-424.253 150.106,-405.665 108.179,-392.96"/>
<polygon fill="black" stroke="black" points="109.075,-389.575 98.4898,-390.024 107.045,-396.274 109.075,-389.575"/>
</g>
<!-- theorems/mere_eq_lemma -->
<g id="node33" class="node"><title>theorems/mere_eq_lemma</title>
<ellipse fill="none" stroke="black" cx="647.11" cy="-306" rx="105.881" ry="18"/>
<text text-anchor="middle" x="647.11" y="-302.3" font-family="Times New Roman,serif" font-size="14.00">theorems/mere_eq_lemma</text>
</g>
<!-- HITs/truncation&#45;&gt;theorems/mere_eq_lemma -->
<g id="edge29" class="edge"><title>HITs/truncation&#45;&gt;theorems/mere_eq_lemma</title>
<path fill="none" stroke="black" d="M630.548,-359.697C632.999,-351.898 635.95,-342.509 638.678,-333.829"/>
<polygon fill="black" stroke="black" points="642.075,-334.694 641.734,-324.104 635.397,-332.595 642.075,-334.694"/>
</g>
<!-- HITs/truncation&#45;&gt;theorems/prop -->
<g id="edge33" class="edge"><title>HITs/truncation&#45;&gt;theorems/prop</title>
<path fill="none" stroke="black" d="M590.311,-362.326C564.713,-351.531 529.754,-336.789 502.358,-325.237"/>
<polygon fill="black" stroke="black" points="503.586,-321.956 493.012,-321.296 500.866,-328.406 503.586,-321.956"/>
</g>
<!-- HITs/simplicial -->
<g id="node38" class="node"><title>HITs/simplicial</title>
<ellipse fill="none" stroke="black" cx="837.11" cy="-306" rx="65.7887" ry="18"/>
<text text-anchor="middle" x="837.11" y="-302.3" font-family="Times New Roman,serif" font-size="14.00">HITs/simplicial</text>
</g>
<!-- HITs/truncation&#45;&gt;HITs/simplicial -->
<g id="edge38" class="edge"><title>HITs/truncation&#45;&gt;HITs/simplicial</title>
<path fill="none" stroke="black" d="M665.986,-363.503C700.557,-352.088 750.218,-335.691 787.145,-323.498"/>
<polygon fill="black" stroke="black" points="788.322,-326.795 796.72,-320.336 786.127,-320.148 788.322,-326.795"/>
</g>
<!-- theorems/topology -->
<g id="node34" class="node"><title>theorems/topology</title>
<ellipse fill="none" stroke="black" cx="711.11" cy="-810" rx="79.0865" ry="18"/>
<text text-anchor="middle" x="711.11" y="-806.3" font-family="Times New Roman,serif" font-size="14.00">theorems/topology</text>
</g>
<!-- types/unit&#45;&gt;HITs/suspension -->
<g id="edge43" class="edge"><title>types/unit&#45;&gt;HITs/suspension</title>
<path fill="none" stroke="black" d="M322.393,-516.072C290.09,-510.105 247.481,-496.951 222.11,-468 207.315,-451.117 202.772,-425.644 201.664,-406.269"/>
<polygon fill="black" stroke="black" points="205.162,-406.115 201.359,-396.226 198.165,-406.328 205.162,-406.115"/>
</g>
<!-- types/unit&#45;&gt;structures -->
<g id="edge39" class="edge"><title>types/unit&#45;&gt;structures</title>
<path fill="none" stroke="black" d="M386.528,-505.465C399.241,-495.792 415.777,-483.21 429.752,-472.577"/>
<polygon fill="black" stroke="black" points="432.227,-475.092 438.066,-466.251 427.988,-469.521 432.227,-475.092"/>
</g>
<!-- types/sigma -->
<g id="node42" class="node"><title>types/sigma</title>
<ellipse fill="none" stroke="black" cx="862.11" cy="-810" rx="53.8905" ry="18"/>
<text text-anchor="middle" x="862.11" y="-806.3" font-family="Times New Roman,serif" font-size="14.00">types/sigma</text>
</g>
</g>
</svg>
