<?xml version="1.0" encoding="UTF-8" standalone="no"?>
<!DOCTYPE svg PUBLIC "-//W3C//DTD SVG 1.1//EN"
 "http://www.w3.org/Graphics/SVG/1.1/DTD/svg11.dtd">
<!-- Generated by graphviz version 2.38.0 (20140413.2041)
 -->
<!-- Title: dependency_map Pages: 1 -->
<svg width="1295pt" height="836pt"
 viewBox="0.00 0.00 1294.79 836.00" xmlns="http://www.w3.org/2000/svg" xmlns:xlink="http://www.w3.org/1999/xlink">
<g id="graph0" class="graph" transform="scale(1 1) rotate(0) translate(4 832)">
<title>dependency_map</title>
<polygon fill="white" stroke="none" points="-4,4 -4,-832 1290.79,-832 1290.79,4 -4,4"/>
<!-- proto -->
<g id="node1" class="node"><title>proto</title>
<ellipse fill="none" stroke="black" cx="529.445" cy="-810" rx="30.5947" ry="18"/>
<text text-anchor="middle" x="529.445" y="-806.3" font-family="Times New Roman,serif" font-size="14.00">proto</text>
</g>
<!-- types/eq -->
<g id="node2" class="node"><title>types/eq</title>
<ellipse fill="none" stroke="black" cx="589.445" cy="-738" rx="41.6928" ry="18"/>
<text text-anchor="middle" x="589.445" y="-734.3" font-family="Times New Roman,serif" font-size="14.00">types/eq</text>
</g>
<!-- proto&#45;&gt;types/eq -->
<g id="edge1" class="edge"><title>proto&#45;&gt;types/eq</title>
<path fill="none" stroke="black" d="M542.761,-793.465C550.388,-784.566 560.126,-773.205 568.732,-763.164"/>
<polygon fill="black" stroke="black" points="571.479,-765.338 575.33,-755.467 566.165,-760.782 571.479,-765.338"/>
</g>
<!-- types/dep_path -->
<g id="node16" class="node"><title>types/dep_path</title>
<ellipse fill="none" stroke="black" cx="651.445" cy="-666" rx="66.8882" ry="18"/>
<text text-anchor="middle" x="651.445" y="-662.3" font-family="Times New Roman,serif" font-size="14.00">types/dep_path</text>
</g>
<!-- types/eq&#45;&gt;types/dep_path -->
<g id="edge11" class="edge"><title>types/eq&#45;&gt;types/dep_path</title>
<path fill="none" stroke="black" d="M603.825,-720.765C611.615,-711.969 621.394,-700.928 630.06,-691.144"/>
<polygon fill="black" stroke="black" points="632.702,-693.44 636.712,-683.633 627.462,-688.799 632.702,-693.44"/>
</g>
<!-- support -->
<g id="node24" class="node"><title>support</title>
<ellipse fill="none" stroke="black" cx="527.445" cy="-666" rx="38.9931" ry="18"/>
<text text-anchor="middle" x="527.445" y="-662.3" font-family="Times New Roman,serif" font-size="14.00">support</text>
</g>
<!-- types/eq&#45;&gt;support -->
<g id="edge41" class="edge"><title>types/eq&#45;&gt;support</title>
<path fill="none" stroke="black" d="M575.065,-720.765C567.161,-711.841 557.212,-700.608 548.453,-690.719"/>
<polygon fill="black" stroke="black" points="550.997,-688.313 541.747,-683.147 545.757,-692.954 550.997,-688.313"/>
</g>
<!-- meta/hott_theory -->
<g id="node3" class="node"><title>meta/hott_theory</title>
<ellipse fill="none" stroke="black" cx="650.445" cy="-810" rx="72.2875" ry="18"/>
<text text-anchor="middle" x="650.445" y="-806.3" font-family="Times New Roman,serif" font-size="14.00">meta/hott_theory</text>
</g>
<!-- meta/hott_theory&#45;&gt;types/eq -->
<g id="edge2" class="edge"><title>meta/hott_theory&#45;&gt;types/eq</title>
<path fill="none" stroke="black" d="M635.678,-792.055C628.075,-783.33 618.676,-772.544 610.342,-762.981"/>
<polygon fill="black" stroke="black" points="612.864,-760.547 603.655,-755.307 607.586,-765.146 612.864,-760.547"/>
</g>
<!-- algebra -->
<g id="node4" class="node"><title>algebra</title>
<ellipse fill="none" stroke="black" stroke-dasharray="5,2" cx="286.445" cy="-18" rx="36.2938" ry="18"/>
<text text-anchor="middle" x="286.445" y="-14.3" font-family="Times New Roman,serif" font-size="14.00">algebra</text>
</g>
<!-- HITs/ntrunc -->
<g id="node5" class="node"><title>HITs/ntrunc</title>
<ellipse fill="none" stroke="black" stroke-dasharray="5,2" cx="286.445" cy="-90" rx="55.4913" ry="18"/>
<text text-anchor="middle" x="286.445" y="-86.3" font-family="Times New Roman,serif" font-size="14.00">HITs/ntrunc</text>
</g>
<!-- HITs/ntrunc&#45;&gt;algebra -->
<g id="edge3" class="edge"><title>HITs/ntrunc&#45;&gt;algebra</title>
<path fill="none" stroke="black" d="M286.445,-71.6966C286.445,-63.9827 286.445,-54.7125 286.445,-46.1124"/>
<polygon fill="black" stroke="black" points="289.945,-46.1043 286.445,-36.1043 282.945,-46.1044 289.945,-46.1043"/>
</g>
<!-- HITs/circle -->
<g id="node6" class="node"><title>HITs/circle</title>
<ellipse fill="none" stroke="black" stroke-dasharray="5,2" cx="286.445" cy="-162" rx="51.9908" ry="18"/>
<text text-anchor="middle" x="286.445" y="-158.3" font-family="Times New Roman,serif" font-size="14.00">HITs/circle</text>
</g>
<!-- HITs/circle&#45;&gt;HITs/ntrunc -->
<g id="edge30" class="edge"><title>HITs/circle&#45;&gt;HITs/ntrunc</title>
<path fill="none" stroke="black" d="M286.445,-143.697C286.445,-135.983 286.445,-126.712 286.445,-118.112"/>
<polygon fill="black" stroke="black" points="289.945,-118.104 286.445,-108.104 282.945,-118.104 289.945,-118.104"/>
</g>
<!-- types/integers -->
<g id="node7" class="node"><title>types/integers</title>
<ellipse fill="none" stroke="black" cx="60.4446" cy="-450" rx="60.3893" ry="18"/>
<text text-anchor="middle" x="60.4446" y="-446.3" font-family="Times New Roman,serif" font-size="14.00">types/integers</text>
</g>
<!-- types/integers&#45;&gt;HITs/circle -->
<g id="edge4" class="edge"><title>types/integers&#45;&gt;HITs/circle</title>
<path fill="none" stroke="black" d="M52.2128,-432.102C44.4165,-413.559 35.4112,-383.331 46.4446,-360 88.0312,-272.062 190.241,-210.213 246.944,-181.368"/>
<polygon fill="black" stroke="black" points="248.59,-184.458 255.972,-176.858 245.462,-178.195 248.59,-184.458"/>
</g>
<!-- HITs/reals -->
<g id="node37" class="node"><title>HITs/reals</title>
<ellipse fill="none" stroke="black" cx="104.445" cy="-378" rx="48.9926" ry="18"/>
<text text-anchor="middle" x="104.445" y="-374.3" font-family="Times New Roman,serif" font-size="14.00">HITs/reals</text>
</g>
<!-- types/integers&#45;&gt;HITs/reals -->
<g id="edge37" class="edge"><title>types/integers&#45;&gt;HITs/reals</title>
<path fill="none" stroke="black" d="M71.0958,-432.055C76.2842,-423.801 82.6323,-413.701 88.3923,-404.538"/>
<polygon fill="black" stroke="black" points="91.533,-406.118 93.8916,-395.789 85.6066,-402.393 91.533,-406.118"/>
</g>
<!-- HITs/suspension -->
<g id="node8" class="node"><title>HITs/suspension</title>
<ellipse fill="none" stroke="black" cx="453.445" cy="-378" rx="72.5877" ry="18"/>
<text text-anchor="middle" x="453.445" y="-374.3" font-family="Times New Roman,serif" font-size="14.00">HITs/suspension</text>
</g>
<!-- HITs/suspension&#45;&gt;HITs/circle -->
<g id="edge5" class="edge"><title>HITs/suspension&#45;&gt;HITs/circle</title>
<path fill="none" stroke="black" d="M402.978,-364.996C365.201,-354.945 317.978,-339.749 305.445,-324 274.949,-285.681 277.131,-225.074 281.657,-190.179"/>
<polygon fill="black" stroke="black" points="285.129,-190.628 283.104,-180.228 278.202,-189.621 285.129,-190.628"/>
</g>
<!-- theorems/ua -->
<g id="node9" class="node"><title>theorems/ua</title>
<ellipse fill="none" stroke="black" stroke-dasharray="5,2" cx="618.445" cy="-234" rx="54.6905" ry="18"/>
<text text-anchor="middle" x="618.445" y="-230.3" font-family="Times New Roman,serif" font-size="14.00">theorems/ua</text>
</g>
<!-- theorems/ua&#45;&gt;HITs/circle -->
<g id="edge6" class="edge"><title>theorems/ua&#45;&gt;HITs/circle</title>
<path fill="none" stroke="black" d="M573.67,-223.559C512.935,-210.754 404.597,-187.912 339.743,-174.238"/>
<polygon fill="black" stroke="black" points="340.228,-170.763 329.721,-172.125 338.784,-177.612 340.228,-170.763"/>
</g>
<!-- cubical/V -->
<g id="node23" class="node"><title>cubical/V</title>
<ellipse fill="none" stroke="black" stroke-dasharray="5,2" cx="618.445" cy="-90" rx="45.4919" ry="18"/>
<text text-anchor="middle" x="618.445" y="-86.3" font-family="Times New Roman,serif" font-size="14.00">cubical/V</text>
</g>
<!-- theorems/ua&#45;&gt;cubical/V -->
<g id="edge17" class="edge"><title>theorems/ua&#45;&gt;cubical/V</title>
<path fill="none" stroke="black" d="M618.445,-215.871C618.445,-191.67 618.445,-147.211 618.445,-118.393"/>
<polygon fill="black" stroke="black" points="621.945,-118.189 618.445,-108.189 614.945,-118.189 621.945,-118.189"/>
</g>
<!-- types/heq -->
<g id="node10" class="node"><title>types/heq</title>
<ellipse fill="none" stroke="black" cx="436.445" cy="-522" rx="46.2923" ry="18"/>
<text text-anchor="middle" x="436.445" y="-518.3" font-family="Times New Roman,serif" font-size="14.00">types/heq</text>
</g>
<!-- HITs/colimit -->
<g id="node11" class="node"><title>HITs/colimit</title>
<ellipse fill="none" stroke="black" cx="436.445" cy="-450" rx="56.59" ry="18"/>
<text text-anchor="middle" x="436.445" y="-446.3" font-family="Times New Roman,serif" font-size="14.00">HITs/colimit</text>
</g>
<!-- types/heq&#45;&gt;HITs/colimit -->
<g id="edge7" class="edge"><title>types/heq&#45;&gt;HITs/colimit</title>
<path fill="none" stroke="black" d="M436.445,-503.697C436.445,-495.983 436.445,-486.712 436.445,-478.112"/>
<polygon fill="black" stroke="black" points="439.945,-478.104 436.445,-468.104 432.945,-478.104 439.945,-478.104"/>
</g>
<!-- HITs/generalized -->
<g id="node12" class="node"><title>HITs/generalized</title>
<ellipse fill="none" stroke="black" cx="621.445" cy="-450" rx="72.2875" ry="18"/>
<text text-anchor="middle" x="621.445" y="-446.3" font-family="Times New Roman,serif" font-size="14.00">HITs/generalized</text>
</g>
<!-- types/heq&#45;&gt;HITs/generalized -->
<g id="edge8" class="edge"><title>types/heq&#45;&gt;HITs/generalized</title>
<path fill="none" stroke="black" d="M468.669,-508.807C497.784,-497.791 541.009,-481.435 574.059,-468.93"/>
<polygon fill="black" stroke="black" points="575.412,-472.16 583.526,-465.348 572.934,-465.613 575.412,-472.16"/>
</g>
<!-- HITs/int -->
<g id="node26" class="node"><title>HITs/int</title>
<ellipse fill="none" stroke="black" cx="321.445" cy="-450" rx="40.8928" ry="18"/>
<text text-anchor="middle" x="321.445" y="-446.3" font-family="Times New Roman,serif" font-size="14.00">HITs/int</text>
</g>
<!-- types/heq&#45;&gt;HITs/int -->
<g id="edge24" class="edge"><title>types/heq&#45;&gt;HITs/int</title>
<path fill="none" stroke="black" d="M412.617,-506.496C395.351,-495.986 371.831,-481.67 353.005,-470.211"/>
<polygon fill="black" stroke="black" points="354.819,-467.218 344.457,-465.008 351.18,-473.197 354.819,-467.218"/>
</g>
<!-- HITs/pushout -->
<g id="node29" class="node"><title>HITs/pushout</title>
<ellipse fill="none" stroke="black" cx="200.445" cy="-450" rx="61.99" ry="18"/>
<text text-anchor="middle" x="200.445" y="-446.3" font-family="Times New Roman,serif" font-size="14.00">HITs/pushout</text>
</g>
<!-- types/heq&#45;&gt;HITs/pushout -->
<g id="edge34" class="edge"><title>types/heq&#45;&gt;HITs/pushout</title>
<path fill="none" stroke="black" d="M400.858,-510.445C361.269,-498.702 296.962,-479.628 251.896,-466.261"/>
<polygon fill="black" stroke="black" points="252.887,-462.904 242.304,-463.416 250.896,-469.615 252.887,-462.904"/>
</g>
<!-- HITs/truncation -->
<g id="node32" class="node"><title>HITs/truncation</title>
<ellipse fill="none" stroke="black" cx="613.445" cy="-378" rx="68.4888" ry="18"/>
<text text-anchor="middle" x="613.445" y="-374.3" font-family="Times New Roman,serif" font-size="14.00">HITs/truncation</text>
</g>
<!-- HITs/colimit&#45;&gt;HITs/truncation -->
<g id="edge45" class="edge"><title>HITs/colimit&#45;&gt;HITs/truncation</title>
<path fill="none" stroke="black" d="M470.572,-435.503C498.219,-424.569 537.425,-409.064 567.776,-397.061"/>
<polygon fill="black" stroke="black" points="569.281,-400.23 577.293,-393.297 566.706,-393.72 569.281,-400.23"/>
</g>
<!-- HITs/interval -->
<g id="node28" class="node"><title>HITs/interval</title>
<ellipse fill="none" stroke="black" cx="757.445" cy="-378" rx="57.6901" ry="18"/>
<text text-anchor="middle" x="757.445" y="-374.3" font-family="Times New Roman,serif" font-size="14.00">HITs/interval</text>
</g>
<!-- HITs/generalized&#45;&gt;HITs/interval -->
<g id="edge26" class="edge"><title>HITs/generalized&#45;&gt;HITs/interval</title>
<path fill="none" stroke="black" d="M651.627,-433.465C671.669,-423.149 698.136,-409.526 719.587,-398.486"/>
<polygon fill="black" stroke="black" points="721.453,-401.461 728.743,-393.773 718.25,-395.238 721.453,-401.461"/>
</g>
<!-- HITs/generalized&#45;&gt;HITs/truncation -->
<g id="edge46" class="edge"><title>HITs/generalized&#45;&gt;HITs/truncation</title>
<path fill="none" stroke="black" d="M619.467,-431.697C618.586,-423.983 617.526,-414.712 616.543,-406.112"/>
<polygon fill="black" stroke="black" points="620.012,-405.642 615.399,-396.104 613.058,-406.437 620.012,-405.642"/>
</g>
<!-- HITs/infinitesimal -->
<g id="node13" class="node"><title>HITs/infinitesimal</title>
<ellipse fill="none" stroke="black" stroke-dasharray="5,2" cx="883.445" cy="-522" rx="74.9875" ry="18"/>
<text text-anchor="middle" x="883.445" y="-518.3" font-family="Times New Roman,serif" font-size="14.00">HITs/infinitesimal</text>
</g>
<!-- types/equiv -->
<g id="node14" class="node"><title>types/equiv</title>
<ellipse fill="none" stroke="black" cx="651.445" cy="-594" rx="51.9908" ry="18"/>
<text text-anchor="middle" x="651.445" y="-590.3" font-family="Times New Roman,serif" font-size="14.00">types/equiv</text>
</g>
<!-- types/equiv&#45;&gt;types/integers -->
<g id="edge20" class="edge"><title>types/equiv&#45;&gt;types/integers</title>
<path fill="none" stroke="black" d="M605.832,-585.148C551.965,-575.62 459.777,-558.519 381.445,-540 285.018,-517.204 173.878,-485.056 110.912,-466.285"/>
<polygon fill="black" stroke="black" points="111.813,-462.901 101.229,-463.391 109.808,-469.608 111.813,-462.901"/>
</g>
<!-- types/equiv&#45;&gt;types/heq -->
<g id="edge19" class="edge"><title>types/equiv&#45;&gt;types/heq</title>
<path fill="none" stroke="black" d="M614.973,-581.125C577.753,-569.007 519.97,-550.194 480.283,-537.273"/>
<polygon fill="black" stroke="black" points="481.199,-533.89 470.607,-534.123 479.032,-540.547 481.199,-533.89"/>
</g>
<!-- types/equiv&#45;&gt;HITs/infinitesimal -->
<g id="edge9" class="edge"><title>types/equiv&#45;&gt;HITs/infinitesimal</title>
<path fill="none" stroke="black" d="M689.236,-581.597C727.116,-570.168 785.823,-552.455 828.779,-539.494"/>
<polygon fill="black" stroke="black" points="829.95,-542.796 838.513,-536.557 827.928,-536.095 829.95,-542.796"/>
</g>
<!-- types/coproduct -->
<g id="node15" class="node"><title>types/coproduct</title>
<ellipse fill="none" stroke="black" cx="719.445" cy="-522" rx="70.6878" ry="18"/>
<text text-anchor="middle" x="719.445" y="-518.3" font-family="Times New Roman,serif" font-size="14.00">types/coproduct</text>
</g>
<!-- types/equiv&#45;&gt;types/coproduct -->
<g id="edge10" class="edge"><title>types/equiv&#45;&gt;types/coproduct</title>
<path fill="none" stroke="black" d="M667.216,-576.765C675.845,-567.882 686.698,-556.709 696.272,-546.854"/>
<polygon fill="black" stroke="black" points="698.829,-549.245 703.286,-539.633 693.808,-544.367 698.829,-549.245"/>
</g>
<!-- types/unit -->
<g id="node39" class="node"><title>types/unit</title>
<ellipse fill="none" stroke="black" cx="584.445" cy="-522" rx="46.2923" ry="18"/>
<text text-anchor="middle" x="584.445" y="-518.3" font-family="Times New Roman,serif" font-size="14.00">types/unit</text>
</g>
<!-- types/equiv&#45;&gt;types/unit -->
<g id="edge48" class="edge"><title>types/equiv&#45;&gt;types/unit</title>
<path fill="none" stroke="black" d="M635.905,-576.765C627.28,-567.753 616.399,-556.385 606.867,-546.426"/>
<polygon fill="black" stroke="black" points="609.343,-543.951 599.9,-539.147 604.286,-548.792 609.343,-543.951"/>
</g>
<!-- types/lost -->
<g id="node41" class="node"><title>types/lost</title>
<ellipse fill="none" stroke="black" cx="1022.44" cy="-522" rx="46.2923" ry="18"/>
<text text-anchor="middle" x="1022.44" y="-518.3" font-family="Times New Roman,serif" font-size="14.00">types/lost</text>
</g>
<!-- types/equiv&#45;&gt;types/lost -->
<g id="edge50" class="edge"><title>types/equiv&#45;&gt;types/lost</title>
<path fill="none" stroke="black" d="M699.489,-586.977C761.773,-578.706 873.539,-562.282 967.445,-540 971.061,-539.142 974.787,-538.174 978.515,-537.147"/>
<polygon fill="black" stroke="black" points="979.673,-540.456 988.313,-534.324 977.734,-533.73 979.673,-540.456"/>
</g>
<!-- structures -->
<g id="node27" class="node"><title>structures</title>
<ellipse fill="none" stroke="black" cx="757.445" cy="-450" rx="46.2923" ry="18"/>
<text text-anchor="middle" x="757.445" y="-446.3" font-family="Times New Roman,serif" font-size="14.00">structures</text>
</g>
<!-- types/coproduct&#45;&gt;structures -->
<g id="edge40" class="edge"><title>types/coproduct&#45;&gt;structures</title>
<path fill="none" stroke="black" d="M728.643,-504.055C733.078,-495.887 738.493,-485.912 743.426,-476.824"/>
<polygon fill="black" stroke="black" points="746.636,-478.247 748.331,-467.789 740.484,-474.908 746.636,-478.247"/>
</g>
<!-- types/nat -->
<g id="node40" class="node"><title>types/nat</title>
<ellipse fill="none" stroke="black" cx="865.445" cy="-450" rx="43.5923" ry="18"/>
<text text-anchor="middle" x="865.445" y="-446.3" font-family="Times New Roman,serif" font-size="14.00">types/nat</text>
</g>
<!-- types/coproduct&#45;&gt;types/nat -->
<g id="edge49" class="edge"><title>types/coproduct&#45;&gt;types/nat</title>
<path fill="none" stroke="black" d="M751.124,-505.811C773.928,-494.878 804.753,-480.099 828.649,-468.642"/>
<polygon fill="black" stroke="black" points="830.259,-471.751 837.763,-464.272 827.233,-465.439 830.259,-471.751"/>
</g>
<!-- types/dep_path&#45;&gt;types/equiv -->
<g id="edge21" class="edge"><title>types/dep_path&#45;&gt;types/equiv</title>
<path fill="none" stroke="black" d="M651.445,-647.697C651.445,-639.983 651.445,-630.712 651.445,-622.112"/>
<polygon fill="black" stroke="black" points="654.945,-622.104 651.445,-612.104 647.945,-622.104 654.945,-622.104"/>
</g>
<!-- cubical/Path -->
<g id="node17" class="node"><title>cubical/Path</title>
<ellipse fill="none" stroke="black" cx="900.445" cy="-162" rx="55.4913" ry="18"/>
<text text-anchor="middle" x="900.445" y="-158.3" font-family="Times New Roman,serif" font-size="14.00">cubical/Path</text>
</g>
<!-- cubical/connection -->
<g id="node18" class="node"><title>cubical/connection</title>
<ellipse fill="none" stroke="black" cx="1060.44" cy="-90" rx="79.0865" ry="18"/>
<text text-anchor="middle" x="1060.44" y="-86.3" font-family="Times New Roman,serif" font-size="14.00">cubical/connection</text>
</g>
<!-- cubical/Path&#45;&gt;cubical/connection -->
<g id="edge12" class="edge"><title>cubical/Path&#45;&gt;cubical/connection</title>
<path fill="none" stroke="black" d="M932.055,-147.17C956.064,-136.666 989.387,-122.088 1016.07,-110.415"/>
<polygon fill="black" stroke="black" points="1017.81,-113.474 1025.57,-106.259 1015,-107.061 1017.81,-113.474"/>
</g>
<!-- cubical/Square -->
<g id="node21" class="node"><title>cubical/Square</title>
<ellipse fill="none" stroke="black" cx="1222.44" cy="-90" rx="64.189" ry="18"/>
<text text-anchor="middle" x="1222.44" y="-86.3" font-family="Times New Roman,serif" font-size="14.00">cubical/Square</text>
</g>
<!-- cubical/Path&#45;&gt;cubical/Square -->
<g id="edge15" class="edge"><title>cubical/Path&#45;&gt;cubical/Square</title>
<path fill="none" stroke="black" d="M945.744,-151.536C995.498,-141.09 1077.74,-123.677 1148.44,-108 1153.75,-106.823 1159.27,-105.584 1164.8,-104.333"/>
<polygon fill="black" stroke="black" points="1165.73,-107.712 1174.7,-102.081 1164.17,-100.886 1165.73,-107.712"/>
</g>
<!-- cubical/example -->
<g id="node22" class="node"><title>cubical/example</title>
<ellipse fill="none" stroke="black" cx="750.445" cy="-90" rx="68.7879" ry="18"/>
<text text-anchor="middle" x="750.445" y="-86.3" font-family="Times New Roman,serif" font-size="14.00">cubical/example</text>
</g>
<!-- cubical/Path&#45;&gt;cubical/example -->
<g id="edge16" class="edge"><title>cubical/Path&#45;&gt;cubical/example</title>
<path fill="none" stroke="black" d="M870.09,-146.834C847.545,-136.314 816.538,-121.844 791.739,-110.271"/>
<polygon fill="black" stroke="black" points="793.111,-107.049 782.569,-105.991 790.15,-113.392 793.111,-107.049"/>
</g>
<!-- cubical/Path&#45;&gt;cubical/V -->
<g id="edge18" class="edge"><title>cubical/Path&#45;&gt;cubical/V</title>
<path fill="none" stroke="black" d="M855.198,-151.552C809.008,-141.658 735.364,-125.19 672.445,-108 669.071,-107.078 665.593,-106.085 662.103,-105.057"/>
<polygon fill="black" stroke="black" points="662.903,-101.642 652.318,-102.1 660.878,-108.343 662.903,-101.642"/>
</g>
<!-- HITs/moebius -->
<g id="node31" class="node"><title>HITs/moebius</title>
<ellipse fill="none" stroke="black" cx="900.445" cy="-90" rx="63.0888" ry="18"/>
<text text-anchor="middle" x="900.445" y="-86.3" font-family="Times New Roman,serif" font-size="14.00">HITs/moebius</text>
</g>
<!-- cubical/Path&#45;&gt;HITs/moebius -->
<g id="edge28" class="edge"><title>cubical/Path&#45;&gt;HITs/moebius</title>
<path fill="none" stroke="black" d="M900.445,-143.697C900.445,-135.983 900.445,-126.712 900.445,-118.112"/>
<polygon fill="black" stroke="black" points="903.945,-118.104 900.445,-108.104 896.945,-118.104 903.945,-118.104"/>
</g>
<!-- types/product -->
<g id="node19" class="node"><title>types/product</title>
<ellipse fill="none" stroke="black" cx="900.445" cy="-306" rx="61.99" ry="18"/>
<text text-anchor="middle" x="900.445" y="-302.3" font-family="Times New Roman,serif" font-size="14.00">types/product</text>
</g>
<!-- types/product&#45;&gt;theorems/ua -->
<g id="edge47" class="edge"><title>types/product&#45;&gt;theorems/ua</title>
<path fill="none" stroke="black" d="M855.136,-293.753C804.821,-281.264 723.723,-261.133 670.749,-247.983"/>
<polygon fill="black" stroke="black" points="671.421,-244.544 660.873,-245.532 669.735,-251.338 671.421,-244.544"/>
</g>
<!-- cubical/cubes -->
<g id="node20" class="node"><title>cubical/cubes</title>
<ellipse fill="none" stroke="black" cx="900.445" cy="-234" rx="60.3893" ry="18"/>
<text text-anchor="middle" x="900.445" y="-230.3" font-family="Times New Roman,serif" font-size="14.00">cubical/cubes</text>
</g>
<!-- types/product&#45;&gt;cubical/cubes -->
<g id="edge13" class="edge"><title>types/product&#45;&gt;cubical/cubes</title>
<path fill="none" stroke="black" d="M900.445,-287.697C900.445,-279.983 900.445,-270.712 900.445,-262.112"/>
<polygon fill="black" stroke="black" points="903.945,-262.104 900.445,-252.104 896.945,-262.104 903.945,-262.104"/>
</g>
<!-- cubical/cubes&#45;&gt;cubical/Path -->
<g id="edge14" class="edge"><title>cubical/cubes&#45;&gt;cubical/Path</title>
<path fill="none" stroke="black" d="M900.445,-215.697C900.445,-207.983 900.445,-198.712 900.445,-190.112"/>
<polygon fill="black" stroke="black" points="903.945,-190.104 900.445,-180.104 896.945,-190.104 903.945,-190.104"/>
</g>
<!-- support&#45;&gt;types/equiv -->
<g id="edge22" class="edge"><title>support&#45;&gt;types/equiv</title>
<path fill="none" stroke="black" d="M551.06,-651.669C569.546,-641.233 595.537,-626.561 616.44,-614.761"/>
<polygon fill="black" stroke="black" points="618.357,-617.698 625.345,-609.734 614.916,-611.602 618.357,-617.698"/>
</g>
<!-- theorems/functions -->
<g id="node25" class="node"><title>theorems/functions</title>
<ellipse fill="none" stroke="black" cx="816.445" cy="-666" rx="79.8859" ry="18"/>
<text text-anchor="middle" x="816.445" y="-662.3" font-family="Times New Roman,serif" font-size="14.00">theorems/functions</text>
</g>
<!-- theorems/functions&#45;&gt;types/equiv -->
<g id="edge23" class="edge"><title>theorems/functions&#45;&gt;types/equiv</title>
<path fill="none" stroke="black" d="M780.642,-649.811C754.613,-638.769 719.337,-623.803 692.223,-612.3"/>
<polygon fill="black" stroke="black" points="693.573,-609.071 683.001,-608.387 690.839,-615.515 693.573,-609.071"/>
</g>
<!-- HITs/rat -->
<g id="node36" class="node"><title>HITs/rat</title>
<ellipse fill="none" stroke="black" cx="321.445" cy="-378" rx="41.6928" ry="18"/>
<text text-anchor="middle" x="321.445" y="-374.3" font-family="Times New Roman,serif" font-size="14.00">HITs/rat</text>
</g>
<!-- HITs/int&#45;&gt;HITs/rat -->
<g id="edge35" class="edge"><title>HITs/int&#45;&gt;HITs/rat</title>
<path fill="none" stroke="black" d="M321.445,-431.697C321.445,-423.983 321.445,-414.712 321.445,-406.112"/>
<polygon fill="black" stroke="black" points="324.945,-406.104 321.445,-396.104 317.945,-406.104 324.945,-406.104"/>
</g>
<!-- structures&#45;&gt;HITs/interval -->
<g id="edge25" class="edge"><title>structures&#45;&gt;HITs/interval</title>
<path fill="none" stroke="black" d="M757.445,-431.697C757.445,-423.983 757.445,-414.712 757.445,-406.112"/>
<polygon fill="black" stroke="black" points="760.945,-406.104 757.445,-396.104 753.945,-406.104 760.945,-406.104"/>
</g>
<!-- structures&#45;&gt;HITs/truncation -->
<g id="edge44" class="edge"><title>structures&#45;&gt;HITs/truncation</title>
<path fill="none" stroke="black" d="M729.68,-435.503C708.179,-425.051 678.086,-410.423 653.906,-398.669"/>
<polygon fill="black" stroke="black" points="655.148,-395.381 644.624,-394.157 652.087,-401.676 655.148,-395.381"/>
</g>
<!-- HITs/interval&#45;&gt;types/product -->
<g id="edge31" class="edge"><title>HITs/interval&#45;&gt;types/product</title>
<path fill="none" stroke="black" d="M787.074,-362.496C808.596,-351.961 837.933,-337.6 861.371,-326.127"/>
<polygon fill="black" stroke="black" points="862.918,-329.267 870.361,-321.726 859.84,-322.979 862.918,-329.267"/>
</g>
<!-- theorems/prop -->
<g id="node35" class="node"><title>theorems/prop</title>
<ellipse fill="none" stroke="black" cx="757.445" cy="-306" rx="63.8893" ry="18"/>
<text text-anchor="middle" x="757.445" y="-302.3" font-family="Times New Roman,serif" font-size="14.00">theorems/prop</text>
</g>
<!-- HITs/interval&#45;&gt;theorems/prop -->
<g id="edge32" class="edge"><title>HITs/interval&#45;&gt;theorems/prop</title>
<path fill="none" stroke="black" d="M757.445,-359.697C757.445,-351.983 757.445,-342.712 757.445,-334.112"/>
<polygon fill="black" stroke="black" points="760.945,-334.104 757.445,-324.104 753.945,-334.104 760.945,-334.104"/>
</g>
<!-- HITs/pushout&#45;&gt;HITs/suspension -->
<g id="edge42" class="edge"><title>HITs/pushout&#45;&gt;HITs/suspension</title>
<path fill="none" stroke="black" d="M243.649,-437.046C285.856,-425.368 350.332,-407.529 396.664,-394.71"/>
<polygon fill="black" stroke="black" points="397.849,-398.014 406.554,-391.974 395.982,-391.267 397.849,-398.014"/>
</g>
<!-- HITs/join -->
<g id="node30" class="node"><title>HITs/join</title>
<ellipse fill="none" stroke="black" cx="216.445" cy="-378" rx="45.4919" ry="18"/>
<text text-anchor="middle" x="216.445" y="-374.3" font-family="Times New Roman,serif" font-size="14.00">HITs/join</text>
</g>
<!-- HITs/pushout&#45;&gt;HITs/join -->
<g id="edge27" class="edge"><title>HITs/pushout&#45;&gt;HITs/join</title>
<path fill="none" stroke="black" d="M204.4,-431.697C206.163,-423.983 208.282,-414.712 210.248,-406.112"/>
<polygon fill="black" stroke="black" points="213.719,-406.633 212.535,-396.104 206.895,-405.073 213.719,-406.633"/>
</g>
<!-- HITs/pushout&#45;&gt;HITs/reals -->
<g id="edge36" class="edge"><title>HITs/pushout&#45;&gt;HITs/reals</title>
<path fill="none" stroke="black" d="M178.661,-433.116C165.342,-423.405 148.14,-410.861 133.65,-400.296"/>
<polygon fill="black" stroke="black" points="135.625,-397.404 125.483,-394.34 131.501,-403.06 135.625,-397.404"/>
</g>
<!-- theorems/mere_eq_lemma -->
<g id="node33" class="node"><title>theorems/mere_eq_lemma</title>
<ellipse fill="none" stroke="black" cx="420.445" cy="-306" rx="105.881" ry="18"/>
<text text-anchor="middle" x="420.445" y="-302.3" font-family="Times New Roman,serif" font-size="14.00">theorems/mere_eq_lemma</text>
</g>
<!-- HITs/truncation&#45;&gt;theorems/mere_eq_lemma -->
<g id="edge29" class="edge"><title>HITs/truncation&#45;&gt;theorems/mere_eq_lemma</title>
<path fill="none" stroke="black" d="M574.852,-363.003C545.642,-352.409 505.2,-337.74 473.032,-326.073"/>
<polygon fill="black" stroke="black" points="473.931,-322.676 463.337,-322.557 471.544,-329.257 473.931,-322.676"/>
</g>
<!-- HITs/truncation&#45;&gt;theorems/prop -->
<g id="edge33" class="edge"><title>HITs/truncation&#45;&gt;theorems/prop</title>
<path fill="none" stroke="black" d="M644.69,-361.811C666.065,-351.421 694.584,-337.557 717.591,-326.373"/>
<polygon fill="black" stroke="black" points="719.291,-329.439 726.754,-321.919 716.231,-323.143 719.291,-329.439"/>
</g>
<!-- HITs/simplicial -->
<g id="node38" class="node"><title>HITs/simplicial</title>
<ellipse fill="none" stroke="black" cx="610.445" cy="-306" rx="65.7887" ry="18"/>
<text text-anchor="middle" x="610.445" y="-302.3" font-family="Times New Roman,serif" font-size="14.00">HITs/simplicial</text>
</g>
<!-- HITs/truncation&#45;&gt;HITs/simplicial -->
<g id="edge38" class="edge"><title>HITs/truncation&#45;&gt;HITs/simplicial</title>
<path fill="none" stroke="black" d="M612.703,-359.697C612.372,-351.983 611.975,-342.712 611.607,-334.112"/>
<polygon fill="black" stroke="black" points="615.103,-333.945 611.178,-324.104 608.109,-334.245 615.103,-333.945"/>
</g>
<!-- theorems/topology -->
<g id="node34" class="node"><title>theorems/topology</title>
<ellipse fill="none" stroke="black" cx="819.445" cy="-810" rx="79.0865" ry="18"/>
<text text-anchor="middle" x="819.445" y="-806.3" font-family="Times New Roman,serif" font-size="14.00">theorems/topology</text>
</g>
<!-- types/unit&#45;&gt;HITs/suspension -->
<g id="edge43" class="edge"><title>types/unit&#45;&gt;HITs/suspension</title>
<path fill="none" stroke="black" d="M569.639,-504.914C553.224,-487.083 525.956,-457.475 502.445,-432 493.768,-422.599 484.218,-412.266 475.872,-403.241"/>
<polygon fill="black" stroke="black" points="478.26,-400.667 468.9,-395.702 473.121,-405.42 478.26,-400.667"/>
</g>
<!-- types/unit&#45;&gt;structures -->
<g id="edge39" class="edge"><title>types/unit&#45;&gt;structures</title>
<path fill="none" stroke="black" d="M615.374,-508.485C643.7,-497.024 685.815,-479.983 716.84,-467.43"/>
<polygon fill="black" stroke="black" points="718.535,-470.519 726.492,-463.524 715.91,-464.03 718.535,-470.519"/>
</g>
<!-- types/sigma -->
<g id="node42" class="node"><title>types/sigma</title>
<ellipse fill="none" stroke="black" cx="970.445" cy="-810" rx="53.8905" ry="18"/>
<text text-anchor="middle" x="970.445" y="-806.3" font-family="Times New Roman,serif" font-size="14.00">types/sigma</text>
</g>
</g>
</svg>
