<?xml version="1.0" encoding="UTF-8" standalone="no"?>
<!DOCTYPE svg PUBLIC "-//W3C//DTD SVG 1.1//EN"
 "http://www.w3.org/Graphics/SVG/1.1/DTD/svg11.dtd">
<!-- Generated by graphviz version 2.38.0 (20140413.2041)
 -->
<!-- Title: dependency_map Pages: 1 -->
<svg width="1022pt" height="908pt"
 viewBox="0.00 0.00 1021.82 908.00" xmlns="http://www.w3.org/2000/svg" xmlns:xlink="http://www.w3.org/1999/xlink">
<g id="graph0" class="graph" transform="scale(1 1) rotate(0) translate(4 904)">
<title>dependency_map</title>
<polygon fill="white" stroke="none" points="-4,4 -4,-904 1017.82,-904 1017.82,4 -4,4"/>
<!-- proto -->
<g id="node1" class="node"><title>proto</title>
<ellipse fill="none" stroke="black" cx="432.278" cy="-882" rx="30.5947" ry="18"/>
<text text-anchor="middle" x="432.278" y="-878.3" font-family="Times New Roman,serif" font-size="14.00">proto</text>
</g>
<!-- types/eq -->
<g id="node2" class="node"><title>types/eq</title>
<ellipse fill="none" stroke="black" cx="492.278" cy="-810" rx="41.6928" ry="18"/>
<text text-anchor="middle" x="492.278" y="-806.3" font-family="Times New Roman,serif" font-size="14.00">types/eq</text>
</g>
<!-- proto&#45;&gt;types/eq -->
<g id="edge1" class="edge"><title>proto&#45;&gt;types/eq</title>
<path fill="none" stroke="black" d="M445.593,-865.465C453.221,-856.566 462.959,-845.205 471.565,-835.164"/>
<polygon fill="black" stroke="black" points="474.312,-837.338 478.163,-827.467 468.997,-832.782 474.312,-837.338"/>
</g>
<!-- types/dep_path -->
<g id="node16" class="node"><title>types/dep_path</title>
<ellipse fill="none" stroke="black" cx="430.278" cy="-738" rx="66.8882" ry="18"/>
<text text-anchor="middle" x="430.278" y="-734.3" font-family="Times New Roman,serif" font-size="14.00">types/dep_path</text>
</g>
<!-- types/eq&#45;&gt;types/dep_path -->
<g id="edge11" class="edge"><title>types/eq&#45;&gt;types/dep_path</title>
<path fill="none" stroke="black" d="M477.898,-792.765C470.107,-783.969 460.328,-772.928 451.662,-763.144"/>
<polygon fill="black" stroke="black" points="454.26,-760.799 445.01,-755.633 449.02,-765.44 454.26,-760.799"/>
</g>
<!-- support -->
<g id="node24" class="node"><title>support</title>
<ellipse fill="none" stroke="black" cx="554.278" cy="-738" rx="38.9931" ry="18"/>
<text text-anchor="middle" x="554.278" y="-734.3" font-family="Times New Roman,serif" font-size="14.00">support</text>
</g>
<!-- types/eq&#45;&gt;support -->
<g id="edge38" class="edge"><title>types/eq&#45;&gt;support</title>
<path fill="none" stroke="black" d="M506.657,-792.765C514.561,-783.841 524.511,-772.608 533.269,-762.719"/>
<polygon fill="black" stroke="black" points="535.965,-764.954 539.976,-755.147 530.725,-760.313 535.965,-764.954"/>
</g>
<!-- meta/hott_theory -->
<g id="node3" class="node"><title>meta/hott_theory</title>
<ellipse fill="none" stroke="black" cx="553.278" cy="-882" rx="72.2875" ry="18"/>
<text text-anchor="middle" x="553.278" y="-878.3" font-family="Times New Roman,serif" font-size="14.00">meta/hott_theory</text>
</g>
<!-- meta/hott_theory&#45;&gt;types/eq -->
<g id="edge2" class="edge"><title>meta/hott_theory&#45;&gt;types/eq</title>
<path fill="none" stroke="black" d="M538.511,-864.055C530.908,-855.33 521.509,-844.544 513.175,-834.981"/>
<polygon fill="black" stroke="black" points="515.696,-832.547 506.488,-827.307 510.419,-837.146 515.696,-832.547"/>
</g>
<!-- algebra -->
<g id="node4" class="node"><title>algebra</title>
<ellipse fill="none" stroke="black" stroke-dasharray="5,2" cx="67.2776" cy="-18" rx="36.2938" ry="18"/>
<text text-anchor="middle" x="67.2776" y="-14.3" font-family="Times New Roman,serif" font-size="14.00">algebra</text>
</g>
<!-- HITs/ntrunc -->
<g id="node5" class="node"><title>HITs/ntrunc</title>
<ellipse fill="none" stroke="black" stroke-dasharray="5,2" cx="67.2776" cy="-90" rx="55.4913" ry="18"/>
<text text-anchor="middle" x="67.2776" y="-86.3" font-family="Times New Roman,serif" font-size="14.00">HITs/ntrunc</text>
</g>
<!-- HITs/ntrunc&#45;&gt;algebra -->
<g id="edge3" class="edge"><title>HITs/ntrunc&#45;&gt;algebra</title>
<path fill="none" stroke="black" d="M67.2776,-71.6966C67.2776,-63.9827 67.2776,-54.7125 67.2776,-46.1124"/>
<polygon fill="black" stroke="black" points="70.7777,-46.1043 67.2776,-36.1043 63.7777,-46.1044 70.7777,-46.1043"/>
</g>
<!-- HITs/circle -->
<g id="node6" class="node"><title>HITs/circle</title>
<ellipse fill="none" stroke="black" stroke-dasharray="5,2" cx="76.2776" cy="-162" rx="51.9908" ry="18"/>
<text text-anchor="middle" x="76.2776" y="-158.3" font-family="Times New Roman,serif" font-size="14.00">HITs/circle</text>
</g>
<!-- HITs/circle&#45;&gt;HITs/ntrunc -->
<g id="edge29" class="edge"><title>HITs/circle&#45;&gt;HITs/ntrunc</title>
<path fill="none" stroke="black" d="M74.0528,-143.697C73.061,-135.983 71.8692,-126.712 70.7634,-118.112"/>
<polygon fill="black" stroke="black" points="74.2234,-117.576 69.4767,-108.104 67.2806,-118.469 74.2234,-117.576"/>
</g>
<!-- types/integers -->
<g id="node7" class="node"><title>types/integers</title>
<ellipse fill="none" stroke="black" cx="77.2776" cy="-522" rx="60.3893" ry="18"/>
<text text-anchor="middle" x="77.2776" y="-518.3" font-family="Times New Roman,serif" font-size="14.00">types/integers</text>
</g>
<!-- types/integers&#45;&gt;HITs/circle -->
<g id="edge4" class="edge"><title>types/integers&#45;&gt;HITs/circle</title>
<path fill="none" stroke="black" d="M53.9179,-505.19C41.782,-495.776 27.755,-482.794 19.2776,-468 -0.832663,-432.907 0.277554,-419.447 0.277554,-379 0.277554,-379 0.277554,-379 0.277554,-305 0.277554,-259.134 31.4799,-213.746 53.8989,-187.054"/>
<polygon fill="black" stroke="black" points="56.6334,-189.243 60.5303,-179.391 51.34,-184.662 56.6334,-189.243"/>
</g>
<!-- HITs/reals -->
<g id="node35" class="node"><title>HITs/reals</title>
<ellipse fill="none" stroke="black" cx="77.2776" cy="-450" rx="48.9926" ry="18"/>
<text text-anchor="middle" x="77.2776" y="-446.3" font-family="Times New Roman,serif" font-size="14.00">HITs/reals</text>
</g>
<!-- types/integers&#45;&gt;HITs/reals -->
<g id="edge35" class="edge"><title>types/integers&#45;&gt;HITs/reals</title>
<path fill="none" stroke="black" d="M77.2776,-503.697C77.2776,-495.983 77.2776,-486.712 77.2776,-478.112"/>
<polygon fill="black" stroke="black" points="80.7777,-478.104 77.2776,-468.104 73.7777,-478.104 80.7777,-478.104"/>
</g>
<!-- HITs/suspension -->
<g id="node8" class="node"><title>HITs/suspension</title>
<ellipse fill="none" stroke="black" cx="217.278" cy="-450" rx="72.5877" ry="18"/>
<text text-anchor="middle" x="217.278" y="-446.3" font-family="Times New Roman,serif" font-size="14.00">HITs/suspension</text>
</g>
<!-- HITs/suspension&#45;&gt;HITs/circle -->
<g id="edge5" class="edge"><title>HITs/suspension&#45;&gt;HITs/circle</title>
<path fill="none" stroke="black" d="M208.88,-431.966C185.173,-383.88 117.615,-246.849 89.1612,-189.133"/>
<polygon fill="black" stroke="black" points="92.1927,-187.366 84.6315,-179.945 85.9142,-190.462 92.1927,-187.366"/>
</g>
<!-- theorems/ua -->
<g id="node9" class="node"><title>theorems/ua</title>
<ellipse fill="none" stroke="black" stroke-dasharray="5,2" cx="186.278" cy="-234" rx="54.6905" ry="18"/>
<text text-anchor="middle" x="186.278" y="-230.3" font-family="Times New Roman,serif" font-size="14.00">theorems/ua</text>
</g>
<!-- theorems/ua&#45;&gt;HITs/circle -->
<g id="edge6" class="edge"><title>theorems/ua&#45;&gt;HITs/circle</title>
<path fill="none" stroke="black" d="M162.409,-217.811C146.697,-207.813 125.931,-194.598 108.726,-183.649"/>
<polygon fill="black" stroke="black" points="110.415,-180.575 100.099,-178.159 106.657,-186.481 110.415,-180.575"/>
</g>
<!-- cubical/V -->
<g id="node23" class="node"><title>cubical/V</title>
<ellipse fill="none" stroke="black" stroke-dasharray="5,2" cx="186.278" cy="-90" rx="45.4919" ry="18"/>
<text text-anchor="middle" x="186.278" y="-86.3" font-family="Times New Roman,serif" font-size="14.00">cubical/V</text>
</g>
<!-- theorems/ua&#45;&gt;cubical/V -->
<g id="edge17" class="edge"><title>theorems/ua&#45;&gt;cubical/V</title>
<path fill="none" stroke="black" d="M186.278,-215.871C186.278,-191.67 186.278,-147.211 186.278,-118.393"/>
<polygon fill="black" stroke="black" points="189.778,-118.189 186.278,-108.189 182.778,-118.189 189.778,-118.189"/>
</g>
<!-- types/heq -->
<g id="node10" class="node"><title>types/heq</title>
<ellipse fill="none" stroke="black" cx="487.278" cy="-594" rx="46.2923" ry="18"/>
<text text-anchor="middle" x="487.278" y="-590.3" font-family="Times New Roman,serif" font-size="14.00">types/heq</text>
</g>
<!-- HITs/colimit -->
<g id="node11" class="node"><title>HITs/colimit</title>
<ellipse fill="none" stroke="black" cx="590.278" cy="-522" rx="56.59" ry="18"/>
<text text-anchor="middle" x="590.278" y="-518.3" font-family="Times New Roman,serif" font-size="14.00">HITs/colimit</text>
</g>
<!-- types/heq&#45;&gt;HITs/colimit -->
<g id="edge7" class="edge"><title>types/heq&#45;&gt;HITs/colimit</title>
<path fill="none" stroke="black" d="M509.374,-577.983C523.837,-568.154 542.954,-555.161 558.974,-544.274"/>
<polygon fill="black" stroke="black" points="561.202,-546.992 567.505,-538.476 557.267,-541.202 561.202,-546.992"/>
</g>
<!-- HITs/generalized -->
<g id="node12" class="node"><title>HITs/generalized</title>
<ellipse fill="none" stroke="black" cx="737.278" cy="-522" rx="72.2875" ry="18"/>
<text text-anchor="middle" x="737.278" y="-518.3" font-family="Times New Roman,serif" font-size="14.00">HITs/generalized</text>
</g>
<!-- types/heq&#45;&gt;HITs/generalized -->
<g id="edge8" class="edge"><title>types/heq&#45;&gt;HITs/generalized</title>
<path fill="none" stroke="black" d="M522.138,-582.027C528.811,-579.983 535.751,-577.895 542.278,-576 588.204,-562.665 640.512,-548.504 679.382,-538.177"/>
<polygon fill="black" stroke="black" points="680.697,-541.449 689.467,-535.504 678.904,-534.683 680.697,-541.449"/>
</g>
<!-- HITs/int -->
<g id="node26" class="node"><title>HITs/int</title>
<ellipse fill="none" stroke="black" cx="868.278" cy="-522" rx="40.8928" ry="18"/>
<text text-anchor="middle" x="868.278" y="-518.3" font-family="Times New Roman,serif" font-size="14.00">HITs/int</text>
</g>
<!-- types/heq&#45;&gt;HITs/int -->
<g id="edge24" class="edge"><title>types/heq&#45;&gt;HITs/int</title>
<path fill="none" stroke="black" d="M521.071,-581.567C528.027,-579.493 535.345,-577.512 542.278,-576 663.142,-549.639 697.793,-568.048 818.278,-540 821.639,-539.218 825.093,-538.298 828.539,-537.298"/>
<polygon fill="black" stroke="black" points="829.636,-540.622 838.149,-534.315 827.561,-533.936 829.636,-540.622"/>
</g>
<!-- HITs/trunc -->
<g id="node27" class="node"><title>HITs/trunc</title>
<ellipse fill="none" stroke="black" cx="467.278" cy="-450" rx="50.8918" ry="18"/>
<text text-anchor="middle" x="467.278" y="-446.3" font-family="Times New Roman,serif" font-size="14.00">HITs/trunc</text>
</g>
<!-- types/heq&#45;&gt;HITs/trunc -->
<g id="edge42" class="edge"><title>types/heq&#45;&gt;HITs/trunc</title>
<path fill="none" stroke="black" d="M457.606,-579.895C441.632,-571.11 423.382,-557.86 414.278,-540 407.011,-525.745 408.155,-518.782 414.278,-504 419.18,-492.166 428.148,-481.596 437.331,-473.068"/>
<polygon fill="black" stroke="black" points="439.753,-475.601 445.011,-466.402 435.164,-470.314 439.753,-475.601"/>
</g>
<!-- HITs/pushout -->
<g id="node29" class="node"><title>HITs/pushout</title>
<ellipse fill="none" stroke="black" cx="305.278" cy="-522" rx="61.99" ry="18"/>
<text text-anchor="middle" x="305.278" y="-518.3" font-family="Times New Roman,serif" font-size="14.00">HITs/pushout</text>
</g>
<!-- types/heq&#45;&gt;HITs/pushout -->
<g id="edge32" class="edge"><title>types/heq&#45;&gt;HITs/pushout</title>
<path fill="none" stroke="black" d="M455.576,-580.807C426.47,-569.612 383.029,-552.904 350.324,-540.326"/>
<polygon fill="black" stroke="black" points="351.567,-537.054 340.977,-536.731 349.054,-543.587 351.567,-537.054"/>
</g>
<!-- HITs/truncation -->
<g id="node38" class="node"><title>HITs/truncation</title>
<ellipse fill="none" stroke="black" cx="604.278" cy="-450" rx="68.4888" ry="18"/>
<text text-anchor="middle" x="604.278" y="-446.3" font-family="Times New Roman,serif" font-size="14.00">HITs/truncation</text>
</g>
<!-- HITs/colimit&#45;&gt;HITs/truncation -->
<g id="edge44" class="edge"><title>HITs/colimit&#45;&gt;HITs/truncation</title>
<path fill="none" stroke="black" d="M593.738,-503.697C595.281,-495.983 597.135,-486.712 598.855,-478.112"/>
<polygon fill="black" stroke="black" points="602.327,-478.597 600.857,-468.104 595.463,-477.224 602.327,-478.597"/>
</g>
<!-- HITs/generalized&#45;&gt;HITs/truncation -->
<g id="edge45" class="edge"><title>HITs/generalized&#45;&gt;HITs/truncation</title>
<path fill="none" stroke="black" d="M707.761,-505.465C688.561,-495.36 663.332,-482.081 642.591,-471.165"/>
<polygon fill="black" stroke="black" points="644.191,-468.052 633.712,-466.492 640.931,-474.247 644.191,-468.052"/>
</g>
<!-- HITs/infinitesimal -->
<g id="node13" class="node"><title>HITs/infinitesimal</title>
<ellipse fill="none" stroke="black" stroke-dasharray="5,2" cx="786.278" cy="-594" rx="74.9875" ry="18"/>
<text text-anchor="middle" x="786.278" y="-590.3" font-family="Times New Roman,serif" font-size="14.00">HITs/infinitesimal</text>
</g>
<!-- types/equiv -->
<g id="node14" class="node"><title>types/equiv</title>
<ellipse fill="none" stroke="black" cx="554.278" cy="-666" rx="51.9908" ry="18"/>
<text text-anchor="middle" x="554.278" y="-662.3" font-family="Times New Roman,serif" font-size="14.00">types/equiv</text>
</g>
<!-- types/equiv&#45;&gt;types/integers -->
<g id="edge20" class="edge"><title>types/equiv&#45;&gt;types/integers</title>
<path fill="none" stroke="black" d="M509.813,-656.548C462.799,-647.215 386.678,-630.974 322.278,-612 250.598,-590.881 169.456,-559.978 120.881,-540.7"/>
<polygon fill="black" stroke="black" points="121.904,-537.34 111.319,-536.887 119.312,-543.842 121.904,-537.34"/>
</g>
<!-- types/equiv&#45;&gt;types/heq -->
<g id="edge19" class="edge"><title>types/equiv&#45;&gt;types/heq</title>
<path fill="none" stroke="black" d="M538.738,-648.765C530.113,-639.753 519.232,-628.385 509.7,-618.426"/>
<polygon fill="black" stroke="black" points="512.176,-615.951 502.733,-611.147 507.119,-620.792 512.176,-615.951"/>
</g>
<!-- types/equiv&#45;&gt;HITs/infinitesimal -->
<g id="edge9" class="edge"><title>types/equiv&#45;&gt;HITs/infinitesimal</title>
<path fill="none" stroke="black" d="M592.069,-653.597C629.949,-642.168 688.656,-624.455 731.612,-611.494"/>
<polygon fill="black" stroke="black" points="732.783,-614.796 741.346,-608.557 730.761,-608.095 732.783,-614.796"/>
</g>
<!-- types/coproduct -->
<g id="node15" class="node"><title>types/coproduct</title>
<ellipse fill="none" stroke="black" cx="622.278" cy="-594" rx="70.6878" ry="18"/>
<text text-anchor="middle" x="622.278" y="-590.3" font-family="Times New Roman,serif" font-size="14.00">types/coproduct</text>
</g>
<!-- types/equiv&#45;&gt;types/coproduct -->
<g id="edge10" class="edge"><title>types/equiv&#45;&gt;types/coproduct</title>
<path fill="none" stroke="black" d="M570.049,-648.765C578.678,-639.882 589.531,-628.709 599.105,-618.854"/>
<polygon fill="black" stroke="black" points="601.662,-621.245 606.119,-611.633 596.641,-616.367 601.662,-621.245"/>
</g>
<!-- types/unit -->
<g id="node36" class="node"><title>types/unit</title>
<ellipse fill="none" stroke="black" cx="377.278" cy="-594" rx="46.2923" ry="18"/>
<text text-anchor="middle" x="377.278" y="-590.3" font-family="Times New Roman,serif" font-size="14.00">types/unit</text>
</g>
<!-- types/equiv&#45;&gt;types/unit -->
<g id="edge47" class="edge"><title>types/equiv&#45;&gt;types/unit</title>
<path fill="none" stroke="black" d="M521.4,-651.998C492.136,-640.424 449.225,-623.454 417.838,-611.041"/>
<polygon fill="black" stroke="black" points="419.081,-607.769 408.494,-607.346 416.506,-614.278 419.081,-607.769"/>
</g>
<!-- types/lost -->
<g id="node40" class="node"><title>types/lost</title>
<ellipse fill="none" stroke="black" cx="925.278" cy="-594" rx="46.2923" ry="18"/>
<text text-anchor="middle" x="925.278" y="-590.3" font-family="Times New Roman,serif" font-size="14.00">types/lost</text>
</g>
<!-- types/equiv&#45;&gt;types/lost -->
<g id="edge49" class="edge"><title>types/equiv&#45;&gt;types/lost</title>
<path fill="none" stroke="black" d="M602.322,-658.977C664.606,-650.706 776.371,-634.282 870.278,-612 873.894,-611.142 877.62,-610.174 881.348,-609.147"/>
<polygon fill="black" stroke="black" points="882.506,-612.456 891.146,-606.324 880.567,-605.73 882.506,-612.456"/>
</g>
<!-- structures -->
<g id="node37" class="node"><title>structures</title>
<ellipse fill="none" stroke="black" cx="469.278" cy="-522" rx="46.2923" ry="18"/>
<text text-anchor="middle" x="469.278" y="-518.3" font-family="Times New Roman,serif" font-size="14.00">structures</text>
</g>
<!-- types/coproduct&#45;&gt;structures -->
<g id="edge37" class="edge"><title>types/coproduct&#45;&gt;structures</title>
<path fill="none" stroke="black" d="M589.455,-577.983C565.397,-566.976 532.671,-552.004 507.445,-540.462"/>
<polygon fill="black" stroke="black" points="508.727,-537.2 498.177,-536.222 505.815,-543.565 508.727,-537.2"/>
</g>
<!-- types/nat -->
<g id="node39" class="node"><title>types/nat</title>
<ellipse fill="none" stroke="black" cx="970.278" cy="-522" rx="43.5923" ry="18"/>
<text text-anchor="middle" x="970.278" y="-518.3" font-family="Times New Roman,serif" font-size="14.00">types/nat</text>
</g>
<!-- types/coproduct&#45;&gt;types/nat -->
<g id="edge48" class="edge"><title>types/coproduct&#45;&gt;types/nat</title>
<path fill="none" stroke="black" d="M674.281,-581.601C683.589,-579.66 693.21,-577.718 702.278,-576 797.9,-557.881 823.756,-563.187 918.278,-540 921.655,-539.172 925.129,-538.232 928.604,-537.231"/>
<polygon fill="black" stroke="black" points="929.765,-540.537 938.319,-534.285 927.734,-533.838 929.765,-540.537"/>
</g>
<!-- types/dep_path&#45;&gt;types/equiv -->
<g id="edge21" class="edge"><title>types/dep_path&#45;&gt;types/equiv</title>
<path fill="none" stroke="black" d="M457.797,-721.465C475.906,-711.242 499.77,-697.771 519.233,-686.783"/>
<polygon fill="black" stroke="black" points="521.121,-689.737 528.108,-681.773 517.679,-683.641 521.121,-689.737"/>
</g>
<!-- cubical/Path -->
<g id="node17" class="node"><title>cubical/Path</title>
<ellipse fill="none" stroke="black" cx="410.278" cy="-162" rx="55.4913" ry="18"/>
<text text-anchor="middle" x="410.278" y="-158.3" font-family="Times New Roman,serif" font-size="14.00">cubical/Path</text>
</g>
<!-- cubical/connection -->
<g id="node18" class="node"><title>cubical/connection</title>
<ellipse fill="none" stroke="black" cx="329.278" cy="-90" rx="79.0865" ry="18"/>
<text text-anchor="middle" x="329.278" y="-86.3" font-family="Times New Roman,serif" font-size="14.00">cubical/connection</text>
</g>
<!-- cubical/Path&#45;&gt;cubical/connection -->
<g id="edge12" class="edge"><title>cubical/Path&#45;&gt;cubical/connection</title>
<path fill="none" stroke="black" d="M391.491,-144.765C381.011,-135.708 367.776,-124.27 356.211,-114.276"/>
<polygon fill="black" stroke="black" points="358.379,-111.524 348.525,-107.633 353.802,-116.82 358.379,-111.524"/>
</g>
<!-- cubical/Square -->
<g id="node21" class="node"><title>cubical/Square</title>
<ellipse fill="none" stroke="black" cx="491.278" cy="-90" rx="64.189" ry="18"/>
<text text-anchor="middle" x="491.278" y="-86.3" font-family="Times New Roman,serif" font-size="14.00">cubical/Square</text>
</g>
<!-- cubical/Path&#45;&gt;cubical/Square -->
<g id="edge15" class="edge"><title>cubical/Path&#45;&gt;cubical/Square</title>
<path fill="none" stroke="black" d="M429.064,-144.765C439.62,-135.642 452.971,-124.105 464.596,-114.059"/>
<polygon fill="black" stroke="black" points="467.035,-116.577 472.312,-107.39 462.458,-111.28 467.035,-116.577"/>
</g>
<!-- cubical/example -->
<g id="node22" class="node"><title>cubical/example</title>
<ellipse fill="none" stroke="black" cx="642.278" cy="-90" rx="68.7879" ry="18"/>
<text text-anchor="middle" x="642.278" y="-86.3" font-family="Times New Roman,serif" font-size="14.00">cubical/example</text>
</g>
<!-- cubical/Path&#45;&gt;cubical/example -->
<g id="edge16" class="edge"><title>cubical/Path&#45;&gt;cubical/example</title>
<path fill="none" stroke="black" d="M449.371,-149.205C487.828,-137.601 546.811,-119.805 589.432,-106.945"/>
<polygon fill="black" stroke="black" points="590.514,-110.274 599.076,-104.035 588.491,-103.573 590.514,-110.274"/>
</g>
<!-- cubical/Path&#45;&gt;cubical/V -->
<g id="edge18" class="edge"><title>cubical/Path&#45;&gt;cubical/V</title>
<path fill="none" stroke="black" d="M371.771,-148.967C332.596,-136.724 271.944,-117.771 230.746,-104.896"/>
<polygon fill="black" stroke="black" points="231.564,-101.485 220.975,-101.843 229.476,-108.167 231.564,-101.485"/>
</g>
<!-- HITs/moebius -->
<g id="node31" class="node"><title>HITs/moebius</title>
<ellipse fill="none" stroke="black" cx="792.278" cy="-90" rx="63.0888" ry="18"/>
<text text-anchor="middle" x="792.278" y="-86.3" font-family="Times New Roman,serif" font-size="14.00">HITs/moebius</text>
</g>
<!-- cubical/Path&#45;&gt;HITs/moebius -->
<g id="edge27" class="edge"><title>cubical/Path&#45;&gt;HITs/moebius</title>
<path fill="none" stroke="black" d="M459.313,-153.587C520.574,-144.103 628.516,-126.658 720.278,-108 725.548,-106.928 731.021,-105.752 736.488,-104.535"/>
<polygon fill="black" stroke="black" points="737.303,-107.939 746.28,-102.312 735.754,-101.113 737.303,-107.939"/>
</g>
<!-- types/product -->
<g id="node19" class="node"><title>types/product</title>
<ellipse fill="none" stroke="black" cx="233.278" cy="-306" rx="61.99" ry="18"/>
<text text-anchor="middle" x="233.278" y="-302.3" font-family="Times New Roman,serif" font-size="14.00">types/product</text>
</g>
<!-- types/product&#45;&gt;theorems/ua -->
<g id="edge46" class="edge"><title>types/product&#45;&gt;theorems/ua</title>
<path fill="none" stroke="black" d="M221.9,-288.055C216.3,-279.715 209.436,-269.491 203.232,-260.252"/>
<polygon fill="black" stroke="black" points="206.03,-258.14 197.55,-251.789 200.219,-262.042 206.03,-258.14"/>
</g>
<!-- cubical/cubes -->
<g id="node20" class="node"><title>cubical/cubes</title>
<ellipse fill="none" stroke="black" cx="365.278" cy="-234" rx="60.3893" ry="18"/>
<text text-anchor="middle" x="365.278" y="-230.3" font-family="Times New Roman,serif" font-size="14.00">cubical/cubes</text>
</g>
<!-- types/product&#45;&gt;cubical/cubes -->
<g id="edge13" class="edge"><title>types/product&#45;&gt;cubical/cubes</title>
<path fill="none" stroke="black" d="M261.595,-289.983C280.996,-279.695 306.929,-265.942 328.006,-254.765"/>
<polygon fill="black" stroke="black" points="329.812,-257.769 337.007,-249.992 326.533,-251.585 329.812,-257.769"/>
</g>
<!-- cubical/cubes&#45;&gt;cubical/Path -->
<g id="edge14" class="edge"><title>cubical/cubes&#45;&gt;cubical/Path</title>
<path fill="none" stroke="black" d="M376.171,-216.055C381.532,-207.715 388.105,-197.491 394.044,-188.252"/>
<polygon fill="black" stroke="black" points="397.021,-190.093 399.485,-179.789 391.133,-186.308 397.021,-190.093"/>
</g>
<!-- support&#45;&gt;types/equiv -->
<g id="edge22" class="edge"><title>support&#45;&gt;types/equiv</title>
<path fill="none" stroke="black" d="M554.278,-719.697C554.278,-711.983 554.278,-702.712 554.278,-694.112"/>
<polygon fill="black" stroke="black" points="557.778,-694.104 554.278,-684.104 550.778,-694.104 557.778,-694.104"/>
</g>
<!-- theorems/functions -->
<g id="node25" class="node"><title>theorems/functions</title>
<ellipse fill="none" stroke="black" cx="691.278" cy="-738" rx="79.8859" ry="18"/>
<text text-anchor="middle" x="691.278" y="-734.3" font-family="Times New Roman,serif" font-size="14.00">theorems/functions</text>
</g>
<!-- theorems/functions&#45;&gt;types/equiv -->
<g id="edge23" class="edge"><title>theorems/functions&#45;&gt;types/equiv</title>
<path fill="none" stroke="black" d="M660.532,-721.291C639.961,-710.78 612.784,-696.894 591.065,-685.797"/>
<polygon fill="black" stroke="black" points="592.624,-682.663 582.127,-681.229 589.439,-688.896 592.624,-682.663"/>
</g>
<!-- HITs/rat -->
<g id="node34" class="node"><title>HITs/rat</title>
<ellipse fill="none" stroke="black" cx="868.278" cy="-450" rx="41.6928" ry="18"/>
<text text-anchor="middle" x="868.278" y="-446.3" font-family="Times New Roman,serif" font-size="14.00">HITs/rat</text>
</g>
<!-- HITs/int&#45;&gt;HITs/rat -->
<g id="edge33" class="edge"><title>HITs/int&#45;&gt;HITs/rat</title>
<path fill="none" stroke="black" d="M868.278,-503.697C868.278,-495.983 868.278,-486.712 868.278,-478.112"/>
<polygon fill="black" stroke="black" points="871.778,-478.104 868.278,-468.104 864.778,-478.104 871.778,-478.104"/>
</g>
<!-- HITs/interval -->
<g id="node28" class="node"><title>HITs/interval</title>
<ellipse fill="none" stroke="black" cx="346.278" cy="-378" rx="57.6901" ry="18"/>
<text text-anchor="middle" x="346.278" y="-374.3" font-family="Times New Roman,serif" font-size="14.00">HITs/interval</text>
</g>
<!-- HITs/trunc&#45;&gt;HITs/interval -->
<g id="edge25" class="edge"><title>HITs/trunc&#45;&gt;HITs/interval</title>
<path fill="none" stroke="black" d="M441.912,-434.326C424.324,-424.151 400.672,-410.468 381.291,-399.256"/>
<polygon fill="black" stroke="black" points="382.854,-396.116 372.445,-394.138 379.349,-402.176 382.854,-396.116"/>
</g>
<!-- theorems/mere_eq_lemma -->
<g id="node32" class="node"><title>theorems/mere_eq_lemma</title>
<ellipse fill="none" stroke="black" cx="528.278" cy="-378" rx="105.881" ry="18"/>
<text text-anchor="middle" x="528.278" y="-374.3" font-family="Times New Roman,serif" font-size="14.00">theorems/mere_eq_lemma</text>
</g>
<!-- HITs/trunc&#45;&gt;theorems/mere_eq_lemma -->
<g id="edge28" class="edge"><title>HITs/trunc&#45;&gt;theorems/mere_eq_lemma</title>
<path fill="none" stroke="black" d="M481.734,-432.411C489.22,-423.82 498.51,-413.159 506.816,-403.627"/>
<polygon fill="black" stroke="black" points="509.57,-405.795 513.501,-395.956 504.293,-401.196 509.57,-405.795"/>
</g>
<!-- HITs/interval&#45;&gt;types/product -->
<g id="edge30" class="edge"><title>HITs/interval&#45;&gt;types/product</title>
<path fill="none" stroke="black" d="M321.479,-361.638C305.546,-351.768 284.639,-338.817 267.18,-328.001"/>
<polygon fill="black" stroke="black" points="268.753,-324.859 258.409,-322.568 265.066,-330.809 268.753,-324.859"/>
</g>
<!-- theorems/prop -->
<g id="node33" class="node"><title>theorems/prop</title>
<ellipse fill="none" stroke="black" cx="376.278" cy="-306" rx="63.8893" ry="18"/>
<text text-anchor="middle" x="376.278" y="-302.3" font-family="Times New Roman,serif" font-size="14.00">theorems/prop</text>
</g>
<!-- HITs/interval&#45;&gt;theorems/prop -->
<g id="edge31" class="edge"><title>HITs/interval&#45;&gt;theorems/prop</title>
<path fill="none" stroke="black" d="M353.54,-360.055C356.953,-352.091 361.102,-342.411 364.916,-333.51"/>
<polygon fill="black" stroke="black" points="368.152,-334.845 368.874,-324.275 361.718,-332.088 368.152,-334.845"/>
</g>
<!-- HITs/pushout&#45;&gt;HITs/suspension -->
<g id="edge39" class="edge"><title>HITs/pushout&#45;&gt;HITs/suspension</title>
<path fill="none" stroke="black" d="M284.867,-504.765C273.289,-495.554 258.616,-483.882 245.902,-473.769"/>
<polygon fill="black" stroke="black" points="247.887,-470.876 237.882,-467.39 243.529,-476.354 247.887,-470.876"/>
</g>
<!-- HITs/join -->
<g id="node30" class="node"><title>HITs/join</title>
<ellipse fill="none" stroke="black" cx="353.278" cy="-450" rx="45.4919" ry="18"/>
<text text-anchor="middle" x="353.278" y="-446.3" font-family="Times New Roman,serif" font-size="14.00">HITs/join</text>
</g>
<!-- HITs/pushout&#45;&gt;HITs/join -->
<g id="edge26" class="edge"><title>HITs/pushout&#45;&gt;HITs/join</title>
<path fill="none" stroke="black" d="M316.897,-504.055C322.616,-495.715 329.627,-485.491 335.962,-476.252"/>
<polygon fill="black" stroke="black" points="338.996,-478.016 341.765,-467.789 333.223,-474.057 338.996,-478.016"/>
</g>
<!-- HITs/pushout&#45;&gt;HITs/reals -->
<g id="edge34" class="edge"><title>HITs/pushout&#45;&gt;HITs/reals</title>
<path fill="none" stroke="black" d="M264.252,-508.405C224.574,-496.223 164.549,-477.794 123.271,-465.121"/>
<polygon fill="black" stroke="black" points="124.052,-461.699 113.465,-462.11 121.998,-468.391 124.052,-461.699"/>
</g>
<!-- types/unit&#45;&gt;HITs/suspension -->
<g id="edge40" class="edge"><title>types/unit&#45;&gt;HITs/suspension</title>
<path fill="none" stroke="black" d="M333.256,-588.155C301.074,-582.236 258.906,-569.104 234.278,-540 219.873,-522.978 216.209,-497.52 215.806,-478.186"/>
<polygon fill="black" stroke="black" points="219.306,-478.191 215.871,-468.168 212.306,-478.145 219.306,-478.191"/>
</g>
<!-- types/unit&#45;&gt;structures -->
<g id="edge36" class="edge"><title>types/unit&#45;&gt;structures</title>
<path fill="none" stroke="black" d="M397.695,-577.465C410.409,-567.792 426.944,-555.21 440.92,-544.577"/>
<polygon fill="black" stroke="black" points="443.394,-547.092 449.233,-538.251 439.156,-541.521 443.394,-547.092"/>
</g>
<!-- structures&#45;&gt;HITs/trunc -->
<g id="edge41" class="edge"><title>structures&#45;&gt;HITs/trunc</title>
<path fill="none" stroke="black" d="M468.783,-503.697C468.563,-495.983 468.298,-486.712 468.052,-478.112"/>
<polygon fill="black" stroke="black" points="471.551,-478 467.766,-468.104 464.553,-478.2 471.551,-478"/>
</g>
<!-- structures&#45;&gt;HITs/truncation -->
<g id="edge43" class="edge"><title>structures&#45;&gt;HITs/truncation</title>
<path fill="none" stroke="black" d="M495.949,-507.17C515.94,-496.805 543.584,-482.471 565.943,-470.877"/>
<polygon fill="black" stroke="black" points="567.583,-473.969 574.849,-466.259 564.361,-467.755 567.583,-473.969"/>
</g>
<!-- types/sigma -->
<g id="node41" class="node"><title>types/sigma</title>
<ellipse fill="none" stroke="black" cx="697.278" cy="-882" rx="53.8905" ry="18"/>
<text text-anchor="middle" x="697.278" y="-878.3" font-family="Times New Roman,serif" font-size="14.00">types/sigma</text>
</g>
</g>
</svg>
