<?xml version="1.0" encoding="UTF-8" standalone="no"?>
<!DOCTYPE svg PUBLIC "-//W3C//DTD SVG 1.1//EN"
 "http://www.w3.org/Graphics/SVG/1.1/DTD/svg11.dtd">
<!-- Generated by graphviz version 2.38.0 (20140413.2041)
 -->
<!-- Title: dependency_map Pages: 1 -->
<svg width="1055pt" height="836pt"
 viewBox="0.00 0.00 1055.05 836.00" xmlns="http://www.w3.org/2000/svg" xmlns:xlink="http://www.w3.org/1999/xlink">
<g id="graph0" class="graph" transform="scale(1 1) rotate(0) translate(4 832)">
<title>dependency_map</title>
<polygon fill="white" stroke="none" points="-4,4 -4,-832 1051.05,-832 1051.05,4 -4,4"/>
<!-- algebra -->
<g id="node1" class="node"><title>algebra</title>
<ellipse fill="none" stroke="black" stroke-dasharray="5,2" cx="348" cy="-18" rx="36.2938" ry="18"/>
<text text-anchor="middle" x="348" y="-14.3" font-family="Times New Roman,serif" font-size="14.00">algebra</text>
</g>
<!-- ntrunc -->
<g id="node2" class="node"><title>ntrunc</title>
<ellipse fill="none" stroke="black" stroke-dasharray="5,2" cx="348" cy="-90" rx="33.5952" ry="18"/>
<text text-anchor="middle" x="348" y="-86.3" font-family="Times New Roman,serif" font-size="14.00">ntrunc</text>
</g>
<!-- ntrunc&#45;&gt;algebra -->
<g id="edge1" class="edge"><title>ntrunc&#45;&gt;algebra</title>
<path fill="none" stroke="black" d="M348,-71.6966C348,-63.9827 348,-54.7125 348,-46.1124"/>
<polygon fill="black" stroke="black" points="351.5,-46.1043 348,-36.1043 344.5,-46.1044 351.5,-46.1043"/>
</g>
<!-- structures -->
<g id="node3" class="node"><title>structures</title>
<ellipse fill="none" stroke="black" cx="643" cy="-522" rx="46.2923" ry="18"/>
<text text-anchor="middle" x="643" y="-518.3" font-family="Times New Roman,serif" font-size="14.00">structures</text>
</g>
<!-- structures&#45;&gt;algebra -->
<g id="edge2" class="edge"><title>structures&#45;&gt;algebra</title>
<path fill="none" stroke="black" d="M608.51,-509.842C601.74,-507.793 594.67,-505.751 588,-504 514.98,-484.835 492.122,-495.965 422,-468 236.575,-394.052 38,-434.627 38,-235 38,-235 38,-235 38,-161 38,-46.5196 214.907,-23.9672 301.441,-19.7836"/>
<polygon fill="black" stroke="black" points="301.683,-23.2765 311.527,-19.3595 301.389,-16.2827 301.683,-23.2765"/>
</g>
<!-- circle -->
<g id="node5" class="node"><title>circle</title>
<ellipse fill="none" stroke="black" stroke-dasharray="5,2" cx="348" cy="-162" rx="30.5947" ry="18"/>
<text text-anchor="middle" x="348" y="-158.3" font-family="Times New Roman,serif" font-size="14.00">circle</text>
</g>
<!-- structures&#45;&gt;circle -->
<g id="edge5" class="edge"><title>structures&#45;&gt;circle</title>
<path fill="none" stroke="black" d="M633.613,-504.344C620.48,-480.687 596.293,-435.803 579,-396 558.664,-349.193 571.696,-327.998 540,-288 497.258,-234.062 424.586,-195.934 381.967,-176.884"/>
<polygon fill="black" stroke="black" points="383.147,-173.581 372.583,-172.781 380.343,-179.994 383.147,-173.581"/>
</g>
<!-- interval -->
<g id="node7" class="node"><title>interval</title>
<ellipse fill="none" stroke="black" cx="379" cy="-378" rx="36.2938" ry="18"/>
<text text-anchor="middle" x="379" y="-374.3" font-family="Times New Roman,serif" font-size="14.00">interval</text>
</g>
<!-- structures&#45;&gt;interval -->
<g id="edge22" class="edge"><title>structures&#45;&gt;interval</title>
<path fill="none" stroke="black" d="M608.099,-510.165C601.429,-508.107 594.501,-505.98 588,-504 534.734,-487.778 515.804,-496.553 468,-468 439.766,-451.136 413.97,-423.341 397.502,-403.295"/>
<polygon fill="black" stroke="black" points="400.023,-400.844 391.036,-395.233 394.563,-405.224 400.023,-400.844"/>
</g>
<!-- ua -->
<g id="node8" class="node"><title>ua</title>
<ellipse fill="none" stroke="black" stroke-dasharray="5,2" cx="794" cy="-234" rx="27" ry="18"/>
<text text-anchor="middle" x="794" y="-230.3" font-family="Times New Roman,serif" font-size="14.00">ua</text>
</g>
<!-- structures&#45;&gt;ua -->
<g id="edge46" class="edge"><title>structures&#45;&gt;ua</title>
<path fill="none" stroke="black" d="M657.838,-504.734C678.038,-481.892 714.275,-438.348 737,-396 760.911,-351.442 778.261,-294.8 787.179,-261.949"/>
<polygon fill="black" stroke="black" points="790.593,-262.728 789.776,-252.164 783.828,-260.932 790.593,-262.728"/>
</g>
<!-- trunc -->
<g id="node17" class="node"><title>trunc</title>
<ellipse fill="none" stroke="black" cx="506" cy="-450" rx="29.4969" ry="18"/>
<text text-anchor="middle" x="506" y="-446.3" font-family="Times New Roman,serif" font-size="14.00">trunc</text>
</g>
<!-- structures&#45;&gt;trunc -->
<g id="edge42" class="edge"><title>structures&#45;&gt;trunc</title>
<path fill="none" stroke="black" d="M615.933,-507.17C593.215,-495.563 560.758,-478.979 537,-466.84"/>
<polygon fill="black" stroke="black" points="538.54,-463.696 528.042,-462.262 535.355,-469.929 538.54,-463.696"/>
</g>
<!-- eq -->
<g id="node4" class="node"><title>eq</title>
<ellipse fill="none" stroke="black" cx="455" cy="-810" rx="27" ry="18"/>
<text text-anchor="middle" x="455" y="-806.3" font-family="Times New Roman,serif" font-size="14.00">eq</text>
</g>
<!-- eq&#45;&gt;algebra -->
<g id="edge3" class="edge"><title>eq&#45;&gt;algebra</title>
<path fill="none" stroke="black" d="M475.063,-797.92C480.127,-795.578 485.649,-793.395 491,-792 603.731,-762.619 920.713,-825.779 1014,-756 1047.78,-730.731 1047,-709.187 1047,-667 1047,-667 1047,-667 1047,-161 1047,-27.5407 551.455,-18.1535 394.845,-18.5192"/>
<polygon fill="black" stroke="black" points="394.584,-15.0201 384.597,-18.5585 394.61,-22.02 394.584,-15.0201"/>
</g>
<!-- eq&#45;&gt;structures -->
<g id="edge36" class="edge"><title>eq&#45;&gt;structures</title>
<path fill="none" stroke="black" d="M476.229,-798.731C481.061,-796.462 486.188,-794.107 491,-792 530.085,-774.883 542.545,-776.439 580,-756 677.419,-702.84 732.942,-710.537 784,-612 791.361,-597.794 793.108,-589.154 784,-576 764.673,-548.087 728.686,-534.855 697.908,-528.592"/>
<polygon fill="black" stroke="black" points="698.168,-525.081 687.701,-526.724 696.907,-531.967 698.168,-525.081"/>
</g>
<!-- eq&#45;&gt;circle -->
<g id="edge7" class="edge"><title>eq&#45;&gt;circle</title>
<path fill="none" stroke="black" d="M427.873,-808.285C371.427,-805.994 238.025,-796.375 135,-756 68.0891,-729.778 0,-738.865 0,-667 0,-667 0,-667 0,-305 0,-236.439 63.5286,-244.248 126,-216 186.293,-188.737 262.39,-174.49 308.017,-167.878"/>
<polygon fill="black" stroke="black" points="308.683,-171.319 318.103,-166.47 307.715,-164.387 308.683,-171.319"/>
</g>
<!-- eq&#45;&gt;interval -->
<g id="edge21" class="edge"><title>eq&#45;&gt;interval</title>
<path fill="none" stroke="black" d="M428.257,-807.387C363.956,-803.014 202.982,-788.97 162,-756 134.989,-734.27 138.799,-717.993 132,-684 122.844,-638.22 97.8197,-560.894 133,-504 177.327,-432.314 276.916,-400.122 334.873,-386.997"/>
<polygon fill="black" stroke="black" points="335.81,-390.375 344.841,-384.834 334.326,-383.534 335.81,-390.375"/>
</g>
<!-- eq&#45;&gt;ua -->
<g id="edge45" class="edge"><title>eq&#45;&gt;ua</title>
<path fill="none" stroke="black" d="M475.067,-797.933C480.13,-795.59 485.652,-793.403 491,-792 544.768,-777.892 948.071,-792.497 990,-756 1020.51,-729.444 1009,-707.447 1009,-667 1009,-667 1009,-667 1009,-377 1009,-292.216 891.148,-255.138 829.952,-241.6"/>
<polygon fill="black" stroke="black" points="830.442,-238.126 819.934,-239.482 828.994,-244.975 830.442,-238.126"/>
</g>
<!-- equiv -->
<g id="node9" class="node"><title>equiv</title>
<ellipse fill="none" stroke="black" cx="504" cy="-666" rx="30.5947" ry="18"/>
<text text-anchor="middle" x="504" y="-662.3" font-family="Times New Roman,serif" font-size="14.00">equiv</text>
</g>
<!-- eq&#45;&gt;equiv -->
<g id="edge16" class="edge"><title>eq&#45;&gt;equiv</title>
<path fill="none" stroke="black" d="M457.083,-791.83C459.658,-773.576 464.863,-744.078 474,-720 477.636,-710.417 482.821,-700.493 487.859,-691.859"/>
<polygon fill="black" stroke="black" points="490.994,-693.439 493.188,-683.074 485.009,-689.808 490.994,-693.439"/>
</g>
<!-- heq -->
<g id="node12" class="node"><title>heq</title>
<ellipse fill="none" stroke="black" cx="176" cy="-666" rx="27" ry="18"/>
<text text-anchor="middle" x="176" y="-662.3" font-family="Times New Roman,serif" font-size="14.00">heq</text>
</g>
<!-- eq&#45;&gt;heq -->
<g id="edge14" class="edge"><title>eq&#45;&gt;heq</title>
<path fill="none" stroke="black" d="M430.108,-802.811C398.899,-794.524 344.247,-778.246 301,-756 263.28,-736.597 224.125,-706.9 199.912,-687.221"/>
<polygon fill="black" stroke="black" points="201.944,-684.36 191.998,-680.711 197.497,-689.767 201.944,-684.36"/>
</g>
<!-- support -->
<g id="node13" class="node"><title>support</title>
<ellipse fill="none" stroke="black" cx="349" cy="-738" rx="38.9931" ry="18"/>
<text text-anchor="middle" x="349" y="-734.3" font-family="Times New Roman,serif" font-size="14.00">support</text>
</g>
<!-- eq&#45;&gt;support -->
<g id="edge38" class="edge"><title>eq&#45;&gt;support</title>
<path fill="none" stroke="black" d="M436.536,-796.807C420.662,-786.324 397.467,-771.007 378.941,-758.773"/>
<polygon fill="black" stroke="black" points="380.812,-755.814 370.538,-753.224 376.954,-761.655 380.812,-755.814"/>
</g>
<!-- int -->
<g id="node16" class="node"><title>int</title>
<ellipse fill="none" stroke="black" cx="954" cy="-738" rx="27" ry="18"/>
<text text-anchor="middle" x="954" y="-734.3" font-family="Times New Roman,serif" font-size="14.00">int</text>
</g>
<!-- eq&#45;&gt;int -->
<g id="edge19" class="edge"><title>eq&#45;&gt;int</title>
<path fill="none" stroke="black" d="M475.46,-797.807C480.419,-795.528 485.794,-793.402 491,-792 672.757,-743.037 730.117,-800.576 913,-756 916.397,-755.172 919.878,-754.103 923.306,-752.906"/>
<polygon fill="black" stroke="black" points="924.642,-756.142 932.715,-749.28 922.126,-749.61 924.642,-756.142"/>
</g>
<!-- mere_eq_lemma -->
<g id="node18" class="node"><title>mere_eq_lemma</title>
<ellipse fill="none" stroke="black" cx="658" cy="-378" rx="70.3881" ry="18"/>
<text text-anchor="middle" x="658" y="-374.3" font-family="Times New Roman,serif" font-size="14.00">mere_eq_lemma</text>
</g>
<!-- eq&#45;&gt;mere_eq_lemma -->
<g id="edge24" class="edge"><title>eq&#45;&gt;mere_eq_lemma</title>
<path fill="none" stroke="black" d="M476.033,-798.238C480.875,-795.995 486.056,-793.775 491,-792 552.277,-769.997 572.627,-780.374 633,-756 724.504,-719.057 775.756,-707.126 802,-612 825.731,-525.982 737.306,-440.881 688.393,-401.567"/>
<polygon fill="black" stroke="black" points="690.351,-398.653 680.33,-395.212 686.018,-404.151 690.351,-398.653"/>
</g>
<!-- pushout -->
<g id="node20" class="node"><title>pushout</title>
<ellipse fill="none" stroke="black" cx="191" cy="-594" rx="40.0939" ry="18"/>
<text text-anchor="middle" x="191" y="-590.3" font-family="Times New Roman,serif" font-size="14.00">pushout</text>
</g>
<!-- eq&#45;&gt;pushout -->
<g id="edge31" class="edge"><title>eq&#45;&gt;pushout</title>
<path fill="none" stroke="black" d="M427.577,-808.83C361.437,-806.696 194.586,-790.564 140,-684 132.706,-669.76 134.019,-662.84 140,-648 144.848,-635.971 153.876,-625.145 163.005,-616.46"/>
<polygon fill="black" stroke="black" points="165.467,-618.954 170.607,-609.689 160.812,-613.726 165.467,-618.954"/>
</g>
<!-- circle&#45;&gt;ntrunc -->
<g id="edge26" class="edge"><title>circle&#45;&gt;ntrunc</title>
<path fill="none" stroke="black" d="M348,-143.697C348,-135.983 348,-126.712 348,-118.112"/>
<polygon fill="black" stroke="black" points="351.5,-118.104 348,-108.104 344.5,-118.104 351.5,-118.104"/>
</g>
<!-- suspension -->
<g id="node6" class="node"><title>suspension</title>
<ellipse fill="none" stroke="black" cx="193" cy="-522" rx="51.1914" ry="18"/>
<text text-anchor="middle" x="193" y="-518.3" font-family="Times New Roman,serif" font-size="14.00">suspension</text>
</g>
<!-- suspension&#45;&gt;circle -->
<g id="edge4" class="edge"><title>suspension&#45;&gt;circle</title>
<path fill="none" stroke="black" d="M176.598,-504.653C139.323,-465.459 54.858,-363.77 100,-288 144.814,-212.78 250.842,-181.377 308.687,-169.477"/>
<polygon fill="black" stroke="black" points="309.423,-172.9 318.562,-167.539 308.075,-166.031 309.423,-172.9"/>
</g>
<!-- interval&#45;&gt;circle -->
<g id="edge6" class="edge"><title>interval&#45;&gt;circle</title>
<path fill="none" stroke="black" d="M374.649,-359.906C372.138,-349.566 369.076,-336.088 367,-324 358.989,-277.35 353.304,-222.512 350.346,-190.375"/>
<polygon fill="black" stroke="black" points="353.795,-189.652 349.414,-180.005 346.823,-190.279 353.795,-189.652"/>
</g>
<!-- cubical -->
<g id="node11" class="node"><title>cubical</title>
<ellipse fill="none" stroke="black" cx="278" cy="-234" rx="36.2938" ry="18"/>
<text text-anchor="middle" x="278" y="-230.3" font-family="Times New Roman,serif" font-size="14.00">cubical</text>
</g>
<!-- interval&#45;&gt;cubical -->
<g id="edge10" class="edge"><title>interval&#45;&gt;cubical</title>
<path fill="none" stroke="black" d="M364.598,-361.249C355.447,-350.953 343.566,-337.043 334,-324 318.83,-303.316 303.443,-278.526 292.647,-260.369"/>
<polygon fill="black" stroke="black" points="295.535,-258.376 287.445,-251.535 289.503,-261.928 295.535,-258.376"/>
</g>
<!-- product -->
<g id="node14" class="node"><title>product</title>
<ellipse fill="none" stroke="black" cx="491" cy="-306" rx="39.7935" ry="18"/>
<text text-anchor="middle" x="491" y="-302.3" font-family="Times New Roman,serif" font-size="14.00">product</text>
</g>
<!-- interval&#45;&gt;product -->
<g id="edge28" class="edge"><title>interval&#45;&gt;product</title>
<path fill="none" stroke="black" d="M400.595,-363.503C417.496,-352.94 441.225,-338.109 460.131,-326.293"/>
<polygon fill="black" stroke="black" points="462.08,-329.202 468.705,-320.934 458.37,-323.266 462.08,-329.202"/>
</g>
<!-- prop -->
<g id="node19" class="node"><title>prop</title>
<ellipse fill="none" stroke="black" cx="405" cy="-306" rx="28.6953" ry="18"/>
<text text-anchor="middle" x="405" y="-302.3" font-family="Times New Roman,serif" font-size="14.00">prop</text>
</g>
<!-- interval&#45;&gt;prop -->
<g id="edge29" class="edge"><title>interval&#45;&gt;prop</title>
<path fill="none" stroke="black" d="M385.294,-360.055C388.264,-352.059 391.877,-342.331 395.194,-333.4"/>
<polygon fill="black" stroke="black" points="398.563,-334.382 398.764,-323.789 392.001,-331.945 398.563,-334.382"/>
</g>
<!-- ua&#45;&gt;circle -->
<g id="edge8" class="edge"><title>ua&#45;&gt;circle</title>
<path fill="none" stroke="black" d="M767.766,-228.883C692.598,-217.085 476.136,-183.111 387.034,-169.126"/>
<polygon fill="black" stroke="black" points="387.487,-165.655 377.065,-167.562 386.402,-172.57 387.487,-165.655"/>
</g>
<!-- equiv&#45;&gt;structures -->
<g id="edge35" class="edge"><title>equiv&#45;&gt;structures</title>
<path fill="none" stroke="black" d="M534.723,-663.49C597.509,-659.695 737.058,-647.382 766,-612 776.13,-599.615 774.795,-589.366 766,-576 750.247,-552.059 721.151,-538.885 695.212,-531.661"/>
<polygon fill="black" stroke="black" points="696.014,-528.254 685.459,-529.173 694.284,-535.036 696.014,-528.254"/>
</g>
<!-- equiv&#45;&gt;suspension -->
<g id="edge41" class="edge"><title>equiv&#45;&gt;suspension</title>
<path fill="none" stroke="black" d="M477.625,-656.613C448.222,-646.976 399.48,-630.14 359,-612 311.948,-590.915 259.883,-562.041 226.83,-542.971"/>
<polygon fill="black" stroke="black" points="228.438,-539.857 218.031,-537.867 224.925,-545.912 228.438,-539.857"/>
</g>
<!-- equiv&#45;&gt;interval -->
<g id="edge23" class="edge"><title>equiv&#45;&gt;interval</title>
<path fill="none" stroke="black" d="M481.759,-653.338C466.352,-644.127 446.598,-629.864 435,-612 392.529,-546.583 382.231,-452.025 379.76,-406.088"/>
<polygon fill="black" stroke="black" points="383.253,-405.848 379.304,-396.017 376.26,-406.165 383.253,-405.848"/>
</g>
<!-- equiv&#45;&gt;ua -->
<g id="edge44" class="edge"><title>equiv&#45;&gt;ua</title>
<path fill="none" stroke="black" d="M534.043,-662.58C597.879,-656.925 744.429,-641.073 784,-612 849.376,-563.968 870,-532.124 870,-451 870,-451 870,-451 870,-377 870,-330.121 837.403,-283.74 814.906,-257.312"/>
<polygon fill="black" stroke="black" points="817.519,-254.984 808.295,-249.772 812.256,-259.599 817.519,-254.984"/>
</g>
<!-- coproduct -->
<g id="node10" class="node"><title>coproduct</title>
<ellipse fill="none" stroke="black" cx="636" cy="-594" rx="48.9926" ry="18"/>
<text text-anchor="middle" x="636" y="-590.3" font-family="Times New Roman,serif" font-size="14.00">coproduct</text>
</g>
<!-- equiv&#45;&gt;coproduct -->
<g id="edge9" class="edge"><title>equiv&#45;&gt;coproduct</title>
<path fill="none" stroke="black" d="M526.094,-653.284C546.309,-642.563 576.582,-626.51 600.24,-613.964"/>
<polygon fill="black" stroke="black" points="602.078,-616.951 609.273,-609.173 598.799,-610.766 602.078,-616.951"/>
</g>
<!-- equiv&#45;&gt;product -->
<g id="edge27" class="edge"><title>equiv&#45;&gt;product</title>
<path fill="none" stroke="black" d="M490.901,-649.246C483.156,-639.173 473.765,-625.504 468,-612 452.119,-574.801 449,-563.447 449,-523 449,-523 449,-523 449,-449 449,-407.145 465.986,-361.096 478.354,-333.114"/>
<polygon fill="black" stroke="black" points="481.542,-334.558 482.501,-324.007 475.172,-331.658 481.542,-334.558"/>
</g>
<!-- equiv&#45;&gt;pushout -->
<g id="edge33" class="edge"><title>equiv&#45;&gt;pushout</title>
<path fill="none" stroke="black" d="M475.948,-658.726C421.682,-646.59 301.907,-619.804 236.244,-605.118"/>
<polygon fill="black" stroke="black" points="236.711,-601.637 226.188,-602.87 235.183,-608.468 236.711,-601.637"/>
</g>
<!-- unit -->
<g id="node21" class="node"><title>unit</title>
<ellipse fill="none" stroke="black" cx="730" cy="-594" rx="27" ry="18"/>
<text text-anchor="middle" x="730" y="-590.3" font-family="Times New Roman,serif" font-size="14.00">unit</text>
</g>
<!-- equiv&#45;&gt;unit -->
<g id="edge50" class="edge"><title>equiv&#45;&gt;unit</title>
<path fill="none" stroke="black" d="M532.161,-658.723C569.675,-650.006 637.841,-632.921 694,-612 695.846,-611.312 697.727,-610.567 699.613,-609.786"/>
<polygon fill="black" stroke="black" points="701.198,-612.912 708.936,-605.675 698.373,-606.507 701.198,-612.912"/>
</g>
<!-- nat -->
<g id="node22" class="node"><title>nat</title>
<ellipse fill="none" stroke="black" cx="552" cy="-522" rx="27" ry="18"/>
<text text-anchor="middle" x="552" y="-518.3" font-family="Times New Roman,serif" font-size="14.00">nat</text>
</g>
<!-- equiv&#45;&gt;nat -->
<g id="edge51" class="edge"><title>equiv&#45;&gt;nat</title>
<path fill="none" stroke="black" d="M517.464,-649.394C525.347,-639.376 534.754,-625.714 540,-612 547.554,-592.251 550.473,-568.448 551.546,-550.43"/>
<polygon fill="black" stroke="black" points="555.049,-550.45 551.994,-540.305 548.056,-550.141 555.049,-550.45"/>
</g>
<!-- lost -->
<g id="node23" class="node"><title>lost</title>
<ellipse fill="none" stroke="black" cx="504" cy="-594" rx="27" ry="18"/>
<text text-anchor="middle" x="504" y="-590.3" font-family="Times New Roman,serif" font-size="14.00">lost</text>
</g>
<!-- equiv&#45;&gt;lost -->
<g id="edge54" class="edge"><title>equiv&#45;&gt;lost</title>
<path fill="none" stroke="black" d="M504,-647.697C504,-639.983 504,-630.712 504,-622.112"/>
<polygon fill="black" stroke="black" points="507.5,-622.104 504,-612.104 500.5,-622.104 507.5,-622.104"/>
</g>
<!-- coproduct&#45;&gt;structures -->
<g id="edge37" class="edge"><title>coproduct&#45;&gt;structures</title>
<path fill="none" stroke="black" d="M637.73,-575.697C638.502,-567.983 639.429,-558.712 640.289,-550.112"/>
<polygon fill="black" stroke="black" points="643.777,-550.403 641.29,-540.104 636.812,-549.706 643.777,-550.403"/>
</g>
<!-- coproduct&#45;&gt;nat -->
<g id="edge52" class="edge"><title>coproduct&#45;&gt;nat</title>
<path fill="none" stroke="black" d="M616.939,-577.116C604.868,-567.057 589.15,-553.959 576.202,-543.168"/>
<polygon fill="black" stroke="black" points="578.082,-540.179 568.159,-536.466 573.6,-545.556 578.082,-540.179"/>
</g>
<!-- heq&#45;&gt;cubical -->
<g id="edge11" class="edge"><title>heq&#45;&gt;cubical</title>
<path fill="none" stroke="black" d="M163.592,-649.747C156.069,-639.65 146.987,-625.774 142,-612 125.603,-566.711 121.215,-550.702 133,-504 157.766,-405.86 226.149,-304.598 259.384,-259.372"/>
<polygon fill="black" stroke="black" points="262.383,-261.205 265.54,-251.092 256.765,-257.029 262.383,-261.205"/>
</g>
<!-- heq&#45;&gt;pushout -->
<g id="edge30" class="edge"><title>heq&#45;&gt;pushout</title>
<path fill="none" stroke="black" d="M179.631,-648.055C181.301,-640.261 183.324,-630.822 185.197,-622.079"/>
<polygon fill="black" stroke="black" points="188.625,-622.787 187.298,-612.275 181.78,-621.32 188.625,-622.787"/>
</g>
<!-- support&#45;&gt;ua -->
<g id="edge48" class="edge"><title>support&#45;&gt;ua</title>
<path fill="none" stroke="black" d="M385.782,-731.82C514.51,-712.676 937,-640.868 937,-523 937,-523 937,-523 937,-377 937,-314.385 867.114,-269.919 825.054,-248.827"/>
<polygon fill="black" stroke="black" points="826.555,-245.665 816.03,-244.445 823.497,-251.962 826.555,-245.665"/>
</g>
<!-- support&#45;&gt;equiv -->
<g id="edge17" class="edge"><title>support&#45;&gt;equiv</title>
<path fill="none" stroke="black" d="M375.999,-724.807C402.379,-712.893 442.585,-694.736 470.883,-681.956"/>
<polygon fill="black" stroke="black" points="472.68,-684.985 480.353,-677.679 469.799,-678.605 472.68,-684.985"/>
</g>
<!-- support&#45;&gt;cubical -->
<g id="edge12" class="edge"><title>support&#45;&gt;cubical</title>
<path fill="none" stroke="black" d="M341.193,-720.339C321.617,-676.983 272,-556.67 272,-451 272,-451 272,-451 272,-377 272,-336.96 274.411,-290.627 276.176,-262.065"/>
<polygon fill="black" stroke="black" points="279.672,-262.242 276.815,-252.039 272.686,-261.797 279.672,-262.242"/>
</g>
<!-- support&#45;&gt;heq -->
<g id="edge15" class="edge"><title>support&#45;&gt;heq</title>
<path fill="none" stroke="black" d="M320.381,-725.617C293.619,-714.946 252.554,-698.508 217,-684 214.097,-682.815 211.081,-681.578 208.062,-680.334"/>
<polygon fill="black" stroke="black" points="209.117,-676.983 198.538,-676.398 206.443,-683.453 209.117,-676.983"/>
</g>
<!-- support&#45;&gt;trunc -->
<g id="edge43" class="edge"><title>support&#45;&gt;trunc</title>
<path fill="none" stroke="black" d="M353.435,-719.777C358.458,-701.479 367.467,-671.945 379,-648 410.906,-581.757 461.04,-510.885 487.777,-474.918"/>
<polygon fill="black" stroke="black" points="490.851,-476.652 494.045,-466.55 485.248,-472.456 490.851,-476.652"/>
</g>
<!-- support&#45;&gt;pushout -->
<g id="edge32" class="edge"><title>support&#45;&gt;pushout</title>
<path fill="none" stroke="black" d="M321.048,-725.192C301.195,-715.912 274.678,-701.624 255,-684 234.532,-665.669 216.795,-639.707 205.218,-620.551"/>
<polygon fill="black" stroke="black" points="208.132,-618.602 200.045,-611.758 202.099,-622.152 208.132,-618.602"/>
</g>
<!-- support&#45;&gt;nat -->
<g id="edge53" class="edge"><title>support&#45;&gt;nat</title>
<path fill="none" stroke="black" d="M358.426,-720.36C376.616,-689.272 419.106,-621.42 468,-576 484.096,-561.048 504.976,-547.851 521.892,-538.366"/>
<polygon fill="black" stroke="black" points="523.725,-541.353 530.826,-533.491 520.372,-535.208 523.725,-541.353"/>
</g>
<!-- product&#45;&gt;ua -->
<g id="edge49" class="edge"><title>product&#45;&gt;ua</title>
<path fill="none" stroke="black" d="M525.463,-297.038C583.554,-283.618 700.342,-256.637 758.875,-243.115"/>
<polygon fill="black" stroke="black" points="759.807,-246.492 768.763,-240.83 758.232,-239.671 759.807,-246.492"/>
</g>
<!-- product&#45;&gt;cubical -->
<g id="edge13" class="edge"><title>product&#45;&gt;cubical</title>
<path fill="none" stroke="black" d="M460.833,-294.163C454.931,-292.086 448.779,-289.951 443,-288 400.374,-273.609 351.249,-257.947 317.761,-247.409"/>
<polygon fill="black" stroke="black" points="318.484,-243.968 307.895,-244.31 316.386,-250.646 318.484,-243.968"/>
</g>
<!-- functions -->
<g id="node15" class="node"><title>functions</title>
<ellipse fill="none" stroke="black" cx="527" cy="-738" rx="44.393" ry="18"/>
<text text-anchor="middle" x="527" y="-734.3" font-family="Times New Roman,serif" font-size="14.00">functions</text>
</g>
<!-- functions&#45;&gt;equiv -->
<g id="edge18" class="edge"><title>functions&#45;&gt;equiv</title>
<path fill="none" stroke="black" d="M521.432,-720.055C518.805,-712.059 515.609,-702.331 512.674,-693.4"/>
<polygon fill="black" stroke="black" points="515.963,-692.197 509.516,-683.789 509.313,-694.382 515.963,-692.197"/>
</g>
<!-- trunc&#45;&gt;interval -->
<g id="edge20" class="edge"><title>trunc&#45;&gt;interval</title>
<path fill="none" stroke="black" d="M485.029,-437.441C465.001,-426.402 434.529,-409.606 411.383,-396.849"/>
<polygon fill="black" stroke="black" points="413.042,-393.767 402.595,-392.005 409.663,-399.897 413.042,-393.767"/>
</g>
<!-- trunc&#45;&gt;mere_eq_lemma -->
<g id="edge25" class="edge"><title>trunc&#45;&gt;mere_eq_lemma</title>
<path fill="none" stroke="black" d="M528.756,-438.52C551.822,-427.898 588.038,-411.219 616.272,-398.217"/>
<polygon fill="black" stroke="black" points="617.891,-401.325 625.51,-393.962 614.963,-394.966 617.891,-401.325"/>
</g>
<!-- pushout&#45;&gt;suspension -->
<g id="edge39" class="edge"><title>pushout&#45;&gt;suspension</title>
<path fill="none" stroke="black" d="M191.494,-575.697C191.715,-567.983 191.98,-558.712 192.225,-550.112"/>
<polygon fill="black" stroke="black" points="195.724,-550.2 192.511,-540.104 188.727,-550 195.724,-550.2"/>
</g>
<!-- unit&#45;&gt;structures -->
<g id="edge34" class="edge"><title>unit&#45;&gt;structures</title>
<path fill="none" stroke="black" d="M713.226,-579.503C701.008,-569.673 684.197,-556.147 670.087,-544.794"/>
<polygon fill="black" stroke="black" points="672.132,-541.947 662.146,-538.405 667.743,-547.401 672.132,-541.947"/>
</g>
<!-- unit&#45;&gt;suspension -->
<g id="edge40" class="edge"><title>unit&#45;&gt;suspension</title>
<path fill="none" stroke="black" d="M709.519,-581.883C704.561,-579.602 699.191,-577.455 694,-576 540.017,-532.838 350.428,-524.295 254.64,-522.936"/>
<polygon fill="black" stroke="black" points="254.59,-519.436 244.549,-522.815 254.506,-526.435 254.59,-519.436"/>
</g>
<!-- unit&#45;&gt;ua -->
<g id="edge47" class="edge"><title>unit&#45;&gt;ua</title>
<path fill="none" stroke="black" d="M742.038,-577.835C760.577,-552.906 794,-501.026 794,-451 794,-451 794,-451 794,-377 794,-336.996 794,-290.653 794,-262.08"/>
<polygon fill="black" stroke="black" points="797.5,-262.049 794,-252.049 790.5,-262.049 797.5,-262.049"/>
</g>
<!-- sigma -->
<g id="node24" class="node"><title>sigma</title>
<ellipse fill="none" stroke="black" cx="532" cy="-810" rx="31.6951" ry="18"/>
<text text-anchor="middle" x="532" y="-806.3" font-family="Times New Roman,serif" font-size="14.00">sigma</text>
</g>
</g>
</svg>
