<?xml version="1.0" encoding="UTF-8" standalone="no"?>
<!DOCTYPE svg PUBLIC "-//W3C//DTD SVG 1.1//EN"
 "http://www.w3.org/Graphics/SVG/1.1/DTD/svg11.dtd">
<!-- Generated by graphviz version 2.38.0 (20140413.2041)
 -->
<!-- Title: dependency_map Pages: 1 -->
<svg width="1342pt" height="908pt"
 viewBox="0.00 0.00 1341.74 908.00" xmlns="http://www.w3.org/2000/svg" xmlns:xlink="http://www.w3.org/1999/xlink">
<g id="graph0" class="graph" transform="scale(1 1) rotate(0) translate(4 904)">
<title>dependency_map</title>
<polygon fill="white" stroke="none" points="-4,4 -4,-904 1337.74,-904 1337.74,4 -4,4"/>
<!-- proto -->
<g id="node1" class="node"><title>proto</title>
<ellipse fill="none" stroke="black" cx="725.293" cy="-882" rx="30.5947" ry="18"/>
<text text-anchor="middle" x="725.293" y="-878.3" font-family="Times New Roman,serif" font-size="14.00">proto</text>
</g>
<!-- types/eq -->
<g id="node2" class="node"><title>types/eq</title>
<ellipse fill="none" stroke="black" cx="785.293" cy="-810" rx="41.6928" ry="18"/>
<text text-anchor="middle" x="785.293" y="-806.3" font-family="Times New Roman,serif" font-size="14.00">types/eq</text>
</g>
<!-- proto&#45;&gt;types/eq -->
<g id="edge1" class="edge"><title>proto&#45;&gt;types/eq</title>
<path fill="none" stroke="black" d="M738.609,-865.465C746.237,-856.566 755.974,-845.205 764.581,-835.164"/>
<polygon fill="black" stroke="black" points="767.328,-837.338 771.178,-827.467 762.013,-832.782 767.328,-837.338"/>
</g>
<!-- types/dep_path -->
<g id="node16" class="node"><title>types/dep_path</title>
<ellipse fill="none" stroke="black" cx="847.293" cy="-738" rx="66.8882" ry="18"/>
<text text-anchor="middle" x="847.293" y="-734.3" font-family="Times New Roman,serif" font-size="14.00">types/dep_path</text>
</g>
<!-- types/eq&#45;&gt;types/dep_path -->
<g id="edge11" class="edge"><title>types/eq&#45;&gt;types/dep_path</title>
<path fill="none" stroke="black" d="M799.673,-792.765C807.463,-783.969 817.242,-772.928 825.908,-763.144"/>
<polygon fill="black" stroke="black" points="828.55,-765.44 832.561,-755.633 823.31,-760.799 828.55,-765.44"/>
</g>
<!-- support -->
<g id="node24" class="node"><title>support</title>
<ellipse fill="none" stroke="black" cx="723.293" cy="-738" rx="38.9931" ry="18"/>
<text text-anchor="middle" x="723.293" y="-734.3" font-family="Times New Roman,serif" font-size="14.00">support</text>
</g>
<!-- types/eq&#45;&gt;support -->
<g id="edge38" class="edge"><title>types/eq&#45;&gt;support</title>
<path fill="none" stroke="black" d="M770.913,-792.765C763.01,-783.841 753.06,-772.608 744.302,-762.719"/>
<polygon fill="black" stroke="black" points="746.845,-760.313 737.595,-755.147 741.605,-764.954 746.845,-760.313"/>
</g>
<!-- meta/hott_theory -->
<g id="node3" class="node"><title>meta/hott_theory</title>
<ellipse fill="none" stroke="black" cx="846.293" cy="-882" rx="72.2875" ry="18"/>
<text text-anchor="middle" x="846.293" y="-878.3" font-family="Times New Roman,serif" font-size="14.00">meta/hott_theory</text>
</g>
<!-- meta/hott_theory&#45;&gt;types/eq -->
<g id="edge2" class="edge"><title>meta/hott_theory&#45;&gt;types/eq</title>
<path fill="none" stroke="black" d="M831.527,-864.055C823.924,-855.33 814.524,-844.544 806.191,-834.981"/>
<polygon fill="black" stroke="black" points="808.712,-832.547 799.503,-827.307 803.434,-837.146 808.712,-832.547"/>
</g>
<!-- algebra -->
<g id="node4" class="node"><title>algebra</title>
<ellipse fill="none" stroke="black" stroke-dasharray="5,2" cx="788.293" cy="-18" rx="36.2938" ry="18"/>
<text text-anchor="middle" x="788.293" y="-14.3" font-family="Times New Roman,serif" font-size="14.00">algebra</text>
</g>
<!-- HITs/ntrunc -->
<g id="node5" class="node"><title>HITs/ntrunc</title>
<ellipse fill="none" stroke="black" stroke-dasharray="5,2" cx="788.293" cy="-90" rx="55.4913" ry="18"/>
<text text-anchor="middle" x="788.293" y="-86.3" font-family="Times New Roman,serif" font-size="14.00">HITs/ntrunc</text>
</g>
<!-- HITs/ntrunc&#45;&gt;algebra -->
<g id="edge3" class="edge"><title>HITs/ntrunc&#45;&gt;algebra</title>
<path fill="none" stroke="black" d="M788.293,-71.6966C788.293,-63.9827 788.293,-54.7125 788.293,-46.1124"/>
<polygon fill="black" stroke="black" points="791.793,-46.1043 788.293,-36.1043 784.793,-46.1044 791.793,-46.1043"/>
</g>
<!-- HITs/circle -->
<g id="node6" class="node"><title>HITs/circle</title>
<ellipse fill="none" stroke="black" stroke-dasharray="5,2" cx="779.293" cy="-162" rx="51.9908" ry="18"/>
<text text-anchor="middle" x="779.293" y="-158.3" font-family="Times New Roman,serif" font-size="14.00">HITs/circle</text>
</g>
<!-- HITs/circle&#45;&gt;HITs/ntrunc -->
<g id="edge29" class="edge"><title>HITs/circle&#45;&gt;HITs/ntrunc</title>
<path fill="none" stroke="black" d="M781.518,-143.697C782.509,-135.983 783.701,-126.712 784.807,-118.112"/>
<polygon fill="black" stroke="black" points="788.29,-118.469 786.094,-108.104 781.347,-117.576 788.29,-118.469"/>
</g>
<!-- types/integers -->
<g id="node7" class="node"><title>types/integers</title>
<ellipse fill="none" stroke="black" cx="1273.29" cy="-522" rx="60.3893" ry="18"/>
<text text-anchor="middle" x="1273.29" y="-518.3" font-family="Times New Roman,serif" font-size="14.00">types/integers</text>
</g>
<!-- types/integers&#45;&gt;HITs/circle -->
<g id="edge4" class="edge"><title>types/integers&#45;&gt;HITs/circle</title>
<path fill="none" stroke="black" d="M1264.59,-504.016C1252.03,-477.874 1230.29,-425.88 1230.29,-379 1230.29,-379 1230.29,-379 1230.29,-305 1230.29,-223.759 960.678,-183.257 838.373,-169.063"/>
<polygon fill="black" stroke="black" points="838.749,-165.584 828.416,-167.928 837.956,-172.539 838.749,-165.584"/>
</g>
<!-- HITs/reals -->
<g id="node35" class="node"><title>HITs/reals</title>
<ellipse fill="none" stroke="black" cx="1111.29" cy="-450" rx="48.9926" ry="18"/>
<text text-anchor="middle" x="1111.29" y="-446.3" font-family="Times New Roman,serif" font-size="14.00">HITs/reals</text>
</g>
<!-- types/integers&#45;&gt;HITs/reals -->
<g id="edge35" class="edge"><title>types/integers&#45;&gt;HITs/reals</title>
<path fill="none" stroke="black" d="M1240.51,-506.834C1214.71,-495.685 1178.64,-480.1 1151.16,-468.228"/>
<polygon fill="black" stroke="black" points="1152.4,-464.951 1141.84,-464.197 1149.63,-471.377 1152.4,-464.951"/>
</g>
<!-- HITs/suspension -->
<g id="node8" class="node"><title>HITs/suspension</title>
<ellipse fill="none" stroke="black" cx="678.293" cy="-450" rx="72.5877" ry="18"/>
<text text-anchor="middle" x="678.293" y="-446.3" font-family="Times New Roman,serif" font-size="14.00">HITs/suspension</text>
</g>
<!-- HITs/suspension&#45;&gt;HITs/circle -->
<g id="edge5" class="edge"><title>HITs/suspension&#45;&gt;HITs/circle</title>
<path fill="none" stroke="black" d="M705.821,-433.309C719.29,-424.175 734.466,-411.416 743.293,-396 781.328,-329.574 783.004,-235.86 781.146,-190.174"/>
<polygon fill="black" stroke="black" points="784.64,-189.964 780.647,-180.15 777.648,-190.312 784.64,-189.964"/>
</g>
<!-- theorems/ua -->
<g id="node9" class="node"><title>theorems/ua</title>
<ellipse fill="none" stroke="black" stroke-dasharray="5,2" cx="669.293" cy="-234" rx="54.6905" ry="18"/>
<text text-anchor="middle" x="669.293" y="-230.3" font-family="Times New Roman,serif" font-size="14.00">theorems/ua</text>
</g>
<!-- theorems/ua&#45;&gt;HITs/circle -->
<g id="edge6" class="edge"><title>theorems/ua&#45;&gt;HITs/circle</title>
<path fill="none" stroke="black" d="M693.161,-217.811C708.873,-207.813 729.639,-194.598 746.844,-183.649"/>
<polygon fill="black" stroke="black" points="748.914,-186.481 755.471,-178.159 745.155,-180.575 748.914,-186.481"/>
</g>
<!-- cubical/V -->
<g id="node23" class="node"><title>cubical/V</title>
<ellipse fill="none" stroke="black" stroke-dasharray="5,2" cx="669.293" cy="-90" rx="45.4919" ry="18"/>
<text text-anchor="middle" x="669.293" y="-86.3" font-family="Times New Roman,serif" font-size="14.00">cubical/V</text>
</g>
<!-- theorems/ua&#45;&gt;cubical/V -->
<g id="edge17" class="edge"><title>theorems/ua&#45;&gt;cubical/V</title>
<path fill="none" stroke="black" d="M669.293,-215.871C669.293,-191.67 669.293,-147.211 669.293,-118.393"/>
<polygon fill="black" stroke="black" points="672.793,-118.189 669.293,-108.189 665.793,-118.189 672.793,-118.189"/>
</g>
<!-- types/heq -->
<g id="node10" class="node"><title>types/heq</title>
<ellipse fill="none" stroke="black" cx="810.293" cy="-594" rx="46.2923" ry="18"/>
<text text-anchor="middle" x="810.293" y="-590.3" font-family="Times New Roman,serif" font-size="14.00">types/heq</text>
</g>
<!-- HITs/colimit -->
<g id="node11" class="node"><title>HITs/colimit</title>
<ellipse fill="none" stroke="black" cx="975.293" cy="-522" rx="56.59" ry="18"/>
<text text-anchor="middle" x="975.293" y="-518.3" font-family="Times New Roman,serif" font-size="14.00">HITs/colimit</text>
</g>
<!-- types/heq&#45;&gt;HITs/colimit -->
<g id="edge7" class="edge"><title>types/heq&#45;&gt;HITs/colimit</title>
<path fill="none" stroke="black" d="M840.557,-580.161C866.552,-569.133 904.302,-553.117 933.235,-540.843"/>
<polygon fill="black" stroke="black" points="934.84,-543.964 942.679,-536.836 932.106,-537.52 934.84,-543.964"/>
</g>
<!-- HITs/generalized -->
<g id="node12" class="node"><title>HITs/generalized</title>
<ellipse fill="none" stroke="black" cx="1122.29" cy="-522" rx="72.2875" ry="18"/>
<text text-anchor="middle" x="1122.29" y="-518.3" font-family="Times New Roman,serif" font-size="14.00">HITs/generalized</text>
</g>
<!-- types/heq&#45;&gt;HITs/generalized -->
<g id="edge8" class="edge"><title>types/heq&#45;&gt;HITs/generalized</title>
<path fill="none" stroke="black" d="M846.037,-582.437C853.995,-580.207 862.409,-577.944 870.293,-576 872.618,-575.427 984.842,-551.853 1058.73,-536.341"/>
<polygon fill="black" stroke="black" points="1059.82,-539.689 1068.88,-534.209 1058.38,-532.838 1059.82,-539.689"/>
</g>
<!-- HITs/int -->
<g id="node26" class="node"><title>HITs/int</title>
<ellipse fill="none" stroke="black" cx="718.293" cy="-522" rx="40.8928" ry="18"/>
<text text-anchor="middle" x="718.293" y="-518.3" font-family="Times New Roman,serif" font-size="14.00">HITs/int</text>
</g>
<!-- types/heq&#45;&gt;HITs/int -->
<g id="edge24" class="edge"><title>types/heq&#45;&gt;HITs/int</title>
<path fill="none" stroke="black" d="M789.875,-577.465C777.074,-567.725 760.398,-555.036 746.362,-544.357"/>
<polygon fill="black" stroke="black" points="748.1,-541.281 738.022,-538.011 743.861,-546.852 748.1,-541.281"/>
</g>
<!-- HITs/trunc -->
<g id="node27" class="node"><title>HITs/trunc</title>
<ellipse fill="none" stroke="black" cx="537.293" cy="-450" rx="50.8918" ry="18"/>
<text text-anchor="middle" x="537.293" y="-446.3" font-family="Times New Roman,serif" font-size="14.00">HITs/trunc</text>
</g>
<!-- types/heq&#45;&gt;HITs/trunc -->
<g id="edge42" class="edge"><title>types/heq&#45;&gt;HITs/trunc</title>
<path fill="none" stroke="black" d="M774.864,-582.397C745.514,-573.002 703.124,-558.001 668.293,-540 630.766,-520.606 591.101,-492.436 565.379,-473.009"/>
<polygon fill="black" stroke="black" points="567.288,-470.062 557.214,-466.781 563.043,-475.628 567.288,-470.062"/>
</g>
<!-- HITs/pushout -->
<g id="node29" class="node"><title>HITs/pushout</title>
<ellipse fill="none" stroke="black" cx="839.293" cy="-522" rx="61.99" ry="18"/>
<text text-anchor="middle" x="839.293" y="-518.3" font-family="Times New Roman,serif" font-size="14.00">HITs/pushout</text>
</g>
<!-- types/heq&#45;&gt;HITs/pushout -->
<g id="edge32" class="edge"><title>types/heq&#45;&gt;HITs/pushout</title>
<path fill="none" stroke="black" d="M817.313,-576.055C820.577,-568.176 824.538,-558.617 828.193,-549.794"/>
<polygon fill="black" stroke="black" points="831.542,-550.853 832.136,-540.275 825.075,-548.174 831.542,-550.853"/>
</g>
<!-- HITs/infinitesimal -->
<g id="node13" class="node"><title>HITs/infinitesimal</title>
<ellipse fill="none" stroke="black" stroke-dasharray="5,2" cx="987.293" cy="-594" rx="74.9875" ry="18"/>
<text text-anchor="middle" x="987.293" y="-590.3" font-family="Times New Roman,serif" font-size="14.00">HITs/infinitesimal</text>
</g>
<!-- types/equiv -->
<g id="node14" class="node"><title>types/equiv</title>
<ellipse fill="none" stroke="black" cx="847.293" cy="-666" rx="51.9908" ry="18"/>
<text text-anchor="middle" x="847.293" y="-662.3" font-family="Times New Roman,serif" font-size="14.00">types/equiv</text>
</g>
<!-- types/equiv&#45;&gt;types/integers -->
<g id="edge20" class="edge"><title>types/equiv&#45;&gt;types/integers</title>
<path fill="none" stroke="black" d="M852.854,-647.966C860.602,-627.197 876.761,-592.793 903.293,-576 960.028,-540.089 1137.22,-551.944 1203.29,-540 1208.6,-539.041 1214.11,-537.922 1219.59,-536.725"/>
<polygon fill="black" stroke="black" points="1220.42,-540.126 1229.4,-534.504 1218.87,-533.299 1220.42,-540.126"/>
</g>
<!-- types/equiv&#45;&gt;types/heq -->
<g id="edge19" class="edge"><title>types/equiv&#45;&gt;types/heq</title>
<path fill="none" stroke="black" d="M838.336,-648.055C834.019,-639.887 828.746,-629.912 823.943,-620.824"/>
<polygon fill="black" stroke="black" points="826.935,-618.994 819.167,-611.789 820.746,-622.266 826.935,-618.994"/>
</g>
<!-- types/equiv&#45;&gt;HITs/infinitesimal -->
<g id="edge9" class="edge"><title>types/equiv&#45;&gt;HITs/infinitesimal</title>
<path fill="none" stroke="black" d="M875.624,-650.834C896.129,-640.582 924.135,-626.579 946.97,-615.161"/>
<polygon fill="black" stroke="black" points="948.702,-618.209 956.081,-610.606 945.572,-611.948 948.702,-618.209"/>
</g>
<!-- types/coproduct -->
<g id="node15" class="node"><title>types/coproduct</title>
<ellipse fill="none" stroke="black" cx="525.293" cy="-594" rx="70.6878" ry="18"/>
<text text-anchor="middle" x="525.293" y="-590.3" font-family="Times New Roman,serif" font-size="14.00">types/coproduct</text>
</g>
<!-- types/equiv&#45;&gt;types/coproduct -->
<g id="edge10" class="edge"><title>types/equiv&#45;&gt;types/coproduct</title>
<path fill="none" stroke="black" d="M804.534,-655.705C748.835,-643.596 651.057,-622.34 587.239,-608.467"/>
<polygon fill="black" stroke="black" points="587.816,-605.01 577.3,-606.306 586.329,-611.85 587.816,-605.01"/>
</g>
<!-- types/unit -->
<g id="node36" class="node"><title>types/unit</title>
<ellipse fill="none" stroke="black" cx="660.293" cy="-594" rx="46.2923" ry="18"/>
<text text-anchor="middle" x="660.293" y="-590.3" font-family="Times New Roman,serif" font-size="14.00">types/unit</text>
</g>
<!-- types/equiv&#45;&gt;types/unit -->
<g id="edge44" class="edge"><title>types/equiv&#45;&gt;types/unit</title>
<path fill="none" stroke="black" d="M813.429,-652.324C782.104,-640.598 735.452,-623.135 701.877,-610.566"/>
<polygon fill="black" stroke="black" points="702.936,-607.226 692.344,-606.998 700.482,-613.781 702.936,-607.226"/>
</g>
<!-- types/lost -->
<g id="node39" class="node"><title>types/lost</title>
<ellipse fill="none" stroke="black" cx="1126.29" cy="-594" rx="46.2923" ry="18"/>
<text text-anchor="middle" x="1126.29" y="-590.3" font-family="Times New Roman,serif" font-size="14.00">types/lost</text>
</g>
<!-- types/equiv&#45;&gt;types/lost -->
<g id="edge46" class="edge"><title>types/equiv&#45;&gt;types/lost</title>
<path fill="none" stroke="black" d="M890.453,-655.695C935.722,-645.724 1008.83,-629.022 1071.29,-612 1074.83,-611.037 1078.48,-610.001 1082.14,-608.933"/>
<polygon fill="black" stroke="black" points="1083.19,-612.27 1091.78,-606.058 1081.19,-605.562 1083.19,-612.27"/>
</g>
<!-- structures -->
<g id="node37" class="node"><title>structures</title>
<ellipse fill="none" stroke="black" cx="537.293" cy="-522" rx="46.2923" ry="18"/>
<text text-anchor="middle" x="537.293" y="-518.3" font-family="Times New Roman,serif" font-size="14.00">structures</text>
</g>
<!-- types/coproduct&#45;&gt;structures -->
<g id="edge37" class="edge"><title>types/coproduct&#45;&gt;structures</title>
<path fill="none" stroke="black" d="M528.259,-575.697C529.582,-567.983 531.171,-558.712 532.645,-550.112"/>
<polygon fill="black" stroke="black" points="536.121,-550.552 534.361,-540.104 529.221,-549.369 536.121,-550.552"/>
</g>
<!-- types/nat -->
<g id="node38" class="node"><title>types/nat</title>
<ellipse fill="none" stroke="black" cx="429.293" cy="-522" rx="43.5923" ry="18"/>
<text text-anchor="middle" x="429.293" y="-518.3" font-family="Times New Roman,serif" font-size="14.00">types/nat</text>
</g>
<!-- types/coproduct&#45;&gt;types/nat -->
<g id="edge45" class="edge"><title>types/coproduct&#45;&gt;types/nat</title>
<path fill="none" stroke="black" d="M503.027,-576.765C489.6,-566.974 472.358,-554.401 457.923,-543.876"/>
<polygon fill="black" stroke="black" points="459.941,-541.016 449.799,-537.952 455.817,-546.672 459.941,-541.016"/>
</g>
<!-- types/dep_path&#45;&gt;types/equiv -->
<g id="edge21" class="edge"><title>types/dep_path&#45;&gt;types/equiv</title>
<path fill="none" stroke="black" d="M847.293,-719.697C847.293,-711.983 847.293,-702.712 847.293,-694.112"/>
<polygon fill="black" stroke="black" points="850.793,-694.104 847.293,-684.104 843.793,-694.104 850.793,-694.104"/>
</g>
<!-- cubical/Path -->
<g id="node17" class="node"><title>cubical/Path</title>
<ellipse fill="none" stroke="black" cx="399.293" cy="-162" rx="55.4913" ry="18"/>
<text text-anchor="middle" x="399.293" y="-158.3" font-family="Times New Roman,serif" font-size="14.00">cubical/Path</text>
</g>
<!-- cubical/connection -->
<g id="node18" class="node"><title>cubical/connection</title>
<ellipse fill="none" stroke="black" cx="79.293" cy="-90" rx="79.0865" ry="18"/>
<text text-anchor="middle" x="79.293" y="-86.3" font-family="Times New Roman,serif" font-size="14.00">cubical/connection</text>
</g>
<!-- cubical/Path&#45;&gt;cubical/connection -->
<g id="edge12" class="edge"><title>cubical/Path&#45;&gt;cubical/connection</title>
<path fill="none" stroke="black" d="M354.798,-151.267C300.108,-139.303 206.864,-118.906 144.186,-105.195"/>
<polygon fill="black" stroke="black" points="144.917,-101.772 134.4,-103.055 143.421,-108.611 144.917,-101.772"/>
</g>
<!-- cubical/Square -->
<g id="node21" class="node"><title>cubical/Square</title>
<ellipse fill="none" stroke="black" cx="241.293" cy="-90" rx="64.189" ry="18"/>
<text text-anchor="middle" x="241.293" y="-86.3" font-family="Times New Roman,serif" font-size="14.00">cubical/Square</text>
</g>
<!-- cubical/Path&#45;&gt;cubical/Square -->
<g id="edge15" class="edge"><title>cubical/Path&#45;&gt;cubical/Square</title>
<path fill="none" stroke="black" d="M367.699,-147.003C343.557,-136.307 310.042,-121.459 283.588,-109.738"/>
<polygon fill="black" stroke="black" points="284.752,-106.426 274.192,-105.575 281.917,-112.826 284.752,-106.426"/>
</g>
<!-- cubical/example -->
<g id="node22" class="node"><title>cubical/example</title>
<ellipse fill="none" stroke="black" cx="392.293" cy="-90" rx="68.7879" ry="18"/>
<text text-anchor="middle" x="392.293" y="-86.3" font-family="Times New Roman,serif" font-size="14.00">cubical/example</text>
</g>
<!-- cubical/Path&#45;&gt;cubical/example -->
<g id="edge16" class="edge"><title>cubical/Path&#45;&gt;cubical/example</title>
<path fill="none" stroke="black" d="M397.563,-143.697C396.791,-135.983 395.864,-126.712 395.004,-118.112"/>
<polygon fill="black" stroke="black" points="398.481,-117.706 394.003,-108.104 391.516,-118.403 398.481,-117.706"/>
</g>
<!-- cubical/Path&#45;&gt;cubical/V -->
<g id="edge18" class="edge"><title>cubical/Path&#45;&gt;cubical/V</title>
<path fill="none" stroke="black" d="M443.135,-150.98C486.721,-140.833 555.394,-124.347 614.293,-108 617.874,-107.006 621.576,-105.942 625.287,-104.85"/>
<polygon fill="black" stroke="black" points="626.484,-108.145 635.057,-101.919 624.473,-101.44 626.484,-108.145"/>
</g>
<!-- HITs/moebius -->
<g id="node31" class="node"><title>HITs/moebius</title>
<ellipse fill="none" stroke="black" cx="542.293" cy="-90" rx="63.0888" ry="18"/>
<text text-anchor="middle" x="542.293" y="-86.3" font-family="Times New Roman,serif" font-size="14.00">HITs/moebius</text>
</g>
<!-- cubical/Path&#45;&gt;HITs/moebius -->
<g id="edge27" class="edge"><title>cubical/Path&#45;&gt;HITs/moebius</title>
<path fill="none" stroke="black" d="M428.576,-146.666C450.073,-136.143 479.501,-121.737 503.035,-110.217"/>
<polygon fill="black" stroke="black" points="504.62,-113.338 512.063,-105.798 501.543,-107.051 504.62,-113.338"/>
</g>
<!-- types/product -->
<g id="node19" class="node"><title>types/product</title>
<ellipse fill="none" stroke="black" cx="424.293" cy="-306" rx="61.99" ry="18"/>
<text text-anchor="middle" x="424.293" y="-302.3" font-family="Times New Roman,serif" font-size="14.00">types/product</text>
</g>
<!-- types/product&#45;&gt;theorems/ua -->
<g id="edge43" class="edge"><title>types/product&#45;&gt;theorems/ua</title>
<path fill="none" stroke="black" d="M466.689,-292.887C509.216,-280.736 574.68,-262.032 619.618,-249.193"/>
<polygon fill="black" stroke="black" points="620.789,-252.498 629.443,-246.386 618.866,-245.768 620.789,-252.498"/>
</g>
<!-- cubical/cubes -->
<g id="node20" class="node"><title>cubical/cubes</title>
<ellipse fill="none" stroke="black" cx="413.293" cy="-234" rx="60.3893" ry="18"/>
<text text-anchor="middle" x="413.293" y="-230.3" font-family="Times New Roman,serif" font-size="14.00">cubical/cubes</text>
</g>
<!-- types/product&#45;&gt;cubical/cubes -->
<g id="edge13" class="edge"><title>types/product&#45;&gt;cubical/cubes</title>
<path fill="none" stroke="black" d="M421.574,-287.697C420.362,-279.983 418.905,-270.712 417.553,-262.112"/>
<polygon fill="black" stroke="black" points="420.991,-261.44 415.981,-252.104 414.076,-262.526 420.991,-261.44"/>
</g>
<!-- cubical/cubes&#45;&gt;cubical/Path -->
<g id="edge14" class="edge"><title>cubical/cubes&#45;&gt;cubical/Path</title>
<path fill="none" stroke="black" d="M409.832,-215.697C408.29,-207.983 406.435,-198.712 404.715,-190.112"/>
<polygon fill="black" stroke="black" points="408.107,-189.224 402.714,-180.104 401.243,-190.597 408.107,-189.224"/>
</g>
<!-- support&#45;&gt;types/equiv -->
<g id="edge22" class="edge"><title>support&#45;&gt;types/equiv</title>
<path fill="none" stroke="black" d="M746.908,-723.669C765.394,-713.233 791.385,-698.561 812.288,-686.761"/>
<polygon fill="black" stroke="black" points="814.206,-689.698 821.193,-681.734 810.765,-683.602 814.206,-689.698"/>
</g>
<!-- theorems/functions -->
<g id="node25" class="node"><title>theorems/functions</title>
<ellipse fill="none" stroke="black" cx="1012.29" cy="-738" rx="79.8859" ry="18"/>
<text text-anchor="middle" x="1012.29" y="-734.3" font-family="Times New Roman,serif" font-size="14.00">theorems/functions</text>
</g>
<!-- theorems/functions&#45;&gt;types/equiv -->
<g id="edge23" class="edge"><title>theorems/functions&#45;&gt;types/equiv</title>
<path fill="none" stroke="black" d="M976.49,-721.811C950.462,-710.769 915.186,-695.803 888.071,-684.3"/>
<polygon fill="black" stroke="black" points="889.422,-681.071 878.849,-680.387 886.688,-687.515 889.422,-681.071"/>
</g>
<!-- HITs/rat -->
<g id="node34" class="node"><title>HITs/rat</title>
<ellipse fill="none" stroke="black" cx="810.293" cy="-450" rx="41.6928" ry="18"/>
<text text-anchor="middle" x="810.293" y="-446.3" font-family="Times New Roman,serif" font-size="14.00">HITs/rat</text>
</g>
<!-- HITs/int&#45;&gt;HITs/rat -->
<g id="edge33" class="edge"><title>HITs/int&#45;&gt;HITs/rat</title>
<path fill="none" stroke="black" d="M737.804,-506.155C750.767,-496.292 767.987,-483.189 782.391,-472.23"/>
<polygon fill="black" stroke="black" points="784.654,-474.906 790.493,-466.065 780.415,-469.335 784.654,-474.906"/>
</g>
<!-- HITs/interval -->
<g id="node28" class="node"><title>HITs/interval</title>
<ellipse fill="none" stroke="black" cx="446.293" cy="-378" rx="57.6901" ry="18"/>
<text text-anchor="middle" x="446.293" y="-374.3" font-family="Times New Roman,serif" font-size="14.00">HITs/interval</text>
</g>
<!-- HITs/trunc&#45;&gt;HITs/interval -->
<g id="edge25" class="edge"><title>HITs/trunc&#45;&gt;HITs/interval</title>
<path fill="none" stroke="black" d="M517.097,-433.465C504.782,-423.992 488.841,-411.729 475.204,-401.239"/>
<polygon fill="black" stroke="black" points="477.124,-398.3 467.063,-394.977 472.856,-403.848 477.124,-398.3"/>
</g>
<!-- theorems/mere_eq_lemma -->
<g id="node32" class="node"><title>theorems/mere_eq_lemma</title>
<ellipse fill="none" stroke="black" cx="628.293" cy="-378" rx="105.881" ry="18"/>
<text text-anchor="middle" x="628.293" y="-374.3" font-family="Times New Roman,serif" font-size="14.00">theorems/mere_eq_lemma</text>
</g>
<!-- HITs/trunc&#45;&gt;theorems/mere_eq_lemma -->
<g id="edge28" class="edge"><title>HITs/trunc&#45;&gt;theorems/mere_eq_lemma</title>
<path fill="none" stroke="black" d="M557.489,-433.465C569.544,-424.192 585.073,-412.246 598.515,-401.906"/>
<polygon fill="black" stroke="black" points="600.773,-404.585 606.565,-395.714 596.505,-399.037 600.773,-404.585"/>
</g>
<!-- HITs/interval&#45;&gt;types/product -->
<g id="edge30" class="edge"><title>HITs/interval&#45;&gt;types/product</title>
<path fill="none" stroke="black" d="M440.967,-360.055C438.518,-352.261 435.551,-342.822 432.803,-334.079"/>
<polygon fill="black" stroke="black" points="436.06,-332.766 429.722,-324.275 429.382,-334.865 436.06,-332.766"/>
</g>
<!-- theorems/prop -->
<g id="node33" class="node"><title>theorems/prop</title>
<ellipse fill="none" stroke="black" cx="567.293" cy="-306" rx="63.8893" ry="18"/>
<text text-anchor="middle" x="567.293" y="-302.3" font-family="Times New Roman,serif" font-size="14.00">theorems/prop</text>
</g>
<!-- HITs/interval&#45;&gt;theorems/prop -->
<g id="edge31" class="edge"><title>HITs/interval&#45;&gt;theorems/prop</title>
<path fill="none" stroke="black" d="M472.548,-361.811C489.949,-351.744 512.986,-338.418 531.986,-327.426"/>
<polygon fill="black" stroke="black" points="533.768,-330.438 540.671,-322.401 530.263,-324.379 533.768,-330.438"/>
</g>
<!-- HITs/pushout&#45;&gt;HITs/suspension -->
<g id="edge39" class="edge"><title>HITs/pushout&#45;&gt;HITs/suspension</title>
<path fill="none" stroke="black" d="M806.324,-506.666C781.989,-496.085 748.626,-481.58 722.058,-470.028"/>
<polygon fill="black" stroke="black" points="723.173,-466.697 712.607,-465.919 720.382,-473.116 723.173,-466.697"/>
</g>
<!-- HITs/join -->
<g id="node30" class="node"><title>HITs/join</title>
<ellipse fill="none" stroke="black" cx="915.293" cy="-450" rx="45.4919" ry="18"/>
<text text-anchor="middle" x="915.293" y="-446.3" font-family="Times New Roman,serif" font-size="14.00">HITs/join</text>
</g>
<!-- HITs/pushout&#45;&gt;HITs/join -->
<g id="edge26" class="edge"><title>HITs/pushout&#45;&gt;HITs/join</title>
<path fill="none" stroke="black" d="M857.304,-504.411C867.265,-495.237 879.787,-483.703 890.644,-473.703"/>
<polygon fill="black" stroke="black" points="893.21,-476.098 898.194,-466.749 888.468,-470.949 893.21,-476.098"/>
</g>
<!-- HITs/pushout&#45;&gt;HITs/reals -->
<g id="edge34" class="edge"><title>HITs/pushout&#45;&gt;HITs/reals</title>
<path fill="none" stroke="black" d="M883.904,-509.519C933.074,-496.865 1011.91,-476.577 1062.64,-463.521"/>
<polygon fill="black" stroke="black" points="1063.58,-466.893 1072.39,-461.011 1061.84,-460.114 1063.58,-466.893"/>
</g>
<!-- types/unit&#45;&gt;HITs/suspension -->
<g id="edge40" class="edge"><title>types/unit&#45;&gt;HITs/suspension</title>
<path fill="none" stroke="black" d="M661.338,-575.882C662.549,-557.921 664.834,-528.893 668.293,-504 669.471,-495.522 671.083,-486.342 672.668,-478.041"/>
<polygon fill="black" stroke="black" points="676.124,-478.605 674.628,-468.117 669.257,-477.249 676.124,-478.605"/>
</g>
<!-- types/unit&#45;&gt;structures -->
<g id="edge36" class="edge"><title>types/unit&#45;&gt;structures</title>
<path fill="none" stroke="black" d="M635.402,-578.834C617.018,-568.372 591.772,-554.004 571.494,-542.464"/>
<polygon fill="black" stroke="black" points="572.991,-539.289 562.569,-537.385 569.529,-545.373 572.991,-539.289"/>
</g>
<!-- structures&#45;&gt;HITs/trunc -->
<g id="edge41" class="edge"><title>structures&#45;&gt;HITs/trunc</title>
<path fill="none" stroke="black" d="M537.293,-503.697C537.293,-495.983 537.293,-486.712 537.293,-478.112"/>
<polygon fill="black" stroke="black" points="540.793,-478.104 537.293,-468.104 533.793,-478.104 540.793,-478.104"/>
</g>
<!-- types/sigma -->
<g id="node40" class="node"><title>types/sigma</title>
<ellipse fill="none" stroke="black" cx="990.293" cy="-882" rx="53.8905" ry="18"/>
<text text-anchor="middle" x="990.293" y="-878.3" font-family="Times New Roman,serif" font-size="14.00">types/sigma</text>
</g>
</g>
</svg>
