<?xml version="1.0" encoding="UTF-8" standalone="no"?>
<!DOCTYPE svg PUBLIC "-//W3C//DTD SVG 1.1//EN"
 "http://www.w3.org/Graphics/SVG/1.1/DTD/svg11.dtd">
<!-- Generated by graphviz version 2.38.0 (20140413.2041)
 -->
<!-- Title: dependency_map Pages: 1 -->
<svg width="924pt" height="908pt"
 viewBox="0.00 0.00 923.59 908.00" xmlns="http://www.w3.org/2000/svg" xmlns:xlink="http://www.w3.org/1999/xlink">
<g id="graph0" class="graph" transform="scale(1 1) rotate(0) translate(4 904)">
<title>dependency_map</title>
<polygon fill="white" stroke="none" points="-4,4 -4,-904 919.591,-904 919.591,4 -4,4"/>
<!-- proto -->
<g id="node1" class="node"><title>proto</title>
<ellipse fill="none" stroke="black" cx="376.445" cy="-882" rx="30.5947" ry="18"/>
<text text-anchor="middle" x="376.445" y="-878.3" font-family="Times New Roman,serif" font-size="14.00">proto</text>
</g>
<!-- types/eq -->
<g id="node2" class="node"><title>types/eq</title>
<ellipse fill="none" stroke="black" cx="436.445" cy="-810" rx="41.6928" ry="18"/>
<text text-anchor="middle" x="436.445" y="-806.3" font-family="Times New Roman,serif" font-size="14.00">types/eq</text>
</g>
<!-- proto&#45;&gt;types/eq -->
<g id="edge1" class="edge"><title>proto&#45;&gt;types/eq</title>
<path fill="none" stroke="black" d="M389.761,-865.465C397.388,-856.566 407.126,-845.205 415.732,-835.164"/>
<polygon fill="black" stroke="black" points="418.479,-837.338 422.33,-827.467 413.165,-832.782 418.479,-837.338"/>
</g>
<!-- types/dep_path -->
<g id="node13" class="node"><title>types/dep_path</title>
<ellipse fill="none" stroke="black" cx="498.445" cy="-738" rx="66.8882" ry="18"/>
<text text-anchor="middle" x="498.445" y="-734.3" font-family="Times New Roman,serif" font-size="14.00">types/dep_path</text>
</g>
<!-- types/eq&#45;&gt;types/dep_path -->
<g id="edge9" class="edge"><title>types/eq&#45;&gt;types/dep_path</title>
<path fill="none" stroke="black" d="M450.825,-792.765C458.615,-783.969 468.394,-772.928 477.06,-763.144"/>
<polygon fill="black" stroke="black" points="479.702,-765.44 483.712,-755.633 474.462,-760.799 479.702,-765.44"/>
</g>
<!-- support -->
<g id="node22" class="node"><title>support</title>
<ellipse fill="none" stroke="black" cx="374.445" cy="-738" rx="38.9931" ry="18"/>
<text text-anchor="middle" x="374.445" y="-734.3" font-family="Times New Roman,serif" font-size="14.00">support</text>
</g>
<!-- types/eq&#45;&gt;support -->
<g id="edge36" class="edge"><title>types/eq&#45;&gt;support</title>
<path fill="none" stroke="black" d="M422.065,-792.765C414.161,-783.841 404.212,-772.608 395.453,-762.719"/>
<polygon fill="black" stroke="black" points="397.997,-760.313 388.747,-755.147 392.757,-764.954 397.997,-760.313"/>
</g>
<!-- meta/hott_theory -->
<g id="node3" class="node"><title>meta/hott_theory</title>
<ellipse fill="none" stroke="black" cx="497.445" cy="-882" rx="72.2875" ry="18"/>
<text text-anchor="middle" x="497.445" y="-878.3" font-family="Times New Roman,serif" font-size="14.00">meta/hott_theory</text>
</g>
<!-- meta/hott_theory&#45;&gt;types/eq -->
<g id="edge2" class="edge"><title>meta/hott_theory&#45;&gt;types/eq</title>
<path fill="none" stroke="black" d="M482.678,-864.055C475.075,-855.33 465.676,-844.544 457.342,-834.981"/>
<polygon fill="black" stroke="black" points="459.864,-832.547 450.655,-827.307 454.586,-837.146 459.864,-832.547"/>
</g>
<!-- algebra -->
<g id="node4" class="node"><title>algebra</title>
<ellipse fill="none" stroke="black" stroke-dasharray="5,2" cx="86.4446" cy="-18" rx="36.2938" ry="18"/>
<text text-anchor="middle" x="86.4446" y="-14.3" font-family="Times New Roman,serif" font-size="14.00">algebra</text>
</g>
<!-- HITs/ntrunc -->
<g id="node5" class="node"><title>HITs/ntrunc</title>
<ellipse fill="none" stroke="black" stroke-dasharray="5,2" cx="86.4446" cy="-90" rx="55.4913" ry="18"/>
<text text-anchor="middle" x="86.4446" y="-86.3" font-family="Times New Roman,serif" font-size="14.00">HITs/ntrunc</text>
</g>
<!-- HITs/ntrunc&#45;&gt;algebra -->
<g id="edge3" class="edge"><title>HITs/ntrunc&#45;&gt;algebra</title>
<path fill="none" stroke="black" d="M86.4446,-71.6966C86.4446,-63.9827 86.4446,-54.7125 86.4446,-46.1124"/>
<polygon fill="black" stroke="black" points="89.9447,-46.1043 86.4446,-36.1043 82.9447,-46.1044 89.9447,-46.1043"/>
</g>
<!-- HITs/circle -->
<g id="node6" class="node"><title>HITs/circle</title>
<ellipse fill="none" stroke="black" stroke-dasharray="5,2" cx="95.4446" cy="-162" rx="51.9908" ry="18"/>
<text text-anchor="middle" x="95.4446" y="-158.3" font-family="Times New Roman,serif" font-size="14.00">HITs/circle</text>
</g>
<!-- HITs/circle&#45;&gt;HITs/ntrunc -->
<g id="edge27" class="edge"><title>HITs/circle&#45;&gt;HITs/ntrunc</title>
<path fill="none" stroke="black" d="M93.2199,-143.697C92.2281,-135.983 91.0362,-126.712 89.9305,-118.112"/>
<polygon fill="black" stroke="black" points="93.3905,-117.576 88.6438,-108.104 86.4476,-118.469 93.3905,-117.576"/>
</g>
<!-- types/integers -->
<g id="node7" class="node"><title>types/integers</title>
<ellipse fill="none" stroke="black" cx="60.4446" cy="-522" rx="60.3893" ry="18"/>
<text text-anchor="middle" x="60.4446" y="-518.3" font-family="Times New Roman,serif" font-size="14.00">types/integers</text>
</g>
<!-- types/integers&#45;&gt;HITs/circle -->
<g id="edge4" class="edge"><title>types/integers&#45;&gt;HITs/circle</title>
<path fill="none" stroke="black" d="M46.6373,-504.321C39.0349,-494.344 30.0349,-481.094 24.4446,-468 8.56384,-430.801 5.44464,-419.447 5.44464,-379 5.44464,-379 5.44464,-379 5.44464,-305 5.44464,-256.917 42.714,-211.915 69.2863,-185.94"/>
<polygon fill="black" stroke="black" points="71.9479,-188.24 76.7966,-178.819 67.1316,-183.16 71.9479,-188.24"/>
</g>
<!-- HITs/reals -->
<g id="node33" class="node"><title>HITs/reals</title>
<ellipse fill="none" stroke="black" cx="82.4446" cy="-450" rx="48.9926" ry="18"/>
<text text-anchor="middle" x="82.4446" y="-446.3" font-family="Times New Roman,serif" font-size="14.00">HITs/reals</text>
</g>
<!-- types/integers&#45;&gt;HITs/reals -->
<g id="edge33" class="edge"><title>types/integers&#45;&gt;HITs/reals</title>
<path fill="none" stroke="black" d="M65.7702,-504.055C68.2198,-496.261 71.1863,-486.822 73.9341,-478.079"/>
<polygon fill="black" stroke="black" points="77.3559,-478.865 77.0153,-468.275 70.6779,-476.766 77.3559,-478.865"/>
</g>
<!-- HITs/suspension -->
<g id="node8" class="node"><title>HITs/suspension</title>
<ellipse fill="none" stroke="black" cx="431.445" cy="-450" rx="72.5877" ry="18"/>
<text text-anchor="middle" x="431.445" y="-446.3" font-family="Times New Roman,serif" font-size="14.00">HITs/suspension</text>
</g>
<!-- HITs/suspension&#45;&gt;HITs/circle -->
<g id="edge5" class="edge"><title>HITs/suspension&#45;&gt;HITs/circle</title>
<path fill="none" stroke="black" d="M388.45,-435.363C335.674,-416.918 245.772,-379.773 185.445,-324 144.355,-286.013 117.425,-224.866 104.47,-189.879"/>
<polygon fill="black" stroke="black" points="107.716,-188.56 101.042,-180.331 101.127,-190.925 107.716,-188.56"/>
</g>
<!-- theorems/ua -->
<g id="node9" class="node"><title>theorems/ua</title>
<ellipse fill="none" stroke="black" stroke-dasharray="5,2" cx="205.445" cy="-234" rx="54.6905" ry="18"/>
<text text-anchor="middle" x="205.445" y="-230.3" font-family="Times New Roman,serif" font-size="14.00">theorems/ua</text>
</g>
<!-- theorems/ua&#45;&gt;HITs/circle -->
<g id="edge6" class="edge"><title>theorems/ua&#45;&gt;HITs/circle</title>
<path fill="none" stroke="black" d="M181.576,-217.811C165.864,-207.813 145.098,-194.598 127.893,-183.649"/>
<polygon fill="black" stroke="black" points="129.582,-180.575 119.266,-178.159 125.824,-186.481 129.582,-180.575"/>
</g>
<!-- cubical/V -->
<g id="node20" class="node"><title>cubical/V</title>
<ellipse fill="none" stroke="black" stroke-dasharray="5,2" cx="205.445" cy="-90" rx="45.4919" ry="18"/>
<text text-anchor="middle" x="205.445" y="-86.3" font-family="Times New Roman,serif" font-size="14.00">cubical/V</text>
</g>
<!-- theorems/ua&#45;&gt;cubical/V -->
<g id="edge15" class="edge"><title>theorems/ua&#45;&gt;cubical/V</title>
<path fill="none" stroke="black" d="M205.445,-215.871C205.445,-191.67 205.445,-147.211 205.445,-118.393"/>
<polygon fill="black" stroke="black" points="208.945,-118.189 205.445,-108.189 201.945,-118.189 208.945,-118.189"/>
</g>
<!-- HITs/infinitesimal -->
<g id="node10" class="node"><title>HITs/infinitesimal</title>
<ellipse fill="none" stroke="black" stroke-dasharray="5,2" cx="730.445" cy="-594" rx="74.9875" ry="18"/>
<text text-anchor="middle" x="730.445" y="-590.3" font-family="Times New Roman,serif" font-size="14.00">HITs/infinitesimal</text>
</g>
<!-- types/equiv -->
<g id="node11" class="node"><title>types/equiv</title>
<ellipse fill="none" stroke="black" cx="498.445" cy="-666" rx="51.9908" ry="18"/>
<text text-anchor="middle" x="498.445" y="-662.3" font-family="Times New Roman,serif" font-size="14.00">types/equiv</text>
</g>
<!-- types/equiv&#45;&gt;types/integers -->
<g id="edge18" class="edge"><title>types/equiv&#45;&gt;types/integers</title>
<path fill="none" stroke="black" d="M452.868,-657.148C405.596,-648.412 329.861,-632.749 266.445,-612 206.501,-592.387 139.991,-561.988 99.1916,-542.288"/>
<polygon fill="black" stroke="black" points="100.665,-539.113 90.1407,-537.89 97.6049,-545.409 100.665,-539.113"/>
</g>
<!-- types/equiv&#45;&gt;HITs/infinitesimal -->
<g id="edge7" class="edge"><title>types/equiv&#45;&gt;HITs/infinitesimal</title>
<path fill="none" stroke="black" d="M536.236,-653.597C574.116,-642.168 632.823,-624.455 675.779,-611.494"/>
<polygon fill="black" stroke="black" points="676.95,-614.796 685.513,-608.557 674.928,-608.095 676.95,-614.796"/>
</g>
<!-- types/coproduct -->
<g id="node12" class="node"><title>types/coproduct</title>
<ellipse fill="none" stroke="black" cx="566.445" cy="-594" rx="70.6878" ry="18"/>
<text text-anchor="middle" x="566.445" y="-590.3" font-family="Times New Roman,serif" font-size="14.00">types/coproduct</text>
</g>
<!-- types/equiv&#45;&gt;types/coproduct -->
<g id="edge8" class="edge"><title>types/equiv&#45;&gt;types/coproduct</title>
<path fill="none" stroke="black" d="M514.216,-648.765C522.845,-639.882 533.698,-628.709 543.272,-618.854"/>
<polygon fill="black" stroke="black" points="545.829,-621.245 550.286,-611.633 540.808,-616.367 545.829,-621.245"/>
</g>
<!-- types/heq -->
<g id="node21" class="node"><title>types/heq</title>
<ellipse fill="none" stroke="black" cx="321.445" cy="-594" rx="46.2923" ry="18"/>
<text text-anchor="middle" x="321.445" y="-590.3" font-family="Times New Roman,serif" font-size="14.00">types/heq</text>
</g>
<!-- types/equiv&#45;&gt;types/heq -->
<g id="edge17" class="edge"><title>types/equiv&#45;&gt;types/heq</title>
<path fill="none" stroke="black" d="M465.567,-651.998C436.303,-640.424 393.392,-623.454 362.005,-611.041"/>
<polygon fill="black" stroke="black" points="363.248,-607.769 352.661,-607.346 360.673,-614.278 363.248,-607.769"/>
</g>
<!-- types/unit -->
<g id="node34" class="node"><title>types/unit</title>
<ellipse fill="none" stroke="black" cx="431.445" cy="-594" rx="46.2923" ry="18"/>
<text text-anchor="middle" x="431.445" y="-590.3" font-family="Times New Roman,serif" font-size="14.00">types/unit</text>
</g>
<!-- types/equiv&#45;&gt;types/unit -->
<g id="edge42" class="edge"><title>types/equiv&#45;&gt;types/unit</title>
<path fill="none" stroke="black" d="M482.905,-648.765C474.28,-639.753 463.399,-628.385 453.867,-618.426"/>
<polygon fill="black" stroke="black" points="456.343,-615.951 446.9,-611.147 451.286,-620.792 456.343,-615.951"/>
</g>
<!-- types/lost -->
<g id="node37" class="node"><title>types/lost</title>
<ellipse fill="none" stroke="black" cx="869.445" cy="-594" rx="46.2923" ry="18"/>
<text text-anchor="middle" x="869.445" y="-590.3" font-family="Times New Roman,serif" font-size="14.00">types/lost</text>
</g>
<!-- types/equiv&#45;&gt;types/lost -->
<g id="edge44" class="edge"><title>types/equiv&#45;&gt;types/lost</title>
<path fill="none" stroke="black" d="M546.489,-658.977C608.773,-650.706 720.539,-634.282 814.445,-612 818.061,-611.142 821.787,-610.174 825.515,-609.147"/>
<polygon fill="black" stroke="black" points="826.673,-612.456 835.313,-606.324 824.734,-605.73 826.673,-612.456"/>
</g>
<!-- structures -->
<g id="node35" class="node"><title>structures</title>
<ellipse fill="none" stroke="black" cx="535.445" cy="-522" rx="46.2923" ry="18"/>
<text text-anchor="middle" x="535.445" y="-518.3" font-family="Times New Roman,serif" font-size="14.00">structures</text>
</g>
<!-- types/coproduct&#45;&gt;structures -->
<g id="edge35" class="edge"><title>types/coproduct&#45;&gt;structures</title>
<path fill="none" stroke="black" d="M558.94,-576.055C555.361,-567.973 550.998,-558.121 547.008,-549.112"/>
<polygon fill="black" stroke="black" points="550.129,-547.515 542.88,-539.789 543.729,-550.35 550.129,-547.515"/>
</g>
<!-- types/nat -->
<g id="node36" class="node"><title>types/nat</title>
<ellipse fill="none" stroke="black" cx="643.445" cy="-522" rx="43.5923" ry="18"/>
<text text-anchor="middle" x="643.445" y="-518.3" font-family="Times New Roman,serif" font-size="14.00">types/nat</text>
</g>
<!-- types/coproduct&#45;&gt;types/nat -->
<g id="edge43" class="edge"><title>types/coproduct&#45;&gt;types/nat</title>
<path fill="none" stroke="black" d="M584.693,-576.411C594.784,-567.237 607.471,-555.703 618.471,-545.703"/>
<polygon fill="black" stroke="black" points="621.076,-548.065 626.121,-538.749 616.367,-542.886 621.076,-548.065"/>
</g>
<!-- types/dep_path&#45;&gt;types/equiv -->
<g id="edge19" class="edge"><title>types/dep_path&#45;&gt;types/equiv</title>
<path fill="none" stroke="black" d="M498.445,-719.697C498.445,-711.983 498.445,-702.712 498.445,-694.112"/>
<polygon fill="black" stroke="black" points="501.945,-694.104 498.445,-684.104 494.945,-694.104 501.945,-694.104"/>
</g>
<!-- cubical/Path -->
<g id="node14" class="node"><title>cubical/Path</title>
<ellipse fill="none" stroke="black" cx="449.445" cy="-162" rx="55.4913" ry="18"/>
<text text-anchor="middle" x="449.445" y="-158.3" font-family="Times New Roman,serif" font-size="14.00">cubical/Path</text>
</g>
<!-- cubical/connection -->
<g id="node15" class="node"><title>cubical/connection</title>
<ellipse fill="none" stroke="black" cx="647.445" cy="-90" rx="79.0865" ry="18"/>
<text text-anchor="middle" x="647.445" y="-86.3" font-family="Times New Roman,serif" font-size="14.00">cubical/connection</text>
</g>
<!-- cubical/Path&#45;&gt;cubical/connection -->
<g id="edge10" class="edge"><title>cubical/Path&#45;&gt;cubical/connection</title>
<path fill="none" stroke="black" d="M485.761,-148.161C516.988,-137.121 562.349,-121.084 597.082,-108.805"/>
<polygon fill="black" stroke="black" points="598.315,-112.081 606.577,-105.448 595.982,-105.482 598.315,-112.081"/>
</g>
<!-- cubical/Square -->
<g id="node18" class="node"><title>cubical/Square</title>
<ellipse fill="none" stroke="black" cx="809.445" cy="-90" rx="64.189" ry="18"/>
<text text-anchor="middle" x="809.445" y="-86.3" font-family="Times New Roman,serif" font-size="14.00">cubical/Square</text>
</g>
<!-- cubical/Path&#45;&gt;cubical/Square -->
<g id="edge13" class="edge"><title>cubical/Path&#45;&gt;cubical/Square</title>
<path fill="none" stroke="black" d="M497.134,-152.803C554.007,-142.879 651.881,-125.333 735.445,-108 740.769,-106.896 746.299,-105.706 751.829,-104.487"/>
<polygon fill="black" stroke="black" points="752.745,-107.868 761.742,-102.273 751.219,-101.037 752.745,-107.868"/>
</g>
<!-- cubical/example -->
<g id="node19" class="node"><title>cubical/example</title>
<ellipse fill="none" stroke="black" cx="337.445" cy="-90" rx="68.7879" ry="18"/>
<text text-anchor="middle" x="337.445" y="-86.3" font-family="Times New Roman,serif" font-size="14.00">cubical/example</text>
</g>
<!-- cubical/Path&#45;&gt;cubical/example -->
<g id="edge14" class="edge"><title>cubical/Path&#45;&gt;cubical/example</title>
<path fill="none" stroke="black" d="M425.142,-145.811C409.473,-136.018 388.868,-123.14 371.568,-112.327"/>
<polygon fill="black" stroke="black" points="373.201,-109.22 362.866,-106.888 369.491,-115.156 373.201,-109.22"/>
</g>
<!-- cubical/Path&#45;&gt;cubical/V -->
<g id="edge16" class="edge"><title>cubical/Path&#45;&gt;cubical/V</title>
<path fill="none" stroke="black" d="M408.192,-149.914C369.63,-139.451 310.495,-123.151 259.445,-108 256.141,-107.019 252.729,-105.989 249.301,-104.94"/>
<polygon fill="black" stroke="black" points="250.26,-101.573 239.672,-101.962 248.192,-108.26 250.26,-101.573"/>
</g>
<!-- HITs/moebius -->
<g id="node29" class="node"><title>HITs/moebius</title>
<ellipse fill="none" stroke="black" cx="487.445" cy="-90" rx="63.0888" ry="18"/>
<text text-anchor="middle" x="487.445" y="-86.3" font-family="Times New Roman,serif" font-size="14.00">HITs/moebius</text>
</g>
<!-- cubical/Path&#45;&gt;HITs/moebius -->
<g id="edge25" class="edge"><title>cubical/Path&#45;&gt;HITs/moebius</title>
<path fill="none" stroke="black" d="M458.643,-144.055C463.012,-136.007 468.334,-126.205 473.208,-117.226"/>
<polygon fill="black" stroke="black" points="476.372,-118.734 478.067,-108.275 470.22,-115.394 476.372,-118.734"/>
</g>
<!-- types/product -->
<g id="node16" class="node"><title>types/product</title>
<ellipse fill="none" stroke="black" cx="256.445" cy="-306" rx="61.99" ry="18"/>
<text text-anchor="middle" x="256.445" y="-302.3" font-family="Times New Roman,serif" font-size="14.00">types/product</text>
</g>
<!-- types/product&#45;&gt;theorems/ua -->
<g id="edge41" class="edge"><title>types/product&#45;&gt;theorems/ua</title>
<path fill="none" stroke="black" d="M244.099,-288.055C237.96,-279.629 230.42,-269.28 223.634,-259.966"/>
<polygon fill="black" stroke="black" points="226.394,-257.81 217.677,-251.789 220.736,-261.932 226.394,-257.81"/>
</g>
<!-- cubical/cubes -->
<g id="node17" class="node"><title>cubical/cubes</title>
<ellipse fill="none" stroke="black" cx="412.445" cy="-234" rx="60.3893" ry="18"/>
<text text-anchor="middle" x="412.445" y="-230.3" font-family="Times New Roman,serif" font-size="14.00">cubical/cubes</text>
</g>
<!-- types/product&#45;&gt;cubical/cubes -->
<g id="edge11" class="edge"><title>types/product&#45;&gt;cubical/cubes</title>
<path fill="none" stroke="black" d="M288.768,-290.496C312.693,-279.761 345.469,-265.053 371.27,-253.476"/>
<polygon fill="black" stroke="black" points="372.739,-256.653 380.43,-249.366 369.874,-250.266 372.739,-256.653"/>
</g>
<!-- cubical/cubes&#45;&gt;cubical/Path -->
<g id="edge12" class="edge"><title>cubical/cubes&#45;&gt;cubical/Path</title>
<path fill="none" stroke="black" d="M421.401,-216.055C425.719,-207.887 430.991,-197.912 435.795,-188.824"/>
<polygon fill="black" stroke="black" points="438.992,-190.266 440.57,-179.789 432.803,-186.994 438.992,-190.266"/>
</g>
<!-- HITs/int -->
<g id="node24" class="node"><title>HITs/int</title>
<ellipse fill="none" stroke="black" cx="321.445" cy="-522" rx="40.8928" ry="18"/>
<text text-anchor="middle" x="321.445" y="-518.3" font-family="Times New Roman,serif" font-size="14.00">HITs/int</text>
</g>
<!-- types/heq&#45;&gt;HITs/int -->
<g id="edge22" class="edge"><title>types/heq&#45;&gt;HITs/int</title>
<path fill="none" stroke="black" d="M321.445,-575.697C321.445,-567.983 321.445,-558.712 321.445,-550.112"/>
<polygon fill="black" stroke="black" points="324.945,-550.104 321.445,-540.104 317.945,-550.104 324.945,-550.104"/>
</g>
<!-- HITs/trunc -->
<g id="node25" class="node"><title>HITs/trunc</title>
<ellipse fill="none" stroke="black" cx="572.445" cy="-450" rx="50.8918" ry="18"/>
<text text-anchor="middle" x="572.445" y="-446.3" font-family="Times New Roman,serif" font-size="14.00">HITs/trunc</text>
</g>
<!-- types/heq&#45;&gt;HITs/trunc -->
<g id="edge40" class="edge"><title>types/heq&#45;&gt;HITs/trunc</title>
<path fill="none" stroke="black" d="M346.429,-578.865C391.465,-553.387 486.337,-499.714 537.68,-470.668"/>
<polygon fill="black" stroke="black" points="539.457,-473.684 546.437,-465.714 536.01,-467.591 539.457,-473.684"/>
</g>
<!-- HITs/pushout -->
<g id="node27" class="node"><title>HITs/pushout</title>
<ellipse fill="none" stroke="black" cx="200.445" cy="-522" rx="61.99" ry="18"/>
<text text-anchor="middle" x="200.445" y="-518.3" font-family="Times New Roman,serif" font-size="14.00">HITs/pushout</text>
</g>
<!-- types/heq&#45;&gt;HITs/pushout -->
<g id="edge30" class="edge"><title>types/heq&#45;&gt;HITs/pushout</title>
<path fill="none" stroke="black" d="M296.666,-578.666C279.118,-568.514 255.323,-554.748 235.787,-543.446"/>
<polygon fill="black" stroke="black" points="237.275,-540.263 226.867,-538.285 233.77,-546.323 237.275,-540.263"/>
</g>
<!-- support&#45;&gt;types/equiv -->
<g id="edge20" class="edge"><title>support&#45;&gt;types/equiv</title>
<path fill="none" stroke="black" d="M398.06,-723.669C416.546,-713.233 442.537,-698.561 463.44,-686.761"/>
<polygon fill="black" stroke="black" points="465.357,-689.698 472.345,-681.734 461.916,-683.602 465.357,-689.698"/>
</g>
<!-- theorems/functions -->
<g id="node23" class="node"><title>theorems/functions</title>
<ellipse fill="none" stroke="black" cx="663.445" cy="-738" rx="79.8859" ry="18"/>
<text text-anchor="middle" x="663.445" y="-734.3" font-family="Times New Roman,serif" font-size="14.00">theorems/functions</text>
</g>
<!-- theorems/functions&#45;&gt;types/equiv -->
<g id="edge21" class="edge"><title>theorems/functions&#45;&gt;types/equiv</title>
<path fill="none" stroke="black" d="M627.642,-721.811C601.613,-710.769 566.337,-695.803 539.223,-684.3"/>
<polygon fill="black" stroke="black" points="540.573,-681.071 530.001,-680.387 537.839,-687.515 540.573,-681.071"/>
</g>
<!-- HITs/rat -->
<g id="node32" class="node"><title>HITs/rat</title>
<ellipse fill="none" stroke="black" cx="299.445" cy="-450" rx="41.6928" ry="18"/>
<text text-anchor="middle" x="299.445" y="-446.3" font-family="Times New Roman,serif" font-size="14.00">HITs/rat</text>
</g>
<!-- HITs/int&#45;&gt;HITs/rat -->
<g id="edge31" class="edge"><title>HITs/int&#45;&gt;HITs/rat</title>
<path fill="none" stroke="black" d="M316.119,-504.055C313.669,-496.261 310.703,-486.822 307.955,-478.079"/>
<polygon fill="black" stroke="black" points="311.211,-476.766 304.874,-468.275 304.533,-478.865 311.211,-476.766"/>
</g>
<!-- HITs/interval -->
<g id="node26" class="node"><title>HITs/interval</title>
<ellipse fill="none" stroke="black" cx="396.445" cy="-378" rx="57.6901" ry="18"/>
<text text-anchor="middle" x="396.445" y="-374.3" font-family="Times New Roman,serif" font-size="14.00">HITs/interval</text>
</g>
<!-- HITs/trunc&#45;&gt;HITs/interval -->
<g id="edge23" class="edge"><title>HITs/trunc&#45;&gt;HITs/interval</title>
<path fill="none" stroke="black" d="M539.753,-435.998C511.766,-424.866 471.227,-408.743 440.403,-396.483"/>
<polygon fill="black" stroke="black" points="441.35,-393.093 430.764,-392.65 438.763,-399.598 441.35,-393.093"/>
</g>
<!-- theorems/mere_eq_lemma -->
<g id="node30" class="node"><title>theorems/mere_eq_lemma</title>
<ellipse fill="none" stroke="black" cx="578.445" cy="-378" rx="105.881" ry="18"/>
<text text-anchor="middle" x="578.445" y="-374.3" font-family="Times New Roman,serif" font-size="14.00">theorems/mere_eq_lemma</text>
</g>
<!-- HITs/trunc&#45;&gt;theorems/mere_eq_lemma -->
<g id="edge26" class="edge"><title>HITs/trunc&#45;&gt;theorems/mere_eq_lemma</title>
<path fill="none" stroke="black" d="M573.928,-431.697C574.589,-423.983 575.384,-414.712 576.121,-406.112"/>
<polygon fill="black" stroke="black" points="579.612,-406.367 576.979,-396.104 572.637,-405.769 579.612,-406.367"/>
</g>
<!-- HITs/interval&#45;&gt;types/product -->
<g id="edge28" class="edge"><title>HITs/interval&#45;&gt;types/product</title>
<path fill="none" stroke="black" d="M367.096,-362.326C346.237,-351.896 318.007,-337.781 295.282,-326.419"/>
<polygon fill="black" stroke="black" points="296.746,-323.238 286.237,-321.896 293.616,-329.499 296.746,-323.238"/>
</g>
<!-- theorems/prop -->
<g id="node31" class="node"><title>theorems/prop</title>
<ellipse fill="none" stroke="black" cx="399.445" cy="-306" rx="63.8893" ry="18"/>
<text text-anchor="middle" x="399.445" y="-302.3" font-family="Times New Roman,serif" font-size="14.00">theorems/prop</text>
</g>
<!-- HITs/interval&#45;&gt;theorems/prop -->
<g id="edge29" class="edge"><title>HITs/interval&#45;&gt;theorems/prop</title>
<path fill="none" stroke="black" d="M397.186,-359.697C397.517,-351.983 397.914,-342.712 398.283,-334.112"/>
<polygon fill="black" stroke="black" points="401.78,-334.245 398.712,-324.104 394.787,-333.945 401.78,-334.245"/>
</g>
<!-- HITs/pushout&#45;&gt;HITs/suspension -->
<g id="edge37" class="edge"><title>HITs/pushout&#45;&gt;HITs/suspension</title>
<path fill="none" stroke="black" d="M241.743,-508.485C279.707,-496.981 336.221,-479.856 377.691,-467.289"/>
<polygon fill="black" stroke="black" points="378.803,-470.609 387.358,-464.36 376.773,-463.91 378.803,-470.609"/>
</g>
<!-- HITs/join -->
<g id="node28" class="node"><title>HITs/join</title>
<ellipse fill="none" stroke="black" cx="194.445" cy="-450" rx="45.4919" ry="18"/>
<text text-anchor="middle" x="194.445" y="-446.3" font-family="Times New Roman,serif" font-size="14.00">HITs/join</text>
</g>
<!-- HITs/pushout&#45;&gt;HITs/join -->
<g id="edge24" class="edge"><title>HITs/pushout&#45;&gt;HITs/join</title>
<path fill="none" stroke="black" d="M198.961,-503.697C198.3,-495.983 197.506,-486.712 196.769,-478.112"/>
<polygon fill="black" stroke="black" points="200.252,-477.769 195.911,-468.104 193.278,-478.367 200.252,-477.769"/>
</g>
<!-- HITs/pushout&#45;&gt;HITs/reals -->
<g id="edge32" class="edge"><title>HITs/pushout&#45;&gt;HITs/reals</title>
<path fill="none" stroke="black" d="M174.549,-505.638C157.292,-495.401 134.447,-481.849 115.827,-470.803"/>
<polygon fill="black" stroke="black" points="117.455,-467.7 107.069,-465.608 113.884,-473.72 117.455,-467.7"/>
</g>
<!-- types/unit&#45;&gt;HITs/suspension -->
<g id="edge38" class="edge"><title>types/unit&#45;&gt;HITs/suspension</title>
<path fill="none" stroke="black" d="M431.445,-575.871C431.445,-551.67 431.445,-507.211 431.445,-478.393"/>
<polygon fill="black" stroke="black" points="434.945,-478.189 431.445,-468.189 427.945,-478.189 434.945,-478.189"/>
</g>
<!-- types/unit&#45;&gt;structures -->
<g id="edge34" class="edge"><title>types/unit&#45;&gt;structures</title>
<path fill="none" stroke="black" d="M453.5,-578.155C468.392,-568.132 488.253,-554.763 504.693,-543.698"/>
<polygon fill="black" stroke="black" points="507.079,-546.311 513.421,-537.824 503.17,-540.504 507.079,-546.311"/>
</g>
<!-- structures&#45;&gt;HITs/trunc -->
<g id="edge39" class="edge"><title>structures&#45;&gt;HITs/trunc</title>
<path fill="none" stroke="black" d="M544.401,-504.055C548.719,-495.887 553.991,-485.912 558.795,-476.824"/>
<polygon fill="black" stroke="black" points="561.992,-478.266 563.57,-467.789 555.803,-474.994 561.992,-478.266"/>
</g>
<!-- types/sigma -->
<g id="node38" class="node"><title>types/sigma</title>
<ellipse fill="none" stroke="black" cx="641.445" cy="-882" rx="53.8905" ry="18"/>
<text text-anchor="middle" x="641.445" y="-878.3" font-family="Times New Roman,serif" font-size="14.00">types/sigma</text>
</g>
</g>
</svg>
