<?xml version="1.0" encoding="UTF-8" standalone="no"?>
<!DOCTYPE svg PUBLIC "-//W3C//DTD SVG 1.1//EN"
 "http://www.w3.org/Graphics/SVG/1.1/DTD/svg11.dtd">
<!-- Generated by graphviz version 2.38.0 (20140413.2041)
 -->
<!-- Title: dependency_map Pages: 1 -->
<svg width="926pt" height="908pt"
 viewBox="0.00 0.00 925.64 908.00" xmlns="http://www.w3.org/2000/svg" xmlns:xlink="http://www.w3.org/1999/xlink">
<g id="graph0" class="graph" transform="scale(1 1) rotate(0) translate(4 904)">
<title>dependency_map</title>
<polygon fill="white" stroke="none" points="-4,4 -4,-904 921.637,-904 921.637,4 -4,4"/>
<!-- proto -->
<g id="node1" class="node"><title>proto</title>
<ellipse fill="none" stroke="black" cx="255.743" cy="-882" rx="30.5947" ry="18"/>
<text text-anchor="middle" x="255.743" y="-878.3" font-family="Times New Roman,serif" font-size="14.00">proto</text>
</g>
<!-- types/eq -->
<g id="node2" class="node"><title>types/eq</title>
<ellipse fill="none" stroke="black" cx="255.743" cy="-810" rx="41.6928" ry="18"/>
<text text-anchor="middle" x="255.743" y="-806.3" font-family="Times New Roman,serif" font-size="14.00">types/eq</text>
</g>
<!-- proto&#45;&gt;types/eq -->
<g id="edge1" class="edge"><title>proto&#45;&gt;types/eq</title>
<path fill="none" stroke="black" d="M255.743,-863.697C255.743,-855.983 255.743,-846.712 255.743,-838.112"/>
<polygon fill="black" stroke="black" points="259.243,-838.104 255.743,-828.104 252.243,-838.104 259.243,-838.104"/>
</g>
<!-- support -->
<g id="node18" class="node"><title>support</title>
<ellipse fill="none" stroke="black" cx="255.743" cy="-738" rx="38.9931" ry="18"/>
<text text-anchor="middle" x="255.743" y="-734.3" font-family="Times New Roman,serif" font-size="14.00">support</text>
</g>
<!-- types/eq&#45;&gt;support -->
<g id="edge28" class="edge"><title>types/eq&#45;&gt;support</title>
<path fill="none" stroke="black" d="M255.743,-791.697C255.743,-783.983 255.743,-774.712 255.743,-766.112"/>
<polygon fill="black" stroke="black" points="259.243,-766.104 255.743,-756.104 252.243,-766.104 259.243,-766.104"/>
</g>
<!-- algebra -->
<g id="node3" class="node"><title>algebra</title>
<ellipse fill="none" stroke="black" stroke-dasharray="5,2" cx="309.743" cy="-18" rx="36.2938" ry="18"/>
<text text-anchor="middle" x="309.743" y="-14.3" font-family="Times New Roman,serif" font-size="14.00">algebra</text>
</g>
<!-- HITs/ntrunc -->
<g id="node4" class="node"><title>HITs/ntrunc</title>
<ellipse fill="none" stroke="black" stroke-dasharray="5,2" cx="309.743" cy="-90" rx="55.4913" ry="18"/>
<text text-anchor="middle" x="309.743" y="-86.3" font-family="Times New Roman,serif" font-size="14.00">HITs/ntrunc</text>
</g>
<!-- HITs/ntrunc&#45;&gt;algebra -->
<g id="edge2" class="edge"><title>HITs/ntrunc&#45;&gt;algebra</title>
<path fill="none" stroke="black" d="M309.743,-71.6966C309.743,-63.9827 309.743,-54.7125 309.743,-46.1124"/>
<polygon fill="black" stroke="black" points="313.243,-46.1043 309.743,-36.1043 306.243,-46.1044 313.243,-46.1043"/>
</g>
<!-- HITs/circle -->
<g id="node5" class="node"><title>HITs/circle</title>
<ellipse fill="none" stroke="black" stroke-dasharray="5,2" cx="322.743" cy="-162" rx="51.9908" ry="18"/>
<text text-anchor="middle" x="322.743" y="-158.3" font-family="Times New Roman,serif" font-size="14.00">HITs/circle</text>
</g>
<!-- HITs/circle&#45;&gt;HITs/ntrunc -->
<g id="edge20" class="edge"><title>HITs/circle&#45;&gt;HITs/ntrunc</title>
<path fill="none" stroke="black" d="M319.53,-143.697C318.097,-135.983 316.376,-126.712 314.779,-118.112"/>
<polygon fill="black" stroke="black" points="318.187,-117.297 312.92,-108.104 311.305,-118.575 318.187,-117.297"/>
</g>
<!-- HITs/suspension -->
<g id="node6" class="node"><title>HITs/suspension</title>
<ellipse fill="none" stroke="black" cx="322.743" cy="-450" rx="72.5877" ry="18"/>
<text text-anchor="middle" x="322.743" y="-446.3" font-family="Times New Roman,serif" font-size="14.00">HITs/suspension</text>
</g>
<!-- HITs/suspension&#45;&gt;HITs/circle -->
<g id="edge3" class="edge"><title>HITs/suspension&#45;&gt;HITs/circle</title>
<path fill="none" stroke="black" d="M322.743,-431.966C322.743,-384.291 322.743,-249.185 322.743,-190.63"/>
<polygon fill="black" stroke="black" points="326.243,-190.306 322.743,-180.306 319.243,-190.306 326.243,-190.306"/>
</g>
<!-- theorems/ua -->
<g id="node7" class="node"><title>theorems/ua</title>
<ellipse fill="none" stroke="black" stroke-dasharray="5,2" cx="415.743" cy="-234" rx="54.6905" ry="18"/>
<text text-anchor="middle" x="415.743" y="-230.3" font-family="Times New Roman,serif" font-size="14.00">theorems/ua</text>
</g>
<!-- theorems/ua&#45;&gt;HITs/circle -->
<g id="edge4" class="edge"><title>theorems/ua&#45;&gt;HITs/circle</title>
<path fill="none" stroke="black" d="M394.64,-217.116C381.947,-207.562 365.613,-195.267 351.722,-184.812"/>
<polygon fill="black" stroke="black" points="353.537,-181.797 343.443,-178.58 349.328,-187.39 353.537,-181.797"/>
</g>
<!-- HITs/infinitesimal -->
<g id="node8" class="node"><title>HITs/infinitesimal</title>
<ellipse fill="none" stroke="black" stroke-dasharray="5,2" cx="74.7434" cy="-594" rx="74.9875" ry="18"/>
<text text-anchor="middle" x="74.7434" y="-590.3" font-family="Times New Roman,serif" font-size="14.00">HITs/infinitesimal</text>
</g>
<!-- types/equiv -->
<g id="node9" class="node"><title>types/equiv</title>
<ellipse fill="none" stroke="black" cx="323.743" cy="-666" rx="51.9908" ry="18"/>
<text text-anchor="middle" x="323.743" y="-662.3" font-family="Times New Roman,serif" font-size="14.00">types/equiv</text>
</g>
<!-- types/equiv&#45;&gt;HITs/infinitesimal -->
<g id="edge5" class="edge"><title>types/equiv&#45;&gt;HITs/infinitesimal</title>
<path fill="none" stroke="black" d="M284.563,-653.985C243.264,-642.375 177.83,-623.98 131.016,-610.82"/>
<polygon fill="black" stroke="black" points="131.899,-607.432 121.324,-608.095 130.004,-614.171 131.899,-607.432"/>
</g>
<!-- types/coproduct -->
<g id="node10" class="node"><title>types/coproduct</title>
<ellipse fill="none" stroke="black" cx="458.743" cy="-594" rx="70.6878" ry="18"/>
<text text-anchor="middle" x="458.743" y="-590.3" font-family="Times New Roman,serif" font-size="14.00">types/coproduct</text>
</g>
<!-- types/equiv&#45;&gt;types/coproduct -->
<g id="edge6" class="edge"><title>types/equiv&#45;&gt;types/coproduct</title>
<path fill="none" stroke="black" d="M351.388,-650.666C371.098,-640.446 397.87,-626.564 419.749,-615.22"/>
<polygon fill="black" stroke="black" points="421.524,-618.242 428.79,-610.531 418.302,-612.027 421.524,-618.242"/>
</g>
<!-- types/heq -->
<g id="node17" class="node"><title>types/heq</title>
<ellipse fill="none" stroke="black" cx="213.743" cy="-594" rx="46.2923" ry="18"/>
<text text-anchor="middle" x="213.743" y="-590.3" font-family="Times New Roman,serif" font-size="14.00">types/heq</text>
</g>
<!-- types/equiv&#45;&gt;types/heq -->
<g id="edge12" class="edge"><title>types/equiv&#45;&gt;types/heq</title>
<path fill="none" stroke="black" d="M299.875,-649.811C283.948,-639.676 262.827,-626.235 245.487,-615.201"/>
<polygon fill="black" stroke="black" points="247.127,-612.096 236.811,-609.68 243.369,-618.001 247.127,-612.096"/>
</g>
<!-- types/unit -->
<g id="node29" class="node"><title>types/unit</title>
<ellipse fill="none" stroke="black" cx="323.743" cy="-594" rx="46.2923" ry="18"/>
<text text-anchor="middle" x="323.743" y="-590.3" font-family="Times New Roman,serif" font-size="14.00">types/unit</text>
</g>
<!-- types/equiv&#45;&gt;types/unit -->
<g id="edge34" class="edge"><title>types/equiv&#45;&gt;types/unit</title>
<path fill="none" stroke="black" d="M323.743,-647.697C323.743,-639.983 323.743,-630.712 323.743,-622.112"/>
<polygon fill="black" stroke="black" points="327.243,-622.104 323.743,-612.104 320.243,-622.104 327.243,-622.104"/>
</g>
<!-- types/lost -->
<g id="node32" class="node"><title>types/lost</title>
<ellipse fill="none" stroke="black" cx="593.743" cy="-594" rx="46.2923" ry="18"/>
<text text-anchor="middle" x="593.743" y="-590.3" font-family="Times New Roman,serif" font-size="14.00">types/lost</text>
</g>
<!-- types/equiv&#45;&gt;types/lost -->
<g id="edge36" class="edge"><title>types/equiv&#45;&gt;types/lost</title>
<path fill="none" stroke="black" d="M365.953,-655.36C409.442,-645.248 479.103,-628.553 538.743,-612 542.273,-611.02 545.92,-609.972 549.578,-608.896"/>
<polygon fill="black" stroke="black" points="550.639,-612.232 559.213,-606.008 548.629,-605.527 550.639,-612.232"/>
</g>
<!-- structures -->
<g id="node30" class="node"><title>structures</title>
<ellipse fill="none" stroke="black" cx="427.743" cy="-522" rx="46.2923" ry="18"/>
<text text-anchor="middle" x="427.743" y="-518.3" font-family="Times New Roman,serif" font-size="14.00">structures</text>
</g>
<!-- types/coproduct&#45;&gt;structures -->
<g id="edge27" class="edge"><title>types/coproduct&#45;&gt;structures</title>
<path fill="none" stroke="black" d="M451.239,-576.055C447.66,-567.973 443.297,-558.121 439.307,-549.112"/>
<polygon fill="black" stroke="black" points="442.428,-547.515 435.178,-539.789 436.028,-550.35 442.428,-547.515"/>
</g>
<!-- types/nat -->
<g id="node31" class="node"><title>types/nat</title>
<ellipse fill="none" stroke="black" cx="535.743" cy="-522" rx="43.5923" ry="18"/>
<text text-anchor="middle" x="535.743" y="-518.3" font-family="Times New Roman,serif" font-size="14.00">types/nat</text>
</g>
<!-- types/coproduct&#45;&gt;types/nat -->
<g id="edge35" class="edge"><title>types/coproduct&#45;&gt;types/nat</title>
<path fill="none" stroke="black" d="M476.991,-576.411C487.083,-567.237 499.77,-555.703 510.77,-545.703"/>
<polygon fill="black" stroke="black" points="513.375,-548.065 518.42,-538.749 508.666,-542.886 513.375,-548.065"/>
</g>
<!-- types/product -->
<g id="node11" class="node"><title>types/product</title>
<ellipse fill="none" stroke="black" cx="425.743" cy="-306" rx="61.99" ry="18"/>
<text text-anchor="middle" x="425.743" y="-302.3" font-family="Times New Roman,serif" font-size="14.00">types/product</text>
</g>
<!-- types/product&#45;&gt;theorems/ua -->
<g id="edge33" class="edge"><title>types/product&#45;&gt;theorems/ua</title>
<path fill="none" stroke="black" d="M423.271,-287.697C422.169,-279.983 420.845,-270.712 419.617,-262.112"/>
<polygon fill="black" stroke="black" points="423.066,-261.509 418.187,-252.104 416.136,-262.499 423.066,-261.509"/>
</g>
<!-- cubical/cubes -->
<g id="node12" class="node"><title>cubical/cubes</title>
<ellipse fill="none" stroke="black" cx="562.743" cy="-234" rx="60.3893" ry="18"/>
<text text-anchor="middle" x="562.743" y="-230.3" font-family="Times New Roman,serif" font-size="14.00">cubical/cubes</text>
</g>
<!-- types/product&#45;&gt;cubical/cubes -->
<g id="edge7" class="edge"><title>types/product&#45;&gt;cubical/cubes</title>
<path fill="none" stroke="black" d="M455.133,-289.983C475.359,-279.649 502.426,-265.819 524.354,-254.615"/>
<polygon fill="black" stroke="black" points="526.09,-257.659 533.402,-249.992 522.905,-251.425 526.09,-257.659"/>
</g>
<!-- cubical/path -->
<g id="node13" class="node"><title>cubical/path</title>
<ellipse fill="none" stroke="black" cx="589.743" cy="-162" rx="54.6905" ry="18"/>
<text text-anchor="middle" x="589.743" y="-158.3" font-family="Times New Roman,serif" font-size="14.00">cubical/path</text>
</g>
<!-- cubical/cubes&#45;&gt;cubical/path -->
<g id="edge8" class="edge"><title>cubical/cubes&#45;&gt;cubical/path</title>
<path fill="none" stroke="black" d="M569.279,-216.055C572.318,-208.176 576.006,-198.617 579.409,-189.794"/>
<polygon fill="black" stroke="black" points="582.747,-190.865 583.08,-180.275 576.216,-188.346 582.747,-190.865"/>
</g>
<!-- cubical/square -->
<g id="node14" class="node"><title>cubical/square</title>
<ellipse fill="none" stroke="black" cx="589.743" cy="-90" rx="63.0888" ry="18"/>
<text text-anchor="middle" x="589.743" y="-86.3" font-family="Times New Roman,serif" font-size="14.00">cubical/square</text>
</g>
<!-- cubical/path&#45;&gt;cubical/square -->
<g id="edge9" class="edge"><title>cubical/path&#45;&gt;cubical/square</title>
<path fill="none" stroke="black" d="M589.743,-143.697C589.743,-135.983 589.743,-126.712 589.743,-118.112"/>
<polygon fill="black" stroke="black" points="593.243,-118.104 589.743,-108.104 586.243,-118.104 593.243,-118.104"/>
</g>
<!-- cubical/V -->
<g id="node15" class="node"><title>cubical/V</title>
<ellipse fill="none" stroke="black" cx="716.743" cy="-90" rx="45.4919" ry="18"/>
<text text-anchor="middle" x="716.743" y="-86.3" font-family="Times New Roman,serif" font-size="14.00">cubical/V</text>
</g>
<!-- cubical/path&#45;&gt;cubical/V -->
<g id="edge10" class="edge"><title>cubical/path&#45;&gt;cubical/V</title>
<path fill="none" stroke="black" d="M616.677,-146.155C635.831,-135.597 661.72,-121.328 682.366,-109.948"/>
<polygon fill="black" stroke="black" points="684.08,-113 691.148,-105.108 680.701,-106.87 684.08,-113"/>
</g>
<!-- cubical/example -->
<g id="node16" class="node"><title>cubical/example</title>
<ellipse fill="none" stroke="black" cx="848.743" cy="-90" rx="68.7879" ry="18"/>
<text text-anchor="middle" x="848.743" y="-86.3" font-family="Times New Roman,serif" font-size="14.00">cubical/example</text>
</g>
<!-- cubical/path&#45;&gt;cubical/example -->
<g id="edge11" class="edge"><title>cubical/path&#45;&gt;cubical/example</title>
<path fill="none" stroke="black" d="M630.497,-149.985C674.211,-138.171 743.921,-119.33 792.764,-106.129"/>
<polygon fill="black" stroke="black" points="793.806,-109.474 802.547,-103.486 791.98,-102.716 793.806,-109.474"/>
</g>
<!-- HITs/moebius -->
<g id="node25" class="node"><title>HITs/moebius</title>
<ellipse fill="none" stroke="black" cx="445.743" cy="-90" rx="63.0888" ry="18"/>
<text text-anchor="middle" x="445.743" y="-86.3" font-family="Times New Roman,serif" font-size="14.00">HITs/moebius</text>
</g>
<!-- cubical/path&#45;&gt;HITs/moebius -->
<g id="edge18" class="edge"><title>cubical/path&#45;&gt;HITs/moebius</title>
<path fill="none" stroke="black" d="M560.255,-146.666C538.608,-136.143 508.974,-121.737 485.275,-110.217"/>
<polygon fill="black" stroke="black" points="486.708,-107.022 476.184,-105.798 483.648,-113.318 486.708,-107.022"/>
</g>
<!-- HITs/int -->
<g id="node20" class="node"><title>HITs/int</title>
<ellipse fill="none" stroke="black" cx="74.7434" cy="-522" rx="40.8928" ry="18"/>
<text text-anchor="middle" x="74.7434" y="-518.3" font-family="Times New Roman,serif" font-size="14.00">HITs/int</text>
</g>
<!-- types/heq&#45;&gt;HITs/int -->
<g id="edge15" class="edge"><title>types/heq&#45;&gt;HITs/int</title>
<path fill="none" stroke="black" d="M186.613,-579.337C164.712,-568.308 133.734,-552.707 109.927,-540.719"/>
<polygon fill="black" stroke="black" points="111.37,-537.526 100.864,-536.154 108.221,-543.778 111.37,-537.526"/>
</g>
<!-- HITs/trunc -->
<g id="node21" class="node"><title>HITs/trunc</title>
<ellipse fill="none" stroke="black" cx="463.743" cy="-450" rx="50.8918" ry="18"/>
<text text-anchor="middle" x="463.743" y="-446.3" font-family="Times New Roman,serif" font-size="14.00">HITs/trunc</text>
</g>
<!-- types/heq&#45;&gt;HITs/trunc -->
<g id="edge32" class="edge"><title>types/heq&#45;&gt;HITs/trunc</title>
<path fill="none" stroke="black" d="M239.09,-578.603C284.082,-553.048 377.952,-499.73 428.953,-470.761"/>
<polygon fill="black" stroke="black" points="430.989,-473.63 437.955,-465.648 427.531,-467.543 430.989,-473.63"/>
</g>
<!-- HITs/pushout -->
<g id="node23" class="node"><title>HITs/pushout</title>
<ellipse fill="none" stroke="black" cx="195.743" cy="-522" rx="61.99" ry="18"/>
<text text-anchor="middle" x="195.743" y="-518.3" font-family="Times New Roman,serif" font-size="14.00">HITs/pushout</text>
</g>
<!-- types/heq&#45;&gt;HITs/pushout -->
<g id="edge23" class="edge"><title>types/heq&#45;&gt;HITs/pushout</title>
<path fill="none" stroke="black" d="M209.386,-576.055C207.382,-568.261 204.955,-558.822 202.707,-550.079"/>
<polygon fill="black" stroke="black" points="206.066,-549.089 200.186,-540.275 199.286,-550.832 206.066,-549.089"/>
</g>
<!-- support&#45;&gt;types/equiv -->
<g id="edge13" class="edge"><title>support&#45;&gt;types/equiv</title>
<path fill="none" stroke="black" d="M271.174,-721.116C279.917,-712.116 291.023,-700.682 300.773,-690.646"/>
<polygon fill="black" stroke="black" points="303.445,-692.919 307.902,-683.307 298.424,-688.041 303.445,-692.919"/>
</g>
<!-- theorems/functions -->
<g id="node19" class="node"><title>theorems/functions</title>
<ellipse fill="none" stroke="black" cx="392.743" cy="-738" rx="79.8859" ry="18"/>
<text text-anchor="middle" x="392.743" y="-734.3" font-family="Times New Roman,serif" font-size="14.00">theorems/functions</text>
</g>
<!-- theorems/functions&#45;&gt;types/equiv -->
<g id="edge14" class="edge"><title>theorems/functions&#45;&gt;types/equiv</title>
<path fill="none" stroke="black" d="M376.04,-720.055C367.354,-711.243 356.596,-700.328 347.099,-690.694"/>
<polygon fill="black" stroke="black" points="349.33,-687.972 339.817,-683.307 344.345,-692.886 349.33,-687.972"/>
</g>
<!-- HITs/reals -->
<g id="node28" class="node"><title>HITs/reals</title>
<ellipse fill="none" stroke="black" cx="74.7434" cy="-450" rx="48.9926" ry="18"/>
<text text-anchor="middle" x="74.7434" y="-446.3" font-family="Times New Roman,serif" font-size="14.00">HITs/reals</text>
</g>
<!-- HITs/int&#45;&gt;HITs/reals -->
<g id="edge25" class="edge"><title>HITs/int&#45;&gt;HITs/reals</title>
<path fill="none" stroke="black" d="M74.7434,-503.697C74.7434,-495.983 74.7434,-486.712 74.7434,-478.112"/>
<polygon fill="black" stroke="black" points="78.2435,-478.104 74.7434,-468.104 71.2435,-478.104 78.2435,-478.104"/>
</g>
<!-- HITs/interval -->
<g id="node22" class="node"><title>HITs/interval</title>
<ellipse fill="none" stroke="black" cx="450.743" cy="-378" rx="57.6901" ry="18"/>
<text text-anchor="middle" x="450.743" y="-374.3" font-family="Times New Roman,serif" font-size="14.00">HITs/interval</text>
</g>
<!-- HITs/trunc&#45;&gt;HITs/interval -->
<g id="edge16" class="edge"><title>HITs/trunc&#45;&gt;HITs/interval</title>
<path fill="none" stroke="black" d="M460.53,-431.697C459.097,-423.983 457.376,-414.712 455.779,-406.112"/>
<polygon fill="black" stroke="black" points="459.187,-405.297 453.92,-396.104 452.305,-406.575 459.187,-405.297"/>
</g>
<!-- theorems/mere_eq_lemma -->
<g id="node26" class="node"><title>theorems/mere_eq_lemma</title>
<ellipse fill="none" stroke="black" cx="632.743" cy="-378" rx="105.881" ry="18"/>
<text text-anchor="middle" x="632.743" y="-374.3" font-family="Times New Roman,serif" font-size="14.00">theorems/mere_eq_lemma</text>
</g>
<!-- HITs/trunc&#45;&gt;theorems/mere_eq_lemma -->
<g id="edge19" class="edge"><title>HITs/trunc&#45;&gt;theorems/mere_eq_lemma</title>
<path fill="none" stroke="black" d="M495.531,-435.834C520.787,-425.372 556.503,-410.579 585.165,-398.707"/>
<polygon fill="black" stroke="black" points="586.69,-401.864 594.589,-394.803 584.011,-395.397 586.69,-401.864"/>
</g>
<!-- HITs/interval&#45;&gt;types/product -->
<g id="edge21" class="edge"><title>HITs/interval&#45;&gt;types/product</title>
<path fill="none" stroke="black" d="M444.692,-360.055C441.878,-352.176 438.464,-342.617 435.313,-333.794"/>
<polygon fill="black" stroke="black" points="438.573,-332.516 431.913,-324.275 431.98,-334.87 438.573,-332.516"/>
</g>
<!-- theorems/prop -->
<g id="node27" class="node"><title>theorems/prop</title>
<ellipse fill="none" stroke="black" cx="568.743" cy="-306" rx="63.8893" ry="18"/>
<text text-anchor="middle" x="568.743" y="-302.3" font-family="Times New Roman,serif" font-size="14.00">theorems/prop</text>
</g>
<!-- HITs/interval&#45;&gt;theorems/prop -->
<g id="edge22" class="edge"><title>HITs/interval&#45;&gt;theorems/prop</title>
<path fill="none" stroke="black" d="M476.348,-361.811C493.124,-351.859 515.271,-338.721 533.677,-327.802"/>
<polygon fill="black" stroke="black" points="535.557,-330.756 542.372,-322.644 531.986,-324.736 535.557,-330.756"/>
</g>
<!-- HITs/pushout&#45;&gt;HITs/suspension -->
<g id="edge29" class="edge"><title>HITs/pushout&#45;&gt;HITs/suspension</title>
<path fill="none" stroke="black" d="M223.3,-505.811C241.52,-495.769 265.627,-482.482 285.542,-471.505"/>
<polygon fill="black" stroke="black" points="287.292,-474.536 294.361,-466.644 283.913,-468.406 287.292,-474.536"/>
</g>
<!-- HITs/join -->
<g id="node24" class="node"><title>HITs/join</title>
<ellipse fill="none" stroke="black" cx="186.743" cy="-450" rx="45.4919" ry="18"/>
<text text-anchor="middle" x="186.743" y="-446.3" font-family="Times New Roman,serif" font-size="14.00">HITs/join</text>
</g>
<!-- HITs/pushout&#45;&gt;HITs/join -->
<g id="edge17" class="edge"><title>HITs/pushout&#45;&gt;HITs/join</title>
<path fill="none" stroke="black" d="M193.519,-503.697C192.527,-495.983 191.335,-486.712 190.229,-478.112"/>
<polygon fill="black" stroke="black" points="193.689,-477.576 188.942,-468.104 186.746,-478.469 193.689,-477.576"/>
</g>
<!-- HITs/pushout&#45;&gt;HITs/reals -->
<g id="edge24" class="edge"><title>HITs/pushout&#45;&gt;HITs/reals</title>
<path fill="none" stroke="black" d="M169.189,-505.638C151.413,-495.354 127.855,-481.726 108.715,-470.653"/>
<polygon fill="black" stroke="black" points="110.402,-467.586 99.9938,-465.608 106.897,-473.645 110.402,-467.586"/>
</g>
<!-- types/unit&#45;&gt;HITs/suspension -->
<g id="edge30" class="edge"><title>types/unit&#45;&gt;HITs/suspension</title>
<path fill="none" stroke="black" d="M323.623,-575.871C323.452,-551.67 323.139,-507.211 322.936,-478.393"/>
<polygon fill="black" stroke="black" points="326.435,-478.164 322.864,-468.189 319.435,-478.214 326.435,-478.164"/>
</g>
<!-- types/unit&#45;&gt;structures -->
<g id="edge26" class="edge"><title>types/unit&#45;&gt;structures</title>
<path fill="none" stroke="black" d="M345.799,-578.155C360.691,-568.132 380.552,-554.763 396.992,-543.698"/>
<polygon fill="black" stroke="black" points="399.378,-546.311 405.719,-537.824 395.469,-540.504 399.378,-546.311"/>
</g>
<!-- structures&#45;&gt;HITs/trunc -->
<g id="edge31" class="edge"><title>structures&#45;&gt;HITs/trunc</title>
<path fill="none" stroke="black" d="M436.458,-504.055C440.659,-495.887 445.789,-485.912 450.462,-476.824"/>
<polygon fill="black" stroke="black" points="453.648,-478.283 455.109,-467.789 447.423,-475.081 453.648,-478.283"/>
</g>
<!-- types/sigma -->
<g id="node33" class="node"><title>types/sigma</title>
<ellipse fill="none" stroke="black" cx="357.743" cy="-882" rx="53.8905" ry="18"/>
<text text-anchor="middle" x="357.743" y="-878.3" font-family="Times New Roman,serif" font-size="14.00">types/sigma</text>
</g>
</g>
</svg>
