<?xml version="1.0" encoding="UTF-8" standalone="no"?>
<!DOCTYPE svg PUBLIC "-//W3C//DTD SVG 1.1//EN"
 "http://www.w3.org/Graphics/SVG/1.1/DTD/svg11.dtd">
<!-- Generated by graphviz version 2.38.0 (20140413.2041)
 -->
<!-- Title: dependency_map Pages: 1 -->
<svg width="1195pt" height="836pt"
 viewBox="0.00 0.00 1195.49 836.00" xmlns="http://www.w3.org/2000/svg" xmlns:xlink="http://www.w3.org/1999/xlink">
<g id="graph0" class="graph" transform="scale(1 1) rotate(0) translate(4 832)">
<title>dependency_map</title>
<polygon fill="white" stroke="none" points="-4,4 -4,-832 1191.49,-832 1191.49,4 -4,4"/>
<!-- proto -->
<g id="node1" class="node"><title>proto</title>
<ellipse fill="none" stroke="black" cx="495.445" cy="-810" rx="30.5947" ry="18"/>
<text text-anchor="middle" x="495.445" y="-806.3" font-family="Times New Roman,serif" font-size="14.00">proto</text>
</g>
<!-- types/eq -->
<g id="node2" class="node"><title>types/eq</title>
<ellipse fill="none" stroke="black" cx="555.445" cy="-738" rx="41.6928" ry="18"/>
<text text-anchor="middle" x="555.445" y="-734.3" font-family="Times New Roman,serif" font-size="14.00">types/eq</text>
</g>
<!-- proto&#45;&gt;types/eq -->
<g id="edge1" class="edge"><title>proto&#45;&gt;types/eq</title>
<path fill="none" stroke="black" d="M508.761,-793.465C516.388,-784.566 526.126,-773.205 534.732,-763.164"/>
<polygon fill="black" stroke="black" points="537.479,-765.338 541.33,-755.467 532.165,-760.782 537.479,-765.338"/>
</g>
<!-- types/dep_path -->
<g id="node16" class="node"><title>types/dep_path</title>
<ellipse fill="none" stroke="black" cx="617.445" cy="-666" rx="66.8882" ry="18"/>
<text text-anchor="middle" x="617.445" y="-662.3" font-family="Times New Roman,serif" font-size="14.00">types/dep_path</text>
</g>
<!-- types/eq&#45;&gt;types/dep_path -->
<g id="edge11" class="edge"><title>types/eq&#45;&gt;types/dep_path</title>
<path fill="none" stroke="black" d="M569.825,-720.765C577.615,-711.969 587.394,-700.928 596.06,-691.144"/>
<polygon fill="black" stroke="black" points="598.702,-693.44 602.712,-683.633 593.462,-688.799 598.702,-693.44"/>
</g>
<!-- support -->
<g id="node24" class="node"><title>support</title>
<ellipse fill="none" stroke="black" cx="493.445" cy="-666" rx="38.9931" ry="18"/>
<text text-anchor="middle" x="493.445" y="-662.3" font-family="Times New Roman,serif" font-size="14.00">support</text>
</g>
<!-- types/eq&#45;&gt;support -->
<g id="edge40" class="edge"><title>types/eq&#45;&gt;support</title>
<path fill="none" stroke="black" d="M541.065,-720.765C533.161,-711.841 523.212,-700.608 514.453,-690.719"/>
<polygon fill="black" stroke="black" points="516.997,-688.313 507.747,-683.147 511.757,-692.954 516.997,-688.313"/>
</g>
<!-- meta/hott_theory -->
<g id="node3" class="node"><title>meta/hott_theory</title>
<ellipse fill="none" stroke="black" cx="616.445" cy="-810" rx="72.2875" ry="18"/>
<text text-anchor="middle" x="616.445" y="-806.3" font-family="Times New Roman,serif" font-size="14.00">meta/hott_theory</text>
</g>
<!-- meta/hott_theory&#45;&gt;types/eq -->
<g id="edge2" class="edge"><title>meta/hott_theory&#45;&gt;types/eq</title>
<path fill="none" stroke="black" d="M601.678,-792.055C594.075,-783.33 584.676,-772.544 576.342,-762.981"/>
<polygon fill="black" stroke="black" points="578.864,-760.547 569.655,-755.307 573.586,-765.146 578.864,-760.547"/>
</g>
<!-- algebra -->
<g id="node4" class="node"><title>algebra</title>
<ellipse fill="none" stroke="black" stroke-dasharray="5,2" cx="358.445" cy="-18" rx="36.2938" ry="18"/>
<text text-anchor="middle" x="358.445" y="-14.3" font-family="Times New Roman,serif" font-size="14.00">algebra</text>
</g>
<!-- HITs/ntrunc -->
<g id="node5" class="node"><title>HITs/ntrunc</title>
<ellipse fill="none" stroke="black" stroke-dasharray="5,2" cx="358.445" cy="-90" rx="55.4913" ry="18"/>
<text text-anchor="middle" x="358.445" y="-86.3" font-family="Times New Roman,serif" font-size="14.00">HITs/ntrunc</text>
</g>
<!-- HITs/ntrunc&#45;&gt;algebra -->
<g id="edge3" class="edge"><title>HITs/ntrunc&#45;&gt;algebra</title>
<path fill="none" stroke="black" d="M358.445,-71.6966C358.445,-63.9827 358.445,-54.7125 358.445,-46.1124"/>
<polygon fill="black" stroke="black" points="361.945,-46.1043 358.445,-36.1043 354.945,-46.1044 361.945,-46.1043"/>
</g>
<!-- HITs/circle -->
<g id="node6" class="node"><title>HITs/circle</title>
<ellipse fill="none" stroke="black" stroke-dasharray="5,2" cx="358.445" cy="-162" rx="51.9908" ry="18"/>
<text text-anchor="middle" x="358.445" y="-158.3" font-family="Times New Roman,serif" font-size="14.00">HITs/circle</text>
</g>
<!-- HITs/circle&#45;&gt;HITs/ntrunc -->
<g id="edge30" class="edge"><title>HITs/circle&#45;&gt;HITs/ntrunc</title>
<path fill="none" stroke="black" d="M358.445,-143.697C358.445,-135.983 358.445,-126.712 358.445,-118.112"/>
<polygon fill="black" stroke="black" points="361.945,-118.104 358.445,-108.104 354.945,-118.104 361.945,-118.104"/>
</g>
<!-- types/integers -->
<g id="node7" class="node"><title>types/integers</title>
<ellipse fill="none" stroke="black" cx="60.4446" cy="-450" rx="60.3893" ry="18"/>
<text text-anchor="middle" x="60.4446" y="-446.3" font-family="Times New Roman,serif" font-size="14.00">types/integers</text>
</g>
<!-- types/integers&#45;&gt;HITs/circle -->
<g id="edge4" class="edge"><title>types/integers&#45;&gt;HITs/circle</title>
<path fill="none" stroke="black" d="M50.6262,-432.218C41.0843,-413.51 29.7459,-382.881 42.4446,-360 99.5984,-257.019 235.44,-200.841 309.03,-177.006"/>
<polygon fill="black" stroke="black" points="310.507,-180.209 318.986,-173.856 308.396,-173.536 310.507,-180.209"/>
</g>
<!-- HITs/reals -->
<g id="node37" class="node"><title>HITs/reals</title>
<ellipse fill="none" stroke="black" cx="201.445" cy="-378" rx="48.9926" ry="18"/>
<text text-anchor="middle" x="201.445" y="-374.3" font-family="Times New Roman,serif" font-size="14.00">HITs/reals</text>
</g>
<!-- types/integers&#45;&gt;HITs/reals -->
<g id="edge37" class="edge"><title>types/integers&#45;&gt;HITs/reals</title>
<path fill="none" stroke="black" d="M90.3471,-434.155C111.946,-423.432 141.257,-408.88 164.349,-397.416"/>
<polygon fill="black" stroke="black" points="166.103,-400.453 173.503,-392.872 162.99,-394.183 166.103,-400.453"/>
</g>
<!-- HITs/suspension -->
<g id="node8" class="node"><title>HITs/suspension</title>
<ellipse fill="none" stroke="black" cx="449.445" cy="-378" rx="72.5877" ry="18"/>
<text text-anchor="middle" x="449.445" y="-374.3" font-family="Times New Roman,serif" font-size="14.00">HITs/suspension</text>
</g>
<!-- HITs/suspension&#45;&gt;HITs/circle -->
<g id="edge5" class="edge"><title>HITs/suspension&#45;&gt;HITs/circle</title>
<path fill="none" stroke="black" d="M418.003,-361.65C403.216,-352.752 386.81,-340.1 377.445,-324 353.182,-282.29 352.895,-224.237 355.353,-190.438"/>
<polygon fill="black" stroke="black" points="358.849,-190.632 356.22,-180.369 351.875,-190.031 358.849,-190.632"/>
</g>
<!-- theorems/ua -->
<g id="node9" class="node"><title>theorems/ua</title>
<ellipse fill="none" stroke="black" stroke-dasharray="5,2" cx="518.445" cy="-234" rx="54.6905" ry="18"/>
<text text-anchor="middle" x="518.445" y="-230.3" font-family="Times New Roman,serif" font-size="14.00">theorems/ua</text>
</g>
<!-- theorems/ua&#45;&gt;HITs/circle -->
<g id="edge6" class="edge"><title>theorems/ua&#45;&gt;HITs/circle</title>
<path fill="none" stroke="black" d="M486.834,-219.17C461.579,-208.121 426.019,-192.564 398.725,-180.622"/>
<polygon fill="black" stroke="black" points="400.01,-177.365 389.445,-176.563 397.204,-183.778 400.01,-177.365"/>
</g>
<!-- cubical/V -->
<g id="node23" class="node"><title>cubical/V</title>
<ellipse fill="none" stroke="black" stroke-dasharray="5,2" cx="518.445" cy="-90" rx="45.4919" ry="18"/>
<text text-anchor="middle" x="518.445" y="-86.3" font-family="Times New Roman,serif" font-size="14.00">cubical/V</text>
</g>
<!-- theorems/ua&#45;&gt;cubical/V -->
<g id="edge17" class="edge"><title>theorems/ua&#45;&gt;cubical/V</title>
<path fill="none" stroke="black" d="M518.445,-215.871C518.445,-191.67 518.445,-147.211 518.445,-118.393"/>
<polygon fill="black" stroke="black" points="521.945,-118.189 518.445,-108.189 514.945,-118.189 521.945,-118.189"/>
</g>
<!-- types/heq -->
<g id="node10" class="node"><title>types/heq</title>
<ellipse fill="none" stroke="black" cx="409.445" cy="-522" rx="46.2923" ry="18"/>
<text text-anchor="middle" x="409.445" y="-518.3" font-family="Times New Roman,serif" font-size="14.00">types/heq</text>
</g>
<!-- HITs/colimit -->
<g id="node11" class="node"><title>HITs/colimit</title>
<ellipse fill="none" stroke="black" cx="436.445" cy="-450" rx="56.59" ry="18"/>
<text text-anchor="middle" x="436.445" y="-446.3" font-family="Times New Roman,serif" font-size="14.00">HITs/colimit</text>
</g>
<!-- types/heq&#45;&gt;HITs/colimit -->
<g id="edge7" class="edge"><title>types/heq&#45;&gt;HITs/colimit</title>
<path fill="none" stroke="black" d="M415.981,-504.055C419.02,-496.176 422.707,-486.617 426.11,-477.794"/>
<polygon fill="black" stroke="black" points="429.448,-478.865 429.781,-468.275 422.917,-476.346 429.448,-478.865"/>
</g>
<!-- HITs/generalized -->
<g id="node12" class="node"><title>HITs/generalized</title>
<ellipse fill="none" stroke="black" cx="621.445" cy="-450" rx="72.2875" ry="18"/>
<text text-anchor="middle" x="621.445" y="-446.3" font-family="Times New Roman,serif" font-size="14.00">HITs/generalized</text>
</g>
<!-- types/heq&#45;&gt;HITs/generalized -->
<g id="edge8" class="edge"><title>types/heq&#45;&gt;HITs/generalized</title>
<path fill="none" stroke="black" d="M443.506,-509.753C477.711,-498.459 530.838,-480.917 570.144,-467.939"/>
<polygon fill="black" stroke="black" points="571.421,-471.203 579.819,-464.744 569.226,-464.556 571.421,-471.203"/>
</g>
<!-- HITs/int -->
<g id="node26" class="node"><title>HITs/int</title>
<ellipse fill="none" stroke="black" cx="179.445" cy="-450" rx="40.8928" ry="18"/>
<text text-anchor="middle" x="179.445" y="-446.3" font-family="Times New Roman,serif" font-size="14.00">HITs/int</text>
</g>
<!-- types/heq&#45;&gt;HITs/int -->
<g id="edge24" class="edge"><title>types/heq&#45;&gt;HITs/int</title>
<path fill="none" stroke="black" d="M373.11,-510.779C336.659,-500.414 278.974,-483.704 229.445,-468 226.481,-467.06 223.426,-466.071 220.355,-465.063"/>
<polygon fill="black" stroke="black" points="221.179,-461.648 210.585,-461.81 218.967,-468.29 221.179,-461.648"/>
</g>
<!-- HITs/pushout -->
<g id="node29" class="node"><title>HITs/pushout</title>
<ellipse fill="none" stroke="black" cx="300.445" cy="-450" rx="61.99" ry="18"/>
<text text-anchor="middle" x="300.445" y="-446.3" font-family="Times New Roman,serif" font-size="14.00">HITs/pushout</text>
</g>
<!-- types/heq&#45;&gt;HITs/pushout -->
<g id="edge34" class="edge"><title>types/heq&#45;&gt;HITs/pushout</title>
<path fill="none" stroke="black" d="M386.595,-506.326C371.178,-496.425 350.591,-483.204 333.408,-472.169"/>
<polygon fill="black" stroke="black" points="335.084,-469.086 324.778,-466.627 331.301,-474.976 335.084,-469.086"/>
</g>
<!-- HITs/trunc -->
<g id="node39" class="node"><title>HITs/trunc</title>
<ellipse fill="none" stroke="black" cx="879.445" cy="-378" rx="50.8918" ry="18"/>
<text text-anchor="middle" x="879.445" y="-374.3" font-family="Times New Roman,serif" font-size="14.00">HITs/trunc</text>
</g>
<!-- types/heq&#45;&gt;HITs/trunc -->
<g id="edge44" class="edge"><title>types/heq&#45;&gt;HITs/trunc</title>
<path fill="none" stroke="black" d="M443.262,-509.677C450.217,-507.595 457.527,-505.583 464.445,-504 568.73,-480.137 606.313,-514.942 702.445,-468 723.35,-457.792 720.75,-444.384 740.445,-432 768.193,-414.552 802.591,-401.378 830.226,-392.528"/>
<polygon fill="black" stroke="black" points="831.567,-395.776 840.076,-389.464 829.488,-389.092 831.567,-395.776"/>
</g>
<!-- HITs/truncation -->
<g id="node32" class="node"><title>HITs/truncation</title>
<ellipse fill="none" stroke="black" cx="608.445" cy="-378" rx="68.4888" ry="18"/>
<text text-anchor="middle" x="608.445" y="-374.3" font-family="Times New Roman,serif" font-size="14.00">HITs/truncation</text>
</g>
<!-- HITs/colimit&#45;&gt;HITs/truncation -->
<g id="edge46" class="edge"><title>HITs/colimit&#45;&gt;HITs/truncation</title>
<path fill="none" stroke="black" d="M470.016,-435.337C496.63,-424.506 534.077,-409.266 563.313,-397.368"/>
<polygon fill="black" stroke="black" points="564.942,-400.483 572.885,-393.472 562.304,-394 564.942,-400.483"/>
</g>
<!-- HITs/interval -->
<g id="node28" class="node"><title>HITs/interval</title>
<ellipse fill="none" stroke="black" cx="752.445" cy="-378" rx="57.6901" ry="18"/>
<text text-anchor="middle" x="752.445" y="-374.3" font-family="Times New Roman,serif" font-size="14.00">HITs/interval</text>
</g>
<!-- HITs/generalized&#45;&gt;HITs/interval -->
<g id="edge26" class="edge"><title>HITs/generalized&#45;&gt;HITs/interval</title>
<path fill="none" stroke="black" d="M650.518,-433.465C669.605,-423.265 694.743,-409.833 715.279,-398.86"/>
<polygon fill="black" stroke="black" points="717.182,-401.811 724.352,-394.011 713.883,-395.637 717.182,-401.811"/>
</g>
<!-- HITs/generalized&#45;&gt;HITs/truncation -->
<g id="edge47" class="edge"><title>HITs/generalized&#45;&gt;HITs/truncation</title>
<path fill="none" stroke="black" d="M618.231,-431.697C616.799,-423.983 615.077,-414.712 613.48,-406.112"/>
<polygon fill="black" stroke="black" points="616.888,-405.297 611.621,-396.104 610.006,-406.575 616.888,-405.297"/>
</g>
<!-- HITs/infinitesimal -->
<g id="node13" class="node"><title>HITs/infinitesimal</title>
<ellipse fill="none" stroke="black" stroke-dasharray="5,2" cx="548.445" cy="-522" rx="74.9875" ry="18"/>
<text text-anchor="middle" x="548.445" y="-518.3" font-family="Times New Roman,serif" font-size="14.00">HITs/infinitesimal</text>
</g>
<!-- types/equiv -->
<g id="node14" class="node"><title>types/equiv</title>
<ellipse fill="none" stroke="black" cx="617.445" cy="-594" rx="51.9908" ry="18"/>
<text text-anchor="middle" x="617.445" y="-590.3" font-family="Times New Roman,serif" font-size="14.00">types/equiv</text>
</g>
<!-- types/equiv&#45;&gt;types/integers -->
<g id="edge20" class="edge"><title>types/equiv&#45;&gt;types/integers</title>
<path fill="none" stroke="black" d="M572.009,-585.2C519.349,-575.847 430.106,-559.03 354.445,-540 266.931,-517.989 166.66,-486.192 108.731,-467.162"/>
<polygon fill="black" stroke="black" points="109.705,-463.798 99.1124,-463.992 107.514,-470.447 109.705,-463.798"/>
</g>
<!-- types/equiv&#45;&gt;types/heq -->
<g id="edge19" class="edge"><title>types/equiv&#45;&gt;types/heq</title>
<path fill="none" stroke="black" d="M581.214,-580.807C545.527,-568.797 490.985,-550.441 452.967,-537.647"/>
<polygon fill="black" stroke="black" points="453.79,-534.231 443.196,-534.359 451.557,-540.865 453.79,-534.231"/>
</g>
<!-- types/equiv&#45;&gt;HITs/infinitesimal -->
<g id="edge9" class="edge"><title>types/equiv&#45;&gt;HITs/infinitesimal</title>
<path fill="none" stroke="black" d="M601.441,-576.765C592.685,-567.882 581.673,-556.709 571.958,-546.854"/>
<polygon fill="black" stroke="black" points="574.353,-544.298 564.84,-539.633 569.368,-549.212 574.353,-544.298"/>
</g>
<!-- types/coproduct -->
<g id="node15" class="node"><title>types/coproduct</title>
<ellipse fill="none" stroke="black" cx="822.445" cy="-522" rx="70.6878" ry="18"/>
<text text-anchor="middle" x="822.445" y="-518.3" font-family="Times New Roman,serif" font-size="14.00">types/coproduct</text>
</g>
<!-- types/equiv&#45;&gt;types/coproduct -->
<g id="edge10" class="edge"><title>types/equiv&#45;&gt;types/coproduct</title>
<path fill="none" stroke="black" d="M653.153,-580.807C686.113,-569.552 735.394,-552.725 772.298,-540.123"/>
<polygon fill="black" stroke="black" points="773.542,-543.397 781.874,-536.853 771.28,-536.773 773.542,-543.397"/>
</g>
<!-- types/unit -->
<g id="node38" class="node"><title>types/unit</title>
<ellipse fill="none" stroke="black" cx="687.445" cy="-522" rx="46.2923" ry="18"/>
<text text-anchor="middle" x="687.445" y="-518.3" font-family="Times New Roman,serif" font-size="14.00">types/unit</text>
</g>
<!-- types/equiv&#45;&gt;types/unit -->
<g id="edge49" class="edge"><title>types/equiv&#45;&gt;types/unit</title>
<path fill="none" stroke="black" d="M633.68,-576.765C642.692,-567.753 654.059,-556.385 664.019,-546.426"/>
<polygon fill="black" stroke="black" points="666.701,-548.693 671.297,-539.147 661.751,-543.744 666.701,-548.693"/>
</g>
<!-- types/lost -->
<g id="node41" class="node"><title>types/lost</title>
<ellipse fill="none" stroke="black" cx="957.445" cy="-522" rx="46.2923" ry="18"/>
<text text-anchor="middle" x="957.445" y="-518.3" font-family="Times New Roman,serif" font-size="14.00">types/lost</text>
</g>
<!-- types/equiv&#45;&gt;types/lost -->
<g id="edge51" class="edge"><title>types/equiv&#45;&gt;types/lost</title>
<path fill="none" stroke="black" d="M664.202,-586.011C720.955,-577.137 819.377,-560.488 902.445,-540 906.053,-539.11 909.774,-538.12 913.498,-537.077"/>
<polygon fill="black" stroke="black" points="914.665,-540.383 923.29,-534.229 912.71,-533.662 914.665,-540.383"/>
</g>
<!-- structures -->
<g id="node27" class="node"><title>structures</title>
<ellipse fill="none" stroke="black" cx="795.445" cy="-450" rx="46.2923" ry="18"/>
<text text-anchor="middle" x="795.445" y="-446.3" font-family="Times New Roman,serif" font-size="14.00">structures</text>
</g>
<!-- types/coproduct&#45;&gt;structures -->
<g id="edge39" class="edge"><title>types/coproduct&#45;&gt;structures</title>
<path fill="none" stroke="black" d="M815.909,-504.055C812.87,-496.176 809.182,-486.617 805.779,-477.794"/>
<polygon fill="black" stroke="black" points="808.972,-476.346 802.108,-468.275 802.441,-478.865 808.972,-476.346"/>
</g>
<!-- types/nat -->
<g id="node40" class="node"><title>types/nat</title>
<ellipse fill="none" stroke="black" cx="903.445" cy="-450" rx="43.5923" ry="18"/>
<text text-anchor="middle" x="903.445" y="-446.3" font-family="Times New Roman,serif" font-size="14.00">types/nat</text>
</g>
<!-- types/coproduct&#45;&gt;types/nat -->
<g id="edge50" class="edge"><title>types/coproduct&#45;&gt;types/nat</title>
<path fill="none" stroke="black" d="M841.641,-504.411C852.436,-495.082 866.054,-483.313 877.758,-473.199"/>
<polygon fill="black" stroke="black" points="880.219,-475.698 885.496,-466.511 875.642,-470.401 880.219,-475.698"/>
</g>
<!-- types/dep_path&#45;&gt;types/equiv -->
<g id="edge21" class="edge"><title>types/dep_path&#45;&gt;types/equiv</title>
<path fill="none" stroke="black" d="M617.445,-647.697C617.445,-639.983 617.445,-630.712 617.445,-622.112"/>
<polygon fill="black" stroke="black" points="620.945,-622.104 617.445,-612.104 613.945,-622.104 620.945,-622.104"/>
</g>
<!-- cubical/Path -->
<g id="node17" class="node"><title>cubical/Path</title>
<ellipse fill="none" stroke="black" cx="823.445" cy="-162" rx="55.4913" ry="18"/>
<text text-anchor="middle" x="823.445" y="-158.3" font-family="Times New Roman,serif" font-size="14.00">cubical/Path</text>
</g>
<!-- cubical/connection -->
<g id="node18" class="node"><title>cubical/connection</title>
<ellipse fill="none" stroke="black" cx="661.445" cy="-90" rx="79.0865" ry="18"/>
<text text-anchor="middle" x="661.445" y="-86.3" font-family="Times New Roman,serif" font-size="14.00">cubical/connection</text>
</g>
<!-- cubical/Path&#45;&gt;cubical/connection -->
<g id="edge12" class="edge"><title>cubical/Path&#45;&gt;cubical/connection</title>
<path fill="none" stroke="black" d="M791.439,-147.17C767.023,-136.62 733.094,-121.96 706.022,-110.262"/>
<polygon fill="black" stroke="black" points="707.327,-107.013 696.759,-106.259 704.55,-113.439 707.327,-107.013"/>
</g>
<!-- cubical/Square -->
<g id="node21" class="node"><title>cubical/Square</title>
<ellipse fill="none" stroke="black" cx="823.445" cy="-90" rx="64.189" ry="18"/>
<text text-anchor="middle" x="823.445" y="-86.3" font-family="Times New Roman,serif" font-size="14.00">cubical/Square</text>
</g>
<!-- cubical/Path&#45;&gt;cubical/Square -->
<g id="edge15" class="edge"><title>cubical/Path&#45;&gt;cubical/Square</title>
<path fill="none" stroke="black" d="M823.445,-143.697C823.445,-135.983 823.445,-126.712 823.445,-118.112"/>
<polygon fill="black" stroke="black" points="826.945,-118.104 823.445,-108.104 819.945,-118.104 826.945,-118.104"/>
</g>
<!-- cubical/example -->
<g id="node22" class="node"><title>cubical/example</title>
<ellipse fill="none" stroke="black" cx="974.445" cy="-90" rx="68.7879" ry="18"/>
<text text-anchor="middle" x="974.445" y="-86.3" font-family="Times New Roman,serif" font-size="14.00">cubical/example</text>
</g>
<!-- cubical/Path&#45;&gt;cubical/example -->
<g id="edge16" class="edge"><title>cubical/Path&#45;&gt;cubical/example</title>
<path fill="none" stroke="black" d="M854.002,-146.834C876.697,-136.314 907.911,-121.844 932.875,-110.271"/>
<polygon fill="black" stroke="black" points="934.506,-113.373 942.106,-105.991 931.562,-107.022 934.506,-113.373"/>
</g>
<!-- cubical/Path&#45;&gt;cubical/V -->
<g id="edge18" class="edge"><title>cubical/Path&#45;&gt;cubical/V</title>
<path fill="none" stroke="black" d="M776.612,-152.391C726.156,-142.809 643.652,-126.252 573.445,-108 569.848,-107.065 566.135,-106.043 562.416,-104.978"/>
<polygon fill="black" stroke="black" points="563.215,-101.565 552.634,-102.094 561.236,-108.279 563.215,-101.565"/>
</g>
<!-- HITs/moebius -->
<g id="node31" class="node"><title>HITs/moebius</title>
<ellipse fill="none" stroke="black" cx="1124.44" cy="-90" rx="63.0888" ry="18"/>
<text text-anchor="middle" x="1124.44" y="-86.3" font-family="Times New Roman,serif" font-size="14.00">HITs/moebius</text>
</g>
<!-- cubical/Path&#45;&gt;HITs/moebius -->
<g id="edge28" class="edge"><title>cubical/Path&#45;&gt;HITs/moebius</title>
<path fill="none" stroke="black" d="M867.359,-150.897C913.467,-140.275 988.072,-123.049 1052.44,-108 1057.4,-106.842 1062.54,-105.635 1067.7,-104.423"/>
<polygon fill="black" stroke="black" points="1068.66,-107.793 1077.59,-102.095 1067.05,-100.98 1068.66,-107.793"/>
</g>
<!-- types/product -->
<g id="node19" class="node"><title>types/product</title>
<ellipse fill="none" stroke="black" cx="823.445" cy="-306" rx="61.99" ry="18"/>
<text text-anchor="middle" x="823.445" y="-302.3" font-family="Times New Roman,serif" font-size="14.00">types/product</text>
</g>
<!-- types/product&#45;&gt;theorems/ua -->
<g id="edge48" class="edge"><title>types/product&#45;&gt;theorems/ua</title>
<path fill="none" stroke="black" d="M777.909,-293.827C769.768,-291.862 761.359,-289.853 753.445,-288 691.476,-273.488 620.142,-257.501 572.474,-246.921"/>
<polygon fill="black" stroke="black" points="573.193,-243.496 562.673,-244.748 571.678,-250.33 573.193,-243.496"/>
</g>
<!-- cubical/cubes -->
<g id="node20" class="node"><title>cubical/cubes</title>
<ellipse fill="none" stroke="black" cx="823.445" cy="-234" rx="60.3893" ry="18"/>
<text text-anchor="middle" x="823.445" y="-230.3" font-family="Times New Roman,serif" font-size="14.00">cubical/cubes</text>
</g>
<!-- types/product&#45;&gt;cubical/cubes -->
<g id="edge13" class="edge"><title>types/product&#45;&gt;cubical/cubes</title>
<path fill="none" stroke="black" d="M823.445,-287.697C823.445,-279.983 823.445,-270.712 823.445,-262.112"/>
<polygon fill="black" stroke="black" points="826.945,-262.104 823.445,-252.104 819.945,-262.104 826.945,-262.104"/>
</g>
<!-- cubical/cubes&#45;&gt;cubical/Path -->
<g id="edge14" class="edge"><title>cubical/cubes&#45;&gt;cubical/Path</title>
<path fill="none" stroke="black" d="M823.445,-215.697C823.445,-207.983 823.445,-198.712 823.445,-190.112"/>
<polygon fill="black" stroke="black" points="826.945,-190.104 823.445,-180.104 819.945,-190.104 826.945,-190.104"/>
</g>
<!-- support&#45;&gt;types/equiv -->
<g id="edge22" class="edge"><title>support&#45;&gt;types/equiv</title>
<path fill="none" stroke="black" d="M517.06,-651.669C535.546,-641.233 561.537,-626.561 582.44,-614.761"/>
<polygon fill="black" stroke="black" points="584.357,-617.698 591.345,-609.734 580.916,-611.602 584.357,-617.698"/>
</g>
<!-- theorems/functions -->
<g id="node25" class="node"><title>theorems/functions</title>
<ellipse fill="none" stroke="black" cx="782.445" cy="-666" rx="79.8859" ry="18"/>
<text text-anchor="middle" x="782.445" y="-662.3" font-family="Times New Roman,serif" font-size="14.00">theorems/functions</text>
</g>
<!-- theorems/functions&#45;&gt;types/equiv -->
<g id="edge23" class="edge"><title>theorems/functions&#45;&gt;types/equiv</title>
<path fill="none" stroke="black" d="M746.642,-649.811C720.613,-638.769 685.337,-623.803 658.223,-612.3"/>
<polygon fill="black" stroke="black" points="659.573,-609.071 649.001,-608.387 656.839,-615.515 659.573,-609.071"/>
</g>
<!-- HITs/rat -->
<g id="node36" class="node"><title>HITs/rat</title>
<ellipse fill="none" stroke="black" cx="93.4446" cy="-378" rx="41.6928" ry="18"/>
<text text-anchor="middle" x="93.4446" y="-374.3" font-family="Times New Roman,serif" font-size="14.00">HITs/rat</text>
</g>
<!-- HITs/int&#45;&gt;HITs/rat -->
<g id="edge35" class="edge"><title>HITs/int&#45;&gt;HITs/rat</title>
<path fill="none" stroke="black" d="M160.784,-433.811C148.838,-424.088 133.156,-411.323 119.93,-400.558"/>
<polygon fill="black" stroke="black" points="122.034,-397.758 112.069,-394.159 117.615,-403.187 122.034,-397.758"/>
</g>
<!-- structures&#45;&gt;HITs/interval -->
<g id="edge25" class="edge"><title>structures&#45;&gt;HITs/interval</title>
<path fill="none" stroke="black" d="M785.254,-432.411C780.135,-424.077 773.82,-413.797 768.102,-404.488"/>
<polygon fill="black" stroke="black" points="771.077,-402.645 762.861,-395.956 765.113,-406.309 771.077,-402.645"/>
</g>
<!-- structures&#45;&gt;HITs/truncation -->
<g id="edge45" class="edge"><title>structures&#45;&gt;HITs/truncation</title>
<path fill="none" stroke="black" d="M763.298,-436.967C733.644,-425.866 689.25,-409.248 655.587,-396.647"/>
<polygon fill="black" stroke="black" points="656.549,-393.27 645.957,-393.042 654.095,-399.826 656.549,-393.27"/>
</g>
<!-- structures&#45;&gt;HITs/trunc -->
<g id="edge43" class="edge"><title>structures&#45;&gt;HITs/trunc</title>
<path fill="none" stroke="black" d="M814.087,-433.465C825.427,-424.015 840.097,-411.79 852.665,-401.316"/>
<polygon fill="black" stroke="black" points="855.122,-403.825 860.564,-394.734 850.641,-398.447 855.122,-403.825"/>
</g>
<!-- HITs/interval&#45;&gt;types/product -->
<g id="edge31" class="edge"><title>HITs/interval&#45;&gt;types/product</title>
<path fill="none" stroke="black" d="M769.271,-360.411C778.29,-351.519 789.557,-340.411 799.476,-330.631"/>
<polygon fill="black" stroke="black" points="802.076,-332.983 806.739,-323.47 797.161,-327.998 802.076,-332.983"/>
</g>
<!-- theorems/prop -->
<g id="node35" class="node"><title>theorems/prop</title>
<ellipse fill="none" stroke="black" cx="680.445" cy="-306" rx="63.8893" ry="18"/>
<text text-anchor="middle" x="680.445" y="-302.3" font-family="Times New Roman,serif" font-size="14.00">theorems/prop</text>
</g>
<!-- HITs/interval&#45;&gt;theorems/prop -->
<g id="edge32" class="edge"><title>HITs/interval&#45;&gt;theorems/prop</title>
<path fill="none" stroke="black" d="M735.745,-360.765C726.609,-351.882 715.117,-340.709 704.98,-330.854"/>
<polygon fill="black" stroke="black" points="707.163,-328.095 697.553,-323.633 702.283,-333.114 707.163,-328.095"/>
</g>
<!-- HITs/pushout&#45;&gt;HITs/suspension -->
<g id="edge41" class="edge"><title>HITs/pushout&#45;&gt;HITs/suspension</title>
<path fill="none" stroke="black" d="M331.68,-434.326C353.753,-423.956 383.58,-409.943 407.693,-398.615"/>
<polygon fill="black" stroke="black" points="409.4,-401.68 416.962,-394.26 406.423,-395.344 409.4,-401.68"/>
</g>
<!-- HITs/join -->
<g id="node30" class="node"><title>HITs/join</title>
<ellipse fill="none" stroke="black" cx="313.445" cy="-378" rx="45.4919" ry="18"/>
<text text-anchor="middle" x="313.445" y="-374.3" font-family="Times New Roman,serif" font-size="14.00">HITs/join</text>
</g>
<!-- HITs/pushout&#45;&gt;HITs/join -->
<g id="edge27" class="edge"><title>HITs/pushout&#45;&gt;HITs/join</title>
<path fill="none" stroke="black" d="M303.658,-431.697C305.091,-423.983 306.812,-414.712 308.409,-406.112"/>
<polygon fill="black" stroke="black" points="311.883,-406.575 310.268,-396.104 305.001,-405.297 311.883,-406.575"/>
</g>
<!-- HITs/pushout&#45;&gt;HITs/reals -->
<g id="edge36" class="edge"><title>HITs/pushout&#45;&gt;HITs/reals</title>
<path fill="none" stroke="black" d="M277.98,-433.116C264.245,-423.405 246.505,-410.861 231.563,-400.296"/>
<polygon fill="black" stroke="black" points="233.326,-397.256 223.14,-394.34 229.284,-402.971 233.326,-397.256"/>
</g>
<!-- theorems/mere_eq_lemma -->
<g id="node33" class="node"><title>theorems/mere_eq_lemma</title>
<ellipse fill="none" stroke="black" cx="492.445" cy="-306" rx="105.881" ry="18"/>
<text text-anchor="middle" x="492.445" y="-302.3" font-family="Times New Roman,serif" font-size="14.00">theorems/mere_eq_lemma</text>
</g>
<!-- HITs/truncation&#45;&gt;theorems/mere_eq_lemma -->
<g id="edge29" class="edge"><title>HITs/truncation&#45;&gt;theorems/mere_eq_lemma</title>
<path fill="none" stroke="black" d="M582.412,-361.291C566.599,-351.748 546.175,-339.423 528.784,-328.929"/>
<polygon fill="black" stroke="black" points="530.378,-325.803 520.007,-323.633 526.761,-331.796 530.378,-325.803"/>
</g>
<!-- HITs/truncation&#45;&gt;theorems/prop -->
<g id="edge33" class="edge"><title>HITs/truncation&#45;&gt;theorems/prop</title>
<path fill="none" stroke="black" d="M625.508,-360.411C634.654,-351.519 646.079,-340.411 656.139,-330.631"/>
<polygon fill="black" stroke="black" points="658.774,-332.95 663.504,-323.47 653.894,-327.931 658.774,-332.95"/>
</g>
<!-- theorems/topology -->
<g id="node34" class="node"><title>theorems/topology</title>
<ellipse fill="none" stroke="black" cx="785.445" cy="-810" rx="79.0865" ry="18"/>
<text text-anchor="middle" x="785.445" y="-806.3" font-family="Times New Roman,serif" font-size="14.00">theorems/topology</text>
</g>
<!-- types/unit&#45;&gt;HITs/suspension -->
<g id="edge42" class="edge"><title>types/unit&#45;&gt;HITs/suspension</title>
<path fill="none" stroke="black" d="M652.114,-510.178C614.991,-498.472 559.405,-479.892 540.445,-468 536.547,-465.555 499.2,-428.618 473.58,-403.105"/>
<polygon fill="black" stroke="black" points="475.932,-400.509 466.379,-395.928 470.991,-405.467 475.932,-400.509"/>
</g>
<!-- types/unit&#45;&gt;structures -->
<g id="edge38" class="edge"><title>types/unit&#45;&gt;structures</title>
<path fill="none" stroke="black" d="M710.349,-506.155C725.956,-496.039 746.821,-482.515 763.983,-471.391"/>
<polygon fill="black" stroke="black" points="766.086,-474.2 772.574,-465.824 762.278,-468.326 766.086,-474.2"/>
</g>
<!-- types/sigma -->
<g id="node42" class="node"><title>types/sigma</title>
<ellipse fill="none" stroke="black" cx="936.445" cy="-810" rx="53.8905" ry="18"/>
<text text-anchor="middle" x="936.445" y="-806.3" font-family="Times New Roman,serif" font-size="14.00">types/sigma</text>
</g>
</g>
</svg>
