<?xml version="1.0" encoding="UTF-8" standalone="no"?>
<!DOCTYPE svg PUBLIC "-//W3C//DTD SVG 1.1//EN"
 "http://www.w3.org/Graphics/SVG/1.1/DTD/svg11.dtd">
<!-- Generated by graphviz version 2.38.0 (20140413.2041)
 -->
<!-- Title: dependency_map Pages: 1 -->
<svg width="584pt" height="836pt"
 viewBox="0.00 0.00 583.69 836.00" xmlns="http://www.w3.org/2000/svg" xmlns:xlink="http://www.w3.org/1999/xlink">
<g id="graph0" class="graph" transform="scale(1 1) rotate(0) translate(4 832)">
<title>dependency_map</title>
<polygon fill="white" stroke="none" points="-4,4 -4,-832 579.69,-832 579.69,4 -4,4"/>
<!-- algebra -->
<g id="node1" class="node"><title>algebra</title>
<ellipse fill="none" stroke="black" stroke-dasharray="5,2" cx="249.745" cy="-18" rx="36.2938" ry="18"/>
<text text-anchor="middle" x="249.745" y="-14.3" font-family="Times New Roman,serif" font-size="14.00">algebra</text>
</g>
<!-- HITs/ntrunc -->
<g id="node2" class="node"><title>HITs/ntrunc</title>
<ellipse fill="none" stroke="black" stroke-dasharray="5,2" cx="249.745" cy="-90" rx="55.4913" ry="18"/>
<text text-anchor="middle" x="249.745" y="-86.3" font-family="Times New Roman,serif" font-size="14.00">HITs/ntrunc</text>
</g>
<!-- HITs/ntrunc&#45;&gt;algebra -->
<g id="edge1" class="edge"><title>HITs/ntrunc&#45;&gt;algebra</title>
<path fill="none" stroke="black" d="M249.745,-71.6966C249.745,-63.9827 249.745,-54.7125 249.745,-46.1124"/>
<polygon fill="black" stroke="black" points="253.245,-46.1043 249.745,-36.1043 246.245,-46.1044 253.245,-46.1043"/>
</g>
<!-- HITs/circle -->
<g id="node3" class="node"><title>HITs/circle</title>
<ellipse fill="none" stroke="black" stroke-dasharray="5,2" cx="249.745" cy="-162" rx="51.9908" ry="18"/>
<text text-anchor="middle" x="249.745" y="-158.3" font-family="Times New Roman,serif" font-size="14.00">HITs/circle</text>
</g>
<!-- HITs/circle&#45;&gt;HITs/ntrunc -->
<g id="edge12" class="edge"><title>HITs/circle&#45;&gt;HITs/ntrunc</title>
<path fill="none" stroke="black" d="M249.745,-143.697C249.745,-135.983 249.745,-126.712 249.745,-118.112"/>
<polygon fill="black" stroke="black" points="253.245,-118.104 249.745,-108.104 246.245,-118.104 253.245,-118.104"/>
</g>
<!-- HITs/suspension -->
<g id="node4" class="node"><title>HITs/suspension</title>
<ellipse fill="none" stroke="black" cx="91.7445" cy="-450" rx="72.5877" ry="18"/>
<text text-anchor="middle" x="91.7445" y="-446.3" font-family="Times New Roman,serif" font-size="14.00">HITs/suspension</text>
</g>
<!-- HITs/suspension&#45;&gt;HITs/circle -->
<g id="edge2" class="edge"><title>HITs/suspension&#45;&gt;HITs/circle</title>
<path fill="none" stroke="black" d="M93.3186,-431.976C95.4824,-413.588 100.359,-383.739 110.745,-360 140.721,-291.48 196.565,-222.641 227.566,-187.307"/>
<polygon fill="black" stroke="black" points="230.498,-189.276 234.516,-179.473 225.262,-184.631 230.498,-189.276"/>
</g>
<!-- theorems/ua -->
<g id="node5" class="node"><title>theorems/ua</title>
<ellipse fill="none" stroke="black" stroke-dasharray="5,2" cx="407.745" cy="-234" rx="54.6905" ry="18"/>
<text text-anchor="middle" x="407.745" y="-230.3" font-family="Times New Roman,serif" font-size="14.00">theorems/ua</text>
</g>
<!-- theorems/ua&#45;&gt;HITs/circle -->
<g id="edge3" class="edge"><title>theorems/ua&#45;&gt;HITs/circle</title>
<path fill="none" stroke="black" d="M376.529,-219.17C351.59,-208.121 316.474,-192.564 289.521,-180.622"/>
<polygon fill="black" stroke="black" points="290.918,-177.414 280.358,-176.563 288.083,-183.814 290.918,-177.414"/>
</g>
<!-- types/equiv -->
<g id="node6" class="node"><title>types/equiv</title>
<ellipse fill="none" stroke="black" cx="279.745" cy="-666" rx="51.9908" ry="18"/>
<text text-anchor="middle" x="279.745" y="-662.3" font-family="Times New Roman,serif" font-size="14.00">types/equiv</text>
</g>
<!-- types/coproduct -->
<g id="node7" class="node"><title>types/coproduct</title>
<ellipse fill="none" stroke="black" cx="347.745" cy="-594" rx="70.6878" ry="18"/>
<text text-anchor="middle" x="347.745" y="-590.3" font-family="Times New Roman,serif" font-size="14.00">types/coproduct</text>
</g>
<!-- types/equiv&#45;&gt;types/coproduct -->
<g id="edge4" class="edge"><title>types/equiv&#45;&gt;types/coproduct</title>
<path fill="none" stroke="black" d="M295.516,-648.765C304.145,-639.882 314.998,-628.709 324.572,-618.854"/>
<polygon fill="black" stroke="black" points="327.129,-621.245 331.586,-611.633 322.108,-616.367 327.129,-621.245"/>
</g>
<!-- types/heq -->
<g id="node10" class="node"><title>types/heq</title>
<ellipse fill="none" stroke="black" cx="102.745" cy="-594" rx="46.2923" ry="18"/>
<text text-anchor="middle" x="102.745" y="-590.3" font-family="Times New Roman,serif" font-size="14.00">types/heq</text>
</g>
<!-- types/equiv&#45;&gt;types/heq -->
<g id="edge6" class="edge"><title>types/equiv&#45;&gt;types/heq</title>
<path fill="none" stroke="black" d="M246.867,-651.998C217.603,-640.424 174.692,-623.454 143.304,-611.041"/>
<polygon fill="black" stroke="black" points="144.548,-607.769 133.961,-607.346 141.973,-614.278 144.548,-607.769"/>
</g>
<!-- types/unit -->
<g id="node21" class="node"><title>types/unit</title>
<ellipse fill="none" stroke="black" cx="212.745" cy="-594" rx="46.2923" ry="18"/>
<text text-anchor="middle" x="212.745" y="-590.3" font-family="Times New Roman,serif" font-size="14.00">types/unit</text>
</g>
<!-- types/equiv&#45;&gt;types/unit -->
<g id="edge26" class="edge"><title>types/equiv&#45;&gt;types/unit</title>
<path fill="none" stroke="black" d="M264.205,-648.765C255.58,-639.753 244.699,-628.385 235.167,-618.426"/>
<polygon fill="black" stroke="black" points="237.643,-615.951 228.2,-611.147 232.586,-620.792 237.643,-615.951"/>
</g>
<!-- types/lost -->
<g id="node24" class="node"><title>types/lost</title>
<ellipse fill="none" stroke="black" cx="482.745" cy="-594" rx="46.2923" ry="18"/>
<text text-anchor="middle" x="482.745" y="-590.3" font-family="Times New Roman,serif" font-size="14.00">types/lost</text>
</g>
<!-- types/equiv&#45;&gt;types/lost -->
<g id="edge28" class="edge"><title>types/equiv&#45;&gt;types/lost</title>
<path fill="none" stroke="black" d="M315.57,-652.647C350.259,-640.685 402.884,-622.538 439.801,-609.808"/>
<polygon fill="black" stroke="black" points="440.985,-613.102 449.298,-606.533 438.703,-606.485 440.985,-613.102"/>
</g>
<!-- structures -->
<g id="node22" class="node"><title>structures</title>
<ellipse fill="none" stroke="black" cx="263.745" cy="-522" rx="46.2923" ry="18"/>
<text text-anchor="middle" x="263.745" y="-518.3" font-family="Times New Roman,serif" font-size="14.00">structures</text>
</g>
<!-- types/coproduct&#45;&gt;structures -->
<g id="edge19" class="edge"><title>types/coproduct&#45;&gt;structures</title>
<path fill="none" stroke="black" d="M327.838,-576.411C316.643,-567.082 302.52,-555.313 290.383,-545.199"/>
<polygon fill="black" stroke="black" points="292.28,-542.224 282.358,-538.511 287.799,-547.601 292.28,-542.224"/>
</g>
<!-- types/nat -->
<g id="node23" class="node"><title>types/nat</title>
<ellipse fill="none" stroke="black" cx="371.745" cy="-522" rx="43.5923" ry="18"/>
<text text-anchor="middle" x="371.745" y="-518.3" font-family="Times New Roman,serif" font-size="14.00">types/nat</text>
</g>
<!-- types/coproduct&#45;&gt;types/nat -->
<g id="edge27" class="edge"><title>types/coproduct&#45;&gt;types/nat</title>
<path fill="none" stroke="black" d="M353.554,-576.055C356.256,-568.176 359.533,-558.617 362.558,-549.794"/>
<polygon fill="black" stroke="black" points="365.889,-550.87 365.822,-540.275 359.267,-548.6 365.889,-550.87"/>
</g>
<!-- types/product -->
<g id="node8" class="node"><title>types/product</title>
<ellipse fill="none" stroke="black" cx="407.745" cy="-306" rx="61.99" ry="18"/>
<text text-anchor="middle" x="407.745" y="-302.3" font-family="Times New Roman,serif" font-size="14.00">types/product</text>
</g>
<!-- types/product&#45;&gt;theorems/ua -->
<g id="edge25" class="edge"><title>types/product&#45;&gt;theorems/ua</title>
<path fill="none" stroke="black" d="M407.745,-287.697C407.745,-279.983 407.745,-270.712 407.745,-262.112"/>
<polygon fill="black" stroke="black" points="411.245,-262.104 407.745,-252.104 404.245,-262.104 411.245,-262.104"/>
</g>
<!-- cubical -->
<g id="node9" class="node"><title>cubical</title>
<ellipse fill="none" stroke="black" cx="298.745" cy="-234" rx="36.2938" ry="18"/>
<text text-anchor="middle" x="298.745" y="-230.3" font-family="Times New Roman,serif" font-size="14.00">cubical</text>
</g>
<!-- types/product&#45;&gt;cubical -->
<g id="edge5" class="edge"><title>types/product&#45;&gt;cubical</title>
<path fill="none" stroke="black" d="M383.283,-289.291C367.141,-278.924 345.886,-265.274 328.728,-254.255"/>
<polygon fill="black" stroke="black" points="330.482,-251.223 320.177,-248.764 326.7,-257.113 330.482,-251.223"/>
</g>
<!-- HITs/trunc -->
<g id="node15" class="node"><title>HITs/trunc</title>
<ellipse fill="none" stroke="black" cx="247.745" cy="-450" rx="50.8918" ry="18"/>
<text text-anchor="middle" x="247.745" y="-446.3" font-family="Times New Roman,serif" font-size="14.00">HITs/trunc</text>
</g>
<!-- types/heq&#45;&gt;HITs/trunc -->
<g id="edge24" class="edge"><title>types/heq&#45;&gt;HITs/trunc</title>
<path fill="none" stroke="black" d="M119.096,-576.987C144.66,-551.952 194.222,-503.415 223.809,-474.441"/>
<polygon fill="black" stroke="black" points="226.535,-476.67 231.23,-467.173 221.637,-471.669 226.535,-476.67"/>
</g>
<!-- HITs/pushout -->
<g id="node19" class="node"><title>HITs/pushout</title>
<ellipse fill="none" stroke="black" cx="61.7445" cy="-522" rx="61.99" ry="18"/>
<text text-anchor="middle" x="61.7445" y="-518.3" font-family="Times New Roman,serif" font-size="14.00">HITs/pushout</text>
</g>
<!-- types/heq&#45;&gt;HITs/pushout -->
<g id="edge15" class="edge"><title>types/heq&#45;&gt;HITs/pushout</title>
<path fill="none" stroke="black" d="M92.8196,-576.055C87.9849,-567.801 82.0696,-557.701 76.7024,-548.538"/>
<polygon fill="black" stroke="black" points="79.6523,-546.649 71.5781,-539.789 73.6121,-550.187 79.6523,-546.649"/>
</g>
<!-- support -->
<g id="node11" class="node"><title>support</title>
<ellipse fill="none" stroke="black" cx="358.745" cy="-738" rx="38.9931" ry="18"/>
<text text-anchor="middle" x="358.745" y="-734.3" font-family="Times New Roman,serif" font-size="14.00">support</text>
</g>
<!-- support&#45;&gt;types/equiv -->
<g id="edge7" class="edge"><title>support&#45;&gt;types/equiv</title>
<path fill="none" stroke="black" d="M341.603,-721.811C331.131,-712.533 317.534,-700.484 305.755,-690.048"/>
<polygon fill="black" stroke="black" points="307.758,-687.146 297.952,-683.134 303.116,-692.385 307.758,-687.146"/>
</g>
<!-- HITs/reals -->
<g id="node20" class="node"><title>HITs/reals</title>
<ellipse fill="none" stroke="black" cx="407.745" cy="-666" rx="48.9926" ry="18"/>
<text text-anchor="middle" x="407.745" y="-662.3" font-family="Times New Roman,serif" font-size="14.00">HITs/reals</text>
</g>
<!-- support&#45;&gt;HITs/reals -->
<g id="edge16" class="edge"><title>support&#45;&gt;HITs/reals</title>
<path fill="none" stroke="black" d="M370.109,-720.765C376.083,-712.23 383.537,-701.582 390.231,-692.019"/>
<polygon fill="black" stroke="black" points="393.234,-693.833 396.101,-683.633 387.499,-689.819 393.234,-693.833"/>
</g>
<!-- theorems/functions -->
<g id="node12" class="node"><title>theorems/functions</title>
<ellipse fill="none" stroke="black" cx="221.745" cy="-738" rx="79.8859" ry="18"/>
<text text-anchor="middle" x="221.745" y="-734.3" font-family="Times New Roman,serif" font-size="14.00">theorems/functions</text>
</g>
<!-- theorems/functions&#45;&gt;types/equiv -->
<g id="edge8" class="edge"><title>theorems/functions&#45;&gt;types/equiv</title>
<path fill="none" stroke="black" d="M235.785,-720.055C242.838,-711.543 251.516,-701.068 259.294,-691.681"/>
<polygon fill="black" stroke="black" points="262.149,-693.722 265.834,-683.789 256.758,-689.256 262.149,-693.722"/>
</g>
<!-- types/eq -->
<g id="node13" class="node"><title>types/eq</title>
<ellipse fill="none" stroke="black" cx="407.745" cy="-810" rx="41.6928" ry="18"/>
<text text-anchor="middle" x="407.745" y="-806.3" font-family="Times New Roman,serif" font-size="14.00">types/eq</text>
</g>
<!-- types/eq&#45;&gt;support -->
<g id="edge20" class="edge"><title>types/eq&#45;&gt;support</title>
<path fill="none" stroke="black" d="M396.132,-792.411C390.152,-783.868 382.739,-773.278 376.096,-763.787"/>
<polygon fill="black" stroke="black" points="378.875,-761.655 370.273,-755.47 373.141,-765.669 378.875,-761.655"/>
</g>
<!-- HITs/int -->
<g id="node14" class="node"><title>HITs/int</title>
<ellipse fill="none" stroke="black" cx="456.745" cy="-738" rx="40.8928" ry="18"/>
<text text-anchor="middle" x="456.745" y="-734.3" font-family="Times New Roman,serif" font-size="14.00">HITs/int</text>
</g>
<!-- types/eq&#45;&gt;HITs/int -->
<g id="edge9" class="edge"><title>types/eq&#45;&gt;HITs/int</title>
<path fill="none" stroke="black" d="M419.357,-792.411C425.337,-783.868 432.75,-773.278 439.393,-763.787"/>
<polygon fill="black" stroke="black" points="442.348,-765.669 445.216,-755.47 436.614,-761.655 442.348,-765.669"/>
</g>
<!-- HITs/int&#45;&gt;HITs/reals -->
<g id="edge17" class="edge"><title>HITs/int&#45;&gt;HITs/reals</title>
<path fill="none" stroke="black" d="M445.132,-720.411C439.239,-711.992 431.954,-701.585 425.385,-692.201"/>
<polygon fill="black" stroke="black" points="428.216,-690.141 419.614,-683.956 422.481,-694.156 428.216,-690.141"/>
</g>
<!-- HITs/interval -->
<g id="node16" class="node"><title>HITs/interval</title>
<ellipse fill="none" stroke="black" cx="407.745" cy="-378" rx="57.6901" ry="18"/>
<text text-anchor="middle" x="407.745" y="-374.3" font-family="Times New Roman,serif" font-size="14.00">HITs/interval</text>
</g>
<!-- HITs/trunc&#45;&gt;HITs/interval -->
<g id="edge10" class="edge"><title>HITs/trunc&#45;&gt;HITs/interval</title>
<path fill="none" stroke="black" d="M278.594,-435.503C303.532,-424.593 338.874,-409.131 366.284,-397.139"/>
<polygon fill="black" stroke="black" points="367.86,-400.27 375.619,-393.055 365.054,-393.857 367.86,-400.27"/>
</g>
<!-- theorems/mere_eq_lemma -->
<g id="node17" class="node"><title>theorems/mere_eq_lemma</title>
<ellipse fill="none" stroke="black" cx="225.745" cy="-378" rx="105.881" ry="18"/>
<text text-anchor="middle" x="225.745" y="-374.3" font-family="Times New Roman,serif" font-size="14.00">theorems/mere_eq_lemma</text>
</g>
<!-- HITs/trunc&#45;&gt;theorems/mere_eq_lemma -->
<g id="edge11" class="edge"><title>HITs/trunc&#45;&gt;theorems/mere_eq_lemma</title>
<path fill="none" stroke="black" d="M242.419,-432.055C239.969,-424.261 237.003,-414.822 234.255,-406.079"/>
<polygon fill="black" stroke="black" points="237.511,-404.766 231.174,-396.275 230.833,-406.865 237.511,-404.766"/>
</g>
<!-- HITs/interval&#45;&gt;types/product -->
<g id="edge13" class="edge"><title>HITs/interval&#45;&gt;types/product</title>
<path fill="none" stroke="black" d="M407.745,-359.697C407.745,-351.983 407.745,-342.712 407.745,-334.112"/>
<polygon fill="black" stroke="black" points="411.245,-334.104 407.745,-324.104 404.245,-334.104 411.245,-334.104"/>
</g>
<!-- theorems/prop -->
<g id="node18" class="node"><title>theorems/prop</title>
<ellipse fill="none" stroke="black" cx="264.745" cy="-306" rx="63.8893" ry="18"/>
<text text-anchor="middle" x="264.745" y="-302.3" font-family="Times New Roman,serif" font-size="14.00">theorems/prop</text>
</g>
<!-- HITs/interval&#45;&gt;theorems/prop -->
<g id="edge14" class="edge"><title>HITs/interval&#45;&gt;theorems/prop</title>
<path fill="none" stroke="black" d="M378.115,-362.496C356.832,-352.078 327.907,-337.919 304.601,-326.51"/>
<polygon fill="black" stroke="black" points="305.843,-323.222 295.323,-321.968 302.766,-329.509 305.843,-323.222"/>
</g>
<!-- HITs/pushout&#45;&gt;HITs/suspension -->
<g id="edge21" class="edge"><title>HITs/pushout&#45;&gt;HITs/suspension</title>
<path fill="none" stroke="black" d="M69.0067,-504.055C72.4196,-496.091 76.5685,-486.411 80.3832,-477.51"/>
<polygon fill="black" stroke="black" points="83.6186,-478.845 84.3408,-468.275 77.1846,-476.088 83.6186,-478.845"/>
</g>
<!-- types/unit&#45;&gt;HITs/suspension -->
<g id="edge22" class="edge"><title>types/unit&#45;&gt;HITs/suspension</title>
<path fill="none" stroke="black" d="M198.864,-576.711C177.757,-551.94 137.439,-504.625 112.737,-475.635"/>
<polygon fill="black" stroke="black" points="115.362,-473.32 106.212,-467.979 110.034,-477.86 115.362,-473.32"/>
</g>
<!-- types/unit&#45;&gt;structures -->
<g id="edge18" class="edge"><title>types/unit&#45;&gt;structures</title>
<path fill="none" stroke="black" d="M224.831,-576.411C231.055,-567.868 238.77,-557.278 245.685,-547.787"/>
<polygon fill="black" stroke="black" points="248.685,-549.613 251.745,-539.47 243.028,-545.491 248.685,-549.613"/>
</g>
<!-- structures&#45;&gt;HITs/trunc -->
<g id="edge23" class="edge"><title>structures&#45;&gt;HITs/trunc</title>
<path fill="none" stroke="black" d="M259.871,-504.055C258.09,-496.261 255.932,-486.822 253.934,-478.079"/>
<polygon fill="black" stroke="black" points="257.333,-477.244 251.693,-468.275 250.509,-478.804 257.333,-477.244"/>
</g>
<!-- types/sigma -->
<g id="node25" class="node"><title>types/sigma</title>
<ellipse fill="none" stroke="black" cx="521.745" cy="-810" rx="53.8905" ry="18"/>
<text text-anchor="middle" x="521.745" y="-806.3" font-family="Times New Roman,serif" font-size="14.00">types/sigma</text>
</g>
</g>
</svg>
