<?xml version="1.0" encoding="UTF-8" standalone="no"?>
<!DOCTYPE svg PUBLIC "-//W3C//DTD SVG 1.1//EN"
 "http://www.w3.org/Graphics/SVG/1.1/DTD/svg11.dtd">
<!-- Generated by graphviz version 2.38.0 (20140413.2041)
 -->
<!-- Title: dependency_map Pages: 1 -->
<svg width="752pt" height="620pt"
 viewBox="0.00 0.00 751.65 620.00" xmlns="http://www.w3.org/2000/svg" xmlns:xlink="http://www.w3.org/1999/xlink">
<g id="graph0" class="graph" transform="scale(1 1) rotate(0) translate(4 616)">
<title>dependency_map</title>
<polygon fill="white" stroke="none" points="-4,4 -4,-616 747.646,-616 747.646,4 -4,4"/>
<!-- ntrunc -->
<g id="node1" class="node"><title>ntrunc</title>
<ellipse fill="none" stroke="black" cx="414" cy="-90" rx="33.5952" ry="18"/>
<text text-anchor="middle" x="414" y="-86.3" font-family="Times New Roman,serif" font-size="14.00">ntrunc</text>
</g>
<!-- algebra -->
<g id="node2" class="node"><title>algebra</title>
<ellipse fill="none" stroke="black" cx="414" cy="-18" rx="36.2938" ry="18"/>
<text text-anchor="middle" x="414" y="-14.3" font-family="Times New Roman,serif" font-size="14.00">algebra</text>
</g>
<!-- ntrunc&#45;&gt;algebra -->
<g id="edge1" class="edge"><title>ntrunc&#45;&gt;algebra</title>
<path fill="none" stroke="black" d="M414,-71.6966C414,-63.9827 414,-54.7125 414,-46.1124"/>
<polygon fill="black" stroke="black" points="417.5,-46.1043 414,-36.1043 410.5,-46.1044 417.5,-46.1043"/>
</g>
<!-- structures -->
<g id="node3" class="node"><title>structures</title>
<ellipse fill="none" stroke="black" cx="412" cy="-378" rx="46.2923" ry="18"/>
<text text-anchor="middle" x="412" y="-374.3" font-family="Times New Roman,serif" font-size="14.00">structures</text>
</g>
<!-- structures&#45;&gt;algebra -->
<g id="edge2" class="edge"><title>structures&#45;&gt;algebra</title>
<path fill="none" stroke="black" d="M424.951,-360.601C443.652,-335.224 476,-284.215 476,-235 476,-235 476,-235 476,-161 476,-120.553 474.446,-108.491 457,-72 451.835,-61.1964 444.046,-50.6629 436.511,-41.8699"/>
<polygon fill="black" stroke="black" points="439.027,-39.4331 429.744,-34.3262 433.816,-44.1073 439.027,-39.4331"/>
</g>
<!-- circle -->
<g id="node6" class="node"><title>circle</title>
<ellipse fill="none" stroke="black" cx="416" cy="-162" rx="30.5947" ry="18"/>
<text text-anchor="middle" x="416" y="-158.3" font-family="Times New Roman,serif" font-size="14.00">circle</text>
</g>
<!-- structures&#45;&gt;circle -->
<g id="edge5" class="edge"><title>structures&#45;&gt;circle</title>
<path fill="none" stroke="black" d="M413.574,-359.614C416.062,-330.099 420.479,-268.298 419,-216 418.765,-207.673 418.321,-198.619 417.846,-190.389"/>
<polygon fill="black" stroke="black" points="421.326,-189.942 417.219,-180.175 414.339,-190.371 421.326,-189.942"/>
</g>
<!-- interval -->
<g id="node7" class="node"><title>interval</title>
<ellipse fill="none" stroke="black" cx="540" cy="-234" rx="36.2938" ry="18"/>
<text text-anchor="middle" x="540" y="-230.3" font-family="Times New Roman,serif" font-size="14.00">interval</text>
</g>
<!-- structures&#45;&gt;interval -->
<g id="edge16" class="edge"><title>structures&#45;&gt;interval</title>
<path fill="none" stroke="black" d="M438.515,-363.158C454.793,-353.716 475.271,-340.037 490,-324 507.049,-305.437 520.586,-280.034 529.251,-261.117"/>
<polygon fill="black" stroke="black" points="532.489,-262.449 533.332,-251.888 526.087,-259.618 532.489,-262.449"/>
</g>
<!-- trunc -->
<g id="node13" class="node"><title>trunc</title>
<ellipse fill="none" stroke="black" cx="363" cy="-306" rx="29.4969" ry="18"/>
<text text-anchor="middle" x="363" y="-302.3" font-family="Times New Roman,serif" font-size="14.00">trunc</text>
</g>
<!-- structures&#45;&gt;trunc -->
<g id="edge34" class="edge"><title>structures&#45;&gt;trunc</title>
<path fill="none" stroke="black" d="M400.388,-360.411C394.321,-351.744 386.78,-340.971 380.063,-331.375"/>
<polygon fill="black" stroke="black" points="382.794,-329.173 374.192,-322.988 377.059,-333.188 382.794,-329.173"/>
</g>
<!-- ua -->
<g id="node20" class="node"><title>ua</title>
<ellipse fill="none" stroke="black" stroke-dasharray="5,2" cx="569" cy="-306" rx="27" ry="18"/>
<text text-anchor="middle" x="569" y="-302.3" font-family="Times New Roman,serif" font-size="14.00">ua</text>
</g>
<!-- structures&#45;&gt;ua -->
<g id="edge38" class="edge"><title>structures&#45;&gt;ua</title>
<path fill="none" stroke="black" d="M441.163,-363.998C468.609,-351.76 509.588,-333.489 537.709,-320.952"/>
<polygon fill="black" stroke="black" points="539.368,-324.044 547.076,-316.775 536.517,-317.651 539.368,-324.044"/>
</g>
<!-- eq -->
<g id="node4" class="node"><title>eq</title>
<ellipse fill="none" stroke="black" cx="275" cy="-594" rx="27" ry="18"/>
<text text-anchor="middle" x="275" y="-590.3" font-family="Times New Roman,serif" font-size="14.00">eq</text>
</g>
<!-- eq&#45;&gt;algebra -->
<g id="edge3" class="edge"><title>eq&#45;&gt;algebra</title>
<path fill="none" stroke="black" d="M248.131,-591.571C178.934,-586.304 0,-561.957 0,-451 0,-451 0,-451 0,-161 0,-83.6946 261.541,-39.5699 368.866,-24.7175"/>
<polygon fill="black" stroke="black" points="369.622,-28.1469 379.059,-23.331 368.679,-21.2108 369.622,-28.1469"/>
</g>
<!-- eq&#45;&gt;structures -->
<g id="edge29" class="edge"><title>eq&#45;&gt;structures</title>
<path fill="none" stroke="black" d="M278.768,-575.953C286.313,-544.781 305.656,-477.606 341,-432 351.029,-419.059 364.992,-407.717 377.884,-398.882"/>
<polygon fill="black" stroke="black" points="380.137,-401.59 386.576,-393.176 376.296,-395.737 380.137,-401.59"/>
</g>
<!-- eq&#45;&gt;interval -->
<g id="edge15" class="edge"><title>eq&#45;&gt;interval</title>
<path fill="none" stroke="black" d="M295.479,-581.877C300.437,-579.595 305.808,-577.451 311,-576 459.906,-534.4 525.037,-620.557 657,-540 725.991,-497.884 717.478,-433.108 683,-360 666.489,-324.99 662.497,-314.195 634,-288 617.127,-272.49 594.915,-259.701 576.319,-250.574"/>
<polygon fill="black" stroke="black" points="577.782,-247.394 567.247,-246.266 574.779,-253.717 577.782,-247.394"/>
</g>
<!-- heq -->
<g id="node9" class="node"><title>heq</title>
<ellipse fill="none" stroke="black" cx="55" cy="-378" rx="27" ry="18"/>
<text text-anchor="middle" x="55" y="-374.3" font-family="Times New Roman,serif" font-size="14.00">heq</text>
</g>
<!-- eq&#45;&gt;heq -->
<g id="edge10" class="edge"><title>eq&#45;&gt;heq</title>
<path fill="none" stroke="black" d="M247.734,-592.875C208.512,-591.162 136.449,-582.038 96,-540 61.0205,-503.647 54.7001,-441.814 54.2059,-406.288"/>
<polygon fill="black" stroke="black" points="57.7059,-406.167 54.2143,-396.164 50.7059,-406.161 57.7059,-406.167"/>
</g>
<!-- support -->
<g id="node10" class="node"><title>support</title>
<ellipse fill="none" stroke="black" cx="189" cy="-450" rx="38.9931" ry="18"/>
<text text-anchor="middle" x="189" y="-446.3" font-family="Times New Roman,serif" font-size="14.00">support</text>
</g>
<!-- eq&#45;&gt;support -->
<g id="edge31" class="edge"><title>eq&#45;&gt;support</title>
<path fill="none" stroke="black" d="M264.807,-576.814C258.242,-566.345 249.555,-552.405 242,-540 228.937,-518.549 214.353,-494.016 203.796,-476.147"/>
<polygon fill="black" stroke="black" points="206.768,-474.296 198.671,-467.462 200.739,-477.853 206.768,-474.296"/>
</g>
<!-- equiv -->
<g id="node11" class="node"><title>equiv</title>
<ellipse fill="none" stroke="black" cx="577" cy="-522" rx="30.5947" ry="18"/>
<text text-anchor="middle" x="577" y="-518.3" font-family="Times New Roman,serif" font-size="14.00">equiv</text>
</g>
<!-- eq&#45;&gt;equiv -->
<g id="edge12" class="edge"><title>eq&#45;&gt;equiv</title>
<path fill="none" stroke="black" d="M295.585,-582.225C300.539,-579.929 305.881,-577.69 311,-576 389.179,-550.185 484.648,-534.91 537.322,-527.819"/>
<polygon fill="black" stroke="black" points="537.811,-531.285 547.268,-526.509 536.897,-524.345 537.811,-531.285"/>
</g>
<!-- int -->
<g id="node12" class="node"><title>int</title>
<ellipse fill="none" stroke="black" cx="349" cy="-522" rx="27" ry="18"/>
<text text-anchor="middle" x="349" y="-518.3" font-family="Times New Roman,serif" font-size="14.00">int</text>
</g>
<!-- eq&#45;&gt;int -->
<g id="edge13" class="edge"><title>eq&#45;&gt;int</title>
<path fill="none" stroke="black" d="M289.975,-578.834C300.507,-568.872 314.782,-555.369 326.655,-544.137"/>
<polygon fill="black" stroke="black" points="329.188,-546.559 334.047,-537.144 324.377,-541.474 329.188,-546.559"/>
</g>
<!-- mere_eq_lemma -->
<g id="node14" class="node"><title>mere_eq_lemma</title>
<ellipse fill="none" stroke="black" cx="340" cy="-234" rx="70.3881" ry="18"/>
<text text-anchor="middle" x="340" y="-230.3" font-family="Times New Roman,serif" font-size="14.00">mere_eq_lemma</text>
</g>
<!-- eq&#45;&gt;mere_eq_lemma -->
<g id="edge18" class="edge"><title>eq&#45;&gt;mere_eq_lemma</title>
<path fill="none" stroke="black" d="M276.828,-575.899C278.812,-557.952 282.211,-528.935 286,-504 300.655,-407.555 303.025,-383.045 325,-288 326.991,-279.389 329.499,-270.088 331.892,-261.717"/>
<polygon fill="black" stroke="black" points="335.264,-262.657 334.711,-252.077 328.545,-260.692 335.264,-262.657"/>
</g>
<!-- pushout -->
<g id="node17" class="node"><title>pushout</title>
<ellipse fill="none" stroke="black" cx="118" cy="-306" rx="40.0939" ry="18"/>
<text text-anchor="middle" x="118" y="-302.3" font-family="Times New Roman,serif" font-size="14.00">pushout</text>
</g>
<!-- eq&#45;&gt;pushout -->
<g id="edge25" class="edge"><title>eq&#45;&gt;pushout</title>
<path fill="none" stroke="black" d="M255.583,-581.218C225.442,-561.776 168.054,-519.912 141,-468 118.725,-425.258 115.93,-367.931 116.54,-334.475"/>
<polygon fill="black" stroke="black" points="120.05,-334.201 116.854,-324.1 113.053,-333.989 120.05,-334.201"/>
</g>
<!-- eq&#45;&gt;ua -->
<g id="edge37" class="edge"><title>eq&#45;&gt;ua</title>
<path fill="none" stroke="black" d="M295.494,-581.927C300.451,-579.644 305.817,-577.485 311,-576 442.637,-538.269 494.193,-600.584 617,-540 657.025,-520.254 670.211,-509.353 687,-468 711.037,-408.795 639.234,-351.354 597.18,-323.85"/>
<polygon fill="black" stroke="black" points="599.017,-320.87 588.703,-318.445 595.253,-326.772 599.017,-320.87"/>
</g>
<!-- suspension -->
<g id="node5" class="node"><title>suspension</title>
<ellipse fill="none" stroke="black" cx="200" cy="-234" rx="51.1914" ry="18"/>
<text text-anchor="middle" x="200" y="-230.3" font-family="Times New Roman,serif" font-size="14.00">suspension</text>
</g>
<!-- suspension&#45;&gt;circle -->
<g id="edge4" class="edge"><title>suspension&#45;&gt;circle</title>
<path fill="none" stroke="black" d="M236.641,-221.125C276.698,-208.144 340.459,-187.481 380.185,-174.607"/>
<polygon fill="black" stroke="black" points="381.305,-177.923 389.739,-171.511 379.147,-171.264 381.305,-177.923"/>
</g>
<!-- circle&#45;&gt;ntrunc -->
<g id="edge20" class="edge"><title>circle&#45;&gt;ntrunc</title>
<path fill="none" stroke="black" d="M415.506,-143.697C415.285,-135.983 415.02,-126.712 414.775,-118.112"/>
<polygon fill="black" stroke="black" points="418.273,-118 414.489,-108.104 411.276,-118.2 418.273,-118"/>
</g>
<!-- interval&#45;&gt;circle -->
<g id="edge6" class="edge"><title>interval&#45;&gt;circle</title>
<path fill="none" stroke="black" d="M516.967,-219.998C496.989,-208.719 467.932,-192.316 446.114,-180"/>
<polygon fill="black" stroke="black" points="447.682,-176.866 437.254,-174.998 444.241,-182.962 447.682,-176.866"/>
</g>
<!-- cubical -->
<g id="node8" class="node"><title>cubical</title>
<ellipse fill="none" stroke="black" cx="121" cy="-162" rx="36.2938" ry="18"/>
<text text-anchor="middle" x="121" y="-158.3" font-family="Times New Roman,serif" font-size="14.00">cubical</text>
</g>
<!-- interval&#45;&gt;cubical -->
<g id="edge7" class="edge"><title>interval&#45;&gt;cubical</title>
<path fill="none" stroke="black" d="M506.066,-227.331C430.603,-214.724 248.931,-184.373 164.942,-170.341"/>
<polygon fill="black" stroke="black" points="165.398,-166.869 154.957,-168.673 164.244,-173.773 165.398,-166.869"/>
</g>
<!-- product -->
<g id="node15" class="node"><title>product</title>
<ellipse fill="none" stroke="black" cx="704" cy="-162" rx="39.7935" ry="18"/>
<text text-anchor="middle" x="704" y="-158.3" font-family="Times New Roman,serif" font-size="14.00">product</text>
</g>
<!-- interval&#45;&gt;product -->
<g id="edge22" class="edge"><title>interval&#45;&gt;product</title>
<path fill="none" stroke="black" d="M566.714,-221.597C593.905,-209.992 636.278,-191.906 666.756,-178.897"/>
<polygon fill="black" stroke="black" points="668.377,-182.011 676.2,-174.866 665.629,-175.573 668.377,-182.011"/>
</g>
<!-- prop -->
<g id="node16" class="node"><title>prop</title>
<ellipse fill="none" stroke="black" cx="540" cy="-162" rx="28.6953" ry="18"/>
<text text-anchor="middle" x="540" y="-158.3" font-family="Times New Roman,serif" font-size="14.00">prop</text>
</g>
<!-- interval&#45;&gt;prop -->
<g id="edge23" class="edge"><title>interval&#45;&gt;prop</title>
<path fill="none" stroke="black" d="M540,-215.697C540,-207.983 540,-198.712 540,-190.112"/>
<polygon fill="black" stroke="black" points="543.5,-190.104 540,-180.104 536.5,-190.104 543.5,-190.104"/>
</g>
<!-- heq&#45;&gt;cubical -->
<g id="edge8" class="edge"><title>heq&#45;&gt;cubical</title>
<path fill="none" stroke="black" d="M56.4582,-360.012C58.2919,-341.909 62.0737,-312.537 69,-288 79.0339,-252.454 96.3426,-213.448 108.214,-188.623"/>
<polygon fill="black" stroke="black" points="111.411,-190.053 112.625,-179.528 105.112,-186.998 111.411,-190.053"/>
</g>
<!-- heq&#45;&gt;pushout -->
<g id="edge24" class="edge"><title>heq&#45;&gt;pushout</title>
<path fill="none" stroke="black" d="M68.3607,-362.155C76.5349,-353.072 87.1813,-341.243 96.5174,-330.87"/>
<polygon fill="black" stroke="black" points="99.2504,-333.065 103.339,-323.29 94.0474,-328.382 99.2504,-333.065"/>
</g>
<!-- support&#45;&gt;cubical -->
<g id="edge9" class="edge"><title>support&#45;&gt;cubical</title>
<path fill="none" stroke="black" d="M189.43,-431.824C189.593,-401.572 187.254,-337.322 167,-288 159.403,-269.499 148.281,-270.205 140,-252 131.073,-232.376 126.265,-208.386 123.72,-190.26"/>
<polygon fill="black" stroke="black" points="127.161,-189.569 122.441,-180.083 120.216,-190.442 127.161,-189.569"/>
</g>
<!-- support&#45;&gt;heq -->
<g id="edge11" class="edge"><title>support&#45;&gt;heq</title>
<path fill="none" stroke="black" d="M164.11,-435.998C141.659,-424.27 108.6,-407 84.7598,-394.546"/>
<polygon fill="black" stroke="black" points="86.2837,-391.393 75.7997,-389.865 83.0426,-397.598 86.2837,-391.393"/>
</g>
<!-- support&#45;&gt;trunc -->
<g id="edge35" class="edge"><title>support&#45;&gt;trunc</title>
<path fill="none" stroke="black" d="M204.526,-433.488C223.192,-415.143 255.788,-384.065 286,-360 301.453,-347.691 319.621,-335.104 334.427,-325.287"/>
<polygon fill="black" stroke="black" points="336.716,-327.971 343.158,-319.559 332.877,-322.118 336.716,-327.971"/>
</g>
<!-- support&#45;&gt;pushout -->
<g id="edge26" class="edge"><title>support&#45;&gt;pushout</title>
<path fill="none" stroke="black" d="M180.577,-432.153C168.3,-407.6 145.386,-361.773 130.954,-332.908"/>
<polygon fill="black" stroke="black" points="134.015,-331.204 126.412,-323.825 127.754,-334.335 134.015,-331.204"/>
</g>
<!-- support&#45;&gt;ua -->
<g id="edge40" class="edge"><title>support&#45;&gt;ua</title>
<path fill="none" stroke="black" d="M212.755,-435.496C251.824,-413.444 328.184,-371.047 357,-360 416.889,-337.041 490.134,-321.292 532.977,-313.242"/>
<polygon fill="black" stroke="black" points="533.729,-316.663 542.93,-311.409 532.461,-309.779 533.729,-316.663"/>
</g>
<!-- nat -->
<g id="node21" class="node"><title>nat</title>
<ellipse fill="none" stroke="black" cx="541" cy="-378" rx="27" ry="18"/>
<text text-anchor="middle" x="541" y="-374.3" font-family="Times New Roman,serif" font-size="14.00">nat</text>
</g>
<!-- support&#45;&gt;nat -->
<g id="edge44" class="edge"><title>support&#45;&gt;nat</title>
<path fill="none" stroke="black" d="M224.631,-442.648C277.604,-433.104 380.21,-414.236 467,-396 479.799,-393.311 493.793,-390.152 506.133,-387.293"/>
<polygon fill="black" stroke="black" points="507.105,-390.66 516.047,-384.977 505.513,-383.843 507.105,-390.66"/>
</g>
<!-- equiv&#45;&gt;structures -->
<g id="edge28" class="edge"><title>equiv&#45;&gt;structures</title>
<path fill="none" stroke="black" d="M546.63,-518.446C490.741,-513.049 375.094,-498.399 351,-468 341.061,-455.461 344.363,-446.559 351,-432 356.936,-418.979 367.825,-407.921 378.779,-399.328"/>
<polygon fill="black" stroke="black" points="381.085,-401.977 387.087,-393.245 376.95,-396.329 381.085,-401.977"/>
</g>
<!-- equiv&#45;&gt;interval -->
<g id="edge17" class="edge"><title>equiv&#45;&gt;interval</title>
<path fill="none" stroke="black" d="M605.937,-515.936C632.172,-509.645 669.352,-496.092 687,-468 695.511,-454.452 691.095,-447.467 687,-432 668.15,-360.804 652.57,-344.226 605,-288 594.531,-275.627 580.878,-263.993 568.788,-254.795"/>
<polygon fill="black" stroke="black" points="570.848,-251.966 560.726,-248.838 566.688,-257.596 570.848,-251.966"/>
</g>
<!-- equiv&#45;&gt;product -->
<g id="edge21" class="edge"><title>equiv&#45;&gt;product</title>
<path fill="none" stroke="black" d="M606.834,-517.884C637.104,-512.956 682.473,-500.309 704,-468 762.043,-380.883 730.439,-246.426 713.032,-189.699"/>
<polygon fill="black" stroke="black" points="716.329,-188.516 709.972,-180.04 709.656,-190.631 716.329,-188.516"/>
</g>
<!-- unit -->
<g id="node18" class="node"><title>unit</title>
<ellipse fill="none" stroke="black" cx="387" cy="-450" rx="27" ry="18"/>
<text text-anchor="middle" x="387" y="-446.3" font-family="Times New Roman,serif" font-size="14.00">unit</text>
</g>
<!-- equiv&#45;&gt;unit -->
<g id="edge41" class="edge"><title>equiv&#45;&gt;unit</title>
<path fill="none" stroke="black" d="M550.517,-512.862C519.573,-503.13 467.001,-485.898 423,-468 421.175,-467.258 419.311,-466.47 417.438,-465.656"/>
<polygon fill="black" stroke="black" points="418.703,-462.387 408.149,-461.459 415.82,-468.766 418.703,-462.387"/>
</g>
<!-- equiv&#45;&gt;ua -->
<g id="edge36" class="edge"><title>equiv&#45;&gt;ua</title>
<path fill="none" stroke="black" d="M577.853,-503.576C579.109,-474.004 580.912,-412.123 577,-360 576.363,-351.518 575.162,-342.336 573.879,-334.036"/>
<polygon fill="black" stroke="black" points="577.324,-333.412 572.248,-324.112 570.416,-334.547 577.324,-333.412"/>
</g>
<!-- equiv&#45;&gt;nat -->
<g id="edge42" class="edge"><title>equiv&#45;&gt;nat</title>
<path fill="none" stroke="black" d="M572.729,-504.153C566.558,-479.813 555.088,-434.568 547.76,-405.665"/>
<polygon fill="black" stroke="black" points="551.116,-404.658 545.265,-395.825 544.33,-406.378 551.116,-404.658"/>
</g>
<!-- lost -->
<g id="node22" class="node"><title>lost</title>
<ellipse fill="none" stroke="black" cx="651" cy="-450" rx="27" ry="18"/>
<text text-anchor="middle" x="651" y="-446.3" font-family="Times New Roman,serif" font-size="14.00">lost</text>
</g>
<!-- equiv&#45;&gt;lost -->
<g id="edge45" class="edge"><title>equiv&#45;&gt;lost</title>
<path fill="none" stroke="black" d="M592.693,-506.155C603.104,-496.307 616.928,-483.231 628.502,-472.282"/>
<polygon fill="black" stroke="black" points="631.227,-474.522 636.086,-465.108 626.416,-469.437 631.227,-474.522"/>
</g>
<!-- trunc&#45;&gt;interval -->
<g id="edge14" class="edge"><title>trunc&#45;&gt;interval</title>
<path fill="none" stroke="black" d="M386.871,-295.559C416.715,-283.757 468.117,-263.428 503.057,-249.61"/>
<polygon fill="black" stroke="black" points="504.432,-252.83 512.444,-245.898 501.858,-246.321 504.432,-252.83"/>
</g>
<!-- trunc&#45;&gt;mere_eq_lemma -->
<g id="edge19" class="edge"><title>trunc&#45;&gt;mere_eq_lemma</title>
<path fill="none" stroke="black" d="M357.432,-288.055C354.844,-280.176 351.703,-270.617 348.804,-261.794"/>
<polygon fill="black" stroke="black" points="352.123,-260.683 345.676,-252.275 345.473,-262.868 352.123,-260.683"/>
</g>
<!-- pushout&#45;&gt;suspension -->
<g id="edge32" class="edge"><title>pushout&#45;&gt;suspension</title>
<path fill="none" stroke="black" d="M135.793,-289.811C146.844,-280.377 161.248,-268.081 173.613,-257.525"/>
<polygon fill="black" stroke="black" points="176.055,-260.043 181.388,-250.888 171.51,-254.719 176.055,-260.043"/>
</g>
<!-- unit&#45;&gt;structures -->
<g id="edge27" class="edge"><title>unit&#45;&gt;structures</title>
<path fill="none" stroke="black" d="M392.925,-432.411C395.778,-424.421 399.271,-414.642 402.484,-405.645"/>
<polygon fill="black" stroke="black" points="405.877,-406.551 405.944,-395.956 399.285,-404.196 405.877,-406.551"/>
</g>
<!-- unit&#45;&gt;suspension -->
<g id="edge33" class="edge"><title>unit&#45;&gt;suspension</title>
<path fill="none" stroke="black" d="M373.851,-433.952C341.919,-397.41 260.058,-303.729 221.15,-259.204"/>
<polygon fill="black" stroke="black" points="223.622,-256.714 214.407,-251.487 218.351,-261.32 223.622,-256.714"/>
</g>
<!-- unit&#45;&gt;ua -->
<g id="edge39" class="edge"><title>unit&#45;&gt;ua</title>
<path fill="none" stroke="black" d="M406.397,-437.467C423.014,-427.283 447.309,-411.657 467,-396 485.21,-381.521 487.587,-375.428 505,-360 517.721,-348.729 532.288,-336.607 544.308,-326.805"/>
<polygon fill="black" stroke="black" points="546.608,-329.446 552.168,-320.428 542.197,-324.01 546.608,-329.446"/>
</g>
<!-- coproduct -->
<g id="node19" class="node"><title>coproduct</title>
<ellipse fill="none" stroke="black" cx="481" cy="-450" rx="48.9926" ry="18"/>
<text text-anchor="middle" x="481" y="-446.3" font-family="Times New Roman,serif" font-size="14.00">coproduct</text>
</g>
<!-- coproduct&#45;&gt;structures -->
<g id="edge30" class="edge"><title>coproduct&#45;&gt;structures</title>
<path fill="none" stroke="black" d="M464.997,-432.765C456.114,-423.753 444.908,-412.385 435.091,-402.426"/>
<polygon fill="black" stroke="black" points="437.429,-399.812 427.917,-395.147 432.444,-404.726 437.429,-399.812"/>
</g>
<!-- coproduct&#45;&gt;nat -->
<g id="edge43" class="edge"><title>coproduct&#45;&gt;nat</title>
<path fill="none" stroke="black" d="M495.219,-432.411C503.094,-423.223 512.998,-411.67 521.577,-401.66"/>
<polygon fill="black" stroke="black" points="524.26,-403.909 528.11,-394.038 518.945,-399.353 524.26,-403.909"/>
</g>
<!-- functions -->
<g id="node23" class="node"><title>functions</title>
<ellipse fill="none" stroke="black" cx="364" cy="-594" rx="44.393" ry="18"/>
<text text-anchor="middle" x="364" y="-590.3" font-family="Times New Roman,serif" font-size="14.00">functions</text>
</g>
<!-- sigma -->
<g id="node24" class="node"><title>sigma</title>
<ellipse fill="none" stroke="black" cx="458" cy="-594" rx="31.6951" ry="18"/>
<text text-anchor="middle" x="458" y="-590.3" font-family="Times New Roman,serif" font-size="14.00">sigma</text>
</g>
</g>
</svg>
