<?xml version="1.0" encoding="UTF-8" standalone="no"?>
<!DOCTYPE svg PUBLIC "-//W3C//DTD SVG 1.1//EN"
 "http://www.w3.org/Graphics/SVG/1.1/DTD/svg11.dtd">
<!-- Generated by graphviz version 2.38.0 (20140413.2041)
 -->
<!-- Title: dependency_map Pages: 1 -->
<svg width="980pt" height="620pt"
 viewBox="0.00 0.00 980.12 620.00" xmlns="http://www.w3.org/2000/svg" xmlns:xlink="http://www.w3.org/1999/xlink">
<g id="graph0" class="graph" transform="scale(1 1) rotate(0) translate(4 616)">
<title>dependency_map</title>
<polygon fill="white" stroke="none" points="-4,4 -4,-616 976.124,-616 976.124,4 -4,4"/>
<!-- ntrunc -->
<g id="node1" class="node"><title>ntrunc</title>
<ellipse fill="none" stroke="black" cx="487.124" cy="-90" rx="33.5952" ry="18"/>
<text text-anchor="middle" x="487.124" y="-86.3" font-family="Times New Roman,serif" font-size="14.00">ntrunc</text>
</g>
<!-- algebra -->
<g id="node2" class="node"><title>algebra</title>
<ellipse fill="none" stroke="black" cx="602.124" cy="-18" rx="36.2938" ry="18"/>
<text text-anchor="middle" x="602.124" y="-14.3" font-family="Times New Roman,serif" font-size="14.00">algebra</text>
</g>
<!-- ntrunc&#45;&gt;algebra -->
<g id="edge1" class="edge"><title>ntrunc&#45;&gt;algebra</title>
<path fill="none" stroke="black" d="M508.485,-75.9976C526.172,-65.2315 551.531,-49.7955 571.399,-37.7019"/>
<polygon fill="black" stroke="black" points="573.372,-40.5986 580.094,-32.4094 569.732,-34.6192 573.372,-40.5986"/>
</g>
<!-- structures -->
<g id="node3" class="node"><title>structures</title>
<ellipse fill="none" stroke="black" cx="548.124" cy="-378" rx="46.2923" ry="18"/>
<text text-anchor="middle" x="548.124" y="-374.3" font-family="Times New Roman,serif" font-size="14.00">structures</text>
</g>
<!-- structures&#45;&gt;algebra -->
<g id="edge2" class="edge"><title>structures&#45;&gt;algebra</title>
<path fill="none" stroke="black" d="M557.374,-360.339C562.591,-350.153 568.727,-336.684 572.124,-324 598.839,-224.226 602.289,-100.387 602.395,-46.3533"/>
<polygon fill="black" stroke="black" points="605.895,-46.2035 602.376,-36.2101 598.895,-46.2167 605.895,-46.2035"/>
</g>
<!-- circle -->
<g id="node6" class="node"><title>circle</title>
<ellipse fill="none" stroke="black" cx="380.124" cy="-162" rx="30.5947" ry="18"/>
<text text-anchor="middle" x="380.124" y="-158.3" font-family="Times New Roman,serif" font-size="14.00">circle</text>
</g>
<!-- structures&#45;&gt;circle -->
<g id="edge5" class="edge"><title>structures&#45;&gt;circle</title>
<path fill="none" stroke="black" d="M553.66,-359.92C562.824,-328.1 577.149,-259.075 545.124,-216 516.655,-177.708 460.136,-166.519 421.247,-163.549"/>
<polygon fill="black" stroke="black" points="420.977,-160.026 410.783,-162.913 420.553,-167.013 420.977,-160.026"/>
</g>
<!-- interval -->
<g id="node7" class="node"><title>interval</title>
<ellipse fill="none" stroke="black" cx="220.124" cy="-234" rx="36.2938" ry="18"/>
<text text-anchor="middle" x="220.124" y="-230.3" font-family="Times New Roman,serif" font-size="14.00">interval</text>
</g>
<!-- structures&#45;&gt;interval -->
<g id="edge16" class="edge"><title>structures&#45;&gt;interval</title>
<path fill="none" stroke="black" d="M533.21,-360.737C513.639,-340.44 477.273,-306.191 439.124,-288 368.234,-254.197 341.61,-273.672 266.124,-252 263.19,-251.158 260.177,-250.218 257.163,-249.225"/>
<polygon fill="black" stroke="black" points="258.227,-245.89 247.633,-245.924 255.936,-252.504 258.227,-245.89"/>
</g>
<!-- trunc -->
<g id="node13" class="node"><title>trunc</title>
<ellipse fill="none" stroke="black" cx="401.124" cy="-306" rx="29.4969" ry="18"/>
<text text-anchor="middle" x="401.124" y="-302.3" font-family="Times New Roman,serif" font-size="14.00">trunc</text>
</g>
<!-- structures&#45;&gt;trunc -->
<g id="edge34" class="edge"><title>structures&#45;&gt;trunc</title>
<path fill="none" stroke="black" d="M520.128,-363.669C495.2,-351.798 458.759,-334.445 432.778,-322.073"/>
<polygon fill="black" stroke="black" points="434.254,-318.9 423.72,-317.76 431.244,-325.22 434.254,-318.9"/>
</g>
<!-- ua -->
<g id="node20" class="node"><title>ua</title>
<ellipse fill="none" stroke="black" stroke-dasharray="5,2" cx="742.124" cy="-90" rx="27" ry="18"/>
<text text-anchor="middle" x="742.124" y="-86.3" font-family="Times New Roman,serif" font-size="14.00">ua</text>
</g>
<!-- structures&#45;&gt;ua -->
<g id="edge38" class="edge"><title>structures&#45;&gt;ua</title>
<path fill="none" stroke="black" d="M567.187,-361.527C578.144,-351.762 591.417,-338.319 600.124,-324 643.862,-252.066 607.532,-210.527 659.124,-144 672.473,-126.787 693.092,-113.58 710.44,-104.655"/>
<polygon fill="black" stroke="black" points="712.228,-107.676 719.673,-100.138 709.152,-101.388 712.228,-107.676"/>
</g>
<!-- eq -->
<g id="node4" class="node"><title>eq</title>
<ellipse fill="none" stroke="black" cx="556.124" cy="-594" rx="27" ry="18"/>
<text text-anchor="middle" x="556.124" y="-590.3" font-family="Times New Roman,serif" font-size="14.00">eq</text>
</g>
<!-- eq&#45;&gt;algebra -->
<g id="edge3" class="edge"><title>eq&#45;&gt;algebra</title>
<path fill="none" stroke="black" d="M576.655,-582.053C581.61,-579.765 586.967,-577.572 592.124,-576 694.033,-544.926 738.875,-596.624 829.124,-540 869.745,-514.513 890.124,-498.955 890.124,-451 890.124,-451 890.124,-451 890.124,-161 890.124,-54.4794 729.676,-27.8627 648.297,-21.2134"/>
<polygon fill="black" stroke="black" points="648.541,-17.722 638.307,-20.4651 648.018,-24.7024 648.541,-17.722"/>
</g>
<!-- eq&#45;&gt;structures -->
<g id="edge29" class="edge"><title>eq&#45;&gt;structures</title>
<path fill="none" stroke="black" d="M555.473,-575.814C555.081,-565.442 554.572,-551.962 554.124,-540 552.37,-493.244 550.347,-438.85 549.154,-406.762"/>
<polygon fill="black" stroke="black" points="552.638,-406.255 548.769,-396.392 545.643,-406.515 552.638,-406.255"/>
</g>
<!-- eq&#45;&gt;interval -->
<g id="edge15" class="edge"><title>eq&#45;&gt;interval</title>
<path fill="none" stroke="black" d="M528.937,-593.265C460.138,-592.255 279.537,-578.732 208.124,-468 166.692,-403.758 192.87,-307.604 209.49,-261.505"/>
<polygon fill="black" stroke="black" points="212.842,-262.532 213.063,-251.94 206.285,-260.083 212.842,-262.532"/>
</g>
<!-- heq -->
<g id="node9" class="node"><title>heq</title>
<ellipse fill="none" stroke="black" cx="53.1237" cy="-378" rx="27" ry="18"/>
<text text-anchor="middle" x="53.1237" y="-374.3" font-family="Times New Roman,serif" font-size="14.00">heq</text>
</g>
<!-- eq&#45;&gt;heq -->
<g id="edge10" class="edge"><title>eq&#45;&gt;heq</title>
<path fill="none" stroke="black" d="M529.226,-591.904C452.725,-588.379 235.543,-575.424 175.124,-540 120.552,-508.005 82.3138,-441.165 64.4851,-404.469"/>
<polygon fill="black" stroke="black" points="67.6358,-402.945 60.1973,-395.4 61.3075,-405.937 67.6358,-402.945"/>
</g>
<!-- support -->
<g id="node10" class="node"><title>support</title>
<ellipse fill="none" stroke="black" cx="256.124" cy="-450" rx="38.9931" ry="18"/>
<text text-anchor="middle" x="256.124" y="-446.3" font-family="Times New Roman,serif" font-size="14.00">support</text>
</g>
<!-- eq&#45;&gt;support -->
<g id="edge31" class="edge"><title>eq&#45;&gt;support</title>
<path fill="none" stroke="black" d="M534.548,-582.788C483.432,-558.593 354.539,-497.583 291.687,-467.833"/>
<polygon fill="black" stroke="black" points="293.085,-464.623 282.549,-463.508 290.091,-470.95 293.085,-464.623"/>
</g>
<!-- equiv -->
<g id="node11" class="node"><title>equiv</title>
<ellipse fill="none" stroke="black" cx="594.124" cy="-522" rx="30.5947" ry="18"/>
<text text-anchor="middle" x="594.124" y="-518.3" font-family="Times New Roman,serif" font-size="14.00">equiv</text>
</g>
<!-- eq&#45;&gt;equiv -->
<g id="edge12" class="edge"><title>eq&#45;&gt;equiv</title>
<path fill="none" stroke="black" d="M564.937,-576.765C569.476,-568.404 575.115,-558.016 580.223,-548.606"/>
<polygon fill="black" stroke="black" points="583.399,-550.092 585.094,-539.633 577.247,-546.752 583.399,-550.092"/>
</g>
<!-- int -->
<g id="node12" class="node"><title>int</title>
<ellipse fill="none" stroke="black" cx="945.124" cy="-522" rx="27" ry="18"/>
<text text-anchor="middle" x="945.124" y="-518.3" font-family="Times New Roman,serif" font-size="14.00">int</text>
</g>
<!-- eq&#45;&gt;int -->
<g id="edge13" class="edge"><title>eq&#45;&gt;int</title>
<path fill="none" stroke="black" d="M576.615,-581.919C581.572,-579.636 586.94,-577.48 592.124,-576 726.35,-537.689 769.015,-575.071 904.124,-540 907.508,-539.122 910.981,-538.02 914.404,-536.803"/>
<polygon fill="black" stroke="black" points="915.751,-540.035 923.807,-533.154 913.218,-533.509 915.751,-540.035"/>
</g>
<!-- mere_eq_lemma -->
<g id="node14" class="node"><title>mere_eq_lemma</title>
<ellipse fill="none" stroke="black" cx="466.124" cy="-234" rx="70.3881" ry="18"/>
<text text-anchor="middle" x="466.124" y="-230.3" font-family="Times New Roman,serif" font-size="14.00">mere_eq_lemma</text>
</g>
<!-- eq&#45;&gt;mere_eq_lemma -->
<g id="edge18" class="edge"><title>eq&#45;&gt;mere_eq_lemma</title>
<path fill="none" stroke="black" d="M577.547,-583C625.152,-560.289 737.113,-504.01 757.124,-468 764.896,-454.014 764.623,-446.134 757.124,-432 706.324,-336.264 585.901,-278.533 516.943,-252.162"/>
<polygon fill="black" stroke="black" points="518.159,-248.881 507.567,-248.649 515.703,-255.435 518.159,-248.881"/>
</g>
<!-- pushout -->
<g id="node17" class="node"><title>pushout</title>
<ellipse fill="none" stroke="black" cx="53.1237" cy="-306" rx="40.0939" ry="18"/>
<text text-anchor="middle" x="53.1237" y="-302.3" font-family="Times New Roman,serif" font-size="14.00">pushout</text>
</g>
<!-- eq&#45;&gt;pushout -->
<g id="edge25" class="edge"><title>eq&#45;&gt;pushout</title>
<path fill="none" stroke="black" d="M529.013,-592.316C446.208,-589.817 198.054,-579.158 129.124,-540 58.626,-499.951 43.4368,-472.691 17.1237,-396 11.9311,-380.866 12.4209,-375.293 17.1237,-360 20.3114,-349.634 26.2929,-339.476 32.4777,-330.871"/>
<polygon fill="black" stroke="black" points="35.3317,-332.901 38.6344,-322.834 29.7747,-328.644 35.3317,-332.901"/>
</g>
<!-- eq&#45;&gt;ua -->
<g id="edge37" class="edge"><title>eq&#45;&gt;ua</title>
<path fill="none" stroke="black" d="M577.239,-582.457C582.077,-580.203 587.235,-577.923 592.124,-576 711.44,-529.062 852.124,-579.217 852.124,-451 852.124,-451 852.124,-451 852.124,-233 852.124,-179.183 802.134,-133.393 769.553,-109.265"/>
<polygon fill="black" stroke="black" points="771.448,-106.316 761.284,-103.325 767.364,-112.002 771.448,-106.316"/>
</g>
<!-- suspension -->
<g id="node5" class="node"><title>suspension</title>
<ellipse fill="none" stroke="black" cx="326.124" cy="-234" rx="51.1914" ry="18"/>
<text text-anchor="middle" x="326.124" y="-230.3" font-family="Times New Roman,serif" font-size="14.00">suspension</text>
</g>
<!-- suspension&#45;&gt;circle -->
<g id="edge4" class="edge"><title>suspension&#45;&gt;circle</title>
<path fill="none" stroke="black" d="M338.921,-216.411C345.675,-207.655 354.087,-196.751 361.546,-187.082"/>
<polygon fill="black" stroke="black" points="364.453,-189.044 367.79,-178.988 358.911,-184.768 364.453,-189.044"/>
</g>
<!-- circle&#45;&gt;ntrunc -->
<g id="edge20" class="edge"><title>circle&#45;&gt;ntrunc</title>
<path fill="none" stroke="black" d="M399.749,-148.161C416.103,-137.462 439.632,-122.069 458.154,-109.952"/>
<polygon fill="black" stroke="black" points="460.076,-112.877 466.529,-104.473 456.244,-107.019 460.076,-112.877"/>
</g>
<!-- interval&#45;&gt;circle -->
<g id="edge6" class="edge"><title>interval&#45;&gt;circle</title>
<path fill="none" stroke="black" d="M246.544,-221.441C273.976,-209.439 316.964,-190.632 346.731,-177.609"/>
<polygon fill="black" stroke="black" points="348.519,-180.647 356.278,-173.432 345.714,-174.234 348.519,-180.647"/>
</g>
<!-- cubical -->
<g id="node8" class="node"><title>cubical</title>
<ellipse fill="none" stroke="black" cx="92.1237" cy="-162" rx="36.2938" ry="18"/>
<text text-anchor="middle" x="92.1237" y="-158.3" font-family="Times New Roman,serif" font-size="14.00">cubical</text>
</g>
<!-- interval&#45;&gt;cubical -->
<g id="edge7" class="edge"><title>interval&#45;&gt;cubical</title>
<path fill="none" stroke="black" d="M196.647,-220.161C176.475,-209.129 147.179,-193.109 124.732,-180.833"/>
<polygon fill="black" stroke="black" points="126.339,-177.722 115.886,-175.995 122.98,-183.864 126.339,-177.722"/>
</g>
<!-- product -->
<g id="node15" class="node"><title>product</title>
<ellipse fill="none" stroke="black" cx="708.124" cy="-162" rx="39.7935" ry="18"/>
<text text-anchor="middle" x="708.124" y="-158.3" font-family="Times New Roman,serif" font-size="14.00">product</text>
</g>
<!-- interval&#45;&gt;product -->
<g id="edge22" class="edge"><title>interval&#45;&gt;product</title>
<path fill="none" stroke="black" d="M247.039,-221.855C253.224,-219.632 259.833,-217.517 266.124,-216 406.081,-182.244 576.392,-169.551 658.775,-165.141"/>
<polygon fill="black" stroke="black" points="659.048,-168.631 668.854,-164.619 658.686,-161.641 659.048,-168.631"/>
</g>
<!-- prop -->
<g id="node16" class="node"><title>prop</title>
<ellipse fill="none" stroke="black" cx="220.124" cy="-162" rx="28.6953" ry="18"/>
<text text-anchor="middle" x="220.124" y="-158.3" font-family="Times New Roman,serif" font-size="14.00">prop</text>
</g>
<!-- interval&#45;&gt;prop -->
<g id="edge23" class="edge"><title>interval&#45;&gt;prop</title>
<path fill="none" stroke="black" d="M220.124,-215.697C220.124,-207.983 220.124,-198.712 220.124,-190.112"/>
<polygon fill="black" stroke="black" points="223.624,-190.104 220.124,-180.104 216.624,-190.104 223.624,-190.104"/>
</g>
<!-- heq&#45;&gt;cubical -->
<g id="edge8" class="edge"><title>heq&#45;&gt;cubical</title>
<path fill="none" stroke="black" d="M35.5067,-363.863C24.1735,-354.247 10.4272,-340.103 4.12371,-324 -1.70837,-309.101 -0.706962,-303.253 4.12371,-288 16.866,-247.765 47.7343,-209.283 69.2925,-185.901"/>
<polygon fill="black" stroke="black" points="71.8918,-188.247 76.207,-178.57 66.7995,-183.444 71.8918,-188.247"/>
</g>
<!-- heq&#45;&gt;pushout -->
<g id="edge24" class="edge"><title>heq&#45;&gt;pushout</title>
<path fill="none" stroke="black" d="M53.1237,-359.697C53.1237,-351.983 53.1237,-342.712 53.1237,-334.112"/>
<polygon fill="black" stroke="black" points="56.6238,-334.104 53.1237,-324.104 49.6238,-334.104 56.6238,-334.104"/>
</g>
<!-- support&#45;&gt;cubical -->
<g id="edge9" class="edge"><title>support&#45;&gt;cubical</title>
<path fill="none" stroke="black" d="M238.664,-433.729C214.487,-411.719 170.886,-368.778 145.124,-324 120.097,-280.5 104.894,-223.506 97.5321,-190.302"/>
<polygon fill="black" stroke="black" points="100.929,-189.452 95.4151,-180.405 94.0843,-190.916 100.929,-189.452"/>
</g>
<!-- support&#45;&gt;heq -->
<g id="edge11" class="edge"><title>support&#45;&gt;heq</title>
<path fill="none" stroke="black" d="M224.518,-439.45C191.685,-429.345 138.941,-412.595 94.1237,-396 91.0164,-394.849 87.7963,-393.606 84.5888,-392.333"/>
<polygon fill="black" stroke="black" points="85.712,-389.011 75.13,-388.489 83.0768,-395.496 85.712,-389.011"/>
</g>
<!-- support&#45;&gt;trunc -->
<g id="edge35" class="edge"><title>support&#45;&gt;trunc</title>
<path fill="none" stroke="black" d="M271.917,-433.533C297.791,-408.195 349.282,-357.77 378.852,-328.811"/>
<polygon fill="black" stroke="black" points="381.524,-331.093 386.22,-321.595 376.627,-326.092 381.524,-331.093"/>
</g>
<!-- support&#45;&gt;pushout -->
<g id="edge26" class="edge"><title>support&#45;&gt;pushout</title>
<path fill="none" stroke="black" d="M224.077,-439.651C197.789,-431.001 160.426,-416.393 132.124,-396 107.301,-378.114 84.7616,-351.14 70.1698,-331.577"/>
<polygon fill="black" stroke="black" points="72.9515,-329.451 64.2324,-323.432 67.295,-333.575 72.9515,-329.451"/>
</g>
<!-- support&#45;&gt;ua -->
<g id="edge40" class="edge"><title>support&#45;&gt;ua</title>
<path fill="none" stroke="black" d="M246.619,-432.316C228.375,-399.223 189.028,-322.38 175.124,-252 172.023,-236.303 174.349,-231.981 175.124,-216 176.681,-183.887 159.361,-166.705 182.124,-144 186.785,-139.351 581.203,-104.906 705.229,-94.1792"/>
<polygon fill="black" stroke="black" points="705.706,-97.6511 715.368,-93.3031 705.103,-90.6771 705.706,-97.6511"/>
</g>
<!-- nat -->
<g id="node21" class="node"><title>nat</title>
<ellipse fill="none" stroke="black" cx="416.124" cy="-378" rx="27" ry="18"/>
<text text-anchor="middle" x="416.124" y="-374.3" font-family="Times New Roman,serif" font-size="14.00">nat</text>
</g>
<!-- support&#45;&gt;nat -->
<g id="edge45" class="edge"><title>support&#45;&gt;nat</title>
<path fill="none" stroke="black" d="M283.629,-436.967C311.725,-424.675 355.287,-405.616 384.719,-392.739"/>
<polygon fill="black" stroke="black" points="386.358,-395.843 394.116,-388.628 383.552,-389.43 386.358,-395.843"/>
</g>
<!-- equiv&#45;&gt;structures -->
<g id="edge28" class="edge"><title>equiv&#45;&gt;structures</title>
<path fill="none" stroke="black" d="M587.92,-504.364C584.1,-493.958 579.175,-480.25 575.124,-468 568.258,-447.24 561.101,-423.538 555.882,-405.817"/>
<polygon fill="black" stroke="black" points="559.218,-404.755 553.049,-396.141 552.5,-406.722 559.218,-404.755"/>
</g>
<!-- equiv&#45;&gt;interval -->
<g id="edge17" class="edge"><title>equiv&#45;&gt;interval</title>
<path fill="none" stroke="black" d="M563.378,-520.591C517.837,-518.554 431.554,-509.062 373.124,-468 297.161,-414.618 249.124,-310.385 229.82,-261.501"/>
<polygon fill="black" stroke="black" points="233,-260.02 226.137,-251.948 226.469,-262.538 233,-260.02"/>
</g>
<!-- equiv&#45;&gt;product -->
<g id="edge21" class="edge"><title>equiv&#45;&gt;product</title>
<path fill="none" stroke="black" d="M612.38,-507.479C624.124,-497.792 638.712,-483.718 647.124,-468 697.049,-374.713 706.285,-245.555 707.871,-190.084"/>
<polygon fill="black" stroke="black" points="711.371,-190.08 708.095,-180.005 704.373,-189.924 711.371,-190.08"/>
</g>
<!-- unit -->
<g id="node18" class="node"><title>unit</title>
<ellipse fill="none" stroke="black" cx="611.124" cy="-450" rx="27" ry="18"/>
<text text-anchor="middle" x="611.124" y="-446.3" font-family="Times New Roman,serif" font-size="14.00">unit</text>
</g>
<!-- equiv&#45;&gt;unit -->
<g id="edge42" class="edge"><title>equiv&#45;&gt;unit</title>
<path fill="none" stroke="black" d="M598.239,-504.055C600.132,-496.261 602.424,-486.822 604.547,-478.079"/>
<polygon fill="black" stroke="black" points="607.969,-478.819 606.928,-468.275 601.167,-477.167 607.969,-478.819"/>
</g>
<!-- equiv&#45;&gt;ua -->
<g id="edge36" class="edge"><title>equiv&#45;&gt;ua</title>
<path fill="none" stroke="black" d="M623.706,-517.498C658.693,-512.073 717.209,-498.835 757.124,-468 794.296,-439.283 814.124,-425.973 814.124,-379 814.124,-379 814.124,-379 814.124,-233 814.124,-186.858 783.508,-140.513 762.205,-113.849"/>
<polygon fill="black" stroke="black" points="764.725,-111.404 755.666,-105.909 759.322,-115.854 764.725,-111.404"/>
</g>
<!-- equiv&#45;&gt;nat -->
<g id="edge43" class="edge"><title>equiv&#45;&gt;nat</title>
<path fill="none" stroke="black" d="M564.098,-517.938C511.285,-511.865 405.248,-496.369 383.124,-468 367.851,-448.417 381.995,-421.049 396.215,-401.847"/>
<polygon fill="black" stroke="black" points="399.022,-403.94 402.437,-393.911 393.513,-399.62 399.022,-403.94"/>
</g>
<!-- lost -->
<g id="node22" class="node"><title>lost</title>
<ellipse fill="none" stroke="black" cx="721.124" cy="-450" rx="27" ry="18"/>
<text text-anchor="middle" x="721.124" y="-446.3" font-family="Times New Roman,serif" font-size="14.00">lost</text>
</g>
<!-- equiv&#45;&gt;lost -->
<g id="edge46" class="edge"><title>equiv&#45;&gt;lost</title>
<path fill="none" stroke="black" d="M615.668,-509.125C636.566,-497.606 668.44,-480.038 691.676,-467.231"/>
<polygon fill="black" stroke="black" points="693.668,-470.129 700.737,-462.237 690.289,-463.999 693.668,-470.129"/>
</g>
<!-- trunc&#45;&gt;interval -->
<g id="edge14" class="edge"><title>trunc&#45;&gt;interval</title>
<path fill="none" stroke="black" d="M377.088,-295.705C346.499,-283.875 293.333,-263.313 257.45,-249.435"/>
<polygon fill="black" stroke="black" points="258.409,-246.054 247.82,-245.711 255.884,-252.583 258.409,-246.054"/>
</g>
<!-- trunc&#45;&gt;mere_eq_lemma -->
<g id="edge19" class="edge"><title>trunc&#45;&gt;mere_eq_lemma</title>
<path fill="none" stroke="black" d="M415.228,-289.811C423.559,-280.839 434.294,-269.278 443.757,-259.087"/>
<polygon fill="black" stroke="black" points="446.444,-261.337 450.684,-251.628 441.314,-256.574 446.444,-261.337"/>
</g>
<!-- product&#45;&gt;ua -->
<g id="edge41" class="edge"><title>product&#45;&gt;ua</title>
<path fill="none" stroke="black" d="M716.354,-144.055C720.38,-135.767 725.309,-125.618 729.775,-116.424"/>
<polygon fill="black" stroke="black" points="732.982,-117.831 734.203,-107.307 726.686,-114.773 732.982,-117.831"/>
</g>
<!-- pushout&#45;&gt;suspension -->
<g id="edge32" class="edge"><title>pushout&#45;&gt;suspension</title>
<path fill="none" stroke="black" d="M87.7135,-296.654C129.742,-286.444 202.77,-268.48 265.124,-252 269.189,-250.926 273.402,-249.793 277.626,-248.643"/>
<polygon fill="black" stroke="black" points="278.726,-251.97 287.443,-245.948 276.873,-245.22 278.726,-251.97"/>
</g>
<!-- unit&#45;&gt;structures -->
<g id="edge27" class="edge"><title>unit&#45;&gt;structures</title>
<path fill="none" stroke="black" d="M597.763,-434.155C589.589,-425.072 578.942,-413.243 569.606,-402.87"/>
<polygon fill="black" stroke="black" points="572.076,-400.382 562.785,-395.29 566.873,-405.065 572.076,-400.382"/>
</g>
<!-- unit&#45;&gt;suspension -->
<g id="edge33" class="edge"><title>unit&#45;&gt;suspension</title>
<path fill="none" stroke="black" d="M613.954,-431.806C616.162,-412.728 616.883,-381.769 603.124,-360 577.211,-319.002 445.649,-272.42 373.551,-249.42"/>
<polygon fill="black" stroke="black" points="374.38,-246.011 363.79,-246.334 372.27,-252.685 374.38,-246.011"/>
</g>
<!-- unit&#45;&gt;ua -->
<g id="edge39" class="edge"><title>unit&#45;&gt;ua</title>
<path fill="none" stroke="black" d="M634.764,-441.208C680.388,-424.512 776.124,-380.697 776.124,-307 776.124,-307 776.124,-307 776.124,-233 776.124,-191.684 762.342,-145.419 752.328,-117.253"/>
<polygon fill="black" stroke="black" points="755.568,-115.923 748.841,-107.738 748.995,-118.332 755.568,-115.923"/>
</g>
<!-- coproduct -->
<g id="node19" class="node"><title>coproduct</title>
<ellipse fill="none" stroke="black" cx="441.124" cy="-450" rx="48.9926" ry="18"/>
<text text-anchor="middle" x="441.124" y="-446.3" font-family="Times New Roman,serif" font-size="14.00">coproduct</text>
</g>
<!-- coproduct&#45;&gt;structures -->
<g id="edge30" class="edge"><title>coproduct&#45;&gt;structures</title>
<path fill="none" stroke="black" d="M464.078,-433.983C479.556,-423.857 500.164,-410.375 517.1,-399.296"/>
<polygon fill="black" stroke="black" points="519.123,-402.155 525.575,-393.752 515.29,-396.297 519.123,-402.155"/>
</g>
<!-- coproduct&#45;&gt;nat -->
<g id="edge44" class="edge"><title>coproduct&#45;&gt;nat</title>
<path fill="none" stroke="black" d="M435.072,-432.055C432.216,-424.059 428.742,-414.331 425.552,-405.4"/>
<polygon fill="black" stroke="black" points="428.779,-404.029 422.12,-395.789 422.187,-406.384 428.779,-404.029"/>
</g>
<!-- functions -->
<g id="node23" class="node"><title>functions</title>
<ellipse fill="none" stroke="black" cx="645.124" cy="-594" rx="44.393" ry="18"/>
<text text-anchor="middle" x="645.124" y="-590.3" font-family="Times New Roman,serif" font-size="14.00">functions</text>
</g>
<!-- sigma -->
<g id="node24" class="node"><title>sigma</title>
<ellipse fill="none" stroke="black" cx="739.124" cy="-594" rx="31.6951" ry="18"/>
<text text-anchor="middle" x="739.124" y="-590.3" font-family="Times New Roman,serif" font-size="14.00">sigma</text>
</g>
</g>
</svg>
