<?xml version="1.0" encoding="UTF-8" standalone="no"?>
<!DOCTYPE svg PUBLIC "-//W3C//DTD SVG 1.1//EN"
 "http://www.w3.org/Graphics/SVG/1.1/DTD/svg11.dtd">
<!-- Generated by graphviz version 2.38.0 (20140413.2041)
 -->
<!-- Title: dependency_map Pages: 1 -->
<svg width="1091pt" height="908pt"
 viewBox="0.00 0.00 1091.24 908.00" xmlns="http://www.w3.org/2000/svg" xmlns:xlink="http://www.w3.org/1999/xlink">
<g id="graph0" class="graph" transform="scale(1 1) rotate(0) translate(4 904)">
<title>dependency_map</title>
<polygon fill="white" stroke="none" points="-4,4 -4,-904 1087.24,-904 1087.24,4 -4,4"/>
<!-- proto -->
<g id="node1" class="node"><title>proto</title>
<ellipse fill="none" stroke="black" cx="502.445" cy="-882" rx="30.5947" ry="18"/>
<text text-anchor="middle" x="502.445" y="-878.3" font-family="Times New Roman,serif" font-size="14.00">proto</text>
</g>
<!-- types/eq -->
<g id="node2" class="node"><title>types/eq</title>
<ellipse fill="none" stroke="black" cx="562.445" cy="-810" rx="41.6928" ry="18"/>
<text text-anchor="middle" x="562.445" y="-806.3" font-family="Times New Roman,serif" font-size="14.00">types/eq</text>
</g>
<!-- proto&#45;&gt;types/eq -->
<g id="edge1" class="edge"><title>proto&#45;&gt;types/eq</title>
<path fill="none" stroke="black" d="M515.761,-865.465C523.388,-856.566 533.126,-845.205 541.732,-835.164"/>
<polygon fill="black" stroke="black" points="544.479,-837.338 548.33,-827.467 539.165,-832.782 544.479,-837.338"/>
</g>
<!-- types/dep_path -->
<g id="node16" class="node"><title>types/dep_path</title>
<ellipse fill="none" stroke="black" cx="624.445" cy="-738" rx="66.8882" ry="18"/>
<text text-anchor="middle" x="624.445" y="-734.3" font-family="Times New Roman,serif" font-size="14.00">types/dep_path</text>
</g>
<!-- types/eq&#45;&gt;types/dep_path -->
<g id="edge11" class="edge"><title>types/eq&#45;&gt;types/dep_path</title>
<path fill="none" stroke="black" d="M576.825,-792.765C584.615,-783.969 594.394,-772.928 603.06,-763.144"/>
<polygon fill="black" stroke="black" points="605.702,-765.44 609.712,-755.633 600.462,-760.799 605.702,-765.44"/>
</g>
<!-- support -->
<g id="node24" class="node"><title>support</title>
<ellipse fill="none" stroke="black" cx="500.445" cy="-738" rx="38.9931" ry="18"/>
<text text-anchor="middle" x="500.445" y="-734.3" font-family="Times New Roman,serif" font-size="14.00">support</text>
</g>
<!-- types/eq&#45;&gt;support -->
<g id="edge38" class="edge"><title>types/eq&#45;&gt;support</title>
<path fill="none" stroke="black" d="M548.065,-792.765C540.161,-783.841 530.212,-772.608 521.453,-762.719"/>
<polygon fill="black" stroke="black" points="523.997,-760.313 514.747,-755.147 518.757,-764.954 523.997,-760.313"/>
</g>
<!-- meta/hott_theory -->
<g id="node3" class="node"><title>meta/hott_theory</title>
<ellipse fill="none" stroke="black" cx="623.445" cy="-882" rx="72.2875" ry="18"/>
<text text-anchor="middle" x="623.445" y="-878.3" font-family="Times New Roman,serif" font-size="14.00">meta/hott_theory</text>
</g>
<!-- meta/hott_theory&#45;&gt;types/eq -->
<g id="edge2" class="edge"><title>meta/hott_theory&#45;&gt;types/eq</title>
<path fill="none" stroke="black" d="M608.678,-864.055C601.075,-855.33 591.676,-844.544 583.342,-834.981"/>
<polygon fill="black" stroke="black" points="585.864,-832.547 576.655,-827.307 580.586,-837.146 585.864,-832.547"/>
</g>
<!-- algebra -->
<g id="node4" class="node"><title>algebra</title>
<ellipse fill="none" stroke="black" stroke-dasharray="5,2" cx="278.445" cy="-18" rx="36.2938" ry="18"/>
<text text-anchor="middle" x="278.445" y="-14.3" font-family="Times New Roman,serif" font-size="14.00">algebra</text>
</g>
<!-- HITs/ntrunc -->
<g id="node5" class="node"><title>HITs/ntrunc</title>
<ellipse fill="none" stroke="black" stroke-dasharray="5,2" cx="278.445" cy="-90" rx="55.4913" ry="18"/>
<text text-anchor="middle" x="278.445" y="-86.3" font-family="Times New Roman,serif" font-size="14.00">HITs/ntrunc</text>
</g>
<!-- HITs/ntrunc&#45;&gt;algebra -->
<g id="edge3" class="edge"><title>HITs/ntrunc&#45;&gt;algebra</title>
<path fill="none" stroke="black" d="M278.445,-71.6966C278.445,-63.9827 278.445,-54.7125 278.445,-46.1124"/>
<polygon fill="black" stroke="black" points="281.945,-46.1043 278.445,-36.1043 274.945,-46.1044 281.945,-46.1043"/>
</g>
<!-- HITs/circle -->
<g id="node6" class="node"><title>HITs/circle</title>
<ellipse fill="none" stroke="black" stroke-dasharray="5,2" cx="281.445" cy="-162" rx="51.9908" ry="18"/>
<text text-anchor="middle" x="281.445" y="-158.3" font-family="Times New Roman,serif" font-size="14.00">HITs/circle</text>
</g>
<!-- HITs/circle&#45;&gt;HITs/ntrunc -->
<g id="edge29" class="edge"><title>HITs/circle&#45;&gt;HITs/ntrunc</title>
<path fill="none" stroke="black" d="M280.703,-143.697C280.372,-135.983 279.975,-126.712 279.607,-118.112"/>
<polygon fill="black" stroke="black" points="283.103,-117.945 279.178,-108.104 276.109,-118.245 283.103,-117.945"/>
</g>
<!-- types/integers -->
<g id="node7" class="node"><title>types/integers</title>
<ellipse fill="none" stroke="black" cx="60.4446" cy="-522" rx="60.3893" ry="18"/>
<text text-anchor="middle" x="60.4446" y="-518.3" font-family="Times New Roman,serif" font-size="14.00">types/integers</text>
</g>
<!-- types/integers&#45;&gt;HITs/circle -->
<g id="edge4" class="edge"><title>types/integers&#45;&gt;HITs/circle</title>
<path fill="none" stroke="black" d="M49.0459,-503.99C42.7464,-493.903 35.2464,-480.653 30.4446,-468 16.0941,-430.184 11.4446,-419.447 11.4446,-379 11.4446,-379 11.4446,-379 11.4446,-305 11.4446,-210.976 141.289,-179.07 220.891,-168.344"/>
<polygon fill="black" stroke="black" points="221.813,-171.755 231.292,-167.024 220.931,-164.811 221.813,-171.755"/>
</g>
<!-- HITs/reals -->
<g id="node35" class="node"><title>HITs/reals</title>
<ellipse fill="none" stroke="black" cx="88.4446" cy="-450" rx="48.9926" ry="18"/>
<text text-anchor="middle" x="88.4446" y="-446.3" font-family="Times New Roman,serif" font-size="14.00">HITs/reals</text>
</g>
<!-- types/integers&#45;&gt;HITs/reals -->
<g id="edge35" class="edge"><title>types/integers&#45;&gt;HITs/reals</title>
<path fill="none" stroke="black" d="M67.2227,-504.055C70.3742,-496.176 74.198,-486.617 77.727,-477.794"/>
<polygon fill="black" stroke="black" points="81.0702,-478.86 81.5345,-468.275 74.5709,-476.26 81.0702,-478.86"/>
</g>
<!-- HITs/suspension -->
<g id="node8" class="node"><title>HITs/suspension</title>
<ellipse fill="none" stroke="black" cx="336.445" cy="-450" rx="72.5877" ry="18"/>
<text text-anchor="middle" x="336.445" y="-446.3" font-family="Times New Roman,serif" font-size="14.00">HITs/suspension</text>
</g>
<!-- HITs/suspension&#45;&gt;HITs/circle -->
<g id="edge5" class="edge"><title>HITs/suspension&#45;&gt;HITs/circle</title>
<path fill="none" stroke="black" d="M333.169,-431.966C323.982,-384.192 297.911,-248.623 286.688,-190.266"/>
<polygon fill="black" stroke="black" points="290.098,-189.466 284.773,-180.306 283.224,-190.788 290.098,-189.466"/>
</g>
<!-- theorems/ua -->
<g id="node9" class="node"><title>theorems/ua</title>
<ellipse fill="none" stroke="black" stroke-dasharray="5,2" cx="397.445" cy="-234" rx="54.6905" ry="18"/>
<text text-anchor="middle" x="397.445" y="-230.3" font-family="Times New Roman,serif" font-size="14.00">theorems/ua</text>
</g>
<!-- theorems/ua&#45;&gt;HITs/circle -->
<g id="edge6" class="edge"><title>theorems/ua&#45;&gt;HITs/circle</title>
<path fill="none" stroke="black" d="M372.274,-217.811C355.439,-207.652 333.101,-194.172 314.791,-183.123"/>
<polygon fill="black" stroke="black" points="316.538,-180.089 306.167,-177.919 312.921,-186.082 316.538,-180.089"/>
</g>
<!-- cubical/V -->
<g id="node23" class="node"><title>cubical/V</title>
<ellipse fill="none" stroke="black" stroke-dasharray="5,2" cx="397.445" cy="-90" rx="45.4919" ry="18"/>
<text text-anchor="middle" x="397.445" y="-86.3" font-family="Times New Roman,serif" font-size="14.00">cubical/V</text>
</g>
<!-- theorems/ua&#45;&gt;cubical/V -->
<g id="edge17" class="edge"><title>theorems/ua&#45;&gt;cubical/V</title>
<path fill="none" stroke="black" d="M397.445,-215.871C397.445,-191.67 397.445,-147.211 397.445,-118.393"/>
<polygon fill="black" stroke="black" points="400.945,-118.189 397.445,-108.189 393.945,-118.189 400.945,-118.189"/>
</g>
<!-- types/heq -->
<g id="node10" class="node"><title>types/heq</title>
<ellipse fill="none" stroke="black" cx="416.445" cy="-594" rx="46.2923" ry="18"/>
<text text-anchor="middle" x="416.445" y="-590.3" font-family="Times New Roman,serif" font-size="14.00">types/heq</text>
</g>
<!-- HITs/colimit -->
<g id="node11" class="node"><title>HITs/colimit</title>
<ellipse fill="none" stroke="black" cx="336.445" cy="-522" rx="56.59" ry="18"/>
<text text-anchor="middle" x="336.445" y="-518.3" font-family="Times New Roman,serif" font-size="14.00">HITs/colimit</text>
</g>
<!-- types/heq&#45;&gt;HITs/colimit -->
<g id="edge7" class="edge"><title>types/heq&#45;&gt;HITs/colimit</title>
<path fill="none" stroke="black" d="M398.291,-577.116C387.729,-567.874 374.234,-556.066 362.547,-545.84"/>
<polygon fill="black" stroke="black" points="364.634,-543.015 354.803,-539.064 360.024,-548.283 364.634,-543.015"/>
</g>
<!-- HITs/generalized -->
<g id="node12" class="node"><title>HITs/generalized</title>
<ellipse fill="none" stroke="black" cx="658.445" cy="-522" rx="72.2875" ry="18"/>
<text text-anchor="middle" x="658.445" y="-518.3" font-family="Times New Roman,serif" font-size="14.00">HITs/generalized</text>
</g>
<!-- types/heq&#45;&gt;HITs/generalized -->
<g id="edge8" class="edge"><title>types/heq&#45;&gt;HITs/generalized</title>
<path fill="none" stroke="black" d="M451.322,-582.084C457.993,-580.034 464.928,-577.93 471.445,-576 515.253,-563.024 565.032,-548.947 602.211,-538.565"/>
<polygon fill="black" stroke="black" points="603.171,-541.931 611.863,-535.873 601.29,-535.188 603.171,-541.931"/>
</g>
<!-- HITs/int -->
<g id="node26" class="node"><title>HITs/int</title>
<ellipse fill="none" stroke="black" cx="451.445" cy="-522" rx="40.8928" ry="18"/>
<text text-anchor="middle" x="451.445" y="-518.3" font-family="Times New Roman,serif" font-size="14.00">HITs/int</text>
</g>
<!-- types/heq&#45;&gt;HITs/int -->
<g id="edge24" class="edge"><title>types/heq&#45;&gt;HITs/int</title>
<path fill="none" stroke="black" d="M424.917,-576.055C429.001,-567.887 433.989,-557.912 438.532,-548.824"/>
<polygon fill="black" stroke="black" points="441.708,-550.299 443.05,-539.789 435.447,-547.168 441.708,-550.299"/>
</g>
<!-- HITs/trunc -->
<g id="node27" class="node"><title>HITs/trunc</title>
<ellipse fill="none" stroke="black" cx="607.445" cy="-450" rx="50.8918" ry="18"/>
<text text-anchor="middle" x="607.445" y="-446.3" font-family="Times New Roman,serif" font-size="14.00">HITs/trunc</text>
</g>
<!-- types/heq&#45;&gt;HITs/trunc -->
<g id="edge42" class="edge"><title>types/heq&#45;&gt;HITs/trunc</title>
<path fill="none" stroke="black" d="M441.222,-578.807C458.505,-568.607 481.884,-554.202 501.445,-540 530.411,-518.969 561.56,-492.277 582.542,-473.634"/>
<polygon fill="black" stroke="black" points="584.938,-476.187 590.06,-466.912 580.272,-470.968 584.938,-476.187"/>
</g>
<!-- HITs/pushout -->
<g id="node29" class="node"><title>HITs/pushout</title>
<ellipse fill="none" stroke="black" cx="200.445" cy="-522" rx="61.99" ry="18"/>
<text text-anchor="middle" x="200.445" y="-518.3" font-family="Times New Roman,serif" font-size="14.00">HITs/pushout</text>
</g>
<!-- types/heq&#45;&gt;HITs/pushout -->
<g id="edge32" class="edge"><title>types/heq&#45;&gt;HITs/pushout</title>
<path fill="none" stroke="black" d="M382.219,-581.908C346.503,-570.334 290.167,-552.077 249.676,-538.955"/>
<polygon fill="black" stroke="black" points="250.596,-535.574 240.004,-535.82 248.438,-542.233 250.596,-535.574"/>
</g>
<!-- HITs/truncation -->
<g id="node38" class="node"><title>HITs/truncation</title>
<ellipse fill="none" stroke="black" cx="794.445" cy="-450" rx="68.4888" ry="18"/>
<text text-anchor="middle" x="794.445" y="-446.3" font-family="Times New Roman,serif" font-size="14.00">HITs/truncation</text>
</g>
<!-- HITs/generalized&#45;&gt;HITs/truncation -->
<g id="edge45" class="edge"><title>HITs/generalized&#45;&gt;HITs/truncation</title>
<path fill="none" stroke="black" d="M688.627,-505.465C708.396,-495.29 734.417,-481.897 755.708,-470.938"/>
<polygon fill="black" stroke="black" points="757.525,-473.939 764.814,-466.251 754.321,-467.716 757.525,-473.939"/>
</g>
<!-- HITs/infinitesimal -->
<g id="node13" class="node"><title>HITs/infinitesimal</title>
<ellipse fill="none" stroke="black" stroke-dasharray="5,2" cx="555.445" cy="-594" rx="74.9875" ry="18"/>
<text text-anchor="middle" x="555.445" y="-590.3" font-family="Times New Roman,serif" font-size="14.00">HITs/infinitesimal</text>
</g>
<!-- types/equiv -->
<g id="node14" class="node"><title>types/equiv</title>
<ellipse fill="none" stroke="black" cx="624.445" cy="-666" rx="51.9908" ry="18"/>
<text text-anchor="middle" x="624.445" y="-662.3" font-family="Times New Roman,serif" font-size="14.00">types/equiv</text>
</g>
<!-- types/equiv&#45;&gt;types/integers -->
<g id="edge20" class="edge"><title>types/equiv&#45;&gt;types/integers</title>
<path fill="none" stroke="black" d="M579.031,-657.112C526.391,-647.678 437.167,-630.785 361.445,-612 271.699,-589.736 168.684,-557.885 109.419,-538.938"/>
<polygon fill="black" stroke="black" points="110.175,-535.504 99.5833,-535.783 108.037,-542.17 110.175,-535.504"/>
</g>
<!-- types/equiv&#45;&gt;types/heq -->
<g id="edge19" class="edge"><title>types/equiv&#45;&gt;types/heq</title>
<path fill="none" stroke="black" d="M588.214,-652.807C552.527,-640.797 497.985,-622.441 459.967,-609.647"/>
<polygon fill="black" stroke="black" points="460.79,-606.231 450.196,-606.359 458.557,-612.865 460.79,-606.231"/>
</g>
<!-- types/equiv&#45;&gt;HITs/infinitesimal -->
<g id="edge9" class="edge"><title>types/equiv&#45;&gt;HITs/infinitesimal</title>
<path fill="none" stroke="black" d="M608.441,-648.765C599.685,-639.882 588.673,-628.709 578.958,-618.854"/>
<polygon fill="black" stroke="black" points="581.353,-616.298 571.84,-611.633 576.368,-621.212 581.353,-616.298"/>
</g>
<!-- types/coproduct -->
<g id="node15" class="node"><title>types/coproduct</title>
<ellipse fill="none" stroke="black" cx="829.445" cy="-594" rx="70.6878" ry="18"/>
<text text-anchor="middle" x="829.445" y="-590.3" font-family="Times New Roman,serif" font-size="14.00">types/coproduct</text>
</g>
<!-- types/equiv&#45;&gt;types/coproduct -->
<g id="edge10" class="edge"><title>types/equiv&#45;&gt;types/coproduct</title>
<path fill="none" stroke="black" d="M660.153,-652.807C693.113,-641.552 742.394,-624.725 779.298,-612.123"/>
<polygon fill="black" stroke="black" points="780.542,-615.397 788.874,-608.853 778.28,-608.773 780.542,-615.397"/>
</g>
<!-- types/unit -->
<g id="node36" class="node"><title>types/unit</title>
<ellipse fill="none" stroke="black" cx="694.445" cy="-594" rx="46.2923" ry="18"/>
<text text-anchor="middle" x="694.445" y="-590.3" font-family="Times New Roman,serif" font-size="14.00">types/unit</text>
</g>
<!-- types/equiv&#45;&gt;types/unit -->
<g id="edge47" class="edge"><title>types/equiv&#45;&gt;types/unit</title>
<path fill="none" stroke="black" d="M640.68,-648.765C649.692,-639.753 661.059,-628.385 671.019,-618.426"/>
<polygon fill="black" stroke="black" points="673.701,-620.693 678.297,-611.147 668.751,-615.744 673.701,-620.693"/>
</g>
<!-- types/lost -->
<g id="node41" class="node"><title>types/lost</title>
<ellipse fill="none" stroke="black" cx="964.445" cy="-594" rx="46.2923" ry="18"/>
<text text-anchor="middle" x="964.445" y="-590.3" font-family="Times New Roman,serif" font-size="14.00">types/lost</text>
</g>
<!-- types/equiv&#45;&gt;types/lost -->
<g id="edge49" class="edge"><title>types/equiv&#45;&gt;types/lost</title>
<path fill="none" stroke="black" d="M671.202,-658.011C727.955,-649.137 826.377,-632.488 909.445,-612 913.053,-611.11 916.774,-610.12 920.498,-609.077"/>
<polygon fill="black" stroke="black" points="921.665,-612.383 930.29,-606.229 919.71,-605.662 921.665,-612.383"/>
</g>
<!-- structures -->
<g id="node37" class="node"><title>structures</title>
<ellipse fill="none" stroke="black" cx="794.445" cy="-522" rx="46.2923" ry="18"/>
<text text-anchor="middle" x="794.445" y="-518.3" font-family="Times New Roman,serif" font-size="14.00">structures</text>
</g>
<!-- types/coproduct&#45;&gt;structures -->
<g id="edge37" class="edge"><title>types/coproduct&#45;&gt;structures</title>
<path fill="none" stroke="black" d="M820.972,-576.055C816.888,-567.887 811.9,-557.912 807.357,-548.824"/>
<polygon fill="black" stroke="black" points="810.442,-547.168 802.839,-539.789 804.181,-550.299 810.442,-547.168"/>
</g>
<!-- types/nat -->
<g id="node40" class="node"><title>types/nat</title>
<ellipse fill="none" stroke="black" cx="902.445" cy="-522" rx="43.5923" ry="18"/>
<text text-anchor="middle" x="902.445" y="-518.3" font-family="Times New Roman,serif" font-size="14.00">types/nat</text>
</g>
<!-- types/coproduct&#45;&gt;types/nat -->
<g id="edge48" class="edge"><title>types/coproduct&#45;&gt;types/nat</title>
<path fill="none" stroke="black" d="M846.745,-576.411C856.244,-567.302 868.17,-555.866 878.546,-545.916"/>
<polygon fill="black" stroke="black" points="880.976,-548.436 885.771,-538.988 876.131,-543.383 880.976,-548.436"/>
</g>
<!-- types/dep_path&#45;&gt;types/equiv -->
<g id="edge21" class="edge"><title>types/dep_path&#45;&gt;types/equiv</title>
<path fill="none" stroke="black" d="M624.445,-719.697C624.445,-711.983 624.445,-702.712 624.445,-694.112"/>
<polygon fill="black" stroke="black" points="627.945,-694.104 624.445,-684.104 620.945,-694.104 627.945,-694.104"/>
</g>
<!-- cubical/Path -->
<g id="node17" class="node"><title>cubical/Path</title>
<ellipse fill="none" stroke="black" cx="676.445" cy="-162" rx="55.4913" ry="18"/>
<text text-anchor="middle" x="676.445" y="-158.3" font-family="Times New Roman,serif" font-size="14.00">cubical/Path</text>
</g>
<!-- cubical/connection -->
<g id="node18" class="node"><title>cubical/connection</title>
<ellipse fill="none" stroke="black" cx="839.445" cy="-90" rx="79.0865" ry="18"/>
<text text-anchor="middle" x="839.445" y="-86.3" font-family="Times New Roman,serif" font-size="14.00">cubical/connection</text>
</g>
<!-- cubical/Path&#45;&gt;cubical/connection -->
<g id="edge12" class="edge"><title>cubical/Path&#45;&gt;cubical/connection</title>
<path fill="none" stroke="black" d="M708.648,-147.17C733.298,-136.585 767.583,-121.861 794.868,-110.143"/>
<polygon fill="black" stroke="black" points="796.393,-113.298 804.2,-106.136 793.63,-106.866 796.393,-113.298"/>
</g>
<!-- cubical/Square -->
<g id="node21" class="node"><title>cubical/Square</title>
<ellipse fill="none" stroke="black" cx="1001.44" cy="-90" rx="64.189" ry="18"/>
<text text-anchor="middle" x="1001.44" y="-86.3" font-family="Times New Roman,serif" font-size="14.00">cubical/Square</text>
</g>
<!-- cubical/Path&#45;&gt;cubical/Square -->
<g id="edge15" class="edge"><title>cubical/Path&#45;&gt;cubical/Square</title>
<path fill="none" stroke="black" d="M721.84,-151.667C772.155,-141.263 855.681,-123.818 927.445,-108 932.755,-106.83 938.275,-105.595 943.799,-104.347"/>
<polygon fill="black" stroke="black" points="944.728,-107.726 953.704,-102.098 943.177,-100.899 944.728,-107.726"/>
</g>
<!-- cubical/example -->
<g id="node22" class="node"><title>cubical/example</title>
<ellipse fill="none" stroke="black" cx="529.445" cy="-90" rx="68.7879" ry="18"/>
<text text-anchor="middle" x="529.445" y="-86.3" font-family="Times New Roman,serif" font-size="14.00">cubical/example</text>
</g>
<!-- cubical/Path&#45;&gt;cubical/example -->
<g id="edge16" class="edge"><title>cubical/Path&#45;&gt;cubical/example</title>
<path fill="none" stroke="black" d="M646.342,-146.666C624.393,-136.213 594.398,-121.93 570.288,-110.449"/>
<polygon fill="black" stroke="black" points="571.564,-107.18 561.031,-106.041 568.554,-113.5 571.564,-107.18"/>
</g>
<!-- cubical/Path&#45;&gt;cubical/V -->
<g id="edge18" class="edge"><title>cubical/Path&#45;&gt;cubical/V</title>
<path fill="none" stroke="black" d="M631.374,-151.408C585.772,-141.463 513.36,-125.013 451.445,-108 448.073,-107.073 444.595,-106.076 441.106,-105.046"/>
<polygon fill="black" stroke="black" points="441.908,-101.631 431.323,-102.084 439.88,-108.331 441.908,-101.631"/>
</g>
<!-- HITs/moebius -->
<g id="node31" class="node"><title>HITs/moebius</title>
<ellipse fill="none" stroke="black" cx="679.445" cy="-90" rx="63.0888" ry="18"/>
<text text-anchor="middle" x="679.445" y="-86.3" font-family="Times New Roman,serif" font-size="14.00">HITs/moebius</text>
</g>
<!-- cubical/Path&#45;&gt;HITs/moebius -->
<g id="edge27" class="edge"><title>cubical/Path&#45;&gt;HITs/moebius</title>
<path fill="none" stroke="black" d="M677.186,-143.697C677.517,-135.983 677.914,-126.712 678.283,-118.112"/>
<polygon fill="black" stroke="black" points="681.78,-118.245 678.712,-108.104 674.787,-117.945 681.78,-118.245"/>
</g>
<!-- types/product -->
<g id="node19" class="node"><title>types/product</title>
<ellipse fill="none" stroke="black" cx="659.445" cy="-306" rx="61.99" ry="18"/>
<text text-anchor="middle" x="659.445" y="-302.3" font-family="Times New Roman,serif" font-size="14.00">types/product</text>
</g>
<!-- types/product&#45;&gt;theorems/ua -->
<g id="edge46" class="edge"><title>types/product&#45;&gt;theorems/ua</title>
<path fill="none" stroke="black" d="M615.592,-293.284C569.391,-280.94 496.724,-261.525 448.106,-248.536"/>
<polygon fill="black" stroke="black" points="448.982,-245.147 438.417,-245.947 447.175,-251.909 448.982,-245.147"/>
</g>
<!-- cubical/cubes -->
<g id="node20" class="node"><title>cubical/cubes</title>
<ellipse fill="none" stroke="black" cx="670.445" cy="-234" rx="60.3893" ry="18"/>
<text text-anchor="middle" x="670.445" y="-230.3" font-family="Times New Roman,serif" font-size="14.00">cubical/cubes</text>
</g>
<!-- types/product&#45;&gt;cubical/cubes -->
<g id="edge13" class="edge"><title>types/product&#45;&gt;cubical/cubes</title>
<path fill="none" stroke="black" d="M662.164,-287.697C663.376,-279.983 664.833,-270.712 666.184,-262.112"/>
<polygon fill="black" stroke="black" points="669.662,-262.526 667.757,-252.104 662.747,-261.44 669.662,-262.526"/>
</g>
<!-- cubical/cubes&#45;&gt;cubical/Path -->
<g id="edge14" class="edge"><title>cubical/cubes&#45;&gt;cubical/Path</title>
<path fill="none" stroke="black" d="M671.928,-215.697C672.589,-207.983 673.384,-198.712 674.121,-190.112"/>
<polygon fill="black" stroke="black" points="677.612,-190.367 674.979,-180.104 670.637,-189.769 677.612,-190.367"/>
</g>
<!-- support&#45;&gt;types/equiv -->
<g id="edge22" class="edge"><title>support&#45;&gt;types/equiv</title>
<path fill="none" stroke="black" d="M524.06,-723.669C542.546,-713.233 568.537,-698.561 589.44,-686.761"/>
<polygon fill="black" stroke="black" points="591.357,-689.698 598.345,-681.734 587.916,-683.602 591.357,-689.698"/>
</g>
<!-- theorems/functions -->
<g id="node25" class="node"><title>theorems/functions</title>
<ellipse fill="none" stroke="black" cx="789.445" cy="-738" rx="79.8859" ry="18"/>
<text text-anchor="middle" x="789.445" y="-734.3" font-family="Times New Roman,serif" font-size="14.00">theorems/functions</text>
</g>
<!-- theorems/functions&#45;&gt;types/equiv -->
<g id="edge23" class="edge"><title>theorems/functions&#45;&gt;types/equiv</title>
<path fill="none" stroke="black" d="M753.642,-721.811C727.613,-710.769 692.337,-695.803 665.223,-684.3"/>
<polygon fill="black" stroke="black" points="666.573,-681.071 656.001,-680.387 663.839,-687.515 666.573,-681.071"/>
</g>
<!-- HITs/rat -->
<g id="node34" class="node"><title>HITs/rat</title>
<ellipse fill="none" stroke="black" cx="468.445" cy="-450" rx="41.6928" ry="18"/>
<text text-anchor="middle" x="468.445" y="-446.3" font-family="Times New Roman,serif" font-size="14.00">HITs/rat</text>
</g>
<!-- HITs/int&#45;&gt;HITs/rat -->
<g id="edge33" class="edge"><title>HITs/int&#45;&gt;HITs/rat</title>
<path fill="none" stroke="black" d="M455.56,-504.055C457.453,-496.261 459.745,-486.822 461.868,-478.079"/>
<polygon fill="black" stroke="black" points="465.29,-478.819 464.249,-468.275 458.488,-477.167 465.29,-478.819"/>
</g>
<!-- HITs/interval -->
<g id="node28" class="node"><title>HITs/interval</title>
<ellipse fill="none" stroke="black" cx="636.445" cy="-378" rx="57.6901" ry="18"/>
<text text-anchor="middle" x="636.445" y="-374.3" font-family="Times New Roman,serif" font-size="14.00">HITs/interval</text>
</g>
<!-- HITs/trunc&#45;&gt;HITs/interval -->
<g id="edge25" class="edge"><title>HITs/trunc&#45;&gt;HITs/interval</title>
<path fill="none" stroke="black" d="M614.465,-432.055C617.729,-424.176 621.689,-414.617 625.344,-405.794"/>
<polygon fill="black" stroke="black" points="628.694,-406.853 629.288,-396.275 622.227,-404.174 628.694,-406.853"/>
</g>
<!-- theorems/mere_eq_lemma -->
<g id="node32" class="node"><title>theorems/mere_eq_lemma</title>
<ellipse fill="none" stroke="black" cx="454.445" cy="-378" rx="105.881" ry="18"/>
<text text-anchor="middle" x="454.445" y="-374.3" font-family="Times New Roman,serif" font-size="14.00">theorems/mere_eq_lemma</text>
</g>
<!-- HITs/trunc&#45;&gt;theorems/mere_eq_lemma -->
<g id="edge28" class="edge"><title>HITs/trunc&#45;&gt;theorems/mere_eq_lemma</title>
<path fill="none" stroke="black" d="M577.581,-435.337C555.219,-425.106 524.258,-410.941 498.977,-399.374"/>
<polygon fill="black" stroke="black" points="500.145,-396.06 489.595,-395.082 497.233,-402.425 500.145,-396.06"/>
</g>
<!-- HITs/interval&#45;&gt;types/product -->
<g id="edge30" class="edge"><title>HITs/interval&#45;&gt;types/product</title>
<path fill="none" stroke="black" d="M642.012,-360.055C644.601,-352.176 647.742,-342.617 650.641,-333.794"/>
<polygon fill="black" stroke="black" points="653.972,-334.868 653.768,-324.275 647.322,-332.683 653.972,-334.868"/>
</g>
<!-- theorems/prop -->
<g id="node33" class="node"><title>theorems/prop</title>
<ellipse fill="none" stroke="black" cx="516.445" cy="-306" rx="63.8893" ry="18"/>
<text text-anchor="middle" x="516.445" y="-302.3" font-family="Times New Roman,serif" font-size="14.00">theorems/prop</text>
</g>
<!-- HITs/interval&#45;&gt;theorems/prop -->
<g id="edge31" class="edge"><title>HITs/interval&#45;&gt;theorems/prop</title>
<path fill="none" stroke="black" d="M610.406,-361.811C593.227,-351.79 570.51,-338.538 551.716,-327.575"/>
<polygon fill="black" stroke="black" points="553.248,-324.417 542.846,-322.401 549.721,-330.463 553.248,-324.417"/>
</g>
<!-- HITs/pushout&#45;&gt;HITs/suspension -->
<g id="edge39" class="edge"><title>HITs/pushout&#45;&gt;HITs/suspension</title>
<path fill="none" stroke="black" d="M229.62,-505.983C249.425,-495.789 275.838,-482.195 297.444,-471.074"/>
<polygon fill="black" stroke="black" points="299.087,-474.165 306.377,-466.476 295.883,-467.941 299.087,-474.165"/>
</g>
<!-- HITs/join -->
<g id="node30" class="node"><title>HITs/join</title>
<ellipse fill="none" stroke="black" cx="200.445" cy="-450" rx="45.4919" ry="18"/>
<text text-anchor="middle" x="200.445" y="-446.3" font-family="Times New Roman,serif" font-size="14.00">HITs/join</text>
</g>
<!-- HITs/pushout&#45;&gt;HITs/join -->
<g id="edge26" class="edge"><title>HITs/pushout&#45;&gt;HITs/join</title>
<path fill="none" stroke="black" d="M200.445,-503.697C200.445,-495.983 200.445,-486.712 200.445,-478.112"/>
<polygon fill="black" stroke="black" points="203.945,-478.104 200.445,-468.104 196.945,-478.104 203.945,-478.104"/>
</g>
<!-- HITs/pushout&#45;&gt;HITs/reals -->
<g id="edge34" class="edge"><title>HITs/pushout&#45;&gt;HITs/reals</title>
<path fill="none" stroke="black" d="M175.588,-505.465C159.454,-495.381 138.262,-482.136 120.816,-471.232"/>
<polygon fill="black" stroke="black" points="122.416,-468.105 112.081,-465.773 118.706,-474.041 122.416,-468.105"/>
</g>
<!-- types/unit&#45;&gt;HITs/suspension -->
<g id="edge40" class="edge"><title>types/unit&#45;&gt;HITs/suspension</title>
<path fill="none" stroke="black" d="M665.051,-579.852C641.351,-569.21 607.188,-553.78 577.445,-540 543.532,-524.288 536.201,-517.745 501.445,-504 465.693,-489.861 424.523,-476.633 392.25,-466.928"/>
<polygon fill="black" stroke="black" points="393.12,-463.535 382.537,-464.032 391.12,-470.243 393.12,-463.535"/>
</g>
<!-- types/unit&#45;&gt;structures -->
<g id="edge36" class="edge"><title>types/unit&#45;&gt;structures</title>
<path fill="none" stroke="black" d="M716.143,-577.811C730.296,-567.904 748.959,-554.84 764.515,-543.951"/>
<polygon fill="black" stroke="black" points="766.603,-546.761 772.788,-538.159 762.589,-541.027 766.603,-546.761"/>
</g>
<!-- structures&#45;&gt;HITs/trunc -->
<g id="edge41" class="edge"><title>structures&#45;&gt;HITs/trunc</title>
<path fill="none" stroke="black" d="M762.298,-508.967C731.504,-497.439 684.813,-479.961 650.752,-467.211"/>
<polygon fill="black" stroke="black" points="651.654,-463.812 641.062,-463.584 649.2,-470.368 651.654,-463.812"/>
</g>
<!-- structures&#45;&gt;HITs/truncation -->
<g id="edge43" class="edge"><title>structures&#45;&gt;HITs/truncation</title>
<path fill="none" stroke="black" d="M794.445,-503.697C794.445,-495.983 794.445,-486.712 794.445,-478.112"/>
<polygon fill="black" stroke="black" points="797.945,-478.104 794.445,-468.104 790.945,-478.104 797.945,-478.104"/>
</g>
<!-- HITs/colomit -->
<g id="node39" class="node"><title>HITs/colomit</title>
<ellipse fill="none" stroke="black" cx="1023.44" cy="-522" rx="59.5901" ry="18"/>
<text text-anchor="middle" x="1023.44" y="-518.3" font-family="Times New Roman,serif" font-size="14.00">HITs/colomit</text>
</g>
<!-- HITs/colomit&#45;&gt;HITs/truncation -->
<g id="edge44" class="edge"><title>HITs/colomit&#45;&gt;HITs/truncation</title>
<path fill="none" stroke="black" d="M983.031,-508.647C945.111,-497.055 888.193,-479.657 846.808,-467.006"/>
<polygon fill="black" stroke="black" points="847.759,-463.637 837.173,-464.061 845.713,-470.331 847.759,-463.637"/>
</g>
<!-- types/sigma -->
<g id="node42" class="node"><title>types/sigma</title>
<ellipse fill="none" stroke="black" cx="767.445" cy="-882" rx="53.8905" ry="18"/>
<text text-anchor="middle" x="767.445" y="-878.3" font-family="Times New Roman,serif" font-size="14.00">types/sigma</text>
</g>
</g>
</svg>
