<?xml version="1.0" encoding="UTF-8" standalone="no"?>
<!DOCTYPE svg PUBLIC "-//W3C//DTD SVG 1.1//EN"
 "http://www.w3.org/Graphics/SVG/1.1/DTD/svg11.dtd">
<!-- Generated by graphviz version 2.38.0 (20140413.2041)
 -->
<!-- Title: dependency_map Pages: 1 -->
<svg width="790pt" height="836pt"
 viewBox="0.00 0.00 789.89 836.00" xmlns="http://www.w3.org/2000/svg" xmlns:xlink="http://www.w3.org/1999/xlink">
<g id="graph0" class="graph" transform="scale(1 1) rotate(0) translate(4 832)">
<title>dependency_map</title>
<polygon fill="white" stroke="none" points="-4,4 -4,-832 785.892,-832 785.892,4 -4,4"/>
<!-- algebra -->
<g id="node1" class="node"><title>algebra</title>
<ellipse fill="none" stroke="black" stroke-dasharray="5,2" cx="316.746" cy="-18" rx="36.2938" ry="18"/>
<text text-anchor="middle" x="316.746" y="-14.3" font-family="Times New Roman,serif" font-size="14.00">algebra</text>
</g>
<!-- HITs/ntrunc -->
<g id="node2" class="node"><title>HITs/ntrunc</title>
<ellipse fill="none" stroke="black" stroke-dasharray="5,2" cx="316.746" cy="-90" rx="55.4913" ry="18"/>
<text text-anchor="middle" x="316.746" y="-86.3" font-family="Times New Roman,serif" font-size="14.00">HITs/ntrunc</text>
</g>
<!-- HITs/ntrunc&#45;&gt;algebra -->
<g id="edge1" class="edge"><title>HITs/ntrunc&#45;&gt;algebra</title>
<path fill="none" stroke="black" d="M316.746,-71.6966C316.746,-63.9827 316.746,-54.7125 316.746,-46.1124"/>
<polygon fill="black" stroke="black" points="320.246,-46.1043 316.746,-36.1043 313.246,-46.1044 320.246,-46.1043"/>
</g>
<!-- HITs/circle -->
<g id="node3" class="node"><title>HITs/circle</title>
<ellipse fill="none" stroke="black" stroke-dasharray="5,2" cx="316.746" cy="-162" rx="51.9908" ry="18"/>
<text text-anchor="middle" x="316.746" y="-158.3" font-family="Times New Roman,serif" font-size="14.00">HITs/circle</text>
</g>
<!-- HITs/circle&#45;&gt;HITs/ntrunc -->
<g id="edge17" class="edge"><title>HITs/circle&#45;&gt;HITs/ntrunc</title>
<path fill="none" stroke="black" d="M316.746,-143.697C316.746,-135.983 316.746,-126.712 316.746,-118.112"/>
<polygon fill="black" stroke="black" points="320.246,-118.104 316.746,-108.104 313.246,-118.104 320.246,-118.104"/>
</g>
<!-- HITs/suspension -->
<g id="node4" class="node"><title>HITs/suspension</title>
<ellipse fill="none" stroke="black" cx="296.746" cy="-450" rx="72.5877" ry="18"/>
<text text-anchor="middle" x="296.746" y="-446.3" font-family="Times New Roman,serif" font-size="14.00">HITs/suspension</text>
</g>
<!-- HITs/suspension&#45;&gt;HITs/circle -->
<g id="edge2" class="edge"><title>HITs/suspension&#45;&gt;HITs/circle</title>
<path fill="none" stroke="black" d="M297.937,-431.966C301.271,-384.291 310.719,-249.185 314.814,-190.63"/>
<polygon fill="black" stroke="black" points="318.329,-190.526 315.535,-180.306 311.346,-190.038 318.329,-190.526"/>
</g>
<!-- theorems/ua -->
<g id="node5" class="node"><title>theorems/ua</title>
<ellipse fill="none" stroke="black" stroke-dasharray="5,2" cx="379.746" cy="-234" rx="54.6905" ry="18"/>
<text text-anchor="middle" x="379.746" y="-230.3" font-family="Times New Roman,serif" font-size="14.00">theorems/ua</text>
</g>
<!-- theorems/ua&#45;&gt;HITs/circle -->
<g id="edge3" class="edge"><title>theorems/ua&#45;&gt;HITs/circle</title>
<path fill="none" stroke="black" d="M364.816,-216.411C356.891,-207.606 347.011,-196.628 338.273,-186.919"/>
<polygon fill="black" stroke="black" points="340.86,-184.562 331.569,-179.47 335.657,-189.244 340.86,-184.562"/>
</g>
<!-- HITs/infinitesimal -->
<g id="node6" class="node"><title>HITs/infinitesimal</title>
<ellipse fill="none" stroke="black" stroke-dasharray="5,2" cx="596.746" cy="-594" rx="74.9875" ry="18"/>
<text text-anchor="middle" x="596.746" y="-590.3" font-family="Times New Roman,serif" font-size="14.00">HITs/infinitesimal</text>
</g>
<!-- types/equiv -->
<g id="node7" class="node"><title>types/equiv</title>
<ellipse fill="none" stroke="black" cx="432.746" cy="-666" rx="51.9908" ry="18"/>
<text text-anchor="middle" x="432.746" y="-662.3" font-family="Times New Roman,serif" font-size="14.00">types/equiv</text>
</g>
<!-- types/equiv&#45;&gt;HITs/infinitesimal -->
<g id="edge4" class="edge"><title>types/equiv&#45;&gt;HITs/infinitesimal</title>
<path fill="none" stroke="black" d="M464.367,-651.503C489.262,-640.877 524.272,-625.934 552.036,-614.083"/>
<polygon fill="black" stroke="black" points="553.703,-617.178 561.526,-610.033 550.955,-610.74 553.703,-617.178"/>
</g>
<!-- types/coproduct -->
<g id="node8" class="node"><title>types/coproduct</title>
<ellipse fill="none" stroke="black" cx="432.746" cy="-594" rx="70.6878" ry="18"/>
<text text-anchor="middle" x="432.746" y="-590.3" font-family="Times New Roman,serif" font-size="14.00">types/coproduct</text>
</g>
<!-- types/equiv&#45;&gt;types/coproduct -->
<g id="edge5" class="edge"><title>types/equiv&#45;&gt;types/coproduct</title>
<path fill="none" stroke="black" d="M432.746,-647.697C432.746,-639.983 432.746,-630.712 432.746,-622.112"/>
<polygon fill="black" stroke="black" points="436.246,-622.104 432.746,-612.104 429.246,-622.104 436.246,-622.104"/>
</g>
<!-- types/heq -->
<g id="node13" class="node"><title>types/heq</title>
<ellipse fill="none" stroke="black" cx="178.746" cy="-594" rx="46.2923" ry="18"/>
<text text-anchor="middle" x="178.746" y="-590.3" font-family="Times New Roman,serif" font-size="14.00">types/heq</text>
</g>
<!-- types/equiv&#45;&gt;types/heq -->
<g id="edge9" class="edge"><title>types/equiv&#45;&gt;types/heq</title>
<path fill="none" stroke="black" d="M393.337,-654.139C347.935,-641.627 273.415,-621.09 225.223,-607.809"/>
<polygon fill="black" stroke="black" points="225.93,-604.373 215.359,-605.09 224.07,-611.121 225.93,-604.373"/>
</g>
<!-- types/unit -->
<g id="node25" class="node"><title>types/unit</title>
<ellipse fill="none" stroke="black" cx="297.746" cy="-594" rx="46.2923" ry="18"/>
<text text-anchor="middle" x="297.746" y="-590.3" font-family="Times New Roman,serif" font-size="14.00">types/unit</text>
</g>
<!-- types/equiv&#45;&gt;types/unit -->
<g id="edge31" class="edge"><title>types/equiv&#45;&gt;types/unit</title>
<path fill="none" stroke="black" d="M405.101,-650.666C384.354,-639.908 355.781,-625.093 333.329,-613.451"/>
<polygon fill="black" stroke="black" points="334.922,-610.334 324.434,-608.838 331.7,-616.549 334.922,-610.334"/>
</g>
<!-- types/lost -->
<g id="node29" class="node"><title>types/lost</title>
<ellipse fill="none" stroke="black" cx="735.746" cy="-594" rx="46.2923" ry="18"/>
<text text-anchor="middle" x="735.746" y="-590.3" font-family="Times New Roman,serif" font-size="14.00">types/lost</text>
</g>
<!-- types/equiv&#45;&gt;types/lost -->
<g id="edge33" class="edge"><title>types/equiv&#45;&gt;types/lost</title>
<path fill="none" stroke="black" d="M477.378,-656.708C527.246,-647.154 610.239,-630.391 680.746,-612 684.291,-611.075 687.948,-610.067 691.613,-609.018"/>
<polygon fill="black" stroke="black" points="692.657,-612.359 701.26,-606.175 690.679,-605.644 692.657,-612.359"/>
</g>
<!-- structures -->
<g id="node26" class="node"><title>structures</title>
<ellipse fill="none" stroke="black" cx="401.746" cy="-522" rx="46.2923" ry="18"/>
<text text-anchor="middle" x="401.746" y="-518.3" font-family="Times New Roman,serif" font-size="14.00">structures</text>
</g>
<!-- types/coproduct&#45;&gt;structures -->
<g id="edge24" class="edge"><title>types/coproduct&#45;&gt;structures</title>
<path fill="none" stroke="black" d="M425.241,-576.055C421.662,-567.973 417.299,-558.121 413.309,-549.112"/>
<polygon fill="black" stroke="black" points="416.43,-547.515 409.181,-539.789 410.03,-550.35 416.43,-547.515"/>
</g>
<!-- types/nat -->
<g id="node28" class="node"><title>types/nat</title>
<ellipse fill="none" stroke="black" cx="509.746" cy="-522" rx="43.5923" ry="18"/>
<text text-anchor="middle" x="509.746" y="-518.3" font-family="Times New Roman,serif" font-size="14.00">types/nat</text>
</g>
<!-- types/coproduct&#45;&gt;types/nat -->
<g id="edge32" class="edge"><title>types/coproduct&#45;&gt;types/nat</title>
<path fill="none" stroke="black" d="M450.994,-576.411C461.085,-567.237 473.772,-555.703 484.772,-545.703"/>
<polygon fill="black" stroke="black" points="487.377,-548.065 492.422,-538.749 482.668,-542.886 487.377,-548.065"/>
</g>
<!-- types/product -->
<g id="node9" class="node"><title>types/product</title>
<ellipse fill="none" stroke="black" cx="399.746" cy="-306" rx="61.99" ry="18"/>
<text text-anchor="middle" x="399.746" y="-302.3" font-family="Times New Roman,serif" font-size="14.00">types/product</text>
</g>
<!-- types/product&#45;&gt;theorems/ua -->
<g id="edge30" class="edge"><title>types/product&#45;&gt;theorems/ua</title>
<path fill="none" stroke="black" d="M394.904,-288.055C392.677,-280.261 389.981,-270.822 387.483,-262.079"/>
<polygon fill="black" stroke="black" points="390.794,-260.929 384.681,-252.275 384.063,-262.852 390.794,-260.929"/>
</g>
<!-- cubical/cubes -->
<g id="node10" class="node"><title>cubical/cubes</title>
<ellipse fill="none" stroke="black" cx="512.746" cy="-234" rx="60.3893" ry="18"/>
<text text-anchor="middle" x="512.746" y="-230.3" font-family="Times New Roman,serif" font-size="14.00">cubical/cubes</text>
</g>
<!-- types/product&#45;&gt;cubical/cubes -->
<g id="edge6" class="edge"><title>types/product&#45;&gt;cubical/cubes</title>
<path fill="none" stroke="black" d="M424.824,-289.465C440.77,-279.586 461.613,-266.675 479.003,-255.903"/>
<polygon fill="black" stroke="black" points="481.08,-258.733 487.737,-250.492 477.393,-252.783 481.08,-258.733"/>
</g>
<!-- cubical/path -->
<g id="node11" class="node"><title>cubical/path</title>
<ellipse fill="none" stroke="black" cx="512.746" cy="-162" rx="54.6905" ry="18"/>
<text text-anchor="middle" x="512.746" y="-158.3" font-family="Times New Roman,serif" font-size="14.00">cubical/path</text>
</g>
<!-- cubical/cubes&#45;&gt;cubical/path -->
<g id="edge7" class="edge"><title>cubical/cubes&#45;&gt;cubical/path</title>
<path fill="none" stroke="black" d="M512.746,-215.697C512.746,-207.983 512.746,-198.712 512.746,-190.112"/>
<polygon fill="black" stroke="black" points="516.246,-190.104 512.746,-180.104 509.246,-190.104 516.246,-190.104"/>
</g>
<!-- cubical/example -->
<g id="node12" class="node"><title>cubical/example</title>
<ellipse fill="none" stroke="black" cx="622.746" cy="-90" rx="68.7879" ry="18"/>
<text text-anchor="middle" x="622.746" y="-86.3" font-family="Times New Roman,serif" font-size="14.00">cubical/example</text>
</g>
<!-- cubical/path&#45;&gt;cubical/example -->
<g id="edge8" class="edge"><title>cubical/path&#45;&gt;cubical/example</title>
<path fill="none" stroke="black" d="M536.614,-145.811C552.003,-136.018 572.241,-123.14 589.232,-112.327"/>
<polygon fill="black" stroke="black" points="591.221,-115.21 597.779,-106.888 587.463,-109.304 591.221,-115.21"/>
</g>
<!-- HITs/moebius -->
<g id="node21" class="node"><title>HITs/moebius</title>
<ellipse fill="none" stroke="black" cx="472.746" cy="-90" rx="63.0888" ry="18"/>
<text text-anchor="middle" x="472.746" y="-86.3" font-family="Times New Roman,serif" font-size="14.00">HITs/moebius</text>
</g>
<!-- cubical/path&#45;&gt;HITs/moebius -->
<g id="edge15" class="edge"><title>cubical/path&#45;&gt;HITs/moebius</title>
<path fill="none" stroke="black" d="M503.063,-144.055C498.464,-136.007 492.863,-126.205 487.732,-117.226"/>
<polygon fill="black" stroke="black" points="490.618,-115.221 482.617,-108.275 484.54,-118.694 490.618,-115.221"/>
</g>
<!-- HITs/int -->
<g id="node16" class="node"><title>HITs/int</title>
<ellipse fill="none" stroke="black" cx="48.7457" cy="-522" rx="40.8928" ry="18"/>
<text text-anchor="middle" x="48.7457" y="-518.3" font-family="Times New Roman,serif" font-size="14.00">HITs/int</text>
</g>
<!-- types/heq&#45;&gt;HITs/int -->
<g id="edge12" class="edge"><title>types/heq&#45;&gt;HITs/int</title>
<path fill="none" stroke="black" d="M152.751,-579.003C132.652,-568.18 104.658,-553.107 82.7754,-541.324"/>
<polygon fill="black" stroke="black" points="84.2763,-538.157 73.8122,-536.497 80.9575,-544.32 84.2763,-538.157"/>
</g>
<!-- HITs/trunc -->
<g id="node17" class="node"><title>HITs/trunc</title>
<ellipse fill="none" stroke="black" cx="437.746" cy="-450" rx="50.8918" ry="18"/>
<text text-anchor="middle" x="437.746" y="-446.3" font-family="Times New Roman,serif" font-size="14.00">HITs/trunc</text>
</g>
<!-- types/heq&#45;&gt;HITs/trunc -->
<g id="edge29" class="edge"><title>types/heq&#45;&gt;HITs/trunc</title>
<path fill="none" stroke="black" d="M204.526,-578.865C251.118,-553.321 349.402,-499.435 402.285,-470.442"/>
<polygon fill="black" stroke="black" points="404.212,-473.377 411.298,-465.5 400.847,-467.239 404.212,-473.377"/>
</g>
<!-- HITs/pushout -->
<g id="node19" class="node"><title>HITs/pushout</title>
<ellipse fill="none" stroke="black" cx="169.746" cy="-522" rx="61.99" ry="18"/>
<text text-anchor="middle" x="169.746" y="-518.3" font-family="Times New Roman,serif" font-size="14.00">HITs/pushout</text>
</g>
<!-- types/heq&#45;&gt;HITs/pushout -->
<g id="edge20" class="edge"><title>types/heq&#45;&gt;HITs/pushout</title>
<path fill="none" stroke="black" d="M176.521,-575.697C175.529,-567.983 174.337,-558.712 173.232,-550.112"/>
<polygon fill="black" stroke="black" points="176.692,-549.576 171.945,-540.104 169.749,-550.469 176.692,-549.576"/>
</g>
<!-- support -->
<g id="node14" class="node"><title>support</title>
<ellipse fill="none" stroke="black" cx="364.746" cy="-738" rx="38.9931" ry="18"/>
<text text-anchor="middle" x="364.746" y="-734.3" font-family="Times New Roman,serif" font-size="14.00">support</text>
</g>
<!-- support&#45;&gt;types/equiv -->
<g id="edge10" class="edge"><title>support&#45;&gt;types/equiv</title>
<path fill="none" stroke="black" d="M380.176,-721.116C388.919,-712.116 400.026,-700.682 409.775,-690.646"/>
<polygon fill="black" stroke="black" points="412.447,-692.919 416.905,-683.307 407.426,-688.041 412.447,-692.919"/>
</g>
<!-- theorems/functions -->
<g id="node15" class="node"><title>theorems/functions</title>
<ellipse fill="none" stroke="black" cx="501.746" cy="-738" rx="79.8859" ry="18"/>
<text text-anchor="middle" x="501.746" y="-734.3" font-family="Times New Roman,serif" font-size="14.00">theorems/functions</text>
</g>
<!-- theorems/functions&#45;&gt;types/equiv -->
<g id="edge11" class="edge"><title>theorems/functions&#45;&gt;types/equiv</title>
<path fill="none" stroke="black" d="M485.043,-720.055C476.357,-711.243 465.598,-700.328 456.101,-690.694"/>
<polygon fill="black" stroke="black" points="458.332,-687.972 448.82,-683.307 453.347,-692.886 458.332,-687.972"/>
</g>
<!-- HITs/reals -->
<g id="node24" class="node"><title>HITs/reals</title>
<ellipse fill="none" stroke="black" cx="48.7457" cy="-450" rx="48.9926" ry="18"/>
<text text-anchor="middle" x="48.7457" y="-446.3" font-family="Times New Roman,serif" font-size="14.00">HITs/reals</text>
</g>
<!-- HITs/int&#45;&gt;HITs/reals -->
<g id="edge22" class="edge"><title>HITs/int&#45;&gt;HITs/reals</title>
<path fill="none" stroke="black" d="M48.7457,-503.697C48.7457,-495.983 48.7457,-486.712 48.7457,-478.112"/>
<polygon fill="black" stroke="black" points="52.2458,-478.104 48.7457,-468.104 45.2458,-478.104 52.2458,-478.104"/>
</g>
<!-- HITs/interval -->
<g id="node18" class="node"><title>HITs/interval</title>
<ellipse fill="none" stroke="black" cx="424.746" cy="-378" rx="57.6901" ry="18"/>
<text text-anchor="middle" x="424.746" y="-374.3" font-family="Times New Roman,serif" font-size="14.00">HITs/interval</text>
</g>
<!-- HITs/trunc&#45;&gt;HITs/interval -->
<g id="edge13" class="edge"><title>HITs/trunc&#45;&gt;HITs/interval</title>
<path fill="none" stroke="black" d="M434.532,-431.697C433.1,-423.983 431.378,-414.712 429.781,-406.112"/>
<polygon fill="black" stroke="black" points="433.189,-405.297 427.922,-396.104 426.307,-406.575 433.189,-405.297"/>
</g>
<!-- theorems/mere_eq_lemma -->
<g id="node22" class="node"><title>theorems/mere_eq_lemma</title>
<ellipse fill="none" stroke="black" cx="606.746" cy="-378" rx="105.881" ry="18"/>
<text text-anchor="middle" x="606.746" y="-374.3" font-family="Times New Roman,serif" font-size="14.00">theorems/mere_eq_lemma</text>
</g>
<!-- HITs/trunc&#45;&gt;theorems/mere_eq_lemma -->
<g id="edge16" class="edge"><title>HITs/trunc&#45;&gt;theorems/mere_eq_lemma</title>
<path fill="none" stroke="black" d="M469.533,-435.834C494.789,-425.372 530.506,-410.579 559.167,-398.707"/>
<polygon fill="black" stroke="black" points="560.692,-401.864 568.592,-394.803 558.013,-395.397 560.692,-401.864"/>
</g>
<!-- HITs/interval&#45;&gt;types/product -->
<g id="edge18" class="edge"><title>HITs/interval&#45;&gt;types/product</title>
<path fill="none" stroke="black" d="M418.694,-360.055C415.88,-352.176 412.466,-342.617 409.315,-333.794"/>
<polygon fill="black" stroke="black" points="412.575,-332.516 405.915,-324.275 405.983,-334.87 412.575,-332.516"/>
</g>
<!-- theorems/prop -->
<g id="node23" class="node"><title>theorems/prop</title>
<ellipse fill="none" stroke="black" cx="542.746" cy="-306" rx="63.8893" ry="18"/>
<text text-anchor="middle" x="542.746" y="-302.3" font-family="Times New Roman,serif" font-size="14.00">theorems/prop</text>
</g>
<!-- HITs/interval&#45;&gt;theorems/prop -->
<g id="edge19" class="edge"><title>HITs/interval&#45;&gt;theorems/prop</title>
<path fill="none" stroke="black" d="M450.35,-361.811C467.126,-351.859 489.274,-338.721 507.679,-327.802"/>
<polygon fill="black" stroke="black" points="509.56,-330.756 516.374,-322.644 505.988,-324.736 509.56,-330.756"/>
</g>
<!-- HITs/pushout&#45;&gt;HITs/suspension -->
<g id="edge26" class="edge"><title>HITs/pushout&#45;&gt;HITs/suspension</title>
<path fill="none" stroke="black" d="M197.303,-505.811C215.523,-495.769 239.629,-482.482 259.544,-471.505"/>
<polygon fill="black" stroke="black" points="261.295,-474.536 268.363,-466.644 257.916,-468.406 261.295,-474.536"/>
</g>
<!-- HITs/join -->
<g id="node20" class="node"><title>HITs/join</title>
<ellipse fill="none" stroke="black" cx="160.746" cy="-450" rx="45.4919" ry="18"/>
<text text-anchor="middle" x="160.746" y="-446.3" font-family="Times New Roman,serif" font-size="14.00">HITs/join</text>
</g>
<!-- HITs/pushout&#45;&gt;HITs/join -->
<g id="edge14" class="edge"><title>HITs/pushout&#45;&gt;HITs/join</title>
<path fill="none" stroke="black" d="M167.521,-503.697C166.529,-495.983 165.337,-486.712 164.232,-478.112"/>
<polygon fill="black" stroke="black" points="167.692,-477.576 162.945,-468.104 160.749,-478.469 167.692,-477.576"/>
</g>
<!-- HITs/pushout&#45;&gt;HITs/reals -->
<g id="edge21" class="edge"><title>HITs/pushout&#45;&gt;HITs/reals</title>
<path fill="none" stroke="black" d="M143.192,-505.638C125.415,-495.354 101.857,-481.726 82.7171,-470.653"/>
<polygon fill="black" stroke="black" points="84.4047,-467.586 73.9961,-465.608 80.8994,-473.645 84.4047,-467.586"/>
</g>
<!-- types/unit&#45;&gt;HITs/suspension -->
<g id="edge27" class="edge"><title>types/unit&#45;&gt;HITs/suspension</title>
<path fill="none" stroke="black" d="M297.625,-575.871C297.455,-551.67 297.142,-507.211 296.939,-478.393"/>
<polygon fill="black" stroke="black" points="300.437,-478.164 296.867,-468.189 293.437,-478.214 300.437,-478.164"/>
</g>
<!-- types/unit&#45;&gt;structures -->
<g id="edge23" class="edge"><title>types/unit&#45;&gt;structures</title>
<path fill="none" stroke="black" d="M319.801,-578.155C334.693,-568.132 354.554,-554.763 370.994,-543.698"/>
<polygon fill="black" stroke="black" points="373.38,-546.311 379.722,-537.824 369.472,-540.504 373.38,-546.311"/>
</g>
<!-- structures&#45;&gt;HITs/trunc -->
<g id="edge28" class="edge"><title>structures&#45;&gt;HITs/trunc</title>
<path fill="none" stroke="black" d="M410.46,-504.055C414.661,-495.887 419.791,-485.912 424.465,-476.824"/>
<polygon fill="black" stroke="black" points="427.65,-478.283 429.111,-467.789 421.425,-475.081 427.65,-478.283"/>
</g>
<!-- types/eq -->
<g id="node27" class="node"><title>types/eq</title>
<ellipse fill="none" stroke="black" cx="364.746" cy="-810" rx="41.6928" ry="18"/>
<text text-anchor="middle" x="364.746" y="-806.3" font-family="Times New Roman,serif" font-size="14.00">types/eq</text>
</g>
<!-- types/eq&#45;&gt;support -->
<g id="edge25" class="edge"><title>types/eq&#45;&gt;support</title>
<path fill="none" stroke="black" d="M364.746,-791.697C364.746,-783.983 364.746,-774.712 364.746,-766.112"/>
<polygon fill="black" stroke="black" points="368.246,-766.104 364.746,-756.104 361.246,-766.104 368.246,-766.104"/>
</g>
<!-- types/sigma -->
<g id="node30" class="node"><title>types/sigma</title>
<ellipse fill="none" stroke="black" cx="478.746" cy="-810" rx="53.8905" ry="18"/>
<text text-anchor="middle" x="478.746" y="-806.3" font-family="Times New Roman,serif" font-size="14.00">types/sigma</text>
</g>
</g>
</svg>
