<?xml version="1.0" encoding="UTF-8" standalone="no"?>
<!DOCTYPE svg PUBLIC "-//W3C//DTD SVG 1.1//EN"
 "http://www.w3.org/Graphics/SVG/1.1/DTD/svg11.dtd">
<!-- Generated by graphviz version 2.38.0 (20140413.2041)
 -->
<!-- Title: dependency_map Pages: 1 -->
<svg width="1401pt" height="764pt"
 viewBox="0.00 0.00 1400.80 764.00" xmlns="http://www.w3.org/2000/svg" xmlns:xlink="http://www.w3.org/1999/xlink">
<g id="graph0" class="graph" transform="scale(1 1) rotate(0) translate(4 760)">
<title>dependency_map</title>
<polygon fill="white" stroke="none" points="-4,4 -4,-760 1396.8,-760 1396.8,4 -4,4"/>
<!-- proto -->
<g id="node1" class="node"><title>proto</title>
<ellipse fill="none" stroke="black" cx="368.206" cy="-738" rx="30.5947" ry="18"/>
<text text-anchor="middle" x="368.206" y="-734.3" font-family="Times New Roman,serif" font-size="14.00">proto</text>
</g>
<!-- types/eq -->
<g id="node2" class="node"><title>types/eq</title>
<ellipse fill="none" stroke="black" cx="428.206" cy="-666" rx="41.6928" ry="18"/>
<text text-anchor="middle" x="428.206" y="-662.3" font-family="Times New Roman,serif" font-size="14.00">types/eq</text>
</g>
<!-- proto&#45;&gt;types/eq -->
<g id="edge1" class="edge"><title>proto&#45;&gt;types/eq</title>
<path fill="none" stroke="black" d="M381.522,-721.465C389.15,-712.566 398.887,-701.205 407.494,-691.164"/>
<polygon fill="black" stroke="black" points="410.241,-693.338 414.091,-683.467 404.926,-688.782 410.241,-693.338"/>
</g>
<!-- support -->
<g id="node4" class="node"><title>support</title>
<ellipse fill="none" stroke="black" cx="490.206" cy="-594" rx="38.9931" ry="18"/>
<text text-anchor="middle" x="490.206" y="-590.3" font-family="Times New Roman,serif" font-size="14.00">support</text>
</g>
<!-- types/eq&#45;&gt;support -->
<g id="edge11" class="edge"><title>types/eq&#45;&gt;support</title>
<path fill="none" stroke="black" d="M442.586,-648.765C450.489,-639.841 460.439,-628.608 469.197,-618.719"/>
<polygon fill="black" stroke="black" points="471.894,-620.954 475.904,-611.147 466.654,-616.313 471.894,-620.954"/>
</g>
<!-- types/dep_path -->
<g id="node18" class="node"><title>types/dep_path</title>
<ellipse fill="none" stroke="black" cx="366.206" cy="-594" rx="66.8882" ry="18"/>
<text text-anchor="middle" x="366.206" y="-590.3" font-family="Times New Roman,serif" font-size="14.00">types/dep_path</text>
</g>
<!-- types/eq&#45;&gt;types/dep_path -->
<g id="edge12" class="edge"><title>types/eq&#45;&gt;types/dep_path</title>
<path fill="none" stroke="black" d="M413.826,-648.765C406.035,-639.969 396.257,-628.928 387.591,-619.144"/>
<polygon fill="black" stroke="black" points="390.189,-616.799 380.938,-611.633 384.949,-621.44 390.189,-616.799"/>
</g>
<!-- meta/hott_theory -->
<g id="node3" class="node"><title>meta/hott_theory</title>
<ellipse fill="none" stroke="black" cx="489.206" cy="-738" rx="72.2875" ry="18"/>
<text text-anchor="middle" x="489.206" y="-734.3" font-family="Times New Roman,serif" font-size="14.00">meta/hott_theory</text>
</g>
<!-- meta/hott_theory&#45;&gt;types/eq -->
<g id="edge2" class="edge"><title>meta/hott_theory&#45;&gt;types/eq</title>
<path fill="none" stroke="black" d="M474.439,-720.055C466.837,-711.33 457.437,-700.544 449.103,-690.981"/>
<polygon fill="black" stroke="black" points="451.625,-688.547 442.416,-683.307 446.347,-693.146 451.625,-688.547"/>
</g>
<!-- types/equiv -->
<g id="node5" class="node"><title>types/equiv</title>
<ellipse fill="none" stroke="black" cx="490.206" cy="-522" rx="51.9908" ry="18"/>
<text text-anchor="middle" x="490.206" y="-518.3" font-family="Times New Roman,serif" font-size="14.00">types/equiv</text>
</g>
<!-- support&#45;&gt;types/equiv -->
<g id="edge3" class="edge"><title>support&#45;&gt;types/equiv</title>
<path fill="none" stroke="black" d="M490.206,-575.697C490.206,-567.983 490.206,-558.712 490.206,-550.112"/>
<polygon fill="black" stroke="black" points="493.706,-550.104 490.206,-540.104 486.706,-550.104 493.706,-550.104"/>
</g>
<!-- HITs/infinitesimal -->
<g id="node11" class="node"><title>HITs/infinitesimal</title>
<ellipse fill="none" stroke="black" stroke-dasharray="5,2" cx="246.206" cy="-450" rx="74.9875" ry="18"/>
<text text-anchor="middle" x="246.206" y="-446.3" font-family="Times New Roman,serif" font-size="14.00">HITs/infinitesimal</text>
</g>
<!-- types/equiv&#45;&gt;HITs/infinitesimal -->
<g id="edge13" class="edge"><title>types/equiv&#45;&gt;HITs/infinitesimal</title>
<path fill="none" stroke="black" d="M451.543,-509.908C411.357,-498.379 348.061,-480.221 302.363,-467.111"/>
<polygon fill="black" stroke="black" points="303.181,-463.704 292.604,-464.311 301.251,-470.433 303.181,-463.704"/>
</g>
<!-- types/coproduct -->
<g id="node16" class="node"><title>types/coproduct</title>
<ellipse fill="none" stroke="black" cx="558.206" cy="-450" rx="70.6878" ry="18"/>
<text text-anchor="middle" x="558.206" y="-446.3" font-family="Times New Roman,serif" font-size="14.00">types/coproduct</text>
</g>
<!-- types/equiv&#45;&gt;types/coproduct -->
<g id="edge14" class="edge"><title>types/equiv&#45;&gt;types/coproduct</title>
<path fill="none" stroke="black" d="M505.977,-504.765C514.606,-495.882 525.46,-484.709 535.034,-474.854"/>
<polygon fill="black" stroke="black" points="537.59,-477.245 542.048,-467.633 532.569,-472.367 537.59,-477.245"/>
</g>
<!-- types/heq -->
<g id="node19" class="node"><title>types/heq</title>
<ellipse fill="none" stroke="black" cx="693.206" cy="-450" rx="46.2923" ry="18"/>
<text text-anchor="middle" x="693.206" y="-446.3" font-family="Times New Roman,serif" font-size="14.00">types/heq</text>
</g>
<!-- types/equiv&#45;&gt;types/heq -->
<g id="edge15" class="edge"><title>types/equiv&#45;&gt;types/heq</title>
<path fill="none" stroke="black" d="M526.031,-508.647C560.72,-496.685 613.345,-478.538 650.263,-465.808"/>
<polygon fill="black" stroke="black" points="651.446,-469.102 659.759,-462.533 649.164,-462.485 651.446,-469.102"/>
</g>
<!-- types/integer -->
<g id="node20" class="node"><title>types/integer</title>
<ellipse fill="none" stroke="black" cx="180.206" cy="-378" rx="56.59" ry="18"/>
<text text-anchor="middle" x="180.206" y="-374.3" font-family="Times New Roman,serif" font-size="14.00">types/integer</text>
</g>
<!-- types/equiv&#45;&gt;types/integer -->
<g id="edge16" class="edge"><title>types/equiv&#45;&gt;types/integer</title>
<path fill="none" stroke="black" d="M453.829,-509C428.649,-499.805 394.983,-485.701 368.206,-468 348.798,-455.171 350.051,-444.14 330.206,-432 300.571,-413.871 263.846,-400.762 234.152,-392.117"/>
<polygon fill="black" stroke="black" points="234.947,-388.704 224.372,-389.355 233.045,-395.441 234.947,-388.704"/>
</g>
<!-- types/lost -->
<g id="node21" class="node"><title>types/lost</title>
<ellipse fill="none" stroke="black" cx="803.206" cy="-450" rx="46.2923" ry="18"/>
<text text-anchor="middle" x="803.206" y="-446.3" font-family="Times New Roman,serif" font-size="14.00">types/lost</text>
</g>
<!-- types/equiv&#45;&gt;types/lost -->
<g id="edge17" class="edge"><title>types/equiv&#45;&gt;types/lost</title>
<path fill="none" stroke="black" d="M535.719,-513.035C587.505,-503.652 674.46,-486.924 748.206,-468 751.806,-467.076 755.521,-466.062 759.241,-465.003"/>
<polygon fill="black" stroke="black" points="760.418,-468.305 769.025,-462.128 758.444,-461.589 760.418,-468.305"/>
</g>
<!-- types/unit -->
<g id="node22" class="node"><title>types/unit</title>
<ellipse fill="none" stroke="black" cx="423.206" cy="-450" rx="46.2923" ry="18"/>
<text text-anchor="middle" x="423.206" y="-446.3" font-family="Times New Roman,serif" font-size="14.00">types/unit</text>
</g>
<!-- types/equiv&#45;&gt;types/unit -->
<g id="edge18" class="edge"><title>types/equiv&#45;&gt;types/unit</title>
<path fill="none" stroke="black" d="M474.666,-504.765C466.041,-495.753 455.16,-484.385 445.628,-474.426"/>
<polygon fill="black" stroke="black" points="448.104,-471.951 438.661,-467.147 443.047,-476.792 448.104,-471.951"/>
</g>
<!-- structures -->
<g id="node6" class="node"><title>structures</title>
<ellipse fill="none" stroke="black" cx="466.206" cy="-378" rx="46.2923" ry="18"/>
<text text-anchor="middle" x="466.206" y="-374.3" font-family="Times New Roman,serif" font-size="14.00">structures</text>
</g>
<!-- HITs/interval -->
<g id="node7" class="node"><title>HITs/interval</title>
<ellipse fill="none" stroke="black" cx="606.206" cy="-306" rx="57.6901" ry="18"/>
<text text-anchor="middle" x="606.206" y="-302.3" font-family="Times New Roman,serif" font-size="14.00">HITs/interval</text>
</g>
<!-- structures&#45;&gt;HITs/interval -->
<g id="edge4" class="edge"><title>structures&#45;&gt;HITs/interval</title>
<path fill="none" stroke="black" d="M493.532,-363.337C514.747,-352.729 544.42,-337.893 567.989,-326.108"/>
<polygon fill="black" stroke="black" points="569.639,-329.196 577.018,-321.594 566.509,-322.935 569.639,-329.196"/>
</g>
<!-- HITs/truncation -->
<g id="node8" class="node"><title>HITs/truncation</title>
<ellipse fill="none" stroke="black" cx="838.206" cy="-234" rx="68.4888" ry="18"/>
<text text-anchor="middle" x="838.206" y="-230.3" font-family="Times New Roman,serif" font-size="14.00">HITs/truncation</text>
</g>
<!-- structures&#45;&gt;HITs/truncation -->
<g id="edge5" class="edge"><title>structures&#45;&gt;HITs/truncation</title>
<path fill="none" stroke="black" d="M500.723,-365.943C507.49,-363.885 514.553,-361.814 521.206,-360 588.186,-341.739 612.13,-357.007 673.206,-324 693.673,-312.939 691.706,-300.688 711.206,-288 734.35,-272.94 762.483,-260.675 786.381,-251.752"/>
<polygon fill="black" stroke="black" points="787.793,-254.963 795.994,-248.255 785.4,-248.385 787.793,-254.963"/>
</g>
<!-- algebra/core -->
<g id="node9" class="node"><title>algebra/core</title>
<ellipse fill="none" stroke="black" cx="274.206" cy="-306" rx="55.4913" ry="18"/>
<text text-anchor="middle" x="274.206" y="-302.3" font-family="Times New Roman,serif" font-size="14.00">algebra/core</text>
</g>
<!-- structures&#45;&gt;algebra/core -->
<g id="edge6" class="edge"><title>structures&#45;&gt;algebra/core</title>
<path fill="none" stroke="black" d="M433.636,-365.125C402.146,-353.645 354.175,-336.155 319.077,-323.359"/>
<polygon fill="black" stroke="black" points="320.138,-320.021 309.544,-319.884 317.74,-326.597 320.138,-320.021"/>
</g>
<!-- types/product -->
<g id="node26" class="node"><title>types/product</title>
<ellipse fill="none" stroke="black" cx="606.206" cy="-234" rx="61.99" ry="18"/>
<text text-anchor="middle" x="606.206" y="-230.3" font-family="Times New Roman,serif" font-size="14.00">types/product</text>
</g>
<!-- HITs/interval&#45;&gt;types/product -->
<g id="edge39" class="edge"><title>HITs/interval&#45;&gt;types/product</title>
<path fill="none" stroke="black" d="M606.206,-287.697C606.206,-279.983 606.206,-270.712 606.206,-262.112"/>
<polygon fill="black" stroke="black" points="609.706,-262.104 606.206,-252.104 602.706,-262.104 609.706,-262.104"/>
</g>
<!-- theorems/prop -->
<g id="node36" class="node"><title>theorems/prop</title>
<ellipse fill="none" stroke="black" cx="650.206" cy="-162" rx="63.8893" ry="18"/>
<text text-anchor="middle" x="650.206" y="-158.3" font-family="Times New Roman,serif" font-size="14.00">theorems/prop</text>
</g>
<!-- HITs/interval&#45;&gt;theorems/prop -->
<g id="edge40" class="edge"><title>HITs/interval&#45;&gt;theorems/prop</title>
<path fill="none" stroke="black" d="M636.918,-290.643C652.004,-281.809 668.726,-268.913 677.206,-252 687.422,-231.626 678.163,-206.662 667.801,-188.364"/>
<polygon fill="black" stroke="black" points="670.728,-186.441 662.542,-179.714 664.746,-190.077 670.728,-186.441"/>
</g>
<!-- HITs/truncation&#45;&gt;theorems/prop -->
<g id="edge45" class="edge"><title>HITs/truncation&#45;&gt;theorems/prop</title>
<path fill="none" stroke="black" d="M800.161,-218.834C770.31,-207.72 728.622,-192.198 696.776,-180.34"/>
<polygon fill="black" stroke="black" points="697.826,-176.996 687.233,-176.787 695.383,-183.556 697.826,-176.996"/>
</g>
<!-- HITs/simplicial -->
<g id="node38" class="node"><title>HITs/simplicial</title>
<ellipse fill="none" stroke="black" cx="1187.21" cy="-162" rx="65.7887" ry="18"/>
<text text-anchor="middle" x="1187.21" y="-158.3" font-family="Times New Roman,serif" font-size="14.00">HITs/simplicial</text>
</g>
<!-- HITs/truncation&#45;&gt;HITs/simplicial -->
<g id="edge46" class="edge"><title>HITs/truncation&#45;&gt;HITs/simplicial</title>
<path fill="none" stroke="black" d="M892.586,-223.107C948.144,-212.862 1036.85,-196.123 1113.21,-180 1118.45,-178.894 1123.89,-177.71 1129.33,-176.502"/>
<polygon fill="black" stroke="black" points="1130.1,-179.916 1139.1,-174.312 1128.57,-173.086 1130.1,-179.916"/>
</g>
<!-- theorems/mere_eq_lemma -->
<g id="node39" class="node"><title>theorems/mere_eq_lemma</title>
<ellipse fill="none" stroke="black" cx="838.206" cy="-162" rx="105.881" ry="18"/>
<text text-anchor="middle" x="838.206" y="-158.3" font-family="Times New Roman,serif" font-size="14.00">theorems/mere_eq_lemma</text>
</g>
<!-- HITs/truncation&#45;&gt;theorems/mere_eq_lemma -->
<g id="edge47" class="edge"><title>HITs/truncation&#45;&gt;theorems/mere_eq_lemma</title>
<path fill="none" stroke="black" d="M838.206,-215.697C838.206,-207.983 838.206,-198.712 838.206,-190.112"/>
<polygon fill="black" stroke="black" points="841.706,-190.104 838.206,-180.104 834.706,-190.104 841.706,-190.104"/>
</g>
<!-- theorems/graphs -->
<g id="node40" class="node"><title>theorems/graphs</title>
<ellipse fill="none" stroke="black" cx="1033.21" cy="-162" rx="70.6878" ry="18"/>
<text text-anchor="middle" x="1033.21" y="-158.3" font-family="Times New Roman,serif" font-size="14.00">theorems/graphs</text>
</g>
<!-- HITs/truncation&#45;&gt;theorems/graphs -->
<g id="edge48" class="edge"><title>HITs/truncation&#45;&gt;theorems/graphs</title>
<path fill="none" stroke="black" d="M877.198,-219.003C908.052,-207.927 951.309,-192.399 984.45,-180.502"/>
<polygon fill="black" stroke="black" points="985.718,-183.766 993.947,-177.093 983.353,-177.177 985.718,-183.766"/>
</g>
<!-- algebra/group -->
<g id="node15" class="node"><title>algebra/group</title>
<ellipse fill="none" stroke="black" cx="194.206" cy="-234" rx="60.3893" ry="18"/>
<text text-anchor="middle" x="194.206" y="-230.3" font-family="Times New Roman,serif" font-size="14.00">algebra/group</text>
</g>
<!-- algebra/core&#45;&gt;algebra/group -->
<g id="edge7" class="edge"><title>algebra/core&#45;&gt;algebra/group</title>
<path fill="none" stroke="black" d="M255.651,-288.765C245.15,-279.576 231.85,-267.938 220.311,-257.842"/>
<polygon fill="black" stroke="black" points="222.49,-255.098 212.66,-251.147 217.881,-260.366 222.49,-255.098"/>
</g>
<!-- HITs/circle -->
<g id="node10" class="node"><title>HITs/circle</title>
<ellipse fill="none" stroke="black" stroke-dasharray="5,2" cx="265.206" cy="-90" rx="51.9908" ry="18"/>
<text text-anchor="middle" x="265.206" y="-86.3" font-family="Times New Roman,serif" font-size="14.00">HITs/circle</text>
</g>
<!-- HITs/ntrunc -->
<g id="node12" class="node"><title>HITs/ntrunc</title>
<ellipse fill="none" stroke="black" stroke-dasharray="5,2" cx="263.206" cy="-18" rx="55.4913" ry="18"/>
<text text-anchor="middle" x="263.206" y="-14.3" font-family="Times New Roman,serif" font-size="14.00">HITs/ntrunc</text>
</g>
<!-- HITs/circle&#45;&gt;HITs/ntrunc -->
<g id="edge31" class="edge"><title>HITs/circle&#45;&gt;HITs/ntrunc</title>
<path fill="none" stroke="black" d="M264.711,-71.6966C264.491,-63.9827 264.226,-54.7125 263.981,-46.1124"/>
<polygon fill="black" stroke="black" points="267.479,-46.0003 263.695,-36.1043 260.482,-46.2002 267.479,-46.0003"/>
</g>
<!-- theorems/ua -->
<g id="node13" class="node"><title>theorems/ua</title>
<ellipse fill="none" stroke="black" stroke-dasharray="5,2" cx="375.206" cy="-162" rx="54.6905" ry="18"/>
<text text-anchor="middle" x="375.206" y="-158.3" font-family="Times New Roman,serif" font-size="14.00">theorems/ua</text>
</g>
<!-- theorems/ua&#45;&gt;HITs/circle -->
<g id="edge56" class="edge"><title>theorems/ua&#45;&gt;HITs/circle</title>
<path fill="none" stroke="black" d="M351.338,-145.811C335.626,-135.813 314.86,-122.598 297.655,-111.649"/>
<polygon fill="black" stroke="black" points="299.343,-108.575 289.028,-106.159 295.585,-114.481 299.343,-108.575"/>
</g>
<!-- cubical/V -->
<g id="node14" class="node"><title>cubical/V</title>
<ellipse fill="none" stroke="black" stroke-dasharray="5,2" cx="382.206" cy="-18" rx="45.4919" ry="18"/>
<text text-anchor="middle" x="382.206" y="-14.3" font-family="Times New Roman,serif" font-size="14.00">cubical/V</text>
</g>
<!-- theorems/ua&#45;&gt;cubical/V -->
<g id="edge57" class="edge"><title>theorems/ua&#45;&gt;cubical/V</title>
<path fill="none" stroke="black" d="M376.05,-143.871C377.243,-119.67 379.435,-75.2108 380.855,-46.3932"/>
<polygon fill="black" stroke="black" points="384.362,-46.3495 381.359,-36.1893 377.37,-46.0048 384.362,-46.3495"/>
</g>
<!-- types/coproduct&#45;&gt;structures -->
<g id="edge8" class="edge"><title>types/coproduct&#45;&gt;structures</title>
<path fill="none" stroke="black" d="M536.868,-432.765C524.296,-423.199 508.235,-410.978 494.602,-400.606"/>
<polygon fill="black" stroke="black" points="496.559,-397.697 486.481,-394.427 492.32,-403.267 496.559,-397.697"/>
</g>
<!-- types/nat -->
<g id="node17" class="node"><title>types/nat</title>
<ellipse fill="none" stroke="black" cx="574.206" cy="-378" rx="43.5923" ry="18"/>
<text text-anchor="middle" x="574.206" y="-374.3" font-family="Times New Roman,serif" font-size="14.00">types/nat</text>
</g>
<!-- types/coproduct&#45;&gt;types/nat -->
<g id="edge9" class="edge"><title>types/coproduct&#45;&gt;types/nat</title>
<path fill="none" stroke="black" d="M562.161,-431.697C563.924,-423.983 566.043,-414.712 568.009,-406.112"/>
<polygon fill="black" stroke="black" points="571.48,-406.633 570.296,-396.104 564.656,-405.073 571.48,-406.633"/>
</g>
<!-- types/dep_path&#45;&gt;types/equiv -->
<g id="edge10" class="edge"><title>types/dep_path&#45;&gt;types/equiv</title>
<path fill="none" stroke="black" d="M393.725,-577.465C411.835,-567.242 435.698,-553.771 455.161,-542.783"/>
<polygon fill="black" stroke="black" points="457.049,-545.737 464.037,-537.773 453.608,-539.641 457.049,-545.737"/>
</g>
<!-- types/heq&#45;&gt;HITs/interval -->
<g id="edge19" class="edge"><title>types/heq&#45;&gt;HITs/interval</title>
<path fill="none" stroke="black" d="M683.056,-432.433C668.01,-407.875 639.66,-361.604 621.918,-332.646"/>
<polygon fill="black" stroke="black" points="624.77,-330.6 616.561,-323.902 618.801,-334.257 624.77,-330.6"/>
</g>
<!-- HITs/int -->
<g id="node23" class="node"><title>HITs/int</title>
<ellipse fill="none" stroke="black" cx="1097.21" cy="-378" rx="40.8928" ry="18"/>
<text text-anchor="middle" x="1097.21" y="-374.3" font-family="Times New Roman,serif" font-size="14.00">HITs/int</text>
</g>
<!-- types/heq&#45;&gt;HITs/int -->
<g id="edge20" class="edge"><title>types/heq&#45;&gt;HITs/int</title>
<path fill="none" stroke="black" d="M727.024,-437.681C733.978,-435.598 741.289,-433.585 748.206,-432 853.749,-407.817 979.844,-391.769 1047.85,-384.146"/>
<polygon fill="black" stroke="black" points="1048.3,-387.618 1057.85,-383.039 1047.53,-380.661 1048.3,-387.618"/>
</g>
<!-- HITs/graph -->
<g id="node24" class="node"><title>HITs/graph</title>
<ellipse fill="none" stroke="black" cx="777.206" cy="-378" rx="52.7911" ry="18"/>
<text text-anchor="middle" x="777.206" y="-374.3" font-family="Times New Roman,serif" font-size="14.00">HITs/graph</text>
</g>
<!-- types/heq&#45;&gt;HITs/graph -->
<g id="edge21" class="edge"><title>types/heq&#45;&gt;HITs/graph</title>
<path fill="none" stroke="black" d="M711.848,-433.465C723.109,-424.081 737.653,-411.96 750.162,-401.536"/>
<polygon fill="black" stroke="black" points="752.592,-404.068 758.033,-394.977 748.11,-398.69 752.592,-404.068"/>
</g>
<!-- types/integer&#45;&gt;algebra/core -->
<g id="edge22" class="edge"><title>types/integer&#45;&gt;algebra/core</title>
<path fill="none" stroke="black" d="M201.536,-361.116C214.276,-351.629 230.645,-339.439 244.621,-329.031"/>
<polygon fill="black" stroke="black" points="247.03,-331.601 252.96,-322.821 242.849,-325.987 247.03,-331.601"/>
</g>
<!-- types/integer&#45;&gt;HITs/circle -->
<g id="edge23" class="edge"><title>types/integer&#45;&gt;HITs/circle</title>
<path fill="none" stroke="black" d="M144.753,-363.908C83.4437,-339.166 -32.0501,-282.056 9.20586,-216 52.8247,-146.161 147.978,-114.293 209.19,-100.545"/>
<polygon fill="black" stroke="black" points="210.044,-103.942 219.083,-98.4142 208.57,-97.0985 210.044,-103.942"/>
</g>
<!-- HITs/reals -->
<g id="node25" class="node"><title>HITs/reals</title>
<ellipse fill="none" stroke="black" cx="67.2059" cy="-234" rx="48.9926" ry="18"/>
<text text-anchor="middle" x="67.2059" y="-230.3" font-family="Times New Roman,serif" font-size="14.00">HITs/reals</text>
</g>
<!-- types/integer&#45;&gt;HITs/reals -->
<g id="edge24" class="edge"><title>types/integer&#45;&gt;HITs/reals</title>
<path fill="none" stroke="black" d="M142.449,-364.392C122.812,-355.948 100.076,-342.869 86.2059,-324 73.0817,-306.145 68.6351,-281.14 67.2971,-262.179"/>
<polygon fill="black" stroke="black" points="70.7886,-261.911 66.8322,-252.083 63.796,-262.233 70.7886,-261.911"/>
</g>
<!-- types/unit&#45;&gt;structures -->
<g id="edge29" class="edge"><title>types/unit&#45;&gt;structures</title>
<path fill="none" stroke="black" d="M433.396,-432.411C438.515,-424.077 444.83,-413.797 450.549,-404.488"/>
<polygon fill="black" stroke="black" points="453.538,-406.309 455.79,-395.956 447.573,-402.645 453.538,-406.309"/>
</g>
<!-- HITs/suspension -->
<g id="node30" class="node"><title>HITs/suspension</title>
<ellipse fill="none" stroke="black" cx="345.206" cy="-234" rx="72.5877" ry="18"/>
<text text-anchor="middle" x="345.206" y="-230.3" font-family="Times New Roman,serif" font-size="14.00">HITs/suspension</text>
</g>
<!-- types/unit&#45;&gt;HITs/suspension -->
<g id="edge30" class="edge"><title>types/unit&#45;&gt;HITs/suspension</title>
<path fill="none" stroke="black" d="M416.955,-431.849C403.372,-394.583 371.085,-306.002 354.861,-261.49"/>
<polygon fill="black" stroke="black" points="358.092,-260.132 351.379,-251.935 351.515,-262.529 358.092,-260.132"/>
</g>
<!-- HITs/rat -->
<g id="node35" class="node"><title>HITs/rat</title>
<ellipse fill="none" stroke="black" cx="1351.21" cy="-306" rx="41.6928" ry="18"/>
<text text-anchor="middle" x="1351.21" y="-302.3" font-family="Times New Roman,serif" font-size="14.00">HITs/rat</text>
</g>
<!-- HITs/int&#45;&gt;HITs/rat -->
<g id="edge38" class="edge"><title>HITs/int&#45;&gt;HITs/rat</title>
<path fill="none" stroke="black" d="M1131.64,-368.153C1171.21,-357.899 1238.06,-340.317 1295.21,-324 1299.55,-322.758 1304.08,-321.434 1308.6,-320.094"/>
<polygon fill="black" stroke="black" points="1309.82,-323.384 1318.39,-317.161 1307.81,-316.678 1309.82,-323.384"/>
</g>
<!-- HITs/colimit -->
<g id="node31" class="node"><title>HITs/colimit</title>
<ellipse fill="none" stroke="black" cx="777.206" cy="-306" rx="56.59" ry="18"/>
<text text-anchor="middle" x="777.206" y="-302.3" font-family="Times New Roman,serif" font-size="14.00">HITs/colimit</text>
</g>
<!-- HITs/graph&#45;&gt;HITs/colimit -->
<g id="edge34" class="edge"><title>HITs/graph&#45;&gt;HITs/colimit</title>
<path fill="none" stroke="black" d="M777.206,-359.697C777.206,-351.983 777.206,-342.712 777.206,-334.112"/>
<polygon fill="black" stroke="black" points="780.706,-334.104 777.206,-324.104 773.706,-334.104 780.706,-334.104"/>
</g>
<!-- HITs/generalized -->
<g id="node32" class="node"><title>HITs/generalized</title>
<ellipse fill="none" stroke="black" cx="924.206" cy="-306" rx="72.2875" ry="18"/>
<text text-anchor="middle" x="924.206" y="-302.3" font-family="Times New Roman,serif" font-size="14.00">HITs/generalized</text>
</g>
<!-- HITs/graph&#45;&gt;HITs/generalized -->
<g id="edge35" class="edge"><title>HITs/graph&#45;&gt;HITs/generalized</title>
<path fill="none" stroke="black" d="M806.6,-363.003C828.494,-352.577 858.674,-338.205 882.979,-326.632"/>
<polygon fill="black" stroke="black" points="884.791,-329.646 892.315,-322.186 881.781,-323.326 884.791,-329.646"/>
</g>
<!-- HITs/pushout -->
<g id="node33" class="node"><title>HITs/pushout</title>
<ellipse fill="none" stroke="black" cx="463.206" cy="-306" rx="61.99" ry="18"/>
<text text-anchor="middle" x="463.206" y="-302.3" font-family="Times New Roman,serif" font-size="14.00">HITs/pushout</text>
</g>
<!-- HITs/graph&#45;&gt;HITs/pushout -->
<g id="edge36" class="edge"><title>HITs/graph&#45;&gt;HITs/pushout</title>
<path fill="none" stroke="black" d="M734.208,-367.438C686.54,-356.834 607.376,-339.215 539.206,-324 533.144,-322.647 526.811,-321.232 520.498,-319.821"/>
<polygon fill="black" stroke="black" points="521.16,-316.383 510.638,-317.617 519.633,-323.215 521.16,-316.383"/>
</g>
<!-- HITs/moebius -->
<g id="node34" class="node"><title>HITs/moebius</title>
<ellipse fill="none" stroke="black" cx="1133.21" cy="-18" rx="63.0888" ry="18"/>
<text text-anchor="middle" x="1133.21" y="-14.3" font-family="Times New Roman,serif" font-size="14.00">HITs/moebius</text>
</g>
<!-- HITs/graph&#45;&gt;HITs/moebius -->
<g id="edge37" class="edge"><title>HITs/graph&#45;&gt;HITs/moebius</title>
<path fill="none" stroke="black" d="M828.306,-373.507C956.437,-363.354 1281.21,-328.407 1281.21,-235 1281.21,-235 1281.21,-235 1281.21,-161 1281.21,-102.325 1219.89,-60.3523 1176.19,-37.8903"/>
<polygon fill="black" stroke="black" points="1177.67,-34.7187 1167.16,-33.3943 1174.55,-40.9849 1177.67,-34.7187"/>
</g>
<!-- types/product&#45;&gt;theorems/ua -->
<g id="edge25" class="edge"><title>types/product&#45;&gt;theorems/ua</title>
<path fill="none" stroke="black" d="M564.908,-220.485C525.381,-208.508 465.749,-190.437 423.92,-177.762"/>
<polygon fill="black" stroke="black" points="424.808,-174.374 414.222,-174.823 422.778,-181.073 424.808,-174.374"/>
</g>
<!-- cubical/cubes -->
<g id="node27" class="node"><title>cubical/cubes</title>
<ellipse fill="none" stroke="black" cx="508.206" cy="-162" rx="60.3893" ry="18"/>
<text text-anchor="middle" x="508.206" y="-158.3" font-family="Times New Roman,serif" font-size="14.00">cubical/cubes</text>
</g>
<!-- types/product&#45;&gt;cubical/cubes -->
<g id="edge26" class="edge"><title>types/product&#45;&gt;cubical/cubes</title>
<path fill="none" stroke="black" d="M583.968,-217.116C570.561,-207.539 553.298,-195.209 538.638,-184.737"/>
<polygon fill="black" stroke="black" points="540.527,-181.786 530.356,-178.821 536.459,-187.482 540.527,-181.786"/>
</g>
<!-- cubical/path -->
<g id="node42" class="node"><title>cubical/path</title>
<ellipse fill="none" stroke="black" cx="608.206" cy="-90" rx="54.6905" ry="18"/>
<text text-anchor="middle" x="608.206" y="-86.3" font-family="Times New Roman,serif" font-size="14.00">cubical/path</text>
</g>
<!-- cubical/cubes&#45;&gt;cubical/path -->
<g id="edge49" class="edge"><title>cubical/cubes&#45;&gt;cubical/path</title>
<path fill="none" stroke="black" d="M530.897,-145.116C544.674,-135.472 562.442,-123.035 577.468,-112.516"/>
<polygon fill="black" stroke="black" points="579.763,-115.182 585.949,-106.58 575.749,-109.447 579.763,-115.182"/>
</g>
<!-- types/sigma -->
<g id="node28" class="node"><title>types/sigma</title>
<ellipse fill="none" stroke="black" cx="633.206" cy="-738" rx="53.8905" ry="18"/>
<text text-anchor="middle" x="633.206" y="-734.3" font-family="Times New Roman,serif" font-size="14.00">types/sigma</text>
</g>
<!-- types/swale -->
<g id="node29" class="node"><title>types/swale</title>
<ellipse fill="none" stroke="black" cx="148.206" cy="-306" rx="52.7911" ry="18"/>
<text text-anchor="middle" x="148.206" y="-302.3" font-family="Times New Roman,serif" font-size="14.00">types/swale</text>
</g>
<!-- types/swale&#45;&gt;algebra/group -->
<g id="edge27" class="edge"><title>types/swale&#45;&gt;algebra/group</title>
<path fill="none" stroke="black" d="M159.341,-288.055C164.822,-279.715 171.54,-269.491 177.612,-260.252"/>
<polygon fill="black" stroke="black" points="180.606,-262.068 183.173,-251.789 174.756,-258.224 180.606,-262.068"/>
</g>
<!-- types/swale&#45;&gt;HITs/reals -->
<g id="edge28" class="edge"><title>types/swale&#45;&gt;HITs/reals</title>
<path fill="none" stroke="black" d="M129.826,-289.116C119.055,-279.808 105.274,-267.898 93.383,-257.622"/>
<polygon fill="black" stroke="black" points="95.368,-254.712 85.5133,-250.821 90.7909,-260.008 95.368,-254.712"/>
</g>
<!-- HITs/suspension&#45;&gt;HITs/circle -->
<g id="edge44" class="edge"><title>HITs/suspension&#45;&gt;HITs/circle</title>
<path fill="none" stroke="black" d="M333.769,-216.065C326.97,-205.782 318.313,-192.307 311.206,-180 299.243,-159.285 286.857,-135.141 277.956,-117.23"/>
<polygon fill="black" stroke="black" points="280.957,-115.402 273.394,-107.983 274.679,-118.499 280.957,-115.402"/>
</g>
<!-- HITs/colimit&#45;&gt;HITs/truncation -->
<g id="edge32" class="edge"><title>HITs/colimit&#45;&gt;HITs/truncation</title>
<path fill="none" stroke="black" d="M791.662,-288.411C799.149,-279.82 808.438,-269.159 816.745,-259.627"/>
<polygon fill="black" stroke="black" points="819.499,-261.795 823.43,-251.956 814.221,-257.196 819.499,-261.795"/>
</g>
<!-- HITs/generalized&#45;&gt;HITs/truncation -->
<g id="edge33" class="edge"><title>HITs/generalized&#45;&gt;HITs/truncation</title>
<path fill="none" stroke="black" d="M903.825,-288.411C892.498,-279.191 878.243,-267.588 865.916,-257.555"/>
<polygon fill="black" stroke="black" points="868.109,-254.827 858.144,-251.228 863.69,-260.256 868.109,-254.827"/>
</g>
<!-- HITs/pushout&#45;&gt;HITs/reals -->
<g id="edge41" class="edge"><title>HITs/pushout&#45;&gt;HITs/reals</title>
<path fill="none" stroke="black" d="M408.698,-297.331C327.352,-285.737 178.096,-263.845 125.206,-252 121.286,-251.122 117.242,-250.127 113.198,-249.068"/>
<polygon fill="black" stroke="black" points="113.786,-245.601 103.217,-246.34 111.94,-252.353 113.786,-245.601"/>
</g>
<!-- HITs/pushout&#45;&gt;HITs/suspension -->
<g id="edge42" class="edge"><title>HITs/pushout&#45;&gt;HITs/suspension</title>
<path fill="none" stroke="black" d="M437.31,-289.638C420.636,-279.747 398.746,-266.761 380.49,-255.931"/>
<polygon fill="black" stroke="black" points="382.245,-252.903 371.859,-250.811 378.673,-258.923 382.245,-252.903"/>
</g>
<!-- HITs/join -->
<g id="node37" class="node"><title>HITs/join</title>
<ellipse fill="none" stroke="black" cx="481.206" cy="-234" rx="45.4919" ry="18"/>
<text text-anchor="middle" x="481.206" y="-230.3" font-family="Times New Roman,serif" font-size="14.00">HITs/join</text>
</g>
<!-- HITs/pushout&#45;&gt;HITs/join -->
<g id="edge43" class="edge"><title>HITs/pushout&#45;&gt;HITs/join</title>
<path fill="none" stroke="black" d="M467.655,-287.697C469.661,-279.898 472.075,-270.509 474.307,-261.829"/>
<polygon fill="black" stroke="black" points="477.707,-262.661 476.808,-252.104 470.927,-260.918 477.707,-262.661"/>
</g>
<!-- cubical/connection -->
<g id="node41" class="node"><title>cubical/connection</title>
<ellipse fill="none" stroke="black" cx="525.206" cy="-18" rx="79.0865" ry="18"/>
<text text-anchor="middle" x="525.206" y="-14.3" font-family="Times New Roman,serif" font-size="14.00">cubical/connection</text>
</g>
<!-- cubical/path&#45;&gt;cubical/V -->
<g id="edge50" class="edge"><title>cubical/path&#45;&gt;cubical/V</title>
<path fill="none" stroke="black" d="M569.868,-77.1255C530.228,-64.8476 468.401,-45.6975 426.648,-32.7653"/>
<polygon fill="black" stroke="black" points="427.603,-29.3971 417.015,-29.7817 425.532,-36.0837 427.603,-29.3971"/>
</g>
<!-- cubical/path&#45;&gt;HITs/moebius -->
<g id="edge51" class="edge"><title>cubical/path&#45;&gt;HITs/moebius</title>
<path fill="none" stroke="black" d="M658.07,-82.3515C753.285,-69.6561 960.962,-41.9659 1067.42,-27.772"/>
<polygon fill="black" stroke="black" points="1067.94,-31.2325 1077.39,-26.4415 1067.02,-24.2939 1067.94,-31.2325"/>
</g>
<!-- cubical/path&#45;&gt;cubical/connection -->
<g id="edge52" class="edge"><title>cubical/path&#45;&gt;cubical/connection</title>
<path fill="none" stroke="black" d="M588.955,-72.7646C578.216,-63.7076 564.655,-52.2705 552.804,-42.2756"/>
<polygon fill="black" stroke="black" points="554.829,-39.4049 544.928,-35.6334 550.316,-44.756 554.829,-39.4049"/>
</g>
<!-- cubical/example -->
<g id="node43" class="node"><title>cubical/example</title>
<ellipse fill="none" stroke="black" cx="691.206" cy="-18" rx="68.7879" ry="18"/>
<text text-anchor="middle" x="691.206" y="-14.3" font-family="Times New Roman,serif" font-size="14.00">cubical/example</text>
</g>
<!-- cubical/path&#45;&gt;cubical/example -->
<g id="edge53" class="edge"><title>cubical/path&#45;&gt;cubical/example</title>
<path fill="none" stroke="black" d="M627.456,-72.7646C638.273,-63.642 651.953,-52.1046 663.865,-42.0585"/>
<polygon fill="black" stroke="black" points="666.384,-44.5124 671.772,-35.3898 661.871,-39.1613 666.384,-44.5124"/>
</g>
<!-- cubical/square -->
<g id="node44" class="node"><title>cubical/square</title>
<ellipse fill="none" stroke="black" cx="841.206" cy="-18" rx="63.0888" ry="18"/>
<text text-anchor="middle" x="841.206" y="-14.3" font-family="Times New Roman,serif" font-size="14.00">cubical/square</text>
</g>
<!-- cubical/path&#45;&gt;cubical/square -->
<g id="edge54" class="edge"><title>cubical/path&#45;&gt;cubical/square</title>
<path fill="none" stroke="black" d="M647.205,-77.2836C686.266,-65.5485 746.6,-47.4224 789.606,-34.5021"/>
<polygon fill="black" stroke="black" points="790.752,-37.8124 799.322,-31.5831 788.738,-31.1084 790.752,-37.8124"/>
</g>
<!-- theorems/functions -->
<g id="node45" class="node"><title>theorems/functions</title>
<ellipse fill="none" stroke="black" cx="627.206" cy="-594" rx="79.8859" ry="18"/>
<text text-anchor="middle" x="627.206" y="-590.3" font-family="Times New Roman,serif" font-size="14.00">theorems/functions</text>
</g>
<!-- theorems/functions&#45;&gt;types/equiv -->
<g id="edge55" class="edge"><title>theorems/functions&#45;&gt;types/equiv</title>
<path fill="none" stroke="black" d="M596.46,-577.291C575.89,-566.78 548.713,-552.894 526.994,-541.797"/>
<polygon fill="black" stroke="black" points="528.552,-538.663 518.055,-537.229 525.367,-544.896 528.552,-538.663"/>
</g>
<!-- theorems/topology -->
<g id="node46" class="node"><title>theorems/topology</title>
<ellipse fill="none" stroke="black" cx="784.206" cy="-738" rx="79.0865" ry="18"/>
<text text-anchor="middle" x="784.206" y="-734.3" font-family="Times New Roman,serif" font-size="14.00">theorems/topology</text>
</g>
</g>
</svg>
