<?xml version="1.0" encoding="UTF-8" standalone="no"?>
<!DOCTYPE svg PUBLIC "-//W3C//DTD SVG 1.1//EN"
 "http://www.w3.org/Graphics/SVG/1.1/DTD/svg11.dtd">
<!-- Generated by graphviz version 2.38.0 (20140413.2041)
 -->
<!-- Title: dependency_map Pages: 1 -->
<svg width="1247pt" height="836pt"
 viewBox="0.00 0.00 1247.49 836.00" xmlns="http://www.w3.org/2000/svg" xmlns:xlink="http://www.w3.org/1999/xlink">
<g id="graph0" class="graph" transform="scale(1 1) rotate(0) translate(4 832)">
<title>dependency_map</title>
<polygon fill="white" stroke="none" points="-4,4 -4,-832 1243.49,-832 1243.49,4 -4,4"/>
<!-- proto -->
<g id="node1" class="node"><title>proto</title>
<ellipse fill="none" stroke="black" cx="537.745" cy="-810" rx="30.5947" ry="18"/>
<text text-anchor="middle" x="537.745" y="-806.3" font-family="Times New Roman,serif" font-size="14.00">proto</text>
</g>
<!-- types/eq -->
<g id="node2" class="node"><title>types/eq</title>
<ellipse fill="none" stroke="black" cx="597.745" cy="-738" rx="41.6928" ry="18"/>
<text text-anchor="middle" x="597.745" y="-734.3" font-family="Times New Roman,serif" font-size="14.00">types/eq</text>
</g>
<!-- proto&#45;&gt;types/eq -->
<g id="edge1" class="edge"><title>proto&#45;&gt;types/eq</title>
<path fill="none" stroke="black" d="M551.06,-793.465C558.688,-784.566 568.426,-773.205 577.032,-763.164"/>
<polygon fill="black" stroke="black" points="579.779,-765.338 583.63,-755.467 574.464,-760.782 579.779,-765.338"/>
</g>
<!-- support -->
<g id="node4" class="node"><title>support</title>
<ellipse fill="none" stroke="black" cx="597.745" cy="-666" rx="38.9931" ry="18"/>
<text text-anchor="middle" x="597.745" y="-662.3" font-family="Times New Roman,serif" font-size="14.00">support</text>
</g>
<!-- types/eq&#45;&gt;support -->
<g id="edge11" class="edge"><title>types/eq&#45;&gt;support</title>
<path fill="none" stroke="black" d="M597.745,-719.697C597.745,-711.983 597.745,-702.712 597.745,-694.112"/>
<polygon fill="black" stroke="black" points="601.245,-694.104 597.745,-684.104 594.245,-694.104 601.245,-694.104"/>
</g>
<!-- meta/hott_theory -->
<g id="node3" class="node"><title>meta/hott_theory</title>
<ellipse fill="none" stroke="black" cx="658.745" cy="-810" rx="72.2875" ry="18"/>
<text text-anchor="middle" x="658.745" y="-806.3" font-family="Times New Roman,serif" font-size="14.00">meta/hott_theory</text>
</g>
<!-- meta/hott_theory&#45;&gt;types/eq -->
<g id="edge2" class="edge"><title>meta/hott_theory&#45;&gt;types/eq</title>
<path fill="none" stroke="black" d="M643.978,-792.055C636.375,-783.33 626.976,-772.544 618.642,-762.981"/>
<polygon fill="black" stroke="black" points="621.163,-760.547 611.955,-755.307 615.886,-765.146 621.163,-760.547"/>
</g>
<!-- types/equiv -->
<g id="node5" class="node"><title>types/equiv</title>
<ellipse fill="none" stroke="black" cx="597.745" cy="-594" rx="51.9908" ry="18"/>
<text text-anchor="middle" x="597.745" y="-590.3" font-family="Times New Roman,serif" font-size="14.00">types/equiv</text>
</g>
<!-- support&#45;&gt;types/equiv -->
<g id="edge3" class="edge"><title>support&#45;&gt;types/equiv</title>
<path fill="none" stroke="black" d="M597.745,-647.697C597.745,-639.983 597.745,-630.712 597.745,-622.112"/>
<polygon fill="black" stroke="black" points="601.245,-622.104 597.745,-612.104 594.245,-622.104 601.245,-622.104"/>
</g>
<!-- types/coproduct -->
<g id="node15" class="node"><title>types/coproduct</title>
<ellipse fill="none" stroke="black" cx="299.745" cy="-450" rx="70.6878" ry="18"/>
<text text-anchor="middle" x="299.745" y="-446.3" font-family="Times New Roman,serif" font-size="14.00">types/coproduct</text>
</g>
<!-- types/equiv&#45;&gt;types/coproduct -->
<g id="edge12" class="edge"><title>types/equiv&#45;&gt;types/coproduct</title>
<path fill="none" stroke="black" d="M546.965,-589.962C475.517,-584.621 350.474,-571.02 318.745,-540 302.54,-524.157 298.529,-498.127 298.135,-478.3"/>
<polygon fill="black" stroke="black" points="301.638,-478.06 298.234,-468.027 294.638,-477.993 301.638,-478.06"/>
</g>
<!-- types/heq -->
<g id="node17" class="node"><title>types/heq</title>
<ellipse fill="none" stroke="black" cx="777.745" cy="-522" rx="46.2923" ry="18"/>
<text text-anchor="middle" x="777.745" y="-518.3" font-family="Times New Roman,serif" font-size="14.00">types/heq</text>
</g>
<!-- types/equiv&#45;&gt;types/heq -->
<g id="edge13" class="edge"><title>types/equiv&#45;&gt;types/heq</title>
<path fill="none" stroke="black" d="M631.179,-579.998C661.032,-568.388 704.848,-551.349 736.793,-538.926"/>
<polygon fill="black" stroke="black" points="738.246,-542.116 746.298,-535.229 735.709,-535.592 738.246,-542.116"/>
</g>
<!-- HITs/infinitesimal -->
<g id="node18" class="node"><title>HITs/infinitesimal</title>
<ellipse fill="none" stroke="black" cx="528.745" cy="-522" rx="74.9875" ry="18"/>
<text text-anchor="middle" x="528.745" y="-518.3" font-family="Times New Roman,serif" font-size="14.00">HITs/infinitesimal</text>
</g>
<!-- types/equiv&#45;&gt;HITs/infinitesimal -->
<g id="edge14" class="edge"><title>types/equiv&#45;&gt;HITs/infinitesimal</title>
<path fill="none" stroke="black" d="M581.741,-576.765C572.985,-567.882 561.972,-556.709 552.258,-546.854"/>
<polygon fill="black" stroke="black" points="554.653,-544.298 545.14,-539.633 549.668,-549.212 554.653,-544.298"/>
</g>
<!-- types/lost -->
<g id="node19" class="node"><title>types/lost</title>
<ellipse fill="none" stroke="black" cx="667.745" cy="-522" rx="46.2923" ry="18"/>
<text text-anchor="middle" x="667.745" y="-518.3" font-family="Times New Roman,serif" font-size="14.00">types/lost</text>
</g>
<!-- types/equiv&#45;&gt;types/lost -->
<g id="edge15" class="edge"><title>types/equiv&#45;&gt;types/lost</title>
<path fill="none" stroke="black" d="M613.98,-576.765C622.991,-567.753 634.359,-556.385 644.318,-546.426"/>
<polygon fill="black" stroke="black" points="647.001,-548.693 651.597,-539.147 642.051,-543.744 647.001,-548.693"/>
</g>
<!-- types/unit -->
<g id="node20" class="node"><title>types/unit</title>
<ellipse fill="none" stroke="black" cx="873.745" cy="-450" rx="46.2923" ry="18"/>
<text text-anchor="middle" x="873.745" y="-446.3" font-family="Times New Roman,serif" font-size="14.00">types/unit</text>
</g>
<!-- types/equiv&#45;&gt;types/unit -->
<g id="edge16" class="edge"><title>types/equiv&#45;&gt;types/unit</title>
<path fill="none" stroke="black" d="M645.926,-587.216C706.062,-579.15 804.462,-562.892 832.745,-540 851.887,-524.505 862.491,-498.075 868.091,-478.031"/>
<polygon fill="black" stroke="black" points="871.513,-478.777 870.583,-468.223 864.728,-477.054 871.513,-478.777"/>
</g>
<!-- types/sigma -->
<g id="node21" class="node"><title>types/sigma</title>
<ellipse fill="none" stroke="black" cx="381.745" cy="-522" rx="53.8905" ry="18"/>
<text text-anchor="middle" x="381.745" y="-518.3" font-family="Times New Roman,serif" font-size="14.00">types/sigma</text>
</g>
<!-- types/equiv&#45;&gt;types/sigma -->
<g id="edge17" class="edge"><title>types/equiv&#45;&gt;types/sigma</title>
<path fill="none" stroke="black" d="M561.103,-581.125C524.597,-569.295 468.403,-551.084 428.657,-538.203"/>
<polygon fill="black" stroke="black" points="429.52,-534.804 418.928,-535.05 427.362,-541.463 429.52,-534.804"/>
</g>
<!-- structures -->
<g id="node6" class="node"><title>structures</title>
<ellipse fill="none" stroke="black" cx="398.745" cy="-378" rx="46.2923" ry="18"/>
<text text-anchor="middle" x="398.745" y="-374.3" font-family="Times New Roman,serif" font-size="14.00">structures</text>
</g>
<!-- HITs/interval -->
<g id="node7" class="node"><title>HITs/interval</title>
<ellipse fill="none" stroke="black" cx="675.745" cy="-306" rx="57.6901" ry="18"/>
<text text-anchor="middle" x="675.745" y="-302.3" font-family="Times New Roman,serif" font-size="14.00">HITs/interval</text>
</g>
<!-- structures&#45;&gt;HITs/interval -->
<g id="edge4" class="edge"><title>structures&#45;&gt;HITs/interval</title>
<path fill="none" stroke="black" d="M433.264,-365.952C440.031,-363.894 447.093,-361.82 453.745,-360 509.886,-344.64 574.691,-329.457 619.734,-319.305"/>
<polygon fill="black" stroke="black" points="620.611,-322.696 629.602,-317.09 619.078,-315.865 620.611,-322.696"/>
</g>
<!-- HITs/merely -->
<g id="node8" class="node"><title>HITs/merely</title>
<ellipse fill="none" stroke="black" cx="807.745" cy="-306" rx="55.7903" ry="18"/>
<text text-anchor="middle" x="807.745" y="-302.3" font-family="Times New Roman,serif" font-size="14.00">HITs/merely</text>
</g>
<!-- structures&#45;&gt;HITs/merely -->
<g id="edge5" class="edge"><title>structures&#45;&gt;HITs/merely</title>
<path fill="none" stroke="black" d="M432.531,-365.535C439.487,-363.464 446.807,-361.492 453.745,-360 580.288,-332.783 615.633,-348.429 742.745,-324 747.437,-323.098 752.293,-322.05 757.139,-320.924"/>
<polygon fill="black" stroke="black" points="758.123,-324.287 767.017,-318.529 756.474,-317.484 758.123,-324.287"/>
</g>
<!-- HITs/trunc -->
<g id="node9" class="node"><title>HITs/trunc</title>
<ellipse fill="none" stroke="black" cx="193.745" cy="-306" rx="50.8918" ry="18"/>
<text text-anchor="middle" x="193.745" y="-302.3" font-family="Times New Roman,serif" font-size="14.00">HITs/trunc</text>
</g>
<!-- structures&#45;&gt;HITs/trunc -->
<g id="edge6" class="edge"><title>structures&#45;&gt;HITs/trunc</title>
<path fill="none" stroke="black" d="M364.893,-365.441C330.443,-353.678 276.846,-335.376 238.819,-322.391"/>
<polygon fill="black" stroke="black" points="239.616,-318.965 229.022,-319.046 237.354,-325.59 239.616,-318.965"/>
</g>
<!-- types/nat -->
<g id="node10" class="node"><title>types/nat</title>
<ellipse fill="none" stroke="black" cx="499.745" cy="-306" rx="43.5923" ry="18"/>
<text text-anchor="middle" x="499.745" y="-302.3" font-family="Times New Roman,serif" font-size="14.00">types/nat</text>
</g>
<!-- structures&#45;&gt;types/nat -->
<g id="edge7" class="edge"><title>structures&#45;&gt;types/nat</title>
<path fill="none" stroke="black" d="M420.66,-361.811C435.052,-351.836 454.062,-338.661 469.837,-327.728"/>
<polygon fill="black" stroke="black" points="471.993,-330.492 478.219,-321.919 468.006,-324.739 471.993,-330.492"/>
</g>
<!-- theorems/ua -->
<g id="node11" class="node"><title>theorems/ua</title>
<ellipse fill="none" stroke="black" cx="383.745" cy="-306" rx="54.6905" ry="18"/>
<text text-anchor="middle" x="383.745" y="-302.3" font-family="Times New Roman,serif" font-size="14.00">theorems/ua</text>
</g>
<!-- structures&#45;&gt;theorems/ua -->
<g id="edge8" class="edge"><title>structures&#45;&gt;theorems/ua</title>
<path fill="none" stroke="black" d="M395.113,-360.055C393.443,-352.261 391.421,-342.822 389.547,-334.079"/>
<polygon fill="black" stroke="black" points="392.964,-333.32 387.446,-324.275 386.119,-334.787 392.964,-333.32"/>
</g>
<!-- HITs/circle -->
<g id="node25" class="node"><title>HITs/circle</title>
<ellipse fill="none" stroke="black" cx="995.745" cy="-90" rx="51.9908" ry="18"/>
<text text-anchor="middle" x="995.745" y="-86.3" font-family="Times New Roman,serif" font-size="14.00">HITs/circle</text>
</g>
<!-- HITs/interval&#45;&gt;HITs/circle -->
<g id="edge40" class="edge"><title>HITs/interval&#45;&gt;HITs/circle</title>
<path fill="none" stroke="black" d="M684.616,-288.195C697.158,-265.068 720.063,-225.235 733.745,-216 802.45,-169.625 844.79,-221.155 916.745,-180 943.615,-164.631 966.093,-136.766 980.116,-116.297"/>
<polygon fill="black" stroke="black" points="983.167,-118.029 985.773,-107.76 977.332,-114.163 983.167,-118.029"/>
</g>
<!-- theorems/prop -->
<g id="node30" class="node"><title>theorems/prop</title>
<ellipse fill="none" stroke="black" cx="955.745" cy="-234" rx="63.8893" ry="18"/>
<text text-anchor="middle" x="955.745" y="-230.3" font-family="Times New Roman,serif" font-size="14.00">theorems/prop</text>
</g>
<!-- HITs/interval&#45;&gt;theorems/prop -->
<g id="edge41" class="edge"><title>HITs/interval&#45;&gt;theorems/prop</title>
<path fill="none" stroke="black" d="M718.987,-293.997C726.889,-291.995 735.063,-289.93 742.745,-288 795.949,-274.631 856.671,-259.538 899.632,-248.887"/>
<polygon fill="black" stroke="black" points="900.745,-252.218 909.609,-246.415 899.061,-245.423 900.745,-252.218"/>
</g>
<!-- cubical/cubes -->
<g id="node39" class="node"><title>cubical/cubes</title>
<ellipse fill="none" stroke="black" cx="588.745" cy="-234" rx="60.3893" ry="18"/>
<text text-anchor="middle" x="588.745" y="-230.3" font-family="Times New Roman,serif" font-size="14.00">cubical/cubes</text>
</g>
<!-- HITs/interval&#45;&gt;cubical/cubes -->
<g id="edge42" class="edge"><title>HITs/interval&#45;&gt;cubical/cubes</title>
<path fill="none" stroke="black" d="M655.566,-288.765C644.037,-279.488 629.404,-267.714 616.772,-257.551"/>
<polygon fill="black" stroke="black" points="618.799,-254.689 608.813,-251.147 614.41,-260.143 618.799,-254.689"/>
</g>
<!-- theorems/fibration -->
<g id="node40" class="node"><title>theorems/fibration</title>
<ellipse fill="none" stroke="black" cx="830.745" cy="-162" rx="76.8869" ry="18"/>
<text text-anchor="middle" x="830.745" y="-158.3" font-family="Times New Roman,serif" font-size="14.00">theorems/fibration</text>
</g>
<!-- HITs/interval&#45;&gt;theorems/fibration -->
<g id="edge43" class="edge"><title>HITs/interval&#45;&gt;theorems/fibration</title>
<path fill="none" stroke="black" d="M676.211,-287.811C677.633,-268.158 682.789,-236.114 700.745,-216 717.29,-197.465 741.272,-185.288 764.144,-177.344"/>
<polygon fill="black" stroke="black" points="765.422,-180.608 773.853,-174.192 763.261,-173.95 765.422,-180.608"/>
</g>
<!-- HITs/merely&#45;&gt;theorems/prop -->
<g id="edge44" class="edge"><title>HITs/merely&#45;&gt;theorems/prop</title>
<path fill="none" stroke="black" d="M838.052,-290.666C860.3,-280.143 890.758,-265.737 915.114,-254.217"/>
<polygon fill="black" stroke="black" points="916.914,-257.237 924.458,-249.798 913.922,-250.909 916.914,-257.237"/>
</g>
<!-- HITs/simplicial -->
<g id="node42" class="node"><title>HITs/simplicial</title>
<ellipse fill="none" stroke="black" cx="808.745" cy="-234" rx="65.7887" ry="18"/>
<text text-anchor="middle" x="808.745" y="-230.3" font-family="Times New Roman,serif" font-size="14.00">HITs/simplicial</text>
</g>
<!-- HITs/merely&#45;&gt;HITs/simplicial -->
<g id="edge45" class="edge"><title>HITs/merely&#45;&gt;HITs/simplicial</title>
<path fill="none" stroke="black" d="M807.992,-287.697C808.102,-279.983 808.234,-270.712 808.357,-262.112"/>
<polygon fill="black" stroke="black" points="811.857,-262.153 808.5,-252.104 804.858,-262.053 811.857,-262.153"/>
</g>
<!-- theorems/functions -->
<g id="node43" class="node"><title>theorems/functions</title>
<ellipse fill="none" stroke="black" cx="259.745" cy="-234" rx="79.8859" ry="18"/>
<text text-anchor="middle" x="259.745" y="-230.3" font-family="Times New Roman,serif" font-size="14.00">theorems/functions</text>
</g>
<!-- HITs/merely&#45;&gt;theorems/functions -->
<g id="edge46" class="edge"><title>HITs/merely&#45;&gt;theorems/functions</title>
<path fill="none" stroke="black" d="M767.392,-293.411C759.281,-291.375 750.78,-289.448 742.745,-288 586.236,-259.796 544.688,-270.552 386.745,-252 370.278,-250.066 352.635,-247.817 335.896,-245.601"/>
<polygon fill="black" stroke="black" points="335.984,-242.081 325.609,-244.228 335.058,-249.02 335.984,-242.081"/>
</g>
<!-- HITs/quotient -->
<g id="node38" class="node"><title>HITs/quotient</title>
<ellipse fill="none" stroke="black" cx="61.7445" cy="-234" rx="61.99" ry="18"/>
<text text-anchor="middle" x="61.7445" y="-230.3" font-family="Times New Roman,serif" font-size="14.00">HITs/quotient</text>
</g>
<!-- HITs/trunc&#45;&gt;HITs/quotient -->
<g id="edge51" class="edge"><title>HITs/trunc&#45;&gt;HITs/quotient</title>
<path fill="none" stroke="black" d="M166.714,-290.666C147.178,-280.306 120.546,-266.183 98.9964,-254.755"/>
<polygon fill="black" stroke="black" points="100.582,-251.634 90.1074,-250.041 97.3023,-257.818 100.582,-251.634"/>
</g>
<!-- theorems/nat -->
<g id="node27" class="node"><title>theorems/nat</title>
<ellipse fill="none" stroke="black" cx="452.745" cy="-234" rx="57.3905" ry="18"/>
<text text-anchor="middle" x="452.745" y="-230.3" font-family="Times New Roman,serif" font-size="14.00">theorems/nat</text>
</g>
<!-- types/nat&#45;&gt;theorems/nat -->
<g id="edge22" class="edge"><title>types/nat&#45;&gt;theorems/nat</title>
<path fill="none" stroke="black" d="M488.606,-288.411C483.011,-280.077 476.108,-269.797 469.858,-260.488"/>
<polygon fill="black" stroke="black" points="472.61,-258.307 464.129,-251.956 466.798,-262.209 472.61,-258.307"/>
</g>
<!-- algebra/group -->
<g id="node12" class="node"><title>algebra/group</title>
<ellipse fill="none" stroke="black" cx="132.745" cy="-162" rx="60.3893" ry="18"/>
<text text-anchor="middle" x="132.745" y="-158.3" font-family="Times New Roman,serif" font-size="14.00">algebra/group</text>
</g>
<!-- theorems/ua&#45;&gt;algebra/group -->
<g id="edge65" class="edge"><title>theorems/ua&#45;&gt;algebra/group</title>
<path fill="none" stroke="black" d="M334.669,-297.954C279.73,-289.193 195.184,-272.819 170.745,-252 152.23,-236.228 142.503,-209.834 137.546,-189.874"/>
<polygon fill="black" stroke="black" points="140.962,-189.11 135.367,-180.113 134.13,-190.635 140.962,-189.11"/>
</g>
<!-- theorems/ua&#45;&gt;theorems/nat -->
<g id="edge66" class="edge"><title>theorems/ua&#45;&gt;theorems/nat</title>
<path fill="none" stroke="black" d="M399.748,-288.765C408.504,-279.882 419.517,-268.709 429.232,-258.854"/>
<polygon fill="black" stroke="black" points="431.821,-261.212 436.349,-251.633 426.836,-256.298 431.821,-261.212"/>
</g>
<!-- cubical/V -->
<g id="node48" class="node"><title>cubical/V</title>
<ellipse fill="none" stroke="black" cx="230.745" cy="-90" rx="45.4919" ry="18"/>
<text text-anchor="middle" x="230.745" y="-86.3" font-family="Times New Roman,serif" font-size="14.00">cubical/V</text>
</g>
<!-- theorems/ua&#45;&gt;cubical/V -->
<g id="edge67" class="edge"><title>theorems/ua&#45;&gt;cubical/V</title>
<path fill="none" stroke="black" d="M379.187,-288.025C373.723,-269.415 363.427,-239.128 348.745,-216 323.088,-175.585 283.255,-136.741 257.085,-113.366"/>
<polygon fill="black" stroke="black" points="259.249,-110.609 249.432,-106.624 254.622,-115.861 259.249,-110.609"/>
</g>
<!-- algebra/homology -->
<g id="node13" class="node"><title>algebra/homology</title>
<ellipse fill="none" stroke="black" cx="91.7445" cy="-90" rx="75.2868" ry="18"/>
<text text-anchor="middle" x="91.7445" y="-86.3" font-family="Times New Roman,serif" font-size="14.00">algebra/homology</text>
</g>
<!-- algebra/group&#45;&gt;algebra/homology -->
<g id="edge9" class="edge"><title>algebra/group&#45;&gt;algebra/homology</title>
<path fill="none" stroke="black" d="M122.82,-144.055C118.056,-135.922 112.243,-125.998 106.939,-116.943"/>
<polygon fill="black" stroke="black" points="109.937,-115.135 101.863,-108.275 103.897,-118.673 109.937,-115.135"/>
</g>
<!-- types/category -->
<g id="node14" class="node"><title>types/category</title>
<ellipse fill="none" stroke="black" cx="1150.74" cy="-90" rx="63.8893" ry="18"/>
<text text-anchor="middle" x="1150.74" y="-86.3" font-family="Times New Roman,serif" font-size="14.00">types/category</text>
</g>
<!-- types/coproduct&#45;&gt;structures -->
<g id="edge10" class="edge"><title>types/coproduct&#45;&gt;structures</title>
<path fill="none" stroke="black" d="M322.706,-432.765C336.458,-423.041 354.089,-410.575 368.911,-400.094"/>
<polygon fill="black" stroke="black" points="371.119,-402.82 377.263,-394.189 367.077,-397.105 371.119,-402.82"/>
</g>
<!-- types/dedekind -->
<g id="node16" class="node"><title>types/dedekind</title>
<ellipse fill="none" stroke="black" cx="768.745" cy="-18" rx="65.7887" ry="18"/>
<text text-anchor="middle" x="768.745" y="-14.3" font-family="Times New Roman,serif" font-size="14.00">types/dedekind</text>
</g>
<!-- HITs/graph -->
<g id="node22" class="node"><title>HITs/graph</title>
<ellipse fill="none" stroke="black" cx="756.745" cy="-450" rx="52.7911" ry="18"/>
<text text-anchor="middle" x="756.745" y="-446.3" font-family="Times New Roman,serif" font-size="14.00">HITs/graph</text>
</g>
<!-- types/heq&#45;&gt;HITs/graph -->
<g id="edge18" class="edge"><title>types/heq&#45;&gt;HITs/graph</title>
<path fill="none" stroke="black" d="M772.661,-504.055C770.323,-496.261 767.491,-486.822 764.868,-478.079"/>
<polygon fill="black" stroke="black" points="768.153,-476.848 761.927,-468.275 761.448,-478.859 768.153,-476.848"/>
</g>
<!-- theorems/funext -->
<g id="node23" class="node"><title>theorems/funext</title>
<ellipse fill="none" stroke="black" cx="524.745" cy="-450" rx="68.7879" ry="18"/>
<text text-anchor="middle" x="524.745" y="-446.3" font-family="Times New Roman,serif" font-size="14.00">theorems/funext</text>
</g>
<!-- types/heq&#45;&gt;theorems/funext -->
<g id="edge19" class="edge"><title>types/heq&#45;&gt;theorems/funext</title>
<path fill="none" stroke="black" d="M742.89,-510.007C736.216,-507.964 729.275,-505.882 722.745,-504 675.462,-490.37 621.489,-476.001 581.849,-465.668"/>
<polygon fill="black" stroke="black" points="582.651,-462.26 572.092,-463.131 580.889,-469.035 582.651,-462.26"/>
</g>
<!-- types/unit&#45;&gt;structures -->
<g id="edge28" class="edge"><title>types/unit&#45;&gt;structures</title>
<path fill="none" stroke="black" d="M840.281,-437.483C833.235,-435.39 825.798,-433.423 818.745,-432 658.954,-399.768 613.535,-428.232 453.745,-396 449.887,-395.222 445.915,-394.281 441.955,-393.246"/>
<polygon fill="black" stroke="black" points="442.781,-389.843 432.208,-390.517 440.894,-396.583 442.781,-389.843"/>
</g>
<!-- HITs/suspension -->
<g id="node31" class="node"><title>HITs/suspension</title>
<ellipse fill="none" stroke="black" cx="1048.74" cy="-306" rx="72.5877" ry="18"/>
<text text-anchor="middle" x="1048.74" y="-302.3" font-family="Times New Roman,serif" font-size="14.00">HITs/suspension</text>
</g>
<!-- types/unit&#45;&gt;HITs/suspension -->
<g id="edge29" class="edge"><title>types/unit&#45;&gt;HITs/suspension</title>
<path fill="none" stroke="black" d="M918.605,-445.766C954.193,-440.751 1002.5,-428.05 1030.74,-396 1045.52,-379.236 1049.45,-353.749 1050.02,-334.34"/>
<polygon fill="black" stroke="black" points="1053.52,-334.282 1050.03,-324.276 1046.52,-334.271 1053.52,-334.282"/>
</g>
<!-- types/sigma&#45;&gt;structures -->
<g id="edge27" class="edge"><title>types/sigma&#45;&gt;structures</title>
<path fill="none" stroke="black" d="M383.795,-503.871C386.692,-479.67 392.015,-435.211 395.465,-406.393"/>
<polygon fill="black" stroke="black" points="398.973,-406.534 396.687,-396.189 392.023,-405.702 398.973,-406.534"/>
</g>
<!-- HITs/colimit -->
<g id="node35" class="node"><title>HITs/colimit</title>
<ellipse fill="none" stroke="black" cx="660.745" cy="-378" rx="56.59" ry="18"/>
<text text-anchor="middle" x="660.745" y="-374.3" font-family="Times New Roman,serif" font-size="14.00">HITs/colimit</text>
</g>
<!-- HITs/graph&#45;&gt;HITs/colimit -->
<g id="edge36" class="edge"><title>HITs/graph&#45;&gt;HITs/colimit</title>
<path fill="none" stroke="black" d="M735.439,-433.465C722.233,-423.835 705.073,-411.323 690.532,-400.72"/>
<polygon fill="black" stroke="black" points="692.465,-397.798 682.322,-394.734 688.34,-403.454 692.465,-397.798"/>
</g>
<!-- HITs/generalized -->
<g id="node36" class="node"><title>HITs/generalized</title>
<ellipse fill="none" stroke="black" cx="807.745" cy="-378" rx="72.2875" ry="18"/>
<text text-anchor="middle" x="807.745" y="-374.3" font-family="Times New Roman,serif" font-size="14.00">HITs/generalized</text>
</g>
<!-- HITs/graph&#45;&gt;HITs/generalized -->
<g id="edge37" class="edge"><title>HITs/graph&#45;&gt;HITs/generalized</title>
<path fill="none" stroke="black" d="M768.831,-432.411C774.965,-423.992 782.547,-413.585 789.384,-404.201"/>
<polygon fill="black" stroke="black" points="792.331,-406.1 795.391,-395.956 786.673,-401.978 792.331,-406.1"/>
</g>
<!-- HITs/pushout -->
<g id="node37" class="node"><title>HITs/pushout</title>
<ellipse fill="none" stroke="black" cx="959.745" cy="-378" rx="61.99" ry="18"/>
<text text-anchor="middle" x="959.745" y="-374.3" font-family="Times New Roman,serif" font-size="14.00">HITs/pushout</text>
</g>
<!-- HITs/graph&#45;&gt;HITs/pushout -->
<g id="edge38" class="edge"><title>HITs/graph&#45;&gt;HITs/pushout</title>
<path fill="none" stroke="black" d="M792.57,-436.647C825.796,-425.189 875.477,-408.058 912.05,-395.447"/>
<polygon fill="black" stroke="black" points="913.206,-398.75 921.519,-392.181 910.924,-392.132 913.206,-398.75"/>
</g>
<!-- HITs/graph&#45;&gt;HITs/quotient -->
<g id="edge39" class="edge"><title>HITs/graph&#45;&gt;HITs/quotient</title>
<path fill="none" stroke="black" d="M707.733,-443.277C606.019,-431.316 378.55,-404.111 343.745,-396 247.653,-373.606 214.591,-380.559 133.745,-324 109.737,-307.205 89.5028,-280.239 76.6577,-260.386"/>
<polygon fill="black" stroke="black" points="79.5676,-258.438 71.2888,-251.827 73.6377,-262.158 79.5676,-258.438"/>
</g>
<!-- theorems/funext&#45;&gt;structures -->
<g id="edge59" class="edge"><title>theorems/funext&#45;&gt;structures</title>
<path fill="none" stroke="black" d="M496.781,-433.465C477.919,-422.986 452.914,-409.094 432.879,-397.963"/>
<polygon fill="black" stroke="black" points="434.504,-394.862 424.063,-393.066 431.104,-400.982 434.504,-394.862"/>
</g>
<!-- types/product -->
<g id="node29" class="node"><title>types/product</title>
<ellipse fill="none" stroke="black" cx="524.745" cy="-378" rx="61.99" ry="18"/>
<text text-anchor="middle" x="524.745" y="-374.3" font-family="Times New Roman,serif" font-size="14.00">types/product</text>
</g>
<!-- theorems/funext&#45;&gt;types/product -->
<g id="edge60" class="edge"><title>theorems/funext&#45;&gt;types/product</title>
<path fill="none" stroke="black" d="M524.745,-431.697C524.745,-423.983 524.745,-414.712 524.745,-406.112"/>
<polygon fill="black" stroke="black" points="528.245,-406.104 524.745,-396.104 521.245,-406.104 528.245,-406.104"/>
</g>
<!-- types/integer -->
<g id="node24" class="node"><title>types/integer</title>
<ellipse fill="none" stroke="black" cx="679.745" cy="-162" rx="56.59" ry="18"/>
<text text-anchor="middle" x="679.745" y="-158.3" font-family="Times New Roman,serif" font-size="14.00">types/integer</text>
</g>
<!-- types/integer&#45;&gt;HITs/circle -->
<g id="edge20" class="edge"><title>types/integer&#45;&gt;HITs/circle</title>
<path fill="none" stroke="black" d="M721.63,-149.732C729.303,-147.757 737.252,-145.77 744.745,-144 812.403,-128.019 890.871,-111.822 941.812,-101.614"/>
<polygon fill="black" stroke="black" points="942.501,-105.045 951.622,-99.6539 941.13,-98.181 942.501,-105.045"/>
</g>
<!-- types/rational -->
<g id="node26" class="node"><title>types/rational</title>
<ellipse fill="none" stroke="black" cx="828.745" cy="-90" rx="59.2899" ry="18"/>
<text text-anchor="middle" x="828.745" y="-86.3" font-family="Times New Roman,serif" font-size="14.00">types/rational</text>
</g>
<!-- types/integer&#45;&gt;types/rational -->
<g id="edge21" class="edge"><title>types/integer&#45;&gt;types/rational</title>
<path fill="none" stroke="black" d="M710.256,-146.666C732.981,-135.99 764.212,-121.317 788.905,-109.716"/>
<polygon fill="black" stroke="black" points="790.455,-112.855 798.018,-105.435 787.479,-106.52 790.455,-112.855"/>
</g>
<!-- theorems/hopf -->
<g id="node32" class="node"><title>theorems/hopf</title>
<ellipse fill="none" stroke="black" cx="915.745" cy="-18" rx="63.8893" ry="18"/>
<text text-anchor="middle" x="915.745" y="-14.3" font-family="Times New Roman,serif" font-size="14.00">theorems/hopf</text>
</g>
<!-- HITs/circle&#45;&gt;theorems/hopf -->
<g id="edge30" class="edge"><title>HITs/circle&#45;&gt;theorems/hopf</title>
<path fill="none" stroke="black" d="M977.591,-73.1159C967.103,-63.9391 953.725,-52.2331 942.096,-42.0574"/>
<polygon fill="black" stroke="black" points="944.212,-39.2581 934.381,-35.307 939.602,-44.5261 944.212,-39.2581"/>
</g>
<!-- HITs/moebius -->
<g id="node33" class="node"><title>HITs/moebius</title>
<ellipse fill="none" stroke="black" cx="1060.74" cy="-18" rx="63.0888" ry="18"/>
<text text-anchor="middle" x="1060.74" y="-14.3" font-family="Times New Roman,serif" font-size="14.00">HITs/moebius</text>
</g>
<!-- HITs/circle&#45;&gt;HITs/moebius -->
<g id="edge31" class="edge"><title>HITs/circle&#45;&gt;HITs/moebius</title>
<path fill="none" stroke="black" d="M1010.82,-72.7646C1018.99,-63.9689 1029.24,-52.9283 1038.33,-43.144"/>
<polygon fill="black" stroke="black" points="1041.06,-45.3429 1045.3,-35.6334 1035.93,-40.5798 1041.06,-45.3429"/>
</g>
<!-- HITs/reals -->
<g id="node34" class="node"><title>HITs/reals</title>
<ellipse fill="none" stroke="black" cx="1190.74" cy="-18" rx="48.9926" ry="18"/>
<text text-anchor="middle" x="1190.74" y="-14.3" font-family="Times New Roman,serif" font-size="14.00">HITs/reals</text>
</g>
<!-- HITs/circle&#45;&gt;HITs/reals -->
<g id="edge32" class="edge"><title>HITs/circle&#45;&gt;HITs/reals</title>
<path fill="none" stroke="black" d="M1030.61,-76.4854C1063.35,-64.7312 1112.44,-47.1095 1147.63,-34.4769"/>
<polygon fill="black" stroke="black" points="1148.93,-37.7281 1157.16,-31.0552 1146.57,-31.1397 1148.93,-37.7281"/>
</g>
<!-- types/rational&#45;&gt;types/dedekind -->
<g id="edge26" class="edge"><title>types/rational&#45;&gt;types/dedekind</title>
<path fill="none" stroke="black" d="M814.525,-72.411C807.161,-63.8197 798.024,-53.1594 789.854,-43.6275"/>
<polygon fill="black" stroke="black" points="792.444,-41.271 783.278,-35.9562 787.129,-45.8266 792.444,-41.271"/>
</g>
<!-- theorems/nat&#45;&gt;types/integer -->
<g id="edge61" class="edge"><title>theorems/nat&#45;&gt;types/integer</title>
<path fill="none" stroke="black" d="M492.026,-220.887C530.558,-209.005 589.414,-190.855 630.933,-178.052"/>
<polygon fill="black" stroke="black" points="632.04,-181.373 640.564,-175.082 629.977,-174.684 632.04,-181.373"/>
</g>
<!-- HITs/int -->
<g id="node49" class="node"><title>HITs/int</title>
<ellipse fill="none" stroke="black" cx="436.745" cy="-162" rx="40.8928" ry="18"/>
<text text-anchor="middle" x="436.745" y="-158.3" font-family="Times New Roman,serif" font-size="14.00">HITs/int</text>
</g>
<!-- theorems/nat&#45;&gt;HITs/int -->
<g id="edge62" class="edge"><title>theorems/nat&#45;&gt;HITs/int</title>
<path fill="none" stroke="black" d="M448.789,-215.697C447.026,-207.983 444.907,-198.712 442.942,-190.112"/>
<polygon fill="black" stroke="black" points="446.294,-189.073 440.654,-180.104 439.47,-190.633 446.294,-189.073"/>
</g>
<!-- types/precategory -->
<g id="node28" class="node"><title>types/precategory</title>
<ellipse fill="none" stroke="black" cx="1150.74" cy="-162" rx="75.2868" ry="18"/>
<text text-anchor="middle" x="1150.74" y="-158.3" font-family="Times New Roman,serif" font-size="14.00">types/precategory</text>
</g>
<!-- types/precategory&#45;&gt;types/category -->
<g id="edge23" class="edge"><title>types/precategory&#45;&gt;types/category</title>
<path fill="none" stroke="black" d="M1150.74,-143.697C1150.74,-135.983 1150.74,-126.712 1150.74,-118.112"/>
<polygon fill="black" stroke="black" points="1154.24,-118.104 1150.74,-108.104 1147.24,-118.104 1154.24,-118.104"/>
</g>
<!-- types/product&#45;&gt;theorems/ua -->
<g id="edge24" class="edge"><title>types/product&#45;&gt;theorems/ua</title>
<path fill="none" stroke="black" d="M494.842,-362.155C473.527,-351.573 444.702,-337.263 421.755,-325.87"/>
<polygon fill="black" stroke="black" points="423.153,-322.657 412.64,-321.345 420.04,-328.927 423.153,-322.657"/>
</g>
<!-- types/product&#45;&gt;theorems/prop -->
<g id="edge25" class="edge"><title>types/product&#45;&gt;theorems/prop</title>
<path fill="none" stroke="black" d="M569.399,-365.384C577.785,-363.422 586.506,-361.529 594.745,-360 717.24,-337.265 761.923,-380.926 872.745,-324 901.029,-309.471 924.743,-281.265 939.485,-260.485"/>
<polygon fill="black" stroke="black" points="942.47,-262.321 945.241,-252.095 936.698,-258.361 942.47,-262.321"/>
</g>
<!-- theorems/prop&#45;&gt;HITs/circle -->
<g id="edge63" class="edge"><title>theorems/prop&#45;&gt;HITs/circle</title>
<path fill="none" stroke="black" d="M960.569,-215.871C967.417,-191.564 980.021,-146.819 988.135,-118.013"/>
<polygon fill="black" stroke="black" points="991.56,-118.764 990.902,-108.189 984.822,-116.866 991.56,-118.764"/>
</g>
<!-- theorems/prop&#45;&gt;types/precategory -->
<g id="edge64" class="edge"><title>theorems/prop&#45;&gt;types/precategory</title>
<path fill="none" stroke="black" d="M993.805,-219.337C1024.47,-208.328 1067.83,-192.765 1101.2,-180.785"/>
<polygon fill="black" stroke="black" points="1102.54,-184.023 1110.77,-177.35 1100.17,-177.435 1102.54,-184.023"/>
</g>
<!-- HITs/suspension&#45;&gt;HITs/circle -->
<g id="edge49" class="edge"><title>HITs/suspension&#45;&gt;HITs/circle</title>
<path fill="none" stroke="black" d="M1045.1,-287.894C1041.22,-269.943 1034.83,-240.923 1028.74,-216 1020.45,-182.041 1010.03,-143.134 1003.15,-117.87"/>
<polygon fill="black" stroke="black" points="1006.44,-116.655 1000.43,-107.933 999.691,-118.502 1006.44,-116.655"/>
</g>
<!-- HITs/join -->
<g id="node41" class="node"><title>HITs/join</title>
<ellipse fill="none" stroke="black" cx="1120.74" cy="-234" rx="45.4919" ry="18"/>
<text text-anchor="middle" x="1120.74" y="-230.3" font-family="Times New Roman,serif" font-size="14.00">HITs/join</text>
</g>
<!-- HITs/suspension&#45;&gt;HITs/join -->
<g id="edge50" class="edge"><title>HITs/suspension&#45;&gt;HITs/join</title>
<path fill="none" stroke="black" d="M1065.81,-288.411C1075.09,-279.39 1086.71,-268.088 1096.87,-258.207"/>
<polygon fill="black" stroke="black" points="1099.57,-260.468 1104.3,-250.988 1094.69,-255.449 1099.57,-260.468"/>
</g>
<!-- HITs/colimit&#45;&gt;HITs/merely -->
<g id="edge33" class="edge"><title>HITs/colimit&#45;&gt;HITs/merely</title>
<path fill="none" stroke="black" d="M690.847,-362.666C713.241,-352.001 744.01,-337.35 768.36,-325.755"/>
<polygon fill="black" stroke="black" points="770.159,-328.775 777.682,-321.315 767.149,-322.455 770.159,-328.775"/>
</g>
<!-- HITs/colimit&#45;&gt;types/nat -->
<g id="edge34" class="edge"><title>HITs/colimit&#45;&gt;types/nat</title>
<path fill="none" stroke="black" d="M628.551,-363.003C602.447,-351.653 565.59,-335.628 537.985,-323.626"/>
<polygon fill="black" stroke="black" points="539.206,-320.341 528.64,-319.563 536.415,-326.76 539.206,-320.341"/>
</g>
<!-- HITs/generalized&#45;&gt;HITs/merely -->
<g id="edge35" class="edge"><title>HITs/generalized&#45;&gt;HITs/merely</title>
<path fill="none" stroke="black" d="M807.745,-359.697C807.745,-351.983 807.745,-342.712 807.745,-334.112"/>
<polygon fill="black" stroke="black" points="811.245,-334.104 807.745,-324.104 804.245,-334.104 811.245,-334.104"/>
</g>
<!-- HITs/pushout&#45;&gt;HITs/suspension -->
<g id="edge47" class="edge"><title>HITs/pushout&#45;&gt;HITs/suspension</title>
<path fill="none" stroke="black" d="M980.387,-360.765C992.097,-351.554 1006.94,-339.882 1019.8,-329.769"/>
<polygon fill="black" stroke="black" points="1022.21,-332.323 1027.91,-323.39 1017.88,-326.821 1022.21,-332.323"/>
</g>
<!-- HITs/quotient&#45;&gt;algebra/group -->
<g id="edge48" class="edge"><title>HITs/quotient&#45;&gt;algebra/group</title>
<path fill="none" stroke="black" d="M78.5705,-216.411C87.5895,-207.519 98.8566,-196.411 108.776,-186.631"/>
<polygon fill="black" stroke="black" points="111.375,-188.983 116.039,-179.47 106.461,-183.998 111.375,-188.983"/>
</g>
<!-- cubical/path -->
<g id="node45" class="node"><title>cubical/path</title>
<ellipse fill="none" stroke="black" cx="550.745" cy="-162" rx="54.6905" ry="18"/>
<text text-anchor="middle" x="550.745" y="-158.3" font-family="Times New Roman,serif" font-size="14.00">cubical/path</text>
</g>
<!-- cubical/cubes&#45;&gt;cubical/path -->
<g id="edge52" class="edge"><title>cubical/cubes&#45;&gt;cubical/path</title>
<path fill="none" stroke="black" d="M579.546,-216.055C575.112,-207.887 569.697,-197.912 564.763,-188.824"/>
<polygon fill="black" stroke="black" points="567.706,-186.908 559.859,-179.789 561.554,-190.247 567.706,-186.908"/>
</g>
<!-- theorems/fibration&#45;&gt;theorems/hopf -->
<g id="edge57" class="edge"><title>theorems/fibration&#45;&gt;theorems/hopf</title>
<path fill="none" stroke="black" d="M858.332,-145.184C871.909,-136.016 887.339,-123.263 896.745,-108 908.177,-89.4474 912.806,-65.0506 914.644,-46.4929"/>
<polygon fill="black" stroke="black" points="918.148,-46.5706 915.433,-36.3294 911.169,-46.0282 918.148,-46.5706"/>
</g>
<!-- theorems/functions&#45;&gt;algebra/group -->
<g id="edge58" class="edge"><title>theorems/functions&#45;&gt;algebra/group</title>
<path fill="none" stroke="black" d="M230.926,-217.116C212.604,-207.017 188.726,-193.856 169.105,-183.041"/>
<polygon fill="black" stroke="black" points="170.59,-179.863 160.143,-178.101 167.211,-185.994 170.59,-179.863"/>
</g>
<!-- cubical/connection -->
<g id="node44" class="node"><title>cubical/connection</title>
<ellipse fill="none" stroke="black" cx="672.745" cy="-90" rx="79.0865" ry="18"/>
<text text-anchor="middle" x="672.745" y="-86.3" font-family="Times New Roman,serif" font-size="14.00">cubical/connection</text>
</g>
<!-- cubical/path&#45;&gt;cubical/connection -->
<g id="edge53" class="edge"><title>cubical/path&#45;&gt;cubical/connection</title>
<path fill="none" stroke="black" d="M576.917,-145.983C594.203,-136.065 617.102,-122.926 636.18,-111.98"/>
<polygon fill="black" stroke="black" points="637.987,-114.978 644.919,-106.966 634.503,-108.906 637.987,-114.978"/>
</g>
<!-- cubical/example -->
<g id="node46" class="node"><title>cubical/example</title>
<ellipse fill="none" stroke="black" cx="362.745" cy="-90" rx="68.7879" ry="18"/>
<text text-anchor="middle" x="362.745" y="-86.3" font-family="Times New Roman,serif" font-size="14.00">cubical/example</text>
</g>
<!-- cubical/path&#45;&gt;cubical/example -->
<g id="edge54" class="edge"><title>cubical/path&#45;&gt;cubical/example</title>
<path fill="none" stroke="black" d="M515.824,-147.998C486.056,-136.914 442.996,-120.881 410.123,-108.641"/>
<polygon fill="black" stroke="black" points="411.301,-105.345 400.708,-105.135 408.858,-111.905 411.301,-105.345"/>
</g>
<!-- cubical/square -->
<g id="node47" class="node"><title>cubical/square</title>
<ellipse fill="none" stroke="black" cx="512.745" cy="-90" rx="63.0888" ry="18"/>
<text text-anchor="middle" x="512.745" y="-86.3" font-family="Times New Roman,serif" font-size="14.00">cubical/square</text>
</g>
<!-- cubical/path&#45;&gt;cubical/square -->
<g id="edge55" class="edge"><title>cubical/path&#45;&gt;cubical/square</title>
<path fill="none" stroke="black" d="M541.546,-144.055C537.177,-136.007 531.856,-126.205 526.981,-117.226"/>
<polygon fill="black" stroke="black" points="529.97,-115.394 522.123,-108.275 523.818,-118.734 529.97,-115.394"/>
</g>
<!-- cubical/path&#45;&gt;cubical/V -->
<g id="edge56" class="edge"><title>cubical/path&#45;&gt;cubical/V</title>
<path fill="none" stroke="black" d="M510.584,-149.786C502.709,-147.741 494.489,-145.716 486.745,-144 397.71,-124.277 373.308,-129.737 284.745,-108 281.195,-107.129 277.537,-106.152 273.877,-105.119"/>
<polygon fill="black" stroke="black" points="274.84,-101.754 264.258,-102.285 272.862,-108.468 274.84,-101.754"/>
</g>
</g>
</svg>
