<?xml version="1.0" encoding="UTF-8" standalone="no"?>
<!DOCTYPE svg PUBLIC "-//W3C//DTD SVG 1.1//EN"
 "http://www.w3.org/Graphics/SVG/1.1/DTD/svg11.dtd">
<!-- Generated by graphviz version 2.38.0 (20140413.2041)
 -->
<!-- Title: dependency_map Pages: 1 -->
<svg width="1604pt" height="836pt"
 viewBox="0.00 0.00 1604.27 836.00" xmlns="http://www.w3.org/2000/svg" xmlns:xlink="http://www.w3.org/1999/xlink">
<g id="graph0" class="graph" transform="scale(1 1) rotate(0) translate(4 832)">
<title>dependency_map</title>
<polygon fill="white" stroke="none" points="-4,4 -4,-832 1600.27,-832 1600.27,4 -4,4"/>
<!-- proto -->
<g id="node1" class="node"><title>proto</title>
<ellipse fill="none" stroke="black" cx="529.23" cy="-810" rx="30.5947" ry="18"/>
<text text-anchor="middle" x="529.23" y="-806.3" font-family="Times New Roman,serif" font-size="14.00">proto</text>
</g>
<!-- types/eq -->
<g id="node2" class="node"><title>types/eq</title>
<ellipse fill="none" stroke="black" cx="589.23" cy="-738" rx="41.6928" ry="18"/>
<text text-anchor="middle" x="589.23" y="-734.3" font-family="Times New Roman,serif" font-size="14.00">types/eq</text>
</g>
<!-- proto&#45;&gt;types/eq -->
<g id="edge1" class="edge"><title>proto&#45;&gt;types/eq</title>
<path fill="none" stroke="black" d="M542.546,-793.465C550.174,-784.566 559.911,-773.205 568.518,-763.164"/>
<polygon fill="black" stroke="black" points="571.265,-765.338 575.115,-755.467 565.95,-760.782 571.265,-765.338"/>
</g>
<!-- support -->
<g id="node4" class="node"><title>support</title>
<ellipse fill="none" stroke="black" cx="651.23" cy="-666" rx="38.9931" ry="18"/>
<text text-anchor="middle" x="651.23" y="-662.3" font-family="Times New Roman,serif" font-size="14.00">support</text>
</g>
<!-- types/eq&#45;&gt;support -->
<g id="edge13" class="edge"><title>types/eq&#45;&gt;support</title>
<path fill="none" stroke="black" d="M603.61,-720.765C611.513,-711.841 621.463,-700.608 630.221,-690.719"/>
<polygon fill="black" stroke="black" points="632.918,-692.954 636.928,-683.147 627.678,-688.313 632.918,-692.954"/>
</g>
<!-- types/dep_path -->
<g id="node15" class="node"><title>types/dep_path</title>
<ellipse fill="none" stroke="black" cx="527.23" cy="-666" rx="66.8882" ry="18"/>
<text text-anchor="middle" x="527.23" y="-662.3" font-family="Times New Roman,serif" font-size="14.00">types/dep_path</text>
</g>
<!-- types/eq&#45;&gt;types/dep_path -->
<g id="edge14" class="edge"><title>types/eq&#45;&gt;types/dep_path</title>
<path fill="none" stroke="black" d="M574.85,-720.765C567.06,-711.969 557.281,-700.928 548.615,-691.144"/>
<polygon fill="black" stroke="black" points="551.213,-688.799 541.963,-683.633 545.973,-693.44 551.213,-688.799"/>
</g>
<!-- meta/hott_theory -->
<g id="node3" class="node"><title>meta/hott_theory</title>
<ellipse fill="none" stroke="black" cx="650.23" cy="-810" rx="72.2875" ry="18"/>
<text text-anchor="middle" x="650.23" y="-806.3" font-family="Times New Roman,serif" font-size="14.00">meta/hott_theory</text>
</g>
<!-- meta/hott_theory&#45;&gt;types/eq -->
<g id="edge2" class="edge"><title>meta/hott_theory&#45;&gt;types/eq</title>
<path fill="none" stroke="black" d="M635.464,-792.055C627.861,-783.33 618.462,-772.544 610.128,-762.981"/>
<polygon fill="black" stroke="black" points="612.649,-760.547 603.44,-755.307 607.372,-765.146 612.649,-760.547"/>
</g>
<!-- types/equiv -->
<g id="node5" class="node"><title>types/equiv</title>
<ellipse fill="none" stroke="black" cx="651.23" cy="-594" rx="51.9908" ry="18"/>
<text text-anchor="middle" x="651.23" y="-590.3" font-family="Times New Roman,serif" font-size="14.00">types/equiv</text>
</g>
<!-- support&#45;&gt;types/equiv -->
<g id="edge3" class="edge"><title>support&#45;&gt;types/equiv</title>
<path fill="none" stroke="black" d="M651.23,-647.697C651.23,-639.983 651.23,-630.712 651.23,-622.112"/>
<polygon fill="black" stroke="black" points="654.73,-622.104 651.23,-612.104 647.73,-622.104 654.73,-622.104"/>
</g>
<!-- types/coproduct -->
<g id="node13" class="node"><title>types/coproduct</title>
<ellipse fill="none" stroke="black" cx="308.23" cy="-522" rx="70.6878" ry="18"/>
<text text-anchor="middle" x="308.23" y="-518.3" font-family="Times New Roman,serif" font-size="14.00">types/coproduct</text>
</g>
<!-- types/equiv&#45;&gt;types/coproduct -->
<g id="edge15" class="edge"><title>types/equiv&#45;&gt;types/coproduct</title>
<path fill="none" stroke="black" d="M606.994,-584.233C554.707,-573.837 465.084,-555.909 388.23,-540 382.529,-538.82 376.603,-537.582 370.669,-536.334"/>
<polygon fill="black" stroke="black" points="371.221,-532.874 360.714,-534.235 369.776,-539.723 371.221,-532.874"/>
</g>
<!-- types/heq -->
<g id="node16" class="node"><title>types/heq</title>
<ellipse fill="none" stroke="black" cx="831.23" cy="-522" rx="46.2923" ry="18"/>
<text text-anchor="middle" x="831.23" y="-518.3" font-family="Times New Roman,serif" font-size="14.00">types/heq</text>
</g>
<!-- types/equiv&#45;&gt;types/heq -->
<g id="edge16" class="edge"><title>types/equiv&#45;&gt;types/heq</title>
<path fill="none" stroke="black" d="M684.665,-579.998C714.517,-568.388 758.333,-551.349 790.279,-538.926"/>
<polygon fill="black" stroke="black" points="791.732,-542.116 799.783,-535.229 789.195,-535.592 791.732,-542.116"/>
</g>
<!-- HITs/infinitesimal -->
<g id="node17" class="node"><title>HITs/infinitesimal</title>
<ellipse fill="none" stroke="black" cx="582.23" cy="-522" rx="74.9875" ry="18"/>
<text text-anchor="middle" x="582.23" y="-518.3" font-family="Times New Roman,serif" font-size="14.00">HITs/infinitesimal</text>
</g>
<!-- types/equiv&#45;&gt;HITs/infinitesimal -->
<g id="edge17" class="edge"><title>types/equiv&#45;&gt;HITs/infinitesimal</title>
<path fill="none" stroke="black" d="M635.227,-576.765C626.471,-567.882 615.458,-556.709 605.743,-546.854"/>
<polygon fill="black" stroke="black" points="608.139,-544.298 598.626,-539.633 603.153,-549.212 608.139,-544.298"/>
</g>
<!-- types/lost -->
<g id="node18" class="node"><title>types/lost</title>
<ellipse fill="none" stroke="black" cx="721.23" cy="-522" rx="46.2923" ry="18"/>
<text text-anchor="middle" x="721.23" y="-518.3" font-family="Times New Roman,serif" font-size="14.00">types/lost</text>
</g>
<!-- types/equiv&#45;&gt;types/lost -->
<g id="edge18" class="edge"><title>types/equiv&#45;&gt;types/lost</title>
<path fill="none" stroke="black" d="M667.465,-576.765C676.477,-567.753 687.845,-556.385 697.804,-546.426"/>
<polygon fill="black" stroke="black" points="700.487,-548.693 705.083,-539.147 695.537,-543.744 700.487,-548.693"/>
</g>
<!-- types/unit -->
<g id="node19" class="node"><title>types/unit</title>
<ellipse fill="none" stroke="black" cx="443.23" cy="-522" rx="46.2923" ry="18"/>
<text text-anchor="middle" x="443.23" y="-518.3" font-family="Times New Roman,serif" font-size="14.00">types/unit</text>
</g>
<!-- types/equiv&#45;&gt;types/unit -->
<g id="edge19" class="edge"><title>types/equiv&#45;&gt;types/unit</title>
<path fill="none" stroke="black" d="M614.999,-580.807C579.313,-568.797 524.771,-550.441 486.752,-537.647"/>
<polygon fill="black" stroke="black" points="487.575,-534.231 476.981,-534.359 485.343,-540.865 487.575,-534.231"/>
</g>
<!-- types/sigma -->
<g id="node20" class="node"><title>types/sigma</title>
<ellipse fill="none" stroke="black" cx="1414.23" cy="-378" rx="53.8905" ry="18"/>
<text text-anchor="middle" x="1414.23" y="-374.3" font-family="Times New Roman,serif" font-size="14.00">types/sigma</text>
</g>
<!-- types/equiv&#45;&gt;types/sigma -->
<g id="edge20" class="edge"><title>types/equiv&#45;&gt;types/sigma</title>
<path fill="none" stroke="black" d="M695.211,-584.099C742.604,-574.27 820.128,-557.506 886.23,-540 1065.89,-492.419 1276.36,-424.533 1367.85,-394.412"/>
<polygon fill="black" stroke="black" points="1368.97,-397.728 1377.37,-391.272 1366.78,-391.08 1368.97,-397.728"/>
</g>
<!-- structures -->
<g id="node6" class="node"><title>structures</title>
<ellipse fill="none" stroke="black" cx="480.23" cy="-450" rx="46.2923" ry="18"/>
<text text-anchor="middle" x="480.23" y="-446.3" font-family="Times New Roman,serif" font-size="14.00">structures</text>
</g>
<!-- HITs/interval -->
<g id="node7" class="node"><title>HITs/interval</title>
<ellipse fill="none" stroke="black" cx="722.23" cy="-378" rx="57.6901" ry="18"/>
<text text-anchor="middle" x="722.23" y="-374.3" font-family="Times New Roman,serif" font-size="14.00">HITs/interval</text>
</g>
<!-- structures&#45;&gt;HITs/interval -->
<g id="edge4" class="edge"><title>structures&#45;&gt;HITs/interval</title>
<path fill="none" stroke="black" d="M516.199,-438.596C557.292,-426.709 624.843,-407.17 671.327,-393.724"/>
<polygon fill="black" stroke="black" points="672.566,-397.009 681.2,-390.868 670.621,-390.285 672.566,-397.009"/>
</g>
<!-- HITs/truncation -->
<g id="node8" class="node"><title>HITs/truncation</title>
<ellipse fill="none" stroke="black" cx="1001.23" cy="-306" rx="68.4888" ry="18"/>
<text text-anchor="middle" x="1001.23" y="-302.3" font-family="Times New Roman,serif" font-size="14.00">HITs/truncation</text>
</g>
<!-- structures&#45;&gt;HITs/truncation -->
<g id="edge5" class="edge"><title>structures&#45;&gt;HITs/truncation</title>
<path fill="none" stroke="black" d="M516.944,-439.073C545.624,-430.337 585.758,-415.896 617.23,-396 636.894,-383.568 634.334,-370.228 655.23,-360 701.761,-337.224 839.788,-321.277 926.796,-313.165"/>
<polygon fill="black" stroke="black" points="927.244,-316.639 936.882,-312.239 926.604,-309.668 927.244,-316.639"/>
</g>
<!-- algebra/core -->
<g id="node9" class="node"><title>algebra/core</title>
<ellipse fill="none" stroke="black" cx="88.2301" cy="-378" rx="55.4913" ry="18"/>
<text text-anchor="middle" x="88.2301" y="-374.3" font-family="Times New Roman,serif" font-size="14.00">algebra/core</text>
</g>
<!-- structures&#45;&gt;algebra/core -->
<g id="edge6" class="edge"><title>structures&#45;&gt;algebra/core</title>
<path fill="none" stroke="black" d="M436.995,-443.41C374.012,-434.952 253.498,-417.576 152.23,-396 147.81,-395.058 143.238,-394.005 138.665,-392.896"/>
<polygon fill="black" stroke="black" points="139.262,-389.438 128.712,-390.403 137.562,-396.228 139.262,-389.438"/>
</g>
<!-- types/nat -->
<g id="node10" class="node"><title>types/nat</title>
<ellipse fill="none" stroke="black" cx="423.23" cy="-378" rx="43.5923" ry="18"/>
<text text-anchor="middle" x="423.23" y="-374.3" font-family="Times New Roman,serif" font-size="14.00">types/nat</text>
</g>
<!-- structures&#45;&gt;types/nat -->
<g id="edge7" class="edge"><title>structures&#45;&gt;types/nat</title>
<path fill="none" stroke="black" d="M466.722,-432.411C459.694,-423.781 450.966,-413.062 443.178,-403.497"/>
<polygon fill="black" stroke="black" points="445.67,-401.014 436.641,-395.47 440.242,-405.434 445.67,-401.014"/>
</g>
<!-- types/product -->
<g id="node25" class="node"><title>types/product</title>
<ellipse fill="none" stroke="black" cx="669.23" cy="-306" rx="61.99" ry="18"/>
<text text-anchor="middle" x="669.23" y="-302.3" font-family="Times New Roman,serif" font-size="14.00">types/product</text>
</g>
<!-- HITs/interval&#45;&gt;types/product -->
<g id="edge47" class="edge"><title>HITs/interval&#45;&gt;types/product</title>
<path fill="none" stroke="black" d="M709.67,-360.411C703.295,-351.992 695.416,-341.585 688.311,-332.201"/>
<polygon fill="black" stroke="black" points="690.895,-329.816 682.068,-323.956 685.314,-334.042 690.895,-329.816"/>
</g>
<!-- theorems/fibration -->
<g id="node28" class="node"><title>theorems/fibration</title>
<ellipse fill="none" stroke="black" cx="1341.23" cy="-306" rx="76.8869" ry="18"/>
<text text-anchor="middle" x="1341.23" y="-302.3" font-family="Times New Roman,serif" font-size="14.00">theorems/fibration</text>
</g>
<!-- HITs/interval&#45;&gt;theorems/fibration -->
<g id="edge48" class="edge"><title>HITs/interval&#45;&gt;theorems/fibration</title>
<path fill="none" stroke="black" d="M763.185,-365.265C771.422,-363.241 780.059,-361.356 788.23,-360 994.031,-325.851 1049.57,-352.508 1256.23,-324 1262.94,-323.074 1269.92,-321.948 1276.87,-320.721"/>
<polygon fill="black" stroke="black" points="1277.78,-324.112 1286.98,-318.863 1276.51,-317.228 1277.78,-324.112"/>
</g>
<!-- theorems/prop -->
<g id="node29" class="node"><title>theorems/prop</title>
<ellipse fill="none" stroke="black" cx="1350.23" cy="-234" rx="63.8893" ry="18"/>
<text text-anchor="middle" x="1350.23" y="-230.3" font-family="Times New Roman,serif" font-size="14.00">theorems/prop</text>
</g>
<!-- HITs/interval&#45;&gt;theorems/prop -->
<g id="edge49" class="edge"><title>HITs/interval&#45;&gt;theorems/prop</title>
<path fill="none" stroke="black" d="M763.945,-365.392C771.964,-363.406 780.326,-361.502 788.23,-360 915.825,-335.752 953.516,-360.259 1078.23,-324 1114.12,-313.565 1119.16,-300.929 1154.23,-288 1179.76,-278.588 1245.76,-261.256 1294.15,-248.978"/>
<polygon fill="black" stroke="black" points="1295.05,-252.362 1303.88,-246.516 1293.33,-245.576 1295.05,-252.362"/>
</g>
<!-- HITs/truncation&#45;&gt;theorems/prop -->
<g id="edge54" class="edge"><title>HITs/truncation&#45;&gt;theorems/prop</title>
<path fill="none" stroke="black" d="M1055.82,-295.168C1111.59,-284.97 1200.63,-268.268 1277.23,-252 1282.48,-250.885 1287.93,-249.688 1293.39,-248.464"/>
<polygon fill="black" stroke="black" points="1294.19,-251.871 1303.17,-246.244 1292.64,-245.045 1294.19,-251.871"/>
</g>
<!-- HITs/simplicial -->
<g id="node42" class="node"><title>HITs/simplicial</title>
<ellipse fill="none" stroke="black" cx="812.23" cy="-234" rx="65.7887" ry="18"/>
<text text-anchor="middle" x="812.23" y="-230.3" font-family="Times New Roman,serif" font-size="14.00">HITs/simplicial</text>
</g>
<!-- HITs/truncation&#45;&gt;HITs/simplicial -->
<g id="edge55" class="edge"><title>HITs/truncation&#45;&gt;HITs/simplicial</title>
<path fill="none" stroke="black" d="M963.437,-291.003C933.466,-279.902 891.419,-264.329 859.27,-252.422"/>
<polygon fill="black" stroke="black" points="860.228,-249.045 849.635,-248.854 857.797,-255.609 860.228,-249.045"/>
</g>
<!-- theorems/mere_eq_lemma -->
<g id="node43" class="node"><title>theorems/mere_eq_lemma</title>
<ellipse fill="none" stroke="black" cx="1002.23" cy="-234" rx="105.881" ry="18"/>
<text text-anchor="middle" x="1002.23" y="-230.3" font-family="Times New Roman,serif" font-size="14.00">theorems/mere_eq_lemma</text>
</g>
<!-- HITs/truncation&#45;&gt;theorems/mere_eq_lemma -->
<g id="edge56" class="edge"><title>HITs/truncation&#45;&gt;theorems/mere_eq_lemma</title>
<path fill="none" stroke="black" d="M1001.48,-287.697C1001.59,-279.983 1001.72,-270.712 1001.84,-262.112"/>
<polygon fill="black" stroke="black" points="1005.34,-262.153 1001.99,-252.104 998.343,-262.053 1005.34,-262.153"/>
</g>
<!-- theorems/graphs -->
<g id="node44" class="node"><title>theorems/graphs</title>
<ellipse fill="none" stroke="black" cx="1197.23" cy="-234" rx="70.6878" ry="18"/>
<text text-anchor="middle" x="1197.23" y="-230.3" font-family="Times New Roman,serif" font-size="14.00">theorems/graphs</text>
</g>
<!-- HITs/truncation&#45;&gt;theorems/graphs -->
<g id="edge57" class="edge"><title>HITs/truncation&#45;&gt;theorems/graphs</title>
<path fill="none" stroke="black" d="M1039.95,-291.17C1071.02,-280.073 1114.83,-264.429 1148.32,-252.467"/>
<polygon fill="black" stroke="black" points="1149.68,-255.7 1157.92,-249.041 1147.32,-249.108 1149.68,-255.7"/>
</g>
<!-- algebra/group -->
<g id="node11" class="node"><title>algebra/group</title>
<ellipse fill="none" stroke="black" cx="88.2301" cy="-306" rx="60.3893" ry="18"/>
<text text-anchor="middle" x="88.2301" y="-302.3" font-family="Times New Roman,serif" font-size="14.00">algebra/group</text>
</g>
<!-- algebra/core&#45;&gt;algebra/group -->
<g id="edge8" class="edge"><title>algebra/core&#45;&gt;algebra/group</title>
<path fill="none" stroke="black" d="M88.2301,-359.697C88.2301,-351.983 88.2301,-342.712 88.2301,-334.112"/>
<polygon fill="black" stroke="black" points="91.7302,-334.104 88.2301,-324.104 84.7302,-334.104 91.7302,-334.104"/>
</g>
<!-- theorems/nat -->
<g id="node24" class="node"><title>theorems/nat</title>
<ellipse fill="none" stroke="black" cx="452.23" cy="-162" rx="57.3905" ry="18"/>
<text text-anchor="middle" x="452.23" y="-158.3" font-family="Times New Roman,serif" font-size="14.00">theorems/nat</text>
</g>
<!-- types/nat&#45;&gt;theorems/nat -->
<g id="edge26" class="edge"><title>types/nat&#45;&gt;theorems/nat</title>
<path fill="none" stroke="black" d="M428.495,-359.974C431.493,-349.659 435.069,-336.182 437.23,-324 445.476,-277.516 449.362,-222.626 451.057,-190.434"/>
<polygon fill="black" stroke="black" points="454.572,-190.205 451.569,-180.045 447.581,-189.86 454.572,-190.205"/>
</g>
<!-- algebra/homology -->
<g id="node12" class="node"><title>algebra/homology</title>
<ellipse fill="none" stroke="black" cx="103.23" cy="-234" rx="75.2868" ry="18"/>
<text text-anchor="middle" x="103.23" y="-230.3" font-family="Times New Roman,serif" font-size="14.00">algebra/homology</text>
</g>
<!-- algebra/group&#45;&gt;algebra/homology -->
<g id="edge9" class="edge"><title>algebra/group&#45;&gt;algebra/homology</title>
<path fill="none" stroke="black" d="M91.938,-287.697C93.5909,-279.983 95.5774,-270.712 97.4203,-262.112"/>
<polygon fill="black" stroke="black" points="100.892,-262.616 99.5649,-252.104 94.0472,-261.149 100.892,-262.616"/>
</g>
<!-- types/coproduct&#45;&gt;structures -->
<g id="edge10" class="edge"><title>types/coproduct&#45;&gt;structures</title>
<path fill="none" stroke="black" d="M344.287,-506.326C372.254,-494.944 411.004,-479.173 439.98,-467.381"/>
<polygon fill="black" stroke="black" points="441.459,-470.558 449.402,-463.546 438.821,-464.074 441.459,-470.558"/>
</g>
<!-- types/integer -->
<g id="node14" class="node"><title>types/integer</title>
<ellipse fill="none" stroke="black" cx="169.23" cy="-450" rx="56.59" ry="18"/>
<text text-anchor="middle" x="169.23" y="-446.3" font-family="Times New Roman,serif" font-size="14.00">types/integer</text>
</g>
<!-- types/coproduct&#45;&gt;types/integer -->
<g id="edge11" class="edge"><title>types/coproduct&#45;&gt;types/integer</title>
<path fill="none" stroke="black" d="M277.726,-505.638C257.028,-495.215 229.507,-481.355 207.363,-470.203"/>
<polygon fill="black" stroke="black" points="208.742,-466.98 198.237,-465.608 205.594,-473.232 208.742,-466.98"/>
</g>
<!-- types/integer&#45;&gt;algebra/core -->
<g id="edge23" class="edge"><title>types/integer&#45;&gt;algebra/core</title>
<path fill="none" stroke="black" d="M150.443,-432.765C139.811,-423.576 126.345,-411.938 114.661,-401.842"/>
<polygon fill="black" stroke="black" points="116.77,-399.038 106.915,-395.147 112.192,-404.334 116.77,-399.038"/>
</g>
<!-- HITs/circle -->
<g id="node22" class="node"><title>HITs/circle</title>
<ellipse fill="none" stroke="black" cx="392.23" cy="-90" rx="51.9908" ry="18"/>
<text text-anchor="middle" x="392.23" y="-86.3" font-family="Times New Roman,serif" font-size="14.00">HITs/circle</text>
</g>
<!-- types/integer&#45;&gt;HITs/circle -->
<g id="edge24" class="edge"><title>types/integer&#45;&gt;HITs/circle</title>
<path fill="none" stroke="black" d="M118.008,-442.327C86.8,-435.658 48.4067,-422.378 24.2301,-396 -3.45136,-365.798 0.230091,-347.969 0.230091,-307 0.230091,-307 0.230091,-307 0.230091,-233 0.230091,-162.616 226.455,-117.221 335.191,-99.4668"/>
<polygon fill="black" stroke="black" points="336.018,-102.879 345.335,-97.8351 334.906,-95.9677 336.018,-102.879"/>
</g>
<!-- HITs/reals -->
<g id="node23" class="node"><title>HITs/reals</title>
<ellipse fill="none" stroke="black" cx="215.23" cy="-306" rx="48.9926" ry="18"/>
<text text-anchor="middle" x="215.23" y="-302.3" font-family="Times New Roman,serif" font-size="14.00">HITs/reals</text>
</g>
<!-- types/integer&#45;&gt;HITs/reals -->
<g id="edge25" class="edge"><title>types/integer&#45;&gt;HITs/reals</title>
<path fill="none" stroke="black" d="M213.876,-438.865C236.735,-431.17 262.566,-418.017 276.23,-396 284.667,-382.405 282.867,-374.559 276.23,-360 270.341,-347.081 259.575,-336.094 248.708,-327.529"/>
<polygon fill="black" stroke="black" points="250.587,-324.567 240.458,-321.461 246.439,-330.206 250.587,-324.567"/>
</g>
<!-- types/dep_path&#45;&gt;types/equiv -->
<g id="edge12" class="edge"><title>types/dep_path&#45;&gt;types/equiv</title>
<path fill="none" stroke="black" d="M554.75,-649.465C572.859,-639.242 596.722,-625.771 616.185,-614.783"/>
<polygon fill="black" stroke="black" points="618.073,-617.737 625.061,-609.773 614.632,-611.641 618.073,-617.737"/>
</g>
<!-- types/heq&#45;&gt;HITs/interval -->
<g id="edge21" class="edge"><title>types/heq&#45;&gt;HITs/interval</title>
<path fill="none" stroke="black" d="M818.513,-504.433C799.499,-479.662 763.528,-432.801 741.342,-403.898"/>
<polygon fill="black" stroke="black" points="744.069,-401.703 735.204,-395.902 738.517,-405.965 744.069,-401.703"/>
</g>
<!-- HITs/graph -->
<g id="node21" class="node"><title>HITs/graph</title>
<ellipse fill="none" stroke="black" cx="1001.23" cy="-450" rx="52.7911" ry="18"/>
<text text-anchor="middle" x="1001.23" y="-446.3" font-family="Times New Roman,serif" font-size="14.00">HITs/graph</text>
</g>
<!-- types/heq&#45;&gt;HITs/graph -->
<g id="edge22" class="edge"><title>types/heq&#45;&gt;HITs/graph</title>
<path fill="none" stroke="black" d="M862.016,-508.324C889.299,-497.089 929.371,-480.589 959.526,-468.172"/>
<polygon fill="black" stroke="black" points="961.025,-471.34 968.939,-464.296 958.359,-464.868 961.025,-471.34"/>
</g>
<!-- types/unit&#45;&gt;structures -->
<g id="edge33" class="edge"><title>types/unit&#45;&gt;structures</title>
<path fill="none" stroke="black" d="M452.187,-504.055C456.504,-495.887 461.777,-485.912 466.58,-476.824"/>
<polygon fill="black" stroke="black" points="469.777,-478.266 471.356,-467.789 463.588,-474.994 469.777,-478.266"/>
</g>
<!-- types/unit&#45;&gt;types/nat -->
<g id="edge34" class="edge"><title>types/unit&#45;&gt;types/nat</title>
<path fill="none" stroke="black" d="M436.039,-504.162C432.036,-493.913 427.429,-480.44 425.23,-468 421.621,-447.582 421.246,-424.122 421.706,-406.416"/>
<polygon fill="black" stroke="black" points="425.211,-406.335 422.078,-396.214 418.215,-406.079 425.211,-406.335"/>
</g>
<!-- HITs/suspension -->
<g id="node31" class="node"><title>HITs/suspension</title>
<ellipse fill="none" stroke="black" cx="355.23" cy="-306" rx="72.5877" ry="18"/>
<text text-anchor="middle" x="355.23" y="-302.3" font-family="Times New Roman,serif" font-size="14.00">HITs/suspension</text>
</g>
<!-- types/unit&#45;&gt;HITs/suspension -->
<g id="edge35" class="edge"><title>types/unit&#45;&gt;HITs/suspension</title>
<path fill="none" stroke="black" d="M430.996,-504.583C414.484,-481.566 385.39,-437.819 370.23,-396 362.988,-376.021 359.209,-352.232 357.257,-334.278"/>
<polygon fill="black" stroke="black" points="360.728,-333.814 356.284,-324.196 353.761,-334.486 360.728,-333.814"/>
</g>
<!-- types/sigma&#45;&gt;theorems/fibration -->
<g id="edge29" class="edge"><title>types/sigma&#45;&gt;theorems/fibration</title>
<path fill="none" stroke="black" d="M1397.3,-360.765C1387.94,-351.795 1376.16,-340.49 1365.8,-330.564"/>
<polygon fill="black" stroke="black" points="1368.22,-328.028 1358.58,-323.633 1363.37,-333.081 1368.22,-328.028"/>
</g>
<!-- types/sigma&#45;&gt;theorems/prop -->
<g id="edge30" class="edge"><title>types/sigma&#45;&gt;theorems/prop</title>
<path fill="none" stroke="black" d="M1422.53,-359.903C1430.35,-341.186 1439.22,-310.806 1427.23,-288 1419.8,-273.86 1406.7,-262.757 1393.38,-254.448"/>
<polygon fill="black" stroke="black" points="1395.07,-251.379 1384.66,-249.386 1391.55,-257.433 1395.07,-251.379"/>
</g>
<!-- HITs/colimit -->
<g id="node34" class="node"><title>HITs/colimit</title>
<ellipse fill="none" stroke="black" cx="854.23" cy="-378" rx="56.59" ry="18"/>
<text text-anchor="middle" x="854.23" y="-374.3" font-family="Times New Roman,serif" font-size="14.00">HITs/colimit</text>
</g>
<!-- HITs/graph&#45;&gt;HITs/colimit -->
<g id="edge40" class="edge"><title>HITs/graph&#45;&gt;HITs/colimit</title>
<path fill="none" stroke="black" d="M971.836,-435.003C949.325,-424.283 918.054,-409.392 893.416,-397.66"/>
<polygon fill="black" stroke="black" points="894.864,-394.473 884.33,-393.333 891.854,-400.793 894.864,-394.473"/>
</g>
<!-- HITs/generalized -->
<g id="node35" class="node"><title>HITs/generalized</title>
<ellipse fill="none" stroke="black" cx="1001.23" cy="-378" rx="72.2875" ry="18"/>
<text text-anchor="middle" x="1001.23" y="-374.3" font-family="Times New Roman,serif" font-size="14.00">HITs/generalized</text>
</g>
<!-- HITs/graph&#45;&gt;HITs/generalized -->
<g id="edge41" class="edge"><title>HITs/graph&#45;&gt;HITs/generalized</title>
<path fill="none" stroke="black" d="M1001.23,-431.697C1001.23,-423.983 1001.23,-414.712 1001.23,-406.112"/>
<polygon fill="black" stroke="black" points="1004.73,-406.104 1001.23,-396.104 997.73,-406.104 1004.73,-406.104"/>
</g>
<!-- HITs/int -->
<g id="node36" class="node"><title>HITs/int</title>
<ellipse fill="none" stroke="black" cx="1301.23" cy="-378" rx="40.8928" ry="18"/>
<text text-anchor="middle" x="1301.23" y="-374.3" font-family="Times New Roman,serif" font-size="14.00">HITs/int</text>
</g>
<!-- HITs/graph&#45;&gt;HITs/int -->
<g id="edge42" class="edge"><title>HITs/graph&#45;&gt;HITs/int</title>
<path fill="none" stroke="black" d="M1047.24,-440.943C1097.7,-431.716 1180.86,-415.349 1251.23,-396 1254.37,-395.137 1257.6,-394.187 1260.83,-393.189"/>
<polygon fill="black" stroke="black" points="1262.02,-396.486 1270.47,-390.099 1259.88,-389.82 1262.02,-396.486"/>
</g>
<!-- HITs/pushout -->
<g id="node37" class="node"><title>HITs/pushout</title>
<ellipse fill="none" stroke="black" cx="546.23" cy="-378" rx="61.99" ry="18"/>
<text text-anchor="middle" x="546.23" y="-374.3" font-family="Times New Roman,serif" font-size="14.00">HITs/pushout</text>
</g>
<!-- HITs/graph&#45;&gt;HITs/pushout -->
<g id="edge43" class="edge"><title>HITs/graph&#45;&gt;HITs/pushout</title>
<path fill="none" stroke="black" d="M954.214,-441.84C887.65,-431.693 762.131,-412.524 655.23,-396 640.39,-393.706 624.415,-391.223 609.393,-388.881"/>
<polygon fill="black" stroke="black" points="609.591,-385.37 599.171,-387.286 608.512,-392.286 609.591,-385.37"/>
</g>
<!-- HITs/moebius -->
<g id="node38" class="node"><title>HITs/moebius</title>
<ellipse fill="none" stroke="black" cx="1533.23" cy="-90" rx="63.0888" ry="18"/>
<text text-anchor="middle" x="1533.23" y="-86.3" font-family="Times New Roman,serif" font-size="14.00">HITs/moebius</text>
</g>
<!-- HITs/graph&#45;&gt;HITs/moebius -->
<g id="edge44" class="edge"><title>HITs/graph&#45;&gt;HITs/moebius</title>
<path fill="none" stroke="black" d="M1054.08,-449.585C1163.69,-449.785 1411.09,-444.662 1477.23,-396 1512.02,-370.406 1516.23,-350.187 1516.23,-307 1516.23,-307 1516.23,-307 1516.23,-233 1516.23,-192.931 1522.99,-146.949 1527.98,-118.433"/>
<polygon fill="black" stroke="black" points="1531.46,-118.871 1529.79,-108.408 1524.57,-117.627 1531.46,-118.871"/>
</g>
<!-- types/precategory -->
<g id="node39" class="node"><title>types/precategory</title>
<ellipse fill="none" stroke="black" cx="1167.23" cy="-378" rx="75.2868" ry="18"/>
<text text-anchor="middle" x="1167.23" y="-374.3" font-family="Times New Roman,serif" font-size="14.00">types/precategory</text>
</g>
<!-- HITs/graph&#45;&gt;types/precategory -->
<g id="edge45" class="edge"><title>HITs/graph&#45;&gt;types/precategory</title>
<path fill="none" stroke="black" d="M1033.24,-435.503C1058.63,-424.795 1094.42,-409.703 1122.63,-397.809"/>
<polygon fill="black" stroke="black" points="1124.02,-401.02 1131.87,-393.909 1121.3,-394.57 1124.02,-401.02"/>
</g>
<!-- HITs/ntrunc -->
<g id="node32" class="node"><title>HITs/ntrunc</title>
<ellipse fill="none" stroke="black" cx="392.23" cy="-18" rx="55.4913" ry="18"/>
<text text-anchor="middle" x="392.23" y="-14.3" font-family="Times New Roman,serif" font-size="14.00">HITs/ntrunc</text>
</g>
<!-- HITs/circle&#45;&gt;HITs/ntrunc -->
<g id="edge36" class="edge"><title>HITs/circle&#45;&gt;HITs/ntrunc</title>
<path fill="none" stroke="black" d="M392.23,-71.6966C392.23,-63.9827 392.23,-54.7125 392.23,-46.1124"/>
<polygon fill="black" stroke="black" points="395.73,-46.1043 392.23,-36.1043 388.73,-46.1044 395.73,-46.1043"/>
</g>
<!-- theorems/hopf -->
<g id="node33" class="node"><title>theorems/hopf</title>
<ellipse fill="none" stroke="black" cx="1000.23" cy="-18" rx="63.8893" ry="18"/>
<text text-anchor="middle" x="1000.23" y="-14.3" font-family="Times New Roman,serif" font-size="14.00">theorems/hopf</text>
</g>
<!-- HITs/circle&#45;&gt;theorems/hopf -->
<g id="edge37" class="edge"><title>HITs/circle&#45;&gt;theorems/hopf</title>
<path fill="none" stroke="black" d="M436.08,-80.0512C450.999,-77.2086 467.8,-74.2282 483.23,-72 641.928,-49.0821 829.432,-32.4424 929.274,-24.4085"/>
<polygon fill="black" stroke="black" points="929.85,-27.8737 939.54,-23.5879 929.293,-20.8959 929.85,-27.8737"/>
</g>
<!-- theorems/nat&#45;&gt;HITs/circle -->
<g id="edge66" class="edge"><title>theorems/nat&#45;&gt;HITs/circle</title>
<path fill="none" stroke="black" d="M438.011,-144.411C430.539,-135.693 421.24,-124.845 412.98,-115.208"/>
<polygon fill="black" stroke="black" points="415.513,-112.785 406.347,-107.47 410.198,-117.34 415.513,-112.785"/>
</g>
<!-- cubical/cubes -->
<g id="node26" class="node"><title>cubical/cubes</title>
<ellipse fill="none" stroke="black" cx="668.23" cy="-234" rx="60.3893" ry="18"/>
<text text-anchor="middle" x="668.23" y="-230.3" font-family="Times New Roman,serif" font-size="14.00">cubical/cubes</text>
</g>
<!-- types/product&#45;&gt;cubical/cubes -->
<g id="edge27" class="edge"><title>types/product&#45;&gt;cubical/cubes</title>
<path fill="none" stroke="black" d="M668.983,-287.697C668.873,-279.983 668.74,-270.712 668.617,-262.112"/>
<polygon fill="black" stroke="black" points="672.117,-262.053 668.474,-252.104 665.118,-262.153 672.117,-262.053"/>
</g>
<!-- theorems/ua -->
<g id="node27" class="node"><title>theorems/ua</title>
<ellipse fill="none" stroke="black" cx="535.23" cy="-234" rx="54.6905" ry="18"/>
<text text-anchor="middle" x="535.23" y="-230.3" font-family="Times New Roman,serif" font-size="14.00">theorems/ua</text>
</g>
<!-- types/product&#45;&gt;theorems/ua -->
<g id="edge28" class="edge"><title>types/product&#45;&gt;theorems/ua</title>
<path fill="none" stroke="black" d="M640.484,-289.983C620.432,-279.508 593.505,-265.442 571.906,-254.159"/>
<polygon fill="black" stroke="black" points="573.496,-251.041 563.011,-249.513 570.254,-257.245 573.496,-251.041"/>
</g>
<!-- cubical/path -->
<g id="node46" class="node"><title>cubical/path</title>
<ellipse fill="none" stroke="black" cx="744.23" cy="-162" rx="54.6905" ry="18"/>
<text text-anchor="middle" x="744.23" y="-158.3" font-family="Times New Roman,serif" font-size="14.00">cubical/path</text>
</g>
<!-- cubical/cubes&#45;&gt;cubical/path -->
<g id="edge58" class="edge"><title>cubical/cubes&#45;&gt;cubical/path</title>
<path fill="none" stroke="black" d="M685.857,-216.765C695.737,-207.665 708.226,-196.162 719.114,-186.134"/>
<polygon fill="black" stroke="black" points="721.714,-188.497 726.699,-179.147 716.972,-183.348 721.714,-188.497"/>
</g>
<!-- theorems/ua&#45;&gt;theorems/nat -->
<g id="edge67" class="edge"><title>theorems/ua&#45;&gt;theorems/nat</title>
<path fill="none" stroke="black" d="M515.98,-216.765C505.085,-207.576 491.286,-195.938 479.314,-185.842"/>
<polygon fill="black" stroke="black" points="481.277,-182.919 471.376,-179.147 476.764,-188.27 481.277,-182.919"/>
</g>
<!-- cubical/V -->
<g id="node49" class="node"><title>cubical/V</title>
<ellipse fill="none" stroke="black" cx="537.23" cy="-90" rx="45.4919" ry="18"/>
<text text-anchor="middle" x="537.23" y="-86.3" font-family="Times New Roman,serif" font-size="14.00">cubical/V</text>
</g>
<!-- theorems/ua&#45;&gt;cubical/V -->
<g id="edge68" class="edge"><title>theorems/ua&#45;&gt;cubical/V</title>
<path fill="none" stroke="black" d="M535.471,-215.871C535.812,-191.67 536.438,-147.211 536.844,-118.393"/>
<polygon fill="black" stroke="black" points="540.347,-118.238 536.988,-108.189 533.347,-118.139 540.347,-118.238"/>
</g>
<!-- theorems/fibration&#45;&gt;theorems/hopf -->
<g id="edge64" class="edge"><title>theorems/fibration&#45;&gt;theorems/hopf</title>
<path fill="none" stroke="black" d="M1379.54,-290.279C1396.11,-281.771 1413.83,-269.27 1423.23,-252 1430.88,-237.947 1431.83,-229.492 1423.23,-216 1344.27,-92.1251 1164.94,-44.8977 1067.04,-27.8863"/>
<polygon fill="black" stroke="black" points="1067.4,-24.3982 1056.96,-26.1917 1066.24,-31.3013 1067.4,-24.3982"/>
</g>
<!-- types/swale -->
<g id="node30" class="node"><title>types/swale</title>
<ellipse fill="none" stroke="black" cx="214.23" cy="-378" rx="52.7911" ry="18"/>
<text text-anchor="middle" x="214.23" y="-374.3" font-family="Times New Roman,serif" font-size="14.00">types/swale</text>
</g>
<!-- types/swale&#45;&gt;algebra/group -->
<g id="edge31" class="edge"><title>types/swale&#45;&gt;algebra/group</title>
<path fill="none" stroke="black" d="M187.816,-362.326C169.418,-352.105 144.65,-338.344 124.417,-327.104"/>
<polygon fill="black" stroke="black" points="125.921,-323.935 115.479,-322.138 122.521,-330.054 125.921,-323.935"/>
</g>
<!-- types/swale&#45;&gt;HITs/reals -->
<g id="edge32" class="edge"><title>types/swale&#45;&gt;HITs/reals</title>
<path fill="none" stroke="black" d="M214.477,-359.697C214.587,-351.983 214.72,-342.712 214.843,-334.112"/>
<polygon fill="black" stroke="black" points="218.342,-334.153 214.986,-324.104 211.343,-334.053 218.342,-334.153"/>
</g>
<!-- HITs/suspension&#45;&gt;HITs/circle -->
<g id="edge53" class="edge"><title>HITs/suspension&#45;&gt;HITs/circle</title>
<path fill="none" stroke="black" d="M358.195,-287.849C364.609,-250.753 379.814,-162.81 387.544,-118.103"/>
<polygon fill="black" stroke="black" points="390.996,-118.683 389.251,-108.232 384.098,-117.49 390.996,-118.683"/>
</g>
<!-- HITs/colimit&#45;&gt;HITs/truncation -->
<g id="edge38" class="edge"><title>HITs/colimit&#45;&gt;HITs/truncation</title>
<path fill="none" stroke="black" d="M884.332,-362.666C906.282,-352.213 936.277,-337.93 960.386,-326.449"/>
<polygon fill="black" stroke="black" points="962.12,-329.5 969.644,-322.041 959.111,-323.18 962.12,-329.5"/>
</g>
<!-- HITs/generalized&#45;&gt;HITs/truncation -->
<g id="edge39" class="edge"><title>HITs/generalized&#45;&gt;HITs/truncation</title>
<path fill="none" stroke="black" d="M1001.23,-359.697C1001.23,-351.983 1001.23,-342.712 1001.23,-334.112"/>
<polygon fill="black" stroke="black" points="1004.73,-334.104 1001.23,-324.104 997.73,-334.104 1004.73,-334.104"/>
</g>
<!-- HITs/rat -->
<g id="node40" class="node"><title>HITs/rat</title>
<ellipse fill="none" stroke="black" cx="1205.23" cy="-306" rx="41.6928" ry="18"/>
<text text-anchor="middle" x="1205.23" y="-302.3" font-family="Times New Roman,serif" font-size="14.00">HITs/rat</text>
</g>
<!-- HITs/int&#45;&gt;HITs/rat -->
<g id="edge46" class="edge"><title>HITs/int&#45;&gt;HITs/rat</title>
<path fill="none" stroke="black" d="M1280.87,-362.155C1267.25,-352.225 1249.13,-339.011 1234.04,-328.006"/>
<polygon fill="black" stroke="black" points="1235.7,-324.888 1225.56,-321.824 1231.58,-330.544 1235.7,-324.888"/>
</g>
<!-- HITs/pushout&#45;&gt;HITs/reals -->
<g id="edge50" class="edge"><title>HITs/pushout&#45;&gt;HITs/reals</title>
<path fill="none" stroke="black" d="M501.138,-365.609C492.874,-363.647 484.308,-361.695 476.23,-360 386.554,-341.179 362.44,-344.918 273.23,-324 269.319,-323.083 265.281,-322.06 261.241,-320.984"/>
<polygon fill="black" stroke="black" points="261.838,-317.517 251.267,-318.226 259.973,-324.264 261.838,-317.517"/>
</g>
<!-- HITs/pushout&#45;&gt;HITs/suspension -->
<g id="edge51" class="edge"><title>HITs/pushout&#45;&gt;HITs/suspension</title>
<path fill="none" stroke="black" d="M509.403,-363.503C479.311,-352.475 436.529,-336.795 403.663,-324.75"/>
<polygon fill="black" stroke="black" points="404.835,-321.452 394.242,-321.297 402.427,-328.025 404.835,-321.452"/>
</g>
<!-- HITs/join -->
<g id="node41" class="node"><title>HITs/join</title>
<ellipse fill="none" stroke="black" cx="544.23" cy="-306" rx="45.4919" ry="18"/>
<text text-anchor="middle" x="544.23" y="-302.3" font-family="Times New Roman,serif" font-size="14.00">HITs/join</text>
</g>
<!-- HITs/pushout&#45;&gt;HITs/join -->
<g id="edge52" class="edge"><title>HITs/pushout&#45;&gt;HITs/join</title>
<path fill="none" stroke="black" d="M545.736,-359.697C545.515,-351.983 545.25,-342.712 545.005,-334.112"/>
<polygon fill="black" stroke="black" points="548.503,-334 544.719,-324.104 541.506,-334.2 548.503,-334"/>
</g>
<!-- cubical/connection -->
<g id="node45" class="node"><title>cubical/connection</title>
<ellipse fill="none" stroke="black" cx="979.23" cy="-90" rx="79.0865" ry="18"/>
<text text-anchor="middle" x="979.23" y="-86.3" font-family="Times New Roman,serif" font-size="14.00">cubical/connection</text>
</g>
<!-- cubical/path&#45;&gt;HITs/moebius -->
<g id="edge59" class="edge"><title>cubical/path&#45;&gt;HITs/moebius</title>
<path fill="none" stroke="black" d="M796.304,-156.38C933.979,-144.166 1307.68,-111.011 1463.52,-97.1848"/>
<polygon fill="black" stroke="black" points="1464.26,-100.633 1473.91,-96.2628 1463.64,-93.6603 1464.26,-100.633"/>
</g>
<!-- cubical/path&#45;&gt;cubical/connection -->
<g id="edge60" class="edge"><title>cubical/path&#45;&gt;cubical/connection</title>
<path fill="none" stroke="black" d="M783.299,-149.362C821.561,-137.965 880.244,-120.485 923.417,-107.625"/>
<polygon fill="black" stroke="black" points="924.622,-110.918 933.207,-104.709 922.624,-104.21 924.622,-110.918"/>
</g>
<!-- cubical/example -->
<g id="node47" class="node"><title>cubical/example</title>
<ellipse fill="none" stroke="black" cx="669.23" cy="-90" rx="68.7879" ry="18"/>
<text text-anchor="middle" x="669.23" y="-86.3" font-family="Times New Roman,serif" font-size="14.00">cubical/example</text>
</g>
<!-- cubical/path&#45;&gt;cubical/example -->
<g id="edge61" class="edge"><title>cubical/path&#45;&gt;cubical/example</title>
<path fill="none" stroke="black" d="M726.835,-144.765C717.224,-135.795 705.112,-124.49 694.478,-114.564"/>
<polygon fill="black" stroke="black" points="696.75,-111.898 687.052,-107.633 691.974,-117.015 696.75,-111.898"/>
</g>
<!-- cubical/square -->
<g id="node48" class="node"><title>cubical/square</title>
<ellipse fill="none" stroke="black" cx="819.23" cy="-90" rx="63.0888" ry="18"/>
<text text-anchor="middle" x="819.23" y="-86.3" font-family="Times New Roman,serif" font-size="14.00">cubical/square</text>
</g>
<!-- cubical/path&#45;&gt;cubical/square -->
<g id="edge62" class="edge"><title>cubical/path&#45;&gt;cubical/square</title>
<path fill="none" stroke="black" d="M761.625,-144.765C771.305,-135.73 783.523,-124.326 794.214,-114.349"/>
<polygon fill="black" stroke="black" points="796.747,-116.772 801.67,-107.39 791.971,-111.654 796.747,-116.772"/>
</g>
<!-- cubical/path&#45;&gt;cubical/V -->
<g id="edge63" class="edge"><title>cubical/path&#45;&gt;cubical/V</title>
<path fill="none" stroke="black" d="M707.223,-148.485C671.675,-136.464 617.979,-118.306 580.477,-105.624"/>
<polygon fill="black" stroke="black" points="581.43,-102.252 570.835,-102.364 579.187,-108.883 581.43,-102.252"/>
</g>
<!-- theorems/functions -->
<g id="node50" class="node"><title>theorems/functions</title>
<ellipse fill="none" stroke="black" cx="788.23" cy="-666" rx="79.8859" ry="18"/>
<text text-anchor="middle" x="788.23" y="-662.3" font-family="Times New Roman,serif" font-size="14.00">theorems/functions</text>
</g>
<!-- theorems/functions&#45;&gt;types/equiv -->
<g id="edge65" class="edge"><title>theorems/functions&#45;&gt;types/equiv</title>
<path fill="none" stroke="black" d="M757.485,-649.291C736.914,-638.78 709.737,-624.894 688.018,-613.797"/>
<polygon fill="black" stroke="black" points="689.577,-610.663 679.079,-609.229 686.392,-616.896 689.577,-610.663"/>
</g>
<!-- theorems/topology -->
<g id="node51" class="node"><title>theorems/topology</title>
<ellipse fill="none" stroke="black" cx="819.23" cy="-810" rx="79.0865" ry="18"/>
<text text-anchor="middle" x="819.23" y="-806.3" font-family="Times New Roman,serif" font-size="14.00">theorems/topology</text>
</g>
</g>
</svg>
