<?xml version="1.0" encoding="UTF-8" standalone="no"?>
<!DOCTYPE svg PUBLIC "-//W3C//DTD SVG 1.1//EN"
 "http://www.w3.org/Graphics/SVG/1.1/DTD/svg11.dtd">
<!-- Generated by graphviz version 2.38.0 (20140413.2041)
 -->
<!-- Title: dependency_map Pages: 1 -->
<svg width="1475pt" height="764pt"
 viewBox="0.00 0.00 1474.56 764.00" xmlns="http://www.w3.org/2000/svg" xmlns:xlink="http://www.w3.org/1999/xlink">
<g id="graph0" class="graph" transform="scale(1 1) rotate(0) translate(4 760)">
<title>dependency_map</title>
<polygon fill="white" stroke="none" points="-4,4 -4,-760 1470.56,-760 1470.56,4 -4,4"/>
<!-- proto -->
<g id="node1" class="node"><title>proto</title>
<ellipse fill="none" stroke="black" cx="378.965" cy="-738" rx="30.5947" ry="18"/>
<text text-anchor="middle" x="378.965" y="-734.3" font-family="Times New Roman,serif" font-size="14.00">proto</text>
</g>
<!-- types/eq -->
<g id="node2" class="node"><title>types/eq</title>
<ellipse fill="none" stroke="black" cx="438.965" cy="-666" rx="41.6928" ry="18"/>
<text text-anchor="middle" x="438.965" y="-662.3" font-family="Times New Roman,serif" font-size="14.00">types/eq</text>
</g>
<!-- proto&#45;&gt;types/eq -->
<g id="edge1" class="edge"><title>proto&#45;&gt;types/eq</title>
<path fill="none" stroke="black" d="M392.281,-721.465C399.909,-712.566 409.646,-701.205 418.253,-691.164"/>
<polygon fill="black" stroke="black" points="421,-693.338 424.85,-683.467 415.685,-688.782 421,-693.338"/>
</g>
<!-- support -->
<g id="node4" class="node"><title>support</title>
<ellipse fill="none" stroke="black" cx="376.965" cy="-594" rx="38.9931" ry="18"/>
<text text-anchor="middle" x="376.965" y="-590.3" font-family="Times New Roman,serif" font-size="14.00">support</text>
</g>
<!-- types/eq&#45;&gt;support -->
<g id="edge12" class="edge"><title>types/eq&#45;&gt;support</title>
<path fill="none" stroke="black" d="M424.585,-648.765C416.682,-639.841 406.732,-628.608 397.974,-618.719"/>
<polygon fill="black" stroke="black" points="400.517,-616.313 391.267,-611.147 395.277,-620.954 400.517,-616.313"/>
</g>
<!-- types/dep_path -->
<g id="node19" class="node"><title>types/dep_path</title>
<ellipse fill="none" stroke="black" cx="500.965" cy="-594" rx="66.8882" ry="18"/>
<text text-anchor="middle" x="500.965" y="-590.3" font-family="Times New Roman,serif" font-size="14.00">types/dep_path</text>
</g>
<!-- types/eq&#45;&gt;types/dep_path -->
<g id="edge13" class="edge"><title>types/eq&#45;&gt;types/dep_path</title>
<path fill="none" stroke="black" d="M453.345,-648.765C461.135,-639.969 470.914,-628.928 479.58,-619.144"/>
<polygon fill="black" stroke="black" points="482.222,-621.44 486.233,-611.633 476.982,-616.799 482.222,-621.44"/>
</g>
<!-- meta/hott_theory -->
<g id="node3" class="node"><title>meta/hott_theory</title>
<ellipse fill="none" stroke="black" cx="499.965" cy="-738" rx="72.2875" ry="18"/>
<text text-anchor="middle" x="499.965" y="-734.3" font-family="Times New Roman,serif" font-size="14.00">meta/hott_theory</text>
</g>
<!-- meta/hott_theory&#45;&gt;types/eq -->
<g id="edge2" class="edge"><title>meta/hott_theory&#45;&gt;types/eq</title>
<path fill="none" stroke="black" d="M485.199,-720.055C477.596,-711.33 468.197,-700.544 459.863,-690.981"/>
<polygon fill="black" stroke="black" points="462.384,-688.547 453.175,-683.307 457.106,-693.146 462.384,-688.547"/>
</g>
<!-- types/equiv -->
<g id="node5" class="node"><title>types/equiv</title>
<ellipse fill="none" stroke="black" cx="500.965" cy="-522" rx="51.9908" ry="18"/>
<text text-anchor="middle" x="500.965" y="-518.3" font-family="Times New Roman,serif" font-size="14.00">types/equiv</text>
</g>
<!-- support&#45;&gt;types/equiv -->
<g id="edge3" class="edge"><title>support&#45;&gt;types/equiv</title>
<path fill="none" stroke="black" d="M400.58,-579.669C419.066,-569.233 445.057,-554.561 465.96,-542.761"/>
<polygon fill="black" stroke="black" points="467.878,-545.698 474.865,-537.734 464.437,-539.602 467.878,-545.698"/>
</g>
<!-- HITs/infinitesimal -->
<g id="node12" class="node"><title>HITs/infinitesimal</title>
<ellipse fill="none" stroke="black" stroke-dasharray="5,2" cx="150.965" cy="-450" rx="74.9875" ry="18"/>
<text text-anchor="middle" x="150.965" y="-446.3" font-family="Times New Roman,serif" font-size="14.00">HITs/infinitesimal</text>
</g>
<!-- types/equiv&#45;&gt;HITs/infinitesimal -->
<g id="edge14" class="edge"><title>types/equiv&#45;&gt;HITs/infinitesimal</title>
<path fill="none" stroke="black" d="M456.715,-512.226C403.92,-501.747 312.987,-483.668 234.965,-468 228.838,-466.77 222.461,-465.485 216.08,-464.198"/>
<polygon fill="black" stroke="black" points="216.58,-460.729 206.085,-462.18 215.195,-467.59 216.58,-460.729"/>
</g>
<!-- types/coproduct -->
<g id="node17" class="node"><title>types/coproduct</title>
<ellipse fill="none" stroke="black" cx="314.965" cy="-450" rx="70.6878" ry="18"/>
<text text-anchor="middle" x="314.965" y="-446.3" font-family="Times New Roman,serif" font-size="14.00">types/coproduct</text>
</g>
<!-- types/equiv&#45;&gt;types/coproduct -->
<g id="edge15" class="edge"><title>types/equiv&#45;&gt;types/coproduct</title>
<path fill="none" stroke="black" d="M466.85,-508.161C437.671,-497.18 395.355,-481.254 362.795,-469.001"/>
<polygon fill="black" stroke="black" points="363.621,-465.572 353.029,-465.325 361.155,-472.123 363.621,-465.572"/>
</g>
<!-- types/heq -->
<g id="node20" class="node"><title>types/heq</title>
<ellipse fill="none" stroke="black" cx="666.965" cy="-450" rx="46.2923" ry="18"/>
<text text-anchor="middle" x="666.965" y="-446.3" font-family="Times New Roman,serif" font-size="14.00">types/heq</text>
</g>
<!-- types/equiv&#45;&gt;types/heq -->
<g id="edge16" class="edge"><title>types/equiv&#45;&gt;types/heq</title>
<path fill="none" stroke="black" d="M532.579,-507.669C559.539,-496.3 598.425,-479.902 627.438,-467.668"/>
<polygon fill="black" stroke="black" points="629.012,-470.803 636.867,-463.692 626.293,-464.353 629.012,-470.803"/>
</g>
<!-- types/lost -->
<g id="node21" class="node"><title>types/lost</title>
<ellipse fill="none" stroke="black" cx="776.965" cy="-450" rx="46.2923" ry="18"/>
<text text-anchor="middle" x="776.965" y="-446.3" font-family="Times New Roman,serif" font-size="14.00">types/lost</text>
</g>
<!-- types/equiv&#45;&gt;types/lost -->
<g id="edge17" class="edge"><title>types/equiv&#45;&gt;types/lost</title>
<path fill="none" stroke="black" d="M543.539,-511.646C588.195,-501.635 660.321,-484.9 721.965,-468 725.498,-467.031 729.147,-465.992 732.806,-464.921"/>
<polygon fill="black" stroke="black" points="733.864,-468.258 742.444,-462.042 731.861,-461.551 733.864,-468.258"/>
</g>
<!-- types/unit -->
<g id="node22" class="node"><title>types/unit</title>
<ellipse fill="none" stroke="black" cx="449.965" cy="-450" rx="46.2923" ry="18"/>
<text text-anchor="middle" x="449.965" y="-446.3" font-family="Times New Roman,serif" font-size="14.00">types/unit</text>
</g>
<!-- types/equiv&#45;&gt;types/unit -->
<g id="edge18" class="edge"><title>types/equiv&#45;&gt;types/unit</title>
<path fill="none" stroke="black" d="M488.879,-504.411C482.654,-495.868 474.939,-485.278 468.024,-475.787"/>
<polygon fill="black" stroke="black" points="470.682,-473.491 461.965,-467.47 465.024,-477.613 470.682,-473.491"/>
</g>
<!-- types/sigma -->
<g id="node23" class="node"><title>types/sigma</title>
<ellipse fill="none" stroke="black" cx="750.965" cy="-378" rx="53.8905" ry="18"/>
<text text-anchor="middle" x="750.965" y="-374.3" font-family="Times New Roman,serif" font-size="14.00">types/sigma</text>
</g>
<!-- types/equiv&#45;&gt;types/sigma -->
<g id="edge19" class="edge"><title>types/equiv&#45;&gt;types/sigma</title>
<path fill="none" stroke="black" d="M517.792,-504.681C538.534,-485.267 575.526,-452.866 611.965,-432 640.21,-415.826 674.331,-402.732 701.698,-393.606"/>
<polygon fill="black" stroke="black" points="703.03,-396.853 711.452,-390.425 700.859,-390.198 703.03,-396.853"/>
</g>
<!-- structures -->
<g id="node6" class="node"><title>structures</title>
<ellipse fill="none" stroke="black" cx="326.965" cy="-378" rx="46.2923" ry="18"/>
<text text-anchor="middle" x="326.965" y="-374.3" font-family="Times New Roman,serif" font-size="14.00">structures</text>
</g>
<!-- HITs/interval -->
<g id="node7" class="node"><title>HITs/interval</title>
<ellipse fill="none" stroke="black" cx="666.965" cy="-306" rx="57.6901" ry="18"/>
<text text-anchor="middle" x="666.965" y="-302.3" font-family="Times New Roman,serif" font-size="14.00">HITs/interval</text>
</g>
<!-- structures&#45;&gt;HITs/interval -->
<g id="edge4" class="edge"><title>structures&#45;&gt;HITs/interval</title>
<path fill="none" stroke="black" d="M368.279,-369.733C421.882,-360.133 518.219,-342.29 599.965,-324 604.624,-322.958 609.453,-321.829 614.286,-320.665"/>
<polygon fill="black" stroke="black" points="615.281,-324.025 624.161,-318.245 613.615,-317.226 615.281,-324.025"/>
</g>
<!-- HITs/truncation -->
<g id="node8" class="node"><title>HITs/truncation</title>
<ellipse fill="none" stroke="black" cx="1011.96" cy="-234" rx="68.4888" ry="18"/>
<text text-anchor="middle" x="1011.96" y="-230.3" font-family="Times New Roman,serif" font-size="14.00">HITs/truncation</text>
</g>
<!-- structures&#45;&gt;HITs/truncation -->
<g id="edge5" class="edge"><title>structures&#45;&gt;HITs/truncation</title>
<path fill="none" stroke="black" d="M372.786,-375.677C449.152,-372.451 606.638,-361.433 733.965,-324 769.823,-313.458 774.849,-300.798 809.965,-288 836.098,-278.476 903.465,-261.331 953.253,-249.12"/>
<polygon fill="black" stroke="black" points="954.391,-252.445 963.274,-246.671 952.729,-245.645 954.391,-252.445"/>
</g>
<!-- algebra/core -->
<g id="node9" class="node"><title>algebra/core</title>
<ellipse fill="none" stroke="black" cx="85.965" cy="-306" rx="55.4913" ry="18"/>
<text text-anchor="middle" x="85.965" y="-302.3" font-family="Times New Roman,serif" font-size="14.00">algebra/core</text>
</g>
<!-- structures&#45;&gt;algebra/core -->
<g id="edge6" class="edge"><title>structures&#45;&gt;algebra/core</title>
<path fill="none" stroke="black" d="M291.145,-366.596C249.977,-354.638 182.146,-334.936 135.831,-321.484"/>
<polygon fill="black" stroke="black" points="136.582,-318.057 126.003,-318.629 134.63,-324.78 136.582,-318.057"/>
</g>
<!-- types/nat -->
<g id="node10" class="node"><title>types/nat</title>
<ellipse fill="none" stroke="black" cx="364.965" cy="-306" rx="43.5923" ry="18"/>
<text text-anchor="middle" x="364.965" y="-302.3" font-family="Times New Roman,serif" font-size="14.00">types/nat</text>
</g>
<!-- structures&#45;&gt;types/nat -->
<g id="edge7" class="edge"><title>structures&#45;&gt;types/nat</title>
<path fill="none" stroke="black" d="M336.164,-360.055C340.598,-351.887 346.013,-341.912 350.946,-332.824"/>
<polygon fill="black" stroke="black" points="354.156,-334.247 355.851,-323.789 348.004,-330.908 354.156,-334.247"/>
</g>
<!-- types/product -->
<g id="node27" class="node"><title>types/product</title>
<ellipse fill="none" stroke="black" cx="653.965" cy="-234" rx="61.99" ry="18"/>
<text text-anchor="middle" x="653.965" y="-230.3" font-family="Times New Roman,serif" font-size="14.00">types/product</text>
</g>
<!-- HITs/interval&#45;&gt;types/product -->
<g id="edge44" class="edge"><title>HITs/interval&#45;&gt;types/product</title>
<path fill="none" stroke="black" d="M663.752,-287.697C662.319,-279.983 660.597,-270.712 659,-262.112"/>
<polygon fill="black" stroke="black" points="662.409,-261.297 657.142,-252.104 655.526,-262.575 662.409,-261.297"/>
</g>
<!-- theorems/fibration -->
<g id="node29" class="node"><title>theorems/fibration</title>
<ellipse fill="none" stroke="black" cx="848.965" cy="-234" rx="76.8869" ry="18"/>
<text text-anchor="middle" x="848.965" y="-230.3" font-family="Times New Roman,serif" font-size="14.00">theorems/fibration</text>
</g>
<!-- HITs/interval&#45;&gt;theorems/fibration -->
<g id="edge45" class="edge"><title>HITs/interval&#45;&gt;theorems/fibration</title>
<path fill="none" stroke="black" d="M702.056,-291.503C730.327,-280.63 770.351,-265.236 801.485,-253.261"/>
<polygon fill="black" stroke="black" points="802.763,-256.52 810.84,-249.664 800.25,-249.987 802.763,-256.52"/>
</g>
<!-- theorems/prop -->
<g id="node38" class="node"><title>theorems/prop</title>
<ellipse fill="none" stroke="black" cx="723.965" cy="-162" rx="63.8893" ry="18"/>
<text text-anchor="middle" x="723.965" y="-158.3" font-family="Times New Roman,serif" font-size="14.00">theorems/prop</text>
</g>
<!-- HITs/interval&#45;&gt;theorems/prop -->
<g id="edge46" class="edge"><title>HITs/interval&#45;&gt;theorems/prop</title>
<path fill="none" stroke="black" d="M691.882,-289.603C704.321,-280.395 718.142,-267.477 724.965,-252 733.51,-232.616 732.616,-208.469 729.942,-190.22"/>
<polygon fill="black" stroke="black" points="733.369,-189.496 728.22,-180.237 726.471,-190.687 733.369,-189.496"/>
</g>
<!-- HITs/truncation&#45;&gt;theorems/prop -->
<g id="edge51" class="edge"><title>HITs/truncation&#45;&gt;theorems/prop</title>
<path fill="none" stroke="black" d="M963.435,-221.205C912.984,-208.942 834.076,-189.763 780.757,-176.804"/>
<polygon fill="black" stroke="black" points="781.325,-173.34 770.781,-174.379 779.671,-180.142 781.325,-173.34"/>
</g>
<!-- HITs/simplicial -->
<g id="node40" class="node"><title>HITs/simplicial</title>
<ellipse fill="none" stroke="black" cx="1030.96" cy="-162" rx="65.7887" ry="18"/>
<text text-anchor="middle" x="1030.96" y="-158.3" font-family="Times New Roman,serif" font-size="14.00">HITs/simplicial</text>
</g>
<!-- HITs/truncation&#45;&gt;HITs/simplicial -->
<g id="edge52" class="edge"><title>HITs/truncation&#45;&gt;HITs/simplicial</title>
<path fill="none" stroke="black" d="M1016.66,-215.697C1018.78,-207.898 1021.33,-198.509 1023.68,-189.829"/>
<polygon fill="black" stroke="black" points="1027.08,-190.672 1026.32,-180.104 1020.33,-188.838 1027.08,-190.672"/>
</g>
<!-- theorems/mere_eq_lemma -->
<g id="node41" class="node"><title>theorems/mere_eq_lemma</title>
<ellipse fill="none" stroke="black" cx="1220.96" cy="-162" rx="105.881" ry="18"/>
<text text-anchor="middle" x="1220.96" y="-158.3" font-family="Times New Roman,serif" font-size="14.00">theorems/mere_eq_lemma</text>
</g>
<!-- HITs/truncation&#45;&gt;theorems/mere_eq_lemma -->
<g id="edge53" class="edge"><title>HITs/truncation&#45;&gt;theorems/mere_eq_lemma</title>
<path fill="none" stroke="black" d="M1052.76,-219.337C1084.9,-208.572 1130.04,-193.452 1165.47,-181.586"/>
<polygon fill="black" stroke="black" points="1166.82,-184.827 1175.19,-178.332 1164.59,-178.189 1166.82,-184.827"/>
</g>
<!-- theorems/graphs -->
<g id="node42" class="node"><title>theorems/graphs</title>
<ellipse fill="none" stroke="black" cx="876.965" cy="-162" rx="70.6878" ry="18"/>
<text text-anchor="middle" x="876.965" y="-158.3" font-family="Times New Roman,serif" font-size="14.00">theorems/graphs</text>
</g>
<!-- HITs/truncation&#45;&gt;theorems/graphs -->
<g id="edge54" class="edge"><title>HITs/truncation&#45;&gt;theorems/graphs</title>
<path fill="none" stroke="black" d="M982.339,-217.638C962.867,-207.542 937.178,-194.221 916.039,-183.261"/>
<polygon fill="black" stroke="black" points="917.477,-180.064 906.989,-178.568 914.255,-186.278 917.477,-180.064"/>
</g>
<!-- algebra/group -->
<g id="node16" class="node"><title>algebra/group</title>
<ellipse fill="none" stroke="black" cx="87.965" cy="-234" rx="60.3893" ry="18"/>
<text text-anchor="middle" x="87.965" y="-230.3" font-family="Times New Roman,serif" font-size="14.00">algebra/group</text>
</g>
<!-- algebra/core&#45;&gt;algebra/group -->
<g id="edge8" class="edge"><title>algebra/core&#45;&gt;algebra/group</title>
<path fill="none" stroke="black" d="M86.4594,-287.697C86.6798,-279.983 86.9446,-270.712 87.1903,-262.112"/>
<polygon fill="black" stroke="black" points="90.6892,-262.2 87.4763,-252.104 83.692,-262 90.6892,-262.2"/>
</g>
<!-- HITs/circle -->
<g id="node11" class="node"><title>HITs/circle</title>
<ellipse fill="none" stroke="black" stroke-dasharray="5,2" cx="308.965" cy="-90" rx="51.9908" ry="18"/>
<text text-anchor="middle" x="308.965" y="-86.3" font-family="Times New Roman,serif" font-size="14.00">HITs/circle</text>
</g>
<!-- types/nat&#45;&gt;HITs/circle -->
<g id="edge26" class="edge"><title>types/nat&#45;&gt;HITs/circle</title>
<path fill="none" stroke="black" d="M343.195,-290.317C331.28,-280.92 317.62,-267.584 310.965,-252 292.243,-208.157 297.578,-151.277 303.226,-118.188"/>
<polygon fill="black" stroke="black" points="306.673,-118.796 305.041,-108.327 299.789,-117.529 306.673,-118.796"/>
</g>
<!-- HITs/ntrunc -->
<g id="node13" class="node"><title>HITs/ntrunc</title>
<ellipse fill="none" stroke="black" stroke-dasharray="5,2" cx="308.965" cy="-18" rx="55.4913" ry="18"/>
<text text-anchor="middle" x="308.965" y="-14.3" font-family="Times New Roman,serif" font-size="14.00">HITs/ntrunc</text>
</g>
<!-- HITs/circle&#45;&gt;HITs/ntrunc -->
<g id="edge35" class="edge"><title>HITs/circle&#45;&gt;HITs/ntrunc</title>
<path fill="none" stroke="black" d="M308.965,-71.6966C308.965,-63.9827 308.965,-54.7125 308.965,-46.1124"/>
<polygon fill="black" stroke="black" points="312.465,-46.1043 308.965,-36.1043 305.465,-46.1044 312.465,-46.1043"/>
</g>
<!-- theorems/ua -->
<g id="node14" class="node"><title>theorems/ua</title>
<ellipse fill="none" stroke="black" stroke-dasharray="5,2" cx="444.965" cy="-162" rx="54.6905" ry="18"/>
<text text-anchor="middle" x="444.965" y="-158.3" font-family="Times New Roman,serif" font-size="14.00">theorems/ua</text>
</g>
<!-- theorems/ua&#45;&gt;HITs/circle -->
<g id="edge62" class="edge"><title>theorems/ua&#45;&gt;HITs/circle</title>
<path fill="none" stroke="black" d="M416.786,-146.496C396.226,-135.914 368.168,-121.472 345.828,-109.974"/>
<polygon fill="black" stroke="black" points="347.136,-106.71 336.643,-105.246 343.932,-112.934 347.136,-106.71"/>
</g>
<!-- cubical/V -->
<g id="node15" class="node"><title>cubical/V</title>
<ellipse fill="none" stroke="black" stroke-dasharray="5,2" cx="444.965" cy="-18" rx="45.4919" ry="18"/>
<text text-anchor="middle" x="444.965" y="-14.3" font-family="Times New Roman,serif" font-size="14.00">cubical/V</text>
</g>
<!-- theorems/ua&#45;&gt;cubical/V -->
<g id="edge63" class="edge"><title>theorems/ua&#45;&gt;cubical/V</title>
<path fill="none" stroke="black" d="M444.965,-143.871C444.965,-119.67 444.965,-75.2108 444.965,-46.3932"/>
<polygon fill="black" stroke="black" points="448.465,-46.1892 444.965,-36.1893 441.465,-46.1893 448.465,-46.1892"/>
</g>
<!-- types/coproduct&#45;&gt;structures -->
<g id="edge9" class="edge"><title>types/coproduct&#45;&gt;structures</title>
<path fill="none" stroke="black" d="M317.931,-431.697C319.254,-423.983 320.843,-414.712 322.317,-406.112"/>
<polygon fill="black" stroke="black" points="325.793,-406.552 324.033,-396.104 318.893,-405.369 325.793,-406.552"/>
</g>
<!-- types/integer -->
<g id="node18" class="node"><title>types/integer</title>
<ellipse fill="none" stroke="black" cx="146.965" cy="-378" rx="56.59" ry="18"/>
<text text-anchor="middle" x="146.965" y="-374.3" font-family="Times New Roman,serif" font-size="14.00">types/integer</text>
</g>
<!-- types/coproduct&#45;&gt;types/integer -->
<g id="edge10" class="edge"><title>types/coproduct&#45;&gt;types/integer</title>
<path fill="none" stroke="black" d="M279.747,-434.326C253.41,-423.352 217.282,-408.299 189.359,-396.664"/>
<polygon fill="black" stroke="black" points="190.431,-393.319 179.854,-392.704 187.739,-399.781 190.431,-393.319"/>
</g>
<!-- types/integer&#45;&gt;algebra/core -->
<g id="edge23" class="edge"><title>types/integer&#45;&gt;algebra/core</title>
<path fill="none" stroke="black" d="M132.509,-360.411C124.912,-351.693 115.459,-340.845 107.06,-331.208"/>
<polygon fill="black" stroke="black" points="109.526,-328.71 100.317,-323.47 104.248,-333.309 109.526,-328.71"/>
</g>
<!-- types/integer&#45;&gt;HITs/circle -->
<g id="edge24" class="edge"><title>types/integer&#45;&gt;HITs/circle</title>
<path fill="none" stroke="black" d="M97.3485,-369.103C70.393,-362.054 39.143,-348.804 21.965,-324 -5.37407,-284.524 -7.42709,-256.115 18.965,-216 70.0546,-138.345 180.674,-108.722 249.562,-97.57"/>
<polygon fill="black" stroke="black" points="250.474,-100.971 259.828,-95.9946 249.412,-94.0521 250.474,-100.971"/>
</g>
<!-- HITs/reals -->
<g id="node26" class="node"><title>HITs/reals</title>
<ellipse fill="none" stroke="black" cx="214.965" cy="-234" rx="48.9926" ry="18"/>
<text text-anchor="middle" x="214.965" y="-230.3" font-family="Times New Roman,serif" font-size="14.00">HITs/reals</text>
</g>
<!-- types/integer&#45;&gt;HITs/reals -->
<g id="edge25" class="edge"><title>types/integer&#45;&gt;HITs/reals</title>
<path fill="none" stroke="black" d="M197.426,-369.668C225.01,-362.803 256.942,-349.549 273.965,-324 282.836,-310.685 280.481,-302.613 273.965,-288 268.29,-275.273 257.881,-264.326 247.368,-255.74"/>
<polygon fill="black" stroke="black" points="249.458,-252.932 239.386,-249.645 245.209,-258.495 249.458,-252.932"/>
</g>
<!-- types/dep_path&#45;&gt;types/equiv -->
<g id="edge11" class="edge"><title>types/dep_path&#45;&gt;types/equiv</title>
<path fill="none" stroke="black" d="M500.965,-575.697C500.965,-567.983 500.965,-558.712 500.965,-550.112"/>
<polygon fill="black" stroke="black" points="504.465,-550.104 500.965,-540.104 497.465,-550.104 504.465,-550.104"/>
</g>
<!-- types/heq&#45;&gt;HITs/interval -->
<g id="edge20" class="edge"><title>types/heq&#45;&gt;HITs/interval</title>
<path fill="none" stroke="black" d="M666.965,-431.871C666.965,-407.67 666.965,-363.211 666.965,-334.393"/>
<polygon fill="black" stroke="black" points="670.465,-334.189 666.965,-324.189 663.465,-334.189 670.465,-334.189"/>
</g>
<!-- HITs/int -->
<g id="node24" class="node"><title>HITs/int</title>
<ellipse fill="none" stroke="black" cx="1276.96" cy="-378" rx="40.8928" ry="18"/>
<text text-anchor="middle" x="1276.96" y="-374.3" font-family="Times New Roman,serif" font-size="14.00">HITs/int</text>
</g>
<!-- types/heq&#45;&gt;HITs/int -->
<g id="edge21" class="edge"><title>types/heq&#45;&gt;HITs/int</title>
<path fill="none" stroke="black" d="M700.425,-437.466C707.471,-435.374 714.909,-433.412 721.965,-432 817.896,-412.804 1108.39,-390.877 1226.36,-382.501"/>
<polygon fill="black" stroke="black" points="1226.83,-385.976 1236.56,-381.78 1226.33,-378.994 1226.83,-385.976"/>
</g>
<!-- HITs/graph -->
<g id="node25" class="node"><title>HITs/graph</title>
<ellipse fill="none" stroke="black" cx="963.965" cy="-378" rx="52.7911" ry="18"/>
<text text-anchor="middle" x="963.965" y="-374.3" font-family="Times New Roman,serif" font-size="14.00">HITs/graph</text>
</g>
<!-- types/heq&#45;&gt;HITs/graph -->
<g id="edge22" class="edge"><title>types/heq&#45;&gt;HITs/graph</title>
<path fill="none" stroke="black" d="M701.458,-437.853C708.227,-435.803 715.297,-433.757 721.965,-432 785.776,-415.183 860.025,-399.486 909.28,-389.608"/>
<polygon fill="black" stroke="black" points="909.971,-393.039 919.093,-387.65 908.601,-386.174 909.971,-393.039"/>
</g>
<!-- types/unit&#45;&gt;structures -->
<g id="edge32" class="edge"><title>types/unit&#45;&gt;structures</title>
<path fill="none" stroke="black" d="M425.074,-434.834C406.69,-424.372 381.444,-410.004 361.166,-398.464"/>
<polygon fill="black" stroke="black" points="362.663,-395.289 352.241,-393.385 359.201,-401.373 362.663,-395.289"/>
</g>
<!-- types/unit&#45;&gt;types/nat -->
<g id="edge33" class="edge"><title>types/unit&#45;&gt;types/nat</title>
<path fill="none" stroke="black" d="M439.881,-432.153C425.119,-407.493 397.513,-361.374 380.249,-332.533"/>
<polygon fill="black" stroke="black" points="383.175,-330.608 375.036,-323.825 377.169,-334.203 383.175,-330.608"/>
</g>
<!-- HITs/suspension -->
<g id="node31" class="node"><title>HITs/suspension</title>
<ellipse fill="none" stroke="black" cx="392.965" cy="-234" rx="72.5877" ry="18"/>
<text text-anchor="middle" x="392.965" y="-230.3" font-family="Times New Roman,serif" font-size="14.00">HITs/suspension</text>
</g>
<!-- types/unit&#45;&gt;HITs/suspension -->
<g id="edge34" class="edge"><title>types/unit&#45;&gt;HITs/suspension</title>
<path fill="none" stroke="black" d="M447.942,-431.726C444.135,-401.86 434.741,-338.882 417.965,-288 415.034,-279.111 410.981,-269.766 406.991,-261.441"/>
<polygon fill="black" stroke="black" points="409.994,-259.619 402.407,-252.224 403.727,-262.737 409.994,-259.619"/>
</g>
<!-- types/sigma&#45;&gt;theorems/fibration -->
<g id="edge29" class="edge"><title>types/sigma&#45;&gt;theorems/fibration</title>
<path fill="none" stroke="black" d="M761.814,-360.104C773.47,-342.078 792.657,-312.769 809.965,-288 816.345,-278.87 823.522,-269.006 829.964,-260.293"/>
<polygon fill="black" stroke="black" points="832.948,-262.146 836.104,-252.032 827.33,-257.97 832.948,-262.146"/>
</g>
<!-- HITs/rat -->
<g id="node37" class="node"><title>HITs/rat</title>
<ellipse fill="none" stroke="black" cx="1424.96" cy="-306" rx="41.6928" ry="18"/>
<text text-anchor="middle" x="1424.96" y="-302.3" font-family="Times New Roman,serif" font-size="14.00">HITs/rat</text>
</g>
<!-- HITs/int&#45;&gt;HITs/rat -->
<g id="edge43" class="edge"><title>HITs/int&#45;&gt;HITs/rat</title>
<path fill="none" stroke="black" d="M1303.77,-364.324C1327.51,-353.095 1362.37,-336.605 1388.62,-324.191"/>
<polygon fill="black" stroke="black" points="1390.32,-327.258 1397.86,-319.819 1387.33,-320.93 1390.32,-327.258"/>
</g>
<!-- HITs/colimit -->
<g id="node32" class="node"><title>HITs/colimit</title>
<ellipse fill="none" stroke="black" cx="1037.96" cy="-306" rx="56.59" ry="18"/>
<text text-anchor="middle" x="1037.96" y="-302.3" font-family="Times New Roman,serif" font-size="14.00">HITs/colimit</text>
</g>
<!-- HITs/graph&#45;&gt;HITs/colimit -->
<g id="edge38" class="edge"><title>HITs/graph&#45;&gt;HITs/colimit</title>
<path fill="none" stroke="black" d="M981.128,-360.765C990.679,-351.73 1002.73,-340.326 1013.28,-330.349"/>
<polygon fill="black" stroke="black" points="1015.78,-332.804 1020.64,-323.39 1010.97,-327.719 1015.78,-332.804"/>
</g>
<!-- HITs/generalized -->
<g id="node33" class="node"><title>HITs/generalized</title>
<ellipse fill="none" stroke="black" cx="890.965" cy="-306" rx="72.2875" ry="18"/>
<text text-anchor="middle" x="890.965" y="-302.3" font-family="Times New Roman,serif" font-size="14.00">HITs/generalized</text>
</g>
<!-- HITs/graph&#45;&gt;HITs/generalized -->
<g id="edge39" class="edge"><title>HITs/graph&#45;&gt;HITs/generalized</title>
<path fill="none" stroke="black" d="M947.034,-360.765C937.679,-351.795 925.89,-340.49 915.539,-330.564"/>
<polygon fill="black" stroke="black" points="917.952,-328.028 908.311,-323.633 913.107,-333.081 917.952,-328.028"/>
</g>
<!-- HITs/pushout -->
<g id="node34" class="node"><title>HITs/pushout</title>
<ellipse fill="none" stroke="black" cx="528.965" cy="-306" rx="61.99" ry="18"/>
<text text-anchor="middle" x="528.965" y="-302.3" font-family="Times New Roman,serif" font-size="14.00">HITs/pushout</text>
</g>
<!-- HITs/graph&#45;&gt;HITs/pushout -->
<g id="edge40" class="edge"><title>HITs/graph&#45;&gt;HITs/pushout</title>
<path fill="none" stroke="black" d="M914.862,-371.282C844.713,-362.789 711.909,-345.506 599.965,-324 594.675,-322.984 589.184,-321.836 583.706,-320.629"/>
<polygon fill="black" stroke="black" points="584.43,-317.205 573.904,-318.408 582.883,-324.032 584.43,-317.205"/>
</g>
<!-- HITs/moebius -->
<g id="node35" class="node"><title>HITs/moebius</title>
<ellipse fill="none" stroke="black" cx="1200.96" cy="-18" rx="63.0888" ry="18"/>
<text text-anchor="middle" x="1200.96" y="-14.3" font-family="Times New Roman,serif" font-size="14.00">HITs/moebius</text>
</g>
<!-- HITs/graph&#45;&gt;HITs/moebius -->
<g id="edge41" class="edge"><title>HITs/graph&#45;&gt;HITs/moebius</title>
<path fill="none" stroke="black" d="M1014.16,-372.286C1089.67,-364.541 1228.29,-347.598 1271.96,-324 1319.55,-298.291 1354.96,-289.087 1354.96,-235 1354.96,-235 1354.96,-235 1354.96,-161 1354.96,-100.949 1290.89,-59.2872 1245.41,-37.2759"/>
<polygon fill="black" stroke="black" points="1246.84,-34.081 1236.3,-33.0068 1243.87,-40.4195 1246.84,-34.081"/>
</g>
<!-- types/precategory -->
<g id="node36" class="node"><title>types/precategory</title>
<ellipse fill="none" stroke="black" cx="1187.96" cy="-306" rx="75.2868" ry="18"/>
<text text-anchor="middle" x="1187.96" y="-302.3" font-family="Times New Roman,serif" font-size="14.00">types/precategory</text>
</g>
<!-- HITs/graph&#45;&gt;types/precategory -->
<g id="edge42" class="edge"><title>HITs/graph&#45;&gt;types/precategory</title>
<path fill="none" stroke="black" d="M1001.46,-365.284C1037.89,-353.898 1093.58,-336.495 1134.63,-323.668"/>
<polygon fill="black" stroke="black" points="1135.7,-327.001 1144.2,-320.677 1133.61,-320.319 1135.7,-327.001"/>
</g>
<!-- types/product&#45;&gt;theorems/ua -->
<g id="edge27" class="edge"><title>types/product&#45;&gt;theorems/ua</title>
<path fill="none" stroke="black" d="M615.144,-219.998C580.141,-208.274 528.607,-191.014 491.427,-178.561"/>
<polygon fill="black" stroke="black" points="492.419,-175.203 481.825,-175.346 490.196,-181.84 492.419,-175.203"/>
</g>
<!-- cubical/cubes -->
<g id="node28" class="node"><title>cubical/cubes</title>
<ellipse fill="none" stroke="black" cx="581.965" cy="-162" rx="60.3893" ry="18"/>
<text text-anchor="middle" x="581.965" y="-158.3" font-family="Times New Roman,serif" font-size="14.00">cubical/cubes</text>
</g>
<!-- types/product&#45;&gt;cubical/cubes -->
<g id="edge28" class="edge"><title>types/product&#45;&gt;cubical/cubes</title>
<path fill="none" stroke="black" d="M636.902,-216.411C627.756,-207.519 616.33,-196.411 606.271,-186.631"/>
<polygon fill="black" stroke="black" points="608.515,-183.931 598.906,-179.47 603.636,-188.95 608.515,-183.931"/>
</g>
<!-- cubical/path -->
<g id="node44" class="node"><title>cubical/path</title>
<ellipse fill="none" stroke="black" cx="653.965" cy="-90" rx="54.6905" ry="18"/>
<text text-anchor="middle" x="653.965" y="-86.3" font-family="Times New Roman,serif" font-size="14.00">cubical/path</text>
</g>
<!-- cubical/cubes&#45;&gt;cubical/path -->
<g id="edge55" class="edge"><title>cubical/cubes&#45;&gt;cubical/path</title>
<path fill="none" stroke="black" d="M599.028,-144.411C608.174,-135.519 619.6,-124.411 629.659,-114.631"/>
<polygon fill="black" stroke="black" points="632.294,-116.95 637.024,-107.47 627.415,-111.931 632.294,-116.95"/>
</g>
<!-- types/swale -->
<g id="node30" class="node"><title>types/swale</title>
<ellipse fill="none" stroke="black" cx="211.965" cy="-306" rx="52.7911" ry="18"/>
<text text-anchor="middle" x="211.965" y="-302.3" font-family="Times New Roman,serif" font-size="14.00">types/swale</text>
</g>
<!-- types/swale&#45;&gt;algebra/group -->
<g id="edge30" class="edge"><title>types/swale&#45;&gt;algebra/group</title>
<path fill="none" stroke="black" d="M185.971,-290.326C167.864,-280.105 143.489,-266.344 123.578,-255.104"/>
<polygon fill="black" stroke="black" points="125.211,-252.007 114.782,-250.138 121.769,-258.102 125.211,-252.007"/>
</g>
<!-- types/swale&#45;&gt;HITs/reals -->
<g id="edge31" class="edge"><title>types/swale&#45;&gt;HITs/reals</title>
<path fill="none" stroke="black" d="M212.707,-287.697C213.037,-279.983 213.434,-270.712 213.803,-262.112"/>
<polygon fill="black" stroke="black" points="217.3,-262.245 214.232,-252.104 210.307,-261.945 217.3,-262.245"/>
</g>
<!-- HITs/suspension&#45;&gt;HITs/circle -->
<g id="edge50" class="edge"><title>HITs/suspension&#45;&gt;HITs/circle</title>
<path fill="none" stroke="black" d="M382.999,-216.153C368.411,-191.493 341.13,-145.374 324.069,-116.533"/>
<polygon fill="black" stroke="black" points="327.022,-114.65 318.918,-107.825 320.997,-118.214 327.022,-114.65"/>
</g>
<!-- HITs/colimit&#45;&gt;HITs/truncation -->
<g id="edge36" class="edge"><title>HITs/colimit&#45;&gt;HITs/truncation</title>
<path fill="none" stroke="black" d="M1031.67,-288.055C1028.74,-280.176 1025.19,-270.617 1021.92,-261.794"/>
<polygon fill="black" stroke="black" points="1025.14,-260.431 1018.38,-252.275 1018.58,-262.868 1025.14,-260.431"/>
</g>
<!-- HITs/generalized&#45;&gt;HITs/truncation -->
<g id="edge37" class="edge"><title>HITs/generalized&#45;&gt;HITs/truncation</title>
<path fill="none" stroke="black" d="M918.12,-289.291C935.245,-279.383 957.554,-266.477 976.124,-255.734"/>
<polygon fill="black" stroke="black" points="977.998,-258.694 984.901,-250.657 974.492,-252.635 977.998,-258.694"/>
</g>
<!-- HITs/pushout&#45;&gt;HITs/reals -->
<g id="edge47" class="edge"><title>HITs/pushout&#45;&gt;HITs/reals</title>
<path fill="none" stroke="black" d="M481.616,-294.445C423.474,-281.483 325.258,-259.588 265.636,-246.296"/>
<polygon fill="black" stroke="black" points="266.213,-242.839 255.691,-244.079 264.69,-249.671 266.213,-242.839"/>
</g>
<!-- HITs/pushout&#45;&gt;HITs/suspension -->
<g id="edge48" class="edge"><title>HITs/pushout&#45;&gt;HITs/suspension</title>
<path fill="none" stroke="black" d="M499.79,-289.983C479.985,-279.789 453.572,-266.195 431.965,-255.074"/>
<polygon fill="black" stroke="black" points="433.526,-251.941 423.033,-250.476 430.323,-258.165 433.526,-251.941"/>
</g>
<!-- HITs/join -->
<g id="node39" class="node"><title>HITs/join</title>
<ellipse fill="none" stroke="black" cx="528.965" cy="-234" rx="45.4919" ry="18"/>
<text text-anchor="middle" x="528.965" y="-230.3" font-family="Times New Roman,serif" font-size="14.00">HITs/join</text>
</g>
<!-- HITs/pushout&#45;&gt;HITs/join -->
<g id="edge49" class="edge"><title>HITs/pushout&#45;&gt;HITs/join</title>
<path fill="none" stroke="black" d="M528.965,-287.697C528.965,-279.983 528.965,-270.712 528.965,-262.112"/>
<polygon fill="black" stroke="black" points="532.465,-262.104 528.965,-252.104 525.465,-262.104 532.465,-262.104"/>
</g>
<!-- cubical/connection -->
<g id="node43" class="node"><title>cubical/connection</title>
<ellipse fill="none" stroke="black" cx="886.965" cy="-18" rx="79.0865" ry="18"/>
<text text-anchor="middle" x="886.965" y="-14.3" font-family="Times New Roman,serif" font-size="14.00">cubical/connection</text>
</g>
<!-- cubical/path&#45;&gt;cubical/V -->
<g id="edge56" class="edge"><title>cubical/path&#45;&gt;cubical/V</title>
<path fill="none" stroke="black" d="M617.081,-76.6465C581.151,-64.6127 526.533,-46.3193 488.492,-33.5786"/>
<polygon fill="black" stroke="black" points="489.311,-30.1616 478.717,-30.3044 487.088,-36.7992 489.311,-30.1616"/>
</g>
<!-- cubical/path&#45;&gt;HITs/moebius -->
<g id="edge57" class="edge"><title>cubical/path&#45;&gt;HITs/moebius</title>
<path fill="none" stroke="black" d="M703.958,-82.6024C802.934,-69.9363 1023.84,-41.6674 1134.75,-27.4736"/>
<polygon fill="black" stroke="black" points="1135.33,-30.9275 1144.81,-26.1863 1134.45,-23.9841 1135.33,-30.9275"/>
</g>
<!-- cubical/path&#45;&gt;cubical/connection -->
<g id="edge58" class="edge"><title>cubical/path&#45;&gt;cubical/connection</title>
<path fill="none" stroke="black" d="M692.964,-77.2836C730.823,-65.9096 788.666,-48.5318 831.347,-35.7092"/>
<polygon fill="black" stroke="black" points="832.458,-39.03 841.028,-32.8007 830.444,-32.326 832.458,-39.03"/>
</g>
<!-- cubical/example -->
<g id="node45" class="node"><title>cubical/example</title>
<ellipse fill="none" stroke="black" cx="576.965" cy="-18" rx="68.7879" ry="18"/>
<text text-anchor="middle" x="576.965" y="-14.3" font-family="Times New Roman,serif" font-size="14.00">cubical/example</text>
</g>
<!-- cubical/path&#45;&gt;cubical/example -->
<g id="edge59" class="edge"><title>cubical/path&#45;&gt;cubical/example</title>
<path fill="none" stroke="black" d="M636.106,-72.7646C626.168,-63.7297 613.624,-52.3262 602.649,-42.3487"/>
<polygon fill="black" stroke="black" points="604.748,-39.5268 594.994,-35.3898 600.039,-44.7063 604.748,-39.5268"/>
</g>
<!-- cubical/square -->
<g id="node46" class="node"><title>cubical/square</title>
<ellipse fill="none" stroke="black" cx="726.965" cy="-18" rx="63.0888" ry="18"/>
<text text-anchor="middle" x="726.965" y="-14.3" font-family="Times New Roman,serif" font-size="14.00">cubical/square</text>
</g>
<!-- cubical/path&#45;&gt;cubical/square -->
<g id="edge60" class="edge"><title>cubical/path&#45;&gt;cubical/square</title>
<path fill="none" stroke="black" d="M670.896,-72.7646C680.318,-63.7297 692.21,-52.3262 702.616,-42.3487"/>
<polygon fill="black" stroke="black" points="705.077,-44.8373 709.873,-35.3898 700.232,-39.7848 705.077,-44.8373"/>
</g>
<!-- theorems/functions -->
<g id="node47" class="node"><title>theorems/functions</title>
<ellipse fill="none" stroke="black" cx="665.965" cy="-594" rx="79.8859" ry="18"/>
<text text-anchor="middle" x="665.965" y="-590.3" font-family="Times New Roman,serif" font-size="14.00">theorems/functions</text>
</g>
<!-- theorems/functions&#45;&gt;types/equiv -->
<g id="edge61" class="edge"><title>theorems/functions&#45;&gt;types/equiv</title>
<path fill="none" stroke="black" d="M630.162,-577.811C604.134,-566.769 568.858,-551.803 541.743,-540.3"/>
<polygon fill="black" stroke="black" points="543.094,-537.071 532.521,-536.387 540.36,-543.515 543.094,-537.071"/>
</g>
<!-- theorems/topology -->
<g id="node48" class="node"><title>theorems/topology</title>
<ellipse fill="none" stroke="black" cx="668.965" cy="-738" rx="79.0865" ry="18"/>
<text text-anchor="middle" x="668.965" y="-734.3" font-family="Times New Roman,serif" font-size="14.00">theorems/topology</text>
</g>
</g>
</svg>
