<?xml version="1.0" encoding="UTF-8" standalone="no"?>
<!DOCTYPE svg PUBLIC "-//W3C//DTD SVG 1.1//EN"
 "http://www.w3.org/Graphics/SVG/1.1/DTD/svg11.dtd">
<!-- Generated by graphviz version 2.38.0 (20140413.2041)
 -->
<!-- Title: dependency_map Pages: 1 -->
<svg width="1752pt" height="836pt"
 viewBox="0.00 0.00 1751.79 836.00" xmlns="http://www.w3.org/2000/svg" xmlns:xlink="http://www.w3.org/1999/xlink">
<g id="graph0" class="graph" transform="scale(1 1) rotate(0) translate(4 832)">
<title>dependency_map</title>
<polygon fill="white" stroke="none" points="-4,4 -4,-832 1747.79,-832 1747.79,4 -4,4"/>
<!-- proto -->
<g id="node1" class="node"><title>proto</title>
<ellipse fill="none" stroke="black" cx="1101.64" cy="-810" rx="30.5947" ry="18"/>
<text text-anchor="middle" x="1101.64" y="-806.3" font-family="Times New Roman,serif" font-size="14.00">proto</text>
</g>
<!-- types/eq -->
<g id="node2" class="node"><title>types/eq</title>
<ellipse fill="none" stroke="black" cx="1161.64" cy="-738" rx="41.6928" ry="18"/>
<text text-anchor="middle" x="1161.64" y="-734.3" font-family="Times New Roman,serif" font-size="14.00">types/eq</text>
</g>
<!-- proto&#45;&gt;types/eq -->
<g id="edge1" class="edge"><title>proto&#45;&gt;types/eq</title>
<path fill="none" stroke="black" d="M1114.96,-793.465C1122.59,-784.566 1132.33,-773.205 1140.93,-763.164"/>
<polygon fill="black" stroke="black" points="1143.68,-765.338 1147.53,-755.467 1138.36,-760.782 1143.68,-765.338"/>
</g>
<!-- support -->
<g id="node4" class="node"><title>support</title>
<ellipse fill="none" stroke="black" cx="1223.64" cy="-666" rx="38.9931" ry="18"/>
<text text-anchor="middle" x="1223.64" y="-662.3" font-family="Times New Roman,serif" font-size="14.00">support</text>
</g>
<!-- types/eq&#45;&gt;support -->
<g id="edge10" class="edge"><title>types/eq&#45;&gt;support</title>
<path fill="none" stroke="black" d="M1176.02,-720.765C1183.93,-711.841 1193.88,-700.608 1202.64,-690.719"/>
<polygon fill="black" stroke="black" points="1205.33,-692.954 1209.34,-683.147 1200.09,-688.313 1205.33,-692.954"/>
</g>
<!-- types/dep_path -->
<g id="node13" class="node"><title>types/dep_path</title>
<ellipse fill="none" stroke="black" cx="1099.64" cy="-666" rx="66.8882" ry="18"/>
<text text-anchor="middle" x="1099.64" y="-662.3" font-family="Times New Roman,serif" font-size="14.00">types/dep_path</text>
</g>
<!-- types/eq&#45;&gt;types/dep_path -->
<g id="edge11" class="edge"><title>types/eq&#45;&gt;types/dep_path</title>
<path fill="none" stroke="black" d="M1147.26,-720.765C1139.47,-711.969 1129.69,-700.928 1121.03,-691.144"/>
<polygon fill="black" stroke="black" points="1123.63,-688.799 1114.38,-683.633 1118.39,-693.44 1123.63,-688.799"/>
</g>
<!-- meta/hott_theory -->
<g id="node3" class="node"><title>meta/hott_theory</title>
<ellipse fill="none" stroke="black" cx="1222.64" cy="-810" rx="72.2875" ry="18"/>
<text text-anchor="middle" x="1222.64" y="-806.3" font-family="Times New Roman,serif" font-size="14.00">meta/hott_theory</text>
</g>
<!-- meta/hott_theory&#45;&gt;types/eq -->
<g id="edge2" class="edge"><title>meta/hott_theory&#45;&gt;types/eq</title>
<path fill="none" stroke="black" d="M1207.88,-792.055C1200.27,-783.33 1190.88,-772.544 1182.54,-762.981"/>
<polygon fill="black" stroke="black" points="1185.06,-760.547 1175.85,-755.307 1179.79,-765.146 1185.06,-760.547"/>
</g>
<!-- types/equiv -->
<g id="node5" class="node"><title>types/equiv</title>
<ellipse fill="none" stroke="black" cx="1223.64" cy="-594" rx="51.9908" ry="18"/>
<text text-anchor="middle" x="1223.64" y="-590.3" font-family="Times New Roman,serif" font-size="14.00">types/equiv</text>
</g>
<!-- support&#45;&gt;types/equiv -->
<g id="edge3" class="edge"><title>support&#45;&gt;types/equiv</title>
<path fill="none" stroke="black" d="M1223.64,-647.697C1223.64,-639.983 1223.64,-630.712 1223.64,-622.112"/>
<polygon fill="black" stroke="black" points="1227.14,-622.104 1223.64,-612.104 1220.14,-622.104 1227.14,-622.104"/>
</g>
<!-- types/coproduct -->
<g id="node10" class="node"><title>types/coproduct</title>
<ellipse fill="none" stroke="black" cx="491.644" cy="-522" rx="70.6878" ry="18"/>
<text text-anchor="middle" x="491.644" y="-518.3" font-family="Times New Roman,serif" font-size="14.00">types/coproduct</text>
</g>
<!-- types/equiv&#45;&gt;types/coproduct -->
<g id="edge12" class="edge"><title>types/equiv&#45;&gt;types/coproduct</title>
<path fill="none" stroke="black" d="M1172.25,-591.065C1061.82,-586.417 793.86,-572.505 571.644,-540 565.375,-539.083 558.86,-537.969 552.376,-536.755"/>
<polygon fill="black" stroke="black" points="552.738,-533.259 542.252,-534.778 551.396,-540.13 552.738,-533.259"/>
</g>
<!-- types/heq -->
<g id="node14" class="node"><title>types/heq</title>
<ellipse fill="none" stroke="black" cx="991.644" cy="-522" rx="46.2923" ry="18"/>
<text text-anchor="middle" x="991.644" y="-518.3" font-family="Times New Roman,serif" font-size="14.00">types/heq</text>
</g>
<!-- types/equiv&#45;&gt;types/heq -->
<g id="edge13" class="edge"><title>types/equiv&#45;&gt;types/heq</title>
<path fill="none" stroke="black" d="M1185.85,-581.597C1145.11,-569.306 1080.29,-549.745 1036.87,-536.645"/>
<polygon fill="black" stroke="black" points="1037.72,-533.246 1027.13,-533.708 1035.7,-539.948 1037.72,-533.246"/>
</g>
<!-- HITs/infinitesimal -->
<g id="node15" class="node"><title>HITs/infinitesimal</title>
<ellipse fill="none" stroke="black" cx="1558.64" cy="-522" rx="74.9875" ry="18"/>
<text text-anchor="middle" x="1558.64" y="-518.3" font-family="Times New Roman,serif" font-size="14.00">HITs/infinitesimal</text>
</g>
<!-- types/equiv&#45;&gt;HITs/infinitesimal -->
<g id="edge14" class="edge"><title>types/equiv&#45;&gt;HITs/infinitesimal</title>
<path fill="none" stroke="black" d="M1267.1,-583.92C1324.85,-571.852 1427.38,-550.428 1494.18,-536.471"/>
<polygon fill="black" stroke="black" points="1495.1,-539.855 1504.17,-534.383 1493.66,-533.003 1495.1,-539.855"/>
</g>
<!-- types/lost -->
<g id="node16" class="node"><title>types/lost</title>
<ellipse fill="none" stroke="black" cx="1697.64" cy="-522" rx="46.2923" ry="18"/>
<text text-anchor="middle" x="1697.64" y="-518.3" font-family="Times New Roman,serif" font-size="14.00">types/lost</text>
</g>
<!-- types/equiv&#45;&gt;types/lost -->
<g id="edge15" class="edge"><title>types/equiv&#45;&gt;types/lost</title>
<path fill="none" stroke="black" d="M1274.11,-589.467C1353.3,-583.286 1511.31,-568.377 1642.64,-540 1646.33,-539.204 1650.12,-538.273 1653.91,-537.265"/>
<polygon fill="black" stroke="black" points="1655.18,-540.542 1663.86,-534.454 1653.28,-533.806 1655.18,-540.542"/>
</g>
<!-- types/unit -->
<g id="node17" class="node"><title>types/unit</title>
<ellipse fill="none" stroke="black" cx="626.644" cy="-522" rx="46.2923" ry="18"/>
<text text-anchor="middle" x="626.644" y="-518.3" font-family="Times New Roman,serif" font-size="14.00">types/unit</text>
</g>
<!-- types/equiv&#45;&gt;types/unit -->
<g id="edge16" class="edge"><title>types/equiv&#45;&gt;types/unit</title>
<path fill="none" stroke="black" d="M1175.29,-587.331C1064.95,-574.393 795.242,-542.769 680.131,-529.271"/>
<polygon fill="black" stroke="black" points="680.479,-525.788 670.139,-528.1 679.664,-532.741 680.479,-525.788"/>
</g>
<!-- types/sigma -->
<g id="node18" class="node"><title>types/sigma</title>
<ellipse fill="none" stroke="black" cx="1416.64" cy="-306" rx="53.8905" ry="18"/>
<text text-anchor="middle" x="1416.64" y="-302.3" font-family="Times New Roman,serif" font-size="14.00">types/sigma</text>
</g>
<!-- types/equiv&#45;&gt;types/sigma -->
<g id="edge17" class="edge"><title>types/equiv&#45;&gt;types/sigma</title>
<path fill="none" stroke="black" d="M1250.41,-578.397C1298.5,-550.425 1398.1,-484.15 1436.64,-396 1445.42,-375.921 1438.87,-351.546 1430.99,-333.385"/>
<polygon fill="black" stroke="black" points="1434,-331.554 1426.57,-324.001 1427.67,-334.539 1434,-331.554"/>
</g>
<!-- structures -->
<g id="node6" class="node"><title>structures</title>
<ellipse fill="none" stroke="black" cx="496.644" cy="-450" rx="46.2923" ry="18"/>
<text text-anchor="middle" x="496.644" y="-446.3" font-family="Times New Roman,serif" font-size="14.00">structures</text>
</g>
<!-- HITs/interval -->
<g id="node7" class="node"><title>HITs/interval</title>
<ellipse fill="none" stroke="black" cx="496.644" cy="-378" rx="57.6901" ry="18"/>
<text text-anchor="middle" x="496.644" y="-374.3" font-family="Times New Roman,serif" font-size="14.00">HITs/interval</text>
</g>
<!-- structures&#45;&gt;HITs/interval -->
<g id="edge4" class="edge"><title>structures&#45;&gt;HITs/interval</title>
<path fill="none" stroke="black" d="M496.644,-431.697C496.644,-423.983 496.644,-414.712 496.644,-406.112"/>
<polygon fill="black" stroke="black" points="500.144,-406.104 496.644,-396.104 493.144,-406.104 500.144,-406.104"/>
</g>
<!-- HITs/truncation -->
<g id="node8" class="node"><title>HITs/truncation</title>
<ellipse fill="none" stroke="black" cx="1231.64" cy="-306" rx="68.4888" ry="18"/>
<text text-anchor="middle" x="1231.64" y="-302.3" font-family="Times New Roman,serif" font-size="14.00">HITs/truncation</text>
</g>
<!-- structures&#45;&gt;HITs/truncation -->
<g id="edge5" class="edge"><title>structures&#45;&gt;HITs/truncation</title>
<path fill="none" stroke="black" d="M541.041,-444.976C600.724,-438.723 709.62,-424.326 798.644,-396 834.26,-384.668 838.882,-370.862 874.644,-360 969.124,-331.303 1082.56,-317.853 1155.82,-311.753"/>
<polygon fill="black" stroke="black" points="1156.2,-315.234 1165.88,-310.94 1155.64,-308.256 1156.2,-315.234"/>
</g>
<!-- types/nat -->
<g id="node9" class="node"><title>types/nat</title>
<ellipse fill="none" stroke="black" cx="410.644" cy="-306" rx="43.5923" ry="18"/>
<text text-anchor="middle" x="410.644" y="-302.3" font-family="Times New Roman,serif" font-size="14.00">types/nat</text>
</g>
<!-- structures&#45;&gt;types/nat -->
<g id="edge6" class="edge"><title>structures&#45;&gt;types/nat</title>
<path fill="none" stroke="black" d="M470.992,-434.809C456.675,-425.582 439.741,-412.251 429.644,-396 418.074,-377.377 413.464,-352.793 411.669,-334.183"/>
<polygon fill="black" stroke="black" points="415.144,-333.716 410.906,-324.005 408.164,-334.239 415.144,-333.716"/>
</g>
<!-- types/product -->
<g id="node23" class="node"><title>types/product</title>
<ellipse fill="none" stroke="black" cx="287.644" cy="-306" rx="61.99" ry="18"/>
<text text-anchor="middle" x="287.644" y="-302.3" font-family="Times New Roman,serif" font-size="14.00">types/product</text>
</g>
<!-- HITs/interval&#45;&gt;types/product -->
<g id="edge42" class="edge"><title>HITs/interval&#45;&gt;types/product</title>
<path fill="none" stroke="black" d="M458.796,-364.324C424.457,-352.823 373.639,-335.802 336.295,-323.295"/>
<polygon fill="black" stroke="black" points="337.222,-319.914 326.628,-320.057 334.999,-326.552 337.222,-319.914"/>
</g>
<!-- theorems/fibration -->
<g id="node26" class="node"><title>theorems/fibration</title>
<ellipse fill="none" stroke="black" cx="852.644" cy="-234" rx="76.8869" ry="18"/>
<text text-anchor="middle" x="852.644" y="-230.3" font-family="Times New Roman,serif" font-size="14.00">theorems/fibration</text>
</g>
<!-- HITs/interval&#45;&gt;theorems/fibration -->
<g id="edge43" class="edge"><title>HITs/interval&#45;&gt;theorems/fibration</title>
<path fill="none" stroke="black" d="M493.016,-359.715C489.913,-339.667 488.44,-306.95 506.644,-288 541.441,-251.779 675.564,-240.236 766.232,-236.604"/>
<polygon fill="black" stroke="black" points="766.377,-240.102 776.238,-236.228 766.114,-233.106 766.377,-240.102"/>
</g>
<!-- theorems/prop -->
<g id="node27" class="node"><title>theorems/prop</title>
<ellipse fill="none" stroke="black" cx="1390.64" cy="-234" rx="63.8893" ry="18"/>
<text text-anchor="middle" x="1390.64" y="-230.3" font-family="Times New Roman,serif" font-size="14.00">theorems/prop</text>
</g>
<!-- HITs/interval&#45;&gt;theorems/prop -->
<g id="edge44" class="edge"><title>HITs/interval&#45;&gt;theorems/prop</title>
<path fill="none" stroke="black" d="M499.539,-359.794C504.068,-338.847 515.011,-304.26 539.644,-288 611.958,-240.265 1232.83,-264.007 1318.64,-252 1324.35,-251.202 1330.26,-250.162 1336.14,-248.989"/>
<polygon fill="black" stroke="black" points="1336.89,-252.407 1345.95,-246.909 1335.44,-245.559 1336.89,-252.407"/>
</g>
<!-- HITs/reals -->
<g id="node31" class="node"><title>HITs/reals</title>
<ellipse fill="none" stroke="black" cx="270.644" cy="-18" rx="48.9926" ry="18"/>
<text text-anchor="middle" x="270.644" y="-14.3" font-family="Times New Roman,serif" font-size="14.00">HITs/reals</text>
</g>
<!-- HITs/interval&#45;&gt;HITs/reals -->
<g id="edge45" class="edge"><title>HITs/interval&#45;&gt;HITs/reals</title>
<path fill="none" stroke="black" d="M438.829,-376.661C379.511,-373.981 286.309,-363.129 216.644,-324 103.881,-260.664 68.0721,-228.713 21.6442,-108 15.9005,-93.0665 11.5768,-84.4358 21.6442,-72 45.2368,-42.8571 146.937,-29.0631 212.845,-23.074"/>
<polygon fill="black" stroke="black" points="213.44,-26.5354 223.097,-22.1786 212.831,-19.5619 213.44,-26.5354"/>
</g>
<!-- HITs/truncation&#45;&gt;theorems/prop -->
<g id="edge49" class="edge"><title>HITs/truncation&#45;&gt;theorems/prop</title>
<path fill="none" stroke="black" d="M1265.36,-290.155C1289.64,-279.468 1322.55,-264.977 1348.55,-253.531"/>
<polygon fill="black" stroke="black" points="1350.05,-256.697 1357.79,-249.464 1347.23,-250.29 1350.05,-256.697"/>
</g>
<!-- HITs/simplicial -->
<g id="node38" class="node"><title>HITs/simplicial</title>
<ellipse fill="none" stroke="black" cx="1243.64" cy="-234" rx="65.7887" ry="18"/>
<text text-anchor="middle" x="1243.64" y="-230.3" font-family="Times New Roman,serif" font-size="14.00">HITs/simplicial</text>
</g>
<!-- HITs/truncation&#45;&gt;HITs/simplicial -->
<g id="edge50" class="edge"><title>HITs/truncation&#45;&gt;HITs/simplicial</title>
<path fill="none" stroke="black" d="M1234.61,-287.697C1235.93,-279.983 1237.52,-270.712 1239,-262.112"/>
<polygon fill="black" stroke="black" points="1242.47,-262.552 1240.71,-252.104 1235.57,-261.369 1242.47,-262.552"/>
</g>
<!-- theorems/mere_eq_lemma -->
<g id="node39" class="node"><title>theorems/mere_eq_lemma</title>
<ellipse fill="none" stroke="black" cx="1053.64" cy="-234" rx="105.881" ry="18"/>
<text text-anchor="middle" x="1053.64" y="-230.3" font-family="Times New Roman,serif" font-size="14.00">theorems/mere_eq_lemma</text>
</g>
<!-- HITs/truncation&#45;&gt;theorems/mere_eq_lemma -->
<g id="edge51" class="edge"><title>HITs/truncation&#45;&gt;theorems/mere_eq_lemma</title>
<path fill="none" stroke="black" d="M1195.19,-290.666C1168.69,-280.244 1132.51,-266.014 1103.36,-254.55"/>
<polygon fill="black" stroke="black" points="1104.35,-251.181 1093.77,-250.778 1101.79,-257.695 1104.35,-251.181"/>
</g>
<!-- theorems/nat -->
<g id="node22" class="node"><title>theorems/nat</title>
<ellipse fill="none" stroke="black" cx="549.644" cy="-162" rx="57.3905" ry="18"/>
<text text-anchor="middle" x="549.644" y="-158.3" font-family="Times New Roman,serif" font-size="14.00">theorems/nat</text>
</g>
<!-- types/nat&#45;&gt;theorems/nat -->
<g id="edge22" class="edge"><title>types/nat&#45;&gt;theorems/nat</title>
<path fill="none" stroke="black" d="M443.508,-294.079C464.979,-285.52 492.33,-271.729 510.644,-252 526.891,-234.498 537.095,-209.138 542.971,-189.963"/>
<polygon fill="black" stroke="black" points="546.349,-190.881 545.73,-180.305 539.618,-188.959 546.349,-190.881"/>
</g>
<!-- types/coproduct&#45;&gt;structures -->
<g id="edge7" class="edge"><title>types/coproduct&#45;&gt;structures</title>
<path fill="none" stroke="black" d="M492.88,-503.697C493.431,-495.983 494.093,-486.712 494.708,-478.112"/>
<polygon fill="black" stroke="black" points="498.201,-478.328 495.422,-468.104 491.219,-477.83 498.201,-478.328"/>
</g>
<!-- types/integer -->
<g id="node11" class="node"><title>types/integer</title>
<ellipse fill="none" stroke="black" cx="159.644" cy="-450" rx="56.59" ry="18"/>
<text text-anchor="middle" x="159.644" y="-446.3" font-family="Times New Roman,serif" font-size="14.00">types/integer</text>
</g>
<!-- types/coproduct&#45;&gt;types/integer -->
<g id="edge8" class="edge"><title>types/coproduct&#45;&gt;types/integer</title>
<path fill="none" stroke="black" d="M439.038,-509.908C377.985,-497.036 277.732,-475.898 215.377,-462.751"/>
<polygon fill="black" stroke="black" points="215.836,-459.271 205.329,-460.632 214.392,-466.12 215.836,-459.271"/>
</g>
<!-- HITs/circle -->
<g id="node20" class="node"><title>HITs/circle</title>
<ellipse fill="none" stroke="black" cx="667.644" cy="-90" rx="51.9908" ry="18"/>
<text text-anchor="middle" x="667.644" y="-86.3" font-family="Times New Roman,serif" font-size="14.00">HITs/circle</text>
</g>
<!-- types/integer&#45;&gt;HITs/circle -->
<g id="edge20" class="edge"><title>types/integer&#45;&gt;HITs/circle</title>
<path fill="none" stroke="black" d="M160.687,-431.908C163.625,-399.128 174.755,-327.208 216.644,-288 259.789,-247.616 293.25,-281.172 344.644,-252 364.876,-240.516 364.684,-230.788 382.644,-216 425.201,-180.959 434.002,-167.973 483.644,-144 489.884,-140.987 566.065,-119.411 618.423,-104.734"/>
<polygon fill="black" stroke="black" points="619.539,-108.057 628.225,-101.989 617.651,-101.316 619.539,-108.057"/>
</g>
<!-- types/rational -->
<g id="node21" class="node"><title>types/rational</title>
<ellipse fill="none" stroke="black" cx="68.6442" cy="-378" rx="59.2899" ry="18"/>
<text text-anchor="middle" x="68.6442" y="-374.3" font-family="Times New Roman,serif" font-size="14.00">types/rational</text>
</g>
<!-- types/integer&#45;&gt;types/rational -->
<g id="edge21" class="edge"><title>types/integer&#45;&gt;types/rational</title>
<path fill="none" stroke="black" d="M138.995,-433.116C126.749,-423.696 111.038,-411.611 97.5709,-401.251"/>
<polygon fill="black" stroke="black" points="99.587,-398.386 89.5268,-395.064 95.319,-403.935 99.587,-398.386"/>
</g>
<!-- types/dedekind -->
<g id="node12" class="node"><title>types/dedekind</title>
<ellipse fill="none" stroke="black" cx="65.6442" cy="-306" rx="65.7887" ry="18"/>
<text text-anchor="middle" x="65.6442" y="-302.3" font-family="Times New Roman,serif" font-size="14.00">types/dedekind</text>
</g>
<!-- types/dep_path&#45;&gt;types/equiv -->
<g id="edge9" class="edge"><title>types/dep_path&#45;&gt;types/equiv</title>
<path fill="none" stroke="black" d="M1127.16,-649.465C1145.27,-639.242 1169.14,-625.771 1188.6,-614.783"/>
<polygon fill="black" stroke="black" points="1190.49,-617.737 1197.47,-609.773 1187.05,-611.641 1190.49,-617.737"/>
</g>
<!-- types/heq&#45;&gt;HITs/interval -->
<g id="edge18" class="edge"><title>types/heq&#45;&gt;HITs/interval</title>
<path fill="none" stroke="black" d="M955.646,-510.673C868.858,-485.776 647.861,-422.379 547.55,-393.603"/>
<polygon fill="black" stroke="black" points="548.229,-390.157 537.652,-390.764 546.299,-396.886 548.229,-390.157"/>
</g>
<!-- HITs/graph -->
<g id="node19" class="node"><title>HITs/graph</title>
<ellipse fill="none" stroke="black" cx="991.644" cy="-450" rx="52.7911" ry="18"/>
<text text-anchor="middle" x="991.644" y="-446.3" font-family="Times New Roman,serif" font-size="14.00">HITs/graph</text>
</g>
<!-- types/heq&#45;&gt;HITs/graph -->
<g id="edge19" class="edge"><title>types/heq&#45;&gt;HITs/graph</title>
<path fill="none" stroke="black" d="M991.644,-503.697C991.644,-495.983 991.644,-486.712 991.644,-478.112"/>
<polygon fill="black" stroke="black" points="995.144,-478.104 991.644,-468.104 988.144,-478.104 995.144,-478.104"/>
</g>
<!-- types/unit&#45;&gt;structures -->
<g id="edge29" class="edge"><title>types/unit&#45;&gt;structures</title>
<path fill="none" stroke="black" d="M600.649,-507.003C580.81,-496.32 553.278,-481.495 531.524,-469.781"/>
<polygon fill="black" stroke="black" points="533.058,-466.632 522.594,-464.973 529.739,-472.796 533.058,-466.632"/>
</g>
<!-- HITs/suspension -->
<g id="node28" class="node"><title>HITs/suspension</title>
<ellipse fill="none" stroke="black" cx="621.644" cy="-306" rx="72.5877" ry="18"/>
<text text-anchor="middle" x="621.644" y="-302.3" font-family="Times New Roman,serif" font-size="14.00">HITs/suspension</text>
</g>
<!-- types/unit&#45;&gt;HITs/suspension -->
<g id="edge30" class="edge"><title>types/unit&#45;&gt;HITs/suspension</title>
<path fill="none" stroke="black" d="M626.243,-503.849C625.379,-466.832 623.331,-379.181 622.284,-334.386"/>
<polygon fill="black" stroke="black" points="625.78,-334.148 622.047,-324.232 618.781,-334.312 625.78,-334.148"/>
</g>
<!-- types/sigma&#45;&gt;theorems/nat -->
<g id="edge26" class="edge"><title>types/sigma&#45;&gt;theorems/nat</title>
<path fill="none" stroke="black" d="M1435.9,-288.931C1456.62,-269.762 1484.03,-237.604 1463.64,-216 1434.63,-185.253 822.397,-169.003 616.513,-164.393"/>
<polygon fill="black" stroke="black" points="616.514,-160.892 606.439,-164.169 616.358,-167.89 616.514,-160.892"/>
</g>
<!-- types/sigma&#45;&gt;theorems/fibration -->
<g id="edge27" class="edge"><title>types/sigma&#45;&gt;theorems/fibration</title>
<path fill="none" stroke="black" d="M1369.68,-296.989C1350.76,-293.922 1328.7,-290.552 1308.64,-288 1144.74,-267.146 1102.11,-276.049 938.644,-252 931.866,-251.003 924.812,-249.831 917.79,-248.576"/>
<polygon fill="black" stroke="black" points="918.028,-245.061 907.559,-246.689 916.758,-251.945 918.028,-245.061"/>
</g>
<!-- types/sigma&#45;&gt;theorems/prop -->
<g id="edge28" class="edge"><title>types/sigma&#45;&gt;theorems/prop</title>
<path fill="none" stroke="black" d="M1410.35,-288.055C1407.42,-280.176 1403.87,-270.617 1400.6,-261.794"/>
<polygon fill="black" stroke="black" points="1403.82,-260.431 1397.06,-252.275 1397.26,-262.868 1403.82,-260.431"/>
</g>
<!-- HITs/moebius -->
<g id="node30" class="node"><title>HITs/moebius</title>
<ellipse fill="none" stroke="black" cx="667.644" cy="-18" rx="63.0888" ry="18"/>
<text text-anchor="middle" x="667.644" y="-14.3" font-family="Times New Roman,serif" font-size="14.00">HITs/moebius</text>
</g>
<!-- HITs/graph&#45;&gt;HITs/moebius -->
<g id="edge36" class="edge"><title>HITs/graph&#45;&gt;HITs/moebius</title>
<path fill="none" stroke="black" d="M952.371,-438C927.847,-429.599 896.83,-416.016 874.644,-396 833.385,-358.776 847.953,-330.067 811.644,-288 794.909,-268.611 780.076,-273.808 766.644,-252 723.764,-182.383 770.102,-142.473 728.644,-72 721.684,-60.1687 711.133,-49.6391 700.754,-41.1445"/>
<polygon fill="black" stroke="black" points="702.587,-38.1378 692.538,-34.7824 698.302,-43.6723 702.587,-38.1378"/>
</g>
<!-- HITs/colimit -->
<g id="node32" class="node"><title>HITs/colimit</title>
<ellipse fill="none" stroke="black" cx="1208.64" cy="-378" rx="56.59" ry="18"/>
<text text-anchor="middle" x="1208.64" y="-374.3" font-family="Times New Roman,serif" font-size="14.00">HITs/colimit</text>
</g>
<!-- HITs/graph&#45;&gt;HITs/colimit -->
<g id="edge37" class="edge"><title>HITs/graph&#45;&gt;HITs/colimit</title>
<path fill="none" stroke="black" d="M1028.46,-437.125C1064.87,-425.378 1120.79,-407.339 1160.67,-394.475"/>
<polygon fill="black" stroke="black" points="1161.75,-397.806 1170.19,-391.405 1159.6,-391.144 1161.75,-397.806"/>
</g>
<!-- HITs/generalized -->
<g id="node33" class="node"><title>HITs/generalized</title>
<ellipse fill="none" stroke="black" cx="1355.64" cy="-378" rx="72.2875" ry="18"/>
<text text-anchor="middle" x="1355.64" y="-374.3" font-family="Times New Roman,serif" font-size="14.00">HITs/generalized</text>
</g>
<!-- HITs/graph&#45;&gt;HITs/generalized -->
<g id="edge38" class="edge"><title>HITs/graph&#45;&gt;HITs/generalized</title>
<path fill="none" stroke="black" d="M1037.29,-440.768C1093.27,-430.597 1191.05,-412.598 1274.64,-396 1280.42,-394.853 1286.43,-393.637 1292.44,-392.404"/>
<polygon fill="black" stroke="black" points="1293.44,-395.772 1302.52,-390.322 1292.02,-388.916 1293.44,-395.772"/>
</g>
<!-- HITs/int -->
<g id="node34" class="node"><title>HITs/int</title>
<ellipse fill="none" stroke="black" cx="924.644" cy="-378" rx="40.8928" ry="18"/>
<text text-anchor="middle" x="924.644" y="-374.3" font-family="Times New Roman,serif" font-size="14.00">HITs/int</text>
</g>
<!-- HITs/graph&#45;&gt;HITs/int -->
<g id="edge39" class="edge"><title>HITs/graph&#45;&gt;HITs/int</title>
<path fill="none" stroke="black" d="M976.105,-432.765C967.479,-423.753 956.599,-412.385 947.066,-402.426"/>
<polygon fill="black" stroke="black" points="949.543,-399.951 940.099,-395.147 944.486,-404.792 949.543,-399.951"/>
</g>
<!-- HITs/pushout -->
<g id="node35" class="node"><title>HITs/pushout</title>
<ellipse fill="none" stroke="black" cx="727.644" cy="-378" rx="61.99" ry="18"/>
<text text-anchor="middle" x="727.644" y="-374.3" font-family="Times New Roman,serif" font-size="14.00">HITs/pushout</text>
</g>
<!-- HITs/graph&#45;&gt;HITs/pushout -->
<g id="edge40" class="edge"><title>HITs/graph&#45;&gt;HITs/pushout</title>
<path fill="none" stroke="black" d="M951.261,-438.292C905.897,-426.264 832.047,-406.683 781.727,-393.34"/>
<polygon fill="black" stroke="black" points="782.555,-389.939 771.992,-390.759 780.761,-396.705 782.555,-389.939"/>
</g>
<!-- types/precategory -->
<g id="node36" class="node"><title>types/precategory</title>
<ellipse fill="none" stroke="black" cx="1058.64" cy="-378" rx="75.2868" ry="18"/>
<text text-anchor="middle" x="1058.64" y="-374.3" font-family="Times New Roman,serif" font-size="14.00">types/precategory</text>
</g>
<!-- HITs/graph&#45;&gt;types/precategory -->
<g id="edge41" class="edge"><title>HITs/graph&#45;&gt;types/precategory</title>
<path fill="none" stroke="black" d="M1007.18,-432.765C1015.6,-423.969 1026.17,-412.928 1035.53,-403.144"/>
<polygon fill="black" stroke="black" points="1038.34,-405.278 1042.72,-395.633 1033.28,-400.437 1038.34,-405.278"/>
</g>
<!-- theorems/hopf -->
<g id="node29" class="node"><title>theorems/hopf</title>
<ellipse fill="none" stroke="black" cx="832.644" cy="-18" rx="63.8893" ry="18"/>
<text text-anchor="middle" x="832.644" y="-14.3" font-family="Times New Roman,serif" font-size="14.00">theorems/hopf</text>
</g>
<!-- HITs/circle&#45;&gt;theorems/hopf -->
<g id="edge31" class="edge"><title>HITs/circle&#45;&gt;theorems/hopf</title>
<path fill="none" stroke="black" d="M699.458,-75.5033C725.119,-64.6167 761.463,-49.1982 789.703,-37.2173"/>
<polygon fill="black" stroke="black" points="791.104,-40.4251 798.943,-33.2975 788.37,-33.981 791.104,-40.4251"/>
</g>
<!-- HITs/circle&#45;&gt;HITs/moebius -->
<g id="edge32" class="edge"><title>HITs/circle&#45;&gt;HITs/moebius</title>
<path fill="none" stroke="black" d="M667.644,-71.6966C667.644,-63.9827 667.644,-54.7125 667.644,-46.1124"/>
<polygon fill="black" stroke="black" points="671.144,-46.1043 667.644,-36.1043 664.144,-46.1044 671.144,-46.1043"/>
</g>
<!-- HITs/circle&#45;&gt;HITs/reals -->
<g id="edge33" class="edge"><title>HITs/circle&#45;&gt;HITs/reals</title>
<path fill="none" stroke="black" d="M629.415,-77.6195C621.905,-75.5899 614.057,-73.6119 606.644,-72 509.007,-50.7683 393.658,-34.45 326.66,-25.8249"/>
<polygon fill="black" stroke="black" points="326.696,-22.3011 316.333,-24.5071 325.81,-29.2448 326.696,-22.3011"/>
</g>
<!-- types/rational&#45;&gt;types/dedekind -->
<g id="edge25" class="edge"><title>types/rational&#45;&gt;types/dedekind</title>
<path fill="none" stroke="black" d="M67.9026,-359.697C67.572,-351.983 67.1747,-342.712 66.8061,-334.112"/>
<polygon fill="black" stroke="black" points="70.3023,-333.945 66.3772,-324.104 63.3087,-334.245 70.3023,-333.945"/>
</g>
<!-- theorems/nat&#45;&gt;HITs/circle -->
<g id="edge60" class="edge"><title>theorems/nat&#45;&gt;HITs/circle</title>
<path fill="none" stroke="black" d="M575.248,-145.811C592.374,-135.652 615.097,-122.172 633.723,-111.123"/>
<polygon fill="black" stroke="black" points="635.68,-114.031 642.495,-105.919 632.109,-108.011 635.68,-114.031"/>
</g>
<!-- cubical/cubes -->
<g id="node24" class="node"><title>cubical/cubes</title>
<ellipse fill="none" stroke="black" cx="275.644" cy="-234" rx="60.3893" ry="18"/>
<text text-anchor="middle" x="275.644" y="-230.3" font-family="Times New Roman,serif" font-size="14.00">cubical/cubes</text>
</g>
<!-- types/product&#45;&gt;cubical/cubes -->
<g id="edge23" class="edge"><title>types/product&#45;&gt;cubical/cubes</title>
<path fill="none" stroke="black" d="M284.678,-287.697C283.355,-279.983 281.766,-270.712 280.292,-262.112"/>
<polygon fill="black" stroke="black" points="283.716,-261.369 278.576,-252.104 276.816,-262.552 283.716,-261.369"/>
</g>
<!-- theorems/ua -->
<g id="node25" class="node"><title>theorems/ua</title>
<ellipse fill="none" stroke="black" cx="446.644" cy="-234" rx="54.6905" ry="18"/>
<text text-anchor="middle" x="446.644" y="-230.3" font-family="Times New Roman,serif" font-size="14.00">theorems/ua</text>
</g>
<!-- types/product&#45;&gt;theorems/ua -->
<g id="edge24" class="edge"><title>types/product&#45;&gt;theorems/ua</title>
<path fill="none" stroke="black" d="M320.204,-290.666C344.965,-279.765 379.19,-264.697 405.789,-252.987"/>
<polygon fill="black" stroke="black" points="407.47,-256.071 415.212,-248.838 404.649,-249.664 407.47,-256.071"/>
</g>
<!-- cubical/path -->
<g id="node41" class="node"><title>cubical/path</title>
<ellipse fill="none" stroke="black" cx="275.644" cy="-162" rx="54.6905" ry="18"/>
<text text-anchor="middle" x="275.644" y="-158.3" font-family="Times New Roman,serif" font-size="14.00">cubical/path</text>
</g>
<!-- cubical/cubes&#45;&gt;cubical/path -->
<g id="edge52" class="edge"><title>cubical/cubes&#45;&gt;cubical/path</title>
<path fill="none" stroke="black" d="M275.644,-215.697C275.644,-207.983 275.644,-198.712 275.644,-190.112"/>
<polygon fill="black" stroke="black" points="279.144,-190.104 275.644,-180.104 272.144,-190.104 279.144,-190.104"/>
</g>
<!-- theorems/ua&#45;&gt;theorems/nat -->
<g id="edge61" class="edge"><title>theorems/ua&#45;&gt;theorems/nat</title>
<path fill="none" stroke="black" d="M469.503,-217.465C483.805,-207.745 502.428,-195.089 518.122,-184.423"/>
<polygon fill="black" stroke="black" points="520.189,-187.25 526.493,-178.734 516.255,-181.46 520.189,-187.25"/>
</g>
<!-- cubical/V -->
<g id="node44" class="node"><title>cubical/V</title>
<ellipse fill="none" stroke="black" cx="552.644" cy="-90" rx="45.4919" ry="18"/>
<text text-anchor="middle" x="552.644" y="-86.3" font-family="Times New Roman,serif" font-size="14.00">cubical/V</text>
</g>
<!-- theorems/ua&#45;&gt;cubical/V -->
<g id="edge62" class="edge"><title>theorems/ua&#45;&gt;cubical/V</title>
<path fill="none" stroke="black" d="M450.875,-215.903C456.191,-196.912 466.726,-166.031 483.644,-144 493.437,-131.249 507.014,-119.939 519.536,-111.076"/>
<polygon fill="black" stroke="black" points="521.671,-113.857 527.977,-105.343 517.738,-108.066 521.671,-113.857"/>
</g>
<!-- theorems/fibration&#45;&gt;theorems/hopf -->
<g id="edge58" class="edge"><title>theorems/fibration&#45;&gt;theorems/hopf</title>
<path fill="none" stroke="black" d="M851.041,-215.849C847.582,-178.832 839.39,-91.1809 835.204,-46.3863"/>
<polygon fill="black" stroke="black" points="838.67,-45.8633 834.255,-36.2325 831.7,-46.5148 838.67,-45.8633"/>
</g>
<!-- HITs/suspension&#45;&gt;HITs/circle -->
<g id="edge48" class="edge"><title>HITs/suspension&#45;&gt;HITs/circle</title>
<path fill="none" stroke="black" d="M625.331,-287.849C633.305,-250.753 652.208,-162.81 661.818,-118.103"/>
<polygon fill="black" stroke="black" points="665.26,-118.745 663.94,-108.232 658.417,-117.274 665.26,-118.745"/>
</g>
<!-- HITs/colimit&#45;&gt;HITs/truncation -->
<g id="edge34" class="edge"><title>HITs/colimit&#45;&gt;HITs/truncation</title>
<path fill="none" stroke="black" d="M1214.21,-360.055C1216.8,-352.176 1219.94,-342.617 1222.84,-333.794"/>
<polygon fill="black" stroke="black" points="1226.17,-334.868 1225.97,-324.275 1219.52,-332.683 1226.17,-334.868"/>
</g>
<!-- HITs/generalized&#45;&gt;HITs/truncation -->
<g id="edge35" class="edge"><title>HITs/generalized&#45;&gt;HITs/truncation</title>
<path fill="none" stroke="black" d="M1327.82,-361.291C1310.19,-351.338 1287.2,-338.36 1268.11,-327.588"/>
<polygon fill="black" stroke="black" points="1269.81,-324.525 1259.38,-322.657 1266.37,-330.621 1269.81,-324.525"/>
</g>
<!-- HITs/pushout&#45;&gt;HITs/suspension -->
<g id="edge46" class="edge"><title>HITs/pushout&#45;&gt;HITs/suspension</title>
<path fill="none" stroke="black" d="M703.856,-361.291C689.332,-351.7 670.552,-339.298 654.609,-328.769"/>
<polygon fill="black" stroke="black" points="656.362,-325.733 646.089,-323.142 652.504,-331.574 656.362,-325.733"/>
</g>
<!-- HITs/join -->
<g id="node37" class="node"><title>HITs/join</title>
<ellipse fill="none" stroke="black" cx="757.644" cy="-306" rx="45.4919" ry="18"/>
<text text-anchor="middle" x="757.644" y="-302.3" font-family="Times New Roman,serif" font-size="14.00">HITs/join</text>
</g>
<!-- HITs/pushout&#45;&gt;HITs/join -->
<g id="edge47" class="edge"><title>HITs/pushout&#45;&gt;HITs/join</title>
<path fill="none" stroke="black" d="M734.906,-360.055C738.37,-351.973 742.592,-342.121 746.453,-333.112"/>
<polygon fill="black" stroke="black" points="749.727,-334.359 750.449,-323.789 743.293,-331.602 749.727,-334.359"/>
</g>
<!-- cubical/connection -->
<g id="node40" class="node"><title>cubical/connection</title>
<ellipse fill="none" stroke="black" cx="109.644" cy="-90" rx="79.0865" ry="18"/>
<text text-anchor="middle" x="109.644" y="-86.3" font-family="Times New Roman,serif" font-size="14.00">cubical/connection</text>
</g>
<!-- cubical/path&#45;&gt;cubical/connection -->
<g id="edge53" class="edge"><title>cubical/path&#45;&gt;cubical/connection</title>
<path fill="none" stroke="black" d="M243.244,-147.337C218.092,-136.731 182.915,-121.897 154.971,-110.114"/>
<polygon fill="black" stroke="black" points="155.99,-106.745 145.416,-106.085 153.271,-113.195 155.99,-106.745"/>
</g>
<!-- cubical/example -->
<g id="node42" class="node"><title>cubical/example</title>
<ellipse fill="none" stroke="black" cx="275.644" cy="-90" rx="68.7879" ry="18"/>
<text text-anchor="middle" x="275.644" y="-86.3" font-family="Times New Roman,serif" font-size="14.00">cubical/example</text>
</g>
<!-- cubical/path&#45;&gt;cubical/example -->
<g id="edge54" class="edge"><title>cubical/path&#45;&gt;cubical/example</title>
<path fill="none" stroke="black" d="M275.644,-143.697C275.644,-135.983 275.644,-126.712 275.644,-118.112"/>
<polygon fill="black" stroke="black" points="279.144,-118.104 275.644,-108.104 272.144,-118.104 279.144,-118.104"/>
</g>
<!-- cubical/square -->
<g id="node43" class="node"><title>cubical/square</title>
<ellipse fill="none" stroke="black" cx="425.644" cy="-90" rx="63.0888" ry="18"/>
<text text-anchor="middle" x="425.644" y="-86.3" font-family="Times New Roman,serif" font-size="14.00">cubical/square</text>
</g>
<!-- cubical/path&#45;&gt;cubical/square -->
<g id="edge55" class="edge"><title>cubical/path&#45;&gt;cubical/square</title>
<path fill="none" stroke="black" d="M305.999,-146.834C328.772,-136.207 360.178,-121.551 385.1,-109.921"/>
<polygon fill="black" stroke="black" points="386.72,-113.027 394.302,-105.626 383.76,-106.684 386.72,-113.027"/>
</g>
<!-- cubical/path&#45;&gt;cubical/V -->
<g id="edge56" class="edge"><title>cubical/path&#45;&gt;cubical/V</title>
<path fill="none" stroke="black" d="M317.956,-150.501C326.772,-148.334 336.008,-146.08 344.644,-144 412.559,-127.644 430.234,-126.325 497.644,-108 501.231,-107.025 504.936,-105.975 508.649,-104.891"/>
<polygon fill="black" stroke="black" points="509.841,-108.188 518.423,-101.975 507.84,-101.48 509.841,-108.188"/>
</g>
<!-- cubical/V&#45;&gt;HITs/moebius -->
<g id="edge57" class="edge"><title>cubical/V&#45;&gt;HITs/moebius</title>
<path fill="none" stroke="black" d="M576.472,-74.496C592.868,-64.5158 614.904,-51.1027 633.204,-39.9633"/>
<polygon fill="black" stroke="black" points="635.125,-42.8918 641.847,-34.7026 631.485,-36.9124 635.125,-42.8918"/>
</g>
<!-- theorems/functions -->
<g id="node45" class="node"><title>theorems/functions</title>
<ellipse fill="none" stroke="black" cx="1360.64" cy="-666" rx="79.8859" ry="18"/>
<text text-anchor="middle" x="1360.64" y="-662.3" font-family="Times New Roman,serif" font-size="14.00">theorems/functions</text>
</g>
<!-- theorems/functions&#45;&gt;types/equiv -->
<g id="edge59" class="edge"><title>theorems/functions&#45;&gt;types/equiv</title>
<path fill="none" stroke="black" d="M1329.9,-649.291C1309.33,-638.78 1282.15,-624.894 1260.43,-613.797"/>
<polygon fill="black" stroke="black" points="1261.99,-610.663 1251.49,-609.229 1258.81,-616.896 1261.99,-610.663"/>
</g>
</g>
</svg>
