<?xml version="1.0" encoding="UTF-8" standalone="no"?>
<!DOCTYPE svg PUBLIC "-//W3C//DTD SVG 1.1//EN"
 "http://www.w3.org/Graphics/SVG/1.1/DTD/svg11.dtd">
<!-- Generated by graphviz version 2.38.0 (20140413.2041)
 -->
<!-- Title: dependency_map Pages: 1 -->
<svg width="1420pt" height="836pt"
 viewBox="0.00 0.00 1420.25 836.00" xmlns="http://www.w3.org/2000/svg" xmlns:xlink="http://www.w3.org/1999/xlink">
<g id="graph0" class="graph" transform="scale(1 1) rotate(0) translate(4 832)">
<title>dependency_map</title>
<polygon fill="white" stroke="none" points="-4,4 -4,-832 1416.25,-832 1416.25,4 -4,4"/>
<!-- proto -->
<g id="node1" class="node"><title>proto</title>
<ellipse fill="none" stroke="black" cx="725.601" cy="-810" rx="30.5947" ry="18"/>
<text text-anchor="middle" x="725.601" y="-806.3" font-family="Times New Roman,serif" font-size="14.00">proto</text>
</g>
<!-- types/eq -->
<g id="node2" class="node"><title>types/eq</title>
<ellipse fill="none" stroke="black" cx="785.601" cy="-738" rx="41.6928" ry="18"/>
<text text-anchor="middle" x="785.601" y="-734.3" font-family="Times New Roman,serif" font-size="14.00">types/eq</text>
</g>
<!-- proto&#45;&gt;types/eq -->
<g id="edge1" class="edge"><title>proto&#45;&gt;types/eq</title>
<path fill="none" stroke="black" d="M738.917,-793.465C746.545,-784.566 756.282,-773.205 764.889,-763.164"/>
<polygon fill="black" stroke="black" points="767.636,-765.338 771.486,-755.467 762.321,-760.782 767.636,-765.338"/>
</g>
<!-- support -->
<g id="node4" class="node"><title>support</title>
<ellipse fill="none" stroke="black" cx="723.601" cy="-666" rx="38.9931" ry="18"/>
<text text-anchor="middle" x="723.601" y="-662.3" font-family="Times New Roman,serif" font-size="14.00">support</text>
</g>
<!-- types/eq&#45;&gt;support -->
<g id="edge10" class="edge"><title>types/eq&#45;&gt;support</title>
<path fill="none" stroke="black" d="M771.221,-720.765C763.318,-711.841 753.368,-700.608 744.61,-690.719"/>
<polygon fill="black" stroke="black" points="747.153,-688.313 737.903,-683.147 741.913,-692.954 747.153,-688.313"/>
</g>
<!-- types/dep_path -->
<g id="node13" class="node"><title>types/dep_path</title>
<ellipse fill="none" stroke="black" cx="847.601" cy="-666" rx="66.8882" ry="18"/>
<text text-anchor="middle" x="847.601" y="-662.3" font-family="Times New Roman,serif" font-size="14.00">types/dep_path</text>
</g>
<!-- types/eq&#45;&gt;types/dep_path -->
<g id="edge11" class="edge"><title>types/eq&#45;&gt;types/dep_path</title>
<path fill="none" stroke="black" d="M799.981,-720.765C807.771,-711.969 817.55,-700.928 826.216,-691.144"/>
<polygon fill="black" stroke="black" points="828.858,-693.44 832.869,-683.633 823.618,-688.799 828.858,-693.44"/>
</g>
<!-- meta/hott_theory -->
<g id="node3" class="node"><title>meta/hott_theory</title>
<ellipse fill="none" stroke="black" cx="846.601" cy="-810" rx="72.2875" ry="18"/>
<text text-anchor="middle" x="846.601" y="-806.3" font-family="Times New Roman,serif" font-size="14.00">meta/hott_theory</text>
</g>
<!-- meta/hott_theory&#45;&gt;types/eq -->
<g id="edge2" class="edge"><title>meta/hott_theory&#45;&gt;types/eq</title>
<path fill="none" stroke="black" d="M831.835,-792.055C824.232,-783.33 814.833,-772.544 806.499,-762.981"/>
<polygon fill="black" stroke="black" points="809.02,-760.547 799.811,-755.307 803.742,-765.146 809.02,-760.547"/>
</g>
<!-- types/equiv -->
<g id="node5" class="node"><title>types/equiv</title>
<ellipse fill="none" stroke="black" cx="847.601" cy="-594" rx="51.9908" ry="18"/>
<text text-anchor="middle" x="847.601" y="-590.3" font-family="Times New Roman,serif" font-size="14.00">types/equiv</text>
</g>
<!-- support&#45;&gt;types/equiv -->
<g id="edge3" class="edge"><title>support&#45;&gt;types/equiv</title>
<path fill="none" stroke="black" d="M747.216,-651.669C765.702,-641.233 791.693,-626.561 812.596,-614.761"/>
<polygon fill="black" stroke="black" points="814.514,-617.698 821.501,-609.734 811.073,-611.602 814.514,-617.698"/>
</g>
<!-- types/coproduct -->
<g id="node10" class="node"><title>types/coproduct</title>
<ellipse fill="none" stroke="black" cx="1052.6" cy="-522" rx="70.6878" ry="18"/>
<text text-anchor="middle" x="1052.6" y="-518.3" font-family="Times New Roman,serif" font-size="14.00">types/coproduct</text>
</g>
<!-- types/equiv&#45;&gt;types/coproduct -->
<g id="edge12" class="edge"><title>types/equiv&#45;&gt;types/coproduct</title>
<path fill="none" stroke="black" d="M883.309,-580.807C916.27,-569.552 965.55,-552.725 1002.45,-540.123"/>
<polygon fill="black" stroke="black" points="1003.7,-543.397 1012.03,-536.853 1001.44,-536.773 1003.7,-543.397"/>
</g>
<!-- types/heq -->
<g id="node14" class="node"><title>types/heq</title>
<ellipse fill="none" stroke="black" cx="529.601" cy="-522" rx="46.2923" ry="18"/>
<text text-anchor="middle" x="529.601" y="-518.3" font-family="Times New Roman,serif" font-size="14.00">types/heq</text>
</g>
<!-- types/equiv&#45;&gt;types/heq -->
<g id="edge13" class="edge"><title>types/equiv&#45;&gt;types/heq</title>
<path fill="none" stroke="black" d="M801.673,-585.196C748.934,-575.899 659.981,-559.193 584.601,-540 580.999,-539.083 577.283,-538.074 573.562,-537.018"/>
<polygon fill="black" stroke="black" points="574.357,-533.604 563.776,-534.148 572.387,-540.321 574.357,-533.604"/>
</g>
<!-- HITs/infinitesimal -->
<g id="node15" class="node"><title>HITs/infinitesimal</title>
<ellipse fill="none" stroke="black" cx="778.601" cy="-522" rx="74.9875" ry="18"/>
<text text-anchor="middle" x="778.601" y="-518.3" font-family="Times New Roman,serif" font-size="14.00">HITs/infinitesimal</text>
</g>
<!-- types/equiv&#45;&gt;HITs/infinitesimal -->
<g id="edge14" class="edge"><title>types/equiv&#45;&gt;HITs/infinitesimal</title>
<path fill="none" stroke="black" d="M831.598,-576.765C822.842,-567.882 811.829,-556.709 802.114,-546.854"/>
<polygon fill="black" stroke="black" points="804.509,-544.298 794.997,-539.633 799.524,-549.212 804.509,-544.298"/>
</g>
<!-- types/lost -->
<g id="node16" class="node"><title>types/lost</title>
<ellipse fill="none" stroke="black" cx="917.601" cy="-522" rx="46.2923" ry="18"/>
<text text-anchor="middle" x="917.601" y="-518.3" font-family="Times New Roman,serif" font-size="14.00">types/lost</text>
</g>
<!-- types/equiv&#45;&gt;types/lost -->
<g id="edge15" class="edge"><title>types/equiv&#45;&gt;types/lost</title>
<path fill="none" stroke="black" d="M863.836,-576.765C872.848,-567.753 884.216,-556.385 894.175,-546.426"/>
<polygon fill="black" stroke="black" points="896.857,-548.693 901.454,-539.147 891.908,-543.744 896.857,-548.693"/>
</g>
<!-- types/unit -->
<g id="node17" class="node"><title>types/unit</title>
<ellipse fill="none" stroke="black" cx="639.601" cy="-522" rx="46.2923" ry="18"/>
<text text-anchor="middle" x="639.601" y="-518.3" font-family="Times New Roman,serif" font-size="14.00">types/unit</text>
</g>
<!-- types/equiv&#45;&gt;types/unit -->
<g id="edge16" class="edge"><title>types/equiv&#45;&gt;types/unit</title>
<path fill="none" stroke="black" d="M811.37,-580.807C775.684,-568.797 721.141,-550.441 683.123,-537.647"/>
<polygon fill="black" stroke="black" points="683.946,-534.231 673.352,-534.359 681.714,-540.865 683.946,-534.231"/>
</g>
<!-- types/sigma -->
<g id="node18" class="node"><title>types/sigma</title>
<ellipse fill="none" stroke="black" cx="1119.6" cy="-306" rx="53.8905" ry="18"/>
<text text-anchor="middle" x="1119.6" y="-302.3" font-family="Times New Roman,serif" font-size="14.00">types/sigma</text>
</g>
<!-- types/equiv&#45;&gt;types/sigma -->
<g id="edge17" class="edge"><title>types/equiv&#45;&gt;types/sigma</title>
<path fill="none" stroke="black" d="M899.157,-591.037C973.073,-587.018 1103.49,-575.027 1132.6,-540 1181.92,-480.661 1150.66,-380.654 1131.42,-333.332"/>
<polygon fill="black" stroke="black" points="1134.63,-331.933 1127.53,-324.068 1128.18,-334.643 1134.63,-331.933"/>
</g>
<!-- structures -->
<g id="node6" class="node"><title>structures</title>
<ellipse fill="none" stroke="black" cx="880.601" cy="-450" rx="46.2923" ry="18"/>
<text text-anchor="middle" x="880.601" y="-446.3" font-family="Times New Roman,serif" font-size="14.00">structures</text>
</g>
<!-- HITs/interval -->
<g id="node7" class="node"><title>HITs/interval</title>
<ellipse fill="none" stroke="black" cx="880.601" cy="-378" rx="57.6901" ry="18"/>
<text text-anchor="middle" x="880.601" y="-374.3" font-family="Times New Roman,serif" font-size="14.00">HITs/interval</text>
</g>
<!-- structures&#45;&gt;HITs/interval -->
<g id="edge4" class="edge"><title>structures&#45;&gt;HITs/interval</title>
<path fill="none" stroke="black" d="M880.601,-431.697C880.601,-423.983 880.601,-414.712 880.601,-406.112"/>
<polygon fill="black" stroke="black" points="884.101,-406.104 880.601,-396.104 877.101,-406.104 884.101,-406.104"/>
</g>
<!-- HITs/truncation -->
<g id="node8" class="node"><title>HITs/truncation</title>
<ellipse fill="none" stroke="black" cx="278.601" cy="-306" rx="68.4888" ry="18"/>
<text text-anchor="middle" x="278.601" y="-302.3" font-family="Times New Roman,serif" font-size="14.00">HITs/truncation</text>
</g>
<!-- structures&#45;&gt;HITs/truncation -->
<g id="edge5" class="edge"><title>structures&#45;&gt;HITs/truncation</title>
<path fill="none" stroke="black" d="M839.358,-441.82C794.22,-433.351 720.088,-417.637 658.601,-396 623.345,-383.593 618.224,-371.312 582.601,-360 560.39,-352.947 427.942,-330.998 345.364,-317.66"/>
<polygon fill="black" stroke="black" points="345.733,-314.175 335.303,-316.038 344.619,-321.085 345.733,-314.175"/>
</g>
<!-- types/nat -->
<g id="node9" class="node"><title>types/nat</title>
<ellipse fill="none" stroke="black" cx="1004.6" cy="-306" rx="43.5923" ry="18"/>
<text text-anchor="middle" x="1004.6" y="-302.3" font-family="Times New Roman,serif" font-size="14.00">types/nat</text>
</g>
<!-- structures&#45;&gt;types/nat -->
<g id="edge6" class="edge"><title>structures&#45;&gt;types/nat</title>
<path fill="none" stroke="black" d="M902.972,-434.181C916.798,-424.359 934.365,-410.625 947.601,-396 965.085,-376.681 980.712,-351.409 991.161,-332.733"/>
<polygon fill="black" stroke="black" points="994.268,-334.345 995.998,-323.892 988.128,-330.985 994.268,-334.345"/>
</g>
<!-- types/product -->
<g id="node24" class="node"><title>types/product</title>
<ellipse fill="none" stroke="black" cx="842.601" cy="-306" rx="61.99" ry="18"/>
<text text-anchor="middle" x="842.601" y="-302.3" font-family="Times New Roman,serif" font-size="14.00">types/product</text>
</g>
<!-- HITs/interval&#45;&gt;types/product -->
<g id="edge42" class="edge"><title>HITs/interval&#45;&gt;types/product</title>
<path fill="none" stroke="black" d="M871.402,-360.055C867.033,-352.007 861.712,-342.205 856.838,-333.226"/>
<polygon fill="black" stroke="black" points="859.826,-331.394 851.979,-324.275 853.674,-334.734 859.826,-331.394"/>
</g>
<!-- theorems/fibration -->
<g id="node27" class="node"><title>theorems/fibration</title>
<ellipse fill="none" stroke="black" cx="1147.6" cy="-234" rx="76.8869" ry="18"/>
<text text-anchor="middle" x="1147.6" y="-230.3" font-family="Times New Roman,serif" font-size="14.00">theorems/fibration</text>
</g>
<!-- HITs/interval&#45;&gt;theorems/fibration -->
<g id="edge43" class="edge"><title>HITs/interval&#45;&gt;theorems/fibration</title>
<path fill="none" stroke="black" d="M938.145,-375.387C1016.9,-371.828 1152.01,-360.433 1182.6,-324 1198.23,-305.393 1184.55,-278.975 1169.97,-259.758"/>
<polygon fill="black" stroke="black" points="1172.52,-257.347 1163.52,-251.748 1167.06,-261.734 1172.52,-257.347"/>
</g>
<!-- theorems/prop -->
<g id="node28" class="node"><title>theorems/prop</title>
<ellipse fill="none" stroke="black" cx="912.601" cy="-234" rx="63.8893" ry="18"/>
<text text-anchor="middle" x="912.601" y="-230.3" font-family="Times New Roman,serif" font-size="14.00">theorems/prop</text>
</g>
<!-- HITs/interval&#45;&gt;theorems/prop -->
<g id="edge44" class="edge"><title>HITs/interval&#45;&gt;theorems/prop</title>
<path fill="none" stroke="black" d="M894.241,-360.505C901.537,-350.59 909.787,-337.34 913.601,-324 919.361,-303.851 918.738,-280.072 916.877,-262.164"/>
<polygon fill="black" stroke="black" points="920.336,-261.613 915.642,-252.115 913.388,-262.467 920.336,-261.613"/>
</g>
<!-- HITs/truncation&#45;&gt;theorems/prop -->
<g id="edge49" class="edge"><title>HITs/truncation&#45;&gt;theorems/prop</title>
<path fill="none" stroke="black" d="M333.773,-295.292C350.1,-292.652 368.038,-289.979 384.601,-288 586.463,-263.884 639.751,-283.45 840.601,-252 846.073,-251.143 851.745,-250.093 857.394,-248.938"/>
<polygon fill="black" stroke="black" points="858.448,-252.291 867.488,-246.766 856.976,-245.448 858.448,-252.291"/>
</g>
<!-- HITs/simplicial -->
<g id="node38" class="node"><title>HITs/simplicial</title>
<ellipse fill="none" stroke="black" cx="393.601" cy="-234" rx="65.7887" ry="18"/>
<text text-anchor="middle" x="393.601" y="-230.3" font-family="Times New Roman,serif" font-size="14.00">HITs/simplicial</text>
</g>
<!-- HITs/truncation&#45;&gt;HITs/simplicial -->
<g id="edge50" class="edge"><title>HITs/truncation&#45;&gt;HITs/simplicial</title>
<path fill="none" stroke="black" d="M304.409,-289.291C320.537,-279.473 341.503,-266.712 359.055,-256.028"/>
<polygon fill="black" stroke="black" points="361.157,-258.846 367.879,-250.657 357.517,-252.867 361.157,-258.846"/>
</g>
<!-- theorems/mere_eq_lemma -->
<g id="node39" class="node"><title>theorems/mere_eq_lemma</title>
<ellipse fill="none" stroke="black" cx="203.601" cy="-234" rx="105.881" ry="18"/>
<text text-anchor="middle" x="203.601" y="-230.3" font-family="Times New Roman,serif" font-size="14.00">theorems/mere_eq_lemma</text>
</g>
<!-- HITs/truncation&#45;&gt;theorems/mere_eq_lemma -->
<g id="edge51" class="edge"><title>HITs/truncation&#45;&gt;theorems/mere_eq_lemma</title>
<path fill="none" stroke="black" d="M260.827,-288.411C251.438,-279.648 239.743,-268.732 229.376,-259.057"/>
<polygon fill="black" stroke="black" points="231.467,-256.221 221.768,-251.956 226.691,-261.338 231.467,-256.221"/>
</g>
<!-- theorems/nat -->
<g id="node23" class="node"><title>theorems/nat</title>
<ellipse fill="none" stroke="black" cx="1004.6" cy="-162" rx="57.3905" ry="18"/>
<text text-anchor="middle" x="1004.6" y="-158.3" font-family="Times New Roman,serif" font-size="14.00">theorems/nat</text>
</g>
<!-- types/nat&#45;&gt;theorems/nat -->
<g id="edge23" class="edge"><title>types/nat&#45;&gt;theorems/nat</title>
<path fill="none" stroke="black" d="M1004.6,-287.871C1004.6,-263.67 1004.6,-219.211 1004.6,-190.393"/>
<polygon fill="black" stroke="black" points="1008.1,-190.189 1004.6,-180.189 1001.1,-190.189 1008.1,-190.189"/>
</g>
<!-- types/coproduct&#45;&gt;structures -->
<g id="edge7" class="edge"><title>types/coproduct&#45;&gt;structures</title>
<path fill="none" stroke="black" d="M1016.54,-506.326C988.577,-494.944 949.827,-479.173 920.851,-467.381"/>
<polygon fill="black" stroke="black" points="922.01,-464.074 911.429,-463.546 919.372,-470.558 922.01,-464.074"/>
</g>
<!-- types/integer -->
<g id="node11" class="node"><title>types/integer</title>
<ellipse fill="none" stroke="black" cx="1244.6" cy="-378" rx="56.59" ry="18"/>
<text text-anchor="middle" x="1244.6" y="-374.3" font-family="Times New Roman,serif" font-size="14.00">types/integer</text>
</g>
<!-- types/coproduct&#45;&gt;types/integer -->
<g id="edge8" class="edge"><title>types/coproduct&#45;&gt;types/integer</title>
<path fill="none" stroke="black" d="M1074.63,-504.711C1109.15,-479.178 1176.06,-429.692 1214.84,-401.013"/>
<polygon fill="black" stroke="black" points="1217.17,-403.643 1223.13,-394.882 1213.01,-398.015 1217.17,-403.643"/>
</g>
<!-- HITs/circle -->
<g id="node20" class="node"><title>HITs/circle</title>
<ellipse fill="none" stroke="black" cx="1004.6" cy="-90" rx="51.9908" ry="18"/>
<text text-anchor="middle" x="1004.6" y="-86.3" font-family="Times New Roman,serif" font-size="14.00">HITs/circle</text>
</g>
<!-- types/integer&#45;&gt;HITs/circle -->
<g id="edge20" class="edge"><title>types/integer&#45;&gt;HITs/circle</title>
<path fill="none" stroke="black" d="M1248.42,-359.848C1254.38,-328.504 1262.46,-261.061 1233.6,-216 1193.47,-153.344 1110.54,-119.628 1056.27,-103.511"/>
<polygon fill="black" stroke="black" points="1057.07,-100.098 1046.49,-100.704 1055.14,-106.826 1057.07,-100.098"/>
</g>
<!-- HITs/reals -->
<g id="node21" class="node"><title>HITs/reals</title>
<ellipse fill="none" stroke="black" cx="714.601" cy="-306" rx="48.9926" ry="18"/>
<text text-anchor="middle" x="714.601" y="-302.3" font-family="Times New Roman,serif" font-size="14.00">HITs/reals</text>
</g>
<!-- types/integer&#45;&gt;HITs/reals -->
<g id="edge21" class="edge"><title>types/integer&#45;&gt;HITs/reals</title>
<path fill="none" stroke="black" d="M1189.12,-373.997C1100.25,-368.469 920.794,-354.354 771.601,-324 767.727,-323.212 763.737,-322.279 759.753,-321.263"/>
<polygon fill="black" stroke="black" points="760.496,-317.838 749.928,-318.6 758.664,-324.594 760.496,-317.838"/>
</g>
<!-- types/rational -->
<g id="node22" class="node"><title>types/rational</title>
<ellipse fill="none" stroke="black" cx="1342.6" cy="-306" rx="59.2899" ry="18"/>
<text text-anchor="middle" x="1342.6" y="-302.3" font-family="Times New Roman,serif" font-size="14.00">types/rational</text>
</g>
<!-- types/integer&#45;&gt;types/rational -->
<g id="edge22" class="edge"><title>types/integer&#45;&gt;types/rational</title>
<path fill="none" stroke="black" d="M1266.84,-361.116C1280.25,-351.539 1297.51,-339.209 1312.17,-328.737"/>
<polygon fill="black" stroke="black" points="1314.35,-331.482 1320.45,-322.821 1310.28,-325.786 1314.35,-331.482"/>
</g>
<!-- types/dedekind -->
<g id="node12" class="node"><title>types/dedekind</title>
<ellipse fill="none" stroke="black" cx="1346.6" cy="-234" rx="65.7887" ry="18"/>
<text text-anchor="middle" x="1346.6" y="-230.3" font-family="Times New Roman,serif" font-size="14.00">types/dedekind</text>
</g>
<!-- types/dep_path&#45;&gt;types/equiv -->
<g id="edge9" class="edge"><title>types/dep_path&#45;&gt;types/equiv</title>
<path fill="none" stroke="black" d="M847.601,-647.697C847.601,-639.983 847.601,-630.712 847.601,-622.112"/>
<polygon fill="black" stroke="black" points="851.101,-622.104 847.601,-612.104 844.101,-622.104 851.101,-622.104"/>
</g>
<!-- types/heq&#45;&gt;HITs/interval -->
<g id="edge18" class="edge"><title>types/heq&#45;&gt;HITs/interval</title>
<path fill="none" stroke="black" d="M560.442,-508.523C623.073,-483.185 765.297,-425.647 837.224,-396.549"/>
<polygon fill="black" stroke="black" points="838.933,-399.633 846.891,-392.638 836.308,-393.144 838.933,-399.633"/>
</g>
<!-- HITs/graph -->
<g id="node19" class="node"><title>HITs/graph</title>
<ellipse fill="none" stroke="black" cx="364.601" cy="-450" rx="52.7911" ry="18"/>
<text text-anchor="middle" x="364.601" y="-446.3" font-family="Times New Roman,serif" font-size="14.00">HITs/graph</text>
</g>
<!-- types/heq&#45;&gt;HITs/graph -->
<g id="edge19" class="edge"><title>types/heq&#45;&gt;HITs/graph</title>
<path fill="none" stroke="black" d="M499.337,-508.161C473.091,-497.026 434.863,-480.808 405.825,-468.489"/>
<polygon fill="black" stroke="black" points="406.932,-465.157 396.36,-464.473 404.199,-471.601 406.932,-465.157"/>
</g>
<!-- types/unit&#45;&gt;structures -->
<g id="edge30" class="edge"><title>types/unit&#45;&gt;structures</title>
<path fill="none" stroke="black" d="M674.48,-510.092C681.152,-508.041 688.086,-505.935 694.601,-504 742.172,-489.872 796.809,-474.392 834.498,-463.83"/>
<polygon fill="black" stroke="black" points="835.492,-467.187 844.178,-461.121 833.605,-460.446 835.492,-467.187"/>
</g>
<!-- HITs/suspension -->
<g id="node29" class="node"><title>HITs/suspension</title>
<ellipse fill="none" stroke="black" cx="466.601" cy="-306" rx="72.5877" ry="18"/>
<text text-anchor="middle" x="466.601" y="-302.3" font-family="Times New Roman,serif" font-size="14.00">HITs/suspension</text>
</g>
<!-- types/unit&#45;&gt;HITs/suspension -->
<g id="edge31" class="edge"><title>types/unit&#45;&gt;HITs/suspension</title>
<path fill="none" stroke="black" d="M637.902,-503.718C633.883,-471.559 621.041,-401.994 582.601,-360 567.108,-343.075 545.151,-331.168 524.5,-322.989"/>
<polygon fill="black" stroke="black" points="525.725,-319.711 515.132,-319.489 523.275,-326.268 525.725,-319.711"/>
</g>
<!-- types/sigma&#45;&gt;theorems/nat -->
<g id="edge27" class="edge"><title>types/sigma&#45;&gt;theorems/nat</title>
<path fill="none" stroke="black" d="M1099.85,-289.207C1088.03,-279.225 1073.11,-265.667 1061.6,-252 1044.92,-232.191 1029.3,-207.169 1018.65,-188.705"/>
<polygon fill="black" stroke="black" points="1021.67,-186.938 1013.69,-179.965 1015.58,-190.39 1021.67,-186.938"/>
</g>
<!-- types/sigma&#45;&gt;theorems/fibration -->
<g id="edge28" class="edge"><title>types/sigma&#45;&gt;theorems/fibration</title>
<path fill="none" stroke="black" d="M1126.38,-288.055C1129.53,-280.176 1133.35,-270.617 1136.88,-261.794"/>
<polygon fill="black" stroke="black" points="1140.23,-262.86 1140.69,-252.275 1133.73,-260.26 1140.23,-262.86"/>
</g>
<!-- types/sigma&#45;&gt;theorems/prop -->
<g id="edge29" class="edge"><title>types/sigma&#45;&gt;theorems/prop</title>
<path fill="none" stroke="black" d="M1083.07,-292.647C1049.3,-281.225 998.847,-264.165 961.588,-251.566"/>
<polygon fill="black" stroke="black" points="962.531,-248.19 951.937,-248.302 960.288,-254.821 962.531,-248.19"/>
</g>
<!-- HITs/moebius -->
<g id="node31" class="node"><title>HITs/moebius</title>
<ellipse fill="none" stroke="black" cx="772.601" cy="-18" rx="63.0888" ry="18"/>
<text text-anchor="middle" x="772.601" y="-14.3" font-family="Times New Roman,serif" font-size="14.00">HITs/moebius</text>
</g>
<!-- HITs/graph&#45;&gt;HITs/moebius -->
<g id="edge36" class="edge"><title>HITs/graph&#45;&gt;HITs/moebius</title>
<path fill="none" stroke="black" d="M312.206,-447.956C226.699,-445.134 62.5579,-434.686 21.601,-396 -7.80294,-368.227 2.60098,-347.447 2.60098,-307 2.60098,-307 2.60098,-307 2.60098,-161 2.60098,-48.0682 130.607,-97.589 240.601,-72 401.803,-34.4983 596.544,-23.5255 699.893,-20.3194"/>
<polygon fill="black" stroke="black" points="700.017,-23.8174 709.909,-20.0243 699.81,-16.8204 700.017,-23.8174"/>
</g>
<!-- HITs/colimit -->
<g id="node32" class="node"><title>HITs/colimit</title>
<ellipse fill="none" stroke="black" cx="249.601" cy="-378" rx="56.59" ry="18"/>
<text text-anchor="middle" x="249.601" y="-374.3" font-family="Times New Roman,serif" font-size="14.00">HITs/colimit</text>
</g>
<!-- HITs/graph&#45;&gt;HITs/colimit -->
<g id="edge37" class="edge"><title>HITs/graph&#45;&gt;HITs/colimit</title>
<path fill="none" stroke="black" d="M339.931,-433.983C323.369,-423.902 301.344,-410.496 283.188,-399.444"/>
<polygon fill="black" stroke="black" points="284.989,-396.443 274.627,-394.233 281.35,-402.423 284.989,-396.443"/>
</g>
<!-- HITs/generalized -->
<g id="node33" class="node"><title>HITs/generalized</title>
<ellipse fill="none" stroke="black" cx="102.601" cy="-378" rx="72.2875" ry="18"/>
<text text-anchor="middle" x="102.601" y="-374.3" font-family="Times New Roman,serif" font-size="14.00">HITs/generalized</text>
</g>
<!-- HITs/graph&#45;&gt;HITs/generalized -->
<g id="edge38" class="edge"><title>HITs/graph&#45;&gt;HITs/generalized</title>
<path fill="none" stroke="black" d="M324.524,-438.292C280.579,-426.551 209.697,-407.614 159.891,-394.306"/>
<polygon fill="black" stroke="black" points="160.789,-390.924 150.225,-391.724 158.982,-397.687 160.789,-390.924"/>
</g>
<!-- HITs/int -->
<g id="node34" class="node"><title>HITs/int</title>
<ellipse fill="none" stroke="black" cx="364.601" cy="-378" rx="40.8928" ry="18"/>
<text text-anchor="middle" x="364.601" y="-374.3" font-family="Times New Roman,serif" font-size="14.00">HITs/int</text>
</g>
<!-- HITs/graph&#45;&gt;HITs/int -->
<g id="edge39" class="edge"><title>HITs/graph&#45;&gt;HITs/int</title>
<path fill="none" stroke="black" d="M364.601,-431.697C364.601,-423.983 364.601,-414.712 364.601,-406.112"/>
<polygon fill="black" stroke="black" points="368.101,-406.104 364.601,-396.104 361.101,-406.104 368.101,-406.104"/>
</g>
<!-- HITs/pushout -->
<g id="node35" class="node"><title>HITs/pushout</title>
<ellipse fill="none" stroke="black" cx="729.601" cy="-378" rx="61.99" ry="18"/>
<text text-anchor="middle" x="729.601" y="-374.3" font-family="Times New Roman,serif" font-size="14.00">HITs/pushout</text>
</g>
<!-- HITs/graph&#45;&gt;HITs/pushout -->
<g id="edge40" class="edge"><title>HITs/graph&#45;&gt;HITs/pushout</title>
<path fill="none" stroke="black" d="M409.357,-440.417C474.718,-427.882 596.434,-404.539 669.527,-390.521"/>
<polygon fill="black" stroke="black" points="670.345,-393.928 679.507,-388.607 669.027,-387.053 670.345,-393.928"/>
</g>
<!-- types/precategory -->
<g id="node36" class="node"><title>types/precategory</title>
<ellipse fill="none" stroke="black" cx="498.601" cy="-378" rx="75.2868" ry="18"/>
<text text-anchor="middle" x="498.601" y="-374.3" font-family="Times New Roman,serif" font-size="14.00">types/precategory</text>
</g>
<!-- HITs/graph&#45;&gt;types/precategory -->
<g id="edge41" class="edge"><title>HITs/graph&#45;&gt;types/precategory</title>
<path fill="none" stroke="black" d="M392.366,-434.496C411.818,-424.334 438.083,-410.614 459.63,-399.358"/>
<polygon fill="black" stroke="black" points="461.299,-402.435 468.542,-394.703 458.058,-396.231 461.299,-402.435"/>
</g>
<!-- theorems/hopf -->
<g id="node30" class="node"><title>theorems/hopf</title>
<ellipse fill="none" stroke="black" cx="1061.6" cy="-18" rx="63.8893" ry="18"/>
<text text-anchor="middle" x="1061.6" y="-14.3" font-family="Times New Roman,serif" font-size="14.00">theorems/hopf</text>
</g>
<!-- HITs/circle&#45;&gt;theorems/hopf -->
<g id="edge32" class="edge"><title>HITs/circle&#45;&gt;theorems/hopf</title>
<path fill="none" stroke="black" d="M1018.11,-72.411C1025.03,-63.9056 1033.61,-53.3724 1041.31,-43.9138"/>
<polygon fill="black" stroke="black" points="1044.19,-45.9206 1047.79,-35.9562 1038.77,-41.5006 1044.19,-45.9206"/>
</g>
<!-- HITs/circle&#45;&gt;HITs/moebius -->
<g id="edge33" class="edge"><title>HITs/circle&#45;&gt;HITs/moebius</title>
<path fill="none" stroke="black" d="M966.81,-77.5975C927.977,-65.8807 867.256,-47.5596 824.055,-34.525"/>
<polygon fill="black" stroke="black" points="824.882,-31.1188 814.298,-31.5809 822.86,-37.8204 824.882,-31.1188"/>
</g>
<!-- types/rational&#45;&gt;types/dedekind -->
<g id="edge26" class="edge"><title>types/rational&#45;&gt;types/dedekind</title>
<path fill="none" stroke="black" d="M1343.59,-287.697C1344.03,-279.983 1344.56,-270.712 1345.05,-262.112"/>
<polygon fill="black" stroke="black" points="1348.55,-262.288 1345.62,-252.104 1341.56,-261.888 1348.55,-262.288"/>
</g>
<!-- theorems/nat&#45;&gt;HITs/circle -->
<g id="edge60" class="edge"><title>theorems/nat&#45;&gt;HITs/circle</title>
<path fill="none" stroke="black" d="M1004.6,-143.697C1004.6,-135.983 1004.6,-126.712 1004.6,-118.112"/>
<polygon fill="black" stroke="black" points="1008.1,-118.104 1004.6,-108.104 1001.1,-118.104 1008.1,-118.104"/>
</g>
<!-- cubical/cubes -->
<g id="node25" class="node"><title>cubical/cubes</title>
<ellipse fill="none" stroke="black" cx="643.601" cy="-234" rx="60.3893" ry="18"/>
<text text-anchor="middle" x="643.601" y="-230.3" font-family="Times New Roman,serif" font-size="14.00">cubical/cubes</text>
</g>
<!-- types/product&#45;&gt;cubical/cubes -->
<g id="edge24" class="edge"><title>types/product&#45;&gt;cubical/cubes</title>
<path fill="none" stroke="black" d="M804.702,-291.669C772.232,-280.247 725.334,-263.75 690.503,-251.498"/>
<polygon fill="black" stroke="black" points="691.616,-248.18 681.021,-248.163 689.293,-254.783 691.616,-248.18"/>
</g>
<!-- theorems/ua -->
<g id="node26" class="node"><title>theorems/ua</title>
<ellipse fill="none" stroke="black" cx="776.601" cy="-234" rx="54.6905" ry="18"/>
<text text-anchor="middle" x="776.601" y="-230.3" font-family="Times New Roman,serif" font-size="14.00">theorems/ua</text>
</g>
<!-- types/product&#45;&gt;theorems/ua -->
<g id="edge25" class="edge"><title>types/product&#45;&gt;theorems/ua</title>
<path fill="none" stroke="black" d="M826.96,-288.411C818.658,-279.606 808.308,-268.628 799.153,-258.919"/>
<polygon fill="black" stroke="black" points="801.537,-256.345 792.13,-251.47 796.443,-261.147 801.537,-256.345"/>
</g>
<!-- cubical/path -->
<g id="node41" class="node"><title>cubical/path</title>
<ellipse fill="none" stroke="black" cx="472.601" cy="-162" rx="54.6905" ry="18"/>
<text text-anchor="middle" x="472.601" y="-158.3" font-family="Times New Roman,serif" font-size="14.00">cubical/path</text>
</g>
<!-- cubical/cubes&#45;&gt;cubical/path -->
<g id="edge52" class="edge"><title>cubical/cubes&#45;&gt;cubical/path</title>
<path fill="none" stroke="black" d="M609.408,-219.003C582.262,-207.89 544.167,-192.296 515.068,-180.384"/>
<polygon fill="black" stroke="black" points="516.154,-177.047 505.573,-176.497 513.502,-183.525 516.154,-177.047"/>
</g>
<!-- theorems/ua&#45;&gt;theorems/nat -->
<g id="edge61" class="edge"><title>theorems/ua&#45;&gt;theorems/nat</title>
<path fill="none" stroke="black" d="M815.02,-221.205C853.675,-209.337 913.43,-190.991 955.501,-178.074"/>
<polygon fill="black" stroke="black" points="956.727,-181.36 965.259,-175.079 954.672,-174.668 956.727,-181.36"/>
</g>
<!-- cubical/V -->
<g id="node44" class="node"><title>cubical/V</title>
<ellipse fill="none" stroke="black" cx="772.601" cy="-90" rx="45.4919" ry="18"/>
<text text-anchor="middle" x="772.601" y="-86.3" font-family="Times New Roman,serif" font-size="14.00">cubical/V</text>
</g>
<!-- theorems/ua&#45;&gt;cubical/V -->
<g id="edge62" class="edge"><title>theorems/ua&#45;&gt;cubical/V</title>
<path fill="none" stroke="black" d="M776.118,-215.871C775.437,-191.67 774.184,-147.211 773.373,-118.393"/>
<polygon fill="black" stroke="black" points="776.865,-118.087 773.085,-108.189 769.868,-118.284 776.865,-118.087"/>
</g>
<!-- theorems/fibration&#45;&gt;theorems/hopf -->
<g id="edge58" class="edge"><title>theorems/fibration&#45;&gt;theorems/hopf</title>
<path fill="none" stroke="black" d="M1140.71,-215.849C1125.73,-178.583 1090.13,-90.0016 1072.25,-45.4898"/>
<polygon fill="black" stroke="black" points="1075.38,-43.9091 1068.41,-35.9354 1068.89,-46.5193 1075.38,-43.9091"/>
</g>
<!-- HITs/suspension&#45;&gt;HITs/circle -->
<g id="edge48" class="edge"><title>HITs/suspension&#45;&gt;HITs/circle</title>
<path fill="none" stroke="black" d="M482.613,-288.149C502.439,-268.211 538.081,-235.295 574.601,-216 699.277,-150.127 863.136,-114.849 948.072,-99.8799"/>
<polygon fill="black" stroke="black" points="948.775,-103.31 958.03,-98.1544 947.58,-96.4131 948.775,-103.31"/>
</g>
<!-- HITs/colimit&#45;&gt;HITs/truncation -->
<g id="edge34" class="edge"><title>HITs/colimit&#45;&gt;HITs/truncation</title>
<path fill="none" stroke="black" d="M256.621,-360.055C259.885,-352.176 263.846,-342.617 267.501,-333.794"/>
<polygon fill="black" stroke="black" points="270.85,-334.853 271.444,-324.275 264.383,-332.174 270.85,-334.853"/>
</g>
<!-- HITs/generalized&#45;&gt;HITs/truncation -->
<g id="edge35" class="edge"><title>HITs/generalized&#45;&gt;HITs/truncation</title>
<path fill="none" stroke="black" d="M139.496,-362.326C166.665,-351.52 203.778,-336.759 232.837,-325.202"/>
<polygon fill="black" stroke="black" points="234.359,-328.363 242.357,-321.415 231.772,-321.859 234.359,-328.363"/>
</g>
<!-- HITs/pushout&#45;&gt;HITs/reals -->
<g id="edge45" class="edge"><title>HITs/pushout&#45;&gt;HITs/reals</title>
<path fill="none" stroke="black" d="M725.893,-359.697C724.24,-351.983 722.254,-342.712 720.411,-334.112"/>
<polygon fill="black" stroke="black" points="723.784,-333.149 718.266,-324.104 716.939,-334.616 723.784,-333.149"/>
</g>
<!-- HITs/pushout&#45;&gt;HITs/suspension -->
<g id="edge46" class="edge"><title>HITs/pushout&#45;&gt;HITs/suspension</title>
<path fill="none" stroke="black" d="M685.581,-365.284C641.256,-353.486 572.663,-335.229 524.072,-322.296"/>
<polygon fill="black" stroke="black" points="524.892,-318.893 514.328,-319.703 523.092,-325.657 524.892,-318.893"/>
</g>
<!-- HITs/join -->
<g id="node37" class="node"><title>HITs/join</title>
<ellipse fill="none" stroke="black" cx="602.601" cy="-306" rx="45.4919" ry="18"/>
<text text-anchor="middle" x="602.601" y="-302.3" font-family="Times New Roman,serif" font-size="14.00">HITs/join</text>
</g>
<!-- HITs/pushout&#45;&gt;HITs/join -->
<g id="edge47" class="edge"><title>HITs/pushout&#45;&gt;HITs/join</title>
<path fill="none" stroke="black" d="M702.044,-361.811C682.938,-351.28 657.36,-337.182 636.929,-325.921"/>
<polygon fill="black" stroke="black" points="638.393,-322.732 627.946,-320.97 635.014,-328.862 638.393,-322.732"/>
</g>
<!-- cubical/connection -->
<g id="node40" class="node"><title>cubical/connection</title>
<ellipse fill="none" stroke="black" cx="472.601" cy="-90" rx="79.0865" ry="18"/>
<text text-anchor="middle" x="472.601" y="-86.3" font-family="Times New Roman,serif" font-size="14.00">cubical/connection</text>
</g>
<!-- cubical/path&#45;&gt;cubical/connection -->
<g id="edge53" class="edge"><title>cubical/path&#45;&gt;cubical/connection</title>
<path fill="none" stroke="black" d="M472.601,-143.697C472.601,-135.983 472.601,-126.712 472.601,-118.112"/>
<polygon fill="black" stroke="black" points="476.101,-118.104 472.601,-108.104 469.101,-118.104 476.101,-118.104"/>
</g>
<!-- cubical/example -->
<g id="node42" class="node"><title>cubical/example</title>
<ellipse fill="none" stroke="black" cx="638.601" cy="-90" rx="68.7879" ry="18"/>
<text text-anchor="middle" x="638.601" y="-86.3" font-family="Times New Roman,serif" font-size="14.00">cubical/example</text>
</g>
<!-- cubical/path&#45;&gt;cubical/example -->
<g id="edge54" class="edge"><title>cubical/path&#45;&gt;cubical/example</title>
<path fill="none" stroke="black" d="M505.002,-147.337C530.602,-136.542 566.589,-121.367 594.764,-109.486"/>
<polygon fill="black" stroke="black" points="596.139,-112.704 603.993,-105.594 593.419,-106.254 596.139,-112.704"/>
</g>
<!-- cubical/square -->
<g id="node43" class="node"><title>cubical/square</title>
<ellipse fill="none" stroke="black" cx="312.601" cy="-90" rx="63.0888" ry="18"/>
<text text-anchor="middle" x="312.601" y="-86.3" font-family="Times New Roman,serif" font-size="14.00">cubical/square</text>
</g>
<!-- cubical/path&#45;&gt;cubical/square -->
<g id="edge55" class="edge"><title>cubical/path&#45;&gt;cubical/square</title>
<path fill="none" stroke="black" d="M440.99,-147.17C416.306,-136.371 381.776,-121.264 354.742,-109.437"/>
<polygon fill="black" stroke="black" points="356.086,-106.204 345.521,-105.403 353.28,-112.617 356.086,-106.204"/>
</g>
<!-- cubical/path&#45;&gt;cubical/V -->
<g id="edge56" class="edge"><title>cubical/path&#45;&gt;cubical/V</title>
<path fill="none" stroke="black" d="M514.502,-150.402C523.431,-148.22 532.816,-145.985 541.601,-144 619.055,-126.499 639.64,-127.554 716.601,-108 720.478,-107.015 724.488,-105.931 728.497,-104.801"/>
<polygon fill="black" stroke="black" points="729.759,-108.079 738.387,-101.93 727.807,-101.357 729.759,-108.079"/>
</g>
<!-- cubical/V&#45;&gt;HITs/moebius -->
<g id="edge57" class="edge"><title>cubical/V&#45;&gt;HITs/moebius</title>
<path fill="none" stroke="black" d="M772.601,-71.6966C772.601,-63.9827 772.601,-54.7125 772.601,-46.1124"/>
<polygon fill="black" stroke="black" points="776.101,-46.1043 772.601,-36.1043 769.101,-46.1044 776.101,-46.1043"/>
</g>
<!-- theorems/functions -->
<g id="node45" class="node"><title>theorems/functions</title>
<ellipse fill="none" stroke="black" cx="1012.6" cy="-666" rx="79.8859" ry="18"/>
<text text-anchor="middle" x="1012.6" y="-662.3" font-family="Times New Roman,serif" font-size="14.00">theorems/functions</text>
</g>
<!-- theorems/functions&#45;&gt;types/equiv -->
<g id="edge59" class="edge"><title>theorems/functions&#45;&gt;types/equiv</title>
<path fill="none" stroke="black" d="M976.798,-649.811C950.77,-638.769 915.494,-623.803 888.379,-612.3"/>
<polygon fill="black" stroke="black" points="889.73,-609.071 879.157,-608.387 886.996,-615.515 889.73,-609.071"/>
</g>
</g>
</svg>
