<?xml version="1.0" encoding="UTF-8" standalone="no"?>
<!DOCTYPE svg PUBLIC "-//W3C//DTD SVG 1.1//EN"
 "http://www.w3.org/Graphics/SVG/1.1/DTD/svg11.dtd">
<!-- Generated by graphviz version 2.38.0 (20140413.2041)
 -->
<!-- Title: dependency_map Pages: 1 -->
<svg width="1600pt" height="836pt"
 viewBox="0.00 0.00 1600.15 836.00" xmlns="http://www.w3.org/2000/svg" xmlns:xlink="http://www.w3.org/1999/xlink">
<g id="graph0" class="graph" transform="scale(1 1) rotate(0) translate(4 832)">
<title>dependency_map</title>
<polygon fill="white" stroke="none" points="-4,4 -4,-832 1596.15,-832 1596.15,4 -4,4"/>
<!-- proto -->
<g id="node1" class="node"><title>proto</title>
<ellipse fill="none" stroke="black" cx="855" cy="-810" rx="30.5947" ry="18"/>
<text text-anchor="middle" x="855" y="-806.3" font-family="Times New Roman,serif" font-size="14.00">proto</text>
</g>
<!-- types/eq -->
<g id="node2" class="node"><title>types/eq</title>
<ellipse fill="none" stroke="black" cx="915" cy="-738" rx="41.6928" ry="18"/>
<text text-anchor="middle" x="915" y="-734.3" font-family="Times New Roman,serif" font-size="14.00">types/eq</text>
</g>
<!-- proto&#45;&gt;types/eq -->
<g id="edge1" class="edge"><title>proto&#45;&gt;types/eq</title>
<path fill="none" stroke="black" d="M868.316,-793.465C875.944,-784.566 885.681,-773.205 894.288,-763.164"/>
<polygon fill="black" stroke="black" points="897.035,-765.338 900.885,-755.467 891.72,-760.782 897.035,-765.338"/>
</g>
<!-- support -->
<g id="node4" class="node"><title>support</title>
<ellipse fill="none" stroke="black" cx="977" cy="-666" rx="38.9931" ry="18"/>
<text text-anchor="middle" x="977" y="-662.3" font-family="Times New Roman,serif" font-size="14.00">support</text>
</g>
<!-- types/eq&#45;&gt;support -->
<g id="edge13" class="edge"><title>types/eq&#45;&gt;support</title>
<path fill="none" stroke="black" d="M929.38,-720.765C937.283,-711.841 947.233,-700.608 955.991,-690.719"/>
<polygon fill="black" stroke="black" points="958.688,-692.954 962.698,-683.147 953.448,-688.313 958.688,-692.954"/>
</g>
<!-- types/dep_path -->
<g id="node16" class="node"><title>types/dep_path</title>
<ellipse fill="none" stroke="black" cx="853" cy="-666" rx="66.8882" ry="18"/>
<text text-anchor="middle" x="853" y="-662.3" font-family="Times New Roman,serif" font-size="14.00">types/dep_path</text>
</g>
<!-- types/eq&#45;&gt;types/dep_path -->
<g id="edge14" class="edge"><title>types/eq&#45;&gt;types/dep_path</title>
<path fill="none" stroke="black" d="M900.62,-720.765C892.83,-711.969 883.051,-700.928 874.385,-691.144"/>
<polygon fill="black" stroke="black" points="876.983,-688.799 867.732,-683.633 871.743,-693.44 876.983,-688.799"/>
</g>
<!-- meta/hott_theory -->
<g id="node3" class="node"><title>meta/hott_theory</title>
<ellipse fill="none" stroke="black" cx="976" cy="-810" rx="72.2875" ry="18"/>
<text text-anchor="middle" x="976" y="-806.3" font-family="Times New Roman,serif" font-size="14.00">meta/hott_theory</text>
</g>
<!-- meta/hott_theory&#45;&gt;types/eq -->
<g id="edge2" class="edge"><title>meta/hott_theory&#45;&gt;types/eq</title>
<path fill="none" stroke="black" d="M961.234,-792.055C953.631,-783.33 944.232,-772.544 935.898,-762.981"/>
<polygon fill="black" stroke="black" points="938.419,-760.547 929.21,-755.307 933.142,-765.146 938.419,-760.547"/>
</g>
<!-- types/equiv -->
<g id="node5" class="node"><title>types/equiv</title>
<ellipse fill="none" stroke="black" cx="977" cy="-594" rx="51.9908" ry="18"/>
<text text-anchor="middle" x="977" y="-590.3" font-family="Times New Roman,serif" font-size="14.00">types/equiv</text>
</g>
<!-- support&#45;&gt;types/equiv -->
<g id="edge3" class="edge"><title>support&#45;&gt;types/equiv</title>
<path fill="none" stroke="black" d="M977,-647.697C977,-639.983 977,-630.712 977,-622.112"/>
<polygon fill="black" stroke="black" points="980.5,-622.104 977,-612.104 973.5,-622.104 980.5,-622.104"/>
</g>
<!-- types/coproduct -->
<g id="node13" class="node"><title>types/coproduct</title>
<ellipse fill="none" stroke="black" cx="1220" cy="-522" rx="70.6878" ry="18"/>
<text text-anchor="middle" x="1220" y="-518.3" font-family="Times New Roman,serif" font-size="14.00">types/coproduct</text>
</g>
<!-- types/equiv&#45;&gt;types/coproduct -->
<g id="edge15" class="edge"><title>types/equiv&#45;&gt;types/coproduct</title>
<path fill="none" stroke="black" d="M1015.77,-581.831C1056.09,-570.216 1119.57,-551.932 1165.05,-538.83"/>
<polygon fill="black" stroke="black" points="1166.11,-542.166 1174.75,-536.035 1164.17,-535.439 1166.11,-542.166"/>
</g>
<!-- types/heq -->
<g id="node17" class="node"><title>types/heq</title>
<ellipse fill="none" stroke="black" cx="659" cy="-522" rx="46.2923" ry="18"/>
<text text-anchor="middle" x="659" y="-518.3" font-family="Times New Roman,serif" font-size="14.00">types/heq</text>
</g>
<!-- types/equiv&#45;&gt;types/heq -->
<g id="edge16" class="edge"><title>types/equiv&#45;&gt;types/heq</title>
<path fill="none" stroke="black" d="M931.072,-585.196C878.333,-575.899 789.38,-559.193 714,-540 710.398,-539.083 706.682,-538.074 702.961,-537.018"/>
<polygon fill="black" stroke="black" points="703.756,-533.604 693.175,-534.148 701.786,-540.321 703.756,-533.604"/>
</g>
<!-- HITs/infinitesimal -->
<g id="node18" class="node"><title>HITs/infinitesimal</title>
<ellipse fill="none" stroke="black" cx="908" cy="-522" rx="74.9875" ry="18"/>
<text text-anchor="middle" x="908" y="-518.3" font-family="Times New Roman,serif" font-size="14.00">HITs/infinitesimal</text>
</g>
<!-- types/equiv&#45;&gt;HITs/infinitesimal -->
<g id="edge17" class="edge"><title>types/equiv&#45;&gt;HITs/infinitesimal</title>
<path fill="none" stroke="black" d="M960.997,-576.765C952.241,-567.882 941.228,-556.709 931.513,-546.854"/>
<polygon fill="black" stroke="black" points="933.908,-544.298 924.396,-539.633 928.923,-549.212 933.908,-544.298"/>
</g>
<!-- types/lost -->
<g id="node19" class="node"><title>types/lost</title>
<ellipse fill="none" stroke="black" cx="1047" cy="-522" rx="46.2923" ry="18"/>
<text text-anchor="middle" x="1047" y="-518.3" font-family="Times New Roman,serif" font-size="14.00">types/lost</text>
</g>
<!-- types/equiv&#45;&gt;types/lost -->
<g id="edge18" class="edge"><title>types/equiv&#45;&gt;types/lost</title>
<path fill="none" stroke="black" d="M993.235,-576.765C1002.25,-567.753 1013.61,-556.385 1023.57,-546.426"/>
<polygon fill="black" stroke="black" points="1026.26,-548.693 1030.85,-539.147 1021.31,-543.744 1026.26,-548.693"/>
</g>
<!-- types/unit -->
<g id="node20" class="node"><title>types/unit</title>
<ellipse fill="none" stroke="black" cx="769" cy="-522" rx="46.2923" ry="18"/>
<text text-anchor="middle" x="769" y="-518.3" font-family="Times New Roman,serif" font-size="14.00">types/unit</text>
</g>
<!-- types/equiv&#45;&gt;types/unit -->
<g id="edge19" class="edge"><title>types/equiv&#45;&gt;types/unit</title>
<path fill="none" stroke="black" d="M940.769,-580.807C905.083,-568.797 850.54,-550.441 812.522,-537.647"/>
<polygon fill="black" stroke="black" points="813.345,-534.231 802.751,-534.359 811.113,-540.865 813.345,-534.231"/>
</g>
<!-- types/sigma -->
<g id="node21" class="node"><title>types/sigma</title>
<ellipse fill="none" stroke="black" cx="1107" cy="-306" rx="53.8905" ry="18"/>
<text text-anchor="middle" x="1107" y="-302.3" font-family="Times New Roman,serif" font-size="14.00">types/sigma</text>
</g>
<!-- types/equiv&#45;&gt;types/sigma -->
<g id="edge20" class="edge"><title>types/equiv&#45;&gt;types/sigma</title>
<path fill="none" stroke="black" d="M1023.66,-586.025C1051.36,-579.243 1084.41,-565.952 1102,-540 1144.75,-476.922 1127.31,-380.552 1115.1,-334.012"/>
<polygon fill="black" stroke="black" points="1118.39,-332.799 1112.37,-324.083 1111.64,-334.652 1118.39,-332.799"/>
</g>
<!-- structures -->
<g id="node6" class="node"><title>structures</title>
<ellipse fill="none" stroke="black" cx="978" cy="-450" rx="46.2923" ry="18"/>
<text text-anchor="middle" x="978" y="-446.3" font-family="Times New Roman,serif" font-size="14.00">structures</text>
</g>
<!-- HITs/interval -->
<g id="node7" class="node"><title>HITs/interval</title>
<ellipse fill="none" stroke="black" cx="935" cy="-378" rx="57.6901" ry="18"/>
<text text-anchor="middle" x="935" y="-374.3" font-family="Times New Roman,serif" font-size="14.00">HITs/interval</text>
</g>
<!-- structures&#45;&gt;HITs/interval -->
<g id="edge4" class="edge"><title>structures&#45;&gt;HITs/interval</title>
<path fill="none" stroke="black" d="M967.81,-432.411C962.69,-424.077 956.375,-413.797 950.657,-404.488"/>
<polygon fill="black" stroke="black" points="953.632,-402.645 945.416,-395.956 947.668,-406.309 953.632,-402.645"/>
</g>
<!-- HITs/truncation -->
<g id="node8" class="node"><title>HITs/truncation</title>
<ellipse fill="none" stroke="black" cx="365" cy="-306" rx="68.4888" ry="18"/>
<text text-anchor="middle" x="365" y="-302.3" font-family="Times New Roman,serif" font-size="14.00">HITs/truncation</text>
</g>
<!-- structures&#45;&gt;HITs/truncation -->
<g id="edge5" class="edge"><title>structures&#45;&gt;HITs/truncation</title>
<path fill="none" stroke="black" d="M950.753,-435.343C909.647,-415.376 828.825,-378.578 756,-360 624.594,-326.479 586.998,-344.875 453,-324 444.602,-322.692 435.78,-321.168 427.1,-319.58"/>
<polygon fill="black" stroke="black" points="427.48,-316.09 417.007,-317.695 426.195,-322.971 427.48,-316.09"/>
</g>
<!-- algebra/core -->
<g id="node9" class="node"><title>algebra/core</title>
<ellipse fill="none" stroke="black" cx="1204" cy="-378" rx="55.4913" ry="18"/>
<text text-anchor="middle" x="1204" y="-374.3" font-family="Times New Roman,serif" font-size="14.00">algebra/core</text>
</g>
<!-- structures&#45;&gt;algebra/core -->
<g id="edge6" class="edge"><title>structures&#45;&gt;algebra/core</title>
<path fill="none" stroke="black" d="M1013.31,-438.063C1051.55,-426.219 1112.79,-407.251 1155.52,-394.016"/>
<polygon fill="black" stroke="black" points="1156.63,-397.335 1165.15,-391.033 1154.56,-390.649 1156.63,-397.335"/>
</g>
<!-- types/nat -->
<g id="node10" class="node"><title>types/nat</title>
<ellipse fill="none" stroke="black" cx="1060" cy="-234" rx="43.5923" ry="18"/>
<text text-anchor="middle" x="1060" y="-230.3" font-family="Times New Roman,serif" font-size="14.00">types/nat</text>
</g>
<!-- structures&#45;&gt;types/nat -->
<g id="edge7" class="edge"><title>structures&#45;&gt;types/nat</title>
<path fill="none" stroke="black" d="M986.13,-431.964C990.951,-421.645 997.063,-408.167 1002,-396 1020.95,-349.299 1040.25,-293.794 1051.12,-261.66"/>
<polygon fill="black" stroke="black" points="1054.47,-262.683 1054.34,-252.089 1047.84,-260.45 1054.47,-262.683"/>
</g>
<!-- types/product -->
<g id="node27" class="node"><title>types/product</title>
<ellipse fill="none" stroke="black" cx="799" cy="-306" rx="61.99" ry="18"/>
<text text-anchor="middle" x="799" y="-302.3" font-family="Times New Roman,serif" font-size="14.00">types/product</text>
</g>
<!-- HITs/interval&#45;&gt;types/product -->
<g id="edge50" class="edge"><title>HITs/interval&#45;&gt;types/product</title>
<path fill="none" stroke="black" d="M906.49,-362.326C886.453,-352.012 859.415,-338.096 837.47,-326.801"/>
<polygon fill="black" stroke="black" points="838.905,-323.603 828.412,-322.138 835.701,-329.827 838.905,-323.603"/>
</g>
<!-- theorems/fibration -->
<g id="node30" class="node"><title>theorems/fibration</title>
<ellipse fill="none" stroke="black" cx="1198" cy="-234" rx="76.8869" ry="18"/>
<text text-anchor="middle" x="1198" y="-230.3" font-family="Times New Roman,serif" font-size="14.00">theorems/fibration</text>
</g>
<!-- HITs/interval&#45;&gt;theorems/fibration -->
<g id="edge51" class="edge"><title>HITs/interval&#45;&gt;theorems/fibration</title>
<path fill="none" stroke="black" d="M951.354,-360.457C971.554,-340.823 1007.71,-308.206 1044,-288 1073.19,-271.748 1108.23,-259.208 1137.51,-250.416"/>
<polygon fill="black" stroke="black" points="1138.59,-253.747 1147.21,-247.578 1136.63,-247.029 1138.59,-253.747"/>
</g>
<!-- theorems/prop -->
<g id="node31" class="node"><title>theorems/prop</title>
<ellipse fill="none" stroke="black" cx="935" cy="-234" rx="63.8893" ry="18"/>
<text text-anchor="middle" x="935" y="-230.3" font-family="Times New Roman,serif" font-size="14.00">theorems/prop</text>
</g>
<!-- HITs/interval&#45;&gt;theorems/prop -->
<g id="edge52" class="edge"><title>HITs/interval&#45;&gt;theorems/prop</title>
<path fill="none" stroke="black" d="M935,-359.871C935,-335.67 935,-291.211 935,-262.393"/>
<polygon fill="black" stroke="black" points="938.5,-262.189 935,-252.189 931.5,-262.189 938.5,-262.189"/>
</g>
<!-- HITs/truncation&#45;&gt;theorems/prop -->
<g id="edge57" class="edge"><title>HITs/truncation&#45;&gt;theorems/prop</title>
<path fill="none" stroke="black" d="M416.502,-294.127C428.446,-291.863 441.135,-289.662 453,-288 634.154,-262.618 682.405,-281.093 863,-252 868.468,-251.119 874.138,-250.053 879.785,-248.888"/>
<polygon fill="black" stroke="black" points="880.844,-252.24 889.878,-246.705 879.364,-245.398 880.844,-252.24"/>
</g>
<!-- HITs/simplicial -->
<g id="node44" class="node"><title>HITs/simplicial</title>
<ellipse fill="none" stroke="black" cx="94" cy="-234" rx="65.7887" ry="18"/>
<text text-anchor="middle" x="94" y="-230.3" font-family="Times New Roman,serif" font-size="14.00">HITs/simplicial</text>
</g>
<!-- HITs/truncation&#45;&gt;HITs/simplicial -->
<g id="edge58" class="edge"><title>HITs/truncation&#45;&gt;HITs/simplicial</title>
<path fill="none" stroke="black" d="M318.105,-292.887C271.476,-280.843 199.92,-262.359 150.258,-249.532"/>
<polygon fill="black" stroke="black" points="150.879,-246.077 140.321,-246.965 149.128,-252.855 150.879,-246.077"/>
</g>
<!-- theorems/mere_eq_lemma -->
<g id="node45" class="node"><title>theorems/mere_eq_lemma</title>
<ellipse fill="none" stroke="black" cx="284" cy="-234" rx="105.881" ry="18"/>
<text text-anchor="middle" x="284" y="-230.3" font-family="Times New Roman,serif" font-size="14.00">theorems/mere_eq_lemma</text>
</g>
<!-- HITs/truncation&#45;&gt;theorems/mere_eq_lemma -->
<g id="edge59" class="edge"><title>HITs/truncation&#45;&gt;theorems/mere_eq_lemma</title>
<path fill="none" stroke="black" d="M345.804,-288.411C335.389,-279.41 322.346,-268.139 310.93,-258.273"/>
<polygon fill="black" stroke="black" points="313.193,-255.603 303.339,-251.713 308.616,-260.899 313.193,-255.603"/>
</g>
<!-- theorems/graphs -->
<g id="node46" class="node"><title>theorems/graphs</title>
<ellipse fill="none" stroke="black" cx="479" cy="-234" rx="70.6878" ry="18"/>
<text text-anchor="middle" x="479" y="-230.3" font-family="Times New Roman,serif" font-size="14.00">theorems/graphs</text>
</g>
<!-- HITs/truncation&#45;&gt;theorems/graphs -->
<g id="edge60" class="edge"><title>HITs/truncation&#45;&gt;theorems/graphs</title>
<path fill="none" stroke="black" d="M390.584,-289.291C406.46,-279.542 427.065,-266.89 444.389,-256.252"/>
<polygon fill="black" stroke="black" points="446.417,-259.114 453.107,-250.899 442.754,-253.149 446.417,-259.114"/>
</g>
<!-- algebra/group -->
<g id="node11" class="node"><title>algebra/group</title>
<ellipse fill="none" stroke="black" cx="1239" cy="-306" rx="60.3893" ry="18"/>
<text text-anchor="middle" x="1239" y="-302.3" font-family="Times New Roman,serif" font-size="14.00">algebra/group</text>
</g>
<!-- algebra/core&#45;&gt;algebra/group -->
<g id="edge8" class="edge"><title>algebra/core&#45;&gt;algebra/group</title>
<path fill="none" stroke="black" d="M1212.47,-360.055C1216.5,-352.007 1221.4,-342.205 1225.89,-333.226"/>
<polygon fill="black" stroke="black" points="1229.02,-334.785 1230.36,-324.275 1222.76,-331.654 1229.02,-334.785"/>
</g>
<!-- theorems/nat -->
<g id="node26" class="node"><title>theorems/nat</title>
<ellipse fill="none" stroke="black" cx="1060" cy="-162" rx="57.3905" ry="18"/>
<text text-anchor="middle" x="1060" y="-158.3" font-family="Times New Roman,serif" font-size="14.00">theorems/nat</text>
</g>
<!-- types/nat&#45;&gt;theorems/nat -->
<g id="edge27" class="edge"><title>types/nat&#45;&gt;theorems/nat</title>
<path fill="none" stroke="black" d="M1060,-215.697C1060,-207.983 1060,-198.712 1060,-190.112"/>
<polygon fill="black" stroke="black" points="1063.5,-190.104 1060,-180.104 1056.5,-190.104 1063.5,-190.104"/>
</g>
<!-- algebra/homology -->
<g id="node12" class="node"><title>algebra/homology</title>
<ellipse fill="none" stroke="black" cx="1406" cy="-234" rx="75.2868" ry="18"/>
<text text-anchor="middle" x="1406" y="-230.3" font-family="Times New Roman,serif" font-size="14.00">algebra/homology</text>
</g>
<!-- algebra/group&#45;&gt;algebra/homology -->
<g id="edge9" class="edge"><title>algebra/group&#45;&gt;algebra/homology</title>
<path fill="none" stroke="black" d="M1272.79,-290.834C1298.12,-280.221 1333.03,-265.588 1360.75,-253.965"/>
<polygon fill="black" stroke="black" points="1362.37,-257.085 1370.24,-249.991 1359.66,-250.629 1362.37,-257.085"/>
</g>
<!-- types/coproduct&#45;&gt;structures -->
<g id="edge10" class="edge"><title>types/coproduct&#45;&gt;structures</title>
<path fill="none" stroke="black" d="M1175.05,-507.998C1131.93,-495.526 1067.15,-476.788 1023.77,-464.238"/>
<polygon fill="black" stroke="black" points="1024.62,-460.841 1014.04,-461.424 1022.67,-467.565 1024.62,-460.841"/>
</g>
<!-- types/integer -->
<g id="node14" class="node"><title>types/integer</title>
<ellipse fill="none" stroke="black" cx="1411" cy="-450" rx="56.59" ry="18"/>
<text text-anchor="middle" x="1411" y="-446.3" font-family="Times New Roman,serif" font-size="14.00">types/integer</text>
</g>
<!-- types/coproduct&#45;&gt;types/integer -->
<g id="edge11" class="edge"><title>types/coproduct&#45;&gt;types/integer</title>
<path fill="none" stroke="black" d="M1258.65,-506.834C1289.57,-495.502 1332.99,-479.589 1365.57,-467.649"/>
<polygon fill="black" stroke="black" points="1367.12,-470.808 1375.31,-464.081 1364.72,-464.235 1367.12,-470.808"/>
</g>
<!-- types/integer&#45;&gt;algebra/core -->
<g id="edge23" class="edge"><title>types/integer&#45;&gt;algebra/core</title>
<path fill="none" stroke="black" d="M1373.51,-436.324C1338.97,-424.642 1287.59,-407.266 1250.45,-394.708"/>
<polygon fill="black" stroke="black" points="1251.45,-391.352 1240.86,-391.464 1249.21,-397.984 1251.45,-391.352"/>
</g>
<!-- HITs/circle -->
<g id="node23" class="node"><title>HITs/circle</title>
<ellipse fill="none" stroke="black" cx="1060" cy="-90" rx="51.9908" ry="18"/>
<text text-anchor="middle" x="1060" y="-86.3" font-family="Times New Roman,serif" font-size="14.00">HITs/circle</text>
</g>
<!-- types/integer&#45;&gt;HITs/circle -->
<g id="edge24" class="edge"><title>types/integer&#45;&gt;HITs/circle</title>
<path fill="none" stroke="black" d="M1463.63,-443.412C1497.2,-437.171 1539.28,-423.961 1566,-396 1594.47,-366.209 1592,-348.209 1592,-307 1592,-307 1592,-307 1592,-233 1592,-136.475 1260.94,-103.873 1121.14,-94.4088"/>
<polygon fill="black" stroke="black" points="1121.22,-90.9066 1111.01,-93.7411 1120.76,-97.8914 1121.22,-90.9066"/>
</g>
<!-- HITs/reals -->
<g id="node24" class="node"><title>HITs/reals</title>
<ellipse fill="none" stroke="black" cx="1366" cy="-306" rx="48.9926" ry="18"/>
<text text-anchor="middle" x="1366" y="-302.3" font-family="Times New Roman,serif" font-size="14.00">HITs/reals</text>
</g>
<!-- types/integer&#45;&gt;HITs/reals -->
<g id="edge25" class="edge"><title>types/integer&#45;&gt;HITs/reals</title>
<path fill="none" stroke="black" d="M1408.63,-431.933C1405.82,-413.764 1400.42,-384.337 1392,-360 1388.83,-350.852 1384.46,-341.24 1380.21,-332.751"/>
<polygon fill="black" stroke="black" points="1383.24,-330.992 1375.53,-323.729 1377.03,-334.217 1383.24,-330.992"/>
</g>
<!-- types/rational -->
<g id="node25" class="node"><title>types/rational</title>
<ellipse fill="none" stroke="black" cx="1498" cy="-378" rx="59.2899" ry="18"/>
<text text-anchor="middle" x="1498" y="-374.3" font-family="Times New Roman,serif" font-size="14.00">types/rational</text>
</g>
<!-- types/integer&#45;&gt;types/rational -->
<g id="edge26" class="edge"><title>types/integer&#45;&gt;types/rational</title>
<path fill="none" stroke="black" d="M1430.74,-433.116C1442.34,-423.785 1457.19,-411.838 1469.98,-401.545"/>
<polygon fill="black" stroke="black" points="1472.44,-404.059 1478.04,-395.064 1468.05,-398.605 1472.44,-404.059"/>
</g>
<!-- types/dedekind -->
<g id="node15" class="node"><title>types/dedekind</title>
<ellipse fill="none" stroke="black" cx="1498" cy="-306" rx="65.7887" ry="18"/>
<text text-anchor="middle" x="1498" y="-302.3" font-family="Times New Roman,serif" font-size="14.00">types/dedekind</text>
</g>
<!-- types/dep_path&#45;&gt;types/equiv -->
<g id="edge12" class="edge"><title>types/dep_path&#45;&gt;types/equiv</title>
<path fill="none" stroke="black" d="M880.52,-649.465C898.629,-639.242 922.492,-625.771 941.955,-614.783"/>
<polygon fill="black" stroke="black" points="943.843,-617.737 950.831,-609.773 940.402,-611.641 943.843,-617.737"/>
</g>
<!-- types/heq&#45;&gt;HITs/interval -->
<g id="edge21" class="edge"><title>types/heq&#45;&gt;HITs/interval</title>
<path fill="none" stroke="black" d="M685.715,-507.255C735.053,-481.872 840.584,-427.576 897.223,-398.436"/>
<polygon fill="black" stroke="black" points="898.918,-401.5 906.209,-393.813 895.716,-395.275 898.918,-401.5"/>
</g>
<!-- HITs/graph -->
<g id="node22" class="node"><title>HITs/graph</title>
<ellipse fill="none" stroke="black" cx="365" cy="-450" rx="52.7911" ry="18"/>
<text text-anchor="middle" x="365" y="-446.3" font-family="Times New Roman,serif" font-size="14.00">HITs/graph</text>
</g>
<!-- types/heq&#45;&gt;HITs/graph -->
<g id="edge22" class="edge"><title>types/heq&#45;&gt;HITs/graph</title>
<path fill="none" stroke="black" d="M620.565,-511.849C568.478,-499.447 475.305,-477.263 417.004,-463.382"/>
<polygon fill="black" stroke="black" points="417.789,-459.971 407.25,-461.06 416.167,-466.781 417.789,-459.971"/>
</g>
<!-- types/unit&#45;&gt;structures -->
<g id="edge36" class="edge"><title>types/unit&#45;&gt;structures</title>
<path fill="none" stroke="black" d="M803.045,-509.597C838.873,-497.598 895.384,-478.67 934.44,-465.59"/>
<polygon fill="black" stroke="black" points="935.599,-468.892 943.97,-462.398 933.376,-462.255 935.599,-468.892"/>
</g>
<!-- HITs/suspension -->
<g id="node33" class="node"><title>HITs/suspension</title>
<ellipse fill="none" stroke="black" cx="643" cy="-306" rx="72.5877" ry="18"/>
<text text-anchor="middle" x="643" y="-302.3" font-family="Times New Roman,serif" font-size="14.00">HITs/suspension</text>
</g>
<!-- types/unit&#45;&gt;HITs/suspension -->
<g id="edge37" class="edge"><title>types/unit&#45;&gt;HITs/suspension</title>
<path fill="none" stroke="black" d="M772.769,-503.893C778.697,-472.327 786.605,-404.126 756,-360 743.742,-342.327 724.002,-330.391 704.425,-322.4"/>
<polygon fill="black" stroke="black" points="705.453,-319.047 694.861,-318.786 702.978,-325.595 705.453,-319.047"/>
</g>
<!-- types/sigma&#45;&gt;theorems/nat -->
<g id="edge31" class="edge"><title>types/sigma&#45;&gt;theorems/nat</title>
<path fill="none" stroke="black" d="M1147,-293.662C1198.55,-278.956 1281.89,-254.838 1284,-252 1293.55,-239.166 1293.93,-228.549 1284,-216 1264.31,-191.112 1182.85,-176.706 1123.83,-169.355"/>
<polygon fill="black" stroke="black" points="1124.17,-165.872 1113.83,-168.149 1123.34,-172.821 1124.17,-165.872"/>
</g>
<!-- types/sigma&#45;&gt;theorems/fibration -->
<g id="edge32" class="edge"><title>types/sigma&#45;&gt;theorems/fibration</title>
<path fill="none" stroke="black" d="M1127.65,-289.116C1139.81,-279.763 1155.38,-267.782 1168.79,-257.472"/>
<polygon fill="black" stroke="black" points="1171.01,-260.178 1176.8,-251.307 1166.74,-254.63 1171.01,-260.178"/>
</g>
<!-- types/sigma&#45;&gt;theorems/prop -->
<g id="edge33" class="edge"><title>types/sigma&#45;&gt;theorems/prop</title>
<path fill="none" stroke="black" d="M1074.24,-291.669C1047.24,-280.68 1008.7,-264.993 979.004,-252.909"/>
<polygon fill="black" stroke="black" points="980.283,-249.65 969.701,-249.122 977.644,-256.134 980.283,-249.65"/>
</g>
<!-- HITs/moebius -->
<g id="node36" class="node"><title>HITs/moebius</title>
<ellipse fill="none" stroke="black" cx="779" cy="-18" rx="63.0888" ry="18"/>
<text text-anchor="middle" x="779" y="-14.3" font-family="Times New Roman,serif" font-size="14.00">HITs/moebius</text>
</g>
<!-- HITs/graph&#45;&gt;HITs/moebius -->
<g id="edge43" class="edge"><title>HITs/graph&#45;&gt;HITs/moebius</title>
<path fill="none" stroke="black" d="M313.79,-445.489C236.467,-439.336 94.5206,-424.465 53,-396 15.0285,-369.968 0,-353.038 0,-307 0,-307 0,-307 0,-161 0,-46.8184 129.721,-97.5835 241,-72 404.321,-34.4517 601.54,-23.4984 705.919,-20.3076"/>
<polygon fill="black" stroke="black" points="706.139,-23.8028 716.033,-20.014 705.936,-16.8058 706.139,-23.8028"/>
</g>
<!-- HITs/colimit -->
<g id="node37" class="node"><title>HITs/colimit</title>
<ellipse fill="none" stroke="black" cx="218" cy="-378" rx="56.59" ry="18"/>
<text text-anchor="middle" x="218" y="-374.3" font-family="Times New Roman,serif" font-size="14.00">HITs/colimit</text>
</g>
<!-- HITs/graph&#45;&gt;HITs/colimit -->
<g id="edge44" class="edge"><title>HITs/graph&#45;&gt;HITs/colimit</title>
<path fill="none" stroke="black" d="M335.606,-435.003C313.094,-424.283 281.824,-409.392 257.186,-397.66"/>
<polygon fill="black" stroke="black" points="258.634,-394.473 248.1,-393.333 255.624,-400.793 258.634,-394.473"/>
</g>
<!-- HITs/generalized -->
<g id="node38" class="node"><title>HITs/generalized</title>
<ellipse fill="none" stroke="black" cx="365" cy="-378" rx="72.2875" ry="18"/>
<text text-anchor="middle" x="365" y="-374.3" font-family="Times New Roman,serif" font-size="14.00">HITs/generalized</text>
</g>
<!-- HITs/graph&#45;&gt;HITs/generalized -->
<g id="edge45" class="edge"><title>HITs/graph&#45;&gt;HITs/generalized</title>
<path fill="none" stroke="black" d="M365,-431.697C365,-423.983 365,-414.712 365,-406.112"/>
<polygon fill="black" stroke="black" points="368.5,-406.104 365,-396.104 361.5,-406.104 368.5,-406.104"/>
</g>
<!-- HITs/int -->
<g id="node39" class="node"><title>HITs/int</title>
<ellipse fill="none" stroke="black" cx="103" cy="-378" rx="40.8928" ry="18"/>
<text text-anchor="middle" x="103" y="-374.3" font-family="Times New Roman,serif" font-size="14.00">HITs/int</text>
</g>
<!-- HITs/graph&#45;&gt;HITs/int -->
<g id="edge46" class="edge"><title>HITs/graph&#45;&gt;HITs/int</title>
<path fill="none" stroke="black" d="M321.855,-439.467C278.607,-429.629 210.261,-413.317 152,-396 149.073,-395.13 146.063,-394.193 143.041,-393.22"/>
<polygon fill="black" stroke="black" points="144.038,-389.863 133.444,-390.038 141.834,-396.508 144.038,-389.863"/>
</g>
<!-- HITs/pushout -->
<g id="node40" class="node"><title>HITs/pushout</title>
<ellipse fill="none" stroke="black" cx="517" cy="-378" rx="61.99" ry="18"/>
<text text-anchor="middle" x="517" y="-374.3" font-family="Times New Roman,serif" font-size="14.00">HITs/pushout</text>
</g>
<!-- HITs/graph&#45;&gt;HITs/pushout -->
<g id="edge47" class="edge"><title>HITs/graph&#45;&gt;HITs/pushout</title>
<path fill="none" stroke="black" d="M395.03,-435.17C418.301,-424.453 450.782,-409.495 476.375,-397.709"/>
<polygon fill="black" stroke="black" points="477.843,-400.886 485.462,-393.524 474.915,-394.528 477.843,-400.886"/>
</g>
<!-- types/precategory -->
<g id="node41" class="node"><title>types/precategory</title>
<ellipse fill="none" stroke="black" cx="672" cy="-378" rx="75.2868" ry="18"/>
<text text-anchor="middle" x="672" y="-374.3" font-family="Times New Roman,serif" font-size="14.00">types/precategory</text>
</g>
<!-- HITs/graph&#45;&gt;types/precategory -->
<g id="edge48" class="edge"><title>HITs/graph&#45;&gt;types/precategory</title>
<path fill="none" stroke="black" d="M407.687,-439.267C460.126,-427.31 549.509,-406.929 609.64,-393.219"/>
<polygon fill="black" stroke="black" points="610.428,-396.629 619.399,-390.994 608.871,-389.804 610.428,-396.629"/>
</g>
<!-- HITs/ntrunc -->
<g id="node34" class="node"><title>HITs/ntrunc</title>
<ellipse fill="none" stroke="black" cx="1060" cy="-18" rx="55.4913" ry="18"/>
<text text-anchor="middle" x="1060" y="-14.3" font-family="Times New Roman,serif" font-size="14.00">HITs/ntrunc</text>
</g>
<!-- HITs/circle&#45;&gt;HITs/ntrunc -->
<g id="edge38" class="edge"><title>HITs/circle&#45;&gt;HITs/ntrunc</title>
<path fill="none" stroke="black" d="M1060,-71.6966C1060,-63.9827 1060,-54.7125 1060,-46.1124"/>
<polygon fill="black" stroke="black" points="1063.5,-46.1043 1060,-36.1043 1056.5,-46.1044 1063.5,-46.1043"/>
</g>
<!-- theorems/hopf -->
<g id="node35" class="node"><title>theorems/hopf</title>
<ellipse fill="none" stroke="black" cx="1197" cy="-18" rx="63.8893" ry="18"/>
<text text-anchor="middle" x="1197" y="-14.3" font-family="Times New Roman,serif" font-size="14.00">theorems/hopf</text>
</g>
<!-- HITs/circle&#45;&gt;theorems/hopf -->
<g id="edge39" class="edge"><title>HITs/circle&#45;&gt;theorems/hopf</title>
<path fill="none" stroke="black" d="M1088.05,-74.6655C1108.42,-64.2596 1136.22,-50.0566 1158.64,-38.6019"/>
<polygon fill="black" stroke="black" points="1160.25,-41.7077 1167.56,-34.0409 1157.07,-35.4742 1160.25,-41.7077"/>
</g>
<!-- HITs/circle&#45;&gt;HITs/moebius -->
<g id="edge40" class="edge"><title>HITs/circle&#45;&gt;HITs/moebius</title>
<path fill="none" stroke="black" d="M1019.14,-78.8214C970.562,-66.7202 889.244,-46.4629 834.873,-32.9186"/>
<polygon fill="black" stroke="black" points="835.598,-29.4923 825.049,-30.4712 833.906,-36.2847 835.598,-29.4923"/>
</g>
<!-- types/rational&#45;&gt;types/dedekind -->
<g id="edge30" class="edge"><title>types/rational&#45;&gt;types/dedekind</title>
<path fill="none" stroke="black" d="M1498,-359.697C1498,-351.983 1498,-342.712 1498,-334.112"/>
<polygon fill="black" stroke="black" points="1501.5,-334.104 1498,-324.104 1494.5,-334.104 1501.5,-334.104"/>
</g>
<!-- theorems/nat&#45;&gt;HITs/circle -->
<g id="edge69" class="edge"><title>theorems/nat&#45;&gt;HITs/circle</title>
<path fill="none" stroke="black" d="M1060,-143.697C1060,-135.983 1060,-126.712 1060,-118.112"/>
<polygon fill="black" stroke="black" points="1063.5,-118.104 1060,-108.104 1056.5,-118.104 1063.5,-118.104"/>
</g>
<!-- cubical/cubes -->
<g id="node28" class="node"><title>cubical/cubes</title>
<ellipse fill="none" stroke="black" cx="666" cy="-234" rx="60.3893" ry="18"/>
<text text-anchor="middle" x="666" y="-230.3" font-family="Times New Roman,serif" font-size="14.00">cubical/cubes</text>
</g>
<!-- types/product&#45;&gt;cubical/cubes -->
<g id="edge28" class="edge"><title>types/product&#45;&gt;cubical/cubes</title>
<path fill="none" stroke="black" d="M770.468,-289.983C750.921,-279.695 724.791,-265.942 703.554,-254.765"/>
<polygon fill="black" stroke="black" points="704.964,-251.552 694.485,-249.992 701.704,-257.747 704.964,-251.552"/>
</g>
<!-- theorems/ua -->
<g id="node29" class="node"><title>theorems/ua</title>
<ellipse fill="none" stroke="black" cx="799" cy="-234" rx="54.6905" ry="18"/>
<text text-anchor="middle" x="799" y="-230.3" font-family="Times New Roman,serif" font-size="14.00">theorems/ua</text>
</g>
<!-- types/product&#45;&gt;theorems/ua -->
<g id="edge29" class="edge"><title>types/product&#45;&gt;theorems/ua</title>
<path fill="none" stroke="black" d="M799,-287.697C799,-279.983 799,-270.712 799,-262.112"/>
<polygon fill="black" stroke="black" points="802.5,-262.104 799,-252.104 795.5,-262.104 802.5,-262.104"/>
</g>
<!-- cubical/path -->
<g id="node48" class="node"><title>cubical/path</title>
<ellipse fill="none" stroke="black" cx="495" cy="-162" rx="54.6905" ry="18"/>
<text text-anchor="middle" x="495" y="-158.3" font-family="Times New Roman,serif" font-size="14.00">cubical/path</text>
</g>
<!-- cubical/cubes&#45;&gt;cubical/path -->
<g id="edge61" class="edge"><title>cubical/cubes&#45;&gt;cubical/path</title>
<path fill="none" stroke="black" d="M631.807,-219.003C604.661,-207.89 566.566,-192.296 537.467,-180.384"/>
<polygon fill="black" stroke="black" points="538.553,-177.047 527.972,-176.497 535.901,-183.525 538.553,-177.047"/>
</g>
<!-- theorems/ua&#45;&gt;theorems/nat -->
<g id="edge70" class="edge"><title>theorems/ua&#45;&gt;theorems/nat</title>
<path fill="none" stroke="black" d="M840.002,-221.923C847.327,-219.948 854.889,-217.911 862,-216 911.581,-202.675 968.164,-187.536 1008.11,-176.859"/>
<polygon fill="black" stroke="black" points="1009.13,-180.208 1017.89,-174.245 1007.33,-173.445 1009.13,-180.208"/>
</g>
<!-- cubical/V -->
<g id="node51" class="node"><title>cubical/V</title>
<ellipse fill="none" stroke="black" cx="779" cy="-90" rx="45.4919" ry="18"/>
<text text-anchor="middle" x="779" y="-86.3" font-family="Times New Roman,serif" font-size="14.00">cubical/V</text>
</g>
<!-- theorems/ua&#45;&gt;cubical/V -->
<g id="edge71" class="edge"><title>theorems/ua&#45;&gt;cubical/V</title>
<path fill="none" stroke="black" d="M796.588,-215.871C793.179,-191.67 786.917,-147.211 782.858,-118.393"/>
<polygon fill="black" stroke="black" points="786.282,-117.603 781.421,-108.189 779.35,-118.58 786.282,-117.603"/>
</g>
<!-- theorems/fibration&#45;&gt;theorems/hopf -->
<g id="edge67" class="edge"><title>theorems/fibration&#45;&gt;theorems/hopf</title>
<path fill="none" stroke="black" d="M1197.92,-215.849C1197.75,-178.832 1197.34,-91.1809 1197.13,-46.3863"/>
<polygon fill="black" stroke="black" points="1200.63,-46.216 1197.08,-36.2325 1193.63,-46.2487 1200.63,-46.216"/>
</g>
<!-- types/swale -->
<g id="node32" class="node"><title>types/swale</title>
<ellipse fill="none" stroke="black" cx="1330" cy="-378" rx="52.7911" ry="18"/>
<text text-anchor="middle" x="1330" y="-374.3" font-family="Times New Roman,serif" font-size="14.00">types/swale</text>
</g>
<!-- types/swale&#45;&gt;algebra/group -->
<g id="edge34" class="edge"><title>types/swale&#45;&gt;algebra/group</title>
<path fill="none" stroke="black" d="M1309.35,-361.116C1297.1,-351.696 1281.39,-339.611 1267.93,-329.251"/>
<polygon fill="black" stroke="black" points="1269.94,-326.386 1259.88,-323.064 1265.67,-331.935 1269.94,-326.386"/>
</g>
<!-- types/swale&#45;&gt;HITs/reals -->
<g id="edge35" class="edge"><title>types/swale&#45;&gt;HITs/reals</title>
<path fill="none" stroke="black" d="M1338.71,-360.055C1342.92,-351.887 1348.05,-341.912 1352.72,-332.824"/>
<polygon fill="black" stroke="black" points="1355.9,-334.283 1357.37,-323.789 1349.68,-331.081 1355.9,-334.283"/>
</g>
<!-- HITs/suspension&#45;&gt;HITs/circle -->
<g id="edge56" class="edge"><title>HITs/suspension&#45;&gt;HITs/circle</title>
<path fill="none" stroke="black" d="M623.783,-288.57C604.296,-269.909 579.339,-239.061 597,-216 646.274,-151.658 888.347,-112.889 1001.5,-98.0063"/>
<polygon fill="black" stroke="black" points="1002.24,-101.439 1011.71,-96.6823 1001.34,-94.4974 1002.24,-101.439"/>
</g>
<!-- HITs/colimit&#45;&gt;HITs/truncation -->
<g id="edge41" class="edge"><title>HITs/colimit&#45;&gt;HITs/truncation</title>
<path fill="none" stroke="black" d="M248.102,-362.666C270.052,-352.213 300.046,-337.93 324.156,-326.449"/>
<polygon fill="black" stroke="black" points="325.89,-329.5 333.414,-322.041 322.881,-323.18 325.89,-329.5"/>
</g>
<!-- HITs/generalized&#45;&gt;HITs/truncation -->
<g id="edge42" class="edge"><title>HITs/generalized&#45;&gt;HITs/truncation</title>
<path fill="none" stroke="black" d="M365,-359.697C365,-351.983 365,-342.712 365,-334.112"/>
<polygon fill="black" stroke="black" points="368.5,-334.104 365,-324.104 361.5,-334.104 368.5,-334.104"/>
</g>
<!-- HITs/rat -->
<g id="node42" class="node"><title>HITs/rat</title>
<ellipse fill="none" stroke="black" cx="103" cy="-306" rx="41.6928" ry="18"/>
<text text-anchor="middle" x="103" y="-302.3" font-family="Times New Roman,serif" font-size="14.00">HITs/rat</text>
</g>
<!-- HITs/int&#45;&gt;HITs/rat -->
<g id="edge49" class="edge"><title>HITs/int&#45;&gt;HITs/rat</title>
<path fill="none" stroke="black" d="M103,-359.697C103,-351.983 103,-342.712 103,-334.112"/>
<polygon fill="black" stroke="black" points="106.5,-334.104 103,-324.104 99.5001,-334.104 106.5,-334.104"/>
</g>
<!-- HITs/pushout&#45;&gt;HITs/reals -->
<g id="edge53" class="edge"><title>HITs/pushout&#45;&gt;HITs/reals</title>
<path fill="none" stroke="black" d="M560.689,-365.2C569.664,-363.155 579.092,-361.278 588,-360 905.153,-314.502 992.086,-377.428 1308,-324 1312.37,-323.262 1316.87,-322.305 1321.35,-321.221"/>
<polygon fill="black" stroke="black" points="1322.25,-324.602 1331.04,-318.683 1320.48,-317.831 1322.25,-324.602"/>
</g>
<!-- HITs/pushout&#45;&gt;HITs/suspension -->
<g id="edge54" class="edge"><title>HITs/pushout&#45;&gt;HITs/suspension</title>
<path fill="none" stroke="black" d="M544.34,-361.811C562.417,-351.769 586.333,-338.482 606.091,-327.505"/>
<polygon fill="black" stroke="black" points="607.799,-330.56 614.841,-322.644 604.399,-324.441 607.799,-330.56"/>
</g>
<!-- HITs/join -->
<g id="node43" class="node"><title>HITs/join</title>
<ellipse fill="none" stroke="black" cx="507" cy="-306" rx="45.4919" ry="18"/>
<text text-anchor="middle" x="507" y="-302.3" font-family="Times New Roman,serif" font-size="14.00">HITs/join</text>
</g>
<!-- HITs/pushout&#45;&gt;HITs/join -->
<g id="edge55" class="edge"><title>HITs/pushout&#45;&gt;HITs/join</title>
<path fill="none" stroke="black" d="M514.528,-359.697C513.426,-351.983 512.102,-342.712 510.873,-334.112"/>
<polygon fill="black" stroke="black" points="514.323,-333.509 509.443,-324.104 507.393,-334.499 514.323,-333.509"/>
</g>
<!-- cubical/connection -->
<g id="node47" class="node"><title>cubical/connection</title>
<ellipse fill="none" stroke="black" cx="329" cy="-90" rx="79.0865" ry="18"/>
<text text-anchor="middle" x="329" y="-86.3" font-family="Times New Roman,serif" font-size="14.00">cubical/connection</text>
</g>
<!-- cubical/path&#45;&gt;cubical/connection -->
<g id="edge62" class="edge"><title>cubical/path&#45;&gt;cubical/connection</title>
<path fill="none" stroke="black" d="M462.599,-147.337C437.448,-136.731 402.271,-121.897 374.327,-110.114"/>
<polygon fill="black" stroke="black" points="375.346,-106.745 364.772,-106.085 372.626,-113.195 375.346,-106.745"/>
</g>
<!-- cubical/example -->
<g id="node49" class="node"><title>cubical/example</title>
<ellipse fill="none" stroke="black" cx="495" cy="-90" rx="68.7879" ry="18"/>
<text text-anchor="middle" x="495" y="-86.3" font-family="Times New Roman,serif" font-size="14.00">cubical/example</text>
</g>
<!-- cubical/path&#45;&gt;cubical/example -->
<g id="edge63" class="edge"><title>cubical/path&#45;&gt;cubical/example</title>
<path fill="none" stroke="black" d="M495,-143.697C495,-135.983 495,-126.712 495,-118.112"/>
<polygon fill="black" stroke="black" points="498.5,-118.104 495,-108.104 491.5,-118.104 498.5,-118.104"/>
</g>
<!-- cubical/square -->
<g id="node50" class="node"><title>cubical/square</title>
<ellipse fill="none" stroke="black" cx="645" cy="-90" rx="63.0888" ry="18"/>
<text text-anchor="middle" x="645" y="-86.3" font-family="Times New Roman,serif" font-size="14.00">cubical/square</text>
</g>
<!-- cubical/path&#45;&gt;cubical/square -->
<g id="edge64" class="edge"><title>cubical/path&#45;&gt;cubical/square</title>
<path fill="none" stroke="black" d="M525.355,-146.834C548.127,-136.207 579.534,-121.551 604.455,-109.921"/>
<polygon fill="black" stroke="black" points="606.076,-113.027 613.658,-105.626 603.116,-106.684 606.076,-113.027"/>
</g>
<!-- cubical/path&#45;&gt;cubical/V -->
<g id="edge65" class="edge"><title>cubical/path&#45;&gt;cubical/V</title>
<path fill="none" stroke="black" d="M537.312,-150.501C546.128,-148.334 555.364,-146.08 564,-144 631.915,-127.644 649.304,-125.239 717,-108 722.273,-106.657 727.786,-105.209 733.256,-103.745"/>
<polygon fill="black" stroke="black" points="734.256,-107.101 742.996,-101.111 732.429,-100.343 734.256,-107.101"/>
</g>
<!-- cubical/V&#45;&gt;HITs/moebius -->
<g id="edge66" class="edge"><title>cubical/V&#45;&gt;HITs/moebius</title>
<path fill="none" stroke="black" d="M779,-71.6966C779,-63.9827 779,-54.7125 779,-46.1124"/>
<polygon fill="black" stroke="black" points="782.5,-46.1043 779,-36.1043 775.5,-46.1044 782.5,-46.1043"/>
</g>
<!-- theorems/functions -->
<g id="node52" class="node"><title>theorems/functions</title>
<ellipse fill="none" stroke="black" cx="1114" cy="-666" rx="79.8859" ry="18"/>
<text text-anchor="middle" x="1114" y="-662.3" font-family="Times New Roman,serif" font-size="14.00">theorems/functions</text>
</g>
<!-- theorems/functions&#45;&gt;types/equiv -->
<g id="edge68" class="edge"><title>theorems/functions&#45;&gt;types/equiv</title>
<path fill="none" stroke="black" d="M1083.25,-649.291C1062.68,-638.78 1035.51,-624.894 1013.79,-613.797"/>
<polygon fill="black" stroke="black" points="1015.35,-610.663 1004.85,-609.229 1012.16,-616.896 1015.35,-610.663"/>
</g>
<!-- theorems/topology -->
<g id="node53" class="node"><title>theorems/topology</title>
<ellipse fill="none" stroke="black" cx="1145" cy="-810" rx="79.0865" ry="18"/>
<text text-anchor="middle" x="1145" y="-806.3" font-family="Times New Roman,serif" font-size="14.00">theorems/topology</text>
</g>
</g>
</svg>
