<?xml version="1.0" encoding="UTF-8" standalone="no"?>
<!DOCTYPE svg PUBLIC "-//W3C//DTD SVG 1.1//EN"
 "http://www.w3.org/Graphics/SVG/1.1/DTD/svg11.dtd">
<!-- Generated by graphviz version 2.38.0 (20140413.2041)
 -->
<!-- Title: dependency_map Pages: 1 -->
<svg width="1428pt" height="764pt"
 viewBox="0.00 0.00 1427.69 764.00" xmlns="http://www.w3.org/2000/svg" xmlns:xlink="http://www.w3.org/1999/xlink">
<g id="graph0" class="graph" transform="scale(1 1) rotate(0) translate(4 760)">
<title>dependency_map</title>
<polygon fill="white" stroke="none" points="-4,4 -4,-760 1423.69,-760 1423.69,4 -4,4"/>
<!-- proto -->
<g id="node1" class="node"><title>proto</title>
<ellipse fill="none" stroke="black" cx="499.044" cy="-738" rx="30.5947" ry="18"/>
<text text-anchor="middle" x="499.044" y="-734.3" font-family="Times New Roman,serif" font-size="14.00">proto</text>
</g>
<!-- types/eq -->
<g id="node2" class="node"><title>types/eq</title>
<ellipse fill="none" stroke="black" cx="559.044" cy="-666" rx="41.6928" ry="18"/>
<text text-anchor="middle" x="559.044" y="-662.3" font-family="Times New Roman,serif" font-size="14.00">types/eq</text>
</g>
<!-- proto&#45;&gt;types/eq -->
<g id="edge1" class="edge"><title>proto&#45;&gt;types/eq</title>
<path fill="none" stroke="black" d="M512.36,-721.465C519.988,-712.566 529.726,-701.205 538.332,-691.164"/>
<polygon fill="black" stroke="black" points="541.079,-693.338 544.93,-683.467 535.764,-688.782 541.079,-693.338"/>
</g>
<!-- support -->
<g id="node4" class="node"><title>support</title>
<ellipse fill="none" stroke="black" cx="621.044" cy="-594" rx="38.9931" ry="18"/>
<text text-anchor="middle" x="621.044" y="-590.3" font-family="Times New Roman,serif" font-size="14.00">support</text>
</g>
<!-- types/eq&#45;&gt;support -->
<g id="edge11" class="edge"><title>types/eq&#45;&gt;support</title>
<path fill="none" stroke="black" d="M573.424,-648.765C581.328,-639.841 591.277,-628.608 600.036,-618.719"/>
<polygon fill="black" stroke="black" points="602.732,-620.954 606.743,-611.147 597.492,-616.313 602.732,-620.954"/>
</g>
<!-- types/dep_path -->
<g id="node18" class="node"><title>types/dep_path</title>
<ellipse fill="none" stroke="black" cx="497.044" cy="-594" rx="66.8882" ry="18"/>
<text text-anchor="middle" x="497.044" y="-590.3" font-family="Times New Roman,serif" font-size="14.00">types/dep_path</text>
</g>
<!-- types/eq&#45;&gt;types/dep_path -->
<g id="edge12" class="edge"><title>types/eq&#45;&gt;types/dep_path</title>
<path fill="none" stroke="black" d="M544.665,-648.765C536.874,-639.969 527.095,-628.928 518.429,-619.144"/>
<polygon fill="black" stroke="black" points="521.027,-616.799 511.777,-611.633 515.787,-621.44 521.027,-616.799"/>
</g>
<!-- meta/hott_theory -->
<g id="node3" class="node"><title>meta/hott_theory</title>
<ellipse fill="none" stroke="black" cx="620.044" cy="-738" rx="72.2875" ry="18"/>
<text text-anchor="middle" x="620.044" y="-734.3" font-family="Times New Roman,serif" font-size="14.00">meta/hott_theory</text>
</g>
<!-- meta/hott_theory&#45;&gt;types/eq -->
<g id="edge2" class="edge"><title>meta/hott_theory&#45;&gt;types/eq</title>
<path fill="none" stroke="black" d="M605.278,-720.055C597.675,-711.33 588.276,-700.544 579.942,-690.981"/>
<polygon fill="black" stroke="black" points="582.463,-688.547 573.255,-683.307 577.186,-693.146 582.463,-688.547"/>
</g>
<!-- types/equiv -->
<g id="node5" class="node"><title>types/equiv</title>
<ellipse fill="none" stroke="black" cx="621.044" cy="-522" rx="51.9908" ry="18"/>
<text text-anchor="middle" x="621.044" y="-518.3" font-family="Times New Roman,serif" font-size="14.00">types/equiv</text>
</g>
<!-- support&#45;&gt;types/equiv -->
<g id="edge3" class="edge"><title>support&#45;&gt;types/equiv</title>
<path fill="none" stroke="black" d="M621.044,-575.697C621.044,-567.983 621.044,-558.712 621.044,-550.112"/>
<polygon fill="black" stroke="black" points="624.545,-550.104 621.044,-540.104 617.545,-550.104 624.545,-550.104"/>
</g>
<!-- HITs/infinitesimal -->
<g id="node11" class="node"><title>HITs/infinitesimal</title>
<ellipse fill="none" stroke="black" stroke-dasharray="5,2" cx="208.044" cy="-450" rx="74.9875" ry="18"/>
<text text-anchor="middle" x="208.044" y="-446.3" font-family="Times New Roman,serif" font-size="14.00">HITs/infinitesimal</text>
</g>
<!-- types/equiv&#45;&gt;HITs/infinitesimal -->
<g id="edge13" class="edge"><title>types/equiv&#45;&gt;HITs/infinitesimal</title>
<path fill="none" stroke="black" d="M574.089,-514.039C510.163,-504.426 392.229,-486.2 292.044,-468 285.8,-466.866 279.304,-465.637 272.814,-464.378"/>
<polygon fill="black" stroke="black" points="273.145,-460.876 262.658,-462.382 271.795,-467.744 273.145,-460.876"/>
</g>
<!-- types/coproduct -->
<g id="node16" class="node"><title>types/coproduct</title>
<ellipse fill="none" stroke="black" cx="372.044" cy="-450" rx="70.6878" ry="18"/>
<text text-anchor="middle" x="372.044" y="-446.3" font-family="Times New Roman,serif" font-size="14.00">types/coproduct</text>
</g>
<!-- types/equiv&#45;&gt;types/coproduct -->
<g id="edge14" class="edge"><title>types/equiv&#45;&gt;types/coproduct</title>
<path fill="none" stroke="black" d="M581.864,-509.985C540.309,-498.303 474.32,-479.752 427.45,-466.576"/>
<polygon fill="black" stroke="black" points="428.328,-463.187 417.754,-463.85 426.433,-469.926 428.328,-463.187"/>
</g>
<!-- types/heq -->
<g id="node19" class="node"><title>types/heq</title>
<ellipse fill="none" stroke="black" cx="735.044" cy="-450" rx="46.2923" ry="18"/>
<text text-anchor="middle" x="735.044" y="-446.3" font-family="Times New Roman,serif" font-size="14.00">types/heq</text>
</g>
<!-- types/equiv&#45;&gt;types/heq -->
<g id="edge15" class="edge"><title>types/equiv&#45;&gt;types/heq</title>
<path fill="none" stroke="black" d="M645.5,-505.983C662.255,-495.695 684.651,-481.943 702.854,-470.766"/>
<polygon fill="black" stroke="black" points="704.719,-473.728 711.409,-465.513 701.056,-467.763 704.719,-473.728"/>
</g>
<!-- types/integer -->
<g id="node20" class="node"><title>types/integer</title>
<ellipse fill="none" stroke="black" cx="1227.04" cy="-378" rx="56.59" ry="18"/>
<text text-anchor="middle" x="1227.04" y="-374.3" font-family="Times New Roman,serif" font-size="14.00">types/integer</text>
</g>
<!-- types/equiv&#45;&gt;types/integer -->
<g id="edge16" class="edge"><title>types/equiv&#45;&gt;types/integer</title>
<path fill="none" stroke="black" d="M667.188,-513.37C722.704,-503.93 818.613,-486.786 900.044,-468 999.223,-445.12 1113.69,-412.52 1177.48,-393.786"/>
<polygon fill="black" stroke="black" points="1178.67,-397.084 1187.28,-390.902 1176.7,-390.369 1178.67,-397.084"/>
</g>
<!-- types/lost -->
<g id="node21" class="node"><title>types/lost</title>
<ellipse fill="none" stroke="black" cx="845.044" cy="-450" rx="46.2923" ry="18"/>
<text text-anchor="middle" x="845.044" y="-446.3" font-family="Times New Roman,serif" font-size="14.00">types/lost</text>
</g>
<!-- types/equiv&#45;&gt;types/lost -->
<g id="edge17" class="edge"><title>types/equiv&#45;&gt;types/lost</title>
<path fill="none" stroke="black" d="M658.285,-509.362C697.443,-497.125 759.04,-477.876 800.686,-464.862"/>
<polygon fill="black" stroke="black" points="801.795,-468.182 810.296,-461.859 799.707,-461.501 801.795,-468.182"/>
</g>
<!-- types/unit -->
<g id="node22" class="node"><title>types/unit</title>
<ellipse fill="none" stroke="black" cx="507.044" cy="-450" rx="46.2923" ry="18"/>
<text text-anchor="middle" x="507.044" y="-446.3" font-family="Times New Roman,serif" font-size="14.00">types/unit</text>
</g>
<!-- types/equiv&#45;&gt;types/unit -->
<g id="edge18" class="edge"><title>types/equiv&#45;&gt;types/unit</title>
<path fill="none" stroke="black" d="M596.589,-505.983C579.834,-495.695 557.438,-481.943 539.235,-470.766"/>
<polygon fill="black" stroke="black" points="541.032,-467.763 530.679,-465.513 537.37,-473.728 541.032,-467.763"/>
</g>
<!-- structures -->
<g id="node6" class="node"><title>structures</title>
<ellipse fill="none" stroke="black" cx="372.044" cy="-378" rx="46.2923" ry="18"/>
<text text-anchor="middle" x="372.044" y="-374.3" font-family="Times New Roman,serif" font-size="14.00">structures</text>
</g>
<!-- HITs/interval -->
<g id="node7" class="node"><title>HITs/interval</title>
<ellipse fill="none" stroke="black" cx="481.044" cy="-306" rx="57.6901" ry="18"/>
<text text-anchor="middle" x="481.044" y="-302.3" font-family="Times New Roman,serif" font-size="14.00">HITs/interval</text>
</g>
<!-- structures&#45;&gt;HITs/interval -->
<g id="edge4" class="edge"><title>structures&#45;&gt;HITs/interval</title>
<path fill="none" stroke="black" d="M394.894,-362.326C410.311,-352.425 430.898,-339.204 448.081,-328.169"/>
<polygon fill="black" stroke="black" points="450.188,-330.976 456.711,-322.627 446.405,-325.086 450.188,-330.976"/>
</g>
<!-- HITs/truncation -->
<g id="node8" class="node"><title>HITs/truncation</title>
<ellipse fill="none" stroke="black" cx="337.044" cy="-306" rx="68.4888" ry="18"/>
<text text-anchor="middle" x="337.044" y="-302.3" font-family="Times New Roman,serif" font-size="14.00">HITs/truncation</text>
</g>
<!-- structures&#45;&gt;HITs/truncation -->
<g id="edge5" class="edge"><title>structures&#45;&gt;HITs/truncation</title>
<path fill="none" stroke="black" d="M363.572,-360.055C359.548,-352.007 354.647,-342.205 350.157,-333.226"/>
<polygon fill="black" stroke="black" points="353.285,-331.654 345.682,-324.275 347.024,-334.785 353.285,-331.654"/>
</g>
<!-- algebra/core -->
<g id="node9" class="node"><title>algebra/core</title>
<ellipse fill="none" stroke="black" cx="876.044" cy="-306" rx="55.4913" ry="18"/>
<text text-anchor="middle" x="876.044" y="-302.3" font-family="Times New Roman,serif" font-size="14.00">algebra/core</text>
</g>
<!-- structures&#45;&gt;algebra/core -->
<g id="edge6" class="edge"><title>structures&#45;&gt;algebra/core</title>
<path fill="none" stroke="black" d="M412.217,-368.954C428.56,-365.865 447.659,-362.487 465.044,-360 618.532,-338.043 659.541,-351.988 812.044,-324 816.744,-323.137 821.605,-322.107 826.45,-320.986"/>
<polygon fill="black" stroke="black" points="827.431,-324.349 836.318,-318.581 825.774,-317.548 827.431,-324.349"/>
</g>
<!-- types/product -->
<g id="node29" class="node"><title>types/product</title>
<ellipse fill="none" stroke="black" cx="624.044" cy="-234" rx="61.99" ry="18"/>
<text text-anchor="middle" x="624.044" y="-230.3" font-family="Times New Roman,serif" font-size="14.00">types/product</text>
</g>
<!-- HITs/interval&#45;&gt;types/product -->
<g id="edge39" class="edge"><title>HITs/interval&#45;&gt;types/product</title>
<path fill="none" stroke="black" d="M510.674,-290.496C532.196,-279.961 561.532,-265.6 584.971,-254.127"/>
<polygon fill="black" stroke="black" points="586.518,-257.267 593.961,-249.726 583.44,-250.979 586.518,-257.267"/>
</g>
<!-- theorems/prop -->
<g id="node36" class="node"><title>theorems/prop</title>
<ellipse fill="none" stroke="black" cx="481.044" cy="-234" rx="63.8893" ry="18"/>
<text text-anchor="middle" x="481.044" y="-230.3" font-family="Times New Roman,serif" font-size="14.00">theorems/prop</text>
</g>
<!-- HITs/interval&#45;&gt;theorems/prop -->
<g id="edge40" class="edge"><title>HITs/interval&#45;&gt;theorems/prop</title>
<path fill="none" stroke="black" d="M481.044,-287.697C481.044,-279.983 481.044,-270.712 481.044,-262.112"/>
<polygon fill="black" stroke="black" points="484.545,-262.104 481.044,-252.104 477.545,-262.104 484.545,-262.104"/>
</g>
<!-- HITs/truncation&#45;&gt;theorems/prop -->
<g id="edge45" class="edge"><title>HITs/truncation&#45;&gt;theorems/prop</title>
<path fill="none" stroke="black" d="M368.29,-289.811C389.664,-279.421 418.183,-265.557 441.191,-254.373"/>
<polygon fill="black" stroke="black" points="442.891,-257.439 450.354,-249.919 439.83,-251.143 442.891,-257.439"/>
</g>
<!-- HITs/simplicial -->
<g id="node39" class="node"><title>HITs/simplicial</title>
<ellipse fill="none" stroke="black" cx="103.044" cy="-234" rx="65.7887" ry="18"/>
<text text-anchor="middle" x="103.044" y="-230.3" font-family="Times New Roman,serif" font-size="14.00">HITs/simplicial</text>
</g>
<!-- HITs/truncation&#45;&gt;HITs/simplicial -->
<g id="edge46" class="edge"><title>HITs/truncation&#45;&gt;HITs/simplicial</title>
<path fill="none" stroke="black" d="M293.579,-291.998C254.546,-280.321 197.15,-263.151 155.562,-250.71"/>
<polygon fill="black" stroke="black" points="156.465,-247.327 145.882,-247.815 154.459,-254.034 156.465,-247.327"/>
</g>
<!-- theorems/mere_eq_lemma -->
<g id="node40" class="node"><title>theorems/mere_eq_lemma</title>
<ellipse fill="none" stroke="black" cx="293.044" cy="-234" rx="105.881" ry="18"/>
<text text-anchor="middle" x="293.044" y="-230.3" font-family="Times New Roman,serif" font-size="14.00">theorems/mere_eq_lemma</text>
</g>
<!-- HITs/truncation&#45;&gt;theorems/mere_eq_lemma -->
<g id="edge47" class="edge"><title>HITs/truncation&#45;&gt;theorems/mere_eq_lemma</title>
<path fill="none" stroke="black" d="M326.393,-288.055C321.281,-279.922 315.043,-269.998 309.351,-260.943"/>
<polygon fill="black" stroke="black" points="312.188,-258.879 303.903,-252.275 306.262,-262.604 312.188,-258.879"/>
</g>
<!-- algebra/group -->
<g id="node15" class="node"><title>algebra/group</title>
<ellipse fill="none" stroke="black" cx="1106.04" cy="-234" rx="60.3893" ry="18"/>
<text text-anchor="middle" x="1106.04" y="-230.3" font-family="Times New Roman,serif" font-size="14.00">algebra/group</text>
</g>
<!-- algebra/core&#45;&gt;algebra/group -->
<g id="edge7" class="edge"><title>algebra/core&#45;&gt;algebra/group</title>
<path fill="none" stroke="black" d="M915.061,-293.125C953.741,-281.353 1013.18,-263.263 1055.47,-250.394"/>
<polygon fill="black" stroke="black" points="1056.74,-253.665 1065.29,-247.405 1054.7,-246.968 1056.74,-253.665"/>
</g>
<!-- HITs/circle -->
<g id="node10" class="node"><title>HITs/circle</title>
<ellipse fill="none" stroke="black" stroke-dasharray="5,2" cx="776.044" cy="-90" rx="51.9908" ry="18"/>
<text text-anchor="middle" x="776.044" y="-86.3" font-family="Times New Roman,serif" font-size="14.00">HITs/circle</text>
</g>
<!-- HITs/ntrunc -->
<g id="node12" class="node"><title>HITs/ntrunc</title>
<ellipse fill="none" stroke="black" stroke-dasharray="5,2" cx="785.044" cy="-18" rx="55.4913" ry="18"/>
<text text-anchor="middle" x="785.044" y="-14.3" font-family="Times New Roman,serif" font-size="14.00">HITs/ntrunc</text>
</g>
<!-- HITs/circle&#45;&gt;HITs/ntrunc -->
<g id="edge34" class="edge"><title>HITs/circle&#45;&gt;HITs/ntrunc</title>
<path fill="none" stroke="black" d="M778.269,-71.6966C779.261,-63.9827 780.453,-54.7125 781.559,-46.1124"/>
<polygon fill="black" stroke="black" points="785.041,-46.469 782.845,-36.1043 778.099,-45.5763 785.041,-46.469"/>
</g>
<!-- theorems/ua -->
<g id="node13" class="node"><title>theorems/ua</title>
<ellipse fill="none" stroke="black" stroke-dasharray="5,2" cx="666.044" cy="-162" rx="54.6905" ry="18"/>
<text text-anchor="middle" x="666.044" y="-158.3" font-family="Times New Roman,serif" font-size="14.00">theorems/ua</text>
</g>
<!-- theorems/ua&#45;&gt;HITs/circle -->
<g id="edge55" class="edge"><title>theorems/ua&#45;&gt;HITs/circle</title>
<path fill="none" stroke="black" d="M689.913,-145.811C705.625,-135.813 726.391,-122.598 743.596,-111.649"/>
<polygon fill="black" stroke="black" points="745.665,-114.481 752.223,-106.159 741.907,-108.575 745.665,-114.481"/>
</g>
<!-- cubical/V -->
<g id="node14" class="node"><title>cubical/V</title>
<ellipse fill="none" stroke="black" stroke-dasharray="5,2" cx="666.044" cy="-18" rx="45.4919" ry="18"/>
<text text-anchor="middle" x="666.044" y="-14.3" font-family="Times New Roman,serif" font-size="14.00">cubical/V</text>
</g>
<!-- theorems/ua&#45;&gt;cubical/V -->
<g id="edge56" class="edge"><title>theorems/ua&#45;&gt;cubical/V</title>
<path fill="none" stroke="black" d="M666.044,-143.871C666.044,-119.67 666.044,-75.2108 666.044,-46.3932"/>
<polygon fill="black" stroke="black" points="669.545,-46.1892 666.044,-36.1893 662.545,-46.1893 669.545,-46.1892"/>
</g>
<!-- types/coproduct&#45;&gt;structures -->
<g id="edge8" class="edge"><title>types/coproduct&#45;&gt;structures</title>
<path fill="none" stroke="black" d="M372.044,-431.697C372.044,-423.983 372.044,-414.712 372.044,-406.112"/>
<polygon fill="black" stroke="black" points="375.545,-406.104 372.044,-396.104 368.545,-406.104 375.545,-406.104"/>
</g>
<!-- types/nat -->
<g id="node17" class="node"><title>types/nat</title>
<ellipse fill="none" stroke="black" cx="264.044" cy="-378" rx="43.5923" ry="18"/>
<text text-anchor="middle" x="264.044" y="-374.3" font-family="Times New Roman,serif" font-size="14.00">types/nat</text>
</g>
<!-- types/coproduct&#45;&gt;types/nat -->
<g id="edge9" class="edge"><title>types/coproduct&#45;&gt;types/nat</title>
<path fill="none" stroke="black" d="M347.267,-432.941C331.819,-422.928 311.804,-409.955 295.275,-399.242"/>
<polygon fill="black" stroke="black" points="296.796,-396.057 286.501,-393.555 292.989,-401.931 296.796,-396.057"/>
</g>
<!-- types/dep_path&#45;&gt;types/equiv -->
<g id="edge10" class="edge"><title>types/dep_path&#45;&gt;types/equiv</title>
<path fill="none" stroke="black" d="M524.564,-577.465C542.673,-567.242 566.537,-553.771 585.999,-542.783"/>
<polygon fill="black" stroke="black" points="587.887,-545.737 594.875,-537.773 584.446,-539.641 587.887,-545.737"/>
</g>
<!-- types/heq&#45;&gt;HITs/interval -->
<g id="edge19" class="edge"><title>types/heq&#45;&gt;HITs/interval</title>
<path fill="none" stroke="black" d="M747.522,-432.309C760.446,-412.831 776.494,-380.663 759.044,-360 728.213,-323.492 593.779,-333.968 547.044,-324 542.441,-323.018 537.674,-321.931 532.907,-320.795"/>
<polygon fill="black" stroke="black" points="533.716,-317.389 523.17,-318.412 532.052,-324.189 533.716,-317.389"/>
</g>
<!-- HITs/colimit -->
<g id="node23" class="node"><title>HITs/colimit</title>
<ellipse fill="none" stroke="black" cx="693.044" cy="-378" rx="56.59" ry="18"/>
<text text-anchor="middle" x="693.044" y="-374.3" font-family="Times New Roman,serif" font-size="14.00">HITs/colimit</text>
</g>
<!-- types/heq&#45;&gt;HITs/colimit -->
<g id="edge20" class="edge"><title>types/heq&#45;&gt;HITs/colimit</title>
<path fill="none" stroke="black" d="M725.091,-432.411C720.142,-424.163 714.05,-414.009 708.51,-404.777"/>
<polygon fill="black" stroke="black" points="711.364,-402.73 703.218,-395.956 705.362,-406.332 711.364,-402.73"/>
</g>
<!-- HITs/generalized -->
<g id="node24" class="node"><title>HITs/generalized</title>
<ellipse fill="none" stroke="black" cx="546.044" cy="-378" rx="72.2875" ry="18"/>
<text text-anchor="middle" x="546.044" y="-374.3" font-family="Times New Roman,serif" font-size="14.00">HITs/generalized</text>
</g>
<!-- types/heq&#45;&gt;HITs/generalized -->
<g id="edge21" class="edge"><title>types/heq&#45;&gt;HITs/generalized</title>
<path fill="none" stroke="black" d="M702.554,-436.967C672.775,-425.937 628.288,-409.461 594.347,-396.89"/>
<polygon fill="black" stroke="black" points="595.221,-393.481 584.628,-393.29 592.79,-400.046 595.221,-393.481"/>
</g>
<!-- HITs/int -->
<g id="node25" class="node"><title>HITs/int</title>
<ellipse fill="none" stroke="black" cx="847.044" cy="-378" rx="40.8928" ry="18"/>
<text text-anchor="middle" x="847.044" y="-374.3" font-family="Times New Roman,serif" font-size="14.00">HITs/int</text>
</g>
<!-- types/heq&#45;&gt;HITs/int -->
<g id="edge22" class="edge"><title>types/heq&#45;&gt;HITs/int</title>
<path fill="none" stroke="black" d="M758.523,-434.326C775.171,-423.921 797.686,-409.849 815.843,-398.501"/>
<polygon fill="black" stroke="black" points="817.737,-401.445 824.362,-393.177 814.027,-395.509 817.737,-401.445"/>
</g>
<!-- HITs/pushout -->
<g id="node26" class="node"><title>HITs/pushout</title>
<ellipse fill="none" stroke="black" cx="1091.04" cy="-378" rx="61.99" ry="18"/>
<text text-anchor="middle" x="1091.04" y="-374.3" font-family="Times New Roman,serif" font-size="14.00">HITs/pushout</text>
</g>
<!-- types/heq&#45;&gt;HITs/pushout -->
<g id="edge23" class="edge"><title>types/heq&#45;&gt;HITs/pushout</title>
<path fill="none" stroke="black" d="M768.868,-437.702C775.821,-435.618 783.131,-433.598 790.044,-432 891.28,-408.596 919.136,-416.278 1021.04,-396 1026.05,-395.004 1031.24,-393.892 1036.43,-392.729"/>
<polygon fill="black" stroke="black" points="1037.4,-396.098 1046.36,-390.442 1035.83,-389.277 1037.4,-396.098"/>
</g>
<!-- HITs/graph -->
<g id="node27" class="node"><title>HITs/graph</title>
<ellipse fill="none" stroke="black" cx="959.044" cy="-378" rx="52.7911" ry="18"/>
<text text-anchor="middle" x="959.044" y="-374.3" font-family="Times New Roman,serif" font-size="14.00">HITs/graph</text>
</g>
<!-- types/heq&#45;&gt;HITs/graph -->
<g id="edge24" class="edge"><title>types/heq&#45;&gt;HITs/graph</title>
<path fill="none" stroke="black" d="M770.044,-438.063C808.092,-426.173 869.117,-407.102 911.489,-393.861"/>
<polygon fill="black" stroke="black" points="912.798,-397.119 921.299,-390.795 910.71,-390.438 912.798,-397.119"/>
</g>
<!-- types/integer&#45;&gt;algebra/core -->
<g id="edge25" class="edge"><title>types/integer&#45;&gt;algebra/core</title>
<path fill="none" stroke="black" d="M1185.92,-365.615C1178.03,-363.608 1169.8,-361.64 1162.04,-360 1064.25,-339.331 1037.8,-344.856 940.044,-324 935.624,-323.057 931.053,-322.003 926.48,-320.894"/>
<polygon fill="black" stroke="black" points="927.077,-317.435 916.527,-318.4 925.376,-324.225 927.077,-317.435"/>
</g>
<!-- types/integer&#45;&gt;HITs/circle -->
<g id="edge26" class="edge"><title>types/integer&#45;&gt;HITs/circle</title>
<path fill="none" stroke="black" d="M1226.89,-359.873C1225.62,-326.707 1217.8,-253.673 1175.04,-216 1077.83,-130.338 922.207,-103.362 836.886,-94.8796"/>
<polygon fill="black" stroke="black" points="837.122,-91.3864 826.838,-93.9341 836.466,-98.3557 837.122,-91.3864"/>
</g>
<!-- HITs/reals -->
<g id="node28" class="node"><title>HITs/reals</title>
<ellipse fill="none" stroke="black" cx="1304.04" cy="-306" rx="48.9926" ry="18"/>
<text text-anchor="middle" x="1304.04" y="-302.3" font-family="Times New Roman,serif" font-size="14.00">HITs/reals</text>
</g>
<!-- types/integer&#45;&gt;HITs/reals -->
<g id="edge27" class="edge"><title>types/integer&#45;&gt;HITs/reals</title>
<path fill="none" stroke="black" d="M1244.9,-360.765C1254.98,-351.6 1267.75,-339.998 1278.83,-329.919"/>
<polygon fill="black" stroke="black" points="1281.5,-332.223 1286.55,-322.906 1276.79,-327.043 1281.5,-332.223"/>
</g>
<!-- types/unit&#45;&gt;structures -->
<g id="edge32" class="edge"><title>types/unit&#45;&gt;structures</title>
<path fill="none" stroke="black" d="M480.373,-435.17C459.571,-424.384 430.484,-409.302 407.687,-397.481"/>
<polygon fill="black" stroke="black" points="409.149,-394.297 398.661,-392.801 405.927,-400.511 409.149,-394.297"/>
</g>
<!-- HITs/suspension -->
<g id="node33" class="node"><title>HITs/suspension</title>
<ellipse fill="none" stroke="black" cx="730.044" cy="-306" rx="72.5877" ry="18"/>
<text text-anchor="middle" x="730.044" y="-302.3" font-family="Times New Roman,serif" font-size="14.00">HITs/suspension</text>
</g>
<!-- types/unit&#45;&gt;HITs/suspension -->
<g id="edge33" class="edge"><title>types/unit&#45;&gt;HITs/suspension</title>
<path fill="none" stroke="black" d="M489.759,-433.208C471.162,-414.313 446.583,-382.423 465.044,-360 491.526,-327.835 608.211,-332.279 649.044,-324 654.728,-322.848 660.633,-321.636 666.548,-320.413"/>
<polygon fill="black" stroke="black" points="667.395,-323.811 676.474,-318.351 665.971,-316.958 667.395,-323.811"/>
</g>
<!-- HITs/colimit&#45;&gt;HITs/truncation -->
<g id="edge35" class="edge"><title>HITs/colimit&#45;&gt;HITs/truncation</title>
<path fill="none" stroke="black" d="M651.273,-365.672C643.26,-363.66 634.914,-361.675 627.044,-360 533.14,-340.008 508.283,-342.355 414.044,-324 408.585,-322.937 402.92,-321.783 397.251,-320.594"/>
<polygon fill="black" stroke="black" points="397.597,-317.089 387.087,-318.428 396.138,-323.935 397.597,-317.089"/>
</g>
<!-- HITs/generalized&#45;&gt;HITs/truncation -->
<g id="edge36" class="edge"><title>HITs/generalized&#45;&gt;HITs/truncation</title>
<path fill="none" stroke="black" d="M504.753,-363.17C471.043,-351.88 423.278,-335.882 387.34,-323.846"/>
<polygon fill="black" stroke="black" points="388.133,-320.42 377.539,-320.563 385.91,-327.058 388.133,-320.42"/>
</g>
<!-- HITs/rat -->
<g id="node35" class="node"><title>HITs/rat</title>
<ellipse fill="none" stroke="black" cx="598.044" cy="-306" rx="41.6928" ry="18"/>
<text text-anchor="middle" x="598.044" y="-302.3" font-family="Times New Roman,serif" font-size="14.00">HITs/rat</text>
</g>
<!-- HITs/int&#45;&gt;HITs/rat -->
<g id="edge38" class="edge"><title>HITs/int&#45;&gt;HITs/rat</title>
<path fill="none" stroke="black" d="M814.85,-366.725C807.385,-364.433 799.456,-362.07 792.044,-360 728.507,-342.253 711.328,-342.634 648.044,-324 645.062,-323.122 641.993,-322.178 638.912,-321.202"/>
<polygon fill="black" stroke="black" points="639.716,-317.783 629.123,-318.011 637.546,-324.438 639.716,-317.783"/>
</g>
<!-- HITs/pushout&#45;&gt;HITs/reals -->
<g id="edge41" class="edge"><title>HITs/pushout&#45;&gt;HITs/reals</title>
<path fill="none" stroke="black" d="M1130.61,-363.998C1167.05,-352.02 1221.09,-334.263 1259.14,-321.759"/>
<polygon fill="black" stroke="black" points="1260.52,-324.987 1268.93,-318.54 1258.34,-318.337 1260.52,-324.987"/>
</g>
<!-- HITs/pushout&#45;&gt;HITs/suspension -->
<g id="edge42" class="edge"><title>HITs/pushout&#45;&gt;HITs/suspension</title>
<path fill="none" stroke="black" d="M1045.96,-365.576C1037.69,-363.617 1029.13,-361.675 1021.04,-360 928.75,-340.867 904.649,-341.57 812.044,-324 805.951,-322.844 799.612,-321.601 793.278,-320.333"/>
<polygon fill="black" stroke="black" points="793.86,-316.88 783.365,-318.327 792.472,-323.741 793.86,-316.88"/>
</g>
<!-- HITs/join -->
<g id="node37" class="node"><title>HITs/join</title>
<ellipse fill="none" stroke="black" cx="1154.04" cy="-306" rx="45.4919" ry="18"/>
<text text-anchor="middle" x="1154.04" y="-302.3" font-family="Times New Roman,serif" font-size="14.00">HITs/join</text>
</g>
<!-- HITs/pushout&#45;&gt;HITs/join -->
<g id="edge43" class="edge"><title>HITs/pushout&#45;&gt;HITs/join</title>
<path fill="none" stroke="black" d="M1105.97,-360.411C1113.9,-351.606 1123.78,-340.628 1132.52,-330.919"/>
<polygon fill="black" stroke="black" points="1135.13,-333.244 1139.22,-323.47 1129.93,-328.562 1135.13,-333.244"/>
</g>
<!-- theorems/graphs -->
<g id="node34" class="node"><title>theorems/graphs</title>
<ellipse fill="none" stroke="black" cx="1020.04" cy="-306" rx="70.6878" ry="18"/>
<text text-anchor="middle" x="1020.04" y="-302.3" font-family="Times New Roman,serif" font-size="14.00">theorems/graphs</text>
</g>
<!-- HITs/graph&#45;&gt;theorems/graphs -->
<g id="edge37" class="edge"><title>HITs/graph&#45;&gt;theorems/graphs</title>
<path fill="none" stroke="black" d="M973.501,-360.411C980.987,-351.82 990.277,-341.159 998.583,-331.627"/>
<polygon fill="black" stroke="black" points="1001.34,-333.795 1005.27,-323.956 996.06,-329.196 1001.34,-333.795"/>
</g>
<!-- types/product&#45;&gt;theorems/ua -->
<g id="edge28" class="edge"><title>types/product&#45;&gt;theorems/ua</title>
<path fill="none" stroke="black" d="M634.211,-216.055C639.164,-207.801 645.224,-197.701 650.722,-188.538"/>
<polygon fill="black" stroke="black" points="653.827,-190.165 655.971,-179.789 647.825,-186.563 653.827,-190.165"/>
</g>
<!-- cubical/cubes -->
<g id="node30" class="node"><title>cubical/cubes</title>
<ellipse fill="none" stroke="black" cx="497.044" cy="-162" rx="60.3893" ry="18"/>
<text text-anchor="middle" x="497.044" y="-158.3" font-family="Times New Roman,serif" font-size="14.00">cubical/cubes</text>
</g>
<!-- types/product&#45;&gt;cubical/cubes -->
<g id="edge29" class="edge"><title>types/product&#45;&gt;cubical/cubes</title>
<path fill="none" stroke="black" d="M596.487,-217.811C578.014,-207.629 553.49,-194.112 533.419,-183.049"/>
<polygon fill="black" stroke="black" points="534.995,-179.921 524.548,-178.159 531.616,-186.052 534.995,-179.921"/>
</g>
<!-- cubical/path -->
<g id="node42" class="node"><title>cubical/path</title>
<ellipse fill="none" stroke="black" cx="425.044" cy="-90" rx="54.6905" ry="18"/>
<text text-anchor="middle" x="425.044" y="-86.3" font-family="Times New Roman,serif" font-size="14.00">cubical/path</text>
</g>
<!-- cubical/cubes&#45;&gt;cubical/path -->
<g id="edge48" class="edge"><title>cubical/cubes&#45;&gt;cubical/path</title>
<path fill="none" stroke="black" d="M479.981,-144.411C470.835,-135.519 459.41,-124.411 449.35,-114.631"/>
<polygon fill="black" stroke="black" points="451.595,-111.931 441.985,-107.47 446.715,-116.95 451.595,-111.931"/>
</g>
<!-- types/sigma -->
<g id="node31" class="node"><title>types/sigma</title>
<ellipse fill="none" stroke="black" cx="764.044" cy="-738" rx="53.8905" ry="18"/>
<text text-anchor="middle" x="764.044" y="-734.3" font-family="Times New Roman,serif" font-size="14.00">types/sigma</text>
</g>
<!-- types/swale -->
<g id="node32" class="node"><title>types/swale</title>
<ellipse fill="none" stroke="black" cx="1367.04" cy="-378" rx="52.7911" ry="18"/>
<text text-anchor="middle" x="1367.04" y="-374.3" font-family="Times New Roman,serif" font-size="14.00">types/swale</text>
</g>
<!-- types/swale&#45;&gt;algebra/group -->
<g id="edge30" class="edge"><title>types/swale&#45;&gt;algebra/group</title>
<path fill="none" stroke="black" d="M1371.62,-360.014C1375.83,-340.252 1379.12,-307.811 1362.04,-288 1338.02,-260.123 1241.69,-246.296 1174.32,-239.906"/>
<polygon fill="black" stroke="black" points="1174.46,-236.404 1164.18,-238.979 1173.82,-243.375 1174.46,-236.404"/>
</g>
<!-- types/swale&#45;&gt;HITs/reals -->
<g id="edge31" class="edge"><title>types/swale&#45;&gt;HITs/reals</title>
<path fill="none" stroke="black" d="M1352.11,-360.411C1344.19,-351.606 1334.31,-340.628 1325.57,-330.919"/>
<polygon fill="black" stroke="black" points="1328.16,-328.562 1318.87,-323.47 1322.96,-333.244 1328.16,-328.562"/>
</g>
<!-- HITs/suspension&#45;&gt;HITs/circle -->
<g id="edge44" class="edge"><title>HITs/suspension&#45;&gt;HITs/circle</title>
<path fill="none" stroke="black" d="M733.731,-287.849C741.705,-250.753 760.609,-162.81 770.219,-118.103"/>
<polygon fill="black" stroke="black" points="773.66,-118.745 772.34,-108.232 766.817,-117.274 773.66,-118.745"/>
</g>
<!-- HITs/moebius -->
<g id="node38" class="node"><title>HITs/moebius</title>
<ellipse fill="none" stroke="black" cx="63.0444" cy="-18" rx="63.0888" ry="18"/>
<text text-anchor="middle" x="63.0444" y="-14.3" font-family="Times New Roman,serif" font-size="14.00">HITs/moebius</text>
</g>
<!-- cubical/connection -->
<g id="node41" class="node"><title>cubical/connection</title>
<ellipse fill="none" stroke="black" cx="223.044" cy="-18" rx="79.0865" ry="18"/>
<text text-anchor="middle" x="223.044" y="-14.3" font-family="Times New Roman,serif" font-size="14.00">cubical/connection</text>
</g>
<!-- cubical/path&#45;&gt;cubical/V -->
<g id="edge49" class="edge"><title>cubical/path&#45;&gt;cubical/V</title>
<path fill="none" stroke="black" d="M465.393,-77.7812C503.119,-67.2258 560.993,-50.8643 611.044,-36 614.556,-34.957 618.19,-33.8642 621.839,-32.7571"/>
<polygon fill="black" stroke="black" points="622.918,-36.0872 631.459,-29.8181 620.873,-29.3926 622.918,-36.0872"/>
</g>
<!-- cubical/path&#45;&gt;HITs/moebius -->
<g id="edge50" class="edge"><title>cubical/path&#45;&gt;HITs/moebius</title>
<path fill="none" stroke="black" d="M377.429,-81.0662C319.853,-71.2958 220.082,-53.7977 135.044,-36 129.988,-34.9418 124.744,-33.7965 119.495,-32.6176"/>
<polygon fill="black" stroke="black" points="119.972,-29.1366 109.444,-30.3232 118.414,-35.961 119.972,-29.1366"/>
</g>
<!-- cubical/path&#45;&gt;cubical/connection -->
<g id="edge51" class="edge"><title>cubical/path&#45;&gt;cubical/connection</title>
<path fill="none" stroke="black" d="M388.931,-76.4854C357.086,-65.4501 310.317,-49.2431 274.55,-36.8483"/>
<polygon fill="black" stroke="black" points="275.369,-33.4282 264.774,-33.4609 273.077,-40.0424 275.369,-33.4282"/>
</g>
<!-- cubical/example -->
<g id="node43" class="node"><title>cubical/example</title>
<ellipse fill="none" stroke="black" cx="389.044" cy="-18" rx="68.7879" ry="18"/>
<text text-anchor="middle" x="389.044" y="-14.3" font-family="Times New Roman,serif" font-size="14.00">cubical/example</text>
</g>
<!-- cubical/path&#45;&gt;cubical/example -->
<g id="edge52" class="edge"><title>cubical/path&#45;&gt;cubical/example</title>
<path fill="none" stroke="black" d="M416.33,-72.055C412.191,-64.0067 407.15,-54.2046 402.532,-45.2259"/>
<polygon fill="black" stroke="black" points="405.615,-43.5675 397.929,-36.2753 399.39,-46.7689 405.615,-43.5675"/>
</g>
<!-- cubical/square -->
<g id="node44" class="node"><title>cubical/square</title>
<ellipse fill="none" stroke="black" cx="539.044" cy="-18" rx="63.0888" ry="18"/>
<text text-anchor="middle" x="539.044" y="-14.3" font-family="Times New Roman,serif" font-size="14.00">cubical/square</text>
</g>
<!-- cubical/path&#45;&gt;cubical/square -->
<g id="edge53" class="edge"><title>cubical/path&#45;&gt;cubical/square</title>
<path fill="none" stroke="black" d="M449.781,-73.811C465.841,-63.9495 486.996,-50.9593 504.681,-40.1004"/>
<polygon fill="black" stroke="black" points="506.877,-42.8593 513.567,-34.644 503.214,-36.8941 506.877,-42.8593"/>
</g>
<!-- theorems/functions -->
<g id="node45" class="node"><title>theorems/functions</title>
<ellipse fill="none" stroke="black" cx="758.044" cy="-594" rx="79.8859" ry="18"/>
<text text-anchor="middle" x="758.044" y="-590.3" font-family="Times New Roman,serif" font-size="14.00">theorems/functions</text>
</g>
<!-- theorems/functions&#45;&gt;types/equiv -->
<g id="edge54" class="edge"><title>theorems/functions&#45;&gt;types/equiv</title>
<path fill="none" stroke="black" d="M727.299,-577.291C706.728,-566.78 679.551,-552.894 657.832,-541.797"/>
<polygon fill="black" stroke="black" points="659.391,-538.663 648.894,-537.229 656.206,-544.896 659.391,-538.663"/>
</g>
<!-- theorems/topology -->
<g id="node46" class="node"><title>theorems/topology</title>
<ellipse fill="none" stroke="black" cx="915.044" cy="-738" rx="79.0865" ry="18"/>
<text text-anchor="middle" x="915.044" y="-734.3" font-family="Times New Roman,serif" font-size="14.00">theorems/topology</text>
</g>
</g>
</svg>
