<?xml version="1.0" encoding="UTF-8" standalone="no"?>
<!DOCTYPE svg PUBLIC "-//W3C//DTD SVG 1.1//EN"
 "http://www.w3.org/Graphics/SVG/1.1/DTD/svg11.dtd">
<!-- Generated by graphviz version 2.38.0 (20140413.2041)
 -->
<!-- Title: dependency_map Pages: 1 -->
<svg width="1500pt" height="908pt"
 viewBox="0.00 0.00 1500.19 908.00" xmlns="http://www.w3.org/2000/svg" xmlns:xlink="http://www.w3.org/1999/xlink">
<g id="graph0" class="graph" transform="scale(1 1) rotate(0) translate(4 904)">
<title>dependency_map</title>
<polygon fill="white" stroke="none" points="-4,4 -4,-904 1496.19,-904 1496.19,4 -4,4"/>
<!-- proto -->
<g id="node1" class="node"><title>proto</title>
<ellipse fill="none" stroke="black" cx="1019.69" cy="-882" rx="30.5947" ry="18"/>
<text text-anchor="middle" x="1019.69" y="-878.3" font-family="Times New Roman,serif" font-size="14.00">proto</text>
</g>
<!-- types/eq -->
<g id="node2" class="node"><title>types/eq</title>
<ellipse fill="none" stroke="black" cx="1079.69" cy="-810" rx="41.6928" ry="18"/>
<text text-anchor="middle" x="1079.69" y="-806.3" font-family="Times New Roman,serif" font-size="14.00">types/eq</text>
</g>
<!-- proto&#45;&gt;types/eq -->
<g id="edge1" class="edge"><title>proto&#45;&gt;types/eq</title>
<path fill="none" stroke="black" d="M1033.01,-865.465C1040.64,-856.566 1050.37,-845.205 1058.98,-835.164"/>
<polygon fill="black" stroke="black" points="1061.73,-837.338 1065.58,-827.467 1056.41,-832.782 1061.73,-837.338"/>
</g>
<!-- support -->
<g id="node4" class="node"><title>support</title>
<ellipse fill="none" stroke="black" cx="1079.69" cy="-738" rx="38.9931" ry="18"/>
<text text-anchor="middle" x="1079.69" y="-734.3" font-family="Times New Roman,serif" font-size="14.00">support</text>
</g>
<!-- types/eq&#45;&gt;support -->
<g id="edge11" class="edge"><title>types/eq&#45;&gt;support</title>
<path fill="none" stroke="black" d="M1079.69,-791.697C1079.69,-783.983 1079.69,-774.712 1079.69,-766.112"/>
<polygon fill="black" stroke="black" points="1083.19,-766.104 1079.69,-756.104 1076.19,-766.104 1083.19,-766.104"/>
</g>
<!-- meta/hott_theory -->
<g id="node3" class="node"><title>meta/hott_theory</title>
<ellipse fill="none" stroke="black" cx="1140.69" cy="-882" rx="72.2875" ry="18"/>
<text text-anchor="middle" x="1140.69" y="-878.3" font-family="Times New Roman,serif" font-size="14.00">meta/hott_theory</text>
</g>
<!-- meta/hott_theory&#45;&gt;types/eq -->
<g id="edge2" class="edge"><title>meta/hott_theory&#45;&gt;types/eq</title>
<path fill="none" stroke="black" d="M1125.93,-864.055C1118.32,-855.33 1108.92,-844.544 1100.59,-834.981"/>
<polygon fill="black" stroke="black" points="1103.11,-832.547 1093.9,-827.307 1097.83,-837.146 1103.11,-832.547"/>
</g>
<!-- types/equiv -->
<g id="node5" class="node"><title>types/equiv</title>
<ellipse fill="none" stroke="black" cx="1079.69" cy="-666" rx="51.9908" ry="18"/>
<text text-anchor="middle" x="1079.69" y="-662.3" font-family="Times New Roman,serif" font-size="14.00">types/equiv</text>
</g>
<!-- support&#45;&gt;types/equiv -->
<g id="edge3" class="edge"><title>support&#45;&gt;types/equiv</title>
<path fill="none" stroke="black" d="M1079.69,-719.697C1079.69,-711.983 1079.69,-702.712 1079.69,-694.112"/>
<polygon fill="black" stroke="black" points="1083.19,-694.104 1079.69,-684.104 1076.19,-694.104 1083.19,-694.104"/>
</g>
<!-- types/coproduct -->
<g id="node15" class="node"><title>types/coproduct</title>
<ellipse fill="none" stroke="black" cx="861.693" cy="-522" rx="70.6878" ry="18"/>
<text text-anchor="middle" x="861.693" y="-518.3" font-family="Times New Roman,serif" font-size="14.00">types/coproduct</text>
</g>
<!-- types/equiv&#45;&gt;types/coproduct -->
<g id="edge12" class="edge"><title>types/equiv&#45;&gt;types/coproduct</title>
<path fill="none" stroke="black" d="M1052.73,-650.332C1034.19,-640.032 1009.13,-625.702 987.693,-612 954.04,-590.486 916.834,-563.832 891.636,-545.33"/>
<polygon fill="black" stroke="black" points="893.7,-542.503 883.574,-539.387 889.547,-548.138 893.7,-542.503"/>
</g>
<!-- types/heq -->
<g id="node17" class="node"><title>types/heq</title>
<ellipse fill="none" stroke="black" cx="1042.69" cy="-594" rx="46.2923" ry="18"/>
<text text-anchor="middle" x="1042.69" y="-590.3" font-family="Times New Roman,serif" font-size="14.00">types/heq</text>
</g>
<!-- types/equiv&#45;&gt;types/heq -->
<g id="edge13" class="edge"><title>types/equiv&#45;&gt;types/heq</title>
<path fill="none" stroke="black" d="M1070.74,-648.055C1066.42,-639.887 1061.15,-629.912 1056.34,-620.824"/>
<polygon fill="black" stroke="black" points="1059.33,-618.994 1051.57,-611.789 1053.15,-622.266 1059.33,-618.994"/>
</g>
<!-- HITs/infinitesimal -->
<g id="node18" class="node"><title>HITs/infinitesimal</title>
<ellipse fill="none" stroke="black" cx="1219.69" cy="-594" rx="74.9875" ry="18"/>
<text text-anchor="middle" x="1219.69" y="-590.3" font-family="Times New Roman,serif" font-size="14.00">HITs/infinitesimal</text>
</g>
<!-- types/equiv&#45;&gt;HITs/infinitesimal -->
<g id="edge14" class="edge"><title>types/equiv&#45;&gt;HITs/infinitesimal</title>
<path fill="none" stroke="black" d="M1108.02,-650.834C1128.53,-640.582 1156.54,-626.579 1179.37,-615.161"/>
<polygon fill="black" stroke="black" points="1181.1,-618.209 1188.48,-610.606 1177.97,-611.948 1181.1,-618.209"/>
</g>
<!-- types/lost -->
<g id="node19" class="node"><title>types/lost</title>
<ellipse fill="none" stroke="black" cx="1358.69" cy="-594" rx="46.2923" ry="18"/>
<text text-anchor="middle" x="1358.69" y="-590.3" font-family="Times New Roman,serif" font-size="14.00">types/lost</text>
</g>
<!-- types/equiv&#45;&gt;types/lost -->
<g id="edge15" class="edge"><title>types/equiv&#45;&gt;types/lost</title>
<path fill="none" stroke="black" d="M1122.85,-655.695C1168.12,-645.724 1241.23,-629.022 1303.69,-612 1307.23,-611.037 1310.88,-610.001 1314.54,-608.933"/>
<polygon fill="black" stroke="black" points="1315.59,-612.27 1324.18,-606.058 1313.59,-605.562 1315.59,-612.27"/>
</g>
<!-- types/unit -->
<g id="node20" class="node"><title>types/unit</title>
<ellipse fill="none" stroke="black" cx="1077.69" cy="-450" rx="46.2923" ry="18"/>
<text text-anchor="middle" x="1077.69" y="-446.3" font-family="Times New Roman,serif" font-size="14.00">types/unit</text>
</g>
<!-- types/equiv&#45;&gt;types/unit -->
<g id="edge16" class="edge"><title>types/equiv&#45;&gt;types/unit</title>
<path fill="none" stroke="black" d="M1087.17,-647.704C1091.17,-637.522 1095.67,-624.272 1097.69,-612 1105.52,-564.642 1106.31,-551.221 1097.69,-504 1096.04,-494.96 1092.93,-485.458 1089.65,-477.036"/>
<polygon fill="black" stroke="black" points="1092.86,-475.633 1085.79,-467.738 1086.39,-478.316 1092.86,-475.633"/>
</g>
<!-- types/sigma -->
<g id="node21" class="node"><title>types/sigma</title>
<ellipse fill="none" stroke="black" cx="718.693" cy="-522" rx="53.8905" ry="18"/>
<text text-anchor="middle" x="718.693" y="-518.3" font-family="Times New Roman,serif" font-size="14.00">types/sigma</text>
</g>
<!-- types/equiv&#45;&gt;types/sigma -->
<g id="edge17" class="edge"><title>types/equiv&#45;&gt;types/sigma</title>
<path fill="none" stroke="black" d="M1043.91,-652.771C1013.82,-642.346 969.736,-626.748 931.693,-612 871.245,-588.566 802.141,-559.21 759.457,-540.774"/>
<polygon fill="black" stroke="black" points="760.809,-537.545 750.241,-536.786 758.029,-543.97 760.809,-537.545"/>
</g>
<!-- structures -->
<g id="node6" class="node"><title>structures</title>
<ellipse fill="none" stroke="black" cx="871.693" cy="-378" rx="46.2923" ry="18"/>
<text text-anchor="middle" x="871.693" y="-374.3" font-family="Times New Roman,serif" font-size="14.00">structures</text>
</g>
<!-- HITs/interval -->
<g id="node7" class="node"><title>HITs/interval</title>
<ellipse fill="none" stroke="black" cx="506.693" cy="-306" rx="57.6901" ry="18"/>
<text text-anchor="middle" x="506.693" y="-302.3" font-family="Times New Roman,serif" font-size="14.00">HITs/interval</text>
</g>
<!-- structures&#45;&gt;HITs/interval -->
<g id="edge4" class="edge"><title>structures&#45;&gt;HITs/interval</title>
<path fill="none" stroke="black" d="M831.237,-369.241C766.444,-356.815 639.139,-332.401 564.681,-318.121"/>
<polygon fill="black" stroke="black" points="565.018,-314.622 554.538,-316.176 563.7,-321.497 565.018,-314.622"/>
</g>
<!-- HITs/merely -->
<g id="node8" class="node"><title>HITs/merely</title>
<ellipse fill="none" stroke="black" cx="992.693" cy="-306" rx="55.7903" ry="18"/>
<text text-anchor="middle" x="992.693" y="-302.3" font-family="Times New Roman,serif" font-size="14.00">HITs/merely</text>
</g>
<!-- structures&#45;&gt;HITs/merely -->
<g id="edge5" class="edge"><title>structures&#45;&gt;HITs/merely</title>
<path fill="none" stroke="black" d="M896.471,-362.666C914.219,-352.398 938.356,-338.435 958.015,-327.062"/>
<polygon fill="black" stroke="black" points="959.791,-330.078 966.694,-322.041 956.285,-324.019 959.791,-330.078"/>
</g>
<!-- HITs/trunc -->
<g id="node9" class="node"><title>HITs/trunc</title>
<ellipse fill="none" stroke="black" cx="1158.69" cy="-306" rx="50.8918" ry="18"/>
<text text-anchor="middle" x="1158.69" y="-302.3" font-family="Times New Roman,serif" font-size="14.00">HITs/trunc</text>
</g>
<!-- structures&#45;&gt;HITs/trunc -->
<g id="edge6" class="edge"><title>structures&#45;&gt;HITs/trunc</title>
<path fill="none" stroke="black" d="M906.199,-365.9C912.967,-363.846 920.033,-361.787 926.693,-360 987.661,-343.638 1058.49,-327.928 1105.7,-317.92"/>
<polygon fill="black" stroke="black" points="1106.63,-321.3 1115.7,-315.811 1105.19,-314.45 1106.63,-321.3"/>
</g>
<!-- types/nat -->
<g id="node10" class="node"><title>types/nat</title>
<ellipse fill="none" stroke="black" cx="875.693" cy="-306" rx="43.5923" ry="18"/>
<text text-anchor="middle" x="875.693" y="-302.3" font-family="Times New Roman,serif" font-size="14.00">types/nat</text>
</g>
<!-- structures&#45;&gt;types/nat -->
<g id="edge7" class="edge"><title>structures&#45;&gt;types/nat</title>
<path fill="none" stroke="black" d="M872.682,-359.697C873.123,-351.983 873.652,-342.712 874.144,-334.112"/>
<polygon fill="black" stroke="black" points="877.64,-334.288 874.716,-324.104 870.651,-333.888 877.64,-334.288"/>
</g>
<!-- theorems/ua -->
<g id="node11" class="node"><title>theorems/ua</title>
<ellipse fill="none" stroke="black" cx="759.693" cy="-306" rx="54.6905" ry="18"/>
<text text-anchor="middle" x="759.693" y="-302.3" font-family="Times New Roman,serif" font-size="14.00">theorems/ua</text>
</g>
<!-- structures&#45;&gt;theorems/ua -->
<g id="edge8" class="edge"><title>structures&#45;&gt;theorems/ua</title>
<path fill="none" stroke="black" d="M848.214,-362.326C832.155,-352.289 810.635,-338.839 792.835,-327.714"/>
<polygon fill="black" stroke="black" points="794.25,-324.47 783.915,-322.138 790.54,-330.406 794.25,-324.47"/>
</g>
<!-- HITs/circle -->
<g id="node25" class="node"><title>HITs/circle</title>
<ellipse fill="none" stroke="black" cx="805.693" cy="-90" rx="51.9908" ry="18"/>
<text text-anchor="middle" x="805.693" y="-86.3" font-family="Times New Roman,serif" font-size="14.00">HITs/circle</text>
</g>
<!-- HITs/interval&#45;&gt;HITs/circle -->
<g id="edge39" class="edge"><title>HITs/interval&#45;&gt;HITs/circle</title>
<path fill="none" stroke="black" d="M507.45,-287.868C509.891,-254.694 520.198,-181.645 563.693,-144 625.71,-90.3234 664.91,-127.023 744.693,-108 748.784,-107.025 753.014,-105.961 757.25,-104.858"/>
<polygon fill="black" stroke="black" points="758.325,-108.194 767.084,-102.234 756.52,-101.43 758.325,-108.194"/>
</g>
<!-- cubical/cubes -->
<g id="node38" class="node"><title>cubical/cubes</title>
<ellipse fill="none" stroke="black" cx="409.693" cy="-234" rx="60.3893" ry="18"/>
<text text-anchor="middle" x="409.693" y="-230.3" font-family="Times New Roman,serif" font-size="14.00">cubical/cubes</text>
</g>
<!-- HITs/interval&#45;&gt;cubical/cubes -->
<g id="edge40" class="edge"><title>HITs/interval&#45;&gt;cubical/cubes</title>
<path fill="none" stroke="black" d="M484.682,-289.116C471.412,-279.539 454.325,-267.209 439.815,-256.737"/>
<polygon fill="black" stroke="black" points="441.774,-253.835 431.617,-250.821 437.678,-259.511 441.774,-253.835"/>
</g>
<!-- theorems/prop -->
<g id="node39" class="node"><title>theorems/prop</title>
<ellipse fill="none" stroke="black" cx="641.693" cy="-234" rx="63.8893" ry="18"/>
<text text-anchor="middle" x="641.693" y="-230.3" font-family="Times New Roman,serif" font-size="14.00">theorems/prop</text>
</g>
<!-- HITs/interval&#45;&gt;theorems/prop -->
<g id="edge41" class="edge"><title>HITs/interval&#45;&gt;theorems/prop</title>
<path fill="none" stroke="black" d="M535.323,-290.155C555.234,-279.831 581.99,-265.957 603.685,-254.708"/>
<polygon fill="black" stroke="black" points="605.373,-257.775 612.639,-250.065 602.15,-251.561 605.373,-257.775"/>
</g>
<!-- theorems/fibration -->
<g id="node40" class="node"><title>theorems/fibration</title>
<ellipse fill="none" stroke="black" cx="76.6932" cy="-162" rx="76.8869" ry="18"/>
<text text-anchor="middle" x="76.6932" y="-158.3" font-family="Times New Roman,serif" font-size="14.00">theorems/fibration</text>
</g>
<!-- HITs/interval&#45;&gt;theorems/fibration -->
<g id="edge42" class="edge"><title>HITs/interval&#45;&gt;theorems/fibration</title>
<path fill="none" stroke="black" d="M467.394,-292.649C433.721,-282.019 383.954,-266.197 340.693,-252 266.496,-227.65 180.883,-198.615 127.764,-180.489"/>
<polygon fill="black" stroke="black" points="128.828,-177.154 118.234,-177.235 126.566,-183.778 128.828,-177.154"/>
</g>
<!-- HITs/merely&#45;&gt;theorems/prop -->
<g id="edge43" class="edge"><title>HITs/merely&#45;&gt;theorems/prop</title>
<path fill="none" stroke="black" d="M951.86,-293.548C944.193,-291.57 936.221,-289.629 928.693,-288 834.428,-267.598 809.261,-270.947 714.693,-252 709.35,-250.93 703.802,-249.754 698.259,-248.538"/>
<polygon fill="black" stroke="black" points="698.854,-245.084 688.331,-246.316 697.325,-251.915 698.854,-245.084"/>
</g>
<!-- HITs/simplicial -->
<g id="node42" class="node"><title>HITs/simplicial</title>
<ellipse fill="none" stroke="black" cx="959.693" cy="-234" rx="65.7887" ry="18"/>
<text text-anchor="middle" x="959.693" y="-230.3" font-family="Times New Roman,serif" font-size="14.00">HITs/simplicial</text>
</g>
<!-- HITs/merely&#45;&gt;HITs/simplicial -->
<g id="edge44" class="edge"><title>HITs/merely&#45;&gt;HITs/simplicial</title>
<path fill="none" stroke="black" d="M984.705,-288.055C980.951,-280.091 976.387,-270.411 972.191,-261.51"/>
<polygon fill="black" stroke="black" points="975.267,-259.828 967.837,-252.275 968.936,-262.813 975.267,-259.828"/>
</g>
<!-- theorems/functions -->
<g id="node43" class="node"><title>theorems/functions</title>
<ellipse fill="none" stroke="black" cx="1123.69" cy="-234" rx="79.8859" ry="18"/>
<text text-anchor="middle" x="1123.69" y="-230.3" font-family="Times New Roman,serif" font-size="14.00">theorems/functions</text>
</g>
<!-- HITs/merely&#45;&gt;theorems/functions -->
<g id="edge45" class="edge"><title>HITs/merely&#45;&gt;theorems/functions</title>
<path fill="none" stroke="black" d="M1020.47,-290.155C1039.32,-280.087 1064.48,-266.643 1085.24,-255.549"/>
<polygon fill="black" stroke="black" points="1086.96,-258.597 1094.13,-250.797 1083.66,-252.423 1086.96,-258.597"/>
</g>
<!-- HITs/quotient -->
<g id="node37" class="node"><title>HITs/quotient</title>
<ellipse fill="none" stroke="black" cx="1283.69" cy="-234" rx="61.99" ry="18"/>
<text text-anchor="middle" x="1283.69" y="-230.3" font-family="Times New Roman,serif" font-size="14.00">HITs/quotient</text>
</g>
<!-- HITs/trunc&#45;&gt;HITs/quotient -->
<g id="edge50" class="edge"><title>HITs/trunc&#45;&gt;HITs/quotient</title>
<path fill="none" stroke="black" d="M1184.59,-290.496C1202.83,-280.286 1227.47,-266.484 1247.63,-255.198"/>
<polygon fill="black" stroke="black" points="1249.51,-258.152 1256.53,-250.212 1246.09,-252.044 1249.51,-258.152"/>
</g>
<!-- theorems/nat -->
<g id="node27" class="node"><title>theorems/nat</title>
<ellipse fill="none" stroke="black" cx="780.693" cy="-234" rx="57.3905" ry="18"/>
<text text-anchor="middle" x="780.693" y="-230.3" font-family="Times New Roman,serif" font-size="14.00">theorems/nat</text>
</g>
<!-- types/nat&#45;&gt;theorems/nat -->
<g id="edge22" class="edge"><title>types/nat&#45;&gt;theorems/nat</title>
<path fill="none" stroke="black" d="M855.08,-289.811C842.033,-280.198 824.951,-267.611 810.447,-256.924"/>
<polygon fill="black" stroke="black" points="812.383,-254.003 802.256,-250.888 808.23,-259.638 812.383,-254.003"/>
</g>
<!-- algebra/group -->
<g id="node12" class="node"><title>algebra/group</title>
<ellipse fill="none" stroke="black" cx="1123.69" cy="-162" rx="60.3893" ry="18"/>
<text text-anchor="middle" x="1123.69" y="-158.3" font-family="Times New Roman,serif" font-size="14.00">algebra/group</text>
</g>
<!-- theorems/ua&#45;&gt;algebra/group -->
<g id="edge63" class="edge"><title>theorems/ua&#45;&gt;algebra/group</title>
<path fill="none" stroke="black" d="M786.916,-290.391C804.569,-280.448 827.726,-266.502 846.693,-252 865.175,-237.87 864.148,-226.914 884.693,-216 914.852,-199.979 1001.33,-183.187 1061.53,-172.905"/>
<polygon fill="black" stroke="black" points="1062.42,-176.304 1071.7,-171.187 1061.26,-169.402 1062.42,-176.304"/>
</g>
<!-- theorems/ua&#45;&gt;theorems/nat -->
<g id="edge64" class="edge"><title>theorems/ua&#45;&gt;theorems/nat</title>
<path fill="none" stroke="black" d="M764.777,-288.055C767.115,-280.261 769.947,-270.822 772.57,-262.079"/>
<polygon fill="black" stroke="black" points="775.989,-262.859 775.511,-252.275 769.285,-260.848 775.989,-262.859"/>
</g>
<!-- cubical/V -->
<g id="node48" class="node"><title>cubical/V</title>
<ellipse fill="none" stroke="black" cx="544.693" cy="-90" rx="45.4919" ry="18"/>
<text text-anchor="middle" x="544.693" y="-86.3" font-family="Times New Roman,serif" font-size="14.00">cubical/V</text>
</g>
<!-- theorems/ua&#45;&gt;cubical/V -->
<g id="edge65" class="edge"><title>theorems/ua&#45;&gt;cubical/V</title>
<path fill="none" stroke="black" d="M711.12,-297.654C660.961,-289.041 587.443,-273.204 568.693,-252 535.95,-214.971 536.746,-153.386 540.536,-118.084"/>
<polygon fill="black" stroke="black" points="544.025,-118.382 541.774,-108.029 537.078,-117.526 544.025,-118.382"/>
</g>
<!-- algebra/homology -->
<g id="node13" class="node"><title>algebra/homology</title>
<ellipse fill="none" stroke="black" cx="1123.69" cy="-90" rx="75.2868" ry="18"/>
<text text-anchor="middle" x="1123.69" y="-86.3" font-family="Times New Roman,serif" font-size="14.00">algebra/homology</text>
</g>
<!-- algebra/group&#45;&gt;algebra/homology -->
<g id="edge9" class="edge"><title>algebra/group&#45;&gt;algebra/homology</title>
<path fill="none" stroke="black" d="M1123.69,-143.697C1123.69,-135.983 1123.69,-126.712 1123.69,-118.112"/>
<polygon fill="black" stroke="black" points="1127.19,-118.104 1123.69,-108.104 1120.19,-118.104 1127.19,-118.104"/>
</g>
<!-- types/category -->
<g id="node14" class="node"><title>types/category</title>
<ellipse fill="none" stroke="black" cx="671.693" cy="-90" rx="63.8893" ry="18"/>
<text text-anchor="middle" x="671.693" y="-86.3" font-family="Times New Roman,serif" font-size="14.00">types/category</text>
</g>
<!-- types/coproduct&#45;&gt;structures -->
<g id="edge10" class="edge"><title>types/coproduct&#45;&gt;structures</title>
<path fill="none" stroke="black" d="M862.899,-503.871C864.604,-479.67 867.735,-435.211 869.764,-406.393"/>
<polygon fill="black" stroke="black" points="873.271,-406.41 870.483,-396.189 866.289,-405.919 873.271,-406.41"/>
</g>
<!-- types/dedekind -->
<g id="node16" class="node"><title>types/dedekind</title>
<ellipse fill="none" stroke="black" cx="937.693" cy="-18" rx="65.7887" ry="18"/>
<text text-anchor="middle" x="937.693" y="-14.3" font-family="Times New Roman,serif" font-size="14.00">types/dedekind</text>
</g>
<!-- HITs/graph -->
<g id="node22" class="node"><title>HITs/graph</title>
<ellipse fill="none" stroke="black" cx="1194.69" cy="-450" rx="52.7911" ry="18"/>
<text text-anchor="middle" x="1194.69" y="-446.3" font-family="Times New Roman,serif" font-size="14.00">HITs/graph</text>
</g>
<!-- types/heq&#45;&gt;HITs/graph -->
<g id="edge18" class="edge"><title>types/heq&#45;&gt;HITs/graph</title>
<path fill="none" stroke="black" d="M1059.83,-576.987C1086.75,-551.845 1139.03,-503.002 1170,-474.072"/>
<polygon fill="black" stroke="black" points="1172.46,-476.557 1177.38,-467.173 1167.69,-471.442 1172.46,-476.557"/>
</g>
<!-- theorems/funext -->
<g id="node23" class="node"><title>theorems/funext</title>
<ellipse fill="none" stroke="black" cx="1019.69" cy="-522" rx="68.7879" ry="18"/>
<text text-anchor="middle" x="1019.69" y="-518.3" font-family="Times New Roman,serif" font-size="14.00">theorems/funext</text>
</g>
<!-- types/heq&#45;&gt;theorems/funext -->
<g id="edge19" class="edge"><title>types/heq&#45;&gt;theorems/funext</title>
<path fill="none" stroke="black" d="M1037.13,-576.055C1034.54,-568.176 1031.4,-558.617 1028.5,-549.794"/>
<polygon fill="black" stroke="black" points="1031.82,-548.683 1025.37,-540.275 1025.17,-550.868 1031.82,-548.683"/>
</g>
<!-- types/unit&#45;&gt;structures -->
<g id="edge27" class="edge"><title>types/unit&#45;&gt;structures</title>
<path fill="none" stroke="black" d="M1044.14,-437.597C1008.97,-425.648 953.595,-406.831 915.118,-393.756"/>
<polygon fill="black" stroke="black" points="915.829,-390.301 905.235,-390.398 913.577,-396.929 915.829,-390.301"/>
</g>
<!-- HITs/suspension -->
<g id="node30" class="node"><title>HITs/suspension</title>
<ellipse fill="none" stroke="black" cx="1378.69" cy="-306" rx="72.5877" ry="18"/>
<text text-anchor="middle" x="1378.69" y="-302.3" font-family="Times New Roman,serif" font-size="14.00">HITs/suspension</text>
</g>
<!-- types/unit&#45;&gt;HITs/suspension -->
<g id="edge28" class="edge"><title>types/unit&#45;&gt;HITs/suspension</title>
<path fill="none" stroke="black" d="M1076.18,-431.967C1075.4,-411.85 1077.47,-378.758 1096.69,-360 1111.56,-345.496 1226.72,-327.398 1305.2,-316.543"/>
<polygon fill="black" stroke="black" points="1306.11,-319.952 1315.54,-315.126 1305.16,-313.017 1306.11,-319.952"/>
</g>
<!-- types/sigma&#45;&gt;structures -->
<g id="edge26" class="edge"><title>types/sigma&#45;&gt;structures</title>
<path fill="none" stroke="black" d="M736.244,-504.711C763.452,-479.459 815.901,-430.781 846.944,-401.97"/>
<polygon fill="black" stroke="black" points="849.398,-404.467 854.347,-395.099 844.636,-399.337 849.398,-404.467"/>
</g>
<!-- HITs/colimit -->
<g id="node34" class="node"><title>HITs/colimit</title>
<ellipse fill="none" stroke="black" cx="992.693" cy="-378" rx="56.59" ry="18"/>
<text text-anchor="middle" x="992.693" y="-374.3" font-family="Times New Roman,serif" font-size="14.00">HITs/colimit</text>
</g>
<!-- HITs/graph&#45;&gt;HITs/colimit -->
<g id="edge35" class="edge"><title>HITs/graph&#45;&gt;HITs/colimit</title>
<path fill="none" stroke="black" d="M1159.04,-436.647C1125.81,-425.13 1076.04,-407.881 1039.59,-395.252"/>
<polygon fill="black" stroke="black" points="1040.29,-391.789 1029.69,-391.822 1038,-398.403 1040.29,-391.789"/>
</g>
<!-- HITs/generalized -->
<g id="node35" class="node"><title>HITs/generalized</title>
<ellipse fill="none" stroke="black" cx="1177.69" cy="-378" rx="72.2875" ry="18"/>
<text text-anchor="middle" x="1177.69" y="-374.3" font-family="Times New Roman,serif" font-size="14.00">HITs/generalized</text>
</g>
<!-- HITs/graph&#45;&gt;HITs/generalized -->
<g id="edge36" class="edge"><title>HITs/graph&#45;&gt;HITs/generalized</title>
<path fill="none" stroke="black" d="M1190.58,-432.055C1188.69,-424.261 1186.39,-414.822 1184.27,-406.079"/>
<polygon fill="black" stroke="black" points="1187.65,-405.167 1181.89,-396.275 1180.85,-406.819 1187.65,-405.167"/>
</g>
<!-- HITs/pushout -->
<g id="node36" class="node"><title>HITs/pushout</title>
<ellipse fill="none" stroke="black" cx="1372.69" cy="-378" rx="61.99" ry="18"/>
<text text-anchor="middle" x="1372.69" y="-374.3" font-family="Times New Roman,serif" font-size="14.00">HITs/pushout</text>
</g>
<!-- HITs/graph&#45;&gt;HITs/pushout -->
<g id="edge37" class="edge"><title>HITs/graph&#45;&gt;HITs/pushout</title>
<path fill="none" stroke="black" d="M1228.17,-435.834C1256.34,-424.755 1296.87,-408.818 1327.84,-396.638"/>
<polygon fill="black" stroke="black" points="1329.51,-399.743 1337.54,-392.826 1326.95,-393.228 1329.51,-399.743"/>
</g>
<!-- HITs/graph&#45;&gt;HITs/quotient -->
<g id="edge38" class="edge"><title>HITs/graph&#45;&gt;HITs/quotient</title>
<path fill="none" stroke="black" d="M1220.5,-434.106C1234.07,-424.891 1249.72,-411.805 1258.69,-396 1282.65,-353.833 1285.73,-295.935 1285.15,-262.289"/>
<polygon fill="black" stroke="black" points="1288.65,-262.161 1284.86,-252.268 1281.65,-262.366 1288.65,-262.161"/>
</g>
<!-- types/product -->
<g id="node29" class="node"><title>types/product</title>
<ellipse fill="none" stroke="black" cx="951.693" cy="-450" rx="61.99" ry="18"/>
<text text-anchor="middle" x="951.693" y="-446.3" font-family="Times New Roman,serif" font-size="14.00">types/product</text>
</g>
<!-- theorems/funext&#45;&gt;types/product -->
<g id="edge58" class="edge"><title>theorems/funext&#45;&gt;types/product</title>
<path fill="none" stroke="black" d="M1003.58,-504.411C995.025,-495.606 984.361,-484.628 974.929,-474.919"/>
<polygon fill="black" stroke="black" points="977.171,-472.204 967.693,-467.47 972.15,-477.082 977.171,-472.204"/>
</g>
<!-- types/integer -->
<g id="node24" class="node"><title>types/integer</title>
<ellipse fill="none" stroke="black" cx="934.693" cy="-162" rx="56.59" ry="18"/>
<text text-anchor="middle" x="934.693" y="-158.3" font-family="Times New Roman,serif" font-size="14.00">types/integer</text>
</g>
<!-- types/integer&#45;&gt;HITs/circle -->
<g id="edge20" class="edge"><title>types/integer&#45;&gt;HITs/circle</title>
<path fill="none" stroke="black" d="M907.336,-146.155C888.137,-135.737 862.278,-121.705 841.448,-110.402"/>
<polygon fill="black" stroke="black" points="843.028,-107.277 832.569,-105.584 839.689,-113.43 843.028,-107.277"/>
</g>
<!-- types/rational -->
<g id="node26" class="node"><title>types/rational</title>
<ellipse fill="none" stroke="black" cx="936.693" cy="-90" rx="59.2899" ry="18"/>
<text text-anchor="middle" x="936.693" y="-86.3" font-family="Times New Roman,serif" font-size="14.00">types/rational</text>
</g>
<!-- types/integer&#45;&gt;types/rational -->
<g id="edge21" class="edge"><title>types/integer&#45;&gt;types/rational</title>
<path fill="none" stroke="black" d="M935.188,-143.697C935.408,-135.983 935.673,-126.712 935.919,-118.112"/>
<polygon fill="black" stroke="black" points="939.417,-118.2 936.204,-108.104 932.42,-118 939.417,-118.2"/>
</g>
<!-- theorems/hopf -->
<g id="node31" class="node"><title>theorems/hopf</title>
<ellipse fill="none" stroke="black" cx="262.693" cy="-18" rx="63.8893" ry="18"/>
<text text-anchor="middle" x="262.693" y="-14.3" font-family="Times New Roman,serif" font-size="14.00">theorems/hopf</text>
</g>
<!-- HITs/circle&#45;&gt;theorems/hopf -->
<g id="edge29" class="edge"><title>HITs/circle&#45;&gt;theorems/hopf</title>
<path fill="none" stroke="black" d="M768.174,-77.515C760.462,-75.4455 752.357,-73.4792 744.693,-72 600.539,-44.1783 429.104,-29.6665 334.457,-23.2419"/>
<polygon fill="black" stroke="black" points="334.633,-19.7459 324.421,-22.5715 334.166,-26.7303 334.633,-19.7459"/>
</g>
<!-- HITs/moebius -->
<g id="node32" class="node"><title>HITs/moebius</title>
<ellipse fill="none" stroke="black" cx="675.693" cy="-18" rx="63.0888" ry="18"/>
<text text-anchor="middle" x="675.693" y="-14.3" font-family="Times New Roman,serif" font-size="14.00">HITs/moebius</text>
</g>
<!-- HITs/circle&#45;&gt;HITs/moebius -->
<g id="edge30" class="edge"><title>HITs/circle&#45;&gt;HITs/moebius</title>
<path fill="none" stroke="black" d="M778.757,-74.496C759.711,-64.2402 733.932,-50.3592 712.921,-39.0457"/>
<polygon fill="black" stroke="black" points="714.408,-35.8713 703.944,-34.2119 711.089,-42.0346 714.408,-35.8713"/>
</g>
<!-- HITs/reals -->
<g id="node33" class="node"><title>HITs/reals</title>
<ellipse fill="none" stroke="black" cx="805.693" cy="-18" rx="48.9926" ry="18"/>
<text text-anchor="middle" x="805.693" y="-14.3" font-family="Times New Roman,serif" font-size="14.00">HITs/reals</text>
</g>
<!-- HITs/circle&#45;&gt;HITs/reals -->
<g id="edge31" class="edge"><title>HITs/circle&#45;&gt;HITs/reals</title>
<path fill="none" stroke="black" d="M805.693,-71.6966C805.693,-63.9827 805.693,-54.7125 805.693,-46.1124"/>
<polygon fill="black" stroke="black" points="809.193,-46.1043 805.693,-36.1043 802.193,-46.1044 809.193,-46.1043"/>
</g>
<!-- types/rational&#45;&gt;types/dedekind -->
<g id="edge25" class="edge"><title>types/rational&#45;&gt;types/dedekind</title>
<path fill="none" stroke="black" d="M936.94,-71.6966C937.051,-63.9827 937.183,-54.7125 937.306,-46.1124"/>
<polygon fill="black" stroke="black" points="940.806,-46.1533 937.449,-36.1043 933.806,-46.0533 940.806,-46.1533"/>
</g>
<!-- theorems/nat&#45;&gt;types/integer -->
<g id="edge59" class="edge"><title>theorems/nat&#45;&gt;types/integer</title>
<path fill="none" stroke="black" d="M811.857,-218.834C835.653,-208.018 868.632,-193.028 894.427,-181.303"/>
<polygon fill="black" stroke="black" points="895.92,-184.469 903.575,-177.144 893.023,-178.096 895.92,-184.469"/>
</g>
<!-- HITs/int -->
<g id="node49" class="node"><title>HITs/int</title>
<ellipse fill="none" stroke="black" cx="819.693" cy="-162" rx="40.8928" ry="18"/>
<text text-anchor="middle" x="819.693" y="-158.3" font-family="Times New Roman,serif" font-size="14.00">HITs/int</text>
</g>
<!-- theorems/nat&#45;&gt;HITs/int -->
<g id="edge60" class="edge"><title>theorems/nat&#45;&gt;HITs/int</title>
<path fill="none" stroke="black" d="M790.134,-216.055C794.733,-207.801 800.36,-197.701 805.465,-188.538"/>
<polygon fill="black" stroke="black" points="808.53,-190.228 810.339,-179.789 802.415,-186.821 808.53,-190.228"/>
</g>
<!-- types/precategory -->
<g id="node28" class="node"><title>types/precategory</title>
<ellipse fill="none" stroke="black" cx="647.693" cy="-162" rx="75.2868" ry="18"/>
<text text-anchor="middle" x="647.693" y="-158.3" font-family="Times New Roman,serif" font-size="14.00">types/precategory</text>
</g>
<!-- types/precategory&#45;&gt;types/category -->
<g id="edge23" class="edge"><title>types/precategory&#45;&gt;types/category</title>
<path fill="none" stroke="black" d="M653.626,-143.697C656.3,-135.898 659.519,-126.509 662.495,-117.829"/>
<polygon fill="black" stroke="black" points="665.896,-118.699 665.829,-108.104 659.275,-116.429 665.896,-118.699"/>
</g>
<!-- types/product&#45;&gt;structures -->
<g id="edge24" class="edge"><title>types/product&#45;&gt;structures</title>
<path fill="none" stroke="black" d="M933.139,-432.765C922.488,-423.445 908.957,-411.605 897.305,-401.41"/>
<polygon fill="black" stroke="black" points="899.428,-398.617 889.597,-394.666 894.818,-403.885 899.428,-398.617"/>
</g>
<!-- HITs/suspension&#45;&gt;HITs/circle -->
<g id="edge48" class="edge"><title>HITs/suspension&#45;&gt;HITs/circle</title>
<path fill="none" stroke="black" d="M1378.33,-287.921C1377.05,-268.371 1372.18,-236.424 1354.69,-216 1303.46,-156.145 1268.75,-164.594 1192.69,-144 1052.84,-106.131 1011.05,-134.952 868.693,-108 863.742,-107.063 858.609,-105.938 853.507,-104.719"/>
<polygon fill="black" stroke="black" points="854.341,-101.319 843.79,-102.283 852.639,-108.109 854.341,-101.319"/>
</g>
<!-- HITs/join -->
<g id="node41" class="node"><title>HITs/join</title>
<ellipse fill="none" stroke="black" cx="1446.69" cy="-234" rx="45.4919" ry="18"/>
<text text-anchor="middle" x="1446.69" y="-230.3" font-family="Times New Roman,serif" font-size="14.00">HITs/join</text>
</g>
<!-- HITs/suspension&#45;&gt;HITs/join -->
<g id="edge49" class="edge"><title>HITs/suspension&#45;&gt;HITs/join</title>
<path fill="none" stroke="black" d="M1394.81,-288.411C1403.57,-279.39 1414.55,-268.088 1424.15,-258.207"/>
<polygon fill="black" stroke="black" points="1426.7,-260.6 1431.16,-250.988 1421.68,-255.722 1426.7,-260.6"/>
</g>
<!-- HITs/colimit&#45;&gt;HITs/merely -->
<g id="edge32" class="edge"><title>HITs/colimit&#45;&gt;HITs/merely</title>
<path fill="none" stroke="black" d="M992.693,-359.697C992.693,-351.983 992.693,-342.712 992.693,-334.112"/>
<polygon fill="black" stroke="black" points="996.193,-334.104 992.693,-324.104 989.193,-334.104 996.193,-334.104"/>
</g>
<!-- HITs/colimit&#45;&gt;types/nat -->
<g id="edge33" class="edge"><title>HITs/colimit&#45;&gt;types/nat</title>
<path fill="none" stroke="black" d="M967.306,-361.811C949.979,-351.444 926.873,-337.62 908.201,-326.449"/>
<polygon fill="black" stroke="black" points="909.814,-323.336 899.436,-321.205 906.22,-329.343 909.814,-323.336"/>
</g>
<!-- HITs/generalized&#45;&gt;HITs/merely -->
<g id="edge34" class="edge"><title>HITs/generalized&#45;&gt;HITs/merely</title>
<path fill="none" stroke="black" d="M1139.81,-362.666C1109.92,-351.356 1068.18,-335.561 1036.79,-323.684"/>
<polygon fill="black" stroke="black" points="1037.99,-320.399 1027.4,-320.133 1035.52,-326.946 1037.99,-320.399"/>
</g>
<!-- HITs/pushout&#45;&gt;HITs/suspension -->
<g id="edge46" class="edge"><title>HITs/pushout&#45;&gt;HITs/suspension</title>
<path fill="none" stroke="black" d="M1374.18,-359.697C1374.84,-351.983 1375.63,-342.712 1376.37,-334.112"/>
<polygon fill="black" stroke="black" points="1379.86,-334.367 1377.23,-324.104 1372.89,-333.769 1379.86,-334.367"/>
</g>
<!-- HITs/quotient&#45;&gt;algebra/group -->
<g id="edge47" class="edge"><title>HITs/quotient&#45;&gt;algebra/group</title>
<path fill="none" stroke="black" d="M1250.93,-218.666C1226.26,-207.871 1192.25,-192.992 1165.59,-181.332"/>
<polygon fill="black" stroke="black" points="1166.7,-177.997 1156.14,-177.196 1163.9,-184.41 1166.7,-177.997"/>
</g>
<!-- cubical/path -->
<g id="node45" class="node"><title>cubical/path</title>
<ellipse fill="none" stroke="black" cx="401.693" cy="-162" rx="54.6905" ry="18"/>
<text text-anchor="middle" x="401.693" y="-158.3" font-family="Times New Roman,serif" font-size="14.00">cubical/path</text>
</g>
<!-- cubical/cubes&#45;&gt;cubical/path -->
<g id="edge51" class="edge"><title>cubical/cubes&#45;&gt;cubical/path</title>
<path fill="none" stroke="black" d="M407.716,-215.697C406.834,-207.983 405.775,-198.712 404.792,-190.112"/>
<polygon fill="black" stroke="black" points="408.261,-189.642 403.648,-180.104 401.306,-190.437 408.261,-189.642"/>
</g>
<!-- theorems/prop&#45;&gt;HITs/circle -->
<g id="edge61" class="edge"><title>theorems/prop&#45;&gt;HITs/circle</title>
<path fill="none" stroke="black" d="M672.588,-218.219C690.807,-208.699 713.735,-195.27 731.693,-180 753.863,-161.148 774.631,-135.144 788.489,-116.112"/>
<polygon fill="black" stroke="black" points="791.384,-118.08 794.35,-107.909 785.688,-114.011 791.384,-118.08"/>
</g>
<!-- theorems/prop&#45;&gt;types/precategory -->
<g id="edge62" class="edge"><title>theorems/prop&#45;&gt;types/precategory</title>
<path fill="none" stroke="black" d="M643.176,-215.697C643.838,-207.983 644.632,-198.712 645.369,-190.112"/>
<polygon fill="black" stroke="black" points="648.86,-190.367 646.227,-180.104 641.886,-189.769 648.86,-190.367"/>
</g>
<!-- theorems/fibration&#45;&gt;theorems/hopf -->
<g id="edge56" class="edge"><title>theorems/fibration&#45;&gt;theorems/hopf</title>
<path fill="none" stroke="black" d="M48.3728,-145.184C35.2272,-136.167 20.932,-123.549 13.6932,-108 6.94053,-93.4948 3.62582,-84.4358 13.6932,-72 35.735,-44.7728 125.953,-30.9429 191.465,-24.3584"/>
<polygon fill="black" stroke="black" points="192.136,-27.8098 201.753,-23.3629 191.462,-20.8424 192.136,-27.8098"/>
</g>
<!-- theorems/functions&#45;&gt;algebra/group -->
<g id="edge57" class="edge"><title>theorems/functions&#45;&gt;algebra/group</title>
<path fill="none" stroke="black" d="M1123.69,-215.697C1123.69,-207.983 1123.69,-198.712 1123.69,-190.112"/>
<polygon fill="black" stroke="black" points="1127.19,-190.104 1123.69,-180.104 1120.19,-190.104 1127.19,-190.104"/>
</g>
<!-- cubical/connection -->
<g id="node44" class="node"><title>cubical/connection</title>
<ellipse fill="none" stroke="black" cx="401.693" cy="-90" rx="79.0865" ry="18"/>
<text text-anchor="middle" x="401.693" y="-86.3" font-family="Times New Roman,serif" font-size="14.00">cubical/connection</text>
</g>
<!-- cubical/path&#45;&gt;cubical/connection -->
<g id="edge52" class="edge"><title>cubical/path&#45;&gt;cubical/connection</title>
<path fill="none" stroke="black" d="M401.693,-143.697C401.693,-135.983 401.693,-126.712 401.693,-118.112"/>
<polygon fill="black" stroke="black" points="405.193,-118.104 401.693,-108.104 398.193,-118.104 405.193,-118.104"/>
</g>
<!-- cubical/example -->
<g id="node46" class="node"><title>cubical/example</title>
<ellipse fill="none" stroke="black" cx="91.6932" cy="-90" rx="68.7879" ry="18"/>
<text text-anchor="middle" x="91.6932" y="-86.3" font-family="Times New Roman,serif" font-size="14.00">cubical/example</text>
</g>
<!-- cubical/path&#45;&gt;cubical/example -->
<g id="edge53" class="edge"><title>cubical/path&#45;&gt;cubical/example</title>
<path fill="none" stroke="black" d="M357.935,-151.119C304.024,-138.946 212.166,-118.204 151.7,-104.55"/>
<polygon fill="black" stroke="black" points="152.431,-101.127 141.905,-102.338 150.889,-107.955 152.431,-101.127"/>
</g>
<!-- cubical/square -->
<g id="node47" class="node"><title>cubical/square</title>
<ellipse fill="none" stroke="black" cx="241.693" cy="-90" rx="63.0888" ry="18"/>
<text text-anchor="middle" x="241.693" y="-86.3" font-family="Times New Roman,serif" font-size="14.00">cubical/square</text>
</g>
<!-- cubical/path&#45;&gt;cubical/square -->
<g id="edge54" class="edge"><title>cubical/path&#45;&gt;cubical/square</title>
<path fill="none" stroke="black" d="M370.082,-147.17C345.398,-136.371 310.868,-121.264 283.835,-109.437"/>
<polygon fill="black" stroke="black" points="285.178,-106.204 274.613,-105.403 282.372,-112.617 285.178,-106.204"/>
</g>
<!-- cubical/path&#45;&gt;cubical/V -->
<g id="edge55" class="edge"><title>cubical/path&#45;&gt;cubical/V</title>
<path fill="none" stroke="black" d="M430.976,-146.666C453.194,-135.79 483.886,-120.766 507.784,-109.067"/>
<polygon fill="black" stroke="black" points="509.464,-112.142 516.907,-104.602 506.386,-105.855 509.464,-112.142"/>
</g>
</g>
</svg>
