<?xml version="1.0" encoding="UTF-8" standalone="no"?>
<!DOCTYPE svg PUBLIC "-//W3C//DTD SVG 1.1//EN"
 "http://www.w3.org/Graphics/SVG/1.1/DTD/svg11.dtd">
<!-- Generated by graphviz version 2.38.0 (20140413.2041)
 -->
<!-- Title: dependency_map Pages: 1 -->
<svg width="1077pt" height="764pt"
 viewBox="0.00 0.00 1077.49 764.00" xmlns="http://www.w3.org/2000/svg" xmlns:xlink="http://www.w3.org/1999/xlink">
<g id="graph0" class="graph" transform="scale(1 1) rotate(0) translate(4 760)">
<title>dependency_map</title>
<polygon fill="white" stroke="none" points="-4,4 -4,-760 1073.49,-760 1073.49,4 -4,4"/>
<!-- proto -->
<g id="node1" class="node"><title>proto</title>
<ellipse fill="none" stroke="black" cx="377.545" cy="-738" rx="30.5947" ry="18"/>
<text text-anchor="middle" x="377.545" y="-734.3" font-family="Times New Roman,serif" font-size="14.00">proto</text>
</g>
<!-- types/eq -->
<g id="node2" class="node"><title>types/eq</title>
<ellipse fill="none" stroke="black" cx="437.545" cy="-666" rx="41.6928" ry="18"/>
<text text-anchor="middle" x="437.545" y="-662.3" font-family="Times New Roman,serif" font-size="14.00">types/eq</text>
</g>
<!-- proto&#45;&gt;types/eq -->
<g id="edge1" class="edge"><title>proto&#45;&gt;types/eq</title>
<path fill="none" stroke="black" d="M390.861,-721.465C398.489,-712.566 408.226,-701.205 416.833,-691.164"/>
<polygon fill="black" stroke="black" points="419.58,-693.338 423.43,-683.467 414.265,-688.782 419.58,-693.338"/>
</g>
<!-- support -->
<g id="node4" class="node"><title>support</title>
<ellipse fill="none" stroke="black" cx="375.545" cy="-594" rx="38.9931" ry="18"/>
<text text-anchor="middle" x="375.545" y="-590.3" font-family="Times New Roman,serif" font-size="14.00">support</text>
</g>
<!-- types/eq&#45;&gt;support -->
<g id="edge10" class="edge"><title>types/eq&#45;&gt;support</title>
<path fill="none" stroke="black" d="M423.165,-648.765C415.262,-639.841 405.312,-628.608 396.554,-618.719"/>
<polygon fill="black" stroke="black" points="399.097,-616.313 389.847,-611.147 393.857,-620.954 399.097,-616.313"/>
</g>
<!-- types/dep_path -->
<g id="node17" class="node"><title>types/dep_path</title>
<ellipse fill="none" stroke="black" cx="499.545" cy="-594" rx="66.8882" ry="18"/>
<text text-anchor="middle" x="499.545" y="-590.3" font-family="Times New Roman,serif" font-size="14.00">types/dep_path</text>
</g>
<!-- types/eq&#45;&gt;types/dep_path -->
<g id="edge11" class="edge"><title>types/eq&#45;&gt;types/dep_path</title>
<path fill="none" stroke="black" d="M451.925,-648.765C459.715,-639.969 469.494,-628.928 478.16,-619.144"/>
<polygon fill="black" stroke="black" points="480.802,-621.44 484.813,-611.633 475.562,-616.799 480.802,-621.44"/>
</g>
<!-- meta/hott_theory -->
<g id="node3" class="node"><title>meta/hott_theory</title>
<ellipse fill="none" stroke="black" cx="498.545" cy="-738" rx="72.2875" ry="18"/>
<text text-anchor="middle" x="498.545" y="-734.3" font-family="Times New Roman,serif" font-size="14.00">meta/hott_theory</text>
</g>
<!-- meta/hott_theory&#45;&gt;types/eq -->
<g id="edge2" class="edge"><title>meta/hott_theory&#45;&gt;types/eq</title>
<path fill="none" stroke="black" d="M483.779,-720.055C476.176,-711.33 466.777,-700.544 458.443,-690.981"/>
<polygon fill="black" stroke="black" points="460.964,-688.547 451.755,-683.307 455.686,-693.146 460.964,-688.547"/>
</g>
<!-- types/equiv -->
<g id="node5" class="node"><title>types/equiv</title>
<ellipse fill="none" stroke="black" cx="499.545" cy="-522" rx="51.9908" ry="18"/>
<text text-anchor="middle" x="499.545" y="-518.3" font-family="Times New Roman,serif" font-size="14.00">types/equiv</text>
</g>
<!-- support&#45;&gt;types/equiv -->
<g id="edge3" class="edge"><title>support&#45;&gt;types/equiv</title>
<path fill="none" stroke="black" d="M399.16,-579.669C417.646,-569.233 443.637,-554.561 464.54,-542.761"/>
<polygon fill="black" stroke="black" points="466.458,-545.698 473.445,-537.734 463.017,-539.602 466.458,-545.698"/>
</g>
<!-- HITs/infinitesimal -->
<g id="node11" class="node"><title>HITs/infinitesimal</title>
<ellipse fill="none" stroke="black" stroke-dasharray="5,2" cx="230.545" cy="-450" rx="74.9875" ry="18"/>
<text text-anchor="middle" x="230.545" y="-446.3" font-family="Times New Roman,serif" font-size="14.00">HITs/infinitesimal</text>
</g>
<!-- types/equiv&#45;&gt;HITs/infinitesimal -->
<g id="edge12" class="edge"><title>types/equiv&#45;&gt;HITs/infinitesimal</title>
<path fill="none" stroke="black" d="M459.273,-510.52C414.204,-498.792 340.767,-479.682 289.294,-466.288"/>
<polygon fill="black" stroke="black" points="289.867,-462.82 279.308,-463.689 288.104,-469.595 289.867,-462.82"/>
</g>
<!-- types/coproduct -->
<g id="node15" class="node"><title>types/coproduct</title>
<ellipse fill="none" stroke="black" cx="432.545" cy="-450" rx="70.6878" ry="18"/>
<text text-anchor="middle" x="432.545" y="-446.3" font-family="Times New Roman,serif" font-size="14.00">types/coproduct</text>
</g>
<!-- types/equiv&#45;&gt;types/coproduct -->
<g id="edge13" class="edge"><title>types/equiv&#45;&gt;types/coproduct</title>
<path fill="none" stroke="black" d="M484.005,-504.765C475.587,-495.969 465.019,-484.928 455.654,-475.144"/>
<polygon fill="black" stroke="black" points="457.909,-472.437 448.466,-467.633 452.852,-477.278 457.909,-472.437"/>
</g>
<!-- types/heq -->
<g id="node18" class="node"><title>types/heq</title>
<ellipse fill="none" stroke="black" cx="677.545" cy="-450" rx="46.2923" ry="18"/>
<text text-anchor="middle" x="677.545" y="-446.3" font-family="Times New Roman,serif" font-size="14.00">types/heq</text>
</g>
<!-- types/equiv&#45;&gt;types/heq -->
<g id="edge14" class="edge"><title>types/equiv&#45;&gt;types/heq</title>
<path fill="none" stroke="black" d="M532.608,-507.998C562.038,-496.424 605.191,-479.454 636.756,-467.041"/>
<polygon fill="black" stroke="black" points="638.127,-470.263 646.152,-463.346 635.565,-463.748 638.127,-470.263"/>
</g>
<!-- types/integer -->
<g id="node19" class="node"><title>types/integer</title>
<ellipse fill="none" stroke="black" cx="56.545" cy="-378" rx="56.59" ry="18"/>
<text text-anchor="middle" x="56.545" y="-374.3" font-family="Times New Roman,serif" font-size="14.00">types/integer</text>
</g>
<!-- types/equiv&#45;&gt;types/integer -->
<g id="edge15" class="edge"><title>types/equiv&#45;&gt;types/integer</title>
<path fill="none" stroke="black" d="M458.211,-511.032C427.571,-502.503 385.573,-488.35 352.545,-468 332.738,-455.796 335.272,-442.565 314.545,-432 236.804,-392.374 206.697,-415.051 121.545,-396 117.136,-395.014 112.573,-393.936 108.004,-392.819"/>
<polygon fill="black" stroke="black" points="108.599,-389.36 98.0479,-390.326 106.898,-396.15 108.599,-389.36"/>
</g>
<!-- types/lost -->
<g id="node20" class="node"><title>types/lost</title>
<ellipse fill="none" stroke="black" cx="787.545" cy="-450" rx="46.2923" ry="18"/>
<text text-anchor="middle" x="787.545" y="-446.3" font-family="Times New Roman,serif" font-size="14.00">types/lost</text>
</g>
<!-- types/equiv&#45;&gt;types/lost -->
<g id="edge16" class="edge"><title>types/equiv&#45;&gt;types/lost</title>
<path fill="none" stroke="black" d="M543.16,-512.116C590.157,-502.301 667.027,-485.55 732.545,-468 736.084,-467.052 739.737,-466.027 743.399,-464.967"/>
<polygon fill="black" stroke="black" points="744.45,-468.305 753.041,-462.105 742.458,-461.595 744.45,-468.305"/>
</g>
<!-- types/unit -->
<g id="node21" class="node"><title>types/unit</title>
<ellipse fill="none" stroke="black" cx="567.545" cy="-450" rx="46.2923" ry="18"/>
<text text-anchor="middle" x="567.545" y="-446.3" font-family="Times New Roman,serif" font-size="14.00">types/unit</text>
</g>
<!-- types/equiv&#45;&gt;types/unit -->
<g id="edge17" class="edge"><title>types/equiv&#45;&gt;types/unit</title>
<path fill="none" stroke="black" d="M515.316,-504.765C524.071,-495.753 535.114,-484.385 544.788,-474.426"/>
<polygon fill="black" stroke="black" points="547.402,-476.759 551.859,-467.147 542.381,-471.881 547.402,-476.759"/>
</g>
<!-- structures -->
<g id="node6" class="node"><title>structures</title>
<ellipse fill="none" stroke="black" cx="585.545" cy="-378" rx="46.2923" ry="18"/>
<text text-anchor="middle" x="585.545" y="-374.3" font-family="Times New Roman,serif" font-size="14.00">structures</text>
</g>
<!-- HITs/interval -->
<g id="node7" class="node"><title>HITs/interval</title>
<ellipse fill="none" stroke="black" cx="626.545" cy="-306" rx="57.6901" ry="18"/>
<text text-anchor="middle" x="626.545" y="-302.3" font-family="Times New Roman,serif" font-size="14.00">HITs/interval</text>
</g>
<!-- structures&#45;&gt;HITs/interval -->
<g id="edge4" class="edge"><title>structures&#45;&gt;HITs/interval</title>
<path fill="none" stroke="black" d="M595.47,-360.055C600.305,-351.801 606.22,-341.701 611.587,-332.538"/>
<polygon fill="black" stroke="black" points="614.677,-334.187 616.711,-323.789 608.637,-330.649 614.677,-334.187"/>
</g>
<!-- HITs/truncation -->
<g id="node8" class="node"><title>HITs/truncation</title>
<ellipse fill="none" stroke="black" cx="772.545" cy="-306" rx="68.4888" ry="18"/>
<text text-anchor="middle" x="772.545" y="-302.3" font-family="Times New Roman,serif" font-size="14.00">HITs/truncation</text>
</g>
<!-- structures&#45;&gt;HITs/truncation -->
<g id="edge5" class="edge"><title>structures&#45;&gt;HITs/truncation</title>
<path fill="none" stroke="black" d="M617.691,-364.967C647.345,-353.866 691.74,-337.248 725.402,-324.647"/>
<polygon fill="black" stroke="black" points="726.895,-327.826 735.033,-321.042 724.441,-321.27 726.895,-327.826"/>
</g>
<!-- algebra -->
<g id="node9" class="node"><title>algebra</title>
<ellipse fill="none" stroke="black" cx="242.545" cy="-306" rx="36.2938" ry="18"/>
<text text-anchor="middle" x="242.545" y="-302.3" font-family="Times New Roman,serif" font-size="14.00">algebra</text>
</g>
<!-- structures&#45;&gt;algebra -->
<g id="edge6" class="edge"><title>structures&#45;&gt;algebra</title>
<path fill="none" stroke="black" d="M551.731,-365.661C544.777,-363.58 537.465,-361.572 530.545,-360 424.08,-335.809 393.217,-351.449 287.545,-324 284.741,-323.272 281.871,-322.429 279.004,-321.515"/>
<polygon fill="black" stroke="black" points="279.963,-318.144 269.369,-318.204 277.688,-324.764 279.963,-318.144"/>
</g>
<!-- types/product -->
<g id="node27" class="node"><title>types/product</title>
<ellipse fill="none" stroke="black" cx="483.545" cy="-234" rx="61.99" ry="18"/>
<text text-anchor="middle" x="483.545" y="-230.3" font-family="Times New Roman,serif" font-size="14.00">types/product</text>
</g>
<!-- HITs/interval&#45;&gt;types/product -->
<g id="edge36" class="edge"><title>HITs/interval&#45;&gt;types/product</title>
<path fill="none" stroke="black" d="M596.915,-290.496C575.393,-279.961 546.057,-265.6 522.619,-254.127"/>
<polygon fill="black" stroke="black" points="524.149,-250.979 513.629,-249.726 521.072,-257.267 524.149,-250.979"/>
</g>
<!-- theorems/prop -->
<g id="node33" class="node"><title>theorems/prop</title>
<ellipse fill="none" stroke="black" cx="626.545" cy="-234" rx="63.8893" ry="18"/>
<text text-anchor="middle" x="626.545" y="-230.3" font-family="Times New Roman,serif" font-size="14.00">theorems/prop</text>
</g>
<!-- HITs/interval&#45;&gt;theorems/prop -->
<g id="edge37" class="edge"><title>HITs/interval&#45;&gt;theorems/prop</title>
<path fill="none" stroke="black" d="M626.545,-287.697C626.545,-279.983 626.545,-270.712 626.545,-262.112"/>
<polygon fill="black" stroke="black" points="630.045,-262.104 626.545,-252.104 623.045,-262.104 630.045,-262.104"/>
</g>
<!-- HITs/truncation&#45;&gt;theorems/prop -->
<g id="edge42" class="edge"><title>HITs/truncation&#45;&gt;theorems/prop</title>
<path fill="none" stroke="black" d="M741.224,-289.983C719.403,-279.521 690.11,-265.477 666.592,-254.201"/>
<polygon fill="black" stroke="black" points="668.093,-251.039 657.563,-249.872 665.067,-257.351 668.093,-251.039"/>
</g>
<!-- HITs/simplicial -->
<g id="node35" class="node"><title>HITs/simplicial</title>
<ellipse fill="none" stroke="black" cx="773.545" cy="-234" rx="65.7887" ry="18"/>
<text text-anchor="middle" x="773.545" y="-230.3" font-family="Times New Roman,serif" font-size="14.00">HITs/simplicial</text>
</g>
<!-- HITs/truncation&#45;&gt;HITs/simplicial -->
<g id="edge43" class="edge"><title>HITs/truncation&#45;&gt;HITs/simplicial</title>
<path fill="none" stroke="black" d="M772.792,-287.697C772.902,-279.983 773.035,-270.712 773.158,-262.112"/>
<polygon fill="black" stroke="black" points="776.657,-262.153 773.301,-252.104 769.658,-262.053 776.657,-262.153"/>
</g>
<!-- theorems/mere_eq_lemma -->
<g id="node36" class="node"><title>theorems/mere_eq_lemma</title>
<ellipse fill="none" stroke="black" cx="963.545" cy="-234" rx="105.881" ry="18"/>
<text text-anchor="middle" x="963.545" y="-230.3" font-family="Times New Roman,serif" font-size="14.00">theorems/mere_eq_lemma</text>
</g>
<!-- HITs/truncation&#45;&gt;theorems/mere_eq_lemma -->
<g id="edge44" class="edge"><title>HITs/truncation&#45;&gt;theorems/mere_eq_lemma</title>
<path fill="none" stroke="black" d="M810.738,-291.003C839.645,-280.409 879.668,-265.74 911.502,-254.073"/>
<polygon fill="black" stroke="black" points="912.913,-257.284 921.098,-250.557 910.504,-250.712 912.913,-257.284"/>
</g>
<!-- HITs/circle -->
<g id="node10" class="node"><title>HITs/circle</title>
<ellipse fill="none" stroke="black" stroke-dasharray="5,2" cx="232.545" cy="-90" rx="51.9908" ry="18"/>
<text text-anchor="middle" x="232.545" y="-86.3" font-family="Times New Roman,serif" font-size="14.00">HITs/circle</text>
</g>
<!-- HITs/ntrunc -->
<g id="node12" class="node"><title>HITs/ntrunc</title>
<ellipse fill="none" stroke="black" stroke-dasharray="5,2" cx="223.545" cy="-18" rx="55.4913" ry="18"/>
<text text-anchor="middle" x="223.545" y="-14.3" font-family="Times New Roman,serif" font-size="14.00">HITs/ntrunc</text>
</g>
<!-- HITs/circle&#45;&gt;HITs/ntrunc -->
<g id="edge32" class="edge"><title>HITs/circle&#45;&gt;HITs/ntrunc</title>
<path fill="none" stroke="black" d="M230.32,-71.6966C229.328,-63.9827 228.137,-54.7125 227.031,-46.1124"/>
<polygon fill="black" stroke="black" points="230.491,-45.5763 225.744,-36.1043 223.548,-46.469 230.491,-45.5763"/>
</g>
<!-- theorems/ua -->
<g id="node13" class="node"><title>theorems/ua</title>
<ellipse fill="none" stroke="black" stroke-dasharray="5,2" cx="342.545" cy="-162" rx="54.6905" ry="18"/>
<text text-anchor="middle" x="342.545" y="-158.3" font-family="Times New Roman,serif" font-size="14.00">theorems/ua</text>
</g>
<!-- theorems/ua&#45;&gt;HITs/circle -->
<g id="edge52" class="edge"><title>theorems/ua&#45;&gt;HITs/circle</title>
<path fill="none" stroke="black" d="M318.677,-145.811C302.965,-135.813 282.199,-122.598 264.994,-111.649"/>
<polygon fill="black" stroke="black" points="266.682,-108.575 256.367,-106.159 262.924,-114.481 266.682,-108.575"/>
</g>
<!-- cubical/V -->
<g id="node14" class="node"><title>cubical/V</title>
<ellipse fill="none" stroke="black" stroke-dasharray="5,2" cx="342.545" cy="-18" rx="45.4919" ry="18"/>
<text text-anchor="middle" x="342.545" y="-14.3" font-family="Times New Roman,serif" font-size="14.00">cubical/V</text>
</g>
<!-- theorems/ua&#45;&gt;cubical/V -->
<g id="edge53" class="edge"><title>theorems/ua&#45;&gt;cubical/V</title>
<path fill="none" stroke="black" d="M342.545,-143.871C342.545,-119.67 342.545,-75.2108 342.545,-46.3932"/>
<polygon fill="black" stroke="black" points="346.045,-46.1892 342.545,-36.1893 339.045,-46.1893 346.045,-46.1892"/>
</g>
<!-- types/coproduct&#45;&gt;structures -->
<g id="edge7" class="edge"><title>types/coproduct&#45;&gt;structures</title>
<path fill="none" stroke="black" d="M465.367,-433.983C489.426,-422.976 522.151,-408.004 547.378,-396.462"/>
<polygon fill="black" stroke="black" points="549.008,-399.565 556.645,-392.222 546.096,-393.2 549.008,-399.565"/>
</g>
<!-- types/nat -->
<g id="node16" class="node"><title>types/nat</title>
<ellipse fill="none" stroke="black" cx="174.545" cy="-378" rx="43.5923" ry="18"/>
<text text-anchor="middle" x="174.545" y="-374.3" font-family="Times New Roman,serif" font-size="14.00">types/nat</text>
</g>
<!-- types/coproduct&#45;&gt;types/nat -->
<g id="edge8" class="edge"><title>types/coproduct&#45;&gt;types/nat</title>
<path fill="none" stroke="black" d="M382.769,-437.143C340.895,-426.941 279.543,-411.464 226.545,-396 223.399,-395.082 220.157,-394.103 216.902,-393.096"/>
<polygon fill="black" stroke="black" points="217.768,-389.699 207.178,-390.022 215.658,-396.373 217.768,-389.699"/>
</g>
<!-- types/dep_path&#45;&gt;types/equiv -->
<g id="edge9" class="edge"><title>types/dep_path&#45;&gt;types/equiv</title>
<path fill="none" stroke="black" d="M499.545,-575.697C499.545,-567.983 499.545,-558.712 499.545,-550.112"/>
<polygon fill="black" stroke="black" points="503.045,-550.104 499.545,-540.104 496.045,-550.104 503.045,-550.104"/>
</g>
<!-- types/heq&#45;&gt;HITs/interval -->
<g id="edge18" class="edge"><title>types/heq&#45;&gt;HITs/interval</title>
<path fill="none" stroke="black" d="M671.494,-432.153C662.761,-407.838 646.535,-362.66 636.153,-333.753"/>
<polygon fill="black" stroke="black" points="639.421,-332.496 632.747,-324.268 632.833,-334.862 639.421,-332.496"/>
</g>
<!-- HITs/colimit -->
<g id="node22" class="node"><title>HITs/colimit</title>
<ellipse fill="none" stroke="black" cx="744.545" cy="-378" rx="56.59" ry="18"/>
<text text-anchor="middle" x="744.545" y="-374.3" font-family="Times New Roman,serif" font-size="14.00">HITs/colimit</text>
</g>
<!-- types/heq&#45;&gt;HITs/colimit -->
<g id="edge19" class="edge"><title>types/heq&#45;&gt;HITs/colimit</title>
<path fill="none" stroke="black" d="M693.085,-432.765C701.503,-423.969 712.071,-412.928 721.436,-403.144"/>
<polygon fill="black" stroke="black" points="724.238,-405.278 728.624,-395.633 719.181,-400.437 724.238,-405.278"/>
</g>
<!-- HITs/generalized -->
<g id="node23" class="node"><title>HITs/generalized</title>
<ellipse fill="none" stroke="black" cx="891.545" cy="-378" rx="72.2875" ry="18"/>
<text text-anchor="middle" x="891.545" y="-374.3" font-family="Times New Roman,serif" font-size="14.00">HITs/generalized</text>
</g>
<!-- types/heq&#45;&gt;HITs/generalized -->
<g id="edge20" class="edge"><title>types/heq&#45;&gt;HITs/generalized</title>
<path fill="none" stroke="black" d="M711.928,-437.753C746.528,-426.435 800.311,-408.843 840.012,-395.857"/>
<polygon fill="black" stroke="black" points="841.11,-399.18 849.527,-392.744 838.934,-392.527 841.11,-399.18"/>
</g>
<!-- HITs/int -->
<g id="node24" class="node"><title>HITs/int</title>
<ellipse fill="none" stroke="black" cx="1022.54" cy="-378" rx="40.8928" ry="18"/>
<text text-anchor="middle" x="1022.54" y="-374.3" font-family="Times New Roman,serif" font-size="14.00">HITs/int</text>
</g>
<!-- types/heq&#45;&gt;HITs/int -->
<g id="edge21" class="edge"><title>types/heq&#45;&gt;HITs/int</title>
<path fill="none" stroke="black" d="M711.361,-437.671C718.315,-435.589 725.627,-433.579 732.545,-432 837.702,-408.006 867.733,-421.462 972.545,-396 975.899,-395.185 979.347,-394.243 982.79,-393.227"/>
<polygon fill="black" stroke="black" points="983.897,-396.548 992.394,-390.219 981.805,-389.868 983.897,-396.548"/>
</g>
<!-- HITs/pushout -->
<g id="node25" class="node"><title>HITs/pushout</title>
<ellipse fill="none" stroke="black" cx="459.545" cy="-378" rx="61.99" ry="18"/>
<text text-anchor="middle" x="459.545" y="-374.3" font-family="Times New Roman,serif" font-size="14.00">HITs/pushout</text>
</g>
<!-- types/heq&#45;&gt;HITs/pushout -->
<g id="edge22" class="edge"><title>types/heq&#45;&gt;HITs/pushout</title>
<path fill="none" stroke="black" d="M643.002,-437.908C606.955,-426.334 550.098,-408.077 509.233,-394.955"/>
<polygon fill="black" stroke="black" points="510.062,-391.545 499.471,-391.82 507.922,-398.21 510.062,-391.545"/>
</g>
<!-- types/integer&#45;&gt;algebra -->
<g id="edge23" class="edge"><title>types/integer&#45;&gt;algebra</title>
<path fill="none" stroke="black" d="M91.6077,-363.839C120.14,-353.124 161.449,-337.602 197.545,-324 199.938,-323.098 202.403,-322.169 204.888,-321.231"/>
<polygon fill="black" stroke="black" points="206.343,-324.423 214.462,-317.617 203.87,-317.874 206.343,-324.423"/>
</g>
<!-- types/integer&#45;&gt;HITs/circle -->
<g id="edge24" class="edge"><title>types/integer&#45;&gt;HITs/circle</title>
<path fill="none" stroke="black" d="M59.3475,-359.899C62.8201,-341.444 69.7677,-311.539 81.545,-288 116.142,-218.851 176.421,-149.857 209.385,-114.771"/>
<polygon fill="black" stroke="black" points="212.028,-117.07 216.373,-107.406 206.95,-112.252 212.028,-117.07"/>
</g>
<!-- HITs/reals -->
<g id="node26" class="node"><title>HITs/reals</title>
<ellipse fill="none" stroke="black" cx="139.545" cy="-306" rx="48.9926" ry="18"/>
<text text-anchor="middle" x="139.545" y="-302.3" font-family="Times New Roman,serif" font-size="14.00">HITs/reals</text>
</g>
<!-- types/integer&#45;&gt;HITs/reals -->
<g id="edge25" class="edge"><title>types/integer&#45;&gt;HITs/reals</title>
<path fill="none" stroke="black" d="M75.7955,-360.765C86.9521,-351.355 101.154,-339.378 113.321,-329.117"/>
<polygon fill="black" stroke="black" points="115.582,-331.788 120.97,-322.666 111.069,-326.437 115.582,-331.788"/>
</g>
<!-- types/unit&#45;&gt;structures -->
<g id="edge30" class="edge"><title>types/unit&#45;&gt;structures</title>
<path fill="none" stroke="black" d="M571.902,-432.055C573.906,-424.261 576.334,-414.822 578.582,-406.079"/>
<polygon fill="black" stroke="black" points="582.002,-406.832 581.103,-396.275 575.223,-405.089 582.002,-406.832"/>
</g>
<!-- HITs/suspension -->
<g id="node31" class="node"><title>HITs/suspension</title>
<ellipse fill="none" stroke="black" cx="369.545" cy="-306" rx="72.5877" ry="18"/>
<text text-anchor="middle" x="369.545" y="-302.3" font-family="Times New Roman,serif" font-size="14.00">HITs/suspension</text>
</g>
<!-- types/unit&#45;&gt;HITs/suspension -->
<g id="edge31" class="edge"><title>types/unit&#45;&gt;HITs/suspension</title>
<path fill="none" stroke="black" d="M532.658,-438.118C525.987,-436.065 519.055,-433.951 512.545,-432 457.574,-415.526 427.632,-438.017 388.545,-396 373.2,-379.505 369.055,-353.773 368.393,-334.211"/>
<polygon fill="black" stroke="black" points="371.893,-334.056 368.335,-324.077 364.893,-334.097 371.893,-334.056"/>
</g>
<!-- HITs/colimit&#45;&gt;HITs/truncation -->
<g id="edge33" class="edge"><title>HITs/colimit&#45;&gt;HITs/truncation</title>
<path fill="none" stroke="black" d="M751.323,-360.055C754.475,-352.176 758.298,-342.617 761.827,-333.794"/>
<polygon fill="black" stroke="black" points="765.171,-334.86 765.635,-324.275 758.671,-332.26 765.171,-334.86"/>
</g>
<!-- HITs/generalized&#45;&gt;HITs/truncation -->
<g id="edge34" class="edge"><title>HITs/generalized&#45;&gt;HITs/truncation</title>
<path fill="none" stroke="black" d="M864.542,-361.116C847.958,-351.36 826.515,-338.747 808.503,-328.152"/>
<polygon fill="black" stroke="black" points="809.835,-324.875 799.441,-322.821 806.286,-330.908 809.835,-324.875"/>
</g>
<!-- HITs/rat -->
<g id="node32" class="node"><title>HITs/rat</title>
<ellipse fill="none" stroke="black" cx="1022.54" cy="-306" rx="41.6928" ry="18"/>
<text text-anchor="middle" x="1022.54" y="-302.3" font-family="Times New Roman,serif" font-size="14.00">HITs/rat</text>
</g>
<!-- HITs/int&#45;&gt;HITs/rat -->
<g id="edge35" class="edge"><title>HITs/int&#45;&gt;HITs/rat</title>
<path fill="none" stroke="black" d="M1022.54,-359.697C1022.54,-351.983 1022.54,-342.712 1022.54,-334.112"/>
<polygon fill="black" stroke="black" points="1026.05,-334.104 1022.54,-324.104 1019.05,-334.104 1026.05,-334.104"/>
</g>
<!-- HITs/pushout&#45;&gt;HITs/reals -->
<g id="edge38" class="edge"><title>HITs/pushout&#45;&gt;HITs/reals</title>
<path fill="none" stroke="black" d="M408.048,-367.929C355.005,-358.271 270.077,-341.931 197.545,-324 193.701,-323.05 189.73,-322.01 185.754,-320.929"/>
<polygon fill="black" stroke="black" points="186.498,-317.502 175.925,-318.179 184.612,-324.244 186.498,-317.502"/>
</g>
<!-- HITs/pushout&#45;&gt;HITs/suspension -->
<g id="edge40" class="edge"><title>HITs/pushout&#45;&gt;HITs/suspension</title>
<path fill="none" stroke="black" d="M438.671,-360.765C426.829,-351.554 411.822,-339.882 398.82,-329.769"/>
<polygon fill="black" stroke="black" points="400.66,-326.766 390.618,-323.39 396.362,-332.292 400.66,-326.766"/>
</g>
<!-- HITs/join -->
<g id="node34" class="node"><title>HITs/join</title>
<ellipse fill="none" stroke="black" cx="505.545" cy="-306" rx="45.4919" ry="18"/>
<text text-anchor="middle" x="505.545" y="-302.3" font-family="Times New Roman,serif" font-size="14.00">HITs/join</text>
</g>
<!-- HITs/pushout&#45;&gt;HITs/join -->
<g id="edge39" class="edge"><title>HITs/pushout&#45;&gt;HITs/join</title>
<path fill="none" stroke="black" d="M470.68,-360.055C476.161,-351.715 482.88,-341.491 488.951,-332.252"/>
<polygon fill="black" stroke="black" points="491.945,-334.068 494.512,-323.789 486.095,-330.224 491.945,-334.068"/>
</g>
<!-- types/product&#45;&gt;theorems/ua -->
<g id="edge26" class="edge"><title>types/product&#45;&gt;theorems/ua</title>
<path fill="none" stroke="black" d="M453.643,-218.155C432.328,-207.573 403.502,-193.263 380.555,-181.87"/>
<polygon fill="black" stroke="black" points="381.953,-178.657 371.44,-177.345 378.841,-184.927 381.953,-178.657"/>
</g>
<!-- cubical/cubes -->
<g id="node28" class="node"><title>cubical/cubes</title>
<ellipse fill="none" stroke="black" cx="549.545" cy="-162" rx="60.3893" ry="18"/>
<text text-anchor="middle" x="549.545" y="-158.3" font-family="Times New Roman,serif" font-size="14.00">cubical/cubes</text>
</g>
<!-- types/product&#45;&gt;cubical/cubes -->
<g id="edge27" class="edge"><title>types/product&#45;&gt;cubical/cubes</title>
<path fill="none" stroke="black" d="M499.186,-216.411C507.488,-207.606 517.838,-196.628 526.993,-186.919"/>
<polygon fill="black" stroke="black" points="529.703,-189.147 534.016,-179.47 524.609,-184.345 529.703,-189.147"/>
</g>
<!-- cubical/path -->
<g id="node37" class="node"><title>cubical/path</title>
<ellipse fill="none" stroke="black" cx="586.545" cy="-90" rx="54.6905" ry="18"/>
<text text-anchor="middle" x="586.545" y="-86.3" font-family="Times New Roman,serif" font-size="14.00">cubical/path</text>
</g>
<!-- cubical/cubes&#45;&gt;cubical/path -->
<g id="edge47" class="edge"><title>cubical/cubes&#45;&gt;cubical/path</title>
<path fill="none" stroke="black" d="M558.502,-144.055C562.819,-135.887 568.092,-125.912 572.895,-116.824"/>
<polygon fill="black" stroke="black" points="576.092,-118.266 577.671,-107.789 569.903,-114.994 576.092,-118.266"/>
</g>
<!-- types/sigma -->
<g id="node29" class="node"><title>types/sigma</title>
<ellipse fill="none" stroke="black" cx="642.545" cy="-738" rx="53.8905" ry="18"/>
<text text-anchor="middle" x="642.545" y="-734.3" font-family="Times New Roman,serif" font-size="14.00">types/sigma</text>
</g>
<!-- types/swale -->
<g id="node30" class="node"><title>types/swale</title>
<ellipse fill="none" stroke="black" cx="288.545" cy="-378" rx="52.7911" ry="18"/>
<text text-anchor="middle" x="288.545" y="-374.3" font-family="Times New Roman,serif" font-size="14.00">types/swale</text>
</g>
<!-- types/swale&#45;&gt;algebra -->
<g id="edge28" class="edge"><title>types/swale&#45;&gt;algebra</title>
<path fill="none" stroke="black" d="M277.41,-360.055C271.848,-351.592 265.012,-341.19 258.872,-331.845"/>
<polygon fill="black" stroke="black" points="261.678,-329.742 253.261,-323.307 255.828,-333.586 261.678,-329.742"/>
</g>
<!-- types/swale&#45;&gt;HITs/reals -->
<g id="edge29" class="edge"><title>types/swale&#45;&gt;HITs/reals</title>
<path fill="none" stroke="black" d="M258.751,-363.003C235.481,-352.071 202.979,-336.801 177.789,-324.967"/>
<polygon fill="black" stroke="black" points="179.066,-321.7 168.527,-320.616 176.09,-328.036 179.066,-321.7"/>
</g>
<!-- HITs/suspension&#45;&gt;HITs/circle -->
<g id="edge41" class="edge"><title>HITs/suspension&#45;&gt;HITs/circle</title>
<path fill="none" stroke="black" d="M356.027,-288.185C337.453,-264.706 303.507,-220.427 278.545,-180 265.9,-159.521 253.485,-135.178 244.746,-117.131"/>
<polygon fill="black" stroke="black" points="247.764,-115.329 240.291,-107.818 241.449,-118.349 247.764,-115.329"/>
</g>
<!-- cubical/path&#45;&gt;cubical/V -->
<g id="edge50" class="edge"><title>cubical/path&#45;&gt;cubical/V</title>
<path fill="none" stroke="black" d="M545.664,-78.0147C507.111,-67.5561 447.76,-51.2002 396.545,-36 393.241,-35.0195 389.83,-33.9886 386.401,-32.9397"/>
<polygon fill="black" stroke="black" points="387.36,-29.5727 376.773,-29.9622 385.292,-36.2603 387.36,-29.5727"/>
</g>
<!-- HITs/moebius -->
<g id="node38" class="node"><title>HITs/moebius</title>
<ellipse fill="none" stroke="black" cx="624.545" cy="-18" rx="63.0888" ry="18"/>
<text text-anchor="middle" x="624.545" y="-14.3" font-family="Times New Roman,serif" font-size="14.00">HITs/moebius</text>
</g>
<!-- cubical/path&#45;&gt;HITs/moebius -->
<g id="edge45" class="edge"><title>cubical/path&#45;&gt;HITs/moebius</title>
<path fill="none" stroke="black" d="M595.744,-72.055C600.113,-64.0067 605.434,-54.2046 610.308,-45.2259"/>
<polygon fill="black" stroke="black" points="613.472,-46.7337 615.167,-36.2753 607.32,-43.394 613.472,-46.7337"/>
</g>
<!-- cubical/connection -->
<g id="node39" class="node"><title>cubical/connection</title>
<ellipse fill="none" stroke="black" cx="784.545" cy="-18" rx="79.0865" ry="18"/>
<text text-anchor="middle" x="784.545" y="-14.3" font-family="Times New Roman,serif" font-size="14.00">cubical/connection</text>
</g>
<!-- cubical/path&#45;&gt;cubical/connection -->
<g id="edge46" class="edge"><title>cubical/path&#45;&gt;cubical/connection</title>
<path fill="none" stroke="black" d="M622.401,-76.3235C653.572,-65.3036 699.076,-49.2164 733.95,-36.8872"/>
<polygon fill="black" stroke="black" points="735.222,-40.1498 743.484,-33.5167 732.889,-33.5501 735.222,-40.1498"/>
</g>
<!-- cubical/square -->
<g id="node40" class="node"><title>cubical/square</title>
<ellipse fill="none" stroke="black" cx="944.545" cy="-18" rx="63.0888" ry="18"/>
<text text-anchor="middle" x="944.545" y="-14.3" font-family="Times New Roman,serif" font-size="14.00">cubical/square</text>
</g>
<!-- cubical/path&#45;&gt;cubical/square -->
<g id="edge48" class="edge"><title>cubical/path&#45;&gt;cubical/square</title>
<path fill="none" stroke="black" d="M634.001,-80.9338C690.854,-71.1023 788.911,-53.6119 872.545,-36 877.6,-34.9356 882.843,-33.786 888.092,-32.6043"/>
<polygon fill="black" stroke="black" points="889.174,-35.9473 898.142,-30.3062 887.613,-29.1234 889.174,-35.9473"/>
</g>
<!-- cubical/example -->
<g id="node41" class="node"><title>cubical/example</title>
<ellipse fill="none" stroke="black" cx="474.545" cy="-18" rx="68.7879" ry="18"/>
<text text-anchor="middle" x="474.545" y="-14.3" font-family="Times New Roman,serif" font-size="14.00">cubical/example</text>
</g>
<!-- cubical/path&#45;&gt;cubical/example -->
<g id="edge49" class="edge"><title>cubical/path&#45;&gt;cubical/example</title>
<path fill="none" stroke="black" d="M562.243,-73.811C546.574,-64.018 525.968,-51.1396 508.668,-40.3269"/>
<polygon fill="black" stroke="black" points="510.301,-37.2202 499.966,-34.8882 506.591,-43.1562 510.301,-37.2202"/>
</g>
<!-- theorems/functions -->
<g id="node42" class="node"><title>theorems/functions</title>
<ellipse fill="none" stroke="black" cx="664.545" cy="-594" rx="79.8859" ry="18"/>
<text text-anchor="middle" x="664.545" y="-590.3" font-family="Times New Roman,serif" font-size="14.00">theorems/functions</text>
</g>
<!-- theorems/functions&#45;&gt;types/equiv -->
<g id="edge51" class="edge"><title>theorems/functions&#45;&gt;types/equiv</title>
<path fill="none" stroke="black" d="M628.742,-577.811C602.714,-566.769 567.438,-551.803 540.323,-540.3"/>
<polygon fill="black" stroke="black" points="541.674,-537.071 531.101,-536.387 538.94,-543.515 541.674,-537.071"/>
</g>
<!-- theorems/topology -->
<g id="node43" class="node"><title>theorems/topology</title>
<ellipse fill="none" stroke="black" cx="793.545" cy="-738" rx="79.0865" ry="18"/>
<text text-anchor="middle" x="793.545" y="-734.3" font-family="Times New Roman,serif" font-size="14.00">theorems/topology</text>
</g>
</g>
</svg>
