<?xml version="1.0" encoding="UTF-8" standalone="no"?>
<!DOCTYPE svg PUBLIC "-//W3C//DTD SVG 1.1//EN"
 "http://www.w3.org/Graphics/SVG/1.1/DTD/svg11.dtd">
<!-- Generated by graphviz version 2.43.0 (0)
 -->
<!-- Title: dependency_map Pages: 1 -->
<svg width="1877pt" height="1052pt"
 viewBox="0.00 0.00 1876.54 1052.00" xmlns="http://www.w3.org/2000/svg" xmlns:xlink="http://www.w3.org/1999/xlink">
<g id="graph0" class="graph" transform="scale(1 1) rotate(0) translate(4 1048)">
<title>dependency_map</title>
<polygon fill="white" stroke="transparent" points="-4,4 -4,-1048 1872.54,-1048 1872.54,4 -4,4"/>
<!-- proto -->
<g id="node1" class="node">
<title>proto</title>
<ellipse fill="none" stroke="black" cx="613.79" cy="-1026" rx="29.5" ry="18"/>
<text text-anchor="middle" x="613.79" y="-1022.3" font-family="Times,serif" font-size="14.00">proto</text>
</g>
<!-- types/eq -->
<g id="node2" class="node">
<title>types/eq</title>
<ellipse fill="none" stroke="black" cx="672.79" cy="-954" rx="40.09" ry="18"/>
<text text-anchor="middle" x="672.79" y="-950.3" font-family="Times,serif" font-size="14.00">types/eq</text>
</g>
<!-- proto&#45;&gt;types/eq -->
<g id="edge1" class="edge">
<title>proto&#45;&gt;types/eq</title>
<path fill="none" stroke="black" d="M626.6,-1009.81C634.19,-1000.8 643.99,-989.18 652.6,-978.95"/>
<polygon fill="black" stroke="black" points="655.43,-981.04 659.2,-971.13 650.08,-976.52 655.43,-981.04"/>
</g>
<!-- support -->
<g id="node4" class="node">
<title>support</title>
<ellipse fill="none" stroke="black" cx="672.79" cy="-882" rx="37.09" ry="18"/>
<text text-anchor="middle" x="672.79" y="-878.3" font-family="Times,serif" font-size="14.00">support</text>
</g>
<!-- types/eq&#45;&gt;support -->
<g id="edge21" class="edge">
<title>types/eq&#45;&gt;support</title>
<path fill="none" stroke="black" d="M672.79,-935.7C672.79,-927.98 672.79,-918.71 672.79,-910.11"/>
<polygon fill="black" stroke="black" points="676.29,-910.1 672.79,-900.1 669.29,-910.1 676.29,-910.1"/>
</g>
<!-- meta/hott_theory -->
<g id="node3" class="node">
<title>meta/hott_theory</title>
<ellipse fill="none" stroke="black" cx="732.79" cy="-1026" rx="71.49" ry="18"/>
<text text-anchor="middle" x="732.79" y="-1022.3" font-family="Times,serif" font-size="14.00">meta/hott_theory</text>
</g>
<!-- meta/hott_theory&#45;&gt;types/eq -->
<g id="edge2" class="edge">
<title>meta/hott_theory&#45;&gt;types/eq</title>
<path fill="none" stroke="black" d="M718.27,-1008.05C710.79,-999.33 701.55,-988.54 693.35,-978.98"/>
<polygon fill="black" stroke="black" points="695.94,-976.62 686.77,-971.31 690.62,-981.18 695.94,-976.62"/>
</g>
<!-- types/equiv -->
<g id="node5" class="node">
<title>types/equiv</title>
<ellipse fill="none" stroke="black" cx="672.79" cy="-810" rx="51.19" ry="18"/>
<text text-anchor="middle" x="672.79" y="-806.3" font-family="Times,serif" font-size="14.00">types/equiv</text>
</g>
<!-- support&#45;&gt;types/equiv -->
<g id="edge3" class="edge">
<title>support&#45;&gt;types/equiv</title>
<path fill="none" stroke="black" d="M672.79,-863.7C672.79,-855.98 672.79,-846.71 672.79,-838.11"/>
<polygon fill="black" stroke="black" points="676.29,-838.1 672.79,-828.1 669.29,-838.1 676.29,-838.1"/>
</g>
<!-- types/coproduct -->
<g id="node25" class="node">
<title>types/coproduct</title>
<ellipse fill="none" stroke="black" cx="632.79" cy="-666" rx="66.89" ry="18"/>
<text text-anchor="middle" x="632.79" y="-662.3" font-family="Times,serif" font-size="14.00">types/coproduct</text>
</g>
<!-- types/equiv&#45;&gt;types/coproduct -->
<g id="edge24" class="edge">
<title>types/equiv&#45;&gt;types/coproduct</title>
<path fill="none" stroke="black" d="M622.25,-806.28C586.94,-801.42 542.11,-788.69 518.79,-756 509.5,-742.97 510.19,-733.49 518.79,-720 530.8,-701.18 551.42,-688.93 571.84,-681.02"/>
<polygon fill="black" stroke="black" points="573.26,-684.23 581.5,-677.57 570.9,-677.64 573.26,-684.23"/>
</g>
<!-- types/heq -->
<g id="node28" class="node">
<title>types/heq</title>
<ellipse fill="none" stroke="black" cx="427.79" cy="-738" rx="44.39" ry="18"/>
<text text-anchor="middle" x="427.79" y="-734.3" font-family="Times,serif" font-size="14.00">types/heq</text>
</g>
<!-- types/equiv&#45;&gt;types/heq -->
<g id="edge25" class="edge">
<title>types/equiv&#45;&gt;types/heq</title>
<path fill="none" stroke="black" d="M634.09,-798.14C596.25,-787.49 537.02,-770.77 485.79,-756 481.42,-754.74 476.87,-753.42 472.32,-752.09"/>
<polygon fill="black" stroke="black" points="473.02,-748.65 462.44,-749.21 471.05,-755.37 473.02,-748.65"/>
</g>
<!-- HITs/infinitesimal -->
<g id="node29" class="node">
<title>HITs/infinitesimal</title>
<ellipse fill="none" stroke="black" cx="603.79" cy="-738" rx="76.09" ry="18"/>
<text text-anchor="middle" x="603.79" y="-734.3" font-family="Times,serif" font-size="14.00">HITs/infinitesimal</text>
</g>
<!-- types/equiv&#45;&gt;HITs/infinitesimal -->
<g id="edge26" class="edge">
<title>types/equiv&#45;&gt;HITs/infinitesimal</title>
<path fill="none" stroke="black" d="M656.79,-792.76C648.04,-783.88 637.02,-772.71 627.31,-762.85"/>
<polygon fill="black" stroke="black" points="629.7,-760.3 620.19,-755.63 624.72,-765.21 629.7,-760.3"/>
</g>
<!-- types/lost -->
<g id="node30" class="node">
<title>types/lost</title>
<ellipse fill="none" stroke="black" cx="741.79" cy="-738" rx="44.39" ry="18"/>
<text text-anchor="middle" x="741.79" y="-734.3" font-family="Times,serif" font-size="14.00">types/lost</text>
</g>
<!-- types/equiv&#45;&gt;types/lost -->
<g id="edge27" class="edge">
<title>types/equiv&#45;&gt;types/lost</title>
<path fill="none" stroke="black" d="M688.8,-792.76C697.68,-783.75 708.89,-772.39 718.7,-762.43"/>
<polygon fill="black" stroke="black" points="721.35,-764.73 725.88,-755.15 716.37,-759.81 721.35,-764.73"/>
</g>
<!-- types/unit -->
<g id="node31" class="node">
<title>types/unit</title>
<ellipse fill="none" stroke="black" cx="826.79" cy="-594" rx="45.49" ry="18"/>
<text text-anchor="middle" x="826.79" y="-590.3" font-family="Times,serif" font-size="14.00">types/unit</text>
</g>
<!-- types/equiv&#45;&gt;types/unit -->
<g id="edge28" class="edge">
<title>types/equiv&#45;&gt;types/unit</title>
<path fill="none" stroke="black" d="M719.53,-802.41C750.1,-795.72 788.7,-782.39 812.79,-756 845.97,-719.66 840.26,-657.56 833.38,-622.05"/>
<polygon fill="black" stroke="black" points="836.73,-621 831.24,-611.93 829.88,-622.44 836.73,-621"/>
</g>
<!-- types/sigma -->
<g id="node32" class="node">
<title>types/sigma</title>
<ellipse fill="none" stroke="black" cx="770.79" cy="-666" rx="53.09" ry="18"/>
<text text-anchor="middle" x="770.79" y="-662.3" font-family="Times,serif" font-size="14.00">types/sigma</text>
</g>
<!-- types/equiv&#45;&gt;types/sigma -->
<g id="edge29" class="edge">
<title>types/equiv&#45;&gt;types/sigma</title>
<path fill="none" stroke="black" d="M718.86,-801.76C745.92,-794.88 778.01,-781.59 794.79,-756 807.39,-736.79 798.32,-711.15 787.92,-692.32"/>
<polygon fill="black" stroke="black" points="790.91,-690.5 782.79,-683.69 784.89,-694.07 790.91,-690.5"/>
</g>
<!-- structures -->
<g id="node6" class="node">
<title>structures</title>
<ellipse fill="none" stroke="black" cx="753.79" cy="-522" rx="44.69" ry="18"/>
<text text-anchor="middle" x="753.79" y="-518.3" font-family="Times,serif" font-size="14.00">structures</text>
</g>
<!-- HITs/interval -->
<g id="node7" class="node">
<title>HITs/interval</title>
<ellipse fill="none" stroke="black" cx="1333.79" cy="-450" rx="57.69" ry="18"/>
<text text-anchor="middle" x="1333.79" y="-446.3" font-family="Times,serif" font-size="14.00">HITs/interval</text>
</g>
<!-- structures&#45;&gt;HITs/interval -->
<g id="edge4" class="edge">
<title>structures&#45;&gt;HITs/interval</title>
<path fill="none" stroke="black" d="M796.44,-515.85C897.49,-503.66 1151.88,-472.96 1270.75,-458.61"/>
<polygon fill="black" stroke="black" points="1271.29,-462.07 1280.8,-457.4 1270.45,-455.12 1271.29,-462.07"/>
</g>
<!-- HITs/merely -->
<g id="node8" class="node">
<title>HITs/merely</title>
<ellipse fill="none" stroke="black" cx="497.79" cy="-450" rx="55.79" ry="18"/>
<text text-anchor="middle" x="497.79" y="-446.3" font-family="Times,serif" font-size="14.00">HITs/merely</text>
</g>
<!-- structures&#45;&gt;HITs/merely -->
<g id="edge5" class="edge">
<title>structures&#45;&gt;HITs/merely</title>
<path fill="none" stroke="black" d="M719.88,-510.05C713.24,-507.98 706.31,-505.88 699.79,-504 649.43,-489.47 591.52,-474.45 550.66,-464.12"/>
<polygon fill="black" stroke="black" points="551.46,-460.72 540.91,-461.67 549.75,-467.51 551.46,-460.72"/>
</g>
<!-- HITs/trunc -->
<g id="node9" class="node">
<title>HITs/trunc</title>
<ellipse fill="none" stroke="black" cx="147.79" cy="-450" rx="49.29" ry="18"/>
<text text-anchor="middle" x="147.79" y="-446.3" font-family="Times,serif" font-size="14.00">HITs/trunc</text>
</g>
<!-- structures&#45;&gt;HITs/trunc -->
<g id="edge6" class="edge">
<title>structures&#45;&gt;HITs/trunc</title>
<path fill="none" stroke="black" d="M721.24,-509.55C714.24,-507.42 706.83,-505.43 699.79,-504 606.51,-485.06 328,-463.76 206.06,-455.04"/>
<polygon fill="black" stroke="black" points="206.03,-451.53 195.81,-454.31 205.53,-458.51 206.03,-451.53"/>
</g>
<!-- types/nat -->
<g id="node10" class="node">
<title>types/nat</title>
<ellipse fill="none" stroke="black" cx="670.79" cy="-450" rx="42.49" ry="18"/>
<text text-anchor="middle" x="670.79" y="-446.3" font-family="Times,serif" font-size="14.00">types/nat</text>
</g>
<!-- structures&#45;&gt;types/nat -->
<g id="edge7" class="edge">
<title>structures&#45;&gt;types/nat</title>
<path fill="none" stroke="black" d="M735.37,-505.46C724.09,-495.95 709.47,-483.62 697,-473.1"/>
<polygon fill="black" stroke="black" points="699.06,-470.26 689.16,-466.49 694.55,-475.61 699.06,-470.26"/>
</g>
<!-- theorems/ua -->
<g id="node11" class="node">
<title>theorems/ua</title>
<ellipse fill="none" stroke="black" cx="988.79" cy="-450" rx="53.89" ry="18"/>
<text text-anchor="middle" x="988.79" y="-446.3" font-family="Times,serif" font-size="14.00">theorems/ua</text>
</g>
<!-- structures&#45;&gt;theorems/ua -->
<g id="edge8" class="edge">
<title>structures&#45;&gt;theorems/ua</title>
<path fill="none" stroke="black" d="M788.72,-510.6C828.78,-498.66 894.73,-479.02 939.89,-465.57"/>
<polygon fill="black" stroke="black" points="941.17,-468.84 949.75,-462.63 939.17,-462.13 941.17,-468.84"/>
</g>
<!-- cubical/cubes -->
<g id="node48" class="node">
<title>cubical/cubes</title>
<ellipse fill="none" stroke="black" cx="1643.79" cy="-378" rx="58.49" ry="18"/>
<text text-anchor="middle" x="1643.79" y="-374.3" font-family="Times,serif" font-size="14.00">cubical/cubes</text>
</g>
<!-- HITs/interval&#45;&gt;cubical/cubes -->
<g id="edge51" class="edge">
<title>HITs/interval&#45;&gt;cubical/cubes</title>
<path fill="none" stroke="black" d="M1379.2,-438.75C1434.61,-426.24 1528.26,-405.09 1588,-391.6"/>
<polygon fill="black" stroke="black" points="1589.03,-394.95 1598.01,-389.34 1587.49,-388.13 1589.03,-394.95"/>
</g>
<!-- theorems/prop -->
<g id="node49" class="node">
<title>theorems/prop</title>
<ellipse fill="none" stroke="black" cx="1012.79" cy="-378" rx="61.99" ry="18"/>
<text text-anchor="middle" x="1012.79" y="-374.3" font-family="Times,serif" font-size="14.00">theorems/prop</text>
</g>
<!-- HITs/interval&#45;&gt;theorems/prop -->
<g id="edge52" class="edge">
<title>HITs/interval&#45;&gt;theorems/prop</title>
<path fill="none" stroke="black" d="M1287.8,-438.97C1230.66,-426.51 1133.1,-405.23 1070.85,-391.66"/>
<polygon fill="black" stroke="black" points="1071.31,-388.18 1060.8,-389.47 1069.82,-395.02 1071.31,-388.18"/>
</g>
<!-- theorems/fibration -->
<g id="node50" class="node">
<title>theorems/fibration</title>
<ellipse fill="none" stroke="black" cx="1407.79" cy="-306" rx="76.09" ry="18"/>
<text text-anchor="middle" x="1407.79" y="-302.3" font-family="Times,serif" font-size="14.00">theorems/fibration</text>
</g>
<!-- HITs/interval&#45;&gt;theorems/fibration -->
<g id="edge53" class="edge">
<title>HITs/interval&#45;&gt;theorems/fibration</title>
<path fill="none" stroke="black" d="M1342.57,-432.15C1355.3,-407.73 1378.99,-362.26 1394.05,-333.38"/>
<polygon fill="black" stroke="black" points="1397.28,-334.75 1398.8,-324.27 1391.07,-331.52 1397.28,-334.75"/>
</g>
<!-- HITs/merely&#45;&gt;theorems/prop -->
<g id="edge54" class="edge">
<title>HITs/merely&#45;&gt;theorems/prop</title>
<path fill="none" stroke="black" d="M547.94,-441.96C569.98,-438.88 596.17,-435.24 619.79,-432 735.17,-416.18 869.66,-398.13 947.63,-387.7"/>
<polygon fill="black" stroke="black" points="948.34,-391.14 957.79,-386.34 947.41,-384.2 948.34,-391.14"/>
</g>
<!-- theorems/ontological -->
<g id="node52" class="node">
<title>theorems/ontological</title>
<ellipse fill="none" stroke="black" cx="410.79" cy="-378" rx="85.29" ry="18"/>
<text text-anchor="middle" x="410.79" y="-374.3" font-family="Times,serif" font-size="14.00">theorems/ontological</text>
</g>
<!-- HITs/merely&#45;&gt;theorems/ontological -->
<g id="edge55" class="edge">
<title>HITs/merely&#45;&gt;theorems/ontological</title>
<path fill="none" stroke="black" d="M478.05,-433.12C466.62,-423.92 452.03,-412.18 439.36,-401.98"/>
<polygon fill="black" stroke="black" points="441.35,-399.09 431.37,-395.55 436.96,-404.55 441.35,-399.09"/>
</g>
<!-- HITs/simplicial -->
<g id="node53" class="node">
<title>HITs/simplicial</title>
<ellipse fill="none" stroke="black" cx="241.79" cy="-378" rx="66.09" ry="18"/>
<text text-anchor="middle" x="241.79" y="-374.3" font-family="Times,serif" font-size="14.00">HITs/simplicial</text>
</g>
<!-- HITs/merely&#45;&gt;HITs/simplicial -->
<g id="edge56" class="edge">
<title>HITs/merely&#45;&gt;HITs/simplicial</title>
<path fill="none" stroke="black" d="M456.66,-437.75C413.25,-425.88 344.6,-407.11 296.61,-393.99"/>
<polygon fill="black" stroke="black" points="297.27,-390.54 286.7,-391.28 295.42,-397.29 297.27,-390.54"/>
</g>
<!-- theorems/functions -->
<g id="node54" class="node">
<title>theorems/functions</title>
<ellipse fill="none" stroke="black" cx="490.79" cy="-234" rx="78.79" ry="18"/>
<text text-anchor="middle" x="490.79" y="-230.3" font-family="Times,serif" font-size="14.00">theorems/functions</text>
</g>
<!-- HITs/merely&#45;&gt;theorems/functions -->
<g id="edge57" class="edge">
<title>HITs/merely&#45;&gt;theorems/functions</title>
<path fill="none" stroke="black" d="M500.64,-431.87C502.21,-421.52 504,-408.04 504.79,-396 507.89,-348.96 500.89,-294.32 495.72,-262.32"/>
<polygon fill="black" stroke="black" points="499.15,-261.66 494.05,-252.37 492.25,-262.81 499.15,-261.66"/>
</g>
<!-- algebra/monoid -->
<g id="node14" class="node">
<title>algebra/monoid</title>
<ellipse fill="none" stroke="black" cx="464.79" cy="-162" rx="66.09" ry="18"/>
<text text-anchor="middle" x="464.79" y="-158.3" font-family="Times,serif" font-size="14.00">algebra/monoid</text>
</g>
<!-- HITs/trunc&#45;&gt;algebra/monoid -->
<g id="edge62" class="edge">
<title>HITs/trunc&#45;&gt;algebra/monoid</title>
<path fill="none" stroke="black" d="M147.71,-431.77C148.42,-412.66 152.02,-381.67 166.79,-360 229.49,-268.06 350.69,-208.23 417.59,-180.66"/>
<polygon fill="black" stroke="black" points="419.09,-183.82 427.05,-176.82 416.47,-177.33 419.09,-183.82"/>
</g>
<!-- HITs/quotient -->
<g id="node47" class="node">
<title>HITs/quotient</title>
<ellipse fill="none" stroke="black" cx="59.79" cy="-378" rx="59.59" ry="18"/>
<text text-anchor="middle" x="59.79" y="-374.3" font-family="Times,serif" font-size="14.00">HITs/quotient</text>
</g>
<!-- HITs/trunc&#45;&gt;HITs/quotient -->
<g id="edge63" class="edge">
<title>HITs/trunc&#45;&gt;HITs/quotient</title>
<path fill="none" stroke="black" d="M128.26,-433.46C116.36,-423.99 100.94,-411.73 87.75,-401.24"/>
<polygon fill="black" stroke="black" points="89.89,-398.46 79.88,-394.98 85.53,-403.94 89.89,-398.46"/>
</g>
<!-- theorems/nat -->
<g id="node37" class="node">
<title>theorems/nat</title>
<ellipse fill="none" stroke="black" cx="715.79" cy="-378" rx="56.59" ry="18"/>
<text text-anchor="middle" x="715.79" y="-374.3" font-family="Times,serif" font-size="14.00">theorems/nat</text>
</g>
<!-- types/nat&#45;&gt;theorems/nat -->
<g id="edge34" class="edge">
<title>types/nat&#45;&gt;theorems/nat</title>
<path fill="none" stroke="black" d="M681.46,-432.41C686.82,-424.08 693.43,-413.8 699.41,-404.49"/>
<polygon fill="black" stroke="black" points="702.43,-406.26 704.89,-395.96 696.54,-402.48 702.43,-406.26"/>
</g>
<!-- theorems/ua&#45;&gt;theorems/nat -->
<g id="edge81" class="edge">
<title>theorems/ua&#45;&gt;theorems/nat</title>
<path fill="none" stroke="black" d="M947.33,-438.37C899.41,-426.08 820.45,-405.84 768.29,-392.46"/>
<polygon fill="black" stroke="black" points="769.11,-389.06 758.55,-389.96 767.37,-395.84 769.11,-389.06"/>
</g>
<!-- theorems/ua&#45;&gt;theorems/prop -->
<g id="edge82" class="edge">
<title>theorems/ua&#45;&gt;theorems/prop</title>
<path fill="none" stroke="black" d="M994.6,-432.05C997.31,-424.18 1000.58,-414.62 1003.61,-405.79"/>
<polygon fill="black" stroke="black" points="1006.94,-406.87 1006.87,-396.28 1000.32,-404.6 1006.94,-406.87"/>
</g>
<!-- cubical/V -->
<g id="node59" class="node">
<title>cubical/V</title>
<ellipse fill="none" stroke="black" cx="1509.79" cy="-234" rx="44.69" ry="18"/>
<text text-anchor="middle" x="1509.79" y="-230.3" font-family="Times,serif" font-size="14.00">cubical/V</text>
</g>
<!-- theorems/ua&#45;&gt;cubical/V -->
<g id="edge83" class="edge">
<title>theorems/ua&#45;&gt;cubical/V</title>
<path fill="none" stroke="black" d="M1039.1,-443.38C1153.95,-429.52 1430.34,-389.95 1492.79,-324 1508.22,-307.71 1511.73,-281.96 1511.82,-262.33"/>
<polygon fill="black" stroke="black" points="1515.32,-262.07 1511.57,-252.16 1508.32,-262.25 1515.32,-262.07"/>
</g>
<!-- algebra/basic -->
<g id="node12" class="node">
<title>algebra/basic</title>
<ellipse fill="none" stroke="black" cx="644.79" cy="-234" rx="57.39" ry="18"/>
<text text-anchor="middle" x="644.79" y="-230.3" font-family="Times,serif" font-size="14.00">algebra/basic</text>
</g>
<!-- algebra/category -->
<g id="node13" class="node">
<title>algebra/category</title>
<ellipse fill="none" stroke="black" cx="911.79" cy="-162" rx="69.59" ry="18"/>
<text text-anchor="middle" x="911.79" y="-158.3" font-family="Times,serif" font-size="14.00">algebra/category</text>
</g>
<!-- algebra/basic&#45;&gt;algebra/category -->
<g id="edge9" class="edge">
<title>algebra/basic&#45;&gt;algebra/category</title>
<path fill="none" stroke="black" d="M687.4,-221.83C732.81,-209.93 804.94,-191.01 855.12,-177.86"/>
<polygon fill="black" stroke="black" points="856.06,-181.23 864.85,-175.31 854.29,-174.46 856.06,-181.23"/>
</g>
<!-- algebra/basic&#45;&gt;algebra/monoid -->
<g id="edge10" class="edge">
<title>algebra/basic&#45;&gt;algebra/monoid</title>
<path fill="none" stroke="black" d="M610.09,-219.5C581.88,-208.53 541.84,-192.96 510.93,-180.94"/>
<polygon fill="black" stroke="black" points="511.84,-177.54 501.25,-177.18 509.3,-184.06 511.84,-177.54"/>
</g>
<!-- algebra/group -->
<g id="node15" class="node">
<title>algebra/group</title>
<ellipse fill="none" stroke="black" cx="320.79" cy="-162" rx="59.59" ry="18"/>
<text text-anchor="middle" x="320.79" y="-158.3" font-family="Times,serif" font-size="14.00">algebra/group</text>
</g>
<!-- algebra/basic&#45;&gt;algebra/group -->
<g id="edge11" class="edge">
<title>algebra/basic&#45;&gt;algebra/group</title>
<path fill="none" stroke="black" d="M602.64,-221.71C594.74,-219.72 586.53,-217.73 578.79,-216 495.35,-197.33 473.34,-198.23 389.79,-180 384.87,-178.93 379.77,-177.76 374.66,-176.56"/>
<polygon fill="black" stroke="black" points="375.42,-173.15 364.88,-174.23 373.8,-179.96 375.42,-173.15"/>
</g>
<!-- algebra/eilenberg_maclane -->
<g id="node17" class="node">
<title>algebra/eilenberg_maclane</title>
<ellipse fill="none" stroke="black" cx="980.79" cy="-90" rx="105.88" ry="18"/>
<text text-anchor="middle" x="980.79" y="-86.3" font-family="Times,serif" font-size="14.00">algebra/eilenberg_maclane</text>
</g>
<!-- algebra/group&#45;&gt;algebra/eilenberg_maclane -->
<g id="edge12" class="edge">
<title>algebra/group&#45;&gt;algebra/eilenberg_maclane</title>
<path fill="none" stroke="black" d="M363.65,-149.37C372.26,-147.34 381.28,-145.42 389.79,-144 480.28,-128.89 730.91,-109.15 875.06,-98.54"/>
<polygon fill="black" stroke="black" points="875.54,-102.01 885.25,-97.79 875.02,-95.03 875.54,-102.01"/>
</g>
<!-- algebra/finite -->
<g id="node18" class="node">
<title>algebra/finite</title>
<ellipse fill="none" stroke="black" cx="493.79" cy="-90" rx="57.69" ry="18"/>
<text text-anchor="middle" x="493.79" y="-86.3" font-family="Times,serif" font-size="14.00">algebra/finite</text>
</g>
<!-- algebra/group&#45;&gt;algebra/finite -->
<g id="edge13" class="edge">
<title>algebra/group&#45;&gt;algebra/finite</title>
<path fill="none" stroke="black" d="M354.97,-147.17C382.31,-136.11 420.82,-120.53 450.34,-108.58"/>
<polygon fill="black" stroke="black" points="452.02,-111.68 459.98,-104.68 449.4,-105.19 452.02,-111.68"/>
</g>
<!-- algebra/ring -->
<g id="node19" class="node">
<title>algebra/ring</title>
<ellipse fill="none" stroke="black" cx="151.79" cy="-90" rx="53.09" ry="18"/>
<text text-anchor="middle" x="151.79" y="-86.3" font-family="Times,serif" font-size="14.00">algebra/ring</text>
</g>
<!-- algebra/group&#45;&gt;algebra/ring -->
<g id="edge14" class="edge">
<title>algebra/group&#45;&gt;algebra/ring</title>
<path fill="none" stroke="black" d="M287,-147C260.09,-135.85 222.28,-120.2 193.49,-108.27"/>
<polygon fill="black" stroke="black" points="194.67,-104.97 184.1,-104.38 192,-111.44 194.67,-104.97"/>
</g>
<!-- algebra/transformational -->
<g id="node20" class="node">
<title>algebra/transformational</title>
<ellipse fill="none" stroke="black" cx="320.79" cy="-90" rx="97.48" ry="18"/>
<text text-anchor="middle" x="320.79" y="-86.3" font-family="Times,serif" font-size="14.00">algebra/transformational</text>
</g>
<!-- algebra/group&#45;&gt;algebra/transformational -->
<g id="edge15" class="edge">
<title>algebra/group&#45;&gt;algebra/transformational</title>
<path fill="none" stroke="black" d="M320.79,-143.7C320.79,-135.98 320.79,-126.71 320.79,-118.11"/>
<polygon fill="black" stroke="black" points="324.29,-118.1 320.79,-108.1 317.29,-118.1 324.29,-118.1"/>
</g>
<!-- algebra/Z -->
<g id="node21" class="node">
<title>algebra/Z</title>
<ellipse fill="none" stroke="black" cx="642.79" cy="-90" rx="44.39" ry="18"/>
<text text-anchor="middle" x="642.79" y="-86.3" font-family="Times,serif" font-size="14.00">algebra/Z</text>
</g>
<!-- algebra/group&#45;&gt;algebra/Z -->
<g id="edge16" class="edge">
<title>algebra/group&#45;&gt;algebra/Z</title>
<path fill="none" stroke="black" d="M365.28,-149.8C373.42,-147.82 381.86,-145.81 389.79,-144 409.49,-139.51 526.58,-115.13 594.36,-101.05"/>
<polygon fill="black" stroke="black" points="595.31,-104.43 604.39,-98.97 593.88,-97.58 595.31,-104.43"/>
</g>
<!-- algebra/boolean -->
<g id="node16" class="node">
<title>algebra/boolean</title>
<ellipse fill="none" stroke="black" cx="227.79" cy="-18" rx="66.89" ry="18"/>
<text text-anchor="middle" x="227.79" y="-14.3" font-family="Times,serif" font-size="14.00">algebra/boolean</text>
</g>
<!-- algebra/ring&#45;&gt;algebra/boolean -->
<g id="edge17" class="edge">
<title>algebra/ring&#45;&gt;algebra/boolean</title>
<path fill="none" stroke="black" d="M169.42,-72.76C179.23,-63.73 191.61,-52.33 202.44,-42.35"/>
<polygon fill="black" stroke="black" points="205.02,-44.74 210,-35.39 200.27,-39.59 205.02,-44.74"/>
</g>
<!-- algebra/orgraph -->
<g id="node23" class="node">
<title>algebra/orgraph</title>
<ellipse fill="none" stroke="black" cx="76.79" cy="-18" rx="66.09" ry="18"/>
<text text-anchor="middle" x="76.79" y="-14.3" font-family="Times,serif" font-size="14.00">algebra/orgraph</text>
</g>
<!-- algebra/ring&#45;&gt;algebra/orgraph -->
<g id="edge18" class="edge">
<title>algebra/ring&#45;&gt;algebra/orgraph</title>
<path fill="none" stroke="black" d="M134.4,-72.76C124.72,-63.73 112.5,-52.33 101.81,-42.35"/>
<polygon fill="black" stroke="black" points="104.05,-39.65 94.36,-35.39 99.28,-44.77 104.05,-39.65"/>
</g>
<!-- algebra/homology -->
<g id="node22" class="node">
<title>algebra/homology</title>
<ellipse fill="none" stroke="black" cx="642.79" cy="-18" rx="75.29" ry="18"/>
<text text-anchor="middle" x="642.79" y="-14.3" font-family="Times,serif" font-size="14.00">algebra/homology</text>
</g>
<!-- algebra/Z&#45;&gt;algebra/homology -->
<g id="edge19" class="edge">
<title>algebra/Z&#45;&gt;algebra/homology</title>
<path fill="none" stroke="black" d="M642.79,-71.7C642.79,-63.98 642.79,-54.71 642.79,-46.11"/>
<polygon fill="black" stroke="black" points="646.29,-46.1 642.79,-36.1 639.29,-46.1 646.29,-46.1"/>
</g>
<!-- types/category -->
<g id="node24" class="node">
<title>types/category</title>
<ellipse fill="none" stroke="black" cx="1240.79" cy="-234" rx="61.99" ry="18"/>
<text text-anchor="middle" x="1240.79" y="-230.3" font-family="Times,serif" font-size="14.00">types/category</text>
</g>
<!-- types/coproduct&#45;&gt;structures -->
<g id="edge20" class="edge">
<title>types/coproduct&#45;&gt;structures</title>
<path fill="none" stroke="black" d="M647.15,-648.15C668.46,-623.15 708.57,-576.07 733.07,-547.32"/>
<polygon fill="black" stroke="black" points="736.01,-549.27 739.83,-539.39 730.68,-544.73 736.01,-549.27"/>
</g>
<!-- types/ens -->
<g id="node26" class="node">
<title>types/ens</title>
<ellipse fill="none" stroke="black" cx="899.79" cy="-306" rx="43.59" ry="18"/>
<text text-anchor="middle" x="899.79" y="-302.3" font-family="Times,serif" font-size="14.00">types/ens</text>
</g>
<!-- types/ens&#45;&gt;algebra/basic -->
<g id="edge22" class="edge">
<title>types/ens&#45;&gt;algebra/basic</title>
<path fill="none" stroke="black" d="M864.61,-295.34C820.93,-283.35 746.1,-262.81 696.05,-249.07"/>
<polygon fill="black" stroke="black" points="696.95,-245.69 686.38,-246.42 695.1,-252.44 696.95,-245.69"/>
</g>
<!-- types/setquot -->
<g id="node27" class="node">
<title>types/setquot</title>
<ellipse fill="none" stroke="black" cx="899.79" cy="-234" rx="57.39" ry="18"/>
<text text-anchor="middle" x="899.79" y="-230.3" font-family="Times,serif" font-size="14.00">types/setquot</text>
</g>
<!-- types/ens&#45;&gt;types/setquot -->
<g id="edge23" class="edge">
<title>types/ens&#45;&gt;types/setquot</title>
<path fill="none" stroke="black" d="M899.79,-287.7C899.79,-279.98 899.79,-270.71 899.79,-262.11"/>
<polygon fill="black" stroke="black" points="903.29,-262.1 899.79,-252.1 896.29,-262.1 903.29,-262.1"/>
</g>
<!-- HITs/graph -->
<g id="node33" class="node">
<title>HITs/graph</title>
<ellipse fill="none" stroke="black" cx="383.79" cy="-594" rx="51.19" ry="18"/>
<text text-anchor="middle" x="383.79" y="-590.3" font-family="Times,serif" font-size="14.00">HITs/graph</text>
</g>
<!-- types/heq&#45;&gt;HITs/graph -->
<g id="edge30" class="edge">
<title>types/heq&#45;&gt;HITs/graph</title>
<path fill="none" stroke="black" d="M418.66,-720.23C413.41,-710 407.02,-696.53 402.79,-684 395.94,-663.7 391.02,-639.93 387.9,-622.06"/>
<polygon fill="black" stroke="black" points="391.33,-621.33 386.23,-612.04 384.42,-622.48 391.33,-621.33"/>
</g>
<!-- theorems/funext -->
<g id="node34" class="node">
<title>theorems/funext</title>
<ellipse fill="none" stroke="black" cx="479.79" cy="-666" rx="68.49" ry="18"/>
<text text-anchor="middle" x="479.79" y="-662.3" font-family="Times,serif" font-size="14.00">theorems/funext</text>
</g>
<!-- types/heq&#45;&gt;theorems/funext -->
<g id="edge31" class="edge">
<title>types/heq&#45;&gt;theorems/funext</title>
<path fill="none" stroke="black" d="M440.12,-720.41C446.37,-711.99 454.1,-701.58 461.07,-692.2"/>
<polygon fill="black" stroke="black" points="464.04,-694.07 467.2,-683.96 458.43,-689.9 464.04,-694.07"/>
</g>
<!-- types/unit&#45;&gt;structures -->
<g id="edge38" class="edge">
<title>types/unit&#45;&gt;structures</title>
<path fill="none" stroke="black" d="M810.23,-577.12C800.62,-567.9 788.34,-556.13 777.7,-545.92"/>
<polygon fill="black" stroke="black" points="779.93,-543.22 770.29,-538.82 775.09,-548.27 779.93,-543.22"/>
</g>
<!-- HITs/suspension -->
<g id="node40" class="node">
<title>HITs/suspension</title>
<ellipse fill="none" stroke="black" cx="800.79" cy="-450" rx="69.59" ry="18"/>
<text text-anchor="middle" x="800.79" y="-446.3" font-family="Times,serif" font-size="14.00">HITs/suspension</text>
</g>
<!-- types/unit&#45;&gt;HITs/suspension -->
<g id="edge39" class="edge">
<title>types/unit&#45;&gt;HITs/suspension</title>
<path fill="none" stroke="black" d="M823.66,-575.87C819.23,-551.67 811.09,-507.21 805.81,-478.39"/>
<polygon fill="black" stroke="black" points="809.19,-477.4 803.94,-468.19 802.3,-478.66 809.19,-477.4"/>
</g>
<!-- types/sigma&#45;&gt;structures -->
<g id="edge37" class="edge">
<title>types/sigma&#45;&gt;structures</title>
<path fill="none" stroke="black" d="M768.74,-647.87C765.85,-623.67 760.52,-579.21 757.07,-550.39"/>
<polygon fill="black" stroke="black" points="760.52,-549.7 755.85,-540.19 753.57,-550.53 760.52,-549.7"/>
</g>
<!-- HITs/colimit -->
<g id="node44" class="node">
<title>HITs/colimit</title>
<ellipse fill="none" stroke="black" cx="497.79" cy="-522" rx="56.59" ry="18"/>
<text text-anchor="middle" x="497.79" y="-518.3" font-family="Times,serif" font-size="14.00">HITs/colimit</text>
</g>
<!-- HITs/graph&#45;&gt;HITs/colimit -->
<g id="edge47" class="edge">
<title>HITs/graph&#45;&gt;HITs/colimit</title>
<path fill="none" stroke="black" d="M408.25,-577.98C424.52,-567.99 446.11,-554.74 464.01,-543.75"/>
<polygon fill="black" stroke="black" points="466.3,-546.45 472.99,-538.23 462.63,-540.48 466.3,-546.45"/>
</g>
<!-- HITs/generalized -->
<g id="node45" class="node">
<title>HITs/generalized</title>
<ellipse fill="none" stroke="black" cx="351.79" cy="-522" rx="71.49" ry="18"/>
<text text-anchor="middle" x="351.79" y="-518.3" font-family="Times,serif" font-size="14.00">HITs/generalized</text>
</g>
<!-- HITs/graph&#45;&gt;HITs/generalized -->
<g id="edge48" class="edge">
<title>HITs/graph&#45;&gt;HITs/generalized</title>
<path fill="none" stroke="black" d="M376.05,-576.05C372.41,-568.09 367.98,-558.41 363.91,-549.51"/>
<polygon fill="black" stroke="black" points="367.03,-547.91 359.69,-540.28 360.67,-550.83 367.03,-547.91"/>
</g>
<!-- HITs/pushout -->
<g id="node46" class="node">
<title>HITs/pushout</title>
<ellipse fill="none" stroke="black" cx="631.79" cy="-522" rx="59.29" ry="18"/>
<text text-anchor="middle" x="631.79" y="-518.3" font-family="Times,serif" font-size="14.00">HITs/pushout</text>
</g>
<!-- HITs/graph&#45;&gt;HITs/pushout -->
<g id="edge49" class="edge">
<title>HITs/graph&#45;&gt;HITs/pushout</title>
<path fill="none" stroke="black" d="M422.54,-582.06C465.02,-570.07 533.37,-550.78 580.33,-537.53"/>
<polygon fill="black" stroke="black" points="581.33,-540.88 590.01,-534.8 579.43,-534.14 581.33,-540.88"/>
</g>
<!-- HITs/graph&#45;&gt;HITs/quotient -->
<g id="edge50" class="edge">
<title>HITs/graph&#45;&gt;HITs/quotient</title>
<path fill="none" stroke="black" d="M338.31,-585.65C274.11,-572.94 157.25,-540.85 89.79,-468 74.09,-451.04 66.58,-425.58 63,-406.22"/>
<polygon fill="black" stroke="black" points="66.43,-405.51 61.39,-396.19 59.52,-406.62 66.43,-405.51"/>
</g>
<!-- types/product -->
<g id="node39" class="node">
<title>types/product</title>
<ellipse fill="none" stroke="black" cx="528.79" cy="-594" rx="58.49" ry="18"/>
<text text-anchor="middle" x="528.79" y="-590.3" font-family="Times,serif" font-size="14.00">types/product</text>
</g>
<!-- theorems/funext&#45;&gt;types/product -->
<g id="edge73" class="edge">
<title>theorems/funext&#45;&gt;types/product</title>
<path fill="none" stroke="black" d="M491.66,-648.05C497.49,-639.71 504.65,-629.49 511.12,-620.25"/>
<polygon fill="black" stroke="black" points="514.18,-621.99 517.04,-611.79 508.44,-617.97 514.18,-621.99"/>
</g>
<!-- types/integer -->
<g id="node35" class="node">
<title>types/integer</title>
<ellipse fill="none" stroke="black" cx="607.79" cy="-306" rx="55.79" ry="18"/>
<text text-anchor="middle" x="607.79" y="-302.3" font-family="Times,serif" font-size="14.00">types/integer</text>
</g>
<!-- types/integer&#45;&gt;algebra/group -->
<g id="edge32" class="edge">
<title>types/integer&#45;&gt;algebra/group</title>
<path fill="none" stroke="black" d="M554.92,-299.71C511.52,-293.48 449.78,-280.14 402.79,-252 375.83,-235.85 352.37,-208.17 337.53,-187.96"/>
<polygon fill="black" stroke="black" points="340.38,-185.92 331.72,-179.81 334.68,-189.99 340.38,-185.92"/>
</g>
<!-- HITs/circle -->
<g id="node36" class="node">
<title>HITs/circle</title>
<ellipse fill="none" stroke="black" cx="770.79" cy="-234" rx="50.89" ry="18"/>
<text text-anchor="middle" x="770.79" y="-230.3" font-family="Times,serif" font-size="14.00">HITs/circle</text>
</g>
<!-- types/integer&#45;&gt;HITs/circle -->
<g id="edge33" class="edge">
<title>types/integer&#45;&gt;HITs/circle</title>
<path fill="none" stroke="black" d="M640,-291.17C665.89,-280.05 702.42,-264.36 730.3,-252.39"/>
<polygon fill="black" stroke="black" points="731.96,-255.49 739.76,-248.33 729.19,-249.06 731.96,-255.49"/>
</g>
<!-- HITs/circle&#45;&gt;algebra/Z -->
<g id="edge40" class="edge">
<title>HITs/circle&#45;&gt;algebra/Z</title>
<path fill="none" stroke="black" d="M743.14,-218.84C726.75,-209.46 706.41,-195.95 691.79,-180 674.85,-161.5 661.61,-136.09 653.19,-117.16"/>
<polygon fill="black" stroke="black" points="656.39,-115.73 649.23,-107.92 649.95,-118.49 656.39,-115.73"/>
</g>
<!-- theorems/hopf -->
<g id="node41" class="node">
<title>theorems/hopf</title>
<ellipse fill="none" stroke="black" cx="1060.79" cy="-162" rx="61.99" ry="18"/>
<text text-anchor="middle" x="1060.79" y="-158.3" font-family="Times,serif" font-size="14.00">theorems/hopf</text>
</g>
<!-- HITs/circle&#45;&gt;theorems/hopf -->
<g id="edge41" class="edge">
<title>HITs/circle&#45;&gt;theorems/hopf</title>
<path fill="none" stroke="black" d="M809.72,-222.25C817.67,-220.12 825.99,-217.95 833.79,-216 903.25,-198.67 921.12,-196.45 990.79,-180 995.42,-178.91 1000.21,-177.77 1005.03,-176.61"/>
<polygon fill="black" stroke="black" points="1005.97,-179.98 1014.88,-174.24 1004.34,-173.18 1005.97,-179.98"/>
</g>
<!-- HITs/moebius -->
<g id="node42" class="node">
<title>HITs/moebius</title>
<ellipse fill="none" stroke="black" cx="762.79" cy="-162" rx="61.99" ry="18"/>
<text text-anchor="middle" x="762.79" y="-158.3" font-family="Times,serif" font-size="14.00">HITs/moebius</text>
</g>
<!-- HITs/circle&#45;&gt;HITs/moebius -->
<g id="edge42" class="edge">
<title>HITs/circle&#45;&gt;HITs/moebius</title>
<path fill="none" stroke="black" d="M768.82,-215.7C767.94,-207.98 766.88,-198.71 765.89,-190.11"/>
<polygon fill="black" stroke="black" points="769.36,-189.64 764.75,-180.1 762.41,-190.44 769.36,-189.64"/>
</g>
<!-- HITs/reals -->
<g id="node43" class="node">
<title>HITs/reals</title>
<ellipse fill="none" stroke="black" cx="596.79" cy="-162" rx="48.19" ry="18"/>
<text text-anchor="middle" x="596.79" y="-158.3" font-family="Times,serif" font-size="14.00">HITs/reals</text>
</g>
<!-- HITs/circle&#45;&gt;HITs/reals -->
<g id="edge43" class="edge">
<title>HITs/circle&#45;&gt;HITs/reals</title>
<path fill="none" stroke="black" d="M738.47,-220C710.1,-208.58 668.66,-191.91 637.93,-179.55"/>
<polygon fill="black" stroke="black" points="638.94,-176.18 628.36,-175.7 636.33,-182.68 638.94,-176.18"/>
</g>
<!-- theorems/nat&#45;&gt;types/integer -->
<g id="edge74" class="edge">
<title>theorems/nat&#45;&gt;types/integer</title>
<path fill="none" stroke="black" d="M692.09,-361.64C676.76,-351.7 656.61,-338.64 639.85,-327.78"/>
<polygon fill="black" stroke="black" points="641.74,-324.83 631.44,-322.33 637.93,-330.7 641.74,-324.83"/>
</g>
<!-- HITs/int -->
<g id="node61" class="node">
<title>HITs/int</title>
<ellipse fill="none" stroke="black" cx="721.79" cy="-306" rx="40.09" ry="18"/>
<text text-anchor="middle" x="721.79" y="-302.3" font-family="Times,serif" font-size="14.00">HITs/int</text>
</g>
<!-- theorems/nat&#45;&gt;HITs/int -->
<g id="edge75" class="edge">
<title>theorems/nat&#45;&gt;HITs/int</title>
<path fill="none" stroke="black" d="M717.28,-359.7C717.94,-351.98 718.73,-342.71 719.47,-334.11"/>
<polygon fill="black" stroke="black" points="722.96,-334.37 720.33,-324.1 715.99,-333.77 722.96,-334.37"/>
</g>
<!-- types/precategory -->
<g id="node38" class="node">
<title>types/precategory</title>
<ellipse fill="none" stroke="black" cx="1240.79" cy="-306" rx="73.39" ry="18"/>
<text text-anchor="middle" x="1240.79" y="-302.3" font-family="Times,serif" font-size="14.00">types/precategory</text>
</g>
<!-- types/precategory&#45;&gt;types/category -->
<g id="edge35" class="edge">
<title>types/precategory&#45;&gt;types/category</title>
<path fill="none" stroke="black" d="M1240.79,-287.7C1240.79,-279.98 1240.79,-270.71 1240.79,-262.11"/>
<polygon fill="black" stroke="black" points="1244.29,-262.1 1240.79,-252.1 1237.29,-262.1 1244.29,-262.1"/>
</g>
<!-- types/product&#45;&gt;structures -->
<g id="edge36" class="edge">
<title>types/product&#45;&gt;structures</title>
<path fill="none" stroke="black" d="M568.55,-580.73C603.21,-570.02 654.85,-554.04 699.79,-540 703.08,-538.97 706.49,-537.91 709.91,-536.83"/>
<polygon fill="black" stroke="black" points="711.03,-540.15 719.52,-533.81 708.93,-533.47 711.03,-540.15"/>
</g>
<!-- HITs/suspension&#45;&gt;HITs/circle -->
<g id="edge60" class="edge">
<title>HITs/suspension&#45;&gt;HITs/circle</title>
<path fill="none" stroke="black" d="M798.39,-431.85C793.2,-394.83 780.91,-307.18 774.63,-262.39"/>
<polygon fill="black" stroke="black" points="778.06,-261.65 773.21,-252.23 771.13,-262.62 778.06,-261.65"/>
</g>
<!-- HITs/join -->
<g id="node51" class="node">
<title>HITs/join</title>
<ellipse fill="none" stroke="black" cx="596.79" cy="-378" rx="44.69" ry="18"/>
<text text-anchor="middle" x="596.79" y="-374.3" font-family="Times,serif" font-size="14.00">HITs/join</text>
</g>
<!-- HITs/suspension&#45;&gt;HITs/join -->
<g id="edge61" class="edge">
<title>HITs/suspension&#45;&gt;HITs/join</title>
<path fill="none" stroke="black" d="M760.49,-435.17C725.57,-423.19 675.2,-405.9 639.57,-393.68"/>
<polygon fill="black" stroke="black" points="640.54,-390.31 629.94,-390.37 638.26,-396.93 640.54,-390.31"/>
</g>
<!-- HITs/colimit&#45;&gt;HITs/merely -->
<g id="edge44" class="edge">
<title>HITs/colimit&#45;&gt;HITs/merely</title>
<path fill="none" stroke="black" d="M497.79,-503.7C497.79,-495.98 497.79,-486.71 497.79,-478.11"/>
<polygon fill="black" stroke="black" points="501.29,-478.1 497.79,-468.1 494.29,-478.1 501.29,-478.1"/>
</g>
<!-- HITs/colimit&#45;&gt;types/nat -->
<g id="edge45" class="edge">
<title>HITs/colimit&#45;&gt;types/nat</title>
<path fill="none" stroke="black" d="M531.56,-507.34C560.31,-495.7 601.62,-478.99 631.78,-466.79"/>
<polygon fill="black" stroke="black" points="633.19,-469.99 641.15,-462.99 630.57,-463.5 633.19,-469.99"/>
</g>
<!-- HITs/generalized&#45;&gt;HITs/merely -->
<g id="edge46" class="edge">
<title>HITs/generalized&#45;&gt;HITs/merely</title>
<path fill="none" stroke="black" d="M383.47,-505.81C405.54,-495.23 435.11,-481.05 458.65,-469.77"/>
<polygon fill="black" stroke="black" points="460.17,-472.92 467.67,-465.44 457.14,-466.61 460.17,-472.92"/>
</g>
<!-- HITs/pushout&#45;&gt;HITs/suspension -->
<g id="edge58" class="edge">
<title>HITs/pushout&#45;&gt;HITs/suspension</title>
<path fill="none" stroke="black" d="M665.59,-507C691.64,-496.21 727.89,-481.2 756.3,-469.43"/>
<polygon fill="black" stroke="black" points="757.71,-472.64 765.61,-465.58 755.03,-466.17 757.71,-472.64"/>
</g>
<!-- HITs/quotient&#45;&gt;algebra/group -->
<g id="edge59" class="edge">
<title>HITs/quotient&#45;&gt;algebra/group</title>
<path fill="none" stroke="black" d="M62.79,-359.82C69.44,-326.89 88.58,-254.71 133.79,-216 166.85,-187.7 214.07,-174.46 252.78,-168.29"/>
<polygon fill="black" stroke="black" points="253.55,-171.71 262.94,-166.8 252.54,-164.79 253.55,-171.71"/>
</g>
<!-- cubical/path -->
<g id="node56" class="node">
<title>cubical/path</title>
<ellipse fill="none" stroke="black" cx="1645.79" cy="-306" rx="53.89" ry="18"/>
<text text-anchor="middle" x="1645.79" y="-302.3" font-family="Times,serif" font-size="14.00">cubical/path</text>
</g>
<!-- cubical/cubes&#45;&gt;cubical/path -->
<g id="edge64" class="edge">
<title>cubical/cubes&#45;&gt;cubical/path</title>
<path fill="none" stroke="black" d="M1644.29,-359.7C1644.51,-351.98 1644.77,-342.71 1645.02,-334.11"/>
<polygon fill="black" stroke="black" points="1648.52,-334.2 1645.31,-324.1 1641.52,-334 1648.52,-334.2"/>
</g>
<!-- theorems/prop&#45;&gt;algebra/eilenberg_maclane -->
<g id="edge76" class="edge">
<title>theorems/prop&#45;&gt;algebra/eilenberg_maclane</title>
<path fill="none" stroke="black" d="M1058.84,-365.98C1081.31,-358.12 1106.5,-345.1 1120.79,-324 1165.75,-257.64 1178.14,-209.39 1131.79,-144 1118.02,-124.56 1096.53,-112.2 1074.04,-104.35"/>
<polygon fill="black" stroke="black" points="1074.95,-100.97 1064.36,-101.26 1072.82,-107.64 1074.95,-100.97"/>
</g>
<!-- theorems/prop&#45;&gt;types/ens -->
<g id="edge77" class="edge">
<title>theorems/prop&#45;&gt;types/ens</title>
<path fill="none" stroke="black" d="M987.72,-361.46C971.22,-351.24 949.47,-337.77 931.74,-326.79"/>
<polygon fill="black" stroke="black" points="933.22,-323.59 922.88,-321.3 929.54,-329.54 933.22,-323.59"/>
</g>
<!-- theorems/prop&#45;&gt;HITs/circle -->
<g id="edge78" class="edge">
<title>theorems/prop&#45;&gt;HITs/circle</title>
<path fill="none" stroke="black" d="M960.91,-368.16C926.43,-360.51 881.31,-346.94 846.79,-324 821.85,-307.42 800.43,-280.42 786.75,-260.5"/>
<polygon fill="black" stroke="black" points="789.48,-258.29 781.02,-251.91 783.66,-262.17 789.48,-258.29"/>
</g>
<!-- theorems/prop&#45;&gt;types/precategory -->
<g id="edge79" class="edge">
<title>theorems/prop&#45;&gt;types/precategory</title>
<path fill="none" stroke="black" d="M1053.82,-364.4C1091.13,-352.95 1146.43,-335.97 1187.22,-323.45"/>
<polygon fill="black" stroke="black" points="1188.46,-326.73 1196.99,-320.45 1186.4,-320.04 1188.46,-326.73"/>
</g>
<!-- theorems/classical -->
<g id="node60" class="node">
<title>theorems/classical</title>
<ellipse fill="none" stroke="black" cx="1036.79" cy="-306" rx="75.29" ry="18"/>
<text text-anchor="middle" x="1036.79" y="-302.3" font-family="Times,serif" font-size="14.00">theorems/classical</text>
</g>
<!-- theorems/prop&#45;&gt;theorems/classical -->
<g id="edge80" class="edge">
<title>theorems/prop&#45;&gt;theorems/classical</title>
<path fill="none" stroke="black" d="M1018.6,-360.05C1021.31,-352.18 1024.58,-342.62 1027.61,-333.79"/>
<polygon fill="black" stroke="black" points="1030.94,-334.87 1030.87,-324.28 1024.32,-332.6 1030.94,-334.87"/>
</g>
<!-- theorems/fibration&#45;&gt;theorems/hopf -->
<g id="edge70" class="edge">
<title>theorems/fibration&#45;&gt;theorems/hopf</title>
<path fill="none" stroke="black" d="M1394.49,-287.99C1377.55,-267.58 1346.31,-233.87 1311.79,-216 1255.07,-186.62 1183.11,-173.53 1130.8,-167.69"/>
<polygon fill="black" stroke="black" points="1130.92,-164.18 1120.61,-166.62 1130.19,-171.15 1130.92,-164.18"/>
</g>
<!-- theorems/functions&#45;&gt;algebra/group -->
<g id="edge71" class="edge">
<title>theorems/functions&#45;&gt;algebra/group</title>
<path fill="none" stroke="black" d="M454.33,-217.98C427.88,-207.09 392.01,-192.33 364.11,-180.84"/>
<polygon fill="black" stroke="black" points="365.18,-177.49 354.6,-176.92 362.52,-183.96 365.18,-177.49"/>
</g>
<!-- theorems/functions&#45;&gt;HITs/reals -->
<g id="edge72" class="edge">
<title>theorems/functions&#45;&gt;HITs/reals</title>
<path fill="none" stroke="black" d="M515.38,-216.76C530.34,-206.88 549.6,-194.17 565.63,-183.58"/>
<polygon fill="black" stroke="black" points="567.74,-186.38 574.15,-177.95 563.88,-180.54 567.74,-186.38"/>
</g>
<!-- cubical/connection -->
<g id="node55" class="node">
<title>cubical/connection</title>
<ellipse fill="none" stroke="black" cx="1649.79" cy="-234" rx="77.19" ry="18"/>
<text text-anchor="middle" x="1649.79" y="-230.3" font-family="Times,serif" font-size="14.00">cubical/connection</text>
</g>
<!-- cubical/path&#45;&gt;cubical/connection -->
<g id="edge65" class="edge">
<title>cubical/path&#45;&gt;cubical/connection</title>
<path fill="none" stroke="black" d="M1646.78,-287.7C1647.22,-279.98 1647.75,-270.71 1648.25,-262.11"/>
<polygon fill="black" stroke="black" points="1651.74,-262.29 1648.82,-252.1 1644.75,-261.89 1651.74,-262.29"/>
</g>
<!-- cubical/square -->
<g id="node58" class="node">
<title>cubical/square</title>
<ellipse fill="none" stroke="black" cx="1806.79" cy="-234" rx="61.99" ry="18"/>
<text text-anchor="middle" x="1806.79" y="-230.3" font-family="Times,serif" font-size="14.00">cubical/square</text>
</g>
<!-- cubical/path&#45;&gt;cubical/square -->
<g id="edge66" class="edge">
<title>cubical/path&#45;&gt;cubical/square</title>
<path fill="none" stroke="black" d="M1677.22,-291.34C1702.1,-280.52 1737.11,-265.3 1764.46,-253.41"/>
<polygon fill="black" stroke="black" points="1766.01,-256.55 1773.79,-249.35 1763.22,-250.13 1766.01,-256.55"/>
</g>
<!-- cubical/path&#45;&gt;cubical/V -->
<g id="edge67" class="edge">
<title>cubical/path&#45;&gt;cubical/V</title>
<path fill="none" stroke="black" d="M1617.62,-290.5C1596.69,-279.73 1568,-264.96 1545.47,-253.36"/>
<polygon fill="black" stroke="black" points="1547.04,-250.24 1536.55,-248.77 1543.84,-256.46 1547.04,-250.24"/>
</g>
<!-- cubical/example -->
<g id="node57" class="node">
<title>cubical/example</title>
<ellipse fill="none" stroke="black" cx="1509.79" cy="-162" rx="68.79" ry="18"/>
<text text-anchor="middle" x="1509.79" y="-158.3" font-family="Times,serif" font-size="14.00">cubical/example</text>
</g>
<!-- cubical/V&#45;&gt;cubical/example -->
<g id="edge68" class="edge">
<title>cubical/V&#45;&gt;cubical/example</title>
<path fill="none" stroke="black" d="M1509.79,-215.7C1509.79,-207.98 1509.79,-198.71 1509.79,-190.11"/>
<polygon fill="black" stroke="black" points="1513.29,-190.1 1509.79,-180.1 1506.29,-190.1 1513.29,-190.1"/>
</g>
<!-- theorems/classical&#45;&gt;algebra/category -->
<g id="edge69" class="edge">
<title>theorems/classical&#45;&gt;algebra/category</title>
<path fill="none" stroke="black" d="M1024.29,-288.1C1010.54,-269.82 987.51,-240.07 965.79,-216 956.86,-206.09 946.51,-195.71 937.28,-186.78"/>
<polygon fill="black" stroke="black" points="939.49,-184.05 929.85,-179.66 934.65,-189.11 939.49,-184.05"/>
</g>
</g>
</svg>
