<?xml version="1.0" encoding="UTF-8" standalone="no"?>
<!DOCTYPE svg PUBLIC "-//W3C//DTD SVG 1.1//EN"
 "http://www.w3.org/Graphics/SVG/1.1/DTD/svg11.dtd">
<!-- Generated by graphviz version 2.43.0 (0)
 -->
<!-- Title: dependency_map Pages: 1 -->
<svg width="1790pt" height="1052pt"
 viewBox="0.00 0.00 1789.84 1052.00" xmlns="http://www.w3.org/2000/svg" xmlns:xlink="http://www.w3.org/1999/xlink">
<g id="graph0" class="graph" transform="scale(1 1) rotate(0) translate(4 1048)">
<title>dependency_map</title>
<polygon fill="white" stroke="transparent" points="-4,4 -4,-1048 1785.84,-1048 1785.84,4 -4,4"/>
<!-- proto -->
<g id="node1" class="node">
<title>proto</title>
<ellipse fill="none" stroke="black" cx="1266.84" cy="-1026" rx="36" ry="18"/>
<text text-anchor="middle" x="1266.84" y="-1022.3" font-family="Times,serif" font-size="14.00">proto</text>
</g>
<!-- types/eq -->
<g id="node2" class="node">
<title>types/eq</title>
<ellipse fill="none" stroke="black" cx="1338.84" cy="-954" rx="50.09" ry="18"/>
<text text-anchor="middle" x="1338.84" y="-950.3" font-family="Times,serif" font-size="14.00">types/eq</text>
</g>
<!-- proto&#45;&gt;types/eq -->
<g id="edge1" class="edge">
<title>proto&#45;&gt;types/eq</title>
<path fill="none" stroke="black" d="M1282.82,-1009.46C1292.22,-1000.32 1304.29,-988.59 1314.82,-978.35"/>
<polygon fill="black" stroke="black" points="1317.43,-980.7 1322.16,-971.22 1312.55,-975.68 1317.43,-980.7"/>
</g>
<!-- support -->
<g id="node4" class="node">
<title>support</title>
<ellipse fill="none" stroke="black" cx="1338.84" cy="-882" rx="46.59" ry="18"/>
<text text-anchor="middle" x="1338.84" y="-878.3" font-family="Times,serif" font-size="14.00">support</text>
</g>
<!-- types/eq&#45;&gt;support -->
<g id="edge17" class="edge">
<title>types/eq&#45;&gt;support</title>
<path fill="none" stroke="black" d="M1338.84,-935.7C1338.84,-927.98 1338.84,-918.71 1338.84,-910.11"/>
<polygon fill="black" stroke="black" points="1342.34,-910.1 1338.84,-900.1 1335.34,-910.1 1342.34,-910.1"/>
</g>
<!-- meta/hott_theory -->
<g id="node3" class="node">
<title>meta/hott_theory</title>
<ellipse fill="none" stroke="black" cx="1411.84" cy="-1026" rx="90.98" ry="18"/>
<text text-anchor="middle" x="1411.84" y="-1022.3" font-family="Times,serif" font-size="14.00">meta/hott_theory</text>
</g>
<!-- meta/hott_theory&#45;&gt;types/eq -->
<g id="edge2" class="edge">
<title>meta/hott_theory&#45;&gt;types/eq</title>
<path fill="none" stroke="black" d="M1394.17,-1008.05C1384.89,-999.16 1373.37,-988.11 1363.25,-978.41"/>
<polygon fill="black" stroke="black" points="1365.49,-975.7 1355.85,-971.31 1360.64,-980.75 1365.49,-975.7"/>
</g>
<!-- types/equiv -->
<g id="node5" class="node">
<title>types/equiv</title>
<ellipse fill="none" stroke="black" cx="1338.84" cy="-810" rx="64.19" ry="18"/>
<text text-anchor="middle" x="1338.84" y="-806.3" font-family="Times,serif" font-size="14.00">types/equiv</text>
</g>
<!-- support&#45;&gt;types/equiv -->
<g id="edge3" class="edge">
<title>support&#45;&gt;types/equiv</title>
<path fill="none" stroke="black" d="M1338.84,-863.7C1338.84,-855.98 1338.84,-846.71 1338.84,-838.11"/>
<polygon fill="black" stroke="black" points="1342.34,-838.1 1338.84,-828.1 1335.34,-838.1 1342.34,-838.1"/>
</g>
<!-- types/coproduct -->
<g id="node21" class="node">
<title>types/coproduct</title>
<ellipse fill="none" stroke="black" cx="1037.84" cy="-666" rx="85.29" ry="18"/>
<text text-anchor="middle" x="1037.84" y="-662.3" font-family="Times,serif" font-size="14.00">types/coproduct</text>
</g>
<!-- types/equiv&#45;&gt;types/coproduct -->
<g id="edge20" class="edge">
<title>types/equiv&#45;&gt;types/coproduct</title>
<path fill="none" stroke="black" d="M1307.48,-794.21C1253.17,-768.58 1141.56,-715.93 1080.33,-687.05"/>
<polygon fill="black" stroke="black" points="1081.49,-683.72 1070.96,-682.62 1078.51,-690.06 1081.49,-683.72"/>
</g>
<!-- types/heq -->
<g id="node24" class="node">
<title>types/heq</title>
<ellipse fill="none" stroke="black" cx="1296.84" cy="-738" rx="55.79" ry="18"/>
<text text-anchor="middle" x="1296.84" y="-734.3" font-family="Times,serif" font-size="14.00">types/heq</text>
</g>
<!-- types/equiv&#45;&gt;types/heq -->
<g id="edge21" class="edge">
<title>types/equiv&#45;&gt;types/heq</title>
<path fill="none" stroke="black" d="M1328.67,-792.05C1323.72,-783.8 1317.66,-773.7 1312.16,-764.54"/>
<polygon fill="black" stroke="black" points="1315.06,-762.56 1306.91,-755.79 1309.06,-766.16 1315.06,-762.56"/>
</g>
<!-- HITs/infinitesimal -->
<g id="node25" class="node">
<title>HITs/infinitesimal</title>
<ellipse fill="none" stroke="black" cx="1501.84" cy="-738" rx="92.88" ry="18"/>
<text text-anchor="middle" x="1501.84" y="-734.3" font-family="Times,serif" font-size="14.00">HITs/infinitesimal</text>
</g>
<!-- types/equiv&#45;&gt;HITs/infinitesimal -->
<g id="edge22" class="edge">
<title>types/equiv&#45;&gt;HITs/infinitesimal</title>
<path fill="none" stroke="black" d="M1372.62,-794.5C1396.78,-784.12 1429.6,-770.03 1456.11,-758.64"/>
<polygon fill="black" stroke="black" points="1457.76,-761.74 1465.56,-754.58 1454.99,-755.31 1457.76,-761.74"/>
</g>
<!-- types/lost -->
<g id="node26" class="node">
<title>types/lost</title>
<ellipse fill="none" stroke="black" cx="1668.84" cy="-738" rx="55.79" ry="18"/>
<text text-anchor="middle" x="1668.84" y="-734.3" font-family="Times,serif" font-size="14.00">types/lost</text>
</g>
<!-- types/equiv&#45;&gt;types/lost -->
<g id="edge23" class="edge">
<title>types/equiv&#45;&gt;types/lost</title>
<path fill="none" stroke="black" d="M1391.08,-799.49C1444.66,-789.51 1530.35,-772.94 1603.84,-756 1608.24,-754.98 1612.8,-753.89 1617.37,-752.76"/>
<polygon fill="black" stroke="black" points="1618.48,-756.09 1627.32,-750.25 1616.77,-749.3 1618.48,-756.09"/>
</g>
<!-- types/unit -->
<g id="node27" class="node">
<title>types/unit</title>
<ellipse fill="none" stroke="black" cx="1480.84" cy="-594" rx="57.69" ry="18"/>
<text text-anchor="middle" x="1480.84" y="-590.3" font-family="Times,serif" font-size="14.00">types/unit</text>
</g>
<!-- types/equiv&#45;&gt;types/unit -->
<g id="edge24" class="edge">
<title>types/equiv&#45;&gt;types/unit</title>
<path fill="none" stroke="black" d="M1349.98,-792.21C1374.82,-754.78 1434.82,-664.35 1464.15,-620.16"/>
<polygon fill="black" stroke="black" points="1467.14,-621.98 1469.75,-611.71 1461.31,-618.11 1467.14,-621.98"/>
</g>
<!-- types/sigma -->
<g id="node28" class="node">
<title>types/sigma</title>
<ellipse fill="none" stroke="black" cx="867.84" cy="-666" rx="66.89" ry="18"/>
<text text-anchor="middle" x="867.84" y="-662.3" font-family="Times,serif" font-size="14.00">types/sigma</text>
</g>
<!-- types/equiv&#45;&gt;types/sigma -->
<g id="edge25" class="edge">
<title>types/equiv&#45;&gt;types/sigma</title>
<path fill="none" stroke="black" d="M1294.18,-797.01C1255.6,-786.54 1198.4,-770.76 1148.84,-756 1067.87,-731.89 974.48,-701.87 918.35,-683.58"/>
<polygon fill="black" stroke="black" points="919.25,-680.19 908.66,-680.42 917.08,-686.85 919.25,-680.19"/>
</g>
<!-- structures -->
<g id="node6" class="node">
<title>structures</title>
<ellipse fill="none" stroke="black" cx="1024.84" cy="-522" rx="59.29" ry="18"/>
<text text-anchor="middle" x="1024.84" y="-518.3" font-family="Times,serif" font-size="14.00">structures</text>
</g>
<!-- HITs/interval -->
<g id="node7" class="node">
<title>HITs/interval</title>
<ellipse fill="none" stroke="black" cx="561.84" cy="-450" rx="71.49" ry="18"/>
<text text-anchor="middle" x="561.84" y="-446.3" font-family="Times,serif" font-size="14.00">HITs/interval</text>
</g>
<!-- structures&#45;&gt;HITs/interval -->
<g id="edge4" class="edge">
<title>structures&#45;&gt;HITs/interval</title>
<path fill="none" stroke="black" d="M973.08,-513.17C889.63,-500.56 725.29,-475.71 631.6,-461.55"/>
<polygon fill="black" stroke="black" points="632.06,-458.08 621.64,-460.04 631.01,-465 632.06,-458.08"/>
</g>
<!-- HITs/merely -->
<g id="node8" class="node">
<title>HITs/merely</title>
<ellipse fill="none" stroke="black" cx="1325.84" cy="-450" rx="67.69" ry="18"/>
<text text-anchor="middle" x="1325.84" y="-446.3" font-family="Times,serif" font-size="14.00">HITs/merely</text>
</g>
<!-- structures&#45;&gt;HITs/merely -->
<g id="edge5" class="edge">
<title>structures&#45;&gt;HITs/merely</title>
<path fill="none" stroke="black" d="M1068.7,-509.89C1076.73,-507.9 1085.03,-505.86 1092.84,-504 1151.3,-490.05 1218.21,-474.91 1265.29,-464.4"/>
<polygon fill="black" stroke="black" points="1266.32,-467.76 1275.32,-462.17 1264.8,-460.93 1266.32,-467.76"/>
</g>
<!-- HITs/trunc -->
<g id="node9" class="node">
<title>HITs/trunc</title>
<ellipse fill="none" stroke="black" cx="1036.84" cy="-450" rx="59.59" ry="18"/>
<text text-anchor="middle" x="1036.84" y="-446.3" font-family="Times,serif" font-size="14.00">HITs/trunc</text>
</g>
<!-- structures&#45;&gt;HITs/trunc -->
<g id="edge6" class="edge">
<title>structures&#45;&gt;HITs/trunc</title>
<path fill="none" stroke="black" d="M1027.81,-503.7C1029.13,-495.98 1030.72,-486.71 1032.19,-478.11"/>
<polygon fill="black" stroke="black" points="1035.67,-478.55 1033.91,-468.1 1028.77,-477.37 1035.67,-478.55"/>
</g>
<!-- types/nat -->
<g id="node10" class="node">
<title>types/nat</title>
<ellipse fill="none" stroke="black" cx="1168.84" cy="-450" rx="53.89" ry="18"/>
<text text-anchor="middle" x="1168.84" y="-446.3" font-family="Times,serif" font-size="14.00">types/nat</text>
</g>
<!-- structures&#45;&gt;types/nat -->
<g id="edge7" class="edge">
<title>structures&#45;&gt;types/nat</title>
<path fill="none" stroke="black" d="M1055.03,-506.33C1077.02,-495.64 1106.97,-481.08 1130.62,-469.58"/>
<polygon fill="black" stroke="black" points="1132.21,-472.7 1139.68,-465.18 1129.15,-466.4 1132.21,-472.7"/>
</g>
<!-- theorems/ua -->
<g id="node11" class="node">
<title>theorems/ua</title>
<ellipse fill="none" stroke="black" cx="857.84" cy="-450" rx="68.79" ry="18"/>
<text text-anchor="middle" x="857.84" y="-446.3" font-family="Times,serif" font-size="14.00">theorems/ua</text>
</g>
<!-- structures&#45;&gt;theorems/ua -->
<g id="edge8" class="edge">
<title>structures&#45;&gt;theorems/ua</title>
<path fill="none" stroke="black" d="M991.45,-507C965.82,-496.26 930.2,-481.33 902.18,-469.58"/>
<polygon fill="black" stroke="black" points="903.19,-466.21 892.61,-465.58 900.48,-472.67 903.19,-466.21"/>
</g>
<!-- cubical/cubes -->
<g id="node44" class="node">
<title>cubical/cubes</title>
<ellipse fill="none" stroke="black" cx="329.84" cy="-378" rx="73.39" ry="18"/>
<text text-anchor="middle" x="329.84" y="-374.3" font-family="Times,serif" font-size="14.00">cubical/cubes</text>
</g>
<!-- HITs/interval&#45;&gt;cubical/cubes -->
<g id="edge47" class="edge">
<title>HITs/interval&#45;&gt;cubical/cubes</title>
<path fill="none" stroke="black" d="M517.93,-435.75C479.95,-424.29 424.87,-407.67 384.13,-395.38"/>
<polygon fill="black" stroke="black" points="384.95,-391.97 374.36,-392.43 382.92,-398.67 384.95,-391.97"/>
</g>
<!-- theorems/prop -->
<g id="node45" class="node">
<title>theorems/prop</title>
<ellipse fill="none" stroke="black" cx="794.84" cy="-378" rx="79.09" ry="18"/>
<text text-anchor="middle" x="794.84" y="-374.3" font-family="Times,serif" font-size="14.00">theorems/prop</text>
</g>
<!-- HITs/interval&#45;&gt;theorems/prop -->
<g id="edge48" class="edge">
<title>HITs/interval&#45;&gt;theorems/prop</title>
<path fill="none" stroke="black" d="M605.94,-435.75C643.72,-424.4 698.34,-407.99 739.14,-395.73"/>
<polygon fill="black" stroke="black" points="740.36,-399.02 748.93,-392.79 738.35,-392.32 740.36,-399.02"/>
</g>
<!-- theorems/fibration -->
<g id="node46" class="node">
<title>theorems/fibration</title>
<ellipse fill="none" stroke="black" cx="96.84" cy="-306" rx="96.68" ry="18"/>
<text text-anchor="middle" x="96.84" y="-302.3" font-family="Times,serif" font-size="14.00">theorems/fibration</text>
</g>
<!-- HITs/interval&#45;&gt;theorems/fibration -->
<g id="edge49" class="edge">
<title>HITs/interval&#45;&gt;theorems/fibration</title>
<path fill="none" stroke="black" d="M493.25,-444.65C428.37,-438.86 329.12,-425.66 247.84,-396 203.09,-379.67 156.61,-350.03 127.24,-329.47"/>
<polygon fill="black" stroke="black" points="129.24,-326.6 119.06,-323.66 125.19,-332.3 129.24,-326.6"/>
</g>
<!-- HITs/merely&#45;&gt;theorems/prop -->
<g id="edge50" class="edge">
<title>HITs/merely&#45;&gt;theorems/prop</title>
<path fill="none" stroke="black" d="M1272.74,-438.84C1259.41,-436.44 1245.12,-434 1231.84,-432 1107.9,-413.29 963.41,-396.8 875.56,-387.37"/>
<polygon fill="black" stroke="black" points="875.72,-383.86 865.4,-386.28 874.97,-390.82 875.72,-383.86"/>
</g>
<!-- HITs/simplicial -->
<g id="node48" class="node">
<title>HITs/simplicial</title>
<ellipse fill="none" stroke="black" cx="1504.84" cy="-378" rx="79.09" ry="18"/>
<text text-anchor="middle" x="1504.84" y="-374.3" font-family="Times,serif" font-size="14.00">HITs/simplicial</text>
</g>
<!-- HITs/merely&#45;&gt;HITs/simplicial -->
<g id="edge51" class="edge">
<title>HITs/merely&#45;&gt;HITs/simplicial</title>
<path fill="none" stroke="black" d="M1362.5,-434.67C1389.91,-423.95 1427.62,-409.2 1457.35,-397.57"/>
<polygon fill="black" stroke="black" points="1458.65,-400.82 1466.69,-393.92 1456.1,-394.3 1458.65,-400.82"/>
</g>
<!-- theorems/functions -->
<g id="node49" class="node">
<title>theorems/functions</title>
<ellipse fill="none" stroke="black" cx="1548.84" cy="-234" rx="100.98" ry="18"/>
<text text-anchor="middle" x="1548.84" y="-230.3" font-family="Times,serif" font-size="14.00">theorems/functions</text>
</g>
<!-- HITs/merely&#45;&gt;theorems/functions -->
<g id="edge52" class="edge">
<title>HITs/merely&#45;&gt;theorems/functions</title>
<path fill="none" stroke="black" d="M1391.14,-445.3C1461.81,-439.76 1567.8,-426.5 1592.84,-396 1625.25,-356.53 1592.18,-295.09 1568.43,-260.65"/>
<polygon fill="black" stroke="black" points="1570.99,-258.21 1562.34,-252.09 1565.29,-262.27 1570.99,-258.21"/>
</g>
<!-- algebra/monoid -->
<g id="node13" class="node">
<title>algebra/monoid</title>
<ellipse fill="none" stroke="black" cx="988.84" cy="-162" rx="83.39" ry="18"/>
<text text-anchor="middle" x="988.84" y="-158.3" font-family="Times,serif" font-size="14.00">algebra/monoid</text>
</g>
<!-- HITs/trunc&#45;&gt;algebra/monoid -->
<g id="edge57" class="edge">
<title>HITs/trunc&#45;&gt;algebra/monoid</title>
<path fill="none" stroke="black" d="M1042.46,-431.94C1053.04,-401.32 1077.92,-335.77 1111.84,-288 1125.13,-269.29 1139.92,-273.14 1148.84,-252 1155.07,-237.26 1158.21,-228.97 1148.84,-216 1131.68,-192.23 1103.44,-178.95 1075.43,-171.59"/>
<polygon fill="black" stroke="black" points="1076.09,-168.15 1065.55,-169.22 1074.46,-174.95 1076.09,-168.15"/>
</g>
<!-- HITs/quotient -->
<g id="node43" class="node">
<title>HITs/quotient</title>
<ellipse fill="none" stroke="black" cx="1333.84" cy="-378" rx="74.19" ry="18"/>
<text text-anchor="middle" x="1333.84" y="-374.3" font-family="Times,serif" font-size="14.00">HITs/quotient</text>
</g>
<!-- HITs/trunc&#45;&gt;HITs/quotient -->
<g id="edge58" class="edge">
<title>HITs/trunc&#45;&gt;HITs/quotient</title>
<path fill="none" stroke="black" d="M1081.36,-437.94C1089.5,-435.94 1097.92,-433.9 1105.84,-432 1161.99,-418.56 1226.04,-403.71 1271.93,-393.16"/>
<polygon fill="black" stroke="black" points="1272.76,-396.56 1281.73,-390.91 1271.2,-389.74 1272.76,-396.56"/>
</g>
<!-- theorems/nat -->
<g id="node33" class="node">
<title>theorems/nat</title>
<ellipse fill="none" stroke="black" cx="1168.84" cy="-378" rx="72.59" ry="18"/>
<text text-anchor="middle" x="1168.84" y="-374.3" font-family="Times,serif" font-size="14.00">theorems/nat</text>
</g>
<!-- types/nat&#45;&gt;theorems/nat -->
<g id="edge30" class="edge">
<title>types/nat&#45;&gt;theorems/nat</title>
<path fill="none" stroke="black" d="M1168.84,-431.7C1168.84,-423.98 1168.84,-414.71 1168.84,-406.11"/>
<polygon fill="black" stroke="black" points="1172.34,-406.1 1168.84,-396.1 1165.34,-406.1 1172.34,-406.1"/>
</g>
<!-- theorems/ua&#45;&gt;theorems/nat -->
<g id="edge75" class="edge">
<title>theorems/ua&#45;&gt;theorems/nat</title>
<path fill="none" stroke="black" d="M908.15,-437.68C962.43,-425.46 1048.9,-406 1107.22,-392.87"/>
<polygon fill="black" stroke="black" points="1108.06,-396.27 1117.05,-390.66 1106.52,-389.44 1108.06,-396.27"/>
</g>
<!-- theorems/ua&#45;&gt;theorems/prop -->
<g id="edge76" class="edge">
<title>theorems/ua&#45;&gt;theorems/prop</title>
<path fill="none" stroke="black" d="M842.91,-432.41C835.18,-423.82 825.58,-413.16 817.01,-403.63"/>
<polygon fill="black" stroke="black" points="819.39,-401.05 810.1,-395.96 814.19,-405.73 819.39,-401.05"/>
</g>
<!-- cubical/V -->
<g id="node54" class="node">
<title>cubical/V</title>
<ellipse fill="none" stroke="black" cx="505.84" cy="-234" rx="52.79" ry="18"/>
<text text-anchor="middle" x="505.84" y="-230.3" font-family="Times,serif" font-size="14.00">cubical/V</text>
</g>
<!-- theorems/ua&#45;&gt;cubical/V -->
<g id="edge77" class="edge">
<title>theorems/ua&#45;&gt;cubical/V</title>
<path fill="none" stroke="black" d="M800.43,-439.92C698.32,-422.47 491.91,-380.88 449.84,-324 433.67,-302.13 455.28,-275.58 476.18,-257.2"/>
<polygon fill="black" stroke="black" points="478.66,-259.69 484.07,-250.58 474.16,-254.32 478.66,-259.69"/>
</g>
<!-- algebra/basic -->
<g id="node12" class="node">
<title>algebra/basic</title>
<ellipse fill="none" stroke="black" cx="890.84" cy="-234" rx="72.59" ry="18"/>
<text text-anchor="middle" x="890.84" y="-230.3" font-family="Times,serif" font-size="14.00">algebra/basic</text>
</g>
<!-- algebra/basic&#45;&gt;algebra/monoid -->
<g id="edge9" class="edge">
<title>algebra/basic&#45;&gt;algebra/monoid</title>
<path fill="none" stroke="black" d="M913.57,-216.76C926.59,-207.47 943.12,-195.66 957.37,-185.48"/>
<polygon fill="black" stroke="black" points="959.79,-188.05 965.9,-179.39 955.72,-182.35 959.79,-188.05"/>
</g>
<!-- algebra/group -->
<g id="node14" class="node">
<title>algebra/group</title>
<ellipse fill="none" stroke="black" cx="1396.84" cy="-162" rx="76.09" ry="18"/>
<text text-anchor="middle" x="1396.84" y="-158.3" font-family="Times,serif" font-size="14.00">algebra/group</text>
</g>
<!-- algebra/basic&#45;&gt;algebra/group -->
<g id="edge10" class="edge">
<title>algebra/basic&#45;&gt;algebra/group</title>
<path fill="none" stroke="black" d="M943.19,-221.34C953.01,-219.39 963.22,-217.5 972.84,-216 1122.54,-192.59 1162.07,-202.88 1311.84,-180 1318.54,-178.98 1325.51,-177.79 1332.45,-176.52"/>
<polygon fill="black" stroke="black" points="1333.38,-179.91 1342.56,-174.63 1332.08,-173.03 1333.38,-179.91"/>
</g>
<!-- algebra/eilenberg_maclane -->
<g id="node15" class="node">
<title>algebra/eilenberg_maclane</title>
<ellipse fill="none" stroke="black" cx="801.84" cy="-90" rx="135.68" ry="18"/>
<text text-anchor="middle" x="801.84" y="-86.3" font-family="Times,serif" font-size="14.00">algebra/eilenberg_maclane</text>
</g>
<!-- algebra/group&#45;&gt;algebra/eilenberg_maclane -->
<g id="edge11" class="edge">
<title>algebra/group&#45;&gt;algebra/eilenberg_maclane</title>
<path fill="none" stroke="black" d="M1342.56,-149.36C1332.38,-147.4 1321.81,-145.51 1311.84,-144 1180.88,-124.14 1029.87,-109.47 926.35,-100.65"/>
<polygon fill="black" stroke="black" points="926.43,-97.15 916.17,-99.79 925.84,-104.12 926.43,-97.15"/>
</g>
<!-- algebra/finite -->
<g id="node16" class="node">
<title>algebra/finite</title>
<ellipse fill="none" stroke="black" cx="1365.84" cy="-90" rx="72.59" ry="18"/>
<text text-anchor="middle" x="1365.84" y="-86.3" font-family="Times,serif" font-size="14.00">algebra/finite</text>
</g>
<!-- algebra/group&#45;&gt;algebra/finite -->
<g id="edge12" class="edge">
<title>algebra/group&#45;&gt;algebra/finite</title>
<path fill="none" stroke="black" d="M1389.34,-144.05C1385.81,-136.09 1381.52,-126.41 1377.58,-117.51"/>
<polygon fill="black" stroke="black" points="1380.74,-116 1373.49,-108.28 1374.34,-118.84 1380.74,-116"/>
</g>
<!-- algebra/ring -->
<g id="node17" class="node">
<title>algebra/ring</title>
<ellipse fill="none" stroke="black" cx="1523.84" cy="-90" rx="67.69" ry="18"/>
<text text-anchor="middle" x="1523.84" y="-86.3" font-family="Times,serif" font-size="14.00">algebra/ring</text>
</g>
<!-- algebra/group&#45;&gt;algebra/ring -->
<g id="edge13" class="edge">
<title>algebra/group&#45;&gt;algebra/ring</title>
<path fill="none" stroke="black" d="M1425.34,-145.29C1443.53,-135.27 1467.28,-122.18 1486.9,-111.36"/>
<polygon fill="black" stroke="black" points="1488.8,-114.31 1495.87,-106.42 1485.43,-108.18 1488.8,-114.31"/>
</g>
<!-- algebra/Z -->
<g id="node18" class="node">
<title>algebra/Z</title>
<ellipse fill="none" stroke="black" cx="1157.84" cy="-90" rx="55.49" ry="18"/>
<text text-anchor="middle" x="1157.84" y="-86.3" font-family="Times,serif" font-size="14.00">algebra/Z</text>
</g>
<!-- algebra/group&#45;&gt;algebra/Z -->
<g id="edge14" class="edge">
<title>algebra/group&#45;&gt;algebra/Z</title>
<path fill="none" stroke="black" d="M1351.04,-147.59C1309.88,-135.53 1249.59,-117.87 1207.33,-105.5"/>
<polygon fill="black" stroke="black" points="1208.12,-102.08 1197.54,-102.63 1206.15,-108.8 1208.12,-102.08"/>
</g>
<!-- algebra/homology -->
<g id="node19" class="node">
<title>algebra/homology</title>
<ellipse fill="none" stroke="black" cx="1157.84" cy="-18" rx="93.68" ry="18"/>
<text text-anchor="middle" x="1157.84" y="-14.3" font-family="Times,serif" font-size="14.00">algebra/homology</text>
</g>
<!-- algebra/Z&#45;&gt;algebra/homology -->
<g id="edge15" class="edge">
<title>algebra/Z&#45;&gt;algebra/homology</title>
<path fill="none" stroke="black" d="M1157.84,-71.7C1157.84,-63.98 1157.84,-54.71 1157.84,-46.11"/>
<polygon fill="black" stroke="black" points="1161.34,-46.1 1157.84,-36.1 1154.34,-46.1 1161.34,-46.1"/>
</g>
<!-- types/category -->
<g id="node20" class="node">
<title>types/category</title>
<ellipse fill="none" stroke="black" cx="1060.84" cy="-234" rx="79.09" ry="18"/>
<text text-anchor="middle" x="1060.84" y="-230.3" font-family="Times,serif" font-size="14.00">types/category</text>
</g>
<!-- types/coproduct&#45;&gt;structures -->
<g id="edge16" class="edge">
<title>types/coproduct&#45;&gt;structures</title>
<path fill="none" stroke="black" d="M1036.27,-647.87C1034.06,-623.67 1029.99,-579.21 1027.35,-550.39"/>
<polygon fill="black" stroke="black" points="1030.81,-549.83 1026.42,-540.19 1023.84,-550.47 1030.81,-549.83"/>
</g>
<!-- types/ens -->
<g id="node22" class="node">
<title>types/ens</title>
<ellipse fill="none" stroke="black" cx="763.84" cy="-306" rx="55.49" ry="18"/>
<text text-anchor="middle" x="763.84" y="-302.3" font-family="Times,serif" font-size="14.00">types/ens</text>
</g>
<!-- types/ens&#45;&gt;algebra/basic -->
<g id="edge18" class="edge">
<title>types/ens&#45;&gt;algebra/basic</title>
<path fill="none" stroke="black" d="M790.77,-290.15C808.96,-280.13 833.21,-266.76 853.29,-255.7"/>
<polygon fill="black" stroke="black" points="855.11,-258.69 862.18,-250.8 851.73,-252.56 855.11,-258.69"/>
</g>
<!-- types/setquot -->
<g id="node23" class="node">
<title>types/setquot</title>
<ellipse fill="none" stroke="black" cx="725.84" cy="-234" rx="74.19" ry="18"/>
<text text-anchor="middle" x="725.84" y="-230.3" font-family="Times,serif" font-size="14.00">types/setquot</text>
</g>
<!-- types/ens&#45;&gt;types/setquot -->
<g id="edge19" class="edge">
<title>types/ens&#45;&gt;types/setquot</title>
<path fill="none" stroke="black" d="M754.64,-288.05C750.27,-280.01 744.95,-270.2 740.08,-261.23"/>
<polygon fill="black" stroke="black" points="743.07,-259.39 735.22,-252.28 736.91,-262.73 743.07,-259.39"/>
</g>
<!-- HITs/graph -->
<g id="node29" class="node">
<title>HITs/graph</title>
<ellipse fill="none" stroke="black" cx="1342.84" cy="-594" rx="62.29" ry="18"/>
<text text-anchor="middle" x="1342.84" y="-590.3" font-family="Times,serif" font-size="14.00">HITs/graph</text>
</g>
<!-- types/heq&#45;&gt;HITs/graph -->
<g id="edge26" class="edge">
<title>types/heq&#45;&gt;HITs/graph</title>
<path fill="none" stroke="black" d="M1307.03,-719.84C1312.67,-709.71 1319.42,-696.46 1323.84,-684 1331,-663.8 1335.91,-640.03 1338.94,-622.13"/>
<polygon fill="black" stroke="black" points="1342.42,-622.52 1340.55,-612.09 1335.51,-621.41 1342.42,-622.52"/>
</g>
<!-- theorems/funext -->
<g id="node30" class="node">
<title>theorems/funext</title>
<ellipse fill="none" stroke="black" cx="1227.84" cy="-666" rx="87.18" ry="18"/>
<text text-anchor="middle" x="1227.84" y="-662.3" font-family="Times,serif" font-size="14.00">theorems/funext</text>
</g>
<!-- types/heq&#45;&gt;theorems/funext -->
<g id="edge27" class="edge">
<title>types/heq&#45;&gt;theorems/funext</title>
<path fill="none" stroke="black" d="M1280.49,-720.41C1271.94,-711.73 1261.3,-700.95 1251.84,-691.34"/>
<polygon fill="black" stroke="black" points="1254.07,-688.62 1244.56,-683.96 1249.08,-693.54 1254.07,-688.62"/>
</g>
<!-- types/unit&#45;&gt;structures -->
<g id="edge34" class="edge">
<title>types/unit&#45;&gt;structures</title>
<path fill="none" stroke="black" d="M1438.86,-581.41C1430.61,-579.4 1421.99,-577.48 1413.84,-576 1272.6,-550.29 1234.13,-565.47 1092.84,-540 1087.81,-539.09 1082.59,-538.02 1077.39,-536.87"/>
<polygon fill="black" stroke="black" points="1077.99,-533.42 1067.46,-534.58 1076.41,-540.24 1077.99,-533.42"/>
</g>
<!-- HITs/suspension -->
<g id="node36" class="node">
<title>HITs/suspension</title>
<ellipse fill="none" stroke="black" cx="1636.84" cy="-450" rx="87.18" ry="18"/>
<text text-anchor="middle" x="1636.84" y="-446.3" font-family="Times,serif" font-size="14.00">HITs/suspension</text>
</g>
<!-- types/unit&#45;&gt;HITs/suspension -->
<g id="edge35" class="edge">
<title>types/unit&#45;&gt;HITs/suspension</title>
<path fill="none" stroke="black" d="M1537.89,-590.57C1574.32,-585.69 1619.05,-572.82 1642.84,-540 1655.71,-522.25 1652.51,-496.92 1647.08,-477.82"/>
<polygon fill="black" stroke="black" points="1650.39,-476.66 1644.02,-468.2 1643.72,-478.79 1650.39,-476.66"/>
</g>
<!-- types/sigma&#45;&gt;structures -->
<g id="edge33" class="edge">
<title>types/sigma&#45;&gt;structures</title>
<path fill="none" stroke="black" d="M886.16,-648.43C914.05,-623.21 967.26,-575.08 999.05,-546.33"/>
<polygon fill="black" stroke="black" points="1001.57,-548.77 1006.64,-539.46 996.88,-543.57 1001.57,-548.77"/>
</g>
<!-- HITs/colimit -->
<g id="node40" class="node">
<title>HITs/colimit</title>
<ellipse fill="none" stroke="black" cx="1168.84" cy="-522" rx="66.89" ry="18"/>
<text text-anchor="middle" x="1168.84" y="-518.3" font-family="Times,serif" font-size="14.00">HITs/colimit</text>
</g>
<!-- HITs/graph&#45;&gt;HITs/colimit -->
<g id="edge43" class="edge">
<title>HITs/graph&#45;&gt;HITs/colimit</title>
<path fill="none" stroke="black" d="M1308.05,-579C1281.05,-568.14 1243.41,-553 1214.07,-541.2"/>
<polygon fill="black" stroke="black" points="1215.05,-537.82 1204.47,-537.33 1212.44,-544.31 1215.05,-537.82"/>
</g>
<!-- HITs/generalized -->
<g id="node41" class="node">
<title>HITs/generalized</title>
<ellipse fill="none" stroke="black" cx="1342.84" cy="-522" rx="89.08" ry="18"/>
<text text-anchor="middle" x="1342.84" y="-518.3" font-family="Times,serif" font-size="14.00">HITs/generalized</text>
</g>
<!-- HITs/graph&#45;&gt;HITs/generalized -->
<g id="edge44" class="edge">
<title>HITs/graph&#45;&gt;HITs/generalized</title>
<path fill="none" stroke="black" d="M1342.84,-575.7C1342.84,-567.98 1342.84,-558.71 1342.84,-550.11"/>
<polygon fill="black" stroke="black" points="1346.34,-550.1 1342.84,-540.1 1339.34,-550.1 1346.34,-550.1"/>
</g>
<!-- HITs/pushout -->
<g id="node42" class="node">
<title>HITs/pushout</title>
<ellipse fill="none" stroke="black" cx="1560.84" cy="-522" rx="72.59" ry="18"/>
<text text-anchor="middle" x="1560.84" y="-518.3" font-family="Times,serif" font-size="14.00">HITs/pushout</text>
</g>
<!-- HITs/graph&#45;&gt;HITs/pushout -->
<g id="edge45" class="edge">
<title>HITs/graph&#45;&gt;HITs/pushout</title>
<path fill="none" stroke="black" d="M1382.83,-580.16C1418.03,-568.86 1469.55,-552.31 1508.12,-539.93"/>
<polygon fill="black" stroke="black" points="1509.68,-543.1 1518.13,-536.71 1507.54,-536.44 1509.68,-543.1"/>
</g>
<!-- HITs/graph&#45;&gt;HITs/quotient -->
<g id="edge46" class="edge">
<title>HITs/graph&#45;&gt;HITs/quotient</title>
<path fill="none" stroke="black" d="M1386.11,-581C1406.5,-572.94 1428.91,-560.02 1440.84,-540 1449.03,-526.26 1444.69,-519.53 1440.84,-504 1432.14,-468.88 1426.17,-459.66 1402.84,-432 1393.05,-420.39 1380.29,-409.72 1368.42,-401.04"/>
<polygon fill="black" stroke="black" points="1370.18,-398 1359.99,-395.09 1366.14,-403.72 1370.18,-398"/>
</g>
<!-- types/product -->
<g id="node35" class="node">
<title>types/product</title>
<ellipse fill="none" stroke="black" cx="1163.84" cy="-594" rx="75.29" ry="18"/>
<text text-anchor="middle" x="1163.84" y="-590.3" font-family="Times,serif" font-size="14.00">types/product</text>
</g>
<!-- theorems/funext&#45;&gt;types/product -->
<g id="edge67" class="edge">
<title>theorems/funext&#45;&gt;types/product</title>
<path fill="none" stroke="black" d="M1212.35,-648.05C1204.49,-639.46 1194.8,-628.86 1186.15,-619.4"/>
<polygon fill="black" stroke="black" points="1188.52,-616.81 1179.19,-611.79 1183.36,-621.53 1188.52,-616.81"/>
</g>
<!-- types/integer -->
<g id="node31" class="node">
<title>types/integer</title>
<ellipse fill="none" stroke="black" cx="1307.84" cy="-306" rx="72.59" ry="18"/>
<text text-anchor="middle" x="1307.84" y="-302.3" font-family="Times,serif" font-size="14.00">types/integer</text>
</g>
<!-- types/integer&#45;&gt;algebra/group -->
<g id="edge28" class="edge">
<title>types/integer&#45;&gt;algebra/group</title>
<path fill="none" stroke="black" d="M1318.4,-288.15C1333.77,-263.63 1362.45,-217.87 1380.55,-189"/>
<polygon fill="black" stroke="black" points="1383.67,-190.6 1386.02,-180.27 1377.74,-186.88 1383.67,-190.6"/>
</g>
<!-- HITs/circle -->
<g id="node32" class="node">
<title>HITs/circle</title>
<ellipse fill="none" stroke="black" cx="1255.84" cy="-234" rx="60.39" ry="18"/>
<text text-anchor="middle" x="1255.84" y="-230.3" font-family="Times,serif" font-size="14.00">HITs/circle</text>
</g>
<!-- types/integer&#45;&gt;HITs/circle -->
<g id="edge29" class="edge">
<title>types/integer&#45;&gt;HITs/circle</title>
<path fill="none" stroke="black" d="M1295.25,-288.05C1288.99,-279.63 1281.31,-269.28 1274.39,-259.97"/>
<polygon fill="black" stroke="black" points="1277.09,-257.73 1268.31,-251.79 1271.47,-261.9 1277.09,-257.73"/>
</g>
<!-- HITs/circle&#45;&gt;algebra/Z -->
<g id="edge36" class="edge">
<title>HITs/circle&#45;&gt;algebra/Z</title>
<path fill="none" stroke="black" d="M1208.57,-222.73C1185.44,-215.07 1159.66,-201.99 1145.84,-180 1134.1,-161.31 1139.01,-136.08 1145.75,-117.25"/>
<polygon fill="black" stroke="black" points="1149.07,-118.38 1149.48,-107.8 1142.56,-115.82 1149.07,-118.38"/>
</g>
<!-- theorems/hopf -->
<g id="node37" class="node">
<title>theorems/hopf</title>
<ellipse fill="none" stroke="black" cx="756.84" cy="-162" rx="77.99" ry="18"/>
<text text-anchor="middle" x="756.84" y="-158.3" font-family="Times,serif" font-size="14.00">theorems/hopf</text>
</g>
<!-- HITs/circle&#45;&gt;theorems/hopf -->
<g id="edge37" class="edge">
<title>HITs/circle&#45;&gt;theorems/hopf</title>
<path fill="none" stroke="black" d="M1204.18,-224.54C1186.63,-221.74 1166.89,-218.65 1148.84,-216 1039.44,-199.92 912.58,-183.1 833.5,-172.83"/>
<polygon fill="black" stroke="black" points="833.51,-169.3 823.14,-171.49 832.61,-176.24 833.51,-169.3"/>
</g>
<!-- HITs/moebius -->
<g id="node38" class="node">
<title>HITs/moebius</title>
<ellipse fill="none" stroke="black" cx="1228.84" cy="-162" rx="74.19" ry="18"/>
<text text-anchor="middle" x="1228.84" y="-158.3" font-family="Times,serif" font-size="14.00">HITs/moebius</text>
</g>
<!-- HITs/circle&#45;&gt;HITs/moebius -->
<g id="edge38" class="edge">
<title>HITs/circle&#45;&gt;HITs/moebius</title>
<path fill="none" stroke="black" d="M1249.31,-216.05C1246.27,-208.18 1242.58,-198.62 1239.18,-189.79"/>
<polygon fill="black" stroke="black" points="1242.37,-188.35 1235.5,-180.28 1235.84,-190.86 1242.37,-188.35"/>
</g>
<!-- HITs/reals -->
<g id="node39" class="node">
<title>HITs/reals</title>
<ellipse fill="none" stroke="black" cx="1548.84" cy="-162" rx="57.69" ry="18"/>
<text text-anchor="middle" x="1548.84" y="-158.3" font-family="Times,serif" font-size="14.00">HITs/reals</text>
</g>
<!-- HITs/circle&#45;&gt;HITs/reals -->
<g id="edge39" class="edge">
<title>HITs/circle&#45;&gt;HITs/reals</title>
<path fill="none" stroke="black" d="M1302.21,-222.38C1347.94,-211.85 1419.79,-195.15 1481.84,-180 1486.41,-178.88 1491.15,-177.71 1495.9,-176.53"/>
<polygon fill="black" stroke="black" points="1496.77,-179.92 1505.62,-174.09 1495.07,-173.13 1496.77,-179.92"/>
</g>
<!-- theorems/nat&#45;&gt;types/integer -->
<g id="edge68" class="edge">
<title>theorems/nat&#45;&gt;types/integer</title>
<path fill="none" stroke="black" d="M1199.35,-361.64C1219.48,-351.5 1246.08,-338.1 1267.9,-327.11"/>
<polygon fill="black" stroke="black" points="1269.57,-330.19 1276.93,-322.57 1266.42,-323.94 1269.57,-330.19"/>
</g>
<!-- HITs/int -->
<g id="node56" class="node">
<title>HITs/int</title>
<ellipse fill="none" stroke="black" cx="1168.84" cy="-306" rx="48.19" ry="18"/>
<text text-anchor="middle" x="1168.84" y="-302.3" font-family="Times,serif" font-size="14.00">HITs/int</text>
</g>
<!-- theorems/nat&#45;&gt;HITs/int -->
<g id="edge69" class="edge">
<title>theorems/nat&#45;&gt;HITs/int</title>
<path fill="none" stroke="black" d="M1168.84,-359.7C1168.84,-351.98 1168.84,-342.71 1168.84,-334.11"/>
<polygon fill="black" stroke="black" points="1172.34,-334.1 1168.84,-324.1 1165.34,-334.1 1172.34,-334.1"/>
</g>
<!-- types/precategory -->
<g id="node34" class="node">
<title>types/precategory</title>
<ellipse fill="none" stroke="black" cx="931.84" cy="-306" rx="94.78" ry="18"/>
<text text-anchor="middle" x="931.84" y="-302.3" font-family="Times,serif" font-size="14.00">types/precategory</text>
</g>
<!-- types/precategory&#45;&gt;types/category -->
<g id="edge31" class="edge">
<title>types/precategory&#45;&gt;types/category</title>
<path fill="none" stroke="black" d="M961.76,-288.76C979.88,-278.93 1003.17,-266.3 1022.61,-255.74"/>
<polygon fill="black" stroke="black" points="1024.41,-258.75 1031.53,-250.91 1021.07,-252.6 1024.41,-258.75"/>
</g>
<!-- types/product&#45;&gt;structures -->
<g id="edge32" class="edge">
<title>types/product&#45;&gt;structures</title>
<path fill="none" stroke="black" d="M1132.99,-577.46C1112.42,-567.1 1085.22,-553.4 1063.24,-542.34"/>
<polygon fill="black" stroke="black" points="1064.68,-539.14 1054.18,-537.77 1061.53,-545.4 1064.68,-539.14"/>
</g>
<!-- HITs/suspension&#45;&gt;HITs/circle -->
<g id="edge55" class="edge">
<title>HITs/suspension&#45;&gt;HITs/circle</title>
<path fill="none" stroke="black" d="M1632.55,-431.91C1626.73,-412.04 1614.48,-379.5 1592.84,-360 1514.7,-289.58 1393.34,-257.7 1319.57,-244.14"/>
<polygon fill="black" stroke="black" points="1319.94,-240.65 1309.48,-242.35 1318.72,-247.54 1319.94,-240.65"/>
</g>
<!-- HITs/join -->
<g id="node47" class="node">
<title>HITs/join</title>
<ellipse fill="none" stroke="black" cx="1729.84" cy="-378" rx="51.99" ry="18"/>
<text text-anchor="middle" x="1729.84" y="-374.3" font-family="Times,serif" font-size="14.00">HITs/join</text>
</g>
<!-- HITs/suspension&#45;&gt;HITs/join -->
<g id="edge56" class="edge">
<title>HITs/suspension&#45;&gt;HITs/join</title>
<path fill="none" stroke="black" d="M1658.88,-432.41C1671.42,-422.97 1687.29,-411.03 1700.83,-400.83"/>
<polygon fill="black" stroke="black" points="1703.03,-403.56 1708.92,-394.75 1698.82,-397.97 1703.03,-403.56"/>
</g>
<!-- HITs/colimit&#45;&gt;HITs/merely -->
<g id="edge40" class="edge">
<title>HITs/colimit&#45;&gt;HITs/merely</title>
<path fill="none" stroke="black" d="M1202.14,-506.15C1225.76,-495.62 1257.67,-481.39 1283.17,-470.03"/>
<polygon fill="black" stroke="black" points="1284.89,-473.09 1292.59,-465.82 1282.04,-466.7 1284.89,-473.09"/>
</g>
<!-- HITs/colimit&#45;&gt;types/nat -->
<g id="edge41" class="edge">
<title>HITs/colimit&#45;&gt;types/nat</title>
<path fill="none" stroke="black" d="M1168.84,-503.7C1168.84,-495.98 1168.84,-486.71 1168.84,-478.11"/>
<polygon fill="black" stroke="black" points="1172.34,-478.1 1168.84,-468.1 1165.34,-478.1 1172.34,-478.1"/>
</g>
<!-- HITs/generalized&#45;&gt;HITs/merely -->
<g id="edge42" class="edge">
<title>HITs/generalized&#45;&gt;HITs/merely</title>
<path fill="none" stroke="black" d="M1338.64,-503.7C1336.75,-495.9 1334.46,-486.51 1332.36,-477.83"/>
<polygon fill="black" stroke="black" points="1335.76,-477 1330,-468.1 1328.95,-478.65 1335.76,-477"/>
</g>
<!-- HITs/pushout&#45;&gt;HITs/suspension -->
<g id="edge53" class="edge">
<title>HITs/pushout&#45;&gt;HITs/suspension</title>
<path fill="none" stroke="black" d="M1578.85,-504.41C1588.53,-495.5 1600.63,-484.36 1611.26,-474.56"/>
<polygon fill="black" stroke="black" points="1613.71,-477.06 1618.7,-467.71 1608.97,-471.91 1613.71,-477.06"/>
</g>
<!-- HITs/quotient&#45;&gt;algebra/group -->
<g id="edge54" class="edge">
<title>HITs/quotient&#45;&gt;algebra/group</title>
<path fill="none" stroke="black" d="M1358.24,-360.85C1370.02,-351.59 1383.06,-338.86 1389.84,-324 1409.65,-280.59 1406.18,-223.57 1401.65,-190.33"/>
<polygon fill="black" stroke="black" points="1405.1,-189.8 1400.17,-180.43 1398.18,-190.83 1405.1,-189.8"/>
</g>
<!-- cubical/path -->
<g id="node51" class="node">
<title>cubical/path</title>
<ellipse fill="none" stroke="black" cx="332.84" cy="-306" rx="67.69" ry="18"/>
<text text-anchor="middle" x="332.84" y="-302.3" font-family="Times,serif" font-size="14.00">cubical/path</text>
</g>
<!-- cubical/cubes&#45;&gt;cubical/path -->
<g id="edge59" class="edge">
<title>cubical/cubes&#45;&gt;cubical/path</title>
<path fill="none" stroke="black" d="M330.58,-359.7C330.91,-351.98 331.31,-342.71 331.68,-334.11"/>
<polygon fill="black" stroke="black" points="335.18,-334.25 332.11,-324.1 328.18,-333.95 335.18,-334.25"/>
</g>
<!-- theorems/prop&#45;&gt;algebra/eilenberg_maclane -->
<g id="edge70" class="edge">
<title>theorems/prop&#45;&gt;algebra/eilenberg_maclane</title>
<path fill="none" stroke="black" d="M759.8,-361.59C740.89,-352.29 717.82,-339.3 699.84,-324 684.3,-310.78 649.55,-271.27 642.84,-252 637.58,-236.89 639.99,-231.74 642.84,-216 648.94,-182.37 645.96,-168.44 669.84,-144 685.11,-128.37 705.6,-117.21 725.87,-109.31"/>
<polygon fill="black" stroke="black" points="727.28,-112.52 735.46,-105.79 724.87,-105.95 727.28,-112.52"/>
</g>
<!-- theorems/prop&#45;&gt;types/ens -->
<g id="edge71" class="edge">
<title>theorems/prop&#45;&gt;types/ens</title>
<path fill="none" stroke="black" d="M787.34,-360.05C783.81,-352.09 779.52,-342.41 775.58,-333.51"/>
<polygon fill="black" stroke="black" points="778.74,-332 771.49,-324.28 772.34,-334.84 778.74,-332"/>
</g>
<!-- theorems/prop&#45;&gt;HITs/circle -->
<g id="edge72" class="edge">
<title>theorems/prop&#45;&gt;HITs/circle</title>
<path fill="none" stroke="black" d="M858.07,-367.13C907.31,-358.48 976.96,-344.13 1035.84,-324 1071.21,-311.91 1077.38,-302.47 1111.84,-288 1143.48,-274.72 1179.74,-261.38 1207.96,-251.41"/>
<polygon fill="black" stroke="black" points="1209.31,-254.65 1217.58,-248.03 1206.99,-248.04 1209.31,-254.65"/>
</g>
<!-- theorems/prop&#45;&gt;types/precategory -->
<g id="edge73" class="edge">
<title>theorems/prop&#45;&gt;types/precategory</title>
<path fill="none" stroke="black" d="M825.59,-361.29C844.97,-351.39 870.21,-338.49 891.23,-327.75"/>
<polygon fill="black" stroke="black" points="892.94,-330.81 900.25,-323.14 889.75,-324.58 892.94,-330.81"/>
</g>
<!-- theorems/classical -->
<g id="node55" class="node">
<title>theorems/classical</title>
<ellipse fill="none" stroke="black" cx="555.84" cy="-306" rx="96.68" ry="18"/>
<text text-anchor="middle" x="555.84" y="-302.3" font-family="Times,serif" font-size="14.00">theorems/classical</text>
</g>
<!-- theorems/prop&#45;&gt;theorems/classical -->
<g id="edge74" class="edge">
<title>theorems/prop&#45;&gt;theorems/classical</title>
<path fill="none" stroke="black" d="M748.19,-363.34C710.21,-352.21 656.35,-336.44 615.28,-324.41"/>
<polygon fill="black" stroke="black" points="616.25,-321.05 605.67,-321.59 614.28,-327.76 616.25,-321.05"/>
</g>
<!-- theorems/fibration&#45;&gt;theorems/hopf -->
<g id="edge64" class="edge">
<title>theorems/fibration&#45;&gt;theorems/hopf</title>
<path fill="none" stroke="black" d="M79.62,-287.99C61.95,-268.5 39.56,-236.61 58.84,-216 100,-172.01 539.83,-185.24 599.84,-180 625.53,-177.76 653.53,-174.87 678.68,-172.11"/>
<polygon fill="black" stroke="black" points="679.34,-175.56 688.9,-170.98 678.57,-168.6 679.34,-175.56"/>
</g>
<!-- theorems/functions&#45;&gt;algebra/group -->
<g id="edge65" class="edge">
<title>theorems/functions&#45;&gt;algebra/group</title>
<path fill="none" stroke="black" d="M1513.97,-216.94C1491.78,-206.72 1462.91,-193.42 1439.38,-182.59"/>
<polygon fill="black" stroke="black" points="1440.53,-179.27 1429.99,-178.26 1437.61,-185.63 1440.53,-179.27"/>
</g>
<!-- theorems/functions&#45;&gt;HITs/reals -->
<g id="edge66" class="edge">
<title>theorems/functions&#45;&gt;HITs/reals</title>
<path fill="none" stroke="black" d="M1548.84,-215.7C1548.84,-207.98 1548.84,-198.71 1548.84,-190.11"/>
<polygon fill="black" stroke="black" points="1552.34,-190.1 1548.84,-180.1 1545.34,-190.1 1552.34,-190.1"/>
</g>
<!-- cubical/connection -->
<g id="node50" class="node">
<title>cubical/connection</title>
<ellipse fill="none" stroke="black" cx="338.84" cy="-234" rx="96.68" ry="18"/>
<text text-anchor="middle" x="338.84" y="-230.3" font-family="Times,serif" font-size="14.00">cubical/connection</text>
</g>
<!-- cubical/path&#45;&gt;cubical/connection -->
<g id="edge60" class="edge">
<title>cubical/path&#45;&gt;cubical/connection</title>
<path fill="none" stroke="black" d="M334.32,-287.7C334.99,-279.98 335.78,-270.71 336.52,-262.11"/>
<polygon fill="black" stroke="black" points="340.01,-262.37 337.38,-252.1 333.03,-261.77 340.01,-262.37"/>
</g>
<!-- cubical/square -->
<g id="node53" class="node">
<title>cubical/square</title>
<ellipse fill="none" stroke="black" cx="145.84" cy="-234" rx="77.99" ry="18"/>
<text text-anchor="middle" x="145.84" y="-230.3" font-family="Times,serif" font-size="14.00">cubical/square</text>
</g>
<!-- cubical/path&#45;&gt;cubical/square -->
<g id="edge61" class="edge">
<title>cubical/path&#45;&gt;cubical/square</title>
<path fill="none" stroke="black" d="M295.45,-291C266.47,-280.16 226.08,-265.04 194.57,-253.24"/>
<polygon fill="black" stroke="black" points="195.7,-249.92 185.1,-249.7 193.24,-256.48 195.7,-249.92"/>
</g>
<!-- cubical/path&#45;&gt;cubical/V -->
<g id="edge62" class="edge">
<title>cubical/path&#45;&gt;cubical/V</title>
<path fill="none" stroke="black" d="M368.27,-290.67C395.89,-279.49 434.34,-263.93 463.57,-252.11"/>
<polygon fill="black" stroke="black" points="465.14,-255.25 473.1,-248.25 462.51,-248.76 465.14,-255.25"/>
</g>
<!-- cubical/example -->
<g id="node52" class="node">
<title>cubical/example</title>
<ellipse fill="none" stroke="black" cx="505.84" cy="-162" rx="85.29" ry="18"/>
<text text-anchor="middle" x="505.84" y="-158.3" font-family="Times,serif" font-size="14.00">cubical/example</text>
</g>
<!-- cubical/V&#45;&gt;cubical/example -->
<g id="edge63" class="edge">
<title>cubical/V&#45;&gt;cubical/example</title>
<path fill="none" stroke="black" d="M505.84,-215.7C505.84,-207.98 505.84,-198.71 505.84,-190.11"/>
<polygon fill="black" stroke="black" points="509.34,-190.1 505.84,-180.1 502.34,-190.1 509.34,-190.1"/>
</g>
</g>
</svg>
