<?xml version="1.0" encoding="UTF-8" standalone="no"?>
<!DOCTYPE svg PUBLIC "-//W3C//DTD SVG 1.1//EN"
 "http://www.w3.org/Graphics/SVG/1.1/DTD/svg11.dtd">
<!-- Generated by graphviz version 2.43.0 (0)
 -->
<!-- Title: dependency_map Pages: 1 -->
<svg width="1866pt" height="908pt"
 viewBox="0.00 0.00 1866.43 908.00" xmlns="http://www.w3.org/2000/svg" xmlns:xlink="http://www.w3.org/1999/xlink">
<g id="graph0" class="graph" transform="scale(1 1) rotate(0) translate(4 904)">
<title>dependency_map</title>
<polygon fill="white" stroke="transparent" points="-4,4 -4,-904 1862.43,-904 1862.43,4 -4,4"/>
<!-- proto -->
<g id="node1" class="node">
<title>proto</title>
<ellipse fill="none" stroke="black" cx="946.59" cy="-882" rx="36" ry="18"/>
<text text-anchor="middle" x="946.59" y="-878.3" font-family="Times,serif" font-size="14.00">proto</text>
</g>
<!-- types/eq -->
<g id="node2" class="node">
<title>types/eq</title>
<ellipse fill="none" stroke="black" cx="1018.59" cy="-810" rx="50.09" ry="18"/>
<text text-anchor="middle" x="1018.59" y="-806.3" font-family="Times,serif" font-size="14.00">types/eq</text>
</g>
<!-- proto&#45;&gt;types/eq -->
<g id="edge1" class="edge">
<title>proto&#45;&gt;types/eq</title>
<path fill="none" stroke="black" d="M962.57,-865.46C971.97,-856.32 984.04,-844.59 994.57,-834.35"/>
<polygon fill="black" stroke="black" points="997.18,-836.7 1001.91,-827.22 992.3,-831.68 997.18,-836.7"/>
</g>
<!-- support -->
<g id="node4" class="node">
<title>support</title>
<ellipse fill="none" stroke="black" cx="1018.59" cy="-738" rx="46.59" ry="18"/>
<text text-anchor="middle" x="1018.59" y="-734.3" font-family="Times,serif" font-size="14.00">support</text>
</g>
<!-- types/eq&#45;&gt;support -->
<g id="edge14" class="edge">
<title>types/eq&#45;&gt;support</title>
<path fill="none" stroke="black" d="M1018.59,-791.7C1018.59,-783.98 1018.59,-774.71 1018.59,-766.11"/>
<polygon fill="black" stroke="black" points="1022.09,-766.1 1018.59,-756.1 1015.09,-766.1 1022.09,-766.1"/>
</g>
<!-- meta/hott_theory -->
<g id="node3" class="node">
<title>meta/hott_theory</title>
<ellipse fill="none" stroke="black" cx="1091.59" cy="-882" rx="90.98" ry="18"/>
<text text-anchor="middle" x="1091.59" y="-878.3" font-family="Times,serif" font-size="14.00">meta/hott_theory</text>
</g>
<!-- meta/hott_theory&#45;&gt;types/eq -->
<g id="edge2" class="edge">
<title>meta/hott_theory&#45;&gt;types/eq</title>
<path fill="none" stroke="black" d="M1073.92,-864.05C1064.64,-855.16 1053.12,-844.11 1043,-834.41"/>
<polygon fill="black" stroke="black" points="1045.24,-831.7 1035.6,-827.31 1040.39,-836.75 1045.24,-831.7"/>
</g>
<!-- types/equiv -->
<g id="node5" class="node">
<title>types/equiv</title>
<ellipse fill="none" stroke="black" cx="1018.59" cy="-666" rx="64.19" ry="18"/>
<text text-anchor="middle" x="1018.59" y="-662.3" font-family="Times,serif" font-size="14.00">types/equiv</text>
</g>
<!-- support&#45;&gt;types/equiv -->
<g id="edge3" class="edge">
<title>support&#45;&gt;types/equiv</title>
<path fill="none" stroke="black" d="M1018.59,-719.7C1018.59,-711.98 1018.59,-702.71 1018.59,-694.11"/>
<polygon fill="black" stroke="black" points="1022.09,-694.1 1018.59,-684.1 1015.09,-694.1 1022.09,-694.1"/>
</g>
<!-- types/coproduct -->
<g id="node18" class="node">
<title>types/coproduct</title>
<ellipse fill="none" stroke="black" cx="1111.59" cy="-522" rx="85.29" ry="18"/>
<text text-anchor="middle" x="1111.59" y="-518.3" font-family="Times,serif" font-size="14.00">types/coproduct</text>
</g>
<!-- types/equiv&#45;&gt;types/coproduct -->
<g id="edge15" class="edge">
<title>types/equiv&#45;&gt;types/coproduct</title>
<path fill="none" stroke="black" d="M1079.03,-659.82C1110.95,-653.65 1147.57,-640.38 1167.59,-612 1176.82,-598.93 1173.92,-590.7 1167.59,-576 1162.59,-564.38 1153.64,-554.11 1144.35,-545.78"/>
<polygon fill="black" stroke="black" points="1146.46,-542.99 1136.54,-539.26 1141.97,-548.36 1146.46,-542.99"/>
</g>
<!-- types/heq -->
<g id="node19" class="node">
<title>types/heq</title>
<ellipse fill="none" stroke="black" cx="730.59" cy="-594" rx="55.79" ry="18"/>
<text text-anchor="middle" x="730.59" y="-590.3" font-family="Times,serif" font-size="14.00">types/heq</text>
</g>
<!-- types/equiv&#45;&gt;types/heq -->
<g id="edge16" class="edge">
<title>types/equiv&#45;&gt;types/heq</title>
<path fill="none" stroke="black" d="M971.68,-653.6C920.17,-641.08 837.63,-621.02 783.76,-607.92"/>
<polygon fill="black" stroke="black" points="784.26,-604.44 773.72,-605.48 782.61,-611.24 784.26,-604.44"/>
</g>
<!-- HITs/infinitesimal -->
<g id="node20" class="node">
<title>HITs/infinitesimal</title>
<ellipse fill="none" stroke="black" cx="935.59" cy="-594" rx="92.88" ry="18"/>
<text text-anchor="middle" x="935.59" y="-590.3" font-family="Times,serif" font-size="14.00">HITs/infinitesimal</text>
</g>
<!-- types/equiv&#45;&gt;HITs/infinitesimal -->
<g id="edge17" class="edge">
<title>types/equiv&#45;&gt;HITs/infinitesimal</title>
<path fill="none" stroke="black" d="M999.34,-648.76C988.6,-639.71 975.04,-628.27 963.19,-618.28"/>
<polygon fill="black" stroke="black" points="965.21,-615.4 955.31,-611.63 960.7,-620.76 965.21,-615.4"/>
</g>
<!-- types/lost -->
<g id="node21" class="node">
<title>types/lost</title>
<ellipse fill="none" stroke="black" cx="1102.59" cy="-594" rx="55.79" ry="18"/>
<text text-anchor="middle" x="1102.59" y="-590.3" font-family="Times,serif" font-size="14.00">types/lost</text>
</g>
<!-- types/equiv&#45;&gt;types/lost -->
<g id="edge18" class="edge">
<title>types/equiv&#45;&gt;types/lost</title>
<path fill="none" stroke="black" d="M1038.07,-648.76C1049.21,-639.49 1063.33,-627.71 1075.53,-617.55"/>
<polygon fill="black" stroke="black" points="1077.77,-620.24 1083.21,-611.15 1073.29,-614.86 1077.77,-620.24"/>
</g>
<!-- types/unit -->
<g id="node22" class="node">
<title>types/unit</title>
<ellipse fill="none" stroke="black" cx="1211.59" cy="-450" rx="57.69" ry="18"/>
<text text-anchor="middle" x="1211.59" y="-446.3" font-family="Times,serif" font-size="14.00">types/unit</text>
</g>
<!-- types/equiv&#45;&gt;types/unit -->
<g id="edge19" class="edge">
<title>types/equiv&#45;&gt;types/unit</title>
<path fill="none" stroke="black" d="M1078.8,-659.44C1113.69,-653.19 1156.03,-639.96 1183.59,-612 1218.52,-576.57 1218.73,-514.13 1215.4,-478.32"/>
<polygon fill="black" stroke="black" points="1218.86,-477.67 1214.29,-468.11 1211.9,-478.43 1218.86,-477.67"/>
</g>
<!-- types/sigma -->
<g id="node23" class="node">
<title>types/sigma</title>
<ellipse fill="none" stroke="black" cx="941.59" cy="-522" rx="66.89" ry="18"/>
<text text-anchor="middle" x="941.59" y="-518.3" font-family="Times,serif" font-size="14.00">types/sigma</text>
</g>
<!-- types/equiv&#45;&gt;types/sigma -->
<g id="edge20" class="edge">
<title>types/equiv&#45;&gt;types/sigma</title>
<path fill="none" stroke="black" d="M963.14,-656.58C914.54,-647.94 849.28,-632.81 833.59,-612 823.96,-599.22 825.13,-589.58 833.59,-576 844.79,-558.02 864.07,-545.97 883.26,-537.97"/>
<polygon fill="black" stroke="black" points="884.56,-541.22 892.64,-534.36 882.05,-534.69 884.56,-541.22"/>
</g>
<!-- structures -->
<g id="node6" class="node">
<title>structures</title>
<ellipse fill="none" stroke="black" cx="1031.59" cy="-378" rx="59.29" ry="18"/>
<text text-anchor="middle" x="1031.59" y="-374.3" font-family="Times,serif" font-size="14.00">structures</text>
</g>
<!-- HITs/interval -->
<g id="node7" class="node">
<title>HITs/interval</title>
<ellipse fill="none" stroke="black" cx="1388.59" cy="-306" rx="71.49" ry="18"/>
<text text-anchor="middle" x="1388.59" y="-302.3" font-family="Times,serif" font-size="14.00">HITs/interval</text>
</g>
<!-- structures&#45;&gt;HITs/interval -->
<g id="edge4" class="edge">
<title>structures&#45;&gt;HITs/interval</title>
<path fill="none" stroke="black" d="M1080.5,-367.87C1135.71,-357.5 1228.18,-339.96 1307.59,-324 1313.46,-322.82 1319.56,-321.58 1325.66,-320.32"/>
<polygon fill="black" stroke="black" points="1326.82,-323.65 1335.9,-318.2 1325.39,-316.8 1326.82,-323.65"/>
</g>
<!-- HITs/merely -->
<g id="node8" class="node">
<title>HITs/merely</title>
<ellipse fill="none" stroke="black" cx="664.59" cy="-306" rx="67.69" ry="18"/>
<text text-anchor="middle" x="664.59" y="-302.3" font-family="Times,serif" font-size="14.00">HITs/merely</text>
</g>
<!-- structures&#45;&gt;HITs/merely -->
<g id="edge5" class="edge">
<title>structures&#45;&gt;HITs/merely</title>
<path fill="none" stroke="black" d="M988.18,-365.57C980.04,-363.59 971.58,-361.65 963.59,-360 866.12,-339.91 840.35,-342.6 742.59,-324 736.75,-322.89 730.67,-321.67 724.6,-320.42"/>
<polygon fill="black" stroke="black" points="724.95,-316.91 714.44,-318.28 723.51,-323.76 724.95,-316.91"/>
</g>
<!-- HITs/trunc -->
<g id="node9" class="node">
<title>HITs/trunc</title>
<ellipse fill="none" stroke="black" cx="518.59" cy="-306" rx="59.59" ry="18"/>
<text text-anchor="middle" x="518.59" y="-302.3" font-family="Times,serif" font-size="14.00">HITs/trunc</text>
</g>
<!-- structures&#45;&gt;HITs/trunc -->
<g id="edge6" class="edge">
<title>structures&#45;&gt;HITs/trunc</title>
<path fill="none" stroke="black" d="M989,-365.32C980.62,-363.31 971.87,-361.42 963.59,-360 798.14,-331.56 753.09,-352.15 587.59,-324 582.27,-323.09 576.75,-322 571.26,-320.81"/>
<polygon fill="black" stroke="black" points="571.98,-317.39 561.45,-318.59 570.43,-324.21 571.98,-317.39"/>
</g>
<!-- types/nat -->
<g id="node10" class="node">
<title>types/nat</title>
<ellipse fill="none" stroke="black" cx="805.59" cy="-306" rx="53.89" ry="18"/>
<text text-anchor="middle" x="805.59" y="-302.3" font-family="Times,serif" font-size="14.00">types/nat</text>
</g>
<!-- structures&#45;&gt;types/nat -->
<g id="edge7" class="edge">
<title>structures&#45;&gt;types/nat</title>
<path fill="none" stroke="black" d="M991.71,-364.65C953.19,-352.72 894.82,-334.64 853.74,-321.91"/>
<polygon fill="black" stroke="black" points="854.53,-318.5 843.95,-318.88 852.46,-325.18 854.53,-318.5"/>
</g>
<!-- theorems/ua -->
<g id="node11" class="node">
<title>theorems/ua</title>
<ellipse fill="none" stroke="black" cx="1033.59" cy="-306" rx="68.79" ry="18"/>
<text text-anchor="middle" x="1033.59" y="-302.3" font-family="Times,serif" font-size="14.00">theorems/ua</text>
</g>
<!-- structures&#45;&gt;theorems/ua -->
<g id="edge8" class="edge">
<title>structures&#45;&gt;theorems/ua</title>
<path fill="none" stroke="black" d="M1032.09,-359.7C1032.31,-351.98 1032.57,-342.71 1032.82,-334.11"/>
<polygon fill="black" stroke="black" points="1036.32,-334.2 1033.1,-324.1 1029.32,-334 1036.32,-334.2"/>
</g>
<!-- cubical/cubes -->
<g id="node39" class="node">
<title>cubical/cubes</title>
<ellipse fill="none" stroke="black" cx="1529.59" cy="-234" rx="73.39" ry="18"/>
<text text-anchor="middle" x="1529.59" y="-230.3" font-family="Times,serif" font-size="14.00">cubical/cubes</text>
</g>
<!-- HITs/interval&#45;&gt;cubical/cubes -->
<g id="edge41" class="edge">
<title>HITs/interval&#45;&gt;cubical/cubes</title>
<path fill="none" stroke="black" d="M1419.53,-289.64C1439.96,-279.5 1466.94,-266.1 1489.08,-255.11"/>
<polygon fill="black" stroke="black" points="1490.83,-258.15 1498.23,-250.57 1487.72,-251.88 1490.83,-258.15"/>
</g>
<!-- theorems/prop -->
<g id="node40" class="node">
<title>theorems/prop</title>
<ellipse fill="none" stroke="black" cx="975.59" cy="-234" rx="79.09" ry="18"/>
<text text-anchor="middle" x="975.59" y="-230.3" font-family="Times,serif" font-size="14.00">theorems/prop</text>
</g>
<!-- HITs/interval&#45;&gt;theorems/prop -->
<g id="edge42" class="edge">
<title>HITs/interval&#45;&gt;theorems/prop</title>
<path fill="none" stroke="black" d="M1336.38,-293.65C1326.82,-291.69 1316.92,-289.72 1307.59,-288 1219.69,-271.77 1118.15,-255.99 1050.75,-245.93"/>
<polygon fill="black" stroke="black" points="1051.05,-242.44 1040.64,-244.43 1050.02,-249.36 1051.05,-242.44"/>
</g>
<!-- theorems/fibration -->
<g id="node41" class="node">
<title>theorems/fibration</title>
<ellipse fill="none" stroke="black" cx="1388.59" cy="-162" rx="96.68" ry="18"/>
<text text-anchor="middle" x="1388.59" y="-158.3" font-family="Times,serif" font-size="14.00">theorems/fibration</text>
</g>
<!-- HITs/interval&#45;&gt;theorems/fibration -->
<g id="edge43" class="edge">
<title>HITs/interval&#45;&gt;theorems/fibration</title>
<path fill="none" stroke="black" d="M1388.59,-287.87C1388.59,-263.67 1388.59,-219.21 1388.59,-190.39"/>
<polygon fill="black" stroke="black" points="1392.09,-190.19 1388.59,-180.19 1385.09,-190.19 1392.09,-190.19"/>
</g>
<!-- HITs/merely&#45;&gt;theorems/prop -->
<g id="edge44" class="edge">
<title>HITs/merely&#45;&gt;theorems/prop</title>
<path fill="none" stroke="black" d="M714.56,-293.75C768.04,-281.72 853.06,-262.58 911.45,-249.44"/>
<polygon fill="black" stroke="black" points="912.32,-252.83 921.3,-247.22 910.78,-246 912.32,-252.83"/>
</g>
<!-- HITs/simplicial -->
<g id="node43" class="node">
<title>HITs/simplicial</title>
<ellipse fill="none" stroke="black" cx="635.59" cy="-234" rx="79.09" ry="18"/>
<text text-anchor="middle" x="635.59" y="-230.3" font-family="Times,serif" font-size="14.00">HITs/simplicial</text>
</g>
<!-- HITs/merely&#45;&gt;HITs/simplicial -->
<g id="edge45" class="edge">
<title>HITs/merely&#45;&gt;HITs/simplicial</title>
<path fill="none" stroke="black" d="M657.57,-288.05C654.31,-280.18 650.35,-270.62 646.69,-261.79"/>
<polygon fill="black" stroke="black" points="649.81,-260.17 642.75,-252.28 643.34,-262.85 649.81,-260.17"/>
</g>
<!-- theorems/functions -->
<g id="node44" class="node">
<title>theorems/functions</title>
<ellipse fill="none" stroke="black" cx="322.59" cy="-162" rx="100.98" ry="18"/>
<text text-anchor="middle" x="322.59" y="-158.3" font-family="Times,serif" font-size="14.00">theorems/functions</text>
</g>
<!-- HITs/merely&#45;&gt;theorems/functions -->
<g id="edge46" class="edge">
<title>HITs/merely&#45;&gt;theorems/functions</title>
<path fill="none" stroke="black" d="M625.76,-291.19C602.13,-281.9 571.93,-268.36 547.59,-252 528.28,-239.02 529.81,-227.5 509.59,-216 477.29,-197.62 438.18,-185.25 404.08,-177.11"/>
<polygon fill="black" stroke="black" points="404.68,-173.66 394.15,-174.83 403.11,-180.48 404.68,-173.66"/>
</g>
<!-- HITs/quotient -->
<g id="node38" class="node">
<title>HITs/quotient</title>
<ellipse fill="none" stroke="black" cx="426.59" cy="-234" rx="74.19" ry="18"/>
<text text-anchor="middle" x="426.59" y="-230.3" font-family="Times,serif" font-size="14.00">HITs/quotient</text>
</g>
<!-- HITs/trunc&#45;&gt;HITs/quotient -->
<g id="edge51" class="edge">
<title>HITs/trunc&#45;&gt;HITs/quotient</title>
<path fill="none" stroke="black" d="M497.72,-289.12C485.42,-279.76 469.68,-267.78 456.13,-257.47"/>
<polygon fill="black" stroke="black" points="458.1,-254.58 448.02,-251.31 453.86,-260.15 458.1,-254.58"/>
</g>
<!-- theorems/nat -->
<g id="node28" class="node">
<title>theorems/nat</title>
<ellipse fill="none" stroke="black" cx="805.59" cy="-234" rx="72.59" ry="18"/>
<text text-anchor="middle" x="805.59" y="-230.3" font-family="Times,serif" font-size="14.00">theorems/nat</text>
</g>
<!-- types/nat&#45;&gt;theorems/nat -->
<g id="edge25" class="edge">
<title>types/nat&#45;&gt;theorems/nat</title>
<path fill="none" stroke="black" d="M805.59,-287.7C805.59,-279.98 805.59,-270.71 805.59,-262.11"/>
<polygon fill="black" stroke="black" points="809.09,-262.1 805.59,-252.1 802.09,-262.1 809.09,-262.1"/>
</g>
<!-- theorems/ua&#45;&gt;theorems/nat -->
<g id="edge67" class="edge">
<title>theorems/ua&#45;&gt;theorems/nat</title>
<path fill="none" stroke="black" d="M990.71,-291.83C953.41,-280.38 899.19,-263.74 859.07,-251.42"/>
<polygon fill="black" stroke="black" points="860.04,-248.05 849.45,-248.46 857.98,-254.75 860.04,-248.05"/>
</g>
<!-- cubical/V -->
<g id="node49" class="node">
<title>cubical/V</title>
<ellipse fill="none" stroke="black" cx="1415.59" cy="-90" rx="52.79" ry="18"/>
<text text-anchor="middle" x="1415.59" y="-86.3" font-family="Times,serif" font-size="14.00">cubical/V</text>
</g>
<!-- theorems/ua&#45;&gt;cubical/V -->
<g id="edge68" class="edge">
<title>theorems/ua&#45;&gt;cubical/V</title>
<path fill="none" stroke="black" d="M1055.37,-288.83C1097.62,-257.94 1194.31,-189.58 1282.59,-144 1310.7,-129.49 1343.72,-116.31 1369.83,-106.72"/>
<polygon fill="black" stroke="black" points="1371.26,-109.93 1379.47,-103.23 1368.88,-103.35 1371.26,-109.93"/>
</g>
<!-- theorems/classical -->
<g id="node50" class="node">
<title>theorems/classical</title>
<ellipse fill="none" stroke="black" cx="1100.59" cy="-162" rx="96.68" ry="18"/>
<text text-anchor="middle" x="1100.59" y="-158.3" font-family="Times,serif" font-size="14.00">theorems/classical</text>
</g>
<!-- theorems/ua&#45;&gt;theorems/classical -->
<g id="edge69" class="edge">
<title>theorems/ua&#45;&gt;theorems/classical</title>
<path fill="none" stroke="black" d="M1043.85,-288.1C1049.92,-277.82 1057.56,-264.35 1063.59,-252 1073.65,-231.42 1083.53,-207.4 1090.55,-189.5"/>
<polygon fill="black" stroke="black" points="1093.88,-190.59 1094.23,-180 1087.35,-188.06 1093.88,-190.59"/>
</g>
<!-- algebra/eilenberg_maclane -->
<g id="node12" class="node">
<title>algebra/eilenberg_maclane</title>
<ellipse fill="none" stroke="black" cx="657.59" cy="-18" rx="135.68" ry="18"/>
<text text-anchor="middle" x="657.59" y="-14.3" font-family="Times,serif" font-size="14.00">algebra/eilenberg_maclane</text>
</g>
<!-- algebra/finite -->
<g id="node13" class="node">
<title>algebra/finite</title>
<ellipse fill="none" stroke="black" cx="430.59" cy="-18" rx="72.59" ry="18"/>
<text text-anchor="middle" x="430.59" y="-14.3" font-family="Times,serif" font-size="14.00">algebra/finite</text>
</g>
<!-- algebra/group -->
<g id="node14" class="node">
<title>algebra/group</title>
<ellipse fill="none" stroke="black" cx="322.59" cy="-90" rx="76.09" ry="18"/>
<text text-anchor="middle" x="322.59" y="-86.3" font-family="Times,serif" font-size="14.00">algebra/group</text>
</g>
<!-- algebra/group&#45;&gt;algebra/eilenberg_maclane -->
<g id="edge9" class="edge">
<title>algebra/group&#45;&gt;algebra/eilenberg_maclane</title>
<path fill="none" stroke="black" d="M377.54,-77.52C432.04,-66.13 516.15,-48.55 577.97,-35.64"/>
<polygon fill="black" stroke="black" points="579.01,-39 588.08,-33.52 577.58,-32.14 579.01,-39"/>
</g>
<!-- algebra/group&#45;&gt;algebra/finite -->
<g id="edge10" class="edge">
<title>algebra/group&#45;&gt;algebra/finite</title>
<path fill="none" stroke="black" d="M347.37,-72.94C362.19,-63.34 381.21,-51.01 397.32,-40.56"/>
<polygon fill="black" stroke="black" points="399.44,-43.36 405.93,-34.98 395.63,-37.49 399.44,-43.36"/>
</g>
<!-- algebra/homology -->
<g id="node15" class="node">
<title>algebra/homology</title>
<ellipse fill="none" stroke="black" cx="93.59" cy="-18" rx="93.68" ry="18"/>
<text text-anchor="middle" x="93.59" y="-14.3" font-family="Times,serif" font-size="14.00">algebra/homology</text>
</g>
<!-- algebra/group&#45;&gt;algebra/homology -->
<g id="edge11" class="edge">
<title>algebra/group&#45;&gt;algebra/homology</title>
<path fill="none" stroke="black" d="M277.89,-75.34C241.66,-64.26 190.33,-48.57 151.05,-36.56"/>
<polygon fill="black" stroke="black" points="151.92,-33.17 141.33,-33.59 149.87,-39.86 151.92,-33.17"/>
</g>
<!-- algebra/ring -->
<g id="node16" class="node">
<title>algebra/ring</title>
<ellipse fill="none" stroke="black" cx="272.59" cy="-18" rx="67.69" ry="18"/>
<text text-anchor="middle" x="272.59" y="-14.3" font-family="Times,serif" font-size="14.00">algebra/ring</text>
</g>
<!-- algebra/group&#45;&gt;algebra/ring -->
<g id="edge12" class="edge">
<title>algebra/group&#45;&gt;algebra/ring</title>
<path fill="none" stroke="black" d="M310.49,-72.05C304.47,-63.63 297.08,-53.28 290.42,-43.97"/>
<polygon fill="black" stroke="black" points="293.24,-41.89 284.58,-35.79 287.55,-45.96 293.24,-41.89"/>
</g>
<!-- types/category -->
<g id="node17" class="node">
<title>types/category</title>
<ellipse fill="none" stroke="black" cx="852.59" cy="-90" rx="79.09" ry="18"/>
<text text-anchor="middle" x="852.59" y="-86.3" font-family="Times,serif" font-size="14.00">types/category</text>
</g>
<!-- types/coproduct&#45;&gt;structures -->
<g id="edge13" class="edge">
<title>types/coproduct&#45;&gt;structures</title>
<path fill="none" stroke="black" d="M1101.94,-503.87C1088.13,-479.35 1062.6,-434.03 1046.39,-405.26"/>
<polygon fill="black" stroke="black" points="1049.23,-403.18 1041.28,-396.19 1043.13,-406.62 1049.23,-403.18"/>
</g>
<!-- HITs/graph -->
<g id="node24" class="node">
<title>HITs/graph</title>
<ellipse fill="none" stroke="black" cx="654.59" cy="-450" rx="62.29" ry="18"/>
<text text-anchor="middle" x="654.59" y="-446.3" font-family="Times,serif" font-size="14.00">HITs/graph</text>
</g>
<!-- types/heq&#45;&gt;HITs/graph -->
<g id="edge21" class="edge">
<title>types/heq&#45;&gt;HITs/graph</title>
<path fill="none" stroke="black" d="M707.92,-577.34C695.93,-567.88 681.99,-554.81 673.59,-540 662.84,-521.05 658.16,-496.68 656.13,-478.24"/>
<polygon fill="black" stroke="black" points="659.6,-477.79 655.21,-468.15 652.63,-478.42 659.6,-477.79"/>
</g>
<!-- theorems/funext -->
<g id="node25" class="node">
<title>theorems/funext</title>
<ellipse fill="none" stroke="black" cx="769.59" cy="-522" rx="87.18" ry="18"/>
<text text-anchor="middle" x="769.59" y="-518.3" font-family="Times,serif" font-size="14.00">theorems/funext</text>
</g>
<!-- types/heq&#45;&gt;theorems/funext -->
<g id="edge22" class="edge">
<title>types/heq&#45;&gt;theorems/funext</title>
<path fill="none" stroke="black" d="M740.03,-576.05C744.52,-568.01 749.98,-558.2 754.98,-549.23"/>
<polygon fill="black" stroke="black" points="758.16,-550.71 759.97,-540.28 752.04,-547.31 758.16,-550.71"/>
</g>
<!-- types/unit&#45;&gt;structures -->
<g id="edge29" class="edge">
<title>types/unit&#45;&gt;structures</title>
<path fill="none" stroke="black" d="M1176.89,-435.5C1148.09,-424.31 1106.97,-408.31 1075.82,-396.2"/>
<polygon fill="black" stroke="black" points="1077.09,-392.94 1066.5,-392.57 1074.55,-399.46 1077.09,-392.94"/>
</g>
<!-- HITs/suspension -->
<g id="node31" class="node">
<title>HITs/suspension</title>
<ellipse fill="none" stroke="black" cx="1211.59" cy="-306" rx="87.18" ry="18"/>
<text text-anchor="middle" x="1211.59" y="-302.3" font-family="Times,serif" font-size="14.00">HITs/suspension</text>
</g>
<!-- types/unit&#45;&gt;HITs/suspension -->
<g id="edge30" class="edge">
<title>types/unit&#45;&gt;HITs/suspension</title>
<path fill="none" stroke="black" d="M1211.59,-431.87C1211.59,-407.67 1211.59,-363.21 1211.59,-334.39"/>
<polygon fill="black" stroke="black" points="1215.09,-334.19 1211.59,-324.19 1208.09,-334.19 1215.09,-334.19"/>
</g>
<!-- types/sigma&#45;&gt;structures -->
<g id="edge28" class="edge">
<title>types/sigma&#45;&gt;structures</title>
<path fill="none" stroke="black" d="M952.27,-504.15C967.9,-479.49 997.13,-433.37 1015.41,-404.53"/>
<polygon fill="black" stroke="black" points="1018.53,-406.15 1020.93,-395.82 1012.62,-402.4 1018.53,-406.15"/>
</g>
<!-- HITs/colimit -->
<g id="node35" class="node">
<title>HITs/colimit</title>
<ellipse fill="none" stroke="black" cx="723.59" cy="-378" rx="66.89" ry="18"/>
<text text-anchor="middle" x="723.59" y="-374.3" font-family="Times,serif" font-size="14.00">HITs/colimit</text>
</g>
<!-- HITs/graph&#45;&gt;HITs/colimit -->
<g id="edge37" class="edge">
<title>HITs/graph&#45;&gt;HITs/colimit</title>
<path fill="none" stroke="black" d="M670.94,-432.41C679.71,-423.52 690.66,-412.41 700.3,-402.63"/>
<polygon fill="black" stroke="black" points="702.83,-405.05 707.36,-395.47 697.84,-400.13 702.83,-405.05"/>
</g>
<!-- HITs/generalized -->
<g id="node36" class="node">
<title>HITs/generalized</title>
<ellipse fill="none" stroke="black" cx="549.59" cy="-378" rx="89.08" ry="18"/>
<text text-anchor="middle" x="549.59" y="-374.3" font-family="Times,serif" font-size="14.00">HITs/generalized</text>
</g>
<!-- HITs/graph&#45;&gt;HITs/generalized -->
<g id="edge38" class="edge">
<title>HITs/graph&#45;&gt;HITs/generalized</title>
<path fill="none" stroke="black" d="M631.03,-433.29C616.74,-423.77 598.3,-411.47 582.58,-400.99"/>
<polygon fill="black" stroke="black" points="584.43,-398.02 574.17,-395.39 580.55,-403.85 584.43,-398.02"/>
</g>
<!-- HITs/pushout -->
<g id="node37" class="node">
<title>HITs/pushout</title>
<ellipse fill="none" stroke="black" cx="881.59" cy="-378" rx="72.59" ry="18"/>
<text text-anchor="middle" x="881.59" y="-374.3" font-family="Times,serif" font-size="14.00">HITs/pushout</text>
</g>
<!-- HITs/graph&#45;&gt;HITs/pushout -->
<g id="edge39" class="edge">
<title>HITs/graph&#45;&gt;HITs/pushout</title>
<path fill="none" stroke="black" d="M695.7,-436.32C732.76,-424.89 787.5,-408.02 827.99,-395.53"/>
<polygon fill="black" stroke="black" points="829.17,-398.83 837.69,-392.54 827.1,-392.14 829.17,-398.83"/>
</g>
<!-- HITs/graph&#45;&gt;HITs/quotient -->
<g id="edge40" class="edge">
<title>HITs/graph&#45;&gt;HITs/quotient</title>
<path fill="none" stroke="black" d="M599.1,-441.43C546.01,-433.02 471.19,-417.69 451.59,-396 418.42,-359.29 418.91,-297.59 422.54,-262.18"/>
<polygon fill="black" stroke="black" points="426.04,-262.44 423.74,-252.09 419.09,-261.61 426.04,-262.44"/>
</g>
<!-- types/product -->
<g id="node30" class="node">
<title>types/product</title>
<ellipse fill="none" stroke="black" cx="869.59" cy="-450" rx="75.29" ry="18"/>
<text text-anchor="middle" x="869.59" y="-446.3" font-family="Times,serif" font-size="14.00">types/product</text>
</g>
<!-- theorems/funext&#45;&gt;types/product -->
<g id="edge60" class="edge">
<title>theorems/funext&#45;&gt;types/product</title>
<path fill="none" stroke="black" d="M793.04,-504.59C806.45,-495.2 823.46,-483.29 838.04,-473.09"/>
<polygon fill="black" stroke="black" points="840.11,-475.91 846.29,-467.31 836.09,-470.18 840.11,-475.91"/>
</g>
<!-- types/integer -->
<g id="node26" class="node">
<title>types/integer</title>
<ellipse fill="none" stroke="black" cx="628.59" cy="-162" rx="72.59" ry="18"/>
<text text-anchor="middle" x="628.59" y="-158.3" font-family="Times,serif" font-size="14.00">types/integer</text>
</g>
<!-- types/integer&#45;&gt;algebra/group -->
<g id="edge23" class="edge">
<title>types/integer&#45;&gt;algebra/group</title>
<path fill="none" stroke="black" d="M577.03,-149.2C524.08,-137.09 441.65,-118.23 385.04,-105.29"/>
<polygon fill="black" stroke="black" points="385.66,-101.84 375.14,-103.02 384.1,-108.66 385.66,-101.84"/>
</g>
<!-- HITs/circle -->
<g id="node27" class="node">
<title>HITs/circle</title>
<ellipse fill="none" stroke="black" cx="1017.59" cy="-90" rx="60.39" ry="18"/>
<text text-anchor="middle" x="1017.59" y="-86.3" font-family="Times,serif" font-size="14.00">HITs/circle</text>
</g>
<!-- types/integer&#45;&gt;HITs/circle -->
<g id="edge24" class="edge">
<title>types/integer&#45;&gt;HITs/circle</title>
<path fill="none" stroke="black" d="M688.56,-151.71C751.5,-141.75 853.23,-125.05 940.59,-108 947.27,-106.7 954.26,-105.26 961.19,-103.79"/>
<polygon fill="black" stroke="black" points="962.21,-107.15 971.25,-101.62 960.74,-100.3 962.21,-107.15"/>
</g>
<!-- theorems/hopf -->
<g id="node32" class="node">
<title>theorems/hopf</title>
<ellipse fill="none" stroke="black" cx="1219.59" cy="-18" rx="77.99" ry="18"/>
<text text-anchor="middle" x="1219.59" y="-14.3" font-family="Times,serif" font-size="14.00">theorems/hopf</text>
</g>
<!-- HITs/circle&#45;&gt;theorems/hopf -->
<g id="edge31" class="edge">
<title>HITs/circle&#45;&gt;theorems/hopf</title>
<path fill="none" stroke="black" d="M1055.59,-75.83C1087.55,-64.76 1133.54,-48.82 1168.69,-36.64"/>
<polygon fill="black" stroke="black" points="1169.99,-39.89 1178.29,-33.31 1167.7,-33.28 1169.99,-39.89"/>
</g>
<!-- HITs/moebius -->
<g id="node33" class="node">
<title>HITs/moebius</title>
<ellipse fill="none" stroke="black" cx="1019.59" cy="-18" rx="74.19" ry="18"/>
<text text-anchor="middle" x="1019.59" y="-14.3" font-family="Times,serif" font-size="14.00">HITs/moebius</text>
</g>
<!-- HITs/circle&#45;&gt;HITs/moebius -->
<g id="edge32" class="edge">
<title>HITs/circle&#45;&gt;HITs/moebius</title>
<path fill="none" stroke="black" d="M1018.09,-71.7C1018.31,-63.98 1018.57,-54.71 1018.82,-46.11"/>
<polygon fill="black" stroke="black" points="1022.32,-46.2 1019.1,-36.1 1015.32,-46 1022.32,-46.2"/>
</g>
<!-- HITs/reals -->
<g id="node34" class="node">
<title>HITs/reals</title>
<ellipse fill="none" stroke="black" cx="869.59" cy="-18" rx="57.69" ry="18"/>
<text text-anchor="middle" x="869.59" y="-14.3" font-family="Times,serif" font-size="14.00">HITs/reals</text>
</g>
<!-- HITs/circle&#45;&gt;HITs/reals -->
<g id="edge33" class="edge">
<title>HITs/circle&#45;&gt;HITs/reals</title>
<path fill="none" stroke="black" d="M986.57,-74.33C964.12,-63.71 933.59,-49.27 909.36,-37.81"/>
<polygon fill="black" stroke="black" points="910.61,-34.53 900.07,-33.42 907.61,-40.85 910.61,-34.53"/>
</g>
<!-- theorems/nat&#45;&gt;types/integer -->
<g id="edge61" class="edge">
<title>theorems/nat&#45;&gt;types/integer</title>
<path fill="none" stroke="black" d="M768.49,-218.33C741.35,-207.59 704.34,-192.96 675.2,-181.43"/>
<polygon fill="black" stroke="black" points="676.23,-178.08 665.65,-177.65 673.66,-184.59 676.23,-178.08"/>
</g>
<!-- HITs/int -->
<g id="node51" class="node">
<title>HITs/int</title>
<ellipse fill="none" stroke="black" cx="489.59" cy="-162" rx="48.19" ry="18"/>
<text text-anchor="middle" x="489.59" y="-158.3" font-family="Times,serif" font-size="14.00">HITs/int</text>
</g>
<!-- theorems/nat&#45;&gt;HITs/int -->
<g id="edge62" class="edge">
<title>theorems/nat&#45;&gt;HITs/int</title>
<path fill="none" stroke="black" d="M751.79,-221.81C742.39,-219.87 732.71,-217.87 723.59,-216 644.96,-199.85 624.47,-199.49 546.59,-180 542.81,-179.05 538.91,-178.02 535,-176.94"/>
<polygon fill="black" stroke="black" points="535.91,-173.56 525.34,-174.19 534,-180.29 535.91,-173.56"/>
</g>
<!-- types/precategory -->
<g id="node29" class="node">
<title>types/precategory</title>
<ellipse fill="none" stroke="black" cx="852.59" cy="-162" rx="94.78" ry="18"/>
<text text-anchor="middle" x="852.59" y="-158.3" font-family="Times,serif" font-size="14.00">types/precategory</text>
</g>
<!-- types/precategory&#45;&gt;types/category -->
<g id="edge26" class="edge">
<title>types/precategory&#45;&gt;types/category</title>
<path fill="none" stroke="black" d="M852.59,-143.7C852.59,-135.98 852.59,-126.71 852.59,-118.11"/>
<polygon fill="black" stroke="black" points="856.09,-118.1 852.59,-108.1 849.09,-118.1 856.09,-118.1"/>
</g>
<!-- types/product&#45;&gt;structures -->
<g id="edge27" class="edge">
<title>types/product&#45;&gt;structures</title>
<path fill="none" stroke="black" d="M904.34,-433.98C929.27,-423.21 962.98,-408.65 989.44,-397.21"/>
<polygon fill="black" stroke="black" points="991.04,-400.34 998.83,-393.16 988.26,-393.91 991.04,-400.34"/>
</g>
<!-- HITs/suspension&#45;&gt;HITs/circle -->
<g id="edge49" class="edge">
<title>HITs/suspension&#45;&gt;HITs/circle</title>
<path fill="none" stroke="black" d="M1217.02,-287.77C1225.95,-255.7 1239.69,-186.28 1206.59,-144 1190.92,-123.98 1129.3,-109.29 1080.63,-100.52"/>
<polygon fill="black" stroke="black" points="1081.22,-97.07 1070.77,-98.79 1080.02,-103.97 1081.22,-97.07"/>
</g>
<!-- HITs/join -->
<g id="node42" class="node">
<title>HITs/join</title>
<ellipse fill="none" stroke="black" cx="1305.59" cy="-234" rx="51.99" ry="18"/>
<text text-anchor="middle" x="1305.59" y="-230.3" font-family="Times,serif" font-size="14.00">HITs/join</text>
</g>
<!-- HITs/suspension&#45;&gt;HITs/join -->
<g id="edge50" class="edge">
<title>HITs/suspension&#45;&gt;HITs/join</title>
<path fill="none" stroke="black" d="M1233.87,-288.41C1246.64,-278.9 1262.81,-266.86 1276.56,-256.62"/>
<polygon fill="black" stroke="black" points="1278.83,-259.29 1284.76,-250.51 1274.65,-253.68 1278.83,-259.29"/>
</g>
<!-- HITs/colimit&#45;&gt;HITs/merely -->
<g id="edge34" class="edge">
<title>HITs/colimit&#45;&gt;HITs/merely</title>
<path fill="none" stroke="black" d="M709.31,-360.05C702.13,-351.54 693.31,-341.07 685.39,-331.68"/>
<polygon fill="black" stroke="black" points="687.86,-329.18 678.74,-323.79 682.51,-333.69 687.86,-329.18"/>
</g>
<!-- HITs/colimit&#45;&gt;types/nat -->
<g id="edge35" class="edge">
<title>HITs/colimit&#45;&gt;types/nat</title>
<path fill="none" stroke="black" d="M743.02,-360.41C753.8,-351.21 767.35,-339.64 779.09,-329.63"/>
<polygon fill="black" stroke="black" points="781.53,-332.14 786.86,-322.99 776.98,-326.82 781.53,-332.14"/>
</g>
<!-- HITs/generalized&#45;&gt;HITs/merely -->
<g id="edge36" class="edge">
<title>HITs/generalized&#45;&gt;HITs/merely</title>
<path fill="none" stroke="black" d="M576.26,-360.76C592.31,-351 612.91,-338.46 630.17,-327.95"/>
<polygon fill="black" stroke="black" points="632.13,-330.86 638.86,-322.67 628.49,-324.88 632.13,-330.86"/>
</g>
<!-- HITs/pushout&#45;&gt;HITs/suspension -->
<g id="edge47" class="edge">
<title>HITs/pushout&#45;&gt;HITs/suspension</title>
<path fill="none" stroke="black" d="M934.98,-365.68C991.66,-353.65 1081.41,-334.61 1143.22,-321.5"/>
<polygon fill="black" stroke="black" points="1144.22,-324.87 1153.28,-319.37 1142.77,-318.02 1144.22,-324.87"/>
</g>
<!-- HITs/quotient&#45;&gt;algebra/group -->
<g id="edge48" class="edge">
<title>HITs/quotient&#45;&gt;algebra/group</title>
<path fill="none" stroke="black" d="M360.94,-225.59C304.99,-217.77 230.81,-203.29 212.59,-180 202.73,-167.4 204.08,-157.55 212.59,-144 223.54,-126.57 242.01,-114.74 260.72,-106.77"/>
<polygon fill="black" stroke="black" points="262.16,-109.96 270.18,-103.05 259.6,-103.44 262.16,-109.96"/>
</g>
<!-- cubical/path -->
<g id="node46" class="node">
<title>cubical/path</title>
<ellipse fill="none" stroke="black" cx="1570.59" cy="-162" rx="67.69" ry="18"/>
<text text-anchor="middle" x="1570.59" y="-158.3" font-family="Times,serif" font-size="14.00">cubical/path</text>
</g>
<!-- cubical/cubes&#45;&gt;cubical/path -->
<g id="edge52" class="edge">
<title>cubical/cubes&#45;&gt;cubical/path</title>
<path fill="none" stroke="black" d="M1539.52,-216.05C1544.28,-207.92 1550.09,-198 1555.4,-188.94"/>
<polygon fill="black" stroke="black" points="1558.44,-190.67 1560.47,-180.28 1552.4,-187.14 1558.44,-190.67"/>
</g>
<!-- theorems/prop&#45;&gt;algebra/eilenberg_maclane -->
<g id="edge63" class="edge">
<title>theorems/prop&#45;&gt;algebra/eilenberg_maclane</title>
<path fill="none" stroke="black" d="M916.98,-221.85C854.32,-209.54 762.09,-190.11 748.59,-180 703.22,-146.01 677.14,-82.32 665.33,-46.06"/>
<polygon fill="black" stroke="black" points="668.57,-44.69 662.25,-36.19 661.89,-46.77 668.57,-44.69"/>
</g>
<!-- theorems/prop&#45;&gt;HITs/circle -->
<g id="edge64" class="edge">
<title>theorems/prop&#45;&gt;HITs/circle</title>
<path fill="none" stroke="black" d="M978.18,-216.01C981.18,-197.9 986.74,-168.53 994.59,-144 997.45,-135.07 1001.29,-125.6 1005,-117.17"/>
<polygon fill="black" stroke="black" points="1008.29,-118.41 1009.25,-107.85 1001.92,-115.5 1008.29,-118.41"/>
</g>
<!-- theorems/prop&#45;&gt;types/precategory -->
<g id="edge65" class="edge">
<title>theorems/prop&#45;&gt;types/precategory</title>
<path fill="none" stroke="black" d="M947.68,-217.12C930.63,-207.41 908.6,-194.87 890.04,-184.31"/>
<polygon fill="black" stroke="black" points="891.67,-181.21 881.25,-179.31 888.21,-187.3 891.67,-181.21"/>
</g>
<!-- theorems/prop&#45;&gt;theorems/classical -->
<g id="edge66" class="edge">
<title>theorems/prop&#45;&gt;theorems/classical</title>
<path fill="none" stroke="black" d="M1003.96,-217.12C1021.29,-207.41 1043.67,-194.87 1062.53,-184.31"/>
<polygon fill="black" stroke="black" points="1064.46,-187.25 1071.47,-179.31 1061.04,-181.14 1064.46,-187.25"/>
</g>
<!-- theorems/fibration&#45;&gt;theorems/hopf -->
<g id="edge57" class="edge">
<title>theorems/fibration&#45;&gt;theorems/hopf</title>
<path fill="none" stroke="black" d="M1368.54,-144.15C1338.35,-118.78 1281.13,-70.71 1247.07,-42.09"/>
<polygon fill="black" stroke="black" points="1249.26,-39.36 1239.35,-35.61 1244.76,-44.72 1249.26,-39.36"/>
</g>
<!-- theorems/functions&#45;&gt;algebra/group -->
<g id="edge58" class="edge">
<title>theorems/functions&#45;&gt;algebra/group</title>
<path fill="none" stroke="black" d="M322.59,-143.7C322.59,-135.98 322.59,-126.71 322.59,-118.11"/>
<polygon fill="black" stroke="black" points="326.09,-118.1 322.59,-108.1 319.09,-118.1 326.09,-118.1"/>
</g>
<!-- theorems/functions&#45;&gt;HITs/reals -->
<g id="edge59" class="edge">
<title>theorems/functions&#45;&gt;HITs/reals</title>
<path fill="none" stroke="black" d="M377.29,-146.8C482.69,-119.44 712.66,-59.74 816.65,-32.74"/>
<polygon fill="black" stroke="black" points="817.82,-36.06 826.61,-30.16 816.06,-29.28 817.82,-36.06"/>
</g>
<!-- cubical/connection -->
<g id="node45" class="node">
<title>cubical/connection</title>
<ellipse fill="none" stroke="black" cx="1761.59" cy="-90" rx="96.68" ry="18"/>
<text text-anchor="middle" x="1761.59" y="-86.3" font-family="Times,serif" font-size="14.00">cubical/connection</text>
</g>
<!-- cubical/path&#45;&gt;cubical/connection -->
<g id="edge53" class="edge">
<title>cubical/path&#45;&gt;cubical/connection</title>
<path fill="none" stroke="black" d="M1608.78,-147C1637.89,-136.34 1678.26,-121.54 1710.2,-109.83"/>
<polygon fill="black" stroke="black" points="1711.63,-113.04 1719.82,-106.31 1709.23,-106.46 1711.63,-113.04"/>
</g>
<!-- cubical/square -->
<g id="node48" class="node">
<title>cubical/square</title>
<ellipse fill="none" stroke="black" cx="1568.59" cy="-90" rx="77.99" ry="18"/>
<text text-anchor="middle" x="1568.59" y="-86.3" font-family="Times,serif" font-size="14.00">cubical/square</text>
</g>
<!-- cubical/path&#45;&gt;cubical/square -->
<g id="edge54" class="edge">
<title>cubical/path&#45;&gt;cubical/square</title>
<path fill="none" stroke="black" d="M1570.1,-143.7C1569.88,-135.98 1569.61,-126.71 1569.37,-118.11"/>
<polygon fill="black" stroke="black" points="1572.86,-118 1569.08,-108.1 1565.87,-118.2 1572.86,-118"/>
</g>
<!-- cubical/path&#45;&gt;cubical/V -->
<g id="edge55" class="edge">
<title>cubical/path&#45;&gt;cubical/V</title>
<path fill="none" stroke="black" d="M1537.72,-146.15C1513.69,-135.3 1480.97,-120.52 1455.44,-109"/>
<polygon fill="black" stroke="black" points="1456.6,-105.68 1446.05,-104.75 1453.72,-112.06 1456.6,-105.68"/>
</g>
<!-- cubical/example -->
<g id="node47" class="node">
<title>cubical/example</title>
<ellipse fill="none" stroke="black" cx="1415.59" cy="-18" rx="85.29" ry="18"/>
<text text-anchor="middle" x="1415.59" y="-14.3" font-family="Times,serif" font-size="14.00">cubical/example</text>
</g>
<!-- cubical/V&#45;&gt;cubical/example -->
<g id="edge56" class="edge">
<title>cubical/V&#45;&gt;cubical/example</title>
<path fill="none" stroke="black" d="M1415.59,-71.7C1415.59,-63.98 1415.59,-54.71 1415.59,-46.11"/>
<polygon fill="black" stroke="black" points="1419.09,-46.1 1415.59,-36.1 1412.09,-46.1 1419.09,-46.1"/>
</g>
</g>
</svg>
