<?xml version="1.0" encoding="UTF-8" standalone="no"?>
<!DOCTYPE svg PUBLIC "-//W3C//DTD SVG 1.1//EN"
 "http://www.w3.org/Graphics/SVG/1.1/DTD/svg11.dtd">
<!-- Generated by graphviz version 2.38.0 (20140413.2041)
 -->
<!-- Title: dependency_map Pages: 1 -->
<svg width="1440pt" height="836pt"
 viewBox="0.00 0.00 1440.29 836.00" xmlns="http://www.w3.org/2000/svg" xmlns:xlink="http://www.w3.org/1999/xlink">
<g id="graph0" class="graph" transform="scale(1 1) rotate(0) translate(4 832)">
<title>dependency_map</title>
<polygon fill="white" stroke="none" points="-4,4 -4,-832 1436.29,-832 1436.29,4 -4,4"/>
<!-- proto -->
<g id="node1" class="node"><title>proto</title>
<ellipse fill="none" stroke="black" cx="831.644" cy="-810" rx="30.5947" ry="18"/>
<text text-anchor="middle" x="831.644" y="-806.3" font-family="Times New Roman,serif" font-size="14.00">proto</text>
</g>
<!-- types/eq -->
<g id="node2" class="node"><title>types/eq</title>
<ellipse fill="none" stroke="black" cx="891.644" cy="-738" rx="41.6928" ry="18"/>
<text text-anchor="middle" x="891.644" y="-734.3" font-family="Times New Roman,serif" font-size="14.00">types/eq</text>
</g>
<!-- proto&#45;&gt;types/eq -->
<g id="edge1" class="edge"><title>proto&#45;&gt;types/eq</title>
<path fill="none" stroke="black" d="M844.96,-793.465C852.588,-784.566 862.326,-773.205 870.932,-763.164"/>
<polygon fill="black" stroke="black" points="873.679,-765.338 877.529,-755.467 868.364,-760.782 873.679,-765.338"/>
</g>
<!-- support -->
<g id="node4" class="node"><title>support</title>
<ellipse fill="none" stroke="black" cx="953.644" cy="-666" rx="38.9931" ry="18"/>
<text text-anchor="middle" x="953.644" y="-662.3" font-family="Times New Roman,serif" font-size="14.00">support</text>
</g>
<!-- types/eq&#45;&gt;support -->
<g id="edge10" class="edge"><title>types/eq&#45;&gt;support</title>
<path fill="none" stroke="black" d="M906.024,-720.765C913.928,-711.841 923.877,-700.608 932.636,-690.719"/>
<polygon fill="black" stroke="black" points="935.332,-692.954 939.342,-683.147 930.092,-688.313 935.332,-692.954"/>
</g>
<!-- types/dep_path -->
<g id="node13" class="node"><title>types/dep_path</title>
<ellipse fill="none" stroke="black" cx="829.644" cy="-666" rx="66.8882" ry="18"/>
<text text-anchor="middle" x="829.644" y="-662.3" font-family="Times New Roman,serif" font-size="14.00">types/dep_path</text>
</g>
<!-- types/eq&#45;&gt;types/dep_path -->
<g id="edge11" class="edge"><title>types/eq&#45;&gt;types/dep_path</title>
<path fill="none" stroke="black" d="M877.264,-720.765C869.474,-711.969 859.695,-700.928 851.029,-691.144"/>
<polygon fill="black" stroke="black" points="853.627,-688.799 844.377,-683.633 848.387,-693.44 853.627,-688.799"/>
</g>
<!-- meta/hott_theory -->
<g id="node3" class="node"><title>meta/hott_theory</title>
<ellipse fill="none" stroke="black" cx="952.644" cy="-810" rx="72.2875" ry="18"/>
<text text-anchor="middle" x="952.644" y="-806.3" font-family="Times New Roman,serif" font-size="14.00">meta/hott_theory</text>
</g>
<!-- meta/hott_theory&#45;&gt;types/eq -->
<g id="edge2" class="edge"><title>meta/hott_theory&#45;&gt;types/eq</title>
<path fill="none" stroke="black" d="M937.878,-792.055C930.275,-783.33 920.876,-772.544 912.542,-762.981"/>
<polygon fill="black" stroke="black" points="915.063,-760.547 905.855,-755.307 909.786,-765.146 915.063,-760.547"/>
</g>
<!-- types/equiv -->
<g id="node5" class="node"><title>types/equiv</title>
<ellipse fill="none" stroke="black" cx="953.644" cy="-594" rx="51.9908" ry="18"/>
<text text-anchor="middle" x="953.644" y="-590.3" font-family="Times New Roman,serif" font-size="14.00">types/equiv</text>
</g>
<!-- support&#45;&gt;types/equiv -->
<g id="edge3" class="edge"><title>support&#45;&gt;types/equiv</title>
<path fill="none" stroke="black" d="M953.644,-647.697C953.644,-639.983 953.644,-630.712 953.644,-622.112"/>
<polygon fill="black" stroke="black" points="957.144,-622.104 953.644,-612.104 950.144,-622.104 957.144,-622.104"/>
</g>
<!-- types/coproduct -->
<g id="node10" class="node"><title>types/coproduct</title>
<ellipse fill="none" stroke="black" cx="1268.64" cy="-522" rx="70.6878" ry="18"/>
<text text-anchor="middle" x="1268.64" y="-518.3" font-family="Times New Roman,serif" font-size="14.00">types/coproduct</text>
</g>
<!-- types/equiv&#45;&gt;types/coproduct -->
<g id="edge12" class="edge"><title>types/equiv&#45;&gt;types/coproduct</title>
<path fill="none" stroke="black" d="M996.126,-583.559C1050.45,-571.487 1144.92,-550.495 1207.11,-536.673"/>
<polygon fill="black" stroke="black" points="1208.19,-540.021 1217.19,-534.435 1206.67,-533.187 1208.19,-540.021"/>
</g>
<!-- types/heq -->
<g id="node14" class="node"><title>types/heq</title>
<ellipse fill="none" stroke="black" cx="745.644" cy="-522" rx="46.2923" ry="18"/>
<text text-anchor="middle" x="745.644" y="-518.3" font-family="Times New Roman,serif" font-size="14.00">types/heq</text>
</g>
<!-- types/equiv&#45;&gt;types/heq -->
<g id="edge13" class="edge"><title>types/equiv&#45;&gt;types/heq</title>
<path fill="none" stroke="black" d="M917.413,-580.807C881.727,-568.797 827.185,-550.441 789.166,-537.647"/>
<polygon fill="black" stroke="black" points="789.99,-534.231 779.395,-534.359 787.757,-540.865 789.99,-534.231"/>
</g>
<!-- HITs/infinitesimal -->
<g id="node15" class="node"><title>HITs/infinitesimal</title>
<ellipse fill="none" stroke="black" cx="884.644" cy="-522" rx="74.9875" ry="18"/>
<text text-anchor="middle" x="884.644" y="-518.3" font-family="Times New Roman,serif" font-size="14.00">HITs/infinitesimal</text>
</g>
<!-- types/equiv&#45;&gt;HITs/infinitesimal -->
<g id="edge14" class="edge"><title>types/equiv&#45;&gt;HITs/infinitesimal</title>
<path fill="none" stroke="black" d="M937.641,-576.765C928.885,-567.882 917.872,-556.709 908.157,-546.854"/>
<polygon fill="black" stroke="black" points="910.553,-544.298 901.04,-539.633 905.567,-549.212 910.553,-544.298"/>
</g>
<!-- types/lost -->
<g id="node16" class="node"><title>types/lost</title>
<ellipse fill="none" stroke="black" cx="1023.64" cy="-522" rx="46.2923" ry="18"/>
<text text-anchor="middle" x="1023.64" y="-518.3" font-family="Times New Roman,serif" font-size="14.00">types/lost</text>
</g>
<!-- types/equiv&#45;&gt;types/lost -->
<g id="edge15" class="edge"><title>types/equiv&#45;&gt;types/lost</title>
<path fill="none" stroke="black" d="M969.88,-576.765C978.891,-567.753 990.259,-556.385 1000.22,-546.426"/>
<polygon fill="black" stroke="black" points="1002.9,-548.693 1007.5,-539.147 997.951,-543.744 1002.9,-548.693"/>
</g>
<!-- types/unit -->
<g id="node17" class="node"><title>types/unit</title>
<ellipse fill="none" stroke="black" cx="1133.64" cy="-522" rx="46.2923" ry="18"/>
<text text-anchor="middle" x="1133.64" y="-518.3" font-family="Times New Roman,serif" font-size="14.00">types/unit</text>
</g>
<!-- types/equiv&#45;&gt;types/unit -->
<g id="edge16" class="edge"><title>types/equiv&#45;&gt;types/unit</title>
<path fill="none" stroke="black" d="M987.079,-579.998C1016.93,-568.388 1060.75,-551.349 1092.69,-538.926"/>
<polygon fill="black" stroke="black" points="1094.15,-542.116 1102.2,-535.229 1091.61,-535.592 1094.15,-542.116"/>
</g>
<!-- types/sigma -->
<g id="node18" class="node"><title>types/sigma</title>
<ellipse fill="none" stroke="black" cx="553.644" cy="-306" rx="53.8905" ry="18"/>
<text text-anchor="middle" x="553.644" y="-302.3" font-family="Times New Roman,serif" font-size="14.00">types/sigma</text>
</g>
<!-- types/equiv&#45;&gt;types/sigma -->
<g id="edge17" class="edge"><title>types/equiv&#45;&gt;types/sigma</title>
<path fill="none" stroke="black" d="M903.191,-589.338C835.414,-583.363 720.05,-569.136 690.644,-540 632.564,-482.451 701.713,-425.403 652.644,-360 639.933,-343.057 620.18,-330.95 601.652,-322.624"/>
<polygon fill="black" stroke="black" points="602.979,-319.386 592.405,-318.724 600.259,-325.836 602.979,-319.386"/>
</g>
<!-- structures -->
<g id="node6" class="node"><title>structures</title>
<ellipse fill="none" stroke="black" cx="999.644" cy="-450" rx="46.2923" ry="18"/>
<text text-anchor="middle" x="999.644" y="-446.3" font-family="Times New Roman,serif" font-size="14.00">structures</text>
</g>
<!-- HITs/interval -->
<g id="node7" class="node"><title>HITs/interval</title>
<ellipse fill="none" stroke="black" cx="757.644" cy="-378" rx="57.6901" ry="18"/>
<text text-anchor="middle" x="757.644" y="-374.3" font-family="Times New Roman,serif" font-size="14.00">HITs/interval</text>
</g>
<!-- structures&#45;&gt;HITs/interval -->
<g id="edge4" class="edge"><title>structures&#45;&gt;HITs/interval</title>
<path fill="none" stroke="black" d="M963.676,-438.596C922.582,-426.709 855.031,-407.17 808.547,-393.724"/>
<polygon fill="black" stroke="black" points="809.253,-390.285 798.674,-390.868 807.308,-397.009 809.253,-390.285"/>
</g>
<!-- HITs/truncation -->
<g id="node8" class="node"><title>HITs/truncation</title>
<ellipse fill="none" stroke="black" cx="245.644" cy="-306" rx="68.4888" ry="18"/>
<text text-anchor="middle" x="245.644" y="-302.3" font-family="Times New Roman,serif" font-size="14.00">HITs/truncation</text>
</g>
<!-- structures&#45;&gt;HITs/truncation -->
<g id="edge5" class="edge"><title>structures&#45;&gt;HITs/truncation</title>
<path fill="none" stroke="black" d="M953.605,-447.74C847.489,-444.242 588.828,-432.157 510.644,-396 489.528,-386.235 493.129,-371.028 472.644,-360 445.08,-345.16 367.925,-328.9 311.187,-318.356"/>
<polygon fill="black" stroke="black" points="311.671,-314.886 301.203,-316.52 310.405,-321.771 311.671,-314.886"/>
</g>
<!-- types/nat -->
<g id="node9" class="node"><title>types/nat</title>
<ellipse fill="none" stroke="black" cx="999.644" cy="-306" rx="43.5923" ry="18"/>
<text text-anchor="middle" x="999.644" y="-302.3" font-family="Times New Roman,serif" font-size="14.00">types/nat</text>
</g>
<!-- structures&#45;&gt;types/nat -->
<g id="edge6" class="edge"><title>structures&#45;&gt;types/nat</title>
<path fill="none" stroke="black" d="M999.644,-431.871C999.644,-407.67 999.644,-363.211 999.644,-334.393"/>
<polygon fill="black" stroke="black" points="1003.14,-334.189 999.644,-324.189 996.144,-334.189 1003.14,-334.189"/>
</g>
<!-- types/product -->
<g id="node23" class="node"><title>types/product</title>
<ellipse fill="none" stroke="black" cx="862.644" cy="-306" rx="61.99" ry="18"/>
<text text-anchor="middle" x="862.644" y="-302.3" font-family="Times New Roman,serif" font-size="14.00">types/product</text>
</g>
<!-- HITs/interval&#45;&gt;types/product -->
<g id="edge40" class="edge"><title>HITs/interval&#45;&gt;types/product</title>
<path fill="none" stroke="black" d="M780.947,-361.465C795.527,-351.745 814.511,-339.089 830.509,-328.423"/>
<polygon fill="black" stroke="black" points="832.664,-331.193 839.043,-322.734 828.781,-325.369 832.664,-331.193"/>
</g>
<!-- theorems/fibration -->
<g id="node26" class="node"><title>theorems/fibration</title>
<ellipse fill="none" stroke="black" cx="687.644" cy="-234" rx="76.8869" ry="18"/>
<text text-anchor="middle" x="687.644" y="-230.3" font-family="Times New Roman,serif" font-size="14.00">theorems/fibration</text>
</g>
<!-- HITs/interval&#45;&gt;theorems/fibration -->
<g id="edge41" class="edge"><title>HITs/interval&#45;&gt;theorems/fibration</title>
<path fill="none" stroke="black" d="M749.339,-360.153C737.301,-335.732 714.887,-290.265 700.646,-261.375"/>
<polygon fill="black" stroke="black" points="703.717,-259.69 696.156,-252.268 697.439,-262.785 703.717,-259.69"/>
</g>
<!-- theorems/prop -->
<g id="node27" class="node"><title>theorems/prop</title>
<ellipse fill="none" stroke="black" cx="452.644" cy="-234" rx="63.8893" ry="18"/>
<text text-anchor="middle" x="452.644" y="-230.3" font-family="Times New Roman,serif" font-size="14.00">theorems/prop</text>
</g>
<!-- HITs/interval&#45;&gt;theorems/prop -->
<g id="edge42" class="edge"><title>HITs/interval&#45;&gt;theorems/prop</title>
<path fill="none" stroke="black" d="M708.472,-368.46C633.69,-355.298 499.096,-330.858 490.644,-324 471.757,-308.676 462.079,-282.223 457.235,-262.128"/>
<polygon fill="black" stroke="black" points="460.644,-261.332 455.119,-252.291 453.8,-262.804 460.644,-261.332"/>
</g>
<!-- HITs/moebius -->
<g id="node30" class="node"><title>HITs/moebius</title>
<ellipse fill="none" stroke="black" cx="599.644" cy="-18" rx="63.0888" ry="18"/>
<text text-anchor="middle" x="599.644" y="-14.3" font-family="Times New Roman,serif" font-size="14.00">HITs/moebius</text>
</g>
<!-- HITs/interval&#45;&gt;HITs/moebius -->
<g id="edge43" class="edge"><title>HITs/interval&#45;&gt;HITs/moebius</title>
<path fill="none" stroke="black" d="M732.872,-361.552C673.373,-324.021 524.804,-227.631 490.644,-180 462.043,-140.12 440.157,-112.657 467.644,-72 482.724,-49.6951 508.902,-36.7758 533.989,-29.2934"/>
<polygon fill="black" stroke="black" points="535.167,-32.6 543.893,-26.5918 533.324,-25.8467 535.167,-32.6"/>
</g>
<!-- HITs/reals -->
<g id="node31" class="node"><title>HITs/reals</title>
<ellipse fill="none" stroke="black" cx="1270.64" cy="-18" rx="48.9926" ry="18"/>
<text text-anchor="middle" x="1270.64" y="-14.3" font-family="Times New Roman,serif" font-size="14.00">HITs/reals</text>
</g>
<!-- HITs/interval&#45;&gt;HITs/reals -->
<g id="edge44" class="edge"><title>HITs/interval&#45;&gt;HITs/reals</title>
<path fill="none" stroke="black" d="M815.813,-377.707C925.025,-377.861 1155.21,-372.261 1215.64,-324 1295.17,-260.497 1274.51,-208.316 1291.64,-108 1294.34,-92.2284 1294.64,-87.7162 1291.64,-72 1289.94,-63.0559 1286.74,-53.6954 1283.35,-45.373"/>
<polygon fill="black" stroke="black" points="1286.55,-43.9489 1279.36,-36.1671 1280.13,-46.7341 1286.55,-43.9489"/>
</g>
<!-- HITs/truncation&#45;&gt;theorems/prop -->
<g id="edge48" class="edge"><title>HITs/truncation&#45;&gt;theorems/prop</title>
<path fill="none" stroke="black" d="M286.047,-291.337C319.709,-279.954 367.771,-263.701 403.628,-251.575"/>
<polygon fill="black" stroke="black" points="405.044,-254.791 413.396,-248.272 402.802,-248.16 405.044,-254.791"/>
</g>
<!-- HITs/simplicial -->
<g id="node37" class="node"><title>HITs/simplicial</title>
<ellipse fill="none" stroke="black" cx="65.6442" cy="-234" rx="65.7887" ry="18"/>
<text text-anchor="middle" x="65.6442" y="-230.3" font-family="Times New Roman,serif" font-size="14.00">HITs/simplicial</text>
</g>
<!-- HITs/truncation&#45;&gt;HITs/simplicial -->
<g id="edge49" class="edge"><title>HITs/truncation&#45;&gt;HITs/simplicial</title>
<path fill="none" stroke="black" d="M208.784,-290.666C180.57,-279.693 141.5,-264.5 111.306,-252.757"/>
<polygon fill="black" stroke="black" points="112.428,-249.439 101.84,-249.076 109.891,-255.963 112.428,-249.439"/>
</g>
<!-- theorems/mere_eq_lemma -->
<g id="node38" class="node"><title>theorems/mere_eq_lemma</title>
<ellipse fill="none" stroke="black" cx="255.644" cy="-234" rx="105.881" ry="18"/>
<text text-anchor="middle" x="255.644" y="-230.3" font-family="Times New Roman,serif" font-size="14.00">theorems/mere_eq_lemma</text>
</g>
<!-- HITs/truncation&#45;&gt;theorems/mere_eq_lemma -->
<g id="edge50" class="edge"><title>HITs/truncation&#45;&gt;theorems/mere_eq_lemma</title>
<path fill="none" stroke="black" d="M248.116,-287.697C249.218,-279.983 250.542,-270.712 251.771,-262.112"/>
<polygon fill="black" stroke="black" points="255.251,-262.499 253.201,-252.104 248.322,-261.509 255.251,-262.499"/>
</g>
<!-- theorems/nat -->
<g id="node22" class="node"><title>theorems/nat</title>
<ellipse fill="none" stroke="black" cx="1087.64" cy="-162" rx="57.3905" ry="18"/>
<text text-anchor="middle" x="1087.64" y="-158.3" font-family="Times New Roman,serif" font-size="14.00">theorems/nat</text>
</g>
<!-- types/nat&#45;&gt;theorems/nat -->
<g id="edge22" class="edge"><title>types/nat&#45;&gt;theorems/nat</title>
<path fill="none" stroke="black" d="M1024.51,-291.156C1038.91,-281.887 1056.21,-268.393 1066.64,-252 1078.47,-233.413 1083.65,-208.826 1085.91,-190.205"/>
<polygon fill="black" stroke="black" points="1089.41,-190.321 1086.93,-180.021 1082.45,-189.622 1089.41,-190.321"/>
</g>
<!-- types/coproduct&#45;&gt;structures -->
<g id="edge7" class="edge"><title>types/coproduct&#45;&gt;structures</title>
<path fill="none" stroke="black" d="M1220.86,-508.566C1171.71,-495.775 1095.62,-475.975 1046.72,-463.251"/>
<polygon fill="black" stroke="black" points="1047.58,-459.858 1037.02,-460.727 1045.82,-466.633 1047.58,-459.858"/>
</g>
<!-- types/integer -->
<g id="node11" class="node"><title>types/integer</title>
<ellipse fill="none" stroke="black" cx="1272.64" cy="-450" rx="56.59" ry="18"/>
<text text-anchor="middle" x="1272.64" y="-446.3" font-family="Times New Roman,serif" font-size="14.00">types/integer</text>
</g>
<!-- types/coproduct&#45;&gt;types/integer -->
<g id="edge8" class="edge"><title>types/coproduct&#45;&gt;types/integer</title>
<path fill="none" stroke="black" d="M1269.63,-503.697C1270.07,-495.983 1270.6,-486.712 1271.09,-478.112"/>
<polygon fill="black" stroke="black" points="1274.59,-478.288 1271.67,-468.104 1267.6,-477.888 1274.59,-478.288"/>
</g>
<!-- HITs/circle -->
<g id="node20" class="node"><title>HITs/circle</title>
<ellipse fill="none" stroke="black" cx="1230.64" cy="-90" rx="51.9908" ry="18"/>
<text text-anchor="middle" x="1230.64" y="-86.3" font-family="Times New Roman,serif" font-size="14.00">HITs/circle</text>
</g>
<!-- types/integer&#45;&gt;HITs/circle -->
<g id="edge20" class="edge"><title>types/integer&#45;&gt;HITs/circle</title>
<path fill="none" stroke="black" d="M1272.64,-431.951C1272.64,-405.292 1272.64,-352.115 1272.64,-307 1272.64,-307 1272.64,-307 1272.64,-233 1272.64,-191.145 1255.66,-145.096 1243.29,-117.114"/>
<polygon fill="black" stroke="black" points="1246.47,-115.658 1239.14,-108.007 1240.1,-118.558 1246.47,-115.658"/>
</g>
<!-- types/rational -->
<g id="node21" class="node"><title>types/rational</title>
<ellipse fill="none" stroke="black" cx="1362.64" cy="-378" rx="59.2899" ry="18"/>
<text text-anchor="middle" x="1362.64" y="-374.3" font-family="Times New Roman,serif" font-size="14.00">types/rational</text>
</g>
<!-- types/integer&#45;&gt;types/rational -->
<g id="edge21" class="edge"><title>types/integer&#45;&gt;types/rational</title>
<path fill="none" stroke="black" d="M1293.07,-433.116C1305.18,-423.696 1320.72,-411.611 1334.04,-401.251"/>
<polygon fill="black" stroke="black" points="1336.25,-403.966 1341.99,-395.064 1331.95,-398.44 1336.25,-403.966"/>
</g>
<!-- types/dedekind -->
<g id="node12" class="node"><title>types/dedekind</title>
<ellipse fill="none" stroke="black" cx="1366.64" cy="-306" rx="65.7887" ry="18"/>
<text text-anchor="middle" x="1366.64" y="-302.3" font-family="Times New Roman,serif" font-size="14.00">types/dedekind</text>
</g>
<!-- types/dep_path&#45;&gt;types/equiv -->
<g id="edge9" class="edge"><title>types/dep_path&#45;&gt;types/equiv</title>
<path fill="none" stroke="black" d="M857.164,-649.465C875.273,-639.242 899.136,-625.771 918.599,-614.783"/>
<polygon fill="black" stroke="black" points="920.487,-617.737 927.475,-609.773 917.046,-611.641 920.487,-617.737"/>
</g>
<!-- types/heq&#45;&gt;HITs/interval -->
<g id="edge18" class="edge"><title>types/heq&#45;&gt;HITs/interval</title>
<path fill="none" stroke="black" d="M747.092,-503.871C749.137,-479.67 752.894,-435.211 755.329,-406.393"/>
<polygon fill="black" stroke="black" points="758.837,-406.449 756.192,-396.189 751.862,-405.859 758.837,-406.449"/>
</g>
<!-- HITs/graph -->
<g id="node19" class="node"><title>HITs/graph</title>
<ellipse fill="none" stroke="black" cx="388.644" cy="-450" rx="52.7911" ry="18"/>
<text text-anchor="middle" x="388.644" y="-446.3" font-family="Times New Roman,serif" font-size="14.00">HITs/graph</text>
</g>
<!-- types/heq&#45;&gt;HITs/graph -->
<g id="edge19" class="edge"><title>types/heq&#45;&gt;HITs/graph</title>
<path fill="none" stroke="black" d="M705.386,-513.106C641.12,-500.505 515.256,-475.826 443.041,-461.666"/>
<polygon fill="black" stroke="black" points="443.706,-458.23 433.22,-459.74 442.359,-465.099 443.706,-458.23"/>
</g>
<!-- types/unit&#45;&gt;structures -->
<g id="edge29" class="edge"><title>types/unit&#45;&gt;structures</title>
<path fill="none" stroke="black" d="M1107.17,-507.17C1086.52,-496.384 1057.65,-481.302 1035.02,-469.481"/>
<polygon fill="black" stroke="black" points="1036.55,-466.329 1026.06,-464.801 1033.31,-472.533 1036.55,-466.329"/>
</g>
<!-- HITs/suspension -->
<g id="node28" class="node"><title>HITs/suspension</title>
<ellipse fill="none" stroke="black" cx="1133.64" cy="-306" rx="72.5877" ry="18"/>
<text text-anchor="middle" x="1133.64" y="-302.3" font-family="Times New Roman,serif" font-size="14.00">HITs/suspension</text>
</g>
<!-- types/unit&#45;&gt;HITs/suspension -->
<g id="edge30" class="edge"><title>types/unit&#45;&gt;HITs/suspension</title>
<path fill="none" stroke="black" d="M1133.64,-503.849C1133.64,-466.832 1133.64,-379.181 1133.64,-334.386"/>
<polygon fill="black" stroke="black" points="1137.14,-334.232 1133.64,-324.232 1130.14,-334.232 1137.14,-334.232"/>
</g>
<!-- types/sigma&#45;&gt;theorems/nat -->
<g id="edge26" class="edge"><title>types/sigma&#45;&gt;theorems/nat</title>
<path fill="none" stroke="black" d="M557.666,-287.987C563.537,-267.24 576.594,-232.86 601.644,-216 603.819,-214.536 892.329,-183.741 1023.74,-169.778"/>
<polygon fill="black" stroke="black" points="1024.49,-173.218 1034.06,-168.681 1023.75,-166.257 1024.49,-173.218"/>
</g>
<!-- types/sigma&#45;&gt;theorems/fibration -->
<g id="edge27" class="edge"><title>types/sigma&#45;&gt;theorems/fibration</title>
<path fill="none" stroke="black" d="M581.409,-290.496C600.861,-280.334 627.126,-266.614 648.673,-255.358"/>
<polygon fill="black" stroke="black" points="650.342,-258.435 657.585,-250.703 647.101,-252.231 650.342,-258.435"/>
</g>
<!-- types/sigma&#45;&gt;theorems/prop -->
<g id="edge28" class="edge"><title>types/sigma&#45;&gt;theorems/prop</title>
<path fill="none" stroke="black" d="M531.229,-289.465C517.432,-279.902 499.534,-267.498 484.304,-256.943"/>
<polygon fill="black" stroke="black" points="485.91,-253.797 475.697,-250.977 481.922,-259.55 485.91,-253.797"/>
</g>
<!-- HITs/colimit -->
<g id="node32" class="node"><title>HITs/colimit</title>
<ellipse fill="none" stroke="black" cx="238.644" cy="-378" rx="56.59" ry="18"/>
<text text-anchor="middle" x="238.644" y="-374.3" font-family="Times New Roman,serif" font-size="14.00">HITs/colimit</text>
</g>
<!-- HITs/graph&#45;&gt;HITs/colimit -->
<g id="edge36" class="edge"><title>HITs/graph&#45;&gt;HITs/colimit</title>
<path fill="none" stroke="black" d="M358.65,-435.003C335.604,-424.248 303.56,-409.294 278.381,-397.544"/>
<polygon fill="black" stroke="black" points="279.643,-394.27 269.101,-393.213 276.682,-400.614 279.643,-394.27"/>
</g>
<!-- HITs/generalized -->
<g id="node33" class="node"><title>HITs/generalized</title>
<ellipse fill="none" stroke="black" cx="91.6442" cy="-378" rx="72.2875" ry="18"/>
<text text-anchor="middle" x="91.6442" y="-374.3" font-family="Times New Roman,serif" font-size="14.00">HITs/generalized</text>
</g>
<!-- HITs/graph&#45;&gt;HITs/generalized -->
<g id="edge37" class="edge"><title>HITs/graph&#45;&gt;HITs/generalized</title>
<path fill="none" stroke="black" d="M346.407,-439.045C295.539,-427.056 209.739,-406.834 151.925,-393.208"/>
<polygon fill="black" stroke="black" points="152.72,-389.799 142.184,-390.912 151.114,-396.612 152.72,-389.799"/>
</g>
<!-- HITs/pushout -->
<g id="node34" class="node"><title>HITs/pushout</title>
<ellipse fill="none" stroke="black" cx="581.644" cy="-378" rx="61.99" ry="18"/>
<text text-anchor="middle" x="581.644" y="-374.3" font-family="Times New Roman,serif" font-size="14.00">HITs/pushout</text>
</g>
<!-- HITs/graph&#45;&gt;HITs/pushout -->
<g id="edge38" class="edge"><title>HITs/graph&#45;&gt;HITs/pushout</title>
<path fill="none" stroke="black" d="M423.595,-436.324C454.738,-425.028 500.561,-408.408 534.858,-395.969"/>
<polygon fill="black" stroke="black" points="536.445,-399.117 544.652,-392.417 534.058,-392.536 536.445,-399.117"/>
</g>
<!-- types/precategory -->
<g id="node35" class="node"><title>types/precategory</title>
<ellipse fill="none" stroke="black" cx="388.644" cy="-378" rx="75.2868" ry="18"/>
<text text-anchor="middle" x="388.644" y="-374.3" font-family="Times New Roman,serif" font-size="14.00">types/precategory</text>
</g>
<!-- HITs/graph&#45;&gt;types/precategory -->
<g id="edge39" class="edge"><title>HITs/graph&#45;&gt;types/precategory</title>
<path fill="none" stroke="black" d="M388.644,-431.697C388.644,-423.983 388.644,-414.712 388.644,-406.112"/>
<polygon fill="black" stroke="black" points="392.144,-406.104 388.644,-396.104 385.144,-406.104 392.144,-406.104"/>
</g>
<!-- theorems/hopf -->
<g id="node29" class="node"><title>theorems/hopf</title>
<ellipse fill="none" stroke="black" cx="1008.64" cy="-18" rx="63.8893" ry="18"/>
<text text-anchor="middle" x="1008.64" y="-14.3" font-family="Times New Roman,serif" font-size="14.00">theorems/hopf</text>
</g>
<!-- HITs/circle&#45;&gt;theorems/hopf -->
<g id="edge31" class="edge"><title>HITs/circle&#45;&gt;theorems/hopf</title>
<path fill="none" stroke="black" d="M1193.49,-77.2836C1156.77,-65.7058 1100.32,-47.9071 1059.46,-35.0244"/>
<polygon fill="black" stroke="black" points="1060.29,-31.6135 1049.7,-31.9443 1058.18,-38.2895 1060.29,-31.6135"/>
</g>
<!-- HITs/circle&#45;&gt;HITs/moebius -->
<g id="edge32" class="edge"><title>HITs/circle&#45;&gt;HITs/moebius</title>
<path fill="none" stroke="black" d="M1193.14,-77.414C1185.43,-75.3524 1177.32,-73.4147 1169.64,-72 992.82,-39.4115 781.249,-26.4141 672.351,-21.5932"/>
<polygon fill="black" stroke="black" points="672.28,-18.087 662.138,-21.1518 671.977,-25.0804 672.28,-18.087"/>
</g>
<!-- HITs/circle&#45;&gt;HITs/reals -->
<g id="edge33" class="edge"><title>HITs/circle&#45;&gt;HITs/reals</title>
<path fill="none" stroke="black" d="M1240.33,-72.055C1245.04,-63.8006 1250.81,-53.7014 1256.05,-44.5378"/>
<polygon fill="black" stroke="black" points="1259.13,-46.2079 1261.05,-35.789 1253.05,-42.7349 1259.13,-46.2079"/>
</g>
<!-- types/rational&#45;&gt;types/dedekind -->
<g id="edge25" class="edge"><title>types/rational&#45;&gt;types/dedekind</title>
<path fill="none" stroke="black" d="M1363.63,-359.697C1364.07,-351.983 1364.6,-342.712 1365.09,-334.112"/>
<polygon fill="black" stroke="black" points="1368.59,-334.288 1365.67,-324.104 1361.6,-333.888 1368.59,-334.288"/>
</g>
<!-- theorems/nat&#45;&gt;HITs/circle -->
<g id="edge58" class="edge"><title>theorems/nat&#45;&gt;HITs/circle</title>
<path fill="none" stroke="black" d="M1117.27,-146.496C1139.08,-135.819 1168.92,-121.214 1192.51,-109.667"/>
<polygon fill="black" stroke="black" points="1194.1,-112.786 1201.54,-105.246 1191.02,-106.499 1194.1,-112.786"/>
</g>
<!-- HITs/int -->
<g id="node45" class="node"><title>HITs/int</title>
<ellipse fill="none" stroke="black" cx="1119.64" cy="-90" rx="40.8928" ry="18"/>
<text text-anchor="middle" x="1119.64" y="-86.3" font-family="Times New Roman,serif" font-size="14.00">HITs/int</text>
</g>
<!-- theorems/nat&#45;&gt;HITs/int -->
<g id="edge59" class="edge"><title>theorems/nat&#45;&gt;HITs/int</title>
<path fill="none" stroke="black" d="M1095.39,-144.055C1099.09,-135.973 1103.59,-126.121 1107.71,-117.112"/>
<polygon fill="black" stroke="black" points="1110.99,-118.339 1111.97,-107.789 1104.63,-115.429 1110.99,-118.339"/>
</g>
<!-- cubical/cubes -->
<g id="node24" class="node"><title>cubical/cubes</title>
<ellipse fill="none" stroke="black" cx="862.644" cy="-234" rx="60.3893" ry="18"/>
<text text-anchor="middle" x="862.644" y="-230.3" font-family="Times New Roman,serif" font-size="14.00">cubical/cubes</text>
</g>
<!-- types/product&#45;&gt;cubical/cubes -->
<g id="edge23" class="edge"><title>types/product&#45;&gt;cubical/cubes</title>
<path fill="none" stroke="black" d="M862.644,-287.697C862.644,-279.983 862.644,-270.712 862.644,-262.112"/>
<polygon fill="black" stroke="black" points="866.144,-262.104 862.644,-252.104 859.144,-262.104 866.144,-262.104"/>
</g>
<!-- theorems/ua -->
<g id="node25" class="node"><title>theorems/ua</title>
<ellipse fill="none" stroke="black" cx="1002.64" cy="-234" rx="54.6905" ry="18"/>
<text text-anchor="middle" x="1002.64" y="-230.3" font-family="Times New Roman,serif" font-size="14.00">theorems/ua</text>
</g>
<!-- types/product&#45;&gt;theorems/ua -->
<g id="edge24" class="edge"><title>types/product&#45;&gt;theorems/ua</title>
<path fill="none" stroke="black" d="M892.335,-290.155C913.498,-279.573 942.119,-265.263 964.904,-253.87"/>
<polygon fill="black" stroke="black" points="966.575,-256.948 973.954,-249.345 963.445,-250.687 966.575,-256.948"/>
</g>
<!-- cubical/path -->
<g id="node40" class="node"><title>cubical/path</title>
<ellipse fill="none" stroke="black" cx="862.644" cy="-162" rx="54.6905" ry="18"/>
<text text-anchor="middle" x="862.644" y="-158.3" font-family="Times New Roman,serif" font-size="14.00">cubical/path</text>
</g>
<!-- cubical/cubes&#45;&gt;cubical/path -->
<g id="edge51" class="edge"><title>cubical/cubes&#45;&gt;cubical/path</title>
<path fill="none" stroke="black" d="M862.644,-215.697C862.644,-207.983 862.644,-198.712 862.644,-190.112"/>
<polygon fill="black" stroke="black" points="866.144,-190.104 862.644,-180.104 859.144,-190.104 866.144,-190.104"/>
</g>
<!-- theorems/ua&#45;&gt;theorems/nat -->
<g id="edge60" class="edge"><title>theorems/ua&#45;&gt;theorems/nat</title>
<path fill="none" stroke="black" d="M1021.93,-217.116C1033.26,-207.785 1047.77,-195.838 1060.27,-185.545"/>
<polygon fill="black" stroke="black" points="1062.64,-188.122 1068.14,-179.064 1058.19,-182.719 1062.64,-188.122"/>
</g>
<!-- cubical/V -->
<g id="node43" class="node"><title>cubical/V</title>
<ellipse fill="none" stroke="black" cx="1015.64" cy="-90" rx="45.4919" ry="18"/>
<text text-anchor="middle" x="1015.64" y="-86.3" font-family="Times New Roman,serif" font-size="14.00">cubical/V</text>
</g>
<!-- theorems/ua&#45;&gt;cubical/V -->
<g id="edge61" class="edge"><title>theorems/ua&#45;&gt;cubical/V</title>
<path fill="none" stroke="black" d="M1004.21,-215.871C1006.43,-191.67 1010.5,-147.211 1013.14,-118.393"/>
<polygon fill="black" stroke="black" points="1016.64,-118.467 1014.07,-108.189 1009.67,-117.829 1016.64,-118.467"/>
</g>
<!-- theorems/fibration&#45;&gt;theorems/hopf -->
<g id="edge56" class="edge"><title>theorems/fibration&#45;&gt;theorems/hopf</title>
<path fill="none" stroke="black" d="M643.292,-219.258C567.65,-193.682 427.182,-135.568 484.644,-72 499.627,-55.4254 797.269,-33.2597 937.153,-23.7063"/>
<polygon fill="black" stroke="black" points="937.612,-27.1833 947.352,-23.0131 937.138,-20.1994 937.612,-27.1833"/>
</g>
<!-- HITs/suspension&#45;&gt;HITs/circle -->
<g id="edge47" class="edge"><title>HITs/suspension&#45;&gt;HITs/circle</title>
<path fill="none" stroke="black" d="M1141.42,-287.849C1158.35,-250.505 1198.63,-161.628 1218.76,-117.209"/>
<polygon fill="black" stroke="black" points="1222.03,-118.488 1222.97,-107.935 1215.65,-115.598 1222.03,-118.488"/>
</g>
<!-- HITs/colimit&#45;&gt;HITs/truncation -->
<g id="edge34" class="edge"><title>HITs/colimit&#45;&gt;HITs/truncation</title>
<path fill="none" stroke="black" d="M240.375,-359.697C241.146,-351.983 242.073,-342.712 242.933,-334.112"/>
<polygon fill="black" stroke="black" points="246.421,-334.403 243.934,-324.104 239.456,-333.706 246.421,-334.403"/>
</g>
<!-- HITs/generalized&#45;&gt;HITs/truncation -->
<g id="edge35" class="edge"><title>HITs/generalized&#45;&gt;HITs/truncation</title>
<path fill="none" stroke="black" d="M124.681,-361.983C147.8,-351.475 178.869,-337.352 203.731,-326.051"/>
<polygon fill="black" stroke="black" points="205.271,-329.196 212.927,-321.872 202.375,-322.823 205.271,-329.196"/>
</g>
<!-- HITs/pushout&#45;&gt;HITs/suspension -->
<g id="edge45" class="edge"><title>HITs/pushout&#45;&gt;HITs/suspension</title>
<path fill="none" stroke="black" d="M633.677,-368.281C651.689,-365.424 672.026,-362.376 690.644,-360 851.026,-339.534 892.85,-348.641 1052.64,-324 1058.89,-323.037 1065.38,-321.904 1071.84,-320.686"/>
<polygon fill="black" stroke="black" points="1072.8,-324.066 1081.94,-318.717 1071.46,-317.195 1072.8,-324.066"/>
</g>
<!-- HITs/join -->
<g id="node36" class="node"><title>HITs/join</title>
<ellipse fill="none" stroke="black" cx="398.644" cy="-306" rx="45.4919" ry="18"/>
<text text-anchor="middle" x="398.644" y="-302.3" font-family="Times New Roman,serif" font-size="14.00">HITs/join</text>
</g>
<!-- HITs/pushout&#45;&gt;HITs/join -->
<g id="edge46" class="edge"><title>HITs/pushout&#45;&gt;HITs/join</title>
<path fill="none" stroke="black" d="M545.489,-363.17C514.999,-351.507 471.374,-334.82 439.6,-322.666"/>
<polygon fill="black" stroke="black" points="440.737,-319.354 430.147,-319.05 438.236,-325.892 440.737,-319.354"/>
</g>
<!-- cubical/connection -->
<g id="node39" class="node"><title>cubical/connection</title>
<ellipse fill="none" stroke="black" cx="572.644" cy="-90" rx="79.0865" ry="18"/>
<text text-anchor="middle" x="572.644" y="-86.3" font-family="Times New Roman,serif" font-size="14.00">cubical/connection</text>
</g>
<!-- cubical/path&#45;&gt;cubical/connection -->
<g id="edge52" class="edge"><title>cubical/path&#45;&gt;cubical/connection</title>
<path fill="none" stroke="black" d="M819.854,-150.671C770.954,-138.868 690.5,-119.448 634.715,-105.983"/>
<polygon fill="black" stroke="black" points="635.488,-102.569 624.946,-103.625 633.845,-109.373 635.488,-102.569"/>
</g>
<!-- cubical/example -->
<g id="node41" class="node"><title>cubical/example</title>
<ellipse fill="none" stroke="black" cx="738.644" cy="-90" rx="68.7879" ry="18"/>
<text text-anchor="middle" x="738.644" y="-86.3" font-family="Times New Roman,serif" font-size="14.00">cubical/example</text>
</g>
<!-- cubical/path&#45;&gt;cubical/example -->
<g id="edge53" class="edge"><title>cubical/path&#45;&gt;cubical/example</title>
<path fill="none" stroke="black" d="M836.347,-146.155C818.468,-136.062 794.581,-122.578 774.902,-111.468"/>
<polygon fill="black" stroke="black" points="776.622,-108.42 766.193,-106.552 773.18,-114.515 776.622,-108.42"/>
</g>
<!-- cubical/square -->
<g id="node42" class="node"><title>cubical/square</title>
<ellipse fill="none" stroke="black" cx="888.644" cy="-90" rx="63.0888" ry="18"/>
<text text-anchor="middle" x="888.644" y="-86.3" font-family="Times New Roman,serif" font-size="14.00">cubical/square</text>
</g>
<!-- cubical/path&#45;&gt;cubical/square -->
<g id="edge54" class="edge"><title>cubical/path&#45;&gt;cubical/square</title>
<path fill="none" stroke="black" d="M868.938,-144.055C871.864,-136.176 875.415,-126.617 878.692,-117.794"/>
<polygon fill="black" stroke="black" points="882.027,-118.868 882.228,-108.275 875.465,-116.431 882.027,-118.868"/>
</g>
<!-- cubical/path&#45;&gt;cubical/V -->
<g id="edge55" class="edge"><title>cubical/path&#45;&gt;cubical/V</title>
<path fill="none" stroke="black" d="M893.238,-147.003C917.548,-135.881 951.673,-120.268 977.718,-108.352"/>
<polygon fill="black" stroke="black" points="979.277,-111.487 986.914,-104.144 976.365,-105.122 979.277,-111.487"/>
</g>
<!-- theorems/functions -->
<g id="node44" class="node"><title>theorems/functions</title>
<ellipse fill="none" stroke="black" cx="1090.64" cy="-666" rx="79.8859" ry="18"/>
<text text-anchor="middle" x="1090.64" y="-662.3" font-family="Times New Roman,serif" font-size="14.00">theorems/functions</text>
</g>
<!-- theorems/functions&#45;&gt;types/equiv -->
<g id="edge57" class="edge"><title>theorems/functions&#45;&gt;types/equiv</title>
<path fill="none" stroke="black" d="M1059.9,-649.291C1039.33,-638.78 1012.15,-624.894 990.432,-613.797"/>
<polygon fill="black" stroke="black" points="991.991,-610.663 981.493,-609.229 988.806,-616.896 991.991,-610.663"/>
</g>
</g>
</svg>
