<?xml version="1.0" encoding="UTF-8" standalone="no"?>
<!DOCTYPE svg PUBLIC "-//W3C//DTD SVG 1.1//EN"
 "http://www.w3.org/Graphics/SVG/1.1/DTD/svg11.dtd">
<!-- Generated by graphviz version 2.38.0 (20140413.2041)
 -->
<!-- Title: dependency_map Pages: 1 -->
<svg width="1637pt" height="836pt"
 viewBox="0.00 0.00 1636.74 836.00" xmlns="http://www.w3.org/2000/svg" xmlns:xlink="http://www.w3.org/1999/xlink">
<g id="graph0" class="graph" transform="scale(1 1) rotate(0) translate(4 832)">
<title>dependency_map</title>
<polygon fill="white" stroke="none" points="-4,4 -4,-832 1632.74,-832 1632.74,4 -4,4"/>
<!-- proto -->
<g id="node1" class="node"><title>proto</title>
<ellipse fill="none" stroke="black" cx="1089.6" cy="-810" rx="30.5947" ry="18"/>
<text text-anchor="middle" x="1089.6" y="-806.3" font-family="Times New Roman,serif" font-size="14.00">proto</text>
</g>
<!-- types/eq -->
<g id="node2" class="node"><title>types/eq</title>
<ellipse fill="none" stroke="black" cx="1149.6" cy="-738" rx="41.6928" ry="18"/>
<text text-anchor="middle" x="1149.6" y="-734.3" font-family="Times New Roman,serif" font-size="14.00">types/eq</text>
</g>
<!-- proto&#45;&gt;types/eq -->
<g id="edge1" class="edge"><title>proto&#45;&gt;types/eq</title>
<path fill="none" stroke="black" d="M1102.91,-793.465C1110.54,-784.566 1120.28,-773.205 1128.88,-763.164"/>
<polygon fill="black" stroke="black" points="1131.63,-765.338 1135.48,-755.467 1126.32,-760.782 1131.63,-765.338"/>
</g>
<!-- support -->
<g id="node4" class="node"><title>support</title>
<ellipse fill="none" stroke="black" cx="1087.6" cy="-666" rx="38.9931" ry="18"/>
<text text-anchor="middle" x="1087.6" y="-662.3" font-family="Times New Roman,serif" font-size="14.00">support</text>
</g>
<!-- types/eq&#45;&gt;support -->
<g id="edge13" class="edge"><title>types/eq&#45;&gt;support</title>
<path fill="none" stroke="black" d="M1135.22,-720.765C1127.31,-711.841 1117.36,-700.608 1108.6,-690.719"/>
<polygon fill="black" stroke="black" points="1111.15,-688.313 1101.9,-683.147 1105.91,-692.954 1111.15,-688.313"/>
</g>
<!-- types/dep_path -->
<g id="node15" class="node"><title>types/dep_path</title>
<ellipse fill="none" stroke="black" cx="1211.6" cy="-666" rx="66.8882" ry="18"/>
<text text-anchor="middle" x="1211.6" y="-662.3" font-family="Times New Roman,serif" font-size="14.00">types/dep_path</text>
</g>
<!-- types/eq&#45;&gt;types/dep_path -->
<g id="edge14" class="edge"><title>types/eq&#45;&gt;types/dep_path</title>
<path fill="none" stroke="black" d="M1163.98,-720.765C1171.77,-711.969 1181.55,-700.928 1190.21,-691.144"/>
<polygon fill="black" stroke="black" points="1192.85,-693.44 1196.86,-683.633 1187.61,-688.799 1192.85,-693.44"/>
</g>
<!-- meta/hott_theory -->
<g id="node3" class="node"><title>meta/hott_theory</title>
<ellipse fill="none" stroke="black" cx="1210.6" cy="-810" rx="72.2875" ry="18"/>
<text text-anchor="middle" x="1210.6" y="-806.3" font-family="Times New Roman,serif" font-size="14.00">meta/hott_theory</text>
</g>
<!-- meta/hott_theory&#45;&gt;types/eq -->
<g id="edge2" class="edge"><title>meta/hott_theory&#45;&gt;types/eq</title>
<path fill="none" stroke="black" d="M1195.83,-792.055C1188.23,-783.33 1178.83,-772.544 1170.49,-762.981"/>
<polygon fill="black" stroke="black" points="1173.02,-760.547 1163.81,-755.307 1167.74,-765.146 1173.02,-760.547"/>
</g>
<!-- types/equiv -->
<g id="node5" class="node"><title>types/equiv</title>
<ellipse fill="none" stroke="black" cx="1211.6" cy="-594" rx="51.9908" ry="18"/>
<text text-anchor="middle" x="1211.6" y="-590.3" font-family="Times New Roman,serif" font-size="14.00">types/equiv</text>
</g>
<!-- support&#45;&gt;types/equiv -->
<g id="edge3" class="edge"><title>support&#45;&gt;types/equiv</title>
<path fill="none" stroke="black" d="M1111.21,-651.669C1129.7,-641.233 1155.69,-626.561 1176.59,-614.761"/>
<polygon fill="black" stroke="black" points="1178.51,-617.698 1185.5,-609.734 1175.07,-611.602 1178.51,-617.698"/>
</g>
<!-- types/coproduct -->
<g id="node13" class="node"><title>types/coproduct</title>
<ellipse fill="none" stroke="black" cx="1279.6" cy="-522" rx="70.6878" ry="18"/>
<text text-anchor="middle" x="1279.6" y="-518.3" font-family="Times New Roman,serif" font-size="14.00">types/coproduct</text>
</g>
<!-- types/equiv&#45;&gt;types/coproduct -->
<g id="edge15" class="edge"><title>types/equiv&#45;&gt;types/coproduct</title>
<path fill="none" stroke="black" d="M1227.37,-576.765C1236,-567.882 1246.85,-556.709 1256.42,-546.854"/>
<polygon fill="black" stroke="black" points="1258.98,-549.245 1263.44,-539.633 1253.96,-544.367 1258.98,-549.245"/>
</g>
<!-- types/heq -->
<g id="node16" class="node"><title>types/heq</title>
<ellipse fill="none" stroke="black" cx="915.596" cy="-522" rx="46.2923" ry="18"/>
<text text-anchor="middle" x="915.596" y="-518.3" font-family="Times New Roman,serif" font-size="14.00">types/heq</text>
</g>
<!-- types/equiv&#45;&gt;types/heq -->
<g id="edge16" class="edge"><title>types/equiv&#45;&gt;types/heq</title>
<path fill="none" stroke="black" d="M1169.81,-583.119C1115.54,-570.285 1021,-547.926 963.766,-534.391"/>
<polygon fill="black" stroke="black" points="964.414,-530.948 953.877,-532.053 962.803,-537.76 964.414,-530.948"/>
</g>
<!-- HITs/infinitesimal -->
<g id="node17" class="node"><title>HITs/infinitesimal</title>
<ellipse fill="none" stroke="black" cx="1443.6" cy="-522" rx="74.9875" ry="18"/>
<text text-anchor="middle" x="1443.6" y="-518.3" font-family="Times New Roman,serif" font-size="14.00">HITs/infinitesimal</text>
</g>
<!-- types/equiv&#45;&gt;HITs/infinitesimal -->
<g id="edge17" class="edge"><title>types/equiv&#45;&gt;HITs/infinitesimal</title>
<path fill="none" stroke="black" d="M1249.39,-581.597C1287.27,-570.168 1345.97,-552.455 1388.93,-539.494"/>
<polygon fill="black" stroke="black" points="1390.1,-542.796 1398.66,-536.557 1388.08,-536.095 1390.1,-542.796"/>
</g>
<!-- types/lost -->
<g id="node18" class="node"><title>types/lost</title>
<ellipse fill="none" stroke="black" cx="1582.6" cy="-522" rx="46.2923" ry="18"/>
<text text-anchor="middle" x="1582.6" y="-518.3" font-family="Times New Roman,serif" font-size="14.00">types/lost</text>
</g>
<!-- types/equiv&#45;&gt;types/lost -->
<g id="edge18" class="edge"><title>types/equiv&#45;&gt;types/lost</title>
<path fill="none" stroke="black" d="M1259.64,-586.977C1321.92,-578.706 1433.69,-562.282 1527.6,-540 1531.21,-539.142 1534.94,-538.174 1538.67,-537.147"/>
<polygon fill="black" stroke="black" points="1539.82,-540.456 1548.46,-534.324 1537.89,-533.73 1539.82,-540.456"/>
</g>
<!-- types/unit -->
<g id="node19" class="node"><title>types/unit</title>
<ellipse fill="none" stroke="black" cx="1144.6" cy="-522" rx="46.2923" ry="18"/>
<text text-anchor="middle" x="1144.6" y="-518.3" font-family="Times New Roman,serif" font-size="14.00">types/unit</text>
</g>
<!-- types/equiv&#45;&gt;types/unit -->
<g id="edge19" class="edge"><title>types/equiv&#45;&gt;types/unit</title>
<path fill="none" stroke="black" d="M1196.06,-576.765C1187.43,-567.753 1176.55,-556.385 1167.02,-546.426"/>
<polygon fill="black" stroke="black" points="1169.49,-543.951 1160.05,-539.147 1164.44,-548.792 1169.49,-543.951"/>
</g>
<!-- types/sigma -->
<g id="node20" class="node"><title>types/sigma</title>
<ellipse fill="none" stroke="black" cx="769.596" cy="-378" rx="53.8905" ry="18"/>
<text text-anchor="middle" x="769.596" y="-374.3" font-family="Times New Roman,serif" font-size="14.00">types/sigma</text>
</g>
<!-- types/equiv&#45;&gt;types/sigma -->
<g id="edge20" class="edge"><title>types/equiv&#45;&gt;types/sigma</title>
<path fill="none" stroke="black" d="M1160.21,-590.705C1074.8,-586.004 908.243,-572.815 860.596,-540 813.665,-507.678 788.069,-442.79 776.782,-406.025"/>
<polygon fill="black" stroke="black" points="780.021,-404.632 773.851,-396.018 773.303,-406.599 780.021,-404.632"/>
</g>
<!-- structures -->
<g id="node6" class="node"><title>structures</title>
<ellipse fill="none" stroke="black" cx="1249.6" cy="-450" rx="46.2923" ry="18"/>
<text text-anchor="middle" x="1249.6" y="-446.3" font-family="Times New Roman,serif" font-size="14.00">structures</text>
</g>
<!-- HITs/interval -->
<g id="node7" class="node"><title>HITs/interval</title>
<ellipse fill="none" stroke="black" cx="915.596" cy="-378" rx="57.6901" ry="18"/>
<text text-anchor="middle" x="915.596" y="-374.3" font-family="Times New Roman,serif" font-size="14.00">HITs/interval</text>
</g>
<!-- structures&#45;&gt;HITs/interval -->
<g id="edge4" class="edge"><title>structures&#45;&gt;HITs/interval</title>
<path fill="none" stroke="black" d="M1209.28,-441.183C1157.94,-431.143 1066.53,-412.983 988.596,-396 982.732,-394.722 976.611,-393.353 970.516,-391.966"/>
<polygon fill="black" stroke="black" points="970.863,-388.455 960.334,-389.63 969.298,-395.278 970.863,-388.455"/>
</g>
<!-- HITs/truncation -->
<g id="node8" class="node"><title>HITs/truncation</title>
<ellipse fill="none" stroke="black" cx="303.596" cy="-306" rx="68.4888" ry="18"/>
<text text-anchor="middle" x="303.596" y="-302.3" font-family="Times New Roman,serif" font-size="14.00">HITs/truncation</text>
</g>
<!-- structures&#45;&gt;HITs/truncation -->
<g id="edge5" class="edge"><title>structures&#45;&gt;HITs/truncation</title>
<path fill="none" stroke="black" d="M1203.92,-446.611C1110.18,-441.254 889.515,-426.307 706.596,-396 637.679,-384.581 621.77,-375.245 553.596,-360 489.664,-345.704 416.312,-330.267 365.676,-319.762"/>
<polygon fill="black" stroke="black" points="366.363,-316.33 355.861,-317.728 364.943,-323.184 366.363,-316.33"/>
</g>
<!-- algebra/core -->
<g id="node9" class="node"><title>algebra/core</title>
<ellipse fill="none" stroke="black" cx="1361.6" cy="-378" rx="55.4913" ry="18"/>
<text text-anchor="middle" x="1361.6" y="-374.3" font-family="Times New Roman,serif" font-size="14.00">algebra/core</text>
</g>
<!-- structures&#45;&gt;algebra/core -->
<g id="edge6" class="edge"><title>structures&#45;&gt;algebra/core</title>
<path fill="none" stroke="black" d="M1273.08,-434.326C1289.03,-424.357 1310.36,-411.022 1328.09,-399.941"/>
<polygon fill="black" stroke="black" points="1330.36,-402.65 1336.98,-394.382 1326.65,-396.714 1330.36,-402.65"/>
</g>
<!-- types/nat -->
<g id="node10" class="node"><title>types/nat</title>
<ellipse fill="none" stroke="black" cx="1287.6" cy="-234" rx="43.5923" ry="18"/>
<text text-anchor="middle" x="1287.6" y="-230.3" font-family="Times New Roman,serif" font-size="14.00">types/nat</text>
</g>
<!-- structures&#45;&gt;types/nat -->
<g id="edge7" class="edge"><title>structures&#45;&gt;types/nat</title>
<path fill="none" stroke="black" d="M1252.64,-431.849C1259.23,-394.753 1274.84,-306.81 1282.78,-262.103"/>
<polygon fill="black" stroke="black" points="1286.23,-262.69 1284.54,-252.232 1279.34,-261.466 1286.23,-262.69"/>
</g>
<!-- types/product -->
<g id="node25" class="node"><title>types/product</title>
<ellipse fill="none" stroke="black" cx="925.596" cy="-306" rx="61.99" ry="18"/>
<text text-anchor="middle" x="925.596" y="-302.3" font-family="Times New Roman,serif" font-size="14.00">types/product</text>
</g>
<!-- HITs/interval&#45;&gt;types/product -->
<g id="edge46" class="edge"><title>HITs/interval&#45;&gt;types/product</title>
<path fill="none" stroke="black" d="M918.068,-359.697C919.17,-351.983 920.495,-342.712 921.723,-334.112"/>
<polygon fill="black" stroke="black" points="925.203,-334.499 923.153,-324.104 918.274,-333.509 925.203,-334.499"/>
</g>
<!-- theorems/fibration -->
<g id="node28" class="node"><title>theorems/fibration</title>
<ellipse fill="none" stroke="black" cx="769.596" cy="-306" rx="76.8869" ry="18"/>
<text text-anchor="middle" x="769.596" y="-302.3" font-family="Times New Roman,serif" font-size="14.00">theorems/fibration</text>
</g>
<!-- HITs/interval&#45;&gt;theorems/fibration -->
<g id="edge47" class="edge"><title>HITs/interval&#45;&gt;theorems/fibration</title>
<path fill="none" stroke="black" d="M885.345,-362.496C863.814,-352.173 834.623,-338.177 810.942,-326.823"/>
<polygon fill="black" stroke="black" points="812.365,-323.624 801.834,-322.457 809.338,-329.936 812.365,-323.624"/>
</g>
<!-- theorems/prop -->
<g id="node29" class="node"><title>theorems/prop</title>
<ellipse fill="none" stroke="black" cx="664.596" cy="-234" rx="63.8893" ry="18"/>
<text text-anchor="middle" x="664.596" y="-230.3" font-family="Times New Roman,serif" font-size="14.00">theorems/prop</text>
</g>
<!-- HITs/interval&#45;&gt;theorems/prop -->
<g id="edge48" class="edge"><title>HITs/interval&#45;&gt;theorems/prop</title>
<path fill="none" stroke="black" d="M869.475,-367.114C802.764,-352.723 686.896,-327.347 683.596,-324 667.78,-307.956 663.688,-282.173 663.167,-262.477"/>
<polygon fill="black" stroke="black" points="666.667,-262.271 663.193,-252.262 659.667,-262.253 666.667,-262.271"/>
</g>
<!-- HITs/truncation&#45;&gt;theorems/prop -->
<g id="edge53" class="edge"><title>HITs/truncation&#45;&gt;theorems/prop</title>
<path fill="none" stroke="black" d="M356.863,-294.671C422.758,-281.894 534.683,-260.191 603.853,-246.778"/>
<polygon fill="black" stroke="black" points="604.587,-250.201 613.738,-244.862 603.254,-243.329 604.587,-250.201"/>
</g>
<!-- HITs/simplicial -->
<g id="node42" class="node"><title>HITs/simplicial</title>
<ellipse fill="none" stroke="black" cx="88.5963" cy="-234" rx="65.7887" ry="18"/>
<text text-anchor="middle" x="88.5963" y="-230.3" font-family="Times New Roman,serif" font-size="14.00">HITs/simplicial</text>
</g>
<!-- HITs/truncation&#45;&gt;HITs/simplicial -->
<g id="edge54" class="edge"><title>HITs/truncation&#45;&gt;HITs/simplicial</title>
<path fill="none" stroke="black" d="M262.397,-291.586C227.251,-280.143 176.593,-263.65 139.028,-251.42"/>
<polygon fill="black" stroke="black" points="139.884,-248.018 129.292,-248.25 137.717,-254.674 139.884,-248.018"/>
</g>
<!-- theorems/mere_eq_lemma -->
<g id="node43" class="node"><title>theorems/mere_eq_lemma</title>
<ellipse fill="none" stroke="black" cx="278.596" cy="-234" rx="105.881" ry="18"/>
<text text-anchor="middle" x="278.596" y="-230.3" font-family="Times New Roman,serif" font-size="14.00">theorems/mere_eq_lemma</text>
</g>
<!-- HITs/truncation&#45;&gt;theorems/mere_eq_lemma -->
<g id="edge55" class="edge"><title>HITs/truncation&#45;&gt;theorems/mere_eq_lemma</title>
<path fill="none" stroke="black" d="M297.545,-288.055C294.731,-280.176 291.316,-270.617 288.166,-261.794"/>
<polygon fill="black" stroke="black" points="291.426,-260.516 284.766,-252.275 284.833,-262.87 291.426,-260.516"/>
</g>
<!-- theorems/graphs -->
<g id="node44" class="node"><title>theorems/graphs</title>
<ellipse fill="none" stroke="black" cx="473.596" cy="-234" rx="70.6878" ry="18"/>
<text text-anchor="middle" x="473.596" y="-230.3" font-family="Times New Roman,serif" font-size="14.00">theorems/graphs</text>
</g>
<!-- HITs/truncation&#45;&gt;theorems/graphs -->
<g id="edge56" class="edge"><title>HITs/truncation&#45;&gt;theorems/graphs</title>
<path fill="none" stroke="black" d="M338.82,-290.496C364.832,-279.785 400.447,-265.12 428.533,-253.555"/>
<polygon fill="black" stroke="black" points="430.211,-256.65 438.125,-249.606 427.546,-250.177 430.211,-256.65"/>
</g>
<!-- algebra/group -->
<g id="node11" class="node"><title>algebra/group</title>
<ellipse fill="none" stroke="black" cx="1393.6" cy="-306" rx="60.3893" ry="18"/>
<text text-anchor="middle" x="1393.6" y="-302.3" font-family="Times New Roman,serif" font-size="14.00">algebra/group</text>
</g>
<!-- algebra/core&#45;&gt;algebra/group -->
<g id="edge8" class="edge"><title>algebra/core&#45;&gt;algebra/group</title>
<path fill="none" stroke="black" d="M1369.34,-360.055C1372.98,-352.091 1377.41,-342.411 1381.48,-333.51"/>
<polygon fill="black" stroke="black" points="1384.72,-334.825 1385.7,-324.275 1378.36,-331.915 1384.72,-334.825"/>
</g>
<!-- theorems/nat -->
<g id="node24" class="node"><title>theorems/nat</title>
<ellipse fill="none" stroke="black" cx="1294.6" cy="-162" rx="57.3905" ry="18"/>
<text text-anchor="middle" x="1294.6" y="-158.3" font-family="Times New Roman,serif" font-size="14.00">theorems/nat</text>
</g>
<!-- types/nat&#45;&gt;theorems/nat -->
<g id="edge26" class="edge"><title>types/nat&#45;&gt;theorems/nat</title>
<path fill="none" stroke="black" d="M1289.33,-215.697C1290.1,-207.983 1291.03,-198.712 1291.89,-190.112"/>
<polygon fill="black" stroke="black" points="1295.37,-190.403 1292.89,-180.104 1288.41,-189.706 1295.37,-190.403"/>
</g>
<!-- algebra/homology -->
<g id="node12" class="node"><title>algebra/homology</title>
<ellipse fill="none" stroke="black" cx="1424.6" cy="-234" rx="75.2868" ry="18"/>
<text text-anchor="middle" x="1424.6" y="-230.3" font-family="Times New Roman,serif" font-size="14.00">algebra/homology</text>
</g>
<!-- algebra/group&#45;&gt;algebra/homology -->
<g id="edge9" class="edge"><title>algebra/group&#45;&gt;algebra/homology</title>
<path fill="none" stroke="black" d="M1401.1,-288.055C1404.63,-280.091 1408.91,-270.411 1412.86,-261.51"/>
<polygon fill="black" stroke="black" points="1416.1,-262.836 1416.95,-252.275 1409.7,-260.002 1416.1,-262.836"/>
</g>
<!-- types/coproduct&#45;&gt;structures -->
<g id="edge10" class="edge"><title>types/coproduct&#45;&gt;structures</title>
<path fill="none" stroke="black" d="M1272.33,-504.055C1268.87,-495.973 1264.65,-486.121 1260.79,-477.112"/>
<polygon fill="black" stroke="black" points="1263.95,-475.602 1256.79,-467.789 1257.51,-478.359 1263.95,-475.602"/>
</g>
<!-- types/integer -->
<g id="node14" class="node"><title>types/integer</title>
<ellipse fill="none" stroke="black" cx="1465.6" cy="-450" rx="56.59" ry="18"/>
<text text-anchor="middle" x="1465.6" y="-446.3" font-family="Times New Roman,serif" font-size="14.00">types/integer</text>
</g>
<!-- types/coproduct&#45;&gt;types/integer -->
<g id="edge11" class="edge"><title>types/coproduct&#45;&gt;types/integer</title>
<path fill="none" stroke="black" d="M1317.69,-506.666C1347.64,-495.392 1389.44,-479.662 1420.96,-467.798"/>
<polygon fill="black" stroke="black" points="1422.26,-471.048 1430.39,-464.25 1419.8,-464.496 1422.26,-471.048"/>
</g>
<!-- types/integer&#45;&gt;algebra/core -->
<g id="edge23" class="edge"><title>types/integer&#45;&gt;algebra/core</title>
<path fill="none" stroke="black" d="M1442.52,-433.465C1427.97,-423.677 1409.01,-410.912 1393.09,-400.2"/>
<polygon fill="black" stroke="black" points="1394.86,-397.172 1384.61,-394.492 1390.95,-402.979 1394.86,-397.172"/>
</g>
<!-- HITs/circle -->
<g id="node22" class="node"><title>HITs/circle</title>
<ellipse fill="none" stroke="black" cx="1409.6" cy="-90" rx="51.9908" ry="18"/>
<text text-anchor="middle" x="1409.6" y="-86.3" font-family="Times New Roman,serif" font-size="14.00">HITs/circle</text>
</g>
<!-- types/integer&#45;&gt;HITs/circle -->
<g id="edge24" class="edge"><title>types/integer&#45;&gt;HITs/circle</title>
<path fill="none" stroke="black" d="M1503.07,-436.345C1523.98,-427.71 1549.23,-414.46 1566.6,-396 1596.31,-364.416 1606.6,-350.367 1606.6,-307 1606.6,-307 1606.6,-307 1606.6,-233 1606.6,-161.262 1519.56,-122.154 1461.19,-103.993"/>
<polygon fill="black" stroke="black" points="1461.96,-100.568 1451.37,-101.049 1459.95,-107.274 1461.96,-100.568"/>
</g>
<!-- HITs/reals -->
<g id="node23" class="node"><title>HITs/reals</title>
<ellipse fill="none" stroke="black" cx="1520.6" cy="-306" rx="48.9926" ry="18"/>
<text text-anchor="middle" x="1520.6" y="-302.3" font-family="Times New Roman,serif" font-size="14.00">HITs/reals</text>
</g>
<!-- types/integer&#45;&gt;HITs/reals -->
<g id="edge25" class="edge"><title>types/integer&#45;&gt;HITs/reals</title>
<path fill="none" stroke="black" d="M1501.76,-435.987C1519.56,-427.533 1539.35,-414.573 1549.6,-396 1560.79,-375.699 1550.5,-350.387 1539.2,-331.952"/>
<polygon fill="black" stroke="black" points="1542.07,-329.948 1533.66,-323.507 1536.22,-333.788 1542.07,-329.948"/>
</g>
<!-- types/dep_path&#45;&gt;types/equiv -->
<g id="edge12" class="edge"><title>types/dep_path&#45;&gt;types/equiv</title>
<path fill="none" stroke="black" d="M1211.6,-647.697C1211.6,-639.983 1211.6,-630.712 1211.6,-622.112"/>
<polygon fill="black" stroke="black" points="1215.1,-622.104 1211.6,-612.104 1208.1,-622.104 1215.1,-622.104"/>
</g>
<!-- types/heq&#45;&gt;HITs/interval -->
<g id="edge21" class="edge"><title>types/heq&#45;&gt;HITs/interval</title>
<path fill="none" stroke="black" d="M915.596,-503.871C915.596,-479.67 915.596,-435.211 915.596,-406.393"/>
<polygon fill="black" stroke="black" points="919.096,-406.189 915.596,-396.189 912.096,-406.189 919.096,-406.189"/>
</g>
<!-- HITs/graph -->
<g id="node21" class="node"><title>HITs/graph</title>
<ellipse fill="none" stroke="black" cx="469.596" cy="-450" rx="52.7911" ry="18"/>
<text text-anchor="middle" x="469.596" y="-446.3" font-family="Times New Roman,serif" font-size="14.00">HITs/graph</text>
</g>
<!-- types/heq&#45;&gt;HITs/graph -->
<g id="edge22" class="edge"><title>types/heq&#45;&gt;HITs/graph</title>
<path fill="none" stroke="black" d="M873.638,-514.415C793.25,-501.798 617.454,-474.206 526.554,-459.939"/>
<polygon fill="black" stroke="black" points="526.854,-456.444 516.432,-458.351 525.769,-463.359 526.854,-456.444"/>
</g>
<!-- types/unit&#45;&gt;structures -->
<g id="edge33" class="edge"><title>types/unit&#45;&gt;structures</title>
<path fill="none" stroke="black" d="M1166.86,-506.155C1182.04,-496.039 1202.32,-482.515 1219.01,-471.391"/>
<polygon fill="black" stroke="black" points="1220.98,-474.283 1227.36,-465.824 1217.1,-468.459 1220.98,-474.283"/>
</g>
<!-- HITs/suspension -->
<g id="node31" class="node"><title>HITs/suspension</title>
<ellipse fill="none" stroke="black" cx="1186.6" cy="-306" rx="72.5877" ry="18"/>
<text text-anchor="middle" x="1186.6" y="-302.3" font-family="Times New Roman,serif" font-size="14.00">HITs/suspension</text>
</g>
<!-- types/unit&#45;&gt;HITs/suspension -->
<g id="edge34" class="edge"><title>types/unit&#45;&gt;HITs/suspension</title>
<path fill="none" stroke="black" d="M1147.96,-503.849C1155.24,-466.753 1172.5,-378.81 1181.28,-334.103"/>
<polygon fill="black" stroke="black" points="1184.72,-334.719 1183.21,-324.232 1177.85,-333.371 1184.72,-334.719"/>
</g>
<!-- types/sigma&#45;&gt;theorems/fibration -->
<g id="edge29" class="edge"><title>types/sigma&#45;&gt;theorems/fibration</title>
<path fill="none" stroke="black" d="M769.596,-359.697C769.596,-351.983 769.596,-342.712 769.596,-334.112"/>
<polygon fill="black" stroke="black" points="773.096,-334.104 769.596,-324.104 766.096,-334.104 773.096,-334.104"/>
</g>
<!-- types/sigma&#45;&gt;theorems/prop -->
<g id="edge30" class="edge"><title>types/sigma&#45;&gt;theorems/prop</title>
<path fill="none" stroke="black" d="M722.826,-368.959C696.811,-361.838 666.546,-348.564 650.596,-324 638.483,-305.344 644.148,-279.951 651.577,-261.062"/>
<polygon fill="black" stroke="black" points="654.805,-262.417 655.539,-251.848 648.374,-259.653 654.805,-262.417"/>
</g>
<!-- HITs/colimit -->
<g id="node34" class="node"><title>HITs/colimit</title>
<ellipse fill="none" stroke="black" cx="156.596" cy="-378" rx="56.59" ry="18"/>
<text text-anchor="middle" x="156.596" y="-374.3" font-family="Times New Roman,serif" font-size="14.00">HITs/colimit</text>
</g>
<!-- HITs/graph&#45;&gt;HITs/colimit -->
<g id="edge39" class="edge"><title>HITs/graph&#45;&gt;HITs/colimit</title>
<path fill="none" stroke="black" d="M425.302,-440.062C375.776,-429.937 293.241,-412.67 222.596,-396 218.015,-394.919 213.264,-393.763 208.506,-392.583"/>
<polygon fill="black" stroke="black" points="209.335,-389.182 198.784,-390.139 207.629,-395.971 209.335,-389.182"/>
</g>
<!-- HITs/generalized -->
<g id="node35" class="node"><title>HITs/generalized</title>
<ellipse fill="none" stroke="black" cx="303.596" cy="-378" rx="72.2875" ry="18"/>
<text text-anchor="middle" x="303.596" y="-374.3" font-family="Times New Roman,serif" font-size="14.00">HITs/generalized</text>
</g>
<!-- HITs/graph&#45;&gt;HITs/generalized -->
<g id="edge40" class="edge"><title>HITs/graph&#45;&gt;HITs/generalized</title>
<path fill="none" stroke="black" d="M437.59,-435.503C412.112,-424.759 376.166,-409.602 347.919,-397.69"/>
<polygon fill="black" stroke="black" points="349.235,-394.447 338.661,-393.786 346.515,-400.897 349.235,-394.447"/>
</g>
<!-- HITs/int -->
<g id="node36" class="node"><title>HITs/int</title>
<ellipse fill="none" stroke="black" cx="41.5963" cy="-378" rx="40.8928" ry="18"/>
<text text-anchor="middle" x="41.5963" y="-374.3" font-family="Times New Roman,serif" font-size="14.00">HITs/int</text>
</g>
<!-- HITs/graph&#45;&gt;HITs/int -->
<g id="edge41" class="edge"><title>HITs/graph&#45;&gt;HITs/int</title>
<path fill="none" stroke="black" d="M418.738,-445.061C345.443,-438.67 206.213,-423.858 90.5963,-396 87.4449,-395.241 84.2109,-394.359 80.9797,-393.404"/>
<polygon fill="black" stroke="black" points="81.9705,-390.046 71.3805,-390.369 79.8602,-396.721 81.9705,-390.046"/>
</g>
<!-- HITs/pushout -->
<g id="node37" class="node"><title>HITs/pushout</title>
<ellipse fill="none" stroke="black" cx="1059.6" cy="-378" rx="61.99" ry="18"/>
<text text-anchor="middle" x="1059.6" y="-374.3" font-family="Times New Roman,serif" font-size="14.00">HITs/pushout</text>
</g>
<!-- HITs/graph&#45;&gt;HITs/pushout -->
<g id="edge42" class="edge"><title>HITs/graph&#45;&gt;HITs/pushout</title>
<path fill="none" stroke="black" d="M520.82,-445.657C613.418,-439.18 814.653,-423.123 982.596,-396 989.316,-394.915 996.33,-393.61 1003.27,-392.212"/>
<polygon fill="black" stroke="black" points="1004.27,-395.579 1013.34,-390.111 1002.84,-388.726 1004.27,-395.579"/>
</g>
<!-- HITs/moebius -->
<g id="node38" class="node"><title>HITs/moebius</title>
<ellipse fill="none" stroke="black" cx="613.596" cy="-90" rx="63.0888" ry="18"/>
<text text-anchor="middle" x="613.596" y="-86.3" font-family="Times New Roman,serif" font-size="14.00">HITs/moebius</text>
</g>
<!-- HITs/graph&#45;&gt;HITs/moebius -->
<g id="edge43" class="edge"><title>HITs/graph&#45;&gt;HITs/moebius</title>
<path fill="none" stroke="black" d="M502.544,-435.871C520.296,-427.145 541.067,-413.961 553.596,-396 576.738,-362.828 572.596,-347.447 572.596,-307 572.596,-307 572.596,-307 572.596,-233 572.596,-191.407 589.034,-145.556 601.093,-117.514"/>
<polygon fill="black" stroke="black" points="604.445,-118.59 605.299,-108.029 598.046,-115.752 604.445,-118.59"/>
</g>
<!-- types/precategory -->
<g id="node39" class="node"><title>types/precategory</title>
<ellipse fill="none" stroke="black" cx="469.596" cy="-378" rx="75.2868" ry="18"/>
<text text-anchor="middle" x="469.596" y="-374.3" font-family="Times New Roman,serif" font-size="14.00">types/precategory</text>
</g>
<!-- HITs/graph&#45;&gt;types/precategory -->
<g id="edge44" class="edge"><title>HITs/graph&#45;&gt;types/precategory</title>
<path fill="none" stroke="black" d="M469.596,-431.697C469.596,-423.983 469.596,-414.712 469.596,-406.112"/>
<polygon fill="black" stroke="black" points="473.096,-406.104 469.596,-396.104 466.096,-406.104 473.096,-406.104"/>
</g>
<!-- HITs/ntrunc -->
<g id="node32" class="node"><title>HITs/ntrunc</title>
<ellipse fill="none" stroke="black" cx="1409.6" cy="-18" rx="55.4913" ry="18"/>
<text text-anchor="middle" x="1409.6" y="-14.3" font-family="Times New Roman,serif" font-size="14.00">HITs/ntrunc</text>
</g>
<!-- HITs/circle&#45;&gt;HITs/ntrunc -->
<g id="edge35" class="edge"><title>HITs/circle&#45;&gt;HITs/ntrunc</title>
<path fill="none" stroke="black" d="M1409.6,-71.6966C1409.6,-63.9827 1409.6,-54.7125 1409.6,-46.1124"/>
<polygon fill="black" stroke="black" points="1413.1,-46.1043 1409.6,-36.1043 1406.1,-46.1044 1413.1,-46.1043"/>
</g>
<!-- theorems/hopf -->
<g id="node33" class="node"><title>theorems/hopf</title>
<ellipse fill="none" stroke="black" cx="1009.6" cy="-18" rx="63.8893" ry="18"/>
<text text-anchor="middle" x="1009.6" y="-14.3" font-family="Times New Roman,serif" font-size="14.00">theorems/hopf</text>
</g>
<!-- HITs/circle&#45;&gt;theorems/hopf -->
<g id="edge36" class="edge"><title>HITs/circle&#45;&gt;theorems/hopf</title>
<path fill="none" stroke="black" d="M1371.37,-77.6114C1363.86,-75.5825 1356.01,-73.6068 1348.6,-72 1255.29,-51.7767 1145.94,-36.1019 1077.21,-27.2069"/>
<polygon fill="black" stroke="black" points="1077.32,-23.6921 1066.95,-25.8909 1076.43,-30.6352 1077.32,-23.6921"/>
</g>
<!-- theorems/nat&#45;&gt;HITs/circle -->
<g id="edge65" class="edge"><title>theorems/nat&#45;&gt;HITs/circle</title>
<path fill="none" stroke="black" d="M1319.83,-145.638C1336.27,-135.631 1357.92,-122.457 1375.83,-111.552"/>
<polygon fill="black" stroke="black" points="1378.09,-114.275 1384.81,-106.085 1374.45,-108.295 1378.09,-114.275"/>
</g>
<!-- cubical/cubes -->
<g id="node26" class="node"><title>cubical/cubes</title>
<ellipse fill="none" stroke="black" cx="945.596" cy="-234" rx="60.3893" ry="18"/>
<text text-anchor="middle" x="945.596" y="-230.3" font-family="Times New Roman,serif" font-size="14.00">cubical/cubes</text>
</g>
<!-- types/product&#45;&gt;cubical/cubes -->
<g id="edge27" class="edge"><title>types/product&#45;&gt;cubical/cubes</title>
<path fill="none" stroke="black" d="M930.438,-288.055C932.665,-280.261 935.361,-270.822 937.859,-262.079"/>
<polygon fill="black" stroke="black" points="941.279,-262.852 940.661,-252.275 934.548,-260.929 941.279,-262.852"/>
</g>
<!-- theorems/ua -->
<g id="node27" class="node"><title>theorems/ua</title>
<ellipse fill="none" stroke="black" cx="1126.6" cy="-234" rx="54.6905" ry="18"/>
<text text-anchor="middle" x="1126.6" y="-230.3" font-family="Times New Roman,serif" font-size="14.00">theorems/ua</text>
</g>
<!-- types/product&#45;&gt;theorems/ua -->
<g id="edge28" class="edge"><title>types/product&#45;&gt;theorems/ua</title>
<path fill="none" stroke="black" d="M963.876,-291.669C997.193,-280.066 1045.55,-263.225 1080.89,-250.918"/>
<polygon fill="black" stroke="black" points="1082.19,-254.169 1090.49,-247.575 1079.89,-247.559 1082.19,-254.169"/>
</g>
<!-- cubical/path -->
<g id="node46" class="node"><title>cubical/path</title>
<ellipse fill="none" stroke="black" cx="955.596" cy="-162" rx="54.6905" ry="18"/>
<text text-anchor="middle" x="955.596" y="-158.3" font-family="Times New Roman,serif" font-size="14.00">cubical/path</text>
</g>
<!-- cubical/cubes&#45;&gt;cubical/path -->
<g id="edge57" class="edge"><title>cubical/cubes&#45;&gt;cubical/path</title>
<path fill="none" stroke="black" d="M948.068,-215.697C949.17,-207.983 950.495,-198.712 951.723,-190.112"/>
<polygon fill="black" stroke="black" points="955.203,-190.499 953.153,-180.104 948.274,-189.509 955.203,-190.499"/>
</g>
<!-- theorems/ua&#45;&gt;theorems/nat -->
<g id="edge66" class="edge"><title>theorems/ua&#45;&gt;theorems/nat</title>
<path fill="none" stroke="black" d="M1158.99,-219.503C1185.46,-208.474 1223.09,-192.793 1252,-180.748"/>
<polygon fill="black" stroke="black" points="1253.56,-183.891 1261.44,-176.814 1250.87,-177.43 1253.56,-183.891"/>
</g>
<!-- cubical/V -->
<g id="node49" class="node"><title>cubical/V</title>
<ellipse fill="none" stroke="black" cx="1294.6" cy="-90" rx="45.4919" ry="18"/>
<text text-anchor="middle" x="1294.6" y="-86.3" font-family="Times New Roman,serif" font-size="14.00">cubical/V</text>
</g>
<!-- theorems/ua&#45;&gt;cubical/V -->
<g id="edge67" class="edge"><title>theorems/ua&#45;&gt;cubical/V</title>
<path fill="none" stroke="black" d="M1136.56,-216.194C1148.63,-196.901 1170.5,-165.196 1195.6,-144 1213.18,-129.148 1235.6,-116.723 1254.65,-107.645"/>
<polygon fill="black" stroke="black" points="1256.37,-110.706 1263.99,-103.335 1253.44,-104.351 1256.37,-110.706"/>
</g>
<!-- theorems/fibration&#45;&gt;theorems/hopf -->
<g id="edge63" class="edge"><title>theorems/fibration&#45;&gt;theorems/hopf</title>
<path fill="none" stroke="black" d="M762.646,-288.016C746.716,-246.054 712.768,-136.239 764.596,-72 786.158,-45.2756 874.235,-31.3593 938.629,-24.6155"/>
<polygon fill="black" stroke="black" points="939.149,-28.0809 948.747,-23.5939 938.446,-21.1163 939.149,-28.0809"/>
</g>
<!-- types/swale -->
<g id="node30" class="node"><title>types/swale</title>
<ellipse fill="none" stroke="black" cx="1487.6" cy="-378" rx="52.7911" ry="18"/>
<text text-anchor="middle" x="1487.6" y="-374.3" font-family="Times New Roman,serif" font-size="14.00">types/swale</text>
</g>
<!-- types/swale&#45;&gt;algebra/group -->
<g id="edge31" class="edge"><title>types/swale&#45;&gt;algebra/group</title>
<path fill="none" stroke="black" d="M1466.73,-361.465C1454.01,-351.992 1437.55,-339.729 1423.46,-329.239"/>
<polygon fill="black" stroke="black" points="1425.16,-326.143 1415.05,-322.977 1420.98,-331.757 1425.16,-326.143"/>
</g>
<!-- types/swale&#45;&gt;HITs/reals -->
<g id="edge32" class="edge"><title>types/swale&#45;&gt;HITs/reals</title>
<path fill="none" stroke="black" d="M1495.58,-360.055C1499.39,-351.973 1504.04,-342.121 1508.29,-333.112"/>
<polygon fill="black" stroke="black" points="1511.58,-334.327 1512.68,-323.789 1505.25,-331.342 1511.58,-334.327"/>
</g>
<!-- HITs/suspension&#45;&gt;HITs/circle -->
<g id="edge52" class="edge"><title>HITs/suspension&#45;&gt;HITs/circle</title>
<path fill="none" stroke="black" d="M1188.9,-287.956C1194.23,-250.902 1208.53,-164.675 1228.6,-144 1230.99,-141.538 1307.91,-119.56 1360.7,-104.69"/>
<polygon fill="black" stroke="black" points="1361.9,-107.988 1370.57,-101.91 1360,-101.25 1361.9,-107.988"/>
</g>
<!-- HITs/colimit&#45;&gt;HITs/truncation -->
<g id="edge37" class="edge"><title>HITs/colimit&#45;&gt;HITs/truncation</title>
<path fill="none" stroke="black" d="M186.699,-362.666C208.648,-352.213 238.643,-337.93 262.753,-326.449"/>
<polygon fill="black" stroke="black" points="264.487,-329.5 272.01,-322.041 261.477,-323.18 264.487,-329.5"/>
</g>
<!-- HITs/generalized&#45;&gt;HITs/truncation -->
<g id="edge38" class="edge"><title>HITs/generalized&#45;&gt;HITs/truncation</title>
<path fill="none" stroke="black" d="M303.596,-359.697C303.596,-351.983 303.596,-342.712 303.596,-334.112"/>
<polygon fill="black" stroke="black" points="307.096,-334.104 303.596,-324.104 300.096,-334.104 307.096,-334.104"/>
</g>
<!-- HITs/rat -->
<g id="node40" class="node"><title>HITs/rat</title>
<ellipse fill="none" stroke="black" cx="41.5963" cy="-306" rx="41.6928" ry="18"/>
<text text-anchor="middle" x="41.5963" y="-302.3" font-family="Times New Roman,serif" font-size="14.00">HITs/rat</text>
</g>
<!-- HITs/int&#45;&gt;HITs/rat -->
<g id="edge45" class="edge"><title>HITs/int&#45;&gt;HITs/rat</title>
<path fill="none" stroke="black" d="M41.5963,-359.697C41.5963,-351.983 41.5963,-342.712 41.5963,-334.112"/>
<polygon fill="black" stroke="black" points="45.0964,-334.104 41.5963,-324.104 38.0964,-334.104 45.0964,-334.104"/>
</g>
<!-- HITs/pushout&#45;&gt;HITs/reals -->
<g id="edge49" class="edge"><title>HITs/pushout&#45;&gt;HITs/reals</title>
<path fill="none" stroke="black" d="M1118.14,-372.158C1196.99,-364.988 1341.42,-349.567 1462.6,-324 1466.7,-323.135 1470.93,-322.126 1475.15,-321.039"/>
<polygon fill="black" stroke="black" points="1476.19,-324.385 1484.93,-318.393 1474.36,-317.628 1476.19,-324.385"/>
</g>
<!-- HITs/pushout&#45;&gt;HITs/suspension -->
<g id="edge50" class="edge"><title>HITs/pushout&#45;&gt;HITs/suspension</title>
<path fill="none" stroke="black" d="M1087.15,-361.811C1105.37,-351.769 1129.48,-338.482 1149.39,-327.505"/>
<polygon fill="black" stroke="black" points="1151.15,-330.536 1158.21,-322.644 1147.77,-324.406 1151.15,-330.536"/>
</g>
<!-- HITs/join -->
<g id="node41" class="node"><title>HITs/join</title>
<ellipse fill="none" stroke="black" cx="1050.6" cy="-306" rx="45.4919" ry="18"/>
<text text-anchor="middle" x="1050.6" y="-302.3" font-family="Times New Roman,serif" font-size="14.00">HITs/join</text>
</g>
<!-- HITs/pushout&#45;&gt;HITs/join -->
<g id="edge51" class="edge"><title>HITs/pushout&#45;&gt;HITs/join</title>
<path fill="none" stroke="black" d="M1057.37,-359.697C1056.38,-351.983 1055.19,-342.712 1054.08,-334.112"/>
<polygon fill="black" stroke="black" points="1057.54,-333.576 1052.8,-324.104 1050.6,-334.469 1057.54,-333.576"/>
</g>
<!-- cubical/connection -->
<g id="node45" class="node"><title>cubical/connection</title>
<ellipse fill="none" stroke="black" cx="996.596" cy="-90" rx="79.0865" ry="18"/>
<text text-anchor="middle" x="996.596" y="-86.3" font-family="Times New Roman,serif" font-size="14.00">cubical/connection</text>
</g>
<!-- cubical/path&#45;&gt;HITs/moebius -->
<g id="edge58" class="edge"><title>cubical/path&#45;&gt;HITs/moebius</title>
<path fill="none" stroke="black" d="M910.534,-151.777C849.632,-139.311 740.907,-117.058 673.274,-103.215"/>
<polygon fill="black" stroke="black" points="673.694,-99.7282 663.195,-101.152 672.29,-106.586 673.694,-99.7282"/>
</g>
<!-- cubical/path&#45;&gt;cubical/connection -->
<g id="edge59" class="edge"><title>cubical/path&#45;&gt;cubical/connection</title>
<path fill="none" stroke="black" d="M965.521,-144.055C970.285,-135.922 976.097,-125.998 981.401,-116.943"/>
<polygon fill="black" stroke="black" points="984.444,-118.673 986.478,-108.275 978.404,-115.135 984.444,-118.673"/>
</g>
<!-- cubical/example -->
<g id="node47" class="node"><title>cubical/example</title>
<ellipse fill="none" stroke="black" cx="1162.6" cy="-90" rx="68.7879" ry="18"/>
<text text-anchor="middle" x="1162.6" y="-86.3" font-family="Times New Roman,serif" font-size="14.00">cubical/example</text>
</g>
<!-- cubical/path&#45;&gt;cubical/example -->
<g id="edge60" class="edge"><title>cubical/path&#45;&gt;cubical/example</title>
<path fill="none" stroke="black" d="M992.604,-148.485C1026.02,-137.186 1075.46,-120.465 1112.42,-107.966"/>
<polygon fill="black" stroke="black" points="1113.66,-111.242 1122.01,-104.723 1111.42,-104.611 1113.66,-111.242"/>
</g>
<!-- cubical/square -->
<g id="node48" class="node"><title>cubical/square</title>
<ellipse fill="none" stroke="black" cx="836.596" cy="-90" rx="63.0888" ry="18"/>
<text text-anchor="middle" x="836.596" y="-86.3" font-family="Times New Roman,serif" font-size="14.00">cubical/square</text>
</g>
<!-- cubical/path&#45;&gt;cubical/square -->
<g id="edge61" class="edge"><title>cubical/path&#45;&gt;cubical/square</title>
<path fill="none" stroke="black" d="M930.068,-145.983C913.048,-135.972 890.451,-122.679 871.738,-111.672"/>
<polygon fill="black" stroke="black" points="873.3,-108.53 862.906,-106.476 869.751,-114.563 873.3,-108.53"/>
</g>
<!-- cubical/path&#45;&gt;cubical/V -->
<g id="edge62" class="edge"><title>cubical/path&#45;&gt;cubical/V</title>
<path fill="none" stroke="black" d="M1004.39,-153.771C1061.46,-144.892 1158.56,-128.461 1240.6,-108 1244.14,-107.115 1247.8,-106.129 1251.46,-105.089"/>
<polygon fill="black" stroke="black" points="1252.48,-108.438 1261.07,-102.245 1250.49,-101.725 1252.48,-108.438"/>
</g>
<!-- theorems/functions -->
<g id="node50" class="node"><title>theorems/functions</title>
<ellipse fill="none" stroke="black" cx="1376.6" cy="-666" rx="79.8859" ry="18"/>
<text text-anchor="middle" x="1376.6" y="-662.3" font-family="Times New Roman,serif" font-size="14.00">theorems/functions</text>
</g>
<!-- theorems/functions&#45;&gt;types/equiv -->
<g id="edge64" class="edge"><title>theorems/functions&#45;&gt;types/equiv</title>
<path fill="none" stroke="black" d="M1340.79,-649.811C1314.76,-638.769 1279.49,-623.803 1252.37,-612.3"/>
<polygon fill="black" stroke="black" points="1253.73,-609.071 1243.15,-608.387 1250.99,-615.515 1253.73,-609.071"/>
</g>
<!-- theorems/topology -->
<g id="node51" class="node"><title>theorems/topology</title>
<ellipse fill="none" stroke="black" cx="1379.6" cy="-810" rx="79.0865" ry="18"/>
<text text-anchor="middle" x="1379.6" y="-806.3" font-family="Times New Roman,serif" font-size="14.00">theorems/topology</text>
</g>
</g>
</svg>
