<?xml version="1.0" encoding="UTF-8" standalone="no"?>
<!DOCTYPE svg PUBLIC "-//W3C//DTD SVG 1.1//EN"
 "http://www.w3.org/Graphics/SVG/1.1/DTD/svg11.dtd">
<!-- Generated by graphviz version 2.43.0 (0)
 -->
<!-- Title: dependency_map Pages: 1 -->
<svg width="1909pt" height="908pt"
 viewBox="0.00 0.00 1908.69 908.00" xmlns="http://www.w3.org/2000/svg" xmlns:xlink="http://www.w3.org/1999/xlink">
<g id="graph0" class="graph" transform="scale(1 1) rotate(0) translate(4 904)">
<title>dependency_map</title>
<polygon fill="white" stroke="transparent" points="-4,4 -4,-904 1904.69,-904 1904.69,4 -4,4"/>
<!-- proto -->
<g id="node1" class="node">
<title>proto</title>
<ellipse fill="none" stroke="black" cx="1246.84" cy="-882" rx="36" ry="18"/>
<text text-anchor="middle" x="1246.84" y="-878.3" font-family="Times,serif" font-size="14.00">proto</text>
</g>
<!-- types/eq -->
<g id="node2" class="node">
<title>types/eq</title>
<ellipse fill="none" stroke="black" cx="1318.84" cy="-810" rx="50.09" ry="18"/>
<text text-anchor="middle" x="1318.84" y="-806.3" font-family="Times,serif" font-size="14.00">types/eq</text>
</g>
<!-- proto&#45;&gt;types/eq -->
<g id="edge1" class="edge">
<title>proto&#45;&gt;types/eq</title>
<path fill="none" stroke="black" d="M1262.82,-865.46C1272.22,-856.32 1284.29,-844.59 1294.82,-834.35"/>
<polygon fill="black" stroke="black" points="1297.43,-836.7 1302.16,-827.22 1292.55,-831.68 1297.43,-836.7"/>
</g>
<!-- support -->
<g id="node4" class="node">
<title>support</title>
<ellipse fill="none" stroke="black" cx="1318.84" cy="-738" rx="46.59" ry="18"/>
<text text-anchor="middle" x="1318.84" y="-734.3" font-family="Times,serif" font-size="14.00">support</text>
</g>
<!-- types/eq&#45;&gt;support -->
<g id="edge14" class="edge">
<title>types/eq&#45;&gt;support</title>
<path fill="none" stroke="black" d="M1318.84,-791.7C1318.84,-783.98 1318.84,-774.71 1318.84,-766.11"/>
<polygon fill="black" stroke="black" points="1322.34,-766.1 1318.84,-756.1 1315.34,-766.1 1322.34,-766.1"/>
</g>
<!-- meta/hott_theory -->
<g id="node3" class="node">
<title>meta/hott_theory</title>
<ellipse fill="none" stroke="black" cx="1391.84" cy="-882" rx="90.98" ry="18"/>
<text text-anchor="middle" x="1391.84" y="-878.3" font-family="Times,serif" font-size="14.00">meta/hott_theory</text>
</g>
<!-- meta/hott_theory&#45;&gt;types/eq -->
<g id="edge2" class="edge">
<title>meta/hott_theory&#45;&gt;types/eq</title>
<path fill="none" stroke="black" d="M1374.17,-864.05C1364.89,-855.16 1353.37,-844.11 1343.25,-834.41"/>
<polygon fill="black" stroke="black" points="1345.49,-831.7 1335.85,-827.31 1340.64,-836.75 1345.49,-831.7"/>
</g>
<!-- types/equiv -->
<g id="node5" class="node">
<title>types/equiv</title>
<ellipse fill="none" stroke="black" cx="1318.84" cy="-666" rx="64.19" ry="18"/>
<text text-anchor="middle" x="1318.84" y="-662.3" font-family="Times,serif" font-size="14.00">types/equiv</text>
</g>
<!-- support&#45;&gt;types/equiv -->
<g id="edge3" class="edge">
<title>support&#45;&gt;types/equiv</title>
<path fill="none" stroke="black" d="M1318.84,-719.7C1318.84,-711.98 1318.84,-702.71 1318.84,-694.11"/>
<polygon fill="black" stroke="black" points="1322.34,-694.1 1318.84,-684.1 1315.34,-694.1 1322.34,-694.1"/>
</g>
<!-- types/coproduct -->
<g id="node18" class="node">
<title>types/coproduct</title>
<ellipse fill="none" stroke="black" cx="1106.84" cy="-522" rx="85.29" ry="18"/>
<text text-anchor="middle" x="1106.84" y="-518.3" font-family="Times,serif" font-size="14.00">types/coproduct</text>
</g>
<!-- types/equiv&#45;&gt;types/coproduct -->
<g id="edge17" class="edge">
<title>types/equiv&#45;&gt;types/coproduct</title>
<path fill="none" stroke="black" d="M1294.93,-648.99C1256.94,-623.54 1182.7,-573.81 1139.73,-545.03"/>
<polygon fill="black" stroke="black" points="1141.57,-542.05 1131.31,-539.39 1137.67,-547.86 1141.57,-542.05"/>
</g>
<!-- types/heq -->
<g id="node21" class="node">
<title>types/heq</title>
<ellipse fill="none" stroke="black" cx="1360.84" cy="-594" rx="55.79" ry="18"/>
<text text-anchor="middle" x="1360.84" y="-590.3" font-family="Times,serif" font-size="14.00">types/heq</text>
</g>
<!-- types/equiv&#45;&gt;types/heq -->
<g id="edge18" class="edge">
<title>types/equiv&#45;&gt;types/heq</title>
<path fill="none" stroke="black" d="M1329.01,-648.05C1333.96,-639.8 1340.02,-629.7 1345.52,-620.54"/>
<polygon fill="black" stroke="black" points="1348.62,-622.16 1350.77,-611.79 1342.62,-618.56 1348.62,-622.16"/>
</g>
<!-- HITs/infinitesimal -->
<g id="node22" class="node">
<title>HITs/infinitesimal</title>
<ellipse fill="none" stroke="black" cx="1527.84" cy="-594" rx="92.88" ry="18"/>
<text text-anchor="middle" x="1527.84" y="-590.3" font-family="Times,serif" font-size="14.00">HITs/infinitesimal</text>
</g>
<!-- types/equiv&#45;&gt;HITs/infinitesimal -->
<g id="edge19" class="edge">
<title>types/equiv&#45;&gt;HITs/infinitesimal</title>
<path fill="none" stroke="black" d="M1358.64,-651.67C1391.23,-640.75 1437.65,-625.21 1473.63,-613.16"/>
<polygon fill="black" stroke="black" points="1475.11,-616.35 1483.48,-609.86 1472.89,-609.71 1475.11,-616.35"/>
</g>
<!-- types/lost -->
<g id="node23" class="node">
<title>types/lost</title>
<ellipse fill="none" stroke="black" cx="1694.84" cy="-594" rx="55.79" ry="18"/>
<text text-anchor="middle" x="1694.84" y="-590.3" font-family="Times,serif" font-size="14.00">types/lost</text>
</g>
<!-- types/equiv&#45;&gt;types/lost -->
<g id="edge20" class="edge">
<title>types/equiv&#45;&gt;types/lost</title>
<path fill="none" stroke="black" d="M1374.74,-656.97C1437.21,-647.66 1541.23,-631.1 1629.84,-612 1634.45,-611.01 1639.21,-609.91 1643.98,-608.75"/>
<polygon fill="black" stroke="black" points="1644.85,-612.14 1653.71,-606.33 1643.16,-605.35 1644.85,-612.14"/>
</g>
<!-- types/unit -->
<g id="node24" class="node">
<title>types/unit</title>
<ellipse fill="none" stroke="black" cx="1053.84" cy="-450" rx="57.69" ry="18"/>
<text text-anchor="middle" x="1053.84" y="-446.3" font-family="Times,serif" font-size="14.00">types/unit</text>
</g>
<!-- types/equiv&#45;&gt;types/unit -->
<g id="edge21" class="edge">
<title>types/equiv&#45;&gt;types/unit</title>
<path fill="none" stroke="black" d="M1258.31,-659.89C1185.77,-650.14 1067.2,-621.87 1012.84,-540 999.15,-519.38 1014.26,-493.46 1029.86,-474.92"/>
<polygon fill="black" stroke="black" points="1032.68,-477 1036.72,-467.21 1027.46,-472.35 1032.68,-477"/>
</g>
<!-- types/sigma -->
<g id="node25" class="node">
<title>types/sigma</title>
<ellipse fill="none" stroke="black" cx="1276.84" cy="-522" rx="66.89" ry="18"/>
<text text-anchor="middle" x="1276.84" y="-518.3" font-family="Times,serif" font-size="14.00">types/sigma</text>
</g>
<!-- types/equiv&#45;&gt;types/sigma -->
<g id="edge22" class="edge">
<title>types/equiv&#45;&gt;types/sigma</title>
<path fill="none" stroke="black" d="M1310.5,-648.15C1305.69,-637.89 1299.82,-624.42 1295.84,-612 1289.31,-591.59 1284.36,-567.83 1281.16,-549.99"/>
<polygon fill="black" stroke="black" points="1284.58,-549.25 1279.43,-539.99 1277.69,-550.44 1284.58,-549.25"/>
</g>
<!-- structures -->
<g id="node6" class="node">
<title>structures</title>
<ellipse fill="none" stroke="black" cx="1140.84" cy="-378" rx="59.29" ry="18"/>
<text text-anchor="middle" x="1140.84" y="-374.3" font-family="Times,serif" font-size="14.00">structures</text>
</g>
<!-- HITs/interval -->
<g id="node7" class="node">
<title>HITs/interval</title>
<ellipse fill="none" stroke="black" cx="648.84" cy="-306" rx="71.49" ry="18"/>
<text text-anchor="middle" x="648.84" y="-302.3" font-family="Times,serif" font-size="14.00">HITs/interval</text>
</g>
<!-- structures&#45;&gt;HITs/interval -->
<g id="edge4" class="edge">
<title>structures&#45;&gt;HITs/interval</title>
<path fill="none" stroke="black" d="M1088.19,-369.51C999.27,-356.86 819.32,-331.25 719.52,-317.06"/>
<polygon fill="black" stroke="black" points="719.92,-313.58 709.52,-315.63 718.93,-320.51 719.92,-313.58"/>
</g>
<!-- HITs/merely -->
<g id="node8" class="node">
<title>HITs/merely</title>
<ellipse fill="none" stroke="black" cx="1605.84" cy="-306" rx="67.69" ry="18"/>
<text text-anchor="middle" x="1605.84" y="-302.3" font-family="Times,serif" font-size="14.00">HITs/merely</text>
</g>
<!-- structures&#45;&gt;HITs/merely -->
<g id="edge5" class="edge">
<title>structures&#45;&gt;HITs/merely</title>
<path fill="none" stroke="black" d="M1183.46,-365.47C1191.84,-363.45 1200.58,-361.52 1208.84,-360 1342.22,-335.51 1377.72,-344.08 1511.84,-324 1521.81,-322.51 1532.33,-320.77 1542.6,-318.98"/>
<polygon fill="black" stroke="black" points="1543.51,-322.37 1552.74,-317.18 1542.29,-315.48 1543.51,-322.37"/>
</g>
<!-- HITs/trunc -->
<g id="node9" class="node">
<title>HITs/trunc</title>
<ellipse fill="none" stroke="black" cx="1316.84" cy="-306" rx="59.59" ry="18"/>
<text text-anchor="middle" x="1316.84" y="-302.3" font-family="Times,serif" font-size="14.00">HITs/trunc</text>
</g>
<!-- structures&#45;&gt;HITs/trunc -->
<g id="edge6" class="edge">
<title>structures&#45;&gt;HITs/trunc</title>
<path fill="none" stroke="black" d="M1175.19,-363.34C1203.09,-352.24 1242.61,-336.52 1272.82,-324.51"/>
<polygon fill="black" stroke="black" points="1274.28,-327.7 1282.28,-320.75 1271.69,-321.19 1274.28,-327.7"/>
</g>
<!-- types/nat -->
<g id="node10" class="node">
<title>types/nat</title>
<ellipse fill="none" stroke="black" cx="1448.84" cy="-306" rx="53.89" ry="18"/>
<text text-anchor="middle" x="1448.84" y="-302.3" font-family="Times,serif" font-size="14.00">types/nat</text>
</g>
<!-- structures&#45;&gt;types/nat -->
<g id="edge7" class="edge">
<title>structures&#45;&gt;types/nat</title>
<path fill="none" stroke="black" d="M1184.67,-365.74C1192.69,-363.76 1201.01,-361.77 1208.84,-360 1287.13,-342.26 1307.72,-342.47 1385.84,-324 1390.18,-322.98 1394.66,-321.86 1399.16,-320.72"/>
<polygon fill="black" stroke="black" points="1400.15,-324.08 1408.94,-318.17 1398.39,-317.3 1400.15,-324.08"/>
</g>
<!-- theorems/ua -->
<g id="node11" class="node">
<title>theorems/ua</title>
<ellipse fill="none" stroke="black" cx="977.84" cy="-306" rx="68.79" ry="18"/>
<text text-anchor="middle" x="977.84" y="-302.3" font-family="Times,serif" font-size="14.00">theorems/ua</text>
</g>
<!-- structures&#45;&gt;theorems/ua -->
<g id="edge8" class="edge">
<title>structures&#45;&gt;theorems/ua</title>
<path fill="none" stroke="black" d="M1107.86,-362.83C1082.97,-352.15 1048.61,-337.39 1021.46,-325.73"/>
<polygon fill="black" stroke="black" points="1022.75,-322.48 1012.18,-321.75 1019.99,-328.91 1022.75,-322.48"/>
</g>
<!-- cubical/cubes -->
<g id="node41" class="node">
<title>cubical/cubes</title>
<ellipse fill="none" stroke="black" cx="289.84" cy="-234" rx="73.39" ry="18"/>
<text text-anchor="middle" x="289.84" y="-230.3" font-family="Times,serif" font-size="14.00">cubical/cubes</text>
</g>
<!-- HITs/interval&#45;&gt;cubical/cubes -->
<g id="edge43" class="edge">
<title>HITs/interval&#45;&gt;cubical/cubes</title>
<path fill="none" stroke="black" d="M593.35,-294.64C537.39,-284.14 448.55,-267.29 371.84,-252 366,-250.83 359.92,-249.61 353.84,-248.37"/>
<polygon fill="black" stroke="black" points="354.13,-244.85 343.63,-246.27 352.72,-251.71 354.13,-244.85"/>
</g>
<!-- theorems/prop -->
<g id="node42" class="node">
<title>theorems/prop</title>
<ellipse fill="none" stroke="black" cx="977.84" cy="-234" rx="79.09" ry="18"/>
<text text-anchor="middle" x="977.84" y="-230.3" font-family="Times,serif" font-size="14.00">theorems/prop</text>
</g>
<!-- HITs/interval&#45;&gt;theorems/prop -->
<g id="edge44" class="edge">
<title>HITs/interval&#45;&gt;theorems/prop</title>
<path fill="none" stroke="black" d="M701.7,-293.75C758.91,-281.58 850.23,-262.15 912.05,-249"/>
<polygon fill="black" stroke="black" points="913.04,-252.37 922.09,-246.86 911.58,-245.52 913.04,-252.37"/>
</g>
<!-- theorems/fibration -->
<g id="node43" class="node">
<title>theorems/fibration</title>
<ellipse fill="none" stroke="black" cx="477.84" cy="-234" rx="96.68" ry="18"/>
<text text-anchor="middle" x="477.84" y="-230.3" font-family="Times,serif" font-size="14.00">theorems/fibration</text>
</g>
<!-- HITs/interval&#45;&gt;theorems/fibration -->
<g id="edge45" class="edge">
<title>HITs/interval&#45;&gt;theorems/fibration</title>
<path fill="none" stroke="black" d="M612.99,-290.33C587.59,-279.93 553.23,-265.86 525.52,-254.52"/>
<polygon fill="black" stroke="black" points="526.6,-251.18 516.02,-250.63 523.94,-257.65 526.6,-251.18"/>
</g>
<!-- HITs/merely&#45;&gt;theorems/prop -->
<g id="edge46" class="edge">
<title>HITs/merely&#45;&gt;theorems/prop</title>
<path fill="none" stroke="black" d="M1552.77,-294.64C1539.44,-292.25 1525.15,-289.86 1511.84,-288 1426.95,-276.13 1188.19,-253.94 1060.62,-242.4"/>
<polygon fill="black" stroke="black" points="1060.78,-238.9 1050.51,-241.49 1060.15,-245.87 1060.78,-238.9"/>
</g>
<!-- HITs/simplicial -->
<g id="node45" class="node">
<title>HITs/simplicial</title>
<ellipse fill="none" stroke="black" cx="1748.84" cy="-234" rx="79.09" ry="18"/>
<text text-anchor="middle" x="1748.84" y="-230.3" font-family="Times,serif" font-size="14.00">HITs/simplicial</text>
</g>
<!-- HITs/merely&#45;&gt;HITs/simplicial -->
<g id="edge47" class="edge">
<title>HITs/merely&#45;&gt;HITs/simplicial</title>
<path fill="none" stroke="black" d="M1636.87,-289.81C1657.66,-279.63 1685.26,-266.12 1707.86,-255.06"/>
<polygon fill="black" stroke="black" points="1709.44,-258.18 1716.88,-250.64 1706.36,-251.9 1709.44,-258.18"/>
</g>
<!-- theorems/functions -->
<g id="node46" class="node">
<title>theorems/functions</title>
<ellipse fill="none" stroke="black" cx="1641.84" cy="-162" rx="100.98" ry="18"/>
<text text-anchor="middle" x="1641.84" y="-158.3" font-family="Times,serif" font-size="14.00">theorems/functions</text>
</g>
<!-- HITs/merely&#45;&gt;theorems/functions -->
<g id="edge48" class="edge">
<title>HITs/merely&#45;&gt;theorems/functions</title>
<path fill="none" stroke="black" d="M1611.79,-287.94C1615.27,-277.62 1619.61,-264.14 1622.84,-252 1628.3,-231.52 1633.25,-208.06 1636.73,-190.37"/>
<polygon fill="black" stroke="black" points="1640.24,-190.66 1638.7,-180.18 1633.37,-189.34 1640.24,-190.66"/>
</g>
<!-- HITs/quotient -->
<g id="node40" class="node">
<title>HITs/quotient</title>
<ellipse fill="none" stroke="black" cx="1539.84" cy="-234" rx="74.19" ry="18"/>
<text text-anchor="middle" x="1539.84" y="-230.3" font-family="Times,serif" font-size="14.00">HITs/quotient</text>
</g>
<!-- HITs/trunc&#45;&gt;HITs/quotient -->
<g id="edge53" class="edge">
<title>HITs/trunc&#45;&gt;HITs/quotient</title>
<path fill="none" stroke="black" d="M1356.71,-292.49C1393.05,-281.08 1447,-264.14 1486.93,-251.61"/>
<polygon fill="black" stroke="black" points="1488.02,-254.94 1496.51,-248.6 1485.92,-248.26 1488.02,-254.94"/>
</g>
<!-- theorems/nat -->
<g id="node30" class="node">
<title>theorems/nat</title>
<ellipse fill="none" stroke="black" cx="1374.84" cy="-234" rx="72.59" ry="18"/>
<text text-anchor="middle" x="1374.84" y="-230.3" font-family="Times,serif" font-size="14.00">theorems/nat</text>
</g>
<!-- types/nat&#45;&gt;theorems/nat -->
<g id="edge27" class="edge">
<title>types/nat&#45;&gt;theorems/nat</title>
<path fill="none" stroke="black" d="M1431.68,-288.76C1422.2,-279.79 1410.25,-268.49 1399.75,-258.56"/>
<polygon fill="black" stroke="black" points="1402.1,-255.96 1392.43,-251.63 1397.28,-261.05 1402.1,-255.96"/>
</g>
<!-- theorems/ua&#45;&gt;theorems/nat -->
<g id="edge70" class="edge">
<title>theorems/ua&#45;&gt;theorems/nat</title>
<path fill="none" stroke="black" d="M1028.1,-293.55C1037.3,-291.6 1046.85,-289.66 1055.84,-288 1160.61,-268.65 1187.98,-270.82 1292.84,-252 1299.04,-250.89 1305.49,-249.66 1311.92,-248.4"/>
<polygon fill="black" stroke="black" points="1312.87,-251.78 1321.99,-246.39 1311.5,-244.92 1312.87,-251.78"/>
</g>
<!-- theorems/ua&#45;&gt;theorems/prop -->
<g id="edge71" class="edge">
<title>theorems/ua&#45;&gt;theorems/prop</title>
<path fill="none" stroke="black" d="M977.84,-287.7C977.84,-279.98 977.84,-270.71 977.84,-262.11"/>
<polygon fill="black" stroke="black" points="981.34,-262.1 977.84,-252.1 974.34,-262.1 981.34,-262.1"/>
</g>
<!-- cubical/V -->
<g id="node51" class="node">
<title>cubical/V</title>
<ellipse fill="none" stroke="black" cx="438.84" cy="-90" rx="52.79" ry="18"/>
<text text-anchor="middle" x="438.84" y="-86.3" font-family="Times,serif" font-size="14.00">cubical/V</text>
</g>
<!-- theorems/ua&#45;&gt;cubical/V -->
<g id="edge72" class="edge">
<title>theorems/ua&#45;&gt;cubical/V</title>
<path fill="none" stroke="black" d="M918.53,-296.77C831.03,-282.76 664.21,-248.87 538.84,-180 508.09,-163.11 478.83,-135.19 460,-115.12"/>
<polygon fill="black" stroke="black" points="462.42,-112.58 453.07,-107.59 457.27,-117.32 462.42,-112.58"/>
</g>
<!-- algebra/eilenberg_maclane -->
<g id="node12" class="node">
<title>algebra/eilenberg_maclane</title>
<ellipse fill="none" stroke="black" cx="943.84" cy="-18" rx="135.68" ry="18"/>
<text text-anchor="middle" x="943.84" y="-14.3" font-family="Times,serif" font-size="14.00">algebra/eilenberg_maclane</text>
</g>
<!-- algebra/finite -->
<g id="node13" class="node">
<title>algebra/finite</title>
<ellipse fill="none" stroke="black" cx="1336.84" cy="-18" rx="72.59" ry="18"/>
<text text-anchor="middle" x="1336.84" y="-14.3" font-family="Times,serif" font-size="14.00">algebra/finite</text>
</g>
<!-- algebra/group -->
<g id="node14" class="node">
<title>algebra/group</title>
<ellipse fill="none" stroke="black" cx="1487.84" cy="-90" rx="76.09" ry="18"/>
<text text-anchor="middle" x="1487.84" y="-86.3" font-family="Times,serif" font-size="14.00">algebra/group</text>
</g>
<!-- algebra/group&#45;&gt;algebra/eilenberg_maclane -->
<g id="edge9" class="edge">
<title>algebra/group&#45;&gt;algebra/eilenberg_maclane</title>
<path fill="none" stroke="black" d="M1422.76,-80.63C1329.91,-68.68 1158.45,-46.62 1047.87,-32.39"/>
<polygon fill="black" stroke="black" points="1048.06,-28.88 1037.69,-31.08 1047.17,-35.82 1048.06,-28.88"/>
</g>
<!-- algebra/group&#45;&gt;algebra/finite -->
<g id="edge10" class="edge">
<title>algebra/group&#45;&gt;algebra/finite</title>
<path fill="none" stroke="black" d="M1454.7,-73.64C1432.4,-63.3 1402.81,-49.58 1378.85,-38.48"/>
<polygon fill="black" stroke="black" points="1380.19,-35.24 1369.64,-34.21 1377.24,-41.59 1380.19,-35.24"/>
</g>
<!-- algebra/homology -->
<g id="node15" class="node">
<title>algebra/homology</title>
<ellipse fill="none" stroke="black" cx="1520.84" cy="-18" rx="93.68" ry="18"/>
<text text-anchor="middle" x="1520.84" y="-14.3" font-family="Times,serif" font-size="14.00">algebra/homology</text>
</g>
<!-- algebra/group&#45;&gt;algebra/homology -->
<g id="edge11" class="edge">
<title>algebra/group&#45;&gt;algebra/homology</title>
<path fill="none" stroke="black" d="M1495.83,-72.05C1499.58,-64.09 1504.15,-54.41 1508.34,-45.51"/>
<polygon fill="black" stroke="black" points="1511.6,-46.81 1512.7,-36.28 1505.27,-43.83 1511.6,-46.81"/>
</g>
<!-- algebra/ring -->
<g id="node16" class="node">
<title>algebra/ring</title>
<ellipse fill="none" stroke="black" cx="1699.84" cy="-18" rx="67.69" ry="18"/>
<text text-anchor="middle" x="1699.84" y="-14.3" font-family="Times,serif" font-size="14.00">algebra/ring</text>
</g>
<!-- algebra/group&#45;&gt;algebra/ring -->
<g id="edge12" class="edge">
<title>algebra/group&#45;&gt;algebra/ring</title>
<path fill="none" stroke="black" d="M1530.23,-75C1564.47,-63.7 1612.76,-47.75 1649.06,-35.77"/>
<polygon fill="black" stroke="black" points="1650.57,-38.96 1658.96,-32.5 1648.37,-32.31 1650.57,-38.96"/>
</g>
<!-- types/category -->
<g id="node17" class="node">
<title>types/category</title>
<ellipse fill="none" stroke="black" cx="642.84" cy="-90" rx="79.09" ry="18"/>
<text text-anchor="middle" x="642.84" y="-86.3" font-family="Times,serif" font-size="14.00">types/category</text>
</g>
<!-- types/coproduct&#45;&gt;structures -->
<g id="edge13" class="edge">
<title>types/coproduct&#45;&gt;structures</title>
<path fill="none" stroke="black" d="M1111.54,-503.86C1114.34,-493.5 1117.9,-480.02 1120.84,-468 1125.88,-447.36 1131.13,-423.91 1134.99,-406.27"/>
<polygon fill="black" stroke="black" points="1138.49,-406.62 1137.2,-396.11 1131.65,-405.14 1138.49,-406.62"/>
</g>
<!-- types/ens -->
<g id="node19" class="node">
<title>types/ens</title>
<ellipse fill="none" stroke="black" cx="1060.84" cy="-162" rx="55.49" ry="18"/>
<text text-anchor="middle" x="1060.84" y="-158.3" font-family="Times,serif" font-size="14.00">types/ens</text>
</g>
<!-- types/ens&#45;&gt;algebra/group -->
<g id="edge15" class="edge">
<title>types/ens&#45;&gt;algebra/group</title>
<path fill="none" stroke="black" d="M1108.99,-153.11C1184.21,-140.78 1329.96,-116.88 1417.12,-102.59"/>
<polygon fill="black" stroke="black" points="1417.89,-106.01 1427.19,-100.94 1416.75,-99.11 1417.89,-106.01"/>
</g>
<!-- types/setquot -->
<g id="node20" class="node">
<title>types/setquot</title>
<ellipse fill="none" stroke="black" cx="1070.84" cy="-90" rx="74.19" ry="18"/>
<text text-anchor="middle" x="1070.84" y="-86.3" font-family="Times,serif" font-size="14.00">types/setquot</text>
</g>
<!-- types/ens&#45;&gt;types/setquot -->
<g id="edge16" class="edge">
<title>types/ens&#45;&gt;types/setquot</title>
<path fill="none" stroke="black" d="M1063.31,-143.7C1064.42,-135.98 1065.74,-126.71 1066.97,-118.11"/>
<polygon fill="black" stroke="black" points="1070.45,-118.5 1068.4,-108.1 1063.52,-117.51 1070.45,-118.5"/>
</g>
<!-- HITs/graph -->
<g id="node26" class="node">
<title>HITs/graph</title>
<ellipse fill="none" stroke="black" cx="1563.84" cy="-450" rx="62.29" ry="18"/>
<text text-anchor="middle" x="1563.84" y="-446.3" font-family="Times,serif" font-size="14.00">HITs/graph</text>
</g>
<!-- types/heq&#45;&gt;HITs/graph -->
<g id="edge23" class="edge">
<title>types/heq&#45;&gt;HITs/graph</title>
<path fill="none" stroke="black" d="M1402.96,-582.04C1455.72,-568.13 1539.88,-545.32 1544.84,-540 1560.2,-523.52 1564.35,-497.79 1565,-478.22"/>
<polygon fill="black" stroke="black" points="1568.5,-478.1 1565.06,-468.08 1561.5,-478.06 1568.5,-478.1"/>
</g>
<!-- theorems/funext -->
<g id="node27" class="node">
<title>theorems/funext</title>
<ellipse fill="none" stroke="black" cx="1448.84" cy="-522" rx="87.18" ry="18"/>
<text text-anchor="middle" x="1448.84" y="-518.3" font-family="Times,serif" font-size="14.00">theorems/funext</text>
</g>
<!-- types/heq&#45;&gt;theorems/funext -->
<g id="edge24" class="edge">
<title>types/heq&#45;&gt;theorems/funext</title>
<path fill="none" stroke="black" d="M1380.81,-577.12C1392.37,-567.92 1407.13,-556.18 1419.95,-545.98"/>
<polygon fill="black" stroke="black" points="1422.39,-548.52 1428.03,-539.55 1418.03,-543.04 1422.39,-548.52"/>
</g>
<!-- types/unit&#45;&gt;structures -->
<g id="edge31" class="edge">
<title>types/unit&#45;&gt;structures</title>
<path fill="none" stroke="black" d="M1074.02,-432.76C1085.55,-423.49 1100.18,-411.71 1112.81,-401.55"/>
<polygon fill="black" stroke="black" points="1115.18,-404.14 1120.77,-395.15 1110.79,-398.69 1115.18,-404.14"/>
</g>
<!-- HITs/suspension -->
<g id="node33" class="node">
<title>HITs/suspension</title>
<ellipse fill="none" stroke="black" cx="1151.84" cy="-306" rx="87.18" ry="18"/>
<text text-anchor="middle" x="1151.84" y="-302.3" font-family="Times,serif" font-size="14.00">HITs/suspension</text>
</g>
<!-- types/unit&#45;&gt;HITs/suspension -->
<g id="edge32" class="edge">
<title>types/unit&#45;&gt;HITs/suspension</title>
<path fill="none" stroke="black" d="M1053.78,-431.79C1054.51,-412.69 1058.14,-381.72 1072.84,-360 1081.8,-346.76 1095.28,-335.96 1108.58,-327.64"/>
<polygon fill="black" stroke="black" points="1110.41,-330.62 1117.25,-322.53 1106.85,-324.59 1110.41,-330.62"/>
</g>
<!-- types/sigma&#45;&gt;structures -->
<g id="edge30" class="edge">
<title>types/sigma&#45;&gt;structures</title>
<path fill="none" stroke="black" d="M1260.97,-504.43C1236.92,-479.32 1191.11,-431.48 1163.53,-402.69"/>
<polygon fill="black" stroke="black" points="1166.05,-400.26 1156.61,-395.46 1161,-405.1 1166.05,-400.26"/>
</g>
<!-- HITs/colimit -->
<g id="node37" class="node">
<title>HITs/colimit</title>
<ellipse fill="none" stroke="black" cx="1448.84" cy="-378" rx="66.89" ry="18"/>
<text text-anchor="middle" x="1448.84" y="-374.3" font-family="Times,serif" font-size="14.00">HITs/colimit</text>
</g>
<!-- HITs/graph&#45;&gt;HITs/colimit -->
<g id="edge39" class="edge">
<title>HITs/graph&#45;&gt;HITs/colimit</title>
<path fill="none" stroke="black" d="M1538.32,-433.46C1522.2,-423.66 1501.17,-410.85 1483.55,-400.13"/>
<polygon fill="black" stroke="black" points="1485.05,-396.94 1474.69,-394.73 1481.41,-402.92 1485.05,-396.94"/>
</g>
<!-- HITs/generalized -->
<g id="node38" class="node">
<title>HITs/generalized</title>
<ellipse fill="none" stroke="black" cx="1622.84" cy="-378" rx="89.08" ry="18"/>
<text text-anchor="middle" x="1622.84" y="-374.3" font-family="Times,serif" font-size="14.00">HITs/generalized</text>
</g>
<!-- HITs/graph&#45;&gt;HITs/generalized -->
<g id="edge40" class="edge">
<title>HITs/graph&#45;&gt;HITs/generalized</title>
<path fill="none" stroke="black" d="M1577.82,-432.41C1585.06,-423.82 1594.05,-413.16 1602.08,-403.63"/>
<polygon fill="black" stroke="black" points="1604.78,-405.86 1608.55,-395.96 1599.43,-401.35 1604.78,-405.86"/>
</g>
<!-- HITs/pushout -->
<g id="node39" class="node">
<title>HITs/pushout</title>
<ellipse fill="none" stroke="black" cx="1290.84" cy="-378" rx="72.59" ry="18"/>
<text text-anchor="middle" x="1290.84" y="-374.3" font-family="Times,serif" font-size="14.00">HITs/pushout</text>
</g>
<!-- HITs/graph&#45;&gt;HITs/pushout -->
<g id="edge41" class="edge">
<title>HITs/graph&#45;&gt;HITs/pushout</title>
<path fill="none" stroke="black" d="M1518.76,-437.44C1472.48,-425.57 1400.24,-407.05 1349.52,-394.05"/>
<polygon fill="black" stroke="black" points="1350.23,-390.62 1339.68,-391.52 1348.5,-397.4 1350.23,-390.62"/>
</g>
<!-- HITs/graph&#45;&gt;HITs/quotient -->
<g id="edge42" class="edge">
<title>HITs/graph&#45;&gt;HITs/quotient</title>
<path fill="none" stroke="black" d="M1624.26,-445.26C1658.58,-439.67 1698.95,-426.5 1720.84,-396 1730.17,-383 1724.69,-375.53 1720.84,-360 1712.14,-324.88 1710.04,-311.86 1682.84,-288 1661.22,-269.04 1632.2,-256.62 1605.96,-248.62"/>
<polygon fill="black" stroke="black" points="1606.63,-245.17 1596.05,-245.76 1604.69,-251.89 1606.63,-245.17"/>
</g>
<!-- types/product -->
<g id="node32" class="node">
<title>types/product</title>
<ellipse fill="none" stroke="black" cx="1393.84" cy="-450" rx="75.29" ry="18"/>
<text text-anchor="middle" x="1393.84" y="-446.3" font-family="Times,serif" font-size="14.00">types/product</text>
</g>
<!-- theorems/funext&#45;&gt;types/product -->
<g id="edge62" class="edge">
<title>theorems/funext&#45;&gt;types/product</title>
<path fill="none" stroke="black" d="M1435.53,-504.05C1428.84,-495.54 1420.61,-485.07 1413.23,-475.68"/>
<polygon fill="black" stroke="black" points="1415.96,-473.49 1407.03,-467.79 1410.46,-477.81 1415.96,-473.49"/>
</g>
<!-- types/integer -->
<g id="node28" class="node">
<title>types/integer</title>
<ellipse fill="none" stroke="black" cx="1400.84" cy="-162" rx="72.59" ry="18"/>
<text text-anchor="middle" x="1400.84" y="-158.3" font-family="Times,serif" font-size="14.00">types/integer</text>
</g>
<!-- types/integer&#45;&gt;algebra/group -->
<g id="edge25" class="edge">
<title>types/integer&#45;&gt;algebra/group</title>
<path fill="none" stroke="black" d="M1421.46,-144.41C1432.84,-135.26 1447.13,-123.76 1459.54,-113.77"/>
<polygon fill="black" stroke="black" points="1461.77,-116.47 1467.37,-107.47 1457.39,-111.01 1461.77,-116.47"/>
</g>
<!-- HITs/circle -->
<g id="node29" class="node">
<title>HITs/circle</title>
<ellipse fill="none" stroke="black" cx="1223.84" cy="-90" rx="60.39" ry="18"/>
<text text-anchor="middle" x="1223.84" y="-86.3" font-family="Times,serif" font-size="14.00">HITs/circle</text>
</g>
<!-- types/integer&#45;&gt;HITs/circle -->
<g id="edge26" class="edge">
<title>types/integer&#45;&gt;HITs/circle</title>
<path fill="none" stroke="black" d="M1363.74,-146.33C1335.96,-135.34 1297.84,-120.27 1268.41,-108.63"/>
<polygon fill="black" stroke="black" points="1269.38,-105.24 1258.79,-104.82 1266.8,-111.75 1269.38,-105.24"/>
</g>
<!-- theorems/hopf -->
<g id="node34" class="node">
<title>theorems/hopf</title>
<ellipse fill="none" stroke="black" cx="669.84" cy="-18" rx="77.99" ry="18"/>
<text text-anchor="middle" x="669.84" y="-14.3" font-family="Times,serif" font-size="14.00">theorems/hopf</text>
</g>
<!-- HITs/circle&#45;&gt;theorems/hopf -->
<g id="edge33" class="edge">
<title>HITs/circle&#45;&gt;theorems/hopf</title>
<path fill="none" stroke="black" d="M1180.35,-77.46C1171.61,-75.42 1162.47,-73.48 1153.84,-72 997.53,-45.22 956.36,-54.36 798.84,-36 781.49,-33.98 762.85,-31.63 745.29,-29.33"/>
<polygon fill="black" stroke="black" points="745.46,-25.82 735.09,-27.98 744.55,-32.76 745.46,-25.82"/>
</g>
<!-- HITs/moebius -->
<g id="node35" class="node">
<title>HITs/moebius</title>
<ellipse fill="none" stroke="black" cx="1171.84" cy="-18" rx="74.19" ry="18"/>
<text text-anchor="middle" x="1171.84" y="-14.3" font-family="Times,serif" font-size="14.00">HITs/moebius</text>
</g>
<!-- HITs/circle&#45;&gt;HITs/moebius -->
<g id="edge34" class="edge">
<title>HITs/circle&#45;&gt;HITs/moebius</title>
<path fill="none" stroke="black" d="M1211.25,-72.05C1204.99,-63.63 1197.31,-53.28 1190.39,-43.97"/>
<polygon fill="black" stroke="black" points="1193.09,-41.73 1184.31,-35.79 1187.47,-45.9 1193.09,-41.73"/>
</g>
<!-- HITs/reals -->
<g id="node36" class="node">
<title>HITs/reals</title>
<ellipse fill="none" stroke="black" cx="1842.84" cy="-18" rx="57.69" ry="18"/>
<text text-anchor="middle" x="1842.84" y="-14.3" font-family="Times,serif" font-size="14.00">HITs/reals</text>
</g>
<!-- HITs/circle&#45;&gt;HITs/reals -->
<g id="edge35" class="edge">
<title>HITs/circle&#45;&gt;HITs/reals</title>
<path fill="none" stroke="black" d="M1280.58,-83.59C1421.02,-70.2 1773.8,-36.53 1776.84,-36 1781.62,-35.16 1786.55,-34.16 1791.48,-33.06"/>
<polygon fill="black" stroke="black" points="1792.58,-36.4 1801.51,-30.7 1790.98,-29.58 1792.58,-36.4"/>
</g>
<!-- theorems/nat&#45;&gt;types/integer -->
<g id="edge63" class="edge">
<title>theorems/nat&#45;&gt;types/integer</title>
<path fill="none" stroke="black" d="M1381.14,-216.05C1384.06,-208.18 1387.61,-198.62 1390.89,-189.79"/>
<polygon fill="black" stroke="black" points="1394.22,-190.87 1394.42,-180.28 1387.66,-188.43 1394.22,-190.87"/>
</g>
<!-- HITs/int -->
<g id="node53" class="node">
<title>HITs/int</title>
<ellipse fill="none" stroke="black" cx="1261.84" cy="-162" rx="48.19" ry="18"/>
<text text-anchor="middle" x="1261.84" y="-158.3" font-family="Times,serif" font-size="14.00">HITs/int</text>
</g>
<!-- theorems/nat&#45;&gt;HITs/int -->
<g id="edge64" class="edge">
<title>theorems/nat&#45;&gt;HITs/int</title>
<path fill="none" stroke="black" d="M1349.2,-217.12C1333.01,-207.09 1311.94,-194.03 1294.55,-183.26"/>
<polygon fill="black" stroke="black" points="1296.18,-180.15 1285.84,-177.86 1292.49,-186.11 1296.18,-180.15"/>
</g>
<!-- types/precategory -->
<g id="node31" class="node">
<title>types/precategory</title>
<ellipse fill="none" stroke="black" cx="642.84" cy="-162" rx="94.78" ry="18"/>
<text text-anchor="middle" x="642.84" y="-158.3" font-family="Times,serif" font-size="14.00">types/precategory</text>
</g>
<!-- types/precategory&#45;&gt;types/category -->
<g id="edge28" class="edge">
<title>types/precategory&#45;&gt;types/category</title>
<path fill="none" stroke="black" d="M642.84,-143.7C642.84,-135.98 642.84,-126.71 642.84,-118.11"/>
<polygon fill="black" stroke="black" points="646.34,-118.1 642.84,-108.1 639.34,-118.1 646.34,-118.1"/>
</g>
<!-- types/product&#45;&gt;structures -->
<g id="edge29" class="edge">
<title>types/product&#45;&gt;structures</title>
<path fill="none" stroke="black" d="M1346.55,-435.92C1302.94,-423.85 1238.31,-405.97 1193.16,-393.48"/>
<polygon fill="black" stroke="black" points="1193.84,-390.03 1183.27,-390.74 1191.98,-396.78 1193.84,-390.03"/>
</g>
<!-- HITs/suspension&#45;&gt;HITs/circle -->
<g id="edge51" class="edge">
<title>HITs/suspension&#45;&gt;HITs/circle</title>
<path fill="none" stroke="black" d="M1154.53,-287.69C1157.58,-269.57 1163.14,-240.41 1170.84,-216 1181.93,-180.88 1199.22,-142.06 1211.02,-117.14"/>
<polygon fill="black" stroke="black" points="1214.24,-118.53 1215.4,-108 1207.93,-115.5 1214.24,-118.53"/>
</g>
<!-- HITs/join -->
<g id="node44" class="node">
<title>HITs/join</title>
<ellipse fill="none" stroke="black" cx="1231.84" cy="-234" rx="51.99" ry="18"/>
<text text-anchor="middle" x="1231.84" y="-230.3" font-family="Times,serif" font-size="14.00">HITs/join</text>
</g>
<!-- HITs/suspension&#45;&gt;HITs/join -->
<g id="edge52" class="edge">
<title>HITs/suspension&#45;&gt;HITs/join</title>
<path fill="none" stroke="black" d="M1170.8,-288.41C1181.31,-279.21 1194.53,-267.64 1205.98,-257.63"/>
<polygon fill="black" stroke="black" points="1208.35,-260.21 1213.57,-250.99 1203.74,-254.94 1208.35,-260.21"/>
</g>
<!-- HITs/colimit&#45;&gt;HITs/merely -->
<g id="edge36" class="edge">
<title>HITs/colimit&#45;&gt;HITs/merely</title>
<path fill="none" stroke="black" d="M1482.14,-362.15C1505.76,-351.62 1537.67,-337.39 1563.17,-326.03"/>
<polygon fill="black" stroke="black" points="1564.89,-329.09 1572.59,-321.82 1562.04,-322.7 1564.89,-329.09"/>
</g>
<!-- HITs/colimit&#45;&gt;types/nat -->
<g id="edge37" class="edge">
<title>HITs/colimit&#45;&gt;types/nat</title>
<path fill="none" stroke="black" d="M1448.84,-359.7C1448.84,-351.98 1448.84,-342.71 1448.84,-334.11"/>
<polygon fill="black" stroke="black" points="1452.34,-334.1 1448.84,-324.1 1445.34,-334.1 1452.34,-334.1"/>
</g>
<!-- HITs/generalized&#45;&gt;HITs/merely -->
<g id="edge38" class="edge">
<title>HITs/generalized&#45;&gt;HITs/merely</title>
<path fill="none" stroke="black" d="M1618.64,-359.7C1616.75,-351.9 1614.46,-342.51 1612.36,-333.83"/>
<polygon fill="black" stroke="black" points="1615.76,-333 1610,-324.1 1608.95,-334.65 1615.76,-333"/>
</g>
<!-- HITs/pushout&#45;&gt;HITs/suspension -->
<g id="edge49" class="edge">
<title>HITs/pushout&#45;&gt;HITs/suspension</title>
<path fill="none" stroke="black" d="M1260.34,-361.64C1240.34,-351.57 1213.97,-338.29 1192.24,-327.34"/>
<polygon fill="black" stroke="black" points="1193.74,-324.18 1183.24,-322.81 1190.59,-330.43 1193.74,-324.18"/>
</g>
<!-- HITs/quotient&#45;&gt;algebra/group -->
<g id="edge50" class="edge">
<title>HITs/quotient&#45;&gt;algebra/group</title>
<path fill="none" stroke="black" d="M1533.57,-215.87C1524.63,-191.46 1508.14,-146.43 1497.6,-117.64"/>
<polygon fill="black" stroke="black" points="1500.86,-116.38 1494.14,-108.19 1494.29,-118.78 1500.86,-116.38"/>
</g>
<!-- cubical/path -->
<g id="node48" class="node">
<title>cubical/path</title>
<ellipse fill="none" stroke="black" cx="289.84" cy="-162" rx="67.69" ry="18"/>
<text text-anchor="middle" x="289.84" y="-158.3" font-family="Times,serif" font-size="14.00">cubical/path</text>
</g>
<!-- cubical/cubes&#45;&gt;cubical/path -->
<g id="edge54" class="edge">
<title>cubical/cubes&#45;&gt;cubical/path</title>
<path fill="none" stroke="black" d="M289.84,-215.7C289.84,-207.98 289.84,-198.71 289.84,-190.11"/>
<polygon fill="black" stroke="black" points="293.34,-190.1 289.84,-180.1 286.34,-190.1 293.34,-190.1"/>
</g>
<!-- theorems/prop&#45;&gt;algebra/eilenberg_maclane -->
<g id="edge65" class="edge">
<title>theorems/prop&#45;&gt;algebra/eilenberg_maclane</title>
<path fill="none" stroke="black" d="M975.12,-215.85C969.24,-178.83 955.31,-91.18 948.19,-46.39"/>
<polygon fill="black" stroke="black" points="951.61,-45.56 946.58,-36.23 944.69,-46.66 951.61,-45.56"/>
</g>
<!-- theorems/prop&#45;&gt;types/ens -->
<g id="edge66" class="edge">
<title>theorems/prop&#45;&gt;types/ens</title>
<path fill="none" stroke="black" d="M997.51,-216.41C1008.42,-207.21 1022.13,-195.64 1034.01,-185.63"/>
<polygon fill="black" stroke="black" points="1036.5,-188.11 1041.88,-178.99 1031.98,-182.76 1036.5,-188.11"/>
</g>
<!-- theorems/prop&#45;&gt;HITs/circle -->
<g id="edge67" class="edge">
<title>theorems/prop&#45;&gt;HITs/circle</title>
<path fill="none" stroke="black" d="M1028.31,-220.08C1057.72,-211.28 1094.81,-197.97 1124.84,-180 1133.1,-175.06 1172.52,-138.87 1199.06,-114.19"/>
<polygon fill="black" stroke="black" points="1201.57,-116.64 1206.5,-107.26 1196.79,-111.52 1201.57,-116.64"/>
</g>
<!-- theorems/prop&#45;&gt;types/precategory -->
<g id="edge68" class="edge">
<title>theorems/prop&#45;&gt;types/precategory</title>
<path fill="none" stroke="black" d="M921.39,-221.2C864.34,-209.28 776,-190.82 714.14,-177.9"/>
<polygon fill="black" stroke="black" points="714.57,-174.41 704.07,-175.79 713.14,-181.26 714.57,-174.41"/>
</g>
<!-- theorems/classical -->
<g id="node52" class="node">
<title>theorems/classical</title>
<ellipse fill="none" stroke="black" cx="852.84" cy="-162" rx="96.68" ry="18"/>
<text text-anchor="middle" x="852.84" y="-158.3" font-family="Times,serif" font-size="14.00">theorems/classical</text>
</g>
<!-- theorems/prop&#45;&gt;theorems/classical -->
<g id="edge69" class="edge">
<title>theorems/prop&#45;&gt;theorems/classical</title>
<path fill="none" stroke="black" d="M949.48,-217.12C932.14,-207.41 909.76,-194.87 890.9,-184.31"/>
<polygon fill="black" stroke="black" points="892.4,-181.14 881.96,-179.31 888.98,-187.25 892.4,-181.14"/>
</g>
<!-- theorems/fibration&#45;&gt;theorems/hopf -->
<g id="edge59" class="edge">
<title>theorems/fibration&#45;&gt;theorems/hopf</title>
<path fill="none" stroke="black" d="M481.93,-215.67C490.35,-183.44 512.48,-113.76 554.84,-72 570.99,-56.08 592.8,-44.38 613.08,-36.09"/>
<polygon fill="black" stroke="black" points="614.52,-39.29 622.58,-32.41 611.99,-32.76 614.52,-39.29"/>
</g>
<!-- theorems/functions&#45;&gt;algebra/group -->
<g id="edge60" class="edge">
<title>theorems/functions&#45;&gt;algebra/group</title>
<path fill="none" stroke="black" d="M1606.9,-145.12C1584.26,-134.82 1554.62,-121.35 1530.58,-110.42"/>
<polygon fill="black" stroke="black" points="1531.88,-107.17 1521.33,-106.22 1528.98,-113.55 1531.88,-107.17"/>
</g>
<!-- theorems/functions&#45;&gt;HITs/reals -->
<g id="edge61" class="edge">
<title>theorems/functions&#45;&gt;HITs/reals</title>
<path fill="none" stroke="black" d="M1665.29,-144.43C1701.66,-118.74 1771.69,-69.27 1812.08,-40.74"/>
<polygon fill="black" stroke="black" points="1814.31,-43.44 1820.46,-34.81 1810.28,-37.72 1814.31,-43.44"/>
</g>
<!-- cubical/connection -->
<g id="node47" class="node">
<title>cubical/connection</title>
<ellipse fill="none" stroke="black" cx="96.84" cy="-90" rx="96.68" ry="18"/>
<text text-anchor="middle" x="96.84" y="-86.3" font-family="Times,serif" font-size="14.00">cubical/connection</text>
</g>
<!-- cubical/path&#45;&gt;cubical/connection -->
<g id="edge55" class="edge">
<title>cubical/path&#45;&gt;cubical/connection</title>
<path fill="none" stroke="black" d="M251.25,-147C221.84,-136.34 181.04,-121.54 148.77,-109.83"/>
<polygon fill="black" stroke="black" points="149.65,-106.43 139.05,-106.31 147.26,-113.01 149.65,-106.43"/>
</g>
<!-- cubical/square -->
<g id="node50" class="node">
<title>cubical/square</title>
<ellipse fill="none" stroke="black" cx="289.84" cy="-90" rx="77.99" ry="18"/>
<text text-anchor="middle" x="289.84" y="-86.3" font-family="Times,serif" font-size="14.00">cubical/square</text>
</g>
<!-- cubical/path&#45;&gt;cubical/square -->
<g id="edge56" class="edge">
<title>cubical/path&#45;&gt;cubical/square</title>
<path fill="none" stroke="black" d="M289.84,-143.7C289.84,-135.98 289.84,-126.71 289.84,-118.11"/>
<polygon fill="black" stroke="black" points="293.34,-118.1 289.84,-108.1 286.34,-118.1 293.34,-118.1"/>
</g>
<!-- cubical/path&#45;&gt;cubical/V -->
<g id="edge57" class="edge">
<title>cubical/path&#45;&gt;cubical/V</title>
<path fill="none" stroke="black" d="M321.81,-145.98C344.68,-135.24 375.6,-120.71 399.91,-109.29"/>
<polygon fill="black" stroke="black" points="401.65,-112.34 409.21,-104.92 398.67,-106.01 401.65,-112.34"/>
</g>
<!-- cubical/example -->
<g id="node49" class="node">
<title>cubical/example</title>
<ellipse fill="none" stroke="black" cx="438.84" cy="-18" rx="85.29" ry="18"/>
<text text-anchor="middle" x="438.84" y="-14.3" font-family="Times,serif" font-size="14.00">cubical/example</text>
</g>
<!-- cubical/V&#45;&gt;cubical/example -->
<g id="edge58" class="edge">
<title>cubical/V&#45;&gt;cubical/example</title>
<path fill="none" stroke="black" d="M438.84,-71.7C438.84,-63.98 438.84,-54.71 438.84,-46.11"/>
<polygon fill="black" stroke="black" points="442.34,-46.1 438.84,-36.1 435.34,-46.1 442.34,-46.1"/>
</g>
</g>
</svg>
