<?xml version="1.0" encoding="UTF-8" standalone="no"?>
<!DOCTYPE svg PUBLIC "-//W3C//DTD SVG 1.1//EN"
 "http://www.w3.org/Graphics/SVG/1.1/DTD/svg11.dtd">
<!-- Generated by graphviz version 2.43.0 (0)
 -->
<!-- Title: dependency_map Pages: 1 -->
<svg width="1751pt" height="980pt"
 viewBox="0.00 0.00 1750.93 980.00" xmlns="http://www.w3.org/2000/svg" xmlns:xlink="http://www.w3.org/1999/xlink">
<g id="graph0" class="graph" transform="scale(1 1) rotate(0) translate(4 976)">
<title>dependency_map</title>
<polygon fill="white" stroke="transparent" points="-4,4 -4,-976 1746.93,-976 1746.93,4 -4,4"/>
<!-- proto -->
<g id="node1" class="node">
<title>proto</title>
<ellipse fill="none" stroke="black" cx="1256.84" cy="-954" rx="36" ry="18"/>
<text text-anchor="middle" x="1256.84" y="-950.3" font-family="Times,serif" font-size="14.00">proto</text>
</g>
<!-- types/eq -->
<g id="node2" class="node">
<title>types/eq</title>
<ellipse fill="none" stroke="black" cx="1328.84" cy="-882" rx="50.09" ry="18"/>
<text text-anchor="middle" x="1328.84" y="-878.3" font-family="Times,serif" font-size="14.00">types/eq</text>
</g>
<!-- proto&#45;&gt;types/eq -->
<g id="edge1" class="edge">
<title>proto&#45;&gt;types/eq</title>
<path fill="none" stroke="black" d="M1272.82,-937.46C1282.22,-928.32 1294.29,-916.59 1304.82,-906.35"/>
<polygon fill="black" stroke="black" points="1307.43,-908.7 1312.16,-899.22 1302.55,-903.68 1307.43,-908.7"/>
</g>
<!-- support -->
<g id="node4" class="node">
<title>support</title>
<ellipse fill="none" stroke="black" cx="1328.84" cy="-810" rx="46.59" ry="18"/>
<text text-anchor="middle" x="1328.84" y="-806.3" font-family="Times,serif" font-size="14.00">support</text>
</g>
<!-- types/eq&#45;&gt;support -->
<g id="edge15" class="edge">
<title>types/eq&#45;&gt;support</title>
<path fill="none" stroke="black" d="M1328.84,-863.7C1328.84,-855.98 1328.84,-846.71 1328.84,-838.11"/>
<polygon fill="black" stroke="black" points="1332.34,-838.1 1328.84,-828.1 1325.34,-838.1 1332.34,-838.1"/>
</g>
<!-- meta/hott_theory -->
<g id="node3" class="node">
<title>meta/hott_theory</title>
<ellipse fill="none" stroke="black" cx="1401.84" cy="-954" rx="90.98" ry="18"/>
<text text-anchor="middle" x="1401.84" y="-950.3" font-family="Times,serif" font-size="14.00">meta/hott_theory</text>
</g>
<!-- meta/hott_theory&#45;&gt;types/eq -->
<g id="edge2" class="edge">
<title>meta/hott_theory&#45;&gt;types/eq</title>
<path fill="none" stroke="black" d="M1384.17,-936.05C1374.89,-927.16 1363.37,-916.11 1353.25,-906.41"/>
<polygon fill="black" stroke="black" points="1355.49,-903.7 1345.85,-899.31 1350.64,-908.75 1355.49,-903.7"/>
</g>
<!-- types/equiv -->
<g id="node5" class="node">
<title>types/equiv</title>
<ellipse fill="none" stroke="black" cx="1328.84" cy="-738" rx="64.19" ry="18"/>
<text text-anchor="middle" x="1328.84" y="-734.3" font-family="Times,serif" font-size="14.00">types/equiv</text>
</g>
<!-- support&#45;&gt;types/equiv -->
<g id="edge3" class="edge">
<title>support&#45;&gt;types/equiv</title>
<path fill="none" stroke="black" d="M1328.84,-791.7C1328.84,-783.98 1328.84,-774.71 1328.84,-766.11"/>
<polygon fill="black" stroke="black" points="1332.34,-766.1 1328.84,-756.1 1325.34,-766.1 1332.34,-766.1"/>
</g>
<!-- types/coproduct -->
<g id="node19" class="node">
<title>types/coproduct</title>
<ellipse fill="none" stroke="black" cx="1027.84" cy="-594" rx="85.29" ry="18"/>
<text text-anchor="middle" x="1027.84" y="-590.3" font-family="Times,serif" font-size="14.00">types/coproduct</text>
</g>
<!-- types/equiv&#45;&gt;types/coproduct -->
<g id="edge18" class="edge">
<title>types/equiv&#45;&gt;types/coproduct</title>
<path fill="none" stroke="black" d="M1297.48,-722.21C1243.17,-696.58 1131.56,-643.93 1070.33,-615.05"/>
<polygon fill="black" stroke="black" points="1071.49,-611.72 1060.96,-610.62 1068.51,-618.06 1071.49,-611.72"/>
</g>
<!-- types/heq -->
<g id="node22" class="node">
<title>types/heq</title>
<ellipse fill="none" stroke="black" cx="1286.84" cy="-666" rx="55.79" ry="18"/>
<text text-anchor="middle" x="1286.84" y="-662.3" font-family="Times,serif" font-size="14.00">types/heq</text>
</g>
<!-- types/equiv&#45;&gt;types/heq -->
<g id="edge19" class="edge">
<title>types/equiv&#45;&gt;types/heq</title>
<path fill="none" stroke="black" d="M1318.67,-720.05C1313.72,-711.8 1307.66,-701.7 1302.16,-692.54"/>
<polygon fill="black" stroke="black" points="1305.06,-690.56 1296.91,-683.79 1299.06,-694.16 1305.06,-690.56"/>
</g>
<!-- HITs/infinitesimal -->
<g id="node23" class="node">
<title>HITs/infinitesimal</title>
<ellipse fill="none" stroke="black" cx="1491.84" cy="-666" rx="92.88" ry="18"/>
<text text-anchor="middle" x="1491.84" y="-662.3" font-family="Times,serif" font-size="14.00">HITs/infinitesimal</text>
</g>
<!-- types/equiv&#45;&gt;HITs/infinitesimal -->
<g id="edge20" class="edge">
<title>types/equiv&#45;&gt;HITs/infinitesimal</title>
<path fill="none" stroke="black" d="M1362.62,-722.5C1386.78,-712.12 1419.6,-698.03 1446.11,-686.64"/>
<polygon fill="black" stroke="black" points="1447.76,-689.74 1455.56,-682.58 1444.99,-683.31 1447.76,-689.74"/>
</g>
<!-- types/lost -->
<g id="node24" class="node">
<title>types/lost</title>
<ellipse fill="none" stroke="black" cx="1658.84" cy="-666" rx="55.79" ry="18"/>
<text text-anchor="middle" x="1658.84" y="-662.3" font-family="Times,serif" font-size="14.00">types/lost</text>
</g>
<!-- types/equiv&#45;&gt;types/lost -->
<g id="edge21" class="edge">
<title>types/equiv&#45;&gt;types/lost</title>
<path fill="none" stroke="black" d="M1381.08,-727.49C1434.66,-717.51 1520.35,-700.94 1593.84,-684 1598.24,-682.98 1602.8,-681.89 1607.37,-680.76"/>
<polygon fill="black" stroke="black" points="1608.48,-684.09 1617.32,-678.25 1606.77,-677.3 1608.48,-684.09"/>
</g>
<!-- types/unit -->
<g id="node25" class="node">
<title>types/unit</title>
<ellipse fill="none" stroke="black" cx="1458.84" cy="-522" rx="57.69" ry="18"/>
<text text-anchor="middle" x="1458.84" y="-518.3" font-family="Times,serif" font-size="14.00">types/unit</text>
</g>
<!-- types/equiv&#45;&gt;types/unit -->
<g id="edge22" class="edge">
<title>types/equiv&#45;&gt;types/unit</title>
<path fill="none" stroke="black" d="M1339.04,-720.21C1361.67,-682.95 1416.21,-593.17 1443.19,-548.76"/>
<polygon fill="black" stroke="black" points="1446.31,-550.37 1448.51,-540.01 1440.32,-546.74 1446.31,-550.37"/>
</g>
<!-- types/sigma -->
<g id="node26" class="node">
<title>types/sigma</title>
<ellipse fill="none" stroke="black" cx="857.84" cy="-594" rx="66.89" ry="18"/>
<text text-anchor="middle" x="857.84" y="-590.3" font-family="Times,serif" font-size="14.00">types/sigma</text>
</g>
<!-- types/equiv&#45;&gt;types/sigma -->
<g id="edge23" class="edge">
<title>types/equiv&#45;&gt;types/sigma</title>
<path fill="none" stroke="black" d="M1284.18,-725.01C1245.6,-714.54 1188.4,-698.76 1138.84,-684 1057.87,-659.89 964.48,-629.87 908.35,-611.58"/>
<polygon fill="black" stroke="black" points="909.25,-608.19 898.66,-608.42 907.08,-614.85 909.25,-608.19"/>
</g>
<!-- structures -->
<g id="node6" class="node">
<title>structures</title>
<ellipse fill="none" stroke="black" cx="1027.84" cy="-450" rx="59.29" ry="18"/>
<text text-anchor="middle" x="1027.84" y="-446.3" font-family="Times,serif" font-size="14.00">structures</text>
</g>
<!-- HITs/interval -->
<g id="node7" class="node">
<title>HITs/interval</title>
<ellipse fill="none" stroke="black" cx="682.84" cy="-378" rx="71.49" ry="18"/>
<text text-anchor="middle" x="682.84" y="-374.3" font-family="Times,serif" font-size="14.00">HITs/interval</text>
</g>
<!-- structures&#45;&gt;HITs/interval -->
<g id="edge4" class="edge">
<title>structures&#45;&gt;HITs/interval</title>
<path fill="none" stroke="black" d="M979.87,-439.27C919.11,-426.94 814.22,-405.66 746.73,-391.96"/>
<polygon fill="black" stroke="black" points="747.14,-388.47 736.64,-389.92 745.75,-395.33 747.14,-388.47"/>
</g>
<!-- HITs/merely -->
<g id="node8" class="node">
<title>HITs/merely</title>
<ellipse fill="none" stroke="black" cx="1366.84" cy="-378" rx="67.69" ry="18"/>
<text text-anchor="middle" x="1366.84" y="-374.3" font-family="Times,serif" font-size="14.00">HITs/merely</text>
</g>
<!-- structures&#45;&gt;HITs/merely -->
<g id="edge5" class="edge">
<title>structures&#45;&gt;HITs/merely</title>
<path fill="none" stroke="black" d="M1075.33,-439.19C1135.48,-426.77 1239.22,-405.35 1305.35,-391.7"/>
<polygon fill="black" stroke="black" points="1306.15,-395.11 1315.23,-389.66 1304.73,-388.25 1306.15,-395.11"/>
</g>
<!-- HITs/trunc -->
<g id="node9" class="node">
<title>HITs/trunc</title>
<ellipse fill="none" stroke="black" cx="1026.84" cy="-378" rx="59.59" ry="18"/>
<text text-anchor="middle" x="1026.84" y="-374.3" font-family="Times,serif" font-size="14.00">HITs/trunc</text>
</g>
<!-- structures&#45;&gt;HITs/trunc -->
<g id="edge6" class="edge">
<title>structures&#45;&gt;HITs/trunc</title>
<path fill="none" stroke="black" d="M1027.59,-431.7C1027.48,-423.98 1027.35,-414.71 1027.23,-406.11"/>
<polygon fill="black" stroke="black" points="1030.73,-406.05 1027.09,-396.1 1023.73,-406.15 1030.73,-406.05"/>
</g>
<!-- types/nat -->
<g id="node10" class="node">
<title>types/nat</title>
<ellipse fill="none" stroke="black" cx="1209.84" cy="-378" rx="53.89" ry="18"/>
<text text-anchor="middle" x="1209.84" y="-374.3" font-family="Times,serif" font-size="14.00">types/nat</text>
</g>
<!-- structures&#45;&gt;types/nat -->
<g id="edge7" class="edge">
<title>structures&#45;&gt;types/nat</title>
<path fill="none" stroke="black" d="M1062.93,-435.5C1092.42,-424.16 1134.7,-407.9 1166.33,-395.73"/>
<polygon fill="black" stroke="black" points="1167.71,-398.96 1175.78,-392.1 1165.19,-392.42 1167.71,-398.96"/>
</g>
<!-- theorems/ua -->
<g id="node11" class="node">
<title>theorems/ua</title>
<ellipse fill="none" stroke="black" cx="877.84" cy="-378" rx="68.79" ry="18"/>
<text text-anchor="middle" x="877.84" y="-374.3" font-family="Times,serif" font-size="14.00">theorems/ua</text>
</g>
<!-- structures&#45;&gt;theorems/ua -->
<g id="edge8" class="edge">
<title>structures&#45;&gt;theorems/ua</title>
<path fill="none" stroke="black" d="M996.76,-434.5C974.24,-423.99 943.56,-409.67 919,-398.21"/>
<polygon fill="black" stroke="black" points="920.46,-395.03 909.92,-393.97 917.5,-401.37 920.46,-395.03"/>
</g>
<!-- cubical/cubes -->
<g id="node42" class="node">
<title>cubical/cubes</title>
<ellipse fill="none" stroke="black" cx="347.84" cy="-306" rx="73.39" ry="18"/>
<text text-anchor="middle" x="347.84" y="-302.3" font-family="Times,serif" font-size="14.00">cubical/cubes</text>
</g>
<!-- HITs/interval&#45;&gt;cubical/cubes -->
<g id="edge45" class="edge">
<title>HITs/interval&#45;&gt;cubical/cubes</title>
<path fill="none" stroke="black" d="M629.76,-365.91C570.57,-353.54 474.86,-333.54 411.64,-320.33"/>
<polygon fill="black" stroke="black" points="412.29,-316.89 401.78,-318.27 410.86,-323.74 412.29,-316.89"/>
</g>
<!-- theorems/prop -->
<g id="node43" class="node">
<title>theorems/prop</title>
<ellipse fill="none" stroke="black" cx="849.84" cy="-306" rx="79.09" ry="18"/>
<text text-anchor="middle" x="849.84" y="-302.3" font-family="Times,serif" font-size="14.00">theorems/prop</text>
</g>
<!-- HITs/interval&#45;&gt;theorems/prop -->
<g id="edge46" class="edge">
<title>HITs/interval&#45;&gt;theorems/prop</title>
<path fill="none" stroke="black" d="M718.26,-362.15C743.44,-351.6 777.47,-337.34 804.61,-325.96"/>
<polygon fill="black" stroke="black" points="806.03,-329.16 813.9,-322.07 803.32,-322.7 806.03,-329.16"/>
</g>
<!-- theorems/fibration -->
<g id="node44" class="node">
<title>theorems/fibration</title>
<ellipse fill="none" stroke="black" cx="621.84" cy="-306" rx="96.68" ry="18"/>
<text text-anchor="middle" x="621.84" y="-302.3" font-family="Times,serif" font-size="14.00">theorems/fibration</text>
</g>
<!-- HITs/interval&#45;&gt;theorems/fibration -->
<g id="edge47" class="edge">
<title>HITs/interval&#45;&gt;theorems/fibration</title>
<path fill="none" stroke="black" d="M668.08,-360.05C660.69,-351.58 651.62,-341.17 643.47,-331.82"/>
<polygon fill="black" stroke="black" points="646.1,-329.51 636.9,-324.28 640.83,-334.11 646.1,-329.51"/>
</g>
<!-- HITs/merely&#45;&gt;theorems/prop -->
<g id="edge48" class="edge">
<title>HITs/merely&#45;&gt;theorems/prop</title>
<path fill="none" stroke="black" d="M1313.74,-366.82C1300.41,-364.43 1286.13,-361.99 1272.84,-360 1139.6,-340 1105.46,-341.3 971.84,-324 956.71,-322.04 940.53,-319.85 925.06,-317.72"/>
<polygon fill="black" stroke="black" points="925.41,-314.23 915.02,-316.32 924.45,-321.16 925.41,-314.23"/>
</g>
<!-- HITs/simplicial -->
<g id="node46" class="node">
<title>HITs/simplicial</title>
<ellipse fill="none" stroke="black" cx="1389.84" cy="-306" rx="79.09" ry="18"/>
<text text-anchor="middle" x="1389.84" y="-302.3" font-family="Times,serif" font-size="14.00">HITs/simplicial</text>
</g>
<!-- HITs/merely&#45;&gt;HITs/simplicial -->
<g id="edge49" class="edge">
<title>HITs/merely&#45;&gt;HITs/simplicial</title>
<path fill="none" stroke="black" d="M1372.41,-360.05C1375,-352.18 1378.14,-342.62 1381.04,-333.79"/>
<polygon fill="black" stroke="black" points="1384.37,-334.87 1384.17,-324.28 1377.72,-332.68 1384.37,-334.87"/>
</g>
<!-- theorems/functions -->
<g id="node47" class="node">
<title>theorems/functions</title>
<ellipse fill="none" stroke="black" cx="1588.84" cy="-234" rx="100.98" ry="18"/>
<text text-anchor="middle" x="1588.84" y="-230.3" font-family="Times,serif" font-size="14.00">theorems/functions</text>
</g>
<!-- HITs/merely&#45;&gt;theorems/functions -->
<g id="edge50" class="edge">
<title>HITs/merely&#45;&gt;theorems/functions</title>
<path fill="none" stroke="black" d="M1402.18,-362.62C1424.55,-352.92 1453.7,-339.16 1477.84,-324 1508.96,-304.46 1541.38,-277.59 1563.1,-258.49"/>
<polygon fill="black" stroke="black" points="1565.44,-261.1 1570.59,-251.84 1560.79,-255.86 1565.44,-261.1"/>
</g>
<!-- HITs/quotient -->
<g id="node41" class="node">
<title>HITs/quotient</title>
<ellipse fill="none" stroke="black" cx="1054.84" cy="-306" rx="74.19" ry="18"/>
<text text-anchor="middle" x="1054.84" y="-302.3" font-family="Times,serif" font-size="14.00">HITs/quotient</text>
</g>
<!-- HITs/trunc&#45;&gt;HITs/quotient -->
<g id="edge55" class="edge">
<title>HITs/trunc&#45;&gt;HITs/quotient</title>
<path fill="none" stroke="black" d="M1033.62,-360.05C1036.77,-352.18 1040.59,-342.62 1044.12,-333.79"/>
<polygon fill="black" stroke="black" points="1047.47,-334.86 1047.93,-324.28 1040.97,-332.26 1047.47,-334.86"/>
</g>
<!-- theorems/nat -->
<g id="node31" class="node">
<title>theorems/nat</title>
<ellipse fill="none" stroke="black" cx="1219.84" cy="-306" rx="72.59" ry="18"/>
<text text-anchor="middle" x="1219.84" y="-302.3" font-family="Times,serif" font-size="14.00">theorems/nat</text>
</g>
<!-- types/nat&#45;&gt;theorems/nat -->
<g id="edge28" class="edge">
<title>types/nat&#45;&gt;theorems/nat</title>
<path fill="none" stroke="black" d="M1212.31,-359.7C1213.42,-351.98 1214.74,-342.71 1215.97,-334.11"/>
<polygon fill="black" stroke="black" points="1219.45,-334.5 1217.4,-324.1 1212.52,-333.51 1219.45,-334.5"/>
</g>
<!-- theorems/ua&#45;&gt;theorems/nat -->
<g id="edge72" class="edge">
<title>theorems/ua&#45;&gt;theorems/nat</title>
<path fill="none" stroke="black" d="M929.46,-365.94C938.9,-363.94 948.66,-361.89 957.84,-360 1037.74,-343.52 1057.9,-340.28 1137.84,-324 1143.68,-322.81 1149.76,-321.57 1155.84,-320.31"/>
<polygon fill="black" stroke="black" points="1156.95,-323.66 1166.04,-318.21 1155.54,-316.8 1156.95,-323.66"/>
</g>
<!-- theorems/ua&#45;&gt;theorems/prop -->
<g id="edge73" class="edge">
<title>theorems/ua&#45;&gt;theorems/prop</title>
<path fill="none" stroke="black" d="M871.06,-360.05C867.91,-352.18 864.09,-342.62 860.56,-333.79"/>
<polygon fill="black" stroke="black" points="863.72,-332.26 856.75,-324.28 857.22,-334.86 863.72,-332.26"/>
</g>
<!-- cubical/V -->
<g id="node52" class="node">
<title>cubical/V</title>
<ellipse fill="none" stroke="black" cx="438.84" cy="-162" rx="52.79" ry="18"/>
<text text-anchor="middle" x="438.84" y="-158.3" font-family="Times,serif" font-size="14.00">cubical/V</text>
</g>
<!-- theorems/ua&#45;&gt;cubical/V -->
<g id="edge74" class="edge">
<title>theorems/ua&#45;&gt;cubical/V</title>
<path fill="none" stroke="black" d="M819.34,-368.33C801.23,-365.65 781.21,-362.7 762.84,-360 707.96,-351.94 560.51,-356.89 515.84,-324 471.67,-291.48 451.77,-226.95 443.69,-190.23"/>
<polygon fill="black" stroke="black" points="447.08,-189.31 441.64,-180.22 440.22,-190.72 447.08,-189.31"/>
</g>
<!-- algebra/eilenberg_maclane -->
<g id="node12" class="node">
<title>algebra/eilenberg_maclane</title>
<ellipse fill="none" stroke="black" cx="766.84" cy="-90" rx="135.68" ry="18"/>
<text text-anchor="middle" x="766.84" y="-86.3" font-family="Times,serif" font-size="14.00">algebra/eilenberg_maclane</text>
</g>
<!-- algebra/finite -->
<g id="node13" class="node">
<title>algebra/finite</title>
<ellipse fill="none" stroke="black" cx="1145.84" cy="-90" rx="72.59" ry="18"/>
<text text-anchor="middle" x="1145.84" y="-86.3" font-family="Times,serif" font-size="14.00">algebra/finite</text>
</g>
<!-- algebra/group -->
<g id="node14" class="node">
<title>algebra/group</title>
<ellipse fill="none" stroke="black" cx="1145.84" cy="-162" rx="76.09" ry="18"/>
<text text-anchor="middle" x="1145.84" y="-158.3" font-family="Times,serif" font-size="14.00">algebra/group</text>
</g>
<!-- algebra/group&#45;&gt;algebra/eilenberg_maclane -->
<g id="edge9" class="edge">
<title>algebra/group&#45;&gt;algebra/eilenberg_maclane</title>
<path fill="none" stroke="black" d="M1087.87,-150.29C1025.09,-138.7 924.3,-120.08 852.41,-106.8"/>
<polygon fill="black" stroke="black" points="852.93,-103.34 842.46,-104.97 851.66,-110.23 852.93,-103.34"/>
</g>
<!-- algebra/group&#45;&gt;algebra/finite -->
<g id="edge10" class="edge">
<title>algebra/group&#45;&gt;algebra/finite</title>
<path fill="none" stroke="black" d="M1145.84,-143.7C1145.84,-135.98 1145.84,-126.71 1145.84,-118.11"/>
<polygon fill="black" stroke="black" points="1149.34,-118.1 1145.84,-108.1 1142.34,-118.1 1149.34,-118.1"/>
</g>
<!-- algebra/ring -->
<g id="node15" class="node">
<title>algebra/ring</title>
<ellipse fill="none" stroke="black" cx="987.84" cy="-90" rx="67.69" ry="18"/>
<text text-anchor="middle" x="987.84" y="-86.3" font-family="Times,serif" font-size="14.00">algebra/ring</text>
</g>
<!-- algebra/group&#45;&gt;algebra/ring -->
<g id="edge11" class="edge">
<title>algebra/group&#45;&gt;algebra/ring</title>
<path fill="none" stroke="black" d="M1111.56,-145.81C1087.82,-135.29 1056.04,-121.22 1030.64,-109.96"/>
<polygon fill="black" stroke="black" points="1031.81,-106.65 1021.25,-105.8 1028.97,-113.05 1031.81,-106.65"/>
</g>
<!-- algebra/Z -->
<g id="node16" class="node">
<title>algebra/Z</title>
<ellipse fill="none" stroke="black" cx="1291.84" cy="-90" rx="55.49" ry="18"/>
<text text-anchor="middle" x="1291.84" y="-86.3" font-family="Times,serif" font-size="14.00">algebra/Z</text>
</g>
<!-- algebra/group&#45;&gt;algebra/Z -->
<g id="edge12" class="edge">
<title>algebra/group&#45;&gt;algebra/Z</title>
<path fill="none" stroke="black" d="M1177.88,-145.64C1199.87,-135.1 1229.18,-121.04 1252.57,-109.83"/>
<polygon fill="black" stroke="black" points="1254.36,-112.85 1261.87,-105.37 1251.34,-106.54 1254.36,-112.85"/>
</g>
<!-- algebra/homology -->
<g id="node17" class="node">
<title>algebra/homology</title>
<ellipse fill="none" stroke="black" cx="1291.84" cy="-18" rx="93.68" ry="18"/>
<text text-anchor="middle" x="1291.84" y="-14.3" font-family="Times,serif" font-size="14.00">algebra/homology</text>
</g>
<!-- algebra/Z&#45;&gt;algebra/homology -->
<g id="edge13" class="edge">
<title>algebra/Z&#45;&gt;algebra/homology</title>
<path fill="none" stroke="black" d="M1291.84,-71.7C1291.84,-63.98 1291.84,-54.71 1291.84,-46.11"/>
<polygon fill="black" stroke="black" points="1295.34,-46.1 1291.84,-36.1 1288.34,-46.1 1295.34,-46.1"/>
</g>
<!-- types/category -->
<g id="node18" class="node">
<title>types/category</title>
<ellipse fill="none" stroke="black" cx="678.84" cy="-162" rx="79.09" ry="18"/>
<text text-anchor="middle" x="678.84" y="-158.3" font-family="Times,serif" font-size="14.00">types/category</text>
</g>
<!-- types/coproduct&#45;&gt;structures -->
<g id="edge14" class="edge">
<title>types/coproduct&#45;&gt;structures</title>
<path fill="none" stroke="black" d="M1027.84,-575.87C1027.84,-551.67 1027.84,-507.21 1027.84,-478.39"/>
<polygon fill="black" stroke="black" points="1031.34,-478.19 1027.84,-468.19 1024.34,-478.19 1031.34,-478.19"/>
</g>
<!-- types/ens -->
<g id="node20" class="node">
<title>types/ens</title>
<ellipse fill="none" stroke="black" cx="848.84" cy="-234" rx="55.49" ry="18"/>
<text text-anchor="middle" x="848.84" y="-230.3" font-family="Times,serif" font-size="14.00">types/ens</text>
</g>
<!-- types/ens&#45;&gt;algebra/group -->
<g id="edge16" class="edge">
<title>types/ens&#45;&gt;algebra/group</title>
<path fill="none" stroke="black" d="M889.76,-221.9C897.41,-219.89 905.36,-217.84 912.84,-216 969.69,-201.99 1034.68,-187.32 1081.55,-176.97"/>
<polygon fill="black" stroke="black" points="1082.56,-180.33 1091.57,-174.77 1081.05,-173.5 1082.56,-180.33"/>
</g>
<!-- types/setquot -->
<g id="node21" class="node">
<title>types/setquot</title>
<ellipse fill="none" stroke="black" cx="849.84" cy="-162" rx="74.19" ry="18"/>
<text text-anchor="middle" x="849.84" y="-158.3" font-family="Times,serif" font-size="14.00">types/setquot</text>
</g>
<!-- types/ens&#45;&gt;types/setquot -->
<g id="edge17" class="edge">
<title>types/ens&#45;&gt;types/setquot</title>
<path fill="none" stroke="black" d="M849.09,-215.7C849.2,-207.98 849.33,-198.71 849.45,-190.11"/>
<polygon fill="black" stroke="black" points="852.95,-190.15 849.6,-180.1 845.95,-190.05 852.95,-190.15"/>
</g>
<!-- HITs/graph -->
<g id="node27" class="node">
<title>HITs/graph</title>
<ellipse fill="none" stroke="black" cx="1320.84" cy="-522" rx="62.29" ry="18"/>
<text text-anchor="middle" x="1320.84" y="-518.3" font-family="Times,serif" font-size="14.00">HITs/graph</text>
</g>
<!-- types/heq&#45;&gt;HITs/graph -->
<g id="edge24" class="edge">
<title>types/heq&#45;&gt;HITs/graph</title>
<path fill="none" stroke="black" d="M1297.65,-648.04C1303.5,-637.97 1310.25,-624.72 1313.84,-612 1319.55,-591.77 1321.17,-567.99 1321.44,-550.11"/>
<polygon fill="black" stroke="black" points="1324.94,-550.08 1321.46,-540.08 1317.94,-550.07 1324.94,-550.08"/>
</g>
<!-- theorems/funext -->
<g id="node28" class="node">
<title>theorems/funext</title>
<ellipse fill="none" stroke="black" cx="1217.84" cy="-594" rx="87.18" ry="18"/>
<text text-anchor="middle" x="1217.84" y="-590.3" font-family="Times,serif" font-size="14.00">theorems/funext</text>
</g>
<!-- types/heq&#45;&gt;theorems/funext -->
<g id="edge25" class="edge">
<title>types/heq&#45;&gt;theorems/funext</title>
<path fill="none" stroke="black" d="M1270.49,-648.41C1261.94,-639.73 1251.3,-628.95 1241.84,-619.34"/>
<polygon fill="black" stroke="black" points="1244.07,-616.62 1234.56,-611.96 1239.08,-621.54 1244.07,-616.62"/>
</g>
<!-- types/unit&#45;&gt;structures -->
<g id="edge32" class="edge">
<title>types/unit&#45;&gt;structures</title>
<path fill="none" stroke="black" d="M1416.83,-509.59C1408.58,-507.56 1399.97,-505.59 1391.84,-504 1278.23,-481.73 1248.34,-485.17 1133.84,-468 1119.17,-465.8 1103.36,-463.32 1088.56,-460.96"/>
<polygon fill="black" stroke="black" points="1088.92,-457.47 1078.49,-459.34 1087.81,-464.38 1088.92,-457.47"/>
</g>
<!-- HITs/suspension -->
<g id="node34" class="node">
<title>HITs/suspension</title>
<ellipse fill="none" stroke="black" cx="1655.84" cy="-378" rx="87.18" ry="18"/>
<text text-anchor="middle" x="1655.84" y="-374.3" font-family="Times,serif" font-size="14.00">HITs/suspension</text>
</g>
<!-- types/unit&#45;&gt;HITs/suspension -->
<g id="edge33" class="edge">
<title>types/unit&#45;&gt;HITs/suspension</title>
<path fill="none" stroke="black" d="M1509.27,-513.16C1558.41,-504.44 1628.22,-488.78 1645.84,-468 1660.09,-451.19 1661.63,-425.71 1660.16,-406.31"/>
<polygon fill="black" stroke="black" points="1663.63,-405.83 1659.1,-396.26 1656.67,-406.57 1663.63,-405.83"/>
</g>
<!-- types/sigma&#45;&gt;structures -->
<g id="edge31" class="edge">
<title>types/sigma&#45;&gt;structures</title>
<path fill="none" stroke="black" d="M877.34,-576.71C907.7,-551.35 966.34,-502.37 1000.78,-473.6"/>
<polygon fill="black" stroke="black" points="1003.14,-476.2 1008.57,-467.1 998.65,-470.82 1003.14,-476.2"/>
</g>
<!-- HITs/colimit -->
<g id="node38" class="node">
<title>HITs/colimit</title>
<ellipse fill="none" stroke="black" cx="1209.84" cy="-450" rx="66.89" ry="18"/>
<text text-anchor="middle" x="1209.84" y="-446.3" font-family="Times,serif" font-size="14.00">HITs/colimit</text>
</g>
<!-- HITs/graph&#45;&gt;HITs/colimit -->
<g id="edge41" class="edge">
<title>HITs/graph&#45;&gt;HITs/colimit</title>
<path fill="none" stroke="black" d="M1295.93,-505.29C1280.47,-495.54 1260.41,-482.89 1243.54,-472.25"/>
<polygon fill="black" stroke="black" points="1245.38,-469.27 1235.05,-466.9 1241.64,-475.19 1245.38,-469.27"/>
</g>
<!-- HITs/generalized -->
<g id="node39" class="node">
<title>HITs/generalized</title>
<ellipse fill="none" stroke="black" cx="1383.84" cy="-450" rx="89.08" ry="18"/>
<text text-anchor="middle" x="1383.84" y="-446.3" font-family="Times,serif" font-size="14.00">HITs/generalized</text>
</g>
<!-- HITs/graph&#45;&gt;HITs/generalized -->
<g id="edge42" class="edge">
<title>HITs/graph&#45;&gt;HITs/generalized</title>
<path fill="none" stroke="black" d="M1335.77,-504.41C1343.5,-495.82 1353.1,-485.16 1361.68,-475.63"/>
<polygon fill="black" stroke="black" points="1364.49,-477.73 1368.58,-467.96 1359.29,-473.05 1364.49,-477.73"/>
</g>
<!-- HITs/pushout -->
<g id="node40" class="node">
<title>HITs/pushout</title>
<ellipse fill="none" stroke="black" cx="1563.84" cy="-450" rx="72.59" ry="18"/>
<text text-anchor="middle" x="1563.84" y="-446.3" font-family="Times,serif" font-size="14.00">HITs/pushout</text>
</g>
<!-- HITs/graph&#45;&gt;HITs/pushout -->
<g id="edge43" class="edge">
<title>HITs/graph&#45;&gt;HITs/pushout</title>
<path fill="none" stroke="black" d="M1363.45,-508.73C1403.81,-497.1 1464.65,-479.57 1508.7,-466.88"/>
<polygon fill="black" stroke="black" points="1509.75,-470.22 1518.39,-464.09 1507.82,-463.5 1509.75,-470.22"/>
</g>
<!-- HITs/graph&#45;&gt;HITs/quotient -->
<g id="edge44" class="edge">
<title>HITs/graph&#45;&gt;HITs/quotient</title>
<path fill="none" stroke="black" d="M1273.87,-510.07C1221.94,-497.62 1144.2,-477.73 1133.84,-468 1096.76,-433.15 1120.16,-404.69 1095.84,-360 1090.45,-350.09 1083.25,-340.08 1076.4,-331.47"/>
<polygon fill="black" stroke="black" points="1079.06,-329.19 1070,-323.69 1073.65,-333.64 1079.06,-329.19"/>
</g>
<!-- types/product -->
<g id="node33" class="node">
<title>types/product</title>
<ellipse fill="none" stroke="black" cx="1153.84" cy="-522" rx="75.29" ry="18"/>
<text text-anchor="middle" x="1153.84" y="-518.3" font-family="Times,serif" font-size="14.00">types/product</text>
</g>
<!-- theorems/funext&#45;&gt;types/product -->
<g id="edge64" class="edge">
<title>theorems/funext&#45;&gt;types/product</title>
<path fill="none" stroke="black" d="M1202.35,-576.05C1194.49,-567.46 1184.8,-556.86 1176.15,-547.4"/>
<polygon fill="black" stroke="black" points="1178.52,-544.81 1169.19,-539.79 1173.36,-549.53 1178.52,-544.81"/>
</g>
<!-- types/integer -->
<g id="node29" class="node">
<title>types/integer</title>
<ellipse fill="none" stroke="black" cx="1282.84" cy="-234" rx="72.59" ry="18"/>
<text text-anchor="middle" x="1282.84" y="-230.3" font-family="Times,serif" font-size="14.00">types/integer</text>
</g>
<!-- types/integer&#45;&gt;algebra/group -->
<g id="edge26" class="edge">
<title>types/integer&#45;&gt;algebra/group</title>
<path fill="none" stroke="black" d="M1252.44,-217.46C1232.8,-207.43 1207.03,-194.27 1185.75,-183.39"/>
<polygon fill="black" stroke="black" points="1187.13,-180.17 1176.63,-178.73 1183.95,-186.4 1187.13,-180.17"/>
</g>
<!-- HITs/circle -->
<g id="node30" class="node">
<title>HITs/circle</title>
<ellipse fill="none" stroke="black" cx="1299.84" cy="-162" rx="60.39" ry="18"/>
<text text-anchor="middle" x="1299.84" y="-158.3" font-family="Times,serif" font-size="14.00">HITs/circle</text>
</g>
<!-- types/integer&#45;&gt;HITs/circle -->
<g id="edge27" class="edge">
<title>types/integer&#45;&gt;HITs/circle</title>
<path fill="none" stroke="black" d="M1287.04,-215.7C1288.94,-207.9 1291.22,-198.51 1293.33,-189.83"/>
<polygon fill="black" stroke="black" points="1296.73,-190.65 1295.69,-180.1 1289.93,-189 1296.73,-190.65"/>
</g>
<!-- HITs/circle&#45;&gt;algebra/Z -->
<g id="edge34" class="edge">
<title>HITs/circle&#45;&gt;algebra/Z</title>
<path fill="none" stroke="black" d="M1297.86,-143.7C1296.98,-135.98 1295.92,-126.71 1294.94,-118.11"/>
<polygon fill="black" stroke="black" points="1298.41,-117.64 1293.8,-108.1 1291.45,-118.44 1298.41,-117.64"/>
</g>
<!-- theorems/hopf -->
<g id="node35" class="node">
<title>theorems/hopf</title>
<ellipse fill="none" stroke="black" cx="534.84" cy="-90" rx="77.99" ry="18"/>
<text text-anchor="middle" x="534.84" y="-86.3" font-family="Times,serif" font-size="14.00">theorems/hopf</text>
</g>
<!-- HITs/circle&#45;&gt;theorems/hopf -->
<g id="edge35" class="edge">
<title>HITs/circle&#45;&gt;theorems/hopf</title>
<path fill="none" stroke="black" d="M1257.02,-149.17C1248.41,-147.15 1239.38,-145.29 1230.84,-144 962.76,-103.4 890.83,-142.08 621.84,-108 614.7,-107.1 607.27,-105.95 599.89,-104.69"/>
<polygon fill="black" stroke="black" points="600.35,-101.22 589.89,-102.91 599.12,-108.11 600.35,-101.22"/>
</g>
<!-- HITs/moebius -->
<g id="node36" class="node">
<title>HITs/moebius</title>
<ellipse fill="none" stroke="black" cx="1438.84" cy="-90" rx="74.19" ry="18"/>
<text text-anchor="middle" x="1438.84" y="-86.3" font-family="Times,serif" font-size="14.00">HITs/moebius</text>
</g>
<!-- HITs/circle&#45;&gt;HITs/moebius -->
<g id="edge36" class="edge">
<title>HITs/circle&#45;&gt;HITs/moebius</title>
<path fill="none" stroke="black" d="M1329.32,-146.15C1349.54,-135.97 1376.62,-122.33 1398.79,-111.17"/>
<polygon fill="black" stroke="black" points="1400.6,-114.18 1407.96,-106.55 1397.45,-107.92 1400.6,-114.18"/>
</g>
<!-- HITs/reals -->
<g id="node37" class="node">
<title>HITs/reals</title>
<ellipse fill="none" stroke="black" cx="1588.84" cy="-90" rx="57.69" ry="18"/>
<text text-anchor="middle" x="1588.84" y="-86.3" font-family="Times,serif" font-size="14.00">HITs/reals</text>
</g>
<!-- HITs/circle&#45;&gt;HITs/reals -->
<g id="edge37" class="edge">
<title>HITs/circle&#45;&gt;HITs/reals</title>
<path fill="none" stroke="black" d="M1345.81,-150.23C1390.73,-139.65 1461.05,-122.97 1521.84,-108 1526.41,-106.88 1531.15,-105.7 1535.9,-104.51"/>
<polygon fill="black" stroke="black" points="1536.77,-107.9 1545.61,-102.06 1535.06,-101.11 1536.77,-107.9"/>
</g>
<!-- theorems/nat&#45;&gt;types/integer -->
<g id="edge65" class="edge">
<title>theorems/nat&#45;&gt;types/integer</title>
<path fill="none" stroke="black" d="M1235.09,-288.05C1242.83,-279.46 1252.37,-268.86 1260.88,-259.4"/>
<polygon fill="black" stroke="black" points="1263.64,-261.56 1267.73,-251.79 1258.44,-256.88 1263.64,-261.56"/>
</g>
<!-- HITs/int -->
<g id="node54" class="node">
<title>HITs/int</title>
<ellipse fill="none" stroke="black" cx="1421.84" cy="-234" rx="48.19" ry="18"/>
<text text-anchor="middle" x="1421.84" y="-230.3" font-family="Times,serif" font-size="14.00">HITs/int</text>
</g>
<!-- theorems/nat&#45;&gt;HITs/int -->
<g id="edge66" class="edge">
<title>theorems/nat&#45;&gt;HITs/int</title>
<path fill="none" stroke="black" d="M1260.23,-291C1294.44,-279.15 1343.35,-262.2 1378.4,-250.05"/>
<polygon fill="black" stroke="black" points="1379.59,-253.35 1387.89,-246.77 1377.29,-246.73 1379.59,-253.35"/>
</g>
<!-- types/precategory -->
<g id="node32" class="node">
<title>types/precategory</title>
<ellipse fill="none" stroke="black" cx="680.84" cy="-234" rx="94.78" ry="18"/>
<text text-anchor="middle" x="680.84" y="-230.3" font-family="Times,serif" font-size="14.00">types/precategory</text>
</g>
<!-- types/precategory&#45;&gt;types/category -->
<g id="edge29" class="edge">
<title>types/precategory&#45;&gt;types/category</title>
<path fill="none" stroke="black" d="M680.35,-215.7C680.13,-207.98 679.86,-198.71 679.62,-190.11"/>
<polygon fill="black" stroke="black" points="683.11,-190 679.33,-180.1 676.12,-190.2 683.11,-190"/>
</g>
<!-- types/product&#45;&gt;structures -->
<g id="edge30" class="edge">
<title>types/product&#45;&gt;structures</title>
<path fill="none" stroke="black" d="M1125.56,-505.29C1107.4,-495.2 1083.63,-482 1064.09,-471.14"/>
<polygon fill="black" stroke="black" points="1065.6,-467.97 1055.16,-466.18 1062.2,-474.09 1065.6,-467.97"/>
</g>
<!-- HITs/suspension&#45;&gt;HITs/circle -->
<g id="edge53" class="edge">
<title>HITs/suspension&#45;&gt;HITs/circle</title>
<path fill="none" stroke="black" d="M1674.43,-360.3C1683.69,-350.72 1693.93,-337.85 1698.84,-324 1714.89,-278.76 1730.47,-252.11 1698.84,-216 1677.46,-191.59 1477.03,-174.7 1368.65,-167.27"/>
<polygon fill="black" stroke="black" points="1368.67,-163.76 1358.45,-166.58 1368.19,-170.75 1368.67,-163.76"/>
</g>
<!-- HITs/join -->
<g id="node45" class="node">
<title>HITs/join</title>
<ellipse fill="none" stroke="black" cx="1637.84" cy="-306" rx="51.99" ry="18"/>
<text text-anchor="middle" x="1637.84" y="-302.3" font-family="Times,serif" font-size="14.00">HITs/join</text>
</g>
<!-- HITs/suspension&#45;&gt;HITs/join -->
<g id="edge54" class="edge">
<title>HITs/suspension&#45;&gt;HITs/join</title>
<path fill="none" stroke="black" d="M1651.39,-359.7C1649.39,-351.9 1646.97,-342.51 1644.74,-333.83"/>
<polygon fill="black" stroke="black" points="1648.12,-332.92 1642.24,-324.1 1641.34,-334.66 1648.12,-332.92"/>
</g>
<!-- HITs/colimit&#45;&gt;HITs/merely -->
<g id="edge38" class="edge">
<title>HITs/colimit&#45;&gt;HITs/merely</title>
<path fill="none" stroke="black" d="M1243.14,-434.15C1266.76,-423.62 1298.67,-409.39 1324.17,-398.03"/>
<polygon fill="black" stroke="black" points="1325.89,-401.09 1333.59,-393.82 1323.04,-394.7 1325.89,-401.09"/>
</g>
<!-- HITs/colimit&#45;&gt;types/nat -->
<g id="edge39" class="edge">
<title>HITs/colimit&#45;&gt;types/nat</title>
<path fill="none" stroke="black" d="M1209.84,-431.7C1209.84,-423.98 1209.84,-414.71 1209.84,-406.11"/>
<polygon fill="black" stroke="black" points="1213.34,-406.1 1209.84,-396.1 1206.34,-406.1 1213.34,-406.1"/>
</g>
<!-- HITs/generalized&#45;&gt;HITs/merely -->
<g id="edge40" class="edge">
<title>HITs/generalized&#45;&gt;HITs/merely</title>
<path fill="none" stroke="black" d="M1379.64,-431.7C1377.75,-423.9 1375.46,-414.51 1373.36,-405.83"/>
<polygon fill="black" stroke="black" points="1376.76,-405 1371,-396.1 1369.95,-406.65 1376.76,-405"/>
</g>
<!-- HITs/pushout&#45;&gt;HITs/suspension -->
<g id="edge51" class="edge">
<title>HITs/pushout&#45;&gt;HITs/suspension</title>
<path fill="none" stroke="black" d="M1585.18,-432.76C1597.31,-423.53 1612.69,-411.83 1626.01,-401.7"/>
<polygon fill="black" stroke="black" points="1628.14,-404.47 1633.98,-395.63 1623.9,-398.9 1628.14,-404.47"/>
</g>
<!-- HITs/quotient&#45;&gt;algebra/group -->
<g id="edge52" class="edge">
<title>HITs/quotient&#45;&gt;algebra/group</title>
<path fill="none" stroke="black" d="M1083.96,-289.45C1098.32,-280.35 1114.69,-267.58 1124.84,-252 1136.86,-233.54 1142.02,-208.94 1144.23,-190.28"/>
<polygon fill="black" stroke="black" points="1147.73,-190.37 1145.21,-180.08 1140.77,-189.69 1147.73,-190.37"/>
</g>
<!-- cubical/path -->
<g id="node49" class="node">
<title>cubical/path</title>
<ellipse fill="none" stroke="black" cx="302.84" cy="-234" rx="67.69" ry="18"/>
<text text-anchor="middle" x="302.84" y="-230.3" font-family="Times,serif" font-size="14.00">cubical/path</text>
</g>
<!-- cubical/cubes&#45;&gt;cubical/path -->
<g id="edge56" class="edge">
<title>cubical/cubes&#45;&gt;cubical/path</title>
<path fill="none" stroke="black" d="M336.95,-288.05C331.59,-279.71 325.01,-269.49 319.07,-260.25"/>
<polygon fill="black" stroke="black" points="321.99,-258.31 313.63,-251.79 316.1,-262.09 321.99,-258.31"/>
</g>
<!-- theorems/prop&#45;&gt;algebra/eilenberg_maclane -->
<g id="edge67" class="edge">
<title>theorems/prop&#45;&gt;algebra/eilenberg_maclane</title>
<path fill="none" stroke="black" d="M787.16,-294.89C708.67,-281.92 583.56,-260.15 576.84,-252 560.64,-232.35 579.56,-156.48 590.84,-144 607.85,-125.19 631.25,-112.96 655.44,-105.02"/>
<polygon fill="black" stroke="black" points="656.55,-108.34 665.1,-102.08 654.52,-101.64 656.55,-108.34"/>
</g>
<!-- theorems/prop&#45;&gt;types/ens -->
<g id="edge68" class="edge">
<title>theorems/prop&#45;&gt;types/ens</title>
<path fill="none" stroke="black" d="M849.59,-287.7C849.48,-279.98 849.35,-270.71 849.23,-262.11"/>
<polygon fill="black" stroke="black" points="852.73,-262.05 849.09,-252.1 845.73,-262.15 852.73,-262.05"/>
</g>
<!-- theorems/prop&#45;&gt;HITs/circle -->
<g id="edge69" class="edge">
<title>theorems/prop&#45;&gt;HITs/circle</title>
<path fill="none" stroke="black" d="M912.83,-294.96C981.43,-283.66 1086.5,-265.15 1124.84,-252 1138.93,-247.17 1215.41,-207.42 1262.48,-182.7"/>
<polygon fill="black" stroke="black" points="1264.25,-185.73 1271.47,-177.98 1260.99,-179.53 1264.25,-185.73"/>
</g>
<!-- theorems/prop&#45;&gt;types/precategory -->
<g id="edge70" class="edge">
<title>theorems/prop&#45;&gt;types/precategory</title>
<path fill="none" stroke="black" d="M813.59,-289.98C788.51,-279.6 754.92,-265.68 727.8,-254.45"/>
<polygon fill="black" stroke="black" points="729.08,-251.19 718.5,-250.6 726.4,-257.66 729.08,-251.19"/>
</g>
<!-- theorems/classical -->
<g id="node53" class="node">
<title>theorems/classical</title>
<ellipse fill="none" stroke="black" cx="1018.84" cy="-234" rx="96.68" ry="18"/>
<text text-anchor="middle" x="1018.84" y="-230.3" font-family="Times,serif" font-size="14.00">theorems/classical</text>
</g>
<!-- theorems/prop&#45;&gt;theorems/classical -->
<g id="edge71" class="edge">
<title>theorems/prop&#45;&gt;theorems/classical</title>
<path fill="none" stroke="black" d="M886.1,-289.98C911.17,-279.6 944.77,-265.68 971.89,-254.45"/>
<polygon fill="black" stroke="black" points="973.28,-257.66 981.18,-250.6 970.6,-251.19 973.28,-257.66"/>
</g>
<!-- theorems/fibration&#45;&gt;theorems/hopf -->
<g id="edge61" class="edge">
<title>theorems/fibration&#45;&gt;theorems/hopf</title>
<path fill="none" stroke="black" d="M598.79,-288.31C587.45,-278.9 574.6,-266.2 566.84,-252 543.52,-209.31 537.07,-151.97 535.36,-118.49"/>
<polygon fill="black" stroke="black" points="538.84,-117.96 534.95,-108.11 531.85,-118.24 538.84,-117.96"/>
</g>
<!-- theorems/functions&#45;&gt;algebra/group -->
<g id="edge62" class="edge">
<title>theorems/functions&#45;&gt;algebra/group</title>
<path fill="none" stroke="black" d="M1515.49,-221.57C1503.25,-219.69 1490.69,-217.78 1478.84,-216 1368.69,-199.49 1340.6,-198.93 1230.84,-180 1224.52,-178.91 1217.94,-177.71 1211.37,-176.47"/>
<polygon fill="black" stroke="black" points="1211.57,-172.94 1201.09,-174.49 1210.25,-179.82 1211.57,-172.94"/>
</g>
<!-- theorems/functions&#45;&gt;HITs/reals -->
<g id="edge63" class="edge">
<title>theorems/functions&#45;&gt;HITs/reals</title>
<path fill="none" stroke="black" d="M1588.84,-215.87C1588.84,-191.67 1588.84,-147.21 1588.84,-118.39"/>
<polygon fill="black" stroke="black" points="1592.34,-118.19 1588.84,-108.19 1585.34,-118.19 1592.34,-118.19"/>
</g>
<!-- cubical/connection -->
<g id="node48" class="node">
<title>cubical/connection</title>
<ellipse fill="none" stroke="black" cx="96.84" cy="-162" rx="96.68" ry="18"/>
<text text-anchor="middle" x="96.84" y="-158.3" font-family="Times,serif" font-size="14.00">cubical/connection</text>
</g>
<!-- cubical/path&#45;&gt;cubical/connection -->
<g id="edge57" class="edge">
<title>cubical/path&#45;&gt;cubical/connection</title>
<path fill="none" stroke="black" d="M262.63,-219.34C230.74,-208.5 185.86,-193.25 150.83,-181.35"/>
<polygon fill="black" stroke="black" points="151.83,-177.99 141.23,-178.08 149.58,-184.62 151.83,-177.99"/>
</g>
<!-- cubical/square -->
<g id="node51" class="node">
<title>cubical/square</title>
<ellipse fill="none" stroke="black" cx="289.84" cy="-162" rx="77.99" ry="18"/>
<text text-anchor="middle" x="289.84" y="-158.3" font-family="Times,serif" font-size="14.00">cubical/square</text>
</g>
<!-- cubical/path&#45;&gt;cubical/square -->
<g id="edge58" class="edge">
<title>cubical/path&#45;&gt;cubical/square</title>
<path fill="none" stroke="black" d="M299.63,-215.7C298.2,-207.98 296.47,-198.71 294.88,-190.11"/>
<polygon fill="black" stroke="black" points="298.29,-189.3 293.02,-180.1 291.4,-190.58 298.29,-189.3"/>
</g>
<!-- cubical/path&#45;&gt;cubical/V -->
<g id="edge59" class="edge">
<title>cubical/path&#45;&gt;cubical/V</title>
<path fill="none" stroke="black" d="M332.69,-217.64C353.08,-207.14 380.23,-193.17 401.97,-181.98"/>
<polygon fill="black" stroke="black" points="403.63,-185.06 410.92,-177.37 400.43,-178.84 403.63,-185.06"/>
</g>
<!-- cubical/example -->
<g id="node50" class="node">
<title>cubical/example</title>
<ellipse fill="none" stroke="black" cx="353.84" cy="-90" rx="85.29" ry="18"/>
<text text-anchor="middle" x="353.84" y="-86.3" font-family="Times,serif" font-size="14.00">cubical/example</text>
</g>
<!-- cubical/V&#45;&gt;cubical/example -->
<g id="edge60" class="edge">
<title>cubical/V&#45;&gt;cubical/example</title>
<path fill="none" stroke="black" d="M419.55,-145.12C408.38,-135.92 394.13,-124.18 381.75,-113.98"/>
<polygon fill="black" stroke="black" points="383.88,-111.21 373.94,-107.55 379.43,-116.61 383.88,-111.21"/>
</g>
</g>
</svg>
