<?xml version="1.0" encoding="UTF-8" standalone="no"?>
<!DOCTYPE svg PUBLIC "-//W3C//DTD SVG 1.1//EN"
 "http://www.w3.org/Graphics/SVG/1.1/DTD/svg11.dtd">
<!-- Generated by graphviz version 2.43.0 (0)
 -->
<!-- Title: dependency_map Pages: 1 -->
<svg width="1563pt" height="908pt"
 viewBox="0.00 0.00 1562.59 908.00" xmlns="http://www.w3.org/2000/svg" xmlns:xlink="http://www.w3.org/1999/xlink">
<g id="graph0" class="graph" transform="scale(1 1) rotate(0) translate(4 904)">
<title>dependency_map</title>
<polygon fill="white" stroke="transparent" points="-4,4 -4,-904 1558.59,-904 1558.59,4 -4,4"/>
<!-- proto -->
<g id="node1" class="node">
<title>proto</title>
<ellipse fill="none" stroke="black" cx="795.59" cy="-882" rx="36" ry="18"/>
<text text-anchor="middle" x="795.59" y="-878.3" font-family="Times,serif" font-size="14.00">proto</text>
</g>
<!-- types/eq -->
<g id="node2" class="node">
<title>types/eq</title>
<ellipse fill="none" stroke="black" cx="867.59" cy="-810" rx="50.09" ry="18"/>
<text text-anchor="middle" x="867.59" y="-806.3" font-family="Times,serif" font-size="14.00">types/eq</text>
</g>
<!-- proto&#45;&gt;types/eq -->
<g id="edge1" class="edge">
<title>proto&#45;&gt;types/eq</title>
<path fill="none" stroke="black" d="M811.57,-865.46C820.97,-856.32 833.05,-844.59 843.58,-834.35"/>
<polygon fill="black" stroke="black" points="846.18,-836.7 850.91,-827.22 841.3,-831.68 846.18,-836.7"/>
</g>
<!-- support -->
<g id="node4" class="node">
<title>support</title>
<ellipse fill="none" stroke="black" cx="867.59" cy="-738" rx="46.59" ry="18"/>
<text text-anchor="middle" x="867.59" y="-734.3" font-family="Times,serif" font-size="14.00">support</text>
</g>
<!-- types/eq&#45;&gt;support -->
<g id="edge13" class="edge">
<title>types/eq&#45;&gt;support</title>
<path fill="none" stroke="black" d="M867.59,-791.7C867.59,-783.98 867.59,-774.71 867.59,-766.11"/>
<polygon fill="black" stroke="black" points="871.09,-766.1 867.59,-756.1 864.09,-766.1 871.09,-766.1"/>
</g>
<!-- meta/hott_theory -->
<g id="node3" class="node">
<title>meta/hott_theory</title>
<ellipse fill="none" stroke="black" cx="940.59" cy="-882" rx="90.98" ry="18"/>
<text text-anchor="middle" x="940.59" y="-878.3" font-family="Times,serif" font-size="14.00">meta/hott_theory</text>
</g>
<!-- meta/hott_theory&#45;&gt;types/eq -->
<g id="edge2" class="edge">
<title>meta/hott_theory&#45;&gt;types/eq</title>
<path fill="none" stroke="black" d="M922.92,-864.05C913.64,-855.16 902.13,-844.11 892.01,-834.41"/>
<polygon fill="black" stroke="black" points="894.24,-831.7 884.6,-827.31 889.4,-836.75 894.24,-831.7"/>
</g>
<!-- types/equiv -->
<g id="node5" class="node">
<title>types/equiv</title>
<ellipse fill="none" stroke="black" cx="867.59" cy="-666" rx="64.19" ry="18"/>
<text text-anchor="middle" x="867.59" y="-662.3" font-family="Times,serif" font-size="14.00">types/equiv</text>
</g>
<!-- support&#45;&gt;types/equiv -->
<g id="edge3" class="edge">
<title>support&#45;&gt;types/equiv</title>
<path fill="none" stroke="black" d="M867.59,-719.7C867.59,-711.98 867.59,-702.71 867.59,-694.11"/>
<polygon fill="black" stroke="black" points="871.09,-694.1 867.59,-684.1 864.09,-694.1 871.09,-694.1"/>
</g>
<!-- types/coproduct -->
<g id="node17" class="node">
<title>types/coproduct</title>
<ellipse fill="none" stroke="black" cx="783.59" cy="-522" rx="85.29" ry="18"/>
<text text-anchor="middle" x="783.59" y="-518.3" font-family="Times,serif" font-size="14.00">types/coproduct</text>
</g>
<!-- types/equiv&#45;&gt;types/coproduct -->
<g id="edge14" class="edge">
<title>types/equiv&#45;&gt;types/coproduct</title>
<path fill="none" stroke="black" d="M857.63,-648.15C843.12,-623.63 816.05,-577.87 798.97,-549"/>
<polygon fill="black" stroke="black" points="801.91,-547.09 793.81,-540.27 795.89,-550.66 801.91,-547.09"/>
</g>
<!-- types/heq -->
<g id="node18" class="node">
<title>types/heq</title>
<ellipse fill="none" stroke="black" cx="441.59" cy="-594" rx="55.79" ry="18"/>
<text text-anchor="middle" x="441.59" y="-590.3" font-family="Times,serif" font-size="14.00">types/heq</text>
</g>
<!-- types/equiv&#45;&gt;types/heq -->
<g id="edge15" class="edge">
<title>types/equiv&#45;&gt;types/heq</title>
<path fill="none" stroke="black" d="M813.64,-656.13C733.37,-642.94 583.07,-618.25 500.19,-604.63"/>
<polygon fill="black" stroke="black" points="500.62,-601.15 490.18,-602.98 499.48,-608.06 500.62,-601.15"/>
</g>
<!-- HITs/infinitesimal -->
<g id="node19" class="node">
<title>HITs/infinitesimal</title>
<ellipse fill="none" stroke="black" cx="1017.59" cy="-594" rx="92.88" ry="18"/>
<text text-anchor="middle" x="1017.59" y="-590.3" font-family="Times,serif" font-size="14.00">HITs/infinitesimal</text>
</g>
<!-- types/equiv&#45;&gt;HITs/infinitesimal -->
<g id="edge16" class="edge">
<title>types/equiv&#45;&gt;HITs/infinitesimal</title>
<path fill="none" stroke="black" d="M899.41,-650.15C921.27,-639.95 950.56,-626.28 974.52,-615.1"/>
<polygon fill="black" stroke="black" points="976.16,-618.2 983.74,-610.8 973.2,-611.85 976.16,-618.2"/>
</g>
<!-- types/lost -->
<g id="node20" class="node">
<title>types/lost</title>
<ellipse fill="none" stroke="black" cx="1184.59" cy="-594" rx="55.79" ry="18"/>
<text text-anchor="middle" x="1184.59" y="-590.3" font-family="Times,serif" font-size="14.00">types/lost</text>
</g>
<!-- types/equiv&#45;&gt;types/lost -->
<g id="edge17" class="edge">
<title>types/equiv&#45;&gt;types/lost</title>
<path fill="none" stroke="black" d="M918.92,-654.96C969.95,-644.81 1050.41,-628.31 1119.59,-612 1123.99,-610.96 1128.55,-609.85 1133.11,-608.71"/>
<polygon fill="black" stroke="black" points="1134.23,-612.04 1143.06,-606.18 1132.5,-605.25 1134.23,-612.04"/>
</g>
<!-- types/unit -->
<g id="node21" class="node">
<title>types/unit</title>
<ellipse fill="none" stroke="black" cx="866.59" cy="-450" rx="57.69" ry="18"/>
<text text-anchor="middle" x="866.59" y="-446.3" font-family="Times,serif" font-size="14.00">types/unit</text>
</g>
<!-- types/equiv&#45;&gt;types/unit -->
<g id="edge18" class="edge">
<title>types/equiv&#45;&gt;types/unit</title>
<path fill="none" stroke="black" d="M870.55,-647.57C875.14,-617.99 882.94,-556.1 877.59,-504 876.72,-495.46 875.06,-486.26 873.3,-477.96"/>
<polygon fill="black" stroke="black" points="876.68,-477.03 871.06,-468.05 869.85,-478.57 876.68,-477.03"/>
</g>
<!-- types/sigma -->
<g id="node22" class="node">
<title>types/sigma</title>
<ellipse fill="none" stroke="black" cx="613.59" cy="-522" rx="66.89" ry="18"/>
<text text-anchor="middle" x="613.59" y="-518.3" font-family="Times,serif" font-size="14.00">types/sigma</text>
</g>
<!-- types/equiv&#45;&gt;types/sigma -->
<g id="edge19" class="edge">
<title>types/equiv&#45;&gt;types/sigma</title>
<path fill="none" stroke="black" d="M839.93,-649.53C793.84,-623.77 701.34,-572.05 650.01,-543.36"/>
<polygon fill="black" stroke="black" points="651.66,-540.27 641.23,-538.45 648.25,-546.38 651.66,-540.27"/>
</g>
<!-- structures -->
<g id="node6" class="node">
<title>structures</title>
<ellipse fill="none" stroke="black" cx="689.59" cy="-378" rx="59.29" ry="18"/>
<text text-anchor="middle" x="689.59" y="-374.3" font-family="Times,serif" font-size="14.00">structures</text>
</g>
<!-- HITs/interval -->
<g id="node7" class="node">
<title>HITs/interval</title>
<ellipse fill="none" stroke="black" cx="1053.59" cy="-306" rx="71.49" ry="18"/>
<text text-anchor="middle" x="1053.59" y="-302.3" font-family="Times,serif" font-size="14.00">HITs/interval</text>
</g>
<!-- structures&#45;&gt;HITs/interval -->
<g id="edge4" class="edge">
<title>structures&#45;&gt;HITs/interval</title>
<path fill="none" stroke="black" d="M738.31,-367.63C802.88,-355.21 917,-333.27 988.79,-319.46"/>
<polygon fill="black" stroke="black" points="989.47,-322.9 998.63,-317.57 988.15,-316.02 989.47,-322.9"/>
</g>
<!-- HITs/merely -->
<g id="node8" class="node">
<title>HITs/merely</title>
<ellipse fill="none" stroke="black" cx="207.59" cy="-306" rx="67.69" ry="18"/>
<text text-anchor="middle" x="207.59" y="-302.3" font-family="Times,serif" font-size="14.00">HITs/merely</text>
</g>
<!-- structures&#45;&gt;HITs/merely -->
<g id="edge5" class="edge">
<title>structures&#45;&gt;HITs/merely</title>
<path fill="none" stroke="black" d="M646.99,-365.39C638.61,-363.38 629.86,-361.47 621.59,-360 472.84,-333.62 432.66,-348.53 283.59,-324 277.87,-323.06 271.93,-321.95 266,-320.77"/>
<polygon fill="black" stroke="black" points="266.59,-317.32 256.09,-318.71 265.17,-324.17 266.59,-317.32"/>
</g>
<!-- HITs/trunc -->
<g id="node9" class="node">
<title>HITs/trunc</title>
<ellipse fill="none" stroke="black" cx="352.59" cy="-306" rx="59.59" ry="18"/>
<text text-anchor="middle" x="352.59" y="-302.3" font-family="Times,serif" font-size="14.00">HITs/trunc</text>
</g>
<!-- structures&#45;&gt;HITs/trunc -->
<g id="edge6" class="edge">
<title>structures&#45;&gt;HITs/trunc</title>
<path fill="none" stroke="black" d="M646.16,-365.68C638.02,-363.69 629.57,-361.71 621.59,-360 533.29,-341.04 509.93,-342.81 421.59,-324 416.67,-322.95 411.56,-321.8 406.45,-320.62"/>
<polygon fill="black" stroke="black" points="407.21,-317.2 396.67,-318.3 405.59,-324.01 407.21,-317.2"/>
</g>
<!-- types/nat -->
<g id="node10" class="node">
<title>types/nat</title>
<ellipse fill="none" stroke="black" cx="484.59" cy="-306" rx="53.89" ry="18"/>
<text text-anchor="middle" x="484.59" y="-302.3" font-family="Times,serif" font-size="14.00">types/nat</text>
</g>
<!-- structures&#45;&gt;types/nat -->
<g id="edge7" class="edge">
<title>structures&#45;&gt;types/nat</title>
<path fill="none" stroke="black" d="M651.52,-364C617.44,-352.36 567.38,-335.27 530.97,-322.84"/>
<polygon fill="black" stroke="black" points="531.69,-319.38 521.09,-319.46 529.42,-326.01 531.69,-319.38"/>
</g>
<!-- theorems/ua -->
<g id="node11" class="node">
<title>theorems/ua</title>
<ellipse fill="none" stroke="black" cx="689.59" cy="-306" rx="68.79" ry="18"/>
<text text-anchor="middle" x="689.59" y="-302.3" font-family="Times,serif" font-size="14.00">theorems/ua</text>
</g>
<!-- structures&#45;&gt;theorems/ua -->
<g id="edge8" class="edge">
<title>structures&#45;&gt;theorems/ua</title>
<path fill="none" stroke="black" d="M689.59,-359.7C689.59,-351.98 689.59,-342.71 689.59,-334.11"/>
<polygon fill="black" stroke="black" points="693.09,-334.1 689.59,-324.1 686.09,-334.1 693.09,-334.1"/>
</g>
<!-- cubical/cubes -->
<g id="node38" class="node">
<title>cubical/cubes</title>
<ellipse fill="none" stroke="black" cx="1253.59" cy="-234" rx="73.39" ry="18"/>
<text text-anchor="middle" x="1253.59" y="-230.3" font-family="Times,serif" font-size="14.00">cubical/cubes</text>
</g>
<!-- HITs/interval&#45;&gt;cubical/cubes -->
<g id="edge40" class="edge">
<title>HITs/interval&#45;&gt;cubical/cubes</title>
<path fill="none" stroke="black" d="M1093.59,-291C1125.23,-279.93 1169.6,-264.4 1203.59,-252.5"/>
<polygon fill="black" stroke="black" points="1205.05,-255.7 1213.33,-249.09 1202.73,-249.09 1205.05,-255.7"/>
</g>
<!-- theorems/prop -->
<g id="node39" class="node">
<title>theorems/prop</title>
<ellipse fill="none" stroke="black" cx="705.59" cy="-234" rx="79.09" ry="18"/>
<text text-anchor="middle" x="705.59" y="-230.3" font-family="Times,serif" font-size="14.00">theorems/prop</text>
</g>
<!-- HITs/interval&#45;&gt;theorems/prop -->
<g id="edge41" class="edge">
<title>HITs/interval&#45;&gt;theorems/prop</title>
<path fill="none" stroke="black" d="M999.6,-294.14C938.5,-281.85 838.89,-261.81 772.8,-248.52"/>
<polygon fill="black" stroke="black" points="773.39,-245.07 762.9,-246.53 772.01,-251.93 773.39,-245.07"/>
</g>
<!-- theorems/fibration -->
<g id="node40" class="node">
<title>theorems/fibration</title>
<ellipse fill="none" stroke="black" cx="991.59" cy="-162" rx="96.68" ry="18"/>
<text text-anchor="middle" x="991.59" y="-158.3" font-family="Times,serif" font-size="14.00">theorems/fibration</text>
</g>
<!-- HITs/interval&#45;&gt;theorems/fibration -->
<g id="edge42" class="edge">
<title>HITs/interval&#45;&gt;theorems/fibration</title>
<path fill="none" stroke="black" d="M1075.83,-288.74C1086.72,-279.37 1098.72,-266.57 1104.59,-252 1110.57,-237.16 1113.18,-229.5 1104.59,-216 1094.15,-199.57 1077.12,-188.14 1059.42,-180.23"/>
<polygon fill="black" stroke="black" points="1060.7,-176.98 1050.12,-176.41 1058.04,-183.45 1060.7,-176.98"/>
</g>
<!-- HITs/merely&#45;&gt;theorems/prop -->
<g id="edge43" class="edge">
<title>HITs/merely&#45;&gt;theorems/prop</title>
<path fill="none" stroke="black" d="M256.11,-293.43C265.21,-291.46 274.67,-289.55 283.59,-288 300.29,-285.09 510.2,-259.08 627.52,-244.61"/>
<polygon fill="black" stroke="black" points="628.04,-248.07 637.54,-243.38 627.19,-241.13 628.04,-248.07"/>
</g>
<!-- HITs/simplicial -->
<g id="node42" class="node">
<title>HITs/simplicial</title>
<ellipse fill="none" stroke="black" cx="79.59" cy="-234" rx="79.09" ry="18"/>
<text text-anchor="middle" x="79.59" y="-230.3" font-family="Times,serif" font-size="14.00">HITs/simplicial</text>
</g>
<!-- HITs/merely&#45;&gt;HITs/simplicial -->
<g id="edge44" class="edge">
<title>HITs/merely&#45;&gt;HITs/simplicial</title>
<path fill="none" stroke="black" d="M179.19,-289.46C161.13,-279.59 137.53,-266.68 117.83,-255.91"/>
<polygon fill="black" stroke="black" points="119.26,-252.7 108.81,-250.98 115.9,-258.85 119.26,-252.7"/>
</g>
<!-- theorems/functions -->
<g id="node43" class="node">
<title>theorems/functions</title>
<ellipse fill="none" stroke="black" cx="137.59" cy="-162" rx="100.98" ry="18"/>
<text text-anchor="middle" x="137.59" y="-158.3" font-family="Times,serif" font-size="14.00">theorems/functions</text>
</g>
<!-- HITs/merely&#45;&gt;theorems/functions -->
<g id="edge45" class="edge">
<title>HITs/merely&#45;&gt;theorems/functions</title>
<path fill="none" stroke="black" d="M200.53,-288.05C192.87,-269.98 180.07,-240.63 167.59,-216 163.03,-206.99 157.7,-197.34 152.81,-188.76"/>
<polygon fill="black" stroke="black" points="155.76,-186.88 147.73,-179.97 149.7,-190.38 155.76,-186.88"/>
</g>
<!-- HITs/quotient -->
<g id="node37" class="node">
<title>HITs/quotient</title>
<ellipse fill="none" stroke="black" cx="288.59" cy="-234" rx="74.19" ry="18"/>
<text text-anchor="middle" x="288.59" y="-230.3" font-family="Times,serif" font-size="14.00">HITs/quotient</text>
</g>
<!-- HITs/trunc&#45;&gt;HITs/quotient -->
<g id="edge50" class="edge">
<title>HITs/trunc&#45;&gt;HITs/quotient</title>
<path fill="none" stroke="black" d="M337.43,-288.41C329.49,-279.73 319.63,-268.95 310.85,-259.34"/>
<polygon fill="black" stroke="black" points="313.43,-256.97 304.1,-251.96 308.26,-261.7 313.43,-256.97"/>
</g>
<!-- theorems/nat -->
<g id="node27" class="node">
<title>theorems/nat</title>
<ellipse fill="none" stroke="black" cx="483.59" cy="-234" rx="72.59" ry="18"/>
<text text-anchor="middle" x="483.59" y="-230.3" font-family="Times,serif" font-size="14.00">theorems/nat</text>
</g>
<!-- types/nat&#45;&gt;theorems/nat -->
<g id="edge24" class="edge">
<title>types/nat&#45;&gt;theorems/nat</title>
<path fill="none" stroke="black" d="M484.35,-287.7C484.24,-279.98 484.1,-270.71 483.98,-262.11"/>
<polygon fill="black" stroke="black" points="487.48,-262.05 483.84,-252.1 480.48,-262.15 487.48,-262.05"/>
</g>
<!-- theorems/ua&#45;&gt;theorems/nat -->
<g id="edge64" class="edge">
<title>theorems/ua&#45;&gt;theorems/nat</title>
<path fill="none" stroke="black" d="M649.39,-291.34C616.53,-280.17 569.89,-264.32 534.44,-252.28"/>
<polygon fill="black" stroke="black" points="535.35,-248.89 524.76,-248.99 533.1,-255.52 535.35,-248.89"/>
</g>
<!-- cubical/V -->
<g id="node48" class="node">
<title>cubical/V</title>
<ellipse fill="none" stroke="black" cx="1116.59" cy="-90" rx="52.79" ry="18"/>
<text text-anchor="middle" x="1116.59" y="-86.3" font-family="Times,serif" font-size="14.00">cubical/V</text>
</g>
<!-- theorems/ua&#45;&gt;cubical/V -->
<g id="edge65" class="edge">
<title>theorems/ua&#45;&gt;cubical/V</title>
<path fill="none" stroke="black" d="M733.06,-291.84C837.86,-260.08 1096,-181.74 1097.59,-180 1112.82,-163.39 1116.98,-137.67 1117.67,-118.14"/>
<polygon fill="black" stroke="black" points="1121.17,-118.06 1117.75,-108.03 1114.17,-118 1121.17,-118.06"/>
</g>
<!-- algebra/eilenberg_maclane -->
<g id="node12" class="node">
<title>algebra/eilenberg_maclane</title>
<ellipse fill="none" stroke="black" cx="493.59" cy="-18" rx="135.68" ry="18"/>
<text text-anchor="middle" x="493.59" y="-14.3" font-family="Times,serif" font-size="14.00">algebra/eilenberg_maclane</text>
</g>
<!-- algebra/group -->
<g id="node13" class="node">
<title>algebra/group</title>
<ellipse fill="none" stroke="black" cx="252.59" cy="-90" rx="76.09" ry="18"/>
<text text-anchor="middle" x="252.59" y="-86.3" font-family="Times,serif" font-size="14.00">algebra/group</text>
</g>
<!-- algebra/group&#45;&gt;algebra/eilenberg_maclane -->
<g id="edge9" class="edge">
<title>algebra/group&#45;&gt;algebra/eilenberg_maclane</title>
<path fill="none" stroke="black" d="M298.78,-75.59C336.1,-64.74 389.04,-49.37 430.31,-37.38"/>
<polygon fill="black" stroke="black" points="431.37,-40.72 440,-34.57 429.42,-33.99 431.37,-40.72"/>
</g>
<!-- algebra/homology -->
<g id="node14" class="node">
<title>algebra/homology</title>
<ellipse fill="none" stroke="black" cx="246.59" cy="-18" rx="93.68" ry="18"/>
<text text-anchor="middle" x="246.59" y="-14.3" font-family="Times,serif" font-size="14.00">algebra/homology</text>
</g>
<!-- algebra/group&#45;&gt;algebra/homology -->
<g id="edge10" class="edge">
<title>algebra/group&#45;&gt;algebra/homology</title>
<path fill="none" stroke="black" d="M251.11,-71.7C250.45,-63.98 249.66,-54.71 248.92,-46.11"/>
<polygon fill="black" stroke="black" points="252.4,-45.77 248.06,-36.1 245.43,-46.37 252.4,-45.77"/>
</g>
<!-- algebra/ring -->
<g id="node15" class="node">
<title>algebra/ring</title>
<ellipse fill="none" stroke="black" cx="67.59" cy="-18" rx="67.69" ry="18"/>
<text text-anchor="middle" x="67.59" y="-14.3" font-family="Times,serif" font-size="14.00">algebra/ring</text>
</g>
<!-- algebra/group&#45;&gt;algebra/ring -->
<g id="edge11" class="edge">
<title>algebra/group&#45;&gt;algebra/ring</title>
<path fill="none" stroke="black" d="M213.81,-74.33C184.84,-63.36 145.12,-48.33 114.38,-36.7"/>
<polygon fill="black" stroke="black" points="115.34,-33.32 104.75,-33.06 112.86,-39.87 115.34,-33.32"/>
</g>
<!-- types/category -->
<g id="node16" class="node">
<title>types/category</title>
<ellipse fill="none" stroke="black" cx="697.59" cy="-90" rx="79.09" ry="18"/>
<text text-anchor="middle" x="697.59" y="-86.3" font-family="Times,serif" font-size="14.00">types/category</text>
</g>
<!-- types/coproduct&#45;&gt;structures -->
<g id="edge12" class="edge">
<title>types/coproduct&#45;&gt;structures</title>
<path fill="none" stroke="black" d="M772.44,-504.15C756.12,-479.49 725.59,-433.37 706.5,-404.53"/>
<polygon fill="black" stroke="black" points="709.17,-402.23 700.73,-395.82 703.33,-406.1 709.17,-402.23"/>
</g>
<!-- HITs/graph -->
<g id="node23" class="node">
<title>HITs/graph</title>
<ellipse fill="none" stroke="black" cx="326.59" cy="-450" rx="62.29" ry="18"/>
<text text-anchor="middle" x="326.59" y="-446.3" font-family="Times,serif" font-size="14.00">HITs/graph</text>
</g>
<!-- types/heq&#45;&gt;HITs/graph -->
<g id="edge20" class="edge">
<title>types/heq&#45;&gt;HITs/graph</title>
<path fill="none" stroke="black" d="M403.53,-580.78C383.37,-572.4 359.89,-559.26 345.59,-540 332.39,-522.2 327.95,-497.19 326.64,-478.22"/>
<polygon fill="black" stroke="black" points="330.13,-477.94 326.19,-468.11 323.13,-478.25 330.13,-477.94"/>
</g>
<!-- theorems/funext -->
<g id="node24" class="node">
<title>theorems/funext</title>
<ellipse fill="none" stroke="black" cx="441.59" cy="-522" rx="87.18" ry="18"/>
<text text-anchor="middle" x="441.59" y="-518.3" font-family="Times,serif" font-size="14.00">theorems/funext</text>
</g>
<!-- types/heq&#45;&gt;theorems/funext -->
<g id="edge21" class="edge">
<title>types/heq&#45;&gt;theorems/funext</title>
<path fill="none" stroke="black" d="M441.59,-575.7C441.59,-567.98 441.59,-558.71 441.59,-550.11"/>
<polygon fill="black" stroke="black" points="445.09,-550.1 441.59,-540.1 438.09,-550.1 445.09,-550.1"/>
</g>
<!-- types/unit&#45;&gt;structures -->
<g id="edge28" class="edge">
<title>types/unit&#45;&gt;structures</title>
<path fill="none" stroke="black" d="M832.05,-435.34C804,-424.24 764.25,-408.52 733.87,-396.51"/>
<polygon fill="black" stroke="black" points="734.94,-393.17 724.36,-392.75 732.37,-399.68 734.94,-393.17"/>
</g>
<!-- HITs/suspension -->
<g id="node30" class="node">
<title>HITs/suspension</title>
<ellipse fill="none" stroke="black" cx="866.59" cy="-306" rx="87.18" ry="18"/>
<text text-anchor="middle" x="866.59" y="-302.3" font-family="Times,serif" font-size="14.00">HITs/suspension</text>
</g>
<!-- types/unit&#45;&gt;HITs/suspension -->
<g id="edge29" class="edge">
<title>types/unit&#45;&gt;HITs/suspension</title>
<path fill="none" stroke="black" d="M866.59,-431.87C866.59,-407.67 866.59,-363.21 866.59,-334.39"/>
<polygon fill="black" stroke="black" points="870.09,-334.19 866.59,-324.19 863.09,-334.19 870.09,-334.19"/>
</g>
<!-- types/sigma&#45;&gt;structures -->
<g id="edge27" class="edge">
<title>types/sigma&#45;&gt;structures</title>
<path fill="none" stroke="black" d="M622.61,-504.15C635.75,-479.6 660.28,-433.77 675.73,-404.91"/>
<polygon fill="black" stroke="black" points="678.96,-406.29 680.59,-395.82 672.78,-402.99 678.96,-406.29"/>
</g>
<!-- HITs/colimit -->
<g id="node34" class="node">
<title>HITs/colimit</title>
<ellipse fill="none" stroke="black" cx="381.59" cy="-378" rx="66.89" ry="18"/>
<text text-anchor="middle" x="381.59" y="-374.3" font-family="Times,serif" font-size="14.00">HITs/colimit</text>
</g>
<!-- HITs/graph&#45;&gt;HITs/colimit -->
<g id="edge36" class="edge">
<title>HITs/graph&#45;&gt;HITs/colimit</title>
<path fill="none" stroke="black" d="M339.91,-432.05C346.6,-423.54 354.83,-413.07 362.2,-403.68"/>
<polygon fill="black" stroke="black" points="364.98,-405.81 368.4,-395.79 359.47,-401.49 364.98,-405.81"/>
</g>
<!-- HITs/generalized -->
<g id="node35" class="node">
<title>HITs/generalized</title>
<ellipse fill="none" stroke="black" cx="207.59" cy="-378" rx="89.08" ry="18"/>
<text text-anchor="middle" x="207.59" y="-374.3" font-family="Times,serif" font-size="14.00">HITs/generalized</text>
</g>
<!-- HITs/graph&#45;&gt;HITs/generalized -->
<g id="edge37" class="edge">
<title>HITs/graph&#45;&gt;HITs/generalized</title>
<path fill="none" stroke="black" d="M300.48,-433.64C283.9,-423.88 262.2,-411.12 243.95,-400.39"/>
<polygon fill="black" stroke="black" points="245.7,-397.35 235.31,-395.3 242.15,-403.39 245.7,-397.35"/>
</g>
<!-- HITs/pushout -->
<g id="node36" class="node">
<title>HITs/pushout</title>
<ellipse fill="none" stroke="black" cx="539.59" cy="-378" rx="72.59" ry="18"/>
<text text-anchor="middle" x="539.59" y="-374.3" font-family="Times,serif" font-size="14.00">HITs/pushout</text>
</g>
<!-- HITs/graph&#45;&gt;HITs/pushout -->
<g id="edge38" class="edge">
<title>HITs/graph&#45;&gt;HITs/pushout</title>
<path fill="none" stroke="black" d="M366.16,-436C400.51,-424.71 450.47,-408.29 487.96,-395.97"/>
<polygon fill="black" stroke="black" points="489.28,-399.22 497.69,-392.77 487.1,-392.57 489.28,-399.22"/>
</g>
<!-- HITs/graph&#45;&gt;HITs/quotient -->
<g id="edge39" class="edge">
<title>HITs/graph&#45;&gt;HITs/quotient</title>
<path fill="none" stroke="black" d="M268.95,-442.91C211.5,-435.5 129.08,-420.82 109.59,-396 90.54,-371.73 123.37,-295.52 130.59,-288 152.39,-265.32 184.16,-252.35 213.51,-244.92"/>
<polygon fill="black" stroke="black" points="214.42,-248.3 223.36,-242.61 212.82,-241.49 214.42,-248.3"/>
</g>
<!-- types/product -->
<g id="node29" class="node">
<title>types/product</title>
<ellipse fill="none" stroke="black" cx="525.59" cy="-450" rx="75.29" ry="18"/>
<text text-anchor="middle" x="525.59" y="-446.3" font-family="Times,serif" font-size="14.00">types/product</text>
</g>
<!-- theorems/funext&#45;&gt;types/product -->
<g id="edge58" class="edge">
<title>theorems/funext&#45;&gt;types/product</title>
<path fill="none" stroke="black" d="M461.5,-504.41C472.38,-495.34 486.02,-483.97 497.93,-474.06"/>
<polygon fill="black" stroke="black" points="500.39,-476.56 505.83,-467.47 495.91,-471.18 500.39,-476.56"/>
</g>
<!-- types/integer -->
<g id="node25" class="node">
<title>types/integer</title>
<ellipse fill="none" stroke="black" cx="481.59" cy="-162" rx="72.59" ry="18"/>
<text text-anchor="middle" x="481.59" y="-158.3" font-family="Times,serif" font-size="14.00">types/integer</text>
</g>
<!-- types/integer&#45;&gt;algebra/group -->
<g id="edge22" class="edge">
<title>types/integer&#45;&gt;algebra/group</title>
<path fill="none" stroke="black" d="M437.71,-147.59C400.4,-136.18 346.67,-119.76 306.7,-107.54"/>
<polygon fill="black" stroke="black" points="307.7,-104.18 297.11,-104.61 305.65,-110.88 307.7,-104.18"/>
</g>
<!-- HITs/circle -->
<g id="node26" class="node">
<title>HITs/circle</title>
<ellipse fill="none" stroke="black" cx="855.59" cy="-90" rx="60.39" ry="18"/>
<text text-anchor="middle" x="855.59" y="-86.3" font-family="Times,serif" font-size="14.00">HITs/circle</text>
</g>
<!-- types/integer&#45;&gt;HITs/circle -->
<g id="edge23" class="edge">
<title>types/integer&#45;&gt;HITs/circle</title>
<path fill="none" stroke="black" d="M541.52,-151.74C602.99,-141.97 701.28,-125.57 785.59,-108 790.59,-106.96 795.78,-105.82 800.96,-104.63"/>
<polygon fill="black" stroke="black" points="801.94,-108 810.88,-102.32 800.35,-101.18 801.94,-108"/>
</g>
<!-- theorems/hopf -->
<g id="node31" class="node">
<title>theorems/hopf</title>
<ellipse fill="none" stroke="black" cx="1025.59" cy="-18" rx="77.99" ry="18"/>
<text text-anchor="middle" x="1025.59" y="-14.3" font-family="Times,serif" font-size="14.00">theorems/hopf</text>
</g>
<!-- HITs/circle&#45;&gt;theorems/hopf -->
<g id="edge30" class="edge">
<title>HITs/circle&#45;&gt;theorems/hopf</title>
<path fill="none" stroke="black" d="M889.59,-75C915.53,-64.32 951.53,-49.5 979.98,-37.78"/>
<polygon fill="black" stroke="black" points="981.39,-40.98 989.31,-33.94 978.73,-34.51 981.39,-40.98"/>
</g>
<!-- HITs/moebius -->
<g id="node32" class="node">
<title>HITs/moebius</title>
<ellipse fill="none" stroke="black" cx="855.59" cy="-18" rx="74.19" ry="18"/>
<text text-anchor="middle" x="855.59" y="-14.3" font-family="Times,serif" font-size="14.00">HITs/moebius</text>
</g>
<!-- HITs/circle&#45;&gt;HITs/moebius -->
<g id="edge31" class="edge">
<title>HITs/circle&#45;&gt;HITs/moebius</title>
<path fill="none" stroke="black" d="M855.59,-71.7C855.59,-63.98 855.59,-54.71 855.59,-46.11"/>
<polygon fill="black" stroke="black" points="859.09,-46.1 855.59,-36.1 852.09,-46.1 859.09,-46.1"/>
</g>
<!-- HITs/reals -->
<g id="node33" class="node">
<title>HITs/reals</title>
<ellipse fill="none" stroke="black" cx="705.59" cy="-18" rx="57.69" ry="18"/>
<text text-anchor="middle" x="705.59" y="-14.3" font-family="Times,serif" font-size="14.00">HITs/reals</text>
</g>
<!-- HITs/circle&#45;&gt;HITs/reals -->
<g id="edge32" class="edge">
<title>HITs/circle&#45;&gt;HITs/reals</title>
<path fill="none" stroke="black" d="M824.51,-74.5C801.61,-63.81 770.27,-49.18 745.51,-37.63"/>
<polygon fill="black" stroke="black" points="746.92,-34.42 736.38,-33.37 743.96,-40.77 746.92,-34.42"/>
</g>
<!-- theorems/nat&#45;&gt;types/integer -->
<g id="edge59" class="edge">
<title>theorems/nat&#45;&gt;types/integer</title>
<path fill="none" stroke="black" d="M483.1,-215.7C482.88,-207.98 482.61,-198.71 482.37,-190.11"/>
<polygon fill="black" stroke="black" points="485.87,-190 482.08,-180.1 478.87,-190.2 485.87,-190"/>
</g>
<!-- HITs/int -->
<g id="node49" class="node">
<title>HITs/int</title>
<ellipse fill="none" stroke="black" cx="342.59" cy="-162" rx="48.19" ry="18"/>
<text text-anchor="middle" x="342.59" y="-158.3" font-family="Times,serif" font-size="14.00">HITs/int</text>
</g>
<!-- theorems/nat&#45;&gt;HITs/int -->
<g id="edge60" class="edge">
<title>theorems/nat&#45;&gt;HITs/int</title>
<path fill="none" stroke="black" d="M452.65,-217.64C431.13,-206.96 402.35,-192.66 379.61,-181.38"/>
<polygon fill="black" stroke="black" points="381.11,-178.21 370.59,-176.9 378,-184.48 381.11,-178.21"/>
</g>
<!-- types/precategory -->
<g id="node28" class="node">
<title>types/precategory</title>
<ellipse fill="none" stroke="black" cx="705.59" cy="-162" rx="94.78" ry="18"/>
<text text-anchor="middle" x="705.59" y="-158.3" font-family="Times,serif" font-size="14.00">types/precategory</text>
</g>
<!-- types/precategory&#45;&gt;types/category -->
<g id="edge25" class="edge">
<title>types/precategory&#45;&gt;types/category</title>
<path fill="none" stroke="black" d="M703.62,-143.7C702.73,-135.98 701.68,-126.71 700.69,-118.11"/>
<polygon fill="black" stroke="black" points="704.16,-117.64 699.55,-108.1 697.21,-118.44 704.16,-117.64"/>
</g>
<!-- types/product&#45;&gt;structures -->
<g id="edge26" class="edge">
<title>types/product&#45;&gt;structures</title>
<path fill="none" stroke="black" d="M560.78,-433.98C586.09,-423.18 620.36,-408.55 647.19,-397.1"/>
<polygon fill="black" stroke="black" points="648.88,-400.18 656.7,-393.04 646.13,-393.75 648.88,-400.18"/>
</g>
<!-- HITs/suspension&#45;&gt;HITs/circle -->
<g id="edge48" class="edge">
<title>HITs/suspension&#45;&gt;HITs/circle</title>
<path fill="none" stroke="black" d="M865.71,-287.85C863.81,-250.83 859.3,-163.18 857,-118.39"/>
<polygon fill="black" stroke="black" points="860.49,-118.04 856.48,-108.23 853.5,-118.4 860.49,-118.04"/>
</g>
<!-- HITs/join -->
<g id="node41" class="node">
<title>HITs/join</title>
<ellipse fill="none" stroke="black" cx="1043.59" cy="-234" rx="51.99" ry="18"/>
<text text-anchor="middle" x="1043.59" y="-230.3" font-family="Times,serif" font-size="14.00">HITs/join</text>
</g>
<!-- HITs/suspension&#45;&gt;HITs/join -->
<g id="edge49" class="edge">
<title>HITs/suspension&#45;&gt;HITs/join</title>
<path fill="none" stroke="black" d="M905,-289.81C933.32,-278.61 971.84,-263.38 1001.08,-251.81"/>
<polygon fill="black" stroke="black" points="1002.6,-254.97 1010.62,-248.04 1000.03,-248.47 1002.6,-254.97"/>
</g>
<!-- HITs/colimit&#45;&gt;HITs/merely -->
<g id="edge33" class="edge">
<title>HITs/colimit&#45;&gt;HITs/merely</title>
<path fill="none" stroke="black" d="M345.96,-362.67C318.99,-351.81 281.74,-336.83 252.69,-325.14"/>
<polygon fill="black" stroke="black" points="253.76,-321.8 243.18,-321.32 251.15,-328.29 253.76,-321.8"/>
</g>
<!-- HITs/colimit&#45;&gt;types/nat -->
<g id="edge34" class="edge">
<title>HITs/colimit&#45;&gt;types/nat</title>
<path fill="none" stroke="black" d="M404.97,-361.12C419.29,-351.38 437.8,-338.8 453.37,-328.22"/>
<polygon fill="black" stroke="black" points="455.37,-331.1 461.67,-322.58 451.43,-325.31 455.37,-331.1"/>
</g>
<!-- HITs/generalized&#45;&gt;HITs/merely -->
<g id="edge35" class="edge">
<title>HITs/generalized&#45;&gt;HITs/merely</title>
<path fill="none" stroke="black" d="M207.59,-359.7C207.59,-351.98 207.59,-342.71 207.59,-334.11"/>
<polygon fill="black" stroke="black" points="211.09,-334.1 207.59,-324.1 204.09,-334.1 211.09,-334.1"/>
</g>
<!-- HITs/pushout&#45;&gt;HITs/suspension -->
<g id="edge46" class="edge">
<title>HITs/pushout&#45;&gt;HITs/suspension</title>
<path fill="none" stroke="black" d="M592.86,-365.6C648.92,-353.6 737.34,-334.67 798.44,-321.59"/>
<polygon fill="black" stroke="black" points="799.34,-324.98 808.38,-319.46 797.87,-318.13 799.34,-324.98"/>
</g>
<!-- HITs/quotient&#45;&gt;algebra/group -->
<g id="edge47" class="edge">
<title>HITs/quotient&#45;&gt;algebra/group</title>
<path fill="none" stroke="black" d="M284.25,-215.87C278.09,-191.56 266.75,-146.82 259.44,-118.01"/>
<polygon fill="black" stroke="black" points="262.8,-117.02 256.95,-108.19 256.02,-118.74 262.8,-117.02"/>
</g>
<!-- cubical/path -->
<g id="node45" class="node">
<title>cubical/path</title>
<ellipse fill="none" stroke="black" cx="1268.59" cy="-162" rx="67.69" ry="18"/>
<text text-anchor="middle" x="1268.59" y="-158.3" font-family="Times,serif" font-size="14.00">cubical/path</text>
</g>
<!-- cubical/cubes&#45;&gt;cubical/path -->
<g id="edge51" class="edge">
<title>cubical/cubes&#45;&gt;cubical/path</title>
<path fill="none" stroke="black" d="M1257.3,-215.7C1258.95,-207.98 1260.94,-198.71 1262.78,-190.11"/>
<polygon fill="black" stroke="black" points="1266.26,-190.62 1264.93,-180.1 1259.41,-189.15 1266.26,-190.62"/>
</g>
<!-- theorems/prop&#45;&gt;algebra/eilenberg_maclane -->
<g id="edge61" class="edge">
<title>theorems/prop&#45;&gt;algebra/eilenberg_maclane</title>
<path fill="none" stroke="black" d="M665.65,-218.34C644.98,-209.42 620.24,-196.54 601.59,-180 557.41,-140.8 523.05,-79.68 505.81,-45.12"/>
<polygon fill="black" stroke="black" points="508.94,-43.56 501.4,-36.12 502.65,-46.64 508.94,-43.56"/>
</g>
<!-- theorems/prop&#45;&gt;HITs/circle -->
<g id="edge62" class="edge">
<title>theorems/prop&#45;&gt;HITs/circle</title>
<path fill="none" stroke="black" d="M747.61,-218.64C768.22,-209.97 792.28,-197.22 809.59,-180 827.24,-162.46 839.53,-136.73 846.94,-117.44"/>
<polygon fill="black" stroke="black" points="850.24,-118.61 850.37,-108.02 843.66,-116.21 850.24,-118.61"/>
</g>
<!-- theorems/prop&#45;&gt;types/precategory -->
<g id="edge63" class="edge">
<title>theorems/prop&#45;&gt;types/precategory</title>
<path fill="none" stroke="black" d="M705.59,-215.7C705.59,-207.98 705.59,-198.71 705.59,-190.11"/>
<polygon fill="black" stroke="black" points="709.09,-190.1 705.59,-180.1 702.09,-190.1 709.09,-190.1"/>
</g>
<!-- theorems/fibration&#45;&gt;theorems/hopf -->
<g id="edge56" class="edge">
<title>theorems/fibration&#45;&gt;theorems/hopf</title>
<path fill="none" stroke="black" d="M995.7,-143.87C1001.52,-119.56 1012.23,-74.82 1019.13,-46.01"/>
<polygon fill="black" stroke="black" points="1022.55,-46.73 1021.48,-36.19 1015.75,-45.1 1022.55,-46.73"/>
</g>
<!-- theorems/functions&#45;&gt;algebra/group -->
<g id="edge57" class="edge">
<title>theorems/functions&#45;&gt;algebra/group</title>
<path fill="none" stroke="black" d="M164.56,-144.59C180.39,-134.95 200.56,-122.67 217.61,-112.3"/>
<polygon fill="black" stroke="black" points="219.47,-115.26 226.2,-107.07 215.84,-109.28 219.47,-115.26"/>
</g>
<!-- cubical/connection -->
<g id="node44" class="node">
<title>cubical/connection</title>
<ellipse fill="none" stroke="black" cx="1283.59" cy="-90" rx="96.68" ry="18"/>
<text text-anchor="middle" x="1283.59" y="-86.3" font-family="Times,serif" font-size="14.00">cubical/connection</text>
</g>
<!-- cubical/path&#45;&gt;cubical/connection -->
<g id="edge52" class="edge">
<title>cubical/path&#45;&gt;cubical/connection</title>
<path fill="none" stroke="black" d="M1272.3,-143.7C1273.95,-135.98 1275.94,-126.71 1277.78,-118.11"/>
<polygon fill="black" stroke="black" points="1281.26,-118.62 1279.93,-108.1 1274.41,-117.15 1281.26,-118.62"/>
</g>
<!-- cubical/square -->
<g id="node47" class="node">
<title>cubical/square</title>
<ellipse fill="none" stroke="black" cx="1476.59" cy="-90" rx="77.99" ry="18"/>
<text text-anchor="middle" x="1476.59" y="-86.3" font-family="Times,serif" font-size="14.00">cubical/square</text>
</g>
<!-- cubical/path&#45;&gt;cubical/square -->
<g id="edge53" class="edge">
<title>cubical/path&#45;&gt;cubical/square</title>
<path fill="none" stroke="black" d="M1308.7,-147.5C1341.72,-136.39 1388.77,-120.56 1424.66,-108.48"/>
<polygon fill="black" stroke="black" points="1426.11,-111.68 1434.47,-105.18 1423.88,-105.05 1426.11,-111.68"/>
</g>
<!-- cubical/path&#45;&gt;cubical/V -->
<g id="edge54" class="edge">
<title>cubical/path&#45;&gt;cubical/V</title>
<path fill="none" stroke="black" d="M1236.36,-146.15C1212.87,-135.34 1180.91,-120.62 1155.92,-109.11"/>
<polygon fill="black" stroke="black" points="1157.26,-105.88 1146.72,-104.87 1154.33,-112.23 1157.26,-105.88"/>
</g>
<!-- cubical/example -->
<g id="node46" class="node">
<title>cubical/example</title>
<ellipse fill="none" stroke="black" cx="1206.59" cy="-18" rx="85.29" ry="18"/>
<text text-anchor="middle" x="1206.59" y="-14.3" font-family="Times,serif" font-size="14.00">cubical/example</text>
</g>
<!-- cubical/V&#45;&gt;cubical/example -->
<g id="edge55" class="edge">
<title>cubical/V&#45;&gt;cubical/example</title>
<path fill="none" stroke="black" d="M1137.02,-73.12C1148.96,-63.83 1164.23,-51.95 1177.42,-41.69"/>
<polygon fill="black" stroke="black" points="1179.57,-44.45 1185.31,-35.55 1175.27,-38.93 1179.57,-44.45"/>
</g>
</g>
</svg>
