<?xml version="1.0" encoding="UTF-8" standalone="no"?>
<!DOCTYPE svg PUBLIC "-//W3C//DTD SVG 1.1//EN"
 "http://www.w3.org/Graphics/SVG/1.1/DTD/svg11.dtd">
<!-- Generated by graphviz version 2.38.0 (20140413.2041)
 -->
<!-- Title: dependency_map Pages: 1 -->
<svg width="1439pt" height="764pt"
 viewBox="0.00 0.00 1439.25 764.00" xmlns="http://www.w3.org/2000/svg" xmlns:xlink="http://www.w3.org/1999/xlink">
<g id="graph0" class="graph" transform="scale(1 1) rotate(0) translate(4 760)">
<title>dependency_map</title>
<polygon fill="white" stroke="none" points="-4,4 -4,-760 1435.25,-760 1435.25,4 -4,4"/>
<!-- proto -->
<g id="node1" class="node"><title>proto</title>
<ellipse fill="none" stroke="black" cx="312.655" cy="-738" rx="30.5947" ry="18"/>
<text text-anchor="middle" x="312.655" y="-734.3" font-family="Times New Roman,serif" font-size="14.00">proto</text>
</g>
<!-- types/eq -->
<g id="node2" class="node"><title>types/eq</title>
<ellipse fill="none" stroke="black" cx="372.655" cy="-666" rx="41.6928" ry="18"/>
<text text-anchor="middle" x="372.655" y="-662.3" font-family="Times New Roman,serif" font-size="14.00">types/eq</text>
</g>
<!-- proto&#45;&gt;types/eq -->
<g id="edge1" class="edge"><title>proto&#45;&gt;types/eq</title>
<path fill="none" stroke="black" d="M325.971,-721.465C333.599,-712.566 343.337,-701.205 351.943,-691.164"/>
<polygon fill="black" stroke="black" points="354.69,-693.338 358.541,-683.467 349.375,-688.782 354.69,-693.338"/>
</g>
<!-- support -->
<g id="node4" class="node"><title>support</title>
<ellipse fill="none" stroke="black" cx="434.655" cy="-594" rx="38.9931" ry="18"/>
<text text-anchor="middle" x="434.655" y="-590.3" font-family="Times New Roman,serif" font-size="14.00">support</text>
</g>
<!-- types/eq&#45;&gt;support -->
<g id="edge12" class="edge"><title>types/eq&#45;&gt;support</title>
<path fill="none" stroke="black" d="M387.035,-648.765C394.939,-639.841 404.888,-628.608 413.647,-618.719"/>
<polygon fill="black" stroke="black" points="416.343,-620.954 420.353,-611.147 411.103,-616.313 416.343,-620.954"/>
</g>
<!-- types/dep_path -->
<g id="node19" class="node"><title>types/dep_path</title>
<ellipse fill="none" stroke="black" cx="310.655" cy="-594" rx="66.8882" ry="18"/>
<text text-anchor="middle" x="310.655" y="-590.3" font-family="Times New Roman,serif" font-size="14.00">types/dep_path</text>
</g>
<!-- types/eq&#45;&gt;types/dep_path -->
<g id="edge13" class="edge"><title>types/eq&#45;&gt;types/dep_path</title>
<path fill="none" stroke="black" d="M358.275,-648.765C350.485,-639.969 340.706,-628.928 332.04,-619.144"/>
<polygon fill="black" stroke="black" points="334.638,-616.799 325.388,-611.633 329.398,-621.44 334.638,-616.799"/>
</g>
<!-- meta/hott_theory -->
<g id="node3" class="node"><title>meta/hott_theory</title>
<ellipse fill="none" stroke="black" cx="433.655" cy="-738" rx="72.2875" ry="18"/>
<text text-anchor="middle" x="433.655" y="-734.3" font-family="Times New Roman,serif" font-size="14.00">meta/hott_theory</text>
</g>
<!-- meta/hott_theory&#45;&gt;types/eq -->
<g id="edge2" class="edge"><title>meta/hott_theory&#45;&gt;types/eq</title>
<path fill="none" stroke="black" d="M418.889,-720.055C411.286,-711.33 401.887,-700.544 393.553,-690.981"/>
<polygon fill="black" stroke="black" points="396.074,-688.547 386.866,-683.307 390.797,-693.146 396.074,-688.547"/>
</g>
<!-- types/equiv -->
<g id="node5" class="node"><title>types/equiv</title>
<ellipse fill="none" stroke="black" cx="434.655" cy="-522" rx="51.9908" ry="18"/>
<text text-anchor="middle" x="434.655" y="-518.3" font-family="Times New Roman,serif" font-size="14.00">types/equiv</text>
</g>
<!-- support&#45;&gt;types/equiv -->
<g id="edge3" class="edge"><title>support&#45;&gt;types/equiv</title>
<path fill="none" stroke="black" d="M434.655,-575.697C434.655,-567.983 434.655,-558.712 434.655,-550.112"/>
<polygon fill="black" stroke="black" points="438.155,-550.104 434.655,-540.104 431.155,-550.104 438.155,-550.104"/>
</g>
<!-- HITs/infinitesimal -->
<g id="node12" class="node"><title>HITs/infinitesimal</title>
<ellipse fill="none" stroke="black" stroke-dasharray="5,2" cx="135.655" cy="-450" rx="74.9875" ry="18"/>
<text text-anchor="middle" x="135.655" y="-446.3" font-family="Times New Roman,serif" font-size="14.00">HITs/infinitesimal</text>
</g>
<!-- types/equiv&#45;&gt;HITs/infinitesimal -->
<g id="edge14" class="edge"><title>types/equiv&#45;&gt;HITs/infinitesimal</title>
<path fill="none" stroke="black" d="M392.766,-511.193C341.869,-499.277 255.572,-479.074 197.138,-465.394"/>
<polygon fill="black" stroke="black" points="197.823,-461.96 187.289,-463.088 196.227,-468.775 197.823,-461.96"/>
</g>
<!-- types/coproduct -->
<g id="node17" class="node"><title>types/coproduct</title>
<ellipse fill="none" stroke="black" cx="299.655" cy="-450" rx="70.6878" ry="18"/>
<text text-anchor="middle" x="299.655" y="-446.3" font-family="Times New Roman,serif" font-size="14.00">types/coproduct</text>
</g>
<!-- types/equiv&#45;&gt;types/coproduct -->
<g id="edge15" class="edge"><title>types/equiv&#45;&gt;types/coproduct</title>
<path fill="none" stroke="black" d="M407.01,-506.666C387.301,-496.446 360.528,-482.564 338.65,-471.22"/>
<polygon fill="black" stroke="black" points="340.097,-468.027 329.608,-466.531 336.875,-474.242 340.097,-468.027"/>
</g>
<!-- types/heq -->
<g id="node20" class="node"><title>types/heq</title>
<ellipse fill="none" stroke="black" cx="662.655" cy="-450" rx="46.2923" ry="18"/>
<text text-anchor="middle" x="662.655" y="-446.3" font-family="Times New Roman,serif" font-size="14.00">types/heq</text>
</g>
<!-- types/equiv&#45;&gt;types/heq -->
<g id="edge16" class="edge"><title>types/equiv&#45;&gt;types/heq</title>
<path fill="none" stroke="black" d="M472.305,-509.441C512.234,-497.182 575.29,-477.823 617.774,-464.779"/>
<polygon fill="black" stroke="black" points="619.04,-468.052 627.573,-461.771 616.986,-461.36 619.04,-468.052"/>
</g>
<!-- types/lost -->
<g id="node21" class="node"><title>types/lost</title>
<ellipse fill="none" stroke="black" cx="772.655" cy="-450" rx="46.2923" ry="18"/>
<text text-anchor="middle" x="772.655" y="-446.3" font-family="Times New Roman,serif" font-size="14.00">types/lost</text>
</g>
<!-- types/equiv&#45;&gt;types/lost -->
<g id="edge17" class="edge"><title>types/equiv&#45;&gt;types/lost</title>
<path fill="none" stroke="black" d="M481.331,-513.943C537.722,-505.03 635.286,-488.372 717.655,-468 721.263,-467.108 724.983,-466.116 728.707,-465.072"/>
<polygon fill="black" stroke="black" points="729.875,-468.378 738.498,-462.222 727.919,-461.657 729.875,-468.378"/>
</g>
<!-- types/unit -->
<g id="node22" class="node"><title>types/unit</title>
<ellipse fill="none" stroke="black" cx="434.655" cy="-450" rx="46.2923" ry="18"/>
<text text-anchor="middle" x="434.655" y="-446.3" font-family="Times New Roman,serif" font-size="14.00">types/unit</text>
</g>
<!-- types/equiv&#45;&gt;types/unit -->
<g id="edge18" class="edge"><title>types/equiv&#45;&gt;types/unit</title>
<path fill="none" stroke="black" d="M434.655,-503.697C434.655,-495.983 434.655,-486.712 434.655,-478.112"/>
<polygon fill="black" stroke="black" points="438.155,-478.104 434.655,-468.104 431.155,-478.104 438.155,-478.104"/>
</g>
<!-- structures -->
<g id="node6" class="node"><title>structures</title>
<ellipse fill="none" stroke="black" cx="322.655" cy="-378" rx="46.2923" ry="18"/>
<text text-anchor="middle" x="322.655" y="-374.3" font-family="Times New Roman,serif" font-size="14.00">structures</text>
</g>
<!-- HITs/interval -->
<g id="node7" class="node"><title>HITs/interval</title>
<ellipse fill="none" stroke="black" cx="662.655" cy="-306" rx="57.6901" ry="18"/>
<text text-anchor="middle" x="662.655" y="-302.3" font-family="Times New Roman,serif" font-size="14.00">HITs/interval</text>
</g>
<!-- structures&#45;&gt;HITs/interval -->
<g id="edge4" class="edge"><title>structures&#45;&gt;HITs/interval</title>
<path fill="none" stroke="black" d="M363.969,-369.733C417.572,-360.133 513.909,-342.29 595.655,-324 600.314,-322.958 605.143,-321.829 609.976,-320.665"/>
<polygon fill="black" stroke="black" points="610.971,-324.025 619.851,-318.245 609.305,-317.226 610.971,-324.025"/>
</g>
<!-- HITs/truncation -->
<g id="node8" class="node"><title>HITs/truncation</title>
<ellipse fill="none" stroke="black" cx="841.655" cy="-234" rx="68.4888" ry="18"/>
<text text-anchor="middle" x="841.655" y="-230.3" font-family="Times New Roman,serif" font-size="14.00">HITs/truncation</text>
</g>
<!-- structures&#45;&gt;HITs/truncation -->
<g id="edge5" class="edge"><title>structures&#45;&gt;HITs/truncation</title>
<path fill="none" stroke="black" d="M368.148,-374.615C460.472,-369.204 666.432,-354.069 729.655,-324 750.665,-314.008 749.712,-302.808 767.655,-288 780.853,-277.109 796.125,-265.949 809.356,-256.696"/>
<polygon fill="black" stroke="black" points="811.481,-259.482 817.713,-250.913 807.498,-253.725 811.481,-259.482"/>
</g>
<!-- algebra/core -->
<g id="node9" class="node"><title>algebra/core</title>
<ellipse fill="none" stroke="black" cx="83.6552" cy="-306" rx="55.4913" ry="18"/>
<text text-anchor="middle" x="83.6552" y="-302.3" font-family="Times New Roman,serif" font-size="14.00">algebra/core</text>
</g>
<!-- structures&#45;&gt;algebra/core -->
<g id="edge6" class="edge"><title>structures&#45;&gt;algebra/core</title>
<path fill="none" stroke="black" d="M286.875,-366.52C245.99,-354.546 178.831,-334.876 132.995,-321.451"/>
<polygon fill="black" stroke="black" points="133.85,-318.054 123.269,-318.602 131.882,-324.772 133.85,-318.054"/>
</g>
<!-- types/nat -->
<g id="node10" class="node"><title>types/nat</title>
<ellipse fill="none" stroke="black" cx="362.655" cy="-306" rx="43.5923" ry="18"/>
<text text-anchor="middle" x="362.655" y="-302.3" font-family="Times New Roman,serif" font-size="14.00">types/nat</text>
</g>
<!-- structures&#45;&gt;types/nat -->
<g id="edge7" class="edge"><title>structures&#45;&gt;types/nat</title>
<path fill="none" stroke="black" d="M332.338,-360.055C337.055,-351.801 342.826,-341.701 348.062,-332.538"/>
<polygon fill="black" stroke="black" points="351.139,-334.208 353.062,-323.789 345.061,-330.735 351.139,-334.208"/>
</g>
<!-- types/product -->
<g id="node26" class="node"><title>types/product</title>
<ellipse fill="none" stroke="black" cx="654.655" cy="-234" rx="61.99" ry="18"/>
<text text-anchor="middle" x="654.655" y="-230.3" font-family="Times New Roman,serif" font-size="14.00">types/product</text>
</g>
<!-- HITs/interval&#45;&gt;types/product -->
<g id="edge42" class="edge"><title>HITs/interval&#45;&gt;types/product</title>
<path fill="none" stroke="black" d="M660.678,-287.697C659.796,-279.983 658.737,-270.712 657.754,-262.112"/>
<polygon fill="black" stroke="black" points="661.223,-261.642 656.61,-252.104 654.268,-262.437 661.223,-261.642"/>
</g>
<!-- theorems/prop -->
<g id="node37" class="node"><title>theorems/prop</title>
<ellipse fill="none" stroke="black" cx="688.655" cy="-162" rx="63.8893" ry="18"/>
<text text-anchor="middle" x="688.655" y="-158.3" font-family="Times New Roman,serif" font-size="14.00">theorems/prop</text>
</g>
<!-- HITs/interval&#45;&gt;theorems/prop -->
<g id="edge43" class="edge"><title>HITs/interval&#45;&gt;theorems/prop</title>
<path fill="none" stroke="black" d="M689.665,-290.074C703.16,-281.005 718.175,-268.068 725.655,-252 735.609,-230.62 723.388,-205.805 710.392,-187.819"/>
<polygon fill="black" stroke="black" points="712.921,-185.366 704.044,-179.582 707.376,-189.639 712.921,-185.366"/>
</g>
<!-- HITs/truncation&#45;&gt;theorems/prop -->
<g id="edge48" class="edge"><title>HITs/truncation&#45;&gt;theorems/prop</title>
<path fill="none" stroke="black" d="M809.208,-218.155C786.029,-207.55 754.665,-193.201 729.739,-181.796"/>
<polygon fill="black" stroke="black" points="731.081,-178.562 720.531,-177.584 728.168,-184.927 731.081,-178.562"/>
</g>
<!-- HITs/simplicial -->
<g id="node39" class="node"><title>HITs/simplicial</title>
<ellipse fill="none" stroke="black" cx="995.655" cy="-162" rx="65.7887" ry="18"/>
<text text-anchor="middle" x="995.655" y="-158.3" font-family="Times New Roman,serif" font-size="14.00">HITs/simplicial</text>
</g>
<!-- HITs/truncation&#45;&gt;HITs/simplicial -->
<g id="edge49" class="edge"><title>HITs/truncation&#45;&gt;HITs/simplicial</title>
<path fill="none" stroke="black" d="M874.315,-218.155C897.567,-207.586 929.002,-193.297 954.05,-181.911"/>
<polygon fill="black" stroke="black" points="955.652,-185.028 963.307,-177.704 952.755,-178.655 955.652,-185.028"/>
</g>
<!-- theorems/mere_eq_lemma -->
<g id="node40" class="node"><title>theorems/mere_eq_lemma</title>
<ellipse fill="none" stroke="black" cx="1185.66" cy="-162" rx="105.881" ry="18"/>
<text text-anchor="middle" x="1185.66" y="-158.3" font-family="Times New Roman,serif" font-size="14.00">theorems/mere_eq_lemma</text>
</g>
<!-- HITs/truncation&#45;&gt;theorems/mere_eq_lemma -->
<g id="edge50" class="edge"><title>HITs/truncation&#45;&gt;theorems/mere_eq_lemma</title>
<path fill="none" stroke="black" d="M893.901,-222.369C951.647,-210.618 1045.14,-191.593 1110.69,-178.254"/>
<polygon fill="black" stroke="black" points="1111.46,-181.671 1120.56,-176.247 1110.06,-174.811 1111.46,-181.671"/>
</g>
<!-- theorems/graphs -->
<g id="node41" class="node"><title>theorems/graphs</title>
<ellipse fill="none" stroke="black" cx="841.655" cy="-162" rx="70.6878" ry="18"/>
<text text-anchor="middle" x="841.655" y="-158.3" font-family="Times New Roman,serif" font-size="14.00">theorems/graphs</text>
</g>
<!-- HITs/truncation&#45;&gt;theorems/graphs -->
<g id="edge51" class="edge"><title>HITs/truncation&#45;&gt;theorems/graphs</title>
<path fill="none" stroke="black" d="M841.655,-215.697C841.655,-207.983 841.655,-198.712 841.655,-190.112"/>
<polygon fill="black" stroke="black" points="845.155,-190.104 841.655,-180.104 838.155,-190.104 845.155,-190.104"/>
</g>
<!-- algebra/group -->
<g id="node16" class="node"><title>algebra/group</title>
<ellipse fill="none" stroke="black" cx="88.6552" cy="-234" rx="60.3893" ry="18"/>
<text text-anchor="middle" x="88.6552" y="-230.3" font-family="Times New Roman,serif" font-size="14.00">algebra/group</text>
</g>
<!-- algebra/core&#45;&gt;algebra/group -->
<g id="edge8" class="edge"><title>algebra/core&#45;&gt;algebra/group</title>
<path fill="none" stroke="black" d="M84.8912,-287.697C85.4422,-279.983 86.1043,-270.712 86.7186,-262.112"/>
<polygon fill="black" stroke="black" points="90.212,-262.328 87.4335,-252.104 83.2298,-261.83 90.212,-262.328"/>
</g>
<!-- HITs/circle -->
<g id="node11" class="node"><title>HITs/circle</title>
<ellipse fill="none" stroke="black" stroke-dasharray="5,2" cx="293.655" cy="-90" rx="51.9908" ry="18"/>
<text text-anchor="middle" x="293.655" y="-86.3" font-family="Times New Roman,serif" font-size="14.00">HITs/circle</text>
</g>
<!-- types/nat&#45;&gt;HITs/circle -->
<g id="edge25" class="edge"><title>types/nat&#45;&gt;HITs/circle</title>
<path fill="none" stroke="black" d="M342.621,-289.821C331.548,-280.254 318.653,-266.912 311.655,-252 291.367,-208.765 290.074,-152.051 291.503,-118.761"/>
<polygon fill="black" stroke="black" points="295.017,-118.599 292.068,-108.423 288.027,-118.217 295.017,-118.599"/>
</g>
<!-- HITs/ntrunc -->
<g id="node13" class="node"><title>HITs/ntrunc</title>
<ellipse fill="none" stroke="black" stroke-dasharray="5,2" cx="293.655" cy="-18" rx="55.4913" ry="18"/>
<text text-anchor="middle" x="293.655" y="-14.3" font-family="Times New Roman,serif" font-size="14.00">HITs/ntrunc</text>
</g>
<!-- HITs/circle&#45;&gt;HITs/ntrunc -->
<g id="edge33" class="edge"><title>HITs/circle&#45;&gt;HITs/ntrunc</title>
<path fill="none" stroke="black" d="M293.655,-71.6966C293.655,-63.9827 293.655,-54.7125 293.655,-46.1124"/>
<polygon fill="black" stroke="black" points="297.155,-46.1043 293.655,-36.1043 290.155,-46.1044 297.155,-46.1043"/>
</g>
<!-- theorems/ua -->
<g id="node14" class="node"><title>theorems/ua</title>
<ellipse fill="none" stroke="black" stroke-dasharray="5,2" cx="413.655" cy="-162" rx="54.6905" ry="18"/>
<text text-anchor="middle" x="413.655" y="-158.3" font-family="Times New Roman,serif" font-size="14.00">theorems/ua</text>
</g>
<!-- theorems/ua&#45;&gt;HITs/circle -->
<g id="edge59" class="edge"><title>theorems/ua&#45;&gt;HITs/circle</title>
<path fill="none" stroke="black" d="M387.912,-145.983C370.315,-135.718 346.804,-122.004 327.667,-110.84"/>
<polygon fill="black" stroke="black" points="329.345,-107.767 318.944,-105.752 325.818,-113.814 329.345,-107.767"/>
</g>
<!-- cubical/V -->
<g id="node15" class="node"><title>cubical/V</title>
<ellipse fill="none" stroke="black" stroke-dasharray="5,2" cx="413.655" cy="-18" rx="45.4919" ry="18"/>
<text text-anchor="middle" x="413.655" y="-14.3" font-family="Times New Roman,serif" font-size="14.00">cubical/V</text>
</g>
<!-- theorems/ua&#45;&gt;cubical/V -->
<g id="edge60" class="edge"><title>theorems/ua&#45;&gt;cubical/V</title>
<path fill="none" stroke="black" d="M413.655,-143.871C413.655,-119.67 413.655,-75.2108 413.655,-46.3932"/>
<polygon fill="black" stroke="black" points="417.155,-46.1892 413.655,-36.1893 410.155,-46.1893 417.155,-46.1892"/>
</g>
<!-- types/coproduct&#45;&gt;structures -->
<g id="edge9" class="edge"><title>types/coproduct&#45;&gt;structures</title>
<path fill="none" stroke="black" d="M305.223,-432.055C307.812,-424.176 310.953,-414.617 313.851,-405.794"/>
<polygon fill="black" stroke="black" points="317.183,-406.868 316.979,-396.275 310.532,-404.683 317.183,-406.868"/>
</g>
<!-- types/integer -->
<g id="node18" class="node"><title>types/integer</title>
<ellipse fill="none" stroke="black" cx="142.655" cy="-378" rx="56.59" ry="18"/>
<text text-anchor="middle" x="142.655" y="-374.3" font-family="Times New Roman,serif" font-size="14.00">types/integer</text>
</g>
<!-- types/coproduct&#45;&gt;types/integer -->
<g id="edge10" class="edge"><title>types/coproduct&#45;&gt;types/integer</title>
<path fill="none" stroke="black" d="M265.975,-433.983C241.847,-423.225 209.223,-408.68 183.591,-397.252"/>
<polygon fill="black" stroke="black" points="184.701,-393.914 174.142,-393.039 181.85,-400.308 184.701,-393.914"/>
</g>
<!-- types/integer&#45;&gt;algebra/core -->
<g id="edge22" class="edge"><title>types/integer&#45;&gt;algebra/core</title>
<path fill="none" stroke="black" d="M128.673,-360.411C121.325,-351.693 112.182,-340.845 104.059,-331.208"/>
<polygon fill="black" stroke="black" points="106.658,-328.861 97.537,-323.47 101.306,-333.372 106.658,-328.861"/>
</g>
<!-- types/integer&#45;&gt;HITs/circle -->
<g id="edge23" class="edge"><title>types/integer&#45;&gt;HITs/circle</title>
<path fill="none" stroke="black" d="M93.1125,-369.065C66.525,-362.01 35.9511,-348.766 19.6552,-324 -6.72903,-283.902 -6.30355,-256.375 19.6552,-216 67.1632,-142.108 170.331,-111.366 235.637,-98.9621"/>
<polygon fill="black" stroke="black" points="236.563,-102.351 245.779,-97.125 235.315,-95.4635 236.563,-102.351"/>
</g>
<!-- HITs/reals -->
<g id="node25" class="node"><title>HITs/reals</title>
<ellipse fill="none" stroke="black" cx="215.655" cy="-234" rx="48.9926" ry="18"/>
<text text-anchor="middle" x="215.655" y="-230.3" font-family="Times New Roman,serif" font-size="14.00">HITs/reals</text>
</g>
<!-- types/integer&#45;&gt;HITs/reals -->
<g id="edge24" class="edge"><title>types/integer&#45;&gt;HITs/reals</title>
<path fill="none" stroke="black" d="M193.56,-369.967C221.645,-363.2 254.265,-349.945 271.655,-324 280.563,-310.709 277.981,-302.696 271.655,-288 266.352,-275.679 256.619,-264.882 246.738,-256.305"/>
<polygon fill="black" stroke="black" points="248.834,-253.498 238.863,-249.915 244.423,-258.934 248.834,-253.498"/>
</g>
<!-- types/dep_path&#45;&gt;types/equiv -->
<g id="edge11" class="edge"><title>types/dep_path&#45;&gt;types/equiv</title>
<path fill="none" stroke="black" d="M338.175,-577.465C356.284,-567.242 380.147,-553.771 399.61,-542.783"/>
<polygon fill="black" stroke="black" points="401.498,-545.737 408.486,-537.773 398.057,-539.641 401.498,-545.737"/>
</g>
<!-- types/heq&#45;&gt;HITs/interval -->
<g id="edge19" class="edge"><title>types/heq&#45;&gt;HITs/interval</title>
<path fill="none" stroke="black" d="M662.655,-431.871C662.655,-407.67 662.655,-363.211 662.655,-334.393"/>
<polygon fill="black" stroke="black" points="666.155,-334.189 662.655,-324.189 659.155,-334.189 666.155,-334.189"/>
</g>
<!-- HITs/int -->
<g id="node23" class="node"><title>HITs/int</title>
<ellipse fill="none" stroke="black" cx="1240.66" cy="-378" rx="40.8928" ry="18"/>
<text text-anchor="middle" x="1240.66" y="-374.3" font-family="Times New Roman,serif" font-size="14.00">HITs/int</text>
</g>
<!-- types/heq&#45;&gt;HITs/int -->
<g id="edge20" class="edge"><title>types/heq&#45;&gt;HITs/int</title>
<path fill="none" stroke="black" d="M696.122,-437.498C703.168,-435.404 710.603,-433.432 717.655,-432 888.558,-397.288 1095.72,-384.867 1189.79,-380.799"/>
<polygon fill="black" stroke="black" points="1190.04,-384.292 1199.89,-380.376 1189.75,-377.298 1190.04,-384.292"/>
</g>
<!-- HITs/graph -->
<g id="node24" class="node"><title>HITs/graph</title>
<ellipse fill="none" stroke="black" cx="906.655" cy="-378" rx="52.7911" ry="18"/>
<text text-anchor="middle" x="906.655" y="-374.3" font-family="Times New Roman,serif" font-size="14.00">HITs/graph</text>
</g>
<!-- types/heq&#45;&gt;HITs/graph -->
<g id="edge21" class="edge"><title>types/heq&#45;&gt;HITs/graph</title>
<path fill="none" stroke="black" d="M697.528,-438.069C704.2,-436.021 711.136,-433.921 717.655,-432 764.766,-418.116 818.734,-403.067 856.907,-392.565"/>
<polygon fill="black" stroke="black" points="858.03,-395.886 866.746,-389.863 856.176,-389.136 858.03,-395.886"/>
</g>
<!-- types/unit&#45;&gt;structures -->
<g id="edge30" class="edge"><title>types/unit&#45;&gt;structures</title>
<path fill="none" stroke="black" d="M411.176,-434.326C394.899,-424.152 373.011,-410.472 355.073,-399.261"/>
<polygon fill="black" stroke="black" points="356.438,-395.987 346.103,-393.655 352.728,-401.923 356.438,-395.987"/>
</g>
<!-- types/unit&#45;&gt;types/nat -->
<g id="edge31" class="edge"><title>types/unit&#45;&gt;types/nat</title>
<path fill="none" stroke="black" d="M426.113,-432.153C413.663,-407.6 390.427,-361.773 375.792,-332.908"/>
<polygon fill="black" stroke="black" points="378.83,-331.161 371.186,-323.825 372.587,-334.327 378.83,-331.161"/>
</g>
<!-- HITs/suspension -->
<g id="node30" class="node"><title>HITs/suspension</title>
<ellipse fill="none" stroke="black" cx="393.655" cy="-234" rx="72.5877" ry="18"/>
<text text-anchor="middle" x="393.655" y="-230.3" font-family="Times New Roman,serif" font-size="14.00">HITs/suspension</text>
</g>
<!-- types/unit&#45;&gt;HITs/suspension -->
<g id="edge32" class="edge"><title>types/unit&#45;&gt;HITs/suspension</title>
<path fill="none" stroke="black" d="M434.176,-431.793C433.005,-402.026 429.026,-339.196 415.655,-288 413.339,-279.132 409.846,-269.793 406.322,-261.466"/>
<polygon fill="black" stroke="black" points="409.488,-259.972 402.238,-252.246 403.088,-262.807 409.488,-259.972"/>
</g>
<!-- HITs/rat -->
<g id="node36" class="node"><title>HITs/rat</title>
<ellipse fill="none" stroke="black" cx="1389.66" cy="-306" rx="41.6928" ry="18"/>
<text text-anchor="middle" x="1389.66" y="-302.3" font-family="Times New Roman,serif" font-size="14.00">HITs/rat</text>
</g>
<!-- HITs/int&#45;&gt;HITs/rat -->
<g id="edge41" class="edge"><title>HITs/int&#45;&gt;HITs/rat</title>
<path fill="none" stroke="black" d="M1267.64,-364.324C1291.61,-353.06 1326.86,-336.502 1353.31,-324.075"/>
<polygon fill="black" stroke="black" points="1355.06,-327.12 1362.62,-319.7 1352.08,-320.785 1355.06,-327.12"/>
</g>
<!-- HITs/colimit -->
<g id="node31" class="node"><title>HITs/colimit</title>
<ellipse fill="none" stroke="black" cx="833.655" cy="-306" rx="56.59" ry="18"/>
<text text-anchor="middle" x="833.655" y="-302.3" font-family="Times New Roman,serif" font-size="14.00">HITs/colimit</text>
</g>
<!-- HITs/graph&#45;&gt;HITs/colimit -->
<g id="edge36" class="edge"><title>HITs/graph&#45;&gt;HITs/colimit</title>
<path fill="none" stroke="black" d="M889.724,-360.765C880.302,-351.73 868.41,-340.326 858.005,-330.349"/>
<polygon fill="black" stroke="black" points="860.388,-327.785 850.747,-323.39 855.543,-332.837 860.388,-327.785"/>
</g>
<!-- HITs/generalized -->
<g id="node32" class="node"><title>HITs/generalized</title>
<ellipse fill="none" stroke="black" cx="980.655" cy="-306" rx="72.2875" ry="18"/>
<text text-anchor="middle" x="980.655" y="-302.3" font-family="Times New Roman,serif" font-size="14.00">HITs/generalized</text>
</g>
<!-- HITs/graph&#45;&gt;HITs/generalized -->
<g id="edge37" class="edge"><title>HITs/graph&#45;&gt;HITs/generalized</title>
<path fill="none" stroke="black" d="M923.818,-360.765C933.301,-351.795 945.251,-340.49 955.744,-330.564"/>
<polygon fill="black" stroke="black" points="958.212,-333.048 963.071,-323.633 953.401,-327.963 958.212,-333.048"/>
</g>
<!-- HITs/pushout -->
<g id="node33" class="node"><title>HITs/pushout</title>
<ellipse fill="none" stroke="black" cx="524.655" cy="-306" rx="61.99" ry="18"/>
<text text-anchor="middle" x="524.655" y="-302.3" font-family="Times New Roman,serif" font-size="14.00">HITs/pushout</text>
</g>
<!-- HITs/graph&#45;&gt;HITs/pushout -->
<g id="edge38" class="edge"><title>HITs/graph&#45;&gt;HITs/pushout</title>
<path fill="none" stroke="black" d="M859.318,-369.932C798.193,-360.576 688.619,-343.029 595.655,-324 590.585,-322.962 585.327,-321.823 580.069,-320.641"/>
<polygon fill="black" stroke="black" points="580.537,-317.158 570.007,-318.332 578.97,-323.98 580.537,-317.158"/>
</g>
<!-- HITs/moebius -->
<g id="node34" class="node"><title>HITs/moebius</title>
<ellipse fill="none" stroke="black" cx="1167.66" cy="-18" rx="63.0888" ry="18"/>
<text text-anchor="middle" x="1167.66" y="-14.3" font-family="Times New Roman,serif" font-size="14.00">HITs/moebius</text>
</g>
<!-- HITs/graph&#45;&gt;HITs/moebius -->
<g id="edge39" class="edge"><title>HITs/graph&#45;&gt;HITs/moebius</title>
<path fill="none" stroke="black" d="M957.09,-372.551C1035.83,-364.975 1183.8,-348.022 1230.66,-324 1280.43,-298.478 1319.66,-290.94 1319.66,-235 1319.66,-235 1319.66,-235 1319.66,-161 1319.66,-101.494 1256.68,-59.7601 1211.8,-37.5738"/>
<polygon fill="black" stroke="black" points="1213.06,-34.2958 1202.53,-33.1368 1210.04,-40.6102 1213.06,-34.2958"/>
</g>
<!-- types/precategory -->
<g id="node35" class="node"><title>types/precategory</title>
<ellipse fill="none" stroke="black" cx="1146.66" cy="-306" rx="75.2868" ry="18"/>
<text text-anchor="middle" x="1146.66" y="-302.3" font-family="Times New Roman,serif" font-size="14.00">types/precategory</text>
</g>
<!-- HITs/graph&#45;&gt;types/precategory -->
<g id="edge40" class="edge"><title>HITs/graph&#45;&gt;types/precategory</title>
<path fill="none" stroke="black" d="M945.482,-365.675C984.95,-354.164 1046.47,-336.22 1091.1,-323.205"/>
<polygon fill="black" stroke="black" points="1092.29,-326.502 1100.91,-320.342 1090.33,-319.782 1092.29,-326.502"/>
</g>
<!-- types/product&#45;&gt;theorems/ua -->
<g id="edge26" class="edge"><title>types/product&#45;&gt;theorems/ua</title>
<path fill="none" stroke="black" d="M612.4,-220.727C570.733,-208.624 507.075,-190.135 463.084,-177.357"/>
<polygon fill="black" stroke="black" points="464.037,-173.989 453.458,-174.561 462.085,-180.711 464.037,-173.989"/>
</g>
<!-- cubical/cubes -->
<g id="node27" class="node"><title>cubical/cubes</title>
<ellipse fill="none" stroke="black" cx="546.655" cy="-162" rx="60.3893" ry="18"/>
<text text-anchor="middle" x="546.655" y="-158.3" font-family="Times New Roman,serif" font-size="14.00">cubical/cubes</text>
</g>
<!-- types/product&#45;&gt;cubical/cubes -->
<g id="edge27" class="edge"><title>types/product&#45;&gt;cubical/cubes</title>
<path fill="none" stroke="black" d="M630.418,-217.291C615.41,-207.564 595.943,-194.946 579.553,-184.322"/>
<polygon fill="black" stroke="black" points="581.107,-181.159 570.812,-178.657 577.3,-187.033 581.107,-181.159"/>
</g>
<!-- cubical/path -->
<g id="node43" class="node"><title>cubical/path</title>
<ellipse fill="none" stroke="black" cx="639.655" cy="-90" rx="54.6905" ry="18"/>
<text text-anchor="middle" x="639.655" y="-86.3" font-family="Times New Roman,serif" font-size="14.00">cubical/path</text>
</g>
<!-- cubical/cubes&#45;&gt;cubical/path -->
<g id="edge52" class="edge"><title>cubical/cubes&#45;&gt;cubical/path</title>
<path fill="none" stroke="black" d="M567.758,-145.116C580.362,-135.629 596.558,-123.439 610.385,-113.031"/>
<polygon fill="black" stroke="black" points="612.751,-115.631 618.636,-106.821 608.541,-110.039 612.751,-115.631"/>
</g>
<!-- types/sigma -->
<g id="node28" class="node"><title>types/sigma</title>
<ellipse fill="none" stroke="black" cx="577.655" cy="-738" rx="53.8905" ry="18"/>
<text text-anchor="middle" x="577.655" y="-734.3" font-family="Times New Roman,serif" font-size="14.00">types/sigma</text>
</g>
<!-- types/swale -->
<g id="node29" class="node"><title>types/swale</title>
<ellipse fill="none" stroke="black" cx="209.655" cy="-306" rx="52.7911" ry="18"/>
<text text-anchor="middle" x="209.655" y="-302.3" font-family="Times New Roman,serif" font-size="14.00">types/swale</text>
</g>
<!-- types/swale&#45;&gt;algebra/group -->
<g id="edge28" class="edge"><title>types/swale&#45;&gt;algebra/group</title>
<path fill="none" stroke="black" d="M183.994,-290.155C166.507,-280.038 143.129,-266.514 123.9,-255.389"/>
<polygon fill="black" stroke="black" points="125.524,-252.286 115.116,-250.308 122.019,-258.345 125.524,-252.286"/>
</g>
<!-- types/swale&#45;&gt;HITs/reals -->
<g id="edge29" class="edge"><title>types/swale&#45;&gt;HITs/reals</title>
<path fill="none" stroke="black" d="M211.138,-287.697C211.8,-279.983 212.594,-270.712 213.331,-262.112"/>
<polygon fill="black" stroke="black" points="216.822,-262.367 214.189,-252.104 209.848,-261.769 216.822,-262.367"/>
</g>
<!-- HITs/suspension&#45;&gt;HITs/circle -->
<g id="edge47" class="edge"><title>HITs/suspension&#45;&gt;HITs/circle</title>
<path fill="none" stroke="black" d="M378.802,-216.269C369.984,-206.058 358.78,-192.587 349.655,-180 334.692,-159.358 319.388,-134.751 308.569,-116.648"/>
<polygon fill="black" stroke="black" points="311.454,-114.65 303.346,-107.83 305.431,-118.217 311.454,-114.65"/>
</g>
<!-- HITs/colimit&#45;&gt;HITs/truncation -->
<g id="edge34" class="edge"><title>HITs/colimit&#45;&gt;HITs/truncation</title>
<path fill="none" stroke="black" d="M835.633,-287.697C836.514,-279.983 837.574,-270.712 838.557,-262.112"/>
<polygon fill="black" stroke="black" points="842.042,-262.437 839.7,-252.104 835.088,-261.642 842.042,-262.437"/>
</g>
<!-- HITs/generalized&#45;&gt;HITs/truncation -->
<g id="edge35" class="edge"><title>HITs/generalized&#45;&gt;HITs/truncation</title>
<path fill="none" stroke="black" d="M950.151,-289.638C929.872,-279.426 903.045,-265.916 881.141,-254.885"/>
<polygon fill="black" stroke="black" points="882.594,-251.698 872.088,-250.326 879.445,-257.95 882.594,-251.698"/>
</g>
<!-- HITs/pushout&#45;&gt;HITs/reals -->
<g id="edge44" class="edge"><title>HITs/pushout&#45;&gt;HITs/reals</title>
<path fill="none" stroke="black" d="M477.388,-294.292C420.174,-281.331 324.245,-259.6 265.777,-246.354"/>
<polygon fill="black" stroke="black" points="266.547,-242.94 256.021,-244.144 265,-249.767 266.547,-242.94"/>
</g>
<!-- HITs/pushout&#45;&gt;HITs/suspension -->
<g id="edge45" class="edge"><title>HITs/pushout&#45;&gt;HITs/suspension</title>
<path fill="none" stroke="black" d="M496.23,-289.811C477.436,-279.769 452.571,-266.482 432.029,-255.505"/>
<polygon fill="black" stroke="black" points="433.401,-252.27 422.932,-250.644 430.102,-258.444 433.401,-252.27"/>
</g>
<!-- HITs/join -->
<g id="node38" class="node"><title>HITs/join</title>
<ellipse fill="none" stroke="black" cx="529.655" cy="-234" rx="45.4919" ry="18"/>
<text text-anchor="middle" x="529.655" y="-230.3" font-family="Times New Roman,serif" font-size="14.00">HITs/join</text>
</g>
<!-- HITs/pushout&#45;&gt;HITs/join -->
<g id="edge46" class="edge"><title>HITs/pushout&#45;&gt;HITs/join</title>
<path fill="none" stroke="black" d="M525.891,-287.697C526.442,-279.983 527.104,-270.712 527.719,-262.112"/>
<polygon fill="black" stroke="black" points="531.212,-262.328 528.433,-252.104 524.23,-261.83 531.212,-262.328"/>
</g>
<!-- cubical/connection -->
<g id="node42" class="node"><title>cubical/connection</title>
<ellipse fill="none" stroke="black" cx="556.655" cy="-18" rx="79.0865" ry="18"/>
<text text-anchor="middle" x="556.655" y="-14.3" font-family="Times New Roman,serif" font-size="14.00">cubical/connection</text>
</g>
<!-- cubical/path&#45;&gt;cubical/V -->
<g id="edge53" class="edge"><title>cubical/path&#45;&gt;cubical/V</title>
<path fill="none" stroke="black" d="M601.317,-77.1255C561.677,-64.8476 499.85,-45.6975 458.098,-32.7653"/>
<polygon fill="black" stroke="black" points="459.053,-29.3971 448.465,-29.7817 456.981,-36.0837 459.053,-29.3971"/>
</g>
<!-- cubical/path&#45;&gt;HITs/moebius -->
<g id="edge54" class="edge"><title>cubical/path&#45;&gt;HITs/moebius</title>
<path fill="none" stroke="black" d="M689.328,-82.4146C784.951,-69.7373 994.604,-41.9424 1101.76,-27.7359"/>
<polygon fill="black" stroke="black" points="1102.35,-31.1884 1111.8,-26.4044 1101.43,-24.2491 1102.35,-31.1884"/>
</g>
<!-- cubical/path&#45;&gt;cubical/connection -->
<g id="edge55" class="edge"><title>cubical/path&#45;&gt;cubical/connection</title>
<path fill="none" stroke="black" d="M620.405,-72.7646C609.666,-63.7076 596.104,-52.2705 584.253,-42.2756"/>
<polygon fill="black" stroke="black" points="586.279,-39.4049 576.378,-35.6334 581.766,-44.756 586.279,-39.4049"/>
</g>
<!-- cubical/example -->
<g id="node44" class="node"><title>cubical/example</title>
<ellipse fill="none" stroke="black" cx="722.655" cy="-18" rx="68.7879" ry="18"/>
<text text-anchor="middle" x="722.655" y="-14.3" font-family="Times New Roman,serif" font-size="14.00">cubical/example</text>
</g>
<!-- cubical/path&#45;&gt;cubical/example -->
<g id="edge56" class="edge"><title>cubical/path&#45;&gt;cubical/example</title>
<path fill="none" stroke="black" d="M658.906,-72.7646C669.723,-63.642 683.403,-52.1046 695.314,-42.0585"/>
<polygon fill="black" stroke="black" points="697.834,-44.5124 703.222,-35.3898 693.321,-39.1613 697.834,-44.5124"/>
</g>
<!-- cubical/square -->
<g id="node45" class="node"><title>cubical/square</title>
<ellipse fill="none" stroke="black" cx="872.655" cy="-18" rx="63.0888" ry="18"/>
<text text-anchor="middle" x="872.655" y="-14.3" font-family="Times New Roman,serif" font-size="14.00">cubical/square</text>
</g>
<!-- cubical/path&#45;&gt;cubical/square -->
<g id="edge57" class="edge"><title>cubical/path&#45;&gt;cubical/square</title>
<path fill="none" stroke="black" d="M678.654,-77.2836C717.715,-65.5485 778.049,-47.4224 821.055,-34.5021"/>
<polygon fill="black" stroke="black" points="822.201,-37.8124 830.771,-31.5831 820.187,-31.1084 822.201,-37.8124"/>
</g>
<!-- theorems/functions -->
<g id="node46" class="node"><title>theorems/functions</title>
<ellipse fill="none" stroke="black" cx="571.655" cy="-594" rx="79.8859" ry="18"/>
<text text-anchor="middle" x="571.655" y="-590.3" font-family="Times New Roman,serif" font-size="14.00">theorems/functions</text>
</g>
<!-- theorems/functions&#45;&gt;types/equiv -->
<g id="edge58" class="edge"><title>theorems/functions&#45;&gt;types/equiv</title>
<path fill="none" stroke="black" d="M540.91,-577.291C520.339,-566.78 493.162,-552.894 471.443,-541.797"/>
<polygon fill="black" stroke="black" points="473.002,-538.663 462.504,-537.229 469.817,-544.896 473.002,-538.663"/>
</g>
<!-- theorems/topology -->
<g id="node47" class="node"><title>theorems/topology</title>
<ellipse fill="none" stroke="black" cx="728.655" cy="-738" rx="79.0865" ry="18"/>
<text text-anchor="middle" x="728.655" y="-734.3" font-family="Times New Roman,serif" font-size="14.00">theorems/topology</text>
</g>
</g>
</svg>
