<?xml version="1.0" encoding="UTF-8" standalone="no"?>
<!DOCTYPE svg PUBLIC "-//W3C//DTD SVG 1.1//EN"
 "http://www.w3.org/Graphics/SVG/1.1/DTD/svg11.dtd">
<!-- Generated by graphviz version 2.38.0 (20140413.2041)
 -->
<!-- Title: dependency_map Pages: 1 -->
<svg width="1385pt" height="764pt"
 viewBox="0.00 0.00 1384.69 764.00" xmlns="http://www.w3.org/2000/svg" xmlns:xlink="http://www.w3.org/1999/xlink">
<g id="graph0" class="graph" transform="scale(1 1) rotate(0) translate(4 760)">
<title>dependency_map</title>
<polygon fill="white" stroke="none" points="-4,4 -4,-760 1380.69,-760 1380.69,4 -4,4"/>
<!-- proto -->
<g id="node1" class="node"><title>proto</title>
<ellipse fill="none" stroke="black" cx="634.044" cy="-738" rx="30.5947" ry="18"/>
<text text-anchor="middle" x="634.044" y="-734.3" font-family="Times New Roman,serif" font-size="14.00">proto</text>
</g>
<!-- types/eq -->
<g id="node2" class="node"><title>types/eq</title>
<ellipse fill="none" stroke="black" cx="694.044" cy="-666" rx="41.6928" ry="18"/>
<text text-anchor="middle" x="694.044" y="-662.3" font-family="Times New Roman,serif" font-size="14.00">types/eq</text>
</g>
<!-- proto&#45;&gt;types/eq -->
<g id="edge1" class="edge"><title>proto&#45;&gt;types/eq</title>
<path fill="none" stroke="black" d="M647.36,-721.465C654.988,-712.566 664.726,-701.205 673.332,-691.164"/>
<polygon fill="black" stroke="black" points="676.079,-693.338 679.93,-683.467 670.764,-688.782 676.079,-693.338"/>
</g>
<!-- support -->
<g id="node4" class="node"><title>support</title>
<ellipse fill="none" stroke="black" cx="694.044" cy="-594" rx="38.9931" ry="18"/>
<text text-anchor="middle" x="694.044" y="-590.3" font-family="Times New Roman,serif" font-size="14.00">support</text>
</g>
<!-- types/eq&#45;&gt;support -->
<g id="edge10" class="edge"><title>types/eq&#45;&gt;support</title>
<path fill="none" stroke="black" d="M694.044,-647.697C694.044,-639.983 694.044,-630.712 694.044,-622.112"/>
<polygon fill="black" stroke="black" points="697.545,-622.104 694.044,-612.104 690.545,-622.104 697.545,-622.104"/>
</g>
<!-- meta/hott_theory -->
<g id="node3" class="node"><title>meta/hott_theory</title>
<ellipse fill="none" stroke="black" cx="755.044" cy="-738" rx="72.2875" ry="18"/>
<text text-anchor="middle" x="755.044" y="-734.3" font-family="Times New Roman,serif" font-size="14.00">meta/hott_theory</text>
</g>
<!-- meta/hott_theory&#45;&gt;types/eq -->
<g id="edge2" class="edge"><title>meta/hott_theory&#45;&gt;types/eq</title>
<path fill="none" stroke="black" d="M740.278,-720.055C732.675,-711.33 723.276,-700.544 714.942,-690.981"/>
<polygon fill="black" stroke="black" points="717.463,-688.547 708.255,-683.307 712.186,-693.146 717.463,-688.547"/>
</g>
<!-- types/equiv -->
<g id="node5" class="node"><title>types/equiv</title>
<ellipse fill="none" stroke="black" cx="694.044" cy="-522" rx="51.9908" ry="18"/>
<text text-anchor="middle" x="694.044" y="-518.3" font-family="Times New Roman,serif" font-size="14.00">types/equiv</text>
</g>
<!-- support&#45;&gt;types/equiv -->
<g id="edge3" class="edge"><title>support&#45;&gt;types/equiv</title>
<path fill="none" stroke="black" d="M694.044,-575.697C694.044,-567.983 694.044,-558.712 694.044,-550.112"/>
<polygon fill="black" stroke="black" points="697.545,-550.104 694.044,-540.104 690.545,-550.104 697.545,-550.104"/>
</g>
<!-- types/coproduct -->
<g id="node12" class="node"><title>types/coproduct</title>
<ellipse fill="none" stroke="black" cx="424.044" cy="-378" rx="70.6878" ry="18"/>
<text text-anchor="middle" x="424.044" y="-374.3" font-family="Times New Roman,serif" font-size="14.00">types/coproduct</text>
</g>
<!-- types/equiv&#45;&gt;types/coproduct -->
<g id="edge11" class="edge"><title>types/equiv&#45;&gt;types/coproduct</title>
<path fill="none" stroke="black" d="M650.749,-511.856C616.562,-503.516 568.398,-489.228 530.044,-468 498.352,-450.459 467.23,-422.717 446.995,-402.869"/>
<polygon fill="black" stroke="black" points="449.346,-400.271 439.794,-395.686 444.402,-405.227 449.346,-400.271"/>
</g>
<!-- types/heq -->
<g id="node15" class="node"><title>types/heq</title>
<ellipse fill="none" stroke="black" cx="874.044" cy="-450" rx="46.2923" ry="18"/>
<text text-anchor="middle" x="874.044" y="-446.3" font-family="Times New Roman,serif" font-size="14.00">types/heq</text>
</g>
<!-- types/equiv&#45;&gt;types/heq -->
<g id="edge12" class="edge"><title>types/equiv&#45;&gt;types/heq</title>
<path fill="none" stroke="black" d="M727.479,-507.998C757.332,-496.388 801.148,-479.349 833.093,-466.926"/>
<polygon fill="black" stroke="black" points="834.546,-470.116 842.598,-463.229 832.009,-463.592 834.546,-470.116"/>
</g>
<!-- HITs/infinitesimal -->
<g id="node16" class="node"><title>HITs/infinitesimal</title>
<ellipse fill="none" stroke="black" cx="625.044" cy="-450" rx="74.9875" ry="18"/>
<text text-anchor="middle" x="625.044" y="-446.3" font-family="Times New Roman,serif" font-size="14.00">HITs/infinitesimal</text>
</g>
<!-- types/equiv&#45;&gt;HITs/infinitesimal -->
<g id="edge13" class="edge"><title>types/equiv&#45;&gt;HITs/infinitesimal</title>
<path fill="none" stroke="black" d="M678.041,-504.765C669.285,-495.882 658.272,-484.709 648.557,-474.854"/>
<polygon fill="black" stroke="black" points="650.953,-472.298 641.44,-467.633 645.968,-477.212 650.953,-472.298"/>
</g>
<!-- types/lost -->
<g id="node17" class="node"><title>types/lost</title>
<ellipse fill="none" stroke="black" cx="764.044" cy="-450" rx="46.2923" ry="18"/>
<text text-anchor="middle" x="764.044" y="-446.3" font-family="Times New Roman,serif" font-size="14.00">types/lost</text>
</g>
<!-- types/equiv&#45;&gt;types/lost -->
<g id="edge14" class="edge"><title>types/equiv&#45;&gt;types/lost</title>
<path fill="none" stroke="black" d="M710.28,-504.765C719.291,-495.753 730.659,-484.385 740.618,-474.426"/>
<polygon fill="black" stroke="black" points="743.301,-476.693 747.897,-467.147 738.351,-471.744 743.301,-476.693"/>
</g>
<!-- types/unit -->
<g id="node18" class="node"><title>types/unit</title>
<ellipse fill="none" stroke="black" cx="559.044" cy="-378" rx="46.2923" ry="18"/>
<text text-anchor="middle" x="559.044" y="-374.3" font-family="Times New Roman,serif" font-size="14.00">types/unit</text>
</g>
<!-- types/equiv&#45;&gt;types/unit -->
<g id="edge15" class="edge"><title>types/equiv&#45;&gt;types/unit</title>
<path fill="none" stroke="black" d="M643.075,-518.071C608.111,-513.089 564.032,-500.29 541.044,-468 527.905,-449.543 535.192,-423.759 544.111,-404.693"/>
<polygon fill="black" stroke="black" points="547.284,-406.174 548.681,-395.671 541.04,-403.01 547.284,-406.174"/>
</g>
<!-- types/sigma -->
<g id="node19" class="node"><title>types/sigma</title>
<ellipse fill="none" stroke="black" cx="961.044" cy="-234" rx="53.8905" ry="18"/>
<text text-anchor="middle" x="961.044" y="-230.3" font-family="Times New Roman,serif" font-size="14.00">types/sigma</text>
</g>
<!-- types/equiv&#45;&gt;types/sigma -->
<g id="edge16" class="edge"><title>types/equiv&#45;&gt;types/sigma</title>
<path fill="none" stroke="black" d="M743.622,-516.391C805.002,-509.613 904.472,-494.765 929.044,-468 981.545,-410.817 973.715,-310.059 966.208,-261.988"/>
<polygon fill="black" stroke="black" points="969.643,-261.31 964.536,-252.027 962.74,-262.468 969.643,-261.31"/>
</g>
<!-- structures -->
<g id="node6" class="node"><title>structures</title>
<ellipse fill="none" stroke="black" cx="605.044" cy="-306" rx="46.2923" ry="18"/>
<text text-anchor="middle" x="605.044" y="-302.3" font-family="Times New Roman,serif" font-size="14.00">structures</text>
</g>
<!-- theorems/ua -->
<g id="node7" class="node"><title>theorems/ua</title>
<ellipse fill="none" stroke="black" cx="730.044" cy="-234" rx="54.6905" ry="18"/>
<text text-anchor="middle" x="730.044" y="-230.3" font-family="Times New Roman,serif" font-size="14.00">theorems/ua</text>
</g>
<!-- structures&#45;&gt;theorems/ua -->
<g id="edge4" class="edge"><title>structures&#45;&gt;theorems/ua</title>
<path fill="none" stroke="black" d="M630.34,-290.834C648.859,-280.464 674.228,-266.257 694.742,-254.769"/>
<polygon fill="black" stroke="black" points="696.477,-257.809 703.492,-249.869 693.057,-251.702 696.477,-257.809"/>
</g>
<!-- HITs/interval -->
<g id="node8" class="node"><title>HITs/interval</title>
<ellipse fill="none" stroke="black" cx="600.044" cy="-234" rx="57.6901" ry="18"/>
<text text-anchor="middle" x="600.044" y="-230.3" font-family="Times New Roman,serif" font-size="14.00">HITs/interval</text>
</g>
<!-- structures&#45;&gt;HITs/interval -->
<g id="edge5" class="edge"><title>structures&#45;&gt;HITs/interval</title>
<path fill="none" stroke="black" d="M603.808,-287.697C603.257,-279.983 602.595,-270.712 601.981,-262.112"/>
<polygon fill="black" stroke="black" points="605.47,-261.83 601.266,-252.104 598.488,-262.328 605.47,-261.83"/>
</g>
<!-- HITs/truncation -->
<g id="node9" class="node"><title>HITs/truncation</title>
<ellipse fill="none" stroke="black" cx="1101.04" cy="-234" rx="68.4888" ry="18"/>
<text text-anchor="middle" x="1101.04" y="-230.3" font-family="Times New Roman,serif" font-size="14.00">HITs/truncation</text>
</g>
<!-- structures&#45;&gt;HITs/truncation -->
<g id="edge6" class="edge"><title>structures&#45;&gt;HITs/truncation</title>
<path fill="none" stroke="black" d="M638.508,-293.484C645.554,-291.391 652.991,-289.424 660.044,-288 819.397,-255.834 863.501,-277.569 1024.04,-252 1029.93,-251.062 1036.05,-249.951 1042.14,-248.753"/>
<polygon fill="black" stroke="black" points="1043.23,-252.102 1052.33,-246.67 1041.83,-245.244 1043.23,-252.102"/>
</g>
<!-- types/nat -->
<g id="node10" class="node"><title>types/nat</title>
<ellipse fill="none" stroke="black" cx="846.044" cy="-234" rx="43.5923" ry="18"/>
<text text-anchor="middle" x="846.044" y="-230.3" font-family="Times New Roman,serif" font-size="14.00">types/nat</text>
</g>
<!-- structures&#45;&gt;types/nat -->
<g id="edge7" class="edge"><title>structures&#45;&gt;types/nat</title>
<path fill="none" stroke="black" d="M639.9,-294.012C646.574,-291.969 653.515,-289.885 660.044,-288 719.291,-270.892 734.938,-269.588 794.044,-252 797.185,-251.065 800.424,-250.074 803.677,-249.058"/>
<polygon fill="black" stroke="black" points="804.926,-252.334 813.396,-245.969 802.806,-245.663 804.926,-252.334"/>
</g>
<!-- theorems/nat -->
<g id="node24" class="node"><title>theorems/nat</title>
<ellipse fill="none" stroke="black" cx="846.044" cy="-162" rx="57.3905" ry="18"/>
<text text-anchor="middle" x="846.044" y="-158.3" font-family="Times New Roman,serif" font-size="14.00">theorems/nat</text>
</g>
<!-- theorems/ua&#45;&gt;theorems/nat -->
<g id="edge61" class="edge"><title>theorems/ua&#45;&gt;theorems/nat</title>
<path fill="none" stroke="black" d="M755.215,-217.811C771.821,-207.79 793.781,-194.538 811.949,-183.575"/>
<polygon fill="black" stroke="black" points="813.769,-186.564 820.523,-178.401 810.152,-180.571 813.769,-186.564"/>
</g>
<!-- cubical/V -->
<g id="node44" class="node"><title>cubical/V</title>
<ellipse fill="none" stroke="black" cx="927.044" cy="-18" rx="45.4919" ry="18"/>
<text text-anchor="middle" x="927.044" y="-14.3" font-family="Times New Roman,serif" font-size="14.00">cubical/V</text>
</g>
<!-- theorems/ua&#45;&gt;cubical/V -->
<g id="edge62" class="edge"><title>theorems/ua&#45;&gt;cubical/V</title>
<path fill="none" stroke="black" d="M735.149,-216.041C746.536,-179.159 774.688,-93.2585 796.044,-72 808.729,-59.3731 849.509,-43.9231 882.237,-32.9697"/>
<polygon fill="black" stroke="black" points="883.693,-36.1754 892.096,-29.7228 881.503,-29.5267 883.693,-36.1754"/>
</g>
<!-- HITs/circle -->
<g id="node22" class="node"><title>HITs/circle</title>
<ellipse fill="none" stroke="black" cx="267.044" cy="-90" rx="51.9908" ry="18"/>
<text text-anchor="middle" x="267.044" y="-86.3" font-family="Times New Roman,serif" font-size="14.00">HITs/circle</text>
</g>
<!-- HITs/interval&#45;&gt;HITs/circle -->
<g id="edge40" class="edge"><title>HITs/interval&#45;&gt;HITs/circle</title>
<path fill="none" stroke="black" d="M552.036,-223.936C517.068,-215.927 469.471,-202.029 432.044,-180 411.995,-168.199 413.544,-156.688 394.044,-144 369.294,-127.895 338.841,-114.987 313.959,-105.943"/>
<polygon fill="black" stroke="black" points="314.967,-102.587 304.372,-102.548 312.63,-109.185 314.967,-102.587"/>
</g>
<!-- theorems/fibration -->
<g id="node27" class="node"><title>theorems/fibration</title>
<ellipse fill="none" stroke="black" cx="518.044" cy="-162" rx="76.8869" ry="18"/>
<text text-anchor="middle" x="518.044" y="-158.3" font-family="Times New Roman,serif" font-size="14.00">theorems/fibration</text>
</g>
<!-- HITs/interval&#45;&gt;theorems/fibration -->
<g id="edge41" class="edge"><title>HITs/interval&#45;&gt;theorems/fibration</title>
<path fill="none" stroke="black" d="M581.026,-216.765C570.416,-207.708 557.018,-196.27 545.31,-186.276"/>
<polygon fill="black" stroke="black" points="547.407,-183.464 537.529,-179.633 542.862,-188.788 547.407,-183.464"/>
</g>
<!-- theorems/prop -->
<g id="node28" class="node"><title>theorems/prop</title>
<ellipse fill="none" stroke="black" cx="985.044" cy="-162" rx="63.8893" ry="18"/>
<text text-anchor="middle" x="985.044" y="-158.3" font-family="Times New Roman,serif" font-size="14.00">theorems/prop</text>
</g>
<!-- HITs/interval&#45;&gt;theorems/prop -->
<g id="edge42" class="edge"><title>HITs/interval&#45;&gt;theorems/prop</title>
<path fill="none" stroke="black" d="M641.786,-221.531C649.803,-219.532 658.157,-217.588 666.044,-216 774.368,-194.188 803.474,-200.549 912.044,-180 917.398,-178.987 922.954,-177.85 928.502,-176.657"/>
<polygon fill="black" stroke="black" points="929.425,-180.038 938.436,-174.465 927.916,-173.203 929.425,-180.038"/>
</g>
<!-- cubical/cubes -->
<g id="node37" class="node"><title>cubical/cubes</title>
<ellipse fill="none" stroke="black" cx="673.044" cy="-162" rx="60.3893" ry="18"/>
<text text-anchor="middle" x="673.044" y="-158.3" font-family="Times New Roman,serif" font-size="14.00">cubical/cubes</text>
</g>
<!-- HITs/interval&#45;&gt;cubical/cubes -->
<g id="edge43" class="edge"><title>HITs/interval&#45;&gt;cubical/cubes</title>
<path fill="none" stroke="black" d="M616.976,-216.765C626.398,-207.73 638.29,-196.326 648.695,-186.349"/>
<polygon fill="black" stroke="black" points="651.157,-188.837 655.952,-179.39 646.312,-183.785 651.157,-188.837"/>
</g>
<!-- HITs/truncation&#45;&gt;theorems/prop -->
<g id="edge47" class="edge"><title>HITs/truncation&#45;&gt;theorems/prop</title>
<path fill="none" stroke="black" d="M1075.01,-217.291C1058.74,-207.473 1037.6,-194.712 1019.89,-184.028"/>
<polygon fill="black" stroke="black" points="1021.36,-180.827 1010.99,-178.657 1017.74,-186.82 1021.36,-180.827"/>
</g>
<!-- theorems/functions -->
<g id="node29" class="node"><title>theorems/functions</title>
<ellipse fill="none" stroke="black" cx="1147.04" cy="-162" rx="79.8859" ry="18"/>
<text text-anchor="middle" x="1147.04" y="-158.3" font-family="Times New Roman,serif" font-size="14.00">theorems/functions</text>
</g>
<!-- HITs/truncation&#45;&gt;theorems/functions -->
<g id="edge48" class="edge"><title>HITs/truncation&#45;&gt;theorems/functions</title>
<path fill="none" stroke="black" d="M1112.18,-216.055C1117.58,-207.837 1124.18,-197.791 1130.18,-188.66"/>
<polygon fill="black" stroke="black" points="1133.13,-190.555 1135.69,-180.275 1127.28,-186.71 1133.13,-190.555"/>
</g>
<!-- HITs/simplicial -->
<g id="node39" class="node"><title>HITs/simplicial</title>
<ellipse fill="none" stroke="black" cx="1311.04" cy="-162" rx="65.7887" ry="18"/>
<text text-anchor="middle" x="1311.04" y="-158.3" font-family="Times New Roman,serif" font-size="14.00">HITs/simplicial</text>
</g>
<!-- HITs/truncation&#45;&gt;HITs/simplicial -->
<g id="edge49" class="edge"><title>HITs/truncation&#45;&gt;HITs/simplicial</title>
<path fill="none" stroke="black" d="M1141.53,-219.503C1175.63,-208.137 1224.55,-191.83 1261.08,-179.654"/>
<polygon fill="black" stroke="black" points="1262.66,-182.819 1271.04,-176.336 1260.44,-176.178 1262.66,-182.819"/>
</g>
<!-- types/nat&#45;&gt;theorems/nat -->
<g id="edge21" class="edge"><title>types/nat&#45;&gt;theorems/nat</title>
<path fill="none" stroke="black" d="M846.044,-215.697C846.044,-207.983 846.044,-198.712 846.044,-190.112"/>
<polygon fill="black" stroke="black" points="849.545,-190.104 846.044,-180.104 842.545,-190.104 849.545,-190.104"/>
</g>
<!-- types/category -->
<g id="node11" class="node"><title>types/category</title>
<ellipse fill="none" stroke="black" cx="1054.04" cy="-18" rx="63.8893" ry="18"/>
<text text-anchor="middle" x="1054.04" y="-14.3" font-family="Times New Roman,serif" font-size="14.00">types/category</text>
</g>
<!-- types/coproduct&#45;&gt;structures -->
<g id="edge8" class="edge"><title>types/coproduct&#45;&gt;structures</title>
<path fill="none" stroke="black" d="M461.548,-362.496C491.353,-350.969 533.001,-334.862 563.754,-322.969"/>
<polygon fill="black" stroke="black" points="565.263,-326.138 573.327,-319.266 562.738,-319.609 565.263,-326.138"/>
</g>
<!-- types/integer -->
<g id="node13" class="node"><title>types/integer</title>
<ellipse fill="none" stroke="black" cx="229.044" cy="-306" rx="56.59" ry="18"/>
<text text-anchor="middle" x="229.044" y="-302.3" font-family="Times New Roman,serif" font-size="14.00">types/integer</text>
</g>
<!-- types/coproduct&#45;&gt;types/integer -->
<g id="edge9" class="edge"><title>types/coproduct&#45;&gt;types/integer</title>
<path fill="none" stroke="black" d="M384.583,-362.834C352.778,-351.417 308.018,-335.35 274.676,-323.38"/>
<polygon fill="black" stroke="black" points="275.753,-320.049 265.159,-319.964 273.388,-326.637 275.753,-320.049"/>
</g>
<!-- types/integer&#45;&gt;HITs/circle -->
<g id="edge19" class="edge"><title>types/integer&#45;&gt;HITs/circle</title>
<path fill="none" stroke="black" d="M232.09,-287.849C238.677,-250.753 254.293,-162.81 262.232,-118.103"/>
<polygon fill="black" stroke="black" points="265.682,-118.69 263.984,-108.232 258.79,-117.466 265.682,-118.69"/>
</g>
<!-- types/rational -->
<g id="node23" class="node"><title>types/rational</title>
<ellipse fill="none" stroke="black" cx="139.044" cy="-234" rx="59.2899" ry="18"/>
<text text-anchor="middle" x="139.044" y="-230.3" font-family="Times New Roman,serif" font-size="14.00">types/rational</text>
</g>
<!-- types/integer&#45;&gt;types/rational -->
<g id="edge20" class="edge"><title>types/integer&#45;&gt;types/rational</title>
<path fill="none" stroke="black" d="M208.622,-289.116C196.51,-279.696 180.972,-267.611 167.653,-257.251"/>
<polygon fill="black" stroke="black" points="169.74,-254.44 159.698,-251.064 165.442,-259.966 169.74,-254.44"/>
</g>
<!-- types/dedekind -->
<g id="node14" class="node"><title>types/dedekind</title>
<ellipse fill="none" stroke="black" cx="135.044" cy="-162" rx="65.7887" ry="18"/>
<text text-anchor="middle" x="135.044" y="-158.3" font-family="Times New Roman,serif" font-size="14.00">types/dedekind</text>
</g>
<!-- HITs/graph -->
<g id="node20" class="node"><title>HITs/graph</title>
<ellipse fill="none" stroke="black" cx="874.044" cy="-378" rx="52.7911" ry="18"/>
<text text-anchor="middle" x="874.044" y="-374.3" font-family="Times New Roman,serif" font-size="14.00">HITs/graph</text>
</g>
<!-- types/heq&#45;&gt;HITs/graph -->
<g id="edge17" class="edge"><title>types/heq&#45;&gt;HITs/graph</title>
<path fill="none" stroke="black" d="M874.044,-431.697C874.044,-423.983 874.044,-414.712 874.044,-406.112"/>
<polygon fill="black" stroke="black" points="877.545,-406.104 874.044,-396.104 870.545,-406.104 877.545,-406.104"/>
</g>
<!-- theorems/funext -->
<g id="node21" class="node"><title>theorems/funext</title>
<ellipse fill="none" stroke="black" cx="731.044" cy="-378" rx="68.7879" ry="18"/>
<text text-anchor="middle" x="731.044" y="-374.3" font-family="Times New Roman,serif" font-size="14.00">theorems/funext</text>
</g>
<!-- types/heq&#45;&gt;theorems/funext -->
<g id="edge18" class="edge"><title>types/heq&#45;&gt;theorems/funext</title>
<path fill="none" stroke="black" d="M846.473,-435.503C825.121,-425.051 795.237,-410.423 771.225,-398.669"/>
<polygon fill="black" stroke="black" points="772.528,-395.41 762.007,-394.157 769.45,-401.697 772.528,-395.41"/>
</g>
<!-- types/unit&#45;&gt;structures -->
<g id="edge29" class="edge"><title>types/unit&#45;&gt;structures</title>
<path fill="none" stroke="black" d="M569.946,-360.411C575.422,-352.077 582.178,-341.797 588.295,-332.488"/>
<polygon fill="black" stroke="black" points="591.335,-334.235 593.902,-323.956 585.485,-330.391 591.335,-334.235"/>
</g>
<!-- HITs/suspension -->
<g id="node30" class="node"><title>HITs/suspension</title>
<ellipse fill="none" stroke="black" cx="346.044" cy="-234" rx="72.5877" ry="18"/>
<text text-anchor="middle" x="346.044" y="-230.3" font-family="Times New Roman,serif" font-size="14.00">HITs/suspension</text>
</g>
<!-- types/unit&#45;&gt;HITs/suspension -->
<g id="edge30" class="edge"><title>types/unit&#45;&gt;HITs/suspension</title>
<path fill="none" stroke="black" d="M524.143,-366.165C517.474,-364.107 510.546,-361.98 504.044,-360 450.778,-343.778 425.561,-361.106 384.044,-324 366.099,-307.961 356.339,-282.004 351.222,-262.25"/>
<polygon fill="black" stroke="black" points="354.579,-261.234 348.893,-252.295 347.763,-262.829 354.579,-261.234"/>
</g>
<!-- types/sigma&#45;&gt;theorems/nat -->
<g id="edge25" class="edge"><title>types/sigma&#45;&gt;theorems/nat</title>
<path fill="none" stroke="black" d="M936.374,-217.983C919.813,-207.902 897.787,-194.496 879.632,-183.444"/>
<polygon fill="black" stroke="black" points="881.433,-180.443 871.071,-178.233 877.793,-186.423 881.433,-180.443"/>
</g>
<!-- types/sigma&#45;&gt;theorems/fibration -->
<g id="edge26" class="edge"><title>types/sigma&#45;&gt;theorems/fibration</title>
<path fill="none" stroke="black" d="M922.224,-221.422C914.587,-219.41 906.6,-217.489 899.044,-216 769.452,-190.468 734.477,-200.821 604.044,-180 597.38,-178.936 590.444,-177.731 583.53,-176.465"/>
<polygon fill="black" stroke="black" points="583.925,-172.978 573.451,-174.576 582.636,-179.858 583.925,-172.978"/>
</g>
<!-- types/sigma&#45;&gt;theorems/prop -->
<g id="edge27" class="edge"><title>types/sigma&#45;&gt;theorems/prop</title>
<path fill="none" stroke="black" d="M966.854,-216.055C969.555,-208.176 972.833,-198.617 975.858,-189.794"/>
<polygon fill="black" stroke="black" points="979.189,-190.87 979.121,-180.275 972.567,-188.6 979.189,-190.87"/>
</g>
<!-- types/sigma&#45;&gt;theorems/functions -->
<g id="edge28" class="edge"><title>types/sigma&#45;&gt;theorems/functions</title>
<path fill="none" stroke="black" d="M995.594,-219.998C1024.44,-209.141 1065.91,-193.535 1098.16,-181.397"/>
<polygon fill="black" stroke="black" points="1099.73,-184.548 1107.85,-177.75 1097.26,-177.997 1099.73,-184.548"/>
</g>
<!-- HITs/colimit -->
<g id="node34" class="node"><title>HITs/colimit</title>
<ellipse fill="none" stroke="black" cx="874.044" cy="-306" rx="56.59" ry="18"/>
<text text-anchor="middle" x="874.044" y="-302.3" font-family="Times New Roman,serif" font-size="14.00">HITs/colimit</text>
</g>
<!-- HITs/graph&#45;&gt;HITs/colimit -->
<g id="edge37" class="edge"><title>HITs/graph&#45;&gt;HITs/colimit</title>
<path fill="none" stroke="black" d="M874.044,-359.697C874.044,-351.983 874.044,-342.712 874.044,-334.112"/>
<polygon fill="black" stroke="black" points="877.545,-334.104 874.044,-324.104 870.545,-334.104 877.545,-334.104"/>
</g>
<!-- HITs/generalized -->
<g id="node35" class="node"><title>HITs/generalized</title>
<ellipse fill="none" stroke="black" cx="1081.04" cy="-306" rx="72.2875" ry="18"/>
<text text-anchor="middle" x="1081.04" y="-302.3" font-family="Times New Roman,serif" font-size="14.00">HITs/generalized</text>
</g>
<!-- HITs/graph&#45;&gt;HITs/generalized -->
<g id="edge38" class="edge"><title>HITs/graph&#45;&gt;HITs/generalized</title>
<path fill="none" stroke="black" d="M910.101,-364.807C943.383,-353.552 993.145,-336.725 1030.41,-324.123"/>
<polygon fill="black" stroke="black" points="1031.73,-327.372 1040.08,-320.853 1029.48,-320.741 1031.73,-327.372"/>
</g>
<!-- HITs/pushout -->
<g id="node36" class="node"><title>HITs/pushout</title>
<ellipse fill="none" stroke="black" cx="455.044" cy="-306" rx="61.99" ry="18"/>
<text text-anchor="middle" x="455.044" y="-302.3" font-family="Times New Roman,serif" font-size="14.00">HITs/pushout</text>
</g>
<!-- HITs/graph&#45;&gt;HITs/pushout -->
<g id="edge39" class="edge"><title>HITs/graph&#45;&gt;HITs/pushout</title>
<path fill="none" stroke="black" d="M834.687,-365.913C826.268,-363.765 817.395,-361.666 809.044,-360 695.074,-337.257 664.822,-342.239 550.044,-324 538.91,-322.231 527.065,-320.217 515.653,-318.209"/>
<polygon fill="black" stroke="black" points="516.222,-314.756 505.764,-316.453 514.998,-321.648 516.222,-314.756"/>
</g>
<!-- theorems/funext&#45;&gt;structures -->
<g id="edge56" class="edge"><title>theorems/funext&#45;&gt;structures</title>
<path fill="none" stroke="black" d="M703.081,-361.465C684.219,-350.986 659.214,-337.094 639.178,-325.963"/>
<polygon fill="black" stroke="black" points="640.804,-322.862 630.362,-321.066 637.404,-328.982 640.804,-322.862"/>
</g>
<!-- types/product -->
<g id="node26" class="node"><title>types/product</title>
<ellipse fill="none" stroke="black" cx="731.044" cy="-306" rx="61.99" ry="18"/>
<text text-anchor="middle" x="731.044" y="-302.3" font-family="Times New Roman,serif" font-size="14.00">types/product</text>
</g>
<!-- theorems/funext&#45;&gt;types/product -->
<g id="edge57" class="edge"><title>theorems/funext&#45;&gt;types/product</title>
<path fill="none" stroke="black" d="M731.044,-359.697C731.044,-351.983 731.044,-342.712 731.044,-334.112"/>
<polygon fill="black" stroke="black" points="734.545,-334.104 731.044,-324.104 727.545,-334.104 734.545,-334.104"/>
</g>
<!-- theorems/hopf -->
<g id="node31" class="node"><title>theorems/hopf</title>
<ellipse fill="none" stroke="black" cx="323.044" cy="-18" rx="63.8893" ry="18"/>
<text text-anchor="middle" x="323.044" y="-14.3" font-family="Times New Roman,serif" font-size="14.00">theorems/hopf</text>
</g>
<!-- HITs/circle&#45;&gt;theorems/hopf -->
<g id="edge31" class="edge"><title>HITs/circle&#45;&gt;theorems/hopf</title>
<path fill="none" stroke="black" d="M280.316,-72.411C287.12,-63.9056 295.546,-53.3724 303.113,-43.9138"/>
<polygon fill="black" stroke="black" points="305.965,-45.9514 309.479,-35.9562 300.499,-41.5785 305.965,-45.9514"/>
</g>
<!-- HITs/moebius -->
<g id="node32" class="node"><title>HITs/moebius</title>
<ellipse fill="none" stroke="black" cx="63.0444" cy="-18" rx="63.0888" ry="18"/>
<text text-anchor="middle" x="63.0444" y="-14.3" font-family="Times New Roman,serif" font-size="14.00">HITs/moebius</text>
</g>
<!-- HITs/circle&#45;&gt;HITs/moebius -->
<g id="edge32" class="edge"><title>HITs/circle&#45;&gt;HITs/moebius</title>
<path fill="none" stroke="black" d="M231.51,-76.8069C198.187,-65.3724 148.099,-48.1855 111.196,-35.5226"/>
<polygon fill="black" stroke="black" points="112.235,-32.1788 101.64,-32.2436 109.963,-38.7998 112.235,-32.1788"/>
</g>
<!-- HITs/reals -->
<g id="node33" class="node"><title>HITs/reals</title>
<ellipse fill="none" stroke="black" cx="193.044" cy="-18" rx="48.9926" ry="18"/>
<text text-anchor="middle" x="193.044" y="-14.3" font-family="Times New Roman,serif" font-size="14.00">HITs/reals</text>
</g>
<!-- HITs/circle&#45;&gt;HITs/reals -->
<g id="edge33" class="edge"><title>HITs/circle&#45;&gt;HITs/reals</title>
<path fill="none" stroke="black" d="M249.881,-72.7646C240.193,-63.5997 227.928,-51.9976 217.273,-41.9189"/>
<polygon fill="black" stroke="black" points="219.529,-39.2353 209.859,-34.906 214.719,-44.3206 219.529,-39.2353"/>
</g>
<!-- types/rational&#45;&gt;types/dedekind -->
<g id="edge24" class="edge"><title>types/rational&#45;&gt;types/dedekind</title>
<path fill="none" stroke="black" d="M138.056,-215.697C137.615,-207.983 137.085,-198.712 136.594,-190.112"/>
<polygon fill="black" stroke="black" points="140.087,-189.888 136.022,-180.104 133.098,-190.288 140.087,-189.888"/>
</g>
<!-- theorems/nat&#45;&gt;HITs/circle -->
<g id="edge58" class="edge"><title>theorems/nat&#45;&gt;HITs/circle</title>
<path fill="none" stroke="black" d="M797.184,-152.487C779.805,-149.598 760.079,-146.478 742.044,-144 593.037,-123.522 416.9,-105.472 326.758,-96.6779"/>
<polygon fill="black" stroke="black" points="327.017,-93.1867 316.725,-95.7028 326.34,-100.154 327.017,-93.1867"/>
</g>
<!-- HITs/int -->
<g id="node45" class="node"><title>HITs/int</title>
<ellipse fill="none" stroke="black" cx="846.044" cy="-90" rx="40.8928" ry="18"/>
<text text-anchor="middle" x="846.044" y="-86.3" font-family="Times New Roman,serif" font-size="14.00">HITs/int</text>
</g>
<!-- theorems/nat&#45;&gt;HITs/int -->
<g id="edge59" class="edge"><title>theorems/nat&#45;&gt;HITs/int</title>
<path fill="none" stroke="black" d="M846.044,-143.697C846.044,-135.983 846.044,-126.712 846.044,-118.112"/>
<polygon fill="black" stroke="black" points="849.545,-118.104 846.044,-108.104 842.545,-118.104 849.545,-118.104"/>
</g>
<!-- types/precategory -->
<g id="node25" class="node"><title>types/precategory</title>
<ellipse fill="none" stroke="black" cx="1031.04" cy="-90" rx="75.2868" ry="18"/>
<text text-anchor="middle" x="1031.04" y="-86.3" font-family="Times New Roman,serif" font-size="14.00">types/precategory</text>
</g>
<!-- types/precategory&#45;&gt;types/category -->
<g id="edge22" class="edge"><title>types/precategory&#45;&gt;types/category</title>
<path fill="none" stroke="black" d="M1036.73,-71.6966C1039.29,-63.8979 1042.38,-54.5085 1045.23,-45.8292"/>
<polygon fill="black" stroke="black" points="1048.63,-46.6972 1048.42,-36.1043 1041.98,-44.5121 1048.63,-46.6972"/>
</g>
<!-- types/product&#45;&gt;theorems/ua -->
<g id="edge23" class="edge"><title>types/product&#45;&gt;theorems/ua</title>
<path fill="none" stroke="black" d="M730.797,-287.697C730.687,-279.983 730.555,-270.712 730.432,-262.112"/>
<polygon fill="black" stroke="black" points="733.931,-262.053 730.289,-252.104 726.932,-262.153 733.931,-262.053"/>
</g>
<!-- theorems/fibration&#45;&gt;theorems/hopf -->
<g id="edge55" class="edge"><title>theorems/fibration&#45;&gt;theorems/hopf</title>
<path fill="none" stroke="black" d="M495.675,-144.711C460.705,-119.245 393.017,-69.9545 353.587,-41.2416"/>
<polygon fill="black" stroke="black" points="355.297,-38.1566 345.153,-35.0992 351.176,-43.8152 355.297,-38.1566"/>
</g>
<!-- theorems/prop&#45;&gt;types/precategory -->
<g id="edge60" class="edge"><title>theorems/prop&#45;&gt;types/precategory</title>
<path fill="none" stroke="black" d="M996.18,-144.055C1001.58,-135.837 1008.18,-125.791 1014.18,-116.66"/>
<polygon fill="black" stroke="black" points="1017.13,-118.555 1019.69,-108.275 1011.28,-114.71 1017.13,-118.555"/>
</g>
<!-- HITs/suspension&#45;&gt;HITs/circle -->
<g id="edge45" class="edge"><title>HITs/suspension&#45;&gt;HITs/circle</title>
<path fill="none" stroke="black" d="M321.271,-216.9C308.857,-207.572 294.669,-194.76 286.044,-180 275.05,-161.184 270.388,-136.808 268.425,-118.325"/>
<polygon fill="black" stroke="black" points="271.899,-117.873 267.554,-108.21 264.925,-118.473 271.899,-117.873"/>
</g>
<!-- HITs/join -->
<g id="node38" class="node"><title>HITs/join</title>
<ellipse fill="none" stroke="black" cx="340.044" cy="-162" rx="45.4919" ry="18"/>
<text text-anchor="middle" x="340.044" y="-158.3" font-family="Times New Roman,serif" font-size="14.00">HITs/join</text>
</g>
<!-- HITs/suspension&#45;&gt;HITs/join -->
<g id="edge46" class="edge"><title>HITs/suspension&#45;&gt;HITs/join</title>
<path fill="none" stroke="black" d="M344.561,-215.697C343.9,-207.983 343.105,-198.712 342.368,-190.112"/>
<polygon fill="black" stroke="black" points="345.852,-189.769 341.51,-180.104 338.877,-190.367 345.852,-189.769"/>
</g>
<!-- HITs/colimit&#45;&gt;HITs/truncation -->
<g id="edge34" class="edge"><title>HITs/colimit&#45;&gt;HITs/truncation</title>
<path fill="none" stroke="black" d="M913.067,-292.967C950.503,-281.422 1007.29,-263.91 1048.66,-251.155"/>
<polygon fill="black" stroke="black" points="1049.76,-254.476 1058.29,-248.185 1047.7,-247.787 1049.76,-254.476"/>
</g>
<!-- HITs/colimit&#45;&gt;types/nat -->
<g id="edge35" class="edge"><title>HITs/colimit&#45;&gt;types/nat</title>
<path fill="none" stroke="black" d="M867.266,-288.055C864.033,-279.973 860.093,-270.121 856.489,-261.112"/>
<polygon fill="black" stroke="black" points="859.724,-259.774 852.76,-251.789 853.224,-262.374 859.724,-259.774"/>
</g>
<!-- HITs/generalized&#45;&gt;HITs/truncation -->
<g id="edge36" class="edge"><title>HITs/generalized&#45;&gt;HITs/truncation</title>
<path fill="none" stroke="black" d="M1085.99,-287.697C1088.22,-279.898 1090.9,-270.509 1093.38,-261.829"/>
<polygon fill="black" stroke="black" points="1096.78,-262.681 1096.16,-252.104 1090.04,-260.758 1096.78,-262.681"/>
</g>
<!-- HITs/pushout&#45;&gt;HITs/suspension -->
<g id="edge44" class="edge"><title>HITs/pushout&#45;&gt;HITs/suspension</title>
<path fill="none" stroke="black" d="M430.583,-289.291C415.648,-279.7 396.337,-267.298 379.942,-256.769"/>
<polygon fill="black" stroke="black" points="381.486,-253.601 371.181,-251.142 377.704,-259.491 381.486,-253.601"/>
</g>
<!-- cubical/path -->
<g id="node41" class="node"><title>cubical/path</title>
<ellipse fill="none" stroke="black" cx="673.044" cy="-90" rx="54.6905" ry="18"/>
<text text-anchor="middle" x="673.044" y="-86.3" font-family="Times New Roman,serif" font-size="14.00">cubical/path</text>
</g>
<!-- cubical/cubes&#45;&gt;cubical/path -->
<g id="edge50" class="edge"><title>cubical/cubes&#45;&gt;cubical/path</title>
<path fill="none" stroke="black" d="M673.044,-143.697C673.044,-135.983 673.044,-126.712 673.044,-118.112"/>
<polygon fill="black" stroke="black" points="676.545,-118.104 673.044,-108.104 669.545,-118.104 676.545,-118.104"/>
</g>
<!-- cubical/connection -->
<g id="node40" class="node"><title>cubical/connection</title>
<ellipse fill="none" stroke="black" cx="484.044" cy="-18" rx="79.0865" ry="18"/>
<text text-anchor="middle" x="484.044" y="-14.3" font-family="Times New Roman,serif" font-size="14.00">cubical/connection</text>
</g>
<!-- cubical/path&#45;&gt;cubical/connection -->
<g id="edge51" class="edge"><title>cubical/path&#45;&gt;cubical/connection</title>
<path fill="none" stroke="black" d="M637.938,-75.9976C608.401,-65.0579 565.845,-49.2965 532.967,-37.1195"/>
<polygon fill="black" stroke="black" points="534.129,-33.8174 523.536,-33.6263 531.697,-40.3817 534.129,-33.8174"/>
</g>
<!-- cubical/example -->
<g id="node42" class="node"><title>cubical/example</title>
<ellipse fill="none" stroke="black" cx="650.044" cy="-18" rx="68.7879" ry="18"/>
<text text-anchor="middle" x="650.044" y="-14.3" font-family="Times New Roman,serif" font-size="14.00">cubical/example</text>
</g>
<!-- cubical/path&#45;&gt;cubical/example -->
<g id="edge52" class="edge"><title>cubical/path&#45;&gt;cubical/example</title>
<path fill="none" stroke="black" d="M667.477,-72.055C664.888,-64.1762 661.747,-54.6165 658.848,-45.794"/>
<polygon fill="black" stroke="black" points="662.167,-44.6831 655.721,-36.2753 655.517,-46.8682 662.167,-44.6831"/>
</g>
<!-- cubical/square -->
<g id="node43" class="node"><title>cubical/square</title>
<ellipse fill="none" stroke="black" cx="800.044" cy="-18" rx="63.0888" ry="18"/>
<text text-anchor="middle" x="800.044" y="-14.3" font-family="Times New Roman,serif" font-size="14.00">cubical/square</text>
</g>
<!-- cubical/path&#45;&gt;cubical/square -->
<g id="edge53" class="edge"><title>cubical/path&#45;&gt;cubical/square</title>
<path fill="none" stroke="black" d="M699.978,-74.1548C718.415,-63.9925 743.092,-50.3914 763.326,-39.2385"/>
<polygon fill="black" stroke="black" points="765.204,-42.2001 772.272,-34.3077 761.825,-36.0697 765.204,-42.2001"/>
</g>
<!-- cubical/path&#45;&gt;cubical/V -->
<g id="edge54" class="edge"><title>cubical/path&#45;&gt;cubical/V</title>
<path fill="none" stroke="black" d="M715.106,-78.3123C755.474,-67.9333 818.099,-51.5142 872.044,-36 875.565,-34.9874 879.205,-33.9163 882.859,-32.8241"/>
<polygon fill="black" stroke="black" points="883.929,-36.157 892.486,-29.9097 881.901,-29.4572 883.929,-36.157"/>
</g>
</g>
</svg>
