<?xml version="1.0" encoding="UTF-8" standalone="no"?>
<!DOCTYPE svg PUBLIC "-//W3C//DTD SVG 1.1//EN"
 "http://www.w3.org/Graphics/SVG/1.1/DTD/svg11.dtd">
<!-- Generated by graphviz version 2.38.0 (20140413.2041)
 -->
<!-- Title: dependency_map Pages: 1 -->
<svg width="1689pt" height="836pt"
 viewBox="0.00 0.00 1688.92 836.00" xmlns="http://www.w3.org/2000/svg" xmlns:xlink="http://www.w3.org/1999/xlink">
<g id="graph0" class="graph" transform="scale(1 1) rotate(0) translate(4 832)">
<title>dependency_map</title>
<polygon fill="white" stroke="none" points="-4,4 -4,-832 1684.92,-832 1684.92,4 -4,4"/>
<!-- proto -->
<g id="node1" class="node"><title>proto</title>
<ellipse fill="none" stroke="black" cx="873.97" cy="-810" rx="30.5947" ry="18"/>
<text text-anchor="middle" x="873.97" y="-806.3" font-family="Times New Roman,serif" font-size="14.00">proto</text>
</g>
<!-- types/eq -->
<g id="node2" class="node"><title>types/eq</title>
<ellipse fill="none" stroke="black" cx="933.97" cy="-738" rx="41.6928" ry="18"/>
<text text-anchor="middle" x="933.97" y="-734.3" font-family="Times New Roman,serif" font-size="14.00">types/eq</text>
</g>
<!-- proto&#45;&gt;types/eq -->
<g id="edge1" class="edge"><title>proto&#45;&gt;types/eq</title>
<path fill="none" stroke="black" d="M887.286,-793.465C894.914,-784.566 904.651,-773.205 913.258,-763.164"/>
<polygon fill="black" stroke="black" points="916.005,-765.338 919.855,-755.467 910.69,-760.782 916.005,-765.338"/>
</g>
<!-- support -->
<g id="node4" class="node"><title>support</title>
<ellipse fill="none" stroke="black" cx="995.97" cy="-666" rx="38.9931" ry="18"/>
<text text-anchor="middle" x="995.97" y="-662.3" font-family="Times New Roman,serif" font-size="14.00">support</text>
</g>
<!-- types/eq&#45;&gt;support -->
<g id="edge13" class="edge"><title>types/eq&#45;&gt;support</title>
<path fill="none" stroke="black" d="M948.35,-720.765C956.253,-711.841 966.203,-700.608 974.961,-690.719"/>
<polygon fill="black" stroke="black" points="977.658,-692.954 981.668,-683.147 972.418,-688.313 977.658,-692.954"/>
</g>
<!-- types/dep_path -->
<g id="node21" class="node"><title>types/dep_path</title>
<ellipse fill="none" stroke="black" cx="871.97" cy="-666" rx="66.8882" ry="18"/>
<text text-anchor="middle" x="871.97" y="-662.3" font-family="Times New Roman,serif" font-size="14.00">types/dep_path</text>
</g>
<!-- types/eq&#45;&gt;types/dep_path -->
<g id="edge14" class="edge"><title>types/eq&#45;&gt;types/dep_path</title>
<path fill="none" stroke="black" d="M919.59,-720.765C911.799,-711.969 902.021,-700.928 893.355,-691.144"/>
<polygon fill="black" stroke="black" points="895.953,-688.799 886.702,-683.633 890.713,-693.44 895.953,-688.799"/>
</g>
<!-- meta/hott_theory -->
<g id="node3" class="node"><title>meta/hott_theory</title>
<ellipse fill="none" stroke="black" cx="994.97" cy="-810" rx="72.2875" ry="18"/>
<text text-anchor="middle" x="994.97" y="-806.3" font-family="Times New Roman,serif" font-size="14.00">meta/hott_theory</text>
</g>
<!-- meta/hott_theory&#45;&gt;types/eq -->
<g id="edge2" class="edge"><title>meta/hott_theory&#45;&gt;types/eq</title>
<path fill="none" stroke="black" d="M980.204,-792.055C972.601,-783.33 963.201,-772.544 954.867,-762.981"/>
<polygon fill="black" stroke="black" points="957.389,-760.547 948.18,-755.307 952.111,-765.146 957.389,-760.547"/>
</g>
<!-- types/equiv -->
<g id="node5" class="node"><title>types/equiv</title>
<ellipse fill="none" stroke="black" cx="995.97" cy="-594" rx="51.9908" ry="18"/>
<text text-anchor="middle" x="995.97" y="-590.3" font-family="Times New Roman,serif" font-size="14.00">types/equiv</text>
</g>
<!-- support&#45;&gt;types/equiv -->
<g id="edge3" class="edge"><title>support&#45;&gt;types/equiv</title>
<path fill="none" stroke="black" d="M995.97,-647.697C995.97,-639.983 995.97,-630.712 995.97,-622.112"/>
<polygon fill="black" stroke="black" points="999.47,-622.104 995.97,-612.104 992.47,-622.104 999.47,-622.104"/>
</g>
<!-- HITs/infinitesimal -->
<g id="node12" class="node"><title>HITs/infinitesimal</title>
<ellipse fill="none" stroke="black" stroke-dasharray="5,2" cx="691.97" cy="-522" rx="74.9875" ry="18"/>
<text text-anchor="middle" x="691.97" y="-518.3" font-family="Times New Roman,serif" font-size="14.00">HITs/infinitesimal</text>
</g>
<!-- types/equiv&#45;&gt;HITs/infinitesimal -->
<g id="edge15" class="edge"><title>types/equiv&#45;&gt;HITs/infinitesimal</title>
<path fill="none" stroke="black" d="M954.019,-583.34C902.207,-571.41 813.626,-551.013 753.962,-537.275"/>
<polygon fill="black" stroke="black" points="754.441,-533.793 743.911,-534.96 752.87,-540.615 754.441,-533.793"/>
</g>
<!-- types/coproduct -->
<g id="node19" class="node"><title>types/coproduct</title>
<ellipse fill="none" stroke="black" cx="1185.97" cy="-522" rx="70.6878" ry="18"/>
<text text-anchor="middle" x="1185.97" y="-518.3" font-family="Times New Roman,serif" font-size="14.00">types/coproduct</text>
</g>
<!-- types/equiv&#45;&gt;types/coproduct -->
<g id="edge16" class="edge"><title>types/equiv&#45;&gt;types/coproduct</title>
<path fill="none" stroke="black" d="M1030.38,-580.324C1060.45,-569.243 1104.43,-553.04 1137.97,-540.684"/>
<polygon fill="black" stroke="black" points="1139.4,-543.888 1147.57,-537.147 1136.98,-537.32 1139.4,-543.888"/>
</g>
<!-- types/heq -->
<g id="node22" class="node"><title>types/heq</title>
<ellipse fill="none" stroke="black" cx="940.97" cy="-522" rx="46.2923" ry="18"/>
<text text-anchor="middle" x="940.97" y="-518.3" font-family="Times New Roman,serif" font-size="14.00">types/heq</text>
</g>
<!-- types/equiv&#45;&gt;types/heq -->
<g id="edge17" class="edge"><title>types/equiv&#45;&gt;types/heq</title>
<path fill="none" stroke="black" d="M982.936,-576.411C976.155,-567.781 967.733,-557.062 960.218,-547.497"/>
<polygon fill="black" stroke="black" points="962.841,-545.171 953.911,-539.47 957.337,-549.496 962.841,-545.171"/>
</g>
<!-- types/lost -->
<g id="node23" class="node"><title>types/lost</title>
<ellipse fill="none" stroke="black" cx="1050.97" cy="-522" rx="46.2923" ry="18"/>
<text text-anchor="middle" x="1050.97" y="-518.3" font-family="Times New Roman,serif" font-size="14.00">types/lost</text>
</g>
<!-- types/equiv&#45;&gt;types/lost -->
<g id="edge18" class="edge"><title>types/equiv&#45;&gt;types/lost</title>
<path fill="none" stroke="black" d="M1009,-576.411C1015.79,-567.781 1024.21,-557.062 1031.72,-547.497"/>
<polygon fill="black" stroke="black" points="1034.6,-549.496 1038.03,-539.47 1029.1,-545.171 1034.6,-549.496"/>
</g>
<!-- types/unit -->
<g id="node24" class="node"><title>types/unit</title>
<ellipse fill="none" stroke="black" cx="830.97" cy="-522" rx="46.2923" ry="18"/>
<text text-anchor="middle" x="830.97" y="-518.3" font-family="Times New Roman,serif" font-size="14.00">types/unit</text>
</g>
<!-- types/equiv&#45;&gt;types/unit -->
<g id="edge19" class="edge"><title>types/equiv&#45;&gt;types/unit</title>
<path fill="none" stroke="black" d="M964.156,-579.503C937.401,-568.153 899.034,-551.876 870.345,-539.705"/>
<polygon fill="black" stroke="black" points="871.59,-536.431 861.018,-535.748 868.857,-542.875 871.59,-536.431"/>
</g>
<!-- types/sigma -->
<g id="node25" class="node"><title>types/sigma</title>
<ellipse fill="none" stroke="black" cx="1626.97" cy="-378" rx="53.8905" ry="18"/>
<text text-anchor="middle" x="1626.97" y="-374.3" font-family="Times New Roman,serif" font-size="14.00">types/sigma</text>
</g>
<!-- types/equiv&#45;&gt;types/sigma -->
<g id="edge20" class="edge"><title>types/equiv&#45;&gt;types/sigma</title>
<path fill="none" stroke="black" d="M1044.09,-586.9C1098.74,-579.208 1190.14,-564.011 1265.97,-540 1389.43,-500.904 1527.05,-431.956 1590.85,-398.415"/>
<polygon fill="black" stroke="black" points="1592.52,-401.497 1599.72,-393.731 1589.25,-395.307 1592.52,-401.497"/>
</g>
<!-- structures -->
<g id="node6" class="node"><title>structures</title>
<ellipse fill="none" stroke="black" cx="901.97" cy="-450" rx="46.2923" ry="18"/>
<text text-anchor="middle" x="901.97" y="-446.3" font-family="Times New Roman,serif" font-size="14.00">structures</text>
</g>
<!-- HITs/interval -->
<g id="node7" class="node"><title>HITs/interval</title>
<ellipse fill="none" stroke="black" cx="979.97" cy="-378" rx="57.6901" ry="18"/>
<text text-anchor="middle" x="979.97" y="-374.3" font-family="Times New Roman,serif" font-size="14.00">HITs/interval</text>
</g>
<!-- structures&#45;&gt;HITs/interval -->
<g id="edge4" class="edge"><title>structures&#45;&gt;HITs/interval</title>
<path fill="none" stroke="black" d="M919.669,-433.116C929.895,-423.939 942.939,-412.233 954.277,-402.057"/>
<polygon fill="black" stroke="black" points="956.694,-404.591 961.799,-395.307 952.019,-399.381 956.694,-404.591"/>
</g>
<!-- HITs/truncation -->
<g id="node8" class="node"><title>HITs/truncation</title>
<ellipse fill="none" stroke="black" cx="662.97" cy="-306" rx="68.4888" ry="18"/>
<text text-anchor="middle" x="662.97" y="-302.3" font-family="Times New Roman,serif" font-size="14.00">HITs/truncation</text>
</g>
<!-- structures&#45;&gt;HITs/truncation -->
<g id="edge5" class="edge"><title>structures&#45;&gt;HITs/truncation</title>
<path fill="none" stroke="black" d="M901.584,-431.667C900.173,-411.573 894.738,-378.811 874.97,-360 854.476,-340.498 785.91,-325.731 732.238,-316.801"/>
<polygon fill="black" stroke="black" points="732.495,-313.297 722.063,-315.147 731.372,-320.206 732.495,-313.297"/>
</g>
<!-- algebra/core -->
<g id="node9" class="node"><title>algebra/core</title>
<ellipse fill="none" stroke="black" cx="1120.97" cy="-378" rx="55.4913" ry="18"/>
<text text-anchor="middle" x="1120.97" y="-374.3" font-family="Times New Roman,serif" font-size="14.00">algebra/core</text>
</g>
<!-- structures&#45;&gt;algebra/core -->
<g id="edge6" class="edge"><title>structures&#45;&gt;algebra/core</title>
<path fill="none" stroke="black" d="M936.671,-437.908C973.518,-426.131 1032.01,-407.434 1073.2,-394.269"/>
<polygon fill="black" stroke="black" points="1074.29,-397.595 1082.75,-391.216 1072.16,-390.927 1074.29,-397.595"/>
</g>
<!-- types/nat -->
<g id="node10" class="node"><title>types/nat</title>
<ellipse fill="none" stroke="black" cx="821.97" cy="-378" rx="43.5923" ry="18"/>
<text text-anchor="middle" x="821.97" y="-374.3" font-family="Times New Roman,serif" font-size="14.00">types/nat</text>
</g>
<!-- structures&#45;&gt;types/nat -->
<g id="edge7" class="edge"><title>structures&#45;&gt;types/nat</title>
<path fill="none" stroke="black" d="M883.817,-433.116C873.104,-423.742 859.376,-411.73 847.576,-401.405"/>
<polygon fill="black" stroke="black" points="849.606,-398.531 839.776,-394.58 844.997,-403.799 849.606,-398.531"/>
</g>
<!-- types/product -->
<g id="node29" class="node"><title>types/product</title>
<ellipse fill="none" stroke="black" cx="974.97" cy="-306" rx="61.99" ry="18"/>
<text text-anchor="middle" x="974.97" y="-302.3" font-family="Times New Roman,serif" font-size="14.00">types/product</text>
</g>
<!-- HITs/interval&#45;&gt;types/product -->
<g id="edge47" class="edge"><title>HITs/interval&#45;&gt;types/product</title>
<path fill="none" stroke="black" d="M978.734,-359.697C978.183,-351.983 977.521,-342.712 976.907,-334.112"/>
<polygon fill="black" stroke="black" points="980.395,-333.83 976.192,-324.104 973.413,-334.328 980.395,-333.83"/>
</g>
<!-- theorems/fibration -->
<g id="node31" class="node"><title>theorems/fibration</title>
<ellipse fill="none" stroke="black" cx="1308.97" cy="-306" rx="76.8869" ry="18"/>
<text text-anchor="middle" x="1308.97" y="-302.3" font-family="Times New Roman,serif" font-size="14.00">theorems/fibration</text>
</g>
<!-- HITs/interval&#45;&gt;theorems/fibration -->
<g id="edge48" class="edge"><title>HITs/interval&#45;&gt;theorems/fibration</title>
<path fill="none" stroke="black" d="M1025.56,-366.857C1035.88,-364.581 1046.8,-362.192 1056.97,-360 1120.27,-346.356 1192.61,-331.185 1243.5,-320.582"/>
<polygon fill="black" stroke="black" points="1244.31,-323.99 1253.38,-318.524 1242.88,-317.137 1244.31,-323.99"/>
</g>
<!-- theorems/prop -->
<g id="node32" class="node"><title>theorems/prop</title>
<ellipse fill="none" stroke="black" cx="1116.97" cy="-234" rx="63.8893" ry="18"/>
<text text-anchor="middle" x="1116.97" y="-230.3" font-family="Times New Roman,serif" font-size="14.00">theorems/prop</text>
</g>
<!-- HITs/interval&#45;&gt;theorems/prop -->
<g id="edge49" class="edge"><title>HITs/interval&#45;&gt;theorems/prop</title>
<path fill="none" stroke="black" d="M1002.09,-361.184C1015.42,-351.193 1032.38,-337.635 1045.97,-324 1065.85,-304.06 1085.58,-278.756 1099.19,-260.23"/>
<polygon fill="black" stroke="black" points="1102.13,-262.137 1105.16,-251.987 1096.46,-258.028 1102.13,-262.137"/>
</g>
<!-- HITs/truncation&#45;&gt;theorems/prop -->
<g id="edge54" class="edge"><title>HITs/truncation&#45;&gt;theorems/prop</title>
<path fill="none" stroke="black" d="M724.615,-298.166C800.186,-289.389 932.017,-272.778 1043.97,-252 1049.41,-250.991 1055.05,-249.848 1060.68,-248.644"/>
<polygon fill="black" stroke="black" points="1061.75,-251.994 1070.76,-246.426 1060.24,-245.157 1061.75,-251.994"/>
</g>
<!-- HITs/simplicial -->
<g id="node43" class="node"><title>HITs/simplicial</title>
<ellipse fill="none" stroke="black" cx="664.97" cy="-234" rx="65.7887" ry="18"/>
<text text-anchor="middle" x="664.97" y="-230.3" font-family="Times New Roman,serif" font-size="14.00">HITs/simplicial</text>
</g>
<!-- HITs/truncation&#45;&gt;HITs/simplicial -->
<g id="edge55" class="edge"><title>HITs/truncation&#45;&gt;HITs/simplicial</title>
<path fill="none" stroke="black" d="M663.464,-287.697C663.685,-279.983 663.95,-270.712 664.195,-262.112"/>
<polygon fill="black" stroke="black" points="667.694,-262.2 664.481,-252.104 660.697,-262 667.694,-262.2"/>
</g>
<!-- theorems/mere_eq_lemma -->
<g id="node44" class="node"><title>theorems/mere_eq_lemma</title>
<ellipse fill="none" stroke="black" cx="315.97" cy="-234" rx="105.881" ry="18"/>
<text text-anchor="middle" x="315.97" y="-230.3" font-family="Times New Roman,serif" font-size="14.00">theorems/mere_eq_lemma</text>
</g>
<!-- HITs/truncation&#45;&gt;theorems/mere_eq_lemma -->
<g id="edge56" class="edge"><title>HITs/truncation&#45;&gt;theorems/mere_eq_lemma</title>
<path fill="none" stroke="black" d="M610.645,-294.445C552.387,-282.692 457.722,-263.595 391.451,-250.227"/>
<polygon fill="black" stroke="black" points="391.974,-246.762 381.479,-248.215 390.589,-253.623 391.974,-246.762"/>
</g>
<!-- theorems/graphs -->
<g id="node45" class="node"><title>theorems/graphs</title>
<ellipse fill="none" stroke="black" cx="510.97" cy="-234" rx="70.6878" ry="18"/>
<text text-anchor="middle" x="510.97" y="-230.3" font-family="Times New Roman,serif" font-size="14.00">theorems/graphs</text>
</g>
<!-- HITs/truncation&#45;&gt;theorems/graphs -->
<g id="edge57" class="edge"><title>HITs/truncation&#45;&gt;theorems/graphs</title>
<path fill="none" stroke="black" d="M630.362,-289.983C607.721,-279.557 577.354,-265.572 552.912,-254.316"/>
<polygon fill="black" stroke="black" points="554.071,-250.996 543.524,-249.992 551.143,-257.354 554.071,-250.996"/>
</g>
<!-- algebra/group -->
<g id="node17" class="node"><title>algebra/group</title>
<ellipse fill="none" stroke="black" cx="1463.97" cy="-306" rx="60.3893" ry="18"/>
<text text-anchor="middle" x="1463.97" y="-302.3" font-family="Times New Roman,serif" font-size="14.00">algebra/group</text>
</g>
<!-- algebra/core&#45;&gt;algebra/group -->
<g id="edge8" class="edge"><title>algebra/core&#45;&gt;algebra/group</title>
<path fill="none" stroke="black" d="M1168.15,-368.622C1222.87,-358.733 1315.71,-341.419 1394.97,-324 1399.69,-322.962 1404.59,-321.844 1409.49,-320.694"/>
<polygon fill="black" stroke="black" points="1410.59,-324.029 1419.51,-318.305 1408.97,-317.22 1410.59,-324.029"/>
</g>
<!-- theorems/nat -->
<g id="node28" class="node"><title>theorems/nat</title>
<ellipse fill="none" stroke="black" cx="757.97" cy="-162" rx="57.3905" ry="18"/>
<text text-anchor="middle" x="757.97" y="-158.3" font-family="Times New Roman,serif" font-size="14.00">theorems/nat</text>
</g>
<!-- types/nat&#45;&gt;theorems/nat -->
<g id="edge26" class="edge"><title>types/nat&#45;&gt;theorems/nat</title>
<path fill="none" stroke="black" d="M815.198,-359.817C805.943,-335.911 789.214,-291.139 777.97,-252 772.104,-231.58 766.893,-208.12 763.262,-190.415"/>
<polygon fill="black" stroke="black" points="766.614,-189.328 761.214,-180.213 759.751,-190.706 766.614,-189.328"/>
</g>
<!-- HITs/circle -->
<g id="node11" class="node"><title>HITs/circle</title>
<ellipse fill="none" stroke="black" stroke-dasharray="5,2" cx="582.97" cy="-90" rx="51.9908" ry="18"/>
<text text-anchor="middle" x="582.97" y="-86.3" font-family="Times New Roman,serif" font-size="14.00">HITs/circle</text>
</g>
<!-- HITs/ntrunc -->
<g id="node13" class="node"><title>HITs/ntrunc</title>
<ellipse fill="none" stroke="black" stroke-dasharray="5,2" cx="582.97" cy="-18" rx="55.4913" ry="18"/>
<text text-anchor="middle" x="582.97" y="-14.3" font-family="Times New Roman,serif" font-size="14.00">HITs/ntrunc</text>
</g>
<!-- HITs/circle&#45;&gt;HITs/ntrunc -->
<g id="edge36" class="edge"><title>HITs/circle&#45;&gt;HITs/ntrunc</title>
<path fill="none" stroke="black" d="M582.97,-71.6966C582.97,-63.9827 582.97,-54.7125 582.97,-46.1124"/>
<polygon fill="black" stroke="black" points="586.47,-46.1043 582.97,-36.1043 579.47,-46.1044 586.47,-46.1043"/>
</g>
<!-- theorems/hopf -->
<g id="node16" class="node"><title>theorems/hopf</title>
<ellipse fill="none" stroke="black" stroke-dasharray="5,2" cx="1055.97" cy="-18" rx="63.8893" ry="18"/>
<text text-anchor="middle" x="1055.97" y="-14.3" font-family="Times New Roman,serif" font-size="14.00">theorems/hopf</text>
</g>
<!-- HITs/circle&#45;&gt;theorems/hopf -->
<g id="edge37" class="edge"><title>HITs/circle&#45;&gt;theorems/hopf</title>
<path fill="none" stroke="black" d="M620.837,-77.5377C628.449,-75.4913 636.427,-73.5279 643.97,-72 762.88,-47.9125 903.43,-32.5951 985.826,-24.9235"/>
<polygon fill="black" stroke="black" points="986.19,-28.405 995.827,-24.0034 985.548,-21.4344 986.19,-28.405"/>
</g>
<!-- theorems/ua -->
<g id="node14" class="node"><title>theorems/ua</title>
<ellipse fill="none" stroke="black" stroke-dasharray="5,2" cx="841.97" cy="-234" rx="54.6905" ry="18"/>
<text text-anchor="middle" x="841.97" y="-230.3" font-family="Times New Roman,serif" font-size="14.00">theorems/ua</text>
</g>
<!-- cubical/V -->
<g id="node15" class="node"><title>cubical/V</title>
<ellipse fill="none" stroke="black" stroke-dasharray="5,2" cx="842.97" cy="-90" rx="45.4919" ry="18"/>
<text text-anchor="middle" x="842.97" y="-86.3" font-family="Times New Roman,serif" font-size="14.00">cubical/V</text>
</g>
<!-- theorems/ua&#45;&gt;cubical/V -->
<g id="edge67" class="edge"><title>theorems/ua&#45;&gt;cubical/V</title>
<path fill="none" stroke="black" d="M842.091,-215.871C842.261,-191.67 842.574,-147.211 842.777,-118.393"/>
<polygon fill="black" stroke="black" points="846.278,-118.214 842.849,-108.189 839.278,-118.164 846.278,-118.214"/>
</g>
<!-- theorems/ua&#45;&gt;theorems/nat -->
<g id="edge68" class="edge"><title>theorems/ua&#45;&gt;theorems/nat</title>
<path fill="none" stroke="black" d="M822.909,-217.116C811.711,-207.785 797.376,-195.838 785.024,-185.545"/>
<polygon fill="black" stroke="black" points="787.169,-182.777 777.246,-179.064 782.688,-188.154 787.169,-182.777"/>
</g>
<!-- algebra/homology -->
<g id="node18" class="node"><title>algebra/homology</title>
<ellipse fill="none" stroke="black" cx="1495.97" cy="-234" rx="75.2868" ry="18"/>
<text text-anchor="middle" x="1495.97" y="-230.3" font-family="Times New Roman,serif" font-size="14.00">algebra/homology</text>
</g>
<!-- algebra/group&#45;&gt;algebra/homology -->
<g id="edge9" class="edge"><title>algebra/group&#45;&gt;algebra/homology</title>
<path fill="none" stroke="black" d="M1471.72,-288.055C1475.36,-280.091 1479.78,-270.411 1483.85,-261.51"/>
<polygon fill="black" stroke="black" points="1487.1,-262.825 1488.07,-252.275 1480.73,-259.915 1487.1,-262.825"/>
</g>
<!-- types/coproduct&#45;&gt;structures -->
<g id="edge10" class="edge"><title>types/coproduct&#45;&gt;structures</title>
<path fill="none" stroke="black" d="M1136.83,-508.887C1084.43,-495.974 1002.02,-475.659 950.04,-462.848"/>
<polygon fill="black" stroke="black" points="950.616,-459.385 940.069,-460.391 948.94,-466.182 950.616,-459.385"/>
</g>
<!-- types/integer -->
<g id="node20" class="node"><title>types/integer</title>
<ellipse fill="none" stroke="black" cx="1189.97" cy="-450" rx="56.59" ry="18"/>
<text text-anchor="middle" x="1189.97" y="-446.3" font-family="Times New Roman,serif" font-size="14.00">types/integer</text>
</g>
<!-- types/coproduct&#45;&gt;types/integer -->
<g id="edge11" class="edge"><title>types/coproduct&#45;&gt;types/integer</title>
<path fill="none" stroke="black" d="M1186.96,-503.697C1187.4,-495.983 1187.93,-486.712 1188.42,-478.112"/>
<polygon fill="black" stroke="black" points="1191.92,-478.288 1188.99,-468.104 1184.93,-477.888 1191.92,-478.288"/>
</g>
<!-- types/integer&#45;&gt;algebra/core -->
<g id="edge23" class="edge"><title>types/integer&#45;&gt;algebra/core</title>
<path fill="none" stroke="black" d="M1173.62,-432.411C1164.85,-423.519 1153.9,-412.411 1144.26,-402.631"/>
<polygon fill="black" stroke="black" points="1146.72,-400.135 1137.2,-395.47 1141.73,-405.049 1146.72,-400.135"/>
</g>
<!-- types/integer&#45;&gt;HITs/circle -->
<g id="edge24" class="edge"><title>types/integer&#45;&gt;HITs/circle</title>
<path fill="none" stroke="black" d="M1196.45,-431.957C1211.25,-389.86 1242.35,-279.761 1189.97,-216 1170.34,-192.108 674.052,-115.156 643.97,-108 639.879,-107.027 635.649,-105.965 631.412,-104.863"/>
<polygon fill="black" stroke="black" points="632.142,-101.435 621.578,-102.24 630.338,-108.199 632.142,-101.435"/>
</g>
<!-- HITs/reals -->
<g id="node27" class="node"><title>HITs/reals</title>
<ellipse fill="none" stroke="black" cx="1590.97" cy="-306" rx="48.9926" ry="18"/>
<text text-anchor="middle" x="1590.97" y="-302.3" font-family="Times New Roman,serif" font-size="14.00">HITs/reals</text>
</g>
<!-- types/integer&#45;&gt;HITs/reals -->
<g id="edge25" class="edge"><title>types/integer&#45;&gt;HITs/reals</title>
<path fill="none" stroke="black" d="M1244.76,-445.424C1327.56,-439.185 1479.79,-424.2 1525.97,-396 1550.22,-381.193 1568.2,-353.622 1579.04,-333.074"/>
<polygon fill="black" stroke="black" points="1582.27,-334.425 1583.64,-323.919 1576.02,-331.28 1582.27,-334.425"/>
</g>
<!-- types/dep_path&#45;&gt;types/equiv -->
<g id="edge12" class="edge"><title>types/dep_path&#45;&gt;types/equiv</title>
<path fill="none" stroke="black" d="M899.49,-649.465C917.599,-639.242 941.462,-625.771 960.925,-614.783"/>
<polygon fill="black" stroke="black" points="962.813,-617.737 969.801,-609.773 959.372,-611.641 962.813,-617.737"/>
</g>
<!-- types/heq&#45;&gt;HITs/interval -->
<g id="edge21" class="edge"><title>types/heq&#45;&gt;HITs/interval</title>
<path fill="none" stroke="black" d="M946.334,-503.865C949.527,-493.511 953.6,-480.032 956.97,-468 962.743,-447.383 968.782,-423.933 973.222,-406.281"/>
<polygon fill="black" stroke="black" points="976.734,-406.667 975.764,-396.117 969.943,-404.969 976.734,-406.667"/>
</g>
<!-- HITs/graph -->
<g id="node26" class="node"><title>HITs/graph</title>
<ellipse fill="none" stroke="black" cx="435.97" cy="-450" rx="52.7911" ry="18"/>
<text text-anchor="middle" x="435.97" y="-446.3" font-family="Times New Roman,serif" font-size="14.00">HITs/graph</text>
</g>
<!-- types/heq&#45;&gt;HITs/graph -->
<g id="edge22" class="edge"><title>types/heq&#45;&gt;HITs/graph</title>
<path fill="none" stroke="black" d="M907.485,-509.586C900.441,-507.486 893.01,-505.49 885.97,-504 748.829,-474.984 584.576,-460.683 497.401,-454.67"/>
<polygon fill="black" stroke="black" points="497.629,-451.178 487.415,-453.995 497.156,-458.162 497.629,-451.178"/>
</g>
<!-- types/unit&#45;&gt;structures -->
<g id="edge33" class="edge"><title>types/unit&#45;&gt;structures</title>
<path fill="none" stroke="black" d="M847.081,-505.116C856.299,-496.027 868.034,-484.458 878.285,-474.351"/>
<polygon fill="black" stroke="black" points="880.766,-476.82 885.43,-467.307 875.852,-471.835 880.766,-476.82"/>
</g>
<!-- types/unit&#45;&gt;types/nat -->
<g id="edge34" class="edge"><title>types/unit&#45;&gt;types/nat</title>
<path fill="none" stroke="black" d="M829.884,-503.871C828.35,-479.67 825.533,-435.211 823.706,-406.393"/>
<polygon fill="black" stroke="black" points="827.185,-405.948 823.059,-396.189 820.199,-406.391 827.185,-405.948"/>
</g>
<!-- HITs/suspension -->
<g id="node34" class="node"><title>HITs/suspension</title>
<ellipse fill="none" stroke="black" cx="100.97" cy="-306" rx="72.5877" ry="18"/>
<text text-anchor="middle" x="100.97" y="-302.3" font-family="Times New Roman,serif" font-size="14.00">HITs/suspension</text>
</g>
<!-- types/unit&#45;&gt;HITs/suspension -->
<g id="edge35" class="edge"><title>types/unit&#45;&gt;HITs/suspension</title>
<path fill="none" stroke="black" d="M797.516,-509.434C790.469,-507.344 783.03,-505.391 775.97,-504 606.659,-470.64 116.62,-529.252 6.9699,-396 -3.19661,-383.645 -1.10066,-373.815 6.9699,-360 16.0544,-344.449 31.5715,-333.103 47.409,-324.998"/>
<polygon fill="black" stroke="black" points="49.1807,-328.032 56.7246,-320.593 46.1882,-321.704 49.1807,-328.032"/>
</g>
<!-- types/sigma&#45;&gt;theorems/fibration -->
<g id="edge29" class="edge"><title>types/sigma&#45;&gt;theorems/fibration</title>
<path fill="none" stroke="black" d="M1583.09,-367.34C1528.62,-355.35 1435.29,-334.807 1372.88,-321.067"/>
<polygon fill="black" stroke="black" points="1373.27,-317.57 1362.75,-318.838 1371.76,-324.406 1373.27,-317.57"/>
</g>
<!-- types/sigma&#45;&gt;theorems/prop -->
<g id="edge30" class="edge"><title>types/sigma&#45;&gt;theorems/prop</title>
<path fill="none" stroke="black" d="M1638.9,-360.407C1651.47,-340.724 1667.13,-308.059 1648.97,-288 1633.72,-271.155 1330.44,-249.064 1188.75,-239.613"/>
<polygon fill="black" stroke="black" points="1188.64,-236.098 1178.43,-238.928 1188.17,-243.082 1188.64,-236.098"/>
</g>
<!-- HITs/colimit -->
<g id="node35" class="node"><title>HITs/colimit</title>
<ellipse fill="none" stroke="black" cx="520.97" cy="-378" rx="56.59" ry="18"/>
<text text-anchor="middle" x="520.97" y="-374.3" font-family="Times New Roman,serif" font-size="14.00">HITs/colimit</text>
</g>
<!-- HITs/graph&#45;&gt;HITs/colimit -->
<g id="edge40" class="edge"><title>HITs/graph&#45;&gt;HITs/colimit</title>
<path fill="none" stroke="black" d="M455.258,-433.116C466.589,-423.785 481.095,-411.838 493.594,-401.545"/>
<polygon fill="black" stroke="black" points="495.97,-404.122 501.464,-395.064 491.52,-398.719 495.97,-404.122"/>
</g>
<!-- HITs/generalized -->
<g id="node36" class="node"><title>HITs/generalized</title>
<ellipse fill="none" stroke="black" cx="667.97" cy="-378" rx="72.2875" ry="18"/>
<text text-anchor="middle" x="667.97" y="-374.3" font-family="Times New Roman,serif" font-size="14.00">HITs/generalized</text>
</g>
<!-- HITs/graph&#45;&gt;HITs/generalized -->
<g id="edge41" class="edge"><title>HITs/graph&#45;&gt;HITs/generalized</title>
<path fill="none" stroke="black" d="M474.02,-437.519C512.184,-426.004 571.297,-408.168 614.235,-395.213"/>
<polygon fill="black" stroke="black" points="615.395,-398.519 623.957,-392.28 613.373,-391.818 615.395,-398.519"/>
</g>
<!-- HITs/int -->
<g id="node37" class="node"><title>HITs/int</title>
<ellipse fill="none" stroke="black" cx="224.97" cy="-378" rx="40.8928" ry="18"/>
<text text-anchor="middle" x="224.97" y="-374.3" font-family="Times New Roman,serif" font-size="14.00">HITs/int</text>
</g>
<!-- HITs/graph&#45;&gt;HITs/int -->
<g id="edge42" class="edge"><title>HITs/graph&#45;&gt;HITs/int</title>
<path fill="none" stroke="black" d="M399.169,-436.998C366.514,-426.321 317.527,-410.239 274.97,-396 272.064,-395.028 269.065,-394.02 266.046,-393.001"/>
<polygon fill="black" stroke="black" points="267.022,-389.637 256.427,-389.748 264.778,-396.268 267.022,-389.637"/>
</g>
<!-- HITs/pushout -->
<g id="node38" class="node"><title>HITs/pushout</title>
<ellipse fill="none" stroke="black" cx="345.97" cy="-378" rx="61.99" ry="18"/>
<text text-anchor="middle" x="345.97" y="-374.3" font-family="Times New Roman,serif" font-size="14.00">HITs/pushout</text>
</g>
<!-- HITs/graph&#45;&gt;HITs/pushout -->
<g id="edge43" class="edge"><title>HITs/graph&#45;&gt;HITs/pushout</title>
<path fill="none" stroke="black" d="M415.548,-433.116C403.436,-423.696 387.898,-411.611 374.579,-401.251"/>
<polygon fill="black" stroke="black" points="376.665,-398.44 366.623,-395.064 372.368,-403.966 376.665,-398.44"/>
</g>
<!-- HITs/moebius -->
<g id="node39" class="node"><title>HITs/moebius</title>
<ellipse fill="none" stroke="black" cx="715.97" cy="-90" rx="63.0888" ry="18"/>
<text text-anchor="middle" x="715.97" y="-86.3" font-family="Times New Roman,serif" font-size="14.00">HITs/moebius</text>
</g>
<!-- HITs/graph&#45;&gt;HITs/moebius -->
<g id="edge44" class="edge"><title>HITs/graph&#45;&gt;HITs/moebius</title>
<path fill="none" stroke="black" d="M437.752,-431.972C440.172,-398.98 440.285,-326.237 399.97,-288 334.757,-226.148 258.591,-320.98 200.97,-252 190.713,-239.721 191.08,-228.577 200.97,-216 202.773,-213.706 525.429,-136.479 659.046,-104.578"/>
<polygon fill="black" stroke="black" points="660.181,-107.905 669.095,-102.179 658.556,-101.096 660.181,-107.905"/>
</g>
<!-- types/precategory -->
<g id="node40" class="node"><title>types/precategory</title>
<ellipse fill="none" stroke="black" cx="90.9699" cy="-378" rx="75.2868" ry="18"/>
<text text-anchor="middle" x="90.9699" y="-374.3" font-family="Times New Roman,serif" font-size="14.00">types/precategory</text>
</g>
<!-- HITs/graph&#45;&gt;types/precategory -->
<g id="edge45" class="edge"><title>HITs/graph&#45;&gt;types/precategory</title>
<path fill="none" stroke="black" d="M391.925,-440.063C332.278,-427.961 225.359,-406.267 156.331,-392.262"/>
<polygon fill="black" stroke="black" points="156.928,-388.812 146.432,-390.253 155.536,-395.672 156.928,-388.812"/>
</g>
<!-- theorems/nat&#45;&gt;HITs/circle -->
<g id="edge66" class="edge"><title>theorems/nat&#45;&gt;HITs/circle</title>
<path fill="none" stroke="black" d="M723.813,-147.337C695.54,-136.028 655.251,-119.913 625.002,-107.813"/>
<polygon fill="black" stroke="black" points="626.146,-104.501 615.561,-104.037 623.546,-111 626.146,-104.501"/>
</g>
<!-- types/product&#45;&gt;theorems/ua -->
<g id="edge27" class="edge"><title>types/product&#45;&gt;theorems/ua</title>
<path fill="none" stroke="black" d="M946.438,-289.983C926.757,-279.625 900.405,-265.755 879.091,-254.537"/>
<polygon fill="black" stroke="black" points="880.477,-251.312 869.998,-249.752 877.217,-257.506 880.477,-251.312"/>
</g>
<!-- cubical/cubes -->
<g id="node30" class="node"><title>cubical/cubes</title>
<ellipse fill="none" stroke="black" cx="974.97" cy="-234" rx="60.3893" ry="18"/>
<text text-anchor="middle" x="974.97" y="-230.3" font-family="Times New Roman,serif" font-size="14.00">cubical/cubes</text>
</g>
<!-- types/product&#45;&gt;cubical/cubes -->
<g id="edge28" class="edge"><title>types/product&#45;&gt;cubical/cubes</title>
<path fill="none" stroke="black" d="M974.97,-287.697C974.97,-279.983 974.97,-270.712 974.97,-262.112"/>
<polygon fill="black" stroke="black" points="978.47,-262.104 974.97,-252.104 971.47,-262.104 978.47,-262.104"/>
</g>
<!-- cubical/path -->
<g id="node47" class="node"><title>cubical/path</title>
<ellipse fill="none" stroke="black" cx="1151.97" cy="-162" rx="54.6905" ry="18"/>
<text text-anchor="middle" x="1151.97" y="-158.3" font-family="Times New Roman,serif" font-size="14.00">cubical/path</text>
</g>
<!-- cubical/cubes&#45;&gt;cubical/path -->
<g id="edge58" class="edge"><title>cubical/cubes&#45;&gt;cubical/path</title>
<path fill="none" stroke="black" d="M1009.94,-219.17C1038.3,-207.953 1078.42,-192.088 1108.78,-180.079"/>
<polygon fill="black" stroke="black" points="1110.26,-183.258 1118.27,-176.326 1107.69,-176.749 1110.26,-183.258"/>
</g>
<!-- theorems/fibration&#45;&gt;theorems/hopf -->
<g id="edge64" class="edge"><title>theorems/fibration&#45;&gt;theorems/hopf</title>
<path fill="none" stroke="black" d="M1322.78,-288.156C1355.19,-246.514 1429.35,-137.369 1373.97,-72 1343.25,-35.7327 1213.31,-24.2597 1129.34,-20.6451"/>
<polygon fill="black" stroke="black" points="1129.47,-17.1476 1119.33,-20.2421 1129.19,-24.1419 1129.47,-17.1476"/>
</g>
<!-- types/swale -->
<g id="node33" class="node"><title>types/swale</title>
<ellipse fill="none" stroke="black" cx="1463.97" cy="-378" rx="52.7911" ry="18"/>
<text text-anchor="middle" x="1463.97" y="-374.3" font-family="Times New Roman,serif" font-size="14.00">types/swale</text>
</g>
<!-- types/swale&#45;&gt;algebra/group -->
<g id="edge31" class="edge"><title>types/swale&#45;&gt;algebra/group</title>
<path fill="none" stroke="black" d="M1463.97,-359.697C1463.97,-351.983 1463.97,-342.712 1463.97,-334.112"/>
<polygon fill="black" stroke="black" points="1467.47,-334.104 1463.97,-324.104 1460.47,-334.104 1467.47,-334.104"/>
</g>
<!-- types/swale&#45;&gt;HITs/reals -->
<g id="edge32" class="edge"><title>types/swale&#45;&gt;HITs/reals</title>
<path fill="none" stroke="black" d="M1490.59,-362.326C1509.6,-351.849 1535.36,-337.654 1556.02,-326.265"/>
<polygon fill="black" stroke="black" points="1557.75,-329.308 1564.82,-321.415 1554.37,-323.177 1557.75,-329.308"/>
</g>
<!-- HITs/suspension&#45;&gt;HITs/circle -->
<g id="edge53" class="edge"><title>HITs/suspension&#45;&gt;HITs/circle</title>
<path fill="none" stroke="black" d="M102.607,-287.773C106.801,-254.098 121.154,-179.718 167.97,-144 221.984,-102.79 418.671,-93.5067 520.667,-91.4951"/>
<polygon fill="black" stroke="black" points="520.895,-94.9917 530.83,-91.3126 520.769,-87.9928 520.895,-94.9917"/>
</g>
<!-- HITs/colimit&#45;&gt;HITs/truncation -->
<g id="edge38" class="edge"><title>HITs/colimit&#45;&gt;HITs/truncation</title>
<path fill="none" stroke="black" d="M550.392,-362.496C571.384,-352.148 599.861,-338.11 622.922,-326.742"/>
<polygon fill="black" stroke="black" points="624.69,-329.773 632.112,-322.212 621.595,-323.494 624.69,-329.773"/>
</g>
<!-- HITs/generalized&#45;&gt;HITs/truncation -->
<g id="edge39" class="edge"><title>HITs/generalized&#45;&gt;HITs/truncation</title>
<path fill="none" stroke="black" d="M666.734,-359.697C666.183,-351.983 665.521,-342.712 664.907,-334.112"/>
<polygon fill="black" stroke="black" points="668.395,-333.83 664.192,-324.104 661.413,-334.328 668.395,-333.83"/>
</g>
<!-- HITs/rat -->
<g id="node41" class="node"><title>HITs/rat</title>
<ellipse fill="none" stroke="black" cx="232.97" cy="-306" rx="41.6928" ry="18"/>
<text text-anchor="middle" x="232.97" y="-302.3" font-family="Times New Roman,serif" font-size="14.00">HITs/rat</text>
</g>
<!-- HITs/int&#45;&gt;HITs/rat -->
<g id="edge46" class="edge"><title>HITs/int&#45;&gt;HITs/rat</title>
<path fill="none" stroke="black" d="M226.947,-359.697C227.829,-351.983 228.888,-342.712 229.871,-334.112"/>
<polygon fill="black" stroke="black" points="233.357,-334.437 231.015,-324.104 226.402,-333.642 233.357,-334.437"/>
</g>
<!-- HITs/pushout&#45;&gt;HITs/reals -->
<g id="edge50" class="edge"><title>HITs/pushout&#45;&gt;HITs/reals</title>
<path fill="none" stroke="black" d="M396.826,-367.759C415.099,-364.786 435.902,-361.799 454.97,-360 932.23,-314.981 1059.66,-400.019 1532.97,-324 1537.4,-323.288 1541.97,-322.339 1546.51,-321.253"/>
<polygon fill="black" stroke="black" points="1547.54,-324.602 1556.33,-318.693 1545.77,-317.829 1547.54,-324.602"/>
</g>
<!-- HITs/pushout&#45;&gt;HITs/suspension -->
<g id="edge51" class="edge"><title>HITs/pushout&#45;&gt;HITs/suspension</title>
<path fill="none" stroke="black" d="M303.574,-364.887C262.829,-353.245 201.03,-335.589 156.401,-322.837"/>
<polygon fill="black" stroke="black" points="157.163,-319.415 146.586,-320.033 155.24,-326.146 157.163,-319.415"/>
</g>
<!-- HITs/join -->
<g id="node42" class="node"><title>HITs/join</title>
<ellipse fill="none" stroke="black" cx="345.97" cy="-306" rx="45.4919" ry="18"/>
<text text-anchor="middle" x="345.97" y="-302.3" font-family="Times New Roman,serif" font-size="14.00">HITs/join</text>
</g>
<!-- HITs/pushout&#45;&gt;HITs/join -->
<g id="edge52" class="edge"><title>HITs/pushout&#45;&gt;HITs/join</title>
<path fill="none" stroke="black" d="M345.97,-359.697C345.97,-351.983 345.97,-342.712 345.97,-334.112"/>
<polygon fill="black" stroke="black" points="349.47,-334.104 345.97,-324.104 342.47,-334.104 349.47,-334.104"/>
</g>
<!-- cubical/connection -->
<g id="node46" class="node"><title>cubical/connection</title>
<ellipse fill="none" stroke="black" cx="985.97" cy="-90" rx="79.0865" ry="18"/>
<text text-anchor="middle" x="985.97" y="-86.3" font-family="Times New Roman,serif" font-size="14.00">cubical/connection</text>
</g>
<!-- cubical/path&#45;&gt;cubical/V -->
<g id="edge59" class="edge"><title>cubical/path&#45;&gt;cubical/V</title>
<path fill="none" stroke="black" d="M1110.09,-150.33C1101.16,-148.153 1091.77,-145.938 1082.97,-144 1001.17,-125.975 979.213,-128.398 897.97,-108 894.314,-107.082 890.541,-106.066 886.765,-104.999"/>
<polygon fill="black" stroke="black" points="887.423,-101.545 876.842,-102.095 885.457,-108.263 887.423,-101.545"/>
</g>
<!-- cubical/path&#45;&gt;HITs/moebius -->
<g id="edge60" class="edge"><title>cubical/path&#45;&gt;HITs/moebius</title>
<path fill="none" stroke="black" d="M1110.91,-150.03C1101.76,-147.824 1092.07,-145.672 1082.97,-144 953.494,-120.211 918.595,-130.962 788.97,-108 783.306,-106.997 777.422,-105.833 771.562,-104.594"/>
<polygon fill="black" stroke="black" points="772.283,-101.169 761.766,-102.454 770.789,-108.008 772.283,-101.169"/>
</g>
<!-- cubical/path&#45;&gt;cubical/connection -->
<g id="edge61" class="edge"><title>cubical/path&#45;&gt;cubical/connection</title>
<path fill="none" stroke="black" d="M1119.57,-147.337C1094.42,-136.731 1059.24,-121.897 1031.3,-110.114"/>
<polygon fill="black" stroke="black" points="1032.32,-106.745 1021.74,-106.085 1029.6,-113.195 1032.32,-106.745"/>
</g>
<!-- cubical/example -->
<g id="node48" class="node"><title>cubical/example</title>
<ellipse fill="none" stroke="black" cx="1151.97" cy="-90" rx="68.7879" ry="18"/>
<text text-anchor="middle" x="1151.97" y="-86.3" font-family="Times New Roman,serif" font-size="14.00">cubical/example</text>
</g>
<!-- cubical/path&#45;&gt;cubical/example -->
<g id="edge62" class="edge"><title>cubical/path&#45;&gt;cubical/example</title>
<path fill="none" stroke="black" d="M1151.97,-143.697C1151.97,-135.983 1151.97,-126.712 1151.97,-118.112"/>
<polygon fill="black" stroke="black" points="1155.47,-118.104 1151.97,-108.104 1148.47,-118.104 1155.47,-118.104"/>
</g>
<!-- cubical/square -->
<g id="node49" class="node"><title>cubical/square</title>
<ellipse fill="none" stroke="black" cx="1301.97" cy="-90" rx="63.0888" ry="18"/>
<text text-anchor="middle" x="1301.97" y="-86.3" font-family="Times New Roman,serif" font-size="14.00">cubical/square</text>
</g>
<!-- cubical/path&#45;&gt;cubical/square -->
<g id="edge63" class="edge"><title>cubical/path&#45;&gt;cubical/square</title>
<path fill="none" stroke="black" d="M1182.32,-146.834C1205.1,-136.207 1236.5,-121.551 1261.43,-109.921"/>
<polygon fill="black" stroke="black" points="1263.05,-113.027 1270.63,-105.626 1260.09,-106.684 1263.05,-113.027"/>
</g>
<!-- theorems/functions -->
<g id="node50" class="node"><title>theorems/functions</title>
<ellipse fill="none" stroke="black" cx="1132.97" cy="-666" rx="79.8859" ry="18"/>
<text text-anchor="middle" x="1132.97" y="-662.3" font-family="Times New Roman,serif" font-size="14.00">theorems/functions</text>
</g>
<!-- theorems/functions&#45;&gt;types/equiv -->
<g id="edge65" class="edge"><title>theorems/functions&#45;&gt;types/equiv</title>
<path fill="none" stroke="black" d="M1102.22,-649.291C1081.65,-638.78 1054.48,-624.894 1032.76,-613.797"/>
<polygon fill="black" stroke="black" points="1034.32,-610.663 1023.82,-609.229 1031.13,-616.896 1034.32,-610.663"/>
</g>
<!-- theorems/topology -->
<g id="node51" class="node"><title>theorems/topology</title>
<ellipse fill="none" stroke="black" cx="1163.97" cy="-810" rx="79.0865" ry="18"/>
<text text-anchor="middle" x="1163.97" y="-806.3" font-family="Times New Roman,serif" font-size="14.00">theorems/topology</text>
</g>
</g>
</svg>
