<?xml version="1.0" encoding="UTF-8" standalone="no"?>
<!DOCTYPE svg PUBLIC "-//W3C//DTD SVG 1.1//EN"
 "http://www.w3.org/Graphics/SVG/1.1/DTD/svg11.dtd">
<!-- Generated by graphviz version 2.38.0 (20140413.2041)
 -->
<!-- Title: dependency_map Pages: 1 -->
<svg width="1520pt" height="764pt"
 viewBox="0.00 0.00 1520.49 764.00" xmlns="http://www.w3.org/2000/svg" xmlns:xlink="http://www.w3.org/1999/xlink">
<g id="graph0" class="graph" transform="scale(1 1) rotate(0) translate(4 760)">
<title>dependency_map</title>
<polygon fill="white" stroke="none" points="-4,4 -4,-760 1516.49,-760 1516.49,4 -4,4"/>
<!-- proto -->
<g id="node1" class="node"><title>proto</title>
<ellipse fill="none" stroke="black" cx="733.746" cy="-738" rx="30.5947" ry="18"/>
<text text-anchor="middle" x="733.746" y="-734.3" font-family="Times New Roman,serif" font-size="14.00">proto</text>
</g>
<!-- types/eq -->
<g id="node2" class="node"><title>types/eq</title>
<ellipse fill="none" stroke="black" cx="793.746" cy="-666" rx="41.6928" ry="18"/>
<text text-anchor="middle" x="793.746" y="-662.3" font-family="Times New Roman,serif" font-size="14.00">types/eq</text>
</g>
<!-- proto&#45;&gt;types/eq -->
<g id="edge1" class="edge"><title>proto&#45;&gt;types/eq</title>
<path fill="none" stroke="black" d="M747.062,-721.465C754.689,-712.566 764.427,-701.205 773.033,-691.164"/>
<polygon fill="black" stroke="black" points="775.78,-693.338 779.631,-683.467 770.466,-688.782 775.78,-693.338"/>
</g>
<!-- support -->
<g id="node4" class="node"><title>support</title>
<ellipse fill="none" stroke="black" cx="793.746" cy="-594" rx="38.9931" ry="18"/>
<text text-anchor="middle" x="793.746" y="-590.3" font-family="Times New Roman,serif" font-size="14.00">support</text>
</g>
<!-- types/eq&#45;&gt;support -->
<g id="edge11" class="edge"><title>types/eq&#45;&gt;support</title>
<path fill="none" stroke="black" d="M793.746,-647.697C793.746,-639.983 793.746,-630.712 793.746,-622.112"/>
<polygon fill="black" stroke="black" points="797.246,-622.104 793.746,-612.104 790.246,-622.104 797.246,-622.104"/>
</g>
<!-- meta/hott_theory -->
<g id="node3" class="node"><title>meta/hott_theory</title>
<ellipse fill="none" stroke="black" cx="854.746" cy="-738" rx="72.2875" ry="18"/>
<text text-anchor="middle" x="854.746" y="-734.3" font-family="Times New Roman,serif" font-size="14.00">meta/hott_theory</text>
</g>
<!-- meta/hott_theory&#45;&gt;types/eq -->
<g id="edge2" class="edge"><title>meta/hott_theory&#45;&gt;types/eq</title>
<path fill="none" stroke="black" d="M839.979,-720.055C832.376,-711.33 822.977,-700.544 814.643,-690.981"/>
<polygon fill="black" stroke="black" points="817.165,-688.547 807.956,-683.307 811.887,-693.146 817.165,-688.547"/>
</g>
<!-- types/equiv -->
<g id="node5" class="node"><title>types/equiv</title>
<ellipse fill="none" stroke="black" cx="793.746" cy="-522" rx="51.9908" ry="18"/>
<text text-anchor="middle" x="793.746" y="-518.3" font-family="Times New Roman,serif" font-size="14.00">types/equiv</text>
</g>
<!-- support&#45;&gt;types/equiv -->
<g id="edge3" class="edge"><title>support&#45;&gt;types/equiv</title>
<path fill="none" stroke="black" d="M793.746,-575.697C793.746,-567.983 793.746,-558.712 793.746,-550.112"/>
<polygon fill="black" stroke="black" points="797.246,-550.104 793.746,-540.104 790.246,-550.104 797.246,-550.104"/>
</g>
<!-- types/coproduct -->
<g id="node14" class="node"><title>types/coproduct</title>
<ellipse fill="none" stroke="black" cx="519.746" cy="-378" rx="70.6878" ry="18"/>
<text text-anchor="middle" x="519.746" y="-374.3" font-family="Times New Roman,serif" font-size="14.00">types/coproduct</text>
</g>
<!-- types/equiv&#45;&gt;types/coproduct -->
<g id="edge12" class="edge"><title>types/equiv&#45;&gt;types/coproduct</title>
<path fill="none" stroke="black" d="M756.231,-509.523C727.229,-500.032 686.473,-485.33 652.746,-468 615.224,-448.721 575.425,-421.003 549.249,-401.638"/>
<polygon fill="black" stroke="black" points="551.024,-398.595 540.917,-395.415 546.835,-404.203 551.024,-398.595"/>
</g>
<!-- types/heq -->
<g id="node17" class="node"><title>types/heq</title>
<ellipse fill="none" stroke="black" cx="852.746" cy="-450" rx="46.2923" ry="18"/>
<text text-anchor="middle" x="852.746" y="-446.3" font-family="Times New Roman,serif" font-size="14.00">types/heq</text>
</g>
<!-- types/equiv&#45;&gt;types/heq -->
<g id="edge13" class="edge"><title>types/equiv&#45;&gt;types/heq</title>
<path fill="none" stroke="black" d="M807.728,-504.411C815.076,-495.693 824.219,-484.845 832.342,-475.208"/>
<polygon fill="black" stroke="black" points="835.095,-477.372 838.864,-467.47 829.743,-472.861 835.095,-477.372"/>
</g>
<!-- HITs/infinitesimal -->
<g id="node18" class="node"><title>HITs/infinitesimal</title>
<ellipse fill="none" stroke="black" cx="991.746" cy="-450" rx="74.9875" ry="18"/>
<text text-anchor="middle" x="991.746" y="-446.3" font-family="Times New Roman,serif" font-size="14.00">HITs/infinitesimal</text>
</g>
<!-- types/equiv&#45;&gt;HITs/infinitesimal -->
<g id="edge14" class="edge"><title>types/equiv&#45;&gt;HITs/infinitesimal</title>
<path fill="none" stroke="black" d="M828.688,-508.647C860.045,-497.561 906.427,-481.163 941.715,-468.688"/>
<polygon fill="black" stroke="black" points="943.09,-471.914 951.352,-465.281 940.757,-465.314 943.09,-471.914"/>
</g>
<!-- types/lost -->
<g id="node19" class="node"><title>types/lost</title>
<ellipse fill="none" stroke="black" cx="1130.75" cy="-450" rx="46.2923" ry="18"/>
<text text-anchor="middle" x="1130.75" y="-446.3" font-family="Times New Roman,serif" font-size="14.00">types/lost</text>
</g>
<!-- types/equiv&#45;&gt;types/lost -->
<g id="edge15" class="edge"><title>types/equiv&#45;&gt;types/lost</title>
<path fill="none" stroke="black" d="M840.504,-513.889C896.732,-504.952 993.785,-488.299 1075.75,-468 1079.35,-467.107 1083.07,-466.114 1086.8,-465.07"/>
<polygon fill="black" stroke="black" points="1087.97,-468.375 1096.59,-462.218 1086.01,-461.654 1087.97,-468.375"/>
</g>
<!-- types/unit -->
<g id="node20" class="node"><title>types/unit</title>
<ellipse fill="none" stroke="black" cx="654.746" cy="-378" rx="46.2923" ry="18"/>
<text text-anchor="middle" x="654.746" y="-374.3" font-family="Times New Roman,serif" font-size="14.00">types/unit</text>
</g>
<!-- types/equiv&#45;&gt;types/unit -->
<g id="edge16" class="edge"><title>types/equiv&#45;&gt;types/unit</title>
<path fill="none" stroke="black" d="M749.309,-512.577C722.873,-505.249 690.863,-491.891 671.746,-468 657.879,-450.67 654.133,-425.408 653.565,-406.221"/>
<polygon fill="black" stroke="black" points="657.064,-405.996 653.538,-396.005 650.064,-406.014 657.064,-405.996"/>
</g>
<!-- types/sigma -->
<g id="node21" class="node"><title>types/sigma</title>
<ellipse fill="none" stroke="black" cx="734.746" cy="-450" rx="53.8905" ry="18"/>
<text text-anchor="middle" x="734.746" y="-446.3" font-family="Times New Roman,serif" font-size="14.00">types/sigma</text>
</g>
<!-- types/equiv&#45;&gt;types/sigma -->
<g id="edge17" class="edge"><title>types/equiv&#45;&gt;types/sigma</title>
<path fill="none" stroke="black" d="M779.763,-504.411C772.416,-495.693 763.273,-484.845 755.149,-475.208"/>
<polygon fill="black" stroke="black" points="757.748,-472.861 748.627,-467.47 752.396,-477.372 757.748,-472.861"/>
</g>
<!-- structures -->
<g id="node6" class="node"><title>structures</title>
<ellipse fill="none" stroke="black" cx="732.746" cy="-306" rx="46.2923" ry="18"/>
<text text-anchor="middle" x="732.746" y="-302.3" font-family="Times New Roman,serif" font-size="14.00">structures</text>
</g>
<!-- HITs/interval -->
<g id="node7" class="node"><title>HITs/interval</title>
<ellipse fill="none" stroke="black" cx="623.746" cy="-234" rx="57.6901" ry="18"/>
<text text-anchor="middle" x="623.746" y="-230.3" font-family="Times New Roman,serif" font-size="14.00">HITs/interval</text>
</g>
<!-- structures&#45;&gt;HITs/interval -->
<g id="edge4" class="edge"><title>structures&#45;&gt;HITs/interval</title>
<path fill="none" stroke="black" d="M709.896,-290.326C694.479,-280.425 673.892,-267.204 656.709,-256.169"/>
<polygon fill="black" stroke="black" points="658.385,-253.086 648.079,-250.627 654.602,-258.976 658.385,-253.086"/>
</g>
<!-- HITs/merely -->
<g id="node8" class="node"><title>HITs/merely</title>
<ellipse fill="none" stroke="black" cx="1041.75" cy="-234" rx="55.7903" ry="18"/>
<text text-anchor="middle" x="1041.75" y="-230.3" font-family="Times New Roman,serif" font-size="14.00">HITs/merely</text>
</g>
<!-- structures&#45;&gt;HITs/merely -->
<g id="edge5" class="edge"><title>structures&#45;&gt;HITs/merely</title>
<path fill="none" stroke="black" d="M766.93,-293.889C773.79,-291.813 780.972,-289.749 787.746,-288 854.601,-270.734 932.457,-255.143 984.172,-245.412"/>
<polygon fill="black" stroke="black" points="984.97,-248.823 994.156,-243.545 983.683,-241.942 984.97,-248.823"/>
</g>
<!-- HITs/trunc -->
<g id="node9" class="node"><title>HITs/trunc</title>
<ellipse fill="none" stroke="black" cx="1198.75" cy="-234" rx="50.8918" ry="18"/>
<text text-anchor="middle" x="1198.75" y="-230.3" font-family="Times New Roman,serif" font-size="14.00">HITs/trunc</text>
</g>
<!-- structures&#45;&gt;HITs/trunc -->
<g id="edge6" class="edge"><title>structures&#45;&gt;HITs/trunc</title>
<path fill="none" stroke="black" d="M766.225,-293.56C773.27,-291.461 780.702,-289.472 787.746,-288 927.405,-258.805 965.618,-272.976 1106.75,-252 1119.42,-250.116 1133.03,-247.778 1145.78,-245.445"/>
<polygon fill="black" stroke="black" points="1146.6,-248.853 1155.79,-243.584 1145.32,-241.971 1146.6,-248.853"/>
</g>
<!-- types/nat -->
<g id="node10" class="node"><title>types/nat</title>
<ellipse fill="none" stroke="black" cx="742.746" cy="-234" rx="43.5923" ry="18"/>
<text text-anchor="middle" x="742.746" y="-230.3" font-family="Times New Roman,serif" font-size="14.00">types/nat</text>
</g>
<!-- structures&#45;&gt;types/nat -->
<g id="edge7" class="edge"><title>structures&#45;&gt;types/nat</title>
<path fill="none" stroke="black" d="M735.218,-287.697C736.32,-279.983 737.644,-270.712 738.872,-262.112"/>
<polygon fill="black" stroke="black" points="742.353,-262.499 740.302,-252.104 735.423,-261.509 742.353,-262.499"/>
</g>
<!-- HITs/circle -->
<g id="node24" class="node"><title>HITs/circle</title>
<ellipse fill="none" stroke="black" cx="323.746" cy="-90" rx="51.9908" ry="18"/>
<text text-anchor="middle" x="323.746" y="-86.3" font-family="Times New Roman,serif" font-size="14.00">HITs/circle</text>
</g>
<!-- HITs/interval&#45;&gt;HITs/circle -->
<g id="edge40" class="edge"><title>HITs/interval&#45;&gt;HITs/circle</title>
<path fill="none" stroke="black" d="M590.367,-219.237C569.179,-209.735 541.714,-195.962 519.746,-180 501.44,-166.699 503.005,-155.878 483.746,-144 464.976,-132.424 412.843,-116.106 373.141,-104.644"/>
<polygon fill="black" stroke="black" points="373.92,-101.226 363.343,-101.84 371.994,-107.956 373.92,-101.226"/>
</g>
<!-- theorems/prop -->
<g id="node29" class="node"><title>theorems/prop</title>
<ellipse fill="none" stroke="black" cx="941.746" cy="-162" rx="63.8893" ry="18"/>
<text text-anchor="middle" x="941.746" y="-158.3" font-family="Times New Roman,serif" font-size="14.00">theorems/prop</text>
</g>
<!-- HITs/interval&#45;&gt;theorems/prop -->
<g id="edge41" class="edge"><title>HITs/interval&#45;&gt;theorems/prop</title>
<path fill="none" stroke="black" d="M666.281,-221.745C674.071,-219.769 682.141,-217.778 689.746,-216 754.841,-200.779 829.869,-185.257 881.016,-174.979"/>
<polygon fill="black" stroke="black" points="881.8,-178.391 890.917,-172.994 880.424,-171.528 881.8,-178.391"/>
</g>
<!-- cubical/cubes -->
<g id="node39" class="node"><title>cubical/cubes</title>
<ellipse fill="none" stroke="black" cx="628.746" cy="-162" rx="60.3893" ry="18"/>
<text text-anchor="middle" x="628.746" y="-158.3" font-family="Times New Roman,serif" font-size="14.00">cubical/cubes</text>
</g>
<!-- HITs/interval&#45;&gt;cubical/cubes -->
<g id="edge42" class="edge"><title>HITs/interval&#45;&gt;cubical/cubes</title>
<path fill="none" stroke="black" d="M624.982,-215.697C625.533,-207.983 626.195,-198.712 626.809,-190.112"/>
<polygon fill="black" stroke="black" points="630.302,-190.328 627.524,-180.104 623.32,-189.83 630.302,-190.328"/>
</g>
<!-- theorems/fibration -->
<g id="node40" class="node"><title>theorems/fibration</title>
<ellipse fill="none" stroke="black" cx="472.746" cy="-90" rx="76.8869" ry="18"/>
<text text-anchor="middle" x="472.746" y="-86.3" font-family="Times New Roman,serif" font-size="14.00">theorems/fibration</text>
</g>
<!-- HITs/interval&#45;&gt;theorems/fibration -->
<g id="edge43" class="edge"><title>HITs/interval&#45;&gt;theorems/fibration</title>
<path fill="none" stroke="black" d="M603.395,-217.053C590.583,-206.795 573.86,-192.997 559.746,-180 536.936,-158.996 512.362,-133.575 495.168,-115.288"/>
<polygon fill="black" stroke="black" points="497.665,-112.834 488.278,-107.921 492.553,-117.615 497.665,-112.834"/>
</g>
<!-- HITs/merely&#45;&gt;theorems/prop -->
<g id="edge44" class="edge"><title>HITs/merely&#45;&gt;theorems/prop</title>
<path fill="none" stroke="black" d="M1019.55,-217.465C1005.89,-207.902 988.171,-195.498 973.092,-184.943"/>
<polygon fill="black" stroke="black" points="974.77,-181.844 964.57,-178.977 970.755,-187.579 974.77,-181.844"/>
</g>
<!-- HITs/simplicial -->
<g id="node42" class="node"><title>HITs/simplicial</title>
<ellipse fill="none" stroke="black" cx="1305.75" cy="-162" rx="65.7887" ry="18"/>
<text text-anchor="middle" x="1305.75" y="-158.3" font-family="Times New Roman,serif" font-size="14.00">HITs/simplicial</text>
</g>
<!-- HITs/merely&#45;&gt;HITs/simplicial -->
<g id="edge45" class="edge"><title>HITs/merely&#45;&gt;HITs/simplicial</title>
<path fill="none" stroke="black" d="M1083.58,-221.908C1128.6,-209.97 1200.43,-190.924 1250.17,-177.735"/>
<polygon fill="black" stroke="black" points="1251.36,-181.043 1260.12,-175.097 1249.56,-174.277 1251.36,-181.043"/>
</g>
<!-- theorems/functions -->
<g id="node43" class="node"><title>theorems/functions</title>
<ellipse fill="none" stroke="black" cx="1141.75" cy="-162" rx="79.8859" ry="18"/>
<text text-anchor="middle" x="1141.75" y="-158.3" font-family="Times New Roman,serif" font-size="14.00">theorems/functions</text>
</g>
<!-- HITs/merely&#45;&gt;theorems/functions -->
<g id="edge46" class="edge"><title>HITs/merely&#45;&gt;theorems/functions</title>
<path fill="none" stroke="black" d="M1063.94,-217.465C1077.41,-208.037 1094.82,-195.847 1109.76,-185.39"/>
<polygon fill="black" stroke="black" points="1112.04,-188.069 1118.22,-179.467 1108.02,-182.335 1112.04,-188.069"/>
</g>
<!-- HITs/quotient -->
<g id="node38" class="node"><title>HITs/quotient</title>
<ellipse fill="none" stroke="black" cx="1450.75" cy="-162" rx="61.99" ry="18"/>
<text text-anchor="middle" x="1450.75" y="-158.3" font-family="Times New Roman,serif" font-size="14.00">HITs/quotient</text>
</g>
<!-- HITs/trunc&#45;&gt;HITs/quotient -->
<g id="edge51" class="edge"><title>HITs/trunc&#45;&gt;HITs/quotient</title>
<path fill="none" stroke="black" d="M1237.29,-222.292C1280.16,-210.386 1349.67,-191.078 1397.66,-177.747"/>
<polygon fill="black" stroke="black" points="1398.86,-181.046 1407.55,-174.998 1396.98,-174.302 1398.86,-181.046"/>
</g>
<!-- theorems/nat -->
<g id="node26" class="node"><title>theorems/nat</title>
<ellipse fill="none" stroke="black" cx="764.746" cy="-162" rx="57.3905" ry="18"/>
<text text-anchor="middle" x="764.746" y="-158.3" font-family="Times New Roman,serif" font-size="14.00">theorems/nat</text>
</g>
<!-- types/nat&#45;&gt;theorems/nat -->
<g id="edge22" class="edge"><title>types/nat&#45;&gt;theorems/nat</title>
<path fill="none" stroke="black" d="M748.071,-216.055C750.521,-208.261 753.487,-198.822 756.235,-190.079"/>
<polygon fill="black" stroke="black" points="759.657,-190.865 759.316,-180.275 752.979,-188.766 759.657,-190.865"/>
</g>
<!-- algebra/group -->
<g id="node11" class="node"><title>algebra/group</title>
<ellipse fill="none" stroke="black" cx="1178.75" cy="-90" rx="60.3893" ry="18"/>
<text text-anchor="middle" x="1178.75" y="-86.3" font-family="Times New Roman,serif" font-size="14.00">algebra/group</text>
</g>
<!-- algebra/homology -->
<g id="node12" class="node"><title>algebra/homology</title>
<ellipse fill="none" stroke="black" cx="1211.75" cy="-18" rx="75.2868" ry="18"/>
<text text-anchor="middle" x="1211.75" y="-14.3" font-family="Times New Roman,serif" font-size="14.00">algebra/homology</text>
</g>
<!-- algebra/group&#45;&gt;algebra/homology -->
<g id="edge8" class="edge"><title>algebra/group&#45;&gt;algebra/homology</title>
<path fill="none" stroke="black" d="M1186.73,-72.055C1190.49,-64.0915 1195.05,-54.4107 1199.25,-45.5097"/>
<polygon fill="black" stroke="black" points="1202.5,-46.8131 1203.6,-36.2753 1196.17,-43.8281 1202.5,-46.8131"/>
</g>
<!-- types/category -->
<g id="node13" class="node"><title>types/category</title>
<ellipse fill="none" stroke="black" cx="1054.75" cy="-18" rx="63.8893" ry="18"/>
<text text-anchor="middle" x="1054.75" y="-14.3" font-family="Times New Roman,serif" font-size="14.00">types/category</text>
</g>
<!-- types/coproduct&#45;&gt;structures -->
<g id="edge9" class="edge"><title>types/coproduct&#45;&gt;structures</title>
<path fill="none" stroke="black" d="M561.32,-363.337C598.106,-351.248 651.604,-333.666 689.023,-321.369"/>
<polygon fill="black" stroke="black" points="690.239,-324.654 698.646,-318.206 688.053,-318.003 690.239,-324.654"/>
</g>
<!-- types/integer -->
<g id="node15" class="node"><title>types/integer</title>
<ellipse fill="none" stroke="black" cx="318.746" cy="-306" rx="56.59" ry="18"/>
<text text-anchor="middle" x="318.746" y="-302.3" font-family="Times New Roman,serif" font-size="14.00">types/integer</text>
</g>
<!-- types/coproduct&#45;&gt;types/integer -->
<g id="edge10" class="edge"><title>types/coproduct&#45;&gt;types/integer</title>
<path fill="none" stroke="black" d="M479.553,-363.003C446.604,-351.528 399.929,-335.273 365.347,-323.229"/>
<polygon fill="black" stroke="black" points="366.079,-319.778 355.484,-319.795 363.777,-326.389 366.079,-319.778"/>
</g>
<!-- types/integer&#45;&gt;HITs/circle -->
<g id="edge20" class="edge"><title>types/integer&#45;&gt;HITs/circle</title>
<path fill="none" stroke="black" d="M319.146,-287.849C320.011,-250.832 322.059,-163.181 323.106,-118.386"/>
<polygon fill="black" stroke="black" points="326.608,-118.312 323.343,-108.232 319.61,-118.148 326.608,-118.312"/>
</g>
<!-- types/rational -->
<g id="node25" class="node"><title>types/rational</title>
<ellipse fill="none" stroke="black" cx="227.746" cy="-234" rx="59.2899" ry="18"/>
<text text-anchor="middle" x="227.746" y="-230.3" font-family="Times New Roman,serif" font-size="14.00">types/rational</text>
</g>
<!-- types/integer&#45;&gt;types/rational -->
<g id="edge21" class="edge"><title>types/integer&#45;&gt;types/rational</title>
<path fill="none" stroke="black" d="M298.096,-289.116C285.85,-279.696 270.14,-267.611 256.672,-257.251"/>
<polygon fill="black" stroke="black" points="258.689,-254.386 248.628,-251.064 254.421,-259.935 258.689,-254.386"/>
</g>
<!-- types/dedekind -->
<g id="node16" class="node"><title>types/dedekind</title>
<ellipse fill="none" stroke="black" cx="224.746" cy="-162" rx="65.7887" ry="18"/>
<text text-anchor="middle" x="224.746" y="-158.3" font-family="Times New Roman,serif" font-size="14.00">types/dedekind</text>
</g>
<!-- HITs/graph -->
<g id="node22" class="node"><title>HITs/graph</title>
<ellipse fill="none" stroke="black" cx="994.746" cy="-378" rx="52.7911" ry="18"/>
<text text-anchor="middle" x="994.746" y="-374.3" font-family="Times New Roman,serif" font-size="14.00">HITs/graph</text>
</g>
<!-- types/heq&#45;&gt;HITs/graph -->
<g id="edge18" class="edge"><title>types/heq&#45;&gt;HITs/graph</title>
<path fill="none" stroke="black" d="M880.125,-435.503C901.896,-424.771 932.602,-409.634 956.753,-397.729"/>
<polygon fill="black" stroke="black" points="958.567,-400.737 965.988,-393.176 955.472,-394.458 958.567,-400.737"/>
</g>
<!-- theorems/funext -->
<g id="node23" class="node"><title>theorems/funext</title>
<ellipse fill="none" stroke="black" cx="852.746" cy="-378" rx="68.7879" ry="18"/>
<text text-anchor="middle" x="852.746" y="-374.3" font-family="Times New Roman,serif" font-size="14.00">theorems/funext</text>
</g>
<!-- types/heq&#45;&gt;theorems/funext -->
<g id="edge19" class="edge"><title>types/heq&#45;&gt;theorems/funext</title>
<path fill="none" stroke="black" d="M852.746,-431.697C852.746,-423.983 852.746,-414.712 852.746,-406.112"/>
<polygon fill="black" stroke="black" points="856.246,-406.104 852.746,-396.104 849.246,-406.104 856.246,-406.104"/>
</g>
<!-- types/unit&#45;&gt;structures -->
<g id="edge28" class="edge"><title>types/unit&#45;&gt;structures</title>
<path fill="none" stroke="black" d="M672.445,-361.116C682.817,-351.808 696.088,-339.898 707.538,-329.622"/>
<polygon fill="black" stroke="black" points="710.012,-332.105 715.116,-322.821 705.336,-326.895 710.012,-332.105"/>
</g>
<!-- HITs/suspension -->
<g id="node31" class="node"><title>HITs/suspension</title>
<ellipse fill="none" stroke="black" cx="440.746" cy="-234" rx="72.5877" ry="18"/>
<text text-anchor="middle" x="440.746" y="-230.3" font-family="Times New Roman,serif" font-size="14.00">HITs/suspension</text>
</g>
<!-- types/unit&#45;&gt;HITs/suspension -->
<g id="edge29" class="edge"><title>types/unit&#45;&gt;HITs/suspension</title>
<path fill="none" stroke="black" d="M619.9,-365.939C573.062,-351.023 495.315,-326.074 492.746,-324 472.614,-307.75 458.636,-281.469 450.282,-261.669"/>
<polygon fill="black" stroke="black" points="453.487,-260.257 446.527,-252.269 446.986,-262.854 453.487,-260.257"/>
</g>
<!-- types/sigma&#45;&gt;structures -->
<g id="edge27" class="edge"><title>types/sigma&#45;&gt;structures</title>
<path fill="none" stroke="black" d="M734.504,-431.871C734.164,-407.67 733.537,-363.211 733.131,-334.393"/>
<polygon fill="black" stroke="black" points="736.628,-334.139 732.988,-324.189 729.629,-334.238 736.628,-334.139"/>
</g>
<!-- HITs/colimit -->
<g id="node35" class="node"><title>HITs/colimit</title>
<ellipse fill="none" stroke="black" cx="994.746" cy="-306" rx="56.59" ry="18"/>
<text text-anchor="middle" x="994.746" y="-302.3" font-family="Times New Roman,serif" font-size="14.00">HITs/colimit</text>
</g>
<!-- HITs/graph&#45;&gt;HITs/colimit -->
<g id="edge36" class="edge"><title>HITs/graph&#45;&gt;HITs/colimit</title>
<path fill="none" stroke="black" d="M994.746,-359.697C994.746,-351.983 994.746,-342.712 994.746,-334.112"/>
<polygon fill="black" stroke="black" points="998.246,-334.104 994.746,-324.104 991.246,-334.104 998.246,-334.104"/>
</g>
<!-- HITs/generalized -->
<g id="node36" class="node"><title>HITs/generalized</title>
<ellipse fill="none" stroke="black" cx="1141.75" cy="-306" rx="72.2875" ry="18"/>
<text text-anchor="middle" x="1141.75" y="-302.3" font-family="Times New Roman,serif" font-size="14.00">HITs/generalized</text>
</g>
<!-- HITs/graph&#45;&gt;HITs/generalized -->
<g id="edge37" class="edge"><title>HITs/graph&#45;&gt;HITs/generalized</title>
<path fill="none" stroke="black" d="M1024.14,-363.003C1046.03,-352.577 1076.21,-338.205 1100.52,-326.632"/>
<polygon fill="black" stroke="black" points="1102.33,-329.646 1109.85,-322.186 1099.32,-323.326 1102.33,-329.646"/>
</g>
<!-- HITs/pushout -->
<g id="node37" class="node"><title>HITs/pushout</title>
<ellipse fill="none" stroke="black" cx="563.746" cy="-306" rx="61.99" ry="18"/>
<text text-anchor="middle" x="563.746" y="-302.3" font-family="Times New Roman,serif" font-size="14.00">HITs/pushout</text>
</g>
<!-- HITs/graph&#45;&gt;HITs/pushout -->
<g id="edge38" class="edge"><title>HITs/graph&#45;&gt;HITs/pushout</title>
<path fill="none" stroke="black" d="M955.657,-365.832C947.469,-363.714 938.857,-361.648 930.746,-360 819.444,-337.382 790.136,-340.376 677.746,-324 661.43,-321.623 643.806,-319.014 627.408,-316.57"/>
<polygon fill="black" stroke="black" points="627.786,-313.088 617.379,-315.073 626.752,-320.011 627.786,-313.088"/>
</g>
<!-- HITs/graph&#45;&gt;HITs/quotient -->
<g id="edge39" class="edge"><title>HITs/graph&#45;&gt;HITs/quotient</title>
<path fill="none" stroke="black" d="M1043.64,-371.198C1091.04,-364.307 1164.16,-350.277 1222.75,-324 1303.41,-287.823 1384.89,-221.446 1425.06,-186.284"/>
<polygon fill="black" stroke="black" points="1427.59,-188.724 1432.76,-179.481 1422.95,-183.478 1427.59,-188.724"/>
</g>
<!-- theorems/funext&#45;&gt;structures -->
<g id="edge59" class="edge"><title>theorems/funext&#45;&gt;structures</title>
<path fill="none" stroke="black" d="M825.815,-361.291C808.238,-351.037 785.153,-337.571 766.372,-326.616"/>
<polygon fill="black" stroke="black" points="767.943,-323.48 757.542,-321.464 764.416,-329.526 767.943,-323.48"/>
</g>
<!-- types/product -->
<g id="node28" class="node"><title>types/product</title>
<ellipse fill="none" stroke="black" cx="858.746" cy="-306" rx="61.99" ry="18"/>
<text text-anchor="middle" x="858.746" y="-302.3" font-family="Times New Roman,serif" font-size="14.00">types/product</text>
</g>
<!-- theorems/funext&#45;&gt;types/product -->
<g id="edge60" class="edge"><title>theorems/funext&#45;&gt;types/product</title>
<path fill="none" stroke="black" d="M854.229,-359.697C854.89,-351.983 855.685,-342.712 856.422,-334.112"/>
<polygon fill="black" stroke="black" points="859.913,-334.367 857.28,-324.104 852.938,-333.769 859.913,-334.367"/>
</g>
<!-- theorems/hopf -->
<g id="node32" class="node"><title>theorems/hopf</title>
<ellipse fill="none" stroke="black" cx="323.746" cy="-18" rx="63.8893" ry="18"/>
<text text-anchor="middle" x="323.746" y="-14.3" font-family="Times New Roman,serif" font-size="14.00">theorems/hopf</text>
</g>
<!-- HITs/circle&#45;&gt;theorems/hopf -->
<g id="edge30" class="edge"><title>HITs/circle&#45;&gt;theorems/hopf</title>
<path fill="none" stroke="black" d="M323.746,-71.6966C323.746,-63.9827 323.746,-54.7125 323.746,-46.1124"/>
<polygon fill="black" stroke="black" points="327.246,-46.1043 323.746,-36.1043 320.246,-46.1044 327.246,-46.1043"/>
</g>
<!-- HITs/moebius -->
<g id="node33" class="node"><title>HITs/moebius</title>
<ellipse fill="none" stroke="black" cx="178.746" cy="-18" rx="63.0888" ry="18"/>
<text text-anchor="middle" x="178.746" y="-14.3" font-family="Times New Roman,serif" font-size="14.00">HITs/moebius</text>
</g>
<!-- HITs/circle&#45;&gt;HITs/moebius -->
<g id="edge31" class="edge"><title>HITs/circle&#45;&gt;HITs/moebius</title>
<path fill="none" stroke="black" d="M294.751,-75.0027C272.936,-64.4712 242.781,-49.9137 218.684,-38.2806"/>
<polygon fill="black" stroke="black" points="219.969,-35.0144 209.442,-33.8188 216.926,-41.3183 219.969,-35.0144"/>
</g>
<!-- HITs/reals -->
<g id="node34" class="node"><title>HITs/reals</title>
<ellipse fill="none" stroke="black" cx="48.7457" cy="-18" rx="48.9926" ry="18"/>
<text text-anchor="middle" x="48.7457" y="-14.3" font-family="Times New Roman,serif" font-size="14.00">HITs/reals</text>
</g>
<!-- HITs/circle&#45;&gt;HITs/reals -->
<g id="edge32" class="edge"><title>HITs/circle&#45;&gt;HITs/reals</title>
<path fill="none" stroke="black" d="M281.595,-79.3056C237.766,-69.0847 167.234,-52.2425 106.746,-36 102.977,-34.988 99.0795,-33.9114 95.1698,-32.8101"/>
<polygon fill="black" stroke="black" points="96.0703,-29.4274 85.4935,-30.045 94.1469,-36.158 96.0703,-29.4274"/>
</g>
<!-- types/rational&#45;&gt;types/dedekind -->
<g id="edge26" class="edge"><title>types/rational&#45;&gt;types/dedekind</title>
<path fill="none" stroke="black" d="M227.004,-215.697C226.674,-207.983 226.276,-198.712 225.908,-190.112"/>
<polygon fill="black" stroke="black" points="229.404,-189.945 225.479,-180.104 222.41,-190.245 229.404,-189.945"/>
</g>
<!-- theorems/nat&#45;&gt;HITs/circle -->
<g id="edge61" class="edge"><title>theorems/nat&#45;&gt;HITs/circle</title>
<path fill="none" stroke="black" d="M723.119,-149.524C714.761,-147.479 706.008,-145.519 697.746,-144 560.895,-118.834 523.402,-134.197 386.746,-108 381.796,-107.051 376.665,-105.919 371.564,-104.695"/>
<polygon fill="black" stroke="black" points="372.399,-101.297 361.848,-102.254 370.694,-108.086 372.399,-101.297"/>
</g>
<!-- HITs/int -->
<g id="node49" class="node"><title>HITs/int</title>
<ellipse fill="none" stroke="black" cx="764.746" cy="-90" rx="40.8928" ry="18"/>
<text text-anchor="middle" x="764.746" y="-86.3" font-family="Times New Roman,serif" font-size="14.00">HITs/int</text>
</g>
<!-- theorems/nat&#45;&gt;HITs/int -->
<g id="edge62" class="edge"><title>theorems/nat&#45;&gt;HITs/int</title>
<path fill="none" stroke="black" d="M764.746,-143.697C764.746,-135.983 764.746,-126.712 764.746,-118.112"/>
<polygon fill="black" stroke="black" points="768.246,-118.104 764.746,-108.104 761.246,-118.104 768.246,-118.104"/>
</g>
<!-- types/precategory -->
<g id="node27" class="node"><title>types/precategory</title>
<ellipse fill="none" stroke="black" cx="1007.75" cy="-90" rx="75.2868" ry="18"/>
<text text-anchor="middle" x="1007.75" y="-86.3" font-family="Times New Roman,serif" font-size="14.00">types/precategory</text>
</g>
<!-- types/precategory&#45;&gt;types/category -->
<g id="edge23" class="edge"><title>types/precategory&#45;&gt;types/category</title>
<path fill="none" stroke="black" d="M1019.12,-72.055C1024.72,-63.7147 1031.59,-53.4908 1037.79,-44.2517"/>
<polygon fill="black" stroke="black" points="1040.8,-46.0423 1043.47,-35.789 1034.99,-42.1402 1040.8,-46.0423"/>
</g>
<!-- types/product&#45;&gt;theorems/prop -->
<g id="edge24" class="edge"><title>types/product&#45;&gt;theorems/prop</title>
<path fill="none" stroke="black" d="M884.852,-289.461C898.171,-280.213 913.476,-267.3 922.746,-252 934.038,-233.362 938.678,-208.972 940.555,-190.438"/>
<polygon fill="black" stroke="black" points="944.058,-190.539 941.371,-180.291 937.081,-189.978 944.058,-190.539"/>
</g>
<!-- theorems/ua -->
<g id="node30" class="node"><title>theorems/ua</title>
<ellipse fill="none" stroke="black" cx="858.746" cy="-234" rx="54.6905" ry="18"/>
<text text-anchor="middle" x="858.746" y="-230.3" font-family="Times New Roman,serif" font-size="14.00">theorems/ua</text>
</g>
<!-- types/product&#45;&gt;theorems/ua -->
<g id="edge25" class="edge"><title>types/product&#45;&gt;theorems/ua</title>
<path fill="none" stroke="black" d="M858.746,-287.697C858.746,-279.983 858.746,-270.712 858.746,-262.112"/>
<polygon fill="black" stroke="black" points="862.246,-262.104 858.746,-252.104 855.246,-262.104 862.246,-262.104"/>
</g>
<!-- theorems/prop&#45;&gt;types/precategory -->
<g id="edge63" class="edge"><title>theorems/prop&#45;&gt;types/precategory</title>
<path fill="none" stroke="black" d="M957.387,-144.411C965.568,-135.734 975.739,-124.946 984.795,-115.342"/>
<polygon fill="black" stroke="black" points="987.445,-117.633 991.758,-107.956 982.352,-112.831 987.445,-117.633"/>
</g>
<!-- theorems/ua&#45;&gt;algebra/group -->
<g id="edge64" class="edge"><title>theorems/ua&#45;&gt;algebra/group</title>
<path fill="none" stroke="black" d="M902.969,-223.402C935.464,-215.096 979.847,-201.059 1014.75,-180 1034.66,-167.98 1033.26,-156.716 1052.75,-144 1076.33,-128.609 1105.11,-116.1 1129.22,-107.107"/>
<polygon fill="black" stroke="black" points="1130.69,-110.298 1138.89,-103.592 1128.3,-103.719 1130.69,-110.298"/>
</g>
<!-- theorems/ua&#45;&gt;theorems/nat -->
<g id="edge65" class="edge"><title>theorems/ua&#45;&gt;theorems/nat</title>
<path fill="none" stroke="black" d="M837.416,-217.116C824.676,-207.629 808.307,-195.439 794.33,-185.031"/>
<polygon fill="black" stroke="black" points="796.102,-181.987 785.991,-178.821 791.921,-187.601 796.102,-181.987"/>
</g>
<!-- cubical/V -->
<g id="node48" class="node"><title>cubical/V</title>
<ellipse fill="none" stroke="black" cx="927.746" cy="-18" rx="45.4919" ry="18"/>
<text text-anchor="middle" x="927.746" y="-14.3" font-family="Times New Roman,serif" font-size="14.00">cubical/V</text>
</g>
<!-- theorems/ua&#45;&gt;cubical/V -->
<g id="edge66" class="edge"><title>theorems/ua&#45;&gt;cubical/V</title>
<path fill="none" stroke="black" d="M859.007,-215.95C859.666,-197.797 861.828,-168.382 868.746,-144 879.025,-107.766 898.877,-68.9774 912.7,-44.3855"/>
<polygon fill="black" stroke="black" points="915.746,-46.1091 917.67,-35.6904 909.669,-42.6354 915.746,-46.1091"/>
</g>
<!-- HITs/suspension&#45;&gt;HITs/circle -->
<g id="edge49" class="edge"><title>HITs/suspension&#45;&gt;HITs/circle</title>
<path fill="none" stroke="black" d="M417.023,-216.893C403.859,-207.204 387.768,-194.051 375.746,-180 359.299,-160.779 345.161,-135.648 335.796,-116.995"/>
<polygon fill="black" stroke="black" points="338.884,-115.342 331.347,-107.896 332.595,-118.417 338.884,-115.342"/>
</g>
<!-- HITs/join -->
<g id="node41" class="node"><title>HITs/join</title>
<ellipse fill="none" stroke="black" cx="429.746" cy="-162" rx="45.4919" ry="18"/>
<text text-anchor="middle" x="429.746" y="-158.3" font-family="Times New Roman,serif" font-size="14.00">HITs/join</text>
</g>
<!-- HITs/suspension&#45;&gt;HITs/join -->
<g id="edge50" class="edge"><title>HITs/suspension&#45;&gt;HITs/join</title>
<path fill="none" stroke="black" d="M438.027,-215.697C436.814,-207.983 435.358,-198.712 434.006,-190.112"/>
<polygon fill="black" stroke="black" points="437.444,-189.44 432.433,-180.104 430.528,-190.526 437.444,-189.44"/>
</g>
<!-- HITs/colimit&#45;&gt;HITs/merely -->
<g id="edge33" class="edge"><title>HITs/colimit&#45;&gt;HITs/merely</title>
<path fill="none" stroke="black" d="M1006.12,-288.055C1011.72,-279.715 1018.59,-269.491 1024.79,-260.252"/>
<polygon fill="black" stroke="black" points="1027.8,-262.042 1030.47,-251.789 1021.99,-258.14 1027.8,-262.042"/>
</g>
<!-- HITs/colimit&#45;&gt;types/nat -->
<g id="edge34" class="edge"><title>HITs/colimit&#45;&gt;types/nat</title>
<path fill="none" stroke="black" d="M952.338,-293.9C898.245,-279.719 809.859,-256.469 794.746,-252 791.603,-251.071 788.364,-250.083 785.11,-249.07"/>
<polygon fill="black" stroke="black" points="785.979,-245.674 775.389,-245.986 783.862,-252.346 785.979,-245.674"/>
</g>
<!-- HITs/generalized&#45;&gt;HITs/merely -->
<g id="edge35" class="edge"><title>HITs/generalized&#45;&gt;HITs/merely</title>
<path fill="none" stroke="black" d="M1118.55,-288.765C1104.85,-279.176 1087.35,-266.92 1072.51,-256.532"/>
<polygon fill="black" stroke="black" points="1074.32,-253.533 1064.13,-250.666 1070.31,-259.268 1074.32,-253.533"/>
</g>
<!-- HITs/pushout&#45;&gt;HITs/suspension -->
<g id="edge47" class="edge"><title>HITs/pushout&#45;&gt;HITs/suspension</title>
<path fill="none" stroke="black" d="M536.753,-289.638C519.293,-279.702 496.347,-266.643 477.266,-255.784"/>
<polygon fill="black" stroke="black" points="478.95,-252.715 468.528,-250.811 475.488,-258.799 478.95,-252.715"/>
</g>
<!-- HITs/quotient&#45;&gt;algebra/group -->
<g id="edge48" class="edge"><title>HITs/quotient&#45;&gt;algebra/group</title>
<path fill="none" stroke="black" d="M1406.13,-149.519C1358.66,-137.301 1283.53,-117.967 1232.75,-104.897"/>
<polygon fill="black" stroke="black" points="1233.49,-101.474 1222.93,-102.371 1231.74,-108.253 1233.49,-101.474"/>
</g>
<!-- cubical/path -->
<g id="node45" class="node"><title>cubical/path</title>
<ellipse fill="none" stroke="black" cx="628.746" cy="-90" rx="54.6905" ry="18"/>
<text text-anchor="middle" x="628.746" y="-86.3" font-family="Times New Roman,serif" font-size="14.00">cubical/path</text>
</g>
<!-- cubical/cubes&#45;&gt;cubical/path -->
<g id="edge52" class="edge"><title>cubical/cubes&#45;&gt;cubical/path</title>
<path fill="none" stroke="black" d="M628.746,-143.697C628.746,-135.983 628.746,-126.712 628.746,-118.112"/>
<polygon fill="black" stroke="black" points="632.246,-118.104 628.746,-108.104 625.246,-118.104 632.246,-118.104"/>
</g>
<!-- theorems/fibration&#45;&gt;theorems/hopf -->
<g id="edge57" class="edge"><title>theorems/fibration&#45;&gt;theorems/hopf</title>
<path fill="none" stroke="black" d="M440.047,-73.6382C417.737,-63.1571 388.033,-49.2021 364.229,-38.019"/>
<polygon fill="black" stroke="black" points="365.632,-34.811 355.092,-33.7266 362.655,-41.1466 365.632,-34.811"/>
</g>
<!-- theorems/functions&#45;&gt;algebra/group -->
<g id="edge58" class="edge"><title>theorems/functions&#45;&gt;algebra/group</title>
<path fill="none" stroke="black" d="M1150.7,-144.055C1154.96,-136.007 1160.14,-126.205 1164.88,-117.226"/>
<polygon fill="black" stroke="black" points="1168.04,-118.752 1169.61,-108.275 1161.85,-115.481 1168.04,-118.752"/>
</g>
<!-- cubical/connection -->
<g id="node44" class="node"><title>cubical/connection</title>
<ellipse fill="none" stroke="black" cx="784.746" cy="-18" rx="79.0865" ry="18"/>
<text text-anchor="middle" x="784.746" y="-14.3" font-family="Times New Roman,serif" font-size="14.00">cubical/connection</text>
</g>
<!-- cubical/path&#45;&gt;cubical/connection -->
<g id="edge53" class="edge"><title>cubical/path&#45;&gt;cubical/connection</title>
<path fill="none" stroke="black" d="M659.94,-75.0027C683.301,-64.5201 715.551,-50.0489 741.416,-38.443"/>
<polygon fill="black" stroke="black" points="742.937,-41.5966 750.628,-34.3094 740.071,-35.2101 742.937,-41.5966"/>
</g>
<!-- cubical/example -->
<g id="node46" class="node"><title>cubical/example</title>
<ellipse fill="none" stroke="black" cx="474.746" cy="-18" rx="68.7879" ry="18"/>
<text text-anchor="middle" x="474.746" y="-14.3" font-family="Times New Roman,serif" font-size="14.00">cubical/example</text>
</g>
<!-- cubical/path&#45;&gt;cubical/example -->
<g id="edge54" class="edge"><title>cubical/path&#45;&gt;cubical/example</title>
<path fill="none" stroke="black" d="M597.952,-75.0027C574.655,-64.4135 542.405,-49.7542 516.743,-38.0898"/>
<polygon fill="black" stroke="black" points="518.168,-34.8928 507.616,-33.941 515.271,-41.2653 518.168,-34.8928"/>
</g>
<!-- cubical/square -->
<g id="node47" class="node"><title>cubical/square</title>
<ellipse fill="none" stroke="black" cx="624.746" cy="-18" rx="63.0888" ry="18"/>
<text text-anchor="middle" x="624.746" y="-14.3" font-family="Times New Roman,serif" font-size="14.00">cubical/square</text>
</g>
<!-- cubical/path&#45;&gt;cubical/square -->
<g id="edge55" class="edge"><title>cubical/path&#45;&gt;cubical/square</title>
<path fill="none" stroke="black" d="M627.757,-71.6966C627.316,-63.9827 626.786,-54.7125 626.295,-46.1124"/>
<polygon fill="black" stroke="black" points="629.788,-45.8883 625.723,-36.1043 622.799,-46.2878 629.788,-45.8883"/>
</g>
<!-- cubical/path&#45;&gt;cubical/V -->
<g id="edge56" class="edge"><title>cubical/path&#45;&gt;cubical/V</title>
<path fill="none" stroke="black" d="M673.766,-79.7049C733.492,-67.2898 835.693,-45.7314 872.746,-36 876.34,-35.0559 880.051,-34.0274 883.769,-32.9588"/>
<polygon fill="black" stroke="black" points="884.952,-36.2589 893.55,-30.0675 882.968,-29.5461 884.952,-36.2589"/>
</g>
</g>
</svg>
