<?xml version="1.0" encoding="UTF-8" standalone="no"?>
<!DOCTYPE svg PUBLIC "-//W3C//DTD SVG 1.1//EN"
 "http://www.w3.org/Graphics/SVG/1.1/DTD/svg11.dtd">
<!-- Generated by graphviz version 2.38.0 (20140413.2041)
 -->
<!-- Title: dependency_map Pages: 1 -->
<svg width="1254pt" height="764pt"
 viewBox="0.00 0.00 1254.29 764.00" xmlns="http://www.w3.org/2000/svg" xmlns:xlink="http://www.w3.org/1999/xlink">
<g id="graph0" class="graph" transform="scale(1 1) rotate(0) translate(4 760)">
<title>dependency_map</title>
<polygon fill="white" stroke="none" points="-4,4 -4,-760 1250.29,-760 1250.29,4 -4,4"/>
<!-- proto -->
<g id="node1" class="node"><title>proto</title>
<ellipse fill="none" stroke="black" cx="397.645" cy="-738" rx="30.5947" ry="18"/>
<text text-anchor="middle" x="397.645" y="-734.3" font-family="Times New Roman,serif" font-size="14.00">proto</text>
</g>
<!-- types/eq -->
<g id="node2" class="node"><title>types/eq</title>
<ellipse fill="none" stroke="black" cx="457.645" cy="-666" rx="41.6928" ry="18"/>
<text text-anchor="middle" x="457.645" y="-662.3" font-family="Times New Roman,serif" font-size="14.00">types/eq</text>
</g>
<!-- proto&#45;&gt;types/eq -->
<g id="edge1" class="edge"><title>proto&#45;&gt;types/eq</title>
<path fill="none" stroke="black" d="M410.961,-721.465C418.589,-712.566 428.327,-701.205 436.933,-691.164"/>
<polygon fill="black" stroke="black" points="439.68,-693.338 443.531,-683.467 434.365,-688.782 439.68,-693.338"/>
</g>
<!-- support -->
<g id="node4" class="node"><title>support</title>
<ellipse fill="none" stroke="black" cx="519.645" cy="-594" rx="38.9931" ry="18"/>
<text text-anchor="middle" x="519.645" y="-590.3" font-family="Times New Roman,serif" font-size="14.00">support</text>
</g>
<!-- types/eq&#45;&gt;support -->
<g id="edge11" class="edge"><title>types/eq&#45;&gt;support</title>
<path fill="none" stroke="black" d="M472.025,-648.765C479.929,-639.841 489.878,-628.608 498.637,-618.719"/>
<polygon fill="black" stroke="black" points="501.333,-620.954 505.343,-611.147 496.093,-616.313 501.333,-620.954"/>
</g>
<!-- types/dep_path -->
<g id="node18" class="node"><title>types/dep_path</title>
<ellipse fill="none" stroke="black" cx="395.645" cy="-594" rx="66.8882" ry="18"/>
<text text-anchor="middle" x="395.645" y="-590.3" font-family="Times New Roman,serif" font-size="14.00">types/dep_path</text>
</g>
<!-- types/eq&#45;&gt;types/dep_path -->
<g id="edge12" class="edge"><title>types/eq&#45;&gt;types/dep_path</title>
<path fill="none" stroke="black" d="M443.265,-648.765C435.475,-639.969 425.696,-628.928 417.03,-619.144"/>
<polygon fill="black" stroke="black" points="419.628,-616.799 410.378,-611.633 414.388,-621.44 419.628,-616.799"/>
</g>
<!-- meta/hott_theory -->
<g id="node3" class="node"><title>meta/hott_theory</title>
<ellipse fill="none" stroke="black" cx="518.645" cy="-738" rx="72.2875" ry="18"/>
<text text-anchor="middle" x="518.645" y="-734.3" font-family="Times New Roman,serif" font-size="14.00">meta/hott_theory</text>
</g>
<!-- meta/hott_theory&#45;&gt;types/eq -->
<g id="edge2" class="edge"><title>meta/hott_theory&#45;&gt;types/eq</title>
<path fill="none" stroke="black" d="M503.879,-720.055C496.276,-711.33 486.877,-700.544 478.543,-690.981"/>
<polygon fill="black" stroke="black" points="481.064,-688.547 471.856,-683.307 475.787,-693.146 481.064,-688.547"/>
</g>
<!-- types/equiv -->
<g id="node5" class="node"><title>types/equiv</title>
<ellipse fill="none" stroke="black" cx="519.645" cy="-522" rx="51.9908" ry="18"/>
<text text-anchor="middle" x="519.645" y="-518.3" font-family="Times New Roman,serif" font-size="14.00">types/equiv</text>
</g>
<!-- support&#45;&gt;types/equiv -->
<g id="edge3" class="edge"><title>support&#45;&gt;types/equiv</title>
<path fill="none" stroke="black" d="M519.645,-575.697C519.645,-567.983 519.645,-558.712 519.645,-550.112"/>
<polygon fill="black" stroke="black" points="523.145,-550.104 519.645,-540.104 516.145,-550.104 523.145,-550.104"/>
</g>
<!-- HITs/infinitesimal -->
<g id="node11" class="node"><title>HITs/infinitesimal</title>
<ellipse fill="none" stroke="black" stroke-dasharray="5,2" cx="250.645" cy="-450" rx="74.9875" ry="18"/>
<text text-anchor="middle" x="250.645" y="-446.3" font-family="Times New Roman,serif" font-size="14.00">HITs/infinitesimal</text>
</g>
<!-- types/equiv&#45;&gt;HITs/infinitesimal -->
<g id="edge13" class="edge"><title>types/equiv&#45;&gt;HITs/infinitesimal</title>
<path fill="none" stroke="black" d="M479.373,-510.52C434.304,-498.792 360.868,-479.682 309.395,-466.288"/>
<polygon fill="black" stroke="black" points="309.967,-462.82 299.408,-463.689 308.204,-469.595 309.967,-462.82"/>
</g>
<!-- types/coproduct -->
<g id="node16" class="node"><title>types/coproduct</title>
<ellipse fill="none" stroke="black" cx="452.645" cy="-450" rx="70.6878" ry="18"/>
<text text-anchor="middle" x="452.645" y="-446.3" font-family="Times New Roman,serif" font-size="14.00">types/coproduct</text>
</g>
<!-- types/equiv&#45;&gt;types/coproduct -->
<g id="edge14" class="edge"><title>types/equiv&#45;&gt;types/coproduct</title>
<path fill="none" stroke="black" d="M504.106,-504.765C495.687,-495.969 485.12,-484.928 475.755,-475.144"/>
<polygon fill="black" stroke="black" points="478.009,-472.437 468.566,-467.633 472.952,-477.278 478.009,-472.437"/>
</g>
<!-- types/heq -->
<g id="node19" class="node"><title>types/heq</title>
<ellipse fill="none" stroke="black" cx="697.645" cy="-450" rx="46.2923" ry="18"/>
<text text-anchor="middle" x="697.645" y="-446.3" font-family="Times New Roman,serif" font-size="14.00">types/heq</text>
</g>
<!-- types/equiv&#45;&gt;types/heq -->
<g id="edge15" class="edge"><title>types/equiv&#45;&gt;types/heq</title>
<path fill="none" stroke="black" d="M552.709,-507.998C582.138,-496.424 625.291,-479.454 656.856,-467.041"/>
<polygon fill="black" stroke="black" points="658.227,-470.263 666.252,-463.346 655.665,-463.748 658.227,-470.263"/>
</g>
<!-- types/integer -->
<g id="node20" class="node"><title>types/integer</title>
<ellipse fill="none" stroke="black" cx="196.645" cy="-378" rx="56.59" ry="18"/>
<text text-anchor="middle" x="196.645" y="-374.3" font-family="Times New Roman,serif" font-size="14.00">types/integer</text>
</g>
<!-- types/equiv&#45;&gt;types/integer -->
<g id="edge16" class="edge"><title>types/equiv&#45;&gt;types/integer</title>
<path fill="none" stroke="black" d="M478.312,-511.032C447.671,-502.503 405.674,-488.35 372.645,-468 352.839,-455.796 354.325,-444.408 334.645,-432 307.866,-415.116 274.854,-402.198 247.833,-393.344"/>
<polygon fill="black" stroke="black" points="248.762,-389.966 238.171,-390.265 246.637,-396.636 248.762,-389.966"/>
</g>
<!-- types/lost -->
<g id="node21" class="node"><title>types/lost</title>
<ellipse fill="none" stroke="black" cx="807.645" cy="-450" rx="46.2923" ry="18"/>
<text text-anchor="middle" x="807.645" y="-446.3" font-family="Times New Roman,serif" font-size="14.00">types/lost</text>
</g>
<!-- types/equiv&#45;&gt;types/lost -->
<g id="edge17" class="edge"><title>types/equiv&#45;&gt;types/lost</title>
<path fill="none" stroke="black" d="M563.261,-512.116C610.257,-502.301 687.128,-485.55 752.645,-468 756.184,-467.052 759.837,-466.027 763.499,-464.967"/>
<polygon fill="black" stroke="black" points="764.551,-468.305 773.141,-462.105 762.559,-461.595 764.551,-468.305"/>
</g>
<!-- types/unit -->
<g id="node22" class="node"><title>types/unit</title>
<ellipse fill="none" stroke="black" cx="587.645" cy="-450" rx="46.2923" ry="18"/>
<text text-anchor="middle" x="587.645" y="-446.3" font-family="Times New Roman,serif" font-size="14.00">types/unit</text>
</g>
<!-- types/equiv&#45;&gt;types/unit -->
<g id="edge18" class="edge"><title>types/equiv&#45;&gt;types/unit</title>
<path fill="none" stroke="black" d="M535.417,-504.765C544.171,-495.753 555.214,-484.385 564.889,-474.426"/>
<polygon fill="black" stroke="black" points="567.502,-476.759 571.959,-467.147 562.481,-471.881 567.502,-476.759"/>
</g>
<!-- structures -->
<g id="node6" class="node"><title>structures</title>
<ellipse fill="none" stroke="black" cx="605.645" cy="-378" rx="46.2923" ry="18"/>
<text text-anchor="middle" x="605.645" y="-374.3" font-family="Times New Roman,serif" font-size="14.00">structures</text>
</g>
<!-- HITs/interval -->
<g id="node7" class="node"><title>HITs/interval</title>
<ellipse fill="none" stroke="black" cx="679.645" cy="-306" rx="57.6901" ry="18"/>
<text text-anchor="middle" x="679.645" y="-302.3" font-family="Times New Roman,serif" font-size="14.00">HITs/interval</text>
</g>
<!-- structures&#45;&gt;HITs/interval -->
<g id="edge4" class="edge"><title>structures&#45;&gt;HITs/interval</title>
<path fill="none" stroke="black" d="M622.437,-361.116C632.045,-352.027 644.275,-340.458 654.96,-330.351"/>
<polygon fill="black" stroke="black" points="657.547,-332.722 662.407,-323.307 652.737,-327.636 657.547,-332.722"/>
</g>
<!-- HITs/truncation -->
<g id="node8" class="node"><title>HITs/truncation</title>
<ellipse fill="none" stroke="black" cx="826.645" cy="-306" rx="68.4888" ry="18"/>
<text text-anchor="middle" x="826.645" y="-302.3" font-family="Times New Roman,serif" font-size="14.00">HITs/truncation</text>
</g>
<!-- structures&#45;&gt;HITs/truncation -->
<g id="edge5" class="edge"><title>structures&#45;&gt;HITs/truncation</title>
<path fill="none" stroke="black" d="M640.663,-365.908C676.833,-354.452 733.671,-336.449 774.999,-323.359"/>
<polygon fill="black" stroke="black" points="776.145,-326.667 784.621,-320.311 774.031,-319.994 776.145,-326.667"/>
</g>
<!-- algebra/core -->
<g id="node9" class="node"><title>algebra/core</title>
<ellipse fill="none" stroke="black" cx="276.645" cy="-306" rx="55.4913" ry="18"/>
<text text-anchor="middle" x="276.645" y="-302.3" font-family="Times New Roman,serif" font-size="14.00">algebra/core</text>
</g>
<!-- structures&#45;&gt;algebra/core -->
<g id="edge6" class="edge"><title>structures&#45;&gt;algebra/core</title>
<path fill="none" stroke="black" d="M571.509,-365.695C564.645,-363.636 557.449,-361.627 550.645,-360 458.548,-337.971 433.166,-344.176 340.645,-324 336.23,-323.037 331.661,-321.969 327.09,-320.851"/>
<polygon fill="black" stroke="black" points="327.692,-317.393 317.14,-318.344 325.982,-324.181 327.692,-317.393"/>
</g>
<!-- types/product -->
<g id="node28" class="node"><title>types/product</title>
<ellipse fill="none" stroke="black" cx="536.645" cy="-234" rx="61.99" ry="18"/>
<text text-anchor="middle" x="536.645" y="-230.3" font-family="Times New Roman,serif" font-size="14.00">types/product</text>
</g>
<!-- HITs/interval&#45;&gt;types/product -->
<g id="edge37" class="edge"><title>HITs/interval&#45;&gt;types/product</title>
<path fill="none" stroke="black" d="M650.016,-290.496C628.494,-279.961 599.157,-265.6 575.719,-254.127"/>
<polygon fill="black" stroke="black" points="577.25,-250.979 566.729,-249.726 574.172,-257.267 577.25,-250.979"/>
</g>
<!-- theorems/prop -->
<g id="node34" class="node"><title>theorems/prop</title>
<ellipse fill="none" stroke="black" cx="679.645" cy="-234" rx="63.8893" ry="18"/>
<text text-anchor="middle" x="679.645" y="-230.3" font-family="Times New Roman,serif" font-size="14.00">theorems/prop</text>
</g>
<!-- HITs/interval&#45;&gt;theorems/prop -->
<g id="edge38" class="edge"><title>HITs/interval&#45;&gt;theorems/prop</title>
<path fill="none" stroke="black" d="M679.645,-287.697C679.645,-279.983 679.645,-270.712 679.645,-262.112"/>
<polygon fill="black" stroke="black" points="683.145,-262.104 679.645,-252.104 676.145,-262.104 683.145,-262.104"/>
</g>
<!-- HITs/truncation&#45;&gt;theorems/prop -->
<g id="edge43" class="edge"><title>HITs/truncation&#45;&gt;theorems/prop</title>
<path fill="none" stroke="black" d="M795.11,-289.983C773.065,-279.486 743.446,-265.381 719.726,-254.086"/>
<polygon fill="black" stroke="black" points="721.157,-250.891 710.624,-249.752 718.148,-257.211 721.157,-250.891"/>
</g>
<!-- HITs/simplicial -->
<g id="node36" class="node"><title>HITs/simplicial</title>
<ellipse fill="none" stroke="black" cx="826.645" cy="-234" rx="65.7887" ry="18"/>
<text text-anchor="middle" x="826.645" y="-230.3" font-family="Times New Roman,serif" font-size="14.00">HITs/simplicial</text>
</g>
<!-- HITs/truncation&#45;&gt;HITs/simplicial -->
<g id="edge44" class="edge"><title>HITs/truncation&#45;&gt;HITs/simplicial</title>
<path fill="none" stroke="black" d="M826.645,-287.697C826.645,-279.983 826.645,-270.712 826.645,-262.112"/>
<polygon fill="black" stroke="black" points="830.145,-262.104 826.645,-252.104 823.145,-262.104 830.145,-262.104"/>
</g>
<!-- theorems/mere_eq_lemma -->
<g id="node37" class="node"><title>theorems/mere_eq_lemma</title>
<ellipse fill="none" stroke="black" cx="1016.65" cy="-234" rx="105.881" ry="18"/>
<text text-anchor="middle" x="1016.65" y="-230.3" font-family="Times New Roman,serif" font-size="14.00">theorems/mere_eq_lemma</text>
</g>
<!-- HITs/truncation&#45;&gt;theorems/mere_eq_lemma -->
<g id="edge45" class="edge"><title>HITs/truncation&#45;&gt;theorems/mere_eq_lemma</title>
<path fill="none" stroke="black" d="M864.638,-291.003C893.394,-280.409 933.207,-265.74 964.875,-254.073"/>
<polygon fill="black" stroke="black" points="966.247,-257.298 974.42,-250.557 963.827,-250.73 966.247,-257.298"/>
</g>
<!-- HITs/graph -->
<g id="node38" class="node"><title>HITs/graph</title>
<ellipse fill="none" stroke="black" cx="1193.65" cy="-234" rx="52.7911" ry="18"/>
<text text-anchor="middle" x="1193.65" y="-230.3" font-family="Times New Roman,serif" font-size="14.00">HITs/graph</text>
</g>
<!-- HITs/truncation&#45;&gt;HITs/graph -->
<g id="edge46" class="edge"><title>HITs/truncation&#45;&gt;HITs/graph</title>
<path fill="none" stroke="black" d="M884.874,-296.576C946.492,-287.267 1046.41,-271.045 1131.65,-252 1135.99,-251.029 1140.49,-249.948 1144.98,-248.815"/>
<polygon fill="black" stroke="black" points="1145.96,-252.176 1154.76,-246.272 1144.2,-245.401 1145.96,-252.176"/>
</g>
<!-- algebra/group -->
<g id="node15" class="node"><title>algebra/group</title>
<ellipse fill="none" stroke="black" cx="72.6453" cy="-234" rx="60.3893" ry="18"/>
<text text-anchor="middle" x="72.6453" y="-230.3" font-family="Times New Roman,serif" font-size="14.00">algebra/group</text>
</g>
<!-- algebra/core&#45;&gt;algebra/group -->
<g id="edge7" class="edge"><title>algebra/core&#45;&gt;algebra/group</title>
<path fill="none" stroke="black" d="M239.702,-292.324C206.328,-280.871 157.005,-263.947 120.599,-251.455"/>
<polygon fill="black" stroke="black" points="121.291,-247.992 110.697,-248.057 119.019,-254.613 121.291,-247.992"/>
</g>
<!-- HITs/circle -->
<g id="node10" class="node"><title>HITs/circle</title>
<ellipse fill="none" stroke="black" stroke-dasharray="5,2" cx="326.645" cy="-90" rx="51.9908" ry="18"/>
<text text-anchor="middle" x="326.645" y="-86.3" font-family="Times New Roman,serif" font-size="14.00">HITs/circle</text>
</g>
<!-- HITs/ntrunc -->
<g id="node12" class="node"><title>HITs/ntrunc</title>
<ellipse fill="none" stroke="black" stroke-dasharray="5,2" cx="317.645" cy="-18" rx="55.4913" ry="18"/>
<text text-anchor="middle" x="317.645" y="-14.3" font-family="Times New Roman,serif" font-size="14.00">HITs/ntrunc</text>
</g>
<!-- HITs/circle&#45;&gt;HITs/ntrunc -->
<g id="edge33" class="edge"><title>HITs/circle&#45;&gt;HITs/ntrunc</title>
<path fill="none" stroke="black" d="M324.421,-71.6966C323.429,-63.9827 322.237,-54.7125 321.131,-46.1124"/>
<polygon fill="black" stroke="black" points="324.591,-45.5763 319.844,-36.1043 317.648,-46.469 324.591,-45.5763"/>
</g>
<!-- theorems/ua -->
<g id="node13" class="node"><title>theorems/ua</title>
<ellipse fill="none" stroke="black" stroke-dasharray="5,2" cx="436.645" cy="-162" rx="54.6905" ry="18"/>
<text text-anchor="middle" x="436.645" y="-158.3" font-family="Times New Roman,serif" font-size="14.00">theorems/ua</text>
</g>
<!-- theorems/ua&#45;&gt;HITs/circle -->
<g id="edge54" class="edge"><title>theorems/ua&#45;&gt;HITs/circle</title>
<path fill="none" stroke="black" d="M412.777,-145.811C397.065,-135.813 376.299,-122.598 359.094,-111.649"/>
<polygon fill="black" stroke="black" points="360.783,-108.575 350.467,-106.159 357.025,-114.481 360.783,-108.575"/>
</g>
<!-- cubical/V -->
<g id="node14" class="node"><title>cubical/V</title>
<ellipse fill="none" stroke="black" stroke-dasharray="5,2" cx="436.645" cy="-18" rx="45.4919" ry="18"/>
<text text-anchor="middle" x="436.645" y="-14.3" font-family="Times New Roman,serif" font-size="14.00">cubical/V</text>
</g>
<!-- theorems/ua&#45;&gt;cubical/V -->
<g id="edge55" class="edge"><title>theorems/ua&#45;&gt;cubical/V</title>
<path fill="none" stroke="black" d="M436.645,-143.871C436.645,-119.67 436.645,-75.2108 436.645,-46.3932"/>
<polygon fill="black" stroke="black" points="440.145,-46.1892 436.645,-36.1893 433.145,-46.1893 440.145,-46.1892"/>
</g>
<!-- types/coproduct&#45;&gt;structures -->
<g id="edge8" class="edge"><title>types/coproduct&#45;&gt;structures</title>
<path fill="none" stroke="black" d="M485.468,-433.983C509.526,-422.976 542.252,-408.004 567.478,-396.462"/>
<polygon fill="black" stroke="black" points="569.108,-399.565 576.746,-392.222 566.196,-393.2 569.108,-399.565"/>
</g>
<!-- types/nat -->
<g id="node17" class="node"><title>types/nat</title>
<ellipse fill="none" stroke="black" cx="317.645" cy="-378" rx="43.5923" ry="18"/>
<text text-anchor="middle" x="317.645" y="-374.3" font-family="Times New Roman,serif" font-size="14.00">types/nat</text>
</g>
<!-- types/coproduct&#45;&gt;types/nat -->
<g id="edge9" class="edge"><title>types/coproduct&#45;&gt;types/nat</title>
<path fill="none" stroke="black" d="M423.019,-433.638C402.373,-422.933 374.738,-408.604 352.948,-397.305"/>
<polygon fill="black" stroke="black" points="354.494,-394.164 344.005,-392.668 351.272,-400.378 354.494,-394.164"/>
</g>
<!-- types/dep_path&#45;&gt;types/equiv -->
<g id="edge10" class="edge"><title>types/dep_path&#45;&gt;types/equiv</title>
<path fill="none" stroke="black" d="M423.165,-577.465C441.274,-567.242 465.137,-553.771 484.6,-542.783"/>
<polygon fill="black" stroke="black" points="486.488,-545.737 493.476,-537.773 483.047,-539.641 486.488,-545.737"/>
</g>
<!-- types/heq&#45;&gt;HITs/interval -->
<g id="edge19" class="edge"><title>types/heq&#45;&gt;HITs/interval</title>
<path fill="none" stroke="black" d="M695.474,-431.871C692.406,-407.67 686.771,-363.211 683.118,-334.393"/>
<polygon fill="black" stroke="black" points="686.554,-333.67 681.824,-324.189 679.61,-334.55 686.554,-333.67"/>
</g>
<!-- HITs/colimit -->
<g id="node23" class="node"><title>HITs/colimit</title>
<ellipse fill="none" stroke="black" cx="764.645" cy="-378" rx="56.59" ry="18"/>
<text text-anchor="middle" x="764.645" y="-374.3" font-family="Times New Roman,serif" font-size="14.00">HITs/colimit</text>
</g>
<!-- types/heq&#45;&gt;HITs/colimit -->
<g id="edge20" class="edge"><title>types/heq&#45;&gt;HITs/colimit</title>
<path fill="none" stroke="black" d="M713.185,-432.765C721.604,-423.969 732.171,-412.928 741.536,-403.144"/>
<polygon fill="black" stroke="black" points="744.339,-405.278 748.725,-395.633 739.282,-400.437 744.339,-405.278"/>
</g>
<!-- HITs/generalized -->
<g id="node24" class="node"><title>HITs/generalized</title>
<ellipse fill="none" stroke="black" cx="911.645" cy="-378" rx="72.2875" ry="18"/>
<text text-anchor="middle" x="911.645" y="-374.3" font-family="Times New Roman,serif" font-size="14.00">HITs/generalized</text>
</g>
<!-- types/heq&#45;&gt;HITs/generalized -->
<g id="edge21" class="edge"><title>types/heq&#45;&gt;HITs/generalized</title>
<path fill="none" stroke="black" d="M732.028,-437.753C766.629,-426.435 820.411,-408.843 860.113,-395.857"/>
<polygon fill="black" stroke="black" points="861.211,-399.18 869.627,-392.744 859.035,-392.527 861.211,-399.18"/>
</g>
<!-- HITs/int -->
<g id="node25" class="node"><title>HITs/int</title>
<ellipse fill="none" stroke="black" cx="1042.65" cy="-378" rx="40.8928" ry="18"/>
<text text-anchor="middle" x="1042.65" y="-374.3" font-family="Times New Roman,serif" font-size="14.00">HITs/int</text>
</g>
<!-- types/heq&#45;&gt;HITs/int -->
<g id="edge22" class="edge"><title>types/heq&#45;&gt;HITs/int</title>
<path fill="none" stroke="black" d="M731.462,-437.671C738.416,-435.589 745.727,-433.579 752.645,-432 857.803,-408.006 887.834,-421.462 992.645,-396 995.999,-395.185 999.447,-394.243 1002.89,-393.227"/>
<polygon fill="black" stroke="black" points="1004,-396.548 1012.49,-390.219 1001.91,-389.868 1004,-396.548"/>
</g>
<!-- HITs/pushout -->
<g id="node26" class="node"><title>HITs/pushout</title>
<ellipse fill="none" stroke="black" cx="479.645" cy="-378" rx="61.99" ry="18"/>
<text text-anchor="middle" x="479.645" y="-374.3" font-family="Times New Roman,serif" font-size="14.00">HITs/pushout</text>
</g>
<!-- types/heq&#45;&gt;HITs/pushout -->
<g id="edge23" class="edge"><title>types/heq&#45;&gt;HITs/pushout</title>
<path fill="none" stroke="black" d="M663.103,-437.908C627.056,-426.334 570.198,-408.077 529.333,-394.955"/>
<polygon fill="black" stroke="black" points="530.163,-391.545 519.571,-391.82 528.023,-398.21 530.163,-391.545"/>
</g>
<!-- types/integer&#45;&gt;algebra/core -->
<g id="edge24" class="edge"><title>types/integer&#45;&gt;algebra/core</title>
<path fill="none" stroke="black" d="M215.2,-360.765C225.701,-351.576 239.001,-339.938 250.54,-329.842"/>
<polygon fill="black" stroke="black" points="252.97,-332.366 258.191,-323.147 248.361,-327.098 252.97,-332.366"/>
</g>
<!-- types/integer&#45;&gt;HITs/circle -->
<g id="edge25" class="edge"><title>types/integer&#45;&gt;HITs/circle</title>
<path fill="none" stroke="black" d="M197.96,-359.81C199.762,-341.539 203.841,-312.027 212.645,-288 236.897,-221.815 282.703,-152.215 308.25,-116.095"/>
<polygon fill="black" stroke="black" points="311.314,-117.826 314.282,-107.655 305.62,-113.755 311.314,-117.826"/>
</g>
<!-- HITs/reals -->
<g id="node27" class="node"><title>HITs/reals</title>
<ellipse fill="none" stroke="black" cx="116.645" cy="-306" rx="48.9926" ry="18"/>
<text text-anchor="middle" x="116.645" y="-302.3" font-family="Times New Roman,serif" font-size="14.00">HITs/reals</text>
</g>
<!-- types/integer&#45;&gt;HITs/reals -->
<g id="edge26" class="edge"><title>types/integer&#45;&gt;HITs/reals</title>
<path fill="none" stroke="black" d="M178.091,-360.765C167.515,-351.511 154.099,-339.772 142.503,-329.626"/>
<polygon fill="black" stroke="black" points="144.654,-326.857 134.824,-322.906 140.045,-332.125 144.654,-326.857"/>
</g>
<!-- types/unit&#45;&gt;structures -->
<g id="edge31" class="edge"><title>types/unit&#45;&gt;structures</title>
<path fill="none" stroke="black" d="M592.003,-432.055C594.007,-424.261 596.434,-414.822 598.682,-406.079"/>
<polygon fill="black" stroke="black" points="602.102,-406.832 601.203,-396.275 595.323,-405.089 602.102,-406.832"/>
</g>
<!-- HITs/suspension -->
<g id="node32" class="node"><title>HITs/suspension</title>
<ellipse fill="none" stroke="black" cx="422.645" cy="-306" rx="72.5877" ry="18"/>
<text text-anchor="middle" x="422.645" y="-302.3" font-family="Times New Roman,serif" font-size="14.00">HITs/suspension</text>
</g>
<!-- types/unit&#45;&gt;HITs/suspension -->
<g id="edge32" class="edge"><title>types/unit&#45;&gt;HITs/suspension</title>
<path fill="none" stroke="black" d="M552.758,-438.118C546.088,-436.065 539.155,-433.951 532.645,-432 477.674,-415.526 443.106,-441.888 408.645,-396 395.208,-378.107 401.162,-352.418 409.03,-333.234"/>
<polygon fill="black" stroke="black" points="412.33,-334.428 413.226,-323.871 405.942,-331.565 412.33,-334.428"/>
</g>
<!-- HITs/colimit&#45;&gt;HITs/truncation -->
<g id="edge34" class="edge"><title>HITs/colimit&#45;&gt;HITs/truncation</title>
<path fill="none" stroke="black" d="M779.338,-360.411C786.948,-351.82 796.39,-341.159 804.832,-331.627"/>
<polygon fill="black" stroke="black" points="807.617,-333.763 811.627,-323.956 802.377,-329.121 807.617,-333.763"/>
</g>
<!-- HITs/generalized&#45;&gt;HITs/truncation -->
<g id="edge35" class="edge"><title>HITs/generalized&#45;&gt;HITs/truncation</title>
<path fill="none" stroke="black" d="M891.502,-360.411C880.492,-351.345 866.685,-339.974 854.643,-330.057"/>
<polygon fill="black" stroke="black" points="856.589,-327.125 846.645,-323.47 852.139,-332.529 856.589,-327.125"/>
</g>
<!-- HITs/rat -->
<g id="node33" class="node"><title>HITs/rat</title>
<ellipse fill="none" stroke="black" cx="1042.65" cy="-306" rx="41.6928" ry="18"/>
<text text-anchor="middle" x="1042.65" y="-302.3" font-family="Times New Roman,serif" font-size="14.00">HITs/rat</text>
</g>
<!-- HITs/int&#45;&gt;HITs/rat -->
<g id="edge36" class="edge"><title>HITs/int&#45;&gt;HITs/rat</title>
<path fill="none" stroke="black" d="M1042.65,-359.697C1042.65,-351.983 1042.65,-342.712 1042.65,-334.112"/>
<polygon fill="black" stroke="black" points="1046.15,-334.104 1042.65,-324.104 1039.15,-334.104 1046.15,-334.104"/>
</g>
<!-- HITs/pushout&#45;&gt;HITs/reals -->
<g id="edge39" class="edge"><title>HITs/pushout&#45;&gt;HITs/reals</title>
<path fill="none" stroke="black" d="M429.553,-367.34C360.964,-354.114 238.411,-330.481 168.773,-317.052"/>
<polygon fill="black" stroke="black" points="169.377,-313.604 158.895,-315.147 168.051,-320.478 169.377,-313.604"/>
</g>
<!-- HITs/pushout&#45;&gt;HITs/suspension -->
<g id="edge41" class="edge"><title>HITs/pushout&#45;&gt;HITs/suspension</title>
<path fill="none" stroke="black" d="M466.137,-360.411C459.211,-351.906 450.634,-341.372 442.932,-331.914"/>
<polygon fill="black" stroke="black" points="445.481,-329.501 436.453,-323.956 440.053,-333.921 445.481,-329.501"/>
</g>
<!-- HITs/join -->
<g id="node35" class="node"><title>HITs/join</title>
<ellipse fill="none" stroke="black" cx="558.645" cy="-306" rx="45.4919" ry="18"/>
<text text-anchor="middle" x="558.645" y="-302.3" font-family="Times New Roman,serif" font-size="14.00">HITs/join</text>
</g>
<!-- HITs/pushout&#45;&gt;HITs/join -->
<g id="edge40" class="edge"><title>HITs/pushout&#45;&gt;HITs/join</title>
<path fill="none" stroke="black" d="M497.968,-360.765C508.486,-351.445 521.848,-339.605 533.354,-329.41"/>
<polygon fill="black" stroke="black" points="535.802,-331.917 540.965,-322.666 531.16,-326.678 535.802,-331.917"/>
</g>
<!-- types/product&#45;&gt;theorems/ua -->
<g id="edge27" class="edge"><title>types/product&#45;&gt;theorems/ua</title>
<path fill="none" stroke="black" d="M513.954,-217.116C500.177,-207.472 482.41,-195.035 467.383,-184.516"/>
<polygon fill="black" stroke="black" points="469.102,-181.447 458.903,-178.58 465.088,-187.182 469.102,-181.447"/>
</g>
<!-- cubical/cubes -->
<g id="node29" class="node"><title>cubical/cubes</title>
<ellipse fill="none" stroke="black" cx="607.645" cy="-162" rx="60.3893" ry="18"/>
<text text-anchor="middle" x="607.645" y="-158.3" font-family="Times New Roman,serif" font-size="14.00">cubical/cubes</text>
</g>
<!-- types/product&#45;&gt;cubical/cubes -->
<g id="edge28" class="edge"><title>types/product&#45;&gt;cubical/cubes</title>
<path fill="none" stroke="black" d="M553.471,-216.411C562.49,-207.519 573.757,-196.411 583.677,-186.631"/>
<polygon fill="black" stroke="black" points="586.276,-188.983 590.94,-179.47 581.362,-183.998 586.276,-188.983"/>
</g>
<!-- cubical/path -->
<g id="node39" class="node"><title>cubical/path</title>
<ellipse fill="none" stroke="black" cx="645.645" cy="-90" rx="54.6905" ry="18"/>
<text text-anchor="middle" x="645.645" y="-86.3" font-family="Times New Roman,serif" font-size="14.00">cubical/path</text>
</g>
<!-- cubical/cubes&#45;&gt;cubical/path -->
<g id="edge49" class="edge"><title>cubical/cubes&#45;&gt;cubical/path</title>
<path fill="none" stroke="black" d="M616.844,-144.055C621.278,-135.887 626.693,-125.912 631.626,-116.824"/>
<polygon fill="black" stroke="black" points="634.836,-118.247 636.531,-107.789 628.684,-114.908 634.836,-118.247"/>
</g>
<!-- types/sigma -->
<g id="node30" class="node"><title>types/sigma</title>
<ellipse fill="none" stroke="black" cx="662.645" cy="-738" rx="53.8905" ry="18"/>
<text text-anchor="middle" x="662.645" y="-734.3" font-family="Times New Roman,serif" font-size="14.00">types/sigma</text>
</g>
<!-- types/swale -->
<g id="node31" class="node"><title>types/swale</title>
<ellipse fill="none" stroke="black" cx="52.6453" cy="-378" rx="52.7911" ry="18"/>
<text text-anchor="middle" x="52.6453" y="-374.3" font-family="Times New Roman,serif" font-size="14.00">types/swale</text>
</g>
<!-- types/swale&#45;&gt;algebra/group -->
<g id="edge29" class="edge"><title>types/swale&#45;&gt;algebra/group</title>
<path fill="none" stroke="black" d="M52.8336,-359.827C53.2567,-341.821 54.5794,-312.756 58.6453,-288 60.0708,-279.32 62.2918,-270 64.548,-261.633"/>
<polygon fill="black" stroke="black" points="67.917,-262.581 67.2666,-252.006 61.1805,-260.679 67.917,-262.581"/>
</g>
<!-- types/swale&#45;&gt;HITs/reals -->
<g id="edge30" class="edge"><title>types/swale&#45;&gt;HITs/reals</title>
<path fill="none" stroke="black" d="M67.8124,-360.411C75.8625,-351.606 85.8995,-340.628 94.7766,-330.919"/>
<polygon fill="black" stroke="black" points="97.4225,-333.212 101.587,-323.47 92.2563,-328.489 97.4225,-333.212"/>
</g>
<!-- HITs/suspension&#45;&gt;HITs/circle -->
<g id="edge42" class="edge"><title>HITs/suspension&#45;&gt;HITs/circle</title>
<path fill="none" stroke="black" d="M414.952,-287.849C398.199,-250.505 358.329,-161.628 338.403,-117.209"/>
<polygon fill="black" stroke="black" points="341.529,-115.627 334.243,-107.935 335.142,-118.492 341.529,-115.627"/>
</g>
<!-- cubical/path&#45;&gt;cubical/V -->
<g id="edge52" class="edge"><title>cubical/path&#45;&gt;cubical/V</title>
<path fill="none" stroke="black" d="M608.761,-76.6465C572.832,-64.6127 518.213,-46.3193 480.173,-33.5786"/>
<polygon fill="black" stroke="black" points="480.991,-30.1616 470.397,-30.3044 478.768,-36.7992 480.991,-30.1616"/>
</g>
<!-- HITs/moebius -->
<g id="node40" class="node"><title>HITs/moebius</title>
<ellipse fill="none" stroke="black" cx="1039.65" cy="-18" rx="63.0888" ry="18"/>
<text text-anchor="middle" x="1039.65" y="-14.3" font-family="Times New Roman,serif" font-size="14.00">HITs/moebius</text>
</g>
<!-- cubical/path&#45;&gt;HITs/moebius -->
<g id="edge47" class="edge"><title>cubical/path&#45;&gt;HITs/moebius</title>
<path fill="none" stroke="black" d="M694.659,-82.0039C757.947,-72.7252 871.399,-55.2597 967.645,-36 972.919,-34.9447 978.394,-33.7797 983.863,-32.5693"/>
<polygon fill="black" stroke="black" points="984.675,-35.9742 993.657,-30.3552 983.131,-29.1465 984.675,-35.9742"/>
</g>
<!-- cubical/connection -->
<g id="node41" class="node"><title>cubical/connection</title>
<ellipse fill="none" stroke="black" cx="579.645" cy="-18" rx="79.0865" ry="18"/>
<text text-anchor="middle" x="579.645" y="-14.3" font-family="Times New Roman,serif" font-size="14.00">cubical/connection</text>
</g>
<!-- cubical/path&#45;&gt;cubical/connection -->
<g id="edge48" class="edge"><title>cubical/path&#45;&gt;cubical/connection</title>
<path fill="none" stroke="black" d="M630.004,-72.411C621.823,-63.7338 611.652,-52.946 602.596,-43.3418"/>
<polygon fill="black" stroke="black" points="605.039,-40.8311 595.633,-35.9562 599.946,-45.6332 605.039,-40.8311"/>
</g>
<!-- cubical/square -->
<g id="node42" class="node"><title>cubical/square</title>
<ellipse fill="none" stroke="black" cx="739.645" cy="-18" rx="63.0888" ry="18"/>
<text text-anchor="middle" x="739.645" y="-14.3" font-family="Times New Roman,serif" font-size="14.00">cubical/square</text>
</g>
<!-- cubical/path&#45;&gt;cubical/square -->
<g id="edge50" class="edge"><title>cubical/path&#45;&gt;cubical/square</title>
<path fill="none" stroke="black" d="M666.975,-73.1159C679.625,-63.6958 695.854,-51.6106 709.765,-41.2514"/>
<polygon fill="black" stroke="black" points="712.144,-43.8434 718.074,-35.0635 707.963,-38.2291 712.144,-43.8434"/>
</g>
<!-- cubical/example -->
<g id="node43" class="node"><title>cubical/example</title>
<ellipse fill="none" stroke="black" cx="889.645" cy="-18" rx="68.7879" ry="18"/>
<text text-anchor="middle" x="889.645" y="-14.3" font-family="Times New Roman,serif" font-size="14.00">cubical/example</text>
</g>
<!-- cubical/path&#45;&gt;cubical/example -->
<g id="edge51" class="edge"><title>cubical/path&#45;&gt;cubical/example</title>
<path fill="none" stroke="black" d="M685.391,-77.5975C726.153,-65.9035 789.846,-47.631 835.263,-34.6014"/>
<polygon fill="black" stroke="black" points="836.303,-37.9445 844.95,-31.8225 834.372,-31.2159 836.303,-37.9445"/>
</g>
<!-- theorems/functions -->
<g id="node44" class="node"><title>theorems/functions</title>
<ellipse fill="none" stroke="black" cx="656.645" cy="-594" rx="79.8859" ry="18"/>
<text text-anchor="middle" x="656.645" y="-590.3" font-family="Times New Roman,serif" font-size="14.00">theorems/functions</text>
</g>
<!-- theorems/functions&#45;&gt;types/equiv -->
<g id="edge53" class="edge"><title>theorems/functions&#45;&gt;types/equiv</title>
<path fill="none" stroke="black" d="M625.9,-577.291C605.329,-566.78 578.152,-552.894 556.433,-541.797"/>
<polygon fill="black" stroke="black" points="557.992,-538.663 547.494,-537.229 554.807,-544.896 557.992,-538.663"/>
</g>
<!-- theorems/topology -->
<g id="node45" class="node"><title>theorems/topology</title>
<ellipse fill="none" stroke="black" cx="813.645" cy="-738" rx="79.0865" ry="18"/>
<text text-anchor="middle" x="813.645" y="-734.3" font-family="Times New Roman,serif" font-size="14.00">theorems/topology</text>
</g>
</g>
</svg>
