<?xml version="1.0" encoding="UTF-8" standalone="no"?>
<!DOCTYPE svg PUBLIC "-//W3C//DTD SVG 1.1//EN"
 "http://www.w3.org/Graphics/SVG/1.1/DTD/svg11.dtd">
<!-- Generated by graphviz version 2.38.0 (20140413.2041)
 -->
<!-- Title: dependency_map Pages: 1 -->
<svg width="1573pt" height="836pt"
 viewBox="0.00 0.00 1572.92 836.00" xmlns="http://www.w3.org/2000/svg" xmlns:xlink="http://www.w3.org/1999/xlink">
<g id="graph0" class="graph" transform="scale(1 1) rotate(0) translate(4 832)">
<title>dependency_map</title>
<polygon fill="white" stroke="none" points="-4,4 -4,-832 1568.92,-832 1568.92,4 -4,4"/>
<!-- proto -->
<g id="node1" class="node"><title>proto</title>
<ellipse fill="none" stroke="black" cx="944" cy="-810" rx="30.5947" ry="18"/>
<text text-anchor="middle" x="944" y="-806.3" font-family="Times New Roman,serif" font-size="14.00">proto</text>
</g>
<!-- types/eq -->
<g id="node2" class="node"><title>types/eq</title>
<ellipse fill="none" stroke="black" cx="1004" cy="-738" rx="41.6928" ry="18"/>
<text text-anchor="middle" x="1004" y="-734.3" font-family="Times New Roman,serif" font-size="14.00">types/eq</text>
</g>
<!-- proto&#45;&gt;types/eq -->
<g id="edge1" class="edge"><title>proto&#45;&gt;types/eq</title>
<path fill="none" stroke="black" d="M957.316,-793.465C964.944,-784.566 974.681,-773.205 983.288,-763.164"/>
<polygon fill="black" stroke="black" points="986.035,-765.338 989.885,-755.467 980.72,-760.782 986.035,-765.338"/>
</g>
<!-- support -->
<g id="node4" class="node"><title>support</title>
<ellipse fill="none" stroke="black" cx="942" cy="-666" rx="38.9931" ry="18"/>
<text text-anchor="middle" x="942" y="-662.3" font-family="Times New Roman,serif" font-size="14.00">support</text>
</g>
<!-- types/eq&#45;&gt;support -->
<g id="edge13" class="edge"><title>types/eq&#45;&gt;support</title>
<path fill="none" stroke="black" d="M989.62,-720.765C981.717,-711.841 971.767,-700.608 963.009,-690.719"/>
<polygon fill="black" stroke="black" points="965.552,-688.313 956.302,-683.147 960.312,-692.954 965.552,-688.313"/>
</g>
<!-- types/dep_path -->
<g id="node15" class="node"><title>types/dep_path</title>
<ellipse fill="none" stroke="black" cx="1066" cy="-666" rx="66.8882" ry="18"/>
<text text-anchor="middle" x="1066" y="-662.3" font-family="Times New Roman,serif" font-size="14.00">types/dep_path</text>
</g>
<!-- types/eq&#45;&gt;types/dep_path -->
<g id="edge14" class="edge"><title>types/eq&#45;&gt;types/dep_path</title>
<path fill="none" stroke="black" d="M1018.38,-720.765C1026.17,-711.969 1035.95,-700.928 1044.62,-691.144"/>
<polygon fill="black" stroke="black" points="1047.26,-693.44 1051.27,-683.633 1042.02,-688.799 1047.26,-693.44"/>
</g>
<!-- meta/hott_theory -->
<g id="node3" class="node"><title>meta/hott_theory</title>
<ellipse fill="none" stroke="black" cx="1065" cy="-810" rx="72.2875" ry="18"/>
<text text-anchor="middle" x="1065" y="-806.3" font-family="Times New Roman,serif" font-size="14.00">meta/hott_theory</text>
</g>
<!-- meta/hott_theory&#45;&gt;types/eq -->
<g id="edge2" class="edge"><title>meta/hott_theory&#45;&gt;types/eq</title>
<path fill="none" stroke="black" d="M1050.23,-792.055C1042.63,-783.33 1033.23,-772.544 1024.9,-762.981"/>
<polygon fill="black" stroke="black" points="1027.42,-760.547 1018.21,-755.307 1022.14,-765.146 1027.42,-760.547"/>
</g>
<!-- types/equiv -->
<g id="node5" class="node"><title>types/equiv</title>
<ellipse fill="none" stroke="black" cx="1066" cy="-594" rx="51.9908" ry="18"/>
<text text-anchor="middle" x="1066" y="-590.3" font-family="Times New Roman,serif" font-size="14.00">types/equiv</text>
</g>
<!-- support&#45;&gt;types/equiv -->
<g id="edge3" class="edge"><title>support&#45;&gt;types/equiv</title>
<path fill="none" stroke="black" d="M965.615,-651.669C984.101,-641.233 1010.09,-626.561 1031,-614.761"/>
<polygon fill="black" stroke="black" points="1032.91,-617.698 1039.9,-609.734 1029.47,-611.602 1032.91,-617.698"/>
</g>
<!-- types/coproduct -->
<g id="node13" class="node"><title>types/coproduct</title>
<ellipse fill="none" stroke="black" cx="1381" cy="-522" rx="70.6878" ry="18"/>
<text text-anchor="middle" x="1381" y="-518.3" font-family="Times New Roman,serif" font-size="14.00">types/coproduct</text>
</g>
<!-- types/equiv&#45;&gt;types/coproduct -->
<g id="edge15" class="edge"><title>types/equiv&#45;&gt;types/coproduct</title>
<path fill="none" stroke="black" d="M1108.48,-583.559C1162.81,-571.487 1257.27,-550.495 1319.47,-536.673"/>
<polygon fill="black" stroke="black" points="1320.54,-540.021 1329.54,-534.435 1319.02,-533.187 1320.54,-540.021"/>
</g>
<!-- types/heq -->
<g id="node16" class="node"><title>types/heq</title>
<ellipse fill="none" stroke="black" cx="740" cy="-522" rx="46.2923" ry="18"/>
<text text-anchor="middle" x="740" y="-518.3" font-family="Times New Roman,serif" font-size="14.00">types/heq</text>
</g>
<!-- types/equiv&#45;&gt;types/heq -->
<g id="edge16" class="edge"><title>types/equiv&#45;&gt;types/heq</title>
<path fill="none" stroke="black" d="M1023.05,-583.777C962.651,-570.808 852.917,-547.246 789.279,-533.581"/>
<polygon fill="black" stroke="black" points="789.987,-530.154 779.475,-531.476 788.518,-536.998 789.987,-530.154"/>
</g>
<!-- HITs/infinitesimal -->
<g id="node17" class="node"><title>HITs/infinitesimal</title>
<ellipse fill="none" stroke="black" cx="997" cy="-522" rx="74.9875" ry="18"/>
<text text-anchor="middle" x="997" y="-518.3" font-family="Times New Roman,serif" font-size="14.00">HITs/infinitesimal</text>
</g>
<!-- types/equiv&#45;&gt;HITs/infinitesimal -->
<g id="edge17" class="edge"><title>types/equiv&#45;&gt;HITs/infinitesimal</title>
<path fill="none" stroke="black" d="M1050,-576.765C1041.24,-567.882 1030.23,-556.709 1020.51,-546.854"/>
<polygon fill="black" stroke="black" points="1022.91,-544.298 1013.4,-539.633 1017.92,-549.212 1022.91,-544.298"/>
</g>
<!-- types/lost -->
<g id="node18" class="node"><title>types/lost</title>
<ellipse fill="none" stroke="black" cx="1136" cy="-522" rx="46.2923" ry="18"/>
<text text-anchor="middle" x="1136" y="-518.3" font-family="Times New Roman,serif" font-size="14.00">types/lost</text>
</g>
<!-- types/equiv&#45;&gt;types/lost -->
<g id="edge18" class="edge"><title>types/equiv&#45;&gt;types/lost</title>
<path fill="none" stroke="black" d="M1082.24,-576.765C1091.25,-567.753 1102.61,-556.385 1112.57,-546.426"/>
<polygon fill="black" stroke="black" points="1115.26,-548.693 1119.85,-539.147 1110.31,-543.744 1115.26,-548.693"/>
</g>
<!-- types/unit -->
<g id="node19" class="node"><title>types/unit</title>
<ellipse fill="none" stroke="black" cx="1246" cy="-522" rx="46.2923" ry="18"/>
<text text-anchor="middle" x="1246" y="-518.3" font-family="Times New Roman,serif" font-size="14.00">types/unit</text>
</g>
<!-- types/equiv&#45;&gt;types/unit -->
<g id="edge19" class="edge"><title>types/equiv&#45;&gt;types/unit</title>
<path fill="none" stroke="black" d="M1099.43,-579.998C1129.29,-568.388 1173.1,-551.349 1205.05,-538.926"/>
<polygon fill="black" stroke="black" points="1206.5,-542.116 1214.55,-535.229 1203.96,-535.592 1206.5,-542.116"/>
</g>
<!-- types/sigma -->
<g id="node20" class="node"><title>types/sigma</title>
<ellipse fill="none" stroke="black" cx="908" cy="-378" rx="53.8905" ry="18"/>
<text text-anchor="middle" x="908" y="-374.3" font-family="Times New Roman,serif" font-size="14.00">types/sigma</text>
</g>
<!-- types/equiv&#45;&gt;types/sigma -->
<g id="edge20" class="edge"><title>types/equiv&#45;&gt;types/sigma</title>
<path fill="none" stroke="black" d="M1015.33,-589.853C980.514,-584.765 936.486,-571.929 913,-540 884.169,-500.803 892.22,-440.511 900.336,-405.909"/>
<polygon fill="black" stroke="black" points="903.772,-406.598 902.816,-396.046 896.983,-404.891 903.772,-406.598"/>
</g>
<!-- structures -->
<g id="node6" class="node"><title>structures</title>
<ellipse fill="none" stroke="black" cx="820" cy="-450" rx="46.2923" ry="18"/>
<text text-anchor="middle" x="820" y="-446.3" font-family="Times New Roman,serif" font-size="14.00">structures</text>
</g>
<!-- HITs/interval -->
<g id="node7" class="node"><title>HITs/interval</title>
<ellipse fill="none" stroke="black" cx="740" cy="-378" rx="57.6901" ry="18"/>
<text text-anchor="middle" x="740" y="-374.3" font-family="Times New Roman,serif" font-size="14.00">HITs/interval</text>
</g>
<!-- structures&#45;&gt;HITs/interval -->
<g id="edge4" class="edge"><title>structures&#45;&gt;HITs/interval</title>
<path fill="none" stroke="black" d="M801.847,-433.116C791.359,-423.939 777.981,-412.233 766.351,-402.057"/>
<polygon fill="black" stroke="black" points="768.467,-399.258 758.637,-395.307 763.858,-404.526 768.467,-399.258"/>
</g>
<!-- HITs/truncation -->
<g id="node8" class="node"><title>HITs/truncation</title>
<ellipse fill="none" stroke="black" cx="443" cy="-306" rx="68.4888" ry="18"/>
<text text-anchor="middle" x="443" y="-302.3" font-family="Times New Roman,serif" font-size="14.00">HITs/truncation</text>
</g>
<!-- structures&#45;&gt;HITs/truncation -->
<g id="edge5" class="edge"><title>structures&#45;&gt;HITs/truncation</title>
<path fill="none" stroke="black" d="M781.525,-439.82C750.678,-431.387 707.068,-416.991 673,-396 653.193,-383.796 655.26,-371.435 635,-360 596.851,-338.468 549.443,-325.268 511.281,-317.426"/>
<polygon fill="black" stroke="black" points="511.773,-313.956 501.284,-315.45 510.416,-320.823 511.773,-313.956"/>
</g>
<!-- algebra/core -->
<g id="node9" class="node"><title>algebra/core</title>
<ellipse fill="none" stroke="black" cx="1474" cy="-378" rx="55.4913" ry="18"/>
<text text-anchor="middle" x="1474" y="-374.3" font-family="Times New Roman,serif" font-size="14.00">algebra/core</text>
</g>
<!-- structures&#45;&gt;algebra/core -->
<g id="edge6" class="edge"><title>structures&#45;&gt;algebra/core</title>
<path fill="none" stroke="black" d="M865.874,-447.533C965.578,-443.765 1209.21,-431.42 1410,-396 1414.71,-395.17 1419.57,-394.161 1424.42,-393.054"/>
<polygon fill="black" stroke="black" points="1425.39,-396.419 1434.29,-390.668 1423.75,-389.615 1425.39,-396.419"/>
</g>
<!-- types/nat -->
<g id="node10" class="node"><title>types/nat</title>
<ellipse fill="none" stroke="black" cx="1022" cy="-234" rx="43.5923" ry="18"/>
<text text-anchor="middle" x="1022" y="-230.3" font-family="Times New Roman,serif" font-size="14.00">types/nat</text>
</g>
<!-- structures&#45;&gt;types/nat -->
<g id="edge7" class="edge"><title>structures&#45;&gt;types/nat</title>
<path fill="none" stroke="black" d="M817.24,-431.99C813.028,-399.67 808.912,-328.963 845,-288 883.218,-244.62 914.738,-268.985 970,-252 973.087,-251.051 976.271,-250.055 979.472,-249.04"/>
<polygon fill="black" stroke="black" points="980.593,-252.356 989.046,-245.969 978.455,-245.69 980.593,-252.356"/>
</g>
<!-- types/product -->
<g id="node25" class="node"><title>types/product</title>
<ellipse fill="none" stroke="black" cx="736" cy="-306" rx="61.99" ry="18"/>
<text text-anchor="middle" x="736" y="-302.3" font-family="Times New Roman,serif" font-size="14.00">types/product</text>
</g>
<!-- HITs/interval&#45;&gt;types/product -->
<g id="edge47" class="edge"><title>HITs/interval&#45;&gt;types/product</title>
<path fill="none" stroke="black" d="M739.011,-359.697C738.57,-351.983 738.041,-342.712 737.549,-334.112"/>
<polygon fill="black" stroke="black" points="741.042,-333.888 736.977,-324.104 734.054,-334.288 741.042,-333.888"/>
</g>
<!-- theorems/fibration -->
<g id="node28" class="node"><title>theorems/fibration</title>
<ellipse fill="none" stroke="black" cx="931" cy="-306" rx="76.8869" ry="18"/>
<text text-anchor="middle" x="931" y="-302.3" font-family="Times New Roman,serif" font-size="14.00">theorems/fibration</text>
</g>
<!-- HITs/interval&#45;&gt;theorems/fibration -->
<g id="edge48" class="edge"><title>HITs/interval&#45;&gt;theorems/fibration</title>
<path fill="none" stroke="black" d="M775.926,-363.834C805.825,-352.876 848.697,-337.164 881.788,-325.036"/>
<polygon fill="black" stroke="black" points="883.095,-328.285 891.28,-321.557 880.686,-321.712 883.095,-328.285"/>
</g>
<!-- theorems/prop -->
<g id="node29" class="node"><title>theorems/prop</title>
<ellipse fill="none" stroke="black" cx="631" cy="-234" rx="63.8893" ry="18"/>
<text text-anchor="middle" x="631" y="-230.3" font-family="Times New Roman,serif" font-size="14.00">theorems/prop</text>
</g>
<!-- HITs/interval&#45;&gt;theorems/prop -->
<g id="edge49" class="edge"><title>HITs/interval&#45;&gt;theorems/prop</title>
<path fill="none" stroke="black" d="M694.493,-366.728C671.592,-359.022 645.821,-345.903 632,-324 620.504,-305.781 621.232,-281.011 624.28,-262.228"/>
<polygon fill="black" stroke="black" points="627.753,-262.704 626.208,-252.222 620.879,-261.379 627.753,-262.704"/>
</g>
<!-- HITs/truncation&#45;&gt;theorems/prop -->
<g id="edge54" class="edge"><title>HITs/truncation&#45;&gt;theorems/prop</title>
<path fill="none" stroke="black" d="M481.045,-290.834C510.896,-279.72 552.583,-264.198 584.43,-252.34"/>
<polygon fill="black" stroke="black" points="585.823,-255.556 593.973,-248.787 583.38,-248.996 585.823,-255.556"/>
</g>
<!-- HITs/simplicial -->
<g id="node42" class="node"><title>HITs/simplicial</title>
<ellipse fill="none" stroke="black" cx="253" cy="-234" rx="65.7887" ry="18"/>
<text text-anchor="middle" x="253" y="-230.3" font-family="Times New Roman,serif" font-size="14.00">HITs/simplicial</text>
</g>
<!-- HITs/truncation&#45;&gt;HITs/simplicial -->
<g id="edge55" class="edge"><title>HITs/truncation&#45;&gt;HITs/simplicial</title>
<path fill="none" stroke="black" d="M405.007,-291.003C374.878,-279.902 332.608,-264.329 300.289,-252.422"/>
<polygon fill="black" stroke="black" points="301.196,-249.027 290.603,-248.854 298.776,-255.595 301.196,-249.027"/>
</g>
<!-- theorems/mere_eq_lemma -->
<g id="node43" class="node"><title>theorems/mere_eq_lemma</title>
<ellipse fill="none" stroke="black" cx="443" cy="-234" rx="105.881" ry="18"/>
<text text-anchor="middle" x="443" y="-230.3" font-family="Times New Roman,serif" font-size="14.00">theorems/mere_eq_lemma</text>
</g>
<!-- HITs/truncation&#45;&gt;theorems/mere_eq_lemma -->
<g id="edge56" class="edge"><title>HITs/truncation&#45;&gt;theorems/mere_eq_lemma</title>
<path fill="none" stroke="black" d="M443,-287.697C443,-279.983 443,-270.712 443,-262.112"/>
<polygon fill="black" stroke="black" points="446.5,-262.104 443,-252.104 439.5,-262.104 446.5,-262.104"/>
</g>
<!-- theorems/graphs -->
<g id="node44" class="node"><title>theorems/graphs</title>
<ellipse fill="none" stroke="black" cx="99" cy="-234" rx="70.6878" ry="18"/>
<text text-anchor="middle" x="99" y="-230.3" font-family="Times New Roman,serif" font-size="14.00">theorems/graphs</text>
</g>
<!-- HITs/truncation&#45;&gt;theorems/graphs -->
<g id="edge57" class="edge"><title>HITs/truncation&#45;&gt;theorems/graphs</title>
<path fill="none" stroke="black" d="M389.91,-294.618C336.376,-284.094 251.387,-267.234 178,-252 172.591,-250.877 166.977,-249.698 161.35,-248.505"/>
<polygon fill="black" stroke="black" points="161.755,-245.013 151.246,-246.355 160.298,-251.86 161.755,-245.013"/>
</g>
<!-- algebra/group -->
<g id="node11" class="node"><title>algebra/group</title>
<ellipse fill="none" stroke="black" cx="1474" cy="-306" rx="60.3893" ry="18"/>
<text text-anchor="middle" x="1474" y="-302.3" font-family="Times New Roman,serif" font-size="14.00">algebra/group</text>
</g>
<!-- algebra/core&#45;&gt;algebra/group -->
<g id="edge8" class="edge"><title>algebra/core&#45;&gt;algebra/group</title>
<path fill="none" stroke="black" d="M1474,-359.697C1474,-351.983 1474,-342.712 1474,-334.112"/>
<polygon fill="black" stroke="black" points="1477.5,-334.104 1474,-324.104 1470.5,-334.104 1477.5,-334.104"/>
</g>
<!-- theorems/nat -->
<g id="node24" class="node"><title>theorems/nat</title>
<ellipse fill="none" stroke="black" cx="1022" cy="-162" rx="57.3905" ry="18"/>
<text text-anchor="middle" x="1022" y="-158.3" font-family="Times New Roman,serif" font-size="14.00">theorems/nat</text>
</g>
<!-- types/nat&#45;&gt;theorems/nat -->
<g id="edge26" class="edge"><title>types/nat&#45;&gt;theorems/nat</title>
<path fill="none" stroke="black" d="M1022,-215.697C1022,-207.983 1022,-198.712 1022,-190.112"/>
<polygon fill="black" stroke="black" points="1025.5,-190.104 1022,-180.104 1018.5,-190.104 1025.5,-190.104"/>
</g>
<!-- algebra/homology -->
<g id="node12" class="node"><title>algebra/homology</title>
<ellipse fill="none" stroke="black" cx="1459" cy="-234" rx="75.2868" ry="18"/>
<text text-anchor="middle" x="1459" y="-230.3" font-family="Times New Roman,serif" font-size="14.00">algebra/homology</text>
</g>
<!-- algebra/group&#45;&gt;algebra/homology -->
<g id="edge9" class="edge"><title>algebra/group&#45;&gt;algebra/homology</title>
<path fill="none" stroke="black" d="M1470.29,-287.697C1468.64,-279.983 1466.65,-270.712 1464.81,-262.112"/>
<polygon fill="black" stroke="black" points="1468.18,-261.149 1462.67,-252.104 1461.34,-262.616 1468.18,-261.149"/>
</g>
<!-- types/coproduct&#45;&gt;structures -->
<g id="edge10" class="edge"><title>types/coproduct&#45;&gt;structures</title>
<path fill="none" stroke="black" d="M1329.93,-509.355C1320.35,-507.396 1310.39,-505.512 1301,-504 1147.61,-479.315 964.833,-462.637 875.168,-455.279"/>
<polygon fill="black" stroke="black" points="875.213,-451.771 864.963,-454.449 874.646,-458.748 875.213,-451.771"/>
</g>
<!-- types/integer -->
<g id="node14" class="node"><title>types/integer</title>
<ellipse fill="none" stroke="black" cx="1427" cy="-450" rx="56.59" ry="18"/>
<text text-anchor="middle" x="1427" y="-446.3" font-family="Times New Roman,serif" font-size="14.00">types/integer</text>
</g>
<!-- types/coproduct&#45;&gt;types/integer -->
<g id="edge11" class="edge"><title>types/coproduct&#45;&gt;types/integer</title>
<path fill="none" stroke="black" d="M1392.14,-504.055C1397.62,-495.715 1404.33,-485.491 1410.41,-476.252"/>
<polygon fill="black" stroke="black" points="1413.4,-478.068 1415.97,-467.789 1407.55,-474.224 1413.4,-478.068"/>
</g>
<!-- types/integer&#45;&gt;algebra/core -->
<g id="edge23" class="edge"><title>types/integer&#45;&gt;algebra/core</title>
<path fill="none" stroke="black" d="M1438.38,-432.055C1443.98,-423.715 1450.84,-413.491 1457.05,-404.252"/>
<polygon fill="black" stroke="black" points="1460.06,-406.042 1462.73,-395.789 1454.25,-402.14 1460.06,-406.042"/>
</g>
<!-- HITs/circle -->
<g id="node22" class="node"><title>HITs/circle</title>
<ellipse fill="none" stroke="black" cx="1222" cy="-90" rx="51.9908" ry="18"/>
<text text-anchor="middle" x="1222" y="-86.3" font-family="Times New Roman,serif" font-size="14.00">HITs/circle</text>
</g>
<!-- types/integer&#45;&gt;HITs/circle -->
<g id="edge24" class="edge"><title>types/integer&#45;&gt;HITs/circle</title>
<path fill="none" stroke="black" d="M1469.66,-438.16C1492.98,-430.152 1520.58,-416.923 1538,-396 1564.22,-364.517 1562,-347.969 1562,-307 1562,-307 1562,-307 1562,-233 1562,-113.914 1382.2,-92.9341 1284.11,-90.35"/>
<polygon fill="black" stroke="black" points="1284.08,-86.8488 1274.01,-90.1412 1283.93,-93.8473 1284.08,-86.8488"/>
</g>
<!-- HITs/reals -->
<g id="node23" class="node"><title>HITs/reals</title>
<ellipse fill="none" stroke="black" cx="1347" cy="-306" rx="48.9926" ry="18"/>
<text text-anchor="middle" x="1347" y="-302.3" font-family="Times New Roman,serif" font-size="14.00">HITs/reals</text>
</g>
<!-- types/integer&#45;&gt;HITs/reals -->
<g id="edge25" class="edge"><title>types/integer&#45;&gt;HITs/reals</title>
<path fill="none" stroke="black" d="M1373.64,-443.718C1342.52,-437.585 1305.65,-424.38 1286,-396 1276.89,-382.846 1279.36,-374.559 1286,-360 1291.89,-347.081 1302.66,-336.094 1313.52,-327.529"/>
<polygon fill="black" stroke="black" points="1315.79,-330.206 1321.77,-321.461 1311.64,-324.567 1315.79,-330.206"/>
</g>
<!-- types/dep_path&#45;&gt;types/equiv -->
<g id="edge12" class="edge"><title>types/dep_path&#45;&gt;types/equiv</title>
<path fill="none" stroke="black" d="M1066,-647.697C1066,-639.983 1066,-630.712 1066,-622.112"/>
<polygon fill="black" stroke="black" points="1069.5,-622.104 1066,-612.104 1062.5,-622.104 1069.5,-622.104"/>
</g>
<!-- types/heq&#45;&gt;HITs/interval -->
<g id="edge21" class="edge"><title>types/heq&#45;&gt;HITs/interval</title>
<path fill="none" stroke="black" d="M740,-503.871C740,-479.67 740,-435.211 740,-406.393"/>
<polygon fill="black" stroke="black" points="743.5,-406.189 740,-396.189 736.5,-406.189 743.5,-406.189"/>
</g>
<!-- HITs/graph -->
<g id="node21" class="node"><title>HITs/graph</title>
<ellipse fill="none" stroke="black" cx="388" cy="-450" rx="52.7911" ry="18"/>
<text text-anchor="middle" x="388" y="-446.3" font-family="Times New Roman,serif" font-size="14.00">HITs/graph</text>
</g>
<!-- types/heq&#45;&gt;HITs/graph -->
<g id="edge22" class="edge"><title>types/heq&#45;&gt;HITs/graph</title>
<path fill="none" stroke="black" d="M699.964,-513.038C636.761,-500.47 513.747,-476.007 442.532,-461.844"/>
<polygon fill="black" stroke="black" points="442.904,-458.35 432.414,-459.832 441.539,-465.216 442.904,-458.35"/>
</g>
<!-- types/unit&#45;&gt;structures -->
<g id="edge33" class="edge"><title>types/unit&#45;&gt;structures</title>
<path fill="none" stroke="black" d="M1212.19,-509.633C1205.24,-507.554 1197.92,-505.554 1191,-504 1079.97,-479.074 947.482,-463.468 874.682,-456.082"/>
<polygon fill="black" stroke="black" points="874.683,-452.565 864.384,-455.052 873.986,-459.53 874.683,-452.565"/>
</g>
<!-- HITs/suspension -->
<g id="node31" class="node"><title>HITs/suspension</title>
<ellipse fill="none" stroke="black" cx="1207" cy="-306" rx="72.5877" ry="18"/>
<text text-anchor="middle" x="1207" y="-302.3" font-family="Times New Roman,serif" font-size="14.00">HITs/suspension</text>
</g>
<!-- types/unit&#45;&gt;HITs/suspension -->
<g id="edge34" class="edge"><title>types/unit&#45;&gt;HITs/suspension</title>
<path fill="none" stroke="black" d="M1242.87,-503.849C1236.11,-466.753 1220.09,-378.81 1211.94,-334.103"/>
<polygon fill="black" stroke="black" points="1215.38,-333.443 1210.14,-324.232 1208.49,-334.698 1215.38,-333.443"/>
</g>
<!-- types/sigma&#45;&gt;theorems/fibration -->
<g id="edge29" class="edge"><title>types/sigma&#45;&gt;theorems/fibration</title>
<path fill="none" stroke="black" d="M913.568,-360.055C916.156,-352.176 919.297,-342.617 922.196,-333.794"/>
<polygon fill="black" stroke="black" points="925.527,-334.868 925.324,-324.275 918.877,-332.683 925.527,-334.868"/>
</g>
<!-- types/sigma&#45;&gt;theorems/prop -->
<g id="edge30" class="edge"><title>types/sigma&#45;&gt;theorems/prop</title>
<path fill="none" stroke="black" d="M860.914,-369.205C794.517,-357.842 679.772,-336.705 665,-324 646.929,-308.458 638.429,-282.213 634.451,-262.239"/>
<polygon fill="black" stroke="black" points="637.865,-261.435 632.715,-252.176 630.966,-262.625 637.865,-261.435"/>
</g>
<!-- HITs/moebius -->
<g id="node34" class="node"><title>HITs/moebius</title>
<ellipse fill="none" stroke="black" cx="629" cy="-18" rx="63.0888" ry="18"/>
<text text-anchor="middle" x="629" y="-14.3" font-family="Times New Roman,serif" font-size="14.00">HITs/moebius</text>
</g>
<!-- HITs/graph&#45;&gt;HITs/moebius -->
<g id="edge40" class="edge"><title>HITs/graph&#45;&gt;HITs/moebius</title>
<path fill="none" stroke="black" d="M337.425,-444.823C260.17,-437.727 117.082,-421.549 73,-396 28.7374,-370.346 0,-358.159 0,-307 0,-307 0,-307 0,-161 0,-48.1252 390.283,-24.9665 555.992,-20.2206"/>
<polygon fill="black" stroke="black" points="556.198,-23.7164 566.1,-19.9461 556.008,-16.719 556.198,-23.7164"/>
</g>
<!-- HITs/colimit -->
<g id="node35" class="node"><title>HITs/colimit</title>
<ellipse fill="none" stroke="black" cx="238" cy="-378" rx="56.59" ry="18"/>
<text text-anchor="middle" x="238" y="-374.3" font-family="Times New Roman,serif" font-size="14.00">HITs/colimit</text>
</g>
<!-- HITs/graph&#45;&gt;HITs/colimit -->
<g id="edge41" class="edge"><title>HITs/graph&#45;&gt;HITs/colimit</title>
<path fill="none" stroke="black" d="M358.006,-435.003C334.959,-424.248 302.916,-409.294 277.737,-397.544"/>
<polygon fill="black" stroke="black" points="278.998,-394.27 268.456,-393.213 276.038,-400.614 278.998,-394.27"/>
</g>
<!-- HITs/generalized -->
<g id="node36" class="node"><title>HITs/generalized</title>
<ellipse fill="none" stroke="black" cx="554" cy="-378" rx="72.2875" ry="18"/>
<text text-anchor="middle" x="554" y="-374.3" font-family="Times New Roman,serif" font-size="14.00">HITs/generalized</text>
</g>
<!-- HITs/graph&#45;&gt;HITs/generalized -->
<g id="edge42" class="edge"><title>HITs/graph&#45;&gt;HITs/generalized</title>
<path fill="none" stroke="black" d="M420.006,-435.503C445.485,-424.759 481.43,-409.602 509.677,-397.69"/>
<polygon fill="black" stroke="black" points="511.081,-400.897 518.935,-393.786 508.361,-394.447 511.081,-400.897"/>
</g>
<!-- HITs/int -->
<g id="node37" class="node"><title>HITs/int</title>
<ellipse fill="none" stroke="black" cx="123" cy="-378" rx="40.8928" ry="18"/>
<text text-anchor="middle" x="123" y="-374.3" font-family="Times New Roman,serif" font-size="14.00">HITs/int</text>
</g>
<!-- HITs/graph&#45;&gt;HITs/int -->
<g id="edge43" class="edge"><title>HITs/graph&#45;&gt;HITs/int</title>
<path fill="none" stroke="black" d="M344.651,-439.615C300.811,-429.832 231.248,-413.505 172,-396 169.072,-395.135 166.06,-394.201 163.038,-393.231"/>
<polygon fill="black" stroke="black" points="164.033,-389.874 153.44,-390.054 161.833,-396.519 164.033,-389.874"/>
</g>
<!-- HITs/pushout -->
<g id="node38" class="node"><title>HITs/pushout</title>
<ellipse fill="none" stroke="black" cx="1100" cy="-378" rx="61.99" ry="18"/>
<text text-anchor="middle" x="1100" y="-374.3" font-family="Times New Roman,serif" font-size="14.00">HITs/pushout</text>
</g>
<!-- HITs/graph&#45;&gt;HITs/pushout -->
<g id="edge44" class="edge"><title>HITs/graph&#45;&gt;HITs/pushout</title>
<path fill="none" stroke="black" d="M438.758,-445.079C540.073,-437.1 774.538,-417.866 971,-396 992.127,-393.649 1015.15,-390.729 1035.83,-387.976"/>
<polygon fill="black" stroke="black" points="1036.32,-391.441 1045.77,-386.642 1035.39,-384.504 1036.32,-391.441"/>
</g>
<!-- types/precategory -->
<g id="node39" class="node"><title>types/precategory</title>
<ellipse fill="none" stroke="black" cx="388" cy="-378" rx="75.2868" ry="18"/>
<text text-anchor="middle" x="388" y="-374.3" font-family="Times New Roman,serif" font-size="14.00">types/precategory</text>
</g>
<!-- HITs/graph&#45;&gt;types/precategory -->
<g id="edge45" class="edge"><title>HITs/graph&#45;&gt;types/precategory</title>
<path fill="none" stroke="black" d="M388,-431.697C388,-423.983 388,-414.712 388,-406.112"/>
<polygon fill="black" stroke="black" points="391.5,-406.104 388,-396.104 384.5,-406.104 391.5,-406.104"/>
</g>
<!-- HITs/ntrunc -->
<g id="node32" class="node"><title>HITs/ntrunc</title>
<ellipse fill="none" stroke="black" cx="1222" cy="-18" rx="55.4913" ry="18"/>
<text text-anchor="middle" x="1222" y="-14.3" font-family="Times New Roman,serif" font-size="14.00">HITs/ntrunc</text>
</g>
<!-- HITs/circle&#45;&gt;HITs/ntrunc -->
<g id="edge35" class="edge"><title>HITs/circle&#45;&gt;HITs/ntrunc</title>
<path fill="none" stroke="black" d="M1222,-71.6966C1222,-63.9827 1222,-54.7125 1222,-46.1124"/>
<polygon fill="black" stroke="black" points="1225.5,-46.1043 1222,-36.1043 1218.5,-46.1044 1225.5,-46.1043"/>
</g>
<!-- theorems/hopf -->
<g id="node33" class="node"><title>theorems/hopf</title>
<ellipse fill="none" stroke="black" cx="1479" cy="-18" rx="63.8893" ry="18"/>
<text text-anchor="middle" x="1479" y="-14.3" font-family="Times New Roman,serif" font-size="14.00">theorems/hopf</text>
</g>
<!-- HITs/circle&#45;&gt;theorems/hopf -->
<g id="edge36" class="edge"><title>HITs/circle&#45;&gt;theorems/hopf</title>
<path fill="none" stroke="black" d="M1261.59,-78.2159C1305.33,-66.3041 1376.01,-47.0523 1424.85,-33.7498"/>
<polygon fill="black" stroke="black" points="1425.89,-37.0945 1434.61,-31.0895 1424.05,-30.3406 1425.89,-37.0945"/>
</g>
<!-- HITs/circle&#45;&gt;HITs/moebius -->
<g id="edge37" class="edge"><title>HITs/circle&#45;&gt;HITs/moebius</title>
<path fill="none" stroke="black" d="M1184.49,-77.4536C1176.78,-75.3889 1168.67,-73.44 1161,-72 998.278,-41.4565 804.034,-27.7457 701.196,-22.2391"/>
<polygon fill="black" stroke="black" points="701.099,-18.7292 690.929,-21.7004 700.732,-25.7196 701.099,-18.7292"/>
</g>
<!-- theorems/nat&#45;&gt;HITs/circle -->
<g id="edge67" class="edge"><title>theorems/nat&#45;&gt;HITs/circle</title>
<path fill="none" stroke="black" d="M1058.68,-148.161C1092.08,-136.472 1141.48,-119.18 1177.2,-106.679"/>
<polygon fill="black" stroke="black" points="1178.61,-109.895 1186.89,-103.288 1176.3,-103.288 1178.61,-109.895"/>
</g>
<!-- cubical/cubes -->
<g id="node26" class="node"><title>cubical/cubes</title>
<ellipse fill="none" stroke="black" cx="773" cy="-234" rx="60.3893" ry="18"/>
<text text-anchor="middle" x="773" y="-230.3" font-family="Times New Roman,serif" font-size="14.00">cubical/cubes</text>
</g>
<!-- types/product&#45;&gt;cubical/cubes -->
<g id="edge27" class="edge"><title>types/product&#45;&gt;cubical/cubes</title>
<path fill="none" stroke="black" d="M744.957,-288.055C749.211,-280.007 754.392,-270.205 759.138,-261.226"/>
<polygon fill="black" stroke="black" points="762.29,-262.752 763.869,-252.275 756.101,-259.481 762.29,-262.752"/>
</g>
<!-- theorems/ua -->
<g id="node27" class="node"><title>theorems/ua</title>
<ellipse fill="none" stroke="black" cx="906" cy="-234" rx="54.6905" ry="18"/>
<text text-anchor="middle" x="906" y="-230.3" font-family="Times New Roman,serif" font-size="14.00">theorems/ua</text>
</g>
<!-- types/product&#45;&gt;theorems/ua -->
<g id="edge28" class="edge"><title>types/product&#45;&gt;theorems/ua</title>
<path fill="none" stroke="black" d="M770.402,-290.834C797.337,-279.744 834.928,-264.265 863.702,-252.417"/>
<polygon fill="black" stroke="black" points="865.179,-255.594 873.093,-248.55 862.514,-249.121 865.179,-255.594"/>
</g>
<!-- cubical/path -->
<g id="node46" class="node"><title>cubical/path</title>
<ellipse fill="none" stroke="black" cx="773" cy="-162" rx="54.6905" ry="18"/>
<text text-anchor="middle" x="773" y="-158.3" font-family="Times New Roman,serif" font-size="14.00">cubical/path</text>
</g>
<!-- cubical/cubes&#45;&gt;cubical/path -->
<g id="edge58" class="edge"><title>cubical/cubes&#45;&gt;cubical/path</title>
<path fill="none" stroke="black" d="M773,-215.697C773,-207.983 773,-198.712 773,-190.112"/>
<polygon fill="black" stroke="black" points="776.5,-190.104 773,-180.104 769.5,-190.104 776.5,-190.104"/>
</g>
<!-- theorems/ua&#45;&gt;theorems/nat -->
<g id="edge68" class="edge"><title>theorems/ua&#45;&gt;theorems/nat</title>
<path fill="none" stroke="black" d="M931.17,-217.811C947.777,-207.79 969.737,-194.538 987.904,-183.575"/>
<polygon fill="black" stroke="black" points="989.725,-186.564 996.478,-178.401 986.108,-180.571 989.725,-186.564"/>
</g>
<!-- cubical/V -->
<g id="node49" class="node"><title>cubical/V</title>
<ellipse fill="none" stroke="black" cx="593" cy="-90" rx="45.4919" ry="18"/>
<text text-anchor="middle" x="593" y="-86.3" font-family="Times New Roman,serif" font-size="14.00">cubical/V</text>
</g>
<!-- theorems/ua&#45;&gt;cubical/V -->
<g id="edge69" class="edge"><title>theorems/ua&#45;&gt;cubical/V</title>
<path fill="none" stroke="black" d="M864.694,-221.993C807.454,-206.726 710.786,-180.882 709,-180 673.931,-162.685 639.056,-133.973 616.844,-113.855"/>
<polygon fill="black" stroke="black" points="618.984,-111.068 609.257,-106.869 614.243,-116.218 618.984,-111.068"/>
</g>
<!-- theorems/fibration&#45;&gt;theorems/hopf -->
<g id="edge65" class="edge"><title>theorems/fibration&#45;&gt;theorems/hopf</title>
<path fill="none" stroke="black" d="M985.421,-293.161C995.863,-291.196 1006.74,-289.36 1017,-288 1075.07,-280.304 1503.02,-294.814 1543,-252 1598.12,-192.976 1534.14,-90.9568 1499.02,-43.9891"/>
<polygon fill="black" stroke="black" points="1501.69,-41.7087 1492.84,-35.8826 1496.12,-45.9555 1501.69,-41.7087"/>
</g>
<!-- types/swale -->
<g id="node30" class="node"><title>types/swale</title>
<ellipse fill="none" stroke="black" cx="1348" cy="-378" rx="52.7911" ry="18"/>
<text text-anchor="middle" x="1348" y="-374.3" font-family="Times New Roman,serif" font-size="14.00">types/swale</text>
</g>
<!-- types/swale&#45;&gt;algebra/group -->
<g id="edge31" class="edge"><title>types/swale&#45;&gt;algebra/group</title>
<path fill="none" stroke="black" d="M1374.41,-362.326C1392.81,-352.105 1417.58,-338.344 1437.81,-327.104"/>
<polygon fill="black" stroke="black" points="1439.71,-330.054 1446.75,-322.138 1436.31,-323.935 1439.71,-330.054"/>
</g>
<!-- types/swale&#45;&gt;HITs/reals -->
<g id="edge32" class="edge"><title>types/swale&#45;&gt;HITs/reals</title>
<path fill="none" stroke="black" d="M1347.75,-359.697C1347.64,-351.983 1347.51,-342.712 1347.39,-334.112"/>
<polygon fill="black" stroke="black" points="1350.89,-334.053 1347.24,-324.104 1343.89,-334.153 1350.89,-334.053"/>
</g>
<!-- HITs/suspension&#45;&gt;HITs/circle -->
<g id="edge53" class="edge"><title>HITs/suspension&#45;&gt;HITs/circle</title>
<path fill="none" stroke="black" d="M1208.2,-287.849C1210.8,-250.832 1216.94,-163.181 1220.08,-118.386"/>
<polygon fill="black" stroke="black" points="1223.58,-118.453 1220.79,-108.232 1216.6,-117.963 1223.58,-118.453"/>
</g>
<!-- HITs/colimit&#45;&gt;HITs/truncation -->
<g id="edge38" class="edge"><title>HITs/colimit&#45;&gt;HITs/truncation</title>
<path fill="none" stroke="black" d="M275.124,-364.324C308.135,-353.052 356.672,-336.478 393.077,-324.047"/>
<polygon fill="black" stroke="black" points="394.667,-327.202 403,-320.659 392.405,-320.578 394.667,-327.202"/>
</g>
<!-- HITs/generalized&#45;&gt;HITs/truncation -->
<g id="edge39" class="edge"><title>HITs/generalized&#45;&gt;HITs/truncation</title>
<path fill="none" stroke="black" d="M528.812,-361.116C513.485,-351.45 493.708,-338.978 477.004,-328.444"/>
<polygon fill="black" stroke="black" points="478.413,-325.195 468.088,-322.821 474.679,-331.116 478.413,-325.195"/>
</g>
<!-- HITs/rat -->
<g id="node40" class="node"><title>HITs/rat</title>
<ellipse fill="none" stroke="black" cx="123" cy="-306" rx="41.6928" ry="18"/>
<text text-anchor="middle" x="123" y="-302.3" font-family="Times New Roman,serif" font-size="14.00">HITs/rat</text>
</g>
<!-- HITs/int&#45;&gt;HITs/rat -->
<g id="edge46" class="edge"><title>HITs/int&#45;&gt;HITs/rat</title>
<path fill="none" stroke="black" d="M123,-359.697C123,-351.983 123,-342.712 123,-334.112"/>
<polygon fill="black" stroke="black" points="126.5,-334.104 123,-324.104 119.5,-334.104 126.5,-334.104"/>
</g>
<!-- HITs/pushout&#45;&gt;HITs/reals -->
<g id="edge50" class="edge"><title>HITs/pushout&#45;&gt;HITs/reals</title>
<path fill="none" stroke="black" d="M1143.2,-365.04C1181.54,-354.391 1239.04,-338.325 1289,-324 1292.75,-322.924 1296.64,-321.803 1300.54,-320.671"/>
<polygon fill="black" stroke="black" points="1301.58,-324.013 1310.2,-317.857 1299.62,-317.292 1301.58,-324.013"/>
</g>
<!-- HITs/pushout&#45;&gt;HITs/suspension -->
<g id="edge51" class="edge"><title>HITs/pushout&#45;&gt;HITs/suspension</title>
<path fill="none" stroke="black" d="M1124.01,-361.291C1138.67,-351.7 1157.63,-339.298 1173.72,-328.769"/>
<polygon fill="black" stroke="black" points="1175.87,-331.546 1182.33,-323.142 1172.04,-325.688 1175.87,-331.546"/>
</g>
<!-- HITs/join -->
<g id="node41" class="node"><title>HITs/join</title>
<ellipse fill="none" stroke="black" cx="1071" cy="-306" rx="45.4919" ry="18"/>
<text text-anchor="middle" x="1071" y="-302.3" font-family="Times New Roman,serif" font-size="14.00">HITs/join</text>
</g>
<!-- HITs/pushout&#45;&gt;HITs/join -->
<g id="edge52" class="edge"><title>HITs/pushout&#45;&gt;HITs/join</title>
<path fill="none" stroke="black" d="M1092.98,-360.055C1089.63,-351.973 1085.55,-342.121 1081.82,-333.112"/>
<polygon fill="black" stroke="black" points="1085.02,-331.688 1077.96,-323.789 1078.55,-334.367 1085.02,-331.688"/>
</g>
<!-- cubical/connection -->
<g id="node45" class="node"><title>cubical/connection</title>
<ellipse fill="none" stroke="black" cx="773" cy="-90" rx="79.0865" ry="18"/>
<text text-anchor="middle" x="773" y="-86.3" font-family="Times New Roman,serif" font-size="14.00">cubical/connection</text>
</g>
<!-- cubical/path&#45;&gt;HITs/moebius -->
<g id="edge59" class="edge"><title>cubical/path&#45;&gt;HITs/moebius</title>
<path fill="none" stroke="black" d="M742.061,-146.919C723.988,-137.647 701.554,-124.233 685,-108 666.379,-89.7393 651.101,-64.1424 641.234,-45.0843"/>
<polygon fill="black" stroke="black" points="644.317,-43.4229 636.707,-36.0516 638.059,-46.5598 644.317,-43.4229"/>
</g>
<!-- cubical/path&#45;&gt;cubical/connection -->
<g id="edge60" class="edge"><title>cubical/path&#45;&gt;cubical/connection</title>
<path fill="none" stroke="black" d="M773,-143.697C773,-135.983 773,-126.712 773,-118.112"/>
<polygon fill="black" stroke="black" points="776.5,-118.104 773,-108.104 769.5,-118.104 776.5,-118.104"/>
</g>
<!-- cubical/example -->
<g id="node47" class="node"><title>cubical/example</title>
<ellipse fill="none" stroke="black" cx="939" cy="-90" rx="68.7879" ry="18"/>
<text text-anchor="middle" x="939" y="-86.3" font-family="Times New Roman,serif" font-size="14.00">cubical/example</text>
</g>
<!-- cubical/path&#45;&gt;cubical/example -->
<g id="edge61" class="edge"><title>cubical/path&#45;&gt;cubical/example</title>
<path fill="none" stroke="black" d="M805.401,-147.337C831.001,-136.542 866.988,-121.367 895.163,-109.486"/>
<polygon fill="black" stroke="black" points="896.538,-112.704 904.392,-105.594 893.818,-106.254 896.538,-112.704"/>
</g>
<!-- cubical/square -->
<g id="node48" class="node"><title>cubical/square</title>
<ellipse fill="none" stroke="black" cx="1089" cy="-90" rx="63.0888" ry="18"/>
<text text-anchor="middle" x="1089" y="-86.3" font-family="Times New Roman,serif" font-size="14.00">cubical/square</text>
</g>
<!-- cubical/path&#45;&gt;cubical/square -->
<g id="edge62" class="edge"><title>cubical/path&#45;&gt;cubical/square</title>
<path fill="none" stroke="black" d="M817.578,-151.569C866.537,-141.151 947.455,-123.762 1017,-108 1021.96,-106.876 1027.11,-105.692 1032.27,-104.495"/>
<polygon fill="black" stroke="black" points="1033.22,-107.867 1042.16,-102.187 1031.63,-101.05 1033.22,-107.867"/>
</g>
<!-- cubical/path&#45;&gt;cubical/V -->
<g id="edge63" class="edge"><title>cubical/path&#45;&gt;cubical/V</title>
<path fill="none" stroke="black" d="M739.143,-147.834C709.241,-136.205 665.571,-119.222 633.759,-106.851"/>
<polygon fill="black" stroke="black" points="634.884,-103.533 624.296,-103.171 632.347,-110.057 634.884,-103.533"/>
</g>
<!-- cubical/V&#45;&gt;HITs/moebius -->
<g id="edge64" class="edge"><title>cubical/V&#45;&gt;HITs/moebius</title>
<path fill="none" stroke="black" d="M601.715,-72.055C605.854,-64.0067 610.895,-54.2046 615.512,-45.2259"/>
<polygon fill="black" stroke="black" points="618.655,-46.7689 620.116,-36.2753 612.43,-43.5675 618.655,-46.7689"/>
</g>
<!-- theorems/functions -->
<g id="node50" class="node"><title>theorems/functions</title>
<ellipse fill="none" stroke="black" cx="1231" cy="-666" rx="79.8859" ry="18"/>
<text text-anchor="middle" x="1231" y="-662.3" font-family="Times New Roman,serif" font-size="14.00">theorems/functions</text>
</g>
<!-- theorems/functions&#45;&gt;types/equiv -->
<g id="edge66" class="edge"><title>theorems/functions&#45;&gt;types/equiv</title>
<path fill="none" stroke="black" d="M1195.2,-649.811C1169.17,-638.769 1133.89,-623.803 1106.78,-612.3"/>
<polygon fill="black" stroke="black" points="1108.13,-609.071 1097.56,-608.387 1105.39,-615.515 1108.13,-609.071"/>
</g>
<!-- theorems/topology -->
<g id="node51" class="node"><title>theorems/topology</title>
<ellipse fill="none" stroke="black" cx="1234" cy="-810" rx="79.0865" ry="18"/>
<text text-anchor="middle" x="1234" y="-806.3" font-family="Times New Roman,serif" font-size="14.00">theorems/topology</text>
</g>
</g>
</svg>
