<?xml version="1.0" encoding="UTF-8" standalone="no"?>
<!DOCTYPE svg PUBLIC "-//W3C//DTD SVG 1.1//EN"
 "http://www.w3.org/Graphics/SVG/1.1/DTD/svg11.dtd">
<!-- Generated by graphviz version 2.38.0 (20140413.2041)
 -->
<!-- Title: dependency_map Pages: 1 -->
<svg width="1198pt" height="764pt"
 viewBox="0.00 0.00 1198.34 764.00" xmlns="http://www.w3.org/2000/svg" xmlns:xlink="http://www.w3.org/1999/xlink">
<g id="graph0" class="graph" transform="scale(1 1) rotate(0) translate(4 760)">
<title>dependency_map</title>
<polygon fill="white" stroke="none" points="-4,4 -4,-760 1194.34,-760 1194.34,4 -4,4"/>
<!-- proto -->
<g id="node1" class="node"><title>proto</title>
<ellipse fill="none" stroke="black" cx="338.644" cy="-738" rx="30.5947" ry="18"/>
<text text-anchor="middle" x="338.644" y="-734.3" font-family="Times New Roman,serif" font-size="14.00">proto</text>
</g>
<!-- types/eq -->
<g id="node2" class="node"><title>types/eq</title>
<ellipse fill="none" stroke="black" cx="398.644" cy="-666" rx="41.6928" ry="18"/>
<text text-anchor="middle" x="398.644" y="-662.3" font-family="Times New Roman,serif" font-size="14.00">types/eq</text>
</g>
<!-- proto&#45;&gt;types/eq -->
<g id="edge1" class="edge"><title>proto&#45;&gt;types/eq</title>
<path fill="none" stroke="black" d="M351.96,-721.465C359.588,-712.566 369.326,-701.205 377.932,-691.164"/>
<polygon fill="black" stroke="black" points="380.679,-693.338 384.529,-683.467 375.364,-688.782 380.679,-693.338"/>
</g>
<!-- support -->
<g id="node4" class="node"><title>support</title>
<ellipse fill="none" stroke="black" cx="398.644" cy="-594" rx="38.9931" ry="18"/>
<text text-anchor="middle" x="398.644" y="-590.3" font-family="Times New Roman,serif" font-size="14.00">support</text>
</g>
<!-- types/eq&#45;&gt;support -->
<g id="edge10" class="edge"><title>types/eq&#45;&gt;support</title>
<path fill="none" stroke="black" d="M398.644,-647.697C398.644,-639.983 398.644,-630.712 398.644,-622.112"/>
<polygon fill="black" stroke="black" points="402.144,-622.104 398.644,-612.104 395.144,-622.104 402.144,-622.104"/>
</g>
<!-- meta/hott_theory -->
<g id="node3" class="node"><title>meta/hott_theory</title>
<ellipse fill="none" stroke="black" cx="459.644" cy="-738" rx="72.2875" ry="18"/>
<text text-anchor="middle" x="459.644" y="-734.3" font-family="Times New Roman,serif" font-size="14.00">meta/hott_theory</text>
</g>
<!-- meta/hott_theory&#45;&gt;types/eq -->
<g id="edge2" class="edge"><title>meta/hott_theory&#45;&gt;types/eq</title>
<path fill="none" stroke="black" d="M444.878,-720.055C437.275,-711.33 427.876,-700.544 419.542,-690.981"/>
<polygon fill="black" stroke="black" points="422.063,-688.547 412.855,-683.307 416.786,-693.146 422.063,-688.547"/>
</g>
<!-- types/equiv -->
<g id="node5" class="node"><title>types/equiv</title>
<ellipse fill="none" stroke="black" cx="466.644" cy="-522" rx="51.9908" ry="18"/>
<text text-anchor="middle" x="466.644" y="-518.3" font-family="Times New Roman,serif" font-size="14.00">types/equiv</text>
</g>
<!-- support&#45;&gt;types/equiv -->
<g id="edge3" class="edge"><title>support&#45;&gt;types/equiv</title>
<path fill="none" stroke="black" d="M414.074,-577.116C422.818,-568.116 433.924,-556.682 443.674,-546.646"/>
<polygon fill="black" stroke="black" points="446.346,-548.919 450.803,-539.307 441.325,-544.041 446.346,-548.919"/>
</g>
<!-- types/coproduct -->
<g id="node12" class="node"><title>types/coproduct</title>
<ellipse fill="none" stroke="black" cx="256.644" cy="-378" rx="70.6878" ry="18"/>
<text text-anchor="middle" x="256.644" y="-374.3" font-family="Times New Roman,serif" font-size="14.00">types/coproduct</text>
</g>
<!-- types/equiv&#45;&gt;types/coproduct -->
<g id="edge11" class="edge"><title>types/equiv&#45;&gt;types/coproduct</title>
<path fill="none" stroke="black" d="M428.791,-509.483C402.886,-500.551 368.502,-486.56 341.644,-468 315.652,-450.038 291.326,-423.131 275.415,-403.606"/>
<polygon fill="black" stroke="black" points="278.106,-401.367 269.13,-395.738 272.636,-405.736 278.106,-401.367"/>
</g>
<!-- types/heq -->
<g id="node15" class="node"><title>types/heq</title>
<ellipse fill="none" stroke="black" cx="503.644" cy="-450" rx="46.2923" ry="18"/>
<text text-anchor="middle" x="503.644" y="-446.3" font-family="Times New Roman,serif" font-size="14.00">types/heq</text>
</g>
<!-- types/equiv&#45;&gt;types/heq -->
<g id="edge12" class="edge"><title>types/equiv&#45;&gt;types/heq</title>
<path fill="none" stroke="black" d="M475.601,-504.055C479.918,-495.887 485.191,-485.912 489.994,-476.824"/>
<polygon fill="black" stroke="black" points="493.191,-478.266 494.77,-467.789 487.003,-474.994 493.191,-478.266"/>
</g>
<!-- HITs/infinitesimal -->
<g id="node16" class="node"><title>HITs/infinitesimal</title>
<ellipse fill="none" stroke="black" cx="642.644" cy="-450" rx="74.9875" ry="18"/>
<text text-anchor="middle" x="642.644" y="-446.3" font-family="Times New Roman,serif" font-size="14.00">HITs/infinitesimal</text>
</g>
<!-- types/equiv&#45;&gt;HITs/infinitesimal -->
<g id="edge13" class="edge"><title>types/equiv&#45;&gt;HITs/infinitesimal</title>
<path fill="none" stroke="black" d="M499.336,-507.998C526.516,-497.187 565.533,-481.669 595.995,-469.554"/>
<polygon fill="black" stroke="black" points="597.56,-472.698 605.558,-465.75 594.973,-466.194 597.56,-472.698"/>
</g>
<!-- types/lost -->
<g id="node17" class="node"><title>types/lost</title>
<ellipse fill="none" stroke="black" cx="781.644" cy="-450" rx="46.2923" ry="18"/>
<text text-anchor="middle" x="781.644" y="-446.3" font-family="Times New Roman,serif" font-size="14.00">types/lost</text>
</g>
<!-- types/equiv&#45;&gt;types/lost -->
<g id="edge14" class="edge"><title>types/equiv&#45;&gt;types/lost</title>
<path fill="none" stroke="black" d="M512.044,-513.15C564.177,-503.811 652.112,-487.066 726.644,-468 730.245,-467.079 733.96,-466.067 737.68,-465.009"/>
<polygon fill="black" stroke="black" points="738.857,-468.312 747.466,-462.136 736.885,-461.595 738.857,-468.312"/>
</g>
<!-- types/unit -->
<g id="node18" class="node"><title>types/unit</title>
<ellipse fill="none" stroke="black" cx="429.644" cy="-378" rx="46.2923" ry="18"/>
<text text-anchor="middle" x="429.644" y="-374.3" font-family="Times New Roman,serif" font-size="14.00">types/unit</text>
</g>
<!-- types/equiv&#45;&gt;types/unit -->
<g id="edge15" class="edge"><title>types/equiv&#45;&gt;types/unit</title>
<path fill="none" stroke="black" d="M460.294,-503.972C456.589,-493.656 452,-480.179 448.644,-468 443.014,-447.565 438.067,-424.106 434.633,-406.405"/>
<polygon fill="black" stroke="black" points="438.001,-405.378 432.698,-396.206 431.123,-406.683 438.001,-405.378"/>
</g>
<!-- types/sigma -->
<g id="node19" class="node"><title>types/sigma</title>
<ellipse fill="none" stroke="black" cx="586.644" cy="-234" rx="53.8905" ry="18"/>
<text text-anchor="middle" x="586.644" y="-230.3" font-family="Times New Roman,serif" font-size="14.00">types/sigma</text>
</g>
<!-- types/equiv&#45;&gt;types/sigma -->
<g id="edge16" class="edge"><title>types/equiv&#45;&gt;types/sigma</title>
<path fill="none" stroke="black" d="M450.006,-504.694C410.772,-464.278 319.768,-357.714 374.644,-288 416.783,-234.468 457.64,-268.876 523.644,-252 527.781,-250.942 532.065,-249.828 536.363,-248.696"/>
<polygon fill="black" stroke="black" points="537.589,-251.991 546.356,-246.042 535.792,-245.226 537.589,-251.991"/>
</g>
<!-- structures -->
<g id="node6" class="node"><title>structures</title>
<ellipse fill="none" stroke="black" cx="571.644" cy="-306" rx="46.2923" ry="18"/>
<text text-anchor="middle" x="571.644" y="-302.3" font-family="Times New Roman,serif" font-size="14.00">structures</text>
</g>
<!-- theorems/ua -->
<g id="node7" class="node"><title>theorems/ua</title>
<ellipse fill="none" stroke="black" cx="981.644" cy="-234" rx="54.6905" ry="18"/>
<text text-anchor="middle" x="981.644" y="-230.3" font-family="Times New Roman,serif" font-size="14.00">theorems/ua</text>
</g>
<!-- structures&#45;&gt;theorems/ua -->
<g id="edge4" class="edge"><title>structures&#45;&gt;theorems/ua</title>
<path fill="none" stroke="black" d="M605.434,-293.552C612.39,-291.479 619.709,-289.503 626.644,-288 750.129,-261.244 784.288,-274.358 908.644,-252 915.442,-250.778 922.559,-249.332 929.571,-247.807"/>
<polygon fill="black" stroke="black" points="930.726,-251.135 939.719,-245.534 929.196,-244.304 930.726,-251.135"/>
</g>
<!-- HITs/interval -->
<g id="node8" class="node"><title>HITs/interval</title>
<ellipse fill="none" stroke="black" cx="456.644" cy="-234" rx="57.6901" ry="18"/>
<text text-anchor="middle" x="456.644" y="-230.3" font-family="Times New Roman,serif" font-size="14.00">HITs/interval</text>
</g>
<!-- structures&#45;&gt;HITs/interval -->
<g id="edge5" class="edge"><title>structures&#45;&gt;HITs/interval</title>
<path fill="none" stroke="black" d="M547.816,-290.496C531.307,-280.447 509.08,-266.918 490.706,-255.733"/>
<polygon fill="black" stroke="black" points="492.399,-252.666 482.037,-250.457 488.759,-258.646 492.399,-252.666"/>
</g>
<!-- HITs/truncation -->
<g id="node9" class="node"><title>HITs/truncation</title>
<ellipse fill="none" stroke="black" cx="831.644" cy="-234" rx="68.4888" ry="18"/>
<text text-anchor="middle" x="831.644" y="-230.3" font-family="Times New Roman,serif" font-size="14.00">HITs/truncation</text>
</g>
<!-- structures&#45;&gt;HITs/truncation -->
<g id="edge6" class="edge"><title>structures&#45;&gt;HITs/truncation</title>
<path fill="none" stroke="black" d="M606.191,-294.052C612.956,-291.984 620.01,-289.882 626.644,-288 675.978,-274.007 732.418,-259.526 773.57,-249.245"/>
<polygon fill="black" stroke="black" points="774.567,-252.603 783.425,-246.79 772.875,-245.811 774.567,-252.603"/>
</g>
<!-- types/nat -->
<g id="node10" class="node"><title>types/nat</title>
<ellipse fill="none" stroke="black" cx="701.644" cy="-234" rx="43.5923" ry="18"/>
<text text-anchor="middle" x="701.644" y="-230.3" font-family="Times New Roman,serif" font-size="14.00">types/nat</text>
</g>
<!-- structures&#45;&gt;types/nat -->
<g id="edge7" class="edge"><title>structures&#45;&gt;types/nat</title>
<path fill="none" stroke="black" d="M597.639,-291.003C617.608,-280.25 645.371,-265.301 667.19,-253.552"/>
<polygon fill="black" stroke="black" points="668.992,-256.557 676.137,-248.734 665.673,-250.394 668.992,-256.557"/>
</g>
<!-- theorems/nat -->
<g id="node24" class="node"><title>theorems/nat</title>
<ellipse fill="none" stroke="black" cx="883.644" cy="-162" rx="57.3905" ry="18"/>
<text text-anchor="middle" x="883.644" y="-158.3" font-family="Times New Roman,serif" font-size="14.00">theorems/nat</text>
</g>
<!-- theorems/ua&#45;&gt;theorems/nat -->
<g id="edge60" class="edge"><title>theorems/ua&#45;&gt;theorems/nat</title>
<path fill="none" stroke="black" d="M959.895,-217.465C946.413,-207.835 928.896,-195.323 914.052,-184.72"/>
<polygon fill="black" stroke="black" points="915.843,-181.698 905.672,-178.734 911.775,-187.394 915.843,-181.698"/>
</g>
<!-- cubical/V -->
<g id="node43" class="node"><title>cubical/V</title>
<ellipse fill="none" stroke="black" cx="999.644" cy="-18" rx="45.4919" ry="18"/>
<text text-anchor="middle" x="999.644" y="-14.3" font-family="Times New Roman,serif" font-size="14.00">cubical/V</text>
</g>
<!-- theorems/ua&#45;&gt;cubical/V -->
<g id="edge61" class="edge"><title>theorems/ua&#45;&gt;cubical/V</title>
<path fill="none" stroke="black" d="M1028.63,-224.685C1054.3,-217.487 1083.97,-204.228 1099.64,-180 1131.77,-130.353 1069.51,-71.0666 1029.55,-40.1424"/>
<polygon fill="black" stroke="black" points="1031.49,-37.2233 1021.4,-33.9877 1027.27,-42.8085 1031.49,-37.2233"/>
</g>
<!-- HITs/circle -->
<g id="node22" class="node"><title>HITs/circle</title>
<ellipse fill="none" stroke="black" cx="305.644" cy="-90" rx="51.9908" ry="18"/>
<text text-anchor="middle" x="305.644" y="-86.3" font-family="Times New Roman,serif" font-size="14.00">HITs/circle</text>
</g>
<!-- HITs/interval&#45;&gt;HITs/circle -->
<g id="edge39" class="edge"><title>HITs/interval&#45;&gt;HITs/circle</title>
<path fill="none" stroke="black" d="M423.162,-219.068C403.938,-209.93 380.207,-196.602 362.644,-180 343.481,-161.885 327.869,-136.059 317.861,-116.89"/>
<polygon fill="black" stroke="black" points="320.91,-115.162 313.279,-107.813 314.661,-118.317 320.91,-115.162"/>
</g>
<!-- theorems/fibration -->
<g id="node27" class="node"><title>theorems/fibration</title>
<ellipse fill="none" stroke="black" cx="586.644" cy="-162" rx="76.8869" ry="18"/>
<text text-anchor="middle" x="586.644" y="-158.3" font-family="Times New Roman,serif" font-size="14.00">theorems/fibration</text>
</g>
<!-- HITs/interval&#45;&gt;theorems/fibration -->
<g id="edge40" class="edge"><title>HITs/interval&#45;&gt;theorems/fibration</title>
<path fill="none" stroke="black" d="M484.214,-218.155C502.912,-208.087 527.879,-194.643 548.482,-183.549"/>
<polygon fill="black" stroke="black" points="550.162,-186.619 557.308,-178.797 546.843,-180.456 550.162,-186.619"/>
</g>
<!-- theorems/prop -->
<g id="node28" class="node"><title>theorems/prop</title>
<ellipse fill="none" stroke="black" cx="744.644" cy="-162" rx="63.8893" ry="18"/>
<text text-anchor="middle" x="744.644" y="-158.3" font-family="Times New Roman,serif" font-size="14.00">theorems/prop</text>
</g>
<!-- HITs/interval&#45;&gt;theorems/prop -->
<g id="edge41" class="edge"><title>HITs/interval&#45;&gt;theorems/prop</title>
<path fill="none" stroke="black" d="M499.873,-221.943C507.776,-219.947 515.954,-217.898 523.644,-216 579.201,-202.291 642.74,-187.104 687.385,-176.514"/>
<polygon fill="black" stroke="black" points="688.256,-179.905 697.179,-174.193 686.641,-173.094 688.256,-179.905"/>
</g>
<!-- cubical/cubes -->
<g id="node36" class="node"><title>cubical/cubes</title>
<ellipse fill="none" stroke="black" cx="431.644" cy="-162" rx="60.3893" ry="18"/>
<text text-anchor="middle" x="431.644" y="-158.3" font-family="Times New Roman,serif" font-size="14.00">cubical/cubes</text>
</g>
<!-- HITs/interval&#45;&gt;cubical/cubes -->
<g id="edge42" class="edge"><title>HITs/interval&#45;&gt;cubical/cubes</title>
<path fill="none" stroke="black" d="M450.592,-216.055C447.779,-208.176 444.364,-198.617 441.213,-189.794"/>
<polygon fill="black" stroke="black" points="444.473,-188.516 437.814,-180.275 437.881,-190.87 444.473,-188.516"/>
</g>
<!-- HITs/truncation&#45;&gt;theorems/prop -->
<g id="edge46" class="edge"><title>HITs/truncation&#45;&gt;theorems/prop</title>
<path fill="none" stroke="black" d="M811.466,-216.765C799.936,-207.488 785.304,-195.714 772.672,-185.551"/>
<polygon fill="black" stroke="black" points="774.698,-182.689 764.713,-179.147 770.31,-188.143 774.698,-182.689"/>
</g>
<!-- HITs/simplicial -->
<g id="node38" class="node"><title>HITs/simplicial</title>
<ellipse fill="none" stroke="black" cx="1024.64" cy="-162" rx="65.7887" ry="18"/>
<text text-anchor="middle" x="1024.64" y="-158.3" font-family="Times New Roman,serif" font-size="14.00">HITs/simplicial</text>
</g>
<!-- HITs/truncation&#45;&gt;HITs/simplicial -->
<g id="edge47" class="edge"><title>HITs/truncation&#45;&gt;HITs/simplicial</title>
<path fill="none" stroke="black" d="M870.237,-219.003C901.074,-207.818 944.431,-192.093 977.354,-180.152"/>
<polygon fill="black" stroke="black" points="978.569,-183.434 986.776,-176.734 976.182,-176.854 978.569,-183.434"/>
</g>
<!-- types/nat&#45;&gt;theorems/nat -->
<g id="edge21" class="edge"><title>types/nat&#45;&gt;theorems/nat</title>
<path fill="none" stroke="black" d="M732.518,-221.125C761.871,-209.836 806.331,-192.736 839.439,-180.002"/>
<polygon fill="black" stroke="black" points="840.809,-183.225 848.886,-176.369 838.296,-176.692 840.809,-183.225"/>
</g>
<!-- types/category -->
<g id="node11" class="node"><title>types/category</title>
<ellipse fill="none" stroke="black" cx="1126.64" cy="-18" rx="63.8893" ry="18"/>
<text text-anchor="middle" x="1126.64" y="-14.3" font-family="Times New Roman,serif" font-size="14.00">types/category</text>
</g>
<!-- types/coproduct&#45;&gt;structures -->
<g id="edge8" class="edge"><title>types/coproduct&#45;&gt;structures</title>
<path fill="none" stroke="black" d="M313.307,-367.117C366.225,-357.494 447.244,-341.753 516.644,-324 520.245,-323.079 523.96,-322.067 527.68,-321.009"/>
<polygon fill="black" stroke="black" points="528.857,-324.312 537.466,-318.136 526.885,-317.595 528.857,-324.312"/>
</g>
<!-- types/integer -->
<g id="node13" class="node"><title>types/integer</title>
<ellipse fill="none" stroke="black" cx="159.644" cy="-306" rx="56.59" ry="18"/>
<text text-anchor="middle" x="159.644" y="-302.3" font-family="Times New Roman,serif" font-size="14.00">types/integer</text>
</g>
<!-- types/coproduct&#45;&gt;types/integer -->
<g id="edge9" class="edge"><title>types/coproduct&#45;&gt;types/integer</title>
<path fill="none" stroke="black" d="M234.147,-360.765C220.86,-351.176 203.877,-338.92 189.481,-328.532"/>
<polygon fill="black" stroke="black" points="191.51,-325.68 181.352,-322.666 187.413,-331.356 191.51,-325.68"/>
</g>
<!-- types/integer&#45;&gt;HITs/circle -->
<g id="edge19" class="edge"><title>types/integer&#45;&gt;HITs/circle</title>
<path fill="none" stroke="black" d="M156.51,-287.932C151.681,-256.13 146.093,-187.135 178.644,-144 195.68,-121.425 224.117,-108.395 249.767,-100.91"/>
<polygon fill="black" stroke="black" points="250.688,-104.287 259.432,-98.3041 248.866,-97.5278 250.688,-104.287"/>
</g>
<!-- types/rational -->
<g id="node23" class="node"><title>types/rational</title>
<ellipse fill="none" stroke="black" cx="69.6442" cy="-234" rx="59.2899" ry="18"/>
<text text-anchor="middle" x="69.6442" y="-230.3" font-family="Times New Roman,serif" font-size="14.00">types/rational</text>
</g>
<!-- types/integer&#45;&gt;types/rational -->
<g id="edge20" class="edge"><title>types/integer&#45;&gt;types/rational</title>
<path fill="none" stroke="black" d="M139.222,-289.116C127.11,-279.696 111.572,-267.611 98.2531,-257.251"/>
<polygon fill="black" stroke="black" points="100.34,-254.44 90.2973,-251.064 96.042,-259.966 100.34,-254.44"/>
</g>
<!-- types/dedekind -->
<g id="node14" class="node"><title>types/dedekind</title>
<ellipse fill="none" stroke="black" cx="65.6442" cy="-162" rx="65.7887" ry="18"/>
<text text-anchor="middle" x="65.6442" y="-158.3" font-family="Times New Roman,serif" font-size="14.00">types/dedekind</text>
</g>
<!-- HITs/graph -->
<g id="node20" class="node"><title>HITs/graph</title>
<ellipse fill="none" stroke="black" cx="546.644" cy="-378" rx="52.7911" ry="18"/>
<text text-anchor="middle" x="546.644" y="-374.3" font-family="Times New Roman,serif" font-size="14.00">HITs/graph</text>
</g>
<!-- types/heq&#45;&gt;HITs/graph -->
<g id="edge17" class="edge"><title>types/heq&#45;&gt;HITs/graph</title>
<path fill="none" stroke="black" d="M513.835,-432.411C518.954,-424.077 525.269,-413.797 530.987,-404.488"/>
<polygon fill="black" stroke="black" points="533.976,-406.309 536.228,-395.956 528.012,-402.645 533.976,-406.309"/>
</g>
<!-- theorems/funext -->
<g id="node21" class="node"><title>theorems/funext</title>
<ellipse fill="none" stroke="black" cx="686.644" cy="-378" rx="68.7879" ry="18"/>
<text text-anchor="middle" x="686.644" y="-374.3" font-family="Times New Roman,serif" font-size="14.00">theorems/funext</text>
</g>
<!-- types/heq&#45;&gt;theorems/funext -->
<g id="edge18" class="edge"><title>types/heq&#45;&gt;theorems/funext</title>
<path fill="none" stroke="black" d="M535.52,-436.807C564.413,-425.755 607.355,-409.329 640.088,-396.808"/>
<polygon fill="black" stroke="black" points="641.37,-400.065 649.46,-393.224 638.869,-393.527 641.37,-400.065"/>
</g>
<!-- types/unit&#45;&gt;structures -->
<g id="edge28" class="edge"><title>types/unit&#45;&gt;structures</title>
<path fill="none" stroke="black" d="M457.023,-363.503C479.079,-352.631 510.305,-337.238 534.596,-325.263"/>
<polygon fill="black" stroke="black" points="536.443,-328.255 543.865,-320.694 533.348,-321.976 536.443,-328.255"/>
</g>
<!-- HITs/suspension -->
<g id="node29" class="node"><title>HITs/suspension</title>
<ellipse fill="none" stroke="black" cx="306.644" cy="-234" rx="72.5877" ry="18"/>
<text text-anchor="middle" x="306.644" y="-230.3" font-family="Times New Roman,serif" font-size="14.00">HITs/suspension</text>
</g>
<!-- types/unit&#45;&gt;HITs/suspension -->
<g id="edge29" class="edge"><title>types/unit&#45;&gt;HITs/suspension</title>
<path fill="none" stroke="black" d="M411.883,-361.169C400.768,-350.955 386.381,-337.164 374.644,-324 356.406,-303.545 337.639,-278.637 324.453,-260.379"/>
<polygon fill="black" stroke="black" points="327.122,-258.094 318.456,-251.999 321.43,-262.168 327.122,-258.094"/>
</g>
<!-- types/sigma&#45;&gt;theorems/nat -->
<g id="edge25" class="edge"><title>types/sigma&#45;&gt;theorems/nat</title>
<path fill="none" stroke="black" d="M626.246,-221.776C633.669,-219.776 641.378,-217.768 648.644,-216 723.262,-197.839 742.887,-197.582 817.644,-180 822.039,-178.966 826.59,-177.863 831.153,-176.734"/>
<polygon fill="black" stroke="black" points="832.257,-180.066 841.105,-174.238 830.554,-173.276 832.257,-180.066"/>
</g>
<!-- types/sigma&#45;&gt;theorems/fibration -->
<g id="edge26" class="edge"><title>types/sigma&#45;&gt;theorems/fibration</title>
<path fill="none" stroke="black" d="M586.644,-215.697C586.644,-207.983 586.644,-198.712 586.644,-190.112"/>
<polygon fill="black" stroke="black" points="590.144,-190.104 586.644,-180.104 583.144,-190.104 590.144,-190.104"/>
</g>
<!-- types/sigma&#45;&gt;theorems/prop -->
<g id="edge27" class="edge"><title>types/sigma&#45;&gt;theorems/prop</title>
<path fill="none" stroke="black" d="M617.86,-219.17C642.049,-208.453 675.813,-193.495 702.415,-181.709"/>
<polygon fill="black" stroke="black" points="704.136,-184.775 711.862,-177.524 701.301,-178.375 704.136,-184.775"/>
</g>
<!-- HITs/colimit -->
<g id="node33" class="node"><title>HITs/colimit</title>
<ellipse fill="none" stroke="black" cx="692.644" cy="-306" rx="56.59" ry="18"/>
<text text-anchor="middle" x="692.644" y="-302.3" font-family="Times New Roman,serif" font-size="14.00">HITs/colimit</text>
</g>
<!-- HITs/graph&#45;&gt;HITs/colimit -->
<g id="edge36" class="edge"><title>HITs/graph&#45;&gt;HITs/colimit</title>
<path fill="none" stroke="black" d="M575.839,-363.003C598.197,-352.283 629.254,-337.392 653.725,-325.66"/>
<polygon fill="black" stroke="black" points="655.245,-328.813 662.749,-321.333 652.218,-322.501 655.245,-328.813"/>
</g>
<!-- HITs/generalized -->
<g id="node34" class="node"><title>HITs/generalized</title>
<ellipse fill="none" stroke="black" cx="839.644" cy="-306" rx="72.2875" ry="18"/>
<text text-anchor="middle" x="839.644" y="-302.3" font-family="Times New Roman,serif" font-size="14.00">HITs/generalized</text>
</g>
<!-- HITs/graph&#45;&gt;HITs/generalized -->
<g id="edge37" class="edge"><title>HITs/graph&#45;&gt;HITs/generalized</title>
<path fill="none" stroke="black" d="M585.937,-365.958C593.46,-363.92 601.284,-361.853 608.644,-360 665.52,-345.684 730.675,-330.879 777.257,-320.568"/>
<polygon fill="black" stroke="black" points="778.19,-323.946 787.2,-318.373 776.681,-317.111 778.19,-323.946"/>
</g>
<!-- HITs/pushout -->
<g id="node35" class="node"><title>HITs/pushout</title>
<ellipse fill="none" stroke="black" cx="445.644" cy="-306" rx="61.99" ry="18"/>
<text text-anchor="middle" x="445.644" y="-302.3" font-family="Times New Roman,serif" font-size="14.00">HITs/pushout</text>
</g>
<!-- HITs/graph&#45;&gt;HITs/pushout -->
<g id="edge38" class="edge"><title>HITs/graph&#45;&gt;HITs/pushout</title>
<path fill="none" stroke="black" d="M524.229,-361.465C510.432,-351.902 492.534,-339.498 477.304,-328.943"/>
<polygon fill="black" stroke="black" points="478.91,-325.797 468.697,-322.977 474.922,-331.55 478.91,-325.797"/>
</g>
<!-- theorems/funext&#45;&gt;structures -->
<g id="edge55" class="edge"><title>theorems/funext&#45;&gt;structures</title>
<path fill="none" stroke="black" d="M660.836,-361.291C644.144,-351.13 622.27,-337.816 604.362,-326.915"/>
<polygon fill="black" stroke="black" points="605.769,-323.674 595.407,-321.464 602.129,-329.653 605.769,-323.674"/>
</g>
<!-- types/product -->
<g id="node26" class="node"><title>types/product</title>
<ellipse fill="none" stroke="black" cx="991.644" cy="-306" rx="61.99" ry="18"/>
<text text-anchor="middle" x="991.644" y="-302.3" font-family="Times New Roman,serif" font-size="14.00">types/product</text>
</g>
<!-- theorems/funext&#45;&gt;types/product -->
<g id="edge56" class="edge"><title>theorems/funext&#45;&gt;types/product</title>
<path fill="none" stroke="black" d="M737.353,-365.703C784.777,-355.093 857.561,-338.696 920.644,-324 925.534,-322.861 930.61,-321.667 935.698,-320.464"/>
<polygon fill="black" stroke="black" points="936.53,-323.863 945.451,-318.147 934.913,-317.053 936.53,-323.863"/>
</g>
<!-- theorems/hopf -->
<g id="node30" class="node"><title>theorems/hopf</title>
<ellipse fill="none" stroke="black" cx="395.644" cy="-18" rx="63.8893" ry="18"/>
<text text-anchor="middle" x="395.644" y="-14.3" font-family="Times New Roman,serif" font-size="14.00">theorems/hopf</text>
</g>
<!-- HITs/circle&#45;&gt;theorems/hopf -->
<g id="edge30" class="edge"><title>HITs/circle&#45;&gt;theorems/hopf</title>
<path fill="none" stroke="black" d="M326.067,-73.1159C338.178,-63.6958 353.716,-51.6106 367.035,-41.2514"/>
<polygon fill="black" stroke="black" points="369.246,-43.9657 374.991,-35.0635 364.949,-38.4402 369.246,-43.9657"/>
</g>
<!-- HITs/moebius -->
<g id="node31" class="node"><title>HITs/moebius</title>
<ellipse fill="none" stroke="black" cx="135.644" cy="-18" rx="63.0888" ry="18"/>
<text text-anchor="middle" x="135.644" y="-14.3" font-family="Times New Roman,serif" font-size="14.00">HITs/moebius</text>
</g>
<!-- HITs/circle&#45;&gt;HITs/moebius -->
<g id="edge31" class="edge"><title>HITs/circle&#45;&gt;HITs/moebius</title>
<path fill="none" stroke="black" d="M273.268,-75.6688C246.697,-64.7276 208.814,-49.1289 179.519,-37.0659"/>
<polygon fill="black" stroke="black" points="180.521,-33.6936 169.942,-33.1224 177.856,-40.1664 180.521,-33.6936"/>
</g>
<!-- HITs/reals -->
<g id="node32" class="node"><title>HITs/reals</title>
<ellipse fill="none" stroke="black" cx="265.644" cy="-18" rx="48.9926" ry="18"/>
<text text-anchor="middle" x="265.644" y="-14.3" font-family="Times New Roman,serif" font-size="14.00">HITs/reals</text>
</g>
<!-- HITs/circle&#45;&gt;HITs/reals -->
<g id="edge32" class="edge"><title>HITs/circle&#45;&gt;HITs/reals</title>
<path fill="none" stroke="black" d="M295.961,-72.055C291.245,-63.8006 285.474,-53.7014 280.237,-44.5378"/>
<polygon fill="black" stroke="black" points="283.238,-42.7349 275.238,-35.789 277.16,-46.2079 283.238,-42.7349"/>
</g>
<!-- types/rational&#45;&gt;types/dedekind -->
<g id="edge24" class="edge"><title>types/rational&#45;&gt;types/dedekind</title>
<path fill="none" stroke="black" d="M68.6554,-215.697C68.2146,-207.983 67.6849,-198.712 67.1935,-190.112"/>
<polygon fill="black" stroke="black" points="70.6865,-189.888 66.6216,-180.104 63.6979,-190.288 70.6865,-189.888"/>
</g>
<!-- theorems/nat&#45;&gt;HITs/circle -->
<g id="edge57" class="edge"><title>theorems/nat&#45;&gt;HITs/circle</title>
<path fill="none" stroke="black" d="M842.66,-149.436C834.425,-147.398 825.796,-145.463 817.644,-144 656.187,-115.016 463.031,-100.348 366.646,-94.3672"/>
<polygon fill="black" stroke="black" points="366.696,-90.8639 356.502,-93.7478 366.27,-97.8509 366.696,-90.8639"/>
</g>
<!-- HITs/int -->
<g id="node45" class="node"><title>HITs/int</title>
<ellipse fill="none" stroke="black" cx="963.644" cy="-90" rx="40.8928" ry="18"/>
<text text-anchor="middle" x="963.644" y="-86.3" font-family="Times New Roman,serif" font-size="14.00">HITs/int</text>
</g>
<!-- theorems/nat&#45;&gt;HITs/int -->
<g id="edge58" class="edge"><title>theorems/nat&#45;&gt;HITs/int</title>
<path fill="none" stroke="black" d="M902.199,-144.765C912.925,-135.379 926.572,-123.439 938.278,-113.195"/>
<polygon fill="black" stroke="black" points="940.793,-115.646 946.014,-106.427 936.183,-110.378 940.793,-115.646"/>
</g>
<!-- types/precategory -->
<g id="node25" class="node"><title>types/precategory</title>
<ellipse fill="none" stroke="black" cx="829.644" cy="-90" rx="75.2868" ry="18"/>
<text text-anchor="middle" x="829.644" y="-86.3" font-family="Times New Roman,serif" font-size="14.00">types/precategory</text>
</g>
<!-- types/precategory&#45;&gt;types/category -->
<g id="edge22" class="edge"><title>types/precategory&#45;&gt;types/category</title>
<path fill="none" stroke="black" d="M881.378,-76.8069C933.948,-64.4167 1015.17,-45.2724 1069.58,-32.4483"/>
<polygon fill="black" stroke="black" points="1070.49,-35.8312 1079.42,-30.1304 1068.88,-29.0178 1070.49,-35.8312"/>
</g>
<!-- types/product&#45;&gt;theorems/ua -->
<g id="edge23" class="edge"><title>types/product&#45;&gt;theorems/ua</title>
<path fill="none" stroke="black" d="M989.172,-287.697C988.07,-279.983 986.746,-270.712 985.517,-262.112"/>
<polygon fill="black" stroke="black" points="988.967,-261.509 984.088,-252.104 982.037,-262.499 988.967,-261.509"/>
</g>
<!-- theorems/fibration&#45;&gt;theorems/hopf -->
<g id="edge53" class="edge"><title>theorems/fibration&#45;&gt;theorems/hopf</title>
<path fill="none" stroke="black" d="M564.734,-144.711C530.481,-119.245 464.182,-69.9545 425.561,-41.2416"/>
<polygon fill="black" stroke="black" points="427.412,-38.2568 417.299,-35.0992 423.236,-43.8744 427.412,-38.2568"/>
</g>
<!-- theorems/prop&#45;&gt;types/precategory -->
<g id="edge59" class="edge"><title>theorems/prop&#45;&gt;types/precategory</title>
<path fill="none" stroke="black" d="M764.359,-144.765C775.543,-135.554 789.715,-123.882 801.996,-113.769"/>
<polygon fill="black" stroke="black" points="804.248,-116.449 809.742,-107.39 799.798,-111.045 804.248,-116.449"/>
</g>
<!-- HITs/suspension&#45;&gt;HITs/circle -->
<g id="edge44" class="edge"><title>HITs/suspension&#45;&gt;HITs/circle</title>
<path fill="none" stroke="black" d="M306.524,-215.871C306.353,-191.67 306.04,-147.211 305.837,-118.393"/>
<polygon fill="black" stroke="black" points="309.336,-118.164 305.765,-108.189 302.336,-118.214 309.336,-118.164"/>
</g>
<!-- HITs/join -->
<g id="node37" class="node"><title>HITs/join</title>
<ellipse fill="none" stroke="black" cx="232.644" cy="-162" rx="45.4919" ry="18"/>
<text text-anchor="middle" x="232.644" y="-158.3" font-family="Times New Roman,serif" font-size="14.00">HITs/join</text>
</g>
<!-- HITs/suspension&#45;&gt;HITs/join -->
<g id="edge45" class="edge"><title>HITs/suspension&#45;&gt;HITs/join</title>
<path fill="none" stroke="black" d="M289.107,-216.411C279.477,-207.302 267.389,-195.866 256.87,-185.916"/>
<polygon fill="black" stroke="black" points="259.216,-183.317 249.546,-178.988 254.405,-188.403 259.216,-183.317"/>
</g>
<!-- HITs/colimit&#45;&gt;HITs/truncation -->
<g id="edge33" class="edge"><title>HITs/colimit&#45;&gt;HITs/truncation</title>
<path fill="none" stroke="black" d="M721.445,-290.496C741.993,-280.148 769.869,-266.11 792.442,-254.742"/>
<polygon fill="black" stroke="black" points="794.081,-257.836 801.438,-250.212 790.932,-251.584 794.081,-257.836"/>
</g>
<!-- HITs/colimit&#45;&gt;types/nat -->
<g id="edge34" class="edge"><title>HITs/colimit&#45;&gt;types/nat</title>
<path fill="none" stroke="black" d="M694.869,-287.697C695.861,-279.983 697.053,-270.712 698.158,-262.112"/>
<polygon fill="black" stroke="black" points="701.641,-262.469 699.445,-252.104 694.698,-261.576 701.641,-262.469"/>
</g>
<!-- HITs/generalized&#45;&gt;HITs/truncation -->
<g id="edge35" class="edge"><title>HITs/generalized&#45;&gt;HITs/truncation</title>
<path fill="none" stroke="black" d="M837.667,-287.697C836.785,-279.983 835.726,-270.712 834.743,-262.112"/>
<polygon fill="black" stroke="black" points="838.212,-261.642 833.599,-252.104 831.257,-262.437 838.212,-261.642"/>
</g>
<!-- HITs/pushout&#45;&gt;HITs/suspension -->
<g id="edge43" class="edge"><title>HITs/pushout&#45;&gt;HITs/suspension</title>
<path fill="none" stroke="black" d="M416.166,-290.155C395.944,-279.971 368.865,-266.334 346.693,-255.168"/>
<polygon fill="black" stroke="black" points="348.031,-251.923 337.525,-250.552 344.882,-258.175 348.031,-251.923"/>
</g>
<!-- cubical/path -->
<g id="node40" class="node"><title>cubical/path</title>
<ellipse fill="none" stroke="black" cx="681.644" cy="-90" rx="54.6905" ry="18"/>
<text text-anchor="middle" x="681.644" y="-86.3" font-family="Times New Roman,serif" font-size="14.00">cubical/path</text>
</g>
<!-- cubical/cubes&#45;&gt;cubical/path -->
<g id="edge48" class="edge"><title>cubical/cubes&#45;&gt;cubical/path</title>
<path fill="none" stroke="black" d="M474.053,-149.125C517.661,-136.915 585.543,-117.908 631.717,-104.98"/>
<polygon fill="black" stroke="black" points="632.826,-108.304 641.512,-102.237 630.939,-101.563 632.826,-108.304"/>
</g>
<!-- cubical/connection -->
<g id="node39" class="node"><title>cubical/connection</title>
<ellipse fill="none" stroke="black" cx="556.644" cy="-18" rx="79.0865" ry="18"/>
<text text-anchor="middle" x="556.644" y="-14.3" font-family="Times New Roman,serif" font-size="14.00">cubical/connection</text>
</g>
<!-- cubical/path&#45;&gt;cubical/connection -->
<g id="edge49" class="edge"><title>cubical/path&#45;&gt;cubical/connection</title>
<path fill="none" stroke="black" d="M655.135,-74.1548C637.361,-64.2013 613.696,-50.9489 594.018,-39.9291"/>
<polygon fill="black" stroke="black" points="595.728,-36.8753 585.292,-35.043 592.307,-42.9828 595.728,-36.8753"/>
</g>
<!-- cubical/example -->
<g id="node41" class="node"><title>cubical/example</title>
<ellipse fill="none" stroke="black" cx="722.644" cy="-18" rx="68.7879" ry="18"/>
<text text-anchor="middle" x="722.644" y="-14.3" font-family="Times New Roman,serif" font-size="14.00">cubical/example</text>
</g>
<!-- cubical/path&#45;&gt;cubical/example -->
<g id="edge50" class="edge"><title>cubical/path&#45;&gt;cubical/example</title>
<path fill="none" stroke="black" d="M691.569,-72.055C696.333,-63.922 702.145,-53.998 707.449,-44.9426"/>
<polygon fill="black" stroke="black" points="710.492,-46.6731 712.526,-36.2753 704.452,-43.1352 710.492,-46.6731"/>
</g>
<!-- cubical/square -->
<g id="node42" class="node"><title>cubical/square</title>
<ellipse fill="none" stroke="black" cx="872.644" cy="-18" rx="63.0888" ry="18"/>
<text text-anchor="middle" x="872.644" y="-14.3" font-family="Times New Roman,serif" font-size="14.00">cubical/square</text>
</g>
<!-- cubical/path&#45;&gt;cubical/square -->
<g id="edge51" class="edge"><title>cubical/path&#45;&gt;cubical/square</title>
<path fill="none" stroke="black" d="M716.677,-76.1609C747.357,-64.9169 792.181,-48.4891 825.912,-36.1271"/>
<polygon fill="black" stroke="black" points="827.367,-39.3214 835.552,-32.594 824.958,-32.7489 827.367,-39.3214"/>
</g>
<!-- cubical/path&#45;&gt;cubical/V -->
<g id="edge52" class="edge"><title>cubical/path&#45;&gt;cubical/V</title>
<path fill="none" stroke="black" d="M721.808,-77.8017C729.683,-75.7561 737.902,-73.7257 745.644,-72 833.372,-52.447 857.327,-57.3099 944.644,-36 948.306,-35.1062 952.083,-34.1068 955.862,-33.0522"/>
<polygon fill="black" stroke="black" points="957.164,-36.3187 965.79,-30.1666 955.21,-29.5969 957.164,-36.3187"/>
</g>
<!-- theorems/functions -->
<g id="node44" class="node"><title>theorems/functions</title>
<ellipse fill="none" stroke="black" cx="535.644" cy="-594" rx="79.8859" ry="18"/>
<text text-anchor="middle" x="535.644" y="-590.3" font-family="Times New Roman,serif" font-size="14.00">theorems/functions</text>
</g>
<!-- theorems/functions&#45;&gt;types/equiv -->
<g id="edge54" class="edge"><title>theorems/functions&#45;&gt;types/equiv</title>
<path fill="none" stroke="black" d="M518.941,-576.055C510.255,-567.243 499.497,-556.328 490,-546.694"/>
<polygon fill="black" stroke="black" points="492.231,-543.972 482.718,-539.307 487.246,-548.886 492.231,-543.972"/>
</g>
</g>
</svg>
