<?xml version="1.0" encoding="UTF-8" standalone="no"?>
<!DOCTYPE svg PUBLIC "-//W3C//DTD SVG 1.1//EN"
 "http://www.w3.org/Graphics/SVG/1.1/DTD/svg11.dtd">
<!-- Generated by graphviz version 2.38.0 (20140413.2041)
 -->
<!-- Title: dependency_map Pages: 1 -->
<svg width="1471pt" height="836pt"
 viewBox="0.00 0.00 1470.64 836.00" xmlns="http://www.w3.org/2000/svg" xmlns:xlink="http://www.w3.org/1999/xlink">
<g id="graph0" class="graph" transform="scale(1 1) rotate(0) translate(4 832)">
<title>dependency_map</title>
<polygon fill="white" stroke="none" points="-4,4 -4,-832 1466.64,-832 1466.64,4 -4,4"/>
<!-- proto -->
<g id="node1" class="node"><title>proto</title>
<ellipse fill="none" stroke="black" cx="446.644" cy="-810" rx="30.5947" ry="18"/>
<text text-anchor="middle" x="446.644" y="-806.3" font-family="Times New Roman,serif" font-size="14.00">proto</text>
</g>
<!-- types/eq -->
<g id="node2" class="node"><title>types/eq</title>
<ellipse fill="none" stroke="black" cx="506.644" cy="-738" rx="41.6928" ry="18"/>
<text text-anchor="middle" x="506.644" y="-734.3" font-family="Times New Roman,serif" font-size="14.00">types/eq</text>
</g>
<!-- proto&#45;&gt;types/eq -->
<g id="edge1" class="edge"><title>proto&#45;&gt;types/eq</title>
<path fill="none" stroke="black" d="M459.96,-793.465C467.588,-784.566 477.326,-773.205 485.932,-763.164"/>
<polygon fill="black" stroke="black" points="488.679,-765.338 492.529,-755.467 483.364,-760.782 488.679,-765.338"/>
</g>
<!-- support -->
<g id="node4" class="node"><title>support</title>
<ellipse fill="none" stroke="black" cx="568.644" cy="-666" rx="38.9931" ry="18"/>
<text text-anchor="middle" x="568.644" y="-662.3" font-family="Times New Roman,serif" font-size="14.00">support</text>
</g>
<!-- types/eq&#45;&gt;support -->
<g id="edge10" class="edge"><title>types/eq&#45;&gt;support</title>
<path fill="none" stroke="black" d="M521.024,-720.765C528.928,-711.841 538.877,-700.608 547.636,-690.719"/>
<polygon fill="black" stroke="black" points="550.332,-692.954 554.342,-683.147 545.092,-688.313 550.332,-692.954"/>
</g>
<!-- types/dep_path -->
<g id="node13" class="node"><title>types/dep_path</title>
<ellipse fill="none" stroke="black" cx="444.644" cy="-666" rx="66.8882" ry="18"/>
<text text-anchor="middle" x="444.644" y="-662.3" font-family="Times New Roman,serif" font-size="14.00">types/dep_path</text>
</g>
<!-- types/eq&#45;&gt;types/dep_path -->
<g id="edge11" class="edge"><title>types/eq&#45;&gt;types/dep_path</title>
<path fill="none" stroke="black" d="M492.264,-720.765C484.474,-711.969 474.695,-700.928 466.029,-691.144"/>
<polygon fill="black" stroke="black" points="468.627,-688.799 459.377,-683.633 463.387,-693.44 468.627,-688.799"/>
</g>
<!-- meta/hott_theory -->
<g id="node3" class="node"><title>meta/hott_theory</title>
<ellipse fill="none" stroke="black" cx="567.644" cy="-810" rx="72.2875" ry="18"/>
<text text-anchor="middle" x="567.644" y="-806.3" font-family="Times New Roman,serif" font-size="14.00">meta/hott_theory</text>
</g>
<!-- meta/hott_theory&#45;&gt;types/eq -->
<g id="edge2" class="edge"><title>meta/hott_theory&#45;&gt;types/eq</title>
<path fill="none" stroke="black" d="M552.878,-792.055C545.275,-783.33 535.876,-772.544 527.542,-762.981"/>
<polygon fill="black" stroke="black" points="530.063,-760.547 520.855,-755.307 524.786,-765.146 530.063,-760.547"/>
</g>
<!-- types/equiv -->
<g id="node5" class="node"><title>types/equiv</title>
<ellipse fill="none" stroke="black" cx="568.644" cy="-594" rx="51.9908" ry="18"/>
<text text-anchor="middle" x="568.644" y="-590.3" font-family="Times New Roman,serif" font-size="14.00">types/equiv</text>
</g>
<!-- support&#45;&gt;types/equiv -->
<g id="edge3" class="edge"><title>support&#45;&gt;types/equiv</title>
<path fill="none" stroke="black" d="M568.644,-647.697C568.644,-639.983 568.644,-630.712 568.644,-622.112"/>
<polygon fill="black" stroke="black" points="572.144,-622.104 568.644,-612.104 565.144,-622.104 572.144,-622.104"/>
</g>
<!-- types/coproduct -->
<g id="node10" class="node"><title>types/coproduct</title>
<ellipse fill="none" stroke="black" cx="378.644" cy="-522" rx="70.6878" ry="18"/>
<text text-anchor="middle" x="378.644" y="-518.3" font-family="Times New Roman,serif" font-size="14.00">types/coproduct</text>
</g>
<!-- types/equiv&#45;&gt;types/coproduct -->
<g id="edge12" class="edge"><title>types/equiv&#45;&gt;types/coproduct</title>
<path fill="none" stroke="black" d="M534.237,-580.324C504.161,-569.243 460.18,-553.04 426.645,-540.684"/>
<polygon fill="black" stroke="black" points="427.636,-537.32 417.043,-537.147 425.216,-543.888 427.636,-537.32"/>
</g>
<!-- types/heq -->
<g id="node14" class="node"><title>types/heq</title>
<ellipse fill="none" stroke="black" cx="623.644" cy="-522" rx="46.2923" ry="18"/>
<text text-anchor="middle" x="623.644" y="-518.3" font-family="Times New Roman,serif" font-size="14.00">types/heq</text>
</g>
<!-- types/equiv&#45;&gt;types/heq -->
<g id="edge13" class="edge"><title>types/equiv&#45;&gt;types/heq</title>
<path fill="none" stroke="black" d="M581.678,-576.411C588.459,-567.781 596.881,-557.062 604.396,-547.497"/>
<polygon fill="black" stroke="black" points="607.277,-549.496 610.704,-539.47 601.773,-545.171 607.277,-549.496"/>
</g>
<!-- HITs/infinitesimal -->
<g id="node15" class="node"><title>HITs/infinitesimal</title>
<ellipse fill="none" stroke="black" cx="762.644" cy="-522" rx="74.9875" ry="18"/>
<text text-anchor="middle" x="762.644" y="-518.3" font-family="Times New Roman,serif" font-size="14.00">HITs/infinitesimal</text>
</g>
<!-- types/equiv&#45;&gt;HITs/infinitesimal -->
<g id="edge14" class="edge"><title>types/equiv&#45;&gt;HITs/infinitesimal</title>
<path fill="none" stroke="black" d="M603.327,-580.485C633.88,-569.461 678.735,-553.276 713.073,-540.887"/>
<polygon fill="black" stroke="black" points="714.691,-544.023 722.91,-537.337 712.316,-537.439 714.691,-544.023"/>
</g>
<!-- types/lost -->
<g id="node16" class="node"><title>types/lost</title>
<ellipse fill="none" stroke="black" cx="901.644" cy="-522" rx="46.2923" ry="18"/>
<text text-anchor="middle" x="901.644" y="-518.3" font-family="Times New Roman,serif" font-size="14.00">types/lost</text>
</g>
<!-- types/equiv&#45;&gt;types/lost -->
<g id="edge15" class="edge"><title>types/equiv&#45;&gt;types/lost</title>
<path fill="none" stroke="black" d="M615.226,-585.75C670.725,-576.737 766.07,-560.067 846.644,-540 850.251,-539.102 853.97,-538.106 857.693,-537.059"/>
<polygon fill="black" stroke="black" points="858.863,-540.364 867.483,-534.204 856.903,-533.644 858.863,-540.364"/>
</g>
<!-- types/unit -->
<g id="node17" class="node"><title>types/unit</title>
<ellipse fill="none" stroke="black" cx="513.644" cy="-522" rx="46.2923" ry="18"/>
<text text-anchor="middle" x="513.644" y="-518.3" font-family="Times New Roman,serif" font-size="14.00">types/unit</text>
</g>
<!-- types/equiv&#45;&gt;types/unit -->
<g id="edge16" class="edge"><title>types/equiv&#45;&gt;types/unit</title>
<path fill="none" stroke="black" d="M555.61,-576.411C548.829,-567.781 540.407,-557.062 532.892,-547.497"/>
<polygon fill="black" stroke="black" points="535.515,-545.171 526.585,-539.47 530.011,-549.496 535.515,-545.171"/>
</g>
<!-- types/sigma -->
<g id="node18" class="node"><title>types/sigma</title>
<ellipse fill="none" stroke="black" cx="279.644" cy="-306" rx="53.8905" ry="18"/>
<text text-anchor="middle" x="279.644" y="-302.3" font-family="Times New Roman,serif" font-size="14.00">types/sigma</text>
</g>
<!-- types/equiv&#45;&gt;types/sigma -->
<g id="edge17" class="edge"><title>types/equiv&#45;&gt;types/sigma</title>
<path fill="none" stroke="black" d="M517.789,-590.153C447.784,-585.092 327.129,-571.883 298.644,-540 247.235,-482.458 261.706,-381.874 272.558,-333.917"/>
<polygon fill="black" stroke="black" points="276.012,-334.519 274.928,-323.98 269.203,-332.895 276.012,-334.519"/>
</g>
<!-- structures -->
<g id="node6" class="node"><title>structures</title>
<ellipse fill="none" stroke="black" cx="546.644" cy="-450" rx="46.2923" ry="18"/>
<text text-anchor="middle" x="546.644" y="-446.3" font-family="Times New Roman,serif" font-size="14.00">structures</text>
</g>
<!-- HITs/interval -->
<g id="node7" class="node"><title>HITs/interval</title>
<ellipse fill="none" stroke="black" cx="596.644" cy="-378" rx="57.6901" ry="18"/>
<text text-anchor="middle" x="596.644" y="-374.3" font-family="Times New Roman,serif" font-size="14.00">HITs/interval</text>
</g>
<!-- structures&#45;&gt;HITs/interval -->
<g id="edge4" class="edge"><title>structures&#45;&gt;HITs/interval</title>
<path fill="none" stroke="black" d="M558.493,-432.411C564.507,-423.992 571.941,-413.585 578.644,-404.201"/>
<polygon fill="black" stroke="black" points="581.568,-406.128 584.533,-395.956 575.872,-402.059 581.568,-406.128"/>
</g>
<!-- HITs/truncation -->
<g id="node8" class="node"><title>HITs/truncation</title>
<ellipse fill="none" stroke="black" cx="1093.64" cy="-306" rx="68.4888" ry="18"/>
<text text-anchor="middle" x="1093.64" y="-302.3" font-family="Times New Roman,serif" font-size="14.00">HITs/truncation</text>
</g>
<!-- structures&#45;&gt;HITs/truncation -->
<g id="edge5" class="edge"><title>structures&#45;&gt;HITs/truncation</title>
<path fill="none" stroke="black" d="M592.693,-447.176C646.547,-443.379 737.051,-431.72 805.644,-396 826.278,-385.255 823.04,-370.804 843.644,-360 912.428,-323.933 938.68,-340.169 1014.64,-324 1020.45,-322.765 1026.49,-321.474 1032.53,-320.18"/>
<polygon fill="black" stroke="black" points="1033.61,-323.527 1042.66,-318.007 1032.14,-316.683 1033.61,-323.527"/>
</g>
<!-- types/nat -->
<g id="node9" class="node"><title>types/nat</title>
<ellipse fill="none" stroke="black" cx="394.644" cy="-306" rx="43.5923" ry="18"/>
<text text-anchor="middle" x="394.644" y="-302.3" font-family="Times New Roman,serif" font-size="14.00">types/nat</text>
</g>
<!-- structures&#45;&gt;types/nat -->
<g id="edge6" class="edge"><title>structures&#45;&gt;types/nat</title>
<path fill="none" stroke="black" d="M529.503,-432.987C502.448,-407.712 449.751,-358.481 418.849,-329.612"/>
<polygon fill="black" stroke="black" points="421.187,-327.007 411.49,-322.738 416.409,-332.122 421.187,-327.007"/>
</g>
<!-- types/product -->
<g id="node24" class="node"><title>types/product</title>
<ellipse fill="none" stroke="black" cx="797.644" cy="-306" rx="61.99" ry="18"/>
<text text-anchor="middle" x="797.644" y="-302.3" font-family="Times New Roman,serif" font-size="14.00">types/product</text>
</g>
<!-- HITs/interval&#45;&gt;types/product -->
<g id="edge42" class="edge"><title>HITs/interval&#45;&gt;types/product</title>
<path fill="none" stroke="black" d="M633.98,-363.998C666.669,-352.613 714.351,-336.008 749.825,-323.654"/>
<polygon fill="black" stroke="black" points="751.191,-326.884 759.484,-320.29 748.889,-320.273 751.191,-326.884"/>
</g>
<!-- theorems/fibration -->
<g id="node27" class="node"><title>theorems/fibration</title>
<ellipse fill="none" stroke="black" cx="264.644" cy="-234" rx="76.8869" ry="18"/>
<text text-anchor="middle" x="264.644" y="-230.3" font-family="Times New Roman,serif" font-size="14.00">theorems/fibration</text>
</g>
<!-- HITs/interval&#45;&gt;theorems/fibration -->
<g id="edge43" class="edge"><title>HITs/interval&#45;&gt;theorems/fibration</title>
<path fill="none" stroke="black" d="M542.835,-371.366C440.555,-360.401 227.262,-336.201 216.644,-324 199.552,-304.359 218.375,-277.604 237.236,-258.57"/>
<polygon fill="black" stroke="black" points="239.878,-260.885 244.665,-251.433 235.029,-255.837 239.878,-260.885"/>
</g>
<!-- theorems/prop -->
<g id="node28" class="node"><title>theorems/prop</title>
<ellipse fill="none" stroke="black" cx="831.644" cy="-234" rx="63.8893" ry="18"/>
<text text-anchor="middle" x="831.644" y="-230.3" font-family="Times New Roman,serif" font-size="14.00">theorems/prop</text>
</g>
<!-- HITs/interval&#45;&gt;theorems/prop -->
<g id="edge44" class="edge"><title>HITs/interval&#45;&gt;theorems/prop</title>
<path fill="none" stroke="black" d="M639.064,-365.728C647.198,-363.712 655.665,-361.71 663.644,-360 708.869,-350.306 838.901,-359.421 868.644,-324 884.462,-305.162 869.914,-278.613 854.658,-259.419"/>
<polygon fill="black" stroke="black" points="857.275,-257.093 848.163,-251.688 851.916,-261.596 857.275,-257.093"/>
</g>
<!-- HITs/truncation&#45;&gt;theorems/prop -->
<g id="edge49" class="edge"><title>HITs/truncation&#45;&gt;theorems/prop</title>
<path fill="none" stroke="black" d="M1047.41,-292.647C1002.42,-280.628 934.067,-262.365 886.388,-249.626"/>
<polygon fill="black" stroke="black" points="887.109,-246.196 876.544,-246.996 885.302,-252.959 887.109,-246.196"/>
</g>
<!-- HITs/simplicial -->
<g id="node38" class="node"><title>HITs/simplicial</title>
<ellipse fill="none" stroke="black" cx="1138.64" cy="-234" rx="65.7887" ry="18"/>
<text text-anchor="middle" x="1138.64" y="-230.3" font-family="Times New Roman,serif" font-size="14.00">HITs/simplicial</text>
</g>
<!-- HITs/truncation&#45;&gt;HITs/simplicial -->
<g id="edge50" class="edge"><title>HITs/truncation&#45;&gt;HITs/simplicial</title>
<path fill="none" stroke="black" d="M1104.54,-288.055C1109.9,-279.715 1116.47,-269.491 1122.41,-260.252"/>
<polygon fill="black" stroke="black" points="1125.39,-262.093 1127.85,-251.789 1119.5,-258.308 1125.39,-262.093"/>
</g>
<!-- theorems/mere_eq_lemma -->
<g id="node39" class="node"><title>theorems/mere_eq_lemma</title>
<ellipse fill="none" stroke="black" cx="1328.64" cy="-234" rx="105.881" ry="18"/>
<text text-anchor="middle" x="1328.64" y="-230.3" font-family="Times New Roman,serif" font-size="14.00">theorems/mere_eq_lemma</text>
</g>
<!-- HITs/truncation&#45;&gt;theorems/mere_eq_lemma -->
<g id="edge51" class="edge"><title>HITs/truncation&#45;&gt;theorems/mere_eq_lemma</title>
<path fill="none" stroke="black" d="M1137.02,-292.079C1174.1,-281.035 1227.82,-265.032 1268.96,-252.779"/>
<polygon fill="black" stroke="black" points="1270.01,-256.118 1278.59,-249.909 1268.01,-249.41 1270.01,-256.118"/>
</g>
<!-- theorems/graphs -->
<g id="node40" class="node"><title>theorems/graphs</title>
<ellipse fill="none" stroke="black" cx="984.644" cy="-234" rx="70.6878" ry="18"/>
<text text-anchor="middle" x="984.644" y="-230.3" font-family="Times New Roman,serif" font-size="14.00">theorems/graphs</text>
</g>
<!-- HITs/truncation&#45;&gt;theorems/graphs -->
<g id="edge52" class="edge"><title>HITs/truncation&#45;&gt;theorems/graphs</title>
<path fill="none" stroke="black" d="M1068.91,-289.116C1053.97,-279.518 1034.71,-267.154 1018.38,-256.667"/>
<polygon fill="black" stroke="black" points="1019.96,-253.522 1009.66,-251.064 1016.18,-259.412 1019.96,-253.522"/>
</g>
<!-- theorems/nat -->
<g id="node23" class="node"><title>theorems/nat</title>
<ellipse fill="none" stroke="black" cx="388.644" cy="-162" rx="57.3905" ry="18"/>
<text text-anchor="middle" x="388.644" y="-158.3" font-family="Times New Roman,serif" font-size="14.00">theorems/nat</text>
</g>
<!-- types/nat&#45;&gt;theorems/nat -->
<g id="edge23" class="edge"><title>types/nat&#45;&gt;theorems/nat</title>
<path fill="none" stroke="black" d="M393.92,-287.871C392.898,-263.67 391.019,-219.211 389.802,-190.393"/>
<polygon fill="black" stroke="black" points="393.29,-190.033 389.37,-180.189 386.296,-190.328 393.29,-190.033"/>
</g>
<!-- types/coproduct&#45;&gt;structures -->
<g id="edge7" class="edge"><title>types/coproduct&#45;&gt;structures</title>
<path fill="none" stroke="black" d="M413.862,-506.326C440.974,-495.029 478.461,-479.41 506.692,-467.647"/>
<polygon fill="black" stroke="black" points="508.375,-470.737 516.259,-463.66 505.682,-464.276 508.375,-470.737"/>
</g>
<!-- types/integer -->
<g id="node11" class="node"><title>types/integer</title>
<ellipse fill="none" stroke="black" cx="368.644" cy="-378" rx="56.59" ry="18"/>
<text text-anchor="middle" x="368.644" y="-374.3" font-family="Times New Roman,serif" font-size="14.00">types/integer</text>
</g>
<!-- types/coproduct&#45;&gt;types/integer -->
<g id="edge8" class="edge"><title>types/coproduct&#45;&gt;types/integer</title>
<path fill="none" stroke="black" d="M377.438,-503.871C375.734,-479.67 372.603,-435.211 370.573,-406.393"/>
<polygon fill="black" stroke="black" points="374.049,-405.919 369.855,-396.189 367.066,-406.41 374.049,-405.919"/>
</g>
<!-- HITs/circle -->
<g id="node20" class="node"><title>HITs/circle</title>
<ellipse fill="none" stroke="black" cx="388.644" cy="-90" rx="51.9908" ry="18"/>
<text text-anchor="middle" x="388.644" y="-86.3" font-family="Times New Roman,serif" font-size="14.00">HITs/circle</text>
</g>
<!-- types/integer&#45;&gt;HITs/circle -->
<g id="edge20" class="edge"><title>types/integer&#45;&gt;HITs/circle</title>
<path fill="none" stroke="black" d="M315.638,-371.426C280.734,-365.187 236.192,-351.974 206.644,-324 170.635,-289.909 154.137,-259.108 178.644,-216 212.752,-156.005 288.295,-121.786 338.849,-104.808"/>
<polygon fill="black" stroke="black" points="340.177,-108.057 348.608,-101.64 338.015,-101.399 340.177,-108.057"/>
</g>
<!-- HITs/reals -->
<g id="node21" class="node"><title>HITs/reals</title>
<ellipse fill="none" stroke="black" cx="504.644" cy="-306" rx="48.9926" ry="18"/>
<text text-anchor="middle" x="504.644" y="-302.3" font-family="Times New Roman,serif" font-size="14.00">HITs/reals</text>
</g>
<!-- types/integer&#45;&gt;HITs/reals -->
<g id="edge21" class="edge"><title>types/integer&#45;&gt;HITs/reals</title>
<path fill="none" stroke="black" d="M397.154,-362.326C417.737,-351.732 445.706,-337.336 467.954,-325.885"/>
<polygon fill="black" stroke="black" points="469.811,-328.865 477.101,-321.177 466.608,-322.641 469.811,-328.865"/>
</g>
<!-- types/rational -->
<g id="node22" class="node"><title>types/rational</title>
<ellipse fill="none" stroke="black" cx="68.6442" cy="-306" rx="59.2899" ry="18"/>
<text text-anchor="middle" x="68.6442" y="-302.3" font-family="Times New Roman,serif" font-size="14.00">types/rational</text>
</g>
<!-- types/integer&#45;&gt;types/rational -->
<g id="edge22" class="edge"><title>types/integer&#45;&gt;types/rational</title>
<path fill="none" stroke="black" d="M324.378,-366.671C271.178,-354.258 181.875,-333.421 124.122,-319.945"/>
<polygon fill="black" stroke="black" points="124.609,-316.465 114.075,-317.601 123.018,-323.281 124.609,-316.465"/>
</g>
<!-- types/dedekind -->
<g id="node12" class="node"><title>types/dedekind</title>
<ellipse fill="none" stroke="black" cx="65.6442" cy="-234" rx="65.7887" ry="18"/>
<text text-anchor="middle" x="65.6442" y="-230.3" font-family="Times New Roman,serif" font-size="14.00">types/dedekind</text>
</g>
<!-- types/dep_path&#45;&gt;types/equiv -->
<g id="edge9" class="edge"><title>types/dep_path&#45;&gt;types/equiv</title>
<path fill="none" stroke="black" d="M472.164,-649.465C490.273,-639.242 514.136,-625.771 533.599,-614.783"/>
<polygon fill="black" stroke="black" points="535.487,-617.737 542.475,-609.773 532.046,-611.641 535.487,-617.737"/>
</g>
<!-- types/heq&#45;&gt;HITs/interval -->
<g id="edge18" class="edge"><title>types/heq&#45;&gt;HITs/interval</title>
<path fill="none" stroke="black" d="M620.387,-503.871C615.786,-479.67 607.332,-435.211 601.853,-406.393"/>
<polygon fill="black" stroke="black" points="605.219,-405.359 599.913,-396.189 598.342,-406.667 605.219,-405.359"/>
</g>
<!-- HITs/graph -->
<g id="node19" class="node"><title>HITs/graph</title>
<ellipse fill="none" stroke="black" cx="1093.64" cy="-450" rx="52.7911" ry="18"/>
<text text-anchor="middle" x="1093.64" y="-446.3" font-family="Times New Roman,serif" font-size="14.00">HITs/graph</text>
</g>
<!-- types/heq&#45;&gt;HITs/graph -->
<g id="edge19" class="edge"><title>types/heq&#45;&gt;HITs/graph</title>
<path fill="none" stroke="black" d="M657.434,-509.552C664.39,-507.48 671.709,-505.503 678.644,-504 802.88,-477.078 951.21,-462.196 1032.63,-455.474"/>
<polygon fill="black" stroke="black" points="1033.01,-458.954 1042.7,-454.656 1032.45,-451.977 1033.01,-458.954"/>
</g>
<!-- types/unit&#45;&gt;structures -->
<g id="edge30" class="edge"><title>types/unit&#45;&gt;structures</title>
<path fill="none" stroke="black" d="M521.633,-504.055C525.443,-495.973 530.087,-486.121 534.334,-477.112"/>
<polygon fill="black" stroke="black" points="537.631,-478.327 538.729,-467.789 531.299,-475.342 537.631,-478.327"/>
</g>
<!-- HITs/suspension -->
<g id="node29" class="node"><title>HITs/suspension</title>
<ellipse fill="none" stroke="black" cx="644.644" cy="-306" rx="72.5877" ry="18"/>
<text text-anchor="middle" x="644.644" y="-302.3" font-family="Times New Roman,serif" font-size="14.00">HITs/suspension</text>
</g>
<!-- types/unit&#45;&gt;HITs/suspension -->
<g id="edge31" class="edge"><title>types/unit&#45;&gt;HITs/suspension</title>
<path fill="none" stroke="black" d="M504.514,-503.88C499.637,-493.756 494.137,-480.506 491.644,-468 481.698,-418.097 492.709,-395.001 529.644,-360 546.526,-344.002 569.096,-332.175 589.768,-323.804"/>
<polygon fill="black" stroke="black" points="591.038,-327.066 599.106,-320.198 588.516,-320.536 591.038,-327.066"/>
</g>
<!-- types/sigma&#45;&gt;theorems/nat -->
<g id="edge27" class="edge"><title>types/sigma&#45;&gt;theorems/nat</title>
<path fill="none" stroke="black" d="M306.014,-290.106C320.721,-280.725 338.471,-267.475 350.644,-252 365.193,-233.505 375.197,-208.607 381.274,-189.848"/>
<polygon fill="black" stroke="black" points="384.666,-190.725 384.25,-180.138 377.973,-188.673 384.666,-190.725"/>
</g>
<!-- types/sigma&#45;&gt;theorems/fibration -->
<g id="edge28" class="edge"><title>types/sigma&#45;&gt;theorems/fibration</title>
<path fill="none" stroke="black" d="M275.936,-287.697C274.283,-279.983 272.297,-270.712 270.454,-262.112"/>
<polygon fill="black" stroke="black" points="273.827,-261.149 268.309,-252.104 266.982,-262.616 273.827,-261.149"/>
</g>
<!-- types/sigma&#45;&gt;theorems/prop -->
<g id="edge29" class="edge"><title>types/sigma&#45;&gt;theorems/prop</title>
<path fill="none" stroke="black" d="M318.092,-293.295C325.833,-291.269 333.953,-289.375 341.644,-288 524.765,-255.27 574.923,-281.17 758.644,-252 764.325,-251.098 770.221,-250.001 776.087,-248.802"/>
<polygon fill="black" stroke="black" points="776.843,-252.22 785.89,-246.707 775.379,-245.375 776.843,-252.22"/>
</g>
<!-- HITs/moebius -->
<g id="node31" class="node"><title>HITs/moebius</title>
<ellipse fill="none" stroke="black" cx="556.644" cy="-18" rx="63.0888" ry="18"/>
<text text-anchor="middle" x="556.644" y="-14.3" font-family="Times New Roman,serif" font-size="14.00">HITs/moebius</text>
</g>
<!-- HITs/graph&#45;&gt;HITs/moebius -->
<g id="edge36" class="edge"><title>HITs/graph&#45;&gt;HITs/moebius</title>
<path fill="none" stroke="black" d="M1144.74,-445.324C1221.92,-438.95 1363.67,-423.786 1405.64,-396 1444.81,-370.073 1462.64,-353.973 1462.64,-307 1462.64,-307 1462.64,-307 1462.64,-161 1462.64,-76.7046 842.597,-34.6978 628.398,-22.7013"/>
<polygon fill="black" stroke="black" points="628.383,-19.1952 618.205,-22.136 627.996,-26.1845 628.383,-19.1952"/>
</g>
<!-- HITs/colimit -->
<g id="node32" class="node"><title>HITs/colimit</title>
<ellipse fill="none" stroke="black" cx="1240.64" cy="-378" rx="56.59" ry="18"/>
<text text-anchor="middle" x="1240.64" y="-374.3" font-family="Times New Roman,serif" font-size="14.00">HITs/colimit</text>
</g>
<!-- HITs/graph&#45;&gt;HITs/colimit -->
<g id="edge37" class="edge"><title>HITs/graph&#45;&gt;HITs/colimit</title>
<path fill="none" stroke="black" d="M1123.04,-435.003C1145.55,-424.283 1176.82,-409.392 1201.46,-397.66"/>
<polygon fill="black" stroke="black" points="1203.02,-400.793 1210.54,-393.333 1200.01,-394.473 1203.02,-400.793"/>
</g>
<!-- HITs/generalized -->
<g id="node33" class="node"><title>HITs/generalized</title>
<ellipse fill="none" stroke="black" cx="1093.64" cy="-378" rx="72.2875" ry="18"/>
<text text-anchor="middle" x="1093.64" y="-374.3" font-family="Times New Roman,serif" font-size="14.00">HITs/generalized</text>
</g>
<!-- HITs/graph&#45;&gt;HITs/generalized -->
<g id="edge38" class="edge"><title>HITs/graph&#45;&gt;HITs/generalized</title>
<path fill="none" stroke="black" d="M1093.64,-431.697C1093.64,-423.983 1093.64,-414.712 1093.64,-406.112"/>
<polygon fill="black" stroke="black" points="1097.14,-406.104 1093.64,-396.104 1090.14,-406.104 1097.14,-406.104"/>
</g>
<!-- HITs/int -->
<g id="node34" class="node"><title>HITs/int</title>
<ellipse fill="none" stroke="black" cx="1355.64" cy="-378" rx="40.8928" ry="18"/>
<text text-anchor="middle" x="1355.64" y="-374.3" font-family="Times New Roman,serif" font-size="14.00">HITs/int</text>
</g>
<!-- HITs/graph&#45;&gt;HITs/int -->
<g id="edge39" class="edge"><title>HITs/graph&#45;&gt;HITs/int</title>
<path fill="none" stroke="black" d="M1136.79,-439.467C1180.04,-429.629 1248.38,-413.317 1306.64,-396 1309.57,-395.13 1312.58,-394.193 1315.6,-393.22"/>
<polygon fill="black" stroke="black" points="1316.81,-396.508 1325.2,-390.038 1314.61,-389.863 1316.81,-396.508"/>
</g>
<!-- HITs/pushout -->
<g id="node35" class="node"><title>HITs/pushout</title>
<ellipse fill="none" stroke="black" cx="734.644" cy="-378" rx="61.99" ry="18"/>
<text text-anchor="middle" x="734.644" y="-374.3" font-family="Times New Roman,serif" font-size="14.00">HITs/pushout</text>
</g>
<!-- HITs/graph&#45;&gt;HITs/pushout -->
<g id="edge40" class="edge"><title>HITs/graph&#45;&gt;HITs/pushout</title>
<path fill="none" stroke="black" d="M1048.9,-440.276C984.766,-427.77 866.54,-404.718 794.805,-390.731"/>
<polygon fill="black" stroke="black" points="795.055,-387.214 784.57,-388.735 793.716,-394.084 795.055,-387.214"/>
</g>
<!-- types/precategory -->
<g id="node36" class="node"><title>types/precategory</title>
<ellipse fill="none" stroke="black" cx="927.644" cy="-378" rx="75.2868" ry="18"/>
<text text-anchor="middle" x="927.644" y="-374.3" font-family="Times New Roman,serif" font-size="14.00">types/precategory</text>
</g>
<!-- HITs/graph&#45;&gt;types/precategory -->
<g id="edge41" class="edge"><title>HITs/graph&#45;&gt;types/precategory</title>
<path fill="none" stroke="black" d="M1061.64,-435.503C1036.24,-424.795 1000.45,-409.703 972.249,-397.809"/>
<polygon fill="black" stroke="black" points="973.575,-394.57 963.001,-393.909 970.855,-401.02 973.575,-394.57"/>
</g>
<!-- theorems/hopf -->
<g id="node30" class="node"><title>theorems/hopf</title>
<ellipse fill="none" stroke="black" cx="255.644" cy="-18" rx="63.8893" ry="18"/>
<text text-anchor="middle" x="255.644" y="-14.3" font-family="Times New Roman,serif" font-size="14.00">theorems/hopf</text>
</g>
<!-- HITs/circle&#45;&gt;theorems/hopf -->
<g id="edge32" class="edge"><title>HITs/circle&#45;&gt;theorems/hopf</title>
<path fill="none" stroke="black" d="M361.409,-74.6655C341.858,-64.3758 315.254,-50.3735 293.619,-38.9868"/>
<polygon fill="black" stroke="black" points="295.166,-35.8457 284.686,-34.2854 291.906,-42.0402 295.166,-35.8457"/>
</g>
<!-- HITs/circle&#45;&gt;HITs/moebius -->
<g id="edge33" class="edge"><title>HITs/circle&#45;&gt;HITs/moebius</title>
<path fill="none" stroke="black" d="M420.639,-75.6688C446.812,-64.7633 484.091,-49.2304 513.003,-37.1839"/>
<polygon fill="black" stroke="black" points="514.574,-40.321 522.459,-33.244 511.882,-33.8594 514.574,-40.321"/>
</g>
<!-- types/rational&#45;&gt;types/dedekind -->
<g id="edge26" class="edge"><title>types/rational&#45;&gt;types/dedekind</title>
<path fill="none" stroke="black" d="M67.9026,-287.697C67.572,-279.983 67.1747,-270.712 66.8061,-262.112"/>
<polygon fill="black" stroke="black" points="70.3023,-261.945 66.3772,-252.104 63.3087,-262.245 70.3023,-261.945"/>
</g>
<!-- theorems/nat&#45;&gt;HITs/circle -->
<g id="edge61" class="edge"><title>theorems/nat&#45;&gt;HITs/circle</title>
<path fill="none" stroke="black" d="M388.644,-143.697C388.644,-135.983 388.644,-126.712 388.644,-118.112"/>
<polygon fill="black" stroke="black" points="392.144,-118.104 388.644,-108.104 385.144,-118.104 392.144,-118.104"/>
</g>
<!-- cubical/cubes -->
<g id="node25" class="node"><title>cubical/cubes</title>
<ellipse fill="none" stroke="black" cx="689.644" cy="-234" rx="60.3893" ry="18"/>
<text text-anchor="middle" x="689.644" y="-230.3" font-family="Times New Roman,serif" font-size="14.00">cubical/cubes</text>
</g>
<!-- types/product&#45;&gt;cubical/cubes -->
<g id="edge24" class="edge"><title>types/product&#45;&gt;cubical/cubes</title>
<path fill="none" stroke="black" d="M773.407,-289.291C758.399,-279.564 738.932,-266.946 722.542,-256.322"/>
<polygon fill="black" stroke="black" points="724.096,-253.159 713.801,-250.657 720.288,-259.033 724.096,-253.159"/>
</g>
<!-- theorems/ua -->
<g id="node26" class="node"><title>theorems/ua</title>
<ellipse fill="none" stroke="black" cx="556.644" cy="-234" rx="54.6905" ry="18"/>
<text text-anchor="middle" x="556.644" y="-230.3" font-family="Times New Roman,serif" font-size="14.00">theorems/ua</text>
</g>
<!-- types/product&#45;&gt;theorems/ua -->
<g id="edge25" class="edge"><title>types/product&#45;&gt;theorems/ua</title>
<path fill="none" stroke="black" d="M755.389,-292.727C713.722,-280.624 650.064,-262.135 606.073,-249.357"/>
<polygon fill="black" stroke="black" points="607.026,-245.989 596.447,-246.561 605.074,-252.711 607.026,-245.989"/>
</g>
<!-- cubical/path -->
<g id="node42" class="node"><title>cubical/path</title>
<ellipse fill="none" stroke="black" cx="689.644" cy="-162" rx="54.6905" ry="18"/>
<text text-anchor="middle" x="689.644" y="-158.3" font-family="Times New Roman,serif" font-size="14.00">cubical/path</text>
</g>
<!-- cubical/cubes&#45;&gt;cubical/path -->
<g id="edge53" class="edge"><title>cubical/cubes&#45;&gt;cubical/path</title>
<path fill="none" stroke="black" d="M689.644,-215.697C689.644,-207.983 689.644,-198.712 689.644,-190.112"/>
<polygon fill="black" stroke="black" points="693.144,-190.104 689.644,-180.104 686.144,-190.104 693.144,-190.104"/>
</g>
<!-- theorems/ua&#45;&gt;theorems/nat -->
<g id="edge62" class="edge"><title>theorems/ua&#45;&gt;theorems/nat</title>
<path fill="none" stroke="black" d="M524.252,-219.503C497.781,-208.474 460.147,-192.793 431.239,-180.748"/>
<polygon fill="black" stroke="black" points="432.375,-177.43 421.798,-176.814 429.683,-183.891 432.375,-177.43"/>
</g>
<!-- cubical/V -->
<g id="node45" class="node"><title>cubical/V</title>
<ellipse fill="none" stroke="black" cx="556.644" cy="-90" rx="45.4919" ry="18"/>
<text text-anchor="middle" x="556.644" y="-86.3" font-family="Times New Roman,serif" font-size="14.00">cubical/V</text>
</g>
<!-- theorems/ua&#45;&gt;cubical/V -->
<g id="edge63" class="edge"><title>theorems/ua&#45;&gt;cubical/V</title>
<path fill="none" stroke="black" d="M556.644,-215.871C556.644,-191.67 556.644,-147.211 556.644,-118.393"/>
<polygon fill="black" stroke="black" points="560.144,-118.189 556.644,-108.189 553.144,-118.189 560.144,-118.189"/>
</g>
<!-- theorems/fibration&#45;&gt;theorems/hopf -->
<g id="edge59" class="edge"><title>theorems/fibration&#45;&gt;theorems/hopf</title>
<path fill="none" stroke="black" d="M263.923,-215.849C262.366,-178.832 258.68,-91.1809 256.796,-46.3863"/>
<polygon fill="black" stroke="black" points="260.286,-46.0765 256.369,-36.2325 253.292,-46.3707 260.286,-46.0765"/>
</g>
<!-- HITs/suspension&#45;&gt;HITs/circle -->
<g id="edge48" class="edge"><title>HITs/suspension&#45;&gt;HITs/circle</title>
<path fill="none" stroke="black" d="M594.906,-292.668C556.46,-282.244 507.387,-266.702 492.644,-252 456.613,-216.07 484.055,-185.524 454.644,-144 445.895,-131.648 433.503,-120.656 421.814,-111.929"/>
<polygon fill="black" stroke="black" points="423.663,-108.948 413.49,-105.988 419.596,-114.646 423.663,-108.948"/>
</g>
<!-- HITs/colimit&#45;&gt;HITs/truncation -->
<g id="edge34" class="edge"><title>HITs/colimit&#45;&gt;HITs/truncation</title>
<path fill="none" stroke="black" d="M1210.54,-362.666C1188.59,-352.213 1158.6,-337.93 1134.49,-326.449"/>
<polygon fill="black" stroke="black" points="1135.76,-323.18 1125.23,-322.041 1132.75,-329.5 1135.76,-323.18"/>
</g>
<!-- HITs/generalized&#45;&gt;HITs/truncation -->
<g id="edge35" class="edge"><title>HITs/generalized&#45;&gt;HITs/truncation</title>
<path fill="none" stroke="black" d="M1093.64,-359.697C1093.64,-351.983 1093.64,-342.712 1093.64,-334.112"/>
<polygon fill="black" stroke="black" points="1097.14,-334.104 1093.64,-324.104 1090.14,-334.104 1097.14,-334.104"/>
</g>
<!-- HITs/pushout&#45;&gt;HITs/reals -->
<g id="edge45" class="edge"><title>HITs/pushout&#45;&gt;HITs/reals</title>
<path fill="none" stroke="black" d="M693.525,-364.485C653.452,-352.289 592.623,-333.776 550.886,-321.074"/>
<polygon fill="black" stroke="black" points="551.823,-317.7 541.237,-318.137 549.785,-324.397 551.823,-317.7"/>
</g>
<!-- HITs/pushout&#45;&gt;HITs/suspension -->
<g id="edge46" class="edge"><title>HITs/pushout&#45;&gt;HITs/suspension</title>
<path fill="none" stroke="black" d="M713.77,-360.765C701.928,-351.554 686.922,-339.882 673.919,-329.769"/>
<polygon fill="black" stroke="black" points="675.759,-326.766 665.717,-323.39 671.461,-332.292 675.759,-326.766"/>
</g>
<!-- HITs/join -->
<g id="node37" class="node"><title>HITs/join</title>
<ellipse fill="none" stroke="black" cx="960.644" cy="-306" rx="45.4919" ry="18"/>
<text text-anchor="middle" x="960.644" y="-302.3" font-family="Times New Roman,serif" font-size="14.00">HITs/join</text>
</g>
<!-- HITs/pushout&#45;&gt;HITs/join -->
<g id="edge47" class="edge"><title>HITs/pushout&#45;&gt;HITs/join</title>
<path fill="none" stroke="black" d="M775.309,-364.405C814.992,-352.114 875.206,-333.463 916.149,-320.782"/>
<polygon fill="black" stroke="black" points="917.344,-324.076 925.861,-317.774 915.273,-317.389 917.344,-324.076"/>
</g>
<!-- cubical/connection -->
<g id="node41" class="node"><title>cubical/connection</title>
<ellipse fill="none" stroke="black" cx="998.644" cy="-90" rx="79.0865" ry="18"/>
<text text-anchor="middle" x="998.644" y="-86.3" font-family="Times New Roman,serif" font-size="14.00">cubical/connection</text>
</g>
<!-- cubical/path&#45;&gt;cubical/connection -->
<g id="edge54" class="edge"><title>cubical/path&#45;&gt;cubical/connection</title>
<path fill="none" stroke="black" d="M733.261,-151.119C785.816,-139.213 874.551,-119.112 934.81,-105.461"/>
<polygon fill="black" stroke="black" points="935.618,-108.867 944.598,-103.244 934.071,-102.04 935.618,-108.867"/>
</g>
<!-- cubical/example -->
<g id="node43" class="node"><title>cubical/example</title>
<ellipse fill="none" stroke="black" cx="688.644" cy="-90" rx="68.7879" ry="18"/>
<text text-anchor="middle" x="688.644" y="-86.3" font-family="Times New Roman,serif" font-size="14.00">cubical/example</text>
</g>
<!-- cubical/path&#45;&gt;cubical/example -->
<g id="edge55" class="edge"><title>cubical/path&#45;&gt;cubical/example</title>
<path fill="none" stroke="black" d="M689.397,-143.697C689.287,-135.983 689.154,-126.712 689.031,-118.112"/>
<polygon fill="black" stroke="black" points="692.531,-118.053 688.889,-108.104 685.532,-118.153 692.531,-118.053"/>
</g>
<!-- cubical/square -->
<g id="node44" class="node"><title>cubical/square</title>
<ellipse fill="none" stroke="black" cx="838.644" cy="-90" rx="63.0888" ry="18"/>
<text text-anchor="middle" x="838.644" y="-86.3" font-family="Times New Roman,serif" font-size="14.00">cubical/square</text>
</g>
<!-- cubical/path&#45;&gt;cubical/square -->
<g id="edge56" class="edge"><title>cubical/path&#45;&gt;cubical/square</title>
<path fill="none" stroke="black" d="M719.797,-146.834C742.342,-136.243 773.407,-121.648 798.122,-110.037"/>
<polygon fill="black" stroke="black" points="799.69,-113.168 807.253,-105.748 796.714,-106.832 799.69,-113.168"/>
</g>
<!-- cubical/path&#45;&gt;cubical/V -->
<g id="edge57" class="edge"><title>cubical/path&#45;&gt;cubical/V</title>
<path fill="none" stroke="black" d="M661.763,-146.326C641.501,-135.662 613.92,-121.145 592.093,-109.657"/>
<polygon fill="black" stroke="black" points="593.609,-106.5 583.129,-104.94 590.349,-112.694 593.609,-106.5"/>
</g>
<!-- cubical/V&#45;&gt;HITs/moebius -->
<g id="edge58" class="edge"><title>cubical/V&#45;&gt;HITs/moebius</title>
<path fill="none" stroke="black" d="M556.644,-71.6966C556.644,-63.9827 556.644,-54.7125 556.644,-46.1124"/>
<polygon fill="black" stroke="black" points="560.144,-46.1043 556.644,-36.1043 553.144,-46.1044 560.144,-46.1043"/>
</g>
<!-- theorems/functions -->
<g id="node46" class="node"><title>theorems/functions</title>
<ellipse fill="none" stroke="black" cx="705.644" cy="-666" rx="79.8859" ry="18"/>
<text text-anchor="middle" x="705.644" y="-662.3" font-family="Times New Roman,serif" font-size="14.00">theorems/functions</text>
</g>
<!-- theorems/functions&#45;&gt;types/equiv -->
<g id="edge60" class="edge"><title>theorems/functions&#45;&gt;types/equiv</title>
<path fill="none" stroke="black" d="M674.899,-649.291C654.328,-638.78 627.151,-624.894 605.432,-613.797"/>
<polygon fill="black" stroke="black" points="606.991,-610.663 596.493,-609.229 603.806,-616.896 606.991,-610.663"/>
</g>
</g>
</svg>
