<?xml version="1.0" encoding="UTF-8" standalone="no"?>
<!DOCTYPE svg PUBLIC "-//W3C//DTD SVG 1.1//EN"
 "http://www.w3.org/Graphics/SVG/1.1/DTD/svg11.dtd">
<!-- Generated by graphviz version 2.38.0 (20140413.2041)
 -->
<!-- Title: dependency_map Pages: 1 -->
<svg width="1320pt" height="908pt"
 viewBox="0.00 0.00 1320.09 908.00" xmlns="http://www.w3.org/2000/svg" xmlns:xlink="http://www.w3.org/1999/xlink">
<g id="graph0" class="graph" transform="scale(1 1) rotate(0) translate(4 904)">
<title>dependency_map</title>
<polygon fill="white" stroke="none" points="-4,4 -4,-904 1316.09,-904 1316.09,4 -4,4"/>
<!-- proto -->
<g id="node1" class="node"><title>proto</title>
<ellipse fill="none" stroke="black" cx="676.693" cy="-882" rx="30.5947" ry="18"/>
<text text-anchor="middle" x="676.693" y="-878.3" font-family="Times New Roman,serif" font-size="14.00">proto</text>
</g>
<!-- types/eq -->
<g id="node2" class="node"><title>types/eq</title>
<ellipse fill="none" stroke="black" cx="736.693" cy="-810" rx="41.6928" ry="18"/>
<text text-anchor="middle" x="736.693" y="-806.3" font-family="Times New Roman,serif" font-size="14.00">types/eq</text>
</g>
<!-- proto&#45;&gt;types/eq -->
<g id="edge1" class="edge"><title>proto&#45;&gt;types/eq</title>
<path fill="none" stroke="black" d="M690.009,-865.465C697.637,-856.566 707.375,-845.205 715.981,-835.164"/>
<polygon fill="black" stroke="black" points="718.728,-837.338 722.578,-827.467 713.413,-832.782 718.728,-837.338"/>
</g>
<!-- support -->
<g id="node4" class="node"><title>support</title>
<ellipse fill="none" stroke="black" cx="736.693" cy="-738" rx="38.9931" ry="18"/>
<text text-anchor="middle" x="736.693" y="-734.3" font-family="Times New Roman,serif" font-size="14.00">support</text>
</g>
<!-- types/eq&#45;&gt;support -->
<g id="edge12" class="edge"><title>types/eq&#45;&gt;support</title>
<path fill="none" stroke="black" d="M736.693,-791.697C736.693,-783.983 736.693,-774.712 736.693,-766.112"/>
<polygon fill="black" stroke="black" points="740.193,-766.104 736.693,-756.104 733.193,-766.104 740.193,-766.104"/>
</g>
<!-- meta/hott_theory -->
<g id="node3" class="node"><title>meta/hott_theory</title>
<ellipse fill="none" stroke="black" cx="797.693" cy="-882" rx="72.2875" ry="18"/>
<text text-anchor="middle" x="797.693" y="-878.3" font-family="Times New Roman,serif" font-size="14.00">meta/hott_theory</text>
</g>
<!-- meta/hott_theory&#45;&gt;types/eq -->
<g id="edge2" class="edge"><title>meta/hott_theory&#45;&gt;types/eq</title>
<path fill="none" stroke="black" d="M782.927,-864.055C775.324,-855.33 765.925,-844.544 757.591,-834.981"/>
<polygon fill="black" stroke="black" points="760.112,-832.547 750.904,-827.307 754.835,-837.146 760.112,-832.547"/>
</g>
<!-- types/equiv -->
<g id="node5" class="node"><title>types/equiv</title>
<ellipse fill="none" stroke="black" cx="736.693" cy="-666" rx="51.9908" ry="18"/>
<text text-anchor="middle" x="736.693" y="-662.3" font-family="Times New Roman,serif" font-size="14.00">types/equiv</text>
</g>
<!-- support&#45;&gt;types/equiv -->
<g id="edge3" class="edge"><title>support&#45;&gt;types/equiv</title>
<path fill="none" stroke="black" d="M736.693,-719.697C736.693,-711.983 736.693,-702.712 736.693,-694.112"/>
<polygon fill="black" stroke="black" points="740.193,-694.104 736.693,-684.104 733.193,-694.104 740.193,-694.104"/>
</g>
<!-- types/coproduct -->
<g id="node16" class="node"><title>types/coproduct</title>
<ellipse fill="none" stroke="black" cx="556.693" cy="-522" rx="70.6878" ry="18"/>
<text text-anchor="middle" x="556.693" y="-518.3" font-family="Times New Roman,serif" font-size="14.00">types/coproduct</text>
</g>
<!-- types/equiv&#45;&gt;types/coproduct -->
<g id="edge13" class="edge"><title>types/equiv&#45;&gt;types/coproduct</title>
<path fill="none" stroke="black" d="M716.742,-649.261C684.746,-624.019 621.836,-574.39 585.138,-545.44"/>
<polygon fill="black" stroke="black" points="587.306,-542.692 577.287,-539.246 582.97,-548.187 587.306,-542.692"/>
</g>
<!-- types/heq -->
<g id="node18" class="node"><title>types/heq</title>
<ellipse fill="none" stroke="black" cx="773.693" cy="-594" rx="46.2923" ry="18"/>
<text text-anchor="middle" x="773.693" y="-590.3" font-family="Times New Roman,serif" font-size="14.00">types/heq</text>
</g>
<!-- types/equiv&#45;&gt;types/heq -->
<g id="edge14" class="edge"><title>types/equiv&#45;&gt;types/heq</title>
<path fill="none" stroke="black" d="M745.65,-648.055C749.967,-639.887 755.24,-629.912 760.043,-620.824"/>
<polygon fill="black" stroke="black" points="763.24,-622.266 764.819,-611.789 757.052,-618.994 763.24,-622.266"/>
</g>
<!-- HITs/infinitesimal -->
<g id="node19" class="node"><title>HITs/infinitesimal</title>
<ellipse fill="none" stroke="black" cx="912.693" cy="-594" rx="74.9875" ry="18"/>
<text text-anchor="middle" x="912.693" y="-590.3" font-family="Times New Roman,serif" font-size="14.00">HITs/infinitesimal</text>
</g>
<!-- types/equiv&#45;&gt;HITs/infinitesimal -->
<g id="edge15" class="edge"><title>types/equiv&#45;&gt;HITs/infinitesimal</title>
<path fill="none" stroke="black" d="M769.385,-651.998C796.565,-641.187 835.582,-625.669 866.044,-613.554"/>
<polygon fill="black" stroke="black" points="867.609,-616.698 875.608,-609.75 865.022,-610.194 867.609,-616.698"/>
</g>
<!-- types/lost -->
<g id="node20" class="node"><title>types/lost</title>
<ellipse fill="none" stroke="black" cx="1051.69" cy="-594" rx="46.2923" ry="18"/>
<text text-anchor="middle" x="1051.69" y="-590.3" font-family="Times New Roman,serif" font-size="14.00">types/lost</text>
</g>
<!-- types/equiv&#45;&gt;types/lost -->
<g id="edge16" class="edge"><title>types/equiv&#45;&gt;types/lost</title>
<path fill="none" stroke="black" d="M782.093,-657.15C834.226,-647.811 922.161,-631.066 996.693,-612 1000.29,-611.079 1004.01,-610.067 1007.73,-609.009"/>
<polygon fill="black" stroke="black" points="1008.91,-612.312 1017.51,-606.136 1006.93,-605.595 1008.91,-612.312"/>
</g>
<!-- types/unit -->
<g id="node21" class="node"><title>types/unit</title>
<ellipse fill="none" stroke="black" cx="494.693" cy="-450" rx="46.2923" ry="18"/>
<text text-anchor="middle" x="494.693" y="-446.3" font-family="Times New Roman,serif" font-size="14.00">types/unit</text>
</g>
<!-- types/equiv&#45;&gt;types/unit -->
<g id="edge17" class="edge"><title>types/equiv&#45;&gt;types/unit</title>
<path fill="none" stroke="black" d="M689.998,-657.957C628.613,-645.907 523.139,-614.92 476.693,-540 464.881,-520.946 471.747,-495.597 480.185,-476.826"/>
<polygon fill="black" stroke="black" points="483.408,-478.2 484.649,-467.678 477.118,-475.13 483.408,-478.2"/>
</g>
<!-- types/sigma -->
<g id="node22" class="node"><title>types/sigma</title>
<ellipse fill="none" stroke="black" cx="699.693" cy="-522" rx="53.8905" ry="18"/>
<text text-anchor="middle" x="699.693" y="-518.3" font-family="Times New Roman,serif" font-size="14.00">types/sigma</text>
</g>
<!-- types/equiv&#45;&gt;types/sigma -->
<g id="edge18" class="edge"><title>types/equiv&#45;&gt;types/sigma</title>
<path fill="none" stroke="black" d="M730.343,-647.972C726.638,-637.656 722.049,-624.179 718.693,-612 713.063,-591.565 708.116,-568.106 704.682,-550.405"/>
<polygon fill="black" stroke="black" points="708.05,-549.378 702.747,-540.206 701.172,-550.683 708.05,-549.378"/>
</g>
<!-- structures -->
<g id="node6" class="node"><title>structures</title>
<ellipse fill="none" stroke="black" cx="643.693" cy="-378" rx="46.2923" ry="18"/>
<text text-anchor="middle" x="643.693" y="-374.3" font-family="Times New Roman,serif" font-size="14.00">structures</text>
</g>
<!-- HITs/interval -->
<g id="node7" class="node"><title>HITs/interval</title>
<ellipse fill="none" stroke="black" cx="314.693" cy="-306" rx="57.6901" ry="18"/>
<text text-anchor="middle" x="314.693" y="-302.3" font-family="Times New Roman,serif" font-size="14.00">HITs/interval</text>
</g>
<!-- structures&#45;&gt;HITs/interval -->
<g id="edge4" class="edge"><title>structures&#45;&gt;HITs/interval</title>
<path fill="none" stroke="black" d="M604.008,-368.556C545.892,-356.191 437.357,-333.099 371.008,-318.982"/>
<polygon fill="black" stroke="black" points="371.646,-315.539 361.136,-316.882 370.189,-322.386 371.646,-315.539"/>
</g>
<!-- HITs/merely -->
<g id="node8" class="node"><title>HITs/merely</title>
<ellipse fill="none" stroke="black" cx="909.693" cy="-306" rx="55.7903" ry="18"/>
<text text-anchor="middle" x="909.693" y="-302.3" font-family="Times New Roman,serif" font-size="14.00">HITs/merely</text>
</g>
<!-- structures&#45;&gt;HITs/merely -->
<g id="edge5" class="edge"><title>structures&#45;&gt;HITs/merely</title>
<path fill="none" stroke="black" d="M678.221,-365.983C684.988,-363.922 692.047,-361.839 698.693,-360 763.521,-342.06 780.519,-340.635 845.693,-324 849.766,-322.96 853.981,-321.871 858.214,-320.767"/>
<polygon fill="black" stroke="black" points="859.283,-324.106 868.067,-318.182 857.507,-317.335 859.283,-324.106"/>
</g>
<!-- HITs/trunc -->
<g id="node9" class="node"><title>HITs/trunc</title>
<ellipse fill="none" stroke="black" cx="1056.69" cy="-306" rx="50.8918" ry="18"/>
<text text-anchor="middle" x="1056.69" y="-302.3" font-family="Times New Roman,serif" font-size="14.00">HITs/trunc</text>
</g>
<!-- structures&#45;&gt;HITs/trunc -->
<g id="edge6" class="edge"><title>structures&#45;&gt;HITs/trunc</title>
<path fill="none" stroke="black" d="M677.486,-365.567C684.442,-363.493 691.76,-361.512 698.693,-360 819.558,-333.639 852.71,-344.571 974.693,-324 984.478,-322.35 994.873,-320.371 1004.86,-318.357"/>
<polygon fill="black" stroke="black" points="1005.58,-321.782 1014.67,-316.341 1004.17,-314.925 1005.58,-321.782"/>
</g>
<!-- types/nat -->
<g id="node10" class="node"><title>types/nat</title>
<ellipse fill="none" stroke="black" cx="792.693" cy="-306" rx="43.5923" ry="18"/>
<text text-anchor="middle" x="792.693" y="-302.3" font-family="Times New Roman,serif" font-size="14.00">types/nat</text>
</g>
<!-- structures&#45;&gt;types/nat -->
<g id="edge7" class="edge"><title>structures&#45;&gt;types/nat</title>
<path fill="none" stroke="black" d="M672.07,-363.669C695.833,-352.505 729.918,-336.492 755.798,-324.333"/>
<polygon fill="black" stroke="black" points="757.364,-327.465 764.927,-320.045 754.388,-321.129 757.364,-327.465"/>
</g>
<!-- theorems/ua -->
<g id="node11" class="node"><title>theorems/ua</title>
<ellipse fill="none" stroke="black" cx="643.693" cy="-306" rx="54.6905" ry="18"/>
<text text-anchor="middle" x="643.693" y="-302.3" font-family="Times New Roman,serif" font-size="14.00">theorems/ua</text>
</g>
<!-- structures&#45;&gt;theorems/ua -->
<g id="edge8" class="edge"><title>structures&#45;&gt;theorems/ua</title>
<path fill="none" stroke="black" d="M643.693,-359.697C643.693,-351.983 643.693,-342.712 643.693,-334.112"/>
<polygon fill="black" stroke="black" points="647.193,-334.104 643.693,-324.104 640.193,-334.104 647.193,-334.104"/>
</g>
<!-- cubical/cubes -->
<g id="node39" class="node"><title>cubical/cubes</title>
<ellipse fill="none" stroke="black" cx="287.693" cy="-234" rx="60.3893" ry="18"/>
<text text-anchor="middle" x="287.693" y="-230.3" font-family="Times New Roman,serif" font-size="14.00">cubical/cubes</text>
</g>
<!-- HITs/interval&#45;&gt;cubical/cubes -->
<g id="edge41" class="edge"><title>HITs/interval&#45;&gt;cubical/cubes</title>
<path fill="none" stroke="black" d="M308.157,-288.055C305.118,-280.176 301.431,-270.617 298.028,-261.794"/>
<polygon fill="black" stroke="black" points="301.221,-260.346 294.357,-252.275 294.69,-262.865 301.221,-260.346"/>
</g>
<!-- theorems/prop -->
<g id="node40" class="node"><title>theorems/prop</title>
<ellipse fill="none" stroke="black" cx="624.693" cy="-234" rx="63.8893" ry="18"/>
<text text-anchor="middle" x="624.693" y="-230.3" font-family="Times New Roman,serif" font-size="14.00">theorems/prop</text>
</g>
<!-- HITs/interval&#45;&gt;theorems/prop -->
<g id="edge42" class="edge"><title>HITs/interval&#45;&gt;theorems/prop</title>
<path fill="none" stroke="black" d="M360.102,-294.746C414.79,-282.397 506.744,-261.634 566.566,-248.126"/>
<polygon fill="black" stroke="black" points="567.628,-251.474 576.612,-245.857 566.086,-244.646 567.628,-251.474"/>
</g>
<!-- theorems/fibration -->
<g id="node41" class="node"><title>theorems/fibration</title>
<ellipse fill="none" stroke="black" cx="76.6932" cy="-162" rx="76.8869" ry="18"/>
<text text-anchor="middle" x="76.6932" y="-158.3" font-family="Times New Roman,serif" font-size="14.00">theorems/fibration</text>
</g>
<!-- HITs/interval&#45;&gt;theorems/fibration -->
<g id="edge43" class="edge"><title>HITs/interval&#45;&gt;theorems/fibration</title>
<path fill="none" stroke="black" d="M286.737,-290.096C267.46,-279.69 241.333,-265.33 218.693,-252 181.139,-229.888 138.917,-203.182 110.346,-184.828"/>
<polygon fill="black" stroke="black" points="111.876,-181.65 101.573,-179.179 108.086,-187.536 111.876,-181.65"/>
</g>
<!-- HITs/merely&#45;&gt;theorems/prop -->
<g id="edge44" class="edge"><title>HITs/merely&#45;&gt;theorems/prop</title>
<path fill="none" stroke="black" d="M868.075,-293.789C860.63,-291.828 852.938,-289.831 845.693,-288 790.213,-273.981 726.664,-258.836 681.996,-248.34"/>
<polygon fill="black" stroke="black" points="682.731,-244.918 672.196,-246.041 681.132,-251.733 682.731,-244.918"/>
</g>
<!-- HITs/simplicial -->
<g id="node43" class="node"><title>HITs/simplicial</title>
<ellipse fill="none" stroke="black" cx="1003.69" cy="-234" rx="65.7887" ry="18"/>
<text text-anchor="middle" x="1003.69" y="-230.3" font-family="Times New Roman,serif" font-size="14.00">HITs/simplicial</text>
</g>
<!-- HITs/merely&#45;&gt;HITs/simplicial -->
<g id="edge45" class="edge"><title>HITs/merely&#45;&gt;HITs/simplicial</title>
<path fill="none" stroke="black" d="M931.023,-289.116C943.673,-279.696 959.902,-267.611 973.813,-257.251"/>
<polygon fill="black" stroke="black" points="976.192,-259.843 982.122,-251.064 972.011,-254.229 976.192,-259.843"/>
</g>
<!-- theorems/functions -->
<g id="node44" class="node"><title>theorems/functions</title>
<ellipse fill="none" stroke="black" cx="1076.69" cy="-162" rx="79.8859" ry="18"/>
<text text-anchor="middle" x="1076.69" y="-158.3" font-family="Times New Roman,serif" font-size="14.00">theorems/functions</text>
</g>
<!-- HITs/merely&#45;&gt;theorems/functions -->
<g id="edge46" class="edge"><title>HITs/merely&#45;&gt;theorems/functions</title>
<path fill="none" stroke="black" d="M908.69,-287.763C908.497,-268.065 911.219,-235.979 928.693,-216 940.6,-202.386 979.849,-188.662 1014.94,-178.592"/>
<polygon fill="black" stroke="black" points="1016.01,-181.924 1024.7,-175.851 1014.12,-175.185 1016.01,-181.924"/>
</g>
<!-- HITs/quotient -->
<g id="node38" class="node"><title>HITs/quotient</title>
<ellipse fill="none" stroke="black" cx="1152.69" cy="-234" rx="61.99" ry="18"/>
<text text-anchor="middle" x="1152.69" y="-230.3" font-family="Times New Roman,serif" font-size="14.00">HITs/quotient</text>
</g>
<!-- HITs/trunc&#45;&gt;HITs/quotient -->
<g id="edge51" class="edge"><title>HITs/trunc&#45;&gt;HITs/quotient</title>
<path fill="none" stroke="black" d="M1078,-289.465C1091.11,-279.902 1108.12,-267.498 1122.6,-256.943"/>
<polygon fill="black" stroke="black" points="1124.76,-259.697 1130.78,-250.977 1120.64,-254.041 1124.76,-259.697"/>
</g>
<!-- theorems/nat -->
<g id="node28" class="node"><title>theorems/nat</title>
<ellipse fill="none" stroke="black" cx="800.693" cy="-234" rx="57.3905" ry="18"/>
<text text-anchor="middle" x="800.693" y="-230.3" font-family="Times New Roman,serif" font-size="14.00">theorems/nat</text>
</g>
<!-- types/nat&#45;&gt;theorems/nat -->
<g id="edge24" class="edge"><title>types/nat&#45;&gt;theorems/nat</title>
<path fill="none" stroke="black" d="M794.671,-287.697C795.552,-279.983 796.612,-270.712 797.595,-262.112"/>
<polygon fill="black" stroke="black" points="801.08,-262.437 798.738,-252.104 794.125,-261.642 801.08,-262.437"/>
</g>
<!-- theorems/ua&#45;&gt;theorems/nat -->
<g id="edge65" class="edge"><title>theorems/ua&#45;&gt;theorems/nat</title>
<path fill="none" stroke="black" d="M674.711,-291.17C699.066,-280.312 733.188,-265.098 759.778,-253.242"/>
<polygon fill="black" stroke="black" points="761.494,-256.31 769.202,-249.041 758.644,-249.916 761.494,-256.31"/>
</g>
<!-- cubical/V -->
<g id="node49" class="node"><title>cubical/V</title>
<ellipse fill="none" stroke="black" cx="402.693" cy="-90" rx="45.4919" ry="18"/>
<text text-anchor="middle" x="402.693" y="-86.3" font-family="Times New Roman,serif" font-size="14.00">cubical/V</text>
</g>
<!-- theorems/ua&#45;&gt;cubical/V -->
<g id="edge66" class="edge"><title>theorems/ua&#45;&gt;cubical/V</title>
<path fill="none" stroke="black" d="M614.081,-290.857C595.304,-281.203 571.002,-267.404 551.693,-252 498.997,-209.962 447.942,-149.09 421.449,-115.523"/>
<polygon fill="black" stroke="black" points="424.174,-113.327 415.257,-107.606 418.66,-117.639 424.174,-113.327"/>
</g>
<!-- algebra/eilenberg_maclane -->
<g id="node12" class="node"><title>algebra/eilenberg_maclane</title>
<ellipse fill="none" stroke="black" cx="1037.69" cy="-18" rx="105.082" ry="18"/>
<text text-anchor="middle" x="1037.69" y="-14.3" font-family="Times New Roman,serif" font-size="14.00">algebra/eilenberg_maclane</text>
</g>
<!-- algebra/group -->
<g id="node13" class="node"><title>algebra/group</title>
<ellipse fill="none" stroke="black" cx="1076.69" cy="-90" rx="60.3893" ry="18"/>
<text text-anchor="middle" x="1076.69" y="-86.3" font-family="Times New Roman,serif" font-size="14.00">algebra/group</text>
</g>
<!-- algebra/group&#45;&gt;algebra/eilenberg_maclane -->
<g id="edge9" class="edge"><title>algebra/group&#45;&gt;algebra/eilenberg_maclane</title>
<path fill="none" stroke="black" d="M1067.25,-72.055C1062.77,-64.0067 1057.31,-54.2046 1052.3,-45.2259"/>
<polygon fill="black" stroke="black" points="1055.24,-43.3075 1047.32,-36.2753 1049.13,-46.7145 1055.24,-43.3075"/>
</g>
<!-- algebra/homology -->
<g id="node14" class="node"><title>algebra/homology</title>
<ellipse fill="none" stroke="black" cx="1236.69" cy="-18" rx="75.2868" ry="18"/>
<text text-anchor="middle" x="1236.69" y="-14.3" font-family="Times New Roman,serif" font-size="14.00">algebra/homology</text>
</g>
<!-- algebra/group&#45;&gt;algebra/homology -->
<g id="edge10" class="edge"><title>algebra/group&#45;&gt;algebra/homology</title>
<path fill="none" stroke="black" d="M1109.46,-74.6655C1133.56,-64.1208 1166.57,-49.6772 1192.93,-38.1452"/>
<polygon fill="black" stroke="black" points="1194.56,-41.2557 1202.31,-34.0409 1191.75,-34.8426 1194.56,-41.2557"/>
</g>
<!-- types/category -->
<g id="node15" class="node"><title>types/category</title>
<ellipse fill="none" stroke="black" cx="689.693" cy="-90" rx="63.8893" ry="18"/>
<text text-anchor="middle" x="689.693" y="-86.3" font-family="Times New Roman,serif" font-size="14.00">types/category</text>
</g>
<!-- types/coproduct&#45;&gt;structures -->
<g id="edge11" class="edge"><title>types/coproduct&#45;&gt;structures</title>
<path fill="none" stroke="black" d="M567.015,-504.153C582.124,-479.493 610.38,-433.374 628.05,-404.533"/>
<polygon fill="black" stroke="black" points="631.145,-406.18 633.385,-395.825 625.176,-402.523 631.145,-406.18"/>
</g>
<!-- types/dedekind -->
<g id="node17" class="node"><title>types/dedekind</title>
<ellipse fill="none" stroke="black" cx="848.693" cy="-18" rx="65.7887" ry="18"/>
<text text-anchor="middle" x="848.693" y="-14.3" font-family="Times New Roman,serif" font-size="14.00">types/dedekind</text>
</g>
<!-- HITs/graph -->
<g id="node23" class="node"><title>HITs/graph</title>
<ellipse fill="none" stroke="black" cx="937.693" cy="-450" rx="52.7911" ry="18"/>
<text text-anchor="middle" x="937.693" y="-446.3" font-family="Times New Roman,serif" font-size="14.00">HITs/graph</text>
</g>
<!-- types/heq&#45;&gt;HITs/graph -->
<g id="edge19" class="edge"><title>types/heq&#45;&gt;HITs/graph</title>
<path fill="none" stroke="black" d="M808.904,-582.099C849.369,-569.27 911.2,-548.624 918.693,-540 933.382,-523.094 937.63,-497.623 938.495,-478.256"/>
<polygon fill="black" stroke="black" points="941.995,-478.277 938.673,-468.217 934.996,-478.153 941.995,-478.277"/>
</g>
<!-- theorems/funext -->
<g id="node24" class="node"><title>theorems/funext</title>
<ellipse fill="none" stroke="black" cx="840.693" cy="-522" rx="68.7879" ry="18"/>
<text text-anchor="middle" x="840.693" y="-518.3" font-family="Times New Roman,serif" font-size="14.00">theorems/funext</text>
</g>
<!-- types/heq&#45;&gt;theorems/funext -->
<g id="edge20" class="edge"><title>types/heq&#45;&gt;theorems/funext</title>
<path fill="none" stroke="black" d="M789.233,-576.765C797.652,-567.969 808.219,-556.928 817.584,-547.144"/>
<polygon fill="black" stroke="black" points="820.387,-549.278 824.773,-539.633 815.33,-544.437 820.387,-549.278"/>
</g>
<!-- types/unit&#45;&gt;structures -->
<g id="edge29" class="edge"><title>types/unit&#45;&gt;structures</title>
<path fill="none" stroke="black" d="M523.07,-435.669C546.683,-424.575 580.487,-408.694 606.305,-396.565"/>
<polygon fill="black" stroke="black" points="607.86,-399.702 615.422,-392.282 604.883,-393.366 607.86,-399.702"/>
</g>
<!-- HITs/suspension -->
<g id="node31" class="node"><title>HITs/suspension</title>
<ellipse fill="none" stroke="black" cx="494.693" cy="-306" rx="72.5877" ry="18"/>
<text text-anchor="middle" x="494.693" y="-302.3" font-family="Times New Roman,serif" font-size="14.00">HITs/suspension</text>
</g>
<!-- types/unit&#45;&gt;HITs/suspension -->
<g id="edge30" class="edge"><title>types/unit&#45;&gt;HITs/suspension</title>
<path fill="none" stroke="black" d="M494.693,-431.871C494.693,-407.67 494.693,-363.211 494.693,-334.393"/>
<polygon fill="black" stroke="black" points="498.193,-334.189 494.693,-324.189 491.193,-334.189 498.193,-334.189"/>
</g>
<!-- types/sigma&#45;&gt;structures -->
<g id="edge28" class="edge"><title>types/sigma&#45;&gt;structures</title>
<path fill="none" stroke="black" d="M692.938,-503.871C683.31,-479.457 665.551,-434.426 654.197,-405.635"/>
<polygon fill="black" stroke="black" points="657.397,-404.208 650.472,-396.189 650.885,-406.776 657.397,-404.208"/>
</g>
<!-- HITs/colimit -->
<g id="node35" class="node"><title>HITs/colimit</title>
<ellipse fill="none" stroke="black" cx="905.693" cy="-378" rx="56.59" ry="18"/>
<text text-anchor="middle" x="905.693" y="-374.3" font-family="Times New Roman,serif" font-size="14.00">HITs/colimit</text>
</g>
<!-- HITs/graph&#45;&gt;HITs/colimit -->
<g id="edge37" class="edge"><title>HITs/graph&#45;&gt;HITs/colimit</title>
<path fill="none" stroke="black" d="M929.947,-432.055C926.306,-424.091 921.881,-414.411 917.812,-405.51"/>
<polygon fill="black" stroke="black" points="920.931,-403.915 913.59,-396.275 914.565,-406.825 920.931,-403.915"/>
</g>
<!-- HITs/generalized -->
<g id="node36" class="node"><title>HITs/generalized</title>
<ellipse fill="none" stroke="black" cx="1052.69" cy="-378" rx="72.2875" ry="18"/>
<text text-anchor="middle" x="1052.69" y="-374.3" font-family="Times New Roman,serif" font-size="14.00">HITs/generalized</text>
</g>
<!-- HITs/graph&#45;&gt;HITs/generalized -->
<g id="edge38" class="edge"><title>HITs/graph&#45;&gt;HITs/generalized</title>
<path fill="none" stroke="black" d="M962.364,-433.983C978.437,-424.199 999.658,-411.282 1017.49,-400.427"/>
<polygon fill="black" stroke="black" points="1019.74,-403.155 1026.46,-394.966 1016.1,-397.175 1019.74,-403.155"/>
</g>
<!-- HITs/pushout -->
<g id="node37" class="node"><title>HITs/pushout</title>
<ellipse fill="none" stroke="black" cx="769.693" cy="-378" rx="61.99" ry="18"/>
<text text-anchor="middle" x="769.693" y="-374.3" font-family="Times New Roman,serif" font-size="14.00">HITs/pushout</text>
</g>
<!-- HITs/graph&#45;&gt;HITs/pushout -->
<g id="edge39" class="edge"><title>HITs/graph&#45;&gt;HITs/pushout</title>
<path fill="none" stroke="black" d="M905.698,-435.669C879.439,-424.728 842.002,-409.129 813.051,-397.066"/>
<polygon fill="black" stroke="black" points="814.164,-393.738 803.587,-393.122 811.472,-400.199 814.164,-393.738"/>
</g>
<!-- HITs/graph&#45;&gt;HITs/quotient -->
<g id="edge40" class="edge"><title>HITs/graph&#45;&gt;HITs/quotient</title>
<path fill="none" stroke="black" d="M985.317,-442.316C1036.91,-434.047 1114.46,-418.281 1133.69,-396 1165.86,-358.734 1162.94,-297.236 1157.86,-262.013"/>
<polygon fill="black" stroke="black" points="1161.3,-261.301 1156.26,-251.981 1154.38,-262.409 1161.3,-261.301"/>
</g>
<!-- types/product -->
<g id="node30" class="node"><title>types/product</title>
<ellipse fill="none" stroke="black" cx="783.693" cy="-450" rx="61.99" ry="18"/>
<text text-anchor="middle" x="783.693" y="-446.3" font-family="Times New Roman,serif" font-size="14.00">types/product</text>
</g>
<!-- theorems/funext&#45;&gt;types/product -->
<g id="edge59" class="edge"><title>theorems/funext&#45;&gt;types/product</title>
<path fill="none" stroke="black" d="M826.895,-504.055C819.964,-495.543 811.435,-485.068 803.791,-475.681"/>
<polygon fill="black" stroke="black" points="806.393,-473.333 797.364,-467.789 800.965,-477.753 806.393,-473.333"/>
</g>
<!-- types/integer -->
<g id="node25" class="node"><title>types/integer</title>
<ellipse fill="none" stroke="black" cx="922.693" cy="-162" rx="56.59" ry="18"/>
<text text-anchor="middle" x="922.693" y="-158.3" font-family="Times New Roman,serif" font-size="14.00">types/integer</text>
</g>
<!-- types/integer&#45;&gt;algebra/group -->
<g id="edge21" class="edge"><title>types/integer&#45;&gt;algebra/group</title>
<path fill="none" stroke="black" d="M953.857,-146.834C977.497,-136.089 1010.2,-121.225 1035.92,-109.535"/>
<polygon fill="black" stroke="black" points="1037.39,-112.709 1045.05,-105.385 1034.49,-106.337 1037.39,-112.709"/>
</g>
<!-- HITs/circle -->
<g id="node26" class="node"><title>HITs/circle</title>
<ellipse fill="none" stroke="black" cx="517.693" cy="-90" rx="51.9908" ry="18"/>
<text text-anchor="middle" x="517.693" y="-86.3" font-family="Times New Roman,serif" font-size="14.00">HITs/circle</text>
</g>
<!-- types/integer&#45;&gt;HITs/circle -->
<g id="edge22" class="edge"><title>types/integer&#45;&gt;HITs/circle</title>
<path fill="none" stroke="black" d="M881.587,-149.536C873.692,-147.537 865.464,-145.592 857.693,-144 751.597,-122.267 723.624,-125.165 616.693,-108 602.56,-105.731 587.313,-103.17 573.119,-100.737"/>
<polygon fill="black" stroke="black" points="573.45,-97.2421 563.001,-98.9934 572.261,-104.14 573.45,-97.2421"/>
</g>
<!-- types/rational -->
<g id="node27" class="node"><title>types/rational</title>
<ellipse fill="none" stroke="black" cx="885.693" cy="-90" rx="59.2899" ry="18"/>
<text text-anchor="middle" x="885.693" y="-86.3" font-family="Times New Roman,serif" font-size="14.00">types/rational</text>
</g>
<!-- types/integer&#45;&gt;types/rational -->
<g id="edge23" class="edge"><title>types/integer&#45;&gt;types/rational</title>
<path fill="none" stroke="black" d="M913.737,-144.055C909.482,-136.007 904.301,-126.205 899.555,-117.226"/>
<polygon fill="black" stroke="black" points="902.592,-115.481 894.824,-108.275 896.403,-118.752 902.592,-115.481"/>
</g>
<!-- theorems/hopf -->
<g id="node32" class="node"><title>theorems/hopf</title>
<ellipse fill="none" stroke="black" cx="387.693" cy="-18" rx="63.8893" ry="18"/>
<text text-anchor="middle" x="387.693" y="-14.3" font-family="Times New Roman,serif" font-size="14.00">theorems/hopf</text>
</g>
<!-- HITs/circle&#45;&gt;theorems/hopf -->
<g id="edge31" class="edge"><title>HITs/circle&#45;&gt;theorems/hopf</title>
<path fill="none" stroke="black" d="M490.757,-74.496C471.711,-64.2402 445.932,-50.3592 424.921,-39.0457"/>
<polygon fill="black" stroke="black" points="426.408,-35.8713 415.944,-34.2119 423.089,-42.0346 426.408,-35.8713"/>
</g>
<!-- HITs/moebius -->
<g id="node33" class="node"><title>HITs/moebius</title>
<ellipse fill="none" stroke="black" cx="647.693" cy="-18" rx="63.0888" ry="18"/>
<text text-anchor="middle" x="647.693" y="-14.3" font-family="Times New Roman,serif" font-size="14.00">HITs/moebius</text>
</g>
<!-- HITs/circle&#45;&gt;HITs/moebius -->
<g id="edge32" class="edge"><title>HITs/circle&#45;&gt;HITs/moebius</title>
<path fill="none" stroke="black" d="M544.629,-74.496C563.676,-64.2402 589.455,-50.3592 610.465,-39.0457"/>
<polygon fill="black" stroke="black" points="612.297,-42.0346 619.443,-34.2119 608.978,-35.8713 612.297,-42.0346"/>
</g>
<!-- HITs/reals -->
<g id="node34" class="node"><title>HITs/reals</title>
<ellipse fill="none" stroke="black" cx="517.693" cy="-18" rx="48.9926" ry="18"/>
<text text-anchor="middle" x="517.693" y="-14.3" font-family="Times New Roman,serif" font-size="14.00">HITs/reals</text>
</g>
<!-- HITs/circle&#45;&gt;HITs/reals -->
<g id="edge33" class="edge"><title>HITs/circle&#45;&gt;HITs/reals</title>
<path fill="none" stroke="black" d="M517.693,-71.6966C517.693,-63.9827 517.693,-54.7125 517.693,-46.1124"/>
<polygon fill="black" stroke="black" points="521.193,-46.1043 517.693,-36.1043 514.193,-46.1044 521.193,-46.1043"/>
</g>
<!-- types/rational&#45;&gt;types/dedekind -->
<g id="edge27" class="edge"><title>types/rational&#45;&gt;types/dedekind</title>
<path fill="none" stroke="black" d="M876.737,-72.055C872.482,-64.0067 867.301,-54.2046 862.555,-45.2259"/>
<polygon fill="black" stroke="black" points="865.592,-43.4807 857.824,-36.2753 859.403,-46.7519 865.592,-43.4807"/>
</g>
<!-- theorems/nat&#45;&gt;types/integer -->
<g id="edge60" class="edge"><title>theorems/nat&#45;&gt;types/integer</title>
<path fill="none" stroke="black" d="M826.865,-217.983C844.635,-207.787 868.336,-194.189 887.72,-183.067"/>
<polygon fill="black" stroke="black" points="889.633,-186.004 896.564,-177.992 886.149,-179.933 889.633,-186.004"/>
</g>
<!-- HITs/int -->
<g id="node50" class="node"><title>HITs/int</title>
<ellipse fill="none" stroke="black" cx="807.693" cy="-162" rx="40.8928" ry="18"/>
<text text-anchor="middle" x="807.693" y="-158.3" font-family="Times New Roman,serif" font-size="14.00">HITs/int</text>
</g>
<!-- theorems/nat&#45;&gt;HITs/int -->
<g id="edge61" class="edge"><title>theorems/nat&#45;&gt;HITs/int</title>
<path fill="none" stroke="black" d="M802.424,-215.697C803.195,-207.983 804.122,-198.712 804.982,-190.112"/>
<polygon fill="black" stroke="black" points="808.47,-190.403 805.983,-180.104 801.505,-189.706 808.47,-190.403"/>
</g>
<!-- types/precategory -->
<g id="node29" class="node"><title>types/precategory</title>
<ellipse fill="none" stroke="black" cx="673.693" cy="-162" rx="75.2868" ry="18"/>
<text text-anchor="middle" x="673.693" y="-158.3" font-family="Times New Roman,serif" font-size="14.00">types/precategory</text>
</g>
<!-- types/precategory&#45;&gt;types/category -->
<g id="edge25" class="edge"><title>types/precategory&#45;&gt;types/category</title>
<path fill="none" stroke="black" d="M677.648,-143.697C679.411,-135.983 681.53,-126.712 683.496,-118.112"/>
<polygon fill="black" stroke="black" points="686.967,-118.633 685.784,-108.104 680.143,-117.073 686.967,-118.633"/>
</g>
<!-- types/product&#45;&gt;structures -->
<g id="edge26" class="edge"><title>types/product&#45;&gt;structures</title>
<path fill="none" stroke="black" d="M754.003,-434.155C732.416,-423.361 703.071,-408.689 680.074,-397.19"/>
<polygon fill="black" stroke="black" points="681.476,-393.979 670.967,-392.637 678.346,-400.24 681.476,-393.979"/>
</g>
<!-- HITs/suspension&#45;&gt;HITs/circle -->
<g id="edge49" class="edge"><title>HITs/suspension&#45;&gt;HITs/circle</title>
<path fill="none" stroke="black" d="M496.537,-287.849C500.515,-250.832 509.935,-163.181 514.75,-118.386"/>
<polygon fill="black" stroke="black" points="518.252,-118.549 515.841,-108.232 511.292,-117.801 518.252,-118.549"/>
</g>
<!-- HITs/join -->
<g id="node42" class="node"><title>HITs/join</title>
<ellipse fill="none" stroke="black" cx="421.693" cy="-234" rx="45.4919" ry="18"/>
<text text-anchor="middle" x="421.693" y="-230.3" font-family="Times New Roman,serif" font-size="14.00">HITs/join</text>
</g>
<!-- HITs/suspension&#45;&gt;HITs/join -->
<g id="edge50" class="edge"><title>HITs/suspension&#45;&gt;HITs/join</title>
<path fill="none" stroke="black" d="M477.393,-288.411C467.894,-279.302 455.968,-267.866 445.592,-257.916"/>
<polygon fill="black" stroke="black" points="448.007,-255.383 438.367,-250.988 443.162,-260.436 448.007,-255.383"/>
</g>
<!-- HITs/colimit&#45;&gt;HITs/merely -->
<g id="edge34" class="edge"><title>HITs/colimit&#45;&gt;HITs/merely</title>
<path fill="none" stroke="black" d="M906.682,-359.697C907.123,-351.983 907.652,-342.712 908.144,-334.112"/>
<polygon fill="black" stroke="black" points="911.64,-334.288 908.716,-324.104 904.651,-333.888 911.64,-334.288"/>
</g>
<!-- HITs/colimit&#45;&gt;types/nat -->
<g id="edge35" class="edge"><title>HITs/colimit&#45;&gt;types/nat</title>
<path fill="none" stroke="black" d="M880.895,-361.638C864.408,-351.425 842.597,-337.914 824.79,-326.883"/>
<polygon fill="black" stroke="black" points="826.236,-323.662 815.892,-321.371 822.55,-329.612 826.236,-323.662"/>
</g>
<!-- HITs/generalized&#45;&gt;HITs/merely -->
<g id="edge36" class="edge"><title>HITs/generalized&#45;&gt;HITs/merely</title>
<path fill="none" stroke="black" d="M1021.31,-361.638C999.778,-351.097 971.067,-337.043 948.156,-325.828"/>
<polygon fill="black" stroke="black" points="949.571,-322.624 939.051,-321.371 946.494,-328.911 949.571,-322.624"/>
</g>
<!-- HITs/pushout&#45;&gt;HITs/suspension -->
<g id="edge47" class="edge"><title>HITs/pushout&#45;&gt;HITs/suspension</title>
<path fill="none" stroke="black" d="M724.898,-365.597C678.24,-353.721 604.925,-335.059 553.603,-321.995"/>
<polygon fill="black" stroke="black" points="554.2,-318.536 543.646,-319.461 552.474,-325.319 554.2,-318.536"/>
</g>
<!-- HITs/quotient&#45;&gt;algebra/group -->
<g id="edge48" class="edge"><title>HITs/quotient&#45;&gt;algebra/group</title>
<path fill="none" stroke="black" d="M1161.13,-216.09C1169.23,-197.267 1178.5,-166.536 1165.69,-144 1156.7,-128.186 1140.93,-116.594 1125.12,-108.358"/>
<polygon fill="black" stroke="black" points="1126.4,-105.085 1115.87,-103.889 1123.35,-111.389 1126.4,-105.085"/>
</g>
<!-- cubical/path -->
<g id="node46" class="node"><title>cubical/path</title>
<ellipse fill="none" stroke="black" cx="284.693" cy="-162" rx="54.6905" ry="18"/>
<text text-anchor="middle" x="284.693" y="-158.3" font-family="Times New Roman,serif" font-size="14.00">cubical/path</text>
</g>
<!-- cubical/cubes&#45;&gt;cubical/path -->
<g id="edge52" class="edge"><title>cubical/cubes&#45;&gt;cubical/path</title>
<path fill="none" stroke="black" d="M286.952,-215.697C286.621,-207.983 286.224,-198.712 285.855,-190.112"/>
<polygon fill="black" stroke="black" points="289.351,-189.945 285.426,-180.104 282.358,-190.245 289.351,-189.945"/>
</g>
<!-- theorems/prop&#45;&gt;algebra/eilenberg_maclane -->
<g id="edge62" class="edge"><title>theorems/prop&#45;&gt;algebra/eilenberg_maclane</title>
<path fill="none" stroke="black" d="M609.875,-216.173C602.231,-206.353 593.69,-193.306 589.693,-180 575.459,-132.615 577.74,-102.506 616.693,-72 670.773,-29.648 855.605,-45.0667 923.693,-36 932.968,-34.765 942.658,-33.414 952.301,-32.0306"/>
<polygon fill="black" stroke="black" points="952.92,-35.4776 962.315,-30.5807 951.917,-28.5499 952.92,-35.4776"/>
</g>
<!-- theorems/prop&#45;&gt;HITs/circle -->
<g id="edge63" class="edge"><title>theorems/prop&#45;&gt;HITs/circle</title>
<path fill="none" stroke="black" d="M598.852,-217.397C584.923,-207.961 568.269,-194.889 556.693,-180 542.19,-161.346 531.883,-136.463 525.521,-117.751"/>
<polygon fill="black" stroke="black" points="528.798,-116.507 522.391,-108.068 522.137,-118.66 528.798,-116.507"/>
</g>
<!-- theorems/prop&#45;&gt;types/precategory -->
<g id="edge64" class="edge"><title>theorems/prop&#45;&gt;types/precategory</title>
<path fill="none" stroke="black" d="M636.555,-216.055C642.393,-207.715 649.55,-197.491 656.017,-188.252"/>
<polygon fill="black" stroke="black" points="659.074,-189.988 661.941,-179.789 653.339,-185.974 659.074,-189.988"/>
</g>
<!-- theorems/fibration&#45;&gt;theorems/hopf -->
<g id="edge57" class="edge"><title>theorems/fibration&#45;&gt;theorems/hopf</title>
<path fill="none" stroke="black" d="M56.3535,-144.557C35.3165,-125.605 8.08707,-94.2191 27.6932,-72 70.2219,-23.8034 251.418,-47.3046 314.693,-36 320.137,-35.0274 325.786,-33.9091 331.421,-32.7204"/>
<polygon fill="black" stroke="black" points="332.478,-36.0722 341.502,-30.521 330.986,-29.2331 332.478,-36.0722"/>
</g>
<!-- theorems/functions&#45;&gt;algebra/group -->
<g id="edge58" class="edge"><title>theorems/functions&#45;&gt;algebra/group</title>
<path fill="none" stroke="black" d="M1076.69,-143.697C1076.69,-135.983 1076.69,-126.712 1076.69,-118.112"/>
<polygon fill="black" stroke="black" points="1080.19,-118.104 1076.69,-108.104 1073.19,-118.104 1080.19,-118.104"/>
</g>
<!-- cubical/connection -->
<g id="node45" class="node"><title>cubical/connection</title>
<ellipse fill="none" stroke="black" cx="115.693" cy="-90" rx="79.0865" ry="18"/>
<text text-anchor="middle" x="115.693" y="-86.3" font-family="Times New Roman,serif" font-size="14.00">cubical/connection</text>
</g>
<!-- cubical/path&#45;&gt;cubical/connection -->
<g id="edge53" class="edge"><title>cubical/path&#45;&gt;cubical/connection</title>
<path fill="none" stroke="black" d="M252.108,-147.503C226.342,-136.831 190.061,-121.803 161.391,-109.928"/>
<polygon fill="black" stroke="black" points="162.565,-106.626 151.987,-106.033 159.886,-113.093 162.565,-106.626"/>
</g>
<!-- cubical/square -->
<g id="node48" class="node"><title>cubical/square</title>
<ellipse fill="none" stroke="black" cx="275.693" cy="-90" rx="63.0888" ry="18"/>
<text text-anchor="middle" x="275.693" y="-86.3" font-family="Times New Roman,serif" font-size="14.00">cubical/square</text>
</g>
<!-- cubical/path&#45;&gt;cubical/square -->
<g id="edge54" class="edge"><title>cubical/path&#45;&gt;cubical/square</title>
<path fill="none" stroke="black" d="M282.468,-143.697C281.477,-135.983 280.285,-126.712 279.179,-118.112"/>
<polygon fill="black" stroke="black" points="282.639,-117.576 277.892,-108.104 275.696,-118.469 282.639,-117.576"/>
</g>
<!-- cubical/path&#45;&gt;cubical/V -->
<g id="edge55" class="edge"><title>cubical/path&#45;&gt;cubical/V</title>
<path fill="none" stroke="black" d="M310.007,-145.983C327.35,-135.695 350.532,-121.943 369.373,-110.766"/>
<polygon fill="black" stroke="black" points="371.414,-113.625 378.229,-105.513 367.843,-107.605 371.414,-113.625"/>
</g>
<!-- cubical/example -->
<g id="node47" class="node"><title>cubical/example</title>
<ellipse fill="none" stroke="black" cx="236.693" cy="-18" rx="68.7879" ry="18"/>
<text text-anchor="middle" x="236.693" y="-14.3" font-family="Times New Roman,serif" font-size="14.00">cubical/example</text>
</g>
<!-- cubical/V&#45;&gt;cubical/example -->
<g id="edge56" class="edge"><title>cubical/V&#45;&gt;cubical/example</title>
<path fill="none" stroke="black" d="M372.632,-76.3235C347.03,-65.5274 309.894,-49.8677 280.903,-37.6428"/>
<polygon fill="black" stroke="black" points="281.987,-34.3013 271.412,-33.6407 279.267,-40.7512 281.987,-34.3013"/>
</g>
</g>
</svg>
