<?xml version="1.0" encoding="UTF-8" standalone="no"?>
<!DOCTYPE svg PUBLIC "-//W3C//DTD SVG 1.1//EN"
 "http://www.w3.org/Graphics/SVG/1.1/DTD/svg11.dtd">
<!-- Generated by graphviz version 2.43.0 (0)
 -->
<!-- Title: dependency_map Pages: 1 -->
<svg width="1896pt" height="1052pt"
 viewBox="0.00 0.00 1896.44 1052.00" xmlns="http://www.w3.org/2000/svg" xmlns:xlink="http://www.w3.org/1999/xlink">
<g id="graph0" class="graph" transform="scale(1 1) rotate(0) translate(4 1048)">
<title>dependency_map</title>
<polygon fill="white" stroke="transparent" points="-4,4 -4,-1048 1892.44,-1048 1892.44,4 -4,4"/>
<!-- proto -->
<g id="node1" class="node">
<title>proto</title>
<ellipse fill="none" stroke="black" cx="1288.84" cy="-1026" rx="36" ry="18"/>
<text text-anchor="middle" x="1288.84" y="-1022.3" font-family="Times,serif" font-size="14.00">proto</text>
</g>
<!-- types/eq -->
<g id="node2" class="node">
<title>types/eq</title>
<ellipse fill="none" stroke="black" cx="1360.84" cy="-954" rx="50.09" ry="18"/>
<text text-anchor="middle" x="1360.84" y="-950.3" font-family="Times,serif" font-size="14.00">types/eq</text>
</g>
<!-- proto&#45;&gt;types/eq -->
<g id="edge1" class="edge">
<title>proto&#45;&gt;types/eq</title>
<path fill="none" stroke="black" d="M1304.82,-1009.46C1314.22,-1000.32 1326.29,-988.59 1336.82,-978.35"/>
<polygon fill="black" stroke="black" points="1339.43,-980.7 1344.16,-971.22 1334.55,-975.68 1339.43,-980.7"/>
</g>
<!-- support -->
<g id="node4" class="node">
<title>support</title>
<ellipse fill="none" stroke="black" cx="1360.84" cy="-882" rx="46.59" ry="18"/>
<text text-anchor="middle" x="1360.84" y="-878.3" font-family="Times,serif" font-size="14.00">support</text>
</g>
<!-- types/eq&#45;&gt;support -->
<g id="edge19" class="edge">
<title>types/eq&#45;&gt;support</title>
<path fill="none" stroke="black" d="M1360.84,-935.7C1360.84,-927.98 1360.84,-918.71 1360.84,-910.11"/>
<polygon fill="black" stroke="black" points="1364.34,-910.1 1360.84,-900.1 1357.34,-910.1 1364.34,-910.1"/>
</g>
<!-- meta/hott_theory -->
<g id="node3" class="node">
<title>meta/hott_theory</title>
<ellipse fill="none" stroke="black" cx="1433.84" cy="-1026" rx="90.98" ry="18"/>
<text text-anchor="middle" x="1433.84" y="-1022.3" font-family="Times,serif" font-size="14.00">meta/hott_theory</text>
</g>
<!-- meta/hott_theory&#45;&gt;types/eq -->
<g id="edge2" class="edge">
<title>meta/hott_theory&#45;&gt;types/eq</title>
<path fill="none" stroke="black" d="M1416.17,-1008.05C1406.89,-999.16 1395.37,-988.11 1385.25,-978.41"/>
<polygon fill="black" stroke="black" points="1387.49,-975.7 1377.85,-971.31 1382.64,-980.75 1387.49,-975.7"/>
</g>
<!-- types/equiv -->
<g id="node5" class="node">
<title>types/equiv</title>
<ellipse fill="none" stroke="black" cx="1360.84" cy="-810" rx="64.19" ry="18"/>
<text text-anchor="middle" x="1360.84" y="-806.3" font-family="Times,serif" font-size="14.00">types/equiv</text>
</g>
<!-- support&#45;&gt;types/equiv -->
<g id="edge3" class="edge">
<title>support&#45;&gt;types/equiv</title>
<path fill="none" stroke="black" d="M1360.84,-863.7C1360.84,-855.98 1360.84,-846.71 1360.84,-838.11"/>
<polygon fill="black" stroke="black" points="1364.34,-838.1 1360.84,-828.1 1357.34,-838.1 1364.34,-838.1"/>
</g>
<!-- types/coproduct -->
<g id="node23" class="node">
<title>types/coproduct</title>
<ellipse fill="none" stroke="black" cx="1059.84" cy="-666" rx="85.29" ry="18"/>
<text text-anchor="middle" x="1059.84" y="-662.3" font-family="Times,serif" font-size="14.00">types/coproduct</text>
</g>
<!-- types/equiv&#45;&gt;types/coproduct -->
<g id="edge22" class="edge">
<title>types/equiv&#45;&gt;types/coproduct</title>
<path fill="none" stroke="black" d="M1329.48,-794.21C1275.17,-768.58 1163.56,-715.93 1102.33,-687.05"/>
<polygon fill="black" stroke="black" points="1103.49,-683.72 1092.96,-682.62 1100.51,-690.06 1103.49,-683.72"/>
</g>
<!-- types/heq -->
<g id="node26" class="node">
<title>types/heq</title>
<ellipse fill="none" stroke="black" cx="1318.84" cy="-738" rx="55.79" ry="18"/>
<text text-anchor="middle" x="1318.84" y="-734.3" font-family="Times,serif" font-size="14.00">types/heq</text>
</g>
<!-- types/equiv&#45;&gt;types/heq -->
<g id="edge23" class="edge">
<title>types/equiv&#45;&gt;types/heq</title>
<path fill="none" stroke="black" d="M1350.67,-792.05C1345.72,-783.8 1339.66,-773.7 1334.16,-764.54"/>
<polygon fill="black" stroke="black" points="1337.06,-762.56 1328.91,-755.79 1331.06,-766.16 1337.06,-762.56"/>
</g>
<!-- HITs/infinitesimal -->
<g id="node27" class="node">
<title>HITs/infinitesimal</title>
<ellipse fill="none" stroke="black" cx="1523.84" cy="-738" rx="92.88" ry="18"/>
<text text-anchor="middle" x="1523.84" y="-734.3" font-family="Times,serif" font-size="14.00">HITs/infinitesimal</text>
</g>
<!-- types/equiv&#45;&gt;HITs/infinitesimal -->
<g id="edge24" class="edge">
<title>types/equiv&#45;&gt;HITs/infinitesimal</title>
<path fill="none" stroke="black" d="M1394.62,-794.5C1418.78,-784.12 1451.6,-770.03 1478.11,-758.64"/>
<polygon fill="black" stroke="black" points="1479.76,-761.74 1487.56,-754.58 1476.99,-755.31 1479.76,-761.74"/>
</g>
<!-- types/lost -->
<g id="node28" class="node">
<title>types/lost</title>
<ellipse fill="none" stroke="black" cx="1690.84" cy="-738" rx="55.79" ry="18"/>
<text text-anchor="middle" x="1690.84" y="-734.3" font-family="Times,serif" font-size="14.00">types/lost</text>
</g>
<!-- types/equiv&#45;&gt;types/lost -->
<g id="edge25" class="edge">
<title>types/equiv&#45;&gt;types/lost</title>
<path fill="none" stroke="black" d="M1413.08,-799.49C1466.66,-789.51 1552.35,-772.94 1625.84,-756 1630.24,-754.98 1634.8,-753.89 1639.37,-752.76"/>
<polygon fill="black" stroke="black" points="1640.48,-756.09 1649.32,-750.25 1638.77,-749.3 1640.48,-756.09"/>
</g>
<!-- types/unit -->
<g id="node29" class="node">
<title>types/unit</title>
<ellipse fill="none" stroke="black" cx="1502.84" cy="-594" rx="57.69" ry="18"/>
<text text-anchor="middle" x="1502.84" y="-590.3" font-family="Times,serif" font-size="14.00">types/unit</text>
</g>
<!-- types/equiv&#45;&gt;types/unit -->
<g id="edge26" class="edge">
<title>types/equiv&#45;&gt;types/unit</title>
<path fill="none" stroke="black" d="M1371.98,-792.21C1396.82,-754.78 1456.82,-664.35 1486.15,-620.16"/>
<polygon fill="black" stroke="black" points="1489.14,-621.98 1491.75,-611.71 1483.31,-618.11 1489.14,-621.98"/>
</g>
<!-- types/sigma -->
<g id="node30" class="node">
<title>types/sigma</title>
<ellipse fill="none" stroke="black" cx="889.84" cy="-666" rx="66.89" ry="18"/>
<text text-anchor="middle" x="889.84" y="-662.3" font-family="Times,serif" font-size="14.00">types/sigma</text>
</g>
<!-- types/equiv&#45;&gt;types/sigma -->
<g id="edge27" class="edge">
<title>types/equiv&#45;&gt;types/sigma</title>
<path fill="none" stroke="black" d="M1316.18,-797.01C1277.6,-786.54 1220.4,-770.76 1170.84,-756 1089.87,-731.89 996.48,-701.87 940.35,-683.58"/>
<polygon fill="black" stroke="black" points="941.25,-680.19 930.66,-680.42 939.08,-686.85 941.25,-680.19"/>
</g>
<!-- structures -->
<g id="node6" class="node">
<title>structures</title>
<ellipse fill="none" stroke="black" cx="1046.84" cy="-522" rx="59.29" ry="18"/>
<text text-anchor="middle" x="1046.84" y="-518.3" font-family="Times,serif" font-size="14.00">structures</text>
</g>
<!-- HITs/interval -->
<g id="node7" class="node">
<title>HITs/interval</title>
<ellipse fill="none" stroke="black" cx="577.84" cy="-450" rx="71.49" ry="18"/>
<text text-anchor="middle" x="577.84" y="-446.3" font-family="Times,serif" font-size="14.00">HITs/interval</text>
</g>
<!-- structures&#45;&gt;HITs/interval -->
<g id="edge4" class="edge">
<title>structures&#45;&gt;HITs/interval</title>
<path fill="none" stroke="black" d="M994.86,-513.24C910.29,-500.62 742.85,-475.63 647.88,-461.45"/>
<polygon fill="black" stroke="black" points="648.2,-457.96 637.8,-459.95 647.17,-464.89 648.2,-457.96"/>
</g>
<!-- HITs/merely -->
<g id="node8" class="node">
<title>HITs/merely</title>
<ellipse fill="none" stroke="black" cx="1347.84" cy="-450" rx="67.69" ry="18"/>
<text text-anchor="middle" x="1347.84" y="-446.3" font-family="Times,serif" font-size="14.00">HITs/merely</text>
</g>
<!-- structures&#45;&gt;HITs/merely -->
<g id="edge5" class="edge">
<title>structures&#45;&gt;HITs/merely</title>
<path fill="none" stroke="black" d="M1090.7,-509.89C1098.73,-507.9 1107.03,-505.86 1114.84,-504 1173.3,-490.05 1240.21,-474.91 1287.29,-464.4"/>
<polygon fill="black" stroke="black" points="1288.32,-467.76 1297.32,-462.17 1286.8,-460.93 1288.32,-467.76"/>
</g>
<!-- HITs/trunc -->
<g id="node9" class="node">
<title>HITs/trunc</title>
<ellipse fill="none" stroke="black" cx="1058.84" cy="-450" rx="59.59" ry="18"/>
<text text-anchor="middle" x="1058.84" y="-446.3" font-family="Times,serif" font-size="14.00">HITs/trunc</text>
</g>
<!-- structures&#45;&gt;HITs/trunc -->
<g id="edge6" class="edge">
<title>structures&#45;&gt;HITs/trunc</title>
<path fill="none" stroke="black" d="M1049.81,-503.7C1051.13,-495.98 1052.72,-486.71 1054.19,-478.11"/>
<polygon fill="black" stroke="black" points="1057.67,-478.55 1055.91,-468.1 1050.77,-477.37 1057.67,-478.55"/>
</g>
<!-- types/nat -->
<g id="node10" class="node">
<title>types/nat</title>
<ellipse fill="none" stroke="black" cx="1190.84" cy="-450" rx="53.89" ry="18"/>
<text text-anchor="middle" x="1190.84" y="-446.3" font-family="Times,serif" font-size="14.00">types/nat</text>
</g>
<!-- structures&#45;&gt;types/nat -->
<g id="edge7" class="edge">
<title>structures&#45;&gt;types/nat</title>
<path fill="none" stroke="black" d="M1077.03,-506.33C1099.02,-495.64 1128.97,-481.08 1152.62,-469.58"/>
<polygon fill="black" stroke="black" points="1154.21,-472.7 1161.68,-465.18 1151.15,-466.4 1154.21,-472.7"/>
</g>
<!-- theorems/ua -->
<g id="node11" class="node">
<title>theorems/ua</title>
<ellipse fill="none" stroke="black" cx="879.84" cy="-450" rx="68.79" ry="18"/>
<text text-anchor="middle" x="879.84" y="-446.3" font-family="Times,serif" font-size="14.00">theorems/ua</text>
</g>
<!-- structures&#45;&gt;theorems/ua -->
<g id="edge8" class="edge">
<title>structures&#45;&gt;theorems/ua</title>
<path fill="none" stroke="black" d="M1013.45,-507C987.82,-496.26 952.2,-481.33 924.18,-469.58"/>
<polygon fill="black" stroke="black" points="925.19,-466.21 914.61,-465.58 922.48,-472.67 925.19,-466.21"/>
</g>
<!-- cubical/cubes -->
<g id="node46" class="node">
<title>cubical/cubes</title>
<ellipse fill="none" stroke="black" cx="339.84" cy="-378" rx="73.39" ry="18"/>
<text text-anchor="middle" x="339.84" y="-374.3" font-family="Times,serif" font-size="14.00">cubical/cubes</text>
</g>
<!-- HITs/interval&#45;&gt;cubical/cubes -->
<g id="edge49" class="edge">
<title>HITs/interval&#45;&gt;cubical/cubes</title>
<path fill="none" stroke="black" d="M533.08,-435.83C493.93,-424.32 436.95,-407.56 395,-395.22"/>
<polygon fill="black" stroke="black" points="395.8,-391.81 385.22,-392.35 393.82,-398.52 395.8,-391.81"/>
</g>
<!-- theorems/prop -->
<g id="node47" class="node">
<title>theorems/prop</title>
<ellipse fill="none" stroke="black" cx="816.84" cy="-378" rx="79.09" ry="18"/>
<text text-anchor="middle" x="816.84" y="-374.3" font-family="Times,serif" font-size="14.00">theorems/prop</text>
</g>
<!-- HITs/interval&#45;&gt;theorems/prop -->
<g id="edge50" class="edge">
<title>HITs/interval&#45;&gt;theorems/prop</title>
<path fill="none" stroke="black" d="M622.52,-435.92C661.54,-424.49 718.38,-407.84 760.51,-395.5"/>
<polygon fill="black" stroke="black" points="761.73,-398.79 770.35,-392.62 759.77,-392.07 761.73,-398.79"/>
</g>
<!-- theorems/fibration -->
<g id="node48" class="node">
<title>theorems/fibration</title>
<ellipse fill="none" stroke="black" cx="96.84" cy="-306" rx="96.68" ry="18"/>
<text text-anchor="middle" x="96.84" y="-302.3" font-family="Times,serif" font-size="14.00">theorems/fibration</text>
</g>
<!-- HITs/interval&#45;&gt;theorems/fibration -->
<g id="edge51" class="edge">
<title>HITs/interval&#45;&gt;theorems/fibration</title>
<path fill="none" stroke="black" d="M509.7,-444.46C443.76,-438.51 341.75,-425.17 257.84,-396 210.41,-379.51 160.52,-349.71 129.07,-329.16"/>
<polygon fill="black" stroke="black" points="130.98,-326.23 120.71,-323.63 127.12,-332.07 130.98,-326.23"/>
</g>
<!-- HITs/merely&#45;&gt;theorems/prop -->
<g id="edge52" class="edge">
<title>HITs/merely&#45;&gt;theorems/prop</title>
<path fill="none" stroke="black" d="M1294.74,-438.84C1281.41,-436.44 1267.12,-434 1253.84,-432 1129.9,-413.29 985.41,-396.8 897.56,-387.37"/>
<polygon fill="black" stroke="black" points="897.72,-383.86 887.4,-386.28 896.97,-390.82 897.72,-383.86"/>
</g>
<!-- HITs/simplicial -->
<g id="node50" class="node">
<title>HITs/simplicial</title>
<ellipse fill="none" stroke="black" cx="1526.84" cy="-378" rx="79.09" ry="18"/>
<text text-anchor="middle" x="1526.84" y="-374.3" font-family="Times,serif" font-size="14.00">HITs/simplicial</text>
</g>
<!-- HITs/merely&#45;&gt;HITs/simplicial -->
<g id="edge53" class="edge">
<title>HITs/merely&#45;&gt;HITs/simplicial</title>
<path fill="none" stroke="black" d="M1384.5,-434.67C1411.91,-423.95 1449.62,-409.2 1479.35,-397.57"/>
<polygon fill="black" stroke="black" points="1480.65,-400.82 1488.69,-393.92 1478.1,-394.3 1480.65,-400.82"/>
</g>
<!-- theorems/functions -->
<g id="node51" class="node">
<title>theorems/functions</title>
<ellipse fill="none" stroke="black" cx="1596.84" cy="-234" rx="100.98" ry="18"/>
<text text-anchor="middle" x="1596.84" y="-230.3" font-family="Times,serif" font-size="14.00">theorems/functions</text>
</g>
<!-- HITs/merely&#45;&gt;theorems/functions -->
<g id="edge54" class="edge">
<title>HITs/merely&#45;&gt;theorems/functions</title>
<path fill="none" stroke="black" d="M1413.14,-445.3C1483.81,-439.76 1589.8,-426.5 1614.84,-396 1646.16,-357.85 1626.08,-296.34 1610.35,-261.43"/>
<polygon fill="black" stroke="black" points="1613.5,-259.89 1606.08,-252.33 1607.16,-262.87 1613.5,-259.89"/>
</g>
<!-- algebra/monoid -->
<g id="node14" class="node">
<title>algebra/monoid</title>
<ellipse fill="none" stroke="black" cx="1063.84" cy="-162" rx="83.39" ry="18"/>
<text text-anchor="middle" x="1063.84" y="-158.3" font-family="Times,serif" font-size="14.00">algebra/monoid</text>
</g>
<!-- HITs/trunc&#45;&gt;algebra/monoid -->
<g id="edge59" class="edge">
<title>HITs/trunc&#45;&gt;algebra/monoid</title>
<path fill="none" stroke="black" d="M1068.56,-432.18C1089.76,-393.22 1136.05,-294.15 1107.84,-216 1104.03,-205.43 1097.08,-195.48 1089.82,-187.12"/>
<polygon fill="black" stroke="black" points="1092.23,-184.56 1082.86,-179.62 1087.1,-189.33 1092.23,-184.56"/>
</g>
<!-- HITs/quotient -->
<g id="node45" class="node">
<title>HITs/quotient</title>
<ellipse fill="none" stroke="black" cx="1355.84" cy="-378" rx="74.19" ry="18"/>
<text text-anchor="middle" x="1355.84" y="-374.3" font-family="Times,serif" font-size="14.00">HITs/quotient</text>
</g>
<!-- HITs/trunc&#45;&gt;HITs/quotient -->
<g id="edge60" class="edge">
<title>HITs/trunc&#45;&gt;HITs/quotient</title>
<path fill="none" stroke="black" d="M1103.36,-437.94C1111.5,-435.94 1119.92,-433.9 1127.84,-432 1183.99,-418.56 1248.04,-403.71 1293.93,-393.16"/>
<polygon fill="black" stroke="black" points="1294.76,-396.56 1303.73,-390.91 1293.2,-389.74 1294.76,-396.56"/>
</g>
<!-- theorems/nat -->
<g id="node35" class="node">
<title>theorems/nat</title>
<ellipse fill="none" stroke="black" cx="1190.84" cy="-378" rx="72.59" ry="18"/>
<text text-anchor="middle" x="1190.84" y="-374.3" font-family="Times,serif" font-size="14.00">theorems/nat</text>
</g>
<!-- types/nat&#45;&gt;theorems/nat -->
<g id="edge32" class="edge">
<title>types/nat&#45;&gt;theorems/nat</title>
<path fill="none" stroke="black" d="M1190.84,-431.7C1190.84,-423.98 1190.84,-414.71 1190.84,-406.11"/>
<polygon fill="black" stroke="black" points="1194.34,-406.1 1190.84,-396.1 1187.34,-406.1 1194.34,-406.1"/>
</g>
<!-- theorems/ua&#45;&gt;theorems/nat -->
<g id="edge77" class="edge">
<title>theorems/ua&#45;&gt;theorems/nat</title>
<path fill="none" stroke="black" d="M930.15,-437.68C984.43,-425.46 1070.9,-406 1129.22,-392.87"/>
<polygon fill="black" stroke="black" points="1130.06,-396.27 1139.05,-390.66 1128.52,-389.44 1130.06,-396.27"/>
</g>
<!-- theorems/ua&#45;&gt;theorems/prop -->
<g id="edge78" class="edge">
<title>theorems/ua&#45;&gt;theorems/prop</title>
<path fill="none" stroke="black" d="M864.91,-432.41C857.18,-423.82 847.58,-413.16 839.01,-403.63"/>
<polygon fill="black" stroke="black" points="841.39,-401.05 832.1,-395.96 836.19,-405.73 841.39,-401.05"/>
</g>
<!-- cubical/V -->
<g id="node56" class="node">
<title>cubical/V</title>
<ellipse fill="none" stroke="black" cx="501.84" cy="-234" rx="52.79" ry="18"/>
<text text-anchor="middle" x="501.84" y="-230.3" font-family="Times,serif" font-size="14.00">cubical/V</text>
</g>
<!-- theorems/ua&#45;&gt;cubical/V -->
<g id="edge79" class="edge">
<title>theorems/ua&#45;&gt;cubical/V</title>
<path fill="none" stroke="black" d="M821.72,-440.16C717.79,-423.04 506.88,-381.87 463.84,-324 449.17,-304.27 463.69,-278.01 478.82,-259.14"/>
<polygon fill="black" stroke="black" points="481.68,-261.18 485.49,-251.29 476.35,-256.65 481.68,-261.18"/>
</g>
<!-- algebra/basic -->
<g id="node12" class="node">
<title>algebra/basic</title>
<ellipse fill="none" stroke="black" cx="849.84" cy="-234" rx="72.59" ry="18"/>
<text text-anchor="middle" x="849.84" y="-230.3" font-family="Times,serif" font-size="14.00">algebra/basic</text>
</g>
<!-- algebra/category -->
<g id="node13" class="node">
<title>algebra/category</title>
<ellipse fill="none" stroke="black" cx="699.84" cy="-162" rx="89.08" ry="18"/>
<text text-anchor="middle" x="699.84" y="-158.3" font-family="Times,serif" font-size="14.00">algebra/category</text>
</g>
<!-- algebra/basic&#45;&gt;algebra/category -->
<g id="edge9" class="edge">
<title>algebra/basic&#45;&gt;algebra/category</title>
<path fill="none" stroke="black" d="M817.29,-217.81C795.46,-207.62 766.48,-194.1 742.76,-183.03"/>
<polygon fill="black" stroke="black" points="744.17,-179.82 733.63,-178.77 741.21,-186.17 744.17,-179.82"/>
</g>
<!-- algebra/basic&#45;&gt;algebra/monoid -->
<g id="edge10" class="edge">
<title>algebra/basic&#45;&gt;algebra/monoid</title>
<path fill="none" stroke="black" d="M891.87,-219.25C925.83,-208.14 973.86,-192.43 1010.53,-180.44"/>
<polygon fill="black" stroke="black" points="1011.66,-183.75 1020.08,-177.32 1009.48,-177.1 1011.66,-183.75"/>
</g>
<!-- algebra/group -->
<g id="node15" class="node">
<title>algebra/group</title>
<ellipse fill="none" stroke="black" cx="1444.84" cy="-162" rx="76.09" ry="18"/>
<text text-anchor="middle" x="1444.84" y="-158.3" font-family="Times,serif" font-size="14.00">algebra/group</text>
</g>
<!-- algebra/basic&#45;&gt;algebra/group -->
<g id="edge11" class="edge">
<title>algebra/basic&#45;&gt;algebra/group</title>
<path fill="none" stroke="black" d="M901.74,-221.32C911.69,-219.34 922.06,-217.46 931.84,-216 1104,-190.29 1148.91,-199.92 1321.84,-180 1338.07,-178.13 1355.47,-175.88 1371.92,-173.63"/>
<polygon fill="black" stroke="black" points="1372.59,-177.07 1382.02,-172.24 1371.64,-170.14 1372.59,-177.07"/>
</g>
<!-- algebra/eilenberg_maclane -->
<g id="node16" class="node">
<title>algebra/eilenberg_maclane</title>
<ellipse fill="none" stroke="black" cx="809.84" cy="-90" rx="135.68" ry="18"/>
<text text-anchor="middle" x="809.84" y="-86.3" font-family="Times,serif" font-size="14.00">algebra/eilenberg_maclane</text>
</g>
<!-- algebra/group&#45;&gt;algebra/eilenberg_maclane -->
<g id="edge12" class="edge">
<title>algebra/group&#45;&gt;algebra/eilenberg_maclane</title>
<path fill="none" stroke="black" d="M1381.69,-151.85C1362.49,-149.18 1341.32,-146.35 1321.84,-144 1186.83,-127.69 1031.4,-112.04 927.54,-102.03"/>
<polygon fill="black" stroke="black" points="927.63,-98.52 917.34,-101.05 926.96,-105.49 927.63,-98.52"/>
</g>
<!-- algebra/finite -->
<g id="node17" class="node">
<title>algebra/finite</title>
<ellipse fill="none" stroke="black" cx="1662.84" cy="-90" rx="72.59" ry="18"/>
<text text-anchor="middle" x="1662.84" y="-86.3" font-family="Times,serif" font-size="14.00">algebra/finite</text>
</g>
<!-- algebra/group&#45;&gt;algebra/finite -->
<g id="edge13" class="edge">
<title>algebra/group&#45;&gt;algebra/finite</title>
<path fill="none" stroke="black" d="M1488.17,-147.09C1523.39,-135.78 1573.2,-119.78 1610.62,-107.77"/>
<polygon fill="black" stroke="black" points="1611.88,-111.04 1620.34,-104.65 1609.74,-104.37 1611.88,-111.04"/>
</g>
<!-- algebra/ring -->
<g id="node18" class="node">
<title>algebra/ring</title>
<ellipse fill="none" stroke="black" cx="1820.84" cy="-90" rx="67.69" ry="18"/>
<text text-anchor="middle" x="1820.84" y="-86.3" font-family="Times,serif" font-size="14.00">algebra/ring</text>
</g>
<!-- algebra/group&#45;&gt;algebra/ring -->
<g id="edge14" class="edge">
<title>algebra/group&#45;&gt;algebra/ring</title>
<path fill="none" stroke="black" d="M1500.57,-149.59C1510.32,-147.67 1520.37,-145.74 1529.84,-144 1625.13,-126.5 1649.75,-126.58 1744.84,-108 1750.23,-106.95 1755.83,-105.8 1761.42,-104.61"/>
<polygon fill="black" stroke="black" points="1762.42,-107.98 1771.46,-102.45 1760.94,-101.14 1762.42,-107.98"/>
</g>
<!-- algebra/transformational -->
<g id="node19" class="node">
<title>algebra/transformational</title>
<ellipse fill="none" stroke="black" cx="1444.84" cy="-90" rx="126.98" ry="18"/>
<text text-anchor="middle" x="1444.84" y="-86.3" font-family="Times,serif" font-size="14.00">algebra/transformational</text>
</g>
<!-- algebra/group&#45;&gt;algebra/transformational -->
<g id="edge15" class="edge">
<title>algebra/group&#45;&gt;algebra/transformational</title>
<path fill="none" stroke="black" d="M1444.84,-143.7C1444.84,-135.98 1444.84,-126.71 1444.84,-118.11"/>
<polygon fill="black" stroke="black" points="1448.34,-118.1 1444.84,-108.1 1441.34,-118.1 1448.34,-118.1"/>
</g>
<!-- algebra/Z -->
<g id="node20" class="node">
<title>algebra/Z</title>
<ellipse fill="none" stroke="black" cx="1244.84" cy="-90" rx="55.49" ry="18"/>
<text text-anchor="middle" x="1244.84" y="-86.3" font-family="Times,serif" font-size="14.00">algebra/Z</text>
</g>
<!-- algebra/group&#45;&gt;algebra/Z -->
<g id="edge16" class="edge">
<title>algebra/group&#45;&gt;algebra/Z</title>
<path fill="none" stroke="black" d="M1403.89,-146.67C1371.02,-135.16 1324.89,-119.02 1290.77,-107.08"/>
<polygon fill="black" stroke="black" points="1291.64,-103.67 1281.04,-103.67 1289.32,-110.28 1291.64,-103.67"/>
</g>
<!-- algebra/homology -->
<g id="node21" class="node">
<title>algebra/homology</title>
<ellipse fill="none" stroke="black" cx="1244.84" cy="-18" rx="93.68" ry="18"/>
<text text-anchor="middle" x="1244.84" y="-14.3" font-family="Times,serif" font-size="14.00">algebra/homology</text>
</g>
<!-- algebra/Z&#45;&gt;algebra/homology -->
<g id="edge17" class="edge">
<title>algebra/Z&#45;&gt;algebra/homology</title>
<path fill="none" stroke="black" d="M1244.84,-71.7C1244.84,-63.98 1244.84,-54.71 1244.84,-46.11"/>
<polygon fill="black" stroke="black" points="1248.34,-46.1 1244.84,-36.1 1241.34,-46.1 1248.34,-46.1"/>
</g>
<!-- types/category -->
<g id="node22" class="node">
<title>types/category</title>
<ellipse fill="none" stroke="black" cx="1019.84" cy="-234" rx="79.09" ry="18"/>
<text text-anchor="middle" x="1019.84" y="-230.3" font-family="Times,serif" font-size="14.00">types/category</text>
</g>
<!-- types/coproduct&#45;&gt;structures -->
<g id="edge18" class="edge">
<title>types/coproduct&#45;&gt;structures</title>
<path fill="none" stroke="black" d="M1058.27,-647.87C1056.06,-623.67 1051.99,-579.21 1049.35,-550.39"/>
<polygon fill="black" stroke="black" points="1052.81,-549.83 1048.42,-540.19 1045.84,-550.47 1052.81,-549.83"/>
</g>
<!-- types/ens -->
<g id="node24" class="node">
<title>types/ens</title>
<ellipse fill="none" stroke="black" cx="785.84" cy="-306" rx="55.49" ry="18"/>
<text text-anchor="middle" x="785.84" y="-302.3" font-family="Times,serif" font-size="14.00">types/ens</text>
</g>
<!-- types/ens&#45;&gt;algebra/basic -->
<g id="edge20" class="edge">
<title>types/ens&#45;&gt;algebra/basic</title>
<path fill="none" stroke="black" d="M801.01,-288.41C808.94,-279.73 818.81,-268.95 827.59,-259.34"/>
<polygon fill="black" stroke="black" points="830.17,-261.7 834.34,-251.96 825.01,-256.97 830.17,-261.7"/>
</g>
<!-- types/setquot -->
<g id="node25" class="node">
<title>types/setquot</title>
<ellipse fill="none" stroke="black" cx="684.84" cy="-234" rx="74.19" ry="18"/>
<text text-anchor="middle" x="684.84" y="-230.3" font-family="Times,serif" font-size="14.00">types/setquot</text>
</g>
<!-- types/ens&#45;&gt;types/setquot -->
<g id="edge21" class="edge">
<title>types/ens&#45;&gt;types/setquot</title>
<path fill="none" stroke="black" d="M763.43,-289.46C749.73,-279.97 731.98,-267.67 716.82,-257.17"/>
<polygon fill="black" stroke="black" points="718.46,-254.04 708.25,-251.22 714.47,-259.79 718.46,-254.04"/>
</g>
<!-- HITs/graph -->
<g id="node31" class="node">
<title>HITs/graph</title>
<ellipse fill="none" stroke="black" cx="1364.84" cy="-594" rx="62.29" ry="18"/>
<text text-anchor="middle" x="1364.84" y="-590.3" font-family="Times,serif" font-size="14.00">HITs/graph</text>
</g>
<!-- types/heq&#45;&gt;HITs/graph -->
<g id="edge28" class="edge">
<title>types/heq&#45;&gt;HITs/graph</title>
<path fill="none" stroke="black" d="M1329.03,-719.84C1334.67,-709.71 1341.42,-696.46 1345.84,-684 1353,-663.8 1357.91,-640.03 1360.94,-622.13"/>
<polygon fill="black" stroke="black" points="1364.42,-622.52 1362.55,-612.09 1357.51,-621.41 1364.42,-622.52"/>
</g>
<!-- theorems/funext -->
<g id="node32" class="node">
<title>theorems/funext</title>
<ellipse fill="none" stroke="black" cx="1249.84" cy="-666" rx="87.18" ry="18"/>
<text text-anchor="middle" x="1249.84" y="-662.3" font-family="Times,serif" font-size="14.00">theorems/funext</text>
</g>
<!-- types/heq&#45;&gt;theorems/funext -->
<g id="edge29" class="edge">
<title>types/heq&#45;&gt;theorems/funext</title>
<path fill="none" stroke="black" d="M1302.49,-720.41C1293.94,-711.73 1283.3,-700.95 1273.84,-691.34"/>
<polygon fill="black" stroke="black" points="1276.07,-688.62 1266.56,-683.96 1271.08,-693.54 1276.07,-688.62"/>
</g>
<!-- types/unit&#45;&gt;structures -->
<g id="edge36" class="edge">
<title>types/unit&#45;&gt;structures</title>
<path fill="none" stroke="black" d="M1460.86,-581.41C1452.61,-579.4 1443.99,-577.48 1435.84,-576 1294.6,-550.29 1256.13,-565.47 1114.84,-540 1109.81,-539.09 1104.59,-538.02 1099.39,-536.87"/>
<polygon fill="black" stroke="black" points="1099.99,-533.42 1089.46,-534.58 1098.41,-540.24 1099.99,-533.42"/>
</g>
<!-- HITs/suspension -->
<g id="node38" class="node">
<title>HITs/suspension</title>
<ellipse fill="none" stroke="black" cx="1658.84" cy="-450" rx="87.18" ry="18"/>
<text text-anchor="middle" x="1658.84" y="-446.3" font-family="Times,serif" font-size="14.00">HITs/suspension</text>
</g>
<!-- types/unit&#45;&gt;HITs/suspension -->
<g id="edge37" class="edge">
<title>types/unit&#45;&gt;HITs/suspension</title>
<path fill="none" stroke="black" d="M1559.89,-590.57C1596.32,-585.69 1641.05,-572.82 1664.84,-540 1677.71,-522.25 1674.51,-496.92 1669.08,-477.82"/>
<polygon fill="black" stroke="black" points="1672.39,-476.66 1666.02,-468.2 1665.72,-478.79 1672.39,-476.66"/>
</g>
<!-- types/sigma&#45;&gt;structures -->
<g id="edge35" class="edge">
<title>types/sigma&#45;&gt;structures</title>
<path fill="none" stroke="black" d="M908.16,-648.43C936.05,-623.21 989.26,-575.08 1021.05,-546.33"/>
<polygon fill="black" stroke="black" points="1023.57,-548.77 1028.64,-539.46 1018.88,-543.57 1023.57,-548.77"/>
</g>
<!-- HITs/colimit -->
<g id="node42" class="node">
<title>HITs/colimit</title>
<ellipse fill="none" stroke="black" cx="1190.84" cy="-522" rx="66.89" ry="18"/>
<text text-anchor="middle" x="1190.84" y="-518.3" font-family="Times,serif" font-size="14.00">HITs/colimit</text>
</g>
<!-- HITs/graph&#45;&gt;HITs/colimit -->
<g id="edge45" class="edge">
<title>HITs/graph&#45;&gt;HITs/colimit</title>
<path fill="none" stroke="black" d="M1330.05,-579C1303.05,-568.14 1265.41,-553 1236.07,-541.2"/>
<polygon fill="black" stroke="black" points="1237.05,-537.82 1226.47,-537.33 1234.44,-544.31 1237.05,-537.82"/>
</g>
<!-- HITs/generalized -->
<g id="node43" class="node">
<title>HITs/generalized</title>
<ellipse fill="none" stroke="black" cx="1364.84" cy="-522" rx="89.08" ry="18"/>
<text text-anchor="middle" x="1364.84" y="-518.3" font-family="Times,serif" font-size="14.00">HITs/generalized</text>
</g>
<!-- HITs/graph&#45;&gt;HITs/generalized -->
<g id="edge46" class="edge">
<title>HITs/graph&#45;&gt;HITs/generalized</title>
<path fill="none" stroke="black" d="M1364.84,-575.7C1364.84,-567.98 1364.84,-558.71 1364.84,-550.11"/>
<polygon fill="black" stroke="black" points="1368.34,-550.1 1364.84,-540.1 1361.34,-550.1 1368.34,-550.1"/>
</g>
<!-- HITs/pushout -->
<g id="node44" class="node">
<title>HITs/pushout</title>
<ellipse fill="none" stroke="black" cx="1582.84" cy="-522" rx="72.59" ry="18"/>
<text text-anchor="middle" x="1582.84" y="-518.3" font-family="Times,serif" font-size="14.00">HITs/pushout</text>
</g>
<!-- HITs/graph&#45;&gt;HITs/pushout -->
<g id="edge47" class="edge">
<title>HITs/graph&#45;&gt;HITs/pushout</title>
<path fill="none" stroke="black" d="M1404.83,-580.16C1440.03,-568.86 1491.55,-552.31 1530.12,-539.93"/>
<polygon fill="black" stroke="black" points="1531.68,-543.1 1540.13,-536.71 1529.54,-536.44 1531.68,-543.1"/>
</g>
<!-- HITs/graph&#45;&gt;HITs/quotient -->
<g id="edge48" class="edge">
<title>HITs/graph&#45;&gt;HITs/quotient</title>
<path fill="none" stroke="black" d="M1408.11,-581C1428.5,-572.94 1450.91,-560.02 1462.84,-540 1471.03,-526.26 1466.69,-519.53 1462.84,-504 1454.14,-468.88 1448.17,-459.66 1424.84,-432 1415.05,-420.39 1402.29,-409.72 1390.42,-401.04"/>
<polygon fill="black" stroke="black" points="1392.18,-398 1381.99,-395.09 1388.14,-403.72 1392.18,-398"/>
</g>
<!-- types/product -->
<g id="node37" class="node">
<title>types/product</title>
<ellipse fill="none" stroke="black" cx="1185.84" cy="-594" rx="75.29" ry="18"/>
<text text-anchor="middle" x="1185.84" y="-590.3" font-family="Times,serif" font-size="14.00">types/product</text>
</g>
<!-- theorems/funext&#45;&gt;types/product -->
<g id="edge69" class="edge">
<title>theorems/funext&#45;&gt;types/product</title>
<path fill="none" stroke="black" d="M1234.35,-648.05C1226.49,-639.46 1216.8,-628.86 1208.15,-619.4"/>
<polygon fill="black" stroke="black" points="1210.52,-616.81 1201.19,-611.79 1205.36,-621.53 1210.52,-616.81"/>
</g>
<!-- types/integer -->
<g id="node33" class="node">
<title>types/integer</title>
<ellipse fill="none" stroke="black" cx="1329.84" cy="-306" rx="72.59" ry="18"/>
<text text-anchor="middle" x="1329.84" y="-302.3" font-family="Times,serif" font-size="14.00">types/integer</text>
</g>
<!-- types/integer&#45;&gt;algebra/group -->
<g id="edge30" class="edge">
<title>types/integer&#45;&gt;algebra/group</title>
<path fill="none" stroke="black" d="M1350.41,-288.52C1362.09,-278.6 1376.59,-265.35 1387.84,-252 1404.53,-232.19 1420.14,-207.17 1430.79,-188.71"/>
<polygon fill="black" stroke="black" points="1433.86,-190.39 1435.75,-179.96 1427.77,-186.94 1433.86,-190.39"/>
</g>
<!-- HITs/circle -->
<g id="node34" class="node">
<title>HITs/circle</title>
<ellipse fill="none" stroke="black" cx="1318.84" cy="-234" rx="60.39" ry="18"/>
<text text-anchor="middle" x="1318.84" y="-230.3" font-family="Times,serif" font-size="14.00">HITs/circle</text>
</g>
<!-- types/integer&#45;&gt;HITs/circle -->
<g id="edge31" class="edge">
<title>types/integer&#45;&gt;HITs/circle</title>
<path fill="none" stroke="black" d="M1327.12,-287.7C1325.91,-279.98 1324.45,-270.71 1323.1,-262.11"/>
<polygon fill="black" stroke="black" points="1326.54,-261.44 1321.53,-252.1 1319.62,-262.53 1326.54,-261.44"/>
</g>
<!-- HITs/circle&#45;&gt;algebra/Z -->
<g id="edge38" class="edge">
<title>HITs/circle&#45;&gt;algebra/Z</title>
<path fill="none" stroke="black" d="M1324.21,-215.82C1329.03,-197.03 1333.71,-166.58 1321.84,-144 1314.16,-129.39 1300.43,-118.02 1286.66,-109.63"/>
<polygon fill="black" stroke="black" points="1288.1,-106.42 1277.68,-104.53 1284.65,-112.51 1288.1,-106.42"/>
</g>
<!-- theorems/hopf -->
<g id="node39" class="node">
<title>theorems/hopf</title>
<ellipse fill="none" stroke="black" cx="884.84" cy="-162" rx="77.99" ry="18"/>
<text text-anchor="middle" x="884.84" y="-158.3" font-family="Times,serif" font-size="14.00">theorems/hopf</text>
</g>
<!-- HITs/circle&#45;&gt;theorems/hopf -->
<g id="edge39" class="edge">
<title>HITs/circle&#45;&gt;theorems/hopf</title>
<path fill="none" stroke="black" d="M1265.23,-225.51C1196.96,-215.82 1075.41,-198.02 971.84,-180 965.22,-178.85 958.33,-177.59 951.44,-176.31"/>
<polygon fill="black" stroke="black" points="951.88,-172.83 941.41,-174.41 950.58,-179.71 951.88,-172.83"/>
</g>
<!-- HITs/moebius -->
<g id="node40" class="node">
<title>HITs/moebius</title>
<ellipse fill="none" stroke="black" cx="1238.84" cy="-162" rx="74.19" ry="18"/>
<text text-anchor="middle" x="1238.84" y="-158.3" font-family="Times,serif" font-size="14.00">HITs/moebius</text>
</g>
<!-- HITs/circle&#45;&gt;HITs/moebius -->
<g id="edge40" class="edge">
<title>HITs/circle&#45;&gt;HITs/moebius</title>
<path fill="none" stroke="black" d="M1300.29,-216.76C1289.94,-207.71 1276.86,-196.27 1265.44,-186.28"/>
<polygon fill="black" stroke="black" points="1267.68,-183.58 1257.85,-179.63 1263.07,-188.85 1267.68,-183.58"/>
</g>
<!-- HITs/reals -->
<g id="node41" class="node">
<title>HITs/reals</title>
<ellipse fill="none" stroke="black" cx="1596.84" cy="-162" rx="57.69" ry="18"/>
<text text-anchor="middle" x="1596.84" y="-158.3" font-family="Times,serif" font-size="14.00">HITs/reals</text>
</g>
<!-- HITs/circle&#45;&gt;HITs/reals -->
<g id="edge41" class="edge">
<title>HITs/circle&#45;&gt;HITs/reals</title>
<path fill="none" stroke="black" d="M1363.71,-221.76C1406.44,-211.05 1472.53,-194.47 1529.84,-180 1534.4,-178.85 1539.13,-177.65 1543.88,-176.45"/>
<polygon fill="black" stroke="black" points="1544.76,-179.84 1553.6,-173.99 1543.04,-173.05 1544.76,-179.84"/>
</g>
<!-- theorems/nat&#45;&gt;types/integer -->
<g id="edge70" class="edge">
<title>theorems/nat&#45;&gt;types/integer</title>
<path fill="none" stroke="black" d="M1221.35,-361.64C1241.48,-351.5 1268.08,-338.1 1289.9,-327.11"/>
<polygon fill="black" stroke="black" points="1291.57,-330.19 1298.93,-322.57 1288.42,-323.94 1291.57,-330.19"/>
</g>
<!-- HITs/int -->
<g id="node58" class="node">
<title>HITs/int</title>
<ellipse fill="none" stroke="black" cx="1190.84" cy="-306" rx="48.19" ry="18"/>
<text text-anchor="middle" x="1190.84" y="-302.3" font-family="Times,serif" font-size="14.00">HITs/int</text>
</g>
<!-- theorems/nat&#45;&gt;HITs/int -->
<g id="edge71" class="edge">
<title>theorems/nat&#45;&gt;HITs/int</title>
<path fill="none" stroke="black" d="M1190.84,-359.7C1190.84,-351.98 1190.84,-342.71 1190.84,-334.11"/>
<polygon fill="black" stroke="black" points="1194.34,-334.1 1190.84,-324.1 1187.34,-334.1 1194.34,-334.1"/>
</g>
<!-- types/precategory -->
<g id="node36" class="node">
<title>types/precategory</title>
<ellipse fill="none" stroke="black" cx="953.84" cy="-306" rx="94.78" ry="18"/>
<text text-anchor="middle" x="953.84" y="-302.3" font-family="Times,serif" font-size="14.00">types/precategory</text>
</g>
<!-- types/precategory&#45;&gt;types/category -->
<g id="edge33" class="edge">
<title>types/precategory&#45;&gt;types/category</title>
<path fill="none" stroke="black" d="M969.82,-288.05C978.01,-279.37 988.12,-268.64 997.11,-259.11"/>
<polygon fill="black" stroke="black" points="999.7,-261.47 1004.01,-251.79 994.61,-256.66 999.7,-261.47"/>
</g>
<!-- types/product&#45;&gt;structures -->
<g id="edge34" class="edge">
<title>types/product&#45;&gt;structures</title>
<path fill="none" stroke="black" d="M1154.99,-577.46C1134.42,-567.1 1107.22,-553.4 1085.24,-542.34"/>
<polygon fill="black" stroke="black" points="1086.68,-539.14 1076.18,-537.77 1083.53,-545.4 1086.68,-539.14"/>
</g>
<!-- HITs/suspension&#45;&gt;HITs/circle -->
<g id="edge57" class="edge">
<title>HITs/suspension&#45;&gt;HITs/circle</title>
<path fill="none" stroke="black" d="M1654.29,-431.72C1648.28,-411.98 1635.92,-379.86 1614.84,-360 1547.49,-296.55 1443.15,-262.84 1378.03,-246.98"/>
<polygon fill="black" stroke="black" points="1378.46,-243.48 1367.92,-244.58 1376.85,-250.29 1378.46,-243.48"/>
</g>
<!-- HITs/join -->
<g id="node49" class="node">
<title>HITs/join</title>
<ellipse fill="none" stroke="black" cx="1751.84" cy="-378" rx="51.99" ry="18"/>
<text text-anchor="middle" x="1751.84" y="-374.3" font-family="Times,serif" font-size="14.00">HITs/join</text>
</g>
<!-- HITs/suspension&#45;&gt;HITs/join -->
<g id="edge58" class="edge">
<title>HITs/suspension&#45;&gt;HITs/join</title>
<path fill="none" stroke="black" d="M1680.88,-432.41C1693.42,-422.97 1709.29,-411.03 1722.83,-400.83"/>
<polygon fill="black" stroke="black" points="1725.03,-403.56 1730.92,-394.75 1720.82,-397.97 1725.03,-403.56"/>
</g>
<!-- HITs/colimit&#45;&gt;HITs/merely -->
<g id="edge42" class="edge">
<title>HITs/colimit&#45;&gt;HITs/merely</title>
<path fill="none" stroke="black" d="M1224.14,-506.15C1247.76,-495.62 1279.67,-481.39 1305.17,-470.03"/>
<polygon fill="black" stroke="black" points="1306.89,-473.09 1314.59,-465.82 1304.04,-466.7 1306.89,-473.09"/>
</g>
<!-- HITs/colimit&#45;&gt;types/nat -->
<g id="edge43" class="edge">
<title>HITs/colimit&#45;&gt;types/nat</title>
<path fill="none" stroke="black" d="M1190.84,-503.7C1190.84,-495.98 1190.84,-486.71 1190.84,-478.11"/>
<polygon fill="black" stroke="black" points="1194.34,-478.1 1190.84,-468.1 1187.34,-478.1 1194.34,-478.1"/>
</g>
<!-- HITs/generalized&#45;&gt;HITs/merely -->
<g id="edge44" class="edge">
<title>HITs/generalized&#45;&gt;HITs/merely</title>
<path fill="none" stroke="black" d="M1360.64,-503.7C1358.75,-495.9 1356.46,-486.51 1354.36,-477.83"/>
<polygon fill="black" stroke="black" points="1357.76,-477 1352,-468.1 1350.95,-478.65 1357.76,-477"/>
</g>
<!-- HITs/pushout&#45;&gt;HITs/suspension -->
<g id="edge55" class="edge">
<title>HITs/pushout&#45;&gt;HITs/suspension</title>
<path fill="none" stroke="black" d="M1600.85,-504.41C1610.53,-495.5 1622.63,-484.36 1633.26,-474.56"/>
<polygon fill="black" stroke="black" points="1635.71,-477.06 1640.7,-467.71 1630.97,-471.91 1635.71,-477.06"/>
</g>
<!-- HITs/quotient&#45;&gt;algebra/group -->
<g id="edge56" class="edge">
<title>HITs/quotient&#45;&gt;algebra/group</title>
<path fill="none" stroke="black" d="M1378.72,-360.83C1390.38,-351.39 1403.77,-338.51 1411.84,-324 1435.51,-281.43 1442.29,-224.05 1444.18,-190.53"/>
<polygon fill="black" stroke="black" points="1447.69,-190.29 1444.65,-180.14 1440.7,-189.97 1447.69,-190.29"/>
</g>
<!-- cubical/path -->
<g id="node53" class="node">
<title>cubical/path</title>
<ellipse fill="none" stroke="black" cx="336.84" cy="-306" rx="67.69" ry="18"/>
<text text-anchor="middle" x="336.84" y="-302.3" font-family="Times,serif" font-size="14.00">cubical/path</text>
</g>
<!-- cubical/cubes&#45;&gt;cubical/path -->
<g id="edge61" class="edge">
<title>cubical/cubes&#45;&gt;cubical/path</title>
<path fill="none" stroke="black" d="M339.1,-359.7C338.77,-351.98 338.37,-342.71 338,-334.11"/>
<polygon fill="black" stroke="black" points="341.5,-333.95 337.57,-324.1 334.51,-334.25 341.5,-333.95"/>
</g>
<!-- theorems/prop&#45;&gt;algebra/eilenberg_maclane -->
<g id="edge72" class="edge">
<title>theorems/prop&#45;&gt;algebra/eilenberg_maclane</title>
<path fill="none" stroke="black" d="M785.75,-361.22C766.84,-351.25 742.45,-337.69 721.84,-324 700.22,-309.63 697.86,-301.76 675.84,-288 644.82,-268.62 621.24,-283.01 601.84,-252 576.38,-211.31 572.39,-181.9 601.84,-144 615.56,-126.35 662.08,-113.61 707.66,-105.04"/>
<polygon fill="black" stroke="black" points="708.45,-108.46 717.67,-103.23 707.2,-101.57 708.45,-108.46"/>
</g>
<!-- theorems/prop&#45;&gt;types/ens -->
<g id="edge73" class="edge">
<title>theorems/prop&#45;&gt;types/ens</title>
<path fill="none" stroke="black" d="M809.34,-360.05C805.81,-352.09 801.52,-342.41 797.58,-333.51"/>
<polygon fill="black" stroke="black" points="800.74,-332 793.49,-324.28 794.34,-334.84 800.74,-332"/>
</g>
<!-- theorems/prop&#45;&gt;HITs/circle -->
<g id="edge74" class="edge">
<title>theorems/prop&#45;&gt;HITs/circle</title>
<path fill="none" stroke="black" d="M880.07,-367.13C929.31,-358.48 998.96,-344.13 1057.84,-324 1093.21,-311.91 1098.87,-301.19 1133.84,-288 1176.27,-271.99 1225.72,-258.06 1262.81,-248.5"/>
<polygon fill="black" stroke="black" points="1264.1,-251.79 1272.93,-245.93 1262.38,-245 1264.1,-251.79"/>
</g>
<!-- theorems/prop&#45;&gt;types/precategory -->
<g id="edge75" class="edge">
<title>theorems/prop&#45;&gt;types/precategory</title>
<path fill="none" stroke="black" d="M847.59,-361.29C866.97,-351.39 892.21,-338.49 913.23,-327.75"/>
<polygon fill="black" stroke="black" points="914.94,-330.81 922.25,-323.14 911.75,-324.58 914.94,-330.81"/>
</g>
<!-- theorems/classical -->
<g id="node57" class="node">
<title>theorems/classical</title>
<ellipse fill="none" stroke="black" cx="569.84" cy="-306" rx="96.68" ry="18"/>
<text text-anchor="middle" x="569.84" y="-302.3" font-family="Times,serif" font-size="14.00">theorems/classical</text>
</g>
<!-- theorems/prop&#45;&gt;theorems/classical -->
<g id="edge76" class="edge">
<title>theorems/prop&#45;&gt;theorems/classical</title>
<path fill="none" stroke="black" d="M769.22,-363.5C729.68,-352.3 673.2,-336.29 630.45,-324.18"/>
<polygon fill="black" stroke="black" points="631.3,-320.78 620.72,-321.42 629.39,-327.51 631.3,-320.78"/>
</g>
<!-- theorems/fibration&#45;&gt;theorems/hopf -->
<g id="edge66" class="edge">
<title>theorems/fibration&#45;&gt;theorems/hopf</title>
<path fill="none" stroke="black" d="M78.35,-288.05C59.32,-268.62 35.04,-236.78 54.84,-216 83.35,-186.08 756.82,-184.98 797.84,-180 805.17,-179.11 812.81,-177.96 820.38,-176.67"/>
<polygon fill="black" stroke="black" points="821.04,-180.11 830.27,-174.91 819.81,-173.22 821.04,-180.11"/>
</g>
<!-- theorems/functions&#45;&gt;algebra/group -->
<g id="edge67" class="edge">
<title>theorems/functions&#45;&gt;algebra/group</title>
<path fill="none" stroke="black" d="M1561.97,-216.94C1539.78,-206.72 1510.91,-193.42 1487.38,-182.59"/>
<polygon fill="black" stroke="black" points="1488.53,-179.27 1477.99,-178.26 1485.61,-185.63 1488.53,-179.27"/>
</g>
<!-- theorems/functions&#45;&gt;HITs/reals -->
<g id="edge68" class="edge">
<title>theorems/functions&#45;&gt;HITs/reals</title>
<path fill="none" stroke="black" d="M1596.84,-215.7C1596.84,-207.98 1596.84,-198.71 1596.84,-190.11"/>
<polygon fill="black" stroke="black" points="1600.34,-190.1 1596.84,-180.1 1593.34,-190.1 1600.34,-190.1"/>
</g>
<!-- cubical/connection -->
<g id="node52" class="node">
<title>cubical/connection</title>
<ellipse fill="none" stroke="black" cx="334.84" cy="-234" rx="96.68" ry="18"/>
<text text-anchor="middle" x="334.84" y="-230.3" font-family="Times,serif" font-size="14.00">cubical/connection</text>
</g>
<!-- cubical/path&#45;&gt;cubical/connection -->
<g id="edge62" class="edge">
<title>cubical/path&#45;&gt;cubical/connection</title>
<path fill="none" stroke="black" d="M336.35,-287.7C336.13,-279.98 335.86,-270.71 335.62,-262.11"/>
<polygon fill="black" stroke="black" points="339.11,-262 335.33,-252.1 332.12,-262.2 339.11,-262"/>
</g>
<!-- cubical/square -->
<g id="node55" class="node">
<title>cubical/square</title>
<ellipse fill="none" stroke="black" cx="141.84" cy="-234" rx="77.99" ry="18"/>
<text text-anchor="middle" x="141.84" y="-230.3" font-family="Times,serif" font-size="14.00">cubical/square</text>
</g>
<!-- cubical/path&#45;&gt;cubical/square -->
<g id="edge63" class="edge">
<title>cubical/path&#45;&gt;cubical/square</title>
<path fill="none" stroke="black" d="M298.32,-291.17C267.81,-280.22 224.96,-264.84 191.81,-252.94"/>
<polygon fill="black" stroke="black" points="192.9,-249.61 182.3,-249.52 190.53,-256.2 192.9,-249.61"/>
</g>
<!-- cubical/path&#45;&gt;cubical/V -->
<g id="edge64" class="edge">
<title>cubical/path&#45;&gt;cubical/V</title>
<path fill="none" stroke="black" d="M371.43,-290.33C397.47,-279.28 433.24,-264.1 460.74,-252.44"/>
<polygon fill="black" stroke="black" points="462.25,-255.6 470.09,-248.47 459.52,-249.15 462.25,-255.6"/>
</g>
<!-- cubical/example -->
<g id="node54" class="node">
<title>cubical/example</title>
<ellipse fill="none" stroke="black" cx="469.84" cy="-162" rx="85.29" ry="18"/>
<text text-anchor="middle" x="469.84" y="-158.3" font-family="Times,serif" font-size="14.00">cubical/example</text>
</g>
<!-- cubical/V&#45;&gt;cubical/example -->
<g id="edge65" class="edge">
<title>cubical/V&#45;&gt;cubical/example</title>
<path fill="none" stroke="black" d="M494.1,-216.05C490.45,-208.09 486.03,-198.41 481.96,-189.51"/>
<polygon fill="black" stroke="black" points="485.08,-187.91 477.74,-180.28 478.71,-190.83 485.08,-187.91"/>
</g>
</g>
</svg>
