<?xml version="1.0" encoding="UTF-8" standalone="no"?>
<!DOCTYPE svg PUBLIC "-//W3C//DTD SVG 1.1//EN"
 "http://www.w3.org/Graphics/SVG/1.1/DTD/svg11.dtd">
<!-- Generated by graphviz version 2.38.0 (20140413.2041)
 -->
<!-- Title: dependency_map Pages: 1 -->
<svg width="1508pt" height="836pt"
 viewBox="0.00 0.00 1508.38 836.00" xmlns="http://www.w3.org/2000/svg" xmlns:xlink="http://www.w3.org/1999/xlink">
<g id="graph0" class="graph" transform="scale(1 1) rotate(0) translate(4 832)">
<title>dependency_map</title>
<polygon fill="white" stroke="none" points="-4,4 -4,-832 1504.38,-832 1504.38,4 -4,4"/>
<!-- proto -->
<g id="node1" class="node"><title>proto</title>
<ellipse fill="none" stroke="black" cx="904.644" cy="-810" rx="30.5947" ry="18"/>
<text text-anchor="middle" x="904.644" y="-806.3" font-family="Times New Roman,serif" font-size="14.00">proto</text>
</g>
<!-- types/eq -->
<g id="node2" class="node"><title>types/eq</title>
<ellipse fill="none" stroke="black" cx="964.644" cy="-738" rx="41.6928" ry="18"/>
<text text-anchor="middle" x="964.644" y="-734.3" font-family="Times New Roman,serif" font-size="14.00">types/eq</text>
</g>
<!-- proto&#45;&gt;types/eq -->
<g id="edge1" class="edge"><title>proto&#45;&gt;types/eq</title>
<path fill="none" stroke="black" d="M917.96,-793.465C925.588,-784.566 935.326,-773.205 943.932,-763.164"/>
<polygon fill="black" stroke="black" points="946.679,-765.338 950.529,-755.467 941.364,-760.782 946.679,-765.338"/>
</g>
<!-- support -->
<g id="node4" class="node"><title>support</title>
<ellipse fill="none" stroke="black" cx="964.644" cy="-666" rx="38.9931" ry="18"/>
<text text-anchor="middle" x="964.644" y="-662.3" font-family="Times New Roman,serif" font-size="14.00">support</text>
</g>
<!-- types/eq&#45;&gt;support -->
<g id="edge13" class="edge"><title>types/eq&#45;&gt;support</title>
<path fill="none" stroke="black" d="M964.644,-719.697C964.644,-711.983 964.644,-702.712 964.644,-694.112"/>
<polygon fill="black" stroke="black" points="968.144,-694.104 964.644,-684.104 961.144,-694.104 968.144,-694.104"/>
</g>
<!-- meta/hott_theory -->
<g id="node3" class="node"><title>meta/hott_theory</title>
<ellipse fill="none" stroke="black" cx="1025.64" cy="-810" rx="72.2875" ry="18"/>
<text text-anchor="middle" x="1025.64" y="-806.3" font-family="Times New Roman,serif" font-size="14.00">meta/hott_theory</text>
</g>
<!-- meta/hott_theory&#45;&gt;types/eq -->
<g id="edge2" class="edge"><title>meta/hott_theory&#45;&gt;types/eq</title>
<path fill="none" stroke="black" d="M1010.88,-792.055C1003.27,-783.33 993.876,-772.544 985.542,-762.981"/>
<polygon fill="black" stroke="black" points="988.063,-760.547 978.855,-755.307 982.786,-765.146 988.063,-760.547"/>
</g>
<!-- types/equiv -->
<g id="node5" class="node"><title>types/equiv</title>
<ellipse fill="none" stroke="black" cx="964.644" cy="-594" rx="51.9908" ry="18"/>
<text text-anchor="middle" x="964.644" y="-590.3" font-family="Times New Roman,serif" font-size="14.00">types/equiv</text>
</g>
<!-- support&#45;&gt;types/equiv -->
<g id="edge3" class="edge"><title>support&#45;&gt;types/equiv</title>
<path fill="none" stroke="black" d="M964.644,-647.697C964.644,-639.983 964.644,-630.712 964.644,-622.112"/>
<polygon fill="black" stroke="black" points="968.144,-622.104 964.644,-612.104 961.144,-622.104 968.144,-622.104"/>
</g>
<!-- types/coproduct -->
<g id="node16" class="node"><title>types/coproduct</title>
<ellipse fill="none" stroke="black" cx="437.644" cy="-450" rx="70.6878" ry="18"/>
<text text-anchor="middle" x="437.644" y="-446.3" font-family="Times New Roman,serif" font-size="14.00">types/coproduct</text>
</g>
<!-- types/equiv&#45;&gt;types/coproduct -->
<g id="edge14" class="edge"><title>types/equiv&#45;&gt;types/coproduct</title>
<path fill="none" stroke="black" d="M918.205,-585.785C864.413,-576.976 773.353,-560.662 696.644,-540 620.951,-519.611 535.327,-488.569 483.96,-469.052"/>
<polygon fill="black" stroke="black" points="485.058,-465.725 474.467,-465.429 482.561,-472.265 485.058,-465.725"/>
</g>
<!-- types/heq -->
<g id="node19" class="node"><title>types/heq</title>
<ellipse fill="none" stroke="black" cx="845.644" cy="-522" rx="46.2923" ry="18"/>
<text text-anchor="middle" x="845.644" y="-518.3" font-family="Times New Roman,serif" font-size="14.00">types/heq</text>
</g>
<!-- types/equiv&#45;&gt;types/heq -->
<g id="edge15" class="edge"><title>types/equiv&#45;&gt;types/heq</title>
<path fill="none" stroke="black" d="M939.407,-578.155C921.738,-567.761 897.954,-553.77 878.761,-542.481"/>
<polygon fill="black" stroke="black" points="880.425,-539.399 870.031,-537.345 876.876,-545.432 880.425,-539.399"/>
</g>
<!-- HITs/infinitesimal -->
<g id="node20" class="node"><title>HITs/infinitesimal</title>
<ellipse fill="none" stroke="black" cx="1186.64" cy="-522" rx="74.9875" ry="18"/>
<text text-anchor="middle" x="1186.64" y="-518.3" font-family="Times New Roman,serif" font-size="14.00">HITs/infinitesimal</text>
</g>
<!-- types/equiv&#45;&gt;HITs/infinitesimal -->
<g id="edge16" class="edge"><title>types/equiv&#45;&gt;HITs/infinitesimal</title>
<path fill="none" stroke="black" d="M1001.8,-581.284C1037.84,-569.922 1092.87,-552.568 1133.52,-539.75"/>
<polygon fill="black" stroke="black" points="1134.78,-543.022 1143.27,-536.677 1132.68,-536.346 1134.78,-543.022"/>
</g>
<!-- types/lost -->
<g id="node21" class="node"><title>types/lost</title>
<ellipse fill="none" stroke="black" cx="1325.64" cy="-522" rx="46.2923" ry="18"/>
<text text-anchor="middle" x="1325.64" y="-518.3" font-family="Times New Roman,serif" font-size="14.00">types/lost</text>
</g>
<!-- types/equiv&#45;&gt;types/lost -->
<g id="edge17" class="edge"><title>types/equiv&#45;&gt;types/lost</title>
<path fill="none" stroke="black" d="M1012.21,-586.693C1072.71,-578.229 1180.21,-561.713 1270.64,-540 1274.26,-539.132 1277.98,-538.158 1281.71,-537.126"/>
<polygon fill="black" stroke="black" points="1282.87,-540.434 1291.51,-534.295 1280.93,-533.709 1282.87,-540.434"/>
</g>
<!-- types/unit -->
<g id="node22" class="node"><title>types/unit</title>
<ellipse fill="none" stroke="black" cx="572.644" cy="-450" rx="46.2923" ry="18"/>
<text text-anchor="middle" x="572.644" y="-446.3" font-family="Times New Roman,serif" font-size="14.00">types/unit</text>
</g>
<!-- types/equiv&#45;&gt;types/unit -->
<g id="edge18" class="edge"><title>types/equiv&#45;&gt;types/unit</title>
<path fill="none" stroke="black" d="M925.264,-582.125C889.776,-572.06 836.316,-556.24 790.644,-540 726.904,-517.335 654.476,-486.783 611.227,-468.011"/>
<polygon fill="black" stroke="black" points="612.497,-464.747 601.931,-463.962 609.702,-471.164 612.497,-464.747"/>
</g>
<!-- types/sigma -->
<g id="node23" class="node"><title>types/sigma</title>
<ellipse fill="none" stroke="black" cx="1236.64" cy="-306" rx="53.8905" ry="18"/>
<text text-anchor="middle" x="1236.64" y="-302.3" font-family="Times New Roman,serif" font-size="14.00">types/sigma</text>
</g>
<!-- types/equiv&#45;&gt;types/sigma -->
<g id="edge19" class="edge"><title>types/equiv&#45;&gt;types/sigma</title>
<path fill="none" stroke="black" d="M980.047,-576.804C1025.66,-528.839 1160.23,-387.35 1214.03,-330.774"/>
<polygon fill="black" stroke="black" points="1216.72,-333.031 1221.07,-323.373 1211.65,-328.207 1216.72,-333.031"/>
</g>
<!-- structures -->
<g id="node6" class="node"><title>structures</title>
<ellipse fill="none" stroke="black" cx="582.644" cy="-378" rx="46.2923" ry="18"/>
<text text-anchor="middle" x="582.644" y="-374.3" font-family="Times New Roman,serif" font-size="14.00">structures</text>
</g>
<!-- theorems/ua -->
<g id="node7" class="node"><title>theorems/ua</title>
<ellipse fill="none" stroke="black" cx="424.644" cy="-234" rx="54.6905" ry="18"/>
<text text-anchor="middle" x="424.644" y="-230.3" font-family="Times New Roman,serif" font-size="14.00">theorems/ua</text>
</g>
<!-- structures&#45;&gt;theorems/ua -->
<g id="edge4" class="edge"><title>structures&#45;&gt;theorems/ua</title>
<path fill="none" stroke="black" d="M564.646,-361.391C552.653,-350.919 536.591,-336.759 522.644,-324 505.479,-308.297 501.809,-303.703 484.644,-288 473.694,-277.982 461.44,-267.101 450.874,-257.818"/>
<polygon fill="black" stroke="black" points="453.002,-255.029 443.174,-251.073 448.39,-260.295 453.002,-255.029"/>
</g>
<!-- HITs/interval -->
<g id="node8" class="node"><title>HITs/interval</title>
<ellipse fill="none" stroke="black" cx="747.644" cy="-306" rx="57.6901" ry="18"/>
<text text-anchor="middle" x="747.644" y="-302.3" font-family="Times New Roman,serif" font-size="14.00">HITs/interval</text>
</g>
<!-- structures&#45;&gt;HITs/interval -->
<g id="edge5" class="edge"><title>structures&#45;&gt;HITs/interval</title>
<path fill="none" stroke="black" d="M612.908,-364.161C638.82,-353.168 676.41,-337.22 705.306,-324.961"/>
<polygon fill="black" stroke="black" points="706.904,-328.086 714.743,-320.958 704.17,-321.641 706.904,-328.086"/>
</g>
<!-- HITs/merely -->
<g id="node9" class="node"><title>HITs/merely</title>
<ellipse fill="none" stroke="black" cx="983.644" cy="-306" rx="55.7903" ry="18"/>
<text text-anchor="middle" x="983.644" y="-302.3" font-family="Times New Roman,serif" font-size="14.00">HITs/merely</text>
</g>
<!-- structures&#45;&gt;HITs/merely -->
<g id="edge6" class="edge"><title>structures&#45;&gt;HITs/merely</title>
<path fill="none" stroke="black" d="M625.996,-371.645C690.41,-363.358 815.041,-346.056 919.644,-324 924.066,-323.068 928.64,-322.021 933.213,-320.916"/>
<polygon fill="black" stroke="black" points="934.315,-324.249 943.168,-318.429 932.618,-317.458 934.315,-324.249"/>
</g>
<!-- HITs/trunc -->
<g id="node10" class="node"><title>HITs/trunc</title>
<ellipse fill="none" stroke="black" cx="582.644" cy="-306" rx="50.8918" ry="18"/>
<text text-anchor="middle" x="582.644" y="-302.3" font-family="Times New Roman,serif" font-size="14.00">HITs/trunc</text>
</g>
<!-- structures&#45;&gt;HITs/trunc -->
<g id="edge7" class="edge"><title>structures&#45;&gt;HITs/trunc</title>
<path fill="none" stroke="black" d="M582.644,-359.697C582.644,-351.983 582.644,-342.712 582.644,-334.112"/>
<polygon fill="black" stroke="black" points="586.144,-334.104 582.644,-324.104 579.144,-334.104 586.144,-334.104"/>
</g>
<!-- types/product -->
<g id="node11" class="node"><title>types/product</title>
<ellipse fill="none" stroke="black" cx="413.644" cy="-306" rx="61.99" ry="18"/>
<text text-anchor="middle" x="413.644" y="-302.3" font-family="Times New Roman,serif" font-size="14.00">types/product</text>
</g>
<!-- structures&#45;&gt;types/product -->
<g id="edge8" class="edge"><title>structures&#45;&gt;types/product</title>
<path fill="none" stroke="black" d="M552.04,-364.324C525.518,-353.338 486.839,-337.317 457.11,-325.003"/>
<polygon fill="black" stroke="black" points="458.377,-321.74 447.799,-321.147 455.698,-328.207 458.377,-321.74"/>
</g>
<!-- types/nat -->
<g id="node12" class="node"><title>types/nat</title>
<ellipse fill="none" stroke="black" cx="866.644" cy="-306" rx="43.5923" ry="18"/>
<text text-anchor="middle" x="866.644" y="-302.3" font-family="Times New Roman,serif" font-size="14.00">types/nat</text>
</g>
<!-- structures&#45;&gt;types/nat -->
<g id="edge9" class="edge"><title>structures&#45;&gt;types/nat</title>
<path fill="none" stroke="black" d="M622.742,-369.002C669.213,-359.465 747.953,-342.478 814.644,-324 817.948,-323.085 821.354,-322.09 824.767,-321.055"/>
<polygon fill="black" stroke="black" points="825.826,-324.391 834.329,-318.071 823.74,-317.709 825.826,-324.391"/>
</g>
<!-- algebra/group -->
<g id="node13" class="node"><title>algebra/group</title>
<ellipse fill="none" stroke="black" cx="542.644" cy="-162" rx="60.3893" ry="18"/>
<text text-anchor="middle" x="542.644" y="-158.3" font-family="Times New Roman,serif" font-size="14.00">algebra/group</text>
</g>
<!-- theorems/ua&#45;&gt;algebra/group -->
<g id="edge67" class="edge"><title>theorems/ua&#45;&gt;algebra/group</title>
<path fill="none" stroke="black" d="M449.958,-217.983C466.835,-207.972 489.242,-194.679 507.797,-183.672"/>
<polygon fill="black" stroke="black" points="509.741,-186.589 516.556,-178.476 506.169,-180.568 509.741,-186.589"/>
</g>
<!-- theorems/nat -->
<g id="node28" class="node"><title>theorems/nat</title>
<ellipse fill="none" stroke="black" cx="861.644" cy="-162" rx="57.3905" ry="18"/>
<text text-anchor="middle" x="861.644" y="-158.3" font-family="Times New Roman,serif" font-size="14.00">theorems/nat</text>
</g>
<!-- theorems/ua&#45;&gt;theorems/nat -->
<g id="edge68" class="edge"><title>theorems/ua&#45;&gt;theorems/nat</title>
<path fill="none" stroke="black" d="M464.093,-221.402C471.853,-219.391 479.968,-217.476 487.644,-216 622.986,-189.977 660.156,-205.247 795.644,-180 800.41,-179.112 805.34,-178.073 810.261,-176.954"/>
<polygon fill="black" stroke="black" points="811.373,-180.287 820.292,-174.567 809.753,-173.477 811.373,-180.287"/>
</g>
<!-- cubical/V -->
<g id="node48" class="node"><title>cubical/V</title>
<ellipse fill="none" stroke="black" cx="439.644" cy="-90" rx="45.4919" ry="18"/>
<text text-anchor="middle" x="439.644" y="-86.3" font-family="Times New Roman,serif" font-size="14.00">cubical/V</text>
</g>
<!-- theorems/ua&#45;&gt;cubical/V -->
<g id="edge69" class="edge"><title>theorems/ua&#45;&gt;cubical/V</title>
<path fill="none" stroke="black" d="M426.454,-215.871C429.01,-191.67 433.706,-147.211 436.751,-118.393"/>
<polygon fill="black" stroke="black" points="440.258,-118.502 437.828,-108.189 433.297,-117.766 440.258,-118.502"/>
</g>
<!-- HITs/circle -->
<g id="node26" class="node"><title>HITs/circle</title>
<ellipse fill="none" stroke="black" cx="324.644" cy="-90" rx="51.9908" ry="18"/>
<text text-anchor="middle" x="324.644" y="-86.3" font-family="Times New Roman,serif" font-size="14.00">HITs/circle</text>
</g>
<!-- HITs/interval&#45;&gt;HITs/circle -->
<g id="edge44" class="edge"><title>HITs/interval&#45;&gt;HITs/circle</title>
<path fill="none" stroke="black" d="M718.334,-290.397C701.897,-281.112 681.897,-267.862 667.644,-252 631.506,-211.782 655.486,-175.645 611.644,-144 529.173,-84.4724 485.016,-129.688 385.644,-108 381.475,-107.09 377.168,-106.065 372.861,-104.982"/>
<polygon fill="black" stroke="black" points="373.435,-101.514 362.875,-102.372 371.665,-108.287 373.435,-101.514"/>
</g>
<!-- theorems/fibration -->
<g id="node30" class="node"><title>theorems/fibration</title>
<ellipse fill="none" stroke="black" cx="1078.64" cy="-234" rx="76.8869" ry="18"/>
<text text-anchor="middle" x="1078.64" y="-230.3" font-family="Times New Roman,serif" font-size="14.00">theorems/fibration</text>
</g>
<!-- HITs/interval&#45;&gt;theorems/fibration -->
<g id="edge45" class="edge"><title>HITs/interval&#45;&gt;theorems/fibration</title>
<path fill="none" stroke="black" d="M790.165,-293.683C797.957,-291.713 806.031,-289.74 813.644,-288 813.952,-287.93 933.996,-263.924 1012.39,-248.248"/>
<polygon fill="black" stroke="black" points="1013.09,-251.678 1022.21,-246.285 1011.71,-244.814 1013.09,-251.678"/>
</g>
<!-- theorems/prop -->
<g id="node31" class="node"><title>theorems/prop</title>
<ellipse fill="none" stroke="black" cx="1236.64" cy="-234" rx="63.8893" ry="18"/>
<text text-anchor="middle" x="1236.64" y="-230.3" font-family="Times New Roman,serif" font-size="14.00">theorems/prop</text>
</g>
<!-- HITs/interval&#45;&gt;theorems/prop -->
<g id="edge46" class="edge"><title>HITs/interval&#45;&gt;theorems/prop</title>
<path fill="none" stroke="black" d="M788.98,-293.342C797.109,-291.337 805.608,-289.439 813.644,-288 968.008,-260.364 1010.01,-278.073 1164.64,-252 1170.03,-251.092 1175.61,-250.018 1181.17,-248.856"/>
<polygon fill="black" stroke="black" points="1182.09,-252.237 1191.12,-246.689 1180.6,-245.398 1182.09,-252.237"/>
</g>
<!-- cubical/cubes -->
<g id="node41" class="node"><title>cubical/cubes</title>
<ellipse fill="none" stroke="black" cx="736.644" cy="-234" rx="60.3893" ry="18"/>
<text text-anchor="middle" x="736.644" y="-230.3" font-family="Times New Roman,serif" font-size="14.00">cubical/cubes</text>
</g>
<!-- HITs/interval&#45;&gt;cubical/cubes -->
<g id="edge47" class="edge"><title>HITs/interval&#45;&gt;cubical/cubes</title>
<path fill="none" stroke="black" d="M744.925,-287.697C743.713,-279.983 742.256,-270.712 740.905,-262.112"/>
<polygon fill="black" stroke="black" points="744.342,-261.44 739.332,-252.104 737.427,-262.526 744.342,-261.44"/>
</g>
<!-- HITs/merely&#45;&gt;theorems/prop -->
<g id="edge48" class="edge"><title>HITs/merely&#45;&gt;theorems/prop</title>
<path fill="none" stroke="black" d="M1024.57,-293.675C1067.66,-281.754 1135.68,-262.935 1183.03,-249.835"/>
<polygon fill="black" stroke="black" points="1184.09,-253.171 1192.8,-247.131 1182.23,-246.424 1184.09,-253.171"/>
</g>
<!-- theorems/functions -->
<g id="node32" class="node"><title>theorems/functions</title>
<ellipse fill="none" stroke="black" cx="1398.64" cy="-234" rx="79.8859" ry="18"/>
<text text-anchor="middle" x="1398.64" y="-230.3" font-family="Times New Roman,serif" font-size="14.00">theorems/functions</text>
</g>
<!-- HITs/merely&#45;&gt;theorems/functions -->
<g id="edge49" class="edge"><title>HITs/merely&#45;&gt;theorems/functions</title>
<path fill="none" stroke="black" d="M1032.87,-297.43C1096.76,-287.505 1211.68,-269.317 1309.64,-252 1316.31,-250.823 1323.24,-249.561 1330.17,-248.277"/>
<polygon fill="black" stroke="black" points="1331.09,-251.665 1340.28,-246.387 1329.81,-244.784 1331.09,-251.665"/>
</g>
<!-- HITs/simplicial -->
<g id="node43" class="node"><title>HITs/simplicial</title>
<ellipse fill="none" stroke="black" cx="918.644" cy="-234" rx="65.7887" ry="18"/>
<text text-anchor="middle" x="918.644" y="-230.3" font-family="Times New Roman,serif" font-size="14.00">HITs/simplicial</text>
</g>
<!-- HITs/merely&#45;&gt;HITs/simplicial -->
<g id="edge50" class="edge"><title>HITs/merely&#45;&gt;HITs/simplicial</title>
<path fill="none" stroke="black" d="M968.24,-288.411C960.183,-279.734 950.165,-268.946 941.247,-259.342"/>
<polygon fill="black" stroke="black" points="943.759,-256.903 934.389,-251.956 938.629,-261.666 943.759,-256.903"/>
</g>
<!-- HITs/quotient -->
<g id="node40" class="node"><title>HITs/quotient</title>
<ellipse fill="none" stroke="black" cx="558.644" cy="-234" rx="61.99" ry="18"/>
<text text-anchor="middle" x="558.644" y="-230.3" font-family="Times New Roman,serif" font-size="14.00">HITs/quotient</text>
</g>
<!-- HITs/trunc&#45;&gt;HITs/quotient -->
<g id="edge55" class="edge"><title>HITs/trunc&#45;&gt;HITs/quotient</title>
<path fill="none" stroke="black" d="M576.834,-288.055C574.133,-280.176 570.856,-270.617 567.831,-261.794"/>
<polygon fill="black" stroke="black" points="571.121,-260.6 564.567,-252.275 564.5,-262.87 571.121,-260.6"/>
</g>
<!-- types/product&#45;&gt;theorems/ua -->
<g id="edge26" class="edge"><title>types/product&#45;&gt;theorems/ua</title>
<path fill="none" stroke="black" d="M416.363,-287.697C417.575,-279.983 419.032,-270.712 420.384,-262.112"/>
<polygon fill="black" stroke="black" points="423.861,-262.526 421.956,-252.104 416.946,-261.44 423.861,-262.526"/>
</g>
<!-- types/nat&#45;&gt;theorems/nat -->
<g id="edge24" class="edge"><title>types/nat&#45;&gt;theorems/nat</title>
<path fill="none" stroke="black" d="M857.34,-288.4C852.185,-278.235 846.295,-264.767 843.644,-252 840.392,-236.334 841.037,-231.786 843.644,-216 845.085,-207.275 847.776,-198.056 850.647,-189.797"/>
<polygon fill="black" stroke="black" points="853.974,-190.889 854.165,-180.296 847.41,-188.458 853.974,-190.889"/>
</g>
<!-- algebra/homology -->
<g id="node14" class="node"><title>algebra/homology</title>
<ellipse fill="none" stroke="black" cx="179.644" cy="-90" rx="75.2868" ry="18"/>
<text text-anchor="middle" x="179.644" y="-86.3" font-family="Times New Roman,serif" font-size="14.00">algebra/homology</text>
</g>
<!-- algebra/group&#45;&gt;algebra/homology -->
<g id="edge10" class="edge"><title>algebra/group&#45;&gt;algebra/homology</title>
<path fill="none" stroke="black" d="M492.714,-151.701C436.863,-141.256 343.716,-123.707 263.644,-108 257.608,-106.816 251.33,-105.571 245.047,-104.315"/>
<polygon fill="black" stroke="black" points="245.695,-100.876 235.202,-102.341 244.319,-107.739 245.695,-100.876"/>
</g>
<!-- types/category -->
<g id="node15" class="node"><title>types/category</title>
<ellipse fill="none" stroke="black" cx="1236.64" cy="-90" rx="63.8893" ry="18"/>
<text text-anchor="middle" x="1236.64" y="-86.3" font-family="Times New Roman,serif" font-size="14.00">types/category</text>
</g>
<!-- types/coproduct&#45;&gt;structures -->
<g id="edge11" class="edge"><title>types/coproduct&#45;&gt;structures</title>
<path fill="none" stroke="black" d="M469.107,-433.811C491.608,-422.949 521.971,-408.29 545.637,-396.866"/>
<polygon fill="black" stroke="black" points="547.189,-400.003 554.673,-392.503 544.146,-393.699 547.189,-400.003"/>
</g>
<!-- types/integer -->
<g id="node17" class="node"><title>types/integer</title>
<ellipse fill="none" stroke="black" cx="159.644" cy="-378" rx="56.59" ry="18"/>
<text text-anchor="middle" x="159.644" y="-374.3" font-family="Times New Roman,serif" font-size="14.00">types/integer</text>
</g>
<!-- types/coproduct&#45;&gt;types/integer -->
<g id="edge12" class="edge"><title>types/coproduct&#45;&gt;types/integer</title>
<path fill="none" stroke="black" d="M389.22,-436.807C339.78,-424.358 263.261,-405.091 212.33,-392.266"/>
<polygon fill="black" stroke="black" points="213.053,-388.839 202.501,-389.791 211.344,-395.627 213.053,-388.839"/>
</g>
<!-- types/integer&#45;&gt;HITs/circle -->
<g id="edge22" class="edge"><title>types/integer&#45;&gt;HITs/circle</title>
<path fill="none" stroke="black" d="M161.665,-359.806C164.189,-341.532 169.351,-312.018 178.644,-288 205.382,-218.9 215.151,-200.87 262.644,-144 272.047,-132.74 283.993,-121.915 294.883,-113.015"/>
<polygon fill="black" stroke="black" points="297.293,-115.571 302.946,-106.61 292.939,-110.09 297.293,-115.571"/>
</g>
<!-- types/rational -->
<g id="node27" class="node"><title>types/rational</title>
<ellipse fill="none" stroke="black" cx="68.6442" cy="-306" rx="59.2899" ry="18"/>
<text text-anchor="middle" x="68.6442" y="-302.3" font-family="Times New Roman,serif" font-size="14.00">types/rational</text>
</g>
<!-- types/integer&#45;&gt;types/rational -->
<g id="edge23" class="edge"><title>types/integer&#45;&gt;types/rational</title>
<path fill="none" stroke="black" d="M138.995,-361.116C126.749,-351.696 111.038,-339.611 97.5709,-329.251"/>
<polygon fill="black" stroke="black" points="99.587,-326.386 89.5268,-323.064 95.319,-331.935 99.587,-326.386"/>
</g>
<!-- types/dedekind -->
<g id="node18" class="node"><title>types/dedekind</title>
<ellipse fill="none" stroke="black" cx="65.6442" cy="-234" rx="65.7887" ry="18"/>
<text text-anchor="middle" x="65.6442" y="-230.3" font-family="Times New Roman,serif" font-size="14.00">types/dedekind</text>
</g>
<!-- HITs/graph -->
<g id="node24" class="node"><title>HITs/graph</title>
<ellipse fill="none" stroke="black" cx="845.644" cy="-450" rx="52.7911" ry="18"/>
<text text-anchor="middle" x="845.644" y="-446.3" font-family="Times New Roman,serif" font-size="14.00">HITs/graph</text>
</g>
<!-- types/heq&#45;&gt;HITs/graph -->
<g id="edge20" class="edge"><title>types/heq&#45;&gt;HITs/graph</title>
<path fill="none" stroke="black" d="M845.644,-503.697C845.644,-495.983 845.644,-486.712 845.644,-478.112"/>
<polygon fill="black" stroke="black" points="849.144,-478.104 845.644,-468.104 842.144,-478.104 849.144,-478.104"/>
</g>
<!-- theorems/funext -->
<g id="node25" class="node"><title>theorems/funext</title>
<ellipse fill="none" stroke="black" cx="705.644" cy="-450" rx="68.7879" ry="18"/>
<text text-anchor="middle" x="705.644" y="-446.3" font-family="Times New Roman,serif" font-size="14.00">theorems/funext</text>
</g>
<!-- types/heq&#45;&gt;theorems/funext -->
<g id="edge21" class="edge"><title>types/heq&#45;&gt;theorems/funext</title>
<path fill="none" stroke="black" d="M818.318,-507.337C797.524,-496.94 768.606,-482.481 745.273,-470.814"/>
<polygon fill="black" stroke="black" points="746.818,-467.674 736.308,-466.332 743.687,-473.935 746.818,-467.674"/>
</g>
<!-- types/unit&#45;&gt;structures -->
<g id="edge32" class="edge"><title>types/unit&#45;&gt;structures</title>
<path fill="none" stroke="black" d="M575.116,-431.697C576.218,-423.983 577.542,-414.712 578.771,-406.112"/>
<polygon fill="black" stroke="black" points="582.251,-406.499 580.201,-396.104 575.322,-405.509 582.251,-406.499"/>
</g>
<!-- HITs/suspension -->
<g id="node33" class="node"><title>HITs/suspension</title>
<ellipse fill="none" stroke="black" cx="260.644" cy="-306" rx="72.5877" ry="18"/>
<text text-anchor="middle" x="260.644" y="-302.3" font-family="Times New Roman,serif" font-size="14.00">HITs/suspension</text>
</g>
<!-- types/unit&#45;&gt;HITs/suspension -->
<g id="edge33" class="edge"><title>types/unit&#45;&gt;HITs/suspension</title>
<path fill="none" stroke="black" d="M538.14,-437.897C531.371,-435.844 524.305,-433.786 517.644,-432 448.078,-413.352 423.589,-429.139 359.644,-396 328.667,-379.946 299.798,-351.877 281.323,-331.547"/>
<polygon fill="black" stroke="black" points="283.792,-329.057 274.534,-323.905 278.559,-333.706 283.792,-329.057"/>
</g>
<!-- types/sigma&#45;&gt;theorems/nat -->
<g id="edge28" class="edge"><title>types/sigma&#45;&gt;theorems/nat</title>
<path fill="none" stroke="black" d="M1289.94,-303.201C1380.03,-298.377 1547.08,-280.684 1487.64,-216 1478.23,-205.753 1085.76,-178.146 927.139,-167.382"/>
<polygon fill="black" stroke="black" points="927.25,-163.881 917.036,-166.698 926.777,-170.865 927.25,-163.881"/>
</g>
<!-- types/sigma&#45;&gt;theorems/fibration -->
<g id="edge29" class="edge"><title>types/sigma&#45;&gt;theorems/fibration</title>
<path fill="none" stroke="black" d="M1205.43,-291.17C1181.64,-280.631 1148.59,-265.989 1122.2,-254.297"/>
<polygon fill="black" stroke="black" points="1123.37,-250.986 1112.81,-250.136 1120.53,-257.386 1123.37,-250.986"/>
</g>
<!-- types/sigma&#45;&gt;theorems/prop -->
<g id="edge30" class="edge"><title>types/sigma&#45;&gt;theorems/prop</title>
<path fill="none" stroke="black" d="M1236.64,-287.697C1236.64,-279.983 1236.64,-270.712 1236.64,-262.112"/>
<polygon fill="black" stroke="black" points="1240.14,-262.104 1236.64,-252.104 1233.14,-262.104 1240.14,-262.104"/>
</g>
<!-- types/sigma&#45;&gt;theorems/functions -->
<g id="edge31" class="edge"><title>types/sigma&#45;&gt;theorems/functions</title>
<path fill="none" stroke="black" d="M1268.26,-291.337C1292.73,-280.767 1326.91,-265.997 1354.14,-254.232"/>
<polygon fill="black" stroke="black" points="1355.66,-257.388 1363.45,-250.208 1352.88,-250.962 1355.66,-257.388"/>
</g>
<!-- HITs/colimit -->
<g id="node37" class="node"><title>HITs/colimit</title>
<ellipse fill="none" stroke="black" cx="836.644" cy="-378" rx="56.59" ry="18"/>
<text text-anchor="middle" x="836.644" y="-374.3" font-family="Times New Roman,serif" font-size="14.00">HITs/colimit</text>
</g>
<!-- HITs/graph&#45;&gt;HITs/colimit -->
<g id="edge40" class="edge"><title>HITs/graph&#45;&gt;HITs/colimit</title>
<path fill="none" stroke="black" d="M843.419,-431.697C842.428,-423.983 841.236,-414.712 840.13,-406.112"/>
<polygon fill="black" stroke="black" points="843.59,-405.576 838.843,-396.104 836.647,-406.469 843.59,-405.576"/>
</g>
<!-- HITs/generalized -->
<g id="node38" class="node"><title>HITs/generalized</title>
<ellipse fill="none" stroke="black" cx="983.644" cy="-378" rx="72.2875" ry="18"/>
<text text-anchor="middle" x="983.644" y="-374.3" font-family="Times New Roman,serif" font-size="14.00">HITs/generalized</text>
</g>
<!-- HITs/graph&#45;&gt;HITs/generalized -->
<g id="edge41" class="edge"><title>HITs/graph&#45;&gt;HITs/generalized</title>
<path fill="none" stroke="black" d="M873.904,-434.666C894.141,-424.4 921.663,-410.44 944.082,-399.068"/>
<polygon fill="black" stroke="black" points="945.691,-402.176 953.026,-394.531 942.524,-395.934 945.691,-402.176"/>
</g>
<!-- HITs/pushout -->
<g id="node39" class="node"><title>HITs/pushout</title>
<ellipse fill="none" stroke="black" cx="430.644" cy="-378" rx="61.99" ry="18"/>
<text text-anchor="middle" x="430.644" y="-374.3" font-family="Times New Roman,serif" font-size="14.00">HITs/pushout</text>
</g>
<!-- HITs/graph&#45;&gt;HITs/pushout -->
<g id="edge42" class="edge"><title>HITs/graph&#45;&gt;HITs/pushout</title>
<path fill="none" stroke="black" d="M807.133,-437.621C799.398,-435.567 791.296,-433.58 783.644,-432 671.122,-408.761 641.135,-413.92 527.644,-396 515.968,-394.156 503.523,-392.069 491.577,-390.003"/>
<polygon fill="black" stroke="black" points="492.139,-386.548 481.687,-388.279 490.937,-393.444 492.139,-386.548"/>
</g>
<!-- HITs/graph&#45;&gt;HITs/quotient -->
<g id="edge43" class="edge"><title>HITs/graph&#45;&gt;HITs/quotient</title>
<path fill="none" stroke="black" d="M823.077,-433.574C808.056,-423.179 787.972,-409.036 770.644,-396 729.709,-365.205 719.271,-357.644 680.644,-324 663.101,-308.72 661.014,-302.275 642.644,-288 627.506,-276.236 609.674,-264.694 594.342,-255.4"/>
<polygon fill="black" stroke="black" points="596.023,-252.327 585.643,-250.202 592.432,-258.336 596.023,-252.327"/>
</g>
<!-- theorems/funext&#45;&gt;structures -->
<g id="edge63" class="edge"><title>theorems/funext&#45;&gt;structures</title>
<path fill="none" stroke="black" d="M678.346,-433.465C660.139,-423.103 636.067,-409.403 616.621,-398.336"/>
<polygon fill="black" stroke="black" points="618.194,-395.204 607.771,-393.3 614.731,-401.288 618.194,-395.204"/>
</g>
<!-- theorems/hopf -->
<g id="node34" class="node"><title>theorems/hopf</title>
<ellipse fill="none" stroke="black" cx="803.644" cy="-18" rx="63.8893" ry="18"/>
<text text-anchor="middle" x="803.644" y="-14.3" font-family="Times New Roman,serif" font-size="14.00">theorems/hopf</text>
</g>
<!-- HITs/circle&#45;&gt;theorems/hopf -->
<g id="edge34" class="edge"><title>HITs/circle&#45;&gt;theorems/hopf</title>
<path fill="none" stroke="black" d="M362.509,-77.5269C370.121,-75.4813 378.1,-73.521 385.644,-72 506.624,-47.6075 649.693,-32.3467 733.191,-24.7757"/>
<polygon fill="black" stroke="black" points="733.674,-28.2465 743.322,-23.8684 733.05,-21.2744 733.674,-28.2465"/>
</g>
<!-- HITs/moebius -->
<g id="node35" class="node"><title>HITs/moebius</title>
<ellipse fill="none" stroke="black" cx="259.644" cy="-18" rx="63.0888" ry="18"/>
<text text-anchor="middle" x="259.644" y="-14.3" font-family="Times New Roman,serif" font-size="14.00">HITs/moebius</text>
</g>
<!-- HITs/circle&#45;&gt;HITs/moebius -->
<g id="edge35" class="edge"><title>HITs/circle&#45;&gt;HITs/moebius</title>
<path fill="none" stroke="black" d="M309.568,-72.7646C301.401,-63.9689 291.149,-52.9283 282.064,-43.144"/>
<polygon fill="black" stroke="black" points="284.459,-40.5798 275.089,-35.6334 279.329,-45.3429 284.459,-40.5798"/>
</g>
<!-- HITs/reals -->
<g id="node36" class="node"><title>HITs/reals</title>
<ellipse fill="none" stroke="black" cx="389.644" cy="-18" rx="48.9926" ry="18"/>
<text text-anchor="middle" x="389.644" y="-14.3" font-family="Times New Roman,serif" font-size="14.00">HITs/reals</text>
</g>
<!-- HITs/circle&#45;&gt;HITs/reals -->
<g id="edge36" class="edge"><title>HITs/circle&#45;&gt;HITs/reals</title>
<path fill="none" stroke="black" d="M339.72,-72.7646C348.006,-63.8414 358.437,-52.6078 367.619,-42.7194"/>
<polygon fill="black" stroke="black" points="370.41,-44.8569 374.65,-35.1473 365.281,-40.0937 370.41,-44.8569"/>
</g>
<!-- types/rational&#45;&gt;types/dedekind -->
<g id="edge27" class="edge"><title>types/rational&#45;&gt;types/dedekind</title>
<path fill="none" stroke="black" d="M67.9026,-287.697C67.572,-279.983 67.1747,-270.712 66.8061,-262.112"/>
<polygon fill="black" stroke="black" points="70.3023,-261.945 66.3772,-252.104 63.3087,-262.245 70.3023,-261.945"/>
</g>
<!-- theorems/nat&#45;&gt;HITs/circle -->
<g id="edge64" class="edge"><title>theorems/nat&#45;&gt;HITs/circle</title>
<path fill="none" stroke="black" d="M820.678,-149.335C812.441,-147.305 803.808,-145.4 795.644,-144 615.353,-113.082 565.622,-140.692 385.644,-108 381.204,-107.193 376.62,-106.209 372.051,-105.123"/>
<polygon fill="black" stroke="black" points="372.691,-101.675 362.138,-102.617 370.975,-108.461 372.691,-101.675"/>
</g>
<!-- HITs/int -->
<g id="node49" class="node"><title>HITs/int</title>
<ellipse fill="none" stroke="black" cx="1019.64" cy="-90" rx="40.8928" ry="18"/>
<text text-anchor="middle" x="1019.64" y="-86.3" font-family="Times New Roman,serif" font-size="14.00">HITs/int</text>
</g>
<!-- theorems/nat&#45;&gt;HITs/int -->
<g id="edge65" class="edge"><title>theorems/nat&#45;&gt;HITs/int</title>
<path fill="none" stroke="black" d="M893.618,-146.834C919.317,-135.449 955.455,-119.438 982.447,-107.48"/>
<polygon fill="black" stroke="black" points="984.217,-110.524 991.942,-103.273 981.381,-104.124 984.217,-110.524"/>
</g>
<!-- types/precategory -->
<g id="node29" class="node"><title>types/precategory</title>
<ellipse fill="none" stroke="black" cx="1236.64" cy="-162" rx="75.2868" ry="18"/>
<text text-anchor="middle" x="1236.64" y="-158.3" font-family="Times New Roman,serif" font-size="14.00">types/precategory</text>
</g>
<!-- types/precategory&#45;&gt;types/category -->
<g id="edge25" class="edge"><title>types/precategory&#45;&gt;types/category</title>
<path fill="none" stroke="black" d="M1236.64,-143.697C1236.64,-135.983 1236.64,-126.712 1236.64,-118.112"/>
<polygon fill="black" stroke="black" points="1240.14,-118.104 1236.64,-108.104 1233.14,-118.104 1240.14,-118.104"/>
</g>
<!-- theorems/fibration&#45;&gt;theorems/hopf -->
<g id="edge61" class="edge"><title>theorems/fibration&#45;&gt;theorems/hopf</title>
<path fill="none" stroke="black" d="M1083.71,-215.96C1092.19,-183.589 1105.07,-112.799 1069.64,-72 1044.71,-43.2783 945.309,-29.7002 875.362,-23.5907"/>
<polygon fill="black" stroke="black" points="875.526,-20.0923 865.268,-22.7426 874.939,-27.0677 875.526,-20.0923"/>
</g>
<!-- theorems/prop&#45;&gt;types/precategory -->
<g id="edge66" class="edge"><title>theorems/prop&#45;&gt;types/precategory</title>
<path fill="none" stroke="black" d="M1236.64,-215.697C1236.64,-207.983 1236.64,-198.712 1236.64,-190.112"/>
<polygon fill="black" stroke="black" points="1240.14,-190.104 1236.64,-180.104 1233.14,-190.104 1240.14,-190.104"/>
</g>
<!-- theorems/functions&#45;&gt;algebra/group -->
<g id="edge62" class="edge"><title>theorems/functions&#45;&gt;algebra/group</title>
<path fill="none" stroke="black" d="M1342.32,-221.074C1331.52,-219.117 1320.26,-217.306 1309.64,-216 1026,-181.114 952.121,-207.277 667.644,-180 647.222,-178.042 625.009,-175.241 605.05,-172.475"/>
<polygon fill="black" stroke="black" points="605.536,-169.009 595.146,-171.081 604.56,-175.941 605.536,-169.009"/>
</g>
<!-- HITs/suspension&#45;&gt;HITs/circle -->
<g id="edge53" class="edge"><title>HITs/suspension&#45;&gt;HITs/circle</title>
<path fill="none" stroke="black" d="M255.658,-287.969C251.141,-269.831 246.112,-240.429 252.644,-216 262.785,-178.076 287.502,-139.73 305.142,-115.696"/>
<polygon fill="black" stroke="black" points="308.077,-117.616 311.281,-107.517 302.479,-113.414 308.077,-117.616"/>
</g>
<!-- HITs/join -->
<g id="node42" class="node"><title>HITs/join</title>
<ellipse fill="none" stroke="black" cx="306.644" cy="-234" rx="45.4919" ry="18"/>
<text text-anchor="middle" x="306.644" y="-230.3" font-family="Times New Roman,serif" font-size="14.00">HITs/join</text>
</g>
<!-- HITs/suspension&#45;&gt;HITs/join -->
<g id="edge54" class="edge"><title>HITs/suspension&#45;&gt;HITs/join</title>
<path fill="none" stroke="black" d="M271.779,-288.055C277.26,-279.715 283.979,-269.491 290.05,-260.252"/>
<polygon fill="black" stroke="black" points="293.045,-262.068 295.611,-251.789 287.195,-258.224 293.045,-262.068"/>
</g>
<!-- HITs/colimit&#45;&gt;HITs/merely -->
<g id="edge37" class="edge"><title>HITs/colimit&#45;&gt;HITs/merely</title>
<path fill="none" stroke="black" d="M866.747,-362.666C889.141,-352.001 919.91,-337.35 944.259,-325.755"/>
<polygon fill="black" stroke="black" points="946.058,-328.775 953.582,-321.315 943.049,-322.455 946.058,-328.775"/>
</g>
<!-- HITs/colimit&#45;&gt;types/nat -->
<g id="edge38" class="edge"><title>HITs/colimit&#45;&gt;types/nat</title>
<path fill="none" stroke="black" d="M843.906,-360.055C847.37,-351.973 851.592,-342.121 855.453,-333.112"/>
<polygon fill="black" stroke="black" points="858.727,-334.359 859.449,-323.789 852.293,-331.602 858.727,-334.359"/>
</g>
<!-- HITs/generalized&#45;&gt;HITs/merely -->
<g id="edge39" class="edge"><title>HITs/generalized&#45;&gt;HITs/merely</title>
<path fill="none" stroke="black" d="M983.644,-359.697C983.644,-351.983 983.644,-342.712 983.644,-334.112"/>
<polygon fill="black" stroke="black" points="987.144,-334.104 983.644,-324.104 980.144,-334.104 987.144,-334.104"/>
</g>
<!-- HITs/pushout&#45;&gt;HITs/suspension -->
<g id="edge51" class="edge"><title>HITs/pushout&#45;&gt;HITs/suspension</title>
<path fill="none" stroke="black" d="M396.242,-362.834C370.179,-352.103 334.138,-337.262 305.763,-325.578"/>
<polygon fill="black" stroke="black" points="307.039,-322.319 296.46,-321.748 304.374,-328.792 307.039,-322.319"/>
</g>
<!-- HITs/quotient&#45;&gt;algebra/group -->
<g id="edge52" class="edge"><title>HITs/quotient&#45;&gt;algebra/group</title>
<path fill="none" stroke="black" d="M554.689,-215.697C552.926,-207.983 550.807,-198.712 548.841,-190.112"/>
<polygon fill="black" stroke="black" points="552.194,-189.073 546.554,-180.104 545.37,-190.633 552.194,-189.073"/>
</g>
<!-- cubical/path -->
<g id="node45" class="node"><title>cubical/path</title>
<ellipse fill="none" stroke="black" cx="731.644" cy="-162" rx="54.6905" ry="18"/>
<text text-anchor="middle" x="731.644" y="-158.3" font-family="Times New Roman,serif" font-size="14.00">cubical/path</text>
</g>
<!-- cubical/cubes&#45;&gt;cubical/path -->
<g id="edge56" class="edge"><title>cubical/cubes&#45;&gt;cubical/path</title>
<path fill="none" stroke="black" d="M735.408,-215.697C734.857,-207.983 734.195,-198.712 733.581,-190.112"/>
<polygon fill="black" stroke="black" points="737.07,-189.83 732.866,-180.104 730.087,-190.328 737.07,-189.83"/>
</g>
<!-- cubical/connection -->
<g id="node44" class="node"><title>cubical/connection</title>
<ellipse fill="none" stroke="black" cx="881.644" cy="-90" rx="79.0865" ry="18"/>
<text text-anchor="middle" x="881.644" y="-86.3" font-family="Times New Roman,serif" font-size="14.00">cubical/connection</text>
</g>
<!-- cubical/path&#45;&gt;cubical/connection -->
<g id="edge57" class="edge"><title>cubical/path&#45;&gt;cubical/connection</title>
<path fill="none" stroke="black" d="M761.999,-146.834C784.24,-136.455 814.717,-122.233 839.345,-110.74"/>
<polygon fill="black" stroke="black" points="840.886,-113.883 848.468,-106.482 837.926,-107.54 840.886,-113.883"/>
</g>
<!-- cubical/example -->
<g id="node46" class="node"><title>cubical/example</title>
<ellipse fill="none" stroke="black" cx="571.644" cy="-90" rx="68.7879" ry="18"/>
<text text-anchor="middle" x="571.644" y="-86.3" font-family="Times New Roman,serif" font-size="14.00">cubical/example</text>
</g>
<!-- cubical/path&#45;&gt;cubical/example -->
<g id="edge58" class="edge"><title>cubical/path&#45;&gt;cubical/example</title>
<path fill="none" stroke="black" d="M700.033,-147.17C675.593,-136.478 641.502,-121.563 614.591,-109.789"/>
<polygon fill="black" stroke="black" points="615.963,-106.569 605.399,-105.768 613.158,-112.982 615.963,-106.569"/>
</g>
<!-- cubical/square -->
<g id="node47" class="node"><title>cubical/square</title>
<ellipse fill="none" stroke="black" cx="721.644" cy="-90" rx="63.0888" ry="18"/>
<text text-anchor="middle" x="721.644" y="-86.3" font-family="Times New Roman,serif" font-size="14.00">cubical/square</text>
</g>
<!-- cubical/path&#45;&gt;cubical/square -->
<g id="edge59" class="edge"><title>cubical/path&#45;&gt;cubical/square</title>
<path fill="none" stroke="black" d="M729.172,-143.697C728.07,-135.983 726.746,-126.712 725.517,-118.112"/>
<polygon fill="black" stroke="black" points="728.967,-117.509 724.088,-108.104 722.037,-118.499 728.967,-117.509"/>
</g>
<!-- cubical/path&#45;&gt;cubical/V -->
<g id="edge60" class="edge"><title>cubical/path&#45;&gt;cubical/V</title>
<path fill="none" stroke="black" d="M689.733,-150.449C680.804,-148.264 671.422,-146.016 662.644,-144 587.796,-126.812 567.91,-127.553 493.644,-108 490.263,-107.11 486.778,-106.139 483.284,-105.126"/>
<polygon fill="black" stroke="black" points="484.076,-101.71 473.492,-102.197 482.069,-108.416 484.076,-101.71"/>
</g>
</g>
</svg>
