<?xml version="1.0" encoding="UTF-8" standalone="no"?>
<!DOCTYPE svg PUBLIC "-//W3C//DTD SVG 1.1//EN"
 "http://www.w3.org/Graphics/SVG/1.1/DTD/svg11.dtd">
<!-- Generated by graphviz version 2.43.0 (0)
 -->
<!-- Title: dependency_map Pages: 1 -->
<svg width="2258pt" height="1052pt"
 viewBox="0.00 0.00 2258.09 1052.00" xmlns="http://www.w3.org/2000/svg" xmlns:xlink="http://www.w3.org/1999/xlink">
<g id="graph0" class="graph" transform="scale(1 1) rotate(0) translate(4 1048)">
<title>dependency_map</title>
<polygon fill="white" stroke="transparent" points="-4,4 -4,-1048 2254.09,-1048 2254.09,4 -4,4"/>
<!-- proto -->
<g id="node1" class="node">
<title>proto</title>
<ellipse fill="none" stroke="black" cx="739.09" cy="-1026" rx="36" ry="18"/>
<text text-anchor="middle" x="739.09" y="-1022.3" font-family="Times,serif" font-size="14.00">proto</text>
</g>
<!-- types/eq -->
<g id="node2" class="node">
<title>types/eq</title>
<ellipse fill="none" stroke="black" cx="811.09" cy="-954" rx="50.09" ry="18"/>
<text text-anchor="middle" x="811.09" y="-950.3" font-family="Times,serif" font-size="14.00">types/eq</text>
</g>
<!-- proto&#45;&gt;types/eq -->
<g id="edge1" class="edge">
<title>proto&#45;&gt;types/eq</title>
<path fill="none" stroke="black" d="M755.07,-1009.46C764.47,-1000.32 776.55,-988.59 787.07,-978.35"/>
<polygon fill="black" stroke="black" points="789.68,-980.7 794.41,-971.22 784.8,-975.68 789.68,-980.7"/>
</g>
<!-- support -->
<g id="node4" class="node">
<title>support</title>
<ellipse fill="none" stroke="black" cx="811.09" cy="-882" rx="46.59" ry="18"/>
<text text-anchor="middle" x="811.09" y="-878.3" font-family="Times,serif" font-size="14.00">support</text>
</g>
<!-- types/eq&#45;&gt;support -->
<g id="edge20" class="edge">
<title>types/eq&#45;&gt;support</title>
<path fill="none" stroke="black" d="M811.09,-935.7C811.09,-927.98 811.09,-918.71 811.09,-910.11"/>
<polygon fill="black" stroke="black" points="814.59,-910.1 811.09,-900.1 807.59,-910.1 814.59,-910.1"/>
</g>
<!-- meta/hott_theory -->
<g id="node3" class="node">
<title>meta/hott_theory</title>
<ellipse fill="none" stroke="black" cx="884.09" cy="-1026" rx="90.98" ry="18"/>
<text text-anchor="middle" x="884.09" y="-1022.3" font-family="Times,serif" font-size="14.00">meta/hott_theory</text>
</g>
<!-- meta/hott_theory&#45;&gt;types/eq -->
<g id="edge2" class="edge">
<title>meta/hott_theory&#45;&gt;types/eq</title>
<path fill="none" stroke="black" d="M866.42,-1008.05C857.14,-999.16 845.62,-988.11 835.51,-978.41"/>
<polygon fill="black" stroke="black" points="837.74,-975.7 828.1,-971.31 832.89,-980.75 837.74,-975.7"/>
</g>
<!-- types/equiv -->
<g id="node5" class="node">
<title>types/equiv</title>
<ellipse fill="none" stroke="black" cx="811.09" cy="-810" rx="64.19" ry="18"/>
<text text-anchor="middle" x="811.09" y="-806.3" font-family="Times,serif" font-size="14.00">types/equiv</text>
</g>
<!-- support&#45;&gt;types/equiv -->
<g id="edge3" class="edge">
<title>support&#45;&gt;types/equiv</title>
<path fill="none" stroke="black" d="M811.09,-863.7C811.09,-855.98 811.09,-846.71 811.09,-838.11"/>
<polygon fill="black" stroke="black" points="814.59,-838.1 811.09,-828.1 807.59,-838.1 814.59,-838.1"/>
</g>
<!-- types/coproduct -->
<g id="node24" class="node">
<title>types/coproduct</title>
<ellipse fill="none" stroke="black" cx="752.09" cy="-666" rx="85.29" ry="18"/>
<text text-anchor="middle" x="752.09" y="-662.3" font-family="Times,serif" font-size="14.00">types/coproduct</text>
</g>
<!-- types/equiv&#45;&gt;types/coproduct -->
<g id="edge23" class="edge">
<title>types/equiv&#45;&gt;types/coproduct</title>
<path fill="none" stroke="black" d="M755.64,-800.58C707.05,-791.94 641.78,-776.81 626.09,-756 616.46,-743.22 617.24,-733.33 626.09,-720 638.45,-701.4 658.74,-689.31 679.47,-681.46"/>
<polygon fill="black" stroke="black" points="680.7,-684.74 689,-678.15 678.4,-678.13 680.7,-684.74"/>
</g>
<!-- types/heq -->
<g id="node27" class="node">
<title>types/heq</title>
<ellipse fill="none" stroke="black" cx="523.09" cy="-738" rx="55.79" ry="18"/>
<text text-anchor="middle" x="523.09" y="-734.3" font-family="Times,serif" font-size="14.00">types/heq</text>
</g>
<!-- types/equiv&#45;&gt;types/heq -->
<g id="edge24" class="edge">
<title>types/equiv&#45;&gt;types/heq</title>
<path fill="none" stroke="black" d="M764.18,-797.6C712.67,-785.08 630.13,-765.02 576.26,-751.92"/>
<polygon fill="black" stroke="black" points="576.76,-748.44 566.22,-749.48 575.11,-755.24 576.76,-748.44"/>
</g>
<!-- HITs/infinitesimal -->
<g id="node28" class="node">
<title>HITs/infinitesimal</title>
<ellipse fill="none" stroke="black" cx="728.09" cy="-738" rx="92.88" ry="18"/>
<text text-anchor="middle" x="728.09" y="-734.3" font-family="Times,serif" font-size="14.00">HITs/infinitesimal</text>
</g>
<!-- types/equiv&#45;&gt;HITs/infinitesimal -->
<g id="edge25" class="edge">
<title>types/equiv&#45;&gt;HITs/infinitesimal</title>
<path fill="none" stroke="black" d="M791.84,-792.76C781.1,-783.71 767.54,-772.27 755.69,-762.28"/>
<polygon fill="black" stroke="black" points="757.72,-759.4 747.82,-755.63 753.2,-764.76 757.72,-759.4"/>
</g>
<!-- types/lost -->
<g id="node29" class="node">
<title>types/lost</title>
<ellipse fill="none" stroke="black" cx="895.09" cy="-738" rx="55.79" ry="18"/>
<text text-anchor="middle" x="895.09" y="-734.3" font-family="Times,serif" font-size="14.00">types/lost</text>
</g>
<!-- types/equiv&#45;&gt;types/lost -->
<g id="edge26" class="edge">
<title>types/equiv&#45;&gt;types/lost</title>
<path fill="none" stroke="black" d="M830.58,-792.76C841.71,-783.49 855.84,-771.71 868.03,-761.55"/>
<polygon fill="black" stroke="black" points="870.28,-764.24 875.72,-755.15 865.79,-758.86 870.28,-764.24"/>
</g>
<!-- types/unit -->
<g id="node30" class="node">
<title>types/unit</title>
<ellipse fill="none" stroke="black" cx="986.09" cy="-594" rx="57.69" ry="18"/>
<text text-anchor="middle" x="986.09" y="-590.3" font-family="Times,serif" font-size="14.00">types/unit</text>
</g>
<!-- types/equiv&#45;&gt;types/unit -->
<g id="edge27" class="edge">
<title>types/equiv&#45;&gt;types/unit</title>
<path fill="none" stroke="black" d="M871.79,-803.66C906.93,-797.49 949.53,-784.27 977.09,-756 1011.51,-720.7 1002.83,-657.77 994.07,-621.94"/>
<polygon fill="black" stroke="black" points="997.43,-620.96 991.51,-612.17 990.66,-622.73 997.43,-620.96"/>
</g>
<!-- types/sigma -->
<g id="node31" class="node">
<title>types/sigma</title>
<ellipse fill="none" stroke="black" cx="922.09" cy="-666" rx="66.89" ry="18"/>
<text text-anchor="middle" x="922.09" y="-662.3" font-family="Times,serif" font-size="14.00">types/sigma</text>
</g>
<!-- types/equiv&#45;&gt;types/sigma -->
<g id="edge28" class="edge">
<title>types/equiv&#45;&gt;types/sigma</title>
<path fill="none" stroke="black" d="M871.53,-803.82C903.45,-797.65 940.07,-784.38 960.09,-756 974.19,-736.03 959.99,-710.02 945.11,-691.28"/>
<polygon fill="black" stroke="black" points="947.66,-688.88 938.54,-683.48 942.31,-693.38 947.66,-688.88"/>
</g>
<!-- structures -->
<g id="node6" class="node">
<title>structures</title>
<ellipse fill="none" stroke="black" cx="899.09" cy="-522" rx="59.29" ry="18"/>
<text text-anchor="middle" x="899.09" y="-518.3" font-family="Times,serif" font-size="14.00">structures</text>
</g>
<!-- HITs/interval -->
<g id="node7" class="node">
<title>HITs/interval</title>
<ellipse fill="none" stroke="black" cx="1595.09" cy="-450" rx="71.49" ry="18"/>
<text text-anchor="middle" x="1595.09" y="-446.3" font-family="Times,serif" font-size="14.00">HITs/interval</text>
</g>
<!-- structures&#45;&gt;HITs/interval -->
<g id="edge4" class="edge">
<title>structures&#45;&gt;HITs/interval</title>
<path fill="none" stroke="black" d="M954.29,-515.45C1078.27,-502.98 1378.97,-472.74 1519.88,-458.56"/>
<polygon fill="black" stroke="black" points="1520.55,-462.01 1530.15,-457.53 1519.85,-455.05 1520.55,-462.01"/>
</g>
<!-- HITs/merely -->
<g id="node8" class="node">
<title>HITs/merely</title>
<ellipse fill="none" stroke="black" cx="591.09" cy="-450" rx="67.69" ry="18"/>
<text text-anchor="middle" x="591.09" y="-446.3" font-family="Times,serif" font-size="14.00">HITs/merely</text>
</g>
<!-- structures&#45;&gt;HITs/merely -->
<g id="edge5" class="edge">
<title>structures&#45;&gt;HITs/merely</title>
<path fill="none" stroke="black" d="M855.24,-509.85C847.22,-507.86 838.91,-505.84 831.09,-504 770.41,-489.72 700.82,-474.47 652.25,-464.02"/>
<polygon fill="black" stroke="black" points="652.73,-460.54 642.22,-461.86 651.26,-467.38 652.73,-460.54"/>
</g>
<!-- HITs/trunc -->
<g id="node9" class="node">
<title>HITs/trunc</title>
<ellipse fill="none" stroke="black" cx="176.09" cy="-450" rx="59.59" ry="18"/>
<text text-anchor="middle" x="176.09" y="-446.3" font-family="Times,serif" font-size="14.00">HITs/trunc</text>
</g>
<!-- structures&#45;&gt;HITs/trunc -->
<g id="edge6" class="edge">
<title>structures&#45;&gt;HITs/trunc</title>
<path fill="none" stroke="black" d="M856.88,-509.31C848.39,-507.28 839.5,-505.38 831.09,-504 719.57,-485.68 388.37,-463.97 244.3,-455.09"/>
<polygon fill="black" stroke="black" points="244.45,-451.6 234.25,-454.48 244.02,-458.58 244.45,-451.6"/>
</g>
<!-- types/nat -->
<g id="node10" class="node">
<title>types/nat</title>
<ellipse fill="none" stroke="black" cx="791.09" cy="-450" rx="53.89" ry="18"/>
<text text-anchor="middle" x="791.09" y="-446.3" font-family="Times,serif" font-size="14.00">types/nat</text>
</g>
<!-- structures&#45;&gt;types/nat -->
<g id="edge7" class="edge">
<title>structures&#45;&gt;types/nat</title>
<path fill="none" stroke="black" d="M875.12,-505.46C859.92,-495.61 840.05,-482.73 823.46,-471.98"/>
<polygon fill="black" stroke="black" points="824.92,-468.75 814.62,-466.25 821.11,-474.63 824.92,-468.75"/>
</g>
<!-- theorems/ua -->
<g id="node11" class="node">
<title>theorems/ua</title>
<ellipse fill="none" stroke="black" cx="1178.09" cy="-450" rx="68.79" ry="18"/>
<text text-anchor="middle" x="1178.09" y="-446.3" font-family="Times,serif" font-size="14.00">theorems/ua</text>
</g>
<!-- structures&#45;&gt;theorems/ua -->
<g id="edge8" class="edge">
<title>structures&#45;&gt;theorems/ua</title>
<path fill="none" stroke="black" d="M943.3,-509.91C991.08,-497.92 1067.43,-478.76 1120.02,-465.57"/>
<polygon fill="black" stroke="black" points="1121.03,-468.93 1129.88,-463.1 1119.33,-462.14 1121.03,-468.93"/>
</g>
<!-- cubical/cubes -->
<g id="node47" class="node">
<title>cubical/cubes</title>
<ellipse fill="none" stroke="black" cx="1969.09" cy="-378" rx="73.39" ry="18"/>
<text text-anchor="middle" x="1969.09" y="-374.3" font-family="Times,serif" font-size="14.00">cubical/cubes</text>
</g>
<!-- HITs/interval&#45;&gt;cubical/cubes -->
<g id="edge50" class="edge">
<title>HITs/interval&#45;&gt;cubical/cubes</title>
<path fill="none" stroke="black" d="M1650.68,-438.6C1717.92,-426.01 1831.01,-404.84 1902.75,-391.42"/>
<polygon fill="black" stroke="black" points="1903.4,-394.86 1912.59,-389.58 1902.11,-387.98 1903.4,-394.86"/>
</g>
<!-- theorems/prop -->
<g id="node48" class="node">
<title>theorems/prop</title>
<ellipse fill="none" stroke="black" cx="1206.09" cy="-378" rx="79.09" ry="18"/>
<text text-anchor="middle" x="1206.09" y="-374.3" font-family="Times,serif" font-size="14.00">theorems/prop</text>
</g>
<!-- HITs/interval&#45;&gt;theorems/prop -->
<g id="edge51" class="edge">
<title>HITs/interval&#45;&gt;theorems/prop</title>
<path fill="none" stroke="black" d="M1538.53,-438.82C1469.06,-426.32 1351.21,-405.11 1276.09,-391.6"/>
<polygon fill="black" stroke="black" points="1276.71,-388.15 1266.24,-389.82 1275.47,-395.04 1276.71,-388.15"/>
</g>
<!-- theorems/fibration -->
<g id="node49" class="node">
<title>theorems/fibration</title>
<ellipse fill="none" stroke="black" cx="1691.09" cy="-306" rx="96.68" ry="18"/>
<text text-anchor="middle" x="1691.09" y="-302.3" font-family="Times,serif" font-size="14.00">theorems/fibration</text>
</g>
<!-- HITs/interval&#45;&gt;theorems/fibration -->
<g id="edge52" class="edge">
<title>HITs/interval&#45;&gt;theorems/fibration</title>
<path fill="none" stroke="black" d="M1606.48,-432.15C1623.14,-407.52 1654.27,-361.47 1673.77,-332.63"/>
<polygon fill="black" stroke="black" points="1676.72,-334.51 1679.42,-324.27 1670.92,-330.59 1676.72,-334.51"/>
</g>
<!-- HITs/merely&#45;&gt;theorems/prop -->
<g id="edge53" class="edge">
<title>HITs/merely&#45;&gt;theorems/prop</title>
<path fill="none" stroke="black" d="M650.75,-441.43C674.77,-438.42 702.74,-434.98 728.09,-432 867.91,-415.57 1030.9,-397.8 1125.89,-387.57"/>
<polygon fill="black" stroke="black" points="1126.43,-391.03 1136,-386.48 1125.68,-384.07 1126.43,-391.03"/>
</g>
<!-- theorems/ontological -->
<g id="node51" class="node">
<title>theorems/ontological</title>
<ellipse fill="none" stroke="black" cx="489.09" cy="-378" rx="108.58" ry="18"/>
<text text-anchor="middle" x="489.09" y="-374.3" font-family="Times,serif" font-size="14.00">theorems/ontological</text>
</g>
<!-- HITs/merely&#45;&gt;theorems/ontological -->
<g id="edge54" class="edge">
<title>HITs/merely&#45;&gt;theorems/ontological</title>
<path fill="none" stroke="black" d="M567.69,-432.94C554.12,-423.63 536.82,-411.75 521.91,-401.52"/>
<polygon fill="black" stroke="black" points="523.68,-398.49 513.45,-395.72 519.71,-404.26 523.68,-398.49"/>
</g>
<!-- HITs/simplicial -->
<g id="node52" class="node">
<title>HITs/simplicial</title>
<ellipse fill="none" stroke="black" cx="283.09" cy="-378" rx="79.09" ry="18"/>
<text text-anchor="middle" x="283.09" y="-374.3" font-family="Times,serif" font-size="14.00">HITs/simplicial</text>
</g>
<!-- HITs/merely&#45;&gt;HITs/simplicial -->
<g id="edge55" class="edge">
<title>HITs/merely&#45;&gt;HITs/simplicial</title>
<path fill="none" stroke="black" d="M541.27,-437.68C488.42,-425.67 404.78,-406.66 347.09,-393.55"/>
<polygon fill="black" stroke="black" points="347.52,-390.05 336.99,-391.25 345.97,-396.88 347.52,-390.05"/>
</g>
<!-- theorems/functions -->
<g id="node53" class="node">
<title>theorems/functions</title>
<ellipse fill="none" stroke="black" cx="563.09" cy="-234" rx="100.98" ry="18"/>
<text text-anchor="middle" x="563.09" y="-230.3" font-family="Times,serif" font-size="14.00">theorems/functions</text>
</g>
<!-- HITs/merely&#45;&gt;theorems/functions -->
<g id="edge56" class="edge">
<title>HITs/merely&#45;&gt;theorems/functions</title>
<path fill="none" stroke="black" d="M597.75,-431.63C601.3,-421.42 605.3,-408.17 607.09,-396 614.27,-347.42 592.66,-292.6 577.23,-261.1"/>
<polygon fill="black" stroke="black" points="580.32,-259.44 572.68,-252.1 574.07,-262.6 580.32,-259.44"/>
</g>
<!-- algebra/monoid -->
<g id="node14" class="node">
<title>algebra/monoid</title>
<ellipse fill="none" stroke="black" cx="553.09" cy="-162" rx="83.39" ry="18"/>
<text text-anchor="middle" x="553.09" y="-158.3" font-family="Times,serif" font-size="14.00">algebra/monoid</text>
</g>
<!-- HITs/trunc&#45;&gt;algebra/monoid -->
<g id="edge61" class="edge">
<title>HITs/trunc&#45;&gt;algebra/monoid</title>
<path fill="none" stroke="black" d="M175.7,-431.9C176.11,-412.63 179.42,-381.23 195.09,-360 269.25,-259.57 410.62,-204.13 491.75,-179.28"/>
<polygon fill="black" stroke="black" points="493.25,-182.48 501.82,-176.25 491.24,-175.78 493.25,-182.48"/>
</g>
<!-- HITs/quotient -->
<g id="node46" class="node">
<title>HITs/quotient</title>
<ellipse fill="none" stroke="black" cx="74.09" cy="-378" rx="74.19" ry="18"/>
<text text-anchor="middle" x="74.09" y="-374.3" font-family="Times,serif" font-size="14.00">HITs/quotient</text>
</g>
<!-- HITs/trunc&#45;&gt;HITs/quotient -->
<g id="edge62" class="edge">
<title>HITs/trunc&#45;&gt;HITs/quotient</title>
<path fill="none" stroke="black" d="M153.2,-433.29C139.36,-423.79 121.49,-411.53 106.24,-401.06"/>
<polygon fill="black" stroke="black" points="107.84,-397.92 97.62,-395.14 103.88,-403.69 107.84,-397.92"/>
</g>
<!-- theorems/nat -->
<g id="node36" class="node">
<title>theorems/nat</title>
<ellipse fill="none" stroke="black" cx="849.09" cy="-378" rx="72.59" ry="18"/>
<text text-anchor="middle" x="849.09" y="-374.3" font-family="Times,serif" font-size="14.00">theorems/nat</text>
</g>
<!-- types/nat&#45;&gt;theorems/nat -->
<g id="edge33" class="edge">
<title>types/nat&#45;&gt;theorems/nat</title>
<path fill="none" stroke="black" d="M804.84,-432.41C811.89,-423.91 820.61,-413.37 828.45,-403.91"/>
<polygon fill="black" stroke="black" points="831.36,-405.89 835.04,-395.96 825.97,-401.42 831.36,-405.89"/>
</g>
<!-- theorems/ua&#45;&gt;theorems/nat -->
<g id="edge80" class="edge">
<title>theorems/ua&#45;&gt;theorems/nat</title>
<path fill="none" stroke="black" d="M1126.33,-437.99C1068.47,-425.68 974.78,-405.74 912.56,-392.5"/>
<polygon fill="black" stroke="black" points="912.98,-389.01 902.47,-390.36 911.52,-395.86 912.98,-389.01"/>
</g>
<!-- theorems/ua&#45;&gt;theorems/prop -->
<g id="edge81" class="edge">
<title>theorems/ua&#45;&gt;theorems/prop</title>
<path fill="none" stroke="black" d="M1184.87,-432.05C1188.02,-424.18 1191.85,-414.62 1195.38,-405.79"/>
<polygon fill="black" stroke="black" points="1198.72,-406.86 1199.18,-396.28 1192.22,-404.26 1198.72,-406.86"/>
</g>
<!-- cubical/V -->
<g id="node58" class="node">
<title>cubical/V</title>
<ellipse fill="none" stroke="black" cx="1812.09" cy="-234" rx="52.79" ry="18"/>
<text text-anchor="middle" x="1812.09" y="-230.3" font-family="Times,serif" font-size="14.00">cubical/V</text>
</g>
<!-- theorems/ua&#45;&gt;cubical/V -->
<g id="edge82" class="edge">
<title>theorems/ua&#45;&gt;cubical/V</title>
<path fill="none" stroke="black" d="M1244.39,-444.88C1388.01,-434.55 1721.07,-402.52 1797.09,-324 1812.64,-307.95 1815.52,-282.17 1815.02,-262.47"/>
<polygon fill="black" stroke="black" points="1818.5,-262.05 1814.46,-252.26 1811.51,-262.44 1818.5,-262.05"/>
</g>
<!-- algebra/basic -->
<g id="node12" class="node">
<title>algebra/basic</title>
<ellipse fill="none" stroke="black" cx="755.09" cy="-234" rx="72.59" ry="18"/>
<text text-anchor="middle" x="755.09" y="-230.3" font-family="Times,serif" font-size="14.00">algebra/basic</text>
</g>
<!-- algebra/category -->
<g id="node13" class="node">
<title>algebra/category</title>
<ellipse fill="none" stroke="black" cx="1081.09" cy="-162" rx="89.08" ry="18"/>
<text text-anchor="middle" x="1081.09" y="-158.3" font-family="Times,serif" font-size="14.00">algebra/category</text>
</g>
<!-- algebra/basic&#45;&gt;algebra/category -->
<g id="edge9" class="edge">
<title>algebra/basic&#45;&gt;algebra/category</title>
<path fill="none" stroke="black" d="M808.2,-221.6C863.91,-209.63 951.69,-190.79 1012.59,-177.71"/>
<polygon fill="black" stroke="black" points="1013.46,-181.1 1022.5,-175.58 1011.99,-174.26 1013.46,-181.1"/>
</g>
<!-- algebra/basic&#45;&gt;algebra/monoid -->
<g id="edge10" class="edge">
<title>algebra/basic&#45;&gt;algebra/monoid</title>
<path fill="none" stroke="black" d="M714.7,-219C683.16,-208.07 639.1,-192.81 604.96,-180.97"/>
<polygon fill="black" stroke="black" points="605.75,-177.54 595.15,-177.58 603.46,-184.16 605.75,-177.54"/>
</g>
<!-- algebra/group -->
<g id="node15" class="node">
<title>algebra/group</title>
<ellipse fill="none" stroke="black" cx="376.09" cy="-162" rx="76.09" ry="18"/>
<text text-anchor="middle" x="376.09" y="-158.3" font-family="Times,serif" font-size="14.00">algebra/group</text>
</g>
<!-- algebra/basic&#45;&gt;algebra/group -->
<g id="edge11" class="edge">
<title>algebra/basic&#45;&gt;algebra/group</title>
<path fill="none" stroke="black" d="M701.78,-221.65C692.24,-219.71 682.38,-217.75 673.09,-216 579.18,-198.3 555.07,-197.37 461.09,-180 454.88,-178.85 448.41,-177.62 441.95,-176.37"/>
<polygon fill="black" stroke="black" points="442.32,-172.87 431.83,-174.39 440.97,-179.74 442.32,-172.87"/>
</g>
<!-- algebra/eilenberg_maclane -->
<g id="node17" class="node">
<title>algebra/eilenberg_maclane</title>
<ellipse fill="none" stroke="black" cx="1175.09" cy="-90" rx="135.68" ry="18"/>
<text text-anchor="middle" x="1175.09" y="-86.3" font-family="Times,serif" font-size="14.00">algebra/eilenberg_maclane</text>
</g>
<!-- algebra/group&#45;&gt;algebra/eilenberg_maclane -->
<g id="edge12" class="edge">
<title>algebra/group&#45;&gt;algebra/eilenberg_maclane</title>
<path fill="none" stroke="black" d="M429.88,-149.2C440.2,-147.23 450.95,-145.38 461.09,-144 569.97,-129.13 869.07,-109.52 1043.67,-98.81"/>
<polygon fill="black" stroke="black" points="1043.93,-102.3 1053.7,-98.19 1043.5,-95.31 1043.93,-102.3"/>
</g>
<!-- algebra/finite -->
<g id="node18" class="node">
<title>algebra/finite</title>
<ellipse fill="none" stroke="black" cx="594.09" cy="-90" rx="72.59" ry="18"/>
<text text-anchor="middle" x="594.09" y="-86.3" font-family="Times,serif" font-size="14.00">algebra/finite</text>
</g>
<!-- algebra/group&#45;&gt;algebra/finite -->
<g id="edge13" class="edge">
<title>algebra/group&#45;&gt;algebra/finite</title>
<path fill="none" stroke="black" d="M419.42,-147.09C454.65,-135.78 504.45,-119.78 541.87,-107.77"/>
<polygon fill="black" stroke="black" points="543.14,-111.04 551.59,-104.65 541,-104.37 543.14,-111.04"/>
</g>
<!-- algebra/ring -->
<g id="node19" class="node">
<title>algebra/ring</title>
<ellipse fill="none" stroke="black" cx="164.09" cy="-90" rx="67.69" ry="18"/>
<text text-anchor="middle" x="164.09" y="-86.3" font-family="Times,serif" font-size="14.00">algebra/ring</text>
</g>
<!-- algebra/group&#45;&gt;algebra/ring -->
<g id="edge14" class="edge">
<title>algebra/group&#45;&gt;algebra/ring</title>
<path fill="none" stroke="black" d="M333.7,-147C299.46,-135.7 251.17,-119.75 214.87,-107.77"/>
<polygon fill="black" stroke="black" points="215.56,-104.31 204.97,-104.5 213.37,-110.96 215.56,-104.31"/>
</g>
<!-- algebra/transformational -->
<g id="node20" class="node">
<title>algebra/transformational</title>
<ellipse fill="none" stroke="black" cx="376.09" cy="-90" rx="126.98" ry="18"/>
<text text-anchor="middle" x="376.09" y="-86.3" font-family="Times,serif" font-size="14.00">algebra/transformational</text>
</g>
<!-- algebra/group&#45;&gt;algebra/transformational -->
<g id="edge15" class="edge">
<title>algebra/group&#45;&gt;algebra/transformational</title>
<path fill="none" stroke="black" d="M376.09,-143.7C376.09,-135.98 376.09,-126.71 376.09,-118.11"/>
<polygon fill="black" stroke="black" points="379.59,-118.1 376.09,-108.1 372.59,-118.1 379.59,-118.1"/>
</g>
<!-- algebra/Z -->
<g id="node21" class="node">
<title>algebra/Z</title>
<ellipse fill="none" stroke="black" cx="769.09" cy="-90" rx="55.49" ry="18"/>
<text text-anchor="middle" x="769.09" y="-86.3" font-family="Times,serif" font-size="14.00">algebra/Z</text>
</g>
<!-- algebra/group&#45;&gt;algebra/Z -->
<g id="edge16" class="edge">
<title>algebra/group&#45;&gt;algebra/Z</title>
<path fill="none" stroke="black" d="M431.83,-149.59C441.57,-147.67 451.62,-145.74 461.09,-144 556.39,-126.5 580.66,-124.71 676.09,-108 687.84,-105.94 700.41,-103.68 712.39,-101.5"/>
<polygon fill="black" stroke="black" points="713.07,-104.94 722.28,-99.7 711.82,-98.05 713.07,-104.94"/>
</g>
<!-- algebra/boolean -->
<g id="node16" class="node">
<title>algebra/boolean</title>
<ellipse fill="none" stroke="black" cx="164.09" cy="-18" rx="85.29" ry="18"/>
<text text-anchor="middle" x="164.09" y="-14.3" font-family="Times,serif" font-size="14.00">algebra/boolean</text>
</g>
<!-- algebra/ring&#45;&gt;algebra/boolean -->
<g id="edge17" class="edge">
<title>algebra/ring&#45;&gt;algebra/boolean</title>
<path fill="none" stroke="black" d="M164.09,-71.7C164.09,-63.98 164.09,-54.71 164.09,-46.11"/>
<polygon fill="black" stroke="black" points="167.59,-46.1 164.09,-36.1 160.59,-46.1 167.59,-46.1"/>
</g>
<!-- algebra/homology -->
<g id="node22" class="node">
<title>algebra/homology</title>
<ellipse fill="none" stroke="black" cx="769.09" cy="-18" rx="93.68" ry="18"/>
<text text-anchor="middle" x="769.09" y="-14.3" font-family="Times,serif" font-size="14.00">algebra/homology</text>
</g>
<!-- algebra/Z&#45;&gt;algebra/homology -->
<g id="edge18" class="edge">
<title>algebra/Z&#45;&gt;algebra/homology</title>
<path fill="none" stroke="black" d="M769.09,-71.7C769.09,-63.98 769.09,-54.71 769.09,-46.11"/>
<polygon fill="black" stroke="black" points="772.59,-46.1 769.09,-36.1 765.59,-46.1 772.59,-46.1"/>
</g>
<!-- types/category -->
<g id="node23" class="node">
<title>types/category</title>
<ellipse fill="none" stroke="black" cx="1481.09" cy="-234" rx="79.09" ry="18"/>
<text text-anchor="middle" x="1481.09" y="-230.3" font-family="Times,serif" font-size="14.00">types/category</text>
</g>
<!-- types/coproduct&#45;&gt;structures -->
<g id="edge19" class="edge">
<title>types/coproduct&#45;&gt;structures</title>
<path fill="none" stroke="black" d="M769.53,-648.15C795.64,-622.93 844.99,-575.26 874.67,-546.59"/>
<polygon fill="black" stroke="black" points="877.37,-548.85 882.13,-539.39 872.51,-543.82 877.37,-548.85"/>
</g>
<!-- types/ens -->
<g id="node25" class="node">
<title>types/ens</title>
<ellipse fill="none" stroke="black" cx="1063.09" cy="-306" rx="55.49" ry="18"/>
<text text-anchor="middle" x="1063.09" y="-302.3" font-family="Times,serif" font-size="14.00">types/ens</text>
</g>
<!-- types/ens&#45;&gt;algebra/basic -->
<g id="edge21" class="edge">
<title>types/ens&#45;&gt;algebra/basic</title>
<path fill="none" stroke="black" d="M1018.96,-294.97C965.97,-282.93 876.77,-262.65 816.93,-249.05"/>
<polygon fill="black" stroke="black" points="817.38,-245.57 806.85,-246.76 815.83,-252.39 817.38,-245.57"/>
</g>
<!-- types/setquot -->
<g id="node26" class="node">
<title>types/setquot</title>
<ellipse fill="none" stroke="black" cx="1063.09" cy="-234" rx="74.19" ry="18"/>
<text text-anchor="middle" x="1063.09" y="-230.3" font-family="Times,serif" font-size="14.00">types/setquot</text>
</g>
<!-- types/ens&#45;&gt;types/setquot -->
<g id="edge22" class="edge">
<title>types/ens&#45;&gt;types/setquot</title>
<path fill="none" stroke="black" d="M1063.09,-287.7C1063.09,-279.98 1063.09,-270.71 1063.09,-262.11"/>
<polygon fill="black" stroke="black" points="1066.59,-262.1 1063.09,-252.1 1059.59,-262.1 1066.59,-262.1"/>
</g>
<!-- HITs/graph -->
<g id="node32" class="node">
<title>HITs/graph</title>
<ellipse fill="none" stroke="black" cx="447.09" cy="-594" rx="62.29" ry="18"/>
<text text-anchor="middle" x="447.09" y="-590.3" font-family="Times,serif" font-size="14.00">HITs/graph</text>
</g>
<!-- types/heq&#45;&gt;HITs/graph -->
<g id="edge29" class="edge">
<title>types/heq&#45;&gt;HITs/graph</title>
<path fill="none" stroke="black" d="M500.42,-721.34C488.43,-711.88 474.49,-698.81 466.09,-684 455.34,-665.05 450.66,-640.68 448.63,-622.24"/>
<polygon fill="black" stroke="black" points="452.1,-621.79 447.71,-612.15 445.13,-622.42 452.1,-621.79"/>
</g>
<!-- theorems/funext -->
<g id="node33" class="node">
<title>theorems/funext</title>
<ellipse fill="none" stroke="black" cx="562.09" cy="-666" rx="87.18" ry="18"/>
<text text-anchor="middle" x="562.09" y="-662.3" font-family="Times,serif" font-size="14.00">theorems/funext</text>
</g>
<!-- types/heq&#45;&gt;theorems/funext -->
<g id="edge30" class="edge">
<title>types/heq&#45;&gt;theorems/funext</title>
<path fill="none" stroke="black" d="M532.53,-720.05C537.02,-712.01 542.48,-702.2 547.48,-693.23"/>
<polygon fill="black" stroke="black" points="550.66,-694.71 552.47,-684.28 544.54,-691.31 550.66,-694.71"/>
</g>
<!-- types/unit&#45;&gt;structures -->
<g id="edge37" class="edge">
<title>types/unit&#45;&gt;structures</title>
<path fill="none" stroke="black" d="M965.92,-576.76C954.39,-567.49 939.75,-555.71 927.12,-545.55"/>
<polygon fill="black" stroke="black" points="929.15,-542.69 919.16,-539.15 924.76,-548.14 929.15,-542.69"/>
</g>
<!-- HITs/suspension -->
<g id="node39" class="node">
<title>HITs/suspension</title>
<ellipse fill="none" stroke="black" cx="950.09" cy="-450" rx="87.18" ry="18"/>
<text text-anchor="middle" x="950.09" y="-446.3" font-family="Times,serif" font-size="14.00">HITs/suspension</text>
</g>
<!-- types/unit&#45;&gt;HITs/suspension -->
<g id="edge38" class="edge">
<title>types/unit&#45;&gt;HITs/suspension</title>
<path fill="none" stroke="black" d="M982.95,-575.82C979.54,-557.8 973.68,-528.73 967.09,-504 964.79,-495.37 961.94,-486.06 959.23,-477.69"/>
<polygon fill="black" stroke="black" points="962.51,-476.45 956.04,-468.06 955.86,-478.65 962.51,-476.45"/>
</g>
<!-- types/sigma&#45;&gt;structures -->
<g id="edge36" class="edge">
<title>types/sigma&#45;&gt;structures</title>
<path fill="none" stroke="black" d="M919.32,-647.87C915.4,-623.67 908.2,-579.21 903.53,-550.39"/>
<polygon fill="black" stroke="black" points="906.93,-549.5 901.88,-540.19 900.02,-550.62 906.93,-549.5"/>
</g>
<!-- HITs/colimit -->
<g id="node43" class="node">
<title>HITs/colimit</title>
<ellipse fill="none" stroke="black" cx="591.09" cy="-522" rx="66.89" ry="18"/>
<text text-anchor="middle" x="591.09" y="-518.3" font-family="Times,serif" font-size="14.00">HITs/colimit</text>
</g>
<!-- HITs/graph&#45;&gt;HITs/colimit -->
<g id="edge46" class="edge">
<title>HITs/graph&#45;&gt;HITs/colimit</title>
<path fill="none" stroke="black" d="M477.63,-578.15C498.97,-567.78 527.66,-553.83 550.86,-542.56"/>
<polygon fill="black" stroke="black" points="552.64,-545.58 560.1,-538.07 549.58,-539.29 552.64,-545.58"/>
</g>
<!-- HITs/generalized -->
<g id="node44" class="node">
<title>HITs/generalized</title>
<ellipse fill="none" stroke="black" cx="417.09" cy="-522" rx="89.08" ry="18"/>
<text text-anchor="middle" x="417.09" y="-518.3" font-family="Times,serif" font-size="14.00">HITs/generalized</text>
</g>
<!-- HITs/graph&#45;&gt;HITs/generalized -->
<g id="edge47" class="edge">
<title>HITs/graph&#45;&gt;HITs/generalized</title>
<path fill="none" stroke="black" d="M439.83,-576.05C436.42,-568.09 432.27,-558.41 428.45,-549.51"/>
<polygon fill="black" stroke="black" points="431.65,-548.09 424.5,-540.28 425.22,-550.85 431.65,-548.09"/>
</g>
<!-- HITs/pushout -->
<g id="node45" class="node">
<title>HITs/pushout</title>
<ellipse fill="none" stroke="black" cx="749.09" cy="-522" rx="72.59" ry="18"/>
<text text-anchor="middle" x="749.09" y="-518.3" font-family="Times,serif" font-size="14.00">HITs/pushout</text>
</g>
<!-- HITs/graph&#45;&gt;HITs/pushout -->
<g id="edge48" class="edge">
<title>HITs/graph&#45;&gt;HITs/pushout</title>
<path fill="none" stroke="black" d="M494.28,-582.06C546.47,-569.97 630.74,-550.43 687.95,-537.17"/>
<polygon fill="black" stroke="black" points="689,-540.52 697.95,-534.85 687.42,-533.7 689,-540.52"/>
</g>
<!-- HITs/graph&#45;&gt;HITs/quotient -->
<g id="edge49" class="edge">
<title>HITs/graph&#45;&gt;HITs/quotient</title>
<path fill="none" stroke="black" d="M389.92,-586.72C315.29,-575.59 185.02,-545.72 107.09,-468 90.38,-451.33 82.04,-425.45 77.93,-405.88"/>
<polygon fill="black" stroke="black" points="81.37,-405.23 76.1,-396.04 74.49,-406.51 81.37,-405.23"/>
</g>
<!-- types/product -->
<g id="node38" class="node">
<title>types/product</title>
<ellipse fill="none" stroke="black" cx="626.09" cy="-594" rx="75.29" ry="18"/>
<text text-anchor="middle" x="626.09" y="-590.3" font-family="Times,serif" font-size="14.00">types/product</text>
</g>
<!-- theorems/funext&#45;&gt;types/product -->
<g id="edge72" class="edge">
<title>theorems/funext&#45;&gt;types/product</title>
<path fill="none" stroke="black" d="M577.59,-648.05C585.45,-639.46 595.14,-628.86 603.79,-619.4"/>
<polygon fill="black" stroke="black" points="606.58,-621.53 610.74,-611.79 601.41,-616.81 606.58,-621.53"/>
</g>
<!-- types/integer -->
<g id="node34" class="node">
<title>types/integer</title>
<ellipse fill="none" stroke="black" cx="727.09" cy="-306" rx="72.59" ry="18"/>
<text text-anchor="middle" x="727.09" y="-302.3" font-family="Times,serif" font-size="14.00">types/integer</text>
</g>
<!-- types/integer&#45;&gt;algebra/group -->
<g id="edge31" class="edge">
<title>types/integer&#45;&gt;algebra/group</title>
<path fill="none" stroke="black" d="M654.79,-303.81C596.77,-299.96 515.06,-287.84 453.09,-252 426.75,-236.76 404.99,-209.13 391.4,-188.68"/>
<polygon fill="black" stroke="black" points="394.27,-186.66 385.92,-180.13 388.38,-190.44 394.27,-186.66"/>
</g>
<!-- HITs/circle -->
<g id="node35" class="node">
<title>HITs/circle</title>
<ellipse fill="none" stroke="black" cx="906.09" cy="-234" rx="60.39" ry="18"/>
<text text-anchor="middle" x="906.09" y="-230.3" font-family="Times,serif" font-size="14.00">HITs/circle</text>
</g>
<!-- types/integer&#45;&gt;HITs/circle -->
<g id="edge32" class="edge">
<title>types/integer&#45;&gt;HITs/circle</title>
<path fill="none" stroke="black" d="M764.18,-290.5C792.46,-279.44 831.51,-264.17 861.49,-252.44"/>
<polygon fill="black" stroke="black" points="862.84,-255.67 870.88,-248.77 860.29,-249.15 862.84,-255.67"/>
</g>
<!-- HITs/circle&#45;&gt;algebra/Z -->
<g id="edge39" class="edge">
<title>HITs/circle&#45;&gt;algebra/Z</title>
<path fill="none" stroke="black" d="M873.11,-218.75C854.92,-209.66 832.9,-196.49 817.09,-180 799.82,-161.98 786.92,-136.51 778.87,-117.44"/>
<polygon fill="black" stroke="black" points="782.1,-116.08 775.11,-108.12 775.61,-118.7 782.1,-116.08"/>
</g>
<!-- theorems/hopf -->
<g id="node40" class="node">
<title>theorems/hopf</title>
<ellipse fill="none" stroke="black" cx="1266.09" cy="-162" rx="77.99" ry="18"/>
<text text-anchor="middle" x="1266.09" y="-158.3" font-family="Times,serif" font-size="14.00">theorems/hopf</text>
</g>
<!-- HITs/circle&#45;&gt;theorems/hopf -->
<g id="edge40" class="edge">
<title>HITs/circle&#45;&gt;theorems/hopf</title>
<path fill="none" stroke="black" d="M951.81,-222.14C961.15,-220.03 970.93,-217.88 980.09,-216 1068.14,-197.93 1090.76,-196.62 1179.09,-180 1185.6,-178.78 1192.37,-177.48 1199.14,-176.18"/>
<polygon fill="black" stroke="black" points="1199.87,-179.61 1209.02,-174.27 1198.54,-172.73 1199.87,-179.61"/>
</g>
<!-- HITs/moebius -->
<g id="node41" class="node">
<title>HITs/moebius</title>
<ellipse fill="none" stroke="black" cx="900.09" cy="-162" rx="74.19" ry="18"/>
<text text-anchor="middle" x="900.09" y="-158.3" font-family="Times,serif" font-size="14.00">HITs/moebius</text>
</g>
<!-- HITs/circle&#45;&gt;HITs/moebius -->
<g id="edge41" class="edge">
<title>HITs/circle&#45;&gt;HITs/moebius</title>
<path fill="none" stroke="black" d="M904.61,-215.7C903.95,-207.98 903.15,-198.71 902.42,-190.11"/>
<polygon fill="black" stroke="black" points="905.9,-189.77 901.56,-180.1 898.93,-190.37 905.9,-189.77"/>
</g>
<!-- HITs/reals -->
<g id="node42" class="node">
<title>HITs/reals</title>
<ellipse fill="none" stroke="black" cx="712.09" cy="-162" rx="57.69" ry="18"/>
<text text-anchor="middle" x="712.09" y="-158.3" font-family="Times,serif" font-size="14.00">HITs/reals</text>
</g>
<!-- HITs/circle&#45;&gt;HITs/reals -->
<g id="edge42" class="edge">
<title>HITs/circle&#45;&gt;HITs/reals</title>
<path fill="none" stroke="black" d="M869.15,-219.67C837.63,-208.3 792.16,-191.89 758.25,-179.66"/>
<polygon fill="black" stroke="black" points="759.17,-176.26 748.57,-176.16 756.79,-182.85 759.17,-176.26"/>
</g>
<!-- theorems/nat&#45;&gt;types/integer -->
<g id="edge73" class="edge">
<title>theorems/nat&#45;&gt;types/integer</title>
<path fill="none" stroke="black" d="M821.71,-361.29C804.57,-351.45 782.27,-338.66 763.62,-327.96"/>
<polygon fill="black" stroke="black" points="765.22,-324.84 754.8,-322.9 761.74,-330.91 765.22,-324.84"/>
</g>
<!-- HITs/int -->
<g id="node60" class="node">
<title>HITs/int</title>
<ellipse fill="none" stroke="black" cx="866.09" cy="-306" rx="48.19" ry="18"/>
<text text-anchor="middle" x="866.09" y="-302.3" font-family="Times,serif" font-size="14.00">HITs/int</text>
</g>
<!-- theorems/nat&#45;&gt;HITs/int -->
<g id="edge74" class="edge">
<title>theorems/nat&#45;&gt;HITs/int</title>
<path fill="none" stroke="black" d="M853.3,-359.7C855.19,-351.9 857.47,-342.51 859.58,-333.83"/>
<polygon fill="black" stroke="black" points="862.98,-334.65 861.94,-324.1 856.18,-333 862.98,-334.65"/>
</g>
<!-- types/precategory -->
<g id="node37" class="node">
<title>types/precategory</title>
<ellipse fill="none" stroke="black" cx="1481.09" cy="-306" rx="94.78" ry="18"/>
<text text-anchor="middle" x="1481.09" y="-302.3" font-family="Times,serif" font-size="14.00">types/precategory</text>
</g>
<!-- types/precategory&#45;&gt;types/category -->
<g id="edge34" class="edge">
<title>types/precategory&#45;&gt;types/category</title>
<path fill="none" stroke="black" d="M1481.09,-287.7C1481.09,-279.98 1481.09,-270.71 1481.09,-262.11"/>
<polygon fill="black" stroke="black" points="1484.59,-262.1 1481.09,-252.1 1477.59,-262.1 1484.59,-262.1"/>
</g>
<!-- types/product&#45;&gt;structures -->
<g id="edge35" class="edge">
<title>types/product&#45;&gt;structures</title>
<path fill="none" stroke="black" d="M675.53,-580.32C723.54,-568.01 796.22,-549.38 845.58,-536.72"/>
<polygon fill="black" stroke="black" points="846.61,-540.07 855.43,-534.2 844.87,-533.29 846.61,-540.07"/>
</g>
<!-- HITs/suspension&#45;&gt;HITs/circle -->
<g id="edge59" class="edge">
<title>HITs/suspension&#45;&gt;HITs/circle</title>
<path fill="none" stroke="black" d="M948.05,-431.92C944.34,-402.33 935.67,-339.78 923.09,-288 920.99,-279.32 918.18,-270 915.46,-261.63"/>
<polygon fill="black" stroke="black" points="918.73,-260.38 912.24,-252.01 912.1,-262.6 918.73,-260.38"/>
</g>
<!-- HITs/join -->
<g id="node50" class="node">
<title>HITs/join</title>
<ellipse fill="none" stroke="black" cx="706.09" cy="-378" rx="51.99" ry="18"/>
<text text-anchor="middle" x="706.09" y="-374.3" font-family="Times,serif" font-size="14.00">HITs/join</text>
</g>
<!-- HITs/suspension&#45;&gt;HITs/join -->
<g id="edge60" class="edge">
<title>HITs/suspension&#45;&gt;HITs/join</title>
<path fill="none" stroke="black" d="M901.3,-435C858.69,-422.78 797.16,-405.12 754.62,-392.92"/>
<polygon fill="black" stroke="black" points="755.35,-389.49 744.77,-390.1 753.42,-396.22 755.35,-389.49"/>
</g>
<!-- HITs/colimit&#45;&gt;HITs/merely -->
<g id="edge43" class="edge">
<title>HITs/colimit&#45;&gt;HITs/merely</title>
<path fill="none" stroke="black" d="M591.09,-503.7C591.09,-495.98 591.09,-486.71 591.09,-478.11"/>
<polygon fill="black" stroke="black" points="594.59,-478.1 591.09,-468.1 587.59,-478.1 594.59,-478.1"/>
</g>
<!-- HITs/colimit&#45;&gt;types/nat -->
<g id="edge44" class="edge">
<title>HITs/colimit&#45;&gt;types/nat</title>
<path fill="none" stroke="black" d="M630.13,-507.34C663.28,-495.74 710.88,-479.08 745.71,-466.88"/>
<polygon fill="black" stroke="black" points="746.9,-470.18 755.18,-463.57 744.58,-463.57 746.9,-470.18"/>
</g>
<!-- HITs/generalized&#45;&gt;HITs/merely -->
<g id="edge45" class="edge">
<title>HITs/generalized&#45;&gt;HITs/merely</title>
<path fill="none" stroke="black" d="M455.28,-505.64C481.95,-494.91 517.66,-480.54 545.77,-469.23"/>
<polygon fill="black" stroke="black" points="547.4,-472.35 555.37,-465.37 544.79,-465.86 547.4,-472.35"/>
</g>
<!-- HITs/pushout&#45;&gt;HITs/suspension -->
<g id="edge57" class="edge">
<title>HITs/pushout&#45;&gt;HITs/suspension</title>
<path fill="none" stroke="black" d="M789.77,-506.83C820.99,-495.96 864.31,-480.87 898.05,-469.12"/>
<polygon fill="black" stroke="black" points="899.45,-472.34 907.75,-465.75 897.15,-465.73 899.45,-472.34"/>
</g>
<!-- HITs/quotient&#45;&gt;algebra/group -->
<g id="edge58" class="edge">
<title>HITs/quotient&#45;&gt;algebra/group</title>
<path fill="none" stroke="black" d="M78.47,-359.88C87.85,-326.73 113.15,-253.73 162.09,-216 199.14,-187.45 249.58,-174.07 292.19,-167.9"/>
<polygon fill="black" stroke="black" points="292.83,-171.35 302.27,-166.55 291.9,-164.41 292.83,-171.35"/>
</g>
<!-- cubical/path -->
<g id="node55" class="node">
<title>cubical/path</title>
<ellipse fill="none" stroke="black" cx="1972.09" cy="-306" rx="67.69" ry="18"/>
<text text-anchor="middle" x="1972.09" y="-302.3" font-family="Times,serif" font-size="14.00">cubical/path</text>
</g>
<!-- cubical/cubes&#45;&gt;cubical/path -->
<g id="edge63" class="edge">
<title>cubical/cubes&#45;&gt;cubical/path</title>
<path fill="none" stroke="black" d="M1969.83,-359.7C1970.17,-351.98 1970.56,-342.71 1970.93,-334.11"/>
<polygon fill="black" stroke="black" points="1974.43,-334.25 1971.36,-324.1 1967.44,-333.95 1974.43,-334.25"/>
</g>
<!-- theorems/prop&#45;&gt;algebra/eilenberg_maclane -->
<g id="edge75" class="edge">
<title>theorems/prop&#45;&gt;algebra/eilenberg_maclane</title>
<path fill="none" stroke="black" d="M1268.78,-366.79C1294.58,-359.3 1322.3,-346.36 1339.09,-324 1387.29,-259.84 1401.06,-208.33 1353.09,-144 1341.59,-128.57 1302.1,-116.01 1263.24,-106.99"/>
<polygon fill="black" stroke="black" points="1263.91,-103.55 1253.39,-104.77 1262.38,-110.38 1263.91,-103.55"/>
</g>
<!-- theorems/prop&#45;&gt;types/ens -->
<g id="edge76" class="edge">
<title>theorems/prop&#45;&gt;types/ens</title>
<path fill="none" stroke="black" d="M1174.36,-361.46C1152.81,-350.92 1124.19,-336.91 1101.37,-325.74"/>
<polygon fill="black" stroke="black" points="1102.83,-322.55 1092.31,-321.3 1099.75,-328.84 1102.83,-322.55"/>
</g>
<!-- theorems/prop&#45;&gt;HITs/circle -->
<g id="edge77" class="edge">
<title>theorems/prop&#45;&gt;HITs/circle</title>
<path fill="none" stroke="black" d="M1138.05,-368.56C1096,-361.23 1042.06,-347.87 999.09,-324 983.38,-315.27 950.71,-282.39 928.59,-259.14"/>
<polygon fill="black" stroke="black" points="930.94,-256.54 921.53,-251.68 925.85,-261.35 930.94,-256.54"/>
</g>
<!-- theorems/prop&#45;&gt;types/precategory -->
<g id="edge78" class="edge">
<title>theorems/prop&#45;&gt;types/precategory</title>
<path fill="none" stroke="black" d="M1256.85,-364.08C1302.01,-352.59 1368.26,-335.72 1417.04,-323.3"/>
<polygon fill="black" stroke="black" points="1418.04,-326.66 1426.87,-320.8 1416.31,-319.88 1418.04,-326.66"/>
</g>
<!-- theorems/classical -->
<g id="node59" class="node">
<title>theorems/classical</title>
<ellipse fill="none" stroke="black" cx="1233.09" cy="-306" rx="96.68" ry="18"/>
<text text-anchor="middle" x="1233.09" y="-302.3" font-family="Times,serif" font-size="14.00">theorems/classical</text>
</g>
<!-- theorems/prop&#45;&gt;theorems/classical -->
<g id="edge79" class="edge">
<title>theorems/prop&#45;&gt;theorems/classical</title>
<path fill="none" stroke="black" d="M1212.63,-360.05C1215.67,-352.18 1219.36,-342.62 1222.76,-333.79"/>
<polygon fill="black" stroke="black" points="1226.1,-334.86 1226.43,-324.28 1219.57,-332.35 1226.1,-334.86"/>
</g>
<!-- theorems/fibration&#45;&gt;theorems/hopf -->
<g id="edge69" class="edge">
<title>theorems/fibration&#45;&gt;theorems/hopf</title>
<path fill="none" stroke="black" d="M1673.71,-288.24C1651.4,-267.75 1610.6,-233.63 1569.09,-216 1499.49,-186.43 1414.17,-173.36 1351.82,-167.58"/>
<polygon fill="black" stroke="black" points="1351.9,-164.07 1341.63,-166.68 1351.28,-171.04 1351.9,-164.07"/>
</g>
<!-- theorems/functions&#45;&gt;algebra/group -->
<g id="edge70" class="edge">
<title>theorems/functions&#45;&gt;algebra/group</title>
<path fill="none" stroke="black" d="M521.59,-217.46C492.85,-206.71 454.5,-192.35 424.39,-181.08"/>
<polygon fill="black" stroke="black" points="425.52,-177.76 414.93,-177.54 423.06,-184.32 425.52,-177.76"/>
</g>
<!-- theorems/functions&#45;&gt;HITs/reals -->
<g id="edge71" class="edge">
<title>theorems/functions&#45;&gt;HITs/reals</title>
<path fill="none" stroke="black" d="M597.28,-216.94C619.63,-206.44 648.91,-192.68 672.31,-181.69"/>
<polygon fill="black" stroke="black" points="674.05,-184.74 681.61,-177.32 671.07,-178.41 674.05,-184.74"/>
</g>
<!-- cubical/connection -->
<g id="node54" class="node">
<title>cubical/connection</title>
<ellipse fill="none" stroke="black" cx="1979.09" cy="-234" rx="96.68" ry="18"/>
<text text-anchor="middle" x="1979.09" y="-230.3" font-family="Times,serif" font-size="14.00">cubical/connection</text>
</g>
<!-- cubical/path&#45;&gt;cubical/connection -->
<g id="edge64" class="edge">
<title>cubical/path&#45;&gt;cubical/connection</title>
<path fill="none" stroke="black" d="M1973.82,-287.7C1974.6,-279.98 1975.52,-270.71 1976.38,-262.11"/>
<polygon fill="black" stroke="black" points="1979.87,-262.4 1977.38,-252.1 1972.91,-261.71 1979.87,-262.4"/>
</g>
<!-- cubical/square -->
<g id="node57" class="node">
<title>cubical/square</title>
<ellipse fill="none" stroke="black" cx="2172.09" cy="-234" rx="77.99" ry="18"/>
<text text-anchor="middle" x="2172.09" y="-230.3" font-family="Times,serif" font-size="14.00">cubical/square</text>
</g>
<!-- cubical/path&#45;&gt;cubical/square -->
<g id="edge65" class="edge">
<title>cubical/path&#45;&gt;cubical/square</title>
<path fill="none" stroke="black" d="M2011.61,-291.17C2043,-280.18 2087.14,-264.73 2121.18,-252.82"/>
<polygon fill="black" stroke="black" points="2122.66,-256.01 2130.94,-249.4 2120.35,-249.4 2122.66,-256.01"/>
</g>
<!-- cubical/path&#45;&gt;cubical/V -->
<g id="edge66" class="edge">
<title>cubical/path&#45;&gt;cubical/V</title>
<path fill="none" stroke="black" d="M1938.55,-290.33C1913.5,-279.36 1879.14,-264.33 1852.56,-252.7"/>
<polygon fill="black" stroke="black" points="1853.71,-249.39 1843.15,-248.59 1850.91,-255.8 1853.71,-249.39"/>
</g>
<!-- cubical/example -->
<g id="node56" class="node">
<title>cubical/example</title>
<ellipse fill="none" stroke="black" cx="1812.09" cy="-162" rx="85.29" ry="18"/>
<text text-anchor="middle" x="1812.09" y="-158.3" font-family="Times,serif" font-size="14.00">cubical/example</text>
</g>
<!-- cubical/V&#45;&gt;cubical/example -->
<g id="edge67" class="edge">
<title>cubical/V&#45;&gt;cubical/example</title>
<path fill="none" stroke="black" d="M1812.09,-215.7C1812.09,-207.98 1812.09,-198.71 1812.09,-190.11"/>
<polygon fill="black" stroke="black" points="1815.59,-190.1 1812.09,-180.1 1808.59,-190.1 1815.59,-190.1"/>
</g>
<!-- theorems/classical&#45;&gt;algebra/category -->
<g id="edge68" class="edge">
<title>theorems/classical&#45;&gt;algebra/category</title>
<path fill="none" stroke="black" d="M1217.6,-288.04C1200.6,-269.71 1172.25,-239.9 1146.09,-216 1134.85,-205.72 1121.94,-195 1110.61,-185.9"/>
<polygon fill="black" stroke="black" points="1112.68,-183.08 1102.68,-179.6 1108.33,-188.56 1112.68,-183.08"/>
</g>
</g>
</svg>
