<?xml version="1.0" encoding="UTF-8" standalone="no"?>
<!DOCTYPE svg PUBLIC "-//W3C//DTD SVG 1.1//EN"
 "http://www.w3.org/Graphics/SVG/1.1/DTD/svg11.dtd">
<!-- Generated by graphviz version 2.40.1 (20161225.0304)
 -->
<!-- Title: dependency_map Pages: 1 -->
<svg width="1212pt" height="908pt"
 viewBox="0.00 0.00 1212.29 908.00" xmlns="http://www.w3.org/2000/svg" xmlns:xlink="http://www.w3.org/1999/xlink">
<g id="graph0" class="graph" transform="scale(1 1) rotate(0) translate(4 904)">
<title>dependency_map</title>
<polygon fill="#ffffff" stroke="transparent" points="-4,4 -4,-904 1208.2872,-904 1208.2872,4 -4,4"/>
<!-- proto -->
<g id="node1" class="node">
<title>proto</title>
<ellipse fill="none" stroke="#000000" cx="693.8939" cy="-882" rx="29.4969" ry="18"/>
<text text-anchor="middle" x="693.8939" y="-878.3" font-family="Times,serif" font-size="14.00" fill="#000000">proto</text>
</g>
<!-- types/eq -->
<g id="node2" class="node">
<title>types/eq</title>
<ellipse fill="none" stroke="#000000" cx="752.8939" cy="-810" rx="40.0939" ry="18"/>
<text text-anchor="middle" x="752.8939" y="-806.3" font-family="Times,serif" font-size="14.00" fill="#000000">types/eq</text>
</g>
<!-- proto&#45;&gt;types/eq -->
<g id="edge1" class="edge">
<title>proto&#45;&gt;types/eq</title>
<path fill="none" stroke="#000000" d="M707.2819,-865.6621C714.7399,-856.5608 724.1798,-845.041 732.5343,-834.8456"/>
<polygon fill="#000000" stroke="#000000" points="735.3122,-836.9777 738.9432,-827.0245 729.8978,-832.5409 735.3122,-836.9777"/>
</g>
<!-- support -->
<g id="node4" class="node">
<title>support</title>
<ellipse fill="none" stroke="#000000" cx="752.8939" cy="-738" rx="37.0935" ry="18"/>
<text text-anchor="middle" x="752.8939" y="-734.3" font-family="Times,serif" font-size="14.00" fill="#000000">support</text>
</g>
<!-- types/eq&#45;&gt;support -->
<g id="edge12" class="edge">
<title>types/eq&#45;&gt;support</title>
<path fill="none" stroke="#000000" d="M752.8939,-791.8314C752.8939,-784.131 752.8939,-774.9743 752.8939,-766.4166"/>
<polygon fill="#000000" stroke="#000000" points="756.394,-766.4132 752.8939,-756.4133 749.394,-766.4133 756.394,-766.4132"/>
</g>
<!-- meta/hott_theory -->
<g id="node3" class="node">
<title>meta/hott_theory</title>
<ellipse fill="none" stroke="#000000" cx="812.8939" cy="-882" rx="71.4873" ry="18"/>
<text text-anchor="middle" x="812.8939" y="-878.3" font-family="Times,serif" font-size="14.00" fill="#000000">meta/hott_theory</text>
</g>
<!-- meta/hott_theory&#45;&gt;types/eq -->
<g id="edge2" class="edge">
<title>meta/hott_theory&#45;&gt;types/eq</title>
<path fill="none" stroke="#000000" d="M798.0624,-864.2022C790.6881,-855.3531 781.6545,-844.5127 773.6091,-834.8583"/>
<polygon fill="#000000" stroke="#000000" points="776.2322,-832.5388 767.1416,-827.0972 770.8547,-837.0201 776.2322,-832.5388"/>
</g>
<!-- types/equiv -->
<g id="node5" class="node">
<title>types/equiv</title>
<ellipse fill="none" stroke="#000000" cx="752.8939" cy="-666" rx="51.1914" ry="18"/>
<text text-anchor="middle" x="752.8939" y="-662.3" font-family="Times,serif" font-size="14.00" fill="#000000">types/equiv</text>
</g>
<!-- support&#45;&gt;types/equiv -->
<g id="edge3" class="edge">
<title>support&#45;&gt;types/equiv</title>
<path fill="none" stroke="#000000" d="M752.8939,-719.8314C752.8939,-712.131 752.8939,-702.9743 752.8939,-694.4166"/>
<polygon fill="#000000" stroke="#000000" points="756.394,-694.4132 752.8939,-684.4133 749.394,-694.4133 756.394,-694.4132"/>
</g>
<!-- types/coproduct -->
<g id="node16" class="node">
<title>types/coproduct</title>
<ellipse fill="none" stroke="#000000" cx="539.8939" cy="-522" rx="66.8882" ry="18"/>
<text text-anchor="middle" x="539.8939" y="-518.3" font-family="Times,serif" font-size="14.00" fill="#000000">types/coproduct</text>
</g>
<!-- types/equiv&#45;&gt;types/coproduct -->
<g id="edge13" class="edge">
<title>types/equiv&#45;&gt;types/coproduct</title>
<path fill="none" stroke="#000000" d="M726.054,-650.4964C708.203,-639.9954 684.3643,-625.6055 663.8939,-612 631.3938,-590.3991 595.4215,-563.9997 570.6294,-545.3951"/>
<polygon fill="#000000" stroke="#000000" points="572.4441,-542.3802 562.3504,-539.1601 568.233,-547.9719 572.4441,-542.3802"/>
</g>
<!-- types/heq -->
<g id="node17" class="node">
<title>types/heq</title>
<ellipse fill="none" stroke="#000000" cx="716.8939" cy="-594" rx="44.393" ry="18"/>
<text text-anchor="middle" x="716.8939" y="-590.3" font-family="Times,serif" font-size="14.00" fill="#000000">types/heq</text>
</g>
<!-- types/equiv&#45;&gt;types/heq -->
<g id="edge14" class="edge">
<title>types/equiv&#45;&gt;types/heq</title>
<path fill="none" stroke="#000000" d="M743.995,-648.2022C739.8844,-639.981 734.9144,-630.041 730.359,-620.9301"/>
<polygon fill="#000000" stroke="#000000" points="733.4178,-619.2216 725.8152,-611.8425 727.1569,-622.3521 733.4178,-619.2216"/>
</g>
<!-- HITs/infinitesimal -->
<g id="node18" class="node">
<title>HITs/infinitesimal</title>
<ellipse fill="none" stroke="#000000" cx="892.8939" cy="-594" rx="76.0865" ry="18"/>
<text text-anchor="middle" x="892.8939" y="-590.3" font-family="Times,serif" font-size="14.00" fill="#000000">HITs/infinitesimal</text>
</g>
<!-- types/equiv&#45;&gt;HITs/infinitesimal -->
<g id="edge15" class="edge">
<title>types/equiv&#45;&gt;HITs/infinitesimal</title>
<path fill="none" stroke="#000000" d="M781.902,-651.0816C802.1751,-640.6554 829.5311,-626.5866 852.0114,-615.0253"/>
<polygon fill="#000000" stroke="#000000" points="853.7022,-618.0915 860.9944,-610.4055 850.5007,-611.8665 853.7022,-618.0915"/>
</g>
<!-- types/lost -->
<g id="node19" class="node">
<title>types/lost</title>
<ellipse fill="none" stroke="#000000" cx="1030.8939" cy="-594" rx="44.393" ry="18"/>
<text text-anchor="middle" x="1030.8939" y="-590.3" font-family="Times,serif" font-size="14.00" fill="#000000">types/lost</text>
</g>
<!-- types/equiv&#45;&gt;types/lost -->
<g id="edge16" class="edge">
<title>types/equiv&#45;&gt;types/lost</title>
<path fill="none" stroke="#000000" d="M797.1835,-656.6321C842.7881,-646.6918 915.7626,-629.9652 977.8939,-612 981.0678,-611.0823 984.3336,-610.0908 987.6108,-609.0613"/>
<polygon fill="#000000" stroke="#000000" points="988.9594,-612.3037 997.3962,-605.895 986.8043,-605.6437 988.9594,-612.3037"/>
</g>
<!-- types/unit -->
<g id="node20" class="node">
<title>types/unit</title>
<ellipse fill="none" stroke="#000000" cx="777.8939" cy="-450" rx="45.4919" ry="18"/>
<text text-anchor="middle" x="777.8939" y="-446.3" font-family="Times,serif" font-size="14.00" fill="#000000">types/unit</text>
</g>
<!-- types/equiv&#45;&gt;types/unit -->
<g id="edge17" class="edge">
<title>types/equiv&#45;&gt;types/unit</title>
<path fill="none" stroke="#000000" d="M759.9046,-647.7978C763.559,-637.4621 767.7113,-624.1902 769.8939,-612 778.1873,-565.6798 779.0622,-510.8028 778.6698,-478.2777"/>
<polygon fill="#000000" stroke="#000000" points="782.1672,-478.0878 778.4971,-468.149 775.1682,-478.2072 782.1672,-478.0878"/>
</g>
<!-- types/sigma -->
<g id="node21" class="node">
<title>types/sigma</title>
<ellipse fill="none" stroke="#000000" cx="401.8939" cy="-522" rx="53.0913" ry="18"/>
<text text-anchor="middle" x="401.8939" y="-518.3" font-family="Times,serif" font-size="14.00" fill="#000000">types/sigma</text>
</g>
<!-- types/equiv&#45;&gt;types/sigma -->
<g id="edge18" class="edge">
<title>types/equiv&#45;&gt;types/sigma</title>
<path fill="none" stroke="#000000" d="M717.3962,-652.8443C688.7928,-642.1383 647.6017,-626.4829 611.8939,-612 553.2404,-588.2105 486.1156,-559.1103 443.8689,-540.5629"/>
<polygon fill="#000000" stroke="#000000" points="445.0281,-537.2493 434.4651,-536.4283 442.2106,-543.6573 445.0281,-537.2493"/>
</g>
<!-- structures -->
<g id="node6" class="node">
<title>structures</title>
<ellipse fill="none" stroke="#000000" cx="539.8939" cy="-378" rx="44.6926" ry="18"/>
<text text-anchor="middle" x="539.8939" y="-374.3" font-family="Times,serif" font-size="14.00" fill="#000000">structures</text>
</g>
<!-- HITs/interval -->
<g id="node7" class="node">
<title>HITs/interval</title>
<ellipse fill="none" stroke="#000000" cx="448.8939" cy="-306" rx="57.6901" ry="18"/>
<text text-anchor="middle" x="448.8939" y="-302.3" font-family="Times,serif" font-size="14.00" fill="#000000">HITs/interval</text>
</g>
<!-- structures&#45;&gt;HITs/interval -->
<g id="edge4" class="edge">
<title>structures&#45;&gt;HITs/interval</title>
<path fill="none" stroke="#000000" d="M519.2446,-361.6621C507.0853,-352.0415 491.5104,-339.7186 478.1075,-329.1141"/>
<polygon fill="#000000" stroke="#000000" points="480.1069,-326.233 470.093,-322.7729 475.7635,-331.7226 480.1069,-326.233"/>
</g>
<!-- HITs/merely -->
<g id="node8" class="node">
<title>HITs/merely</title>
<ellipse fill="none" stroke="#000000" cx="709.8939" cy="-306" rx="55.7903" ry="18"/>
<text text-anchor="middle" x="709.8939" y="-302.3" font-family="Times,serif" font-size="14.00" fill="#000000">HITs/merely</text>
</g>
<!-- structures&#45;&gt;HITs/merely -->
<g id="edge5" class="edge">
<title>structures&#45;&gt;HITs/merely</title>
<path fill="none" stroke="#000000" d="M571.0745,-364.7941C597.8876,-353.438 636.8385,-336.9411 666.661,-324.3104"/>
<polygon fill="#000000" stroke="#000000" points="668.1528,-327.4796 675.996,-320.3568 665.4228,-321.0339 668.1528,-327.4796"/>
</g>
<!-- HITs/trunc -->
<g id="node9" class="node">
<title>HITs/trunc</title>
<ellipse fill="none" stroke="#000000" cx="1040.8939" cy="-306" rx="49.2915" ry="18"/>
<text text-anchor="middle" x="1040.8939" y="-302.3" font-family="Times,serif" font-size="14.00" fill="#000000">HITs/trunc</text>
</g>
<!-- structures&#45;&gt;HITs/trunc -->
<g id="edge6" class="edge">
<title>structures&#45;&gt;HITs/trunc</title>
<path fill="none" stroke="#000000" d="M572.6363,-365.5442C579.2632,-363.4037 586.2406,-361.4162 592.8939,-360 763.15,-323.7604 812.1729,-357.9823 982.8939,-324 986.9654,-323.1896 991.1566,-322.2026 995.3342,-321.1126"/>
<polygon fill="#000000" stroke="#000000" points="996.3038,-324.4758 1004.995,-318.4168 994.4223,-317.7334 996.3038,-324.4758"/>
</g>
<!-- types/nat -->
<g id="node10" class="node">
<title>types/nat</title>
<ellipse fill="none" stroke="#000000" cx="566.8939" cy="-306" rx="42.4939" ry="18"/>
<text text-anchor="middle" x="566.8939" y="-302.3" font-family="Times,serif" font-size="14.00" fill="#000000">types/nat</text>
</g>
<!-- structures&#45;&gt;types/nat -->
<g id="edge7" class="edge">
<title>structures&#45;&gt;types/nat</title>
<path fill="none" stroke="#000000" d="M546.7071,-359.8314C549.7036,-351.8406 553.2882,-342.2819 556.5996,-333.4514"/>
<polygon fill="#000000" stroke="#000000" points="559.9422,-334.5057 560.1764,-323.9134 553.3879,-332.0478 559.9422,-334.5057"/>
</g>
<!-- theorems/ua -->
<g id="node11" class="node">
<title>theorems/ua</title>
<ellipse fill="none" stroke="#000000" cx="318.8939" cy="-306" rx="53.8905" ry="18"/>
<text text-anchor="middle" x="318.8939" y="-302.3" font-family="Times,serif" font-size="14.00" fill="#000000">theorems/ua</text>
</g>
<!-- structures&#45;&gt;theorems/ua -->
<g id="edge8" class="edge">
<title>structures&#45;&gt;theorems/ua</title>
<path fill="none" stroke="#000000" d="M504.8758,-366.5914C467.8048,-354.514 409.0227,-335.3632 367.4799,-321.8289"/>
<polygon fill="#000000" stroke="#000000" points="368.4334,-318.4586 357.841,-318.6887 366.2649,-325.1142 368.4334,-318.4586"/>
</g>
<!-- cubical/cubes -->
<g id="node37" class="node">
<title>cubical/cubes</title>
<ellipse fill="none" stroke="#000000" cx="246.8939" cy="-234" rx="58.4896" ry="18"/>
<text text-anchor="middle" x="246.8939" y="-230.3" font-family="Times,serif" font-size="14.00" fill="#000000">cubical/cubes</text>
</g>
<!-- HITs/interval&#45;&gt;cubical/cubes -->
<g id="edge39" class="edge">
<title>HITs/interval&#45;&gt;cubical/cubes</title>
<path fill="none" stroke="#000000" d="M410.4238,-292.2879C377.5692,-280.5773 330.1609,-263.6793 294.8403,-251.0898"/>
<polygon fill="#000000" stroke="#000000" points="295.8154,-247.7218 285.2208,-247.6611 293.4652,-254.3154 295.8154,-247.7218"/>
</g>
<!-- theorems/prop -->
<g id="node38" class="node">
<title>theorems/prop</title>
<ellipse fill="none" stroke="#000000" cx="617.8939" cy="-234" rx="61.99" ry="18"/>
<text text-anchor="middle" x="617.8939" y="-230.3" font-family="Times,serif" font-size="14.00" fill="#000000">theorems/prop</text>
</g>
<!-- HITs/interval&#45;&gt;theorems/prop -->
<g id="edge40" class="edge">
<title>HITs/interval&#45;&gt;theorems/prop</title>
<path fill="none" stroke="#000000" d="M483.0936,-291.4297C509.1764,-280.3175 545.3125,-264.9223 573.6053,-252.8685"/>
<polygon fill="#000000" stroke="#000000" points="575.0457,-256.0593 582.8738,-248.9198 572.3021,-249.6194 575.0457,-256.0593"/>
</g>
<!-- theorems/fibration -->
<g id="node39" class="node">
<title>theorems/fibration</title>
<ellipse fill="none" stroke="#000000" cx="330.8939" cy="-162" rx="76.0865" ry="18"/>
<text text-anchor="middle" x="330.8939" y="-158.3" font-family="Times,serif" font-size="14.00" fill="#000000">theorems/fibration</text>
</g>
<!-- HITs/interval&#45;&gt;theorems/fibration -->
<g id="edge41" class="edge">
<title>HITs/interval&#45;&gt;theorems/fibration</title>
<path fill="none" stroke="#000000" d="M434.4248,-288.3428C413.8121,-263.1883 375.8625,-216.877 352.0799,-187.8541"/>
<polygon fill="#000000" stroke="#000000" points="354.5268,-185.3181 345.4814,-179.8017 349.1124,-189.7549 354.5268,-185.3181"/>
</g>
<!-- HITs/merely&#45;&gt;theorems/prop -->
<g id="edge42" class="edge">
<title>HITs/merely&#45;&gt;theorems/prop</title>
<path fill="none" stroke="#000000" d="M688.556,-289.3008C676.4236,-279.8058 661.0415,-267.7677 647.7289,-257.3491"/>
<polygon fill="#000000" stroke="#000000" points="649.7871,-254.5155 639.7549,-251.1086 645.4729,-260.028 649.7871,-254.5155"/>
</g>
<!-- HITs/simplicial -->
<g id="node41" class="node">
<title>HITs/simplicial</title>
<ellipse fill="none" stroke="#000000" cx="763.8939" cy="-234" rx="66.0889" ry="18"/>
<text text-anchor="middle" x="763.8939" y="-230.3" font-family="Times,serif" font-size="14.00" fill="#000000">HITs/simplicial</text>
</g>
<!-- HITs/merely&#45;&gt;HITs/simplicial -->
<g id="edge43" class="edge">
<title>HITs/merely&#45;&gt;HITs/simplicial</title>
<path fill="none" stroke="#000000" d="M723.2422,-288.2022C729.6029,-279.7214 737.3352,-269.4115 744.3417,-260.0696"/>
<polygon fill="#000000" stroke="#000000" points="747.3119,-261.9426 750.512,-251.8425 741.7119,-257.7426 747.3119,-261.9426"/>
</g>
<!-- theorems/functions -->
<g id="node42" class="node">
<title>theorems/functions</title>
<ellipse fill="none" stroke="#000000" cx="1010.8939" cy="-162" rx="78.7863" ry="18"/>
<text text-anchor="middle" x="1010.8939" y="-158.3" font-family="Times,serif" font-size="14.00" fill="#000000">theorems/functions</text>
</g>
<!-- HITs/merely&#45;&gt;theorems/functions -->
<g id="edge44" class="edge">
<title>HITs/merely&#45;&gt;theorems/functions</title>
<path fill="none" stroke="#000000" d="M745.5674,-292.0237C771.6686,-281.5669 807.8007,-266.61 838.8939,-252 885.3746,-230.1598 937.463,-202.4316 972.0142,-183.5634"/>
<polygon fill="#000000" stroke="#000000" points="973.7519,-186.6023 980.8403,-178.7279 970.3885,-180.4633 973.7519,-186.6023"/>
</g>
<!-- HITs/quotient -->
<g id="node36" class="node">
<title>HITs/quotient</title>
<ellipse fill="none" stroke="#000000" cx="1117.8939" cy="-234" rx="59.5901" ry="18"/>
<text text-anchor="middle" x="1117.8939" y="-230.3" font-family="Times,serif" font-size="14.00" fill="#000000">HITs/quotient</text>
</g>
<!-- HITs/trunc&#45;&gt;HITs/quotient -->
<g id="edge49" class="edge">
<title>HITs/trunc&#45;&gt;HITs/quotient</title>
<path fill="none" stroke="#000000" d="M1059.1418,-288.937C1068.9473,-279.7682 1081.203,-268.3084 1091.9801,-258.2311"/>
<polygon fill="#000000" stroke="#000000" points="1094.5963,-260.5765 1099.5101,-251.19 1089.8153,-255.4635 1094.5963,-260.5765"/>
</g>
<!-- theorems/nat -->
<g id="node26" class="node">
<title>theorems/nat</title>
<ellipse fill="none" stroke="#000000" cx="473.8939" cy="-234" rx="56.59" ry="18"/>
<text text-anchor="middle" x="473.8939" y="-230.3" font-family="Times,serif" font-size="14.00" fill="#000000">theorems/nat</text>
</g>
<!-- types/nat&#45;&gt;theorems/nat -->
<g id="edge23" class="edge">
<title>types/nat&#45;&gt;theorems/nat</title>
<path fill="none" stroke="#000000" d="M546.2542,-290.0209C533.7573,-280.3458 517.6065,-267.842 503.7349,-257.1027"/>
<polygon fill="#000000" stroke="#000000" points="505.4953,-254.0393 495.4454,-250.6851 501.2101,-259.5744 505.4953,-254.0393"/>
</g>
<!-- theorems/ua&#45;&gt;theorems/nat -->
<g id="edge63" class="edge">
<title>theorems/ua&#45;&gt;theorems/nat</title>
<path fill="none" stroke="#000000" d="M350.6345,-291.256C374.299,-280.2634 406.8318,-265.1514 432.5326,-253.213"/>
<polygon fill="#000000" stroke="#000000" points="434.0683,-256.3589 441.6631,-248.9717 431.1193,-250.0104 434.0683,-256.3589"/>
</g>
<!-- cubical/V -->
<g id="node47" class="node">
<title>cubical/V</title>
<ellipse fill="none" stroke="#000000" cx="68.8939" cy="-90" rx="44.6926" ry="18"/>
<text text-anchor="middle" x="68.8939" y="-86.3" font-family="Times,serif" font-size="14.00" fill="#000000">cubical/V</text>
</g>
<!-- theorems/ua&#45;&gt;cubical/V -->
<g id="edge64" class="edge">
<title>theorems/ua&#45;&gt;cubical/V</title>
<path fill="none" stroke="#000000" d="M275.3801,-295.2637C246.4759,-286.7128 208.6923,-272.7033 179.8939,-252 131.1844,-216.9826 96.9949,-153.5694 80.3769,-117.3383"/>
<polygon fill="#000000" stroke="#000000" points="83.4301,-115.5914 76.1582,-107.8862 77.0378,-118.4445 83.4301,-115.5914"/>
</g>
<!-- algebra/eilenberg_maclane -->
<g id="node12" class="node">
<title>algebra/eilenberg_maclane</title>
<ellipse fill="none" stroke="#000000" cx="929.8939" cy="-18" rx="105.8812" ry="18"/>
<text text-anchor="middle" x="929.8939" y="-14.3" font-family="Times,serif" font-size="14.00" fill="#000000">algebra/eilenberg_maclane</text>
</g>
<!-- algebra/group -->
<g id="node13" class="node">
<title>algebra/group</title>
<ellipse fill="none" stroke="#000000" cx="1010.8939" cy="-90" rx="59.5901" ry="18"/>
<text text-anchor="middle" x="1010.8939" y="-86.3" font-family="Times,serif" font-size="14.00" fill="#000000">algebra/group</text>
</g>
<!-- algebra/group&#45;&gt;algebra/eilenberg_maclane -->
<g id="edge9" class="edge">
<title>algebra/group&#45;&gt;algebra/eilenberg_maclane</title>
<path fill="none" stroke="#000000" d="M991.698,-72.937C981.435,-63.8144 968.6205,-52.4237 957.3251,-42.3833"/>
<polygon fill="#000000" stroke="#000000" points="959.5973,-39.7202 949.7979,-35.6924 954.9467,-44.952 959.5973,-39.7202"/>
</g>
<!-- algebra/homology -->
<g id="node14" class="node">
<title>algebra/homology</title>
<ellipse fill="none" stroke="#000000" cx="1128.8939" cy="-18" rx="75.2868" ry="18"/>
<text text-anchor="middle" x="1128.8939" y="-14.3" font-family="Times,serif" font-size="14.00" fill="#000000">algebra/homology</text>
</g>
<!-- algebra/group&#45;&gt;algebra/homology -->
<g id="edge10" class="edge">
<title>algebra/group&#45;&gt;algebra/homology</title>
<path fill="none" stroke="#000000" d="M1037.3754,-73.8418C1053.5772,-63.956 1074.5367,-51.1671 1092.3089,-40.323"/>
<polygon fill="#000000" stroke="#000000" points="1094.5567,-43.0517 1101.27,-34.8552 1090.9106,-37.0762 1094.5567,-43.0517"/>
</g>
<!-- types/category -->
<g id="node15" class="node">
<title>types/category</title>
<ellipse fill="none" stroke="#000000" cx="596.8939" cy="-90" rx="61.99" ry="18"/>
<text text-anchor="middle" x="596.8939" y="-86.3" font-family="Times,serif" font-size="14.00" fill="#000000">types/category</text>
</g>
<!-- types/coproduct&#45;&gt;structures -->
<g id="edge11" class="edge">
<title>types/coproduct&#45;&gt;structures</title>
<path fill="none" stroke="#000000" d="M539.8939,-503.7623C539.8939,-479.201 539.8939,-435.2474 539.8939,-406.3541"/>
<polygon fill="#000000" stroke="#000000" points="543.394,-406.0896 539.8939,-396.0896 536.394,-406.0897 543.394,-406.0896"/>
</g>
<!-- HITs/graph -->
<g id="node22" class="node">
<title>HITs/graph</title>
<ellipse fill="none" stroke="#000000" cx="892.8939" cy="-450" rx="51.1914" ry="18"/>
<text text-anchor="middle" x="892.8939" y="-446.3" font-family="Times,serif" font-size="14.00" fill="#000000">HITs/graph</text>
</g>
<!-- types/heq&#45;&gt;HITs/graph -->
<g id="edge19" class="edge">
<title>types/heq&#45;&gt;HITs/graph</title>
<path fill="none" stroke="#000000" d="M736.7412,-577.7613C767.9514,-552.2257 828.6308,-502.5789 864.466,-473.2592"/>
<polygon fill="#000000" stroke="#000000" points="867.0543,-475.6637 872.5776,-466.6224 862.6216,-470.246 867.0543,-475.6637"/>
</g>
<!-- theorems/funext -->
<g id="node23" class="node">
<title>theorems/funext</title>
<ellipse fill="none" stroke="#000000" cx="692.8939" cy="-522" rx="68.4888" ry="18"/>
<text text-anchor="middle" x="692.8939" y="-518.3" font-family="Times,serif" font-size="14.00" fill="#000000">theorems/funext</text>
</g>
<!-- types/heq&#45;&gt;theorems/funext -->
<g id="edge20" class="edge">
<title>types/heq&#45;&gt;theorems/funext</title>
<path fill="none" stroke="#000000" d="M710.8377,-575.8314C708.2427,-568.0463 705.1515,-558.7729 702.2721,-550.1347"/>
<polygon fill="#000000" stroke="#000000" points="705.5144,-548.7933 699.0316,-540.4133 698.8736,-551.0069 705.5144,-548.7933"/>
</g>
<!-- types/unit&#45;&gt;structures -->
<g id="edge27" class="edge">
<title>types/unit&#45;&gt;structures</title>
<path fill="none" stroke="#000000" d="M740.5443,-439.6121C703.0762,-429.0707 643.7857,-412.0611 592.8939,-396 589.9313,-395.065 586.8822,-394.0829 583.8143,-393.0799"/>
<polygon fill="#000000" stroke="#000000" points="584.6282,-389.6625 574.0348,-389.8379 582.4254,-396.3069 584.6282,-389.6625"/>
</g>
<!-- HITs/suspension -->
<g id="node29" class="node">
<title>HITs/suspension</title>
<ellipse fill="none" stroke="#000000" cx="903.8939" cy="-306" rx="69.5877" ry="18"/>
<text text-anchor="middle" x="903.8939" y="-302.3" font-family="Times,serif" font-size="14.00" fill="#000000">HITs/suspension</text>
</g>
<!-- types/unit&#45;&gt;HITs/suspension -->
<g id="edge28" class="edge">
<title>types/unit&#45;&gt;HITs/suspension</title>
<path fill="none" stroke="#000000" d="M810.3948,-437.2733C838.1492,-425.7712 875.0928,-408.7404 884.8939,-396 898.3872,-378.4602 902.8397,-353.5381 904.0854,-334.3653"/>
<polygon fill="#000000" stroke="#000000" points="907.5928,-334.2448 904.4887,-324.1149 900.5982,-333.9696 907.5928,-334.2448"/>
</g>
<!-- types/sigma&#45;&gt;structures -->
<g id="edge26" class="edge">
<title>types/sigma&#45;&gt;structures</title>
<path fill="none" stroke="#000000" d="M418.5399,-504.6302C443.0199,-479.0859 488.8283,-431.2858 516.625,-402.2805"/>
<polygon fill="#000000" stroke="#000000" points="519.2252,-404.6258 523.6174,-394.9842 514.1713,-399.7824 519.2252,-404.6258"/>
</g>
<!-- HITs/colimit -->
<g id="node33" class="node">
<title>HITs/colimit</title>
<ellipse fill="none" stroke="#000000" cx="658.8939" cy="-378" rx="56.59" ry="18"/>
<text text-anchor="middle" x="658.8939" y="-374.3" font-family="Times,serif" font-size="14.00" fill="#000000">HITs/colimit</text>
</g>
<!-- HITs/graph&#45;&gt;HITs/colimit -->
<g id="edge35" class="edge">
<title>HITs/graph&#45;&gt;HITs/colimit</title>
<path fill="none" stroke="#000000" d="M854.2535,-438.1107C814.6324,-425.9196 752.823,-406.9013 709.3608,-393.5283"/>
<polygon fill="#000000" stroke="#000000" points="710.1446,-390.1076 699.5575,-390.5119 708.086,-396.798 710.1446,-390.1076"/>
</g>
<!-- HITs/generalized -->
<g id="node34" class="node">
<title>HITs/generalized</title>
<ellipse fill="none" stroke="#000000" cx="804.8939" cy="-378" rx="71.4873" ry="18"/>
<text text-anchor="middle" x="804.8939" y="-374.3" font-family="Times,serif" font-size="14.00" fill="#000000">HITs/generalized</text>
</g>
<!-- HITs/graph&#45;&gt;HITs/generalized -->
<g id="edge36" class="edge">
<title>HITs/graph&#45;&gt;HITs/generalized</title>
<path fill="none" stroke="#000000" d="M872.4837,-433.3008C861.0716,-423.9636 846.6535,-412.1669 834.0679,-401.8697"/>
<polygon fill="#000000" stroke="#000000" points="836.068,-398.9839 826.1121,-395.3603 831.6353,-404.4016 836.068,-398.9839"/>
</g>
<!-- HITs/pushout -->
<g id="node35" class="node">
<title>HITs/pushout</title>
<ellipse fill="none" stroke="#000000" cx="990.8939" cy="-378" rx="59.2899" ry="18"/>
<text text-anchor="middle" x="990.8939" y="-374.3" font-family="Times,serif" font-size="14.00" fill="#000000">HITs/pushout</text>
</g>
<!-- HITs/graph&#45;&gt;HITs/pushout -->
<g id="edge37" class="edge">
<title>HITs/graph&#45;&gt;HITs/pushout</title>
<path fill="none" stroke="#000000" d="M915.1316,-433.6621C928.3498,-423.9508 945.316,-411.4858 959.8409,-400.8144"/>
<polygon fill="#000000" stroke="#000000" points="962.0775,-403.5143 968.0641,-394.7729 957.933,-397.8731 962.0775,-403.5143"/>
</g>
<!-- HITs/graph&#45;&gt;HITs/quotient -->
<g id="edge38" class="edge">
<title>HITs/graph&#45;&gt;HITs/quotient</title>
<path fill="none" stroke="#000000" d="M941.4449,-443.9008C977.2335,-437.2712 1025.3283,-423.6522 1058.8939,-396 1099.3701,-362.6546 1112.0783,-299.0719 1116.0681,-262.2592"/>
<polygon fill="#000000" stroke="#000000" points="1119.5628,-262.4784 1117.0131,-252.195 1112.5935,-261.8239 1119.5628,-262.4784"/>
</g>
<!-- types/product -->
<g id="node28" class="node">
<title>types/product</title>
<ellipse fill="none" stroke="#000000" cx="645.8939" cy="-450" rx="58.4896" ry="18"/>
<text text-anchor="middle" x="645.8939" y="-446.3" font-family="Times,serif" font-size="14.00" fill="#000000">types/product</text>
</g>
<!-- theorems/funext&#45;&gt;types/product -->
<g id="edge57" class="edge">
<title>theorems/funext&#45;&gt;types/product</title>
<path fill="none" stroke="#000000" d="M681.2759,-504.2022C675.7963,-495.8079 669.147,-485.6218 663.0984,-476.3558"/>
<polygon fill="#000000" stroke="#000000" points="665.9382,-474.3032 657.5411,-467.8425 660.0765,-478.1295 665.9382,-474.3032"/>
</g>
<!-- types/integer -->
<g id="node24" class="node">
<title>types/integer</title>
<ellipse fill="none" stroke="#000000" cx="743.8939" cy="-162" rx="55.7903" ry="18"/>
<text text-anchor="middle" x="743.8939" y="-158.3" font-family="Times,serif" font-size="14.00" fill="#000000">types/integer</text>
</g>
<!-- types/integer&#45;&gt;algebra/group -->
<g id="edge21" class="edge">
<title>types/integer&#45;&gt;algebra/group</title>
<path fill="none" stroke="#000000" d="M786.7921,-150.432C832.9503,-137.9848 906.469,-118.1595 956.6183,-104.6361"/>
<polygon fill="#000000" stroke="#000000" points="957.5777,-108.0025 966.3215,-102.0195 955.7551,-101.2439 957.5777,-108.0025"/>
</g>
<!-- HITs/circle -->
<g id="node25" class="node">
<title>HITs/circle</title>
<ellipse fill="none" stroke="#000000" cx="743.8939" cy="-90" rx="50.8918" ry="18"/>
<text text-anchor="middle" x="743.8939" y="-86.3" font-family="Times,serif" font-size="14.00" fill="#000000">HITs/circle</text>
</g>
<!-- types/integer&#45;&gt;HITs/circle -->
<g id="edge22" class="edge">
<title>types/integer&#45;&gt;HITs/circle</title>
<path fill="none" stroke="#000000" d="M743.8939,-143.8314C743.8939,-136.131 743.8939,-126.9743 743.8939,-118.4166"/>
<polygon fill="#000000" stroke="#000000" points="747.394,-118.4132 743.8939,-108.4133 740.394,-118.4133 747.394,-118.4132"/>
</g>
<!-- theorems/hopf -->
<g id="node30" class="node">
<title>theorems/hopf</title>
<ellipse fill="none" stroke="#000000" cx="477.8939" cy="-18" rx="61.99" ry="18"/>
<text text-anchor="middle" x="477.8939" y="-14.3" font-family="Times,serif" font-size="14.00" fill="#000000">theorems/hopf</text>
</g>
<!-- HITs/circle&#45;&gt;theorems/hopf -->
<g id="edge29" class="edge">
<title>HITs/circle&#45;&gt;theorems/hopf</title>
<path fill="none" stroke="#000000" d="M703.4942,-79.0647C658.1217,-66.7835 584.2055,-46.7761 533.4229,-33.0304"/>
<polygon fill="#000000" stroke="#000000" points="534.1573,-29.6033 523.5902,-30.3689 532.3284,-36.3602 534.1573,-29.6033"/>
</g>
<!-- HITs/moebius -->
<g id="node31" class="node">
<title>HITs/moebius</title>
<ellipse fill="none" stroke="#000000" cx="743.8939" cy="-18" rx="61.99" ry="18"/>
<text text-anchor="middle" x="743.8939" y="-14.3" font-family="Times,serif" font-size="14.00" fill="#000000">HITs/moebius</text>
</g>
<!-- HITs/circle&#45;&gt;HITs/moebius -->
<g id="edge30" class="edge">
<title>HITs/circle&#45;&gt;HITs/moebius</title>
<path fill="none" stroke="#000000" d="M743.8939,-71.8314C743.8939,-64.131 743.8939,-54.9743 743.8939,-46.4166"/>
<polygon fill="#000000" stroke="#000000" points="747.394,-46.4132 743.8939,-36.4133 740.394,-46.4133 747.394,-46.4132"/>
</g>
<!-- HITs/reals -->
<g id="node32" class="node">
<title>HITs/reals</title>
<ellipse fill="none" stroke="#000000" cx="615.8939" cy="-18" rx="48.1917" ry="18"/>
<text text-anchor="middle" x="615.8939" y="-14.3" font-family="Times,serif" font-size="14.00" fill="#000000">HITs/reals</text>
</g>
<!-- HITs/circle&#45;&gt;HITs/reals -->
<g id="edge31" class="edge">
<title>HITs/circle&#45;&gt;HITs/reals</title>
<path fill="none" stroke="#000000" d="M716.7484,-74.7307C697.6986,-64.0152 672.0405,-49.5825 651.3718,-37.9563"/>
<polygon fill="#000000" stroke="#000000" points="652.993,-34.8526 642.5613,-33.0004 649.5612,-40.9536 652.993,-34.8526"/>
</g>
<!-- theorems/nat&#45;&gt;types/integer -->
<g id="edge58" class="edge">
<title>theorems/nat&#45;&gt;types/integer</title>
<path fill="none" stroke="#000000" d="M517.9248,-222.5727C559.4667,-211.7508 623.4662,-194.9742 678.8939,-180 683.1418,-178.8524 687.5431,-177.6539 691.9614,-176.4441"/>
<polygon fill="#000000" stroke="#000000" points="692.8927,-179.818 701.6077,-173.793 691.0377,-173.0682 692.8927,-179.818"/>
</g>
<!-- HITs/int -->
<g id="node48" class="node">
<title>HITs/int</title>
<ellipse fill="none" stroke="#000000" cx="464.8939" cy="-162" rx="40.0939" ry="18"/>
<text text-anchor="middle" x="464.8939" y="-158.3" font-family="Times,serif" font-size="14.00" fill="#000000">HITs/int</text>
</g>
<!-- theorems/nat&#45;&gt;HITs/int -->
<g id="edge59" class="edge">
<title>theorems/nat&#45;&gt;HITs/int</title>
<path fill="none" stroke="#000000" d="M471.6228,-215.8314C470.6603,-208.131 469.5157,-198.9743 468.446,-190.4166"/>
<polygon fill="#000000" stroke="#000000" points="471.909,-189.9019 467.1955,-180.4133 464.963,-190.7702 471.909,-189.9019"/>
</g>
<!-- types/precategory -->
<g id="node27" class="node">
<title>types/precategory</title>
<ellipse fill="none" stroke="#000000" cx="596.8939" cy="-162" rx="73.387" ry="18"/>
<text text-anchor="middle" x="596.8939" y="-158.3" font-family="Times,serif" font-size="14.00" fill="#000000">types/precategory</text>
</g>
<!-- types/precategory&#45;&gt;types/category -->
<g id="edge24" class="edge">
<title>types/precategory&#45;&gt;types/category</title>
<path fill="none" stroke="#000000" d="M596.8939,-143.8314C596.8939,-136.131 596.8939,-126.9743 596.8939,-118.4166"/>
<polygon fill="#000000" stroke="#000000" points="600.394,-118.4132 596.8939,-108.4133 593.394,-118.4133 600.394,-118.4132"/>
</g>
<!-- types/product&#45;&gt;structures -->
<g id="edge25" class="edge">
<title>types/product&#45;&gt;structures</title>
<path fill="none" stroke="#000000" d="M621.5753,-433.4817C606.7225,-423.393 587.5692,-410.3832 571.5432,-399.4976"/>
<polygon fill="#000000" stroke="#000000" points="573.2475,-396.4242 563.0087,-393.7006 569.3143,-402.2148 573.2475,-396.4242"/>
</g>
<!-- HITs/suspension&#45;&gt;HITs/circle -->
<g id="edge47" class="edge">
<title>HITs/suspension&#45;&gt;HITs/circle</title>
<path fill="none" stroke="#000000" d="M898.8724,-287.8749C889.2747,-255.8395 865.7537,-188.4095 826.8939,-144 814.894,-130.2864 798.6014,-118.6712 783.6283,-109.7678"/>
<polygon fill="#000000" stroke="#000000" points="784.9472,-106.491 774.5261,-104.5802 781.481,-112.5726 784.9472,-106.491"/>
</g>
<!-- HITs/join -->
<g id="node40" class="node">
<title>HITs/join</title>
<ellipse fill="none" stroke="#000000" cx="976.8939" cy="-234" rx="44.6926" ry="18"/>
<text text-anchor="middle" x="976.8939" y="-230.3" font-family="Times,serif" font-size="14.00" fill="#000000">HITs/join</text>
</g>
<!-- HITs/suspension&#45;&gt;HITs/join -->
<g id="edge48" class="edge">
<title>HITs/suspension&#45;&gt;HITs/join</title>
<path fill="none" stroke="#000000" d="M921.5652,-288.5708C930.8457,-279.4174 942.3627,-268.0582 952.4822,-258.0773"/>
<polygon fill="#000000" stroke="#000000" points="955.2261,-260.287 959.888,-250.7729 950.3106,-255.3032 955.2261,-260.287"/>
</g>
<!-- HITs/colimit&#45;&gt;HITs/merely -->
<g id="edge32" class="edge">
<title>HITs/colimit&#45;&gt;HITs/merely</title>
<path fill="none" stroke="#000000" d="M671.5006,-360.2022C677.5531,-351.6576 684.9206,-341.2564 691.5771,-331.859"/>
<polygon fill="#000000" stroke="#000000" points="694.508,-333.7764 697.4322,-323.593 688.7959,-329.7302 694.508,-333.7764"/>
</g>
<!-- HITs/colimit&#45;&gt;types/nat -->
<g id="edge33" class="edge">
<title>HITs/colimit&#45;&gt;types/nat</title>
<path fill="none" stroke="#000000" d="M637.556,-361.3008C624.984,-351.4618 608.9226,-338.892 595.2903,-328.2233"/>
<polygon fill="#000000" stroke="#000000" points="597.2012,-325.2744 587.1691,-321.8675 592.8871,-330.7869 597.2012,-325.2744"/>
</g>
<!-- HITs/generalized&#45;&gt;HITs/merely -->
<g id="edge34" class="edge">
<title>HITs/generalized&#45;&gt;HITs/merely</title>
<path fill="none" stroke="#000000" d="M781.897,-360.5708C769.346,-351.0584 753.6518,-339.1639 740.1219,-328.9097"/>
<polygon fill="#000000" stroke="#000000" points="742.1086,-326.0237 732.0248,-322.7729 737.8804,-331.6025 742.1086,-326.0237"/>
</g>
<!-- HITs/pushout&#45;&gt;HITs/suspension -->
<g id="edge45" class="edge">
<title>HITs/pushout&#45;&gt;HITs/suspension</title>
<path fill="none" stroke="#000000" d="M970.2761,-360.937C958.982,-351.5902 944.8111,-339.8625 932.4657,-329.6456"/>
<polygon fill="#000000" stroke="#000000" points="934.6006,-326.8694 924.6652,-323.19 930.1376,-332.2621 934.6006,-326.8694"/>
</g>
<!-- HITs/quotient&#45;&gt;algebra/group -->
<g id="edge46" class="edge">
<title>HITs/quotient&#45;&gt;algebra/group</title>
<path fill="none" stroke="#000000" d="M1118.1442,-215.7763C1117.5403,-196.3192 1113.9879,-165.4027 1098.8939,-144 1088.3582,-129.0608 1072.2509,-117.4545 1056.6833,-108.8964"/>
<polygon fill="#000000" stroke="#000000" points="1058.1155,-105.6967 1047.6258,-104.2077 1054.8974,-111.9132 1058.1155,-105.6967"/>
</g>
<!-- cubical/path -->
<g id="node44" class="node">
<title>cubical/path</title>
<ellipse fill="none" stroke="#000000" cx="182.8939" cy="-162" rx="53.8905" ry="18"/>
<text text-anchor="middle" x="182.8939" y="-158.3" font-family="Times,serif" font-size="14.00" fill="#000000">cubical/path</text>
</g>
<!-- cubical/cubes&#45;&gt;cubical/path -->
<g id="edge50" class="edge">
<title>cubical/cubes&#45;&gt;cubical/path</title>
<path fill="none" stroke="#000000" d="M231.4013,-216.5708C223.4614,-207.6385 213.6545,-196.6056 204.9409,-186.8029"/>
<polygon fill="#000000" stroke="#000000" points="207.5034,-184.4175 198.2438,-179.2687 202.2716,-189.0681 207.5034,-184.4175"/>
</g>
<!-- theorems/prop&#45;&gt;algebra/eilenberg_maclane -->
<g id="edge60" class="edge">
<title>theorems/prop&#45;&gt;algebra/eilenberg_maclane</title>
<path fill="none" stroke="#000000" d="M664.5815,-222.1606C725.6676,-206.6383 825.2149,-181.2207 826.8939,-180 874.3259,-145.5142 905.2147,-81.9019 919.8935,-45.4942"/>
<polygon fill="#000000" stroke="#000000" points="923.2262,-46.5817 923.6041,-35.9936 916.7058,-44.035 923.2262,-46.5817"/>
</g>
<!-- theorems/prop&#45;&gt;HITs/circle -->
<g id="edge61" class="edge">
<title>theorems/prop&#45;&gt;HITs/circle</title>
<path fill="none" stroke="#000000" d="M663.9154,-221.7186C719.71,-206.7242 806.6395,-182.9801 808.8939,-180 818.5467,-167.2398 815.6913,-158.4843 808.8939,-144 802.6747,-130.748 791.4288,-119.6227 780.0195,-110.9795"/>
<polygon fill="#000000" stroke="#000000" points="781.9371,-108.0489 771.7524,-105.1298 777.8938,-113.7631 781.9371,-108.0489"/>
</g>
<!-- theorems/prop&#45;&gt;types/precategory -->
<g id="edge62" class="edge">
<title>theorems/prop&#45;&gt;types/precategory</title>
<path fill="none" stroke="#000000" d="M612.5947,-215.8314C610.3241,-208.0463 607.6193,-198.7729 605.0999,-190.1347"/>
<polygon fill="#000000" stroke="#000000" points="608.4245,-189.0332 602.2644,-180.4133 601.7045,-190.9933 608.4245,-189.0332"/>
</g>
<!-- theorems/fibration&#45;&gt;theorems/hopf -->
<g id="edge55" class="edge">
<title>theorems/fibration&#45;&gt;theorems/hopf</title>
<path fill="none" stroke="#000000" d="M375.1369,-147.3007C396.002,-138.5623 419.9704,-125.6797 436.8939,-108 453.4996,-90.6522 464.1986,-65.3961 470.4884,-46.051"/>
<polygon fill="#000000" stroke="#000000" points="473.9007,-46.8595 473.4611,-36.2738 467.2034,-44.8232 473.9007,-46.8595"/>
</g>
<!-- theorems/functions&#45;&gt;algebra/group -->
<g id="edge56" class="edge">
<title>theorems/functions&#45;&gt;algebra/group</title>
<path fill="none" stroke="#000000" d="M1010.8939,-143.8314C1010.8939,-136.131 1010.8939,-126.9743 1010.8939,-118.4166"/>
<polygon fill="#000000" stroke="#000000" points="1014.394,-118.4132 1010.8939,-108.4133 1007.394,-118.4133 1014.394,-118.4132"/>
</g>
<!-- cubical/connection -->
<g id="node43" class="node">
<title>cubical/connection</title>
<ellipse fill="none" stroke="#000000" cx="350.8939" cy="-90" rx="77.1866" ry="18"/>
<text text-anchor="middle" x="350.8939" y="-86.3" font-family="Times,serif" font-size="14.00" fill="#000000">cubical/connection</text>
</g>
<!-- cubical/path&#45;&gt;cubical/connection -->
<g id="edge51" class="edge">
<title>cubical/path&#45;&gt;cubical/connection</title>
<path fill="none" stroke="#000000" d="M216.0853,-147.7751C241.4298,-136.9132 276.6591,-121.8149 304.7478,-109.7769"/>
<polygon fill="#000000" stroke="#000000" points="306.1625,-112.9785 313.9752,-105.8223 303.405,-106.5445 306.1625,-112.9785"/>
</g>
<!-- cubical/square -->
<g id="node46" class="node">
<title>cubical/square</title>
<ellipse fill="none" stroke="#000000" cx="193.8939" cy="-90" rx="61.99" ry="18"/>
<text text-anchor="middle" x="193.8939" y="-86.3" font-family="Times,serif" font-size="14.00" fill="#000000">cubical/square</text>
</g>
<!-- cubical/path&#45;&gt;cubical/square -->
<g id="edge52" class="edge">
<title>cubical/path&#45;&gt;cubical/square</title>
<path fill="none" stroke="#000000" d="M185.6697,-143.8314C186.8461,-136.131 188.245,-126.9743 189.5525,-118.4166"/>
<polygon fill="#000000" stroke="#000000" points="193.0303,-118.8272 191.0807,-108.4133 186.1106,-117.7699 193.0303,-118.8272"/>
</g>
<!-- cubical/path&#45;&gt;cubical/V -->
<g id="edge53" class="edge">
<title>cubical/path&#45;&gt;cubical/V</title>
<path fill="none" stroke="#000000" d="M157.5936,-146.0209C141.1709,-135.6487 119.6006,-122.0253 101.8435,-110.8103"/>
<polygon fill="#000000" stroke="#000000" points="103.2767,-107.5759 92.9528,-105.1951 99.5387,-113.4943 103.2767,-107.5759"/>
</g>
<!-- cubical/example -->
<g id="node45" class="node">
<title>cubical/example</title>
<ellipse fill="none" stroke="#000000" cx="68.8939" cy="-18" rx="68.7879" ry="18"/>
<text text-anchor="middle" x="68.8939" y="-14.3" font-family="Times,serif" font-size="14.00" fill="#000000">cubical/example</text>
</g>
<!-- cubical/V&#45;&gt;cubical/example -->
<g id="edge54" class="edge">
<title>cubical/V&#45;&gt;cubical/example</title>
<path fill="none" stroke="#000000" d="M68.8939,-71.8314C68.8939,-64.131 68.8939,-54.9743 68.8939,-46.4166"/>
<polygon fill="#000000" stroke="#000000" points="72.394,-46.4132 68.8939,-36.4133 65.394,-46.4133 72.394,-46.4132"/>
</g>
</g>
</svg>
