<?xml version="1.0" encoding="UTF-8" standalone="no"?>
<!DOCTYPE svg PUBLIC "-//W3C//DTD SVG 1.1//EN"
 "http://www.w3.org/Graphics/SVG/1.1/DTD/svg11.dtd">
<!-- Generated by graphviz version 2.38.0 (20140413.2041)
 -->
<!-- Title: dependency_map Pages: 1 -->
<svg width="1612pt" height="836pt"
 viewBox="0.00 0.00 1612.24 836.00" xmlns="http://www.w3.org/2000/svg" xmlns:xlink="http://www.w3.org/1999/xlink">
<g id="graph0" class="graph" transform="scale(1 1) rotate(0) translate(4 832)">
<title>dependency_map</title>
<polygon fill="white" stroke="none" points="-4,4 -4,-832 1608.24,-832 1608.24,4 -4,4"/>
<!-- proto -->
<g id="node1" class="node"><title>proto</title>
<ellipse fill="none" stroke="black" cx="668.644" cy="-810" rx="30.5947" ry="18"/>
<text text-anchor="middle" x="668.644" y="-806.3" font-family="Times New Roman,serif" font-size="14.00">proto</text>
</g>
<!-- types/eq -->
<g id="node2" class="node"><title>types/eq</title>
<ellipse fill="none" stroke="black" cx="728.644" cy="-738" rx="41.6928" ry="18"/>
<text text-anchor="middle" x="728.644" y="-734.3" font-family="Times New Roman,serif" font-size="14.00">types/eq</text>
</g>
<!-- proto&#45;&gt;types/eq -->
<g id="edge1" class="edge"><title>proto&#45;&gt;types/eq</title>
<path fill="none" stroke="black" d="M681.96,-793.465C689.588,-784.566 699.326,-773.205 707.932,-763.164"/>
<polygon fill="black" stroke="black" points="710.679,-765.338 714.529,-755.467 705.364,-760.782 710.679,-765.338"/>
</g>
<!-- support -->
<g id="node4" class="node"><title>support</title>
<ellipse fill="none" stroke="black" cx="790.644" cy="-666" rx="38.9931" ry="18"/>
<text text-anchor="middle" x="790.644" y="-662.3" font-family="Times New Roman,serif" font-size="14.00">support</text>
</g>
<!-- types/eq&#45;&gt;support -->
<g id="edge10" class="edge"><title>types/eq&#45;&gt;support</title>
<path fill="none" stroke="black" d="M743.024,-720.765C750.928,-711.841 760.877,-700.608 769.636,-690.719"/>
<polygon fill="black" stroke="black" points="772.332,-692.954 776.342,-683.147 767.092,-688.313 772.332,-692.954"/>
</g>
<!-- types/dep_path -->
<g id="node13" class="node"><title>types/dep_path</title>
<ellipse fill="none" stroke="black" cx="666.644" cy="-666" rx="66.8882" ry="18"/>
<text text-anchor="middle" x="666.644" y="-662.3" font-family="Times New Roman,serif" font-size="14.00">types/dep_path</text>
</g>
<!-- types/eq&#45;&gt;types/dep_path -->
<g id="edge11" class="edge"><title>types/eq&#45;&gt;types/dep_path</title>
<path fill="none" stroke="black" d="M714.264,-720.765C706.474,-711.969 696.695,-700.928 688.029,-691.144"/>
<polygon fill="black" stroke="black" points="690.627,-688.799 681.377,-683.633 685.387,-693.44 690.627,-688.799"/>
</g>
<!-- meta/hott_theory -->
<g id="node3" class="node"><title>meta/hott_theory</title>
<ellipse fill="none" stroke="black" cx="789.644" cy="-810" rx="72.2875" ry="18"/>
<text text-anchor="middle" x="789.644" y="-806.3" font-family="Times New Roman,serif" font-size="14.00">meta/hott_theory</text>
</g>
<!-- meta/hott_theory&#45;&gt;types/eq -->
<g id="edge2" class="edge"><title>meta/hott_theory&#45;&gt;types/eq</title>
<path fill="none" stroke="black" d="M774.878,-792.055C767.275,-783.33 757.876,-772.544 749.542,-762.981"/>
<polygon fill="black" stroke="black" points="752.063,-760.547 742.855,-755.307 746.786,-765.146 752.063,-760.547"/>
</g>
<!-- types/equiv -->
<g id="node5" class="node"><title>types/equiv</title>
<ellipse fill="none" stroke="black" cx="790.644" cy="-594" rx="51.9908" ry="18"/>
<text text-anchor="middle" x="790.644" y="-590.3" font-family="Times New Roman,serif" font-size="14.00">types/equiv</text>
</g>
<!-- support&#45;&gt;types/equiv -->
<g id="edge3" class="edge"><title>support&#45;&gt;types/equiv</title>
<path fill="none" stroke="black" d="M790.644,-647.697C790.644,-639.983 790.644,-630.712 790.644,-622.112"/>
<polygon fill="black" stroke="black" points="794.144,-622.104 790.644,-612.104 787.144,-622.104 794.144,-622.104"/>
</g>
<!-- types/coproduct -->
<g id="node10" class="node"><title>types/coproduct</title>
<ellipse fill="none" stroke="black" cx="561.644" cy="-522" rx="70.6878" ry="18"/>
<text text-anchor="middle" x="561.644" y="-518.3" font-family="Times New Roman,serif" font-size="14.00">types/coproduct</text>
</g>
<!-- types/equiv&#45;&gt;types/coproduct -->
<g id="edge12" class="edge"><title>types/equiv&#45;&gt;types/coproduct</title>
<path fill="none" stroke="black" d="M753.086,-581.519C715.416,-570.004 657.067,-552.168 614.684,-539.213"/>
<polygon fill="black" stroke="black" points="615.674,-535.856 605.088,-536.28 613.628,-542.55 615.674,-535.856"/>
</g>
<!-- types/heq -->
<g id="node14" class="node"><title>types/heq</title>
<ellipse fill="none" stroke="black" cx="845.644" cy="-522" rx="46.2923" ry="18"/>
<text text-anchor="middle" x="845.644" y="-518.3" font-family="Times New Roman,serif" font-size="14.00">types/heq</text>
</g>
<!-- types/equiv&#45;&gt;types/heq -->
<g id="edge13" class="edge"><title>types/equiv&#45;&gt;types/heq</title>
<path fill="none" stroke="black" d="M803.678,-576.411C810.459,-567.781 818.881,-557.062 826.396,-547.497"/>
<polygon fill="black" stroke="black" points="829.277,-549.496 832.704,-539.47 823.773,-545.171 829.277,-549.496"/>
</g>
<!-- HITs/infinitesimal -->
<g id="node15" class="node"><title>HITs/infinitesimal</title>
<ellipse fill="none" stroke="black" cx="984.644" cy="-522" rx="74.9875" ry="18"/>
<text text-anchor="middle" x="984.644" y="-518.3" font-family="Times New Roman,serif" font-size="14.00">HITs/infinitesimal</text>
</g>
<!-- types/equiv&#45;&gt;HITs/infinitesimal -->
<g id="edge14" class="edge"><title>types/equiv&#45;&gt;HITs/infinitesimal</title>
<path fill="none" stroke="black" d="M825.327,-580.485C855.88,-569.461 900.735,-553.276 935.073,-540.887"/>
<polygon fill="black" stroke="black" points="936.691,-544.023 944.91,-537.337 934.316,-537.439 936.691,-544.023"/>
</g>
<!-- types/lost -->
<g id="node16" class="node"><title>types/lost</title>
<ellipse fill="none" stroke="black" cx="1123.64" cy="-522" rx="46.2923" ry="18"/>
<text text-anchor="middle" x="1123.64" y="-518.3" font-family="Times New Roman,serif" font-size="14.00">types/lost</text>
</g>
<!-- types/equiv&#45;&gt;types/lost -->
<g id="edge15" class="edge"><title>types/equiv&#45;&gt;types/lost</title>
<path fill="none" stroke="black" d="M837.226,-585.75C892.725,-576.737 988.07,-560.067 1068.64,-540 1072.25,-539.102 1075.97,-538.106 1079.69,-537.059"/>
<polygon fill="black" stroke="black" points="1080.86,-540.364 1089.48,-534.204 1078.9,-533.644 1080.86,-540.364"/>
</g>
<!-- types/unit -->
<g id="node17" class="node"><title>types/unit</title>
<ellipse fill="none" stroke="black" cx="735.644" cy="-522" rx="46.2923" ry="18"/>
<text text-anchor="middle" x="735.644" y="-518.3" font-family="Times New Roman,serif" font-size="14.00">types/unit</text>
</g>
<!-- types/equiv&#45;&gt;types/unit -->
<g id="edge16" class="edge"><title>types/equiv&#45;&gt;types/unit</title>
<path fill="none" stroke="black" d="M777.61,-576.411C770.829,-567.781 762.407,-557.062 754.892,-547.497"/>
<polygon fill="black" stroke="black" points="757.515,-545.171 748.585,-539.47 752.011,-549.496 757.515,-545.171"/>
</g>
<!-- types/sigma -->
<g id="node18" class="node"><title>types/sigma</title>
<ellipse fill="none" stroke="black" cx="667.644" cy="-306" rx="53.8905" ry="18"/>
<text text-anchor="middle" x="667.644" y="-302.3" font-family="Times New Roman,serif" font-size="14.00">types/sigma</text>
</g>
<!-- types/equiv&#45;&gt;types/sigma -->
<g id="edge17" class="edge"><title>types/equiv&#45;&gt;types/sigma</title>
<path fill="none" stroke="black" d="M747.778,-583.689C723.859,-576.124 695.889,-562.83 680.644,-540 638.272,-476.546 651.207,-380.354 661.007,-333.933"/>
<polygon fill="black" stroke="black" points="664.455,-334.552 663.212,-324.031 657.622,-333.031 664.455,-334.552"/>
</g>
<!-- structures -->
<g id="node6" class="node"><title>structures</title>
<ellipse fill="none" stroke="black" cx="772.644" cy="-450" rx="46.2923" ry="18"/>
<text text-anchor="middle" x="772.644" y="-446.3" font-family="Times New Roman,serif" font-size="14.00">structures</text>
</g>
<!-- HITs/interval -->
<g id="node7" class="node"><title>HITs/interval</title>
<ellipse fill="none" stroke="black" cx="839.644" cy="-378" rx="57.6901" ry="18"/>
<text text-anchor="middle" x="839.644" y="-374.3" font-family="Times New Roman,serif" font-size="14.00">HITs/interval</text>
</g>
<!-- structures&#45;&gt;HITs/interval -->
<g id="edge4" class="edge"><title>structures&#45;&gt;HITs/interval</title>
<path fill="none" stroke="black" d="M788.184,-432.765C796.603,-423.969 807.17,-412.928 816.535,-403.144"/>
<polygon fill="black" stroke="black" points="819.338,-405.278 823.724,-395.633 814.281,-400.437 819.338,-405.278"/>
</g>
<!-- HITs/truncation -->
<g id="node8" class="node"><title>HITs/truncation</title>
<ellipse fill="none" stroke="black" cx="1284.64" cy="-306" rx="68.4888" ry="18"/>
<text text-anchor="middle" x="1284.64" y="-302.3" font-family="Times New Roman,serif" font-size="14.00">HITs/truncation</text>
</g>
<!-- structures&#45;&gt;HITs/truncation -->
<g id="edge5" class="edge"><title>structures&#45;&gt;HITs/truncation</title>
<path fill="none" stroke="black" d="M805.742,-437.37C857.56,-419.397 961.174,-384.404 1050.64,-360 1108.23,-344.292 1174.67,-329.562 1222.01,-319.637"/>
<polygon fill="black" stroke="black" points="1222.74,-323.061 1231.81,-317.594 1221.31,-316.209 1222.74,-323.061"/>
</g>
<!-- types/nat -->
<g id="node9" class="node"><title>types/nat</title>
<ellipse fill="none" stroke="black" cx="450.644" cy="-378" rx="43.5923" ry="18"/>
<text text-anchor="middle" x="450.644" y="-374.3" font-family="Times New Roman,serif" font-size="14.00">types/nat</text>
</g>
<!-- structures&#45;&gt;types/nat -->
<g id="edge6" class="edge"><title>structures&#45;&gt;types/nat</title>
<path fill="none" stroke="black" d="M737.27,-438.303C729.217,-436.057 720.669,-433.819 712.644,-432 620.293,-411.063 594.56,-418.773 502.644,-396 499.269,-395.164 495.796,-394.219 492.322,-393.214"/>
<polygon fill="black" stroke="black" points="493.194,-389.821 482.608,-390.262 491.158,-396.519 493.194,-389.821"/>
</g>
<!-- types/product -->
<g id="node24" class="node"><title>types/product</title>
<ellipse fill="none" stroke="black" cx="839.644" cy="-306" rx="61.99" ry="18"/>
<text text-anchor="middle" x="839.644" y="-302.3" font-family="Times New Roman,serif" font-size="14.00">types/product</text>
</g>
<!-- HITs/interval&#45;&gt;types/product -->
<g id="edge44" class="edge"><title>HITs/interval&#45;&gt;types/product</title>
<path fill="none" stroke="black" d="M839.644,-359.697C839.644,-351.983 839.644,-342.712 839.644,-334.112"/>
<polygon fill="black" stroke="black" points="843.144,-334.104 839.644,-324.104 836.144,-334.104 843.144,-334.104"/>
</g>
<!-- theorems/fibration -->
<g id="node27" class="node"><title>theorems/fibration</title>
<ellipse fill="none" stroke="black" cx="466.644" cy="-234" rx="76.8869" ry="18"/>
<text text-anchor="middle" x="466.644" y="-230.3" font-family="Times New Roman,serif" font-size="14.00">theorems/fibration</text>
</g>
<!-- HITs/interval&#45;&gt;theorems/fibration -->
<g id="edge45" class="edge"><title>HITs/interval&#45;&gt;theorems/fibration</title>
<path fill="none" stroke="black" d="M817.061,-361.177C802.846,-350.967 784.294,-337.176 768.644,-324 750.848,-309.016 751.298,-298.707 730.644,-288 730.087,-287.711 611.399,-263.944 533.372,-248.339"/>
<polygon fill="black" stroke="black" points="533.615,-244.818 523.123,-246.289 532.242,-251.682 533.615,-244.818"/>
</g>
<!-- theorems/prop -->
<g id="node28" class="node"><title>theorems/prop</title>
<ellipse fill="none" stroke="black" cx="929.644" cy="-234" rx="63.8893" ry="18"/>
<text text-anchor="middle" x="929.644" y="-230.3" font-family="Times New Roman,serif" font-size="14.00">theorems/prop</text>
</g>
<!-- HITs/interval&#45;&gt;theorems/prop -->
<g id="edge46" class="edge"><title>HITs/interval&#45;&gt;theorems/prop</title>
<path fill="none" stroke="black" d="M868.242,-362.286C883.099,-353.204 900.269,-340.188 910.644,-324 922.474,-305.541 927.062,-280.944 928.783,-262.286"/>
<polygon fill="black" stroke="black" points="932.29,-262.298 929.498,-252.078 925.307,-261.809 932.29,-262.298"/>
</g>
<!-- HITs/truncation&#45;&gt;theorems/prop -->
<g id="edge51" class="edge"><title>HITs/truncation&#45;&gt;theorems/prop</title>
<path fill="none" stroke="black" d="M1231.5,-294.52C1166.92,-281.787 1058.21,-260.352 990.387,-246.977"/>
<polygon fill="black" stroke="black" points="990.764,-243.484 980.276,-244.984 989.41,-250.352 990.764,-243.484"/>
</g>
<!-- HITs/simplicial -->
<g id="node40" class="node"><title>HITs/simplicial</title>
<ellipse fill="none" stroke="black" cx="1125.64" cy="-234" rx="65.7887" ry="18"/>
<text text-anchor="middle" x="1125.64" y="-230.3" font-family="Times New Roman,serif" font-size="14.00">HITs/simplicial</text>
</g>
<!-- HITs/truncation&#45;&gt;HITs/simplicial -->
<g id="edge52" class="edge"><title>HITs/truncation&#45;&gt;HITs/simplicial</title>
<path fill="none" stroke="black" d="M1250.92,-290.155C1226.73,-279.503 1193.96,-265.074 1168,-253.646"/>
<polygon fill="black" stroke="black" points="1169.33,-250.41 1158.77,-249.584 1166.51,-256.816 1169.33,-250.41"/>
</g>
<!-- theorems/mere_eq_lemma -->
<g id="node41" class="node"><title>theorems/mere_eq_lemma</title>
<ellipse fill="none" stroke="black" cx="1315.64" cy="-234" rx="105.881" ry="18"/>
<text text-anchor="middle" x="1315.64" y="-230.3" font-family="Times New Roman,serif" font-size="14.00">theorems/mere_eq_lemma</text>
</g>
<!-- HITs/truncation&#45;&gt;theorems/mere_eq_lemma -->
<g id="edge53" class="edge"><title>HITs/truncation&#45;&gt;theorems/mere_eq_lemma</title>
<path fill="none" stroke="black" d="M1292.15,-288.055C1295.68,-280.091 1299.96,-270.411 1303.9,-261.51"/>
<polygon fill="black" stroke="black" points="1307.14,-262.836 1307.99,-252.275 1300.74,-260.002 1307.14,-262.836"/>
</g>
<!-- theorems/graphs -->
<g id="node42" class="node"><title>theorems/graphs</title>
<ellipse fill="none" stroke="black" cx="1510.64" cy="-234" rx="70.6878" ry="18"/>
<text text-anchor="middle" x="1510.64" y="-230.3" font-family="Times New Roman,serif" font-size="14.00">theorems/graphs</text>
</g>
<!-- HITs/truncation&#45;&gt;theorems/graphs -->
<g id="edge54" class="edge"><title>HITs/truncation&#45;&gt;theorems/graphs</title>
<path fill="none" stroke="black" d="M1327.15,-291.834C1364.17,-280.369 1417.98,-263.702 1457.76,-251.379"/>
<polygon fill="black" stroke="black" points="1459.04,-254.647 1467.56,-248.345 1456.97,-247.961 1459.04,-254.647"/>
</g>
<!-- theorems/nat -->
<g id="node23" class="node"><title>theorems/nat</title>
<ellipse fill="none" stroke="black" cx="329.644" cy="-162" rx="57.3905" ry="18"/>
<text text-anchor="middle" x="329.644" y="-158.3" font-family="Times New Roman,serif" font-size="14.00">theorems/nat</text>
</g>
<!-- types/nat&#45;&gt;theorems/nat -->
<g id="edge23" class="edge"><title>types/nat&#45;&gt;theorems/nat</title>
<path fill="none" stroke="black" d="M408.218,-373.602C347.405,-367.752 240.172,-353.453 216.644,-324 178.1,-275.749 250.404,-215.325 296.179,-184.005"/>
<polygon fill="black" stroke="black" points="298.302,-186.796 304.662,-178.323 294.406,-180.98 298.302,-186.796"/>
</g>
<!-- types/coproduct&#45;&gt;structures -->
<g id="edge7" class="edge"><title>types/coproduct&#45;&gt;structures</title>
<path fill="none" stroke="black" d="M602.828,-507.337C639.159,-495.284 691.945,-477.772 728.996,-465.48"/>
<polygon fill="black" stroke="black" points="730.14,-468.789 738.529,-462.318 727.936,-462.145 730.14,-468.789"/>
</g>
<!-- types/integer -->
<g id="node11" class="node"><title>types/integer</title>
<ellipse fill="none" stroke="black" cx="216.644" cy="-378" rx="56.59" ry="18"/>
<text text-anchor="middle" x="216.644" y="-374.3" font-family="Times New Roman,serif" font-size="14.00">types/integer</text>
</g>
<!-- types/coproduct&#45;&gt;types/integer -->
<g id="edge8" class="edge"><title>types/coproduct&#45;&gt;types/integer</title>
<path fill="none" stroke="black" d="M526.023,-506.338C462.109,-480.032 328.227,-424.927 259.444,-396.616"/>
<polygon fill="black" stroke="black" points="260.364,-393.21 249.784,-392.64 257.699,-399.683 260.364,-393.21"/>
</g>
<!-- HITs/circle -->
<g id="node20" class="node"><title>HITs/circle</title>
<ellipse fill="none" stroke="black" cx="270.644" cy="-90" rx="51.9908" ry="18"/>
<text text-anchor="middle" x="270.644" y="-86.3" font-family="Times New Roman,serif" font-size="14.00">HITs/circle</text>
</g>
<!-- types/integer&#45;&gt;HITs/circle -->
<g id="edge20" class="edge"><title>types/integer&#45;&gt;HITs/circle</title>
<path fill="none" stroke="black" d="M210.966,-360.038C207.823,-349.745 204.237,-336.269 202.644,-324 200.584,-308.133 200.793,-303.893 202.644,-288 210.097,-223.998 240.088,-153.708 257.653,-116.851"/>
<polygon fill="black" stroke="black" points="260.828,-118.325 262.039,-107.8 254.529,-115.272 260.828,-118.325"/>
</g>
<!-- HITs/reals -->
<g id="node21" class="node"><title>HITs/reals</title>
<ellipse fill="none" stroke="black" cx="274.644" cy="-306" rx="48.9926" ry="18"/>
<text text-anchor="middle" x="274.644" y="-302.3" font-family="Times New Roman,serif" font-size="14.00">HITs/reals</text>
</g>
<!-- types/integer&#45;&gt;HITs/reals -->
<g id="edge21" class="edge"><title>types/integer&#45;&gt;HITs/reals</title>
<path fill="none" stroke="black" d="M230.389,-360.411C237.613,-351.693 246.601,-340.845 254.586,-331.208"/>
<polygon fill="black" stroke="black" points="257.313,-333.403 260.998,-323.47 251.922,-328.937 257.313,-333.403"/>
</g>
<!-- types/rational -->
<g id="node22" class="node"><title>types/rational</title>
<ellipse fill="none" stroke="black" cx="68.6442" cy="-306" rx="59.2899" ry="18"/>
<text text-anchor="middle" x="68.6442" y="-302.3" font-family="Times New Roman,serif" font-size="14.00">types/rational</text>
</g>
<!-- types/integer&#45;&gt;types/rational -->
<g id="edge22" class="edge"><title>types/integer&#45;&gt;types/rational</title>
<path fill="none" stroke="black" d="M186.337,-362.666C163.765,-351.99 132.744,-337.317 108.216,-325.716"/>
<polygon fill="black" stroke="black" points="109.701,-322.547 99.1647,-321.435 106.708,-328.875 109.701,-322.547"/>
</g>
<!-- types/dedekind -->
<g id="node12" class="node"><title>types/dedekind</title>
<ellipse fill="none" stroke="black" cx="65.6442" cy="-234" rx="65.7887" ry="18"/>
<text text-anchor="middle" x="65.6442" y="-230.3" font-family="Times New Roman,serif" font-size="14.00">types/dedekind</text>
</g>
<!-- types/dep_path&#45;&gt;types/equiv -->
<g id="edge9" class="edge"><title>types/dep_path&#45;&gt;types/equiv</title>
<path fill="none" stroke="black" d="M694.164,-649.465C712.273,-639.242 736.136,-625.771 755.599,-614.783"/>
<polygon fill="black" stroke="black" points="757.487,-617.737 764.475,-609.773 754.046,-611.641 757.487,-617.737"/>
</g>
<!-- types/heq&#45;&gt;HITs/interval -->
<g id="edge18" class="edge"><title>types/heq&#45;&gt;HITs/interval</title>
<path fill="none" stroke="black" d="M844.92,-503.871C843.898,-479.67 842.019,-435.211 840.802,-406.393"/>
<polygon fill="black" stroke="black" points="844.29,-406.033 840.37,-396.189 837.296,-406.328 844.29,-406.033"/>
</g>
<!-- HITs/graph -->
<g id="node19" class="node"><title>HITs/graph</title>
<ellipse fill="none" stroke="black" cx="1134.64" cy="-450" rx="52.7911" ry="18"/>
<text text-anchor="middle" x="1134.64" y="-446.3" font-family="Times New Roman,serif" font-size="14.00">HITs/graph</text>
</g>
<!-- types/heq&#45;&gt;HITs/graph -->
<g id="edge19" class="edge"><title>types/heq&#45;&gt;HITs/graph</title>
<path fill="none" stroke="black" d="M880.147,-509.891C886.916,-507.837 893.982,-505.781 900.644,-504 961.881,-487.627 1033,-471.992 1080.61,-462.003"/>
<polygon fill="black" stroke="black" points="1081.33,-465.428 1090.41,-459.958 1079.9,-458.576 1081.33,-465.428"/>
</g>
<!-- types/unit&#45;&gt;structures -->
<g id="edge30" class="edge"><title>types/unit&#45;&gt;structures</title>
<path fill="none" stroke="black" d="M744.601,-504.055C748.918,-495.887 754.191,-485.912 758.994,-476.824"/>
<polygon fill="black" stroke="black" points="762.191,-478.266 763.77,-467.789 756.003,-474.994 762.191,-478.266"/>
</g>
<!-- HITs/suspension -->
<g id="node29" class="node"><title>HITs/suspension</title>
<ellipse fill="none" stroke="black" cx="414.644" cy="-306" rx="72.5877" ry="18"/>
<text text-anchor="middle" x="414.644" y="-302.3" font-family="Times New Roman,serif" font-size="14.00">HITs/suspension</text>
</g>
<!-- types/unit&#45;&gt;HITs/suspension -->
<g id="edge31" class="edge"><title>types/unit&#45;&gt;HITs/suspension</title>
<path fill="none" stroke="black" d="M696.291,-512.344C614.954,-493.57 432.951,-446.701 397.644,-396 384.801,-377.558 391.587,-351.982 400.093,-332.978"/>
<polygon fill="black" stroke="black" points="403.245,-334.499 404.465,-323.975 396.948,-331.441 403.245,-334.499"/>
</g>
<!-- types/sigma&#45;&gt;theorems/nat -->
<g id="edge27" class="edge"><title>types/sigma&#45;&gt;theorems/nat</title>
<path fill="none" stroke="black" d="M628.141,-293.666C620.386,-291.632 612.287,-289.641 604.644,-288 506.057,-266.837 463.586,-309.341 380.644,-252 359.216,-237.185 345.624,-210.241 337.909,-189.866"/>
<polygon fill="black" stroke="black" points="341.123,-188.456 334.493,-180.192 334.523,-190.787 341.123,-188.456"/>
</g>
<!-- types/sigma&#45;&gt;theorems/fibration -->
<g id="edge28" class="edge"><title>types/sigma&#45;&gt;theorems/fibration</title>
<path fill="none" stroke="black" d="M631.709,-292.485C599.919,-281.414 553.182,-265.137 517.547,-252.727"/>
<polygon fill="black" stroke="black" points="518.407,-249.321 507.812,-249.337 516.105,-255.931 518.407,-249.321"/>
</g>
<!-- types/sigma&#45;&gt;theorems/prop -->
<g id="edge29" class="edge"><title>types/sigma&#45;&gt;theorems/prop</title>
<path fill="none" stroke="black" d="M708.294,-294.139C753.072,-282.176 825.31,-262.876 875.012,-249.596"/>
<polygon fill="black" stroke="black" points="876.189,-252.905 884.947,-246.942 874.383,-246.142 876.189,-252.905"/>
</g>
<!-- HITs/moebius -->
<g id="node32" class="node"><title>HITs/moebius</title>
<ellipse fill="none" stroke="black" cx="533.644" cy="-18" rx="63.0888" ry="18"/>
<text text-anchor="middle" x="533.644" y="-14.3" font-family="Times New Roman,serif" font-size="14.00">HITs/moebius</text>
</g>
<!-- HITs/graph&#45;&gt;HITs/moebius -->
<g id="edge37" class="edge"><title>HITs/graph&#45;&gt;HITs/moebius</title>
<path fill="none" stroke="black" d="M1100.51,-436.167C1082.62,-427.597 1062.09,-414.469 1050.64,-396 974.407,-272.959 1119.61,-174.737 1017.64,-72 989.2,-43.3399 733.582,-27.9368 605.757,-21.9675"/>
<polygon fill="black" stroke="black" points="605.81,-18.4663 595.66,-21.5032 605.488,-25.4589 605.81,-18.4663"/>
</g>
<!-- HITs/colimit -->
<g id="node33" class="node"><title>HITs/colimit</title>
<ellipse fill="none" stroke="black" cx="1284.64" cy="-378" rx="56.59" ry="18"/>
<text text-anchor="middle" x="1284.64" y="-374.3" font-family="Times New Roman,serif" font-size="14.00">HITs/colimit</text>
</g>
<!-- HITs/graph&#45;&gt;HITs/colimit -->
<g id="edge38" class="edge"><title>HITs/graph&#45;&gt;HITs/colimit</title>
<path fill="none" stroke="black" d="M1164.64,-435.003C1187.68,-424.248 1219.73,-409.294 1244.91,-397.544"/>
<polygon fill="black" stroke="black" points="1246.61,-400.614 1254.19,-393.213 1243.65,-394.27 1246.61,-400.614"/>
</g>
<!-- HITs/generalized -->
<g id="node34" class="node"><title>HITs/generalized</title>
<ellipse fill="none" stroke="black" cx="1431.64" cy="-378" rx="72.2875" ry="18"/>
<text text-anchor="middle" x="1431.64" y="-374.3" font-family="Times New Roman,serif" font-size="14.00">HITs/generalized</text>
</g>
<!-- HITs/graph&#45;&gt;HITs/generalized -->
<g id="edge39" class="edge"><title>HITs/graph&#45;&gt;HITs/generalized</title>
<path fill="none" stroke="black" d="M1176.88,-439.045C1227.75,-427.056 1313.55,-406.834 1371.36,-393.208"/>
<polygon fill="black" stroke="black" points="1372.17,-396.612 1381.1,-390.912 1370.57,-389.799 1372.17,-396.612"/>
</g>
<!-- HITs/int -->
<g id="node35" class="node"><title>HITs/int</title>
<ellipse fill="none" stroke="black" cx="1562.64" cy="-378" rx="40.8928" ry="18"/>
<text text-anchor="middle" x="1562.64" y="-374.3" font-family="Times New Roman,serif" font-size="14.00">HITs/int</text>
</g>
<!-- HITs/graph&#45;&gt;HITs/int -->
<g id="edge40" class="edge"><title>HITs/graph&#45;&gt;HITs/int</title>
<path fill="none" stroke="black" d="M1185.34,-444.95C1258.42,-438.424 1397.25,-423.449 1512.64,-396 1516,-395.201 1519.45,-394.27 1522.9,-393.262"/>
<polygon fill="black" stroke="black" points="1524,-396.585 1532.5,-390.267 1521.92,-389.902 1524,-396.585"/>
</g>
<!-- HITs/pushout -->
<g id="node36" class="node"><title>HITs/pushout</title>
<ellipse fill="none" stroke="black" cx="573.644" cy="-378" rx="61.99" ry="18"/>
<text text-anchor="middle" x="573.644" y="-374.3" font-family="Times New Roman,serif" font-size="14.00">HITs/pushout</text>
</g>
<!-- HITs/graph&#45;&gt;HITs/pushout -->
<g id="edge41" class="edge"><title>HITs/graph&#45;&gt;HITs/pushout</title>
<path fill="none" stroke="black" d="M1085.84,-442.91C984.921,-430.318 753.216,-401.406 639.306,-387.193"/>
<polygon fill="black" stroke="black" points="639.677,-383.712 629.321,-385.947 638.81,-390.658 639.677,-383.712"/>
</g>
<!-- types/precategory -->
<g id="node37" class="node"><title>types/precategory</title>
<ellipse fill="none" stroke="black" cx="1134.64" cy="-378" rx="75.2868" ry="18"/>
<text text-anchor="middle" x="1134.64" y="-374.3" font-family="Times New Roman,serif" font-size="14.00">types/precategory</text>
</g>
<!-- HITs/graph&#45;&gt;types/precategory -->
<g id="edge42" class="edge"><title>HITs/graph&#45;&gt;types/precategory</title>
<path fill="none" stroke="black" d="M1134.64,-431.697C1134.64,-423.983 1134.64,-414.712 1134.64,-406.112"/>
<polygon fill="black" stroke="black" points="1138.14,-406.104 1134.64,-396.104 1131.14,-406.104 1138.14,-406.104"/>
</g>
<!-- HITs/ntrunc -->
<g id="node30" class="node"><title>HITs/ntrunc</title>
<ellipse fill="none" stroke="black" cx="251.644" cy="-18" rx="55.4913" ry="18"/>
<text text-anchor="middle" x="251.644" y="-14.3" font-family="Times New Roman,serif" font-size="14.00">HITs/ntrunc</text>
</g>
<!-- HITs/circle&#45;&gt;HITs/ntrunc -->
<g id="edge32" class="edge"><title>HITs/circle&#45;&gt;HITs/ntrunc</title>
<path fill="none" stroke="black" d="M266.045,-72.055C263.929,-64.2609 261.367,-54.8219 258.994,-46.0789"/>
<polygon fill="black" stroke="black" points="262.331,-45.0093 256.333,-36.2753 255.575,-46.843 262.331,-45.0093"/>
</g>
<!-- theorems/hopf -->
<g id="node31" class="node"><title>theorems/hopf</title>
<ellipse fill="none" stroke="black" cx="388.644" cy="-18" rx="63.8893" ry="18"/>
<text text-anchor="middle" x="388.644" y="-14.3" font-family="Times New Roman,serif" font-size="14.00">theorems/hopf</text>
</g>
<!-- HITs/circle&#45;&gt;theorems/hopf -->
<g id="edge33" class="edge"><title>HITs/circle&#45;&gt;theorems/hopf</title>
<path fill="none" stroke="black" d="M295.669,-74.1548C312.529,-64.153 335.004,-50.8202 353.634,-39.7689"/>
<polygon fill="black" stroke="black" points="355.614,-42.6638 362.429,-34.5516 352.042,-36.6434 355.614,-42.6638"/>
</g>
<!-- HITs/circle&#45;&gt;HITs/moebius -->
<g id="edge34" class="edge"><title>HITs/circle&#45;&gt;HITs/moebius</title>
<path fill="none" stroke="black" d="M310.588,-78.3685C355.584,-66.3925 428.971,-46.8599 479.193,-33.4927"/>
<polygon fill="black" stroke="black" points="480.15,-36.8599 488.913,-30.9055 478.35,-30.0954 480.15,-36.8599"/>
</g>
<!-- types/rational&#45;&gt;types/dedekind -->
<g id="edge26" class="edge"><title>types/rational&#45;&gt;types/dedekind</title>
<path fill="none" stroke="black" d="M67.9026,-287.697C67.572,-279.983 67.1747,-270.712 66.8061,-262.112"/>
<polygon fill="black" stroke="black" points="70.3023,-261.945 66.3772,-252.104 63.3087,-262.245 70.3023,-261.945"/>
</g>
<!-- theorems/nat&#45;&gt;HITs/circle -->
<g id="edge63" class="edge"><title>theorems/nat&#45;&gt;HITs/circle</title>
<path fill="none" stroke="black" d="M315.662,-144.411C308.314,-135.693 299.171,-124.845 291.048,-115.208"/>
<polygon fill="black" stroke="black" points="293.647,-112.861 284.526,-107.47 288.295,-117.372 293.647,-112.861"/>
</g>
<!-- cubical/cubes -->
<g id="node25" class="node"><title>cubical/cubes</title>
<ellipse fill="none" stroke="black" cx="774.644" cy="-234" rx="60.3893" ry="18"/>
<text text-anchor="middle" x="774.644" y="-230.3" font-family="Times New Roman,serif" font-size="14.00">cubical/cubes</text>
</g>
<!-- types/product&#45;&gt;cubical/cubes -->
<g id="edge24" class="edge"><title>types/product&#45;&gt;cubical/cubes</title>
<path fill="none" stroke="black" d="M824.24,-288.411C816.064,-279.606 805.87,-268.628 796.855,-258.919"/>
<polygon fill="black" stroke="black" points="799.307,-256.416 789.938,-251.47 794.177,-261.179 799.307,-256.416"/>
</g>
<!-- theorems/ua -->
<g id="node26" class="node"><title>theorems/ua</title>
<ellipse fill="none" stroke="black" cx="615.644" cy="-234" rx="54.6905" ry="18"/>
<text text-anchor="middle" x="615.644" y="-230.3" font-family="Times New Roman,serif" font-size="14.00">theorems/ua</text>
</g>
<!-- types/product&#45;&gt;theorems/ua -->
<g id="edge25" class="edge"><title>types/product&#45;&gt;theorems/ua</title>
<path fill="none" stroke="black" d="M799.079,-292.324C760.993,-280.422 703.992,-262.609 663.655,-250.003"/>
<polygon fill="black" stroke="black" points="664.626,-246.64 654.037,-246.998 662.538,-253.321 664.626,-246.64"/>
</g>
<!-- cubical/path -->
<g id="node44" class="node"><title>cubical/path</title>
<ellipse fill="none" stroke="black" cx="769.644" cy="-162" rx="54.6905" ry="18"/>
<text text-anchor="middle" x="769.644" y="-158.3" font-family="Times New Roman,serif" font-size="14.00">cubical/path</text>
</g>
<!-- cubical/cubes&#45;&gt;cubical/path -->
<g id="edge55" class="edge"><title>cubical/cubes&#45;&gt;cubical/path</title>
<path fill="none" stroke="black" d="M773.408,-215.697C772.857,-207.983 772.195,-198.712 771.581,-190.112"/>
<polygon fill="black" stroke="black" points="775.07,-189.83 770.866,-180.104 768.087,-190.328 775.07,-189.83"/>
</g>
<!-- theorems/ua&#45;&gt;theorems/nat -->
<g id="edge64" class="edge"><title>theorems/ua&#45;&gt;theorems/nat</title>
<path fill="none" stroke="black" d="M575.024,-221.846C567.589,-219.859 559.892,-217.839 552.644,-216 495.448,-201.49 429.692,-186.007 384.483,-175.547"/>
<polygon fill="black" stroke="black" points="385.121,-172.102 374.59,-173.262 383.546,-178.922 385.121,-172.102"/>
</g>
<!-- cubical/V -->
<g id="node47" class="node"><title>cubical/V</title>
<ellipse fill="none" stroke="black" cx="487.644" cy="-90" rx="45.4919" ry="18"/>
<text text-anchor="middle" x="487.644" y="-86.3" font-family="Times New Roman,serif" font-size="14.00">cubical/V</text>
</g>
<!-- theorems/ua&#45;&gt;cubical/V -->
<g id="edge65" class="edge"><title>theorems/ua&#45;&gt;cubical/V</title>
<path fill="none" stroke="black" d="M600.71,-216.433C578.166,-191.422 535.32,-143.891 509.334,-115.062"/>
<polygon fill="black" stroke="black" points="511.778,-112.546 502.483,-107.462 506.579,-117.233 511.778,-112.546"/>
</g>
<!-- theorems/fibration&#45;&gt;theorems/hopf -->
<g id="edge61" class="edge"><title>theorems/fibration&#45;&gt;theorems/hopf</title>
<path fill="none" stroke="black" d="M460.393,-215.849C446.81,-178.583 414.523,-90.0016 398.299,-45.4898"/>
<polygon fill="black" stroke="black" points="401.53,-44.1322 394.817,-35.9354 394.953,-46.5294 401.53,-44.1322"/>
</g>
<!-- HITs/suspension&#45;&gt;HITs/circle -->
<g id="edge50" class="edge"><title>HITs/suspension&#45;&gt;HITs/circle</title>
<path fill="none" stroke="black" d="M382.778,-289.805C346.025,-270.262 287.593,-232.478 263.644,-180 254.727,-160.461 257.515,-135.997 261.949,-117.665"/>
<polygon fill="black" stroke="black" points="265.351,-118.491 264.595,-107.923 258.596,-116.656 265.351,-118.491"/>
</g>
<!-- HITs/colimit&#45;&gt;HITs/truncation -->
<g id="edge35" class="edge"><title>HITs/colimit&#45;&gt;HITs/truncation</title>
<path fill="none" stroke="black" d="M1284.64,-359.697C1284.64,-351.983 1284.64,-342.712 1284.64,-334.112"/>
<polygon fill="black" stroke="black" points="1288.14,-334.104 1284.64,-324.104 1281.14,-334.104 1288.14,-334.104"/>
</g>
<!-- HITs/generalized&#45;&gt;HITs/truncation -->
<g id="edge36" class="edge"><title>HITs/generalized&#45;&gt;HITs/truncation</title>
<path fill="none" stroke="black" d="M1399.75,-361.811C1377.91,-351.41 1348.75,-337.529 1325.26,-326.339"/>
<polygon fill="black" stroke="black" points="1326.76,-323.178 1316.23,-322.039 1323.75,-329.498 1326.76,-323.178"/>
</g>
<!-- HITs/rat -->
<g id="node38" class="node"><title>HITs/rat</title>
<ellipse fill="none" stroke="black" cx="1562.64" cy="-306" rx="41.6928" ry="18"/>
<text text-anchor="middle" x="1562.64" y="-302.3" font-family="Times New Roman,serif" font-size="14.00">HITs/rat</text>
</g>
<!-- HITs/int&#45;&gt;HITs/rat -->
<g id="edge43" class="edge"><title>HITs/int&#45;&gt;HITs/rat</title>
<path fill="none" stroke="black" d="M1562.64,-359.697C1562.64,-351.983 1562.64,-342.712 1562.64,-334.112"/>
<polygon fill="black" stroke="black" points="1566.14,-334.104 1562.64,-324.104 1559.14,-334.104 1566.14,-334.104"/>
</g>
<!-- HITs/pushout&#45;&gt;HITs/reals -->
<g id="edge47" class="edge"><title>HITs/pushout&#45;&gt;HITs/reals</title>
<path fill="none" stroke="black" d="M528.13,-365.732C519.987,-363.777 511.572,-361.797 503.644,-360 427.899,-342.833 407.966,-342.937 332.644,-324 328.804,-323.035 324.836,-321.984 320.861,-320.895"/>
<polygon fill="black" stroke="black" points="321.609,-317.47 311.035,-318.135 319.716,-324.209 321.609,-317.47"/>
</g>
<!-- HITs/pushout&#45;&gt;HITs/suspension -->
<g id="edge48" class="edge"><title>HITs/pushout&#45;&gt;HITs/suspension</title>
<path fill="none" stroke="black" d="M541.084,-362.666C517.133,-352.121 484.325,-337.677 458.131,-326.145"/>
<polygon fill="black" stroke="black" points="459.371,-322.867 448.809,-322.041 456.551,-329.274 459.371,-322.867"/>
</g>
<!-- HITs/join -->
<g id="node39" class="node"><title>HITs/join</title>
<ellipse fill="none" stroke="black" cx="550.644" cy="-306" rx="45.4919" ry="18"/>
<text text-anchor="middle" x="550.644" y="-302.3" font-family="Times New Roman,serif" font-size="14.00">HITs/join</text>
</g>
<!-- HITs/pushout&#45;&gt;HITs/join -->
<g id="edge49" class="edge"><title>HITs/pushout&#45;&gt;HITs/join</title>
<path fill="none" stroke="black" d="M568.077,-360.055C565.488,-352.176 562.347,-342.617 559.448,-333.794"/>
<polygon fill="black" stroke="black" points="562.767,-332.683 556.32,-324.275 556.117,-334.868 562.767,-332.683"/>
</g>
<!-- cubical/connection -->
<g id="node43" class="node"><title>cubical/connection</title>
<ellipse fill="none" stroke="black" cx="929.644" cy="-90" rx="79.0865" ry="18"/>
<text text-anchor="middle" x="929.644" y="-86.3" font-family="Times New Roman,serif" font-size="14.00">cubical/connection</text>
</g>
<!-- cubical/path&#45;&gt;cubical/connection -->
<g id="edge56" class="edge"><title>cubical/path&#45;&gt;cubical/connection</title>
<path fill="none" stroke="black" d="M801.255,-147.17C825.264,-136.666 858.587,-122.088 885.267,-110.415"/>
<polygon fill="black" stroke="black" points="887.008,-113.474 894.766,-106.259 884.202,-107.061 887.008,-113.474"/>
</g>
<!-- cubical/example -->
<g id="node45" class="node"><title>cubical/example</title>
<ellipse fill="none" stroke="black" cx="619.644" cy="-90" rx="68.7879" ry="18"/>
<text text-anchor="middle" x="619.644" y="-86.3" font-family="Times New Roman,serif" font-size="14.00">cubical/example</text>
</g>
<!-- cubical/path&#45;&gt;cubical/example -->
<g id="edge57" class="edge"><title>cubical/path&#45;&gt;cubical/example</title>
<path fill="none" stroke="black" d="M739.289,-146.834C716.745,-136.314 685.737,-121.844 660.938,-110.271"/>
<polygon fill="black" stroke="black" points="662.31,-107.049 651.768,-105.991 659.35,-113.392 662.31,-107.049"/>
</g>
<!-- cubical/square -->
<g id="node46" class="node"><title>cubical/square</title>
<ellipse fill="none" stroke="black" cx="769.644" cy="-90" rx="63.0888" ry="18"/>
<text text-anchor="middle" x="769.644" y="-86.3" font-family="Times New Roman,serif" font-size="14.00">cubical/square</text>
</g>
<!-- cubical/path&#45;&gt;cubical/square -->
<g id="edge58" class="edge"><title>cubical/path&#45;&gt;cubical/square</title>
<path fill="none" stroke="black" d="M769.644,-143.697C769.644,-135.983 769.644,-126.712 769.644,-118.112"/>
<polygon fill="black" stroke="black" points="773.144,-118.104 769.644,-108.104 766.144,-118.104 773.144,-118.104"/>
</g>
<!-- cubical/path&#45;&gt;cubical/V -->
<g id="edge59" class="edge"><title>cubical/path&#45;&gt;cubical/V</title>
<path fill="none" stroke="black" d="M724.828,-151.645C678.667,-141.761 604.759,-125.243 541.644,-108 538.271,-107.078 534.792,-106.085 531.303,-105.057"/>
<polygon fill="black" stroke="black" points="532.103,-101.642 521.518,-102.1 530.078,-108.343 532.103,-101.642"/>
</g>
<!-- cubical/V&#45;&gt;HITs/moebius -->
<g id="edge60" class="edge"><title>cubical/V&#45;&gt;HITs/moebius</title>
<path fill="none" stroke="black" d="M498.546,-72.411C504.022,-64.0774 510.777,-53.7972 516.895,-44.4883"/>
<polygon fill="black" stroke="black" points="519.935,-46.2354 522.502,-35.9562 514.085,-42.3911 519.935,-46.2354"/>
</g>
<!-- theorems/functions -->
<g id="node48" class="node"><title>theorems/functions</title>
<ellipse fill="none" stroke="black" cx="927.644" cy="-666" rx="79.8859" ry="18"/>
<text text-anchor="middle" x="927.644" y="-662.3" font-family="Times New Roman,serif" font-size="14.00">theorems/functions</text>
</g>
<!-- theorems/functions&#45;&gt;types/equiv -->
<g id="edge62" class="edge"><title>theorems/functions&#45;&gt;types/equiv</title>
<path fill="none" stroke="black" d="M896.899,-649.291C876.328,-638.78 849.151,-624.894 827.432,-613.797"/>
<polygon fill="black" stroke="black" points="828.991,-610.663 818.493,-609.229 825.806,-616.896 828.991,-610.663"/>
</g>
</g>
</svg>
