<?xml version="1.0" encoding="UTF-8" standalone="no"?>
<!DOCTYPE svg PUBLIC "-//W3C//DTD SVG 1.1//EN"
 "http://www.w3.org/Graphics/SVG/1.1/DTD/svg11.dtd">
<!-- Generated by graphviz version 2.38.0 (20140413.2041)
 -->
<!-- Title: dependency_map Pages: 1 -->
<svg width="1310pt" height="764pt"
 viewBox="0.00 0.00 1310.00 764.00" xmlns="http://www.w3.org/2000/svg" xmlns:xlink="http://www.w3.org/1999/xlink">
<g id="graph0" class="graph" transform="scale(1 1) rotate(0) translate(4 760)">
<title>dependency_map</title>
<polygon fill="white" stroke="none" points="-4,4 -4,-760 1306,-760 1306,4 -4,4"/>
<!-- proto -->
<g id="node1" class="node"><title>proto</title>
<ellipse fill="none" stroke="black" cx="400.403" cy="-738" rx="30.5947" ry="18"/>
<text text-anchor="middle" x="400.403" y="-734.3" font-family="Times New Roman,serif" font-size="14.00">proto</text>
</g>
<!-- types/eq -->
<g id="node2" class="node"><title>types/eq</title>
<ellipse fill="none" stroke="black" cx="460.403" cy="-666" rx="41.6928" ry="18"/>
<text text-anchor="middle" x="460.403" y="-662.3" font-family="Times New Roman,serif" font-size="14.00">types/eq</text>
</g>
<!-- proto&#45;&gt;types/eq -->
<g id="edge1" class="edge"><title>proto&#45;&gt;types/eq</title>
<path fill="none" stroke="black" d="M413.719,-721.465C421.347,-712.566 431.085,-701.205 439.691,-691.164"/>
<polygon fill="black" stroke="black" points="442.438,-693.338 446.289,-683.467 437.123,-688.782 442.438,-693.338"/>
</g>
<!-- support -->
<g id="node4" class="node"><title>support</title>
<ellipse fill="none" stroke="black" cx="522.403" cy="-594" rx="38.9931" ry="18"/>
<text text-anchor="middle" x="522.403" y="-590.3" font-family="Times New Roman,serif" font-size="14.00">support</text>
</g>
<!-- types/eq&#45;&gt;support -->
<g id="edge11" class="edge"><title>types/eq&#45;&gt;support</title>
<path fill="none" stroke="black" d="M474.783,-648.765C482.687,-639.841 492.636,-628.608 501.395,-618.719"/>
<polygon fill="black" stroke="black" points="504.091,-620.954 508.101,-611.147 498.851,-616.313 504.091,-620.954"/>
</g>
<!-- types/dep_path -->
<g id="node18" class="node"><title>types/dep_path</title>
<ellipse fill="none" stroke="black" cx="398.403" cy="-594" rx="66.8882" ry="18"/>
<text text-anchor="middle" x="398.403" y="-590.3" font-family="Times New Roman,serif" font-size="14.00">types/dep_path</text>
</g>
<!-- types/eq&#45;&gt;types/dep_path -->
<g id="edge12" class="edge"><title>types/eq&#45;&gt;types/dep_path</title>
<path fill="none" stroke="black" d="M446.024,-648.765C438.233,-639.969 428.454,-628.928 419.788,-619.144"/>
<polygon fill="black" stroke="black" points="422.386,-616.799 413.136,-611.633 417.146,-621.44 422.386,-616.799"/>
</g>
<!-- meta/hott_theory -->
<g id="node3" class="node"><title>meta/hott_theory</title>
<ellipse fill="none" stroke="black" cx="521.403" cy="-738" rx="72.2875" ry="18"/>
<text text-anchor="middle" x="521.403" y="-734.3" font-family="Times New Roman,serif" font-size="14.00">meta/hott_theory</text>
</g>
<!-- meta/hott_theory&#45;&gt;types/eq -->
<g id="edge2" class="edge"><title>meta/hott_theory&#45;&gt;types/eq</title>
<path fill="none" stroke="black" d="M506.637,-720.055C499.034,-711.33 489.635,-700.544 481.301,-690.981"/>
<polygon fill="black" stroke="black" points="483.822,-688.547 474.614,-683.307 478.545,-693.146 483.822,-688.547"/>
</g>
<!-- types/equiv -->
<g id="node5" class="node"><title>types/equiv</title>
<ellipse fill="none" stroke="black" cx="522.403" cy="-522" rx="51.9908" ry="18"/>
<text text-anchor="middle" x="522.403" y="-518.3" font-family="Times New Roman,serif" font-size="14.00">types/equiv</text>
</g>
<!-- support&#45;&gt;types/equiv -->
<g id="edge3" class="edge"><title>support&#45;&gt;types/equiv</title>
<path fill="none" stroke="black" d="M522.403,-575.697C522.403,-567.983 522.403,-558.712 522.403,-550.112"/>
<polygon fill="black" stroke="black" points="525.903,-550.104 522.403,-540.104 518.903,-550.104 525.903,-550.104"/>
</g>
<!-- HITs/infinitesimal -->
<g id="node11" class="node"><title>HITs/infinitesimal</title>
<ellipse fill="none" stroke="black" stroke-dasharray="5,2" cx="278.403" cy="-450" rx="74.9875" ry="18"/>
<text text-anchor="middle" x="278.403" y="-446.3" font-family="Times New Roman,serif" font-size="14.00">HITs/infinitesimal</text>
</g>
<!-- types/equiv&#45;&gt;HITs/infinitesimal -->
<g id="edge13" class="edge"><title>types/equiv&#45;&gt;HITs/infinitesimal</title>
<path fill="none" stroke="black" d="M483.741,-509.908C443.554,-498.379 380.259,-480.221 334.561,-467.111"/>
<polygon fill="black" stroke="black" points="335.379,-463.704 324.801,-464.311 333.449,-470.433 335.379,-463.704"/>
</g>
<!-- types/coproduct -->
<g id="node16" class="node"><title>types/coproduct</title>
<ellipse fill="none" stroke="black" cx="590.403" cy="-450" rx="70.6878" ry="18"/>
<text text-anchor="middle" x="590.403" y="-446.3" font-family="Times New Roman,serif" font-size="14.00">types/coproduct</text>
</g>
<!-- types/equiv&#45;&gt;types/coproduct -->
<g id="edge14" class="edge"><title>types/equiv&#45;&gt;types/coproduct</title>
<path fill="none" stroke="black" d="M538.175,-504.765C546.804,-495.882 557.657,-484.709 567.231,-474.854"/>
<polygon fill="black" stroke="black" points="569.788,-477.245 574.245,-467.633 564.767,-472.367 569.788,-477.245"/>
</g>
<!-- types/heq -->
<g id="node19" class="node"><title>types/heq</title>
<ellipse fill="none" stroke="black" cx="725.403" cy="-450" rx="46.2923" ry="18"/>
<text text-anchor="middle" x="725.403" y="-446.3" font-family="Times New Roman,serif" font-size="14.00">types/heq</text>
</g>
<!-- types/equiv&#45;&gt;types/heq -->
<g id="edge15" class="edge"><title>types/equiv&#45;&gt;types/heq</title>
<path fill="none" stroke="black" d="M558.228,-508.647C592.918,-496.685 645.543,-478.538 682.46,-465.808"/>
<polygon fill="black" stroke="black" points="683.644,-469.102 691.957,-462.533 681.362,-462.485 683.644,-469.102"/>
</g>
<!-- types/integer -->
<g id="node20" class="node"><title>types/integer</title>
<ellipse fill="none" stroke="black" cx="166.403" cy="-378" rx="56.59" ry="18"/>
<text text-anchor="middle" x="166.403" y="-374.3" font-family="Times New Roman,serif" font-size="14.00">types/integer</text>
</g>
<!-- types/equiv&#45;&gt;types/integer -->
<g id="edge16" class="edge"><title>types/equiv&#45;&gt;types/integer</title>
<path fill="none" stroke="black" d="M486.027,-509C460.847,-499.805 427.181,-485.701 400.403,-468 380.996,-455.171 382.693,-443.382 362.403,-432 320.6,-408.549 267.908,-395.058 227.688,-387.562"/>
<polygon fill="black" stroke="black" points="228.206,-384.099 217.746,-385.783 226.973,-390.989 228.206,-384.099"/>
</g>
<!-- types/lost -->
<g id="node21" class="node"><title>types/lost</title>
<ellipse fill="none" stroke="black" cx="835.403" cy="-450" rx="46.2923" ry="18"/>
<text text-anchor="middle" x="835.403" y="-446.3" font-family="Times New Roman,serif" font-size="14.00">types/lost</text>
</g>
<!-- types/equiv&#45;&gt;types/lost -->
<g id="edge17" class="edge"><title>types/equiv&#45;&gt;types/lost</title>
<path fill="none" stroke="black" d="M567.916,-513.035C619.703,-503.652 706.657,-486.924 780.403,-468 784.003,-467.076 787.718,-466.062 791.438,-465.003"/>
<polygon fill="black" stroke="black" points="792.615,-468.305 801.223,-462.128 790.642,-461.589 792.615,-468.305"/>
</g>
<!-- types/unit -->
<g id="node22" class="node"><title>types/unit</title>
<ellipse fill="none" stroke="black" cx="455.403" cy="-450" rx="46.2923" ry="18"/>
<text text-anchor="middle" x="455.403" y="-446.3" font-family="Times New Roman,serif" font-size="14.00">types/unit</text>
</g>
<!-- types/equiv&#45;&gt;types/unit -->
<g id="edge18" class="edge"><title>types/equiv&#45;&gt;types/unit</title>
<path fill="none" stroke="black" d="M506.864,-504.765C498.238,-495.753 487.358,-484.385 477.826,-474.426"/>
<polygon fill="black" stroke="black" points="480.302,-471.951 470.859,-467.147 475.245,-476.792 480.302,-471.951"/>
</g>
<!-- structures -->
<g id="node6" class="node"><title>structures</title>
<ellipse fill="none" stroke="black" cx="506.403" cy="-378" rx="46.2923" ry="18"/>
<text text-anchor="middle" x="506.403" y="-374.3" font-family="Times New Roman,serif" font-size="14.00">structures</text>
</g>
<!-- HITs/interval -->
<g id="node7" class="node"><title>HITs/interval</title>
<ellipse fill="none" stroke="black" cx="601.403" cy="-306" rx="57.6901" ry="18"/>
<text text-anchor="middle" x="601.403" y="-302.3" font-family="Times New Roman,serif" font-size="14.00">HITs/interval</text>
</g>
<!-- structures&#45;&gt;HITs/interval -->
<g id="edge4" class="edge"><title>structures&#45;&gt;HITs/interval</title>
<path fill="none" stroke="black" d="M527.017,-361.811C540.064,-352.198 557.145,-339.611 571.649,-328.924"/>
<polygon fill="black" stroke="black" points="573.866,-331.638 579.841,-322.888 569.714,-326.003 573.866,-331.638"/>
</g>
<!-- HITs/truncation -->
<g id="node8" class="node"><title>HITs/truncation</title>
<ellipse fill="none" stroke="black" cx="981.403" cy="-234" rx="68.4888" ry="18"/>
<text text-anchor="middle" x="981.403" y="-230.3" font-family="Times New Roman,serif" font-size="14.00">HITs/truncation</text>
</g>
<!-- structures&#45;&gt;HITs/truncation -->
<g id="edge5" class="edge"><title>structures&#45;&gt;HITs/truncation</title>
<path fill="none" stroke="black" d="M541.388,-366.057C581.595,-353.393 645.039,-333.113 668.403,-324 704.351,-309.979 710.84,-300.326 747.403,-288 802.863,-269.303 867.934,-255.164 915.359,-246.212"/>
<polygon fill="black" stroke="black" points="916.011,-249.651 925.202,-244.381 914.73,-242.769 916.011,-249.651"/>
</g>
<!-- algebra/core -->
<g id="node9" class="node"><title>algebra/core</title>
<ellipse fill="none" stroke="black" cx="269.403" cy="-306" rx="55.4913" ry="18"/>
<text text-anchor="middle" x="269.403" y="-302.3" font-family="Times New Roman,serif" font-size="14.00">algebra/core</text>
</g>
<!-- structures&#45;&gt;algebra/core -->
<g id="edge6" class="edge"><title>structures&#45;&gt;algebra/core</title>
<path fill="none" stroke="black" d="M470.665,-366.445C430.187,-354.489 363.973,-334.932 318.624,-321.538"/>
<polygon fill="black" stroke="black" points="319.579,-318.17 308.997,-318.694 317.596,-324.884 319.579,-318.17"/>
</g>
<!-- types/product -->
<g id="node26" class="node"><title>types/product</title>
<ellipse fill="none" stroke="black" cx="601.403" cy="-234" rx="61.99" ry="18"/>
<text text-anchor="middle" x="601.403" y="-230.3" font-family="Times New Roman,serif" font-size="14.00">types/product</text>
</g>
<!-- HITs/interval&#45;&gt;types/product -->
<g id="edge40" class="edge"><title>HITs/interval&#45;&gt;types/product</title>
<path fill="none" stroke="black" d="M601.403,-287.697C601.403,-279.983 601.403,-270.712 601.403,-262.112"/>
<polygon fill="black" stroke="black" points="604.903,-262.104 601.403,-252.104 597.903,-262.104 604.903,-262.104"/>
</g>
<!-- theorems/prop -->
<g id="node37" class="node"><title>theorems/prop</title>
<ellipse fill="none" stroke="black" cx="637.403" cy="-162" rx="63.8893" ry="18"/>
<text text-anchor="middle" x="637.403" y="-158.3" font-family="Times New Roman,serif" font-size="14.00">theorems/prop</text>
</g>
<!-- HITs/interval&#45;&gt;theorems/prop -->
<g id="edge41" class="edge"><title>HITs/interval&#45;&gt;theorems/prop</title>
<path fill="none" stroke="black" d="M632.116,-290.643C647.201,-281.809 663.923,-268.913 672.403,-252 682.892,-231.082 671.224,-206.221 658.616,-188.099"/>
<polygon fill="black" stroke="black" points="661.217,-185.731 652.444,-179.791 655.598,-189.905 661.217,-185.731"/>
</g>
<!-- HITs/truncation&#45;&gt;theorems/prop -->
<g id="edge46" class="edge"><title>HITs/truncation&#45;&gt;theorems/prop</title>
<path fill="none" stroke="black" d="M929.157,-222.369C866.981,-209.716 763.358,-188.63 697.801,-175.29"/>
<polygon fill="black" stroke="black" points="698.115,-171.782 687.618,-173.218 696.719,-178.642 698.115,-171.782"/>
</g>
<!-- HITs/simplicial -->
<g id="node39" class="node"><title>HITs/simplicial</title>
<ellipse fill="none" stroke="black" cx="823.403" cy="-162" rx="65.7887" ry="18"/>
<text text-anchor="middle" x="823.403" y="-158.3" font-family="Times New Roman,serif" font-size="14.00">HITs/simplicial</text>
</g>
<!-- HITs/truncation&#45;&gt;HITs/simplicial -->
<g id="edge47" class="edge"><title>HITs/truncation&#45;&gt;HITs/simplicial</title>
<path fill="none" stroke="black" d="M947.896,-218.155C923.854,-207.503 891.285,-193.074 865.49,-181.646"/>
<polygon fill="black" stroke="black" points="866.882,-178.434 856.321,-177.584 864.046,-184.834 866.882,-178.434"/>
</g>
<!-- theorems/mere_eq_lemma -->
<g id="node40" class="node"><title>theorems/mere_eq_lemma</title>
<ellipse fill="none" stroke="black" cx="1013.4" cy="-162" rx="105.881" ry="18"/>
<text text-anchor="middle" x="1013.4" y="-158.3" font-family="Times New Roman,serif" font-size="14.00">theorems/mere_eq_lemma</text>
</g>
<!-- HITs/truncation&#45;&gt;theorems/mere_eq_lemma -->
<g id="edge48" class="edge"><title>HITs/truncation&#45;&gt;theorems/mere_eq_lemma</title>
<path fill="none" stroke="black" d="M989.15,-216.055C992.79,-208.091 997.216,-198.411 1001.28,-189.51"/>
<polygon fill="black" stroke="black" points="1004.53,-190.825 1005.51,-180.275 998.165,-187.915 1004.53,-190.825"/>
</g>
<!-- theorems/graphs -->
<g id="node41" class="node"><title>theorems/graphs</title>
<ellipse fill="none" stroke="black" cx="1208.4" cy="-162" rx="70.6878" ry="18"/>
<text text-anchor="middle" x="1208.4" y="-158.3" font-family="Times New Roman,serif" font-size="14.00">theorems/graphs</text>
</g>
<!-- HITs/truncation&#45;&gt;theorems/graphs -->
<g id="edge49" class="edge"><title>HITs/truncation&#45;&gt;theorems/graphs</title>
<path fill="none" stroke="black" d="M1024.1,-219.834C1061.36,-208.345 1115.56,-191.631 1155.54,-179.301"/>
<polygon fill="black" stroke="black" points="1156.6,-182.637 1165.13,-176.345 1154.54,-175.948 1156.6,-182.637"/>
</g>
<!-- algebra/group -->
<g id="node15" class="node"><title>algebra/group</title>
<ellipse fill="none" stroke="black" cx="189.403" cy="-234" rx="60.3893" ry="18"/>
<text text-anchor="middle" x="189.403" y="-230.3" font-family="Times New Roman,serif" font-size="14.00">algebra/group</text>
</g>
<!-- algebra/core&#45;&gt;algebra/group -->
<g id="edge7" class="edge"><title>algebra/core&#45;&gt;algebra/group</title>
<path fill="none" stroke="black" d="M250.849,-288.765C240.348,-279.576 227.047,-267.938 215.508,-257.842"/>
<polygon fill="black" stroke="black" points="217.688,-255.098 207.857,-251.147 213.078,-260.366 217.688,-255.098"/>
</g>
<!-- HITs/circle -->
<g id="node10" class="node"><title>HITs/circle</title>
<ellipse fill="none" stroke="black" stroke-dasharray="5,2" cx="98.4034" cy="-90" rx="51.9908" ry="18"/>
<text text-anchor="middle" x="98.4034" y="-86.3" font-family="Times New Roman,serif" font-size="14.00">HITs/circle</text>
</g>
<!-- HITs/ntrunc -->
<g id="node12" class="node"><title>HITs/ntrunc</title>
<ellipse fill="none" stroke="black" stroke-dasharray="5,2" cx="89.4034" cy="-18" rx="55.4913" ry="18"/>
<text text-anchor="middle" x="89.4034" y="-14.3" font-family="Times New Roman,serif" font-size="14.00">HITs/ntrunc</text>
</g>
<!-- HITs/circle&#45;&gt;HITs/ntrunc -->
<g id="edge31" class="edge"><title>HITs/circle&#45;&gt;HITs/ntrunc</title>
<path fill="none" stroke="black" d="M96.1787,-71.6966C95.1869,-63.9827 93.995,-54.7125 92.8893,-46.1124"/>
<polygon fill="black" stroke="black" points="96.3492,-45.5763 91.6025,-36.1043 89.4064,-46.469 96.3492,-45.5763"/>
</g>
<!-- theorems/ua -->
<g id="node13" class="node"><title>theorems/ua</title>
<ellipse fill="none" stroke="black" stroke-dasharray="5,2" cx="208.403" cy="-162" rx="54.6905" ry="18"/>
<text text-anchor="middle" x="208.403" y="-158.3" font-family="Times New Roman,serif" font-size="14.00">theorems/ua</text>
</g>
<!-- theorems/ua&#45;&gt;HITs/circle -->
<g id="edge57" class="edge"><title>theorems/ua&#45;&gt;HITs/circle</title>
<path fill="none" stroke="black" d="M184.535,-145.811C168.823,-135.813 148.057,-122.598 130.852,-111.649"/>
<polygon fill="black" stroke="black" points="132.541,-108.575 122.225,-106.159 128.783,-114.481 132.541,-108.575"/>
</g>
<!-- cubical/V -->
<g id="node14" class="node"><title>cubical/V</title>
<ellipse fill="none" stroke="black" stroke-dasharray="5,2" cx="208.403" cy="-18" rx="45.4919" ry="18"/>
<text text-anchor="middle" x="208.403" y="-14.3" font-family="Times New Roman,serif" font-size="14.00">cubical/V</text>
</g>
<!-- theorems/ua&#45;&gt;cubical/V -->
<g id="edge58" class="edge"><title>theorems/ua&#45;&gt;cubical/V</title>
<path fill="none" stroke="black" d="M208.403,-143.871C208.403,-119.67 208.403,-75.2108 208.403,-46.3932"/>
<polygon fill="black" stroke="black" points="211.903,-46.1892 208.403,-36.1893 204.903,-46.1893 211.903,-46.1892"/>
</g>
<!-- types/coproduct&#45;&gt;structures -->
<g id="edge8" class="edge"><title>types/coproduct&#45;&gt;structures</title>
<path fill="none" stroke="black" d="M570.497,-432.411C559.302,-423.082 545.179,-411.313 533.042,-401.199"/>
<polygon fill="black" stroke="black" points="534.939,-398.224 525.016,-394.511 530.458,-403.601 534.939,-398.224"/>
</g>
<!-- types/nat -->
<g id="node17" class="node"><title>types/nat</title>
<ellipse fill="none" stroke="black" cx="614.403" cy="-378" rx="43.5923" ry="18"/>
<text text-anchor="middle" x="614.403" y="-374.3" font-family="Times New Roman,serif" font-size="14.00">types/nat</text>
</g>
<!-- types/coproduct&#45;&gt;types/nat -->
<g id="edge9" class="edge"><title>types/coproduct&#45;&gt;types/nat</title>
<path fill="none" stroke="black" d="M596.213,-432.055C598.914,-424.176 602.192,-414.617 605.217,-405.794"/>
<polygon fill="black" stroke="black" points="608.548,-406.87 608.48,-396.275 601.926,-404.6 608.548,-406.87"/>
</g>
<!-- types/dep_path&#45;&gt;types/equiv -->
<g id="edge10" class="edge"><title>types/dep_path&#45;&gt;types/equiv</title>
<path fill="none" stroke="black" d="M425.923,-577.465C444.032,-567.242 467.896,-553.771 487.358,-542.783"/>
<polygon fill="black" stroke="black" points="489.246,-545.737 496.234,-537.773 485.805,-539.641 489.246,-545.737"/>
</g>
<!-- types/heq&#45;&gt;HITs/interval -->
<g id="edge19" class="edge"><title>types/heq&#45;&gt;HITs/interval</title>
<path fill="none" stroke="black" d="M716.558,-432.149C706.24,-413.378 687.954,-382.693 667.403,-360 657.084,-348.605 644.178,-337.673 632.522,-328.728"/>
<polygon fill="black" stroke="black" points="634.415,-325.773 624.311,-322.588 630.223,-331.379 634.415,-325.773"/>
</g>
<!-- HITs/int -->
<g id="node23" class="node"><title>HITs/int</title>
<ellipse fill="none" stroke="black" cx="1101.4" cy="-378" rx="40.8928" ry="18"/>
<text text-anchor="middle" x="1101.4" y="-374.3" font-family="Times New Roman,serif" font-size="14.00">HITs/int</text>
</g>
<!-- types/heq&#45;&gt;HITs/int -->
<g id="edge20" class="edge"><title>types/heq&#45;&gt;HITs/int</title>
<path fill="none" stroke="black" d="M759.238,-437.75C766.191,-435.663 773.497,-433.629 780.403,-432 875.701,-409.515 989.125,-393.18 1052.43,-384.975"/>
<polygon fill="black" stroke="black" points="1053.05,-388.424 1062.53,-383.681 1052.16,-381.481 1053.05,-388.424"/>
</g>
<!-- HITs/graph -->
<g id="node24" class="node"><title>HITs/graph</title>
<ellipse fill="none" stroke="black" cx="779.403" cy="-378" rx="52.7911" ry="18"/>
<text text-anchor="middle" x="779.403" y="-374.3" font-family="Times New Roman,serif" font-size="14.00">HITs/graph</text>
</g>
<!-- types/heq&#45;&gt;HITs/graph -->
<g id="edge21" class="edge"><title>types/heq&#45;&gt;HITs/graph</title>
<path fill="none" stroke="black" d="M738.201,-432.411C744.858,-423.781 753.127,-413.062 760.506,-403.497"/>
<polygon fill="black" stroke="black" points="763.361,-405.526 766.698,-395.47 757.819,-401.25 763.361,-405.526"/>
</g>
<!-- types/integer&#45;&gt;algebra/core -->
<g id="edge22" class="edge"><title>types/integer&#45;&gt;algebra/core</title>
<path fill="none" stroke="black" d="M189.262,-361.465C203.664,-351.677 222.448,-338.912 238.21,-328.2"/>
<polygon fill="black" stroke="black" points="240.305,-331.008 246.608,-322.492 236.37,-325.218 240.305,-331.008"/>
</g>
<!-- types/integer&#45;&gt;HITs/circle -->
<g id="edge23" class="edge"><title>types/integer&#45;&gt;HITs/circle</title>
<path fill="none" stroke="black" d="M131.446,-363.728C90.2608,-345.759 24.8471,-309.203 4.40339,-252 -14.6056,-198.812 35.982,-143.324 70.1143,-113.387"/>
<polygon fill="black" stroke="black" points="72.6243,-115.846 77.9617,-106.694 68.0819,-110.52 72.6243,-115.846"/>
</g>
<!-- HITs/reals -->
<g id="node25" class="node"><title>HITs/reals</title>
<ellipse fill="none" stroke="black" cx="62.4034" cy="-234" rx="48.9926" ry="18"/>
<text text-anchor="middle" x="62.4034" y="-230.3" font-family="Times New Roman,serif" font-size="14.00">HITs/reals</text>
</g>
<!-- types/integer&#45;&gt;HITs/reals -->
<g id="edge24" class="edge"><title>types/integer&#45;&gt;HITs/reals</title>
<path fill="none" stroke="black" d="M132.217,-363.548C114.447,-354.849 93.8884,-341.795 81.4034,-324 68.7526,-305.968 64.2458,-281.181 62.7647,-262.344"/>
<polygon fill="black" stroke="black" points="66.2565,-262.097 62.2119,-252.305 59.2671,-262.482 66.2565,-262.097"/>
</g>
<!-- types/unit&#45;&gt;structures -->
<g id="edge29" class="edge"><title>types/unit&#45;&gt;structures</title>
<path fill="none" stroke="black" d="M467.49,-432.411C473.714,-423.868 481.429,-413.278 488.344,-403.787"/>
<polygon fill="black" stroke="black" points="491.344,-405.613 494.404,-395.47 485.686,-401.491 491.344,-405.613"/>
</g>
<!-- HITs/suspension -->
<g id="node30" class="node"><title>HITs/suspension</title>
<ellipse fill="none" stroke="black" cx="340.403" cy="-234" rx="72.5877" ry="18"/>
<text text-anchor="middle" x="340.403" y="-230.3" font-family="Times New Roman,serif" font-size="14.00">HITs/suspension</text>
</g>
<!-- types/unit&#45;&gt;HITs/suspension -->
<g id="edge30" class="edge"><title>types/unit&#45;&gt;HITs/suspension</title>
<path fill="none" stroke="black" d="M446.098,-432.053C432.938,-408.05 408.178,-362.758 387.403,-324 376.12,-302.949 363.487,-279.005 354.162,-261.259"/>
<polygon fill="black" stroke="black" points="357.098,-259.322 349.351,-252.095 350.9,-262.576 357.098,-259.322"/>
</g>
<!-- HITs/rat -->
<g id="node36" class="node"><title>HITs/rat</title>
<ellipse fill="none" stroke="black" cx="1260.4" cy="-306" rx="41.6928" ry="18"/>
<text text-anchor="middle" x="1260.4" y="-302.3" font-family="Times New Roman,serif" font-size="14.00">HITs/rat</text>
</g>
<!-- HITs/int&#45;&gt;HITs/rat -->
<g id="edge39" class="edge"><title>HITs/int&#45;&gt;HITs/rat</title>
<path fill="none" stroke="black" d="M1129.46,-364.647C1155.5,-353.186 1194.42,-336.048 1223.07,-323.436"/>
<polygon fill="black" stroke="black" points="1224.61,-326.58 1232.36,-319.347 1221.79,-320.174 1224.61,-326.58"/>
</g>
<!-- HITs/colimit -->
<g id="node31" class="node"><title>HITs/colimit</title>
<ellipse fill="none" stroke="black" cx="981.403" cy="-306" rx="56.59" ry="18"/>
<text text-anchor="middle" x="981.403" y="-302.3" font-family="Times New Roman,serif" font-size="14.00">HITs/colimit</text>
</g>
<!-- HITs/graph&#45;&gt;HITs/colimit -->
<g id="edge34" class="edge"><title>HITs/graph&#45;&gt;HITs/colimit</title>
<path fill="none" stroke="black" d="M815.052,-364.647C848.285,-353.13 898.06,-335.881 934.503,-323.252"/>
<polygon fill="black" stroke="black" points="936.101,-326.403 944.404,-319.822 933.809,-319.789 936.101,-326.403"/>
</g>
<!-- HITs/generalized -->
<g id="node32" class="node"><title>HITs/generalized</title>
<ellipse fill="none" stroke="black" cx="1128.4" cy="-306" rx="72.2875" ry="18"/>
<text text-anchor="middle" x="1128.4" y="-302.3" font-family="Times New Roman,serif" font-size="14.00">HITs/generalized</text>
</g>
<!-- HITs/graph&#45;&gt;HITs/generalized -->
<g id="edge35" class="edge"><title>HITs/graph&#45;&gt;HITs/generalized</title>
<path fill="none" stroke="black" d="M824.01,-368.343C877.225,-357.978 968.863,-340.007 1047.4,-324 1053.18,-322.823 1059.18,-321.588 1065.19,-320.342"/>
<polygon fill="black" stroke="black" points="1066.19,-323.708 1075.27,-318.245 1064.76,-316.855 1066.19,-323.708"/>
</g>
<!-- HITs/pushout -->
<g id="node33" class="node"><title>HITs/pushout</title>
<ellipse fill="none" stroke="black" cx="458.403" cy="-306" rx="61.99" ry="18"/>
<text text-anchor="middle" x="458.403" y="-302.3" font-family="Times New Roman,serif" font-size="14.00">HITs/pushout</text>
</g>
<!-- HITs/graph&#45;&gt;HITs/pushout -->
<g id="edge36" class="edge"><title>HITs/graph&#45;&gt;HITs/pushout</title>
<path fill="none" stroke="black" d="M736.012,-367.709C687.027,-357.199 604.957,-339.522 534.403,-324 528.337,-322.665 522.001,-321.263 515.687,-319.859"/>
<polygon fill="black" stroke="black" points="516.347,-316.42 505.825,-317.661 514.825,-323.252 516.347,-316.42"/>
</g>
<!-- HITs/moebius -->
<g id="node34" class="node"><title>HITs/moebius</title>
<ellipse fill="none" stroke="black" cx="811.403" cy="-18" rx="63.0888" ry="18"/>
<text text-anchor="middle" x="811.403" y="-14.3" font-family="Times New Roman,serif" font-size="14.00">HITs/moebius</text>
</g>
<!-- HITs/graph&#45;&gt;HITs/moebius -->
<g id="edge37" class="edge"><title>HITs/graph&#45;&gt;HITs/moebius</title>
<path fill="none" stroke="black" d="M766.172,-360.44C759.094,-350.504 751.094,-337.254 747.403,-324 739.451,-295.442 718.036,-269.782 748.403,-144 757.304,-107.133 778.766,-68.7613 794.166,-44.4205"/>
<polygon fill="black" stroke="black" points="797.242,-46.109 799.732,-35.811 791.364,-42.3083 797.242,-46.109"/>
</g>
<!-- types/precategory -->
<g id="node35" class="node"><title>types/precategory</title>
<ellipse fill="none" stroke="black" cx="831.403" cy="-306" rx="75.2868" ry="18"/>
<text text-anchor="middle" x="831.403" y="-302.3" font-family="Times New Roman,serif" font-size="14.00">types/precategory</text>
</g>
<!-- HITs/graph&#45;&gt;types/precategory -->
<g id="edge38" class="edge"><title>HITs/graph&#45;&gt;types/precategory</title>
<path fill="none" stroke="black" d="M791.727,-360.411C797.981,-351.992 805.712,-341.585 812.683,-332.201"/>
<polygon fill="black" stroke="black" points="815.654,-334.071 818.807,-323.956 810.034,-329.897 815.654,-334.071"/>
</g>
<!-- types/product&#45;&gt;theorems/ua -->
<g id="edge25" class="edge"><title>types/product&#45;&gt;theorems/ua</title>
<path fill="none" stroke="black" d="M556.059,-221.63C547.558,-219.644 538.728,-217.679 530.403,-216 439.073,-197.575 332.204,-180.95 267.449,-171.417"/>
<polygon fill="black" stroke="black" points="267.828,-167.935 257.426,-169.949 266.813,-174.861 267.828,-167.935"/>
</g>
<!-- cubical/cubes -->
<g id="node27" class="node"><title>cubical/cubes</title>
<ellipse fill="none" stroke="black" cx="495.403" cy="-162" rx="60.3893" ry="18"/>
<text text-anchor="middle" x="495.403" y="-158.3" font-family="Times New Roman,serif" font-size="14.00">cubical/cubes</text>
</g>
<!-- types/product&#45;&gt;cubical/cubes -->
<g id="edge26" class="edge"><title>types/product&#45;&gt;cubical/cubes</title>
<path fill="none" stroke="black" d="M577.615,-217.291C562.885,-207.564 543.778,-194.946 527.692,-184.322"/>
<polygon fill="black" stroke="black" points="529.386,-181.247 519.112,-178.657 525.528,-187.088 529.386,-181.247"/>
</g>
<!-- cubical/path -->
<g id="node43" class="node"><title>cubical/path</title>
<ellipse fill="none" stroke="black" cx="495.403" cy="-90" rx="54.6905" ry="18"/>
<text text-anchor="middle" x="495.403" y="-86.3" font-family="Times New Roman,serif" font-size="14.00">cubical/path</text>
</g>
<!-- cubical/cubes&#45;&gt;cubical/path -->
<g id="edge50" class="edge"><title>cubical/cubes&#45;&gt;cubical/path</title>
<path fill="none" stroke="black" d="M495.403,-143.697C495.403,-135.983 495.403,-126.712 495.403,-118.112"/>
<polygon fill="black" stroke="black" points="498.903,-118.104 495.403,-108.104 491.903,-118.104 498.903,-118.104"/>
</g>
<!-- types/sigma -->
<g id="node28" class="node"><title>types/sigma</title>
<ellipse fill="none" stroke="black" cx="665.403" cy="-738" rx="53.8905" ry="18"/>
<text text-anchor="middle" x="665.403" y="-734.3" font-family="Times New Roman,serif" font-size="14.00">types/sigma</text>
</g>
<!-- types/swale -->
<g id="node29" class="node"><title>types/swale</title>
<ellipse fill="none" stroke="black" cx="143.403" cy="-306" rx="52.7911" ry="18"/>
<text text-anchor="middle" x="143.403" y="-302.3" font-family="Times New Roman,serif" font-size="14.00">types/swale</text>
</g>
<!-- types/swale&#45;&gt;algebra/group -->
<g id="edge27" class="edge"><title>types/swale&#45;&gt;algebra/group</title>
<path fill="none" stroke="black" d="M154.539,-288.055C160.019,-279.715 166.738,-269.491 172.809,-260.252"/>
<polygon fill="black" stroke="black" points="175.804,-262.068 178.371,-251.789 169.954,-258.224 175.804,-262.068"/>
</g>
<!-- types/swale&#45;&gt;HITs/reals -->
<g id="edge28" class="edge"><title>types/swale&#45;&gt;HITs/reals</title>
<path fill="none" stroke="black" d="M125.023,-289.116C114.253,-279.808 100.471,-267.898 88.5805,-257.622"/>
<polygon fill="black" stroke="black" points="90.5655,-254.712 80.7108,-250.821 85.9884,-260.008 90.5655,-254.712"/>
</g>
<!-- HITs/suspension&#45;&gt;HITs/circle -->
<g id="edge45" class="edge"><title>HITs/suspension&#45;&gt;HITs/circle</title>
<path fill="none" stroke="black" d="M288.493,-221.246C234.345,-208.626 155.754,-189.159 144.403,-180 124.808,-164.188 112.664,-137.799 105.811,-117.851"/>
<polygon fill="black" stroke="black" points="109.073,-116.56 102.698,-108.097 102.405,-118.688 109.073,-116.56"/>
</g>
<!-- HITs/colimit&#45;&gt;HITs/truncation -->
<g id="edge32" class="edge"><title>HITs/colimit&#45;&gt;HITs/truncation</title>
<path fill="none" stroke="black" d="M981.403,-287.697C981.403,-279.983 981.403,-270.712 981.403,-262.112"/>
<polygon fill="black" stroke="black" points="984.903,-262.104 981.403,-252.104 977.903,-262.104 984.903,-262.104"/>
</g>
<!-- HITs/generalized&#45;&gt;HITs/truncation -->
<g id="edge33" class="edge"><title>HITs/generalized&#45;&gt;HITs/truncation</title>
<path fill="none" stroke="black" d="M1096.51,-289.811C1074.66,-279.41 1045.51,-265.529 1022.01,-254.339"/>
<polygon fill="black" stroke="black" points="1023.52,-251.178 1012.99,-250.039 1020.51,-257.498 1023.52,-251.178"/>
</g>
<!-- HITs/pushout&#45;&gt;HITs/reals -->
<g id="edge42" class="edge"><title>HITs/pushout&#45;&gt;HITs/reals</title>
<path fill="none" stroke="black" d="M403.896,-297.331C322.55,-285.737 173.293,-263.845 120.403,-252 116.484,-251.122 112.439,-250.127 108.395,-249.068"/>
<polygon fill="black" stroke="black" points="108.983,-245.601 98.4141,-246.34 107.137,-252.353 108.983,-245.601"/>
</g>
<!-- HITs/pushout&#45;&gt;HITs/suspension -->
<g id="edge43" class="edge"><title>HITs/pushout&#45;&gt;HITs/suspension</title>
<path fill="none" stroke="black" d="M432.508,-289.638C415.833,-279.747 393.943,-266.761 375.687,-255.931"/>
<polygon fill="black" stroke="black" points="377.442,-252.903 367.056,-250.811 373.871,-258.923 377.442,-252.903"/>
</g>
<!-- HITs/join -->
<g id="node38" class="node"><title>HITs/join</title>
<ellipse fill="none" stroke="black" cx="476.403" cy="-234" rx="45.4919" ry="18"/>
<text text-anchor="middle" x="476.403" y="-230.3" font-family="Times New Roman,serif" font-size="14.00">HITs/join</text>
</g>
<!-- HITs/pushout&#45;&gt;HITs/join -->
<g id="edge44" class="edge"><title>HITs/pushout&#45;&gt;HITs/join</title>
<path fill="none" stroke="black" d="M462.853,-287.697C464.858,-279.898 467.273,-270.509 469.504,-261.829"/>
<polygon fill="black" stroke="black" points="472.904,-262.661 472.005,-252.104 466.125,-260.918 472.904,-262.661"/>
</g>
<!-- cubical/connection -->
<g id="node42" class="node"><title>cubical/connection</title>
<ellipse fill="none" stroke="black" cx="495.403" cy="-18" rx="79.0865" ry="18"/>
<text text-anchor="middle" x="495.403" y="-14.3" font-family="Times New Roman,serif" font-size="14.00">cubical/connection</text>
</g>
<!-- cubical/path&#45;&gt;cubical/V -->
<g id="edge51" class="edge"><title>cubical/path&#45;&gt;cubical/V</title>
<path fill="none" stroke="black" d="M450.247,-79.7356C403.314,-69.8613 327.848,-53.2944 263.403,-36 259.814,-35.0367 256.106,-33.9945 252.391,-32.9167"/>
<polygon fill="black" stroke="black" points="253.197,-29.505 242.615,-30.0102 251.203,-36.2148 253.197,-29.505"/>
</g>
<!-- cubical/path&#45;&gt;HITs/moebius -->
<g id="edge52" class="edge"><title>cubical/path&#45;&gt;HITs/moebius</title>
<path fill="none" stroke="black" d="M539.981,-79.5685C588.94,-69.1514 669.858,-51.7619 739.403,-36 744.365,-34.8755 749.515,-33.692 754.676,-32.4947"/>
<polygon fill="black" stroke="black" points="755.625,-35.8674 764.568,-30.1871 754.034,-29.0504 755.625,-35.8674"/>
</g>
<!-- cubical/path&#45;&gt;cubical/connection -->
<g id="edge53" class="edge"><title>cubical/path&#45;&gt;cubical/connection</title>
<path fill="none" stroke="black" d="M495.403,-71.6966C495.403,-63.9827 495.403,-54.7125 495.403,-46.1124"/>
<polygon fill="black" stroke="black" points="498.903,-46.1043 495.403,-36.1043 491.903,-46.1044 498.903,-46.1043"/>
</g>
<!-- cubical/example -->
<g id="node44" class="node"><title>cubical/example</title>
<ellipse fill="none" stroke="black" cx="661.403" cy="-18" rx="68.7879" ry="18"/>
<text text-anchor="middle" x="661.403" y="-14.3" font-family="Times New Roman,serif" font-size="14.00">cubical/example</text>
</g>
<!-- cubical/path&#45;&gt;cubical/example -->
<g id="edge54" class="edge"><title>cubical/path&#45;&gt;cubical/example</title>
<path fill="none" stroke="black" d="M527.804,-75.3371C553.405,-64.5416 589.391,-49.3666 617.566,-37.4856"/>
<polygon fill="black" stroke="black" points="618.941,-40.7043 626.795,-33.5937 616.221,-34.2543 618.941,-40.7043"/>
</g>
<!-- cubical/square -->
<g id="node45" class="node"><title>cubical/square</title>
<ellipse fill="none" stroke="black" cx="335.403" cy="-18" rx="63.0888" ry="18"/>
<text text-anchor="middle" x="335.403" y="-14.3" font-family="Times New Roman,serif" font-size="14.00">cubical/square</text>
</g>
<!-- cubical/path&#45;&gt;cubical/square -->
<g id="edge55" class="edge"><title>cubical/path&#45;&gt;cubical/square</title>
<path fill="none" stroke="black" d="M463.793,-75.1703C439.108,-64.3708 404.578,-49.264 377.545,-37.4368"/>
<polygon fill="black" stroke="black" points="378.888,-34.2043 368.324,-33.4026 376.082,-40.6174 378.888,-34.2043"/>
</g>
<!-- theorems/functions -->
<g id="node46" class="node"><title>theorems/functions</title>
<ellipse fill="none" stroke="black" cx="659.403" cy="-594" rx="79.8859" ry="18"/>
<text text-anchor="middle" x="659.403" y="-590.3" font-family="Times New Roman,serif" font-size="14.00">theorems/functions</text>
</g>
<!-- theorems/functions&#45;&gt;types/equiv -->
<g id="edge56" class="edge"><title>theorems/functions&#45;&gt;types/equiv</title>
<path fill="none" stroke="black" d="M628.658,-577.291C608.087,-566.78 580.91,-552.894 559.191,-541.797"/>
<polygon fill="black" stroke="black" points="560.75,-538.663 550.252,-537.229 557.565,-544.896 560.75,-538.663"/>
</g>
<!-- theorems/topology -->
<g id="node47" class="node"><title>theorems/topology</title>
<ellipse fill="none" stroke="black" cx="816.403" cy="-738" rx="79.0865" ry="18"/>
<text text-anchor="middle" x="816.403" y="-734.3" font-family="Times New Roman,serif" font-size="14.00">theorems/topology</text>
</g>
</g>
</svg>
