<?xml version="1.0" encoding="UTF-8" standalone="no"?>
<!DOCTYPE svg PUBLIC "-//W3C//DTD SVG 1.1//EN"
 "http://www.w3.org/Graphics/SVG/1.1/DTD/svg11.dtd">
<!-- Generated by graphviz version 2.38.0 (20140413.2041)
 -->
<!-- Title: dependency_map Pages: 1 -->
<svg width="1369pt" height="764pt"
 viewBox="0.00 0.00 1369.11 764.00" xmlns="http://www.w3.org/2000/svg" xmlns:xlink="http://www.w3.org/1999/xlink">
<g id="graph0" class="graph" transform="scale(1 1) rotate(0) translate(4 760)">
<title>dependency_map</title>
<polygon fill="white" stroke="none" points="-4,4 -4,-760 1365.11,-760 1365.11,4 -4,4"/>
<!-- proto -->
<g id="node1" class="node"><title>proto</title>
<ellipse fill="none" stroke="black" cx="325.174" cy="-738" rx="30.5947" ry="18"/>
<text text-anchor="middle" x="325.174" y="-734.3" font-family="Times New Roman,serif" font-size="14.00">proto</text>
</g>
<!-- types/eq -->
<g id="node2" class="node"><title>types/eq</title>
<ellipse fill="none" stroke="black" cx="385.174" cy="-666" rx="41.6928" ry="18"/>
<text text-anchor="middle" x="385.174" y="-662.3" font-family="Times New Roman,serif" font-size="14.00">types/eq</text>
</g>
<!-- proto&#45;&gt;types/eq -->
<g id="edge1" class="edge"><title>proto&#45;&gt;types/eq</title>
<path fill="none" stroke="black" d="M338.49,-721.465C346.118,-712.566 355.856,-701.205 364.462,-691.164"/>
<polygon fill="black" stroke="black" points="367.209,-693.338 371.059,-683.467 361.894,-688.782 367.209,-693.338"/>
</g>
<!-- support -->
<g id="node4" class="node"><title>support</title>
<ellipse fill="none" stroke="black" cx="447.174" cy="-594" rx="38.9931" ry="18"/>
<text text-anchor="middle" x="447.174" y="-590.3" font-family="Times New Roman,serif" font-size="14.00">support</text>
</g>
<!-- types/eq&#45;&gt;support -->
<g id="edge11" class="edge"><title>types/eq&#45;&gt;support</title>
<path fill="none" stroke="black" d="M399.554,-648.765C407.458,-639.841 417.407,-628.608 426.166,-618.719"/>
<polygon fill="black" stroke="black" points="428.862,-620.954 432.872,-611.147 423.622,-616.313 428.862,-620.954"/>
</g>
<!-- types/dep_path -->
<g id="node18" class="node"><title>types/dep_path</title>
<ellipse fill="none" stroke="black" cx="323.174" cy="-594" rx="66.8882" ry="18"/>
<text text-anchor="middle" x="323.174" y="-590.3" font-family="Times New Roman,serif" font-size="14.00">types/dep_path</text>
</g>
<!-- types/eq&#45;&gt;types/dep_path -->
<g id="edge12" class="edge"><title>types/eq&#45;&gt;types/dep_path</title>
<path fill="none" stroke="black" d="M370.794,-648.765C363.004,-639.969 353.225,-628.928 344.559,-619.144"/>
<polygon fill="black" stroke="black" points="347.157,-616.799 337.907,-611.633 341.917,-621.44 347.157,-616.799"/>
</g>
<!-- meta/hott_theory -->
<g id="node3" class="node"><title>meta/hott_theory</title>
<ellipse fill="none" stroke="black" cx="446.174" cy="-738" rx="72.2875" ry="18"/>
<text text-anchor="middle" x="446.174" y="-734.3" font-family="Times New Roman,serif" font-size="14.00">meta/hott_theory</text>
</g>
<!-- meta/hott_theory&#45;&gt;types/eq -->
<g id="edge2" class="edge"><title>meta/hott_theory&#45;&gt;types/eq</title>
<path fill="none" stroke="black" d="M431.408,-720.055C423.805,-711.33 414.406,-700.544 406.072,-690.981"/>
<polygon fill="black" stroke="black" points="408.593,-688.547 399.385,-683.307 403.316,-693.146 408.593,-688.547"/>
</g>
<!-- types/equiv -->
<g id="node5" class="node"><title>types/equiv</title>
<ellipse fill="none" stroke="black" cx="447.174" cy="-522" rx="51.9908" ry="18"/>
<text text-anchor="middle" x="447.174" y="-518.3" font-family="Times New Roman,serif" font-size="14.00">types/equiv</text>
</g>
<!-- support&#45;&gt;types/equiv -->
<g id="edge3" class="edge"><title>support&#45;&gt;types/equiv</title>
<path fill="none" stroke="black" d="M447.174,-575.697C447.174,-567.983 447.174,-558.712 447.174,-550.112"/>
<polygon fill="black" stroke="black" points="450.674,-550.104 447.174,-540.104 443.674,-550.104 450.674,-550.104"/>
</g>
<!-- HITs/infinitesimal -->
<g id="node11" class="node"><title>HITs/infinitesimal</title>
<ellipse fill="none" stroke="black" stroke-dasharray="5,2" cx="203.174" cy="-450" rx="74.9875" ry="18"/>
<text text-anchor="middle" x="203.174" y="-446.3" font-family="Times New Roman,serif" font-size="14.00">HITs/infinitesimal</text>
</g>
<!-- types/equiv&#45;&gt;HITs/infinitesimal -->
<g id="edge13" class="edge"><title>types/equiv&#45;&gt;HITs/infinitesimal</title>
<path fill="none" stroke="black" d="M408.512,-509.908C368.325,-498.379 305.03,-480.221 259.331,-467.111"/>
<polygon fill="black" stroke="black" points="260.15,-463.704 249.572,-464.311 258.219,-470.433 260.15,-463.704"/>
</g>
<!-- types/coproduct -->
<g id="node16" class="node"><title>types/coproduct</title>
<ellipse fill="none" stroke="black" cx="515.174" cy="-450" rx="70.6878" ry="18"/>
<text text-anchor="middle" x="515.174" y="-446.3" font-family="Times New Roman,serif" font-size="14.00">types/coproduct</text>
</g>
<!-- types/equiv&#45;&gt;types/coproduct -->
<g id="edge14" class="edge"><title>types/equiv&#45;&gt;types/coproduct</title>
<path fill="none" stroke="black" d="M462.946,-504.765C471.575,-495.882 482.428,-484.709 492.002,-474.854"/>
<polygon fill="black" stroke="black" points="494.559,-477.245 499.016,-467.633 489.538,-472.367 494.559,-477.245"/>
</g>
<!-- types/heq -->
<g id="node19" class="node"><title>types/heq</title>
<ellipse fill="none" stroke="black" cx="710.174" cy="-450" rx="46.2923" ry="18"/>
<text text-anchor="middle" x="710.174" y="-446.3" font-family="Times New Roman,serif" font-size="14.00">types/heq</text>
</g>
<!-- types/equiv&#45;&gt;types/heq -->
<g id="edge15" class="edge"><title>types/equiv&#45;&gt;types/heq</title>
<path fill="none" stroke="black" d="M487.118,-510.369C534.44,-497.773 613.164,-476.82 663.319,-463.471"/>
<polygon fill="black" stroke="black" points="664.496,-466.78 673.259,-460.825 662.695,-460.015 664.496,-466.78"/>
</g>
<!-- types/integer -->
<g id="node20" class="node"><title>types/integer</title>
<ellipse fill="none" stroke="black" cx="168.174" cy="-378" rx="56.59" ry="18"/>
<text text-anchor="middle" x="168.174" y="-374.3" font-family="Times New Roman,serif" font-size="14.00">types/integer</text>
</g>
<!-- types/equiv&#45;&gt;types/integer -->
<g id="edge16" class="edge"><title>types/equiv&#45;&gt;types/integer</title>
<path fill="none" stroke="black" d="M410.798,-509C385.618,-499.805 351.952,-485.701 325.174,-468 305.767,-455.171 306.522,-444.918 287.174,-432 264.791,-417.056 237.504,-404.553 214.708,-395.451"/>
<polygon fill="black" stroke="black" points="215.83,-392.131 205.241,-391.761 213.287,-398.653 215.83,-392.131"/>
</g>
<!-- types/lost -->
<g id="node21" class="node"><title>types/lost</title>
<ellipse fill="none" stroke="black" cx="820.174" cy="-450" rx="46.2923" ry="18"/>
<text text-anchor="middle" x="820.174" y="-446.3" font-family="Times New Roman,serif" font-size="14.00">types/lost</text>
</g>
<!-- types/equiv&#45;&gt;types/lost -->
<g id="edge17" class="edge"><title>types/equiv&#45;&gt;types/lost</title>
<path fill="none" stroke="black" d="M495.254,-515.04C557.88,-506.81 670.542,-490.403 765.174,-468 768.843,-467.132 772.624,-466.15 776.405,-465.107"/>
<polygon fill="black" stroke="black" points="777.7,-468.377 786.337,-462.241 775.759,-461.651 777.7,-468.377"/>
</g>
<!-- types/unit -->
<g id="node22" class="node"><title>types/unit</title>
<ellipse fill="none" stroke="black" cx="380.174" cy="-450" rx="46.2923" ry="18"/>
<text text-anchor="middle" x="380.174" y="-446.3" font-family="Times New Roman,serif" font-size="14.00">types/unit</text>
</g>
<!-- types/equiv&#45;&gt;types/unit -->
<g id="edge18" class="edge"><title>types/equiv&#45;&gt;types/unit</title>
<path fill="none" stroke="black" d="M431.635,-504.765C423.009,-495.753 412.129,-484.385 402.596,-474.426"/>
<polygon fill="black" stroke="black" points="405.073,-471.951 395.629,-467.147 400.016,-476.792 405.073,-471.951"/>
</g>
<!-- structures -->
<g id="node6" class="node"><title>structures</title>
<ellipse fill="none" stroke="black" cx="407.174" cy="-378" rx="46.2923" ry="18"/>
<text text-anchor="middle" x="407.174" y="-374.3" font-family="Times New Roman,serif" font-size="14.00">structures</text>
</g>
<!-- HITs/interval -->
<g id="node7" class="node"><title>HITs/interval</title>
<ellipse fill="none" stroke="black" cx="617.174" cy="-306" rx="57.6901" ry="18"/>
<text text-anchor="middle" x="617.174" y="-302.3" font-family="Times New Roman,serif" font-size="14.00">HITs/interval</text>
</g>
<!-- structures&#45;&gt;HITs/interval -->
<g id="edge4" class="edge"><title>structures&#45;&gt;HITs/interval</title>
<path fill="none" stroke="black" d="M441.382,-365.597C476.203,-353.99 530.468,-335.902 569.496,-322.893"/>
<polygon fill="black" stroke="black" points="570.69,-326.184 579.07,-319.702 568.476,-319.543 570.69,-326.184"/>
</g>
<!-- HITs/truncation -->
<g id="node8" class="node"><title>HITs/truncation</title>
<ellipse fill="none" stroke="black" cx="911.174" cy="-306" rx="68.4888" ry="18"/>
<text text-anchor="middle" x="911.174" y="-302.3" font-family="Times New Roman,serif" font-size="14.00">HITs/truncation</text>
</g>
<!-- structures&#45;&gt;HITs/truncation -->
<g id="edge5" class="edge"><title>structures&#45;&gt;HITs/truncation</title>
<path fill="none" stroke="black" d="M440.637,-365.479C447.683,-363.386 455.12,-361.42 462.174,-360 623.279,-327.57 667.738,-348.915 830.174,-324 836.949,-322.961 844.012,-321.719 851.02,-320.385"/>
<polygon fill="black" stroke="black" points="852.073,-323.745 861.208,-318.379 850.72,-316.877 852.073,-323.745"/>
</g>
<!-- algebra/core -->
<g id="node9" class="node"><title>algebra/core</title>
<ellipse fill="none" stroke="black" cx="87.1742" cy="-306" rx="55.4913" ry="18"/>
<text text-anchor="middle" x="87.1742" y="-302.3" font-family="Times New Roman,serif" font-size="14.00">algebra/core</text>
</g>
<!-- structures&#45;&gt;algebra/core -->
<g id="edge6" class="edge"><title>structures&#45;&gt;algebra/core</title>
<path fill="none" stroke="black" d="M366.673,-369.336C316.076,-359.595 226.929,-341.889 151.174,-324 146.84,-322.977 142.353,-321.874 137.857,-320.739"/>
<polygon fill="black" stroke="black" points="138.616,-317.32 128.059,-318.222 136.874,-324.1 138.616,-317.32"/>
</g>
<!-- types/product -->
<g id="node28" class="node"><title>types/product</title>
<ellipse fill="none" stroke="black" cx="615.174" cy="-234" rx="61.99" ry="18"/>
<text text-anchor="middle" x="615.174" y="-230.3" font-family="Times New Roman,serif" font-size="14.00">types/product</text>
</g>
<!-- HITs/interval&#45;&gt;types/product -->
<g id="edge39" class="edge"><title>HITs/interval&#45;&gt;types/product</title>
<path fill="none" stroke="black" d="M616.68,-287.697C616.459,-279.983 616.195,-270.712 615.949,-262.112"/>
<polygon fill="black" stroke="black" points="619.447,-262 615.663,-252.104 612.45,-262.2 619.447,-262"/>
</g>
<!-- theorems/prop -->
<g id="node36" class="node"><title>theorems/prop</title>
<ellipse fill="none" stroke="black" cx="758.174" cy="-234" rx="63.8893" ry="18"/>
<text text-anchor="middle" x="758.174" y="-230.3" font-family="Times New Roman,serif" font-size="14.00">theorems/prop</text>
</g>
<!-- HITs/interval&#45;&gt;theorems/prop -->
<g id="edge40" class="edge"><title>HITs/interval&#45;&gt;theorems/prop</title>
<path fill="none" stroke="black" d="M646.732,-290.326C667.741,-279.896 696.172,-265.781 719.059,-254.419"/>
<polygon fill="black" stroke="black" points="720.769,-257.478 728.169,-249.896 717.656,-251.208 720.769,-257.478"/>
</g>
<!-- theorems/graphs -->
<g id="node34" class="node"><title>theorems/graphs</title>
<ellipse fill="none" stroke="black" cx="911.174" cy="-234" rx="70.6878" ry="18"/>
<text text-anchor="middle" x="911.174" y="-230.3" font-family="Times New Roman,serif" font-size="14.00">theorems/graphs</text>
</g>
<!-- HITs/truncation&#45;&gt;theorems/graphs -->
<g id="edge45" class="edge"><title>HITs/truncation&#45;&gt;theorems/graphs</title>
<path fill="none" stroke="black" d="M911.174,-287.697C911.174,-279.983 911.174,-270.712 911.174,-262.112"/>
<polygon fill="black" stroke="black" points="914.674,-262.104 911.174,-252.104 907.674,-262.104 914.674,-262.104"/>
</g>
<!-- HITs/truncation&#45;&gt;theorems/prop -->
<g id="edge46" class="edge"><title>HITs/truncation&#45;&gt;theorems/prop</title>
<path fill="none" stroke="black" d="M878.727,-290.155C855.548,-279.55 824.184,-265.201 799.258,-253.796"/>
<polygon fill="black" stroke="black" points="800.6,-250.562 790.05,-249.584 797.687,-256.927 800.6,-250.562"/>
</g>
<!-- HITs/simplicial -->
<g id="node39" class="node"><title>HITs/simplicial</title>
<ellipse fill="none" stroke="black" cx="1065.17" cy="-234" rx="65.7887" ry="18"/>
<text text-anchor="middle" x="1065.17" y="-230.3" font-family="Times New Roman,serif" font-size="14.00">HITs/simplicial</text>
</g>
<!-- HITs/truncation&#45;&gt;HITs/simplicial -->
<g id="edge47" class="edge"><title>HITs/truncation&#45;&gt;HITs/simplicial</title>
<path fill="none" stroke="black" d="M943.834,-290.155C967.086,-279.586 998.521,-265.297 1023.57,-253.911"/>
<polygon fill="black" stroke="black" points="1025.17,-257.028 1032.83,-249.704 1022.27,-250.655 1025.17,-257.028"/>
</g>
<!-- theorems/mere_eq_lemma -->
<g id="node40" class="node"><title>theorems/mere_eq_lemma</title>
<ellipse fill="none" stroke="black" cx="1255.17" cy="-234" rx="105.881" ry="18"/>
<text text-anchor="middle" x="1255.17" y="-230.3" font-family="Times New Roman,serif" font-size="14.00">theorems/mere_eq_lemma</text>
</g>
<!-- HITs/truncation&#45;&gt;theorems/mere_eq_lemma -->
<g id="edge48" class="edge"><title>HITs/truncation&#45;&gt;theorems/mere_eq_lemma</title>
<path fill="none" stroke="black" d="M963.42,-294.369C1021.17,-282.618 1114.66,-263.593 1180.21,-250.254"/>
<polygon fill="black" stroke="black" points="1180.97,-253.671 1190.08,-248.247 1179.58,-246.811 1180.97,-253.671"/>
</g>
<!-- algebra/group -->
<g id="node15" class="node"><title>algebra/group</title>
<ellipse fill="none" stroke="black" cx="87.1742" cy="-234" rx="60.3893" ry="18"/>
<text text-anchor="middle" x="87.1742" y="-230.3" font-family="Times New Roman,serif" font-size="14.00">algebra/group</text>
</g>
<!-- algebra/core&#45;&gt;algebra/group -->
<g id="edge7" class="edge"><title>algebra/core&#45;&gt;algebra/group</title>
<path fill="none" stroke="black" d="M87.1742,-287.697C87.1742,-279.983 87.1742,-270.712 87.1742,-262.112"/>
<polygon fill="black" stroke="black" points="90.6743,-262.104 87.1742,-252.104 83.6743,-262.104 90.6743,-262.104"/>
</g>
<!-- HITs/circle -->
<g id="node10" class="node"><title>HITs/circle</title>
<ellipse fill="none" stroke="black" stroke-dasharray="5,2" cx="266.174" cy="-90" rx="51.9908" ry="18"/>
<text text-anchor="middle" x="266.174" y="-86.3" font-family="Times New Roman,serif" font-size="14.00">HITs/circle</text>
</g>
<!-- HITs/ntrunc -->
<g id="node12" class="node"><title>HITs/ntrunc</title>
<ellipse fill="none" stroke="black" stroke-dasharray="5,2" cx="260.174" cy="-18" rx="55.4913" ry="18"/>
<text text-anchor="middle" x="260.174" y="-14.3" font-family="Times New Roman,serif" font-size="14.00">HITs/ntrunc</text>
</g>
<!-- HITs/circle&#45;&gt;HITs/ntrunc -->
<g id="edge33" class="edge"><title>HITs/circle&#45;&gt;HITs/ntrunc</title>
<path fill="none" stroke="black" d="M264.691,-71.6966C264.03,-63.9827 263.235,-54.7125 262.498,-46.1124"/>
<polygon fill="black" stroke="black" points="265.982,-45.7689 261.64,-36.1043 259.007,-46.3667 265.982,-45.7689"/>
</g>
<!-- theorems/ua -->
<g id="node13" class="node"><title>theorems/ua</title>
<ellipse fill="none" stroke="black" stroke-dasharray="5,2" cx="379.174" cy="-162" rx="54.6905" ry="18"/>
<text text-anchor="middle" x="379.174" y="-158.3" font-family="Times New Roman,serif" font-size="14.00">theorems/ua</text>
</g>
<!-- theorems/ua&#45;&gt;HITs/circle -->
<g id="edge56" class="edge"><title>theorems/ua&#45;&gt;HITs/circle</title>
<path fill="none" stroke="black" d="M354.655,-145.811C338.514,-135.813 317.182,-122.598 299.508,-111.649"/>
<polygon fill="black" stroke="black" points="300.99,-108.45 290.646,-106.159 297.304,-114.401 300.99,-108.45"/>
</g>
<!-- cubical/V -->
<g id="node14" class="node"><title>cubical/V</title>
<ellipse fill="none" stroke="black" stroke-dasharray="5,2" cx="379.174" cy="-18" rx="45.4919" ry="18"/>
<text text-anchor="middle" x="379.174" y="-14.3" font-family="Times New Roman,serif" font-size="14.00">cubical/V</text>
</g>
<!-- theorems/ua&#45;&gt;cubical/V -->
<g id="edge57" class="edge"><title>theorems/ua&#45;&gt;cubical/V</title>
<path fill="none" stroke="black" d="M379.174,-143.871C379.174,-119.67 379.174,-75.2108 379.174,-46.3932"/>
<polygon fill="black" stroke="black" points="382.674,-46.1892 379.174,-36.1893 375.674,-46.1893 382.674,-46.1892"/>
</g>
<!-- types/coproduct&#45;&gt;structures -->
<g id="edge8" class="edge"><title>types/coproduct&#45;&gt;structures</title>
<path fill="none" stroke="black" d="M490.397,-432.941C475.054,-422.996 455.206,-410.132 438.742,-399.461"/>
<polygon fill="black" stroke="black" points="440.289,-396.292 429.994,-393.79 436.482,-402.166 440.289,-396.292"/>
</g>
<!-- types/nat -->
<g id="node17" class="node"><title>types/nat</title>
<ellipse fill="none" stroke="black" cx="515.174" cy="-378" rx="43.5923" ry="18"/>
<text text-anchor="middle" x="515.174" y="-374.3" font-family="Times New Roman,serif" font-size="14.00">types/nat</text>
</g>
<!-- types/coproduct&#45;&gt;types/nat -->
<g id="edge9" class="edge"><title>types/coproduct&#45;&gt;types/nat</title>
<path fill="none" stroke="black" d="M515.174,-431.697C515.174,-423.983 515.174,-414.712 515.174,-406.112"/>
<polygon fill="black" stroke="black" points="518.674,-406.104 515.174,-396.104 511.674,-406.104 518.674,-406.104"/>
</g>
<!-- types/dep_path&#45;&gt;types/equiv -->
<g id="edge10" class="edge"><title>types/dep_path&#45;&gt;types/equiv</title>
<path fill="none" stroke="black" d="M350.694,-577.465C368.803,-567.242 392.666,-553.771 412.129,-542.783"/>
<polygon fill="black" stroke="black" points="414.017,-545.737 421.005,-537.773 410.576,-539.641 414.017,-545.737"/>
</g>
<!-- types/heq&#45;&gt;HITs/interval -->
<g id="edge19" class="edge"><title>types/heq&#45;&gt;HITs/interval</title>
<path fill="none" stroke="black" d="M710.108,-431.87C709.266,-412.849 705.543,-381.941 691.174,-360 682.297,-346.444 668.659,-335.245 655.498,-326.689"/>
<polygon fill="black" stroke="black" points="657.326,-323.704 646.973,-321.45 653.661,-329.668 657.326,-323.704"/>
</g>
<!-- HITs/colimit -->
<g id="node23" class="node"><title>HITs/colimit</title>
<ellipse fill="none" stroke="black" cx="1057.17" cy="-378" rx="56.59" ry="18"/>
<text text-anchor="middle" x="1057.17" y="-374.3" font-family="Times New Roman,serif" font-size="14.00">HITs/colimit</text>
</g>
<!-- types/heq&#45;&gt;HITs/colimit -->
<g id="edge20" class="edge"><title>types/heq&#45;&gt;HITs/colimit</title>
<path fill="none" stroke="black" d="M744.002,-437.72C750.955,-435.634 758.263,-433.61 765.174,-432 864.233,-408.924 891.594,-416.708 991.174,-396 995.92,-395.013 1000.84,-393.907 1005.75,-392.744"/>
<polygon fill="black" stroke="black" points="1006.88,-396.07 1015.77,-390.3 1005.22,-389.27 1006.88,-396.07"/>
</g>
<!-- HITs/generalized -->
<g id="node24" class="node"><title>HITs/generalized</title>
<ellipse fill="none" stroke="black" cx="910.174" cy="-378" rx="72.2875" ry="18"/>
<text text-anchor="middle" x="910.174" y="-374.3" font-family="Times New Roman,serif" font-size="14.00">HITs/generalized</text>
</g>
<!-- types/heq&#45;&gt;HITs/generalized -->
<g id="edge21" class="edge"><title>types/heq&#45;&gt;HITs/generalized</title>
<path fill="none" stroke="black" d="M743.65,-437.284C775.601,-426.101 824.133,-409.114 860.575,-396.36"/>
<polygon fill="black" stroke="black" points="861.752,-399.656 870.035,-393.049 859.44,-393.049 861.752,-399.656"/>
</g>
<!-- HITs/int -->
<g id="node25" class="node"><title>HITs/int</title>
<ellipse fill="none" stroke="black" cx="779.174" cy="-378" rx="40.8928" ry="18"/>
<text text-anchor="middle" x="779.174" y="-374.3" font-family="Times New Roman,serif" font-size="14.00">HITs/int</text>
</g>
<!-- types/heq&#45;&gt;HITs/int -->
<g id="edge22" class="edge"><title>types/heq&#45;&gt;HITs/int</title>
<path fill="none" stroke="black" d="M726.178,-432.765C735.06,-423.753 746.266,-412.385 756.083,-402.426"/>
<polygon fill="black" stroke="black" points="758.73,-404.726 763.258,-395.147 753.745,-399.812 758.73,-404.726"/>
</g>
<!-- HITs/graph -->
<g id="node26" class="node"><title>HITs/graph</title>
<ellipse fill="none" stroke="black" cx="629.174" cy="-378" rx="52.7911" ry="18"/>
<text text-anchor="middle" x="629.174" y="-374.3" font-family="Times New Roman,serif" font-size="14.00">HITs/graph</text>
</g>
<!-- types/heq&#45;&gt;HITs/graph -->
<g id="edge23" class="edge"><title>types/heq&#45;&gt;HITs/graph</title>
<path fill="none" stroke="black" d="M691.794,-433.116C681.099,-423.874 667.436,-412.066 655.603,-401.84"/>
<polygon fill="black" stroke="black" points="657.617,-398.954 647.762,-395.064 653.04,-404.25 657.617,-398.954"/>
</g>
<!-- types/integer&#45;&gt;algebra/core -->
<g id="edge24" class="edge"><title>types/integer&#45;&gt;algebra/core</title>
<path fill="none" stroke="black" d="M149.388,-360.765C138.755,-351.576 125.289,-339.938 113.606,-329.842"/>
<polygon fill="black" stroke="black" points="115.714,-327.038 105.859,-323.147 111.137,-332.334 115.714,-327.038"/>
</g>
<!-- types/integer&#45;&gt;HITs/circle -->
<g id="edge25" class="edge"><title>types/integer&#45;&gt;HITs/circle</title>
<path fill="none" stroke="black" d="M114.759,-371.782C82.9014,-365.682 44.601,-352.489 23.1742,-324 -5.70845,-285.598 -7.02208,-256.916 18.1742,-216 60.0584,-147.985 151.591,-115.652 210.973,-101.302"/>
<polygon fill="black" stroke="black" points="211.991,-104.659 220.941,-98.989 210.408,-97.8405 211.991,-104.659"/>
</g>
<!-- HITs/reals -->
<g id="node27" class="node"><title>HITs/reals</title>
<ellipse fill="none" stroke="black" cx="214.174" cy="-234" rx="48.9926" ry="18"/>
<text text-anchor="middle" x="214.174" y="-230.3" font-family="Times New Roman,serif" font-size="14.00">HITs/reals</text>
</g>
<!-- types/integer&#45;&gt;HITs/reals -->
<g id="edge26" class="edge"><title>types/integer&#45;&gt;HITs/reals</title>
<path fill="none" stroke="black" d="M212.82,-366.865C235.679,-359.17 261.51,-346.017 275.174,-324 283.611,-310.405 281.811,-302.559 275.174,-288 269.285,-275.081 258.519,-264.094 247.652,-255.529"/>
<polygon fill="black" stroke="black" points="249.531,-252.567 239.402,-249.461 245.383,-258.206 249.531,-252.567"/>
</g>
<!-- types/unit&#45;&gt;structures -->
<g id="edge31" class="edge"><title>types/unit&#45;&gt;structures</title>
<path fill="none" stroke="black" d="M386.71,-432.055C389.749,-424.176 393.436,-414.617 396.839,-405.794"/>
<polygon fill="black" stroke="black" points="400.178,-406.865 400.511,-396.275 393.647,-404.346 400.178,-406.865"/>
</g>
<!-- HITs/suspension -->
<g id="node32" class="node"><title>HITs/suspension</title>
<ellipse fill="none" stroke="black" cx="354.174" cy="-234" rx="72.5877" ry="18"/>
<text text-anchor="middle" x="354.174" y="-230.3" font-family="Times New Roman,serif" font-size="14.00">HITs/suspension</text>
</g>
<!-- types/unit&#45;&gt;HITs/suspension -->
<g id="edge32" class="edge"><title>types/unit&#45;&gt;HITs/suspension</title>
<path fill="none" stroke="black" d="M368.578,-432.197C362.379,-422.179 355.379,-408.929 352.174,-396 340.813,-350.172 345.314,-294.731 349.692,-262.312"/>
<polygon fill="black" stroke="black" points="353.18,-262.645 351.149,-252.247 346.253,-261.643 353.18,-262.645"/>
</g>
<!-- HITs/colimit&#45;&gt;HITs/truncation -->
<g id="edge34" class="edge"><title>HITs/colimit&#45;&gt;HITs/truncation</title>
<path fill="none" stroke="black" d="M1027.28,-362.666C1005.48,-352.213 975.686,-337.93 951.74,-326.449"/>
<polygon fill="black" stroke="black" points="953.076,-323.208 942.545,-322.041 950.049,-329.52 953.076,-323.208"/>
</g>
<!-- HITs/generalized&#45;&gt;HITs/truncation -->
<g id="edge35" class="edge"><title>HITs/generalized&#45;&gt;HITs/truncation</title>
<path fill="none" stroke="black" d="M910.421,-359.697C910.532,-351.983 910.664,-342.712 910.787,-334.112"/>
<polygon fill="black" stroke="black" points="914.287,-334.153 910.93,-324.104 907.287,-334.053 914.287,-334.153"/>
</g>
<!-- HITs/rat -->
<g id="node35" class="node"><title>HITs/rat</title>
<ellipse fill="none" stroke="black" cx="779.174" cy="-306" rx="41.6928" ry="18"/>
<text text-anchor="middle" x="779.174" y="-302.3" font-family="Times New Roman,serif" font-size="14.00">HITs/rat</text>
</g>
<!-- HITs/int&#45;&gt;HITs/rat -->
<g id="edge38" class="edge"><title>HITs/int&#45;&gt;HITs/rat</title>
<path fill="none" stroke="black" d="M779.174,-359.697C779.174,-351.983 779.174,-342.712 779.174,-334.112"/>
<polygon fill="black" stroke="black" points="782.674,-334.104 779.174,-324.104 775.674,-334.104 782.674,-334.104"/>
</g>
<!-- HITs/pushout -->
<g id="node33" class="node"><title>HITs/pushout</title>
<ellipse fill="none" stroke="black" cx="452.174" cy="-306" rx="61.99" ry="18"/>
<text text-anchor="middle" x="452.174" y="-302.3" font-family="Times New Roman,serif" font-size="14.00">HITs/pushout</text>
</g>
<!-- HITs/graph&#45;&gt;HITs/pushout -->
<g id="edge36" class="edge"><title>HITs/graph&#45;&gt;HITs/pushout</title>
<path fill="none" stroke="black" d="M595.882,-363.834C567.96,-352.791 527.831,-336.921 497.07,-324.756"/>
<polygon fill="black" stroke="black" points="498.026,-321.37 487.44,-320.947 495.452,-327.879 498.026,-321.37"/>
</g>
<!-- HITs/graph&#45;&gt;theorems/graphs -->
<g id="edge37" class="edge"><title>HITs/graph&#45;&gt;theorems/graphs</title>
<path fill="none" stroke="black" d="M646.479,-360.669C672.314,-336.408 718.931,-293.135 728.174,-288 749.343,-276.24 806.165,-260.594 850.93,-249.354"/>
<polygon fill="black" stroke="black" points="852,-252.694 860.859,-246.883 850.31,-245.902 852,-252.694"/>
</g>
<!-- types/product&#45;&gt;theorems/ua -->
<g id="edge27" class="edge"><title>types/product&#45;&gt;theorems/ua</title>
<path fill="none" stroke="black" d="M573.525,-220.647C532.891,-208.594 471.087,-190.262 428.124,-177.519"/>
<polygon fill="black" stroke="black" points="429.028,-174.137 418.446,-174.648 427.038,-180.848 429.028,-174.137"/>
</g>
<!-- cubical/cubes -->
<g id="node29" class="node"><title>cubical/cubes</title>
<ellipse fill="none" stroke="black" cx="641.174" cy="-162" rx="60.3893" ry="18"/>
<text text-anchor="middle" x="641.174" y="-158.3" font-family="Times New Roman,serif" font-size="14.00">cubical/cubes</text>
</g>
<!-- types/product&#45;&gt;cubical/cubes -->
<g id="edge28" class="edge"><title>types/product&#45;&gt;cubical/cubes</title>
<path fill="none" stroke="black" d="M621.468,-216.055C624.394,-208.176 627.945,-198.617 631.222,-189.794"/>
<polygon fill="black" stroke="black" points="634.557,-190.868 634.758,-180.275 627.995,-188.431 634.557,-190.868"/>
</g>
<!-- cubical/path -->
<g id="node42" class="node"><title>cubical/path</title>
<ellipse fill="none" stroke="black" cx="654.174" cy="-90" rx="54.6905" ry="18"/>
<text text-anchor="middle" x="654.174" y="-86.3" font-family="Times New Roman,serif" font-size="14.00">cubical/path</text>
</g>
<!-- cubical/cubes&#45;&gt;cubical/path -->
<g id="edge49" class="edge"><title>cubical/cubes&#45;&gt;cubical/path</title>
<path fill="none" stroke="black" d="M644.388,-143.697C645.82,-135.983 647.542,-126.712 649.139,-118.112"/>
<polygon fill="black" stroke="black" points="652.613,-118.575 650.998,-108.104 645.731,-117.297 652.613,-118.575"/>
</g>
<!-- types/sigma -->
<g id="node30" class="node"><title>types/sigma</title>
<ellipse fill="none" stroke="black" cx="590.174" cy="-738" rx="53.8905" ry="18"/>
<text text-anchor="middle" x="590.174" y="-734.3" font-family="Times New Roman,serif" font-size="14.00">types/sigma</text>
</g>
<!-- types/swale -->
<g id="node31" class="node"><title>types/swale</title>
<ellipse fill="none" stroke="black" cx="213.174" cy="-306" rx="52.7911" ry="18"/>
<text text-anchor="middle" x="213.174" y="-302.3" font-family="Times New Roman,serif" font-size="14.00">types/swale</text>
</g>
<!-- types/swale&#45;&gt;algebra/group -->
<g id="edge29" class="edge"><title>types/swale&#45;&gt;algebra/group</title>
<path fill="none" stroke="black" d="M186.76,-290.326C168.362,-280.105 143.594,-266.344 123.361,-255.104"/>
<polygon fill="black" stroke="black" points="124.865,-251.935 114.423,-250.138 121.465,-258.054 124.865,-251.935"/>
</g>
<!-- types/swale&#45;&gt;HITs/reals -->
<g id="edge30" class="edge"><title>types/swale&#45;&gt;HITs/reals</title>
<path fill="none" stroke="black" d="M213.421,-287.697C213.532,-279.983 213.664,-270.712 213.787,-262.112"/>
<polygon fill="black" stroke="black" points="217.287,-262.153 213.93,-252.104 210.287,-262.053 217.287,-262.153"/>
</g>
<!-- HITs/suspension&#45;&gt;HITs/circle -->
<g id="edge44" class="edge"><title>HITs/suspension&#45;&gt;HITs/circle</title>
<path fill="none" stroke="black" d="M340.945,-216.215C333.106,-205.984 323.174,-192.513 315.174,-180 302.027,-159.436 288.777,-135.1 279.375,-117.077"/>
<polygon fill="black" stroke="black" points="282.272,-115.058 274.574,-107.779 276.052,-118.27 282.272,-115.058"/>
</g>
<!-- HITs/pushout&#45;&gt;HITs/reals -->
<g id="edge41" class="edge"><title>HITs/pushout&#45;&gt;HITs/reals</title>
<path fill="none" stroke="black" d="M410.445,-292.727C368.641,-280.431 304.423,-261.544 260.926,-248.75"/>
<polygon fill="black" stroke="black" points="261.74,-245.342 251.159,-245.878 259.765,-252.057 261.74,-245.342"/>
</g>
<!-- HITs/pushout&#45;&gt;HITs/suspension -->
<g id="edge42" class="edge"><title>HITs/pushout&#45;&gt;HITs/suspension</title>
<path fill="none" stroke="black" d="M429.936,-289.116C416.718,-279.674 399.752,-267.556 385.227,-257.181"/>
<polygon fill="black" stroke="black" points="387.176,-254.271 377.004,-251.307 383.107,-259.967 387.176,-254.271"/>
</g>
<!-- HITs/join -->
<g id="node37" class="node"><title>HITs/join</title>
<ellipse fill="none" stroke="black" cx="490.174" cy="-234" rx="45.4919" ry="18"/>
<text text-anchor="middle" x="490.174" y="-230.3" font-family="Times New Roman,serif" font-size="14.00">HITs/join</text>
</g>
<!-- HITs/pushout&#45;&gt;HITs/join -->
<g id="edge43" class="edge"><title>HITs/pushout&#45;&gt;HITs/join</title>
<path fill="none" stroke="black" d="M461.373,-288.055C465.807,-279.887 471.222,-269.912 476.155,-260.824"/>
<polygon fill="black" stroke="black" points="479.365,-262.247 481.06,-251.789 473.213,-258.908 479.365,-262.247"/>
</g>
<!-- HITs/moebius -->
<g id="node38" class="node"><title>HITs/moebius</title>
<ellipse fill="none" stroke="black" cx="805.174" cy="-18" rx="63.0888" ry="18"/>
<text text-anchor="middle" x="805.174" y="-14.3" font-family="Times New Roman,serif" font-size="14.00">HITs/moebius</text>
</g>
<!-- cubical/connection -->
<g id="node41" class="node"><title>cubical/connection</title>
<ellipse fill="none" stroke="black" cx="965.174" cy="-18" rx="79.0865" ry="18"/>
<text text-anchor="middle" x="965.174" y="-14.3" font-family="Times New Roman,serif" font-size="14.00">cubical/connection</text>
</g>
<!-- cubical/path&#45;&gt;cubical/V -->
<g id="edge50" class="edge"><title>cubical/path&#45;&gt;cubical/V</title>
<path fill="none" stroke="black" d="M609.915,-79.339C565.132,-69.3405 494.014,-52.8498 433.174,-36 429.804,-35.0667 426.328,-34.0644 422.84,-33.0304"/>
<polygon fill="black" stroke="black" points="423.643,-29.6167 413.058,-30.0632 421.611,-36.3153 423.643,-29.6167"/>
</g>
<!-- cubical/path&#45;&gt;HITs/moebius -->
<g id="edge51" class="edge"><title>cubical/path&#45;&gt;HITs/moebius</title>
<path fill="none" stroke="black" d="M684.368,-75.0027C707.263,-64.3892 738.978,-49.6868 764.168,-38.0095"/>
<polygon fill="black" stroke="black" points="765.87,-41.0782 773.471,-33.697 762.926,-34.7274 765.87,-41.0782"/>
</g>
<!-- cubical/path&#45;&gt;cubical/connection -->
<g id="edge52" class="edge"><title>cubical/path&#45;&gt;cubical/connection</title>
<path fill="none" stroke="black" d="M698.073,-79.1192C751.048,-67.1956 840.545,-47.0515 901.199,-33.3996"/>
<polygon fill="black" stroke="black" points="902.062,-36.793 911.049,-31.1824 900.525,-29.9638 902.062,-36.793"/>
</g>
<!-- cubical/example -->
<g id="node43" class="node"><title>cubical/example</title>
<ellipse fill="none" stroke="black" cx="511.174" cy="-18" rx="68.7879" ry="18"/>
<text text-anchor="middle" x="511.174" y="-14.3" font-family="Times New Roman,serif" font-size="14.00">cubical/example</text>
</g>
<!-- cubical/path&#45;&gt;cubical/example -->
<g id="edge53" class="edge"><title>cubical/path&#45;&gt;cubical/example</title>
<path fill="none" stroke="black" d="M624.891,-74.6655C603.611,-64.2486 574.557,-50.0267 551.144,-38.5658"/>
<polygon fill="black" stroke="black" points="552.671,-35.4161 542.15,-34.163 549.593,-41.7033 552.671,-35.4161"/>
</g>
<!-- cubical/square -->
<g id="node44" class="node"><title>cubical/square</title>
<ellipse fill="none" stroke="black" cx="661.174" cy="-18" rx="63.0888" ry="18"/>
<text text-anchor="middle" x="661.174" y="-14.3" font-family="Times New Roman,serif" font-size="14.00">cubical/square</text>
</g>
<!-- cubical/path&#45;&gt;cubical/square -->
<g id="edge54" class="edge"><title>cubical/path&#45;&gt;cubical/square</title>
<path fill="none" stroke="black" d="M655.905,-71.6966C656.676,-63.9827 657.603,-54.7125 658.463,-46.1124"/>
<polygon fill="black" stroke="black" points="661.951,-46.403 659.464,-36.1043 654.986,-45.7064 661.951,-46.403"/>
</g>
<!-- theorems/functions -->
<g id="node45" class="node"><title>theorems/functions</title>
<ellipse fill="none" stroke="black" cx="584.174" cy="-594" rx="79.8859" ry="18"/>
<text text-anchor="middle" x="584.174" y="-590.3" font-family="Times New Roman,serif" font-size="14.00">theorems/functions</text>
</g>
<!-- theorems/functions&#45;&gt;types/equiv -->
<g id="edge55" class="edge"><title>theorems/functions&#45;&gt;types/equiv</title>
<path fill="none" stroke="black" d="M553.429,-577.291C532.858,-566.78 505.681,-552.894 483.962,-541.797"/>
<polygon fill="black" stroke="black" points="485.521,-538.663 475.023,-537.229 482.336,-544.896 485.521,-538.663"/>
</g>
<!-- theorems/topology -->
<g id="node46" class="node"><title>theorems/topology</title>
<ellipse fill="none" stroke="black" cx="741.174" cy="-738" rx="79.0865" ry="18"/>
<text text-anchor="middle" x="741.174" y="-734.3" font-family="Times New Roman,serif" font-size="14.00">theorems/topology</text>
</g>
</g>
</svg>
