<?xml version="1.0" encoding="UTF-8" standalone="no"?>
<!DOCTYPE svg PUBLIC "-//W3C//DTD SVG 1.1//EN"
 "http://www.w3.org/Graphics/SVG/1.1/DTD/svg11.dtd">
<!-- Generated by graphviz version 2.38.0 (20140413.2041)
 -->
<!-- Title: dependency_map Pages: 1 -->
<svg width="1542pt" height="764pt"
 viewBox="0.00 0.00 1542.38 764.00" xmlns="http://www.w3.org/2000/svg" xmlns:xlink="http://www.w3.org/1999/xlink">
<g id="graph0" class="graph" transform="scale(1 1) rotate(0) translate(4 760)">
<title>dependency_map</title>
<polygon fill="white" stroke="none" points="-4,4 -4,-760 1538.38,-760 1538.38,4 -4,4"/>
<!-- proto -->
<g id="node1" class="node"><title>proto</title>
<ellipse fill="none" stroke="black" cx="378.38" cy="-738" rx="30.5947" ry="18"/>
<text text-anchor="middle" x="378.38" y="-734.3" font-family="Times New Roman,serif" font-size="14.00">proto</text>
</g>
<!-- types/eq -->
<g id="node2" class="node"><title>types/eq</title>
<ellipse fill="none" stroke="black" cx="438.38" cy="-666" rx="41.6928" ry="18"/>
<text text-anchor="middle" x="438.38" y="-662.3" font-family="Times New Roman,serif" font-size="14.00">types/eq</text>
</g>
<!-- proto&#45;&gt;types/eq -->
<g id="edge1" class="edge"><title>proto&#45;&gt;types/eq</title>
<path fill="none" stroke="black" d="M391.696,-721.465C399.324,-712.566 409.062,-701.205 417.668,-691.164"/>
<polygon fill="black" stroke="black" points="420.415,-693.338 424.266,-683.467 415.1,-688.782 420.415,-693.338"/>
</g>
<!-- support -->
<g id="node4" class="node"><title>support</title>
<ellipse fill="none" stroke="black" cx="376.38" cy="-594" rx="38.9931" ry="18"/>
<text text-anchor="middle" x="376.38" y="-590.3" font-family="Times New Roman,serif" font-size="14.00">support</text>
</g>
<!-- types/eq&#45;&gt;support -->
<g id="edge13" class="edge"><title>types/eq&#45;&gt;support</title>
<path fill="none" stroke="black" d="M424,-648.765C416.097,-639.841 406.147,-628.608 397.389,-618.719"/>
<polygon fill="black" stroke="black" points="399.933,-616.313 390.682,-611.147 394.693,-620.954 399.933,-616.313"/>
</g>
<!-- types/dep_path -->
<g id="node21" class="node"><title>types/dep_path</title>
<ellipse fill="none" stroke="black" cx="500.38" cy="-594" rx="66.8882" ry="18"/>
<text text-anchor="middle" x="500.38" y="-590.3" font-family="Times New Roman,serif" font-size="14.00">types/dep_path</text>
</g>
<!-- types/eq&#45;&gt;types/dep_path -->
<g id="edge14" class="edge"><title>types/eq&#45;&gt;types/dep_path</title>
<path fill="none" stroke="black" d="M452.76,-648.765C460.551,-639.969 470.33,-628.928 478.996,-619.144"/>
<polygon fill="black" stroke="black" points="481.638,-621.44 485.648,-611.633 476.397,-616.799 481.638,-621.44"/>
</g>
<!-- meta/hott_theory -->
<g id="node3" class="node"><title>meta/hott_theory</title>
<ellipse fill="none" stroke="black" cx="499.38" cy="-738" rx="72.2875" ry="18"/>
<text text-anchor="middle" x="499.38" y="-734.3" font-family="Times New Roman,serif" font-size="14.00">meta/hott_theory</text>
</g>
<!-- meta/hott_theory&#45;&gt;types/eq -->
<g id="edge2" class="edge"><title>meta/hott_theory&#45;&gt;types/eq</title>
<path fill="none" stroke="black" d="M484.614,-720.055C477.011,-711.33 467.612,-700.544 459.278,-690.981"/>
<polygon fill="black" stroke="black" points="461.799,-688.547 452.591,-683.307 456.522,-693.146 461.799,-688.547"/>
</g>
<!-- types/equiv -->
<g id="node5" class="node"><title>types/equiv</title>
<ellipse fill="none" stroke="black" cx="500.38" cy="-522" rx="51.9908" ry="18"/>
<text text-anchor="middle" x="500.38" y="-518.3" font-family="Times New Roman,serif" font-size="14.00">types/equiv</text>
</g>
<!-- support&#45;&gt;types/equiv -->
<g id="edge3" class="edge"><title>support&#45;&gt;types/equiv</title>
<path fill="none" stroke="black" d="M399.996,-579.669C418.481,-569.233 444.472,-554.561 465.376,-542.761"/>
<polygon fill="black" stroke="black" points="467.293,-545.698 474.281,-537.734 463.852,-539.602 467.293,-545.698"/>
</g>
<!-- HITs/infinitesimal -->
<g id="node12" class="node"><title>HITs/infinitesimal</title>
<ellipse fill="none" stroke="black" stroke-dasharray="5,2" cx="138.38" cy="-450" rx="74.9875" ry="18"/>
<text text-anchor="middle" x="138.38" y="-446.3" font-family="Times New Roman,serif" font-size="14.00">HITs/infinitesimal</text>
</g>
<!-- types/equiv&#45;&gt;HITs/infinitesimal -->
<g id="edge15" class="edge"><title>types/equiv&#45;&gt;HITs/infinitesimal</title>
<path fill="none" stroke="black" d="M455.572,-512.619C400.602,-502.299 304.58,-484.153 222.38,-468 216.248,-466.795 209.868,-465.528 203.485,-464.251"/>
<polygon fill="black" stroke="black" points="203.981,-460.781 193.488,-462.245 202.604,-467.644 203.981,-460.781"/>
</g>
<!-- types/coproduct -->
<g id="node19" class="node"><title>types/coproduct</title>
<ellipse fill="none" stroke="black" cx="302.38" cy="-450" rx="70.6878" ry="18"/>
<text text-anchor="middle" x="302.38" y="-446.3" font-family="Times New Roman,serif" font-size="14.00">types/coproduct</text>
</g>
<!-- types/equiv&#45;&gt;types/coproduct -->
<g id="edge16" class="edge"><title>types/equiv&#45;&gt;types/coproduct</title>
<path fill="none" stroke="black" d="M465.438,-508.647C433.878,-497.489 387.098,-480.951 351.727,-468.446"/>
<polygon fill="black" stroke="black" points="352.671,-465.067 342.076,-465.034 350.337,-471.667 352.671,-465.067"/>
</g>
<!-- types/heq -->
<g id="node22" class="node"><title>types/heq</title>
<ellipse fill="none" stroke="black" cx="670.38" cy="-450" rx="46.2923" ry="18"/>
<text text-anchor="middle" x="670.38" y="-446.3" font-family="Times New Roman,serif" font-size="14.00">types/heq</text>
</g>
<!-- types/equiv&#45;&gt;types/heq -->
<g id="edge17" class="edge"><title>types/equiv&#45;&gt;types/heq</title>
<path fill="none" stroke="black" d="M532.756,-507.669C560.573,-496.215 600.787,-479.656 630.567,-467.394"/>
<polygon fill="black" stroke="black" points="631.926,-470.619 639.841,-463.575 629.261,-464.146 631.926,-470.619"/>
</g>
<!-- types/lost -->
<g id="node23" class="node"><title>types/lost</title>
<ellipse fill="none" stroke="black" cx="780.38" cy="-450" rx="46.2923" ry="18"/>
<text text-anchor="middle" x="780.38" y="-446.3" font-family="Times New Roman,serif" font-size="14.00">types/lost</text>
</g>
<!-- types/equiv&#45;&gt;types/lost -->
<g id="edge18" class="edge"><title>types/equiv&#45;&gt;types/lost</title>
<path fill="none" stroke="black" d="M543.315,-511.804C588.755,-501.857 662.453,-485.115 725.38,-468 728.915,-467.039 732.566,-466.004 736.226,-464.937"/>
<polygon fill="black" stroke="black" points="737.282,-468.274 745.865,-462.064 735.282,-461.566 737.282,-468.274"/>
</g>
<!-- types/unit -->
<g id="node24" class="node"><title>types/unit</title>
<ellipse fill="none" stroke="black" cx="437.38" cy="-450" rx="46.2923" ry="18"/>
<text text-anchor="middle" x="437.38" y="-446.3" font-family="Times New Roman,serif" font-size="14.00">types/unit</text>
</g>
<!-- types/equiv&#45;&gt;types/unit -->
<g id="edge19" class="edge"><title>types/equiv&#45;&gt;types/unit</title>
<path fill="none" stroke="black" d="M485.45,-504.411C477.526,-495.606 467.646,-484.628 458.907,-474.919"/>
<polygon fill="black" stroke="black" points="461.495,-472.562 452.203,-467.47 456.291,-477.244 461.495,-472.562"/>
</g>
<!-- types/sigma -->
<g id="node25" class="node"><title>types/sigma</title>
<ellipse fill="none" stroke="black" cx="585.38" cy="-378" rx="53.8905" ry="18"/>
<text text-anchor="middle" x="585.38" y="-374.3" font-family="Times New Roman,serif" font-size="14.00">types/sigma</text>
</g>
<!-- types/equiv&#45;&gt;types/sigma -->
<g id="edge20" class="edge"><title>types/equiv&#45;&gt;types/sigma</title>
<path fill="none" stroke="black" d="M510.465,-504.153C525.226,-479.493 552.833,-433.374 570.097,-404.533"/>
<polygon fill="black" stroke="black" points="573.176,-406.203 575.309,-395.825 567.17,-402.608 573.176,-406.203"/>
</g>
<!-- structures -->
<g id="node6" class="node"><title>structures</title>
<ellipse fill="none" stroke="black" cx="314.38" cy="-378" rx="46.2923" ry="18"/>
<text text-anchor="middle" x="314.38" y="-374.3" font-family="Times New Roman,serif" font-size="14.00">structures</text>
</g>
<!-- HITs/interval -->
<g id="node7" class="node"><title>HITs/interval</title>
<ellipse fill="none" stroke="black" cx="692.38" cy="-306" rx="57.6901" ry="18"/>
<text text-anchor="middle" x="692.38" y="-302.3" font-family="Times New Roman,serif" font-size="14.00">HITs/interval</text>
</g>
<!-- structures&#45;&gt;HITs/interval -->
<g id="edge4" class="edge"><title>structures&#45;&gt;HITs/interval</title>
<path fill="none" stroke="black" d="M355.192,-369.442C422.426,-356.992 556.708,-332.125 633.985,-317.814"/>
<polygon fill="black" stroke="black" points="634.843,-321.215 644.038,-315.952 633.568,-314.332 634.843,-321.215"/>
</g>
<!-- HITs/truncation -->
<g id="node8" class="node"><title>HITs/truncation</title>
<ellipse fill="none" stroke="black" cx="1091.38" cy="-234" rx="68.4888" ry="18"/>
<text text-anchor="middle" x="1091.38" y="-230.3" font-family="Times New Roman,serif" font-size="14.00">HITs/truncation</text>
</g>
<!-- structures&#45;&gt;HITs/truncation -->
<g id="edge5" class="edge"><title>structures&#45;&gt;HITs/truncation</title>
<path fill="none" stroke="black" d="M359.106,-373.281C464.762,-364.267 723.63,-340.763 759.38,-324 780.444,-314.123 776.621,-298.502 797.38,-288 835.337,-268.797 945.36,-252.443 1019.51,-243.171"/>
<polygon fill="black" stroke="black" points="1020.23,-246.609 1029.72,-241.91 1019.37,-239.661 1020.23,-246.609"/>
</g>
<!-- algebra/core -->
<g id="node9" class="node"><title>algebra/core</title>
<ellipse fill="none" stroke="black" cx="74.3804" cy="-306" rx="55.4913" ry="18"/>
<text text-anchor="middle" x="74.3804" y="-302.3" font-family="Times New Roman,serif" font-size="14.00">algebra/core</text>
</g>
<!-- structures&#45;&gt;algebra/core -->
<g id="edge6" class="edge"><title>structures&#45;&gt;algebra/core</title>
<path fill="none" stroke="black" d="M278.45,-366.52C237.394,-354.546 169.955,-334.876 123.927,-321.451"/>
<polygon fill="black" stroke="black" points="124.74,-318.042 114.16,-318.602 122.78,-324.762 124.74,-318.042"/>
</g>
<!-- types/nat -->
<g id="node10" class="node"><title>types/nat</title>
<ellipse fill="none" stroke="black" cx="353.38" cy="-306" rx="43.5923" ry="18"/>
<text text-anchor="middle" x="353.38" y="-302.3" font-family="Times New Roman,serif" font-size="14.00">types/nat</text>
</g>
<!-- structures&#45;&gt;types/nat -->
<g id="edge7" class="edge"><title>structures&#45;&gt;types/nat</title>
<path fill="none" stroke="black" d="M323.821,-360.055C328.42,-351.801 334.047,-341.701 339.152,-332.538"/>
<polygon fill="black" stroke="black" points="342.217,-334.228 344.027,-323.789 336.102,-330.821 342.217,-334.228"/>
</g>
<!-- types/product -->
<g id="node28" class="node"><title>types/product</title>
<ellipse fill="none" stroke="black" cx="813.38" cy="-234" rx="61.99" ry="18"/>
<text text-anchor="middle" x="813.38" y="-230.3" font-family="Times New Roman,serif" font-size="14.00">types/product</text>
</g>
<!-- HITs/interval&#45;&gt;types/product -->
<g id="edge46" class="edge"><title>HITs/interval&#45;&gt;types/product</title>
<path fill="none" stroke="black" d="M718.636,-289.811C736.037,-279.744 759.073,-266.418 778.073,-255.426"/>
<polygon fill="black" stroke="black" points="779.855,-258.438 786.759,-250.401 776.35,-252.379 779.855,-258.438"/>
</g>
<!-- theorems/fibration -->
<g id="node30" class="node"><title>theorems/fibration</title>
<ellipse fill="none" stroke="black" cx="657.38" cy="-234" rx="76.8869" ry="18"/>
<text text-anchor="middle" x="657.38" y="-230.3" font-family="Times New Roman,serif" font-size="14.00">theorems/fibration</text>
</g>
<!-- HITs/interval&#45;&gt;theorems/fibration -->
<g id="edge47" class="edge"><title>HITs/interval&#45;&gt;theorems/fibration</title>
<path fill="none" stroke="black" d="M683.908,-288.055C679.884,-280.007 674.983,-270.205 670.493,-261.226"/>
<polygon fill="black" stroke="black" points="673.621,-259.654 666.018,-252.275 667.36,-262.785 673.621,-259.654"/>
</g>
<!-- theorems/prop -->
<g id="node40" class="node"><title>theorems/prop</title>
<ellipse fill="none" stroke="black" cx="903.38" cy="-162" rx="63.8893" ry="18"/>
<text text-anchor="middle" x="903.38" y="-158.3" font-family="Times New Roman,serif" font-size="14.00">theorems/prop</text>
</g>
<!-- HITs/interval&#45;&gt;theorems/prop -->
<g id="edge48" class="edge"><title>HITs/interval&#45;&gt;theorems/prop</title>
<path fill="none" stroke="black" d="M736.323,-294.093C791.375,-280.25 879.192,-257.504 884.38,-252 899.834,-235.606 903.967,-209.863 904.596,-190.271"/>
<polygon fill="black" stroke="black" points="908.097,-190.132 904.635,-180.118 901.097,-190.105 908.097,-190.132"/>
</g>
<!-- HITs/truncation&#45;&gt;theorems/prop -->
<g id="edge53" class="edge"><title>HITs/truncation&#45;&gt;theorems/prop</title>
<path fill="none" stroke="black" d="M1053.34,-218.834C1023.48,-207.72 981.797,-192.198 949.951,-180.34"/>
<polygon fill="black" stroke="black" points="951,-176.996 940.407,-176.787 948.558,-183.556 951,-176.996"/>
</g>
<!-- HITs/simplicial -->
<g id="node42" class="node"><title>HITs/simplicial</title>
<ellipse fill="none" stroke="black" cx="1440.38" cy="-162" rx="65.7887" ry="18"/>
<text text-anchor="middle" x="1440.38" y="-158.3" font-family="Times New Roman,serif" font-size="14.00">HITs/simplicial</text>
</g>
<!-- HITs/truncation&#45;&gt;HITs/simplicial -->
<g id="edge54" class="edge"><title>HITs/truncation&#45;&gt;HITs/simplicial</title>
<path fill="none" stroke="black" d="M1145.76,-223.107C1201.32,-212.862 1290.03,-196.123 1366.38,-180 1371.62,-178.894 1377.06,-177.71 1382.51,-176.502"/>
<polygon fill="black" stroke="black" points="1383.28,-179.916 1392.27,-174.312 1381.75,-173.086 1383.28,-179.916"/>
</g>
<!-- theorems/mere_eq_lemma -->
<g id="node43" class="node"><title>theorems/mere_eq_lemma</title>
<ellipse fill="none" stroke="black" cx="1091.38" cy="-162" rx="105.881" ry="18"/>
<text text-anchor="middle" x="1091.38" y="-158.3" font-family="Times New Roman,serif" font-size="14.00">theorems/mere_eq_lemma</text>
</g>
<!-- HITs/truncation&#45;&gt;theorems/mere_eq_lemma -->
<g id="edge55" class="edge"><title>HITs/truncation&#45;&gt;theorems/mere_eq_lemma</title>
<path fill="none" stroke="black" d="M1091.38,-215.697C1091.38,-207.983 1091.38,-198.712 1091.38,-190.112"/>
<polygon fill="black" stroke="black" points="1094.88,-190.104 1091.38,-180.104 1087.88,-190.104 1094.88,-190.104"/>
</g>
<!-- theorems/graphs -->
<g id="node44" class="node"><title>theorems/graphs</title>
<ellipse fill="none" stroke="black" cx="1286.38" cy="-162" rx="70.6878" ry="18"/>
<text text-anchor="middle" x="1286.38" y="-158.3" font-family="Times New Roman,serif" font-size="14.00">theorems/graphs</text>
</g>
<!-- HITs/truncation&#45;&gt;theorems/graphs -->
<g id="edge56" class="edge"><title>HITs/truncation&#45;&gt;theorems/graphs</title>
<path fill="none" stroke="black" d="M1130.37,-219.003C1161.23,-207.927 1204.48,-192.399 1237.62,-180.502"/>
<polygon fill="black" stroke="black" points="1238.89,-183.766 1247.12,-177.093 1236.53,-177.177 1238.89,-183.766"/>
</g>
<!-- algebra/group -->
<g id="node17" class="node"><title>algebra/group</title>
<ellipse fill="none" stroke="black" cx="76.3804" cy="-234" rx="60.3893" ry="18"/>
<text text-anchor="middle" x="76.3804" y="-230.3" font-family="Times New Roman,serif" font-size="14.00">algebra/group</text>
</g>
<!-- algebra/core&#45;&gt;algebra/group -->
<g id="edge8" class="edge"><title>algebra/core&#45;&gt;algebra/group</title>
<path fill="none" stroke="black" d="M74.8748,-287.697C75.0952,-279.983 75.36,-270.712 75.6057,-262.112"/>
<polygon fill="black" stroke="black" points="79.1046,-262.2 75.8917,-252.104 72.1074,-262 79.1046,-262.2"/>
</g>
<!-- HITs/circle -->
<g id="node11" class="node"><title>HITs/circle</title>
<ellipse fill="none" stroke="black" stroke-dasharray="5,2" cx="378.38" cy="-90" rx="51.9908" ry="18"/>
<text text-anchor="middle" x="378.38" y="-86.3" font-family="Times New Roman,serif" font-size="14.00">HITs/circle</text>
</g>
<!-- types/nat&#45;&gt;HITs/circle -->
<g id="edge26" class="edge"><title>types/nat&#45;&gt;HITs/circle</title>
<path fill="none" stroke="black" d="M331.539,-290.347C319.599,-280.961 305.938,-267.625 299.38,-252 293.188,-237.247 294.931,-231.369 299.38,-216 310.62,-177.177 337.914,-138.829 357.265,-115.055"/>
<polygon fill="black" stroke="black" points="360.032,-117.202 363.739,-107.277 354.651,-112.724 360.032,-117.202"/>
</g>
<!-- HITs/ntrunc -->
<g id="node13" class="node"><title>HITs/ntrunc</title>
<ellipse fill="none" stroke="black" stroke-dasharray="5,2" cx="376.38" cy="-18" rx="55.4913" ry="18"/>
<text text-anchor="middle" x="376.38" y="-14.3" font-family="Times New Roman,serif" font-size="14.00">HITs/ntrunc</text>
</g>
<!-- HITs/circle&#45;&gt;HITs/ntrunc -->
<g id="edge35" class="edge"><title>HITs/circle&#45;&gt;HITs/ntrunc</title>
<path fill="none" stroke="black" d="M377.886,-71.6966C377.666,-63.9827 377.401,-54.7125 377.155,-46.1124"/>
<polygon fill="black" stroke="black" points="380.653,-46.0003 376.869,-36.1043 373.656,-46.2002 380.653,-46.0003"/>
</g>
<!-- theorems/hopf -->
<g id="node16" class="node"><title>theorems/hopf</title>
<ellipse fill="none" stroke="black" stroke-dasharray="5,2" cx="513.38" cy="-18" rx="63.8893" ry="18"/>
<text text-anchor="middle" x="513.38" y="-14.3" font-family="Times New Roman,serif" font-size="14.00">theorems/hopf</text>
</g>
<!-- HITs/circle&#45;&gt;theorems/hopf -->
<g id="edge36" class="edge"><title>HITs/circle&#45;&gt;theorems/hopf</title>
<path fill="none" stroke="black" d="M406.025,-74.6655C426.005,-64.3058 453.242,-50.1828 475.282,-38.7548"/>
<polygon fill="black" stroke="black" points="477.106,-41.7513 484.373,-34.0409 473.884,-35.537 477.106,-41.7513"/>
</g>
<!-- theorems/ua -->
<g id="node14" class="node"><title>theorems/ua</title>
<ellipse fill="none" stroke="black" stroke-dasharray="5,2" cx="628.38" cy="-162" rx="54.6905" ry="18"/>
<text text-anchor="middle" x="628.38" y="-158.3" font-family="Times New Roman,serif" font-size="14.00">theorems/ua</text>
</g>
<!-- theorems/ua&#45;&gt;HITs/circle -->
<g id="edge65" class="edge"><title>theorems/ua&#45;&gt;HITs/circle</title>
<path fill="none" stroke="black" d="M588.214,-149.753C544.401,-137.486 474.262,-117.847 427.28,-104.692"/>
<polygon fill="black" stroke="black" points="428.197,-101.314 417.623,-101.988 426.309,-108.055 428.197,-101.314"/>
</g>
<!-- cubical/V -->
<g id="node15" class="node"><title>cubical/V</title>
<ellipse fill="none" stroke="black" stroke-dasharray="5,2" cx="640.38" cy="-18" rx="45.4919" ry="18"/>
<text text-anchor="middle" x="640.38" y="-14.3" font-family="Times New Roman,serif" font-size="14.00">cubical/V</text>
</g>
<!-- theorems/ua&#45;&gt;cubical/V -->
<g id="edge66" class="edge"><title>theorems/ua&#45;&gt;cubical/V</title>
<path fill="none" stroke="black" d="M629.828,-143.871C631.873,-119.67 635.63,-75.2108 638.065,-46.3932"/>
<polygon fill="black" stroke="black" points="641.573,-46.4485 638.928,-36.1893 634.598,-45.859 641.573,-46.4485"/>
</g>
<!-- algebra/homology -->
<g id="node18" class="node"><title>algebra/homology</title>
<ellipse fill="none" stroke="black" cx="91.3804" cy="-162" rx="75.2868" ry="18"/>
<text text-anchor="middle" x="91.3804" y="-158.3" font-family="Times New Roman,serif" font-size="14.00">algebra/homology</text>
</g>
<!-- algebra/group&#45;&gt;algebra/homology -->
<g id="edge9" class="edge"><title>algebra/group&#45;&gt;algebra/homology</title>
<path fill="none" stroke="black" d="M80.0882,-215.697C81.7412,-207.983 83.7277,-198.712 85.5706,-190.112"/>
<polygon fill="black" stroke="black" points="89.0421,-190.616 87.7152,-180.104 82.1975,-189.149 89.0421,-190.616"/>
</g>
<!-- types/coproduct&#45;&gt;structures -->
<g id="edge10" class="edge"><title>types/coproduct&#45;&gt;structures</title>
<path fill="none" stroke="black" d="M305.347,-431.697C306.669,-423.983 308.258,-414.712 309.733,-406.112"/>
<polygon fill="black" stroke="black" points="313.208,-406.552 311.448,-396.104 306.309,-405.369 313.208,-406.552"/>
</g>
<!-- types/integer -->
<g id="node20" class="node"><title>types/integer</title>
<ellipse fill="none" stroke="black" cx="134.38" cy="-378" rx="56.59" ry="18"/>
<text text-anchor="middle" x="134.38" y="-374.3" font-family="Times New Roman,serif" font-size="14.00">types/integer</text>
</g>
<!-- types/coproduct&#45;&gt;types/integer -->
<g id="edge11" class="edge"><title>types/coproduct&#45;&gt;types/integer</title>
<path fill="none" stroke="black" d="M267.162,-434.326C240.825,-423.352 204.697,-408.299 176.774,-396.664"/>
<polygon fill="black" stroke="black" points="177.847,-393.319 167.27,-392.704 175.154,-399.781 177.847,-393.319"/>
</g>
<!-- types/integer&#45;&gt;algebra/core -->
<g id="edge23" class="edge"><title>types/integer&#45;&gt;algebra/core</title>
<path fill="none" stroke="black" d="M120.161,-360.411C112.689,-351.693 103.391,-340.845 95.1298,-331.208"/>
<polygon fill="black" stroke="black" points="97.6628,-328.785 88.4975,-323.47 92.348,-333.34 97.6628,-328.785"/>
</g>
<!-- types/integer&#45;&gt;HITs/circle -->
<g id="edge24" class="edge"><title>types/integer&#45;&gt;HITs/circle</title>
<path fill="none" stroke="black" d="M85.1498,-368.995C58.4063,-361.911 27.4063,-348.661 10.3804,-324 -2.46673,-305.392 -2.88398,-155.835 7.38037,-144 46.6092,-98.7688 221.184,-91.18 316.223,-90.4874"/>
<polygon fill="black" stroke="black" points="316.302,-93.9872 326.285,-90.4377 316.267,-86.9873 316.302,-93.9872"/>
</g>
<!-- HITs/reals -->
<g id="node27" class="node"><title>HITs/reals</title>
<ellipse fill="none" stroke="black" cx="203.38" cy="-234" rx="48.9926" ry="18"/>
<text text-anchor="middle" x="203.38" y="-230.3" font-family="Times New Roman,serif" font-size="14.00">HITs/reals</text>
</g>
<!-- types/integer&#45;&gt;HITs/reals -->
<g id="edge25" class="edge"><title>types/integer&#45;&gt;HITs/reals</title>
<path fill="none" stroke="black" d="M184.902,-369.857C212.774,-363.053 245.141,-349.797 262.38,-324 271.27,-310.697 268.897,-302.613 262.38,-288 256.705,-275.273 246.297,-264.326 235.784,-255.74"/>
<polygon fill="black" stroke="black" points="237.873,-252.932 227.801,-249.645 233.625,-258.495 237.873,-252.932"/>
</g>
<!-- types/dep_path&#45;&gt;types/equiv -->
<g id="edge12" class="edge"><title>types/dep_path&#45;&gt;types/equiv</title>
<path fill="none" stroke="black" d="M500.38,-575.697C500.38,-567.983 500.38,-558.712 500.38,-550.112"/>
<polygon fill="black" stroke="black" points="503.88,-550.104 500.38,-540.104 496.88,-550.104 503.88,-550.104"/>
</g>
<!-- types/heq&#45;&gt;HITs/interval -->
<g id="edge21" class="edge"><title>types/heq&#45;&gt;HITs/interval</title>
<path fill="none" stroke="black" d="M673.034,-431.871C676.784,-407.67 683.672,-363.211 688.136,-334.393"/>
<polygon fill="black" stroke="black" points="691.645,-334.607 689.717,-324.189 684.727,-333.535 691.645,-334.607"/>
</g>
<!-- HITs/graph -->
<g id="node26" class="node"><title>HITs/graph</title>
<ellipse fill="none" stroke="black" cx="1031.38" cy="-378" rx="52.7911" ry="18"/>
<text text-anchor="middle" x="1031.38" y="-374.3" font-family="Times New Roman,serif" font-size="14.00">HITs/graph</text>
</g>
<!-- types/heq&#45;&gt;HITs/graph -->
<g id="edge22" class="edge"><title>types/heq&#45;&gt;HITs/graph</title>
<path fill="none" stroke="black" d="M704.519,-437.705C711.383,-435.644 718.578,-433.633 725.38,-432 810.798,-411.491 911.437,-395.62 973.323,-386.79"/>
<polygon fill="black" stroke="black" points="973.878,-390.246 983.289,-385.381 972.898,-383.315 973.878,-390.246"/>
</g>
<!-- types/unit&#45;&gt;structures -->
<g id="edge32" class="edge"><title>types/unit&#45;&gt;structures</title>
<path fill="none" stroke="black" d="M412.489,-434.834C394.106,-424.372 368.859,-410.004 348.581,-398.464"/>
<polygon fill="black" stroke="black" points="350.079,-395.289 339.656,-393.385 346.616,-401.373 350.079,-395.289"/>
</g>
<!-- types/unit&#45;&gt;types/nat -->
<g id="edge33" class="edge"><title>types/unit&#45;&gt;types/nat</title>
<path fill="none" stroke="black" d="M427.415,-432.153C412.827,-407.493 385.545,-361.374 368.484,-332.533"/>
<polygon fill="black" stroke="black" points="371.437,-330.65 363.333,-323.825 365.412,-334.214 371.437,-330.65"/>
</g>
<!-- HITs/suspension -->
<g id="node32" class="node"><title>HITs/suspension</title>
<ellipse fill="none" stroke="black" cx="381.38" cy="-234" rx="72.5877" ry="18"/>
<text text-anchor="middle" x="381.38" y="-230.3" font-family="Times New Roman,serif" font-size="14.00">HITs/suspension</text>
</g>
<!-- types/unit&#45;&gt;HITs/suspension -->
<g id="edge34" class="edge"><title>types/unit&#45;&gt;HITs/suspension</title>
<path fill="none" stroke="black" d="M435.495,-431.724C431.92,-401.855 422.985,-338.873 406.38,-288 403.476,-279.102 399.431,-269.755 395.439,-261.43"/>
<polygon fill="black" stroke="black" points="398.441,-259.606 390.85,-252.215 392.175,-262.727 398.441,-259.606"/>
</g>
<!-- types/sigma&#45;&gt;theorems/fibration -->
<g id="edge29" class="edge"><title>types/sigma&#45;&gt;theorems/fibration</title>
<path fill="none" stroke="black" d="M592.306,-359.98C599.85,-341.851 612.561,-312.457 625.38,-288 630.195,-278.815 635.926,-269.025 641.199,-260.39"/>
<polygon fill="black" stroke="black" points="644.177,-262.229 646.47,-251.885 638.227,-258.541 644.177,-262.229"/>
</g>
<!-- HITs/colimit -->
<g id="node33" class="node"><title>HITs/colimit</title>
<ellipse fill="none" stroke="black" cx="1031.38" cy="-306" rx="56.59" ry="18"/>
<text text-anchor="middle" x="1031.38" y="-302.3" font-family="Times New Roman,serif" font-size="14.00">HITs/colimit</text>
</g>
<!-- HITs/graph&#45;&gt;HITs/colimit -->
<g id="edge39" class="edge"><title>HITs/graph&#45;&gt;HITs/colimit</title>
<path fill="none" stroke="black" d="M1031.38,-359.697C1031.38,-351.983 1031.38,-342.712 1031.38,-334.112"/>
<polygon fill="black" stroke="black" points="1034.88,-334.104 1031.38,-324.104 1027.88,-334.104 1034.88,-334.104"/>
</g>
<!-- HITs/generalized -->
<g id="node34" class="node"><title>HITs/generalized</title>
<ellipse fill="none" stroke="black" cx="1178.38" cy="-306" rx="72.2875" ry="18"/>
<text text-anchor="middle" x="1178.38" y="-302.3" font-family="Times New Roman,serif" font-size="14.00">HITs/generalized</text>
</g>
<!-- HITs/graph&#45;&gt;HITs/generalized -->
<g id="edge40" class="edge"><title>HITs/graph&#45;&gt;HITs/generalized</title>
<path fill="none" stroke="black" d="M1060.77,-363.003C1082.67,-352.577 1112.85,-338.205 1137.15,-326.632"/>
<polygon fill="black" stroke="black" points="1138.97,-329.646 1146.49,-322.186 1135.96,-323.326 1138.97,-329.646"/>
</g>
<!-- HITs/int -->
<g id="node35" class="node"><title>HITs/int</title>
<ellipse fill="none" stroke="black" cx="1309.38" cy="-306" rx="40.8928" ry="18"/>
<text text-anchor="middle" x="1309.38" y="-302.3" font-family="Times New Roman,serif" font-size="14.00">HITs/int</text>
</g>
<!-- HITs/graph&#45;&gt;HITs/int -->
<g id="edge41" class="edge"><title>HITs/graph&#45;&gt;HITs/int</title>
<path fill="none" stroke="black" d="M1075.42,-368.12C1121.59,-358.495 1196.07,-342.072 1259.38,-324 1262.51,-323.107 1265.73,-322.134 1268.96,-321.121"/>
<polygon fill="black" stroke="black" points="1270.16,-324.414 1278.59,-318.003 1268,-317.755 1270.16,-324.414"/>
</g>
<!-- HITs/pushout -->
<g id="node36" class="node"><title>HITs/pushout</title>
<ellipse fill="none" stroke="black" cx="516.38" cy="-306" rx="61.99" ry="18"/>
<text text-anchor="middle" x="516.38" y="-302.3" font-family="Times New Roman,serif" font-size="14.00">HITs/pushout</text>
</g>
<!-- HITs/graph&#45;&gt;HITs/pushout -->
<g id="edge42" class="edge"><title>HITs/graph&#45;&gt;HITs/pushout</title>
<path fill="none" stroke="black" d="M982.58,-371.028C906.286,-361.602 754.15,-342.444 625.38,-324 610.438,-321.86 594.366,-319.426 579.275,-317.083"/>
<polygon fill="black" stroke="black" points="579.43,-313.565 569.01,-315.479 578.35,-320.481 579.43,-313.565"/>
</g>
<!-- HITs/moebius -->
<g id="node37" class="node"><title>HITs/moebius</title>
<ellipse fill="none" stroke="black" cx="1388.38" cy="-18" rx="63.0888" ry="18"/>
<text text-anchor="middle" x="1388.38" y="-14.3" font-family="Times New Roman,serif" font-size="14.00">HITs/moebius</text>
</g>
<!-- HITs/graph&#45;&gt;HITs/moebius -->
<g id="edge43" class="edge"><title>HITs/graph&#45;&gt;HITs/moebius</title>
<path fill="none" stroke="black" d="M1082.38,-373.487C1210.26,-363.286 1534.38,-328.235 1534.38,-235 1534.38,-235 1534.38,-235 1534.38,-161 1534.38,-102.693 1473.8,-60.5837 1430.69,-37.9973"/>
<polygon fill="black" stroke="black" points="1432.01,-34.7443 1421.51,-33.3421 1428.85,-40.9872 1432.01,-34.7443"/>
</g>
<!-- types/precategory -->
<g id="node38" class="node"><title>types/precategory</title>
<ellipse fill="none" stroke="black" cx="881.38" cy="-306" rx="75.2868" ry="18"/>
<text text-anchor="middle" x="881.38" y="-302.3" font-family="Times New Roman,serif" font-size="14.00">types/precategory</text>
</g>
<!-- HITs/graph&#45;&gt;types/precategory -->
<g id="edge44" class="edge"><title>HITs/graph&#45;&gt;types/precategory</title>
<path fill="none" stroke="black" d="M1001.39,-363.003C979.022,-352.566 948.186,-338.176 923.371,-326.596"/>
<polygon fill="black" stroke="black" points="924.728,-323.367 914.186,-322.309 921.768,-329.71 924.728,-323.367"/>
</g>
<!-- types/product&#45;&gt;theorems/ua -->
<g id="edge27" class="edge"><title>types/product&#45;&gt;theorems/ua</title>
<path fill="none" stroke="black" d="M777.271,-219.337C747.253,-207.979 704.423,-191.773 672.4,-179.656"/>
<polygon fill="black" stroke="black" points="673.426,-176.302 662.834,-176.037 670.949,-182.849 673.426,-176.302"/>
</g>
<!-- cubical/cubes -->
<g id="node29" class="node"><title>cubical/cubes</title>
<ellipse fill="none" stroke="black" cx="761.38" cy="-162" rx="60.3893" ry="18"/>
<text text-anchor="middle" x="761.38" y="-158.3" font-family="Times New Roman,serif" font-size="14.00">cubical/cubes</text>
</g>
<!-- types/product&#45;&gt;cubical/cubes -->
<g id="edge28" class="edge"><title>types/product&#45;&gt;cubical/cubes</title>
<path fill="none" stroke="black" d="M800.793,-216.055C794.533,-207.629 786.845,-197.28 779.927,-187.966"/>
<polygon fill="black" stroke="black" points="782.625,-185.729 773.852,-179.789 777.006,-189.904 782.625,-185.729"/>
</g>
<!-- cubical/path -->
<g id="node46" class="node"><title>cubical/path</title>
<ellipse fill="none" stroke="black" cx="866.38" cy="-90" rx="54.6905" ry="18"/>
<text text-anchor="middle" x="866.38" y="-86.3" font-family="Times New Roman,serif" font-size="14.00">cubical/path</text>
</g>
<!-- cubical/cubes&#45;&gt;cubical/path -->
<g id="edge57" class="edge"><title>cubical/cubes&#45;&gt;cubical/path</title>
<path fill="none" stroke="black" d="M784.944,-145.291C799.637,-135.495 818.727,-122.769 834.731,-112.1"/>
<polygon fill="black" stroke="black" points="836.877,-114.875 843.256,-106.416 832.994,-109.051 836.877,-114.875"/>
</g>
<!-- theorems/fibration&#45;&gt;theorems/hopf -->
<g id="edge63" class="edge"><title>theorems/fibration&#45;&gt;theorems/hopf</title>
<path fill="none" stroke="black" d="M617.928,-218.486C599.355,-209.86 578.282,-197.199 564.38,-180 532.531,-140.598 520.441,-81.0334 515.947,-46.4782"/>
<polygon fill="black" stroke="black" points="519.382,-45.7185 514.74,-36.195 512.43,-46.535 519.382,-45.7185"/>
</g>
<!-- types/swale -->
<g id="node31" class="node"><title>types/swale</title>
<ellipse fill="none" stroke="black" cx="200.38" cy="-306" rx="52.7911" ry="18"/>
<text text-anchor="middle" x="200.38" y="-302.3" font-family="Times New Roman,serif" font-size="14.00">types/swale</text>
</g>
<!-- types/swale&#45;&gt;algebra/group -->
<g id="edge30" class="edge"><title>types/swale&#45;&gt;algebra/group</title>
<path fill="none" stroke="black" d="M174.386,-290.326C156.28,-280.105 131.904,-266.344 111.993,-255.104"/>
<polygon fill="black" stroke="black" points="113.626,-252.007 103.197,-250.138 110.185,-258.102 113.626,-252.007"/>
</g>
<!-- types/swale&#45;&gt;HITs/reals -->
<g id="edge31" class="edge"><title>types/swale&#45;&gt;HITs/reals</title>
<path fill="none" stroke="black" d="M201.122,-287.697C201.453,-279.983 201.85,-270.712 202.218,-262.112"/>
<polygon fill="black" stroke="black" points="205.716,-262.245 202.647,-252.104 198.722,-261.945 205.716,-262.245"/>
</g>
<!-- HITs/suspension&#45;&gt;HITs/circle -->
<g id="edge52" class="edge"><title>HITs/suspension&#45;&gt;HITs/circle</title>
<path fill="none" stroke="black" d="M381.019,-215.871C380.507,-191.67 379.568,-147.211 378.959,-118.393"/>
<polygon fill="black" stroke="black" points="382.454,-118.113 378.744,-108.189 375.456,-118.261 382.454,-118.113"/>
</g>
<!-- HITs/colimit&#45;&gt;HITs/truncation -->
<g id="edge37" class="edge"><title>HITs/colimit&#45;&gt;HITs/truncation</title>
<path fill="none" stroke="black" d="M1045.6,-288.411C1052.96,-279.82 1062.1,-269.159 1070.27,-259.627"/>
<polygon fill="black" stroke="black" points="1073,-261.827 1076.85,-251.956 1067.68,-257.271 1073,-261.827"/>
</g>
<!-- HITs/generalized&#45;&gt;HITs/truncation -->
<g id="edge38" class="edge"><title>HITs/generalized&#45;&gt;HITs/truncation</title>
<path fill="none" stroke="black" d="M1157.76,-288.411C1146.3,-279.191 1131.88,-267.588 1119.41,-257.555"/>
<polygon fill="black" stroke="black" points="1121.54,-254.77 1111.55,-251.228 1117.15,-260.224 1121.54,-254.77"/>
</g>
<!-- HITs/rat -->
<g id="node39" class="node"><title>HITs/rat</title>
<ellipse fill="none" stroke="black" cx="1309.38" cy="-234" rx="41.6928" ry="18"/>
<text text-anchor="middle" x="1309.38" y="-230.3" font-family="Times New Roman,serif" font-size="14.00">HITs/rat</text>
</g>
<!-- HITs/int&#45;&gt;HITs/rat -->
<g id="edge45" class="edge"><title>HITs/int&#45;&gt;HITs/rat</title>
<path fill="none" stroke="black" d="M1309.38,-287.697C1309.38,-279.983 1309.38,-270.712 1309.38,-262.112"/>
<polygon fill="black" stroke="black" points="1312.88,-262.104 1309.38,-252.104 1305.88,-262.104 1312.88,-262.104"/>
</g>
<!-- HITs/pushout&#45;&gt;HITs/reals -->
<g id="edge49" class="edge"><title>HITs/pushout&#45;&gt;HITs/reals</title>
<path fill="none" stroke="black" d="M468.842,-294.369C410.805,-281.389 313.077,-259.533 253.773,-246.27"/>
<polygon fill="black" stroke="black" points="254.404,-242.825 243.881,-244.058 252.876,-249.656 254.404,-242.825"/>
</g>
<!-- HITs/pushout&#45;&gt;HITs/suspension -->
<g id="edge50" class="edge"><title>HITs/pushout&#45;&gt;HITs/suspension</title>
<path fill="none" stroke="black" d="M487.419,-289.983C467.848,-279.835 441.775,-266.316 420.382,-255.223"/>
<polygon fill="black" stroke="black" points="421.716,-251.972 411.227,-250.476 418.494,-258.187 421.716,-251.972"/>
</g>
<!-- HITs/join -->
<g id="node41" class="node"><title>HITs/join</title>
<ellipse fill="none" stroke="black" cx="517.38" cy="-234" rx="45.4919" ry="18"/>
<text text-anchor="middle" x="517.38" y="-230.3" font-family="Times New Roman,serif" font-size="14.00">HITs/join</text>
</g>
<!-- HITs/pushout&#45;&gt;HITs/join -->
<g id="edge51" class="edge"><title>HITs/pushout&#45;&gt;HITs/join</title>
<path fill="none" stroke="black" d="M516.628,-287.697C516.738,-279.983 516.87,-270.712 516.993,-262.112"/>
<polygon fill="black" stroke="black" points="520.493,-262.153 517.136,-252.104 513.493,-262.053 520.493,-262.153"/>
</g>
<!-- cubical/connection -->
<g id="node45" class="node"><title>cubical/connection</title>
<ellipse fill="none" stroke="black" cx="783.38" cy="-18" rx="79.0865" ry="18"/>
<text text-anchor="middle" x="783.38" y="-14.3" font-family="Times New Roman,serif" font-size="14.00">cubical/connection</text>
</g>
<!-- cubical/path&#45;&gt;cubical/V -->
<g id="edge58" class="edge"><title>cubical/path&#45;&gt;cubical/V</title>
<path fill="none" stroke="black" d="M828.043,-77.1255C788.402,-64.8476 726.575,-45.6975 684.823,-32.7653"/>
<polygon fill="black" stroke="black" points="685.778,-29.3971 675.19,-29.7817 683.707,-36.0837 685.778,-29.3971"/>
</g>
<!-- cubical/path&#45;&gt;HITs/moebius -->
<g id="edge59" class="edge"><title>cubical/path&#45;&gt;HITs/moebius</title>
<path fill="none" stroke="black" d="M915.959,-82.3515C1010.51,-69.6726 1216.58,-42.038 1322.55,-27.8275"/>
<polygon fill="black" stroke="black" points="1323.04,-31.2933 1332.49,-26.4952 1322.11,-24.3554 1323.04,-31.2933"/>
</g>
<!-- cubical/path&#45;&gt;cubical/connection -->
<g id="edge60" class="edge"><title>cubical/path&#45;&gt;cubical/connection</title>
<path fill="none" stroke="black" d="M847.13,-72.7646C836.391,-63.7076 822.83,-52.2705 810.979,-42.2756"/>
<polygon fill="black" stroke="black" points="813.004,-39.4049 803.103,-35.6334 808.491,-44.756 813.004,-39.4049"/>
</g>
<!-- cubical/example -->
<g id="node47" class="node"><title>cubical/example</title>
<ellipse fill="none" stroke="black" cx="949.38" cy="-18" rx="68.7879" ry="18"/>
<text text-anchor="middle" x="949.38" y="-14.3" font-family="Times New Roman,serif" font-size="14.00">cubical/example</text>
</g>
<!-- cubical/path&#45;&gt;cubical/example -->
<g id="edge61" class="edge"><title>cubical/path&#45;&gt;cubical/example</title>
<path fill="none" stroke="black" d="M885.631,-72.7646C896.448,-63.642 910.128,-52.1046 922.04,-42.0585"/>
<polygon fill="black" stroke="black" points="924.559,-44.5124 929.947,-35.3898 920.046,-39.1613 924.559,-44.5124"/>
</g>
<!-- cubical/square -->
<g id="node48" class="node"><title>cubical/square</title>
<ellipse fill="none" stroke="black" cx="1099.38" cy="-18" rx="63.0888" ry="18"/>
<text text-anchor="middle" x="1099.38" y="-14.3" font-family="Times New Roman,serif" font-size="14.00">cubical/square</text>
</g>
<!-- cubical/path&#45;&gt;cubical/square -->
<g id="edge62" class="edge"><title>cubical/path&#45;&gt;cubical/square</title>
<path fill="none" stroke="black" d="M905.379,-77.2836C944.44,-65.5485 1004.77,-47.4224 1047.78,-34.5021"/>
<polygon fill="black" stroke="black" points="1048.93,-37.8124 1057.5,-31.5831 1046.91,-31.1084 1048.93,-37.8124"/>
</g>
<!-- theorems/functions -->
<g id="node49" class="node"><title>theorems/functions</title>
<ellipse fill="none" stroke="black" cx="665.38" cy="-594" rx="79.8859" ry="18"/>
<text text-anchor="middle" x="665.38" y="-590.3" font-family="Times New Roman,serif" font-size="14.00">theorems/functions</text>
</g>
<!-- theorems/functions&#45;&gt;types/equiv -->
<g id="edge64" class="edge"><title>theorems/functions&#45;&gt;types/equiv</title>
<path fill="none" stroke="black" d="M629.578,-577.811C603.549,-566.769 568.273,-551.803 541.158,-540.3"/>
<polygon fill="black" stroke="black" points="542.509,-537.071 531.936,-536.387 539.775,-543.515 542.509,-537.071"/>
</g>
<!-- theorems/topology -->
<g id="node50" class="node"><title>theorems/topology</title>
<ellipse fill="none" stroke="black" cx="668.38" cy="-738" rx="79.0865" ry="18"/>
<text text-anchor="middle" x="668.38" y="-734.3" font-family="Times New Roman,serif" font-size="14.00">theorems/topology</text>
</g>
</g>
</svg>
