<?xml version="1.0" encoding="UTF-8" standalone="no"?>
<!DOCTYPE svg PUBLIC "-//W3C//DTD SVG 1.1//EN"
 "http://www.w3.org/Graphics/SVG/1.1/DTD/svg11.dtd">
<!-- Generated by graphviz version 2.38.0 (20140413.2041)
 -->
<!-- Title: dependency_map Pages: 1 -->
<svg width="1495pt" height="764pt"
 viewBox="0.00 0.00 1495.39 764.00" xmlns="http://www.w3.org/2000/svg" xmlns:xlink="http://www.w3.org/1999/xlink">
<g id="graph0" class="graph" transform="scale(1 1) rotate(0) translate(4 760)">
<title>dependency_map</title>
<polygon fill="white" stroke="none" points="-4,4 -4,-760 1491.39,-760 1491.39,4 -4,4"/>
<!-- proto -->
<g id="node1" class="node"><title>proto</title>
<ellipse fill="none" stroke="black" cx="682.644" cy="-738" rx="30.5947" ry="18"/>
<text text-anchor="middle" x="682.644" y="-734.3" font-family="Times New Roman,serif" font-size="14.00">proto</text>
</g>
<!-- types/eq -->
<g id="node2" class="node"><title>types/eq</title>
<ellipse fill="none" stroke="black" cx="742.644" cy="-666" rx="41.6928" ry="18"/>
<text text-anchor="middle" x="742.644" y="-662.3" font-family="Times New Roman,serif" font-size="14.00">types/eq</text>
</g>
<!-- proto&#45;&gt;types/eq -->
<g id="edge1" class="edge"><title>proto&#45;&gt;types/eq</title>
<path fill="none" stroke="black" d="M695.96,-721.465C703.588,-712.566 713.326,-701.205 721.932,-691.164"/>
<polygon fill="black" stroke="black" points="724.679,-693.338 728.529,-683.467 719.364,-688.782 724.679,-693.338"/>
</g>
<!-- support -->
<g id="node4" class="node"><title>support</title>
<ellipse fill="none" stroke="black" cx="742.644" cy="-594" rx="38.9931" ry="18"/>
<text text-anchor="middle" x="742.644" y="-590.3" font-family="Times New Roman,serif" font-size="14.00">support</text>
</g>
<!-- types/eq&#45;&gt;support -->
<g id="edge11" class="edge"><title>types/eq&#45;&gt;support</title>
<path fill="none" stroke="black" d="M742.644,-647.697C742.644,-639.983 742.644,-630.712 742.644,-622.112"/>
<polygon fill="black" stroke="black" points="746.144,-622.104 742.644,-612.104 739.144,-622.104 746.144,-622.104"/>
</g>
<!-- meta/hott_theory -->
<g id="node3" class="node"><title>meta/hott_theory</title>
<ellipse fill="none" stroke="black" cx="803.644" cy="-738" rx="72.2875" ry="18"/>
<text text-anchor="middle" x="803.644" y="-734.3" font-family="Times New Roman,serif" font-size="14.00">meta/hott_theory</text>
</g>
<!-- meta/hott_theory&#45;&gt;types/eq -->
<g id="edge2" class="edge"><title>meta/hott_theory&#45;&gt;types/eq</title>
<path fill="none" stroke="black" d="M788.878,-720.055C781.275,-711.33 771.876,-700.544 763.542,-690.981"/>
<polygon fill="black" stroke="black" points="766.063,-688.547 756.855,-683.307 760.786,-693.146 766.063,-688.547"/>
</g>
<!-- types/equiv -->
<g id="node5" class="node"><title>types/equiv</title>
<ellipse fill="none" stroke="black" cx="742.644" cy="-522" rx="51.9908" ry="18"/>
<text text-anchor="middle" x="742.644" y="-518.3" font-family="Times New Roman,serif" font-size="14.00">types/equiv</text>
</g>
<!-- support&#45;&gt;types/equiv -->
<g id="edge3" class="edge"><title>support&#45;&gt;types/equiv</title>
<path fill="none" stroke="black" d="M742.644,-575.697C742.644,-567.983 742.644,-558.712 742.644,-550.112"/>
<polygon fill="black" stroke="black" points="746.144,-550.104 742.644,-540.104 739.144,-550.104 746.144,-550.104"/>
</g>
<!-- types/coproduct -->
<g id="node13" class="node"><title>types/coproduct</title>
<ellipse fill="none" stroke="black" cx="528.644" cy="-378" rx="70.6878" ry="18"/>
<text text-anchor="middle" x="528.644" y="-374.3" font-family="Times New Roman,serif" font-size="14.00">types/coproduct</text>
</g>
<!-- types/equiv&#45;&gt;types/coproduct -->
<g id="edge12" class="edge"><title>types/equiv&#45;&gt;types/coproduct</title>
<path fill="none" stroke="black" d="M704.143,-509.895C677.337,-501.073 641.538,-487.047 613.644,-468 587.552,-450.183 563.242,-423.254 547.361,-403.684"/>
<polygon fill="black" stroke="black" points="550.053,-401.446 541.09,-395.795 544.573,-405.801 550.053,-401.446"/>
</g>
<!-- types/heq -->
<g id="node16" class="node"><title>types/heq</title>
<ellipse fill="none" stroke="black" cx="779.644" cy="-450" rx="46.2923" ry="18"/>
<text text-anchor="middle" x="779.644" y="-446.3" font-family="Times New Roman,serif" font-size="14.00">types/heq</text>
</g>
<!-- types/equiv&#45;&gt;types/heq -->
<g id="edge13" class="edge"><title>types/equiv&#45;&gt;types/heq</title>
<path fill="none" stroke="black" d="M751.601,-504.055C755.918,-495.887 761.191,-485.912 765.994,-476.824"/>
<polygon fill="black" stroke="black" points="769.191,-478.266 770.77,-467.789 763.003,-474.994 769.191,-478.266"/>
</g>
<!-- HITs/infinitesimal -->
<g id="node17" class="node"><title>HITs/infinitesimal</title>
<ellipse fill="none" stroke="black" cx="918.644" cy="-450" rx="74.9875" ry="18"/>
<text text-anchor="middle" x="918.644" y="-446.3" font-family="Times New Roman,serif" font-size="14.00">HITs/infinitesimal</text>
</g>
<!-- types/equiv&#45;&gt;HITs/infinitesimal -->
<g id="edge14" class="edge"><title>types/equiv&#45;&gt;HITs/infinitesimal</title>
<path fill="none" stroke="black" d="M775.336,-507.998C802.516,-497.187 841.533,-481.669 871.995,-469.554"/>
<polygon fill="black" stroke="black" points="873.56,-472.698 881.558,-465.75 870.973,-466.194 873.56,-472.698"/>
</g>
<!-- types/lost -->
<g id="node18" class="node"><title>types/lost</title>
<ellipse fill="none" stroke="black" cx="1057.64" cy="-450" rx="46.2923" ry="18"/>
<text text-anchor="middle" x="1057.64" y="-446.3" font-family="Times New Roman,serif" font-size="14.00">types/lost</text>
</g>
<!-- types/equiv&#45;&gt;types/lost -->
<g id="edge15" class="edge"><title>types/equiv&#45;&gt;types/lost</title>
<path fill="none" stroke="black" d="M788.044,-513.15C840.177,-503.811 928.112,-487.066 1002.64,-468 1006.24,-467.079 1009.96,-466.067 1013.68,-465.009"/>
<polygon fill="black" stroke="black" points="1014.86,-468.312 1023.47,-462.136 1012.88,-461.595 1014.86,-468.312"/>
</g>
<!-- types/unit -->
<g id="node19" class="node"><title>types/unit</title>
<ellipse fill="none" stroke="black" cx="705.644" cy="-378" rx="46.2923" ry="18"/>
<text text-anchor="middle" x="705.644" y="-374.3" font-family="Times New Roman,serif" font-size="14.00">types/unit</text>
</g>
<!-- types/equiv&#45;&gt;types/unit -->
<g id="edge16" class="edge"><title>types/equiv&#45;&gt;types/unit</title>
<path fill="none" stroke="black" d="M736.294,-503.972C732.589,-493.656 728,-480.179 724.644,-468 719.014,-447.565 714.067,-424.106 710.633,-406.405"/>
<polygon fill="black" stroke="black" points="714.001,-405.378 708.698,-396.206 707.123,-406.683 714.001,-405.378"/>
</g>
<!-- types/sigma -->
<g id="node20" class="node"><title>types/sigma</title>
<ellipse fill="none" stroke="black" cx="745.644" cy="-234" rx="53.8905" ry="18"/>
<text text-anchor="middle" x="745.644" y="-230.3" font-family="Times New Roman,serif" font-size="14.00">types/sigma</text>
</g>
<!-- types/equiv&#45;&gt;types/sigma -->
<g id="edge17" class="edge"><title>types/equiv&#45;&gt;types/sigma</title>
<path fill="none" stroke="black" d="M725.854,-504.683C687.685,-465.557 601.122,-364.005 646.644,-288 657.442,-269.972 676.698,-257.729 695.375,-249.596"/>
<polygon fill="black" stroke="black" points="696.782,-252.803 704.749,-245.818 694.165,-246.311 696.782,-252.803"/>
</g>
<!-- structures -->
<g id="node6" class="node"><title>structures</title>
<ellipse fill="none" stroke="black" cx="843.644" cy="-306" rx="46.2923" ry="18"/>
<text text-anchor="middle" x="843.644" y="-302.3" font-family="Times New Roman,serif" font-size="14.00">structures</text>
</g>
<!-- theorems/ua -->
<g id="node7" class="node"><title>theorems/ua</title>
<ellipse fill="none" stroke="black" cx="1223.64" cy="-234" rx="54.6905" ry="18"/>
<text text-anchor="middle" x="1223.64" y="-230.3" font-family="Times New Roman,serif" font-size="14.00">theorems/ua</text>
</g>
<!-- structures&#45;&gt;theorems/ua -->
<g id="edge4" class="edge"><title>structures&#45;&gt;theorems/ua</title>
<path fill="none" stroke="black" d="M877.476,-293.74C884.429,-291.653 891.736,-289.623 898.644,-288 989.772,-266.594 1097.29,-250.889 1162.94,-242.349"/>
<polygon fill="black" stroke="black" points="1163.64,-245.788 1173.11,-241.04 1162.75,-238.845 1163.64,-245.788"/>
</g>
<!-- HITs/interval -->
<g id="node8" class="node"><title>HITs/interval</title>
<ellipse fill="none" stroke="black" cx="603.644" cy="-234" rx="57.6901" ry="18"/>
<text text-anchor="middle" x="603.644" y="-230.3" font-family="Times New Roman,serif" font-size="14.00">HITs/interval</text>
</g>
<!-- structures&#45;&gt;HITs/interval -->
<g id="edge5" class="edge"><title>structures&#45;&gt;HITs/interval</title>
<path fill="none" stroke="black" d="M808.763,-294.099C802.092,-292.048 795.158,-289.939 788.644,-288 743.716,-274.623 692.464,-259.988 655.316,-249.493"/>
<polygon fill="black" stroke="black" points="655.804,-245.994 645.229,-246.647 653.903,-252.731 655.804,-245.994"/>
</g>
<!-- HITs/merely -->
<g id="node9" class="node"><title>HITs/merely</title>
<ellipse fill="none" stroke="black" cx="1020.64" cy="-234" rx="55.7903" ry="18"/>
<text text-anchor="middle" x="1020.64" y="-230.3" font-family="Times New Roman,serif" font-size="14.00">HITs/merely</text>
</g>
<!-- structures&#45;&gt;HITs/merely -->
<g id="edge6" class="edge"><title>structures&#45;&gt;HITs/merely</title>
<path fill="none" stroke="black" d="M874.881,-292.647C903.302,-281.407 945.531,-264.706 977.231,-252.169"/>
<polygon fill="black" stroke="black" points="978.691,-255.355 986.703,-248.423 976.117,-248.846 978.691,-255.355"/>
</g>
<!-- HITs/trunc -->
<g id="node10" class="node"><title>HITs/trunc</title>
<ellipse fill="none" stroke="black" cx="1346.64" cy="-234" rx="50.8918" ry="18"/>
<text text-anchor="middle" x="1346.64" y="-230.3" font-family="Times New Roman,serif" font-size="14.00">HITs/trunc</text>
</g>
<!-- structures&#45;&gt;HITs/trunc -->
<g id="edge7" class="edge"><title>structures&#45;&gt;HITs/trunc</title>
<path fill="none" stroke="black" d="M877.101,-293.45C884.148,-291.36 891.586,-289.402 898.644,-288 1068.95,-254.181 1117.02,-284.179 1287.64,-252 1291.83,-251.211 1296.14,-250.254 1300.44,-249.202"/>
<polygon fill="black" stroke="black" points="1301.6,-252.517 1310.39,-246.605 1299.83,-245.744 1301.6,-252.517"/>
</g>
<!-- types/nat -->
<g id="node11" class="node"><title>types/nat</title>
<ellipse fill="none" stroke="black" cx="884.644" cy="-234" rx="43.5923" ry="18"/>
<text text-anchor="middle" x="884.644" y="-230.3" font-family="Times New Roman,serif" font-size="14.00">types/nat</text>
</g>
<!-- structures&#45;&gt;types/nat -->
<g id="edge8" class="edge"><title>structures&#45;&gt;types/nat</title>
<path fill="none" stroke="black" d="M853.569,-288.055C858.404,-279.801 864.319,-269.701 869.686,-260.538"/>
<polygon fill="black" stroke="black" points="872.777,-262.187 874.811,-251.789 866.736,-258.649 872.777,-262.187"/>
</g>
<!-- theorems/nat -->
<g id="node25" class="node"><title>theorems/nat</title>
<ellipse fill="none" stroke="black" cx="884.644" cy="-162" rx="57.3905" ry="18"/>
<text text-anchor="middle" x="884.644" y="-158.3" font-family="Times New Roman,serif" font-size="14.00">theorems/nat</text>
</g>
<!-- theorems/ua&#45;&gt;theorems/nat -->
<g id="edge66" class="edge"><title>theorems/ua&#45;&gt;theorems/nat</title>
<path fill="none" stroke="black" d="M1176.61,-224.759C1122.06,-214.997 1029.53,-197.8 950.644,-180 946.053,-178.964 941.294,-177.839 936.532,-176.679"/>
<polygon fill="black" stroke="black" points="937.352,-173.276 926.803,-174.263 935.665,-180.07 937.352,-173.276"/>
</g>
<!-- theorems/group -->
<g id="node42" class="node"><title>theorems/group</title>
<ellipse fill="none" stroke="black" cx="1393.64" cy="-90" rx="67.6881" ry="18"/>
<text text-anchor="middle" x="1393.64" y="-86.3" font-family="Times New Roman,serif" font-size="14.00">theorems/group</text>
</g>
<!-- theorems/ua&#45;&gt;theorems/group -->
<g id="edge67" class="edge"><title>theorems/ua&#45;&gt;theorems/group</title>
<path fill="none" stroke="black" d="M1252.34,-218.435C1270.23,-208.712 1293.26,-194.992 1311.64,-180 1335.33,-160.682 1358.57,-134.58 1374.23,-115.642"/>
<polygon fill="black" stroke="black" points="1377.06,-117.714 1380.66,-107.75 1371.63,-113.292 1377.06,-117.714"/>
</g>
<!-- cubical/V -->
<g id="node47" class="node"><title>cubical/V</title>
<ellipse fill="none" stroke="black" cx="1188.64" cy="-18" rx="45.4919" ry="18"/>
<text text-anchor="middle" x="1188.64" y="-14.3" font-family="Times New Roman,serif" font-size="14.00">cubical/V</text>
</g>
<!-- theorems/ua&#45;&gt;cubical/V -->
<g id="edge68" class="edge"><title>theorems/ua&#45;&gt;cubical/V</title>
<path fill="none" stroke="black" d="M1247.02,-217.552C1258.89,-208.248 1272.16,-195.255 1278.64,-180 1284.9,-165.275 1283.56,-159.227 1278.64,-144 1265.66,-103.757 1234.38,-65.5379 1212.36,-42.196"/>
<polygon fill="black" stroke="black" points="1214.75,-39.6324 1205.29,-34.869 1209.71,-44.4943 1214.75,-39.6324"/>
</g>
<!-- HITs/circle -->
<g id="node23" class="node"><title>HITs/circle</title>
<ellipse fill="none" stroke="black" cx="197.644" cy="-90" rx="51.9908" ry="18"/>
<text text-anchor="middle" x="197.644" y="-86.3" font-family="Times New Roman,serif" font-size="14.00">HITs/circle</text>
</g>
<!-- HITs/interval&#45;&gt;HITs/circle -->
<g id="edge42" class="edge"><title>HITs/interval&#45;&gt;HITs/circle</title>
<path fill="none" stroke="black" d="M547.61,-229.231C496.797,-223.886 421.124,-210.999 362.644,-180 342.089,-169.104 344.144,-156.688 324.644,-144 299.894,-127.895 269.44,-114.987 244.559,-105.943"/>
<polygon fill="black" stroke="black" points="245.566,-102.587 234.972,-102.548 243.229,-109.185 245.566,-102.587"/>
</g>
<!-- theorems/fibration -->
<g id="node28" class="node"><title>theorems/fibration</title>
<ellipse fill="none" stroke="black" cx="448.644" cy="-162" rx="76.8869" ry="18"/>
<text text-anchor="middle" x="448.644" y="-158.3" font-family="Times New Roman,serif" font-size="14.00">theorems/fibration</text>
</g>
<!-- HITs/interval&#45;&gt;theorems/fibration -->
<g id="edge43" class="edge"><title>HITs/interval&#45;&gt;theorems/fibration</title>
<path fill="none" stroke="black" d="M572.278,-218.834C549.036,-208.338 517.092,-193.912 491.496,-182.353"/>
<polygon fill="black" stroke="black" points="492.936,-179.162 482.381,-178.236 490.055,-185.542 492.936,-179.162"/>
</g>
<!-- theorems/prop -->
<g id="node29" class="node"><title>theorems/prop</title>
<ellipse fill="none" stroke="black" cx="745.644" cy="-162" rx="63.8893" ry="18"/>
<text text-anchor="middle" x="745.644" y="-158.3" font-family="Times New Roman,serif" font-size="14.00">theorems/prop</text>
</g>
<!-- HITs/interval&#45;&gt;theorems/prop -->
<g id="edge44" class="edge"><title>HITs/interval&#45;&gt;theorems/prop</title>
<path fill="none" stroke="black" d="M633.067,-218.496C654.201,-208.078 682.923,-193.919 706.066,-182.51"/>
<polygon fill="black" stroke="black" points="707.858,-185.529 715.28,-177.968 704.763,-179.251 707.858,-185.529"/>
</g>
<!-- cubical/cubes -->
<g id="node39" class="node"><title>cubical/cubes</title>
<ellipse fill="none" stroke="black" cx="603.644" cy="-162" rx="60.3893" ry="18"/>
<text text-anchor="middle" x="603.644" y="-158.3" font-family="Times New Roman,serif" font-size="14.00">cubical/cubes</text>
</g>
<!-- HITs/interval&#45;&gt;cubical/cubes -->
<g id="edge45" class="edge"><title>HITs/interval&#45;&gt;cubical/cubes</title>
<path fill="none" stroke="black" d="M603.644,-215.697C603.644,-207.983 603.644,-198.712 603.644,-190.112"/>
<polygon fill="black" stroke="black" points="607.144,-190.104 603.644,-180.104 600.144,-190.104 607.144,-190.104"/>
</g>
<!-- HITs/merely&#45;&gt;theorems/prop -->
<g id="edge46" class="edge"><title>HITs/merely&#45;&gt;theorems/prop</title>
<path fill="none" stroke="black" d="M978.278,-222.216C930.72,-210.11 853.38,-190.424 801.057,-177.105"/>
<polygon fill="black" stroke="black" points="801.821,-173.688 791.267,-174.613 800.095,-180.472 801.821,-173.688"/>
</g>
<!-- theorems/functions -->
<g id="node30" class="node"><title>theorems/functions</title>
<ellipse fill="none" stroke="black" cx="1039.64" cy="-162" rx="79.8859" ry="18"/>
<text text-anchor="middle" x="1039.64" y="-158.3" font-family="Times New Roman,serif" font-size="14.00">theorems/functions</text>
</g>
<!-- HITs/merely&#45;&gt;theorems/functions -->
<g id="edge47" class="edge"><title>HITs/merely&#45;&gt;theorems/functions</title>
<path fill="none" stroke="black" d="M1025.24,-216.055C1027.36,-208.261 1029.92,-198.822 1032.29,-190.079"/>
<polygon fill="black" stroke="black" points="1035.71,-190.843 1034.96,-180.275 1028.96,-189.009 1035.71,-190.843"/>
</g>
<!-- HITs/simplicial -->
<g id="node41" class="node"><title>HITs/simplicial</title>
<ellipse fill="none" stroke="black" cx="1203.64" cy="-162" rx="65.7887" ry="18"/>
<text text-anchor="middle" x="1203.64" y="-158.3" font-family="Times New Roman,serif" font-size="14.00">HITs/simplicial</text>
</g>
<!-- HITs/merely&#45;&gt;HITs/simplicial -->
<g id="edge48" class="edge"><title>HITs/merely&#45;&gt;HITs/simplicial</title>
<path fill="none" stroke="black" d="M1055.5,-219.669C1084.44,-208.597 1125.86,-192.754 1157.54,-180.634"/>
<polygon fill="black" stroke="black" points="1158.95,-183.843 1167.04,-177.001 1156.45,-177.305 1158.95,-183.843"/>
</g>
<!-- HITs/quotient -->
<g id="node38" class="node"><title>HITs/quotient</title>
<ellipse fill="none" stroke="black" cx="1425.64" cy="-162" rx="61.99" ry="18"/>
<text text-anchor="middle" x="1425.64" y="-158.3" font-family="Times New Roman,serif" font-size="14.00">HITs/quotient</text>
</g>
<!-- HITs/trunc&#45;&gt;HITs/quotient -->
<g id="edge53" class="edge"><title>HITs/trunc&#45;&gt;HITs/quotient</title>
<path fill="none" stroke="black" d="M1364.57,-217.116C1374.93,-207.939 1388.14,-196.233 1399.62,-186.057"/>
<polygon fill="black" stroke="black" points="1402.08,-188.558 1407.24,-179.307 1397.43,-183.319 1402.08,-188.558"/>
</g>
<!-- types/nat&#45;&gt;theorems/nat -->
<g id="edge22" class="edge"><title>types/nat&#45;&gt;theorems/nat</title>
<path fill="none" stroke="black" d="M884.644,-215.697C884.644,-207.983 884.644,-198.712 884.644,-190.112"/>
<polygon fill="black" stroke="black" points="888.144,-190.104 884.644,-180.104 881.144,-190.104 888.144,-190.104"/>
</g>
<!-- types/category -->
<g id="node12" class="node"><title>types/category</title>
<ellipse fill="none" stroke="black" cx="953.644" cy="-18" rx="63.8893" ry="18"/>
<text text-anchor="middle" x="953.644" y="-14.3" font-family="Times New Roman,serif" font-size="14.00">types/category</text>
</g>
<!-- types/coproduct&#45;&gt;structures -->
<g id="edge9" class="edge"><title>types/coproduct&#45;&gt;structures</title>
<path fill="none" stroke="black" d="M585.307,-367.117C638.225,-357.494 719.244,-341.753 788.644,-324 792.245,-323.079 795.96,-322.067 799.68,-321.009"/>
<polygon fill="black" stroke="black" points="800.857,-324.312 809.466,-318.136 798.885,-317.595 800.857,-324.312"/>
</g>
<!-- types/integer -->
<g id="node14" class="node"><title>types/integer</title>
<ellipse fill="none" stroke="black" cx="159.644" cy="-306" rx="56.59" ry="18"/>
<text text-anchor="middle" x="159.644" y="-302.3" font-family="Times New Roman,serif" font-size="14.00">types/integer</text>
</g>
<!-- types/coproduct&#45;&gt;types/integer -->
<g id="edge10" class="edge"><title>types/coproduct&#45;&gt;types/integer</title>
<path fill="none" stroke="black" d="M473.8,-366.596C404.816,-353.51 286.935,-331.147 216.855,-317.853"/>
<polygon fill="black" stroke="black" points="217.351,-314.385 206.874,-315.96 216.046,-321.262 217.351,-314.385"/>
</g>
<!-- types/integer&#45;&gt;HITs/circle -->
<g id="edge20" class="edge"><title>types/integer&#45;&gt;HITs/circle</title>
<path fill="none" stroke="black" d="M162.69,-287.849C169.277,-250.753 184.893,-162.81 192.832,-118.103"/>
<polygon fill="black" stroke="black" points="196.282,-118.69 194.584,-108.232 189.39,-117.466 196.282,-118.69"/>
</g>
<!-- types/rational -->
<g id="node24" class="node"><title>types/rational</title>
<ellipse fill="none" stroke="black" cx="68.6442" cy="-234" rx="59.2899" ry="18"/>
<text text-anchor="middle" x="68.6442" y="-230.3" font-family="Times New Roman,serif" font-size="14.00">types/rational</text>
</g>
<!-- types/integer&#45;&gt;types/rational -->
<g id="edge21" class="edge"><title>types/integer&#45;&gt;types/rational</title>
<path fill="none" stroke="black" d="M138.995,-289.116C126.749,-279.696 111.038,-267.611 97.5709,-257.251"/>
<polygon fill="black" stroke="black" points="99.587,-254.386 89.5268,-251.064 95.319,-259.935 99.587,-254.386"/>
</g>
<!-- types/dedekind -->
<g id="node15" class="node"><title>types/dedekind</title>
<ellipse fill="none" stroke="black" cx="65.6442" cy="-162" rx="65.7887" ry="18"/>
<text text-anchor="middle" x="65.6442" y="-158.3" font-family="Times New Roman,serif" font-size="14.00">types/dedekind</text>
</g>
<!-- HITs/graph -->
<g id="node21" class="node"><title>HITs/graph</title>
<ellipse fill="none" stroke="black" cx="980.644" cy="-378" rx="52.7911" ry="18"/>
<text text-anchor="middle" x="980.644" y="-374.3" font-family="Times New Roman,serif" font-size="14.00">HITs/graph</text>
</g>
<!-- types/heq&#45;&gt;HITs/graph -->
<g id="edge18" class="edge"><title>types/heq&#45;&gt;HITs/graph</title>
<path fill="none" stroke="black" d="M812.835,-437.441C846.306,-425.785 898.21,-407.708 935.429,-394.747"/>
<polygon fill="black" stroke="black" points="936.739,-397.997 945.031,-391.402 934.437,-391.386 936.739,-397.997"/>
</g>
<!-- theorems/funext -->
<g id="node22" class="node"><title>theorems/funext</title>
<ellipse fill="none" stroke="black" cx="840.644" cy="-378" rx="68.7879" ry="18"/>
<text text-anchor="middle" x="840.644" y="-374.3" font-family="Times New Roman,serif" font-size="14.00">theorems/funext</text>
</g>
<!-- types/heq&#45;&gt;theorems/funext -->
<g id="edge19" class="edge"><title>types/heq&#45;&gt;theorems/funext</title>
<path fill="none" stroke="black" d="M793.792,-432.765C801.381,-424.056 810.888,-413.147 819.351,-403.435"/>
<polygon fill="black" stroke="black" points="822.218,-405.472 826.149,-395.633 816.941,-400.873 822.218,-405.472"/>
</g>
<!-- types/unit&#45;&gt;structures -->
<g id="edge30" class="edge"><title>types/unit&#45;&gt;structures</title>
<path fill="none" stroke="black" d="M732.58,-363.337C753.907,-352.519 783.906,-337.302 807.351,-325.41"/>
<polygon fill="black" stroke="black" points="808.97,-328.513 816.305,-320.868 805.803,-322.27 808.97,-328.513"/>
</g>
<!-- HITs/suspension -->
<g id="node31" class="node"><title>HITs/suspension</title>
<ellipse fill="none" stroke="black" cx="360.644" cy="-234" rx="72.5877" ry="18"/>
<text text-anchor="middle" x="360.644" y="-230.3" font-family="Times New Roman,serif" font-size="14.00">HITs/suspension</text>
</g>
<!-- types/unit&#45;&gt;HITs/suspension -->
<g id="edge31" class="edge"><title>types/unit&#45;&gt;HITs/suspension</title>
<path fill="none" stroke="black" d="M675.028,-364.398C614.153,-339.343 477.639,-283.155 406.197,-253.749"/>
<polygon fill="black" stroke="black" points="407.142,-250.353 396.562,-249.784 404.478,-256.826 407.142,-250.353"/>
</g>
<!-- types/sigma&#45;&gt;theorems/nat -->
<g id="edge26" class="edge"><title>types/sigma&#45;&gt;theorems/nat</title>
<path fill="none" stroke="black" d="M774.108,-218.666C795.051,-208.119 823.738,-193.672 846.639,-182.139"/>
<polygon fill="black" stroke="black" points="848.383,-185.18 855.74,-177.556 845.235,-178.928 848.383,-185.18"/>
</g>
<!-- types/sigma&#45;&gt;theorems/fibration -->
<g id="edge27" class="edge"><title>types/sigma&#45;&gt;theorems/fibration</title>
<path fill="none" stroke="black" d="M702.775,-222.896C652.387,-211.02 568.358,-191.215 510.818,-177.654"/>
<polygon fill="black" stroke="black" points="511.29,-174.169 500.754,-175.282 509.684,-180.982 511.29,-174.169"/>
</g>
<!-- types/sigma&#45;&gt;theorems/prop -->
<g id="edge28" class="edge"><title>types/sigma&#45;&gt;theorems/prop</title>
<path fill="none" stroke="black" d="M745.644,-215.697C745.644,-207.983 745.644,-198.712 745.644,-190.112"/>
<polygon fill="black" stroke="black" points="749.144,-190.104 745.644,-180.104 742.144,-190.104 749.144,-190.104"/>
</g>
<!-- types/sigma&#45;&gt;theorems/functions -->
<g id="edge29" class="edge"><title>types/sigma&#45;&gt;theorems/functions</title>
<path fill="none" stroke="black" d="M788.394,-222.821C837.973,-211.017 920.147,-191.452 976.95,-177.927"/>
<polygon fill="black" stroke="black" points="977.977,-181.281 986.895,-175.559 976.356,-174.471 977.977,-181.281"/>
</g>
<!-- HITs/colimit -->
<g id="node35" class="node"><title>HITs/colimit</title>
<ellipse fill="none" stroke="black" cx="964.644" cy="-306" rx="56.59" ry="18"/>
<text text-anchor="middle" x="964.644" y="-302.3" font-family="Times New Roman,serif" font-size="14.00">HITs/colimit</text>
</g>
<!-- HITs/graph&#45;&gt;HITs/colimit -->
<g id="edge38" class="edge"><title>HITs/graph&#45;&gt;HITs/colimit</title>
<path fill="none" stroke="black" d="M976.689,-359.697C974.926,-351.983 972.807,-342.712 970.841,-334.112"/>
<polygon fill="black" stroke="black" points="974.194,-333.073 968.554,-324.104 967.37,-334.633 974.194,-333.073"/>
</g>
<!-- HITs/generalized -->
<g id="node36" class="node"><title>HITs/generalized</title>
<ellipse fill="none" stroke="black" cx="1111.64" cy="-306" rx="72.2875" ry="18"/>
<text text-anchor="middle" x="1111.64" y="-302.3" font-family="Times New Roman,serif" font-size="14.00">HITs/generalized</text>
</g>
<!-- HITs/graph&#45;&gt;HITs/generalized -->
<g id="edge39" class="edge"><title>HITs/graph&#45;&gt;HITs/generalized</title>
<path fill="none" stroke="black" d="M1007.79,-362.496C1026.72,-352.38 1052.25,-338.736 1073.26,-327.509"/>
<polygon fill="black" stroke="black" points="1075.09,-330.502 1082.26,-322.703 1071.79,-324.329 1075.09,-330.502"/>
</g>
<!-- HITs/pushout -->
<g id="node37" class="node"><title>HITs/pushout</title>
<ellipse fill="none" stroke="black" cx="717.644" cy="-306" rx="61.99" ry="18"/>
<text text-anchor="middle" x="717.644" y="-302.3" font-family="Times New Roman,serif" font-size="14.00">HITs/pushout</text>
</g>
<!-- HITs/graph&#45;&gt;HITs/pushout -->
<g id="edge40" class="edge"><title>HITs/graph&#45;&gt;HITs/pushout</title>
<path fill="none" stroke="black" d="M940.97,-366.059C933.554,-364.032 925.866,-361.942 918.644,-360 869.007,-346.651 812.385,-331.75 771.914,-321.156"/>
<polygon fill="black" stroke="black" points="772.548,-317.704 761.987,-318.559 770.776,-324.476 772.548,-317.704"/>
</g>
<!-- HITs/graph&#45;&gt;HITs/quotient -->
<g id="edge41" class="edge"><title>HITs/graph&#45;&gt;HITs/quotient</title>
<path fill="none" stroke="black" d="M1031.6,-373.308C1116.46,-366.511 1282.55,-350.264 1334.64,-324 1375.05,-303.626 1385.03,-291.761 1406.64,-252 1417.05,-232.853 1421.76,-208.502 1423.89,-190.114"/>
<polygon fill="black" stroke="black" points="1427.38,-190.352 1424.87,-180.06 1420.41,-189.674 1427.38,-190.352"/>
</g>
<!-- theorems/funext&#45;&gt;structures -->
<g id="edge61" class="edge"><title>theorems/funext&#45;&gt;structures</title>
<path fill="none" stroke="black" d="M841.386,-359.697C841.716,-351.983 842.114,-342.712 842.482,-334.112"/>
<polygon fill="black" stroke="black" points="845.98,-334.245 842.911,-324.104 838.986,-333.945 845.98,-334.245"/>
</g>
<!-- types/product -->
<g id="node27" class="node"><title>types/product</title>
<ellipse fill="none" stroke="black" cx="1263.64" cy="-306" rx="61.99" ry="18"/>
<text text-anchor="middle" x="1263.64" y="-302.3" font-family="Times New Roman,serif" font-size="14.00">types/product</text>
</g>
<!-- theorems/funext&#45;&gt;types/product -->
<g id="edge62" class="edge"><title>theorems/funext&#45;&gt;types/product</title>
<path fill="none" stroke="black" d="M890.454,-365.492C899.794,-363.519 909.496,-361.595 918.644,-360 1039.64,-338.904 1071.87,-346.331 1192.64,-324 1197.94,-323.021 1203.44,-321.898 1208.92,-320.706"/>
<polygon fill="black" stroke="black" points="1209.73,-324.11 1218.72,-318.504 1208.2,-317.281 1209.73,-324.11"/>
</g>
<!-- theorems/hopf -->
<g id="node32" class="node"><title>theorems/hopf</title>
<ellipse fill="none" stroke="black" cx="331.644" cy="-18" rx="63.8893" ry="18"/>
<text text-anchor="middle" x="331.644" y="-14.3" font-family="Times New Roman,serif" font-size="14.00">theorems/hopf</text>
</g>
<!-- HITs/circle&#45;&gt;theorems/hopf -->
<g id="edge32" class="edge"><title>HITs/circle&#45;&gt;theorems/hopf</title>
<path fill="none" stroke="black" d="M225.084,-74.6655C244.782,-64.3758 271.586,-50.3735 293.384,-38.9868"/>
<polygon fill="black" stroke="black" points="295.141,-42.0179 302.384,-34.2854 291.899,-35.8134 295.141,-42.0179"/>
</g>
<!-- HITs/moebius -->
<g id="node33" class="node"><title>HITs/moebius</title>
<ellipse fill="none" stroke="black" cx="186.644" cy="-18" rx="63.0888" ry="18"/>
<text text-anchor="middle" x="186.644" y="-14.3" font-family="Times New Roman,serif" font-size="14.00">HITs/moebius</text>
</g>
<!-- HITs/circle&#45;&gt;HITs/moebius -->
<g id="edge33" class="edge"><title>HITs/circle&#45;&gt;HITs/moebius</title>
<path fill="none" stroke="black" d="M194.925,-71.6966C193.713,-63.9827 192.256,-54.7125 190.905,-46.1124"/>
<polygon fill="black" stroke="black" points="194.342,-45.4397 189.332,-36.1043 187.427,-46.5265 194.342,-45.4397"/>
</g>
<!-- HITs/reals -->
<g id="node34" class="node"><title>HITs/reals</title>
<ellipse fill="none" stroke="black" cx="56.6442" cy="-18" rx="48.9926" ry="18"/>
<text text-anchor="middle" x="56.6442" y="-14.3" font-family="Times New Roman,serif" font-size="14.00">HITs/reals</text>
</g>
<!-- HITs/circle&#45;&gt;HITs/reals -->
<g id="edge34" class="edge"><title>HITs/circle&#45;&gt;HITs/reals</title>
<path fill="none" stroke="black" d="M169.111,-74.8345C147.373,-64.0424 117.265,-49.0953 93.6707,-37.382"/>
<polygon fill="black" stroke="black" points="95.1673,-34.2174 84.654,-32.9056 92.0546,-40.4873 95.1673,-34.2174"/>
</g>
<!-- types/rational&#45;&gt;types/dedekind -->
<g id="edge25" class="edge"><title>types/rational&#45;&gt;types/dedekind</title>
<path fill="none" stroke="black" d="M67.9026,-215.697C67.572,-207.983 67.1747,-198.712 66.8061,-190.112"/>
<polygon fill="black" stroke="black" points="70.3023,-189.945 66.3772,-180.104 63.3087,-190.245 70.3023,-189.945"/>
</g>
<!-- theorems/nat&#45;&gt;HITs/circle -->
<g id="edge63" class="edge"><title>theorems/nat&#45;&gt;HITs/circle</title>
<path fill="none" stroke="black" d="M843.681,-149.319C835.444,-147.291 826.809,-145.39 818.644,-144 615.901,-109.486 371.898,-97.0066 259.659,-92.8678"/>
<polygon fill="black" stroke="black" points="259.657,-89.3656 249.537,-92.5041 259.405,-96.361 259.657,-89.3656"/>
</g>
<!-- HITs/int -->
<g id="node48" class="node"><title>HITs/int</title>
<ellipse fill="none" stroke="black" cx="907.644" cy="-90" rx="40.8928" ry="18"/>
<text text-anchor="middle" x="907.644" y="-86.3" font-family="Times New Roman,serif" font-size="14.00">HITs/int</text>
</g>
<!-- theorems/nat&#45;&gt;HITs/int -->
<g id="edge64" class="edge"><title>theorems/nat&#45;&gt;HITs/int</title>
<path fill="none" stroke="black" d="M890.212,-144.055C892.801,-136.176 895.942,-126.617 898.84,-117.794"/>
<polygon fill="black" stroke="black" points="902.172,-118.868 901.968,-108.275 895.521,-116.683 902.172,-118.868"/>
</g>
<!-- types/precategory -->
<g id="node26" class="node"><title>types/precategory</title>
<ellipse fill="none" stroke="black" cx="773.644" cy="-90" rx="75.2868" ry="18"/>
<text text-anchor="middle" x="773.644" y="-86.3" font-family="Times New Roman,serif" font-size="14.00">types/precategory</text>
</g>
<!-- types/precategory&#45;&gt;types/category -->
<g id="edge23" class="edge"><title>types/precategory&#45;&gt;types/category</title>
<path fill="none" stroke="black" d="M811.378,-74.3257C839.657,-63.3284 878.471,-48.2341 908.414,-36.5895"/>
<polygon fill="black" stroke="black" points="909.748,-39.8262 917.799,-32.9396 907.211,-33.3021 909.748,-39.8262"/>
</g>
<!-- types/product&#45;&gt;theorems/ua -->
<g id="edge24" class="edge"><title>types/product&#45;&gt;theorems/ua</title>
<path fill="none" stroke="black" d="M1253.96,-288.055C1249.24,-279.801 1243.47,-269.701 1238.24,-260.538"/>
<polygon fill="black" stroke="black" points="1241.24,-258.735 1233.24,-251.789 1235.16,-262.208 1241.24,-258.735"/>
</g>
<!-- theorems/fibration&#45;&gt;theorems/hopf -->
<g id="edge59" class="edge"><title>theorems/fibration&#45;&gt;theorems/hopf</title>
<path fill="none" stroke="black" d="M434.763,-144.153C414.269,-119.279 375.786,-72.5736 352.068,-43.7875"/>
<polygon fill="black" stroke="black" points="354.567,-41.3171 345.507,-35.825 349.165,-45.7684 354.567,-41.3171"/>
</g>
<!-- theorems/prop&#45;&gt;types/precategory -->
<g id="edge65" class="edge"><title>theorems/prop&#45;&gt;types/precategory</title>
<path fill="none" stroke="black" d="M752.422,-144.055C755.574,-136.176 759.398,-126.617 762.927,-117.794"/>
<polygon fill="black" stroke="black" points="766.27,-118.86 766.734,-108.275 759.77,-116.26 766.27,-118.86"/>
</g>
<!-- theorems/functions&#45;&gt;theorems/group -->
<g id="edge60" class="edge"><title>theorems/functions&#45;&gt;theorems/group</title>
<path fill="none" stroke="black" d="M1097.7,-149.519C1161.98,-136.81 1265.2,-116.399 1331.19,-103.35"/>
<polygon fill="black" stroke="black" points="1331.91,-106.775 1341.04,-101.401 1330.56,-99.9075 1331.91,-106.775"/>
</g>
<!-- HITs/suspension&#45;&gt;HITs/circle -->
<g id="edge51" class="edge"><title>HITs/suspension&#45;&gt;HITs/circle</title>
<path fill="none" stroke="black" d="M298.904,-224.29C269.985,-217.09 237.409,-203.953 216.644,-180 201.974,-163.078 197.725,-137.608 196.854,-118.246"/>
<polygon fill="black" stroke="black" points="200.352,-118.145 196.673,-108.21 193.354,-118.271 200.352,-118.145"/>
</g>
<!-- HITs/join -->
<g id="node40" class="node"><title>HITs/join</title>
<ellipse fill="none" stroke="black" cx="270.644" cy="-162" rx="45.4919" ry="18"/>
<text text-anchor="middle" x="270.644" y="-158.3" font-family="Times New Roman,serif" font-size="14.00">HITs/join</text>
</g>
<!-- HITs/suspension&#45;&gt;HITs/join -->
<g id="edge52" class="edge"><title>HITs/suspension&#45;&gt;HITs/join</title>
<path fill="none" stroke="black" d="M339.315,-216.411C327.12,-206.926 311.683,-194.919 298.535,-184.692"/>
<polygon fill="black" stroke="black" points="300.324,-181.651 290.282,-178.274 296.027,-187.176 300.324,-181.651"/>
</g>
<!-- HITs/colimit&#45;&gt;HITs/merely -->
<g id="edge35" class="edge"><title>HITs/colimit&#45;&gt;HITs/merely</title>
<path fill="none" stroke="black" d="M977.915,-288.411C984.72,-279.906 993.146,-269.372 1000.71,-259.914"/>
<polygon fill="black" stroke="black" points="1003.57,-261.951 1007.08,-251.956 998.099,-257.578 1003.57,-261.951"/>
</g>
<!-- HITs/colimit&#45;&gt;types/nat -->
<g id="edge36" class="edge"><title>HITs/colimit&#45;&gt;types/nat</title>
<path fill="none" stroke="black" d="M946.089,-288.765C935.439,-279.445 921.908,-267.605 910.256,-257.41"/>
<polygon fill="black" stroke="black" points="912.378,-254.617 902.548,-250.666 907.769,-259.885 912.378,-254.617"/>
</g>
<!-- HITs/generalized&#45;&gt;HITs/merely -->
<g id="edge37" class="edge"><title>HITs/generalized&#45;&gt;HITs/merely</title>
<path fill="none" stroke="black" d="M1090.54,-288.765C1078.28,-279.333 1062.66,-267.32 1049.3,-257.042"/>
<polygon fill="black" stroke="black" points="1051.38,-254.229 1041.32,-250.906 1047.11,-259.777 1051.38,-254.229"/>
</g>
<!-- HITs/pushout&#45;&gt;HITs/suspension -->
<g id="edge49" class="edge"><title>HITs/pushout&#45;&gt;HITs/suspension</title>
<path fill="none" stroke="black" d="M668.005,-295.267C604.822,-282.878 495.517,-261.446 425.718,-247.76"/>
<polygon fill="black" stroke="black" points="426.203,-244.288 415.716,-245.798 424.856,-251.157 426.203,-244.288"/>
</g>
<!-- HITs/quotient&#45;&gt;theorems/group -->
<g id="edge50" class="edge"><title>HITs/quotient&#45;&gt;theorems/group</title>
<path fill="none" stroke="black" d="M1417.9,-144.055C1414.26,-136.091 1409.83,-126.411 1405.76,-117.51"/>
<polygon fill="black" stroke="black" points="1408.88,-115.915 1401.54,-108.275 1402.52,-118.825 1408.88,-115.915"/>
</g>
<!-- cubical/path -->
<g id="node44" class="node"><title>cubical/path</title>
<ellipse fill="none" stroke="black" cx="625.644" cy="-90" rx="54.6905" ry="18"/>
<text text-anchor="middle" x="625.644" y="-86.3" font-family="Times New Roman,serif" font-size="14.00">cubical/path</text>
</g>
<!-- cubical/cubes&#45;&gt;cubical/path -->
<g id="edge54" class="edge"><title>cubical/cubes&#45;&gt;cubical/path</title>
<path fill="none" stroke="black" d="M608.97,-144.055C611.419,-136.261 614.386,-126.822 617.134,-118.079"/>
<polygon fill="black" stroke="black" points="620.555,-118.865 620.215,-108.275 613.877,-116.766 620.555,-118.865"/>
</g>
<!-- cubical/connection -->
<g id="node43" class="node"><title>cubical/connection</title>
<ellipse fill="none" stroke="black" cx="636.644" cy="-18" rx="79.0865" ry="18"/>
<text text-anchor="middle" x="636.644" y="-14.3" font-family="Times New Roman,serif" font-size="14.00">cubical/connection</text>
</g>
<!-- cubical/path&#45;&gt;cubical/connection -->
<g id="edge55" class="edge"><title>cubical/path&#45;&gt;cubical/connection</title>
<path fill="none" stroke="black" d="M628.363,-71.6966C629.575,-63.9827 631.032,-54.7125 632.384,-46.1124"/>
<polygon fill="black" stroke="black" points="635.861,-46.5265 633.956,-36.1043 628.946,-45.4397 635.861,-46.5265"/>
</g>
<!-- cubical/example -->
<g id="node45" class="node"><title>cubical/example</title>
<ellipse fill="none" stroke="black" cx="802.644" cy="-18" rx="68.7879" ry="18"/>
<text text-anchor="middle" x="802.644" y="-14.3" font-family="Times New Roman,serif" font-size="14.00">cubical/example</text>
</g>
<!-- cubical/path&#45;&gt;cubical/example -->
<g id="edge56" class="edge"><title>cubical/path&#45;&gt;cubical/example</title>
<path fill="none" stroke="black" d="M659.353,-75.6688C686.958,-64.7516 726.288,-49.1973 756.762,-37.1454"/>
<polygon fill="black" stroke="black" points="758.307,-40.2983 766.319,-33.3659 755.733,-33.7889 758.307,-40.2983"/>
</g>
<!-- cubical/square -->
<g id="node46" class="node"><title>cubical/square</title>
<ellipse fill="none" stroke="black" cx="476.644" cy="-18" rx="63.0888" ry="18"/>
<text text-anchor="middle" x="476.644" y="-14.3" font-family="Times New Roman,serif" font-size="14.00">cubical/square</text>
</g>
<!-- cubical/path&#45;&gt;cubical/square -->
<g id="edge57" class="edge"><title>cubical/path&#45;&gt;cubical/square</title>
<path fill="none" stroke="black" d="M595.492,-74.8345C572.946,-64.2427 541.882,-49.6485 517.166,-38.0372"/>
<polygon fill="black" stroke="black" points="518.575,-34.832 508.036,-33.7476 515.598,-41.1677 518.575,-34.832"/>
</g>
<!-- cubical/path&#45;&gt;cubical/V -->
<g id="edge58" class="edge"><title>cubical/path&#45;&gt;cubical/V</title>
<path fill="none" stroke="black" d="M665.031,-77.5213C673.12,-75.4513 681.618,-73.4832 689.644,-72 695.093,-70.9932 1007.28,-38.0872 1135.03,-24.6402"/>
<polygon fill="black" stroke="black" points="1135.78,-28.081 1145.36,-23.5534 1135.05,-21.1194 1135.78,-28.081"/>
</g>
</g>
</svg>
