<?xml version="1.0" encoding="UTF-8" standalone="no"?>
<!DOCTYPE svg PUBLIC "-//W3C//DTD SVG 1.1//EN"
 "http://www.w3.org/Graphics/SVG/1.1/DTD/svg11.dtd">
<!-- Generated by graphviz version 2.38.0 (20140413.2041)
 -->
<!-- Title: dependency_map Pages: 1 -->
<svg width="1223pt" height="764pt"
 viewBox="0.00 0.00 1223.39 764.00" xmlns="http://www.w3.org/2000/svg" xmlns:xlink="http://www.w3.org/1999/xlink">
<g id="graph0" class="graph" transform="scale(1 1) rotate(0) translate(4 760)">
<title>dependency_map</title>
<polygon fill="white" stroke="none" points="-4,4 -4,-760 1219.39,-760 1219.39,4 -4,4"/>
<!-- proto -->
<g id="node1" class="node"><title>proto</title>
<ellipse fill="none" stroke="black" cx="462.644" cy="-738" rx="30.5947" ry="18"/>
<text text-anchor="middle" x="462.644" y="-734.3" font-family="Times New Roman,serif" font-size="14.00">proto</text>
</g>
<!-- types/eq -->
<g id="node2" class="node"><title>types/eq</title>
<ellipse fill="none" stroke="black" cx="522.644" cy="-666" rx="41.6928" ry="18"/>
<text text-anchor="middle" x="522.644" y="-662.3" font-family="Times New Roman,serif" font-size="14.00">types/eq</text>
</g>
<!-- proto&#45;&gt;types/eq -->
<g id="edge1" class="edge"><title>proto&#45;&gt;types/eq</title>
<path fill="none" stroke="black" d="M475.96,-721.465C483.588,-712.566 493.326,-701.205 501.932,-691.164"/>
<polygon fill="black" stroke="black" points="504.679,-693.338 508.529,-683.467 499.364,-688.782 504.679,-693.338"/>
</g>
<!-- support -->
<g id="node4" class="node"><title>support</title>
<ellipse fill="none" stroke="black" cx="522.644" cy="-594" rx="38.9931" ry="18"/>
<text text-anchor="middle" x="522.644" y="-590.3" font-family="Times New Roman,serif" font-size="14.00">support</text>
</g>
<!-- types/eq&#45;&gt;support -->
<g id="edge11" class="edge"><title>types/eq&#45;&gt;support</title>
<path fill="none" stroke="black" d="M522.644,-647.697C522.644,-639.983 522.644,-630.712 522.644,-622.112"/>
<polygon fill="black" stroke="black" points="526.144,-622.104 522.644,-612.104 519.144,-622.104 526.144,-622.104"/>
</g>
<!-- meta/hott_theory -->
<g id="node3" class="node"><title>meta/hott_theory</title>
<ellipse fill="none" stroke="black" cx="583.644" cy="-738" rx="72.2875" ry="18"/>
<text text-anchor="middle" x="583.644" y="-734.3" font-family="Times New Roman,serif" font-size="14.00">meta/hott_theory</text>
</g>
<!-- meta/hott_theory&#45;&gt;types/eq -->
<g id="edge2" class="edge"><title>meta/hott_theory&#45;&gt;types/eq</title>
<path fill="none" stroke="black" d="M568.878,-720.055C561.275,-711.33 551.876,-700.544 543.542,-690.981"/>
<polygon fill="black" stroke="black" points="546.063,-688.547 536.855,-683.307 540.786,-693.146 546.063,-688.547"/>
</g>
<!-- types/equiv -->
<g id="node5" class="node"><title>types/equiv</title>
<ellipse fill="none" stroke="black" cx="590.644" cy="-522" rx="51.9908" ry="18"/>
<text text-anchor="middle" x="590.644" y="-518.3" font-family="Times New Roman,serif" font-size="14.00">types/equiv</text>
</g>
<!-- support&#45;&gt;types/equiv -->
<g id="edge3" class="edge"><title>support&#45;&gt;types/equiv</title>
<path fill="none" stroke="black" d="M538.074,-577.116C546.818,-568.116 557.924,-556.682 567.674,-546.646"/>
<polygon fill="black" stroke="black" points="570.346,-548.919 574.803,-539.307 565.325,-544.041 570.346,-548.919"/>
</g>
<!-- types/coproduct -->
<g id="node12" class="node"><title>types/coproduct</title>
<ellipse fill="none" stroke="black" cx="380.644" cy="-378" rx="70.6878" ry="18"/>
<text text-anchor="middle" x="380.644" y="-374.3" font-family="Times New Roman,serif" font-size="14.00">types/coproduct</text>
</g>
<!-- types/equiv&#45;&gt;types/coproduct -->
<g id="edge12" class="edge"><title>types/equiv&#45;&gt;types/coproduct</title>
<path fill="none" stroke="black" d="M552.791,-509.483C526.886,-500.551 492.502,-486.56 465.644,-468 439.652,-450.038 415.326,-423.131 399.415,-403.606"/>
<polygon fill="black" stroke="black" points="402.106,-401.367 393.13,-395.738 396.636,-405.736 402.106,-401.367"/>
</g>
<!-- types/heq -->
<g id="node15" class="node"><title>types/heq</title>
<ellipse fill="none" stroke="black" cx="627.644" cy="-450" rx="46.2923" ry="18"/>
<text text-anchor="middle" x="627.644" y="-446.3" font-family="Times New Roman,serif" font-size="14.00">types/heq</text>
</g>
<!-- types/equiv&#45;&gt;types/heq -->
<g id="edge13" class="edge"><title>types/equiv&#45;&gt;types/heq</title>
<path fill="none" stroke="black" d="M599.601,-504.055C603.918,-495.887 609.191,-485.912 613.994,-476.824"/>
<polygon fill="black" stroke="black" points="617.191,-478.266 618.77,-467.789 611.003,-474.994 617.191,-478.266"/>
</g>
<!-- HITs/infinitesimal -->
<g id="node16" class="node"><title>HITs/infinitesimal</title>
<ellipse fill="none" stroke="black" cx="766.644" cy="-450" rx="74.9875" ry="18"/>
<text text-anchor="middle" x="766.644" y="-446.3" font-family="Times New Roman,serif" font-size="14.00">HITs/infinitesimal</text>
</g>
<!-- types/equiv&#45;&gt;HITs/infinitesimal -->
<g id="edge14" class="edge"><title>types/equiv&#45;&gt;HITs/infinitesimal</title>
<path fill="none" stroke="black" d="M623.336,-507.998C650.516,-497.187 689.533,-481.669 719.995,-469.554"/>
<polygon fill="black" stroke="black" points="721.56,-472.698 729.558,-465.75 718.973,-466.194 721.56,-472.698"/>
</g>
<!-- types/lost -->
<g id="node17" class="node"><title>types/lost</title>
<ellipse fill="none" stroke="black" cx="905.644" cy="-450" rx="46.2923" ry="18"/>
<text text-anchor="middle" x="905.644" y="-446.3" font-family="Times New Roman,serif" font-size="14.00">types/lost</text>
</g>
<!-- types/equiv&#45;&gt;types/lost -->
<g id="edge15" class="edge"><title>types/equiv&#45;&gt;types/lost</title>
<path fill="none" stroke="black" d="M636.044,-513.15C688.177,-503.811 776.112,-487.066 850.644,-468 854.245,-467.079 857.96,-466.067 861.68,-465.009"/>
<polygon fill="black" stroke="black" points="862.857,-468.312 871.466,-462.136 860.885,-461.595 862.857,-468.312"/>
</g>
<!-- types/unit -->
<g id="node18" class="node"><title>types/unit</title>
<ellipse fill="none" stroke="black" cx="553.644" cy="-378" rx="46.2923" ry="18"/>
<text text-anchor="middle" x="553.644" y="-374.3" font-family="Times New Roman,serif" font-size="14.00">types/unit</text>
</g>
<!-- types/equiv&#45;&gt;types/unit -->
<g id="edge16" class="edge"><title>types/equiv&#45;&gt;types/unit</title>
<path fill="none" stroke="black" d="M584.294,-503.972C580.589,-493.656 576,-480.179 572.644,-468 567.014,-447.565 562.067,-424.106 558.633,-406.405"/>
<polygon fill="black" stroke="black" points="562.001,-405.378 556.698,-396.206 555.123,-406.683 562.001,-405.378"/>
</g>
<!-- types/sigma -->
<g id="node19" class="node"><title>types/sigma</title>
<ellipse fill="none" stroke="black" cx="578.644" cy="-234" rx="53.8905" ry="18"/>
<text text-anchor="middle" x="578.644" y="-230.3" font-family="Times New Roman,serif" font-size="14.00">types/sigma</text>
</g>
<!-- types/equiv&#45;&gt;types/sigma -->
<g id="edge17" class="edge"><title>types/equiv&#45;&gt;types/sigma</title>
<path fill="none" stroke="black" d="M573.259,-504.832C550.944,-482.764 513.354,-440.802 498.644,-396 483.671,-350.395 475.934,-330.288 498.644,-288 506.739,-272.928 521.211,-261.42 535.643,-253.041"/>
<polygon fill="black" stroke="black" points="537.428,-256.055 544.566,-248.225 534.103,-249.895 537.428,-256.055"/>
</g>
<!-- structures -->
<g id="node6" class="node"><title>structures</title>
<ellipse fill="none" stroke="black" cx="733.644" cy="-306" rx="46.2923" ry="18"/>
<text text-anchor="middle" x="733.644" y="-302.3" font-family="Times New Roman,serif" font-size="14.00">structures</text>
</g>
<!-- types/precategory -->
<g id="node7" class="node"><title>types/precategory</title>
<ellipse fill="none" stroke="black" cx="725.644" cy="-234" rx="75.2868" ry="18"/>
<text text-anchor="middle" x="725.644" y="-230.3" font-family="Times New Roman,serif" font-size="14.00">types/precategory</text>
</g>
<!-- structures&#45;&gt;types/precategory -->
<g id="edge4" class="edge"><title>structures&#45;&gt;types/precategory</title>
<path fill="none" stroke="black" d="M731.667,-287.697C730.785,-279.983 729.726,-270.712 728.743,-262.112"/>
<polygon fill="black" stroke="black" points="732.212,-261.642 727.599,-252.104 725.257,-262.437 732.212,-261.642"/>
</g>
<!-- theorems/ua -->
<g id="node8" class="node"><title>theorems/ua</title>
<ellipse fill="none" stroke="black" cx="1133.64" cy="-234" rx="54.6905" ry="18"/>
<text text-anchor="middle" x="1133.64" y="-230.3" font-family="Times New Roman,serif" font-size="14.00">theorems/ua</text>
</g>
<!-- structures&#45;&gt;theorems/ua -->
<g id="edge5" class="edge"><title>structures&#45;&gt;theorems/ua</title>
<path fill="none" stroke="black" d="M767.435,-293.554C774.391,-291.482 781.709,-289.504 788.644,-288 911.692,-261.31 946.085,-276.215 1069.64,-252 1074.33,-251.081 1079.19,-250.012 1084.03,-248.867"/>
<polygon fill="black" stroke="black" points="1085.02,-252.227 1093.89,-246.431 1083.34,-245.431 1085.02,-252.227"/>
</g>
<!-- HITs/interval -->
<g id="node9" class="node"><title>HITs/interval</title>
<ellipse fill="none" stroke="black" cx="448.644" cy="-234" rx="57.6901" ry="18"/>
<text text-anchor="middle" x="448.644" y="-230.3" font-family="Times New Roman,serif" font-size="14.00">HITs/interval</text>
</g>
<!-- structures&#45;&gt;HITs/interval -->
<g id="edge6" class="edge"><title>structures&#45;&gt;HITs/interval</title>
<path fill="none" stroke="black" d="M695.417,-295.829C651.868,-285.352 578.582,-267.635 515.644,-252 511.08,-250.866 506.344,-249.681 501.594,-248.487"/>
<polygon fill="black" stroke="black" points="502.43,-245.089 491.878,-246.037 500.719,-251.876 502.43,-245.089"/>
</g>
<!-- HITs/truncation -->
<g id="node10" class="node"><title>HITs/truncation</title>
<ellipse fill="none" stroke="black" cx="992.644" cy="-234" rx="68.4888" ry="18"/>
<text text-anchor="middle" x="992.644" y="-230.3" font-family="Times New Roman,serif" font-size="14.00">HITs/truncation</text>
</g>
<!-- structures&#45;&gt;HITs/truncation -->
<g id="edge7" class="edge"><title>structures&#45;&gt;HITs/truncation</title>
<path fill="none" stroke="black" d="M768.193,-294.058C774.958,-291.99 782.011,-289.886 788.644,-288 837.744,-274.041 893.908,-259.558 934.857,-249.266"/>
<polygon fill="black" stroke="black" points="935.815,-252.635 944.664,-246.809 934.113,-245.845 935.815,-252.635"/>
</g>
<!-- types/nat -->
<g id="node11" class="node"><title>types/nat</title>
<ellipse fill="none" stroke="black" cx="862.644" cy="-234" rx="43.5923" ry="18"/>
<text text-anchor="middle" x="862.644" y="-230.3" font-family="Times New Roman,serif" font-size="14.00">types/nat</text>
</g>
<!-- structures&#45;&gt;types/nat -->
<g id="edge8" class="edge"><title>structures&#45;&gt;types/nat</title>
<path fill="none" stroke="black" d="M759.439,-291.003C779.255,-280.25 806.804,-265.301 828.455,-253.552"/>
<polygon fill="black" stroke="black" points="830.213,-256.58 837.333,-248.734 826.875,-250.428 830.213,-256.58"/>
</g>
<!-- theorems/nat -->
<g id="node24" class="node"><title>theorems/nat</title>
<ellipse fill="none" stroke="black" cx="884.644" cy="-162" rx="57.3905" ry="18"/>
<text text-anchor="middle" x="884.644" y="-158.3" font-family="Times New Roman,serif" font-size="14.00">theorems/nat</text>
</g>
<!-- theorems/ua&#45;&gt;theorems/nat -->
<g id="edge60" class="edge"><title>theorems/ua&#45;&gt;theorems/nat</title>
<path fill="none" stroke="black" d="M1093.36,-221.675C1050.4,-209.599 982.263,-190.443 935.603,-177.326"/>
<polygon fill="black" stroke="black" points="936.272,-173.878 925.698,-174.541 934.377,-180.617 936.272,-173.878"/>
</g>
<!-- cubical/V -->
<g id="node42" class="node"><title>cubical/V</title>
<ellipse fill="none" stroke="black" cx="1094.64" cy="-18" rx="45.4919" ry="18"/>
<text text-anchor="middle" x="1094.64" y="-14.3" font-family="Times New Roman,serif" font-size="14.00">cubical/V</text>
</g>
<!-- theorems/ua&#45;&gt;cubical/V -->
<g id="edge61" class="edge"><title>theorems/ua&#45;&gt;cubical/V</title>
<path fill="none" stroke="black" d="M1130.52,-215.849C1123.76,-178.753 1107.73,-90.8101 1099.58,-46.1027"/>
<polygon fill="black" stroke="black" points="1103.02,-45.4429 1097.78,-36.2325 1096.13,-46.698 1103.02,-45.4429"/>
</g>
<!-- HITs/circle -->
<g id="node22" class="node"><title>HITs/circle</title>
<ellipse fill="none" stroke="black" cx="318.644" cy="-90" rx="51.9908" ry="18"/>
<text text-anchor="middle" x="318.644" y="-86.3" font-family="Times New Roman,serif" font-size="14.00">HITs/circle</text>
</g>
<!-- HITs/interval&#45;&gt;HITs/circle -->
<g id="edge40" class="edge"><title>HITs/interval&#45;&gt;HITs/circle</title>
<path fill="none" stroke="black" d="M416.566,-218.733C398.926,-209.638 377.643,-196.466 362.644,-180 346.213,-161.962 334.5,-136.659 327.311,-117.642"/>
<polygon fill="black" stroke="black" points="330.549,-116.302 323.872,-108.076 323.961,-118.67 330.549,-116.302"/>
</g>
<!-- theorems/fibration -->
<g id="node26" class="node"><title>theorems/fibration</title>
<ellipse fill="none" stroke="black" cx="448.644" cy="-162" rx="76.8869" ry="18"/>
<text text-anchor="middle" x="448.644" y="-158.3" font-family="Times New Roman,serif" font-size="14.00">theorems/fibration</text>
</g>
<!-- HITs/interval&#45;&gt;theorems/fibration -->
<g id="edge41" class="edge"><title>HITs/interval&#45;&gt;theorems/fibration</title>
<path fill="none" stroke="black" d="M448.644,-215.697C448.644,-207.983 448.644,-198.712 448.644,-190.112"/>
<polygon fill="black" stroke="black" points="452.144,-190.104 448.644,-180.104 445.144,-190.104 452.144,-190.104"/>
</g>
<!-- theorems/prop -->
<g id="node27" class="node"><title>theorems/prop</title>
<ellipse fill="none" stroke="black" cx="745.644" cy="-162" rx="63.8893" ry="18"/>
<text text-anchor="middle" x="745.644" y="-158.3" font-family="Times New Roman,serif" font-size="14.00">theorems/prop</text>
</g>
<!-- HITs/interval&#45;&gt;theorems/prop -->
<g id="edge42" class="edge"><title>HITs/interval&#45;&gt;theorems/prop</title>
<path fill="none" stroke="black" d="M491.858,-221.88C499.763,-219.89 507.945,-217.859 515.644,-216 585.233,-199.196 602.894,-196.118 672.644,-180 677.666,-178.839 682.882,-177.631 688.11,-176.418"/>
<polygon fill="black" stroke="black" points="689.187,-179.761 698.135,-174.088 687.603,-172.942 689.187,-179.761"/>
</g>
<!-- cubical/cubes -->
<g id="node35" class="node"><title>cubical/cubes</title>
<ellipse fill="none" stroke="black" cx="603.644" cy="-162" rx="60.3893" ry="18"/>
<text text-anchor="middle" x="603.644" y="-158.3" font-family="Times New Roman,serif" font-size="14.00">cubical/cubes</text>
</g>
<!-- HITs/interval&#45;&gt;cubical/cubes -->
<g id="edge43" class="edge"><title>HITs/interval&#45;&gt;cubical/cubes</title>
<path fill="none" stroke="black" d="M480.011,-218.834C503.804,-208.089 536.718,-193.225 562.603,-181.535"/>
<polygon fill="black" stroke="black" points="564.119,-184.69 571.792,-177.385 561.238,-178.311 564.119,-184.69"/>
</g>
<!-- HITs/truncation&#45;&gt;theorems/prop -->
<g id="edge47" class="edge"><title>HITs/truncation&#45;&gt;theorems/prop</title>
<path fill="none" stroke="black" d="M947.914,-220.324C906.039,-208.456 843.426,-190.711 798.97,-178.113"/>
<polygon fill="black" stroke="black" points="799.788,-174.706 789.212,-175.347 797.879,-181.441 799.788,-174.706"/>
</g>
<!-- HITs/simplicial -->
<g id="node37" class="node"><title>HITs/simplicial</title>
<ellipse fill="none" stroke="black" cx="1025.64" cy="-162" rx="65.7887" ry="18"/>
<text text-anchor="middle" x="1025.64" y="-158.3" font-family="Times New Roman,serif" font-size="14.00">HITs/simplicial</text>
</g>
<!-- HITs/truncation&#45;&gt;HITs/simplicial -->
<g id="edge48" class="edge"><title>HITs/truncation&#45;&gt;HITs/simplicial</title>
<path fill="none" stroke="black" d="M1000.63,-216.055C1004.39,-208.091 1008.95,-198.411 1013.15,-189.51"/>
<polygon fill="black" stroke="black" points="1016.4,-190.813 1017.5,-180.275 1010.07,-187.828 1016.4,-190.813"/>
</g>
<!-- types/nat&#45;&gt;theorems/nat -->
<g id="edge22" class="edge"><title>types/nat&#45;&gt;theorems/nat</title>
<path fill="none" stroke="black" d="M867.97,-216.055C870.419,-208.261 873.386,-198.822 876.134,-190.079"/>
<polygon fill="black" stroke="black" points="879.555,-190.865 879.215,-180.275 872.877,-188.766 879.555,-190.865"/>
</g>
<!-- types/coproduct&#45;&gt;structures -->
<g id="edge9" class="edge"><title>types/coproduct&#45;&gt;structures</title>
<path fill="none" stroke="black" d="M434.642,-366.292C502.29,-352.878 617.314,-330.068 683.235,-316.996"/>
<polygon fill="black" stroke="black" points="684.25,-320.363 693.378,-314.985 682.888,-313.497 684.25,-320.363"/>
</g>
<!-- types/integer -->
<g id="node13" class="node"><title>types/integer</title>
<ellipse fill="none" stroke="black" cx="159.644" cy="-306" rx="56.59" ry="18"/>
<text text-anchor="middle" x="159.644" y="-302.3" font-family="Times New Roman,serif" font-size="14.00">types/integer</text>
</g>
<!-- types/coproduct&#45;&gt;types/integer -->
<g id="edge10" class="edge"><title>types/coproduct&#45;&gt;types/integer</title>
<path fill="none" stroke="black" d="M338.033,-363.503C300.958,-351.76 247.235,-334.744 208.443,-322.457"/>
<polygon fill="black" stroke="black" points="209.014,-318.966 198.424,-319.283 206.9,-325.639 209.014,-318.966"/>
</g>
<!-- types/integer&#45;&gt;HITs/circle -->
<g id="edge20" class="edge"><title>types/integer&#45;&gt;HITs/circle</title>
<path fill="none" stroke="black" d="M156.375,-287.828C151.323,-255.855 145.376,-186.585 178.644,-144 198.18,-118.993 230.93,-105.784 259.844,-98.8067"/>
<polygon fill="black" stroke="black" points="260.873,-102.164 269.883,-96.5898 259.363,-95.3285 260.873,-102.164"/>
</g>
<!-- types/rational -->
<g id="node23" class="node"><title>types/rational</title>
<ellipse fill="none" stroke="black" cx="68.6442" cy="-234" rx="59.2899" ry="18"/>
<text text-anchor="middle" x="68.6442" y="-230.3" font-family="Times New Roman,serif" font-size="14.00">types/rational</text>
</g>
<!-- types/integer&#45;&gt;types/rational -->
<g id="edge21" class="edge"><title>types/integer&#45;&gt;types/rational</title>
<path fill="none" stroke="black" d="M138.995,-289.116C126.749,-279.696 111.038,-267.611 97.5709,-257.251"/>
<polygon fill="black" stroke="black" points="99.587,-254.386 89.5268,-251.064 95.319,-259.935 99.587,-254.386"/>
</g>
<!-- types/dedekind -->
<g id="node14" class="node"><title>types/dedekind</title>
<ellipse fill="none" stroke="black" cx="65.6442" cy="-162" rx="65.7887" ry="18"/>
<text text-anchor="middle" x="65.6442" y="-158.3" font-family="Times New Roman,serif" font-size="14.00">types/dedekind</text>
</g>
<!-- HITs/graph -->
<g id="node20" class="node"><title>HITs/graph</title>
<ellipse fill="none" stroke="black" cx="670.644" cy="-378" rx="52.7911" ry="18"/>
<text text-anchor="middle" x="670.644" y="-374.3" font-family="Times New Roman,serif" font-size="14.00">HITs/graph</text>
</g>
<!-- types/heq&#45;&gt;HITs/graph -->
<g id="edge18" class="edge"><title>types/heq&#45;&gt;HITs/graph</title>
<path fill="none" stroke="black" d="M637.835,-432.411C642.954,-424.077 649.269,-413.797 654.987,-404.488"/>
<polygon fill="black" stroke="black" points="657.976,-406.309 660.228,-395.956 652.012,-402.645 657.976,-406.309"/>
</g>
<!-- theorems/funext -->
<g id="node21" class="node"><title>theorems/funext</title>
<ellipse fill="none" stroke="black" cx="810.644" cy="-378" rx="68.7879" ry="18"/>
<text text-anchor="middle" x="810.644" y="-374.3" font-family="Times New Roman,serif" font-size="14.00">theorems/funext</text>
</g>
<!-- types/heq&#45;&gt;theorems/funext -->
<g id="edge19" class="edge"><title>types/heq&#45;&gt;theorems/funext</title>
<path fill="none" stroke="black" d="M659.52,-436.807C688.413,-425.755 731.355,-409.329 764.088,-396.808"/>
<polygon fill="black" stroke="black" points="765.37,-400.065 773.46,-393.224 762.869,-393.527 765.37,-400.065"/>
</g>
<!-- types/unit&#45;&gt;structures -->
<g id="edge28" class="edge"><title>types/unit&#45;&gt;structures</title>
<path fill="none" stroke="black" d="M585.41,-364.647C615.228,-353.051 659.99,-335.643 692.522,-322.992"/>
<polygon fill="black" stroke="black" points="694.144,-326.117 702.196,-319.23 691.607,-319.592 694.144,-326.117"/>
</g>
<!-- HITs/suspension -->
<g id="node28" class="node"><title>HITs/suspension</title>
<ellipse fill="none" stroke="black" cx="299.644" cy="-234" rx="72.5877" ry="18"/>
<text text-anchor="middle" x="299.644" y="-230.3" font-family="Times New Roman,serif" font-size="14.00">HITs/suspension</text>
</g>
<!-- types/unit&#45;&gt;HITs/suspension -->
<g id="edge29" class="edge"><title>types/unit&#45;&gt;HITs/suspension</title>
<path fill="none" stroke="black" d="M528.361,-362.865C483.379,-337.718 389.266,-285.104 336.871,-255.812"/>
<polygon fill="black" stroke="black" points="338.341,-252.624 327.904,-250.799 334.925,-258.734 338.341,-252.624"/>
</g>
<!-- types/sigma&#45;&gt;theorems/nat -->
<g id="edge25" class="edge"><title>types/sigma&#45;&gt;theorems/nat</title>
<path fill="none" stroke="black" d="M618.541,-221.828C626.188,-219.802 634.147,-217.772 641.644,-216 719.769,-197.534 740.415,-198.018 818.644,-180 823.231,-178.944 827.986,-177.805 832.747,-176.635"/>
<polygon fill="black" stroke="black" points="833.618,-180.025 842.473,-174.207 831.923,-173.233 833.618,-180.025"/>
</g>
<!-- types/sigma&#45;&gt;theorems/fibration -->
<g id="edge26" class="edge"><title>types/sigma&#45;&gt;theorems/fibration</title>
<path fill="none" stroke="black" d="M551.392,-218.326C532.713,-208.268 507.671,-194.784 486.985,-183.645"/>
<polygon fill="black" stroke="black" points="488.587,-180.533 478.123,-178.873 485.268,-186.696 488.587,-180.533"/>
</g>
<!-- types/sigma&#45;&gt;theorems/prop -->
<g id="edge27" class="edge"><title>types/sigma&#45;&gt;theorems/prop</title>
<path fill="none" stroke="black" d="M610.843,-219.503C636.816,-208.617 673.6,-193.198 702.183,-181.217"/>
<polygon fill="black" stroke="black" points="703.665,-184.391 711.535,-177.297 700.959,-177.935 703.665,-184.391"/>
</g>
<!-- HITs/graph&#45;&gt;types/precategory -->
<g id="edge36" class="edge"><title>HITs/graph&#45;&gt;types/precategory</title>
<path fill="none" stroke="black" d="M669.094,-359.829C668.113,-341.315 668.56,-311.358 678.644,-288 683.272,-277.281 690.931,-267.223 698.737,-258.81"/>
<polygon fill="black" stroke="black" points="701.34,-261.155 705.864,-251.575 696.353,-256.243 701.34,-261.155"/>
</g>
<!-- HITs/colimit -->
<g id="node32" class="node"><title>HITs/colimit</title>
<ellipse fill="none" stroke="black" cx="854.644" cy="-306" rx="56.59" ry="18"/>
<text text-anchor="middle" x="854.644" y="-302.3" font-family="Times New Roman,serif" font-size="14.00">HITs/colimit</text>
</g>
<!-- HITs/graph&#45;&gt;HITs/colimit -->
<g id="edge37" class="edge"><title>HITs/graph&#45;&gt;HITs/colimit</title>
<path fill="none" stroke="black" d="M704.393,-364.161C734.104,-352.858 777.584,-336.316 810.135,-323.933"/>
<polygon fill="black" stroke="black" points="811.757,-327.06 819.859,-320.233 809.268,-320.518 811.757,-327.06"/>
</g>
<!-- HITs/generalized -->
<g id="node33" class="node"><title>HITs/generalized</title>
<ellipse fill="none" stroke="black" cx="1001.64" cy="-306" rx="72.2875" ry="18"/>
<text text-anchor="middle" x="1001.64" y="-302.3" font-family="Times New Roman,serif" font-size="14.00">HITs/generalized</text>
</g>
<!-- HITs/graph&#45;&gt;HITs/generalized -->
<g id="edge38" class="edge"><title>HITs/graph&#45;&gt;HITs/generalized</title>
<path fill="none" stroke="black" d="M709.552,-365.831C717.181,-363.783 725.143,-361.744 732.644,-360 815.508,-340.737 837.233,-340.738 920.644,-324 926.42,-322.841 932.424,-321.617 938.434,-320.379"/>
<polygon fill="black" stroke="black" points="939.433,-323.746 948.516,-318.291 938.013,-316.892 939.433,-323.746"/>
</g>
<!-- HITs/pushout -->
<g id="node34" class="node"><title>HITs/pushout</title>
<ellipse fill="none" stroke="black" cx="569.644" cy="-306" rx="61.99" ry="18"/>
<text text-anchor="middle" x="569.644" y="-302.3" font-family="Times New Roman,serif" font-size="14.00">HITs/pushout</text>
</g>
<!-- HITs/graph&#45;&gt;HITs/pushout -->
<g id="edge39" class="edge"><title>HITs/graph&#45;&gt;HITs/pushout</title>
<path fill="none" stroke="black" d="M648.229,-361.465C634.432,-351.902 616.534,-339.498 601.304,-328.943"/>
<polygon fill="black" stroke="black" points="602.91,-325.797 592.697,-322.977 598.922,-331.55 602.91,-325.797"/>
</g>
<!-- theorems/funext&#45;&gt;structures -->
<g id="edge56" class="edge"><title>theorems/funext&#45;&gt;structures</title>
<path fill="none" stroke="black" d="M792.396,-360.411C782.304,-351.237 769.617,-339.703 758.618,-329.703"/>
<polygon fill="black" stroke="black" points="760.722,-326.886 750.968,-322.749 756.013,-332.065 760.722,-326.886"/>
</g>
<!-- types/product -->
<g id="node25" class="node"><title>types/product</title>
<ellipse fill="none" stroke="black" cx="1153.64" cy="-306" rx="61.99" ry="18"/>
<text text-anchor="middle" x="1153.64" y="-302.3" font-family="Times New Roman,serif" font-size="14.00">types/product</text>
</g>
<!-- theorems/funext&#45;&gt;types/product -->
<g id="edge57" class="edge"><title>theorems/funext&#45;&gt;types/product</title>
<path fill="none" stroke="black" d="M865.488,-367.023C920.522,-356.844 1007.65,-340.276 1082.64,-324 1087.63,-322.919 1092.79,-321.758 1097.97,-320.569"/>
<polygon fill="black" stroke="black" points="1098.93,-323.938 1107.88,-318.261 1097.34,-317.12 1098.93,-323.938"/>
</g>
<!-- theorems/hopf -->
<g id="node29" class="node"><title>theorems/hopf</title>
<ellipse fill="none" stroke="black" cx="448.644" cy="-18" rx="63.8893" ry="18"/>
<text text-anchor="middle" x="448.644" y="-14.3" font-family="Times New Roman,serif" font-size="14.00">theorems/hopf</text>
</g>
<!-- HITs/circle&#45;&gt;theorems/hopf -->
<g id="edge30" class="edge"><title>HITs/circle&#45;&gt;theorems/hopf</title>
<path fill="none" stroke="black" d="M345.58,-74.496C364.627,-64.2402 390.406,-50.3592 411.416,-39.0457"/>
<polygon fill="black" stroke="black" points="413.248,-42.0346 420.394,-34.2119 409.929,-35.8713 413.248,-42.0346"/>
</g>
<!-- HITs/moebius -->
<g id="node30" class="node"><title>HITs/moebius</title>
<ellipse fill="none" stroke="black" cx="188.644" cy="-18" rx="63.0888" ry="18"/>
<text text-anchor="middle" x="188.644" y="-14.3" font-family="Times New Roman,serif" font-size="14.00">HITs/moebius</text>
</g>
<!-- HITs/circle&#45;&gt;HITs/moebius -->
<g id="edge31" class="edge"><title>HITs/circle&#45;&gt;HITs/moebius</title>
<path fill="none" stroke="black" d="M291.708,-74.496C272.662,-64.2402 246.883,-50.3592 225.872,-39.0457"/>
<polygon fill="black" stroke="black" points="227.359,-35.8713 216.895,-34.2119 224.04,-42.0346 227.359,-35.8713"/>
</g>
<!-- HITs/reals -->
<g id="node31" class="node"><title>HITs/reals</title>
<ellipse fill="none" stroke="black" cx="318.644" cy="-18" rx="48.9926" ry="18"/>
<text text-anchor="middle" x="318.644" y="-14.3" font-family="Times New Roman,serif" font-size="14.00">HITs/reals</text>
</g>
<!-- HITs/circle&#45;&gt;HITs/reals -->
<g id="edge32" class="edge"><title>HITs/circle&#45;&gt;HITs/reals</title>
<path fill="none" stroke="black" d="M318.644,-71.6966C318.644,-63.9827 318.644,-54.7125 318.644,-46.1124"/>
<polygon fill="black" stroke="black" points="322.144,-46.1043 318.644,-36.1043 315.144,-46.1044 322.144,-46.1043"/>
</g>
<!-- types/rational&#45;&gt;types/dedekind -->
<g id="edge24" class="edge"><title>types/rational&#45;&gt;types/dedekind</title>
<path fill="none" stroke="black" d="M67.9026,-215.697C67.572,-207.983 67.1747,-198.712 66.8061,-190.112"/>
<polygon fill="black" stroke="black" points="70.3023,-189.945 66.3772,-180.104 63.3087,-190.245 70.3023,-189.945"/>
</g>
<!-- theorems/nat&#45;&gt;HITs/circle -->
<g id="edge58" class="edge"><title>theorems/nat&#45;&gt;HITs/circle</title>
<path fill="none" stroke="black" d="M843.304,-149.364C835.176,-147.357 826.678,-145.452 818.644,-144 661.953,-115.673 474.7,-100.805 379.995,-94.5984"/>
<polygon fill="black" stroke="black" points="379.945,-91.0881 369.74,-93.9367 379.494,-98.0735 379.945,-91.0881"/>
</g>
<!-- HITs/int -->
<g id="node44" class="node"><title>HITs/int</title>
<ellipse fill="none" stroke="black" cx="884.644" cy="-90" rx="40.8928" ry="18"/>
<text text-anchor="middle" x="884.644" y="-86.3" font-family="Times New Roman,serif" font-size="14.00">HITs/int</text>
</g>
<!-- theorems/nat&#45;&gt;HITs/int -->
<g id="edge59" class="edge"><title>theorems/nat&#45;&gt;HITs/int</title>
<path fill="none" stroke="black" d="M884.644,-143.697C884.644,-135.983 884.644,-126.712 884.644,-118.112"/>
<polygon fill="black" stroke="black" points="888.144,-118.104 884.644,-108.104 881.144,-118.104 888.144,-118.104"/>
</g>
<!-- types/product&#45;&gt;theorems/ua -->
<g id="edge23" class="edge"><title>types/product&#45;&gt;theorems/ua</title>
<path fill="none" stroke="black" d="M1148.8,-288.055C1146.58,-280.261 1143.88,-270.822 1141.38,-262.079"/>
<polygon fill="black" stroke="black" points="1144.69,-260.929 1138.58,-252.275 1137.96,-262.852 1144.69,-260.929"/>
</g>
<!-- theorems/fibration&#45;&gt;theorems/hopf -->
<g id="edge54" class="edge"><title>theorems/fibration&#45;&gt;theorems/hopf</title>
<path fill="none" stroke="black" d="M448.644,-143.871C448.644,-119.67 448.644,-75.2108 448.644,-46.3932"/>
<polygon fill="black" stroke="black" points="452.144,-46.1892 448.644,-36.1893 445.144,-46.1893 452.144,-46.1892"/>
</g>
<!-- HITs/suspension&#45;&gt;HITs/circle -->
<g id="edge45" class="edge"><title>HITs/suspension&#45;&gt;HITs/circle</title>
<path fill="none" stroke="black" d="M301.936,-215.871C305.174,-191.67 311.123,-147.211 314.979,-118.393"/>
<polygon fill="black" stroke="black" points="318.487,-118.565 316.344,-108.189 311.549,-117.637 318.487,-118.565"/>
</g>
<!-- HITs/join -->
<g id="node36" class="node"><title>HITs/join</title>
<ellipse fill="none" stroke="black" cx="232.644" cy="-162" rx="45.4919" ry="18"/>
<text text-anchor="middle" x="232.644" y="-158.3" font-family="Times New Roman,serif" font-size="14.00">HITs/join</text>
</g>
<!-- HITs/suspension&#45;&gt;HITs/join -->
<g id="edge46" class="edge"><title>HITs/suspension&#45;&gt;HITs/join</title>
<path fill="none" stroke="black" d="M283.766,-216.411C275.217,-207.479 264.526,-196.31 255.135,-186.498"/>
<polygon fill="black" stroke="black" points="257.39,-183.792 247.947,-178.988 252.333,-188.632 257.39,-183.792"/>
</g>
<!-- HITs/colimit&#45;&gt;HITs/truncation -->
<g id="edge33" class="edge"><title>HITs/colimit&#45;&gt;HITs/truncation</title>
<path fill="none" stroke="black" d="M883.573,-290.326C903.767,-280.083 930.968,-266.285 953.153,-255.032"/>
<polygon fill="black" stroke="black" points="954.985,-258.027 962.319,-250.382 951.818,-251.785 954.985,-258.027"/>
</g>
<!-- HITs/colimit&#45;&gt;types/nat -->
<g id="edge34" class="edge"><title>HITs/colimit&#45;&gt;types/nat</title>
<path fill="none" stroke="black" d="M856.622,-287.697C857.503,-279.983 858.563,-270.712 859.546,-262.112"/>
<polygon fill="black" stroke="black" points="863.031,-262.437 860.689,-252.104 856.076,-261.642 863.031,-262.437"/>
</g>
<!-- HITs/generalized&#45;&gt;HITs/truncation -->
<g id="edge35" class="edge"><title>HITs/generalized&#45;&gt;HITs/truncation</title>
<path fill="none" stroke="black" d="M999.419,-287.697C998.428,-279.983 997.236,-270.712 996.13,-262.112"/>
<polygon fill="black" stroke="black" points="999.59,-261.576 994.843,-252.104 992.647,-262.469 999.59,-261.576"/>
</g>
<!-- HITs/pushout&#45;&gt;HITs/suspension -->
<g id="edge44" class="edge"><title>HITs/pushout&#45;&gt;HITs/suspension</title>
<path fill="none" stroke="black" d="M525.059,-293.441C479.283,-281.573 407.837,-263.05 357.678,-250.046"/>
<polygon fill="black" stroke="black" points="358.502,-246.644 347.944,-247.522 356.746,-253.42 358.502,-246.644"/>
</g>
<!-- cubical/path -->
<g id="node39" class="node"><title>cubical/path</title>
<ellipse fill="none" stroke="black" cx="759.644" cy="-90" rx="54.6905" ry="18"/>
<text text-anchor="middle" x="759.644" y="-86.3" font-family="Times New Roman,serif" font-size="14.00">cubical/path</text>
</g>
<!-- cubical/cubes&#45;&gt;cubical/path -->
<g id="edge49" class="edge"><title>cubical/cubes&#45;&gt;cubical/path</title>
<path fill="none" stroke="black" d="M635.59,-146.666C659.804,-135.8 693.243,-120.795 719.304,-109.102"/>
<polygon fill="black" stroke="black" points="720.849,-112.244 728.54,-104.957 717.984,-105.858 720.849,-112.244"/>
</g>
<!-- cubical/connection -->
<g id="node38" class="node"><title>cubical/connection</title>
<ellipse fill="none" stroke="black" cx="919.644" cy="-18" rx="79.0865" ry="18"/>
<text text-anchor="middle" x="919.644" y="-14.3" font-family="Times New Roman,serif" font-size="14.00">cubical/connection</text>
</g>
<!-- cubical/path&#45;&gt;cubical/connection -->
<g id="edge50" class="edge"><title>cubical/path&#45;&gt;cubical/connection</title>
<path fill="none" stroke="black" d="M791.255,-75.1703C815.264,-64.6664 848.587,-50.0877 875.267,-38.4151"/>
<polygon fill="black" stroke="black" points="877.008,-41.4739 884.766,-34.2591 874.202,-35.0608 877.008,-41.4739"/>
</g>
<!-- cubical/example -->
<g id="node40" class="node"><title>cubical/example</title>
<ellipse fill="none" stroke="black" cx="609.644" cy="-18" rx="68.7879" ry="18"/>
<text text-anchor="middle" x="609.644" y="-14.3" font-family="Times New Roman,serif" font-size="14.00">cubical/example</text>
</g>
<!-- cubical/path&#45;&gt;cubical/example -->
<g id="edge51" class="edge"><title>cubical/path&#45;&gt;cubical/example</title>
<path fill="none" stroke="black" d="M729.289,-74.8345C706.745,-64.3135 675.737,-49.8435 650.938,-38.2706"/>
<polygon fill="black" stroke="black" points="652.31,-35.0485 641.768,-33.9912 649.35,-41.3918 652.31,-35.0485"/>
</g>
<!-- cubical/square -->
<g id="node41" class="node"><title>cubical/square</title>
<ellipse fill="none" stroke="black" cx="759.644" cy="-18" rx="63.0888" ry="18"/>
<text text-anchor="middle" x="759.644" y="-14.3" font-family="Times New Roman,serif" font-size="14.00">cubical/square</text>
</g>
<!-- cubical/path&#45;&gt;cubical/square -->
<g id="edge52" class="edge"><title>cubical/path&#45;&gt;cubical/square</title>
<path fill="none" stroke="black" d="M759.644,-71.6966C759.644,-63.9827 759.644,-54.7125 759.644,-46.1124"/>
<polygon fill="black" stroke="black" points="763.144,-46.1043 759.644,-36.1043 756.144,-46.1044 763.144,-46.1043"/>
</g>
<!-- cubical/path&#45;&gt;cubical/V -->
<g id="edge53" class="edge"><title>cubical/path&#45;&gt;cubical/V</title>
<path fill="none" stroke="black" d="M803.233,-78.9509C813.524,-76.6253 824.463,-74.1912 834.644,-72 907.687,-56.2791 992.536,-39.2049 1044.91,-28.8022"/>
<polygon fill="black" stroke="black" points="1045.82,-32.1916 1054.94,-26.813 1044.45,-25.3254 1045.82,-32.1916"/>
</g>
<!-- theorems/functions -->
<g id="node43" class="node"><title>theorems/functions</title>
<ellipse fill="none" stroke="black" cx="659.644" cy="-594" rx="79.8859" ry="18"/>
<text text-anchor="middle" x="659.644" y="-590.3" font-family="Times New Roman,serif" font-size="14.00">theorems/functions</text>
</g>
<!-- theorems/functions&#45;&gt;types/equiv -->
<g id="edge55" class="edge"><title>theorems/functions&#45;&gt;types/equiv</title>
<path fill="none" stroke="black" d="M642.941,-576.055C634.255,-567.243 623.497,-556.328 614,-546.694"/>
<polygon fill="black" stroke="black" points="616.231,-543.972 606.718,-539.307 611.246,-548.886 616.231,-543.972"/>
</g>
</g>
</svg>
