<?xml version="1.0" encoding="UTF-8" standalone="no"?>
<!DOCTYPE svg PUBLIC "-//W3C//DTD SVG 1.1//EN"
 "http://www.w3.org/Graphics/SVG/1.1/DTD/svg11.dtd">
<!-- Generated by graphviz version 2.38.0 (20140413.2041)
 -->
<!-- Title: dependency_map Pages: 1 -->
<svg width="1766pt" height="836pt"
 viewBox="0.00 0.00 1765.72 836.00" xmlns="http://www.w3.org/2000/svg" xmlns:xlink="http://www.w3.org/1999/xlink">
<g id="graph0" class="graph" transform="scale(1 1) rotate(0) translate(4 832)">
<title>dependency_map</title>
<polygon fill="white" stroke="none" points="-4,4 -4,-832 1761.72,-832 1761.72,4 -4,4"/>
<!-- proto -->
<g id="node1" class="node"><title>proto</title>
<ellipse fill="none" stroke="black" cx="445.227" cy="-810" rx="30.5947" ry="18"/>
<text text-anchor="middle" x="445.227" y="-806.3" font-family="Times New Roman,serif" font-size="14.00">proto</text>
</g>
<!-- types/eq -->
<g id="node2" class="node"><title>types/eq</title>
<ellipse fill="none" stroke="black" cx="505.227" cy="-738" rx="41.6928" ry="18"/>
<text text-anchor="middle" x="505.227" y="-734.3" font-family="Times New Roman,serif" font-size="14.00">types/eq</text>
</g>
<!-- proto&#45;&gt;types/eq -->
<g id="edge1" class="edge"><title>proto&#45;&gt;types/eq</title>
<path fill="none" stroke="black" d="M458.543,-793.465C466.171,-784.566 475.908,-773.205 484.515,-763.164"/>
<polygon fill="black" stroke="black" points="487.262,-765.338 491.112,-755.467 481.947,-760.782 487.262,-765.338"/>
</g>
<!-- support -->
<g id="node4" class="node"><title>support</title>
<ellipse fill="none" stroke="black" cx="567.227" cy="-666" rx="38.9931" ry="18"/>
<text text-anchor="middle" x="567.227" y="-662.3" font-family="Times New Roman,serif" font-size="14.00">support</text>
</g>
<!-- types/eq&#45;&gt;support -->
<g id="edge10" class="edge"><title>types/eq&#45;&gt;support</title>
<path fill="none" stroke="black" d="M519.607,-720.765C527.51,-711.841 537.46,-700.608 546.218,-690.719"/>
<polygon fill="black" stroke="black" points="548.915,-692.954 552.925,-683.147 543.675,-688.313 548.915,-692.954"/>
</g>
<!-- types/dep_path -->
<g id="node13" class="node"><title>types/dep_path</title>
<ellipse fill="none" stroke="black" cx="443.227" cy="-666" rx="66.8882" ry="18"/>
<text text-anchor="middle" x="443.227" y="-662.3" font-family="Times New Roman,serif" font-size="14.00">types/dep_path</text>
</g>
<!-- types/eq&#45;&gt;types/dep_path -->
<g id="edge11" class="edge"><title>types/eq&#45;&gt;types/dep_path</title>
<path fill="none" stroke="black" d="M490.847,-720.765C483.057,-711.969 473.278,-700.928 464.612,-691.144"/>
<polygon fill="black" stroke="black" points="467.21,-688.799 457.959,-683.633 461.97,-693.44 467.21,-688.799"/>
</g>
<!-- meta/hott_theory -->
<g id="node3" class="node"><title>meta/hott_theory</title>
<ellipse fill="none" stroke="black" cx="566.227" cy="-810" rx="72.2875" ry="18"/>
<text text-anchor="middle" x="566.227" y="-806.3" font-family="Times New Roman,serif" font-size="14.00">meta/hott_theory</text>
</g>
<!-- meta/hott_theory&#45;&gt;types/eq -->
<g id="edge2" class="edge"><title>meta/hott_theory&#45;&gt;types/eq</title>
<path fill="none" stroke="black" d="M551.461,-792.055C543.858,-783.33 534.459,-772.544 526.125,-762.981"/>
<polygon fill="black" stroke="black" points="528.646,-760.547 519.437,-755.307 523.368,-765.146 528.646,-760.547"/>
</g>
<!-- types/equiv -->
<g id="node5" class="node"><title>types/equiv</title>
<ellipse fill="none" stroke="black" cx="567.227" cy="-594" rx="51.9908" ry="18"/>
<text text-anchor="middle" x="567.227" y="-590.3" font-family="Times New Roman,serif" font-size="14.00">types/equiv</text>
</g>
<!-- support&#45;&gt;types/equiv -->
<g id="edge3" class="edge"><title>support&#45;&gt;types/equiv</title>
<path fill="none" stroke="black" d="M567.227,-647.697C567.227,-639.983 567.227,-630.712 567.227,-622.112"/>
<polygon fill="black" stroke="black" points="570.727,-622.104 567.227,-612.104 563.727,-622.104 570.727,-622.104"/>
</g>
<!-- types/coproduct -->
<g id="node10" class="node"><title>types/coproduct</title>
<ellipse fill="none" stroke="black" cx="224.227" cy="-522" rx="70.6878" ry="18"/>
<text text-anchor="middle" x="224.227" y="-518.3" font-family="Times New Roman,serif" font-size="14.00">types/coproduct</text>
</g>
<!-- types/equiv&#45;&gt;types/coproduct -->
<g id="edge12" class="edge"><title>types/equiv&#45;&gt;types/coproduct</title>
<path fill="none" stroke="black" d="M522.991,-584.233C470.704,-573.837 381.081,-555.909 304.227,-540 298.526,-538.82 292.6,-537.582 286.665,-536.334"/>
<polygon fill="black" stroke="black" points="287.217,-532.874 276.71,-534.235 285.773,-539.723 287.217,-532.874"/>
</g>
<!-- types/heq -->
<g id="node14" class="node"><title>types/heq</title>
<ellipse fill="none" stroke="black" cx="797.227" cy="-522" rx="46.2923" ry="18"/>
<text text-anchor="middle" x="797.227" y="-518.3" font-family="Times New Roman,serif" font-size="14.00">types/heq</text>
</g>
<!-- types/equiv&#45;&gt;types/heq -->
<g id="edge13" class="edge"><title>types/equiv&#45;&gt;types/heq</title>
<path fill="none" stroke="black" d="M604.949,-581.519C645.267,-569.249 709.169,-549.8 752.119,-536.729"/>
<polygon fill="black" stroke="black" points="753.205,-540.057 761.753,-533.796 751.167,-533.36 753.205,-540.057"/>
</g>
<!-- HITs/infinitesimal -->
<g id="node15" class="node"><title>HITs/infinitesimal</title>
<ellipse fill="none" stroke="black" cx="498.227" cy="-522" rx="74.9875" ry="18"/>
<text text-anchor="middle" x="498.227" y="-518.3" font-family="Times New Roman,serif" font-size="14.00">HITs/infinitesimal</text>
</g>
<!-- types/equiv&#45;&gt;HITs/infinitesimal -->
<g id="edge14" class="edge"><title>types/equiv&#45;&gt;HITs/infinitesimal</title>
<path fill="none" stroke="black" d="M551.224,-576.765C542.468,-567.882 531.455,-556.709 521.74,-546.854"/>
<polygon fill="black" stroke="black" points="524.135,-544.298 514.623,-539.633 519.15,-549.212 524.135,-544.298"/>
</g>
<!-- types/lost -->
<g id="node16" class="node"><title>types/lost</title>
<ellipse fill="none" stroke="black" cx="637.227" cy="-522" rx="46.2923" ry="18"/>
<text text-anchor="middle" x="637.227" y="-518.3" font-family="Times New Roman,serif" font-size="14.00">types/lost</text>
</g>
<!-- types/equiv&#45;&gt;types/lost -->
<g id="edge15" class="edge"><title>types/equiv&#45;&gt;types/lost</title>
<path fill="none" stroke="black" d="M583.462,-576.765C592.474,-567.753 603.842,-556.385 613.801,-546.426"/>
<polygon fill="black" stroke="black" points="616.483,-548.693 621.08,-539.147 611.534,-543.744 616.483,-548.693"/>
</g>
<!-- types/unit -->
<g id="node17" class="node"><title>types/unit</title>
<ellipse fill="none" stroke="black" cx="359.227" cy="-522" rx="46.2923" ry="18"/>
<text text-anchor="middle" x="359.227" y="-518.3" font-family="Times New Roman,serif" font-size="14.00">types/unit</text>
</g>
<!-- types/equiv&#45;&gt;types/unit -->
<g id="edge16" class="edge"><title>types/equiv&#45;&gt;types/unit</title>
<path fill="none" stroke="black" d="M530.996,-580.807C495.31,-568.797 440.767,-550.441 402.749,-537.647"/>
<polygon fill="black" stroke="black" points="403.572,-534.231 392.978,-534.359 401.34,-540.865 403.572,-534.231"/>
</g>
<!-- types/sigma -->
<g id="node18" class="node"><title>types/sigma</title>
<ellipse fill="none" stroke="black" cx="711.227" cy="-306" rx="53.8905" ry="18"/>
<text text-anchor="middle" x="711.227" y="-302.3" font-family="Times New Roman,serif" font-size="14.00">types/sigma</text>
</g>
<!-- types/equiv&#45;&gt;types/sigma -->
<g id="edge17" class="edge"><title>types/equiv&#45;&gt;types/sigma</title>
<path fill="none" stroke="black" d="M613.353,-585.652C640.848,-578.726 673.87,-565.413 692.227,-540 736.984,-478.039 726.172,-381.143 717.328,-334.246"/>
<polygon fill="black" stroke="black" points="720.719,-333.356 715.324,-324.237 713.856,-334.73 720.719,-333.356"/>
</g>
<!-- structures -->
<g id="node6" class="node"><title>structures</title>
<ellipse fill="none" stroke="black" cx="596.227" cy="-450" rx="46.2923" ry="18"/>
<text text-anchor="middle" x="596.227" y="-446.3" font-family="Times New Roman,serif" font-size="14.00">structures</text>
</g>
<!-- HITs/interval -->
<g id="node7" class="node"><title>HITs/interval</title>
<ellipse fill="none" stroke="black" cx="797.227" cy="-378" rx="57.6901" ry="18"/>
<text text-anchor="middle" x="797.227" y="-374.3" font-family="Times New Roman,serif" font-size="14.00">HITs/interval</text>
</g>
<!-- structures&#45;&gt;HITs/interval -->
<g id="edge4" class="edge"><title>structures&#45;&gt;HITs/interval</title>
<path fill="none" stroke="black" d="M629.418,-437.441C662.479,-425.927 713.526,-408.15 750.639,-395.225"/>
<polygon fill="black" stroke="black" points="751.94,-398.478 760.232,-391.884 749.638,-391.867 751.94,-398.478"/>
</g>
<!-- HITs/truncation -->
<g id="node8" class="node"><title>HITs/truncation</title>
<ellipse fill="none" stroke="black" cx="1161.23" cy="-306" rx="68.4888" ry="18"/>
<text text-anchor="middle" x="1161.23" y="-302.3" font-family="Times New Roman,serif" font-size="14.00">HITs/truncation</text>
</g>
<!-- structures&#45;&gt;HITs/truncation -->
<g id="edge5" class="edge"><title>structures&#45;&gt;HITs/truncation</title>
<path fill="none" stroke="black" d="M642.388,-447.603C697.914,-444.234 792.591,-433.005 864.227,-396 884.897,-385.323 881.593,-370.745 902.227,-360 959.21,-330.326 1031.31,-317.257 1084.96,-311.506"/>
<polygon fill="black" stroke="black" points="1085.5,-314.97 1095.1,-310.483 1084.8,-308.005 1085.5,-314.97"/>
</g>
<!-- types/nat -->
<g id="node9" class="node"><title>types/nat</title>
<ellipse fill="none" stroke="black" cx="596.227" cy="-306" rx="43.5923" ry="18"/>
<text text-anchor="middle" x="596.227" y="-302.3" font-family="Times New Roman,serif" font-size="14.00">types/nat</text>
</g>
<!-- structures&#45;&gt;types/nat -->
<g id="edge6" class="edge"><title>structures&#45;&gt;types/nat</title>
<path fill="none" stroke="black" d="M596.227,-431.871C596.227,-407.67 596.227,-363.211 596.227,-334.393"/>
<polygon fill="black" stroke="black" points="599.727,-334.189 596.227,-324.189 592.727,-334.189 599.727,-334.189"/>
</g>
<!-- types/product -->
<g id="node24" class="node"><title>types/product</title>
<ellipse fill="none" stroke="black" cx="921.227" cy="-306" rx="61.99" ry="18"/>
<text text-anchor="middle" x="921.227" y="-302.3" font-family="Times New Roman,serif" font-size="14.00">types/product</text>
</g>
<!-- HITs/interval&#45;&gt;types/product -->
<g id="edge45" class="edge"><title>HITs/interval&#45;&gt;types/product</title>
<path fill="none" stroke="black" d="M823.828,-361.983C841.767,-351.857 865.651,-338.374 885.278,-327.294"/>
<polygon fill="black" stroke="black" points="887.254,-330.197 894.242,-322.233 883.813,-324.102 887.254,-330.197"/>
</g>
<!-- theorems/fibration -->
<g id="node27" class="node"><title>theorems/fibration</title>
<ellipse fill="none" stroke="black" cx="585.227" cy="-234" rx="76.8869" ry="18"/>
<text text-anchor="middle" x="585.227" y="-230.3" font-family="Times New Roman,serif" font-size="14.00">theorems/fibration</text>
</g>
<!-- HITs/interval&#45;&gt;theorems/fibration -->
<g id="edge46" class="edge"><title>HITs/interval&#45;&gt;theorems/fibration</title>
<path fill="none" stroke="black" d="M797.603,-359.825C797.079,-339.881 793.102,-307.266 774.227,-288 765.125,-278.71 699.668,-261.652 648.305,-249.395"/>
<polygon fill="black" stroke="black" points="649.106,-245.988 638.569,-247.088 647.493,-252.799 649.106,-245.988"/>
</g>
<!-- theorems/prop -->
<g id="node28" class="node"><title>theorems/prop</title>
<ellipse fill="none" stroke="black" cx="743.227" cy="-234" rx="63.8893" ry="18"/>
<text text-anchor="middle" x="743.227" y="-230.3" font-family="Times New Roman,serif" font-size="14.00">theorems/prop</text>
</g>
<!-- HITs/interval&#45;&gt;theorems/prop -->
<g id="edge47" class="edge"><title>HITs/interval&#45;&gt;theorems/prop</title>
<path fill="none" stroke="black" d="M804.258,-360.058C810.835,-341.478 818.145,-311.216 807.227,-288 801.259,-275.308 790.593,-264.612 779.659,-256.227"/>
<polygon fill="black" stroke="black" points="781.491,-253.234 771.319,-250.27 777.423,-258.931 781.491,-253.234"/>
</g>
<!-- HITs/truncation&#45;&gt;theorems/prop -->
<g id="edge52" class="edge"><title>HITs/truncation&#45;&gt;theorems/prop</title>
<path fill="none" stroke="black" d="M1101.46,-297.231C1032.48,-287.936 915.742,-271.202 816.227,-252 810.877,-250.968 805.323,-249.818 799.777,-248.617"/>
<polygon fill="black" stroke="black" points="800.366,-245.163 789.845,-246.415 798.851,-251.997 800.366,-245.163"/>
</g>
<!-- HITs/simplicial -->
<g id="node41" class="node"><title>HITs/simplicial</title>
<ellipse fill="none" stroke="black" cx="1315.23" cy="-234" rx="65.7887" ry="18"/>
<text text-anchor="middle" x="1315.23" y="-230.3" font-family="Times New Roman,serif" font-size="14.00">HITs/simplicial</text>
</g>
<!-- HITs/truncation&#45;&gt;HITs/simplicial -->
<g id="edge53" class="edge"><title>HITs/truncation&#45;&gt;HITs/simplicial</title>
<path fill="none" stroke="black" d="M1193.89,-290.155C1217.14,-279.586 1248.57,-265.297 1273.62,-253.911"/>
<polygon fill="black" stroke="black" points="1275.22,-257.028 1282.88,-249.704 1272.33,-250.655 1275.22,-257.028"/>
</g>
<!-- theorems/mere_eq_lemma -->
<g id="node42" class="node"><title>theorems/mere_eq_lemma</title>
<ellipse fill="none" stroke="black" cx="1505.23" cy="-234" rx="105.881" ry="18"/>
<text text-anchor="middle" x="1505.23" y="-230.3" font-family="Times New Roman,serif" font-size="14.00">theorems/mere_eq_lemma</text>
</g>
<!-- HITs/truncation&#45;&gt;theorems/mere_eq_lemma -->
<g id="edge54" class="edge"><title>HITs/truncation&#45;&gt;theorems/mere_eq_lemma</title>
<path fill="none" stroke="black" d="M1213.47,-294.369C1271.22,-282.618 1364.71,-263.593 1430.26,-250.254"/>
<polygon fill="black" stroke="black" points="1431.03,-253.671 1440.13,-248.247 1429.63,-246.811 1431.03,-253.671"/>
</g>
<!-- theorems/graphs -->
<g id="node43" class="node"><title>theorems/graphs</title>
<ellipse fill="none" stroke="black" cx="1161.23" cy="-234" rx="70.6878" ry="18"/>
<text text-anchor="middle" x="1161.23" y="-230.3" font-family="Times New Roman,serif" font-size="14.00">theorems/graphs</text>
</g>
<!-- HITs/truncation&#45;&gt;theorems/graphs -->
<g id="edge55" class="edge"><title>HITs/truncation&#45;&gt;theorems/graphs</title>
<path fill="none" stroke="black" d="M1161.23,-287.697C1161.23,-279.983 1161.23,-270.712 1161.23,-262.112"/>
<polygon fill="black" stroke="black" points="1164.73,-262.104 1161.23,-252.104 1157.73,-262.104 1164.73,-262.104"/>
</g>
<!-- theorems/nat -->
<g id="node23" class="node"><title>theorems/nat</title>
<ellipse fill="none" stroke="black" cx="472.227" cy="-162" rx="57.3905" ry="18"/>
<text text-anchor="middle" x="472.227" y="-158.3" font-family="Times New Roman,serif" font-size="14.00">theorems/nat</text>
</g>
<!-- types/nat&#45;&gt;theorems/nat -->
<g id="edge23" class="edge"><title>types/nat&#45;&gt;theorems/nat</title>
<path fill="none" stroke="black" d="M563.704,-293.872C527.111,-281.027 471.989,-260.571 466.227,-252 454.053,-233.89 457.098,-208.753 462.297,-189.811"/>
<polygon fill="black" stroke="black" points="465.718,-190.596 465.324,-180.009 459.029,-188.531 465.718,-190.596"/>
</g>
<!-- types/coproduct&#45;&gt;structures -->
<g id="edge7" class="edge"><title>types/coproduct&#45;&gt;structures</title>
<path fill="none" stroke="black" d="M276.251,-509.71C285.557,-507.757 295.172,-505.784 304.227,-504 388.158,-487.469 486.045,-470.087 544.481,-459.912"/>
<polygon fill="black" stroke="black" points="545.315,-463.319 554.568,-458.159 544.116,-456.423 545.315,-463.319"/>
</g>
<!-- types/integer -->
<g id="node11" class="node"><title>types/integer</title>
<ellipse fill="none" stroke="black" cx="87.227" cy="-378" rx="56.59" ry="18"/>
<text text-anchor="middle" x="87.227" y="-374.3" font-family="Times New Roman,serif" font-size="14.00">types/integer</text>
</g>
<!-- types/coproduct&#45;&gt;types/integer -->
<g id="edge8" class="edge"><title>types/coproduct&#45;&gt;types/integer</title>
<path fill="none" stroke="black" d="M208.243,-504.433C184.01,-479.315 137.863,-431.484 110.087,-402.694"/>
<polygon fill="black" stroke="black" points="112.571,-400.228 103.109,-395.462 107.533,-405.088 112.571,-400.228"/>
</g>
<!-- HITs/circle -->
<g id="node20" class="node"><title>HITs/circle</title>
<ellipse fill="none" stroke="black" cx="456.227" cy="-90" rx="51.9908" ry="18"/>
<text text-anchor="middle" x="456.227" y="-86.3" font-family="Times New Roman,serif" font-size="14.00">HITs/circle</text>
</g>
<!-- types/integer&#45;&gt;HITs/circle -->
<g id="edge20" class="edge"><title>types/integer&#45;&gt;HITs/circle</title>
<path fill="none" stroke="black" d="M58.131,-362.56C43.5816,-353.633 27.3729,-340.677 19.227,-324 -1.83994,-280.87 -9.6726,-254.325 19.227,-216 65.1374,-155.116 290.792,-114.917 398.631,-98.8719"/>
<polygon fill="black" stroke="black" points="399.304,-102.311 408.69,-97.3946 398.287,-95.385 399.304,-102.311"/>
</g>
<!-- HITs/reals -->
<g id="node21" class="node"><title>HITs/reals</title>
<ellipse fill="none" stroke="black" cx="213.227" cy="-306" rx="48.9926" ry="18"/>
<text text-anchor="middle" x="213.227" y="-302.3" font-family="Times New Roman,serif" font-size="14.00">HITs/reals</text>
</g>
<!-- types/integer&#45;&gt;HITs/reals -->
<g id="edge21" class="edge"><title>types/integer&#45;&gt;HITs/reals</title>
<path fill="none" stroke="black" d="M114.257,-361.983C132.944,-351.602 157.98,-337.693 178.195,-326.462"/>
<polygon fill="black" stroke="black" points="180.062,-329.429 187.104,-321.513 176.663,-323.31 180.062,-329.429"/>
</g>
<!-- types/rational -->
<g id="node22" class="node"><title>types/rational</title>
<ellipse fill="none" stroke="black" cx="87.227" cy="-306" rx="59.2899" ry="18"/>
<text text-anchor="middle" x="87.227" y="-302.3" font-family="Times New Roman,serif" font-size="14.00">types/rational</text>
</g>
<!-- types/integer&#45;&gt;types/rational -->
<g id="edge22" class="edge"><title>types/integer&#45;&gt;types/rational</title>
<path fill="none" stroke="black" d="M87.227,-359.697C87.227,-351.983 87.227,-342.712 87.227,-334.112"/>
<polygon fill="black" stroke="black" points="90.7271,-334.104 87.227,-324.104 83.7271,-334.104 90.7271,-334.104"/>
</g>
<!-- types/dedekind -->
<g id="node12" class="node"><title>types/dedekind</title>
<ellipse fill="none" stroke="black" cx="94.227" cy="-234" rx="65.7887" ry="18"/>
<text text-anchor="middle" x="94.227" y="-230.3" font-family="Times New Roman,serif" font-size="14.00">types/dedekind</text>
</g>
<!-- types/dep_path&#45;&gt;types/equiv -->
<g id="edge9" class="edge"><title>types/dep_path&#45;&gt;types/equiv</title>
<path fill="none" stroke="black" d="M470.747,-649.465C488.856,-639.242 512.719,-625.771 532.182,-614.783"/>
<polygon fill="black" stroke="black" points="534.07,-617.737 541.058,-609.773 530.629,-611.641 534.07,-617.737"/>
</g>
<!-- types/heq&#45;&gt;HITs/interval -->
<g id="edge18" class="edge"><title>types/heq&#45;&gt;HITs/interval</title>
<path fill="none" stroke="black" d="M797.227,-503.871C797.227,-479.67 797.227,-435.211 797.227,-406.393"/>
<polygon fill="black" stroke="black" points="800.727,-406.189 797.227,-396.189 793.727,-406.189 800.727,-406.189"/>
</g>
<!-- HITs/graph -->
<g id="node19" class="node"><title>HITs/graph</title>
<ellipse fill="none" stroke="black" cx="1136.23" cy="-450" rx="52.7911" ry="18"/>
<text text-anchor="middle" x="1136.23" y="-446.3" font-family="Times New Roman,serif" font-size="14.00">HITs/graph</text>
</g>
<!-- types/heq&#45;&gt;HITs/graph -->
<g id="edge19" class="edge"><title>types/heq&#45;&gt;HITs/graph</title>
<path fill="none" stroke="black" d="M837.111,-512.764C897.959,-500.2 1014.08,-476.221 1082.36,-462.122"/>
<polygon fill="black" stroke="black" points="1083.4,-465.482 1092.49,-460.032 1081.98,-458.627 1083.4,-465.482"/>
</g>
<!-- types/unit&#45;&gt;structures -->
<g id="edge31" class="edge"><title>types/unit&#45;&gt;structures</title>
<path fill="none" stroke="black" d="M394.115,-510.122C400.786,-508.069 407.718,-505.954 414.227,-504 460.47,-490.121 513.483,-474.744 550.32,-464.143"/>
<polygon fill="black" stroke="black" points="551.618,-467.412 560.262,-461.285 549.684,-460.684 551.618,-467.412"/>
</g>
<!-- HITs/suspension -->
<g id="node30" class="node"><title>HITs/suspension</title>
<ellipse fill="none" stroke="black" cx="353.227" cy="-306" rx="72.5877" ry="18"/>
<text text-anchor="middle" x="353.227" y="-302.3" font-family="Times New Roman,serif" font-size="14.00">HITs/suspension</text>
</g>
<!-- types/unit&#45;&gt;HITs/suspension -->
<g id="edge32" class="edge"><title>types/unit&#45;&gt;HITs/suspension</title>
<path fill="none" stroke="black" d="M358.746,-503.849C357.708,-466.832 355.251,-379.181 353.995,-334.386"/>
<polygon fill="black" stroke="black" points="357.489,-334.13 353.71,-324.232 350.492,-334.327 357.489,-334.13"/>
</g>
<!-- types/sigma&#45;&gt;theorems/nat -->
<g id="edge27" class="edge"><title>types/sigma&#45;&gt;theorems/nat</title>
<path fill="none" stroke="black" d="M671.255,-293.838C663.938,-291.852 656.361,-289.834 649.227,-288 582.825,-270.933 549.115,-299.028 499.227,-252 482.296,-236.04 475.871,-209.847 473.489,-189.999"/>
<polygon fill="black" stroke="black" points="476.971,-189.641 472.559,-180.009 470.001,-190.29 476.971,-189.641"/>
</g>
<!-- types/sigma&#45;&gt;theorems/fibration -->
<g id="edge28" class="edge"><title>types/sigma&#45;&gt;theorems/fibration</title>
<path fill="none" stroke="black" d="M684.506,-290.155C666.464,-280.132 642.401,-266.763 622.484,-255.698"/>
<polygon fill="black" stroke="black" points="624.102,-252.594 613.661,-250.797 620.703,-258.713 624.102,-252.594"/>
</g>
<!-- types/sigma&#45;&gt;theorems/prop -->
<g id="edge29" class="edge"><title>types/sigma&#45;&gt;theorems/prop</title>
<path fill="none" stroke="black" d="M718.973,-288.055C722.614,-280.091 727.039,-270.411 731.108,-261.51"/>
<polygon fill="black" stroke="black" points="734.355,-262.825 735.33,-252.275 727.989,-259.915 734.355,-262.825"/>
</g>
<!-- HITs/moebius -->
<g id="node33" class="node"><title>HITs/moebius</title>
<ellipse fill="none" stroke="black" cx="1639.23" cy="-18" rx="63.0888" ry="18"/>
<text text-anchor="middle" x="1639.23" y="-14.3" font-family="Times New Roman,serif" font-size="14.00">HITs/moebius</text>
</g>
<!-- HITs/graph&#45;&gt;HITs/moebius -->
<g id="edge38" class="edge"><title>HITs/graph&#45;&gt;HITs/moebius</title>
<path fill="none" stroke="black" d="M1187.23,-445.487C1315.1,-435.286 1639.23,-400.235 1639.23,-307 1639.23,-307 1639.23,-307 1639.23,-161 1639.23,-120.996 1639.23,-74.6528 1639.23,-46.0798"/>
<polygon fill="black" stroke="black" points="1642.73,-46.0492 1639.23,-36.0493 1635.73,-46.0493 1642.73,-46.0492"/>
</g>
<!-- HITs/colimit -->
<g id="node34" class="node"><title>HITs/colimit</title>
<ellipse fill="none" stroke="black" cx="1136.23" cy="-378" rx="56.59" ry="18"/>
<text text-anchor="middle" x="1136.23" y="-374.3" font-family="Times New Roman,serif" font-size="14.00">HITs/colimit</text>
</g>
<!-- HITs/graph&#45;&gt;HITs/colimit -->
<g id="edge39" class="edge"><title>HITs/graph&#45;&gt;HITs/colimit</title>
<path fill="none" stroke="black" d="M1136.23,-431.697C1136.23,-423.983 1136.23,-414.712 1136.23,-406.112"/>
<polygon fill="black" stroke="black" points="1139.73,-406.104 1136.23,-396.104 1132.73,-406.104 1139.73,-406.104"/>
</g>
<!-- HITs/generalized -->
<g id="node35" class="node"><title>HITs/generalized</title>
<ellipse fill="none" stroke="black" cx="1283.23" cy="-378" rx="72.2875" ry="18"/>
<text text-anchor="middle" x="1283.23" y="-374.3" font-family="Times New Roman,serif" font-size="14.00">HITs/generalized</text>
</g>
<!-- HITs/graph&#45;&gt;HITs/generalized -->
<g id="edge40" class="edge"><title>HITs/graph&#45;&gt;HITs/generalized</title>
<path fill="none" stroke="black" d="M1165.62,-435.003C1187.52,-424.577 1217.7,-410.205 1242,-398.632"/>
<polygon fill="black" stroke="black" points="1243.81,-401.646 1251.34,-394.186 1240.8,-395.326 1243.81,-401.646"/>
</g>
<!-- HITs/int -->
<g id="node36" class="node"><title>HITs/int</title>
<ellipse fill="none" stroke="black" cx="1414.23" cy="-378" rx="40.8928" ry="18"/>
<text text-anchor="middle" x="1414.23" y="-374.3" font-family="Times New Roman,serif" font-size="14.00">HITs/int</text>
</g>
<!-- HITs/graph&#45;&gt;HITs/int -->
<g id="edge41" class="edge"><title>HITs/graph&#45;&gt;HITs/int</title>
<path fill="none" stroke="black" d="M1180.27,-440.12C1226.43,-430.495 1300.92,-414.072 1364.23,-396 1367.36,-395.107 1370.58,-394.134 1373.81,-393.121"/>
<polygon fill="black" stroke="black" points="1375,-396.414 1383.44,-390.003 1372.85,-389.755 1375,-396.414"/>
</g>
<!-- HITs/pushout -->
<g id="node37" class="node"><title>HITs/pushout</title>
<ellipse fill="none" stroke="black" cx="466.227" cy="-378" rx="61.99" ry="18"/>
<text text-anchor="middle" x="466.227" y="-374.3" font-family="Times New Roman,serif" font-size="14.00">HITs/pushout</text>
</g>
<!-- HITs/graph&#45;&gt;HITs/pushout -->
<g id="edge42" class="edge"><title>HITs/graph&#45;&gt;HITs/pushout</title>
<path fill="none" stroke="black" d="M1086.69,-443.824C968.225,-431.448 668.422,-400.125 533.659,-386.045"/>
<polygon fill="black" stroke="black" points="533.778,-382.539 523.468,-384.98 533.05,-389.501 533.778,-382.539"/>
</g>
<!-- types/precategory -->
<g id="node38" class="node"><title>types/precategory</title>
<ellipse fill="none" stroke="black" cx="986.227" cy="-378" rx="75.2868" ry="18"/>
<text text-anchor="middle" x="986.227" y="-374.3" font-family="Times New Roman,serif" font-size="14.00">types/precategory</text>
</g>
<!-- HITs/graph&#45;&gt;types/precategory -->
<g id="edge43" class="edge"><title>HITs/graph&#45;&gt;types/precategory</title>
<path fill="none" stroke="black" d="M1106.23,-435.003C1083.87,-424.566 1053.03,-410.176 1028.22,-398.596"/>
<polygon fill="black" stroke="black" points="1029.57,-395.367 1019.03,-394.309 1026.61,-401.71 1029.57,-395.367"/>
</g>
<!-- HITs/ntrunc -->
<g id="node31" class="node"><title>HITs/ntrunc</title>
<ellipse fill="none" stroke="black" cx="448.227" cy="-18" rx="55.4913" ry="18"/>
<text text-anchor="middle" x="448.227" y="-14.3" font-family="Times New Roman,serif" font-size="14.00">HITs/ntrunc</text>
</g>
<!-- HITs/circle&#45;&gt;HITs/ntrunc -->
<g id="edge33" class="edge"><title>HITs/circle&#45;&gt;HITs/ntrunc</title>
<path fill="none" stroke="black" d="M454.249,-71.6966C453.368,-63.9827 452.308,-54.7125 451.326,-46.1124"/>
<polygon fill="black" stroke="black" points="454.795,-45.6422 450.182,-36.1043 447.84,-46.4371 454.795,-45.6422"/>
</g>
<!-- theorems/hopf -->
<g id="node32" class="node"><title>theorems/hopf</title>
<ellipse fill="none" stroke="black" cx="585.227" cy="-18" rx="63.8893" ry="18"/>
<text text-anchor="middle" x="585.227" y="-14.3" font-family="Times New Roman,serif" font-size="14.00">theorems/hopf</text>
</g>
<!-- HITs/circle&#45;&gt;theorems/hopf -->
<g id="edge34" class="edge"><title>HITs/circle&#45;&gt;theorems/hopf</title>
<path fill="none" stroke="black" d="M482.956,-74.496C501.856,-64.2402 527.436,-50.3592 548.286,-39.0457"/>
<polygon fill="black" stroke="black" points="550.074,-42.0576 557.194,-34.2119 546.735,-35.9051 550.074,-42.0576"/>
</g>
<!-- HITs/circle&#45;&gt;HITs/moebius -->
<g id="edge35" class="edge"><title>HITs/circle&#45;&gt;HITs/moebius</title>
<path fill="none" stroke="black" d="M507.059,-85.9922C694.909,-74.8768 1350.29,-36.0972 1568.18,-23.2042"/>
<polygon fill="black" stroke="black" points="1568.44,-26.6947 1578.22,-22.61 1568.03,-19.7069 1568.44,-26.6947"/>
</g>
<!-- types/rational&#45;&gt;types/dedekind -->
<g id="edge26" class="edge"><title>types/rational&#45;&gt;types/dedekind</title>
<path fill="none" stroke="black" d="M88.9573,-287.697C89.7287,-279.983 90.6557,-270.712 91.5157,-262.112"/>
<polygon fill="black" stroke="black" points="95.0041,-262.403 92.5166,-252.104 88.0388,-261.706 95.0041,-262.403"/>
</g>
<!-- theorems/nat&#45;&gt;HITs/circle -->
<g id="edge64" class="edge"><title>theorems/nat&#45;&gt;HITs/circle</title>
<path fill="none" stroke="black" d="M468.272,-143.697C466.509,-135.983 464.39,-126.712 462.424,-118.112"/>
<polygon fill="black" stroke="black" points="465.777,-117.073 460.137,-108.104 458.953,-118.633 465.777,-117.073"/>
</g>
<!-- cubical/cubes -->
<g id="node25" class="node"><title>cubical/cubes</title>
<ellipse fill="none" stroke="black" cx="885.227" cy="-234" rx="60.3893" ry="18"/>
<text text-anchor="middle" x="885.227" y="-230.3" font-family="Times New Roman,serif" font-size="14.00">cubical/cubes</text>
</g>
<!-- types/product&#45;&gt;cubical/cubes -->
<g id="edge24" class="edge"><title>types/product&#45;&gt;cubical/cubes</title>
<path fill="none" stroke="black" d="M912.512,-288.055C908.373,-280.007 903.332,-270.205 898.715,-261.226"/>
<polygon fill="black" stroke="black" points="901.797,-259.567 894.111,-252.275 895.572,-262.769 901.797,-259.567"/>
</g>
<!-- theorems/ua -->
<g id="node26" class="node"><title>theorems/ua</title>
<ellipse fill="none" stroke="black" cx="1018.23" cy="-234" rx="54.6905" ry="18"/>
<text text-anchor="middle" x="1018.23" y="-230.3" font-family="Times New Roman,serif" font-size="14.00">theorems/ua</text>
</g>
<!-- types/product&#45;&gt;theorems/ua -->
<g id="edge25" class="edge"><title>types/product&#45;&gt;theorems/ua</title>
<path fill="none" stroke="black" d="M943.238,-289.116C956.601,-279.472 973.836,-267.035 988.412,-256.516"/>
<polygon fill="black" stroke="black" points="990.577,-259.27 996.637,-250.58 986.48,-253.594 990.577,-259.27"/>
</g>
<!-- cubical/path -->
<g id="node45" class="node"><title>cubical/path</title>
<ellipse fill="none" stroke="black" cx="1131.23" cy="-162" rx="54.6905" ry="18"/>
<text text-anchor="middle" x="1131.23" y="-158.3" font-family="Times New Roman,serif" font-size="14.00">cubical/path</text>
</g>
<!-- cubical/cubes&#45;&gt;cubical/path -->
<g id="edge56" class="edge"><title>cubical/cubes&#45;&gt;cubical/path</title>
<path fill="none" stroke="black" d="M927.236,-221.046C970.065,-208.859 1036.48,-189.961 1081.81,-177.062"/>
<polygon fill="black" stroke="black" points="1082.77,-180.428 1091.43,-174.325 1080.85,-173.696 1082.77,-180.428"/>
</g>
<!-- theorems/ua&#45;&gt;theorems/nat -->
<g id="edge65" class="edge"><title>theorems/ua&#45;&gt;theorems/nat</title>
<path fill="none" stroke="black" d="M978.494,-221.457C970.508,-219.417 962.138,-217.477 954.227,-216 806.861,-188.487 631.289,-173.605 538.057,-167.095"/>
<polygon fill="black" stroke="black" points="538.141,-163.593 527.925,-166.398 537.661,-170.576 538.141,-163.593"/>
</g>
<!-- cubical/V -->
<g id="node48" class="node"><title>cubical/V</title>
<ellipse fill="none" stroke="black" cx="1712.23" cy="-90" rx="45.4919" ry="18"/>
<text text-anchor="middle" x="1712.23" y="-86.3" font-family="Times New Roman,serif" font-size="14.00">cubical/V</text>
</g>
<!-- theorems/ua&#45;&gt;cubical/V -->
<g id="edge66" class="edge"><title>theorems/ua&#45;&gt;cubical/V</title>
<path fill="none" stroke="black" d="M1058.45,-221.708C1066,-219.715 1073.84,-217.727 1081.23,-216 1295.61,-165.901 1554.01,-118.835 1661.5,-99.84"/>
<polygon fill="black" stroke="black" points="1662.18,-103.273 1671.42,-98.0902 1660.96,-96.3798 1662.18,-103.273"/>
</g>
<!-- theorems/fibration&#45;&gt;theorems/hopf -->
<g id="edge62" class="edge"><title>theorems/fibration&#45;&gt;theorems/hopf</title>
<path fill="none" stroke="black" d="M585.227,-215.849C585.227,-178.832 585.227,-91.1809 585.227,-46.3863"/>
<polygon fill="black" stroke="black" points="588.727,-46.2324 585.227,-36.2325 581.727,-46.2325 588.727,-46.2324"/>
</g>
<!-- types/swale -->
<g id="node29" class="node"><title>types/swale</title>
<ellipse fill="none" stroke="black" cx="214.227" cy="-378" rx="52.7911" ry="18"/>
<text text-anchor="middle" x="214.227" y="-374.3" font-family="Times New Roman,serif" font-size="14.00">types/swale</text>
</g>
<!-- types/swale&#45;&gt;HITs/reals -->
<g id="edge30" class="edge"><title>types/swale&#45;&gt;HITs/reals</title>
<path fill="none" stroke="black" d="M213.98,-359.697C213.87,-351.983 213.737,-342.712 213.614,-334.112"/>
<polygon fill="black" stroke="black" points="217.114,-334.053 213.471,-324.104 210.115,-334.153 217.114,-334.053"/>
</g>
<!-- HITs/suspension&#45;&gt;HITs/circle -->
<g id="edge51" class="edge"><title>HITs/suspension&#45;&gt;HITs/circle</title>
<path fill="none" stroke="black" d="M356.274,-287.993C362.281,-257.455 377.618,-192.037 406.227,-144 412.635,-133.24 421.564,-122.876 430.107,-114.211"/>
<polygon fill="black" stroke="black" points="432.72,-116.551 437.441,-107.066 427.836,-111.537 432.72,-116.551"/>
</g>
<!-- HITs/colimit&#45;&gt;HITs/truncation -->
<g id="edge36" class="edge"><title>HITs/colimit&#45;&gt;HITs/truncation</title>
<path fill="none" stroke="black" d="M1142.28,-360.055C1145.09,-352.176 1148.51,-342.617 1151.66,-333.794"/>
<polygon fill="black" stroke="black" points="1154.99,-334.87 1155.06,-324.275 1148.4,-332.516 1154.99,-334.87"/>
</g>
<!-- HITs/generalized&#45;&gt;HITs/truncation -->
<g id="edge37" class="edge"><title>HITs/generalized&#45;&gt;HITs/truncation</title>
<path fill="none" stroke="black" d="M1255.85,-361.291C1238.58,-351.383 1216.09,-338.477 1197.36,-327.734"/>
<polygon fill="black" stroke="black" points="1198.93,-324.598 1188.51,-322.657 1195.45,-330.669 1198.93,-324.598"/>
</g>
<!-- HITs/rat -->
<g id="node39" class="node"><title>HITs/rat</title>
<ellipse fill="none" stroke="black" cx="1414.23" cy="-306" rx="41.6928" ry="18"/>
<text text-anchor="middle" x="1414.23" y="-302.3" font-family="Times New Roman,serif" font-size="14.00">HITs/rat</text>
</g>
<!-- HITs/int&#45;&gt;HITs/rat -->
<g id="edge44" class="edge"><title>HITs/int&#45;&gt;HITs/rat</title>
<path fill="none" stroke="black" d="M1414.23,-359.697C1414.23,-351.983 1414.23,-342.712 1414.23,-334.112"/>
<polygon fill="black" stroke="black" points="1417.73,-334.104 1414.23,-324.104 1410.73,-334.104 1417.73,-334.104"/>
</g>
<!-- HITs/pushout&#45;&gt;HITs/reals -->
<g id="edge48" class="edge"><title>HITs/pushout&#45;&gt;HITs/reals</title>
<path fill="none" stroke="black" d="M422.014,-365.25C382.446,-354.67 322.882,-338.589 271.227,-324 267.472,-322.939 263.584,-321.828 259.68,-320.704"/>
<polygon fill="black" stroke="black" points="260.594,-317.324 250.014,-317.901 258.644,-324.047 260.594,-317.324"/>
</g>
<!-- HITs/pushout&#45;&gt;HITs/suspension -->
<g id="edge49" class="edge"><title>HITs/pushout&#45;&gt;HITs/suspension</title>
<path fill="none" stroke="black" d="M441.149,-361.465C425.424,-351.724 404.937,-339.033 387.696,-328.353"/>
<polygon fill="black" stroke="black" points="389.363,-325.268 379.019,-322.977 385.677,-331.219 389.363,-325.268"/>
</g>
<!-- HITs/join -->
<g id="node40" class="node"><title>HITs/join</title>
<ellipse fill="none" stroke="black" cx="489.227" cy="-306" rx="45.4919" ry="18"/>
<text text-anchor="middle" x="489.227" y="-302.3" font-family="Times New Roman,serif" font-size="14.00">HITs/join</text>
</g>
<!-- HITs/pushout&#45;&gt;HITs/join -->
<g id="edge50" class="edge"><title>HITs/pushout&#45;&gt;HITs/join</title>
<path fill="none" stroke="black" d="M471.795,-360.055C474.383,-352.176 477.524,-342.617 480.423,-333.794"/>
<polygon fill="black" stroke="black" points="483.754,-334.868 483.551,-324.275 477.104,-332.683 483.754,-334.868"/>
</g>
<!-- cubical/connection -->
<g id="node44" class="node"><title>cubical/connection</title>
<ellipse fill="none" stroke="black" cx="1131.23" cy="-90" rx="79.0865" ry="18"/>
<text text-anchor="middle" x="1131.23" y="-86.3" font-family="Times New Roman,serif" font-size="14.00">cubical/connection</text>
</g>
<!-- cubical/path&#45;&gt;cubical/connection -->
<g id="edge57" class="edge"><title>cubical/path&#45;&gt;cubical/connection</title>
<path fill="none" stroke="black" d="M1131.23,-143.697C1131.23,-135.983 1131.23,-126.712 1131.23,-118.112"/>
<polygon fill="black" stroke="black" points="1134.73,-118.104 1131.23,-108.104 1127.73,-118.104 1134.73,-118.104"/>
</g>
<!-- cubical/example -->
<g id="node46" class="node"><title>cubical/example</title>
<ellipse fill="none" stroke="black" cx="1297.23" cy="-90" rx="68.7879" ry="18"/>
<text text-anchor="middle" x="1297.23" y="-86.3" font-family="Times New Roman,serif" font-size="14.00">cubical/example</text>
</g>
<!-- cubical/path&#45;&gt;cubical/example -->
<g id="edge58" class="edge"><title>cubical/path&#45;&gt;cubical/example</title>
<path fill="none" stroke="black" d="M1163.63,-147.337C1189.23,-136.542 1225.21,-121.367 1253.39,-109.486"/>
<polygon fill="black" stroke="black" points="1254.76,-112.704 1262.62,-105.594 1252.04,-106.254 1254.76,-112.704"/>
</g>
<!-- cubical/square -->
<g id="node47" class="node"><title>cubical/square</title>
<ellipse fill="none" stroke="black" cx="971.227" cy="-90" rx="63.0888" ry="18"/>
<text text-anchor="middle" x="971.227" y="-86.3" font-family="Times New Roman,serif" font-size="14.00">cubical/square</text>
</g>
<!-- cubical/path&#45;&gt;cubical/square -->
<g id="edge59" class="edge"><title>cubical/path&#45;&gt;cubical/square</title>
<path fill="none" stroke="black" d="M1099.62,-147.17C1074.93,-136.371 1040.4,-121.264 1013.37,-109.437"/>
<polygon fill="black" stroke="black" points="1014.71,-106.204 1004.15,-105.403 1011.91,-112.617 1014.71,-106.204"/>
</g>
<!-- cubical/path&#45;&gt;cubical/V -->
<g id="edge60" class="edge"><title>cubical/path&#45;&gt;cubical/V</title>
<path fill="none" stroke="black" d="M1181.52,-154.941C1290.59,-141.8 1548,-110.787 1659.36,-97.3695"/>
<polygon fill="black" stroke="black" points="1659.84,-100.837 1669.35,-96.1655 1659.01,-93.8869 1659.84,-100.837"/>
</g>
<!-- cubical/V&#45;&gt;HITs/moebius -->
<g id="edge61" class="edge"><title>cubical/V&#45;&gt;HITs/moebius</title>
<path fill="none" stroke="black" d="M1695.66,-73.1159C1686.25,-64.0922 1674.29,-52.6231 1663.81,-42.5681"/>
<polygon fill="black" stroke="black" points="1666.13,-39.9466 1656.49,-35.5516 1661.28,-44.9991 1666.13,-39.9466"/>
</g>
<!-- theorems/functions -->
<g id="node49" class="node"><title>theorems/functions</title>
<ellipse fill="none" stroke="black" cx="704.227" cy="-666" rx="79.8859" ry="18"/>
<text text-anchor="middle" x="704.227" y="-662.3" font-family="Times New Roman,serif" font-size="14.00">theorems/functions</text>
</g>
<!-- theorems/functions&#45;&gt;types/equiv -->
<g id="edge63" class="edge"><title>theorems/functions&#45;&gt;types/equiv</title>
<path fill="none" stroke="black" d="M673.482,-649.291C652.911,-638.78 625.734,-624.894 604.015,-613.797"/>
<polygon fill="black" stroke="black" points="605.574,-610.663 595.076,-609.229 602.389,-616.896 605.574,-610.663"/>
</g>
<!-- theorems/geometry -->
<g id="node50" class="node"><title>theorems/geometry</title>
<ellipse fill="none" stroke="black" cx="736.227" cy="-810" rx="79.8859" ry="18"/>
<text text-anchor="middle" x="736.227" y="-806.3" font-family="Times New Roman,serif" font-size="14.00">theorems/geometry</text>
</g>
</g>
</svg>
