<?xml version="1.0" encoding="UTF-8" standalone="no"?>
<!DOCTYPE svg PUBLIC "-//W3C//DTD SVG 1.1//EN"
 "http://www.w3.org/Graphics/SVG/1.1/DTD/svg11.dtd">
<!-- Generated by graphviz version 2.38.0 (20140413.2041)
 -->
<!-- Title: dependency_map Pages: 1 -->
<svg width="1284pt" height="764pt"
 viewBox="0.00 0.00 1283.59 764.00" xmlns="http://www.w3.org/2000/svg" xmlns:xlink="http://www.w3.org/1999/xlink">
<g id="graph0" class="graph" transform="scale(1 1) rotate(0) translate(4 760)">
<title>dependency_map</title>
<polygon fill="white" stroke="none" points="-4,4 -4,-760 1279.59,-760 1279.59,4 -4,4"/>
<!-- proto -->
<g id="node1" class="node"><title>proto</title>
<ellipse fill="none" stroke="black" cx="594.941" cy="-738" rx="30.5947" ry="18"/>
<text text-anchor="middle" x="594.941" y="-734.3" font-family="Times New Roman,serif" font-size="14.00">proto</text>
</g>
<!-- types/eq -->
<g id="node2" class="node"><title>types/eq</title>
<ellipse fill="none" stroke="black" cx="654.941" cy="-666" rx="41.6928" ry="18"/>
<text text-anchor="middle" x="654.941" y="-662.3" font-family="Times New Roman,serif" font-size="14.00">types/eq</text>
</g>
<!-- proto&#45;&gt;types/eq -->
<g id="edge1" class="edge"><title>proto&#45;&gt;types/eq</title>
<path fill="none" stroke="black" d="M608.257,-721.465C615.884,-712.566 625.622,-701.205 634.228,-691.164"/>
<polygon fill="black" stroke="black" points="636.975,-693.338 640.826,-683.467 631.661,-688.782 636.975,-693.338"/>
</g>
<!-- support -->
<g id="node4" class="node"><title>support</title>
<ellipse fill="none" stroke="black" cx="716.941" cy="-594" rx="38.9931" ry="18"/>
<text text-anchor="middle" x="716.941" y="-590.3" font-family="Times New Roman,serif" font-size="14.00">support</text>
</g>
<!-- types/eq&#45;&gt;support -->
<g id="edge11" class="edge"><title>types/eq&#45;&gt;support</title>
<path fill="none" stroke="black" d="M669.32,-648.765C677.224,-639.841 687.174,-628.608 695.932,-618.719"/>
<polygon fill="black" stroke="black" points="698.628,-620.954 702.639,-611.147 693.388,-616.313 698.628,-620.954"/>
</g>
<!-- types/dep_path -->
<g id="node18" class="node"><title>types/dep_path</title>
<ellipse fill="none" stroke="black" cx="592.941" cy="-594" rx="66.8882" ry="18"/>
<text text-anchor="middle" x="592.941" y="-590.3" font-family="Times New Roman,serif" font-size="14.00">types/dep_path</text>
</g>
<!-- types/eq&#45;&gt;types/dep_path -->
<g id="edge12" class="edge"><title>types/eq&#45;&gt;types/dep_path</title>
<path fill="none" stroke="black" d="M640.561,-648.765C632.77,-639.969 622.991,-628.928 614.325,-619.144"/>
<polygon fill="black" stroke="black" points="616.923,-616.799 607.673,-611.633 611.683,-621.44 616.923,-616.799"/>
</g>
<!-- meta/hott_theory -->
<g id="node3" class="node"><title>meta/hott_theory</title>
<ellipse fill="none" stroke="black" cx="715.941" cy="-738" rx="72.2875" ry="18"/>
<text text-anchor="middle" x="715.941" y="-734.3" font-family="Times New Roman,serif" font-size="14.00">meta/hott_theory</text>
</g>
<!-- meta/hott_theory&#45;&gt;types/eq -->
<g id="edge2" class="edge"><title>meta/hott_theory&#45;&gt;types/eq</title>
<path fill="none" stroke="black" d="M701.174,-720.055C693.571,-711.33 684.172,-700.544 675.838,-690.981"/>
<polygon fill="black" stroke="black" points="678.359,-688.547 669.151,-683.307 673.082,-693.146 678.359,-688.547"/>
</g>
<!-- types/equiv -->
<g id="node5" class="node"><title>types/equiv</title>
<ellipse fill="none" stroke="black" cx="716.941" cy="-522" rx="51.9908" ry="18"/>
<text text-anchor="middle" x="716.941" y="-518.3" font-family="Times New Roman,serif" font-size="14.00">types/equiv</text>
</g>
<!-- support&#45;&gt;types/equiv -->
<g id="edge3" class="edge"><title>support&#45;&gt;types/equiv</title>
<path fill="none" stroke="black" d="M716.941,-575.697C716.941,-567.983 716.941,-558.712 716.941,-550.112"/>
<polygon fill="black" stroke="black" points="720.441,-550.104 716.941,-540.104 713.441,-550.104 720.441,-550.104"/>
</g>
<!-- HITs/infinitesimal -->
<g id="node11" class="node"><title>HITs/infinitesimal</title>
<ellipse fill="none" stroke="black" stroke-dasharray="5,2" cx="375.941" cy="-450" rx="74.9875" ry="18"/>
<text text-anchor="middle" x="375.941" y="-446.3" font-family="Times New Roman,serif" font-size="14.00">HITs/infinitesimal</text>
</g>
<!-- types/equiv&#45;&gt;HITs/infinitesimal -->
<g id="edge13" class="edge"><title>types/equiv&#45;&gt;HITs/infinitesimal</title>
<path fill="none" stroke="black" d="M673.406,-512.063C614.572,-499.986 509.204,-478.356 440.964,-464.348"/>
<polygon fill="black" stroke="black" points="441.259,-460.836 430.76,-462.253 439.851,-467.693 441.259,-460.836"/>
</g>
<!-- types/coproduct -->
<g id="node16" class="node"><title>types/coproduct</title>
<ellipse fill="none" stroke="black" cx="649.941" cy="-450" rx="70.6878" ry="18"/>
<text text-anchor="middle" x="649.941" y="-446.3" font-family="Times New Roman,serif" font-size="14.00">types/coproduct</text>
</g>
<!-- types/equiv&#45;&gt;types/coproduct -->
<g id="edge14" class="edge"><title>types/equiv&#45;&gt;types/coproduct</title>
<path fill="none" stroke="black" d="M701.401,-504.765C692.982,-495.969 682.415,-484.928 673.05,-475.144"/>
<polygon fill="black" stroke="black" points="675.304,-472.437 665.861,-467.633 670.247,-477.278 675.304,-472.437"/>
</g>
<!-- types/heq -->
<g id="node19" class="node"><title>types/heq</title>
<ellipse fill="none" stroke="black" cx="514.941" cy="-450" rx="46.2923" ry="18"/>
<text text-anchor="middle" x="514.941" y="-446.3" font-family="Times New Roman,serif" font-size="14.00">types/heq</text>
</g>
<!-- types/equiv&#45;&gt;types/heq -->
<g id="edge15" class="edge"><title>types/equiv&#45;&gt;types/heq</title>
<path fill="none" stroke="black" d="M681.292,-508.647C646.774,-496.685 594.408,-478.538 557.672,-465.808"/>
<polygon fill="black" stroke="black" points="558.817,-462.501 548.223,-462.533 556.525,-469.115 558.817,-462.501"/>
</g>
<!-- types/integer -->
<g id="node20" class="node"><title>types/integer</title>
<ellipse fill="none" stroke="black" cx="1061.94" cy="-378" rx="56.59" ry="18"/>
<text text-anchor="middle" x="1061.94" y="-374.3" font-family="Times New Roman,serif" font-size="14.00">types/integer</text>
</g>
<!-- types/equiv&#45;&gt;types/integer -->
<g id="edge16" class="edge"><title>types/equiv&#45;&gt;types/integer</title>
<path fill="none" stroke="black" d="M766.334,-516.234C814.997,-510.078 890.477,-496.546 949.941,-468 984.239,-451.535 1017.59,-422.907 1038.85,-402.568"/>
<polygon fill="black" stroke="black" points="1041.4,-404.973 1046.12,-395.487 1036.51,-399.961 1041.4,-404.973"/>
</g>
<!-- types/lost -->
<g id="node21" class="node"><title>types/lost</title>
<ellipse fill="none" stroke="black" cx="894.941" cy="-450" rx="46.2923" ry="18"/>
<text text-anchor="middle" x="894.941" y="-446.3" font-family="Times New Roman,serif" font-size="14.00">types/lost</text>
</g>
<!-- types/equiv&#45;&gt;types/lost -->
<g id="edge17" class="edge"><title>types/equiv&#45;&gt;types/lost</title>
<path fill="none" stroke="black" d="M750.004,-507.998C779.434,-496.424 822.586,-479.454 854.151,-467.041"/>
<polygon fill="black" stroke="black" points="855.522,-470.263 863.547,-463.346 852.96,-463.748 855.522,-470.263"/>
</g>
<!-- types/unit -->
<g id="node22" class="node"><title>types/unit</title>
<ellipse fill="none" stroke="black" cx="784.941" cy="-450" rx="46.2923" ry="18"/>
<text text-anchor="middle" x="784.941" y="-446.3" font-family="Times New Roman,serif" font-size="14.00">types/unit</text>
</g>
<!-- types/equiv&#45;&gt;types/unit -->
<g id="edge18" class="edge"><title>types/equiv&#45;&gt;types/unit</title>
<path fill="none" stroke="black" d="M732.712,-504.765C741.466,-495.753 752.509,-484.385 762.184,-474.426"/>
<polygon fill="black" stroke="black" points="764.797,-476.759 769.255,-467.147 759.776,-471.881 764.797,-476.759"/>
</g>
<!-- structures -->
<g id="node6" class="node"><title>structures</title>
<ellipse fill="none" stroke="black" cx="726.941" cy="-378" rx="46.2923" ry="18"/>
<text text-anchor="middle" x="726.941" y="-374.3" font-family="Times New Roman,serif" font-size="14.00">structures</text>
</g>
<!-- HITs/interval -->
<g id="node7" class="node"><title>HITs/interval</title>
<ellipse fill="none" stroke="black" cx="594.941" cy="-306" rx="57.6901" ry="18"/>
<text text-anchor="middle" x="594.941" y="-302.3" font-family="Times New Roman,serif" font-size="14.00">HITs/interval</text>
</g>
<!-- structures&#45;&gt;HITs/interval -->
<g id="edge4" class="edge"><title>structures&#45;&gt;HITs/interval</title>
<path fill="none" stroke="black" d="M700.546,-363.003C680.928,-352.599 653.902,-338.267 632.101,-326.706"/>
<polygon fill="black" stroke="black" points="633.589,-323.534 623.115,-321.941 630.31,-329.718 633.589,-323.534"/>
</g>
<!-- HITs/truncation -->
<g id="node8" class="node"><title>HITs/truncation</title>
<ellipse fill="none" stroke="black" cx="349.941" cy="-306" rx="68.4888" ry="18"/>
<text text-anchor="middle" x="349.941" y="-302.3" font-family="Times New Roman,serif" font-size="14.00">HITs/truncation</text>
</g>
<!-- structures&#45;&gt;HITs/truncation -->
<g id="edge5" class="edge"><title>structures&#45;&gt;HITs/truncation</title>
<path fill="none" stroke="black" d="M693.128,-365.654C686.173,-363.574 678.861,-361.568 671.941,-360 564.604,-335.678 535.189,-343.876 426.941,-324 421.247,-322.955 415.335,-321.791 409.43,-320.576"/>
<polygon fill="black" stroke="black" points="410.046,-317.129 399.54,-318.496 408.605,-323.98 410.046,-317.129"/>
</g>
<!-- algebra/core -->
<g id="node9" class="node"><title>algebra/core</title>
<ellipse fill="none" stroke="black" cx="998.941" cy="-306" rx="55.4913" ry="18"/>
<text text-anchor="middle" x="998.941" y="-302.3" font-family="Times New Roman,serif" font-size="14.00">algebra/core</text>
</g>
<!-- structures&#45;&gt;algebra/core -->
<g id="edge6" class="edge"><title>structures&#45;&gt;algebra/core</title>
<path fill="none" stroke="black" d="M761.455,-365.935C768.223,-363.878 775.286,-361.809 781.941,-360 849.351,-341.675 867.176,-340.969 934.941,-324 939.081,-322.963 943.366,-321.87 947.667,-320.758"/>
<polygon fill="black" stroke="black" points="948.88,-324.059 957.672,-318.147 947.112,-317.285 948.88,-324.059"/>
</g>
<!-- types/product -->
<g id="node28" class="node"><title>types/product</title>
<ellipse fill="none" stroke="black" cx="708.941" cy="-234" rx="61.99" ry="18"/>
<text text-anchor="middle" x="708.941" y="-230.3" font-family="Times New Roman,serif" font-size="14.00">types/product</text>
</g>
<!-- HITs/interval&#45;&gt;types/product -->
<g id="edge38" class="edge"><title>HITs/interval&#45;&gt;types/product</title>
<path fill="none" stroke="black" d="M619.958,-289.638C636.033,-279.768 657.124,-266.817 674.738,-256.001"/>
<polygon fill="black" stroke="black" points="676.897,-258.783 683.587,-250.568 673.234,-252.818 676.897,-258.783"/>
</g>
<!-- theorems/prop -->
<g id="node36" class="node"><title>theorems/prop</title>
<ellipse fill="none" stroke="black" cx="565.941" cy="-234" rx="63.8893" ry="18"/>
<text text-anchor="middle" x="565.941" y="-230.3" font-family="Times New Roman,serif" font-size="14.00">theorems/prop</text>
</g>
<!-- HITs/interval&#45;&gt;theorems/prop -->
<g id="edge39" class="edge"><title>HITs/interval&#45;&gt;theorems/prop</title>
<path fill="none" stroke="black" d="M587.921,-288.055C584.656,-280.176 580.696,-270.617 577.041,-261.794"/>
<polygon fill="black" stroke="black" points="580.158,-260.174 573.098,-252.275 573.691,-262.853 580.158,-260.174"/>
</g>
<!-- HITs/graph -->
<g id="node33" class="node"><title>HITs/graph</title>
<ellipse fill="none" stroke="black" cx="282.941" cy="-234" rx="52.7911" ry="18"/>
<text text-anchor="middle" x="282.941" y="-230.3" font-family="Times New Roman,serif" font-size="14.00">HITs/graph</text>
</g>
<!-- HITs/truncation&#45;&gt;HITs/graph -->
<g id="edge44" class="edge"><title>HITs/truncation&#45;&gt;HITs/graph</title>
<path fill="none" stroke="black" d="M334.063,-288.411C325.635,-279.606 315.128,-268.628 305.834,-258.919"/>
<polygon fill="black" stroke="black" points="308.148,-256.274 298.705,-251.47 303.091,-261.114 308.148,-256.274"/>
</g>
<!-- HITs/truncation&#45;&gt;theorems/prop -->
<g id="edge45" class="edge"><title>HITs/truncation&#45;&gt;theorems/prop</title>
<path fill="none" stroke="black" d="M391.332,-291.586C426.866,-280.07 478.183,-263.44 515.993,-251.187"/>
<polygon fill="black" stroke="black" points="517.351,-254.426 525.785,-248.013 515.193,-247.767 517.351,-254.426"/>
</g>
<!-- HITs/simplicial -->
<g id="node39" class="node"><title>HITs/simplicial</title>
<ellipse fill="none" stroke="black" cx="418.941" cy="-234" rx="65.7887" ry="18"/>
<text text-anchor="middle" x="418.941" y="-230.3" font-family="Times New Roman,serif" font-size="14.00">HITs/simplicial</text>
</g>
<!-- HITs/truncation&#45;&gt;HITs/simplicial -->
<g id="edge46" class="edge"><title>HITs/truncation&#45;&gt;HITs/simplicial</title>
<path fill="none" stroke="black" d="M366.293,-288.411C375.058,-279.519 386.007,-268.411 395.647,-258.631"/>
<polygon fill="black" stroke="black" points="398.179,-261.049 402.706,-251.47 393.193,-256.135 398.179,-261.049"/>
</g>
<!-- theorems/mere_eq_lemma -->
<g id="node40" class="node"><title>theorems/mere_eq_lemma</title>
<ellipse fill="none" stroke="black" cx="105.941" cy="-234" rx="105.881" ry="18"/>
<text text-anchor="middle" x="105.941" y="-230.3" font-family="Times New Roman,serif" font-size="14.00">theorems/mere_eq_lemma</text>
</g>
<!-- HITs/truncation&#45;&gt;theorems/mere_eq_lemma -->
<g id="edge47" class="edge"><title>HITs/truncation&#45;&gt;theorems/mere_eq_lemma</title>
<path fill="none" stroke="black" d="M305.471,-292.242C266.831,-281.157 210.475,-264.989 167.503,-252.661"/>
<polygon fill="black" stroke="black" points="168.297,-249.248 157.72,-249.855 166.367,-255.977 168.297,-249.248"/>
</g>
<!-- algebra/group -->
<g id="node15" class="node"><title>algebra/group</title>
<ellipse fill="none" stroke="black" cx="1202.94" cy="-234" rx="60.3893" ry="18"/>
<text text-anchor="middle" x="1202.94" y="-230.3" font-family="Times New Roman,serif" font-size="14.00">algebra/group</text>
</g>
<!-- algebra/core&#45;&gt;algebra/group -->
<g id="edge7" class="edge"><title>algebra/core&#45;&gt;algebra/group</title>
<path fill="none" stroke="black" d="M1035.88,-292.324C1069.26,-280.871 1118.58,-263.947 1154.99,-251.455"/>
<polygon fill="black" stroke="black" points="1156.57,-254.613 1164.89,-248.057 1154.29,-247.992 1156.57,-254.613"/>
</g>
<!-- HITs/circle -->
<g id="node10" class="node"><title>HITs/circle</title>
<ellipse fill="none" stroke="black" stroke-dasharray="5,2" cx="957.941" cy="-90" rx="51.9908" ry="18"/>
<text text-anchor="middle" x="957.941" y="-86.3" font-family="Times New Roman,serif" font-size="14.00">HITs/circle</text>
</g>
<!-- HITs/ntrunc -->
<g id="node12" class="node"><title>HITs/ntrunc</title>
<ellipse fill="none" stroke="black" stroke-dasharray="5,2" cx="966.941" cy="-18" rx="55.4913" ry="18"/>
<text text-anchor="middle" x="966.941" y="-14.3" font-family="Times New Roman,serif" font-size="14.00">HITs/ntrunc</text>
</g>
<!-- HITs/circle&#45;&gt;HITs/ntrunc -->
<g id="edge33" class="edge"><title>HITs/circle&#45;&gt;HITs/ntrunc</title>
<path fill="none" stroke="black" d="M960.165,-71.6966C961.157,-63.9827 962.349,-54.7125 963.455,-46.1124"/>
<polygon fill="black" stroke="black" points="966.938,-46.469 964.741,-36.1043 959.995,-45.5763 966.938,-46.469"/>
</g>
<!-- theorems/ua -->
<g id="node13" class="node"><title>theorems/ua</title>
<ellipse fill="none" stroke="black" stroke-dasharray="5,2" cx="847.941" cy="-162" rx="54.6905" ry="18"/>
<text text-anchor="middle" x="847.941" y="-158.3" font-family="Times New Roman,serif" font-size="14.00">theorems/ua</text>
</g>
<!-- theorems/ua&#45;&gt;HITs/circle -->
<g id="edge55" class="edge"><title>theorems/ua&#45;&gt;HITs/circle</title>
<path fill="none" stroke="black" d="M871.809,-145.811C887.521,-135.813 908.287,-122.598 925.492,-111.649"/>
<polygon fill="black" stroke="black" points="927.561,-114.481 934.119,-106.159 923.803,-108.575 927.561,-114.481"/>
</g>
<!-- cubical/V -->
<g id="node14" class="node"><title>cubical/V</title>
<ellipse fill="none" stroke="black" stroke-dasharray="5,2" cx="847.941" cy="-18" rx="45.4919" ry="18"/>
<text text-anchor="middle" x="847.941" y="-14.3" font-family="Times New Roman,serif" font-size="14.00">cubical/V</text>
</g>
<!-- theorems/ua&#45;&gt;cubical/V -->
<g id="edge56" class="edge"><title>theorems/ua&#45;&gt;cubical/V</title>
<path fill="none" stroke="black" d="M847.941,-143.871C847.941,-119.67 847.941,-75.2108 847.941,-46.3932"/>
<polygon fill="black" stroke="black" points="851.441,-46.1892 847.941,-36.1893 844.441,-46.1893 851.441,-46.1892"/>
</g>
<!-- types/coproduct&#45;&gt;structures -->
<g id="edge8" class="edge"><title>types/coproduct&#45;&gt;structures</title>
<path fill="none" stroke="black" d="M668.189,-432.411C678.28,-423.237 690.967,-411.703 701.967,-401.703"/>
<polygon fill="black" stroke="black" points="704.572,-404.065 709.617,-394.749 699.863,-398.886 704.572,-404.065"/>
</g>
<!-- types/nat -->
<g id="node17" class="node"><title>types/nat</title>
<ellipse fill="none" stroke="black" cx="618.941" cy="-378" rx="43.5923" ry="18"/>
<text text-anchor="middle" x="618.941" y="-374.3" font-family="Times New Roman,serif" font-size="14.00">types/nat</text>
</g>
<!-- types/coproduct&#45;&gt;types/nat -->
<g id="edge9" class="edge"><title>types/coproduct&#45;&gt;types/nat</title>
<path fill="none" stroke="black" d="M642.436,-432.055C638.857,-423.973 634.494,-414.121 630.504,-405.112"/>
<polygon fill="black" stroke="black" points="633.625,-403.515 626.376,-395.789 627.225,-406.35 633.625,-403.515"/>
</g>
<!-- types/dep_path&#45;&gt;types/equiv -->
<g id="edge10" class="edge"><title>types/dep_path&#45;&gt;types/equiv</title>
<path fill="none" stroke="black" d="M620.46,-577.465C638.569,-567.242 662.433,-553.771 681.896,-542.783"/>
<polygon fill="black" stroke="black" points="683.784,-545.737 690.771,-537.773 680.342,-539.641 683.784,-545.737"/>
</g>
<!-- types/heq&#45;&gt;HITs/interval -->
<g id="edge19" class="edge"><title>types/heq&#45;&gt;HITs/interval</title>
<path fill="none" stroke="black" d="M524.432,-432.153C538.265,-407.6 564.083,-361.773 580.344,-332.908"/>
<polygon fill="black" stroke="black" points="583.603,-334.255 585.462,-323.825 577.504,-330.819 583.603,-334.255"/>
</g>
<!-- HITs/colimit -->
<g id="node23" class="node"><title>HITs/colimit</title>
<ellipse fill="none" stroke="black" cx="362.941" cy="-378" rx="56.59" ry="18"/>
<text text-anchor="middle" x="362.941" y="-374.3" font-family="Times New Roman,serif" font-size="14.00">HITs/colimit</text>
</g>
<!-- types/heq&#45;&gt;HITs/colimit -->
<g id="edge20" class="edge"><title>types/heq&#45;&gt;HITs/colimit</title>
<path fill="none" stroke="black" d="M486.351,-435.834C462.837,-425.005 429.243,-409.534 403.04,-397.467"/>
<polygon fill="black" stroke="black" points="404.3,-394.194 393.753,-393.19 401.372,-400.552 404.3,-394.194"/>
</g>
<!-- HITs/generalized -->
<g id="node24" class="node"><title>HITs/generalized</title>
<ellipse fill="none" stroke="black" cx="215.941" cy="-378" rx="72.2875" ry="18"/>
<text text-anchor="middle" x="215.941" y="-374.3" font-family="Times New Roman,serif" font-size="14.00">HITs/generalized</text>
</g>
<!-- types/heq&#45;&gt;HITs/generalized -->
<g id="edge21" class="edge"><title>types/heq&#45;&gt;HITs/generalized</title>
<path fill="none" stroke="black" d="M480.45,-437.843C473.68,-435.794 466.61,-433.752 459.941,-432 442.568,-427.437 345.414,-406.567 279.067,-392.418"/>
<polygon fill="black" stroke="black" points="279.618,-388.956 269.108,-390.295 278.158,-395.803 279.618,-388.956"/>
</g>
<!-- HITs/int -->
<g id="node25" class="node"><title>HITs/int</title>
<ellipse fill="none" stroke="black" cx="477.941" cy="-378" rx="40.8928" ry="18"/>
<text text-anchor="middle" x="477.941" y="-374.3" font-family="Times New Roman,serif" font-size="14.00">HITs/int</text>
</g>
<!-- types/heq&#45;&gt;HITs/int -->
<g id="edge22" class="edge"><title>types/heq&#45;&gt;HITs/int</title>
<path fill="none" stroke="black" d="M505.984,-432.055C501.666,-423.887 496.394,-413.912 491.591,-404.824"/>
<polygon fill="black" stroke="black" points="494.582,-402.994 486.815,-395.789 488.394,-406.266 494.582,-402.994"/>
</g>
<!-- HITs/pushout -->
<g id="node26" class="node"><title>HITs/pushout</title>
<ellipse fill="none" stroke="black" cx="852.941" cy="-378" rx="61.99" ry="18"/>
<text text-anchor="middle" x="852.941" y="-374.3" font-family="Times New Roman,serif" font-size="14.00">HITs/pushout</text>
</g>
<!-- types/heq&#45;&gt;HITs/pushout -->
<g id="edge23" class="edge"><title>types/heq&#45;&gt;HITs/pushout</title>
<path fill="none" stroke="black" d="M549.075,-437.687C555.939,-435.628 563.135,-433.622 569.941,-432 662.907,-409.841 688.305,-415.138 781.941,-396 787.011,-394.964 792.269,-393.826 797.528,-392.644"/>
<polygon fill="black" stroke="black" points="798.626,-395.984 807.59,-390.336 797.06,-389.161 798.626,-395.984"/>
</g>
<!-- types/integer&#45;&gt;algebra/core -->
<g id="edge24" class="edge"><title>types/integer&#45;&gt;algebra/core</title>
<path fill="none" stroke="black" d="M1047.01,-360.411C1039.09,-351.606 1029.21,-340.628 1020.47,-330.919"/>
<polygon fill="black" stroke="black" points="1023.05,-328.562 1013.76,-323.47 1017.85,-333.244 1023.05,-328.562"/>
</g>
<!-- types/integer&#45;&gt;HITs/circle -->
<g id="edge25" class="edge"><title>types/integer&#45;&gt;HITs/circle</title>
<path fill="none" stroke="black" d="M1064.66,-359.972C1066.97,-341.836 1069.05,-312.436 1062.94,-288 1046.18,-220.928 1001.8,-151.677 976.423,-115.85"/>
<polygon fill="black" stroke="black" points="979.088,-113.561 970.41,-107.483 973.403,-117.646 979.088,-113.561"/>
</g>
<!-- HITs/reals -->
<g id="node27" class="node"><title>HITs/reals</title>
<ellipse fill="none" stroke="black" cx="1158.94" cy="-306" rx="48.9926" ry="18"/>
<text text-anchor="middle" x="1158.94" y="-302.3" font-family="Times New Roman,serif" font-size="14.00">HITs/reals</text>
</g>
<!-- types/integer&#45;&gt;HITs/reals -->
<g id="edge26" class="edge"><title>types/integer&#45;&gt;HITs/reals</title>
<path fill="none" stroke="black" d="M1083.95,-361.116C1097.41,-351.405 1114.79,-338.861 1129.43,-328.296"/>
<polygon fill="black" stroke="black" points="1131.62,-331.03 1137.68,-322.34 1127.53,-325.354 1131.62,-331.03"/>
</g>
<!-- types/unit&#45;&gt;structures -->
<g id="edge31" class="edge"><title>types/unit&#45;&gt;structures</title>
<path fill="none" stroke="black" d="M771.488,-432.765C764.273,-424.056 755.234,-413.147 747.187,-403.435"/>
<polygon fill="black" stroke="black" points="749.798,-401.101 740.723,-395.633 744.408,-405.567 749.798,-401.101"/>
</g>
<!-- HITs/suspension -->
<g id="node32" class="node"><title>HITs/suspension</title>
<ellipse fill="none" stroke="black" cx="852.941" cy="-306" rx="72.5877" ry="18"/>
<text text-anchor="middle" x="852.941" y="-302.3" font-family="Times New Roman,serif" font-size="14.00">HITs/suspension</text>
</g>
<!-- types/unit&#45;&gt;HITs/suspension -->
<g id="edge32" class="edge"><title>types/unit&#45;&gt;HITs/suspension</title>
<path fill="none" stroke="black" d="M819.699,-438.023C858.809,-425.325 917.732,-405.012 923.941,-396 933.018,-382.824 931.112,-374.303 923.941,-360 917.339,-346.833 905.741,-336.101 893.81,-327.824"/>
<polygon fill="black" stroke="black" points="895.431,-324.705 885.129,-322.232 891.64,-330.59 895.431,-324.705"/>
</g>
<!-- HITs/colimit&#45;&gt;HITs/truncation -->
<g id="edge34" class="edge"><title>HITs/colimit&#45;&gt;HITs/truncation</title>
<path fill="none" stroke="black" d="M359.727,-359.697C358.295,-351.983 356.573,-342.712 354.976,-334.112"/>
<polygon fill="black" stroke="black" points="358.384,-333.297 353.117,-324.104 351.502,-334.575 358.384,-333.297"/>
</g>
<!-- HITs/generalized&#45;&gt;HITs/truncation -->
<g id="edge35" class="edge"><title>HITs/generalized&#45;&gt;HITs/truncation</title>
<path fill="none" stroke="black" d="M245.68,-361.465C265.023,-351.36 290.442,-338.081 311.339,-327.165"/>
<polygon fill="black" stroke="black" points="313.042,-330.224 320.285,-322.492 309.801,-324.02 313.042,-330.224"/>
</g>
<!-- HITs/rat -->
<g id="node35" class="node"><title>HITs/rat</title>
<ellipse fill="none" stroke="black" cx="477.941" cy="-306" rx="41.6928" ry="18"/>
<text text-anchor="middle" x="477.941" y="-302.3" font-family="Times New Roman,serif" font-size="14.00">HITs/rat</text>
</g>
<!-- HITs/int&#45;&gt;HITs/rat -->
<g id="edge37" class="edge"><title>HITs/int&#45;&gt;HITs/rat</title>
<path fill="none" stroke="black" d="M477.941,-359.697C477.941,-351.983 477.941,-342.712 477.941,-334.112"/>
<polygon fill="black" stroke="black" points="481.441,-334.104 477.941,-324.104 474.441,-334.104 481.441,-334.104"/>
</g>
<!-- HITs/pushout&#45;&gt;HITs/reals -->
<g id="edge40" class="edge"><title>HITs/pushout&#45;&gt;HITs/reals</title>
<path fill="none" stroke="black" d="M900.082,-366.216C956.543,-353.3 1050.73,-331.755 1108.58,-318.521"/>
<polygon fill="black" stroke="black" points="1109.62,-321.873 1118.59,-316.231 1108.06,-315.049 1109.62,-321.873"/>
</g>
<!-- HITs/pushout&#45;&gt;HITs/suspension -->
<g id="edge41" class="edge"><title>HITs/pushout&#45;&gt;HITs/suspension</title>
<path fill="none" stroke="black" d="M852.941,-359.697C852.941,-351.983 852.941,-342.712 852.941,-334.112"/>
<polygon fill="black" stroke="black" points="856.441,-334.104 852.941,-324.104 849.441,-334.104 856.441,-334.104"/>
</g>
<!-- HITs/join -->
<g id="node37" class="node"><title>HITs/join</title>
<ellipse fill="none" stroke="black" cx="716.941" cy="-306" rx="45.4919" ry="18"/>
<text text-anchor="middle" x="716.941" y="-302.3" font-family="Times New Roman,serif" font-size="14.00">HITs/join</text>
</g>
<!-- HITs/pushout&#45;&gt;HITs/join -->
<g id="edge42" class="edge"><title>HITs/pushout&#45;&gt;HITs/join</title>
<path fill="none" stroke="black" d="M823.765,-361.983C803.004,-351.297 774.982,-336.874 752.847,-325.481"/>
<polygon fill="black" stroke="black" points="754.252,-322.268 743.759,-320.804 751.049,-328.492 754.252,-322.268"/>
</g>
<!-- types/product&#45;&gt;theorems/ua -->
<g id="edge27" class="edge"><title>types/product&#45;&gt;theorems/ua</title>
<path fill="none" stroke="black" d="M738.419,-218.155C759.291,-207.644 787.469,-193.453 810.016,-182.099"/>
<polygon fill="black" stroke="black" points="811.624,-185.208 818.981,-177.584 808.476,-178.956 811.624,-185.208"/>
</g>
<!-- cubical/cubes -->
<g id="node29" class="node"><title>cubical/cubes</title>
<ellipse fill="none" stroke="black" cx="678.941" cy="-162" rx="60.3893" ry="18"/>
<text text-anchor="middle" x="678.941" y="-158.3" font-family="Times New Roman,serif" font-size="14.00">cubical/cubes</text>
</g>
<!-- types/product&#45;&gt;cubical/cubes -->
<g id="edge28" class="edge"><title>types/product&#45;&gt;cubical/cubes</title>
<path fill="none" stroke="black" d="M701.678,-216.055C698.266,-208.091 694.117,-198.411 690.302,-189.51"/>
<polygon fill="black" stroke="black" points="693.501,-188.088 686.344,-180.275 687.067,-190.845 693.501,-188.088"/>
</g>
<!-- cubical/path -->
<g id="node42" class="node"><title>cubical/path</title>
<ellipse fill="none" stroke="black" cx="606.941" cy="-90" rx="54.6905" ry="18"/>
<text text-anchor="middle" x="606.941" y="-86.3" font-family="Times New Roman,serif" font-size="14.00">cubical/path</text>
</g>
<!-- cubical/cubes&#45;&gt;cubical/path -->
<g id="edge48" class="edge"><title>cubical/cubes&#45;&gt;cubical/path</title>
<path fill="none" stroke="black" d="M661.878,-144.411C652.732,-135.519 641.306,-124.411 631.247,-114.631"/>
<polygon fill="black" stroke="black" points="633.491,-111.931 623.881,-107.47 628.611,-116.95 633.491,-111.931"/>
</g>
<!-- types/sigma -->
<g id="node30" class="node"><title>types/sigma</title>
<ellipse fill="none" stroke="black" cx="859.941" cy="-738" rx="53.8905" ry="18"/>
<text text-anchor="middle" x="859.941" y="-734.3" font-family="Times New Roman,serif" font-size="14.00">types/sigma</text>
</g>
<!-- types/swale -->
<g id="node31" class="node"><title>types/swale</title>
<ellipse fill="none" stroke="black" cx="1222.94" cy="-378" rx="52.7911" ry="18"/>
<text text-anchor="middle" x="1222.94" y="-374.3" font-family="Times New Roman,serif" font-size="14.00">types/swale</text>
</g>
<!-- types/swale&#45;&gt;algebra/group -->
<g id="edge29" class="edge"><title>types/swale&#45;&gt;algebra/group</title>
<path fill="none" stroke="black" d="M1222.75,-359.827C1222.33,-341.821 1221.01,-312.756 1216.94,-288 1215.52,-279.32 1213.29,-270 1211.04,-261.633"/>
<polygon fill="black" stroke="black" points="1214.41,-260.679 1208.32,-252.006 1207.67,-262.581 1214.41,-260.679"/>
</g>
<!-- types/swale&#45;&gt;HITs/reals -->
<g id="edge30" class="edge"><title>types/swale&#45;&gt;HITs/reals</title>
<path fill="none" stroke="black" d="M1207.77,-360.411C1199.72,-351.606 1189.69,-340.628 1180.81,-330.919"/>
<polygon fill="black" stroke="black" points="1183.33,-328.489 1174,-323.47 1178.16,-333.212 1183.33,-328.489"/>
</g>
<!-- HITs/suspension&#45;&gt;HITs/circle -->
<g id="edge43" class="edge"><title>HITs/suspension&#45;&gt;HITs/circle</title>
<path fill="none" stroke="black" d="M861.356,-287.849C879.717,-250.426 923.47,-161.255 945.218,-116.93"/>
<polygon fill="black" stroke="black" points="948.368,-118.455 949.631,-107.935 942.084,-115.371 948.368,-118.455"/>
</g>
<!-- theorems/graphs -->
<g id="node34" class="node"><title>theorems/graphs</title>
<ellipse fill="none" stroke="black" cx="282.941" cy="-162" rx="70.6878" ry="18"/>
<text text-anchor="middle" x="282.941" y="-158.3" font-family="Times New Roman,serif" font-size="14.00">theorems/graphs</text>
</g>
<!-- HITs/graph&#45;&gt;theorems/graphs -->
<g id="edge36" class="edge"><title>HITs/graph&#45;&gt;theorems/graphs</title>
<path fill="none" stroke="black" d="M282.941,-215.697C282.941,-207.983 282.941,-198.712 282.941,-190.112"/>
<polygon fill="black" stroke="black" points="286.441,-190.104 282.941,-180.104 279.441,-190.104 286.441,-190.104"/>
</g>
<!-- HITs/moebius -->
<g id="node38" class="node"><title>HITs/moebius</title>
<ellipse fill="none" stroke="black" cx="244.941" cy="-18" rx="63.0888" ry="18"/>
<text text-anchor="middle" x="244.941" y="-14.3" font-family="Times New Roman,serif" font-size="14.00">HITs/moebius</text>
</g>
<!-- cubical/connection -->
<g id="node41" class="node"><title>cubical/connection</title>
<ellipse fill="none" stroke="black" cx="404.941" cy="-18" rx="79.0865" ry="18"/>
<text text-anchor="middle" x="404.941" y="-14.3" font-family="Times New Roman,serif" font-size="14.00">cubical/connection</text>
</g>
<!-- cubical/path&#45;&gt;cubical/V -->
<g id="edge49" class="edge"><title>cubical/path&#45;&gt;cubical/V</title>
<path fill="none" stroke="black" d="M647.289,-77.7812C685.015,-67.2258 742.889,-50.8643 792.941,-36 796.453,-34.957 800.086,-33.8642 803.735,-32.7571"/>
<polygon fill="black" stroke="black" points="804.815,-36.0872 813.356,-29.8181 802.769,-29.3926 804.815,-36.0872"/>
</g>
<!-- cubical/path&#45;&gt;HITs/moebius -->
<g id="edge50" class="edge"><title>cubical/path&#45;&gt;HITs/moebius</title>
<path fill="none" stroke="black" d="M559.325,-81.0662C501.749,-71.2958 401.978,-53.7977 316.941,-36 311.885,-34.9418 306.64,-33.7965 301.391,-32.6176"/>
<polygon fill="black" stroke="black" points="301.868,-29.1366 291.34,-30.3232 300.31,-35.961 301.868,-29.1366"/>
</g>
<!-- cubical/path&#45;&gt;cubical/connection -->
<g id="edge51" class="edge"><title>cubical/path&#45;&gt;cubical/connection</title>
<path fill="none" stroke="black" d="M570.827,-76.4854C538.982,-65.4501 492.214,-49.2431 456.446,-36.8483"/>
<polygon fill="black" stroke="black" points="457.265,-33.4282 446.671,-33.4609 454.973,-40.0424 457.265,-33.4282"/>
</g>
<!-- cubical/example -->
<g id="node43" class="node"><title>cubical/example</title>
<ellipse fill="none" stroke="black" cx="570.941" cy="-18" rx="68.7879" ry="18"/>
<text text-anchor="middle" x="570.941" y="-14.3" font-family="Times New Roman,serif" font-size="14.00">cubical/example</text>
</g>
<!-- cubical/path&#45;&gt;cubical/example -->
<g id="edge52" class="edge"><title>cubical/path&#45;&gt;cubical/example</title>
<path fill="none" stroke="black" d="M598.226,-72.055C594.087,-64.0067 589.046,-54.2046 584.428,-45.2259"/>
<polygon fill="black" stroke="black" points="587.511,-43.5675 579.825,-36.2753 581.286,-46.7689 587.511,-43.5675"/>
</g>
<!-- cubical/square -->
<g id="node44" class="node"><title>cubical/square</title>
<ellipse fill="none" stroke="black" cx="720.941" cy="-18" rx="63.0888" ry="18"/>
<text text-anchor="middle" x="720.941" y="-14.3" font-family="Times New Roman,serif" font-size="14.00">cubical/square</text>
</g>
<!-- cubical/path&#45;&gt;cubical/square -->
<g id="edge53" class="edge"><title>cubical/path&#45;&gt;cubical/square</title>
<path fill="none" stroke="black" d="M631.677,-73.811C647.737,-63.9495 668.893,-50.9593 686.577,-40.1004"/>
<polygon fill="black" stroke="black" points="688.773,-42.8593 695.463,-34.644 685.11,-36.8941 688.773,-42.8593"/>
</g>
<!-- theorems/functions -->
<g id="node45" class="node"><title>theorems/functions</title>
<ellipse fill="none" stroke="black" cx="853.941" cy="-594" rx="79.8859" ry="18"/>
<text text-anchor="middle" x="853.941" y="-590.3" font-family="Times New Roman,serif" font-size="14.00">theorems/functions</text>
</g>
<!-- theorems/functions&#45;&gt;types/equiv -->
<g id="edge54" class="edge"><title>theorems/functions&#45;&gt;types/equiv</title>
<path fill="none" stroke="black" d="M823.195,-577.291C802.624,-566.78 775.447,-552.894 753.729,-541.797"/>
<polygon fill="black" stroke="black" points="755.287,-538.663 744.79,-537.229 752.102,-544.896 755.287,-538.663"/>
</g>
<!-- theorems/topology -->
<g id="node46" class="node"><title>theorems/topology</title>
<ellipse fill="none" stroke="black" cx="1010.94" cy="-738" rx="79.0865" ry="18"/>
<text text-anchor="middle" x="1010.94" y="-734.3" font-family="Times New Roman,serif" font-size="14.00">theorems/topology</text>
</g>
</g>
</svg>
