<?xml version="1.0" encoding="UTF-8" standalone="no"?>
<!DOCTYPE svg PUBLIC "-//W3C//DTD SVG 1.1//EN"
 "http://www.w3.org/Graphics/SVG/1.1/DTD/svg11.dtd">
<!-- Generated by graphviz version 2.38.0 (20140413.2041)
 -->
<!-- Title: dependency_map Pages: 1 -->
<svg width="1266pt" height="764pt"
 viewBox="0.00 0.00 1266.49 764.00" xmlns="http://www.w3.org/2000/svg" xmlns:xlink="http://www.w3.org/1999/xlink">
<g id="graph0" class="graph" transform="scale(1 1) rotate(0) translate(4 760)">
<title>dependency_map</title>
<polygon fill="white" stroke="none" points="-4,4 -4,-760 1262.49,-760 1262.49,4 -4,4"/>
<!-- proto -->
<g id="node1" class="node"><title>proto</title>
<ellipse fill="none" stroke="black" cx="442.645" cy="-738" rx="30.5947" ry="18"/>
<text text-anchor="middle" x="442.645" y="-734.3" font-family="Times New Roman,serif" font-size="14.00">proto</text>
</g>
<!-- types/eq -->
<g id="node2" class="node"><title>types/eq</title>
<ellipse fill="none" stroke="black" cx="502.645" cy="-666" rx="41.6928" ry="18"/>
<text text-anchor="middle" x="502.645" y="-662.3" font-family="Times New Roman,serif" font-size="14.00">types/eq</text>
</g>
<!-- proto&#45;&gt;types/eq -->
<g id="edge1" class="edge"><title>proto&#45;&gt;types/eq</title>
<path fill="none" stroke="black" d="M455.961,-721.465C463.589,-712.566 473.327,-701.205 481.933,-691.164"/>
<polygon fill="black" stroke="black" points="484.68,-693.338 488.531,-683.467 479.365,-688.782 484.68,-693.338"/>
</g>
<!-- support -->
<g id="node4" class="node"><title>support</title>
<ellipse fill="none" stroke="black" cx="564.645" cy="-594" rx="38.9931" ry="18"/>
<text text-anchor="middle" x="564.645" y="-590.3" font-family="Times New Roman,serif" font-size="14.00">support</text>
</g>
<!-- types/eq&#45;&gt;support -->
<g id="edge11" class="edge"><title>types/eq&#45;&gt;support</title>
<path fill="none" stroke="black" d="M517.025,-648.765C524.929,-639.841 534.878,-628.608 543.637,-618.719"/>
<polygon fill="black" stroke="black" points="546.333,-620.954 550.343,-611.147 541.093,-616.313 546.333,-620.954"/>
</g>
<!-- types/dep_path -->
<g id="node18" class="node"><title>types/dep_path</title>
<ellipse fill="none" stroke="black" cx="440.645" cy="-594" rx="66.8882" ry="18"/>
<text text-anchor="middle" x="440.645" y="-590.3" font-family="Times New Roman,serif" font-size="14.00">types/dep_path</text>
</g>
<!-- types/eq&#45;&gt;types/dep_path -->
<g id="edge12" class="edge"><title>types/eq&#45;&gt;types/dep_path</title>
<path fill="none" stroke="black" d="M488.265,-648.765C480.475,-639.969 470.696,-628.928 462.03,-619.144"/>
<polygon fill="black" stroke="black" points="464.628,-616.799 455.378,-611.633 459.388,-621.44 464.628,-616.799"/>
</g>
<!-- meta/hott_theory -->
<g id="node3" class="node"><title>meta/hott_theory</title>
<ellipse fill="none" stroke="black" cx="563.645" cy="-738" rx="72.2875" ry="18"/>
<text text-anchor="middle" x="563.645" y="-734.3" font-family="Times New Roman,serif" font-size="14.00">meta/hott_theory</text>
</g>
<!-- meta/hott_theory&#45;&gt;types/eq -->
<g id="edge2" class="edge"><title>meta/hott_theory&#45;&gt;types/eq</title>
<path fill="none" stroke="black" d="M548.879,-720.055C541.276,-711.33 531.877,-700.544 523.543,-690.981"/>
<polygon fill="black" stroke="black" points="526.064,-688.547 516.856,-683.307 520.787,-693.146 526.064,-688.547"/>
</g>
<!-- types/equiv -->
<g id="node5" class="node"><title>types/equiv</title>
<ellipse fill="none" stroke="black" cx="564.645" cy="-522" rx="51.9908" ry="18"/>
<text text-anchor="middle" x="564.645" y="-518.3" font-family="Times New Roman,serif" font-size="14.00">types/equiv</text>
</g>
<!-- support&#45;&gt;types/equiv -->
<g id="edge3" class="edge"><title>support&#45;&gt;types/equiv</title>
<path fill="none" stroke="black" d="M564.645,-575.697C564.645,-567.983 564.645,-558.712 564.645,-550.112"/>
<polygon fill="black" stroke="black" points="568.145,-550.104 564.645,-540.104 561.145,-550.104 568.145,-550.104"/>
</g>
<!-- HITs/infinitesimal -->
<g id="node11" class="node"><title>HITs/infinitesimal</title>
<ellipse fill="none" stroke="black" stroke-dasharray="5,2" cx="320.645" cy="-450" rx="74.9875" ry="18"/>
<text text-anchor="middle" x="320.645" y="-446.3" font-family="Times New Roman,serif" font-size="14.00">HITs/infinitesimal</text>
</g>
<!-- types/equiv&#45;&gt;HITs/infinitesimal -->
<g id="edge13" class="edge"><title>types/equiv&#45;&gt;HITs/infinitesimal</title>
<path fill="none" stroke="black" d="M525.983,-509.908C485.796,-498.379 422.501,-480.221 376.802,-467.111"/>
<polygon fill="black" stroke="black" points="377.621,-463.704 367.043,-464.311 375.69,-470.433 377.621,-463.704"/>
</g>
<!-- types/coproduct -->
<g id="node16" class="node"><title>types/coproduct</title>
<ellipse fill="none" stroke="black" cx="632.645" cy="-450" rx="70.6878" ry="18"/>
<text text-anchor="middle" x="632.645" y="-446.3" font-family="Times New Roman,serif" font-size="14.00">types/coproduct</text>
</g>
<!-- types/equiv&#45;&gt;types/coproduct -->
<g id="edge14" class="edge"><title>types/equiv&#45;&gt;types/coproduct</title>
<path fill="none" stroke="black" d="M580.417,-504.765C589.046,-495.882 599.899,-484.709 609.473,-474.854"/>
<polygon fill="black" stroke="black" points="612.03,-477.245 616.487,-467.633 607.009,-472.367 612.03,-477.245"/>
</g>
<!-- types/heq -->
<g id="node19" class="node"><title>types/heq</title>
<ellipse fill="none" stroke="black" cx="779.645" cy="-450" rx="46.2923" ry="18"/>
<text text-anchor="middle" x="779.645" y="-446.3" font-family="Times New Roman,serif" font-size="14.00">types/heq</text>
</g>
<!-- types/equiv&#45;&gt;types/heq -->
<g id="edge15" class="edge"><title>types/equiv&#45;&gt;types/heq</title>
<path fill="none" stroke="black" d="M601.117,-509.125C638.337,-497.007 696.12,-478.194 735.807,-465.273"/>
<polygon fill="black" stroke="black" points="737.058,-468.547 745.483,-462.123 734.891,-461.89 737.058,-468.547"/>
</g>
<!-- types/integer -->
<g id="node20" class="node"><title>types/integer</title>
<ellipse fill="none" stroke="black" cx="210.645" cy="-378" rx="56.59" ry="18"/>
<text text-anchor="middle" x="210.645" y="-374.3" font-family="Times New Roman,serif" font-size="14.00">types/integer</text>
</g>
<!-- types/equiv&#45;&gt;types/integer -->
<g id="edge16" class="edge"><title>types/equiv&#45;&gt;types/integer</title>
<path fill="none" stroke="black" d="M528.269,-509C503.089,-499.805 469.423,-485.701 442.645,-468 423.238,-455.171 424.92,-443.409 404.645,-432 363.497,-408.847 311.689,-395.365 271.964,-387.798"/>
<polygon fill="black" stroke="black" points="272.346,-384.31 261.879,-385.954 271.086,-391.196 272.346,-384.31"/>
</g>
<!-- types/lost -->
<g id="node21" class="node"><title>types/lost</title>
<ellipse fill="none" stroke="black" cx="889.645" cy="-450" rx="46.2923" ry="18"/>
<text text-anchor="middle" x="889.645" y="-446.3" font-family="Times New Roman,serif" font-size="14.00">types/lost</text>
</g>
<!-- types/equiv&#45;&gt;types/lost -->
<g id="edge17" class="edge"><title>types/equiv&#45;&gt;types/lost</title>
<path fill="none" stroke="black" d="M610.837,-513.468C664.864,-504.304 756.824,-487.606 834.645,-468 838.249,-467.092 841.967,-466.089 845.689,-465.038"/>
<polygon fill="black" stroke="black" points="846.862,-468.342 855.477,-462.175 844.896,-461.623 846.862,-468.342"/>
</g>
<!-- types/unit -->
<g id="node22" class="node"><title>types/unit</title>
<ellipse fill="none" stroke="black" cx="497.645" cy="-450" rx="46.2923" ry="18"/>
<text text-anchor="middle" x="497.645" y="-446.3" font-family="Times New Roman,serif" font-size="14.00">types/unit</text>
</g>
<!-- types/equiv&#45;&gt;types/unit -->
<g id="edge18" class="edge"><title>types/equiv&#45;&gt;types/unit</title>
<path fill="none" stroke="black" d="M549.106,-504.765C540.48,-495.753 529.6,-484.385 520.067,-474.426"/>
<polygon fill="black" stroke="black" points="522.544,-471.951 513.101,-467.147 517.487,-476.792 522.544,-471.951"/>
</g>
<!-- structures -->
<g id="node6" class="node"><title>structures</title>
<ellipse fill="none" stroke="black" cx="632.645" cy="-378" rx="46.2923" ry="18"/>
<text text-anchor="middle" x="632.645" y="-374.3" font-family="Times New Roman,serif" font-size="14.00">structures</text>
</g>
<!-- HITs/interval -->
<g id="node7" class="node"><title>HITs/interval</title>
<ellipse fill="none" stroke="black" cx="677.645" cy="-306" rx="57.6901" ry="18"/>
<text text-anchor="middle" x="677.645" y="-302.3" font-family="Times New Roman,serif" font-size="14.00">HITs/interval</text>
</g>
<!-- structures&#45;&gt;HITs/interval -->
<g id="edge4" class="edge"><title>structures&#45;&gt;HITs/interval</title>
<path fill="none" stroke="black" d="M643.31,-360.411C648.667,-352.077 655.276,-341.797 661.26,-332.488"/>
<polygon fill="black" stroke="black" points="664.281,-334.261 666.745,-323.956 658.393,-330.475 664.281,-334.261"/>
</g>
<!-- HITs/truncation -->
<g id="node8" class="node"><title>HITs/truncation</title>
<ellipse fill="none" stroke="black" cx="843.645" cy="-306" rx="68.4888" ry="18"/>
<text text-anchor="middle" x="843.645" y="-302.3" font-family="Times New Roman,serif" font-size="14.00">HITs/truncation</text>
</g>
<!-- structures&#45;&gt;HITs/truncation -->
<g id="edge5" class="edge"><title>structures&#45;&gt;HITs/truncation</title>
<path fill="none" stroke="black" d="M666.546,-365.753C700.804,-354.388 754.134,-336.696 793.325,-323.694"/>
<polygon fill="black" stroke="black" points="794.575,-326.967 802.964,-320.496 792.371,-320.323 794.575,-326.967"/>
</g>
<!-- algebra/core -->
<g id="node9" class="node"><title>algebra/core</title>
<ellipse fill="none" stroke="black" cx="274.645" cy="-306" rx="55.4913" ry="18"/>
<text text-anchor="middle" x="274.645" y="-302.3" font-family="Times New Roman,serif" font-size="14.00">algebra/core</text>
</g>
<!-- structures&#45;&gt;algebra/core -->
<g id="edge6" class="edge"><title>structures&#45;&gt;algebra/core</title>
<path fill="none" stroke="black" d="M598.828,-365.674C591.874,-363.592 584.563,-361.581 577.645,-360 472.924,-336.072 443.826,-345.822 338.645,-324 334.034,-323.043 329.259,-321.957 324.491,-320.808"/>
<polygon fill="black" stroke="black" points="325.32,-317.408 314.77,-318.381 323.625,-324.199 325.32,-317.408"/>
</g>
<!-- types/product -->
<g id="node29" class="node"><title>types/product</title>
<ellipse fill="none" stroke="black" cx="512.645" cy="-234" rx="61.99" ry="18"/>
<text text-anchor="middle" x="512.645" y="-230.3" font-family="Times New Roman,serif" font-size="14.00">types/product</text>
</g>
<!-- HITs/interval&#45;&gt;types/product -->
<g id="edge39" class="edge"><title>HITs/interval&#45;&gt;types/product</title>
<path fill="none" stroke="black" d="M644.652,-291.003C619.077,-280.153 583.431,-265.03 555.626,-253.234"/>
<polygon fill="black" stroke="black" points="556.72,-249.897 546.147,-249.213 553.986,-256.341 556.72,-249.897"/>
</g>
<!-- theorems/prop -->
<g id="node36" class="node"><title>theorems/prop</title>
<ellipse fill="none" stroke="black" cx="655.645" cy="-234" rx="63.8893" ry="18"/>
<text text-anchor="middle" x="655.645" y="-230.3" font-family="Times New Roman,serif" font-size="14.00">theorems/prop</text>
</g>
<!-- HITs/interval&#45;&gt;theorems/prop -->
<g id="edge40" class="edge"><title>HITs/interval&#45;&gt;theorems/prop</title>
<path fill="none" stroke="black" d="M672.32,-288.055C669.87,-280.261 666.904,-270.822 664.156,-262.079"/>
<polygon fill="black" stroke="black" points="667.412,-260.766 661.075,-252.275 660.734,-262.865 667.412,-260.766"/>
</g>
<!-- theorems/graphs -->
<g id="node34" class="node"><title>theorems/graphs</title>
<ellipse fill="none" stroke="black" cx="1187.65" cy="-234" rx="70.6878" ry="18"/>
<text text-anchor="middle" x="1187.65" y="-230.3" font-family="Times New Roman,serif" font-size="14.00">theorems/graphs</text>
</g>
<!-- HITs/truncation&#45;&gt;theorems/graphs -->
<g id="edge45" class="edge"><title>HITs/truncation&#45;&gt;theorems/graphs</title>
<path fill="none" stroke="black" d="M896.735,-294.618C950.269,-284.094 1035.26,-267.234 1108.65,-252 1114.05,-250.877 1119.67,-249.698 1125.3,-248.505"/>
<polygon fill="black" stroke="black" points="1126.35,-251.86 1135.4,-246.355 1124.89,-245.013 1126.35,-251.86"/>
</g>
<!-- HITs/truncation&#45;&gt;theorems/prop -->
<g id="edge46" class="edge"><title>HITs/truncation&#45;&gt;theorems/prop</title>
<path fill="none" stroke="black" d="M805.601,-290.834C775.75,-279.72 734.062,-264.198 702.216,-252.34"/>
<polygon fill="black" stroke="black" points="703.265,-248.996 692.672,-248.787 700.823,-255.556 703.265,-248.996"/>
</g>
<!-- HITs/simplicial -->
<g id="node39" class="node"><title>HITs/simplicial</title>
<ellipse fill="none" stroke="black" cx="1033.65" cy="-234" rx="65.7887" ry="18"/>
<text text-anchor="middle" x="1033.65" y="-230.3" font-family="Times New Roman,serif" font-size="14.00">HITs/simplicial</text>
</g>
<!-- HITs/truncation&#45;&gt;HITs/simplicial -->
<g id="edge47" class="edge"><title>HITs/truncation&#45;&gt;HITs/simplicial</title>
<path fill="none" stroke="black" d="M881.638,-291.003C911.768,-279.902 954.037,-264.329 986.356,-252.422"/>
<polygon fill="black" stroke="black" points="987.869,-255.595 996.043,-248.854 985.449,-249.027 987.869,-255.595"/>
</g>
<!-- theorems/mere_eq_lemma -->
<g id="node40" class="node"><title>theorems/mere_eq_lemma</title>
<ellipse fill="none" stroke="black" cx="843.645" cy="-234" rx="105.881" ry="18"/>
<text text-anchor="middle" x="843.645" y="-230.3" font-family="Times New Roman,serif" font-size="14.00">theorems/mere_eq_lemma</text>
</g>
<!-- HITs/truncation&#45;&gt;theorems/mere_eq_lemma -->
<g id="edge48" class="edge"><title>HITs/truncation&#45;&gt;theorems/mere_eq_lemma</title>
<path fill="none" stroke="black" d="M843.645,-287.697C843.645,-279.983 843.645,-270.712 843.645,-262.112"/>
<polygon fill="black" stroke="black" points="847.145,-262.104 843.645,-252.104 840.145,-262.104 847.145,-262.104"/>
</g>
<!-- algebra/group -->
<g id="node15" class="node"><title>algebra/group</title>
<ellipse fill="none" stroke="black" cx="221.645" cy="-234" rx="60.3893" ry="18"/>
<text text-anchor="middle" x="221.645" y="-230.3" font-family="Times New Roman,serif" font-size="14.00">algebra/group</text>
</g>
<!-- algebra/core&#45;&gt;algebra/group -->
<g id="edge7" class="edge"><title>algebra/core&#45;&gt;algebra/group</title>
<path fill="none" stroke="black" d="M262.085,-288.411C255.71,-279.992 247.831,-269.585 240.726,-260.201"/>
<polygon fill="black" stroke="black" points="243.31,-257.816 234.484,-251.956 237.73,-262.042 243.31,-257.816"/>
</g>
<!-- HITs/circle -->
<g id="node10" class="node"><title>HITs/circle</title>
<ellipse fill="none" stroke="black" stroke-dasharray="5,2" cx="318.645" cy="-90" rx="51.9908" ry="18"/>
<text text-anchor="middle" x="318.645" y="-86.3" font-family="Times New Roman,serif" font-size="14.00">HITs/circle</text>
</g>
<!-- HITs/ntrunc -->
<g id="node12" class="node"><title>HITs/ntrunc</title>
<ellipse fill="none" stroke="black" stroke-dasharray="5,2" cx="306.645" cy="-18" rx="55.4913" ry="18"/>
<text text-anchor="middle" x="306.645" y="-14.3" font-family="Times New Roman,serif" font-size="14.00">HITs/ntrunc</text>
</g>
<!-- HITs/circle&#45;&gt;HITs/ntrunc -->
<g id="edge34" class="edge"><title>HITs/circle&#45;&gt;HITs/ntrunc</title>
<path fill="none" stroke="black" d="M315.679,-71.6966C314.357,-63.9827 312.767,-54.7125 311.293,-46.1124"/>
<polygon fill="black" stroke="black" points="314.717,-45.3692 309.578,-36.1043 307.818,-46.552 314.717,-45.3692"/>
</g>
<!-- theorems/ua -->
<g id="node13" class="node"><title>theorems/ua</title>
<ellipse fill="none" stroke="black" stroke-dasharray="5,2" cx="425.645" cy="-162" rx="54.6905" ry="18"/>
<text text-anchor="middle" x="425.645" y="-158.3" font-family="Times New Roman,serif" font-size="14.00">theorems/ua</text>
</g>
<!-- theorems/ua&#45;&gt;HITs/circle -->
<g id="edge56" class="edge"><title>theorems/ua&#45;&gt;HITs/circle</title>
<path fill="none" stroke="black" d="M402.164,-145.638C387.111,-135.791 367.371,-122.876 350.861,-112.076"/>
<polygon fill="black" stroke="black" points="352.357,-108.872 342.072,-106.326 348.524,-114.73 352.357,-108.872"/>
</g>
<!-- cubical/V -->
<g id="node14" class="node"><title>cubical/V</title>
<ellipse fill="none" stroke="black" stroke-dasharray="5,2" cx="425.645" cy="-18" rx="45.4919" ry="18"/>
<text text-anchor="middle" x="425.645" y="-14.3" font-family="Times New Roman,serif" font-size="14.00">cubical/V</text>
</g>
<!-- theorems/ua&#45;&gt;cubical/V -->
<g id="edge57" class="edge"><title>theorems/ua&#45;&gt;cubical/V</title>
<path fill="none" stroke="black" d="M425.645,-143.871C425.645,-119.67 425.645,-75.2108 425.645,-46.3932"/>
<polygon fill="black" stroke="black" points="429.145,-46.1892 425.645,-36.1893 422.145,-46.1893 429.145,-46.1892"/>
</g>
<!-- types/coproduct&#45;&gt;structures -->
<g id="edge8" class="edge"><title>types/coproduct&#45;&gt;structures</title>
<path fill="none" stroke="black" d="M632.645,-431.697C632.645,-423.983 632.645,-414.712 632.645,-406.112"/>
<polygon fill="black" stroke="black" points="636.145,-406.104 632.645,-396.104 629.145,-406.104 636.145,-406.104"/>
</g>
<!-- types/nat -->
<g id="node17" class="node"><title>types/nat</title>
<ellipse fill="none" stroke="black" cx="383.645" cy="-378" rx="43.5923" ry="18"/>
<text text-anchor="middle" x="383.645" y="-374.3" font-family="Times New Roman,serif" font-size="14.00">types/nat</text>
</g>
<!-- types/coproduct&#45;&gt;types/nat -->
<g id="edge9" class="edge"><title>types/coproduct&#45;&gt;types/nat</title>
<path fill="none" stroke="black" d="M584.272,-436.752C544.269,-426.439 486.053,-411.009 435.645,-396 432.505,-395.065 429.266,-394.073 426.013,-393.057"/>
<polygon fill="black" stroke="black" points="426.885,-389.661 416.294,-389.967 424.764,-396.332 426.885,-389.661"/>
</g>
<!-- types/dep_path&#45;&gt;types/equiv -->
<g id="edge10" class="edge"><title>types/dep_path&#45;&gt;types/equiv</title>
<path fill="none" stroke="black" d="M468.165,-577.465C486.274,-567.242 510.137,-553.771 529.6,-542.783"/>
<polygon fill="black" stroke="black" points="531.488,-545.737 538.476,-537.773 528.047,-539.641 531.488,-545.737"/>
</g>
<!-- types/heq&#45;&gt;HITs/interval -->
<g id="edge19" class="edge"><title>types/heq&#45;&gt;HITs/interval</title>
<path fill="none" stroke="black" d="M760.991,-433.269C749.884,-423.31 735.986,-409.754 725.645,-396 710.89,-376.375 697.93,-351.628 689.208,-333.214"/>
<polygon fill="black" stroke="black" points="692.305,-331.573 684.93,-323.966 685.952,-334.511 692.305,-331.573"/>
</g>
<!-- HITs/colimit -->
<g id="node23" class="node"><title>HITs/colimit</title>
<ellipse fill="none" stroke="black" cx="791.645" cy="-378" rx="56.59" ry="18"/>
<text text-anchor="middle" x="791.645" y="-374.3" font-family="Times New Roman,serif" font-size="14.00">HITs/colimit</text>
</g>
<!-- types/heq&#45;&gt;HITs/colimit -->
<g id="edge20" class="edge"><title>types/heq&#45;&gt;HITs/colimit</title>
<path fill="none" stroke="black" d="M782.612,-431.697C783.934,-423.983 785.523,-414.712 786.997,-406.112"/>
<polygon fill="black" stroke="black" points="790.473,-406.552 788.713,-396.104 783.574,-405.369 790.473,-406.552"/>
</g>
<!-- HITs/generalized -->
<g id="node24" class="node"><title>HITs/generalized</title>
<ellipse fill="none" stroke="black" cx="938.645" cy="-378" rx="72.2875" ry="18"/>
<text text-anchor="middle" x="938.645" y="-374.3" font-family="Times New Roman,serif" font-size="14.00">HITs/generalized</text>
</g>
<!-- types/heq&#45;&gt;HITs/generalized -->
<g id="edge21" class="edge"><title>types/heq&#45;&gt;HITs/generalized</title>
<path fill="none" stroke="black" d="M809.179,-435.998C833.36,-425.352 867.913,-410.14 895.242,-398.109"/>
<polygon fill="black" stroke="black" points="896.836,-401.231 904.578,-393.998 894.015,-394.824 896.836,-401.231"/>
</g>
<!-- HITs/int -->
<g id="node25" class="node"><title>HITs/int</title>
<ellipse fill="none" stroke="black" cx="1129.65" cy="-378" rx="40.8928" ry="18"/>
<text text-anchor="middle" x="1129.65" y="-374.3" font-family="Times New Roman,serif" font-size="14.00">HITs/int</text>
</g>
<!-- types/heq&#45;&gt;HITs/int -->
<g id="edge22" class="edge"><title>types/heq&#45;&gt;HITs/int</title>
<path fill="none" stroke="black" d="M813.48,-437.751C820.433,-435.663 827.739,-433.63 834.645,-432 930.222,-409.448 956.22,-414.592 1052.65,-396 1062.83,-394.037 1073.73,-391.747 1084.03,-389.495"/>
<polygon fill="black" stroke="black" points="1085.07,-392.849 1094.08,-387.271 1083.56,-386.015 1085.07,-392.849"/>
</g>
<!-- HITs/pushout -->
<g id="node26" class="node"><title>HITs/pushout</title>
<ellipse fill="none" stroke="black" cx="506.645" cy="-378" rx="61.99" ry="18"/>
<text text-anchor="middle" x="506.645" y="-374.3" font-family="Times New Roman,serif" font-size="14.00">HITs/pushout</text>
</g>
<!-- types/heq&#45;&gt;HITs/pushout -->
<g id="edge23" class="edge"><title>types/heq&#45;&gt;HITs/pushout</title>
<path fill="none" stroke="black" d="M742.258,-439.414C695.379,-427.393 614.662,-406.697 560.968,-392.929"/>
<polygon fill="black" stroke="black" points="561.827,-389.536 551.271,-390.442 560.088,-396.317 561.827,-389.536"/>
</g>
<!-- HITs/graph -->
<g id="node27" class="node"><title>HITs/graph</title>
<ellipse fill="none" stroke="black" cx="1038.65" cy="-306" rx="52.7911" ry="18"/>
<text text-anchor="middle" x="1038.65" y="-302.3" font-family="Times New Roman,serif" font-size="14.00">HITs/graph</text>
</g>
<!-- types/heq&#45;&gt;HITs/graph -->
<g id="edge24" class="edge"><title>types/heq&#45;&gt;HITs/graph</title>
<path fill="none" stroke="black" d="M813.812,-437.816C820.673,-435.747 827.86,-433.704 834.645,-432 915.888,-411.602 959.88,-454.691 1019.65,-396 1035.81,-380.121 1039.83,-354.096 1040.23,-334.279"/>
<polygon fill="black" stroke="black" points="1043.73,-333.98 1040.14,-324.012 1036.73,-334.043 1043.73,-333.98"/>
</g>
<!-- types/integer&#45;&gt;algebra/core -->
<g id="edge25" class="edge"><title>types/integer&#45;&gt;algebra/core</title>
<path fill="none" stroke="black" d="M225.812,-360.411C233.863,-351.606 243.9,-340.628 252.777,-330.919"/>
<polygon fill="black" stroke="black" points="255.422,-333.212 259.587,-323.47 250.256,-328.489 255.422,-333.212"/>
</g>
<!-- types/integer&#45;&gt;HITs/circle -->
<g id="edge26" class="edge"><title>types/integer&#45;&gt;HITs/circle</title>
<path fill="none" stroke="black" d="M163.249,-368.124C138.288,-360.781 109.786,-347.564 94.6453,-324 85.9963,-310.539 89.3237,-303.089 94.6453,-288 125.664,-200.047 223.886,-138.352 279.414,-109.495"/>
<polygon fill="black" stroke="black" points="281.278,-112.473 288.602,-104.817 278.102,-106.235 281.278,-112.473"/>
</g>
<!-- HITs/reals -->
<g id="node28" class="node"><title>HITs/reals</title>
<ellipse fill="none" stroke="black" cx="152.645" cy="-306" rx="48.9926" ry="18"/>
<text text-anchor="middle" x="152.645" y="-302.3" font-family="Times New Roman,serif" font-size="14.00">HITs/reals</text>
</g>
<!-- types/integer&#45;&gt;HITs/reals -->
<g id="edge27" class="edge"><title>types/integer&#45;&gt;HITs/reals</title>
<path fill="none" stroke="black" d="M196.9,-360.411C189.677,-351.693 180.689,-340.845 172.703,-331.208"/>
<polygon fill="black" stroke="black" points="175.367,-328.937 166.292,-323.47 169.977,-333.403 175.367,-328.937"/>
</g>
<!-- types/unit&#45;&gt;structures -->
<g id="edge32" class="edge"><title>types/unit&#45;&gt;structures</title>
<path fill="none" stroke="black" d="M524.317,-435.17C545.118,-424.384 574.206,-409.302 597.003,-397.481"/>
<polygon fill="black" stroke="black" points="598.763,-400.511 606.029,-392.801 595.54,-394.297 598.763,-400.511"/>
</g>
<!-- HITs/suspension -->
<g id="node33" class="node"><title>HITs/suspension</title>
<ellipse fill="none" stroke="black" cx="420.645" cy="-306" rx="72.5877" ry="18"/>
<text text-anchor="middle" x="420.645" y="-302.3" font-family="Times New Roman,serif" font-size="14.00">HITs/suspension</text>
</g>
<!-- types/unit&#45;&gt;HITs/suspension -->
<g id="edge33" class="edge"><title>types/unit&#45;&gt;HITs/suspension</title>
<path fill="none" stroke="black" d="M461.292,-438.642C413.374,-424.82 334.631,-401.446 330.645,-396 321.196,-383.088 322.705,-373.891 330.645,-360 339.371,-344.735 354.4,-333.43 369.704,-325.275"/>
<polygon fill="black" stroke="black" points="371.285,-328.398 378.701,-320.831 368.185,-322.121 371.285,-328.398"/>
</g>
<!-- HITs/colimit&#45;&gt;HITs/truncation -->
<g id="edge35" class="edge"><title>HITs/colimit&#45;&gt;HITs/truncation</title>
<path fill="none" stroke="black" d="M803.969,-360.411C810.223,-351.992 817.954,-341.585 824.925,-332.201"/>
<polygon fill="black" stroke="black" points="827.896,-334.071 831.049,-323.956 822.276,-329.897 827.896,-334.071"/>
</g>
<!-- HITs/generalized&#45;&gt;HITs/truncation -->
<g id="edge36" class="edge"><title>HITs/generalized&#45;&gt;HITs/truncation</title>
<path fill="none" stroke="black" d="M916.612,-360.765C903.902,-351.4 887.739,-339.49 873.857,-329.261"/>
<polygon fill="black" stroke="black" points="875.686,-326.262 865.56,-323.147 871.534,-331.897 875.686,-326.262"/>
</g>
<!-- HITs/rat -->
<g id="node35" class="node"><title>HITs/rat</title>
<ellipse fill="none" stroke="black" cx="1150.65" cy="-306" rx="41.6928" ry="18"/>
<text text-anchor="middle" x="1150.65" y="-302.3" font-family="Times New Roman,serif" font-size="14.00">HITs/rat</text>
</g>
<!-- HITs/int&#45;&gt;HITs/rat -->
<g id="edge38" class="edge"><title>HITs/int&#45;&gt;HITs/rat</title>
<path fill="none" stroke="black" d="M1134.73,-360.055C1137.07,-352.261 1139.9,-342.822 1142.52,-334.079"/>
<polygon fill="black" stroke="black" points="1145.94,-334.859 1145.46,-324.275 1139.24,-332.848 1145.94,-334.859"/>
</g>
<!-- HITs/pushout&#45;&gt;HITs/reals -->
<g id="edge41" class="edge"><title>HITs/pushout&#45;&gt;HITs/reals</title>
<path fill="none" stroke="black" d="M461.578,-365.492C453.31,-363.541 444.738,-361.624 436.645,-360 336.924,-339.982 309.87,-346.349 210.645,-324 206.727,-323.117 202.683,-322.119 198.639,-321.058"/>
<polygon fill="black" stroke="black" points="199.228,-317.591 188.659,-318.326 197.38,-324.342 199.228,-317.591"/>
</g>
<!-- HITs/pushout&#45;&gt;HITs/suspension -->
<g id="edge42" class="edge"><title>HITs/pushout&#45;&gt;HITs/suspension</title>
<path fill="none" stroke="black" d="M486.699,-360.765C475.383,-351.554 461.044,-339.882 448.619,-329.769"/>
<polygon fill="black" stroke="black" points="450.746,-326.988 440.781,-323.39 446.328,-332.417 450.746,-326.988"/>
</g>
<!-- HITs/join -->
<g id="node37" class="node"><title>HITs/join</title>
<ellipse fill="none" stroke="black" cx="556.645" cy="-306" rx="45.4919" ry="18"/>
<text text-anchor="middle" x="556.645" y="-302.3" font-family="Times New Roman,serif" font-size="14.00">HITs/join</text>
</g>
<!-- HITs/pushout&#45;&gt;HITs/join -->
<g id="edge43" class="edge"><title>HITs/pushout&#45;&gt;HITs/join</title>
<path fill="none" stroke="black" d="M518.749,-360.055C524.768,-351.629 532.16,-341.28 538.812,-331.966"/>
<polygon fill="black" stroke="black" points="541.689,-333.961 544.653,-323.789 535.993,-329.892 541.689,-333.961"/>
</g>
<!-- HITs/graph&#45;&gt;theorems/graphs -->
<g id="edge37" class="edge"><title>HITs/graph&#45;&gt;theorems/graphs</title>
<path fill="none" stroke="black" d="M1068.44,-291.003C1090.81,-280.495 1121.7,-265.98 1146.43,-254.361"/>
<polygon fill="black" stroke="black" points="1148.02,-257.483 1155.58,-250.063 1145.04,-251.148 1148.02,-257.483"/>
</g>
<!-- types/product&#45;&gt;theorems/ua -->
<g id="edge28" class="edge"><title>types/product&#45;&gt;theorems/ua</title>
<path fill="none" stroke="black" d="M492.467,-216.765C480.855,-207.422 466.095,-195.546 453.403,-185.334"/>
<polygon fill="black" stroke="black" points="455.399,-182.448 445.414,-178.906 451.011,-187.902 455.399,-182.448"/>
</g>
<!-- cubical/cubes -->
<g id="node30" class="node"><title>cubical/cubes</title>
<ellipse fill="none" stroke="black" cx="564.645" cy="-162" rx="60.3893" ry="18"/>
<text text-anchor="middle" x="564.645" y="-158.3" font-family="Times New Roman,serif" font-size="14.00">cubical/cubes</text>
</g>
<!-- types/product&#45;&gt;cubical/cubes -->
<g id="edge29" class="edge"><title>types/product&#45;&gt;cubical/cubes</title>
<path fill="none" stroke="black" d="M525.233,-216.055C531.493,-207.629 539.18,-197.28 546.099,-187.966"/>
<polygon fill="black" stroke="black" points="549.02,-189.904 552.173,-179.789 543.401,-185.729 549.02,-189.904"/>
</g>
<!-- cubical/path -->
<g id="node42" class="node"><title>cubical/path</title>
<ellipse fill="none" stroke="black" cx="638.645" cy="-90" rx="54.6905" ry="18"/>
<text text-anchor="middle" x="638.645" y="-86.3" font-family="Times New Roman,serif" font-size="14.00">cubical/path</text>
</g>
<!-- cubical/cubes&#45;&gt;cubical/path -->
<g id="edge49" class="edge"><title>cubical/cubes&#45;&gt;cubical/path</title>
<path fill="none" stroke="black" d="M582.182,-144.411C591.743,-135.367 603.728,-124.03 614.194,-114.13"/>
<polygon fill="black" stroke="black" points="616.63,-116.643 621.49,-107.228 611.82,-111.558 616.63,-116.643"/>
</g>
<!-- types/sigma -->
<g id="node31" class="node"><title>types/sigma</title>
<ellipse fill="none" stroke="black" cx="707.645" cy="-738" rx="53.8905" ry="18"/>
<text text-anchor="middle" x="707.645" y="-734.3" font-family="Times New Roman,serif" font-size="14.00">types/sigma</text>
</g>
<!-- types/swale -->
<g id="node32" class="node"><title>types/swale</title>
<ellipse fill="none" stroke="black" cx="52.6453" cy="-378" rx="52.7911" ry="18"/>
<text text-anchor="middle" x="52.6453" y="-374.3" font-family="Times New Roman,serif" font-size="14.00">types/swale</text>
</g>
<!-- types/swale&#45;&gt;algebra/group -->
<g id="edge30" class="edge"><title>types/swale&#45;&gt;algebra/group</title>
<path fill="none" stroke="black" d="M56.765,-359.71C62.2893,-339.961 73.8916,-307.829 94.6453,-288 114.155,-269.36 141.169,-256.851 165.268,-248.692"/>
<polygon fill="black" stroke="black" points="166.581,-251.947 175.036,-245.562 164.445,-245.28 166.581,-251.947"/>
</g>
<!-- types/swale&#45;&gt;HITs/reals -->
<g id="edge31" class="edge"><title>types/swale&#45;&gt;HITs/reals</title>
<path fill="none" stroke="black" d="M74.8386,-361.465C88.7877,-351.7 106.971,-338.972 122.251,-328.276"/>
<polygon fill="black" stroke="black" points="124.673,-330.853 130.858,-322.251 120.659,-325.118 124.673,-330.853"/>
</g>
<!-- HITs/suspension&#45;&gt;HITs/circle -->
<g id="edge44" class="edge"><title>HITs/suspension&#45;&gt;HITs/circle</title>
<path fill="none" stroke="black" d="M412.471,-287.849C394.671,-250.505 352.309,-161.628 331.138,-117.209"/>
<polygon fill="black" stroke="black" points="334.179,-115.457 326.717,-107.935 327.861,-118.468 334.179,-115.457"/>
</g>
<!-- HITs/moebius -->
<g id="node38" class="node"><title>HITs/moebius</title>
<ellipse fill="none" stroke="black" cx="552.645" cy="-18" rx="63.0888" ry="18"/>
<text text-anchor="middle" x="552.645" y="-14.3" font-family="Times New Roman,serif" font-size="14.00">HITs/moebius</text>
</g>
<!-- cubical/connection -->
<g id="node41" class="node"><title>cubical/connection</title>
<ellipse fill="none" stroke="black" cx="712.645" cy="-18" rx="79.0865" ry="18"/>
<text text-anchor="middle" x="712.645" y="-14.3" font-family="Times New Roman,serif" font-size="14.00">cubical/connection</text>
</g>
<!-- cubical/path&#45;&gt;cubical/V -->
<g id="edge50" class="edge"><title>cubical/path&#45;&gt;cubical/V</title>
<path fill="none" stroke="black" d="M601.056,-76.6465C564.329,-64.5766 508.441,-46.2097 469.658,-33.4643"/>
<polygon fill="black" stroke="black" points="470.29,-29.9877 459.697,-30.1906 468.104,-36.6378 470.29,-29.9877"/>
</g>
<!-- cubical/path&#45;&gt;HITs/moebius -->
<g id="edge51" class="edge"><title>cubical/path&#45;&gt;HITs/moebius</title>
<path fill="none" stroke="black" d="M619.131,-73.1159C607.748,-63.8508 593.198,-52.0077 580.613,-41.7643"/>
<polygon fill="black" stroke="black" points="582.645,-38.9053 572.68,-35.307 578.226,-44.3342 582.645,-38.9053"/>
</g>
<!-- cubical/path&#45;&gt;cubical/connection -->
<g id="edge52" class="edge"><title>cubical/path&#45;&gt;cubical/connection</title>
<path fill="none" stroke="black" d="M655.808,-72.7646C665.291,-63.7947 677.241,-52.4902 687.735,-42.5643"/>
<polygon fill="black" stroke="black" points="690.202,-45.0481 695.061,-35.6334 685.392,-39.9628 690.202,-45.0481"/>
</g>
<!-- cubical/example -->
<g id="node43" class="node"><title>cubical/example</title>
<ellipse fill="none" stroke="black" cx="878.645" cy="-18" rx="68.7879" ry="18"/>
<text text-anchor="middle" x="878.645" y="-14.3" font-family="Times New Roman,serif" font-size="14.00">cubical/example</text>
</g>
<!-- cubical/path&#45;&gt;cubical/example -->
<g id="edge53" class="edge"><title>cubical/path&#45;&gt;cubical/example</title>
<path fill="none" stroke="black" d="M678.008,-77.5193C717.941,-65.8721 780.049,-47.7573 824.584,-34.768"/>
<polygon fill="black" stroke="black" points="825.749,-38.0739 834.369,-31.9138 823.789,-31.3539 825.749,-38.0739"/>
</g>
<!-- cubical/square -->
<g id="node44" class="node"><title>cubical/square</title>
<ellipse fill="none" stroke="black" cx="1028.65" cy="-18" rx="63.0888" ry="18"/>
<text text-anchor="middle" x="1028.65" y="-14.3" font-family="Times New Roman,serif" font-size="14.00">cubical/square</text>
</g>
<!-- cubical/path&#45;&gt;cubical/square -->
<g id="edge54" class="edge"><title>cubical/path&#45;&gt;cubical/square</title>
<path fill="none" stroke="black" d="M687.588,-81.88C750.19,-72.5354 861.856,-55.0674 956.645,-36 961.918,-34.9394 967.392,-33.7709 972.861,-32.5581"/>
<polygon fill="black" stroke="black" points="973.674,-35.9628 982.654,-30.3413 972.128,-29.1356 973.674,-35.9628"/>
</g>
<!-- theorems/functions -->
<g id="node45" class="node"><title>theorems/functions</title>
<ellipse fill="none" stroke="black" cx="701.645" cy="-594" rx="79.8859" ry="18"/>
<text text-anchor="middle" x="701.645" y="-590.3" font-family="Times New Roman,serif" font-size="14.00">theorems/functions</text>
</g>
<!-- theorems/functions&#45;&gt;types/equiv -->
<g id="edge55" class="edge"><title>theorems/functions&#45;&gt;types/equiv</title>
<path fill="none" stroke="black" d="M670.9,-577.291C650.329,-566.78 623.152,-552.894 601.433,-541.797"/>
<polygon fill="black" stroke="black" points="602.992,-538.663 592.494,-537.229 599.807,-544.896 602.992,-538.663"/>
</g>
<!-- theorems/topology -->
<g id="node46" class="node"><title>theorems/topology</title>
<ellipse fill="none" stroke="black" cx="858.645" cy="-738" rx="79.0865" ry="18"/>
<text text-anchor="middle" x="858.645" y="-734.3" font-family="Times New Roman,serif" font-size="14.00">theorems/topology</text>
</g>
</g>
</svg>
