<?xml version="1.0" encoding="UTF-8" standalone="no"?>
<!DOCTYPE svg PUBLIC "-//W3C//DTD SVG 1.1//EN"
 "http://www.w3.org/Graphics/SVG/1.1/DTD/svg11.dtd">
<!-- Generated by graphviz version 2.43.0 (0)
 -->
<!-- Title: dependency_map Pages: 1 -->
<svg width="1736pt" height="908pt"
 viewBox="0.00 0.00 1736.44 908.00" xmlns="http://www.w3.org/2000/svg" xmlns:xlink="http://www.w3.org/1999/xlink">
<g id="graph0" class="graph" transform="scale(1 1) rotate(0) translate(4 904)">
<title>dependency_map</title>
<polygon fill="white" stroke="transparent" points="-4,4 -4,-904 1732.44,-904 1732.44,4 -4,4"/>
<!-- proto -->
<g id="node1" class="node">
<title>proto</title>
<ellipse fill="none" stroke="black" cx="759.59" cy="-882" rx="36" ry="18"/>
<text text-anchor="middle" x="759.59" y="-878.3" font-family="Times,serif" font-size="14.00">proto</text>
</g>
<!-- types/eq -->
<g id="node2" class="node">
<title>types/eq</title>
<ellipse fill="none" stroke="black" cx="831.59" cy="-810" rx="50.09" ry="18"/>
<text text-anchor="middle" x="831.59" y="-806.3" font-family="Times,serif" font-size="14.00">types/eq</text>
</g>
<!-- proto&#45;&gt;types/eq -->
<g id="edge1" class="edge">
<title>proto&#45;&gt;types/eq</title>
<path fill="none" stroke="black" d="M775.57,-865.46C784.97,-856.32 797.05,-844.59 807.58,-834.35"/>
<polygon fill="black" stroke="black" points="810.18,-836.7 814.91,-827.22 805.3,-831.68 810.18,-836.7"/>
</g>
<!-- support -->
<g id="node4" class="node">
<title>support</title>
<ellipse fill="none" stroke="black" cx="831.59" cy="-738" rx="46.59" ry="18"/>
<text text-anchor="middle" x="831.59" y="-734.3" font-family="Times,serif" font-size="14.00">support</text>
</g>
<!-- types/eq&#45;&gt;support -->
<g id="edge14" class="edge">
<title>types/eq&#45;&gt;support</title>
<path fill="none" stroke="black" d="M831.59,-791.7C831.59,-783.98 831.59,-774.71 831.59,-766.11"/>
<polygon fill="black" stroke="black" points="835.09,-766.1 831.59,-756.1 828.09,-766.1 835.09,-766.1"/>
</g>
<!-- meta/hott_theory -->
<g id="node3" class="node">
<title>meta/hott_theory</title>
<ellipse fill="none" stroke="black" cx="904.59" cy="-882" rx="90.98" ry="18"/>
<text text-anchor="middle" x="904.59" y="-878.3" font-family="Times,serif" font-size="14.00">meta/hott_theory</text>
</g>
<!-- meta/hott_theory&#45;&gt;types/eq -->
<g id="edge2" class="edge">
<title>meta/hott_theory&#45;&gt;types/eq</title>
<path fill="none" stroke="black" d="M886.92,-864.05C877.64,-855.16 866.13,-844.11 856.01,-834.41"/>
<polygon fill="black" stroke="black" points="858.24,-831.7 848.6,-827.31 853.4,-836.75 858.24,-831.7"/>
</g>
<!-- types/equiv -->
<g id="node5" class="node">
<title>types/equiv</title>
<ellipse fill="none" stroke="black" cx="831.59" cy="-666" rx="64.19" ry="18"/>
<text text-anchor="middle" x="831.59" y="-662.3" font-family="Times,serif" font-size="14.00">types/equiv</text>
</g>
<!-- support&#45;&gt;types/equiv -->
<g id="edge3" class="edge">
<title>support&#45;&gt;types/equiv</title>
<path fill="none" stroke="black" d="M831.59,-719.7C831.59,-711.98 831.59,-702.71 831.59,-694.11"/>
<polygon fill="black" stroke="black" points="835.09,-694.1 831.59,-684.1 828.09,-694.1 835.09,-694.1"/>
</g>
<!-- types/coproduct -->
<g id="node18" class="node">
<title>types/coproduct</title>
<ellipse fill="none" stroke="black" cx="871.59" cy="-522" rx="85.29" ry="18"/>
<text text-anchor="middle" x="871.59" y="-518.3" font-family="Times,serif" font-size="14.00">types/coproduct</text>
</g>
<!-- types/equiv&#45;&gt;types/coproduct -->
<g id="edge15" class="edge">
<title>types/equiv&#45;&gt;types/coproduct</title>
<path fill="none" stroke="black" d="M892.03,-659.82C923.95,-653.65 960.57,-640.38 980.59,-612 989.82,-598.93 989.08,-589.56 980.59,-576 970.19,-559.37 952.9,-547.82 935.13,-539.86"/>
<polygon fill="black" stroke="black" points="936.4,-536.6 925.82,-536.02 933.73,-543.07 936.4,-536.6"/>
</g>
<!-- types/heq -->
<g id="node19" class="node">
<title>types/heq</title>
<ellipse fill="none" stroke="black" cx="512.59" cy="-594" rx="55.79" ry="18"/>
<text text-anchor="middle" x="512.59" y="-590.3" font-family="Times,serif" font-size="14.00">types/heq</text>
</g>
<!-- types/equiv&#45;&gt;types/heq -->
<g id="edge16" class="edge">
<title>types/equiv&#45;&gt;types/heq</title>
<path fill="none" stroke="black" d="M782.45,-654.22C724.38,-641.47 628.02,-620.33 567.54,-607.06"/>
<polygon fill="black" stroke="black" points="567.93,-603.56 557.41,-604.83 566.43,-610.4 567.93,-603.56"/>
</g>
<!-- HITs/infinitesimal -->
<g id="node20" class="node">
<title>HITs/infinitesimal</title>
<ellipse fill="none" stroke="black" cx="748.59" cy="-594" rx="92.88" ry="18"/>
<text text-anchor="middle" x="748.59" y="-590.3" font-family="Times,serif" font-size="14.00">HITs/infinitesimal</text>
</g>
<!-- types/equiv&#45;&gt;HITs/infinitesimal -->
<g id="edge17" class="edge">
<title>types/equiv&#45;&gt;HITs/infinitesimal</title>
<path fill="none" stroke="black" d="M812.34,-648.76C801.6,-639.71 788.04,-628.27 776.19,-618.28"/>
<polygon fill="black" stroke="black" points="778.22,-615.4 768.32,-611.63 773.7,-620.76 778.22,-615.4"/>
</g>
<!-- types/lost -->
<g id="node21" class="node">
<title>types/lost</title>
<ellipse fill="none" stroke="black" cx="915.59" cy="-594" rx="55.79" ry="18"/>
<text text-anchor="middle" x="915.59" y="-590.3" font-family="Times,serif" font-size="14.00">types/lost</text>
</g>
<!-- types/equiv&#45;&gt;types/lost -->
<g id="edge18" class="edge">
<title>types/equiv&#45;&gt;types/lost</title>
<path fill="none" stroke="black" d="M851.08,-648.76C862.21,-639.49 876.34,-627.71 888.53,-617.55"/>
<polygon fill="black" stroke="black" points="890.78,-620.24 896.22,-611.15 886.29,-614.86 890.78,-620.24"/>
</g>
<!-- types/unit -->
<g id="node22" class="node">
<title>types/unit</title>
<ellipse fill="none" stroke="black" cx="620.59" cy="-450" rx="57.69" ry="18"/>
<text text-anchor="middle" x="620.59" y="-446.3" font-family="Times,serif" font-size="14.00">types/unit</text>
</g>
<!-- types/equiv&#45;&gt;types/unit -->
<g id="edge19" class="edge">
<title>types/equiv&#45;&gt;types/unit</title>
<path fill="none" stroke="black" d="M767.64,-663.38C727.08,-658.82 676.76,-645.98 646.59,-612 613.72,-574.96 613.63,-513.38 616.87,-478.08"/>
<polygon fill="black" stroke="black" points="620.36,-478.34 617.95,-468.03 613.4,-477.6 620.36,-478.34"/>
</g>
<!-- types/sigma -->
<g id="node23" class="node">
<title>types/sigma</title>
<ellipse fill="none" stroke="black" cx="1041.59" cy="-522" rx="66.89" ry="18"/>
<text text-anchor="middle" x="1041.59" y="-518.3" font-family="Times,serif" font-size="14.00">types/sigma</text>
</g>
<!-- types/equiv&#45;&gt;types/sigma -->
<g id="edge20" class="edge">
<title>types/equiv&#45;&gt;types/sigma</title>
<path fill="none" stroke="black" d="M889.82,-658.25C924.8,-651.56 968.25,-638.29 998.59,-612 1017.26,-595.83 1028.53,-569.71 1034.82,-549.94"/>
<polygon fill="black" stroke="black" points="1038.2,-550.85 1037.66,-540.27 1031.48,-548.87 1038.2,-550.85"/>
</g>
<!-- structures -->
<g id="node6" class="node">
<title>structures</title>
<ellipse fill="none" stroke="black" cx="874.59" cy="-378" rx="59.29" ry="18"/>
<text text-anchor="middle" x="874.59" y="-374.3" font-family="Times,serif" font-size="14.00">structures</text>
</g>
<!-- HITs/interval -->
<g id="node7" class="node">
<title>HITs/interval</title>
<ellipse fill="none" stroke="black" cx="1314.59" cy="-306" rx="71.49" ry="18"/>
<text text-anchor="middle" x="1314.59" y="-302.3" font-family="Times,serif" font-size="14.00">HITs/interval</text>
</g>
<!-- structures&#45;&gt;HITs/interval -->
<g id="edge4" class="edge">
<title>structures&#45;&gt;HITs/interval</title>
<path fill="none" stroke="black" d="M925.93,-368.83C1005.16,-356.23 1157.35,-332.02 1245.96,-317.92"/>
<polygon fill="black" stroke="black" points="1246.59,-321.36 1255.91,-316.34 1245.49,-314.45 1246.59,-321.36"/>
</g>
<!-- HITs/merely -->
<g id="node8" class="node">
<title>HITs/merely</title>
<ellipse fill="none" stroke="black" cx="662.59" cy="-306" rx="67.69" ry="18"/>
<text text-anchor="middle" x="662.59" y="-302.3" font-family="Times,serif" font-size="14.00">HITs/merely</text>
</g>
<!-- structures&#45;&gt;HITs/merely -->
<g id="edge5" class="edge">
<title>structures&#45;&gt;HITs/merely</title>
<path fill="none" stroke="black" d="M835.71,-364.16C801.25,-352.78 750.73,-336.1 713.14,-323.69"/>
<polygon fill="black" stroke="black" points="713.99,-320.29 703.4,-320.47 711.8,-326.93 713.99,-320.29"/>
</g>
<!-- HITs/trunc -->
<g id="node9" class="node">
<title>HITs/trunc</title>
<ellipse fill="none" stroke="black" cx="517.59" cy="-306" rx="59.59" ry="18"/>
<text text-anchor="middle" x="517.59" y="-302.3" font-family="Times,serif" font-size="14.00">HITs/trunc</text>
</g>
<!-- structures&#45;&gt;HITs/trunc -->
<g id="edge6" class="edge">
<title>structures&#45;&gt;HITs/trunc</title>
<path fill="none" stroke="black" d="M831.19,-365.57C823.04,-363.59 814.58,-361.65 806.59,-360 709.13,-339.91 683.06,-344.09 585.59,-324 580.85,-323.02 575.94,-321.94 571.03,-320.81"/>
<polygon fill="black" stroke="black" points="571.54,-317.33 561,-318.43 569.92,-324.14 571.54,-317.33"/>
</g>
<!-- types/nat -->
<g id="node10" class="node">
<title>types/nat</title>
<ellipse fill="none" stroke="black" cx="802.59" cy="-306" rx="53.89" ry="18"/>
<text text-anchor="middle" x="802.59" y="-302.3" font-family="Times,serif" font-size="14.00">types/nat</text>
</g>
<!-- structures&#45;&gt;types/nat -->
<g id="edge7" class="edge">
<title>structures&#45;&gt;types/nat</title>
<path fill="none" stroke="black" d="M857.53,-360.41C848.38,-351.52 836.96,-340.41 826.9,-330.63"/>
<polygon fill="black" stroke="black" points="829.14,-327.93 819.53,-323.47 824.26,-332.95 829.14,-327.93"/>
</g>
<!-- theorems/ua -->
<g id="node11" class="node">
<title>theorems/ua</title>
<ellipse fill="none" stroke="black" cx="1062.59" cy="-306" rx="68.79" ry="18"/>
<text text-anchor="middle" x="1062.59" y="-302.3" font-family="Times,serif" font-size="14.00">theorems/ua</text>
</g>
<!-- structures&#45;&gt;theorems/ua -->
<g id="edge8" class="edge">
<title>structures&#45;&gt;theorems/ua</title>
<path fill="none" stroke="black" d="M910.4,-363.67C940.04,-352.63 982.41,-336.86 1014.92,-324.75"/>
<polygon fill="black" stroke="black" points="1016.52,-327.89 1024.67,-321.12 1014.07,-321.33 1016.52,-327.89"/>
</g>
<!-- cubical/cubes -->
<g id="node39" class="node">
<title>cubical/cubes</title>
<ellipse fill="none" stroke="black" cx="1393.59" cy="-234" rx="73.39" ry="18"/>
<text text-anchor="middle" x="1393.59" y="-230.3" font-family="Times,serif" font-size="14.00">cubical/cubes</text>
</g>
<!-- HITs/interval&#45;&gt;cubical/cubes -->
<g id="edge41" class="edge">
<title>HITs/interval&#45;&gt;cubical/cubes</title>
<path fill="none" stroke="black" d="M1333.32,-288.41C1343.45,-279.43 1356.13,-268.19 1367.25,-258.34"/>
<polygon fill="black" stroke="black" points="1369.84,-260.72 1375.01,-251.47 1365.2,-255.48 1369.84,-260.72"/>
</g>
<!-- theorems/prop -->
<g id="node40" class="node">
<title>theorems/prop</title>
<ellipse fill="none" stroke="black" cx="957.59" cy="-234" rx="79.09" ry="18"/>
<text text-anchor="middle" x="957.59" y="-230.3" font-family="Times,serif" font-size="14.00">theorems/prop</text>
</g>
<!-- HITs/interval&#45;&gt;theorems/prop -->
<g id="edge42" class="edge">
<title>HITs/interval&#45;&gt;theorems/prop</title>
<path fill="none" stroke="black" d="M1259.98,-294.29C1197.1,-281.96 1093.72,-261.69 1025.65,-248.34"/>
<polygon fill="black" stroke="black" points="1025.94,-244.83 1015.45,-246.35 1024.59,-251.7 1025.94,-244.83"/>
</g>
<!-- theorems/fibration -->
<g id="node41" class="node">
<title>theorems/fibration</title>
<ellipse fill="none" stroke="black" cx="1631.59" cy="-162" rx="96.68" ry="18"/>
<text text-anchor="middle" x="1631.59" y="-158.3" font-family="Times,serif" font-size="14.00">theorems/fibration</text>
</g>
<!-- HITs/interval&#45;&gt;theorems/fibration -->
<g id="edge43" class="edge">
<title>HITs/interval&#45;&gt;theorems/fibration</title>
<path fill="none" stroke="black" d="M1361.32,-292.32C1393.96,-282.81 1438.22,-268.61 1475.59,-252 1519.42,-232.52 1566.9,-204.32 1597.82,-184.91"/>
<polygon fill="black" stroke="black" points="1599.89,-187.74 1606.47,-179.43 1596.15,-181.82 1599.89,-187.74"/>
</g>
<!-- HITs/merely&#45;&gt;theorems/prop -->
<g id="edge44" class="edge">
<title>HITs/merely&#45;&gt;theorems/prop</title>
<path fill="none" stroke="black" d="M711.31,-293.44C761.53,-281.52 840.03,-262.9 894.87,-249.88"/>
<polygon fill="black" stroke="black" points="895.9,-253.24 904.82,-247.52 894.28,-246.43 895.9,-253.24"/>
</g>
<!-- HITs/simplicial -->
<g id="node43" class="node">
<title>HITs/simplicial</title>
<ellipse fill="none" stroke="black" cx="617.59" cy="-234" rx="79.09" ry="18"/>
<text text-anchor="middle" x="617.59" y="-230.3" font-family="Times,serif" font-size="14.00">HITs/simplicial</text>
</g>
<!-- HITs/merely&#45;&gt;HITs/simplicial -->
<g id="edge45" class="edge">
<title>HITs/merely&#45;&gt;HITs/simplicial</title>
<path fill="none" stroke="black" d="M651.7,-288.05C646.47,-279.92 640.09,-270 634.27,-260.94"/>
<polygon fill="black" stroke="black" points="637.05,-258.79 628.7,-252.28 631.16,-262.58 637.05,-258.79"/>
</g>
<!-- theorems/functions -->
<g id="node44" class="node">
<title>theorems/functions</title>
<ellipse fill="none" stroke="black" cx="351.59" cy="-162" rx="100.98" ry="18"/>
<text text-anchor="middle" x="351.59" y="-158.3" font-family="Times,serif" font-size="14.00">theorems/functions</text>
</g>
<!-- HITs/merely&#45;&gt;theorems/functions -->
<g id="edge46" class="edge">
<title>HITs/merely&#45;&gt;theorems/functions</title>
<path fill="none" stroke="black" d="M624.98,-290.98C598.15,-280.75 561.35,-266.23 529.59,-252 481.26,-230.33 426.99,-202.7 391.21,-184.02"/>
<polygon fill="black" stroke="black" points="392.57,-180.77 382.09,-179.23 389.32,-186.98 392.57,-180.77"/>
</g>
<!-- HITs/quotient -->
<g id="node38" class="node">
<title>HITs/quotient</title>
<ellipse fill="none" stroke="black" cx="252.59" cy="-234" rx="74.19" ry="18"/>
<text text-anchor="middle" x="252.59" y="-230.3" font-family="Times,serif" font-size="14.00">HITs/quotient</text>
</g>
<!-- HITs/trunc&#45;&gt;HITs/quotient -->
<g id="edge51" class="edge">
<title>HITs/trunc&#45;&gt;HITs/quotient</title>
<path fill="none" stroke="black" d="M474.13,-293.52C429.62,-281.76 360.17,-263.42 310.9,-250.4"/>
<polygon fill="black" stroke="black" points="311.59,-246.96 301.02,-247.79 309.8,-253.73 311.59,-246.96"/>
</g>
<!-- theorems/nat -->
<g id="node28" class="node">
<title>theorems/nat</title>
<ellipse fill="none" stroke="black" cx="787.59" cy="-234" rx="72.59" ry="18"/>
<text text-anchor="middle" x="787.59" y="-230.3" font-family="Times,serif" font-size="14.00">theorems/nat</text>
</g>
<!-- types/nat&#45;&gt;theorems/nat -->
<g id="edge25" class="edge">
<title>types/nat&#45;&gt;theorems/nat</title>
<path fill="none" stroke="black" d="M798.89,-287.7C797.23,-279.98 795.25,-270.71 793.4,-262.11"/>
<polygon fill="black" stroke="black" points="796.78,-261.15 791.26,-252.1 789.93,-262.62 796.78,-261.15"/>
</g>
<!-- theorems/ua&#45;&gt;theorems/nat -->
<g id="edge66" class="edge">
<title>theorems/ua&#45;&gt;theorems/nat</title>
<path fill="none" stroke="black" d="M1015.01,-292.89C968.17,-280.96 896.54,-262.73 846.22,-249.92"/>
<polygon fill="black" stroke="black" points="847,-246.51 836.45,-247.44 845.28,-253.29 847,-246.51"/>
</g>
<!-- cubical/V -->
<g id="node49" class="node">
<title>cubical/V</title>
<ellipse fill="none" stroke="black" cx="1210.59" cy="-90" rx="52.79" ry="18"/>
<text text-anchor="middle" x="1210.59" y="-86.3" font-family="Times,serif" font-size="14.00">cubical/V</text>
</g>
<!-- theorems/ua&#45;&gt;cubical/V -->
<g id="edge67" class="edge">
<title>theorems/ua&#45;&gt;cubical/V</title>
<path fill="none" stroke="black" d="M1108.6,-292.58C1159.32,-276.15 1238.39,-241.78 1273.59,-180 1281.52,-166.1 1280.35,-158.51 1273.59,-144 1267.59,-131.09 1256.71,-120.21 1245.67,-111.72"/>
<polygon fill="black" stroke="black" points="1247.45,-108.68 1237.28,-105.71 1243.37,-114.38 1247.45,-108.68"/>
</g>
<!-- theorems/classical -->
<g id="node50" class="node">
<title>theorems/classical</title>
<ellipse fill="none" stroke="black" cx="1167.59" cy="-162" rx="96.68" ry="18"/>
<text text-anchor="middle" x="1167.59" y="-158.3" font-family="Times,serif" font-size="14.00">theorems/classical</text>
</g>
<!-- theorems/ua&#45;&gt;theorems/classical -->
<g id="edge68" class="edge">
<title>theorems/ua&#45;&gt;theorems/classical</title>
<path fill="none" stroke="black" d="M1075.05,-288.15C1093.27,-263.52 1127.32,-217.47 1148.65,-188.63"/>
<polygon fill="black" stroke="black" points="1151.69,-190.39 1154.83,-180.27 1146.07,-186.23 1151.69,-190.39"/>
</g>
<!-- algebra/eilenberg_maclane -->
<g id="node12" class="node">
<title>algebra/eilenberg_maclane</title>
<ellipse fill="none" stroke="black" cx="656.59" cy="-18" rx="135.68" ry="18"/>
<text text-anchor="middle" x="656.59" y="-14.3" font-family="Times,serif" font-size="14.00">algebra/eilenberg_maclane</text>
</g>
<!-- algebra/finite -->
<g id="node13" class="node">
<title>algebra/finite</title>
<ellipse fill="none" stroke="black" cx="225.59" cy="-18" rx="72.59" ry="18"/>
<text text-anchor="middle" x="225.59" y="-14.3" font-family="Times,serif" font-size="14.00">algebra/finite</text>
</g>
<!-- algebra/group -->
<g id="node14" class="node">
<title>algebra/group</title>
<ellipse fill="none" stroke="black" cx="351.59" cy="-90" rx="76.09" ry="18"/>
<text text-anchor="middle" x="351.59" y="-86.3" font-family="Times,serif" font-size="14.00">algebra/group</text>
</g>
<!-- algebra/group&#45;&gt;algebra/eilenberg_maclane -->
<g id="edge9" class="edge">
<title>algebra/group&#45;&gt;algebra/eilenberg_maclane</title>
<path fill="none" stroke="black" d="M404.37,-76.89C453.33,-65.65 526.7,-48.81 581.7,-36.19"/>
<polygon fill="black" stroke="black" points="582.79,-39.53 591.75,-33.88 581.22,-32.71 582.79,-39.53"/>
</g>
<!-- algebra/group&#45;&gt;algebra/finite -->
<g id="edge10" class="edge">
<title>algebra/group&#45;&gt;algebra/finite</title>
<path fill="none" stroke="black" d="M323.32,-73.29C305.4,-63.34 282.04,-50.36 262.65,-39.59"/>
<polygon fill="black" stroke="black" points="264.22,-36.45 253.78,-34.66 260.82,-42.57 264.22,-36.45"/>
</g>
<!-- algebra/homology -->
<g id="node15" class="node">
<title>algebra/homology</title>
<ellipse fill="none" stroke="black" cx="409.59" cy="-18" rx="93.68" ry="18"/>
<text text-anchor="middle" x="409.59" y="-14.3" font-family="Times,serif" font-size="14.00">algebra/homology</text>
</g>
<!-- algebra/group&#45;&gt;algebra/homology -->
<g id="edge11" class="edge">
<title>algebra/group&#45;&gt;algebra/homology</title>
<path fill="none" stroke="black" d="M365.63,-72.05C372.58,-63.67 381.11,-53.38 388.8,-44.1"/>
<polygon fill="black" stroke="black" points="391.6,-46.21 395.28,-36.28 386.2,-41.74 391.6,-46.21"/>
</g>
<!-- algebra/ring -->
<g id="node16" class="node">
<title>algebra/ring</title>
<ellipse fill="none" stroke="black" cx="67.59" cy="-18" rx="67.69" ry="18"/>
<text text-anchor="middle" x="67.59" y="-14.3" font-family="Times,serif" font-size="14.00">algebra/ring</text>
</g>
<!-- algebra/group&#45;&gt;algebra/ring -->
<g id="edge12" class="edge">
<title>algebra/group&#45;&gt;algebra/ring</title>
<path fill="none" stroke="black" d="M300.82,-76.49C251.61,-64.36 177.05,-45.98 125.54,-33.28"/>
<polygon fill="black" stroke="black" points="126.11,-29.82 115.56,-30.82 124.43,-36.61 126.11,-29.82"/>
</g>
<!-- types/category -->
<g id="node17" class="node">
<title>types/category</title>
<ellipse fill="none" stroke="black" cx="1042.59" cy="-90" rx="79.09" ry="18"/>
<text text-anchor="middle" x="1042.59" y="-86.3" font-family="Times,serif" font-size="14.00">types/category</text>
</g>
<!-- types/coproduct&#45;&gt;structures -->
<g id="edge13" class="edge">
<title>types/coproduct&#45;&gt;structures</title>
<path fill="none" stroke="black" d="M871.96,-503.87C872.47,-479.67 873.41,-435.21 874.02,-406.39"/>
<polygon fill="black" stroke="black" points="877.52,-406.26 874.23,-396.19 870.52,-406.11 877.52,-406.26"/>
</g>
<!-- HITs/graph -->
<g id="node24" class="node">
<title>HITs/graph</title>
<ellipse fill="none" stroke="black" cx="397.59" cy="-450" rx="62.29" ry="18"/>
<text text-anchor="middle" x="397.59" y="-446.3" font-family="Times,serif" font-size="14.00">HITs/graph</text>
</g>
<!-- types/heq&#45;&gt;HITs/graph -->
<g id="edge21" class="edge">
<title>types/heq&#45;&gt;HITs/graph</title>
<path fill="none" stroke="black" d="M474.53,-580.78C454.37,-572.4 430.89,-559.26 416.59,-540 403.39,-522.2 398.95,-497.19 397.64,-478.22"/>
<polygon fill="black" stroke="black" points="401.13,-477.94 397.19,-468.11 394.13,-478.25 401.13,-477.94"/>
</g>
<!-- theorems/funext -->
<g id="node25" class="node">
<title>theorems/funext</title>
<ellipse fill="none" stroke="black" cx="512.59" cy="-522" rx="87.18" ry="18"/>
<text text-anchor="middle" x="512.59" y="-518.3" font-family="Times,serif" font-size="14.00">theorems/funext</text>
</g>
<!-- types/heq&#45;&gt;theorems/funext -->
<g id="edge22" class="edge">
<title>types/heq&#45;&gt;theorems/funext</title>
<path fill="none" stroke="black" d="M512.59,-575.7C512.59,-567.98 512.59,-558.71 512.59,-550.11"/>
<polygon fill="black" stroke="black" points="516.09,-550.1 512.59,-540.1 509.09,-550.1 516.09,-550.1"/>
</g>
<!-- types/unit&#45;&gt;structures -->
<g id="edge29" class="edge">
<title>types/unit&#45;&gt;structures</title>
<path fill="none" stroke="black" d="M662.54,-437.44C706.34,-425.37 775.13,-406.41 822.42,-393.38"/>
<polygon fill="black" stroke="black" points="823.45,-396.72 832.17,-390.69 821.59,-389.98 823.45,-396.72"/>
</g>
<!-- HITs/suspension -->
<g id="node31" class="node">
<title>HITs/suspension</title>
<ellipse fill="none" stroke="black" cx="352.59" cy="-306" rx="87.18" ry="18"/>
<text text-anchor="middle" x="352.59" y="-302.3" font-family="Times,serif" font-size="14.00">HITs/suspension</text>
</g>
<!-- types/unit&#45;&gt;HITs/suspension -->
<g id="edge30" class="edge">
<title>types/unit&#45;&gt;HITs/suspension</title>
<path fill="none" stroke="black" d="M573.59,-439.45C539.94,-431.26 494.44,-417.35 458.59,-396 438.61,-384.09 438.23,-375.17 420.59,-360 408.51,-349.61 394.72,-338.7 382.74,-329.5"/>
<polygon fill="black" stroke="black" points="384.84,-326.7 374.77,-323.42 380.6,-332.27 384.84,-326.7"/>
</g>
<!-- types/sigma&#45;&gt;structures -->
<g id="edge28" class="edge">
<title>types/sigma&#45;&gt;structures</title>
<path fill="none" stroke="black" d="M1022.44,-504.71C992.61,-479.35 935.01,-430.37 901.18,-401.6"/>
<polygon fill="black" stroke="black" points="903.41,-398.91 893.53,-395.1 898.88,-404.24 903.41,-398.91"/>
</g>
<!-- HITs/colimit -->
<g id="node35" class="node">
<title>HITs/colimit</title>
<ellipse fill="none" stroke="black" cx="730.59" cy="-378" rx="66.89" ry="18"/>
<text text-anchor="middle" x="730.59" y="-374.3" font-family="Times,serif" font-size="14.00">HITs/colimit</text>
</g>
<!-- HITs/graph&#45;&gt;HITs/colimit -->
<g id="edge37" class="edge">
<title>HITs/graph&#45;&gt;HITs/colimit</title>
<path fill="none" stroke="black" d="M447.39,-438.99C499.21,-428.51 582.66,-411.46 654.59,-396 659.96,-394.85 665.54,-393.63 671.13,-392.4"/>
<polygon fill="black" stroke="black" points="672.14,-395.76 681.15,-390.18 670.63,-388.93 672.14,-395.76"/>
</g>
<!-- HITs/generalized -->
<g id="node36" class="node">
<title>HITs/generalized</title>
<ellipse fill="none" stroke="black" cx="556.59" cy="-378" rx="89.08" ry="18"/>
<text text-anchor="middle" x="556.59" y="-374.3" font-family="Times,serif" font-size="14.00">HITs/generalized</text>
</g>
<!-- HITs/graph&#45;&gt;HITs/generalized -->
<g id="edge38" class="edge">
<title>HITs/graph&#45;&gt;HITs/generalized</title>
<path fill="none" stroke="black" d="M430.54,-434.5C454.11,-424.12 486.12,-410.03 511.98,-398.64"/>
<polygon fill="black" stroke="black" points="513.46,-401.81 521.21,-394.58 510.64,-395.41 513.46,-401.81"/>
</g>
<!-- HITs/pushout -->
<g id="node37" class="node">
<title>HITs/pushout</title>
<ellipse fill="none" stroke="black" cx="338.59" cy="-378" rx="72.59" ry="18"/>
<text text-anchor="middle" x="338.59" y="-374.3" font-family="Times,serif" font-size="14.00">HITs/pushout</text>
</g>
<!-- HITs/graph&#45;&gt;HITs/pushout -->
<g id="edge39" class="edge">
<title>HITs/graph&#45;&gt;HITs/pushout</title>
<path fill="none" stroke="black" d="M383.61,-432.41C376.37,-423.82 367.39,-413.16 359.35,-403.63"/>
<polygon fill="black" stroke="black" points="362.01,-401.35 352.89,-395.96 356.65,-405.86 362.01,-401.35"/>
</g>
<!-- HITs/graph&#45;&gt;HITs/quotient -->
<g id="edge40" class="edge">
<title>HITs/graph&#45;&gt;HITs/quotient</title>
<path fill="none" stroke="black" d="M340.21,-442.65C310.14,-436.11 275.69,-422.86 256.59,-396 228.48,-356.45 236.64,-296.53 244.82,-262.04"/>
<polygon fill="black" stroke="black" points="248.25,-262.75 247.32,-252.2 241.47,-261.03 248.25,-262.75"/>
</g>
<!-- types/product -->
<g id="node30" class="node">
<title>types/product</title>
<ellipse fill="none" stroke="black" cx="771.59" cy="-450" rx="75.29" ry="18"/>
<text text-anchor="middle" x="771.59" y="-446.3" font-family="Times,serif" font-size="14.00">types/product</text>
</g>
<!-- theorems/funext&#45;&gt;types/product -->
<g id="edge59" class="edge">
<title>theorems/funext&#45;&gt;types/product</title>
<path fill="none" stroke="black" d="M563.15,-507.34C606.35,-495.66 668.51,-478.86 713.7,-466.65"/>
<polygon fill="black" stroke="black" points="714.62,-470.02 723.36,-464.04 712.79,-463.27 714.62,-470.02"/>
</g>
<!-- types/integer -->
<g id="node26" class="node">
<title>types/integer</title>
<ellipse fill="none" stroke="black" cx="581.59" cy="-162" rx="72.59" ry="18"/>
<text text-anchor="middle" x="581.59" y="-158.3" font-family="Times,serif" font-size="14.00">types/integer</text>
</g>
<!-- types/integer&#45;&gt;algebra/group -->
<g id="edge23" class="edge">
<title>types/integer&#45;&gt;algebra/group</title>
<path fill="none" stroke="black" d="M537.52,-147.59C500.04,-136.18 446.08,-119.76 405.93,-107.54"/>
<polygon fill="black" stroke="black" points="406.89,-104.17 396.3,-104.61 404.85,-110.87 406.89,-104.17"/>
</g>
<!-- HITs/circle -->
<g id="node27" class="node">
<title>HITs/circle</title>
<ellipse fill="none" stroke="black" cx="884.59" cy="-90" rx="60.39" ry="18"/>
<text text-anchor="middle" x="884.59" y="-86.3" font-family="Times,serif" font-size="14.00">HITs/circle</text>
</g>
<!-- types/integer&#45;&gt;HITs/circle -->
<g id="edge24" class="edge">
<title>types/integer&#45;&gt;HITs/circle</title>
<path fill="none" stroke="black" d="M632.99,-149.13C687.31,-136.58 772.69,-116.85 828.66,-103.92"/>
<polygon fill="black" stroke="black" points="829.46,-107.33 838.41,-101.67 827.88,-100.51 829.46,-107.33"/>
</g>
<!-- theorems/hopf -->
<g id="node32" class="node">
<title>theorems/hopf</title>
<ellipse fill="none" stroke="black" cx="1534.59" cy="-18" rx="77.99" ry="18"/>
<text text-anchor="middle" x="1534.59" y="-14.3" font-family="Times,serif" font-size="14.00">theorems/hopf</text>
</g>
<!-- HITs/circle&#45;&gt;theorems/hopf -->
<g id="edge31" class="edge">
<title>HITs/circle&#45;&gt;theorems/hopf</title>
<path fill="none" stroke="black" d="M928.08,-77.39C936.81,-75.36 945.96,-73.44 954.59,-72 1047.89,-56.49 1314.54,-35.35 1451.38,-25.09"/>
<polygon fill="black" stroke="black" points="1451.69,-28.57 1461.4,-24.34 1451.17,-21.59 1451.69,-28.57"/>
</g>
<!-- HITs/moebius -->
<g id="node33" class="node">
<title>HITs/moebius</title>
<ellipse fill="none" stroke="black" cx="884.59" cy="-18" rx="74.19" ry="18"/>
<text text-anchor="middle" x="884.59" y="-14.3" font-family="Times,serif" font-size="14.00">HITs/moebius</text>
</g>
<!-- HITs/circle&#45;&gt;HITs/moebius -->
<g id="edge32" class="edge">
<title>HITs/circle&#45;&gt;HITs/moebius</title>
<path fill="none" stroke="black" d="M884.59,-71.7C884.59,-63.98 884.59,-54.71 884.59,-46.11"/>
<polygon fill="black" stroke="black" points="888.09,-46.1 884.59,-36.1 881.09,-46.1 888.09,-46.1"/>
</g>
<!-- HITs/reals -->
<g id="node34" class="node">
<title>HITs/reals</title>
<ellipse fill="none" stroke="black" cx="1034.59" cy="-18" rx="57.69" ry="18"/>
<text text-anchor="middle" x="1034.59" y="-14.3" font-family="Times,serif" font-size="14.00">HITs/reals</text>
</g>
<!-- HITs/circle&#45;&gt;HITs/reals -->
<g id="edge33" class="edge">
<title>HITs/circle&#45;&gt;HITs/reals</title>
<path fill="none" stroke="black" d="M915.67,-74.5C938.58,-63.81 969.92,-49.18 994.68,-37.63"/>
<polygon fill="black" stroke="black" points="996.23,-40.77 1003.81,-33.37 993.27,-34.42 996.23,-40.77"/>
</g>
<!-- theorems/nat&#45;&gt;types/integer -->
<g id="edge60" class="edge">
<title>theorems/nat&#45;&gt;types/integer</title>
<path fill="none" stroke="black" d="M746.4,-219C713.56,-207.84 667.42,-192.16 632.31,-180.23"/>
<polygon fill="black" stroke="black" points="633.31,-176.88 622.71,-176.97 631.06,-183.5 633.31,-176.88"/>
</g>
<!-- HITs/int -->
<g id="node51" class="node">
<title>HITs/int</title>
<ellipse fill="none" stroke="black" cx="720.59" cy="-162" rx="48.19" ry="18"/>
<text text-anchor="middle" x="720.59" y="-158.3" font-family="Times,serif" font-size="14.00">HITs/int</text>
</g>
<!-- theorems/nat&#45;&gt;HITs/int -->
<g id="edge61" class="edge">
<title>theorems/nat&#45;&gt;HITs/int</title>
<path fill="none" stroke="black" d="M771.72,-216.41C763.29,-207.61 752.78,-196.63 743.49,-186.92"/>
<polygon fill="black" stroke="black" points="745.8,-184.27 736.36,-179.47 740.74,-189.11 745.8,-184.27"/>
</g>
<!-- types/precategory -->
<g id="node29" class="node">
<title>types/precategory</title>
<ellipse fill="none" stroke="black" cx="957.59" cy="-162" rx="94.78" ry="18"/>
<text text-anchor="middle" x="957.59" y="-158.3" font-family="Times,serif" font-size="14.00">types/precategory</text>
</g>
<!-- types/precategory&#45;&gt;types/category -->
<g id="edge26" class="edge">
<title>types/precategory&#45;&gt;types/category</title>
<path fill="none" stroke="black" d="M978.17,-144.05C989.11,-135.05 1002.71,-123.84 1014.6,-114.05"/>
<polygon fill="black" stroke="black" points="1017.01,-116.61 1022.5,-107.55 1012.56,-111.2 1017.01,-116.61"/>
</g>
<!-- types/product&#45;&gt;structures -->
<g id="edge27" class="edge">
<title>types/product&#45;&gt;structures</title>
<path fill="none" stroke="black" d="M795.48,-432.76C809.59,-423.18 827.63,-410.92 842.91,-400.53"/>
<polygon fill="black" stroke="black" points="845.24,-403.18 851.54,-394.67 841.3,-397.39 845.24,-403.18"/>
</g>
<!-- HITs/suspension&#45;&gt;HITs/circle -->
<g id="edge49" class="edge">
<title>HITs/suspension&#45;&gt;HITs/circle</title>
<path fill="none" stroke="black" d="M366.95,-288.01C400.53,-248.46 482.63,-152.91 499.59,-144 553.04,-115.91 719.94,-101.19 815.53,-94.88"/>
<polygon fill="black" stroke="black" points="815.93,-98.36 825.68,-94.22 815.48,-91.37 815.93,-98.36"/>
</g>
<!-- HITs/join -->
<g id="node42" class="node">
<title>HITs/join</title>
<ellipse fill="none" stroke="black" cx="108.59" cy="-234" rx="51.99" ry="18"/>
<text text-anchor="middle" x="108.59" y="-230.3" font-family="Times,serif" font-size="14.00">HITs/join</text>
</g>
<!-- HITs/suspension&#45;&gt;HITs/join -->
<g id="edge50" class="edge">
<title>HITs/suspension&#45;&gt;HITs/join</title>
<path fill="none" stroke="black" d="M303.8,-291C261.19,-278.78 199.66,-261.12 157.12,-248.92"/>
<polygon fill="black" stroke="black" points="157.85,-245.49 147.27,-246.1 155.92,-252.22 157.85,-245.49"/>
</g>
<!-- HITs/colimit&#45;&gt;HITs/merely -->
<g id="edge34" class="edge">
<title>HITs/colimit&#45;&gt;HITs/merely</title>
<path fill="none" stroke="black" d="M714.48,-360.41C706.05,-351.73 695.57,-340.95 686.24,-331.34"/>
<polygon fill="black" stroke="black" points="688.54,-328.69 679.07,-323.96 683.52,-333.57 688.54,-328.69"/>
</g>
<!-- HITs/colimit&#45;&gt;types/nat -->
<g id="edge35" class="edge">
<title>HITs/colimit&#45;&gt;types/nat</title>
<path fill="none" stroke="black" d="M747.66,-360.41C756.8,-351.52 768.23,-340.41 778.29,-330.63"/>
<polygon fill="black" stroke="black" points="780.92,-332.95 785.65,-323.47 776.04,-327.93 780.92,-332.95"/>
</g>
<!-- HITs/generalized&#45;&gt;HITs/merely -->
<g id="edge36" class="edge">
<title>HITs/generalized&#45;&gt;HITs/merely</title>
<path fill="none" stroke="black" d="M581.45,-360.59C595.9,-351.04 614.3,-338.9 629.91,-328.58"/>
<polygon fill="black" stroke="black" points="631.85,-331.5 638.26,-323.07 627.99,-325.66 631.85,-331.5"/>
</g>
<!-- HITs/pushout&#45;&gt;HITs/suspension -->
<g id="edge47" class="edge">
<title>HITs/pushout&#45;&gt;HITs/suspension</title>
<path fill="none" stroke="black" d="M342.05,-359.7C343.6,-351.98 345.45,-342.71 347.17,-334.11"/>
<polygon fill="black" stroke="black" points="350.64,-334.6 349.17,-324.1 343.78,-333.22 350.64,-334.6"/>
</g>
<!-- HITs/quotient&#45;&gt;algebra/group -->
<g id="edge48" class="edge">
<title>HITs/quotient&#45;&gt;algebra/group</title>
<path fill="none" stroke="black" d="M244.37,-215.85C236.55,-196.81 227.85,-165.88 241.59,-144 252.54,-126.57 271.01,-114.74 289.72,-106.77"/>
<polygon fill="black" stroke="black" points="291.16,-109.96 299.19,-103.05 288.6,-103.44 291.16,-109.96"/>
</g>
<!-- cubical/path -->
<g id="node46" class="node">
<title>cubical/path</title>
<ellipse fill="none" stroke="black" cx="1391.59" cy="-162" rx="67.69" ry="18"/>
<text text-anchor="middle" x="1391.59" y="-158.3" font-family="Times,serif" font-size="14.00">cubical/path</text>
</g>
<!-- cubical/cubes&#45;&gt;cubical/path -->
<g id="edge52" class="edge">
<title>cubical/cubes&#45;&gt;cubical/path</title>
<path fill="none" stroke="black" d="M1393.1,-215.7C1392.88,-207.98 1392.61,-198.71 1392.37,-190.11"/>
<polygon fill="black" stroke="black" points="1395.87,-190 1392.08,-180.1 1388.87,-190.2 1395.87,-190"/>
</g>
<!-- theorems/prop&#45;&gt;algebra/eilenberg_maclane -->
<g id="edge62" class="edge">
<title>theorems/prop&#45;&gt;algebra/eilenberg_maclane</title>
<path fill="none" stroke="black" d="M919.36,-218.12C896.81,-208.61 868.17,-195.22 844.59,-180 780.49,-138.61 714.86,-77.18 680.67,-43.42"/>
<polygon fill="black" stroke="black" points="683.02,-40.82 673.46,-36.26 678.09,-45.79 683.02,-40.82"/>
</g>
<!-- theorems/prop&#45;&gt;HITs/circle -->
<g id="edge63" class="edge">
<title>theorems/prop&#45;&gt;HITs/circle</title>
<path fill="none" stroke="black" d="M907.42,-220.03C887.03,-212.03 865.51,-199.44 853.59,-180 841.34,-160.01 852.52,-134.51 864.74,-115.93"/>
<polygon fill="black" stroke="black" points="867.65,-117.87 870.53,-107.68 861.92,-113.85 867.65,-117.87"/>
</g>
<!-- theorems/prop&#45;&gt;types/precategory -->
<g id="edge64" class="edge">
<title>theorems/prop&#45;&gt;types/precategory</title>
<path fill="none" stroke="black" d="M957.59,-215.7C957.59,-207.98 957.59,-198.71 957.59,-190.11"/>
<polygon fill="black" stroke="black" points="961.09,-190.1 957.59,-180.1 954.09,-190.1 961.09,-190.1"/>
</g>
<!-- theorems/prop&#45;&gt;theorems/classical -->
<g id="edge65" class="edge">
<title>theorems/prop&#45;&gt;theorems/classical</title>
<path fill="none" stroke="black" d="M1000.34,-218.75C1032.9,-207.9 1077.95,-192.88 1113.1,-181.17"/>
<polygon fill="black" stroke="black" points="1114.35,-184.44 1122.73,-177.96 1112.13,-177.8 1114.35,-184.44"/>
</g>
<!-- theorems/fibration&#45;&gt;theorems/hopf -->
<g id="edge57" class="edge">
<title>theorems/fibration&#45;&gt;theorems/hopf</title>
<path fill="none" stroke="black" d="M1644.42,-144.01C1656.99,-125.12 1672.28,-94.32 1657.59,-72 1645.18,-53.13 1624.48,-40.95 1603.57,-33.1"/>
<polygon fill="black" stroke="black" points="1604.57,-29.75 1593.98,-29.79 1602.29,-36.36 1604.57,-29.75"/>
</g>
<!-- theorems/functions&#45;&gt;algebra/group -->
<g id="edge58" class="edge">
<title>theorems/functions&#45;&gt;algebra/group</title>
<path fill="none" stroke="black" d="M351.59,-143.7C351.59,-135.98 351.59,-126.71 351.59,-118.11"/>
<polygon fill="black" stroke="black" points="355.09,-118.1 351.59,-108.1 348.09,-118.1 355.09,-118.1"/>
</g>
<!-- cubical/connection -->
<g id="node45" class="node">
<title>cubical/connection</title>
<ellipse fill="none" stroke="black" cx="1377.59" cy="-90" rx="96.68" ry="18"/>
<text text-anchor="middle" x="1377.59" y="-86.3" font-family="Times,serif" font-size="14.00">cubical/connection</text>
</g>
<!-- cubical/path&#45;&gt;cubical/connection -->
<g id="edge53" class="edge">
<title>cubical/path&#45;&gt;cubical/connection</title>
<path fill="none" stroke="black" d="M1388.13,-143.7C1386.59,-135.98 1384.74,-126.71 1383.02,-118.11"/>
<polygon fill="black" stroke="black" points="1386.41,-117.22 1381.01,-108.1 1379.54,-118.6 1386.41,-117.22"/>
</g>
<!-- cubical/square -->
<g id="node48" class="node">
<title>cubical/square</title>
<ellipse fill="none" stroke="black" cx="1570.59" cy="-90" rx="77.99" ry="18"/>
<text text-anchor="middle" x="1570.59" y="-86.3" font-family="Times,serif" font-size="14.00">cubical/square</text>
</g>
<!-- cubical/path&#45;&gt;cubical/square -->
<g id="edge54" class="edge">
<title>cubical/path&#45;&gt;cubical/square</title>
<path fill="none" stroke="black" d="M1428.25,-146.67C1455.75,-135.91 1493.63,-121.1 1523.4,-109.46"/>
<polygon fill="black" stroke="black" points="1524.72,-112.7 1532.75,-105.8 1522.17,-106.18 1524.72,-112.7"/>
</g>
<!-- cubical/path&#45;&gt;cubical/V -->
<g id="edge55" class="edge">
<title>cubical/path&#45;&gt;cubical/V</title>
<path fill="none" stroke="black" d="M1354.97,-146.83C1325.7,-135.52 1284.61,-119.63 1253.75,-107.69"/>
<polygon fill="black" stroke="black" points="1254.7,-104.31 1244.12,-103.96 1252.18,-110.84 1254.7,-104.31"/>
</g>
<!-- cubical/example -->
<g id="node47" class="node">
<title>cubical/example</title>
<ellipse fill="none" stroke="black" cx="1210.59" cy="-18" rx="85.29" ry="18"/>
<text text-anchor="middle" x="1210.59" y="-14.3" font-family="Times,serif" font-size="14.00">cubical/example</text>
</g>
<!-- cubical/V&#45;&gt;cubical/example -->
<g id="edge56" class="edge">
<title>cubical/V&#45;&gt;cubical/example</title>
<path fill="none" stroke="black" d="M1210.59,-71.7C1210.59,-63.98 1210.59,-54.71 1210.59,-46.11"/>
<polygon fill="black" stroke="black" points="1214.09,-46.1 1210.59,-36.1 1207.09,-46.1 1214.09,-46.1"/>
</g>
</g>
</svg>
