<?xml version="1.0" encoding="UTF-8" standalone="no"?>
<!DOCTYPE svg PUBLIC "-//W3C//DTD SVG 1.1//EN"
 "http://www.w3.org/Graphics/SVG/1.1/DTD/svg11.dtd">
<!-- Generated by graphviz version 2.38.0 (20140413.2041)
 -->
<!-- Title: dependency_map Pages: 1 -->
<svg width="1624pt" height="836pt"
 viewBox="0.00 0.00 1624.02 836.00" xmlns="http://www.w3.org/2000/svg" xmlns:xlink="http://www.w3.org/1999/xlink">
<g id="graph0" class="graph" transform="scale(1 1) rotate(0) translate(4 832)">
<title>dependency_map</title>
<polygon fill="white" stroke="none" points="-4,4 -4,-832 1620.02,-832 1620.02,4 -4,4"/>
<!-- proto -->
<g id="node1" class="node"><title>proto</title>
<ellipse fill="none" stroke="black" cx="664.644" cy="-810" rx="30.5947" ry="18"/>
<text text-anchor="middle" x="664.644" y="-806.3" font-family="Times New Roman,serif" font-size="14.00">proto</text>
</g>
<!-- types/eq -->
<g id="node2" class="node"><title>types/eq</title>
<ellipse fill="none" stroke="black" cx="724.644" cy="-738" rx="41.6928" ry="18"/>
<text text-anchor="middle" x="724.644" y="-734.3" font-family="Times New Roman,serif" font-size="14.00">types/eq</text>
</g>
<!-- proto&#45;&gt;types/eq -->
<g id="edge1" class="edge"><title>proto&#45;&gt;types/eq</title>
<path fill="none" stroke="black" d="M677.96,-793.465C685.588,-784.566 695.326,-773.205 703.932,-763.164"/>
<polygon fill="black" stroke="black" points="706.679,-765.338 710.529,-755.467 701.364,-760.782 706.679,-765.338"/>
</g>
<!-- support -->
<g id="node4" class="node"><title>support</title>
<ellipse fill="none" stroke="black" cx="724.644" cy="-666" rx="38.9931" ry="18"/>
<text text-anchor="middle" x="724.644" y="-662.3" font-family="Times New Roman,serif" font-size="14.00">support</text>
</g>
<!-- types/eq&#45;&gt;support -->
<g id="edge12" class="edge"><title>types/eq&#45;&gt;support</title>
<path fill="none" stroke="black" d="M724.644,-719.697C724.644,-711.983 724.644,-702.712 724.644,-694.112"/>
<polygon fill="black" stroke="black" points="728.144,-694.104 724.644,-684.104 721.144,-694.104 728.144,-694.104"/>
</g>
<!-- meta/hott_theory -->
<g id="node3" class="node"><title>meta/hott_theory</title>
<ellipse fill="none" stroke="black" cx="785.644" cy="-810" rx="72.2875" ry="18"/>
<text text-anchor="middle" x="785.644" y="-806.3" font-family="Times New Roman,serif" font-size="14.00">meta/hott_theory</text>
</g>
<!-- meta/hott_theory&#45;&gt;types/eq -->
<g id="edge2" class="edge"><title>meta/hott_theory&#45;&gt;types/eq</title>
<path fill="none" stroke="black" d="M770.878,-792.055C763.275,-783.33 753.876,-772.544 745.542,-762.981"/>
<polygon fill="black" stroke="black" points="748.063,-760.547 738.855,-755.307 742.786,-765.146 748.063,-760.547"/>
</g>
<!-- types/equiv -->
<g id="node5" class="node"><title>types/equiv</title>
<ellipse fill="none" stroke="black" cx="724.644" cy="-594" rx="51.9908" ry="18"/>
<text text-anchor="middle" x="724.644" y="-590.3" font-family="Times New Roman,serif" font-size="14.00">types/equiv</text>
</g>
<!-- support&#45;&gt;types/equiv -->
<g id="edge3" class="edge"><title>support&#45;&gt;types/equiv</title>
<path fill="none" stroke="black" d="M724.644,-647.697C724.644,-639.983 724.644,-630.712 724.644,-622.112"/>
<polygon fill="black" stroke="black" points="728.144,-622.104 724.644,-612.104 721.144,-622.104 728.144,-622.104"/>
</g>
<!-- types/coproduct -->
<g id="node14" class="node"><title>types/coproduct</title>
<ellipse fill="none" stroke="black" cx="375.644" cy="-450" rx="70.6878" ry="18"/>
<text text-anchor="middle" x="375.644" y="-446.3" font-family="Times New Roman,serif" font-size="14.00">types/coproduct</text>
</g>
<!-- types/equiv&#45;&gt;types/coproduct -->
<g id="edge13" class="edge"><title>types/equiv&#45;&gt;types/coproduct</title>
<path fill="none" stroke="black" d="M672.868,-591.576C617.472,-588.072 528.553,-576.613 461.644,-540 433.441,-524.567 408.828,-496.771 393.242,-476.336"/>
<polygon fill="black" stroke="black" points="395.896,-474.039 387.131,-468.086 390.271,-478.205 395.896,-474.039"/>
</g>
<!-- types/heq -->
<g id="node17" class="node"><title>types/heq</title>
<ellipse fill="none" stroke="black" cx="516.644" cy="-522" rx="46.2923" ry="18"/>
<text text-anchor="middle" x="516.644" y="-518.3" font-family="Times New Roman,serif" font-size="14.00">types/heq</text>
</g>
<!-- types/equiv&#45;&gt;types/heq -->
<g id="edge14" class="edge"><title>types/equiv&#45;&gt;types/heq</title>
<path fill="none" stroke="black" d="M688.413,-580.807C652.727,-568.797 598.185,-550.441 560.166,-537.647"/>
<polygon fill="black" stroke="black" points="560.99,-534.231 550.395,-534.359 558.757,-540.865 560.99,-534.231"/>
</g>
<!-- HITs/infinitesimal -->
<g id="node18" class="node"><title>HITs/infinitesimal</title>
<ellipse fill="none" stroke="black" cx="655.644" cy="-522" rx="74.9875" ry="18"/>
<text text-anchor="middle" x="655.644" y="-518.3" font-family="Times New Roman,serif" font-size="14.00">HITs/infinitesimal</text>
</g>
<!-- types/equiv&#45;&gt;HITs/infinitesimal -->
<g id="edge15" class="edge"><title>types/equiv&#45;&gt;HITs/infinitesimal</title>
<path fill="none" stroke="black" d="M708.641,-576.765C699.885,-567.882 688.872,-556.709 679.157,-546.854"/>
<polygon fill="black" stroke="black" points="681.553,-544.298 672.04,-539.633 676.567,-549.212 681.553,-544.298"/>
</g>
<!-- types/lost -->
<g id="node19" class="node"><title>types/lost</title>
<ellipse fill="none" stroke="black" cx="794.644" cy="-522" rx="46.2923" ry="18"/>
<text text-anchor="middle" x="794.644" y="-518.3" font-family="Times New Roman,serif" font-size="14.00">types/lost</text>
</g>
<!-- types/equiv&#45;&gt;types/lost -->
<g id="edge16" class="edge"><title>types/equiv&#45;&gt;types/lost</title>
<path fill="none" stroke="black" d="M740.88,-576.765C749.891,-567.753 761.259,-556.385 771.218,-546.426"/>
<polygon fill="black" stroke="black" points="773.901,-548.693 778.497,-539.147 768.951,-543.744 773.901,-548.693"/>
</g>
<!-- types/unit -->
<g id="node20" class="node"><title>types/unit</title>
<ellipse fill="none" stroke="black" cx="789.644" cy="-450" rx="46.2923" ry="18"/>
<text text-anchor="middle" x="789.644" y="-446.3" font-family="Times New Roman,serif" font-size="14.00">types/unit</text>
</g>
<!-- types/equiv&#45;&gt;types/unit -->
<g id="edge17" class="edge"><title>types/equiv&#45;&gt;types/unit</title>
<path fill="none" stroke="black" d="M771.497,-586.154C799.273,-579.423 832.336,-566.139 849.644,-540 858.478,-526.66 856.221,-518.586 849.644,-504 843.817,-491.077 833.108,-480.038 822.332,-471.433"/>
<polygon fill="black" stroke="black" points="824.268,-468.51 814.159,-465.337 820.082,-474.121 824.268,-468.51"/>
</g>
<!-- types/sigma -->
<g id="node21" class="node"><title>types/sigma</title>
<ellipse fill="none" stroke="black" cx="1036.64" cy="-306" rx="53.8905" ry="18"/>
<text text-anchor="middle" x="1036.64" y="-302.3" font-family="Times New Roman,serif" font-size="14.00">types/sigma</text>
</g>
<!-- types/equiv&#45;&gt;types/sigma -->
<g id="edge18" class="edge"><title>types/equiv&#45;&gt;types/sigma</title>
<path fill="none" stroke="black" d="M767.93,-583.843C797.858,-575.926 837.396,-562.182 866.644,-540 942.976,-482.11 1000.16,-380.613 1024.19,-333.019"/>
<polygon fill="black" stroke="black" points="1027.36,-334.495 1028.68,-323.982 1021.1,-331.381 1027.36,-334.495"/>
</g>
<!-- structures -->
<g id="node6" class="node"><title>structures</title>
<ellipse fill="none" stroke="black" cx="787.644" cy="-378" rx="46.2923" ry="18"/>
<text text-anchor="middle" x="787.644" y="-374.3" font-family="Times New Roman,serif" font-size="14.00">structures</text>
</g>
<!-- theorems/ua -->
<g id="node7" class="node"><title>theorems/ua</title>
<ellipse fill="none" stroke="black" cx="895.644" cy="-234" rx="54.6905" ry="18"/>
<text text-anchor="middle" x="895.644" y="-230.3" font-family="Times New Roman,serif" font-size="14.00">theorems/ua</text>
</g>
<!-- structures&#45;&gt;theorems/ua -->
<g id="edge4" class="edge"><title>structures&#45;&gt;theorems/ua</title>
<path fill="none" stroke="black" d="M793.554,-360.056C800.664,-341.202 813.895,-310.442 831.644,-288 840.934,-276.254 853.212,-265.319 864.529,-256.47"/>
<polygon fill="black" stroke="black" points="866.676,-259.234 872.542,-250.412 862.455,-253.65 866.676,-259.234"/>
</g>
<!-- HITs/interval -->
<g id="node8" class="node"><title>HITs/interval</title>
<ellipse fill="none" stroke="black" cx="1166.64" cy="-306" rx="57.6901" ry="18"/>
<text text-anchor="middle" x="1166.64" y="-302.3" font-family="Times New Roman,serif" font-size="14.00">HITs/interval</text>
</g>
<!-- structures&#45;&gt;HITs/interval -->
<g id="edge5" class="edge"><title>structures&#45;&gt;HITs/interval</title>
<path fill="none" stroke="black" d="M830.239,-370.872C890.498,-361.952 1003.96,-344.232 1099.64,-324 1104.38,-322.998 1109.3,-321.889 1114.21,-320.731"/>
<polygon fill="black" stroke="black" points="1115.33,-324.06 1124.23,-318.308 1113.69,-317.256 1115.33,-324.06"/>
</g>
<!-- HITs/merely -->
<g id="node9" class="node"><title>HITs/merely</title>
<ellipse fill="none" stroke="black" cx="623.644" cy="-306" rx="55.7903" ry="18"/>
<text text-anchor="middle" x="623.644" y="-302.3" font-family="Times New Roman,serif" font-size="14.00">HITs/merely</text>
</g>
<!-- structures&#45;&gt;HITs/merely -->
<g id="edge6" class="edge"><title>structures&#45;&gt;HITs/merely</title>
<path fill="none" stroke="black" d="M757.564,-364.161C731.726,-353.133 694.205,-337.117 665.448,-324.843"/>
<polygon fill="black" stroke="black" points="666.632,-321.543 656.061,-320.836 663.884,-327.981 666.632,-321.543"/>
</g>
<!-- HITs/trunc -->
<g id="node10" class="node"><title>HITs/trunc</title>
<ellipse fill="none" stroke="black" cx="498.644" cy="-306" rx="50.8918" ry="18"/>
<text text-anchor="middle" x="498.644" y="-302.3" font-family="Times New Roman,serif" font-size="14.00">HITs/trunc</text>
</g>
<!-- structures&#45;&gt;HITs/trunc -->
<g id="edge7" class="edge"><title>structures&#45;&gt;HITs/trunc</title>
<path fill="none" stroke="black" d="M753.462,-365.88C746.602,-363.805 739.419,-361.744 732.644,-360 656.165,-340.317 635.351,-342.776 558.644,-324 554.563,-323.001 550.339,-321.914 546.111,-320.789"/>
<polygon fill="black" stroke="black" points="546.87,-317.368 536.302,-318.118 545.031,-324.122 546.87,-317.368"/>
</g>
<!-- types/product -->
<g id="node11" class="node"><title>types/product</title>
<ellipse fill="none" stroke="black" cx="902.644" cy="-306" rx="61.99" ry="18"/>
<text text-anchor="middle" x="902.644" y="-302.3" font-family="Times New Roman,serif" font-size="14.00">types/product</text>
</g>
<!-- structures&#45;&gt;types/product -->
<g id="edge8" class="edge"><title>structures&#45;&gt;types/product</title>
<path fill="none" stroke="black" d="M811.472,-362.496C827.981,-352.447 850.208,-338.918 868.583,-327.733"/>
<polygon fill="black" stroke="black" points="870.529,-330.646 877.251,-322.457 866.889,-324.666 870.529,-330.646"/>
</g>
<!-- types/nat -->
<g id="node12" class="node"><title>types/nat</title>
<ellipse fill="none" stroke="black" cx="740.644" cy="-306" rx="43.5923" ry="18"/>
<text text-anchor="middle" x="740.644" y="-302.3" font-family="Times New Roman,serif" font-size="14.00">types/nat</text>
</g>
<!-- structures&#45;&gt;types/nat -->
<g id="edge9" class="edge"><title>structures&#45;&gt;types/nat</title>
<path fill="none" stroke="black" d="M776.506,-360.411C770.77,-351.868 763.66,-341.278 757.287,-331.787"/>
<polygon fill="black" stroke="black" points="760.183,-329.821 751.703,-323.47 754.371,-333.723 760.183,-329.821"/>
</g>
<!-- theorems/nat -->
<g id="node26" class="node"><title>theorems/nat</title>
<ellipse fill="none" stroke="black" cx="827.644" cy="-162" rx="57.3905" ry="18"/>
<text text-anchor="middle" x="827.644" y="-158.3" font-family="Times New Roman,serif" font-size="14.00">theorems/nat</text>
</g>
<!-- theorems/ua&#45;&gt;theorems/nat -->
<g id="edge66" class="edge"><title>theorems/ua&#45;&gt;theorems/nat</title>
<path fill="none" stroke="black" d="M879.873,-216.765C871.244,-207.882 860.391,-196.709 850.816,-186.854"/>
<polygon fill="black" stroke="black" points="853.281,-184.367 843.802,-179.633 848.26,-189.245 853.281,-184.367"/>
</g>
<!-- theorems/group -->
<g id="node42" class="node"><title>theorems/group</title>
<ellipse fill="none" stroke="black" cx="684.644" cy="-162" rx="67.6881" ry="18"/>
<text text-anchor="middle" x="684.644" y="-158.3" font-family="Times New Roman,serif" font-size="14.00">theorems/group</text>
</g>
<!-- theorems/ua&#45;&gt;theorems/group -->
<g id="edge67" class="edge"><title>theorems/ua&#45;&gt;theorems/group</title>
<path fill="none" stroke="black" d="M858.407,-220.647C824.089,-209.261 772.881,-192.273 734.938,-179.685"/>
<polygon fill="black" stroke="black" points="735.698,-176.25 725.105,-176.423 733.494,-182.894 735.698,-176.25"/>
</g>
<!-- cubical/V -->
<g id="node47" class="node"><title>cubical/V</title>
<ellipse fill="none" stroke="black" cx="926.644" cy="-90" rx="45.4919" ry="18"/>
<text text-anchor="middle" x="926.644" y="-86.3" font-family="Times New Roman,serif" font-size="14.00">cubical/V</text>
</g>
<!-- theorems/ua&#45;&gt;cubical/V -->
<g id="edge68" class="edge"><title>theorems/ua&#45;&gt;cubical/V</title>
<path fill="none" stroke="black" d="M899.383,-215.871C904.69,-191.564 914.458,-146.819 920.747,-118.013"/>
<polygon fill="black" stroke="black" points="924.178,-118.706 922.892,-108.189 917.339,-117.213 924.178,-118.706"/>
</g>
<!-- HITs/circle -->
<g id="node24" class="node"><title>HITs/circle</title>
<ellipse fill="none" stroke="black" cx="711.644" cy="-90" rx="51.9908" ry="18"/>
<text text-anchor="middle" x="711.644" y="-86.3" font-family="Times New Roman,serif" font-size="14.00">HITs/circle</text>
</g>
<!-- HITs/interval&#45;&gt;HITs/circle -->
<g id="edge43" class="edge"><title>HITs/interval&#45;&gt;HITs/circle</title>
<path fill="none" stroke="black" d="M1166.99,-287.852C1166.44,-267.934 1162.44,-235.343 1143.64,-216 1140.21,-212.463 872.83,-136.57 760.493,-104.797"/>
<polygon fill="black" stroke="black" points="761.332,-101.397 750.757,-102.044 759.427,-108.133 761.332,-101.397"/>
</g>
<!-- theorems/fibration -->
<g id="node28" class="node"><title>theorems/fibration</title>
<ellipse fill="none" stroke="black" cx="1405.64" cy="-234" rx="76.8869" ry="18"/>
<text text-anchor="middle" x="1405.64" y="-230.3" font-family="Times New Roman,serif" font-size="14.00">theorems/fibration</text>
</g>
<!-- HITs/interval&#45;&gt;theorems/fibration -->
<g id="edge44" class="edge"><title>HITs/interval&#45;&gt;theorems/fibration</title>
<path fill="none" stroke="black" d="M1207.19,-293.125C1246.44,-281.63 1306.26,-264.11 1349.96,-251.31"/>
<polygon fill="black" stroke="black" points="1350.97,-254.661 1359.58,-248.491 1349,-247.943 1350.97,-254.661"/>
</g>
<!-- theorems/prop -->
<g id="node29" class="node"><title>theorems/prop</title>
<ellipse fill="none" stroke="black" cx="1070.64" cy="-234" rx="63.8893" ry="18"/>
<text text-anchor="middle" x="1070.64" y="-230.3" font-family="Times New Roman,serif" font-size="14.00">theorems/prop</text>
</g>
<!-- HITs/interval&#45;&gt;theorems/prop -->
<g id="edge45" class="edge"><title>HITs/interval&#45;&gt;theorems/prop</title>
<path fill="none" stroke="black" d="M1144.86,-289.116C1131.82,-279.607 1115.05,-267.382 1100.76,-256.959"/>
<polygon fill="black" stroke="black" points="1102.82,-254.127 1092.67,-251.064 1098.69,-259.783 1102.82,-254.127"/>
</g>
<!-- cubical/cubes -->
<g id="node39" class="node"><title>cubical/cubes</title>
<ellipse fill="none" stroke="black" cx="1250.64" cy="-234" rx="60.3893" ry="18"/>
<text text-anchor="middle" x="1250.64" y="-230.3" font-family="Times New Roman,serif" font-size="14.00">cubical/cubes</text>
</g>
<!-- HITs/interval&#45;&gt;cubical/cubes -->
<g id="edge46" class="edge"><title>HITs/interval&#45;&gt;cubical/cubes</title>
<path fill="none" stroke="black" d="M1186.13,-288.765C1197.26,-279.488 1211.39,-267.714 1223.58,-257.551"/>
<polygon fill="black" stroke="black" points="1225.83,-260.238 1231.27,-251.147 1221.34,-254.86 1225.83,-260.238"/>
</g>
<!-- HITs/merely&#45;&gt;theorems/prop -->
<g id="edge47" class="edge"><title>HITs/merely&#45;&gt;theorems/prop</title>
<path fill="none" stroke="black" d="M664.089,-293.42C671.865,-291.431 679.976,-289.519 687.644,-288 807.262,-264.299 838.925,-269.231 959.644,-252 974.843,-249.831 991.195,-247.387 1006.55,-245.044"/>
<polygon fill="black" stroke="black" points="1007.12,-248.497 1016.48,-243.522 1006.06,-241.578 1007.12,-248.497"/>
</g>
<!-- theorems/functions -->
<g id="node30" class="node"><title>theorems/functions</title>
<ellipse fill="none" stroke="black" cx="704.644" cy="-234" rx="79.8859" ry="18"/>
<text text-anchor="middle" x="704.644" y="-230.3" font-family="Times New Roman,serif" font-size="14.00">theorems/functions</text>
</g>
<!-- HITs/merely&#45;&gt;theorems/functions -->
<g id="edge48" class="edge"><title>HITs/merely&#45;&gt;theorems/functions</title>
<path fill="none" stroke="black" d="M642.431,-288.765C652.911,-279.708 666.146,-268.27 677.711,-258.276"/>
<polygon fill="black" stroke="black" points="680.119,-260.82 685.397,-251.633 675.542,-255.524 680.119,-260.82"/>
</g>
<!-- HITs/simplicial -->
<g id="node41" class="node"><title>HITs/simplicial</title>
<ellipse fill="none" stroke="black" cx="540.644" cy="-234" rx="65.7887" ry="18"/>
<text text-anchor="middle" x="540.644" y="-230.3" font-family="Times New Roman,serif" font-size="14.00">HITs/simplicial</text>
</g>
<!-- HITs/merely&#45;&gt;HITs/simplicial -->
<g id="edge49" class="edge"><title>HITs/merely&#45;&gt;HITs/simplicial</title>
<path fill="none" stroke="black" d="M604.394,-288.765C593.577,-279.642 579.897,-268.105 567.985,-258.059"/>
<polygon fill="black" stroke="black" points="569.979,-255.161 560.078,-251.39 565.466,-260.512 569.979,-255.161"/>
</g>
<!-- HITs/quotient -->
<g id="node38" class="node"><title>HITs/quotient</title>
<ellipse fill="none" stroke="black" cx="395.644" cy="-234" rx="61.99" ry="18"/>
<text text-anchor="middle" x="395.644" y="-230.3" font-family="Times New Roman,serif" font-size="14.00">HITs/quotient</text>
</g>
<!-- HITs/trunc&#45;&gt;HITs/quotient -->
<g id="edge54" class="edge"><title>HITs/trunc&#45;&gt;HITs/quotient</title>
<path fill="none" stroke="black" d="M476.295,-289.811C462.017,-280.108 443.283,-267.376 427.464,-256.625"/>
<polygon fill="black" stroke="black" points="429.261,-253.614 419.023,-250.888 425.326,-259.404 429.261,-253.614"/>
</g>
<!-- types/product&#45;&gt;theorems/ua -->
<g id="edge25" class="edge"><title>types/product&#45;&gt;theorems/ua</title>
<path fill="none" stroke="black" d="M900.914,-287.697C900.142,-279.983 899.215,-270.712 898.355,-262.112"/>
<polygon fill="black" stroke="black" points="901.832,-261.706 897.355,-252.104 894.867,-262.403 901.832,-261.706"/>
</g>
<!-- types/nat&#45;&gt;theorems/nat -->
<g id="edge23" class="edge"><title>types/nat&#45;&gt;theorems/nat</title>
<path fill="none" stroke="black" d="M759.58,-289.662C770.71,-279.847 784.371,-266.304 793.644,-252 806.112,-232.767 815.045,-208.278 820.616,-189.858"/>
<polygon fill="black" stroke="black" points="824.033,-190.639 823.438,-180.061 817.307,-188.702 824.033,-190.639"/>
</g>
<!-- types/category -->
<g id="node13" class="node"><title>types/category</title>
<ellipse fill="none" stroke="black" cx="1530.64" cy="-90" rx="63.8893" ry="18"/>
<text text-anchor="middle" x="1530.64" y="-86.3" font-family="Times New Roman,serif" font-size="14.00">types/category</text>
</g>
<!-- types/coproduct&#45;&gt;structures -->
<g id="edge10" class="edge"><title>types/coproduct&#45;&gt;structures</title>
<path fill="none" stroke="black" d="M426.519,-437.401C435.848,-435.46 445.519,-433.57 454.644,-432 577.428,-410.877 610.906,-422.492 732.644,-396 736.328,-395.198 740.12,-394.264 743.908,-393.253"/>
<polygon fill="black" stroke="black" points="745.184,-396.53 753.852,-390.438 743.277,-389.794 745.184,-396.53"/>
</g>
<!-- types/integer -->
<g id="node15" class="node"><title>types/integer</title>
<ellipse fill="none" stroke="black" cx="155.644" cy="-378" rx="56.59" ry="18"/>
<text text-anchor="middle" x="155.644" y="-374.3" font-family="Times New Roman,serif" font-size="14.00">types/integer</text>
</g>
<!-- types/coproduct&#45;&gt;types/integer -->
<g id="edge11" class="edge"><title>types/coproduct&#45;&gt;types/integer</title>
<path fill="none" stroke="black" d="M333.226,-435.503C296.318,-423.76 242.839,-406.744 204.222,-394.457"/>
<polygon fill="black" stroke="black" points="204.839,-390.98 194.249,-391.283 202.717,-397.651 204.839,-390.98"/>
</g>
<!-- types/integer&#45;&gt;HITs/circle -->
<g id="edge21" class="edge"><title>types/integer&#45;&gt;HITs/circle</title>
<path fill="none" stroke="black" d="M152.884,-359.778C148.763,-327.72 144.758,-258.315 178.644,-216 237.514,-142.487 524.657,-107.881 651.364,-95.9992"/>
<polygon fill="black" stroke="black" points="652.025,-99.4532 661.661,-95.0506 651.382,-92.4827 652.025,-99.4532"/>
</g>
<!-- types/rational -->
<g id="node25" class="node"><title>types/rational</title>
<ellipse fill="none" stroke="black" cx="69.6442" cy="-306" rx="59.2899" ry="18"/>
<text text-anchor="middle" x="69.6442" y="-302.3" font-family="Times New Roman,serif" font-size="14.00">types/rational</text>
</g>
<!-- types/integer&#45;&gt;types/rational -->
<g id="edge22" class="edge"><title>types/integer&#45;&gt;types/rational</title>
<path fill="none" stroke="black" d="M135.698,-360.765C124.301,-351.488 109.836,-339.714 97.3498,-329.551"/>
<polygon fill="black" stroke="black" points="99.4474,-326.746 89.4823,-323.147 95.0285,-332.175 99.4474,-326.746"/>
</g>
<!-- types/dedekind -->
<g id="node16" class="node"><title>types/dedekind</title>
<ellipse fill="none" stroke="black" cx="65.6442" cy="-234" rx="65.7887" ry="18"/>
<text text-anchor="middle" x="65.6442" y="-230.3" font-family="Times New Roman,serif" font-size="14.00">types/dedekind</text>
</g>
<!-- HITs/graph -->
<g id="node22" class="node"><title>HITs/graph</title>
<ellipse fill="none" stroke="black" cx="516.644" cy="-450" rx="52.7911" ry="18"/>
<text text-anchor="middle" x="516.644" y="-446.3" font-family="Times New Roman,serif" font-size="14.00">HITs/graph</text>
</g>
<!-- types/heq&#45;&gt;HITs/graph -->
<g id="edge19" class="edge"><title>types/heq&#45;&gt;HITs/graph</title>
<path fill="none" stroke="black" d="M516.644,-503.697C516.644,-495.983 516.644,-486.712 516.644,-478.112"/>
<polygon fill="black" stroke="black" points="520.144,-478.104 516.644,-468.104 513.144,-478.104 520.144,-478.104"/>
</g>
<!-- theorems/funext -->
<g id="node23" class="node"><title>theorems/funext</title>
<ellipse fill="none" stroke="black" cx="656.644" cy="-450" rx="68.7879" ry="18"/>
<text text-anchor="middle" x="656.644" y="-446.3" font-family="Times New Roman,serif" font-size="14.00">theorems/funext</text>
</g>
<!-- types/heq&#45;&gt;theorems/funext -->
<g id="edge20" class="edge"><title>types/heq&#45;&gt;theorems/funext</title>
<path fill="none" stroke="black" d="M543.97,-507.337C564.764,-496.94 593.682,-482.481 617.015,-470.814"/>
<polygon fill="black" stroke="black" points="618.601,-473.935 625.98,-466.332 615.471,-467.674 618.601,-473.935"/>
</g>
<!-- types/unit&#45;&gt;structures -->
<g id="edge31" class="edge"><title>types/unit&#45;&gt;structures</title>
<path fill="none" stroke="black" d="M789.15,-431.697C788.929,-423.983 788.665,-414.712 788.419,-406.112"/>
<polygon fill="black" stroke="black" points="791.917,-406 788.133,-396.104 784.92,-406.2 791.917,-406"/>
</g>
<!-- HITs/suspension -->
<g id="node31" class="node"><title>HITs/suspension</title>
<ellipse fill="none" stroke="black" cx="298.644" cy="-306" rx="72.5877" ry="18"/>
<text text-anchor="middle" x="298.644" y="-302.3" font-family="Times New Roman,serif" font-size="14.00">HITs/suspension</text>
</g>
<!-- types/unit&#45;&gt;HITs/suspension -->
<g id="edge32" class="edge"><title>types/unit&#45;&gt;HITs/suspension</title>
<path fill="none" stroke="black" d="M756.155,-437.607C749.111,-435.505 741.681,-433.503 734.644,-432 605.042,-404.322 563.421,-440.651 438.644,-396 396.313,-380.852 353.55,-351.084 326.622,-330.159"/>
<polygon fill="black" stroke="black" points="328.473,-327.16 318.457,-323.706 324.132,-332.652 328.473,-327.16"/>
</g>
<!-- types/sigma&#45;&gt;theorems/nat -->
<g id="edge27" class="edge"><title>types/sigma&#45;&gt;theorems/nat</title>
<path fill="none" stroke="black" d="M1023.68,-288.189C1005.89,-265.463 974.447,-226.561 959.644,-216 935.49,-198.768 904.932,-186.036 879.302,-177.377"/>
<polygon fill="black" stroke="black" points="880.337,-174.033 869.744,-174.256 878.164,-180.687 880.337,-174.033"/>
</g>
<!-- types/sigma&#45;&gt;theorems/fibration -->
<g id="edge28" class="edge"><title>types/sigma&#45;&gt;theorems/fibration</title>
<path fill="none" stroke="black" d="M1076.15,-293.683C1083.91,-291.648 1092,-289.652 1099.64,-288 1196.49,-267.067 1222.14,-269.609 1319.64,-252 1326.18,-250.819 1333,-249.546 1339.8,-248.247"/>
<polygon fill="black" stroke="black" points="1340.56,-251.664 1349.72,-246.332 1339.24,-244.79 1340.56,-251.664"/>
</g>
<!-- types/sigma&#45;&gt;theorems/prop -->
<g id="edge29" class="edge"><title>types/sigma&#45;&gt;theorems/prop</title>
<path fill="none" stroke="black" d="M1044.87,-288.055C1048.74,-280.091 1053.44,-270.411 1057.77,-261.51"/>
<polygon fill="black" stroke="black" points="1061.03,-262.8 1062.25,-252.275 1054.74,-259.741 1061.03,-262.8"/>
</g>
<!-- types/sigma&#45;&gt;theorems/functions -->
<g id="edge30" class="edge"><title>types/sigma&#45;&gt;theorems/functions</title>
<path fill="none" stroke="black" d="M996.756,-293.791C989.108,-291.768 981.147,-289.749 973.644,-288 906.766,-272.408 829.834,-257.557 775.42,-247.564"/>
<polygon fill="black" stroke="black" points="775.996,-244.112 765.529,-245.756 774.736,-250.998 775.996,-244.112"/>
</g>
<!-- HITs/colimit -->
<g id="node35" class="node"><title>HITs/colimit</title>
<ellipse fill="none" stroke="black" cx="666.644" cy="-378" rx="56.59" ry="18"/>
<text text-anchor="middle" x="666.644" y="-374.3" font-family="Times New Roman,serif" font-size="14.00">HITs/colimit</text>
</g>
<!-- HITs/graph&#45;&gt;HITs/colimit -->
<g id="edge39" class="edge"><title>HITs/graph&#45;&gt;HITs/colimit</title>
<path fill="none" stroke="black" d="M546.638,-435.003C569.685,-424.248 601.728,-409.294 626.907,-397.544"/>
<polygon fill="black" stroke="black" points="628.606,-400.614 636.188,-393.213 625.646,-394.27 628.606,-400.614"/>
</g>
<!-- HITs/generalized -->
<g id="node36" class="node"><title>HITs/generalized</title>
<ellipse fill="none" stroke="black" cx="519.644" cy="-378" rx="72.2875" ry="18"/>
<text text-anchor="middle" x="519.644" y="-374.3" font-family="Times New Roman,serif" font-size="14.00">HITs/generalized</text>
</g>
<!-- HITs/graph&#45;&gt;HITs/generalized -->
<g id="edge40" class="edge"><title>HITs/graph&#45;&gt;HITs/generalized</title>
<path fill="none" stroke="black" d="M517.386,-431.697C517.716,-423.983 518.114,-414.712 518.482,-406.112"/>
<polygon fill="black" stroke="black" points="521.98,-406.245 518.911,-396.104 514.986,-405.945 521.98,-406.245"/>
</g>
<!-- HITs/pushout -->
<g id="node37" class="node"><title>HITs/pushout</title>
<ellipse fill="none" stroke="black" cx="291.644" cy="-378" rx="61.99" ry="18"/>
<text text-anchor="middle" x="291.644" y="-374.3" font-family="Times New Roman,serif" font-size="14.00">HITs/pushout</text>
</g>
<!-- HITs/graph&#45;&gt;HITs/pushout -->
<g id="edge41" class="edge"><title>HITs/graph&#45;&gt;HITs/pushout</title>
<path fill="none" stroke="black" d="M478.984,-437.284C441.46,-425.609 383.604,-407.61 342.119,-394.703"/>
<polygon fill="black" stroke="black" points="343.064,-391.332 332.476,-391.703 340.984,-398.016 343.064,-391.332"/>
</g>
<!-- HITs/graph&#45;&gt;HITs/quotient -->
<g id="edge42" class="edge"><title>HITs/graph&#45;&gt;HITs/quotient</title>
<path fill="none" stroke="black" d="M486.358,-435.104C469.973,-426.129 450.683,-412.953 438.644,-396 409.775,-355.345 400.288,-296.459 397.17,-262.315"/>
<polygon fill="black" stroke="black" points="400.644,-261.846 396.365,-252.154 393.666,-262.399 400.644,-261.846"/>
</g>
<!-- theorems/funext&#45;&gt;structures -->
<g id="edge62" class="edge"><title>theorems/funext&#45;&gt;structures</title>
<path fill="none" stroke="black" d="M685.393,-433.638C705.206,-423.051 731.653,-408.919 752.687,-397.68"/>
<polygon fill="black" stroke="black" points="754.459,-400.701 761.629,-392.901 751.16,-394.527 754.459,-400.701"/>
</g>
<!-- theorems/hopf -->
<g id="node32" class="node"><title>theorems/hopf</title>
<ellipse fill="none" stroke="black" cx="1271.64" cy="-18" rx="63.8893" ry="18"/>
<text text-anchor="middle" x="1271.64" y="-14.3" font-family="Times New Roman,serif" font-size="14.00">theorems/hopf</text>
</g>
<!-- HITs/circle&#45;&gt;theorems/hopf -->
<g id="edge33" class="edge"><title>HITs/circle&#45;&gt;theorems/hopf</title>
<path fill="none" stroke="black" d="M749.159,-77.4928C756.871,-75.425 764.977,-73.465 772.644,-72 923.06,-43.2585 1102.18,-28.999 1199.67,-22.8845"/>
<polygon fill="black" stroke="black" points="1199.94,-26.3745 1209.7,-22.2657 1199.51,-19.3877 1199.94,-26.3745"/>
</g>
<!-- HITs/moebius -->
<g id="node33" class="node"><title>HITs/moebius</title>
<ellipse fill="none" stroke="black" cx="776.644" cy="-18" rx="63.0888" ry="18"/>
<text text-anchor="middle" x="776.644" y="-14.3" font-family="Times New Roman,serif" font-size="14.00">HITs/moebius</text>
</g>
<!-- HITs/circle&#45;&gt;HITs/moebius -->
<g id="edge34" class="edge"><title>HITs/circle&#45;&gt;HITs/moebius</title>
<path fill="none" stroke="black" d="M726.72,-72.7646C734.887,-63.9689 745.139,-52.9283 754.225,-43.144"/>
<polygon fill="black" stroke="black" points="756.959,-45.3429 761.199,-35.6334 751.83,-40.5798 756.959,-45.3429"/>
</g>
<!-- HITs/reals -->
<g id="node34" class="node"><title>HITs/reals</title>
<ellipse fill="none" stroke="black" cx="646.644" cy="-18" rx="48.9926" ry="18"/>
<text text-anchor="middle" x="646.644" y="-14.3" font-family="Times New Roman,serif" font-size="14.00">HITs/reals</text>
</g>
<!-- HITs/circle&#45;&gt;HITs/reals -->
<g id="edge35" class="edge"><title>HITs/circle&#45;&gt;HITs/reals</title>
<path fill="none" stroke="black" d="M696.568,-72.7646C688.283,-63.8414 677.851,-52.6078 668.669,-42.7194"/>
<polygon fill="black" stroke="black" points="671.007,-40.0937 661.638,-35.1473 665.878,-44.8569 671.007,-40.0937"/>
</g>
<!-- types/rational&#45;&gt;types/dedekind -->
<g id="edge26" class="edge"><title>types/rational&#45;&gt;types/dedekind</title>
<path fill="none" stroke="black" d="M68.6554,-287.697C68.2146,-279.983 67.6849,-270.712 67.1935,-262.112"/>
<polygon fill="black" stroke="black" points="70.6865,-261.888 66.6216,-252.104 63.6979,-262.288 70.6865,-261.888"/>
</g>
<!-- theorems/nat&#45;&gt;HITs/circle -->
<g id="edge63" class="edge"><title>theorems/nat&#45;&gt;HITs/circle</title>
<path fill="none" stroke="black" d="M802.474,-145.811C785.638,-135.652 763.3,-122.172 744.99,-111.123"/>
<polygon fill="black" stroke="black" points="746.737,-108.089 736.367,-105.919 743.12,-114.082 746.737,-108.089"/>
</g>
<!-- HITs/int -->
<g id="node48" class="node"><title>HITs/int</title>
<ellipse fill="none" stroke="black" cx="822.644" cy="-90" rx="40.8928" ry="18"/>
<text text-anchor="middle" x="822.644" y="-86.3" font-family="Times New Roman,serif" font-size="14.00">HITs/int</text>
</g>
<!-- theorems/nat&#45;&gt;HITs/int -->
<g id="edge64" class="edge"><title>theorems/nat&#45;&gt;HITs/int</title>
<path fill="none" stroke="black" d="M826.408,-143.697C825.857,-135.983 825.195,-126.712 824.581,-118.112"/>
<polygon fill="black" stroke="black" points="828.07,-117.83 823.866,-108.104 821.087,-118.328 828.07,-117.83"/>
</g>
<!-- types/precategory -->
<g id="node27" class="node"><title>types/precategory</title>
<ellipse fill="none" stroke="black" cx="1466.64" cy="-162" rx="75.2868" ry="18"/>
<text text-anchor="middle" x="1466.64" y="-158.3" font-family="Times New Roman,serif" font-size="14.00">types/precategory</text>
</g>
<!-- types/precategory&#45;&gt;types/category -->
<g id="edge24" class="edge"><title>types/precategory&#45;&gt;types/category</title>
<path fill="none" stroke="black" d="M1482.14,-144.055C1490,-135.457 1499.69,-124.857 1508.34,-115.397"/>
<polygon fill="black" stroke="black" points="1511.13,-117.531 1515.29,-107.789 1505.96,-112.808 1511.13,-117.531"/>
</g>
<!-- theorems/fibration&#45;&gt;theorems/hopf -->
<g id="edge60" class="edge"><title>theorems/fibration&#45;&gt;theorems/hopf</title>
<path fill="none" stroke="black" d="M1459.98,-221.258C1488.92,-213.1 1523.95,-200.017 1550.64,-180 1593.42,-147.926 1638.34,-112.679 1603.64,-72 1571.12,-33.8761 1432.88,-23.0502 1345.36,-20.0544"/>
<polygon fill="black" stroke="black" points="1345.31,-16.5514 1335.21,-19.7341 1345.09,-23.5479 1345.31,-16.5514"/>
</g>
<!-- theorems/prop&#45;&gt;types/precategory -->
<g id="edge65" class="edge"><title>theorems/prop&#45;&gt;types/precategory</title>
<path fill="none" stroke="black" d="M1123.23,-223.705C1193.9,-211.212 1319.66,-188.981 1397.81,-175.168"/>
<polygon fill="black" stroke="black" points="1398.8,-178.548 1408.03,-173.36 1397.58,-171.654 1398.8,-178.548"/>
</g>
<!-- theorems/functions&#45;&gt;theorems/group -->
<g id="edge61" class="edge"><title>theorems/functions&#45;&gt;theorems/group</title>
<path fill="none" stroke="black" d="M699.7,-215.697C697.472,-207.898 694.789,-198.509 692.31,-189.829"/>
<polygon fill="black" stroke="black" points="695.644,-188.758 689.531,-180.104 688.913,-190.681 695.644,-188.758"/>
</g>
<!-- HITs/suspension&#45;&gt;HITs/circle -->
<g id="edge52" class="edge"><title>HITs/suspension&#45;&gt;HITs/circle</title>
<path fill="none" stroke="black" d="M299.041,-287.908C300.424,-268.044 305.681,-235.506 324.644,-216 412.257,-125.882 565.151,-100.652 650.174,-93.6436"/>
<polygon fill="black" stroke="black" points="650.494,-97.1295 660.198,-92.8761 649.96,-90.1499 650.494,-97.1295"/>
</g>
<!-- HITs/join -->
<g id="node40" class="node"><title>HITs/join</title>
<ellipse fill="none" stroke="black" cx="232.644" cy="-234" rx="45.4919" ry="18"/>
<text text-anchor="middle" x="232.644" y="-230.3" font-family="Times New Roman,serif" font-size="14.00">HITs/join</text>
</g>
<!-- HITs/suspension&#45;&gt;HITs/join -->
<g id="edge53" class="edge"><title>HITs/suspension&#45;&gt;HITs/join</title>
<path fill="none" stroke="black" d="M283.003,-288.411C274.581,-279.479 264.05,-268.31 254.799,-258.498"/>
<polygon fill="black" stroke="black" points="257.125,-255.863 247.719,-250.988 252.032,-260.665 257.125,-255.863"/>
</g>
<!-- HITs/colimit&#45;&gt;HITs/merely -->
<g id="edge36" class="edge"><title>HITs/colimit&#45;&gt;HITs/merely</title>
<path fill="none" stroke="black" d="M656.235,-360.055C651.165,-351.801 644.961,-341.701 639.332,-332.538"/>
<polygon fill="black" stroke="black" points="642.174,-330.478 633.957,-323.789 636.209,-334.142 642.174,-330.478"/>
</g>
<!-- HITs/colimit&#45;&gt;types/nat -->
<g id="edge37" class="edge"><title>HITs/colimit&#45;&gt;types/nat</title>
<path fill="none" stroke="black" d="M683.807,-360.765C693.565,-351.535 705.935,-339.833 716.642,-329.705"/>
<polygon fill="black" stroke="black" points="719.224,-332.08 724.083,-322.666 714.413,-326.995 719.224,-332.08"/>
</g>
<!-- HITs/generalized&#45;&gt;HITs/merely -->
<g id="edge38" class="edge"><title>HITs/generalized&#45;&gt;HITs/merely</title>
<path fill="none" stroke="black" d="M543.504,-360.941C557.975,-351.2 576.608,-338.659 592.264,-328.121"/>
<polygon fill="black" stroke="black" points="594.269,-330.991 600.611,-322.503 590.36,-325.184 594.269,-330.991"/>
</g>
<!-- HITs/pushout&#45;&gt;HITs/suspension -->
<g id="edge50" class="edge"><title>HITs/pushout&#45;&gt;HITs/suspension</title>
<path fill="none" stroke="black" d="M293.375,-359.697C294.146,-351.983 295.073,-342.712 295.933,-334.112"/>
<polygon fill="black" stroke="black" points="299.421,-334.403 296.934,-324.104 292.456,-333.706 299.421,-334.403"/>
</g>
<!-- HITs/quotient&#45;&gt;theorems/group -->
<g id="edge51" class="edge"><title>HITs/quotient&#45;&gt;theorems/group</title>
<path fill="none" stroke="black" d="M441.58,-221.838C449.601,-219.891 457.866,-217.886 465.644,-216 520.136,-202.789 582.262,-187.757 626.391,-177.084"/>
<polygon fill="black" stroke="black" points="627.466,-180.425 636.363,-174.673 625.821,-173.621 627.466,-180.425"/>
</g>
<!-- cubical/path -->
<g id="node44" class="node"><title>cubical/path</title>
<ellipse fill="none" stroke="black" cx="1245.64" cy="-162" rx="54.6905" ry="18"/>
<text text-anchor="middle" x="1245.64" y="-158.3" font-family="Times New Roman,serif" font-size="14.00">cubical/path</text>
</g>
<!-- cubical/cubes&#45;&gt;cubical/path -->
<g id="edge55" class="edge"><title>cubical/cubes&#45;&gt;cubical/path</title>
<path fill="none" stroke="black" d="M1249.41,-215.697C1248.86,-207.983 1248.2,-198.712 1247.58,-190.112"/>
<polygon fill="black" stroke="black" points="1251.07,-189.83 1246.87,-180.104 1244.09,-190.328 1251.07,-189.83"/>
</g>
<!-- cubical/connection -->
<g id="node43" class="node"><title>cubical/connection</title>
<ellipse fill="none" stroke="black" cx="1069.64" cy="-90" rx="79.0865" ry="18"/>
<text text-anchor="middle" x="1069.64" y="-86.3" font-family="Times New Roman,serif" font-size="14.00">cubical/connection</text>
</g>
<!-- cubical/path&#45;&gt;cubical/connection -->
<g id="edge56" class="edge"><title>cubical/path&#45;&gt;cubical/connection</title>
<path fill="none" stroke="black" d="M1212.13,-147.669C1185.13,-136.931 1146.85,-121.706 1116.76,-109.741"/>
<polygon fill="black" stroke="black" points="1117.9,-106.424 1107.31,-105.981 1115.31,-112.928 1117.9,-106.424"/>
</g>
<!-- cubical/example -->
<g id="node45" class="node"><title>cubical/example</title>
<ellipse fill="none" stroke="black" cx="1235.64" cy="-90" rx="68.7879" ry="18"/>
<text text-anchor="middle" x="1235.64" y="-86.3" font-family="Times New Roman,serif" font-size="14.00">cubical/example</text>
</g>
<!-- cubical/path&#45;&gt;cubical/example -->
<g id="edge57" class="edge"><title>cubical/path&#45;&gt;cubical/example</title>
<path fill="none" stroke="black" d="M1243.17,-143.697C1242.07,-135.983 1240.75,-126.712 1239.52,-118.112"/>
<polygon fill="black" stroke="black" points="1242.97,-117.509 1238.09,-108.104 1236.04,-118.499 1242.97,-117.509"/>
</g>
<!-- cubical/square -->
<g id="node46" class="node"><title>cubical/square</title>
<ellipse fill="none" stroke="black" cx="1385.64" cy="-90" rx="63.0888" ry="18"/>
<text text-anchor="middle" x="1385.64" y="-86.3" font-family="Times New Roman,serif" font-size="14.00">cubical/square</text>
</g>
<!-- cubical/path&#45;&gt;cubical/square -->
<g id="edge58" class="edge"><title>cubical/path&#45;&gt;cubical/square</title>
<path fill="none" stroke="black" d="M1274.31,-146.666C1295.13,-136.26 1323.53,-122.057 1346.44,-110.602"/>
<polygon fill="black" stroke="black" points="1348.18,-113.644 1355.56,-106.041 1345.05,-107.383 1348.18,-113.644"/>
</g>
<!-- cubical/path&#45;&gt;cubical/V -->
<g id="edge59" class="edge"><title>cubical/path&#45;&gt;cubical/V</title>
<path fill="none" stroke="black" d="M1203.77,-150.265C1194.84,-148.092 1185.45,-145.896 1176.64,-144 1090.49,-125.45 1067.22,-129.049 981.644,-108 977.984,-107.1 974.208,-106.096 970.43,-105.038"/>
<polygon fill="black" stroke="black" points="971.083,-101.583 960.504,-102.147 969.126,-108.304 971.083,-101.583"/>
</g>
</g>
</svg>
