<?xml version="1.0" encoding="UTF-8" standalone="no"?>
<!DOCTYPE svg PUBLIC "-//W3C//DTD SVG 1.1//EN"
 "http://www.w3.org/Graphics/SVG/1.1/DTD/svg11.dtd">
<!-- Generated by graphviz version 2.38.0 (20140413.2041)
 -->
<!-- Title: dependency_map Pages: 1 -->
<svg width="1427pt" height="908pt"
 viewBox="0.00 0.00 1426.79 908.00" xmlns="http://www.w3.org/2000/svg" xmlns:xlink="http://www.w3.org/1999/xlink">
<g id="graph0" class="graph" transform="scale(1 1) rotate(0) translate(4 904)">
<title>dependency_map</title>
<polygon fill="white" stroke="none" points="-4,4 -4,-904 1422.79,-904 1422.79,4 -4,4"/>
<!-- proto -->
<g id="node1" class="node"><title>proto</title>
<ellipse fill="none" stroke="black" cx="900.293" cy="-882" rx="30.5947" ry="18"/>
<text text-anchor="middle" x="900.293" y="-878.3" font-family="Times New Roman,serif" font-size="14.00">proto</text>
</g>
<!-- types/eq -->
<g id="node2" class="node"><title>types/eq</title>
<ellipse fill="none" stroke="black" cx="960.293" cy="-810" rx="41.6928" ry="18"/>
<text text-anchor="middle" x="960.293" y="-806.3" font-family="Times New Roman,serif" font-size="14.00">types/eq</text>
</g>
<!-- proto&#45;&gt;types/eq -->
<g id="edge1" class="edge"><title>proto&#45;&gt;types/eq</title>
<path fill="none" stroke="black" d="M913.609,-865.465C921.237,-856.566 930.974,-845.205 939.581,-835.164"/>
<polygon fill="black" stroke="black" points="942.328,-837.338 946.178,-827.467 937.013,-832.782 942.328,-837.338"/>
</g>
<!-- support -->
<g id="node4" class="node"><title>support</title>
<ellipse fill="none" stroke="black" cx="960.293" cy="-738" rx="38.9931" ry="18"/>
<text text-anchor="middle" x="960.293" y="-734.3" font-family="Times New Roman,serif" font-size="14.00">support</text>
</g>
<!-- types/eq&#45;&gt;support -->
<g id="edge11" class="edge"><title>types/eq&#45;&gt;support</title>
<path fill="none" stroke="black" d="M960.293,-791.697C960.293,-783.983 960.293,-774.712 960.293,-766.112"/>
<polygon fill="black" stroke="black" points="963.793,-766.104 960.293,-756.104 956.793,-766.104 963.793,-766.104"/>
</g>
<!-- meta/hott_theory -->
<g id="node3" class="node"><title>meta/hott_theory</title>
<ellipse fill="none" stroke="black" cx="1021.29" cy="-882" rx="72.2875" ry="18"/>
<text text-anchor="middle" x="1021.29" y="-878.3" font-family="Times New Roman,serif" font-size="14.00">meta/hott_theory</text>
</g>
<!-- meta/hott_theory&#45;&gt;types/eq -->
<g id="edge2" class="edge"><title>meta/hott_theory&#45;&gt;types/eq</title>
<path fill="none" stroke="black" d="M1006.53,-864.055C998.924,-855.33 989.524,-844.544 981.191,-834.981"/>
<polygon fill="black" stroke="black" points="983.712,-832.547 974.503,-827.307 978.434,-837.146 983.712,-832.547"/>
</g>
<!-- types/equiv -->
<g id="node5" class="node"><title>types/equiv</title>
<ellipse fill="none" stroke="black" cx="960.293" cy="-666" rx="51.9908" ry="18"/>
<text text-anchor="middle" x="960.293" y="-662.3" font-family="Times New Roman,serif" font-size="14.00">types/equiv</text>
</g>
<!-- support&#45;&gt;types/equiv -->
<g id="edge3" class="edge"><title>support&#45;&gt;types/equiv</title>
<path fill="none" stroke="black" d="M960.293,-719.697C960.293,-711.983 960.293,-702.712 960.293,-694.112"/>
<polygon fill="black" stroke="black" points="963.793,-694.104 960.293,-684.104 956.793,-694.104 963.793,-694.104"/>
</g>
<!-- types/coproduct -->
<g id="node15" class="node"><title>types/coproduct</title>
<ellipse fill="none" stroke="black" cx="824.293" cy="-522" rx="70.6878" ry="18"/>
<text text-anchor="middle" x="824.293" y="-518.3" font-family="Times New Roman,serif" font-size="14.00">types/coproduct</text>
</g>
<!-- types/equiv&#45;&gt;types/coproduct -->
<g id="edge12" class="edge"><title>types/equiv&#45;&gt;types/coproduct</title>
<path fill="none" stroke="black" d="M944.653,-648.778C934.553,-638.294 921.134,-624.352 909.293,-612 888.393,-590.198 864.659,-565.339 847.592,-547.445"/>
<polygon fill="black" stroke="black" points="849.688,-544.571 840.254,-539.749 844.622,-549.402 849.688,-544.571"/>
</g>
<!-- types/heq -->
<g id="node17" class="node"><title>types/heq</title>
<ellipse fill="none" stroke="black" cx="997.293" cy="-594" rx="46.2923" ry="18"/>
<text text-anchor="middle" x="997.293" y="-590.3" font-family="Times New Roman,serif" font-size="14.00">types/heq</text>
</g>
<!-- types/equiv&#45;&gt;types/heq -->
<g id="edge13" class="edge"><title>types/equiv&#45;&gt;types/heq</title>
<path fill="none" stroke="black" d="M969.25,-648.055C973.567,-639.887 978.84,-629.912 983.643,-620.824"/>
<polygon fill="black" stroke="black" points="986.84,-622.266 988.419,-611.789 980.651,-618.994 986.84,-622.266"/>
</g>
<!-- HITs/infinitesimal -->
<g id="node18" class="node"><title>HITs/infinitesimal</title>
<ellipse fill="none" stroke="black" cx="1136.29" cy="-594" rx="74.9875" ry="18"/>
<text text-anchor="middle" x="1136.29" y="-590.3" font-family="Times New Roman,serif" font-size="14.00">HITs/infinitesimal</text>
</g>
<!-- types/equiv&#45;&gt;HITs/infinitesimal -->
<g id="edge14" class="edge"><title>types/equiv&#45;&gt;HITs/infinitesimal</title>
<path fill="none" stroke="black" d="M992.985,-651.998C1020.16,-641.187 1059.18,-625.669 1089.64,-613.554"/>
<polygon fill="black" stroke="black" points="1091.21,-616.698 1099.21,-609.75 1088.62,-610.194 1091.21,-616.698"/>
</g>
<!-- types/lost -->
<g id="node19" class="node"><title>types/lost</title>
<ellipse fill="none" stroke="black" cx="1275.29" cy="-594" rx="46.2923" ry="18"/>
<text text-anchor="middle" x="1275.29" y="-590.3" font-family="Times New Roman,serif" font-size="14.00">types/lost</text>
</g>
<!-- types/equiv&#45;&gt;types/lost -->
<g id="edge15" class="edge"><title>types/equiv&#45;&gt;types/lost</title>
<path fill="none" stroke="black" d="M1005.69,-657.15C1057.83,-647.811 1145.76,-631.066 1220.29,-612 1223.89,-611.079 1227.61,-610.067 1231.33,-609.009"/>
<polygon fill="black" stroke="black" points="1232.51,-612.312 1241.11,-606.136 1230.53,-605.595 1232.51,-612.312"/>
</g>
<!-- types/unit -->
<g id="node20" class="node"><title>types/unit</title>
<ellipse fill="none" stroke="black" cx="984.293" cy="-450" rx="46.2923" ry="18"/>
<text text-anchor="middle" x="984.293" y="-446.3" font-family="Times New Roman,serif" font-size="14.00">types/unit</text>
</g>
<!-- types/equiv&#45;&gt;types/unit -->
<g id="edge16" class="edge"><title>types/equiv&#45;&gt;types/unit</title>
<path fill="none" stroke="black" d="M952.813,-647.704C948.82,-637.522 944.32,-624.272 942.293,-612 934.47,-564.642 926.509,-549.331 942.293,-504 946.038,-493.245 952.975,-483.031 960.147,-474.493"/>
<polygon fill="black" stroke="black" points="962.925,-476.637 966.999,-466.856 957.715,-471.962 962.925,-476.637"/>
</g>
<!-- types/sigma -->
<g id="node21" class="node"><title>types/sigma</title>
<ellipse fill="none" stroke="black" cx="681.293" cy="-522" rx="53.8905" ry="18"/>
<text text-anchor="middle" x="681.293" y="-518.3" font-family="Times New Roman,serif" font-size="14.00">types/sigma</text>
</g>
<!-- types/equiv&#45;&gt;types/sigma -->
<g id="edge17" class="edge"><title>types/equiv&#45;&gt;types/sigma</title>
<path fill="none" stroke="black" d="M932.264,-650.734C881.737,-625.018 775.38,-570.887 718.704,-542.041"/>
<polygon fill="black" stroke="black" points="720.219,-538.884 709.719,-537.468 717.044,-545.123 720.219,-538.884"/>
</g>
<!-- structures -->
<g id="node6" class="node"><title>structures</title>
<ellipse fill="none" stroke="black" cx="768.293" cy="-378" rx="46.2923" ry="18"/>
<text text-anchor="middle" x="768.293" y="-374.3" font-family="Times New Roman,serif" font-size="14.00">structures</text>
</g>
<!-- HITs/interval -->
<g id="node7" class="node"><title>HITs/interval</title>
<ellipse fill="none" stroke="black" cx="586.293" cy="-306" rx="57.6901" ry="18"/>
<text text-anchor="middle" x="586.293" y="-302.3" font-family="Times New Roman,serif" font-size="14.00">HITs/interval</text>
</g>
<!-- structures&#45;&gt;HITs/interval -->
<g id="edge4" class="edge"><title>structures&#45;&gt;HITs/interval</title>
<path fill="none" stroke="black" d="M736.591,-364.807C707.3,-353.541 663.49,-336.691 630.716,-324.086"/>
<polygon fill="black" stroke="black" points="631.947,-320.809 621.357,-320.486 629.434,-327.343 631.947,-320.809"/>
</g>
<!-- HITs/merely -->
<g id="node8" class="node"><title>HITs/merely</title>
<ellipse fill="none" stroke="black" cx="844.293" cy="-306" rx="55.7903" ry="18"/>
<text text-anchor="middle" x="844.293" y="-302.3" font-family="Times New Roman,serif" font-size="14.00">HITs/merely</text>
</g>
<!-- structures&#45;&gt;HITs/merely -->
<g id="edge5" class="edge"><title>structures&#45;&gt;HITs/merely</title>
<path fill="none" stroke="black" d="M785.539,-361.116C795.406,-352.027 807.967,-340.458 818.94,-330.351"/>
<polygon fill="black" stroke="black" points="821.604,-332.656 826.588,-323.307 816.862,-327.507 821.604,-332.656"/>
</g>
<!-- HITs/trunc -->
<g id="node9" class="node"><title>HITs/trunc</title>
<ellipse fill="none" stroke="black" cx="969.293" cy="-306" rx="50.8918" ry="18"/>
<text text-anchor="middle" x="969.293" y="-302.3" font-family="Times New Roman,serif" font-size="14.00">HITs/trunc</text>
</g>
<!-- structures&#45;&gt;HITs/trunc -->
<g id="edge6" class="edge"><title>structures&#45;&gt;HITs/trunc</title>
<path fill="none" stroke="black" d="M801.484,-365.441C835.159,-353.713 887.495,-335.487 924.759,-322.509"/>
<polygon fill="black" stroke="black" points="926.071,-325.759 934.364,-319.164 923.769,-319.148 926.071,-325.759"/>
</g>
<!-- types/nat -->
<g id="node10" class="node"><title>types/nat</title>
<ellipse fill="none" stroke="black" cx="1081.29" cy="-306" rx="43.5923" ry="18"/>
<text text-anchor="middle" x="1081.29" y="-302.3" font-family="Times New Roman,serif" font-size="14.00">types/nat</text>
</g>
<!-- structures&#45;&gt;types/nat -->
<g id="edge7" class="edge"><title>structures&#45;&gt;types/nat</title>
<path fill="none" stroke="black" d="M802.434,-365.713C809.297,-363.652 816.491,-361.638 823.293,-360 913.651,-338.233 939.114,-346.498 1029.29,-324 1032.67,-323.158 1036.14,-322.21 1039.61,-321.202"/>
<polygon fill="black" stroke="black" points="1040.78,-324.506 1049.32,-318.245 1038.74,-317.809 1040.78,-324.506"/>
</g>
<!-- theorems/ua -->
<g id="node11" class="node"><title>theorems/ua</title>
<ellipse fill="none" stroke="black" cx="716.293" cy="-306" rx="54.6905" ry="18"/>
<text text-anchor="middle" x="716.293" y="-302.3" font-family="Times New Roman,serif" font-size="14.00">theorems/ua</text>
</g>
<!-- structures&#45;&gt;theorems/ua -->
<g id="edge8" class="edge"><title>structures&#45;&gt;theorems/ua</title>
<path fill="none" stroke="black" d="M755.97,-360.411C749.715,-351.992 741.985,-341.585 735.013,-332.201"/>
<polygon fill="black" stroke="black" points="737.662,-329.897 728.889,-323.956 732.043,-334.071 737.662,-329.897"/>
</g>
<!-- HITs/circle -->
<g id="node25" class="node"><title>HITs/circle</title>
<ellipse fill="none" stroke="black" cx="781.293" cy="-90" rx="51.9908" ry="18"/>
<text text-anchor="middle" x="781.293" y="-86.3" font-family="Times New Roman,serif" font-size="14.00">HITs/circle</text>
</g>
<!-- HITs/interval&#45;&gt;HITs/circle -->
<g id="edge40" class="edge"><title>HITs/interval&#45;&gt;HITs/circle</title>
<path fill="none" stroke="black" d="M592.345,-288.053C600.167,-268.329 615.541,-235.924 638.293,-216 669.466,-188.702 692.569,-206.656 724.293,-180 744.603,-162.935 760.152,-136.759 769.841,-117.206"/>
<polygon fill="black" stroke="black" points="773.114,-118.473 774.244,-107.939 766.791,-115.469 773.114,-118.473"/>
</g>
<!-- cubical/cubes -->
<g id="node38" class="node"><title>cubical/cubes</title>
<ellipse fill="none" stroke="black" cx="239.293" cy="-234" rx="60.3893" ry="18"/>
<text text-anchor="middle" x="239.293" y="-230.3" font-family="Times New Roman,serif" font-size="14.00">cubical/cubes</text>
</g>
<!-- HITs/interval&#45;&gt;cubical/cubes -->
<g id="edge41" class="edge"><title>HITs/interval&#45;&gt;cubical/cubes</title>
<path fill="none" stroke="black" d="M537.864,-296.114C483.211,-285.965 391.699,-268.612 313.293,-252 307.51,-250.775 301.483,-249.457 295.473,-248.117"/>
<polygon fill="black" stroke="black" points="295.949,-244.637 285.424,-245.853 294.411,-251.465 295.949,-244.637"/>
</g>
<!-- theorems/prop -->
<g id="node39" class="node"><title>theorems/prop</title>
<ellipse fill="none" stroke="black" cx="711.293" cy="-234" rx="63.8893" ry="18"/>
<text text-anchor="middle" x="711.293" y="-230.3" font-family="Times New Roman,serif" font-size="14.00">theorems/prop</text>
</g>
<!-- HITs/interval&#45;&gt;theorems/prop -->
<g id="edge42" class="edge"><title>HITs/interval&#45;&gt;theorems/prop</title>
<path fill="none" stroke="black" d="M613.109,-289.983C631.149,-279.88 655.155,-266.437 674.914,-255.372"/>
<polygon fill="black" stroke="black" points="676.642,-258.416 683.657,-250.476 673.222,-252.309 676.642,-258.416"/>
</g>
<!-- theorems/fibration -->
<g id="node40" class="node"><title>theorems/fibration</title>
<ellipse fill="none" stroke="black" cx="470.293" cy="-162" rx="76.8869" ry="18"/>
<text text-anchor="middle" x="470.293" y="-158.3" font-family="Times New Roman,serif" font-size="14.00">theorems/fibration</text>
</g>
<!-- HITs/interval&#45;&gt;theorems/fibration -->
<g id="edge43" class="edge"><title>HITs/interval&#45;&gt;theorems/fibration</title>
<path fill="none" stroke="black" d="M572.759,-288.433C552.524,-263.662 514.243,-216.801 490.632,-187.898"/>
<polygon fill="black" stroke="black" points="493.137,-185.432 484.1,-179.902 487.716,-189.86 493.137,-185.432"/>
</g>
<!-- HITs/merely&#45;&gt;theorems/prop -->
<g id="edge44" class="edge"><title>HITs/merely&#45;&gt;theorems/prop</title>
<path fill="none" stroke="black" d="M816.412,-290.326C796.817,-280.012 770.375,-266.096 748.914,-254.801"/>
<polygon fill="black" stroke="black" points="750.535,-251.699 740.056,-250.138 747.275,-257.893 750.535,-251.699"/>
</g>
<!-- HITs/simplicial -->
<g id="node42" class="node"><title>HITs/simplicial</title>
<ellipse fill="none" stroke="black" cx="991.293" cy="-234" rx="65.7887" ry="18"/>
<text text-anchor="middle" x="991.293" y="-230.3" font-family="Times New Roman,serif" font-size="14.00">HITs/simplicial</text>
</g>
<!-- HITs/merely&#45;&gt;HITs/simplicial -->
<g id="edge45" class="edge"><title>HITs/merely&#45;&gt;HITs/simplicial</title>
<path fill="none" stroke="black" d="M874.395,-290.666C896.419,-280.178 926.542,-265.834 950.693,-254.333"/>
<polygon fill="black" stroke="black" points="952.439,-257.379 959.963,-249.919 949.429,-251.059 952.439,-257.379"/>
</g>
<!-- theorems/functions -->
<g id="node43" class="node"><title>theorems/functions</title>
<ellipse fill="none" stroke="black" cx="1158.29" cy="-162" rx="79.8859" ry="18"/>
<text text-anchor="middle" x="1158.29" y="-158.3" font-family="Times New Roman,serif" font-size="14.00">theorems/functions</text>
</g>
<!-- HITs/merely&#45;&gt;theorems/functions -->
<g id="edge46" class="edge"><title>HITs/merely&#45;&gt;theorems/functions</title>
<path fill="none" stroke="black" d="M885.856,-293.929C893.634,-291.914 901.703,-289.862 909.293,-288 978.819,-270.941 1003.37,-286.14 1066.29,-252 1095.65,-236.072 1122.25,-208.171 1139.2,-187.845"/>
<polygon fill="black" stroke="black" points="1142.05,-189.892 1145.65,-179.926 1136.62,-185.474 1142.05,-189.892"/>
</g>
<!-- HITs/quotient -->
<g id="node37" class="node"><title>HITs/quotient</title>
<ellipse fill="none" stroke="black" cx="1248.29" cy="-234" rx="61.99" ry="18"/>
<text text-anchor="middle" x="1248.29" y="-230.3" font-family="Times New Roman,serif" font-size="14.00">HITs/quotient</text>
</g>
<!-- HITs/trunc&#45;&gt;HITs/quotient -->
<g id="edge51" class="edge"><title>HITs/trunc&#45;&gt;HITs/quotient</title>
<path fill="none" stroke="black" d="M1006.99,-293.869C1014.06,-291.86 1021.39,-289.826 1028.29,-288 1083.38,-273.436 1146.66,-258.363 1191.17,-248.033"/>
<polygon fill="black" stroke="black" points="1191.98,-251.437 1200.93,-245.772 1190.4,-244.618 1191.98,-251.437"/>
</g>
<!-- theorems/nat -->
<g id="node27" class="node"><title>theorems/nat</title>
<ellipse fill="none" stroke="black" cx="850.293" cy="-234" rx="57.3905" ry="18"/>
<text text-anchor="middle" x="850.293" y="-230.3" font-family="Times New Roman,serif" font-size="14.00">theorems/nat</text>
</g>
<!-- types/nat&#45;&gt;theorems/nat -->
<g id="edge23" class="edge"><title>types/nat&#45;&gt;theorems/nat</title>
<path fill="none" stroke="black" d="M1048.33,-294.068C1042.02,-292.02 1035.46,-289.92 1029.29,-288 986.017,-274.522 936.604,-259.953 900.674,-249.507"/>
<polygon fill="black" stroke="black" points="901.493,-246.1 890.913,-246.674 899.541,-252.823 901.493,-246.1"/>
</g>
<!-- theorems/ua&#45;&gt;theorems/nat -->
<g id="edge64" class="edge"><title>theorems/ua&#45;&gt;theorems/nat</title>
<path fill="none" stroke="black" d="M744.058,-290.496C764.047,-280.054 791.229,-265.854 813.094,-254.432"/>
<polygon fill="black" stroke="black" points="814.86,-257.459 822.103,-249.726 811.619,-251.254 814.86,-257.459"/>
</g>
<!-- cubical/V -->
<g id="node48" class="node"><title>cubical/V</title>
<ellipse fill="none" stroke="black" cx="366.293" cy="-90" rx="45.4919" ry="18"/>
<text text-anchor="middle" x="366.293" y="-86.3" font-family="Times New Roman,serif" font-size="14.00">cubical/V</text>
</g>
<!-- theorems/ua&#45;&gt;cubical/V -->
<g id="edge65" class="edge"><title>theorems/ua&#45;&gt;cubical/V</title>
<path fill="none" stroke="black" d="M678.137,-292.94C595.183,-266.396 404.227,-203.421 384.293,-180 369.81,-162.983 365.847,-137.524 365.194,-118.189"/>
<polygon fill="black" stroke="black" points="368.694,-118.146 365.127,-108.17 361.694,-118.194 368.694,-118.146"/>
</g>
<!-- algebra/group -->
<g id="node12" class="node"><title>algebra/group</title>
<ellipse fill="none" stroke="black" cx="1159.29" cy="-90" rx="60.3893" ry="18"/>
<text text-anchor="middle" x="1159.29" y="-86.3" font-family="Times New Roman,serif" font-size="14.00">algebra/group</text>
</g>
<!-- algebra/homology -->
<g id="node13" class="node"><title>algebra/homology</title>
<ellipse fill="none" stroke="black" cx="1161.29" cy="-18" rx="75.2868" ry="18"/>
<text text-anchor="middle" x="1161.29" y="-14.3" font-family="Times New Roman,serif" font-size="14.00">algebra/homology</text>
</g>
<!-- algebra/group&#45;&gt;algebra/homology -->
<g id="edge9" class="edge"><title>algebra/group&#45;&gt;algebra/homology</title>
<path fill="none" stroke="black" d="M1159.79,-71.6966C1160.01,-63.9827 1160.27,-54.7125 1160.52,-46.1124"/>
<polygon fill="black" stroke="black" points="1164.02,-46.2002 1160.8,-36.1043 1157.02,-46.0003 1164.02,-46.2002"/>
</g>
<!-- types/category -->
<g id="node14" class="node"><title>types/category</title>
<ellipse fill="none" stroke="black" cx="640.293" cy="-90" rx="63.8893" ry="18"/>
<text text-anchor="middle" x="640.293" y="-86.3" font-family="Times New Roman,serif" font-size="14.00">types/category</text>
</g>
<!-- types/coproduct&#45;&gt;structures -->
<g id="edge10" class="edge"><title>types/coproduct&#45;&gt;structures</title>
<path fill="none" stroke="black" d="M809.719,-503.911C801.979,-494.01 792.928,-480.968 787.293,-468 778.701,-448.227 773.871,-424.247 771.233,-406.162"/>
<polygon fill="black" stroke="black" points="774.671,-405.468 769.89,-396.014 767.732,-406.387 774.671,-405.468"/>
</g>
<!-- types/dedekind -->
<g id="node16" class="node"><title>types/dedekind</title>
<ellipse fill="none" stroke="black" cx="1002.29" cy="-18" rx="65.7887" ry="18"/>
<text text-anchor="middle" x="1002.29" y="-14.3" font-family="Times New Roman,serif" font-size="14.00">types/dedekind</text>
</g>
<!-- HITs/graph -->
<g id="node22" class="node"><title>HITs/graph</title>
<ellipse fill="none" stroke="black" cx="1117.29" cy="-450" rx="52.7911" ry="18"/>
<text text-anchor="middle" x="1117.29" y="-446.3" font-family="Times New Roman,serif" font-size="14.00">HITs/graph</text>
</g>
<!-- types/heq&#45;&gt;HITs/graph -->
<g id="edge18" class="edge"><title>types/heq&#45;&gt;HITs/graph</title>
<path fill="none" stroke="black" d="M1033.81,-582.584C1055.74,-574.469 1082.38,-560.984 1098.29,-540 1111.68,-522.345 1116.11,-497.321 1117.37,-478.302"/>
<polygon fill="black" stroke="black" points="1120.87,-478.304 1117.78,-468.169 1113.87,-478.017 1120.87,-478.304"/>
</g>
<!-- theorems/funext -->
<g id="node23" class="node"><title>theorems/funext</title>
<ellipse fill="none" stroke="black" cx="1020.29" cy="-522" rx="68.7879" ry="18"/>
<text text-anchor="middle" x="1020.29" y="-518.3" font-family="Times New Roman,serif" font-size="14.00">theorems/funext</text>
</g>
<!-- types/heq&#45;&gt;theorems/funext -->
<g id="edge19" class="edge"><title>types/heq&#45;&gt;theorems/funext</title>
<path fill="none" stroke="black" d="M1002.86,-576.055C1005.45,-568.176 1008.59,-558.617 1011.49,-549.794"/>
<polygon fill="black" stroke="black" points="1014.82,-550.868 1014.62,-540.275 1008.17,-548.683 1014.82,-550.868"/>
</g>
<!-- types/unit&#45;&gt;structures -->
<g id="edge28" class="edge"><title>types/unit&#45;&gt;structures</title>
<path fill="none" stroke="black" d="M950.067,-437.908C912.812,-425.835 853.123,-406.491 812.383,-393.289"/>
<polygon fill="black" stroke="black" points="813.308,-389.909 802.716,-390.155 811.15,-396.568 813.308,-389.909"/>
</g>
<!-- HITs/suspension -->
<g id="node30" class="node"><title>HITs/suspension</title>
<ellipse fill="none" stroke="black" cx="1215.29" cy="-306" rx="72.5877" ry="18"/>
<text text-anchor="middle" x="1215.29" y="-302.3" font-family="Times New Roman,serif" font-size="14.00">HITs/suspension</text>
</g>
<!-- types/unit&#45;&gt;HITs/suspension -->
<g id="edge29" class="edge"><title>types/unit&#45;&gt;HITs/suspension</title>
<path fill="none" stroke="black" d="M1020.5,-438.697C1048.29,-429.837 1086.93,-415.412 1117.29,-396 1136.89,-383.469 1138.13,-375.703 1155.29,-360 1166.08,-350.132 1178.13,-339.425 1188.59,-330.235"/>
<polygon fill="black" stroke="black" points="1191.01,-332.765 1196.23,-323.542 1186.4,-327.5 1191.01,-332.765"/>
</g>
<!-- types/sigma&#45;&gt;structures -->
<g id="edge27" class="edge"><title>types/sigma&#45;&gt;structures</title>
<path fill="none" stroke="black" d="M691.615,-504.153C706.723,-479.493 734.979,-433.374 752.65,-404.533"/>
<polygon fill="black" stroke="black" points="755.745,-406.18 757.985,-395.825 749.776,-402.523 755.745,-406.18"/>
</g>
<!-- HITs/colimit -->
<g id="node34" class="node"><title>HITs/colimit</title>
<ellipse fill="none" stroke="black" cx="1051.29" cy="-378" rx="56.59" ry="18"/>
<text text-anchor="middle" x="1051.29" y="-374.3" font-family="Times New Roman,serif" font-size="14.00">HITs/colimit</text>
</g>
<!-- HITs/graph&#45;&gt;HITs/colimit -->
<g id="edge36" class="edge"><title>HITs/graph&#45;&gt;HITs/colimit</title>
<path fill="none" stroke="black" d="M1101.99,-432.765C1093.69,-423.969 1083.28,-412.928 1074.06,-403.144"/>
<polygon fill="black" stroke="black" points="1076.38,-400.508 1066.98,-395.633 1071.29,-405.31 1076.38,-400.508"/>
</g>
<!-- HITs/generalized -->
<g id="node35" class="node"><title>HITs/generalized</title>
<ellipse fill="none" stroke="black" cx="904.293" cy="-378" rx="72.2875" ry="18"/>
<text text-anchor="middle" x="904.293" y="-374.3" font-family="Times New Roman,serif" font-size="14.00">HITs/generalized</text>
</g>
<!-- HITs/graph&#45;&gt;HITs/generalized -->
<g id="edge37" class="edge"><title>HITs/graph&#45;&gt;HITs/generalized</title>
<path fill="none" stroke="black" d="M1080.68,-436.967C1046.25,-425.651 994.368,-408.602 955.776,-395.919"/>
<polygon fill="black" stroke="black" points="956.863,-392.592 946.27,-392.795 954.677,-399.242 956.863,-392.592"/>
</g>
<!-- HITs/pushout -->
<g id="node36" class="node"><title>HITs/pushout</title>
<ellipse fill="none" stroke="black" cx="1226.29" cy="-378" rx="61.99" ry="18"/>
<text text-anchor="middle" x="1226.29" y="-374.3" font-family="Times New Roman,serif" font-size="14.00">HITs/pushout</text>
</g>
<!-- HITs/graph&#45;&gt;HITs/pushout -->
<g id="edge38" class="edge"><title>HITs/graph&#45;&gt;HITs/pushout</title>
<path fill="none" stroke="black" d="M1140.94,-433.811C1156.3,-423.95 1176.53,-410.959 1193.44,-400.1"/>
<polygon fill="black" stroke="black" points="1195.41,-402.993 1201.93,-394.644 1191.63,-397.103 1195.41,-402.993"/>
</g>
<!-- HITs/graph&#45;&gt;HITs/quotient -->
<g id="edge39" class="edge"><title>HITs/graph&#45;&gt;HITs/quotient</title>
<path fill="none" stroke="black" d="M1164.13,-441.673C1211.92,-433.126 1281.29,-417.391 1297.29,-396 1326.04,-357.563 1314.79,-332.698 1297.29,-288 1292.88,-276.718 1284.81,-266.399 1276.47,-257.924"/>
<polygon fill="black" stroke="black" points="1278.83,-255.33 1269.17,-250.973 1274,-260.401 1278.83,-255.33"/>
</g>
<!-- types/product -->
<g id="node29" class="node"><title>types/product</title>
<ellipse fill="none" stroke="black" cx="858.293" cy="-450" rx="61.99" ry="18"/>
<text text-anchor="middle" x="858.293" y="-446.3" font-family="Times New Roman,serif" font-size="14.00">types/product</text>
</g>
<!-- theorems/funext&#45;&gt;types/product -->
<g id="edge59" class="edge"><title>theorems/funext&#45;&gt;types/product</title>
<path fill="none" stroke="black" d="M986.332,-506.326C961.46,-495.578 927.532,-480.918 900.85,-469.389"/>
<polygon fill="black" stroke="black" points="901.946,-466.049 891.378,-465.296 899.169,-472.475 901.946,-466.049"/>
</g>
<!-- types/integer -->
<g id="node24" class="node"><title>types/integer</title>
<ellipse fill="none" stroke="black" cx="1004.29" cy="-162" rx="56.59" ry="18"/>
<text text-anchor="middle" x="1004.29" y="-158.3" font-family="Times New Roman,serif" font-size="14.00">types/integer</text>
</g>
<!-- types/integer&#45;&gt;algebra/group -->
<g id="edge20" class="edge"><title>types/integer&#45;&gt;algebra/group</title>
<path fill="none" stroke="black" d="M1035.66,-146.834C1059.45,-136.089 1092.37,-121.225 1118.25,-109.535"/>
<polygon fill="black" stroke="black" points="1119.77,-112.69 1127.44,-105.385 1116.89,-106.311 1119.77,-112.69"/>
</g>
<!-- types/integer&#45;&gt;HITs/circle -->
<g id="edge21" class="edge"><title>types/integer&#45;&gt;HITs/circle</title>
<path fill="none" stroke="black" d="M965.449,-148.807C927.291,-136.829 869.024,-118.539 828.279,-105.749"/>
<polygon fill="black" stroke="black" points="829.168,-102.36 818.579,-102.704 827.072,-109.038 829.168,-102.36"/>
</g>
<!-- types/rational -->
<g id="node26" class="node"><title>types/rational</title>
<ellipse fill="none" stroke="black" cx="1003.29" cy="-90" rx="59.2899" ry="18"/>
<text text-anchor="middle" x="1003.29" y="-86.3" font-family="Times New Roman,serif" font-size="14.00">types/rational</text>
</g>
<!-- types/integer&#45;&gt;types/rational -->
<g id="edge22" class="edge"><title>types/integer&#45;&gt;types/rational</title>
<path fill="none" stroke="black" d="M1004.05,-143.697C1003.94,-135.983 1003.8,-126.712 1003.68,-118.112"/>
<polygon fill="black" stroke="black" points="1007.18,-118.053 1003.54,-108.104 1000.18,-118.153 1007.18,-118.053"/>
</g>
<!-- theorems/hopf -->
<g id="node31" class="node"><title>theorems/hopf</title>
<ellipse fill="none" stroke="black" cx="537.293" cy="-18" rx="63.8893" ry="18"/>
<text text-anchor="middle" x="537.293" y="-14.3" font-family="Times New Roman,serif" font-size="14.00">theorems/hopf</text>
</g>
<!-- HITs/circle&#45;&gt;theorems/hopf -->
<g id="edge30" class="edge"><title>HITs/circle&#45;&gt;theorems/hopf</title>
<path fill="none" stroke="black" d="M742.63,-77.9083C701.442,-66.092 635.979,-47.3116 590.067,-34.14"/>
<polygon fill="black" stroke="black" points="590.871,-30.7296 580.293,-31.3362 588.94,-37.4582 590.871,-30.7296"/>
</g>
<!-- HITs/moebius -->
<g id="node32" class="node"><title>HITs/moebius</title>
<ellipse fill="none" stroke="black" cx="721.293" cy="-18" rx="63.0888" ry="18"/>
<text text-anchor="middle" x="721.293" y="-14.3" font-family="Times New Roman,serif" font-size="14.00">HITs/moebius</text>
</g>
<!-- HITs/circle&#45;&gt;HITs/moebius -->
<g id="edge31" class="edge"><title>HITs/circle&#45;&gt;HITs/moebius</title>
<path fill="none" stroke="black" d="M767.074,-72.411C759.71,-63.8197 750.572,-53.1594 742.402,-43.6275"/>
<polygon fill="black" stroke="black" points="744.992,-41.271 735.827,-35.9562 739.677,-45.8266 744.992,-41.271"/>
</g>
<!-- HITs/reals -->
<g id="node33" class="node"><title>HITs/reals</title>
<ellipse fill="none" stroke="black" cx="851.293" cy="-18" rx="48.9926" ry="18"/>
<text text-anchor="middle" x="851.293" y="-14.3" font-family="Times New Roman,serif" font-size="14.00">HITs/reals</text>
</g>
<!-- HITs/circle&#45;&gt;HITs/reals -->
<g id="edge32" class="edge"><title>HITs/circle&#45;&gt;HITs/reals</title>
<path fill="none" stroke="black" d="M797.528,-72.7646C806.54,-63.7531 817.908,-52.3852 827.867,-42.4261"/>
<polygon fill="black" stroke="black" points="830.549,-44.6933 835.146,-35.1473 825.6,-39.7435 830.549,-44.6933"/>
</g>
<!-- types/rational&#45;&gt;types/dedekind -->
<g id="edge26" class="edge"><title>types/rational&#45;&gt;types/dedekind</title>
<path fill="none" stroke="black" d="M1003.05,-71.6966C1002.94,-63.9827 1002.8,-54.7125 1002.68,-46.1124"/>
<polygon fill="black" stroke="black" points="1006.18,-46.0533 1002.54,-36.1043 999.181,-46.1533 1006.18,-46.0533"/>
</g>
<!-- theorems/nat&#45;&gt;types/integer -->
<g id="edge60" class="edge"><title>theorems/nat&#45;&gt;types/integer</title>
<path fill="none" stroke="black" d="M881.457,-218.834C905.253,-208.018 938.232,-193.028 964.027,-181.303"/>
<polygon fill="black" stroke="black" points="965.52,-184.469 973.175,-177.144 962.623,-178.096 965.52,-184.469"/>
</g>
<!-- HITs/int -->
<g id="node49" class="node"><title>HITs/int</title>
<ellipse fill="none" stroke="black" cx="850.293" cy="-162" rx="40.8928" ry="18"/>
<text text-anchor="middle" x="850.293" y="-158.3" font-family="Times New Roman,serif" font-size="14.00">HITs/int</text>
</g>
<!-- theorems/nat&#45;&gt;HITs/int -->
<g id="edge61" class="edge"><title>theorems/nat&#45;&gt;HITs/int</title>
<path fill="none" stroke="black" d="M850.293,-215.697C850.293,-207.983 850.293,-198.712 850.293,-190.112"/>
<polygon fill="black" stroke="black" points="853.793,-190.104 850.293,-180.104 846.793,-190.104 853.793,-190.104"/>
</g>
<!-- types/precategory -->
<g id="node28" class="node"><title>types/precategory</title>
<ellipse fill="none" stroke="black" cx="640.293" cy="-162" rx="75.2868" ry="18"/>
<text text-anchor="middle" x="640.293" y="-158.3" font-family="Times New Roman,serif" font-size="14.00">types/precategory</text>
</g>
<!-- types/precategory&#45;&gt;types/category -->
<g id="edge24" class="edge"><title>types/precategory&#45;&gt;types/category</title>
<path fill="none" stroke="black" d="M640.293,-143.697C640.293,-135.983 640.293,-126.712 640.293,-118.112"/>
<polygon fill="black" stroke="black" points="643.793,-118.104 640.293,-108.104 636.793,-118.104 643.793,-118.104"/>
</g>
<!-- types/product&#45;&gt;structures -->
<g id="edge25" class="edge"><title>types/product&#45;&gt;structures</title>
<path fill="none" stroke="black" d="M837.419,-432.765C825.12,-423.199 809.408,-410.978 796.072,-400.606"/>
<polygon fill="black" stroke="black" points="798.17,-397.803 788.127,-394.427 793.872,-403.329 798.17,-397.803"/>
</g>
<!-- HITs/suspension&#45;&gt;HITs/circle -->
<g id="edge49" class="edge"><title>HITs/suspension&#45;&gt;HITs/circle</title>
<path fill="none" stroke="black" d="M1192.58,-288.815C1164.2,-269.233 1113.62,-236.363 1066.29,-216 1012.01,-192.644 989.687,-209.172 938.293,-180 918.061,-168.516 919.641,-156.918 900.293,-144 877.499,-128.781 849.618,-116.094 826.575,-106.952"/>
<polygon fill="black" stroke="black" points="827.613,-103.601 817.024,-103.254 825.086,-110.129 827.613,-103.601"/>
</g>
<!-- HITs/join -->
<g id="node41" class="node"><title>HITs/join</title>
<ellipse fill="none" stroke="black" cx="1373.29" cy="-234" rx="45.4919" ry="18"/>
<text text-anchor="middle" x="1373.29" y="-230.3" font-family="Times New Roman,serif" font-size="14.00">HITs/join</text>
</g>
<!-- HITs/suspension&#45;&gt;HITs/join -->
<g id="edge50" class="edge"><title>HITs/suspension&#45;&gt;HITs/join</title>
<path fill="none" stroke="black" d="M1249.19,-289.983C1274.38,-278.82 1308.79,-263.579 1334.98,-251.974"/>
<polygon fill="black" stroke="black" points="1336.5,-255.128 1344.23,-247.877 1333.67,-248.728 1336.5,-255.128"/>
</g>
<!-- HITs/colimit&#45;&gt;HITs/merely -->
<g id="edge33" class="edge"><title>HITs/colimit&#45;&gt;HITs/merely</title>
<path fill="none" stroke="black" d="M1013.81,-364.324C979.369,-352.678 928.196,-335.373 891.089,-322.825"/>
<polygon fill="black" stroke="black" points="892.094,-319.47 881.5,-319.582 889.852,-326.101 892.094,-319.47"/>
</g>
<!-- HITs/colimit&#45;&gt;types/nat -->
<g id="edge34" class="edge"><title>HITs/colimit&#45;&gt;types/nat</title>
<path fill="none" stroke="black" d="M1058.56,-360.055C1062.02,-351.973 1066.24,-342.121 1070.1,-333.112"/>
<polygon fill="black" stroke="black" points="1073.38,-334.359 1074.1,-323.789 1066.94,-331.602 1073.38,-334.359"/>
</g>
<!-- HITs/generalized&#45;&gt;HITs/merely -->
<g id="edge35" class="edge"><title>HITs/generalized&#45;&gt;HITs/merely</title>
<path fill="none" stroke="black" d="M889.769,-360.055C882.399,-351.457 873.313,-340.857 865.205,-331.397"/>
<polygon fill="black" stroke="black" points="867.849,-329.104 858.684,-323.789 862.534,-333.659 867.849,-329.104"/>
</g>
<!-- HITs/pushout&#45;&gt;HITs/suspension -->
<g id="edge47" class="edge"><title>HITs/pushout&#45;&gt;HITs/suspension</title>
<path fill="none" stroke="black" d="M1223.57,-359.697C1222.36,-351.983 1220.9,-342.712 1219.55,-334.112"/>
<polygon fill="black" stroke="black" points="1222.99,-333.44 1217.98,-324.104 1216.08,-334.526 1222.99,-333.44"/>
</g>
<!-- HITs/quotient&#45;&gt;algebra/group -->
<g id="edge48" class="edge"><title>HITs/quotient&#45;&gt;algebra/group</title>
<path fill="none" stroke="black" d="M1252.73,-215.988C1256.67,-197.074 1260.04,-166.261 1247.29,-144 1238.33,-128.345 1222.71,-116.787 1207.1,-108.532"/>
<polygon fill="black" stroke="black" points="1208.47,-105.309 1197.95,-104.048 1205.39,-111.594 1208.47,-105.309"/>
</g>
<!-- cubical/path -->
<g id="node45" class="node"><title>cubical/path</title>
<ellipse fill="none" stroke="black" cx="239.293" cy="-162" rx="54.6905" ry="18"/>
<text text-anchor="middle" x="239.293" y="-158.3" font-family="Times New Roman,serif" font-size="14.00">cubical/path</text>
</g>
<!-- cubical/cubes&#45;&gt;cubical/path -->
<g id="edge52" class="edge"><title>cubical/cubes&#45;&gt;cubical/path</title>
<path fill="none" stroke="black" d="M239.293,-215.697C239.293,-207.983 239.293,-198.712 239.293,-190.112"/>
<polygon fill="black" stroke="black" points="242.793,-190.104 239.293,-180.104 235.793,-190.104 242.793,-190.104"/>
</g>
<!-- theorems/prop&#45;&gt;HITs/circle -->
<g id="edge62" class="edge"><title>theorems/prop&#45;&gt;HITs/circle</title>
<path fill="none" stroke="black" d="M729.252,-216.363C738.824,-206.603 750.08,-193.552 757.293,-180 767.601,-160.633 773.751,-136.485 777.241,-118.231"/>
<polygon fill="black" stroke="black" points="780.712,-118.7 779,-108.245 773.818,-117.486 780.712,-118.7"/>
</g>
<!-- theorems/prop&#45;&gt;types/precategory -->
<g id="edge63" class="edge"><title>theorems/prop&#45;&gt;types/precategory</title>
<path fill="none" stroke="black" d="M694.467,-216.411C685.579,-207.648 674.507,-196.732 664.694,-187.057"/>
<polygon fill="black" stroke="black" points="667.07,-184.485 657.491,-179.956 662.155,-189.469 667.07,-184.485"/>
</g>
<!-- theorems/fibration&#45;&gt;theorems/hopf -->
<g id="edge57" class="edge"><title>theorems/fibration&#45;&gt;theorems/hopf</title>
<path fill="none" stroke="black" d="M478.375,-143.871C489.945,-119.35 511.327,-74.0321 524.903,-45.2589"/>
<polygon fill="black" stroke="black" points="528.081,-46.7267 529.183,-36.1893 521.75,-43.7396 528.081,-46.7267"/>
</g>
<!-- theorems/functions&#45;&gt;algebra/group -->
<g id="edge58" class="edge"><title>theorems/functions&#45;&gt;algebra/group</title>
<path fill="none" stroke="black" d="M1158.54,-143.697C1158.65,-135.983 1158.78,-126.712 1158.91,-118.112"/>
<polygon fill="black" stroke="black" points="1162.41,-118.153 1159.05,-108.104 1155.41,-118.053 1162.41,-118.153"/>
</g>
<!-- cubical/connection -->
<g id="node44" class="node"><title>cubical/connection</title>
<ellipse fill="none" stroke="black" cx="79.293" cy="-90" rx="79.0865" ry="18"/>
<text text-anchor="middle" x="79.293" y="-86.3" font-family="Times New Roman,serif" font-size="14.00">cubical/connection</text>
</g>
<!-- cubical/path&#45;&gt;cubical/connection -->
<g id="edge53" class="edge"><title>cubical/path&#45;&gt;cubical/connection</title>
<path fill="none" stroke="black" d="M207.682,-147.17C183.673,-136.666 150.351,-122.088 123.67,-110.415"/>
<polygon fill="black" stroke="black" points="124.735,-107.061 114.171,-106.259 121.93,-113.474 124.735,-107.061"/>
</g>
<!-- cubical/square -->
<g id="node47" class="node"><title>cubical/square</title>
<ellipse fill="none" stroke="black" cx="239.293" cy="-90" rx="63.0888" ry="18"/>
<text text-anchor="middle" x="239.293" y="-86.3" font-family="Times New Roman,serif" font-size="14.00">cubical/square</text>
</g>
<!-- cubical/path&#45;&gt;cubical/square -->
<g id="edge54" class="edge"><title>cubical/path&#45;&gt;cubical/square</title>
<path fill="none" stroke="black" d="M239.293,-143.697C239.293,-135.983 239.293,-126.712 239.293,-118.112"/>
<polygon fill="black" stroke="black" points="242.793,-118.104 239.293,-108.104 235.793,-118.104 242.793,-118.104"/>
</g>
<!-- cubical/path&#45;&gt;cubical/V -->
<g id="edge55" class="edge"><title>cubical/path&#45;&gt;cubical/V</title>
<path fill="none" stroke="black" d="M266.226,-146.155C285.381,-135.597 311.27,-121.328 331.915,-109.948"/>
<polygon fill="black" stroke="black" points="333.629,-113 340.698,-105.108 330.25,-106.87 333.629,-113"/>
</g>
<!-- cubical/example -->
<g id="node46" class="node"><title>cubical/example</title>
<ellipse fill="none" stroke="black" cx="366.293" cy="-18" rx="68.7879" ry="18"/>
<text text-anchor="middle" x="366.293" y="-14.3" font-family="Times New Roman,serif" font-size="14.00">cubical/example</text>
</g>
<!-- cubical/V&#45;&gt;cubical/example -->
<g id="edge56" class="edge"><title>cubical/V&#45;&gt;cubical/example</title>
<path fill="none" stroke="black" d="M366.293,-71.6966C366.293,-63.9827 366.293,-54.7125 366.293,-46.1124"/>
<polygon fill="black" stroke="black" points="369.793,-46.1043 366.293,-36.1043 362.793,-46.1044 369.793,-46.1043"/>
</g>
</g>
</svg>
