<?xml version="1.0" encoding="UTF-8" standalone="no"?>
<!DOCTYPE svg PUBLIC "-//W3C//DTD SVG 1.1//EN"
 "http://www.w3.org/Graphics/SVG/1.1/DTD/svg11.dtd">
<!-- Generated by graphviz version 2.38.0 (20140413.2041)
 -->
<!-- Title: dependency_map Pages: 1 -->
<svg width="1269pt" height="908pt"
 viewBox="0.00 0.00 1269.19 908.00" xmlns="http://www.w3.org/2000/svg" xmlns:xlink="http://www.w3.org/1999/xlink">
<g id="graph0" class="graph" transform="scale(1 1) rotate(0) translate(4 904)">
<title>dependency_map</title>
<polygon fill="white" stroke="none" points="-4,4 -4,-904 1265.19,-904 1265.19,4 -4,4"/>
<!-- proto -->
<g id="node1" class="node"><title>proto</title>
<ellipse fill="none" stroke="black" cx="824.693" cy="-882" rx="30.5947" ry="18"/>
<text text-anchor="middle" x="824.693" y="-878.3" font-family="Times New Roman,serif" font-size="14.00">proto</text>
</g>
<!-- types/eq -->
<g id="node2" class="node"><title>types/eq</title>
<ellipse fill="none" stroke="black" cx="884.693" cy="-810" rx="41.6928" ry="18"/>
<text text-anchor="middle" x="884.693" y="-806.3" font-family="Times New Roman,serif" font-size="14.00">types/eq</text>
</g>
<!-- proto&#45;&gt;types/eq -->
<g id="edge1" class="edge"><title>proto&#45;&gt;types/eq</title>
<path fill="none" stroke="black" d="M838.009,-865.465C845.637,-856.566 855.375,-845.205 863.981,-835.164"/>
<polygon fill="black" stroke="black" points="866.728,-837.338 870.578,-827.467 861.413,-832.782 866.728,-837.338"/>
</g>
<!-- support -->
<g id="node4" class="node"><title>support</title>
<ellipse fill="none" stroke="black" cx="884.693" cy="-738" rx="38.9931" ry="18"/>
<text text-anchor="middle" x="884.693" y="-734.3" font-family="Times New Roman,serif" font-size="14.00">support</text>
</g>
<!-- types/eq&#45;&gt;support -->
<g id="edge11" class="edge"><title>types/eq&#45;&gt;support</title>
<path fill="none" stroke="black" d="M884.693,-791.697C884.693,-783.983 884.693,-774.712 884.693,-766.112"/>
<polygon fill="black" stroke="black" points="888.193,-766.104 884.693,-756.104 881.193,-766.104 888.193,-766.104"/>
</g>
<!-- meta/hott_theory -->
<g id="node3" class="node"><title>meta/hott_theory</title>
<ellipse fill="none" stroke="black" cx="945.693" cy="-882" rx="72.2875" ry="18"/>
<text text-anchor="middle" x="945.693" y="-878.3" font-family="Times New Roman,serif" font-size="14.00">meta/hott_theory</text>
</g>
<!-- meta/hott_theory&#45;&gt;types/eq -->
<g id="edge2" class="edge"><title>meta/hott_theory&#45;&gt;types/eq</title>
<path fill="none" stroke="black" d="M930.927,-864.055C923.324,-855.33 913.925,-844.544 905.591,-834.981"/>
<polygon fill="black" stroke="black" points="908.112,-832.547 898.904,-827.307 902.835,-837.146 908.112,-832.547"/>
</g>
<!-- types/equiv -->
<g id="node5" class="node"><title>types/equiv</title>
<ellipse fill="none" stroke="black" cx="884.693" cy="-666" rx="51.9908" ry="18"/>
<text text-anchor="middle" x="884.693" y="-662.3" font-family="Times New Roman,serif" font-size="14.00">types/equiv</text>
</g>
<!-- support&#45;&gt;types/equiv -->
<g id="edge3" class="edge"><title>support&#45;&gt;types/equiv</title>
<path fill="none" stroke="black" d="M884.693,-719.697C884.693,-711.983 884.693,-702.712 884.693,-694.112"/>
<polygon fill="black" stroke="black" points="888.193,-694.104 884.693,-684.104 881.193,-694.104 888.193,-694.104"/>
</g>
<!-- types/coproduct -->
<g id="node15" class="node"><title>types/coproduct</title>
<ellipse fill="none" stroke="black" cx="592.693" cy="-522" rx="70.6878" ry="18"/>
<text text-anchor="middle" x="592.693" y="-518.3" font-family="Times New Roman,serif" font-size="14.00">types/coproduct</text>
</g>
<!-- types/equiv&#45;&gt;types/coproduct -->
<g id="edge12" class="edge"><title>types/equiv&#45;&gt;types/coproduct</title>
<path fill="none" stroke="black" d="M855.896,-650.996C803.588,-625.558 692.861,-571.712 633.049,-542.625"/>
<polygon fill="black" stroke="black" points="634.428,-539.404 623.904,-538.178 631.366,-545.699 634.428,-539.404"/>
</g>
<!-- types/heq -->
<g id="node17" class="node"><title>types/heq</title>
<ellipse fill="none" stroke="black" cx="921.693" cy="-594" rx="46.2923" ry="18"/>
<text text-anchor="middle" x="921.693" y="-590.3" font-family="Times New Roman,serif" font-size="14.00">types/heq</text>
</g>
<!-- types/equiv&#45;&gt;types/heq -->
<g id="edge13" class="edge"><title>types/equiv&#45;&gt;types/heq</title>
<path fill="none" stroke="black" d="M893.65,-648.055C897.967,-639.887 903.24,-629.912 908.043,-620.824"/>
<polygon fill="black" stroke="black" points="911.24,-622.266 912.819,-611.789 905.052,-618.994 911.24,-622.266"/>
</g>
<!-- HITs/infinitesimal -->
<g id="node18" class="node"><title>HITs/infinitesimal</title>
<ellipse fill="none" stroke="black" cx="1060.69" cy="-594" rx="74.9875" ry="18"/>
<text text-anchor="middle" x="1060.69" y="-590.3" font-family="Times New Roman,serif" font-size="14.00">HITs/infinitesimal</text>
</g>
<!-- types/equiv&#45;&gt;HITs/infinitesimal -->
<g id="edge14" class="edge"><title>types/equiv&#45;&gt;HITs/infinitesimal</title>
<path fill="none" stroke="black" d="M917.385,-651.998C944.565,-641.187 983.582,-625.669 1014.04,-613.554"/>
<polygon fill="black" stroke="black" points="1015.61,-616.698 1023.61,-609.75 1013.02,-610.194 1015.61,-616.698"/>
</g>
<!-- types/lost -->
<g id="node19" class="node"><title>types/lost</title>
<ellipse fill="none" stroke="black" cx="1199.69" cy="-594" rx="46.2923" ry="18"/>
<text text-anchor="middle" x="1199.69" y="-590.3" font-family="Times New Roman,serif" font-size="14.00">types/lost</text>
</g>
<!-- types/equiv&#45;&gt;types/lost -->
<g id="edge15" class="edge"><title>types/equiv&#45;&gt;types/lost</title>
<path fill="none" stroke="black" d="M930.093,-657.15C982.226,-647.811 1070.16,-631.066 1144.69,-612 1148.29,-611.079 1152.01,-610.067 1155.73,-609.009"/>
<polygon fill="black" stroke="black" points="1156.91,-612.312 1165.51,-606.136 1154.93,-605.595 1156.91,-612.312"/>
</g>
<!-- types/unit -->
<g id="node20" class="node"><title>types/unit</title>
<ellipse fill="none" stroke="black" cx="808.693" cy="-450" rx="46.2923" ry="18"/>
<text text-anchor="middle" x="808.693" y="-446.3" font-family="Times New Roman,serif" font-size="14.00">types/unit</text>
</g>
<!-- types/equiv&#45;&gt;types/unit -->
<g id="edge16" class="edge"><title>types/equiv&#45;&gt;types/unit</title>
<path fill="none" stroke="black" d="M878.952,-648.027C868.968,-618.616 847.655,-556.306 828.693,-504 825.561,-495.361 822.051,-485.968 818.856,-477.522"/>
<polygon fill="black" stroke="black" points="822.117,-476.248 815.292,-468.144 815.573,-478.735 822.117,-476.248"/>
</g>
<!-- types/sigma -->
<g id="node21" class="node"><title>types/sigma</title>
<ellipse fill="none" stroke="black" cx="449.693" cy="-522" rx="53.8905" ry="18"/>
<text text-anchor="middle" x="449.693" y="-518.3" font-family="Times New Roman,serif" font-size="14.00">types/sigma</text>
</g>
<!-- types/equiv&#45;&gt;types/sigma -->
<g id="edge17" class="edge"><title>types/equiv&#45;&gt;types/sigma</title>
<path fill="none" stroke="black" d="M845.003,-654.312C807.596,-644.064 750.071,-627.85 700.693,-612 627.437,-588.486 543.362,-557.936 493.486,-539.432"/>
<polygon fill="black" stroke="black" points="494.573,-536.103 483.98,-535.898 492.134,-542.664 494.573,-536.103"/>
</g>
<!-- structures -->
<g id="node6" class="node"><title>structures</title>
<ellipse fill="none" stroke="black" cx="602.693" cy="-378" rx="46.2923" ry="18"/>
<text text-anchor="middle" x="602.693" y="-374.3" font-family="Times New Roman,serif" font-size="14.00">structures</text>
</g>
<!-- HITs/interval -->
<g id="node7" class="node"><title>HITs/interval</title>
<ellipse fill="none" stroke="black" cx="359.693" cy="-306" rx="57.6901" ry="18"/>
<text text-anchor="middle" x="359.693" y="-302.3" font-family="Times New Roman,serif" font-size="14.00">HITs/interval</text>
</g>
<!-- structures&#45;&gt;HITs/interval -->
<g id="edge4" class="edge"><title>structures&#45;&gt;HITs/interval</title>
<path fill="none" stroke="black" d="M566.576,-366.596C525.226,-354.684 457.198,-335.088 410.514,-321.64"/>
<polygon fill="black" stroke="black" points="411.471,-318.273 400.893,-318.868 409.533,-325 411.471,-318.273"/>
</g>
<!-- HITs/merely -->
<g id="node8" class="node"><title>HITs/merely</title>
<ellipse fill="none" stroke="black" cx="783.693" cy="-306" rx="55.7903" ry="18"/>
<text text-anchor="middle" x="783.693" y="-302.3" font-family="Times New Roman,serif" font-size="14.00">HITs/merely</text>
</g>
<!-- structures&#45;&gt;HITs/merely -->
<g id="edge5" class="edge"><title>structures&#45;&gt;HITs/merely</title>
<path fill="none" stroke="black" d="M634.221,-364.807C663.41,-353.518 707.095,-336.623 739.711,-324.01"/>
<polygon fill="black" stroke="black" points="741.385,-327.115 749.449,-320.244 738.86,-320.586 741.385,-327.115"/>
</g>
<!-- HITs/trunc -->
<g id="node9" class="node"><title>HITs/trunc</title>
<ellipse fill="none" stroke="black" cx="908.693" cy="-306" rx="50.8918" ry="18"/>
<text text-anchor="middle" x="908.693" y="-302.3" font-family="Times New Roman,serif" font-size="14.00">HITs/trunc</text>
</g>
<!-- structures&#45;&gt;HITs/trunc -->
<g id="edge6" class="edge"><title>structures&#45;&gt;HITs/trunc</title>
<path fill="none" stroke="black" d="M636.851,-365.784C643.714,-363.718 650.903,-361.684 657.693,-360 741.538,-339.212 764.608,-343.794 848.693,-324 852.784,-323.037 857.013,-321.975 861.245,-320.867"/>
<polygon fill="black" stroke="black" points="862.316,-324.203 871.06,-318.221 860.494,-317.445 862.316,-324.203"/>
</g>
<!-- types/nat -->
<g id="node10" class="node"><title>types/nat</title>
<ellipse fill="none" stroke="black" cx="666.693" cy="-306" rx="43.5923" ry="18"/>
<text text-anchor="middle" x="666.693" y="-302.3" font-family="Times New Roman,serif" font-size="14.00">types/nat</text>
</g>
<!-- structures&#45;&gt;types/nat -->
<g id="edge7" class="edge"><title>structures&#45;&gt;types/nat</title>
<path fill="none" stroke="black" d="M617.537,-360.765C625.695,-351.841 635.966,-340.608 645.007,-330.719"/>
<polygon fill="black" stroke="black" points="647.765,-332.889 651.93,-323.147 642.599,-328.166 647.765,-332.889"/>
</g>
<!-- theorems/ua -->
<g id="node11" class="node"><title>theorems/ua</title>
<ellipse fill="none" stroke="black" cx="550.693" cy="-306" rx="54.6905" ry="18"/>
<text text-anchor="middle" x="550.693" y="-302.3" font-family="Times New Roman,serif" font-size="14.00">theorems/ua</text>
</g>
<!-- structures&#45;&gt;theorems/ua -->
<g id="edge8" class="edge"><title>structures&#45;&gt;theorems/ua</title>
<path fill="none" stroke="black" d="M590.37,-360.411C584.115,-351.992 576.385,-341.585 569.414,-332.201"/>
<polygon fill="black" stroke="black" points="572.062,-329.897 563.289,-323.956 566.443,-334.071 572.062,-329.897"/>
</g>
<!-- cubical/cubes -->
<g id="node38" class="node"><title>cubical/cubes</title>
<ellipse fill="none" stroke="black" cx="318.693" cy="-234" rx="60.3893" ry="18"/>
<text text-anchor="middle" x="318.693" y="-230.3" font-family="Times New Roman,serif" font-size="14.00">cubical/cubes</text>
</g>
<!-- HITs/interval&#45;&gt;cubical/cubes -->
<g id="edge40" class="edge"><title>HITs/interval&#45;&gt;cubical/cubes</title>
<path fill="none" stroke="black" d="M349.768,-288.055C344.934,-279.801 339.018,-269.701 333.651,-260.538"/>
<polygon fill="black" stroke="black" points="336.601,-258.649 328.527,-251.789 330.561,-262.187 336.601,-258.649"/>
</g>
<!-- theorems/prop -->
<g id="node39" class="node"><title>theorems/prop</title>
<ellipse fill="none" stroke="black" cx="527.693" cy="-234" rx="63.8893" ry="18"/>
<text text-anchor="middle" x="527.693" y="-230.3" font-family="Times New Roman,serif" font-size="14.00">theorems/prop</text>
</g>
<!-- HITs/interval&#45;&gt;theorems/prop -->
<g id="edge41" class="edge"><title>HITs/interval&#45;&gt;theorems/prop</title>
<path fill="none" stroke="black" d="M392.885,-291.17C419.002,-280.288 455.617,-265.032 484.098,-253.165"/>
<polygon fill="black" stroke="black" points="485.533,-256.359 493.417,-249.282 482.84,-249.897 485.533,-256.359"/>
</g>
<!-- theorems/fibration -->
<g id="node40" class="node"><title>theorems/fibration</title>
<ellipse fill="none" stroke="black" cx="76.6932" cy="-162" rx="76.8869" ry="18"/>
<text text-anchor="middle" x="76.6932" y="-158.3" font-family="Times New Roman,serif" font-size="14.00">theorems/fibration</text>
</g>
<!-- HITs/interval&#45;&gt;theorems/fibration -->
<g id="edge42" class="edge"><title>HITs/interval&#45;&gt;theorems/fibration</title>
<path fill="none" stroke="black" d="M329.241,-290.59C307.101,-280.05 276.448,-265.325 249.693,-252 203.344,-228.917 150.468,-201.564 115.503,-183.333"/>
<polygon fill="black" stroke="black" points="117.06,-180.198 106.576,-178.674 113.821,-186.404 117.06,-180.198"/>
</g>
<!-- HITs/merely&#45;&gt;theorems/prop -->
<g id="edge43" class="edge"><title>HITs/merely&#45;&gt;theorems/prop</title>
<path fill="none" stroke="black" d="M742.562,-293.753C698.886,-281.811 629.66,-262.881 581.635,-249.75"/>
<polygon fill="black" stroke="black" points="582.295,-246.302 571.726,-247.04 580.449,-253.054 582.295,-246.302"/>
</g>
<!-- HITs/simplicial -->
<g id="node42" class="node"><title>HITs/simplicial</title>
<ellipse fill="none" stroke="black" cx="807.693" cy="-234" rx="65.7887" ry="18"/>
<text text-anchor="middle" x="807.693" y="-230.3" font-family="Times New Roman,serif" font-size="14.00">HITs/simplicial</text>
</g>
<!-- HITs/merely&#45;&gt;HITs/simplicial -->
<g id="edge44" class="edge"><title>HITs/merely&#45;&gt;HITs/simplicial</title>
<path fill="none" stroke="black" d="M789.503,-288.055C792.204,-280.176 795.482,-270.617 798.507,-261.794"/>
<polygon fill="black" stroke="black" points="801.838,-262.87 801.77,-252.275 795.216,-260.6 801.838,-262.87"/>
</g>
<!-- theorems/functions -->
<g id="node43" class="node"><title>theorems/functions</title>
<ellipse fill="none" stroke="black" cx="1009.69" cy="-162" rx="79.8859" ry="18"/>
<text text-anchor="middle" x="1009.69" y="-158.3" font-family="Times New Roman,serif" font-size="14.00">theorems/functions</text>
</g>
<!-- HITs/merely&#45;&gt;theorems/functions -->
<g id="edge45" class="edge"><title>HITs/merely&#45;&gt;theorems/functions</title>
<path fill="none" stroke="black" d="M812.797,-290.583C832.799,-280.394 859.777,-266.094 882.693,-252 916.896,-230.964 954.351,-204.232 979.66,-185.58"/>
<polygon fill="black" stroke="black" points="981.803,-188.349 987.756,-179.584 977.637,-182.724 981.803,-188.349"/>
</g>
<!-- HITs/quotient -->
<g id="node37" class="node"><title>HITs/quotient</title>
<ellipse fill="none" stroke="black" cx="1090.69" cy="-234" rx="61.99" ry="18"/>
<text text-anchor="middle" x="1090.69" y="-230.3" font-family="Times New Roman,serif" font-size="14.00">HITs/quotient</text>
</g>
<!-- HITs/trunc&#45;&gt;HITs/quotient -->
<g id="edge50" class="edge"><title>HITs/trunc&#45;&gt;HITs/quotient</title>
<path fill="none" stroke="black" d="M942.075,-292.161C971.091,-281.001 1013.38,-264.734 1045.44,-252.405"/>
<polygon fill="black" stroke="black" points="1046.96,-255.572 1055.03,-248.715 1044.44,-249.038 1046.96,-255.572"/>
</g>
<!-- theorems/nat -->
<g id="node27" class="node"><title>theorems/nat</title>
<ellipse fill="none" stroke="black" cx="666.693" cy="-234" rx="57.3905" ry="18"/>
<text text-anchor="middle" x="666.693" y="-230.3" font-family="Times New Roman,serif" font-size="14.00">theorems/nat</text>
</g>
<!-- types/nat&#45;&gt;theorems/nat -->
<g id="edge23" class="edge"><title>types/nat&#45;&gt;theorems/nat</title>
<path fill="none" stroke="black" d="M666.693,-287.697C666.693,-279.983 666.693,-270.712 666.693,-262.112"/>
<polygon fill="black" stroke="black" points="670.193,-262.104 666.693,-252.104 663.193,-262.104 670.193,-262.104"/>
</g>
<!-- theorems/ua&#45;&gt;theorems/nat -->
<g id="edge63" class="edge"><title>theorems/ua&#45;&gt;theorems/nat</title>
<path fill="none" stroke="black" d="M575.863,-289.811C592.47,-279.79 614.43,-266.538 632.598,-255.575"/>
<polygon fill="black" stroke="black" points="634.418,-258.564 641.171,-250.401 630.801,-252.571 634.418,-258.564"/>
</g>
<!-- cubical/V -->
<g id="node48" class="node"><title>cubical/V</title>
<ellipse fill="none" stroke="black" cx="425.693" cy="-90" rx="45.4919" ry="18"/>
<text text-anchor="middle" x="425.693" y="-86.3" font-family="Times New Roman,serif" font-size="14.00">cubical/V</text>
</g>
<!-- theorems/ua&#45;&gt;cubical/V -->
<g id="edge64" class="edge"><title>theorems/ua&#45;&gt;cubical/V</title>
<path fill="none" stroke="black" d="M512.385,-292.958C492.15,-284.635 468.676,-271.491 454.693,-252 426.087,-212.123 422.886,-152.725 423.827,-118.328"/>
<polygon fill="black" stroke="black" points="427.334,-118.231 424.251,-108.095 420.34,-117.941 427.334,-118.231"/>
</g>
<!-- algebra/group -->
<g id="node12" class="node"><title>algebra/group</title>
<ellipse fill="none" stroke="black" cx="1058.69" cy="-90" rx="60.3893" ry="18"/>
<text text-anchor="middle" x="1058.69" y="-86.3" font-family="Times New Roman,serif" font-size="14.00">algebra/group</text>
</g>
<!-- algebra/homology -->
<g id="node13" class="node"><title>algebra/homology</title>
<ellipse fill="none" stroke="black" cx="1083.69" cy="-18" rx="75.2868" ry="18"/>
<text text-anchor="middle" x="1083.69" y="-14.3" font-family="Times New Roman,serif" font-size="14.00">algebra/homology</text>
</g>
<!-- algebra/group&#45;&gt;algebra/homology -->
<g id="edge9" class="edge"><title>algebra/group&#45;&gt;algebra/homology</title>
<path fill="none" stroke="black" d="M1064.74,-72.055C1067.56,-64.1762 1070.97,-54.6165 1074.12,-45.794"/>
<polygon fill="black" stroke="black" points="1077.46,-46.8699 1077.52,-36.2753 1070.86,-44.5155 1077.46,-46.8699"/>
</g>
<!-- types/category -->
<g id="node14" class="node"><title>types/category</title>
<ellipse fill="none" stroke="black" cx="552.693" cy="-90" rx="63.8893" ry="18"/>
<text text-anchor="middle" x="552.693" y="-86.3" font-family="Times New Roman,serif" font-size="14.00">types/category</text>
</g>
<!-- types/coproduct&#45;&gt;structures -->
<g id="edge10" class="edge"><title>types/coproduct&#45;&gt;structures</title>
<path fill="none" stroke="black" d="M593.899,-503.871C595.604,-479.67 598.735,-435.211 600.764,-406.393"/>
<polygon fill="black" stroke="black" points="604.271,-406.41 601.483,-396.189 597.289,-405.919 604.271,-406.41"/>
</g>
<!-- types/dedekind -->
<g id="node16" class="node"><title>types/dedekind</title>
<ellipse fill="none" stroke="black" cx="665.693" cy="-18" rx="65.7887" ry="18"/>
<text text-anchor="middle" x="665.693" y="-14.3" font-family="Times New Roman,serif" font-size="14.00">types/dedekind</text>
</g>
<!-- HITs/graph -->
<g id="node22" class="node"><title>HITs/graph</title>
<ellipse fill="none" stroke="black" cx="925.693" cy="-450" rx="52.7911" ry="18"/>
<text text-anchor="middle" x="925.693" y="-446.3" font-family="Times New Roman,serif" font-size="14.00">HITs/graph</text>
</g>
<!-- types/heq&#45;&gt;HITs/graph -->
<g id="edge18" class="edge"><title>types/heq&#45;&gt;HITs/graph</title>
<path fill="none" stroke="black" d="M922.176,-575.871C922.857,-551.67 924.11,-507.211 924.922,-478.393"/>
<polygon fill="black" stroke="black" points="928.426,-478.284 925.209,-468.189 921.429,-478.087 928.426,-478.284"/>
</g>
<!-- theorems/funext -->
<g id="node23" class="node"><title>theorems/funext</title>
<ellipse fill="none" stroke="black" cx="750.693" cy="-522" rx="68.7879" ry="18"/>
<text text-anchor="middle" x="750.693" y="-518.3" font-family="Times New Roman,serif" font-size="14.00">theorems/funext</text>
</g>
<!-- types/heq&#45;&gt;theorems/funext -->
<g id="edge19" class="edge"><title>types/heq&#45;&gt;theorems/funext</title>
<path fill="none" stroke="black" d="M891.122,-580.485C864.51,-569.592 825.586,-553.658 795.463,-541.327"/>
<polygon fill="black" stroke="black" points="796.6,-538.01 786.019,-537.461 793.948,-544.489 796.6,-538.01"/>
</g>
<!-- types/unit&#45;&gt;structures -->
<g id="edge28" class="edge"><title>types/unit&#45;&gt;structures</title>
<path fill="none" stroke="black" d="M775.137,-437.597C739.973,-425.648 684.595,-406.831 646.118,-393.756"/>
<polygon fill="black" stroke="black" points="646.829,-390.301 636.235,-390.398 644.577,-396.929 646.829,-390.301"/>
</g>
<!-- HITs/suspension -->
<g id="node30" class="node"><title>HITs/suspension</title>
<ellipse fill="none" stroke="black" cx="1049.69" cy="-306" rx="72.5877" ry="18"/>
<text text-anchor="middle" x="1049.69" y="-302.3" font-family="Times New Roman,serif" font-size="14.00">HITs/suspension</text>
</g>
<!-- types/unit&#45;&gt;HITs/suspension -->
<g id="edge29" class="edge"><title>types/unit&#45;&gt;HITs/suspension</title>
<path fill="none" stroke="black" d="M807.322,-431.77C806.735,-411.773 809.041,-379.106 827.693,-360 833.359,-354.197 922.597,-334.135 986.183,-320.428"/>
<polygon fill="black" stroke="black" points="987.109,-323.809 996.151,-318.286 985.639,-316.965 987.109,-323.809"/>
</g>
<!-- types/sigma&#45;&gt;structures -->
<g id="edge27" class="edge"><title>types/sigma&#45;&gt;structures</title>
<path fill="none" stroke="black" d="M467.244,-504.711C494.452,-479.459 546.901,-430.781 577.944,-401.97"/>
<polygon fill="black" stroke="black" points="580.398,-404.467 585.347,-395.099 575.636,-399.337 580.398,-404.467"/>
</g>
<!-- HITs/colimit -->
<g id="node34" class="node"><title>HITs/colimit</title>
<ellipse fill="none" stroke="black" cx="723.693" cy="-378" rx="56.59" ry="18"/>
<text text-anchor="middle" x="723.693" y="-374.3" font-family="Times New Roman,serif" font-size="14.00">HITs/colimit</text>
</g>
<!-- HITs/graph&#45;&gt;HITs/colimit -->
<g id="edge36" class="edge"><title>HITs/graph&#45;&gt;HITs/colimit</title>
<path fill="none" stroke="black" d="M890.045,-436.647C856.812,-425.13 807.037,-407.881 770.593,-395.252"/>
<polygon fill="black" stroke="black" points="771.287,-391.789 760.693,-391.822 768.995,-398.403 771.287,-391.789"/>
</g>
<!-- HITs/generalized -->
<g id="node35" class="node"><title>HITs/generalized</title>
<ellipse fill="none" stroke="black" cx="908.693" cy="-378" rx="72.2875" ry="18"/>
<text text-anchor="middle" x="908.693" y="-374.3" font-family="Times New Roman,serif" font-size="14.00">HITs/generalized</text>
</g>
<!-- HITs/graph&#45;&gt;HITs/generalized -->
<g id="edge37" class="edge"><title>HITs/graph&#45;&gt;HITs/generalized</title>
<path fill="none" stroke="black" d="M921.578,-432.055C919.685,-424.261 917.393,-414.822 915.269,-406.079"/>
<polygon fill="black" stroke="black" points="918.65,-405.167 912.889,-396.275 911.848,-406.819 918.65,-405.167"/>
</g>
<!-- HITs/pushout -->
<g id="node36" class="node"><title>HITs/pushout</title>
<ellipse fill="none" stroke="black" cx="1060.69" cy="-378" rx="61.99" ry="18"/>
<text text-anchor="middle" x="1060.69" y="-374.3" font-family="Times New Roman,serif" font-size="14.00">HITs/pushout</text>
</g>
<!-- HITs/graph&#45;&gt;HITs/pushout -->
<g id="edge38" class="edge"><title>HITs/graph&#45;&gt;HITs/pushout</title>
<path fill="none" stroke="black" d="M953.338,-434.666C973.318,-424.306 1000.55,-410.183 1022.59,-398.755"/>
<polygon fill="black" stroke="black" points="1024.42,-401.751 1031.69,-394.041 1021.2,-395.537 1024.42,-401.751"/>
</g>
<!-- HITs/graph&#45;&gt;HITs/quotient -->
<g id="edge39" class="edge"><title>HITs/graph&#45;&gt;HITs/quotient</title>
<path fill="none" stroke="black" d="M974.759,-443.275C1029.42,-435.77 1112.63,-420.588 1131.69,-396 1161.1,-358.065 1147.21,-333.422 1131.69,-288 1128.1,-277.489 1121.49,-267.445 1114.6,-258.983"/>
<polygon fill="black" stroke="black" points="1117.21,-256.646 1108.01,-251.39 1111.92,-261.236 1117.21,-256.646"/>
</g>
<!-- types/product -->
<g id="node29" class="node"><title>types/product</title>
<ellipse fill="none" stroke="black" cx="682.693" cy="-450" rx="61.99" ry="18"/>
<text text-anchor="middle" x="682.693" y="-446.3" font-family="Times New Roman,serif" font-size="14.00">types/product</text>
</g>
<!-- theorems/funext&#45;&gt;types/product -->
<g id="edge58" class="edge"><title>theorems/funext&#45;&gt;types/product</title>
<path fill="none" stroke="black" d="M734.578,-504.411C726.025,-495.606 715.361,-484.628 705.929,-474.919"/>
<polygon fill="black" stroke="black" points="708.171,-472.204 698.693,-467.47 703.15,-477.082 708.171,-472.204"/>
</g>
<!-- types/integer -->
<g id="node24" class="node"><title>types/integer</title>
<ellipse fill="none" stroke="black" cx="816.693" cy="-162" rx="56.59" ry="18"/>
<text text-anchor="middle" x="816.693" y="-158.3" font-family="Times New Roman,serif" font-size="14.00">types/integer</text>
</g>
<!-- types/integer&#45;&gt;algebra/group -->
<g id="edge20" class="edge"><title>types/integer&#45;&gt;algebra/group</title>
<path fill="none" stroke="black" d="M857.199,-149.284C898.354,-137.379 962.247,-118.898 1007.02,-105.946"/>
<polygon fill="black" stroke="black" points="1008.2,-109.248 1016.84,-103.107 1006.26,-102.524 1008.2,-109.248"/>
</g>
<!-- HITs/circle -->
<g id="node25" class="node"><title>HITs/circle</title>
<ellipse fill="none" stroke="black" cx="822.693" cy="-90" rx="51.9908" ry="18"/>
<text text-anchor="middle" x="822.693" y="-86.3" font-family="Times New Roman,serif" font-size="14.00">HITs/circle</text>
</g>
<!-- types/integer&#45;&gt;HITs/circle -->
<g id="edge21" class="edge"><title>types/integer&#45;&gt;HITs/circle</title>
<path fill="none" stroke="black" d="M818.176,-143.697C818.838,-135.983 819.632,-126.712 820.369,-118.112"/>
<polygon fill="black" stroke="black" points="823.86,-118.367 821.227,-108.104 816.886,-117.769 823.86,-118.367"/>
</g>
<!-- types/rational -->
<g id="node26" class="node"><title>types/rational</title>
<ellipse fill="none" stroke="black" cx="693.693" cy="-90" rx="59.2899" ry="18"/>
<text text-anchor="middle" x="693.693" y="-86.3" font-family="Times New Roman,serif" font-size="14.00">types/rational</text>
</g>
<!-- types/integer&#45;&gt;types/rational -->
<g id="edge22" class="edge"><title>types/integer&#45;&gt;types/rational</title>
<path fill="none" stroke="black" d="M790.307,-145.983C772.513,-135.857 748.821,-122.374 729.352,-111.294"/>
<polygon fill="black" stroke="black" points="730.883,-108.138 720.461,-106.233 727.421,-114.222 730.883,-108.138"/>
</g>
<!-- theorems/hopf -->
<g id="node31" class="node"><title>theorems/hopf</title>
<ellipse fill="none" stroke="black" cx="153.693" cy="-18" rx="63.8893" ry="18"/>
<text text-anchor="middle" x="153.693" y="-14.3" font-family="Times New Roman,serif" font-size="14.00">theorems/hopf</text>
</g>
<!-- HITs/circle&#45;&gt;theorems/hopf -->
<g id="edge30" class="edge"><title>HITs/circle&#45;&gt;theorems/hopf</title>
<path fill="none" stroke="black" d="M785.2,-77.3781C777.486,-75.3192 769.374,-73.3918 761.693,-72 579.959,-39.0678 531.688,-52.0614 347.693,-36 306.593,-32.4122 260.595,-28.3822 223.708,-25.1467"/>
<polygon fill="black" stroke="black" points="223.825,-21.6436 213.557,-24.2562 223.213,-28.6168 223.825,-21.6436"/>
</g>
<!-- HITs/moebius -->
<g id="node32" class="node"><title>HITs/moebius</title>
<ellipse fill="none" stroke="black" cx="927.693" cy="-18" rx="63.0888" ry="18"/>
<text text-anchor="middle" x="927.693" y="-14.3" font-family="Times New Roman,serif" font-size="14.00">HITs/moebius</text>
</g>
<!-- HITs/circle&#45;&gt;HITs/moebius -->
<g id="edge31" class="edge"><title>HITs/circle&#45;&gt;HITs/moebius</title>
<path fill="none" stroke="black" d="M845.477,-73.811C860.031,-64.1078 879.13,-51.3756 895.256,-40.625"/>
<polygon fill="black" stroke="black" points="897.482,-43.3474 903.861,-34.8882 893.599,-37.523 897.482,-43.3474"/>
</g>
<!-- HITs/reals -->
<g id="node33" class="node"><title>HITs/reals</title>
<ellipse fill="none" stroke="black" cx="797.693" cy="-18" rx="48.9926" ry="18"/>
<text text-anchor="middle" x="797.693" y="-14.3" font-family="Times New Roman,serif" font-size="14.00">HITs/reals</text>
</g>
<!-- HITs/circle&#45;&gt;HITs/reals -->
<g id="edge32" class="edge"><title>HITs/circle&#45;&gt;HITs/reals</title>
<path fill="none" stroke="black" d="M816.641,-72.055C813.828,-64.1762 810.413,-54.6165 807.262,-45.794"/>
<polygon fill="black" stroke="black" points="810.522,-44.5155 803.863,-36.2753 803.93,-46.8699 810.522,-44.5155"/>
</g>
<!-- types/rational&#45;&gt;types/dedekind -->
<g id="edge26" class="edge"><title>types/rational&#45;&gt;types/dedekind</title>
<path fill="none" stroke="black" d="M686.915,-72.055C683.764,-64.1762 679.94,-54.6165 676.411,-45.794"/>
<polygon fill="black" stroke="black" points="679.567,-44.2602 672.603,-36.2753 673.068,-46.86 679.567,-44.2602"/>
</g>
<!-- theorems/nat&#45;&gt;types/integer -->
<g id="edge59" class="edge"><title>theorems/nat&#45;&gt;types/integer</title>
<path fill="none" stroke="black" d="M697.41,-218.666C720.439,-207.919 752.145,-193.122 777.081,-181.486"/>
<polygon fill="black" stroke="black" points="778.693,-184.596 786.274,-177.196 775.732,-178.253 778.693,-184.596"/>
</g>
<!-- HITs/int -->
<g id="node49" class="node"><title>HITs/int</title>
<ellipse fill="none" stroke="black" cx="700.693" cy="-162" rx="40.8928" ry="18"/>
<text text-anchor="middle" x="700.693" y="-158.3" font-family="Times New Roman,serif" font-size="14.00">HITs/int</text>
</g>
<!-- theorems/nat&#45;&gt;HITs/int -->
<g id="edge60" class="edge"><title>theorems/nat&#45;&gt;HITs/int</title>
<path fill="none" stroke="black" d="M674.924,-216.055C678.891,-207.887 683.736,-197.912 688.15,-188.824"/>
<polygon fill="black" stroke="black" points="691.318,-190.313 692.539,-179.789 685.021,-187.255 691.318,-190.313"/>
</g>
<!-- types/precategory -->
<g id="node28" class="node"><title>types/precategory</title>
<ellipse fill="none" stroke="black" cx="528.693" cy="-162" rx="75.2868" ry="18"/>
<text text-anchor="middle" x="528.693" y="-158.3" font-family="Times New Roman,serif" font-size="14.00">types/precategory</text>
</g>
<!-- types/precategory&#45;&gt;types/category -->
<g id="edge24" class="edge"><title>types/precategory&#45;&gt;types/category</title>
<path fill="none" stroke="black" d="M534.626,-143.697C537.3,-135.898 540.519,-126.509 543.495,-117.829"/>
<polygon fill="black" stroke="black" points="546.896,-118.699 546.829,-108.104 540.275,-116.429 546.896,-118.699"/>
</g>
<!-- types/product&#45;&gt;structures -->
<g id="edge25" class="edge"><title>types/product&#45;&gt;structures</title>
<path fill="none" stroke="black" d="M664.139,-432.765C653.488,-423.445 639.957,-411.605 628.305,-401.41"/>
<polygon fill="black" stroke="black" points="630.428,-398.617 620.597,-394.666 625.818,-403.885 630.428,-398.617"/>
</g>
<!-- HITs/suspension&#45;&gt;HITs/circle -->
<g id="edge48" class="edge"><title>HITs/suspension&#45;&gt;HITs/circle</title>
<path fill="none" stroke="black" d="M1032.65,-288.384C996.294,-252.976 912.066,-171.108 882.693,-144 871.787,-133.935 859.54,-123.045 848.968,-113.77"/>
<polygon fill="black" stroke="black" points="851.093,-110.978 841.26,-107.032 846.486,-116.249 851.093,-110.978"/>
</g>
<!-- HITs/join -->
<g id="node41" class="node"><title>HITs/join</title>
<ellipse fill="none" stroke="black" cx="1215.69" cy="-234" rx="45.4919" ry="18"/>
<text text-anchor="middle" x="1215.69" y="-230.3" font-family="Times New Roman,serif" font-size="14.00">HITs/join</text>
</g>
<!-- HITs/suspension&#45;&gt;HITs/join -->
<g id="edge49" class="edge"><title>HITs/suspension&#45;&gt;HITs/join</title>
<path fill="none" stroke="black" d="M1084.9,-290.155C1111.71,-278.846 1148.63,-263.28 1176.41,-251.567"/>
<polygon fill="black" stroke="black" points="1177.96,-254.709 1185.82,-247.598 1175.24,-248.259 1177.96,-254.709"/>
</g>
<!-- HITs/colimit&#45;&gt;HITs/merely -->
<g id="edge33" class="edge"><title>HITs/colimit&#45;&gt;HITs/merely</title>
<path fill="none" stroke="black" d="M737.912,-360.411C745.385,-351.693 754.683,-340.845 762.944,-331.208"/>
<polygon fill="black" stroke="black" points="765.726,-333.34 769.576,-323.47 760.411,-328.785 765.726,-333.34"/>
</g>
<!-- HITs/colimit&#45;&gt;types/nat -->
<g id="edge34" class="edge"><title>HITs/colimit&#45;&gt;types/nat</title>
<path fill="none" stroke="black" d="M710.185,-360.411C703.157,-351.781 694.43,-341.062 686.641,-331.497"/>
<polygon fill="black" stroke="black" points="689.133,-329.014 680.104,-323.47 683.705,-333.434 689.133,-329.014"/>
</g>
<!-- HITs/generalized&#45;&gt;HITs/merely -->
<g id="edge35" class="edge"><title>HITs/generalized&#45;&gt;HITs/merely</title>
<path fill="none" stroke="black" d="M880.641,-361.291C862.496,-351.13 838.718,-337.814 819.252,-326.913"/>
<polygon fill="black" stroke="black" points="820.803,-323.77 810.367,-321.938 817.382,-329.877 820.803,-323.77"/>
</g>
<!-- HITs/pushout&#45;&gt;HITs/suspension -->
<g id="edge46" class="edge"><title>HITs/pushout&#45;&gt;HITs/suspension</title>
<path fill="none" stroke="black" d="M1057.97,-359.697C1056.76,-351.983 1055.31,-342.712 1053.95,-334.112"/>
<polygon fill="black" stroke="black" points="1057.39,-333.44 1052.38,-324.104 1050.48,-334.526 1057.39,-333.44"/>
</g>
<!-- HITs/quotient&#45;&gt;algebra/group -->
<g id="edge47" class="edge"><title>HITs/quotient&#45;&gt;algebra/group</title>
<path fill="none" stroke="black" d="M1096.27,-215.79C1101.29,-197.503 1106.73,-167.978 1098.69,-144 1095.23,-133.67 1088.88,-123.745 1082.23,-115.333"/>
<polygon fill="black" stroke="black" points="1084.72,-112.849 1075.59,-107.466 1079.37,-117.365 1084.72,-112.849"/>
</g>
<!-- cubical/path -->
<g id="node45" class="node"><title>cubical/path</title>
<ellipse fill="none" stroke="black" cx="308.693" cy="-162" rx="54.6905" ry="18"/>
<text text-anchor="middle" x="308.693" y="-158.3" font-family="Times New Roman,serif" font-size="14.00">cubical/path</text>
</g>
<!-- cubical/cubes&#45;&gt;cubical/path -->
<g id="edge51" class="edge"><title>cubical/cubes&#45;&gt;cubical/path</title>
<path fill="none" stroke="black" d="M316.221,-215.697C315.119,-207.983 313.795,-198.712 312.566,-190.112"/>
<polygon fill="black" stroke="black" points="316.016,-189.509 311.137,-180.104 309.086,-190.499 316.016,-189.509"/>
</g>
<!-- theorems/prop&#45;&gt;HITs/circle -->
<g id="edge61" class="edge"><title>theorems/prop&#45;&gt;HITs/circle</title>
<path fill="none" stroke="black" d="M555.417,-217.622C572.499,-207.69 594.53,-194.037 612.693,-180 631.101,-165.774 630.605,-155.734 650.693,-144 661.556,-137.655 726.82,-118.319 773.74,-104.847"/>
<polygon fill="black" stroke="black" points="774.797,-108.185 783.448,-102.068 772.871,-101.455 774.797,-108.185"/>
</g>
<!-- theorems/prop&#45;&gt;types/precategory -->
<g id="edge62" class="edge"><title>theorems/prop&#45;&gt;types/precategory</title>
<path fill="none" stroke="black" d="M527.94,-215.697C528.051,-207.983 528.183,-198.712 528.306,-190.112"/>
<polygon fill="black" stroke="black" points="531.806,-190.153 528.449,-180.104 524.806,-190.053 531.806,-190.153"/>
</g>
<!-- theorems/fibration&#45;&gt;theorems/hopf -->
<g id="edge56" class="edge"><title>theorems/fibration&#45;&gt;theorems/hopf</title>
<path fill="none" stroke="black" d="M64.1521,-144.192C51.8405,-125.461 36.7768,-94.8115 50.6932,-72 61.4,-54.4495 79.9806,-42.4643 98.4391,-34.3982"/>
<polygon fill="black" stroke="black" points="99.7853,-37.6293 107.746,-30.6376 97.1628,-31.1391 99.7853,-37.6293"/>
</g>
<!-- theorems/functions&#45;&gt;algebra/group -->
<g id="edge57" class="edge"><title>theorems/functions&#45;&gt;algebra/group</title>
<path fill="none" stroke="black" d="M1021.55,-144.055C1027.39,-135.715 1034.55,-125.491 1041.02,-116.252"/>
<polygon fill="black" stroke="black" points="1044.07,-117.988 1046.94,-107.789 1038.34,-113.974 1044.07,-117.988"/>
</g>
<!-- cubical/connection -->
<g id="node44" class="node"><title>cubical/connection</title>
<ellipse fill="none" stroke="black" cx="138.693" cy="-90" rx="79.0865" ry="18"/>
<text text-anchor="middle" x="138.693" y="-86.3" font-family="Times New Roman,serif" font-size="14.00">cubical/connection</text>
</g>
<!-- cubical/path&#45;&gt;cubical/connection -->
<g id="edge52" class="edge"><title>cubical/path&#45;&gt;cubical/connection</title>
<path fill="none" stroke="black" d="M275.915,-147.503C249.997,-136.831 213.501,-121.803 184.662,-109.928"/>
<polygon fill="black" stroke="black" points="185.781,-106.604 175.202,-106.033 183.116,-113.077 185.781,-106.604"/>
</g>
<!-- cubical/square -->
<g id="node47" class="node"><title>cubical/square</title>
<ellipse fill="none" stroke="black" cx="298.693" cy="-90" rx="63.0888" ry="18"/>
<text text-anchor="middle" x="298.693" y="-86.3" font-family="Times New Roman,serif" font-size="14.00">cubical/square</text>
</g>
<!-- cubical/path&#45;&gt;cubical/square -->
<g id="edge53" class="edge"><title>cubical/path&#45;&gt;cubical/square</title>
<path fill="none" stroke="black" d="M306.221,-143.697C305.119,-135.983 303.795,-126.712 302.566,-118.112"/>
<polygon fill="black" stroke="black" points="306.016,-117.509 301.137,-108.104 299.086,-118.499 306.016,-117.509"/>
</g>
<!-- cubical/path&#45;&gt;cubical/V -->
<g id="edge54" class="edge"><title>cubical/path&#45;&gt;cubical/V</title>
<path fill="none" stroke="black" d="M333.793,-145.983C350.988,-135.695 373.974,-121.943 392.655,-110.766"/>
<polygon fill="black" stroke="black" points="394.652,-113.65 401.436,-105.513 391.058,-107.643 394.652,-113.65"/>
</g>
<!-- cubical/example -->
<g id="node46" class="node"><title>cubical/example</title>
<ellipse fill="none" stroke="black" cx="425.693" cy="-18" rx="68.7879" ry="18"/>
<text text-anchor="middle" x="425.693" y="-14.3" font-family="Times New Roman,serif" font-size="14.00">cubical/example</text>
</g>
<!-- cubical/V&#45;&gt;cubical/example -->
<g id="edge55" class="edge"><title>cubical/V&#45;&gt;cubical/example</title>
<path fill="none" stroke="black" d="M425.693,-71.6966C425.693,-63.9827 425.693,-54.7125 425.693,-46.1124"/>
<polygon fill="black" stroke="black" points="429.193,-46.1043 425.693,-36.1043 422.193,-46.1044 429.193,-46.1043"/>
</g>
</g>
</svg>
