<?xml version="1.0" encoding="UTF-8" standalone="no"?>
<!DOCTYPE svg PUBLIC "-//W3C//DTD SVG 1.1//EN"
 "http://www.w3.org/Graphics/SVG/1.1/DTD/svg11.dtd">
<!-- Generated by graphviz version 2.38.0 (20140413.2041)
 -->
<!-- Title: dependency_map Pages: 1 -->
<svg width="1646pt" height="764pt"
 viewBox="0.00 0.00 1646.07 764.00" xmlns="http://www.w3.org/2000/svg" xmlns:xlink="http://www.w3.org/1999/xlink">
<g id="graph0" class="graph" transform="scale(1 1) rotate(0) translate(4 760)">
<title>dependency_map</title>
<polygon fill="white" stroke="none" points="-4,4 -4,-760 1642.07,-760 1642.07,4 -4,4"/>
<!-- proto -->
<g id="node1" class="node"><title>proto</title>
<ellipse fill="none" stroke="black" cx="364.469" cy="-738" rx="30.5947" ry="18"/>
<text text-anchor="middle" x="364.469" y="-734.3" font-family="Times New Roman,serif" font-size="14.00">proto</text>
</g>
<!-- types/eq -->
<g id="node2" class="node"><title>types/eq</title>
<ellipse fill="none" stroke="black" cx="424.469" cy="-666" rx="41.6928" ry="18"/>
<text text-anchor="middle" x="424.469" y="-662.3" font-family="Times New Roman,serif" font-size="14.00">types/eq</text>
</g>
<!-- proto&#45;&gt;types/eq -->
<g id="edge1" class="edge"><title>proto&#45;&gt;types/eq</title>
<path fill="none" stroke="black" d="M377.785,-721.465C385.412,-712.566 395.15,-701.205 403.756,-691.164"/>
<polygon fill="black" stroke="black" points="406.503,-693.338 410.354,-683.467 401.189,-688.782 406.503,-693.338"/>
</g>
<!-- support -->
<g id="node4" class="node"><title>support</title>
<ellipse fill="none" stroke="black" cx="362.469" cy="-594" rx="38.9931" ry="18"/>
<text text-anchor="middle" x="362.469" y="-590.3" font-family="Times New Roman,serif" font-size="14.00">support</text>
</g>
<!-- types/eq&#45;&gt;support -->
<g id="edge13" class="edge"><title>types/eq&#45;&gt;support</title>
<path fill="none" stroke="black" d="M410.089,-648.765C402.185,-639.841 392.236,-628.608 383.477,-618.719"/>
<polygon fill="black" stroke="black" points="386.021,-616.313 376.771,-611.147 380.781,-620.954 386.021,-616.313"/>
</g>
<!-- types/dep_path -->
<g id="node21" class="node"><title>types/dep_path</title>
<ellipse fill="none" stroke="black" cx="486.469" cy="-594" rx="66.8882" ry="18"/>
<text text-anchor="middle" x="486.469" y="-590.3" font-family="Times New Roman,serif" font-size="14.00">types/dep_path</text>
</g>
<!-- types/eq&#45;&gt;types/dep_path -->
<g id="edge14" class="edge"><title>types/eq&#45;&gt;types/dep_path</title>
<path fill="none" stroke="black" d="M438.849,-648.765C446.639,-639.969 456.418,-628.928 465.084,-619.144"/>
<polygon fill="black" stroke="black" points="467.726,-621.44 471.736,-611.633 462.486,-616.799 467.726,-621.44"/>
</g>
<!-- meta/hott_theory -->
<g id="node3" class="node"><title>meta/hott_theory</title>
<ellipse fill="none" stroke="black" cx="485.469" cy="-738" rx="72.2875" ry="18"/>
<text text-anchor="middle" x="485.469" y="-734.3" font-family="Times New Roman,serif" font-size="14.00">meta/hott_theory</text>
</g>
<!-- meta/hott_theory&#45;&gt;types/eq -->
<g id="edge2" class="edge"><title>meta/hott_theory&#45;&gt;types/eq</title>
<path fill="none" stroke="black" d="M470.702,-720.055C463.099,-711.33 453.7,-700.544 445.366,-690.981"/>
<polygon fill="black" stroke="black" points="447.888,-688.547 438.679,-683.307 442.61,-693.146 447.888,-688.547"/>
</g>
<!-- types/equiv -->
<g id="node5" class="node"><title>types/equiv</title>
<ellipse fill="none" stroke="black" cx="486.469" cy="-522" rx="51.9908" ry="18"/>
<text text-anchor="middle" x="486.469" y="-518.3" font-family="Times New Roman,serif" font-size="14.00">types/equiv</text>
</g>
<!-- support&#45;&gt;types/equiv -->
<g id="edge3" class="edge"><title>support&#45;&gt;types/equiv</title>
<path fill="none" stroke="black" d="M386.084,-579.669C404.57,-569.233 430.561,-554.561 451.464,-542.761"/>
<polygon fill="black" stroke="black" points="453.381,-545.698 460.369,-537.734 449.94,-539.602 453.381,-545.698"/>
</g>
<!-- HITs/infinitesimal -->
<g id="node12" class="node"><title>HITs/infinitesimal</title>
<ellipse fill="none" stroke="black" stroke-dasharray="5,2" cx="140.469" cy="-450" rx="74.9875" ry="18"/>
<text text-anchor="middle" x="140.469" y="-446.3" font-family="Times New Roman,serif" font-size="14.00">HITs/infinitesimal</text>
</g>
<!-- types/equiv&#45;&gt;HITs/infinitesimal -->
<g id="edge15" class="edge"><title>types/equiv&#45;&gt;HITs/infinitesimal</title>
<path fill="none" stroke="black" d="M442.648,-512.134C382.766,-500.02 274.91,-478.199 205.563,-464.169"/>
<polygon fill="black" stroke="black" points="206.116,-460.71 195.621,-462.158 204.728,-467.571 206.116,-460.71"/>
</g>
<!-- types/coproduct -->
<g id="node19" class="node"><title>types/coproduct</title>
<ellipse fill="none" stroke="black" cx="304.469" cy="-450" rx="70.6878" ry="18"/>
<text text-anchor="middle" x="304.469" y="-446.3" font-family="Times New Roman,serif" font-size="14.00">types/coproduct</text>
</g>
<!-- types/equiv&#45;&gt;types/coproduct -->
<g id="edge16" class="edge"><title>types/equiv&#45;&gt;types/coproduct</title>
<path fill="none" stroke="black" d="M453.087,-508.161C424.536,-497.18 383.13,-481.254 351.27,-469.001"/>
<polygon fill="black" stroke="black" points="352.304,-465.648 341.714,-465.325 349.791,-472.182 352.304,-465.648"/>
</g>
<!-- types/heq -->
<g id="node22" class="node"><title>types/heq</title>
<ellipse fill="none" stroke="black" cx="694.469" cy="-450" rx="46.2923" ry="18"/>
<text text-anchor="middle" x="694.469" y="-446.3" font-family="Times New Roman,serif" font-size="14.00">types/heq</text>
</g>
<!-- types/equiv&#45;&gt;types/heq -->
<g id="edge17" class="edge"><title>types/equiv&#45;&gt;types/heq</title>
<path fill="none" stroke="black" d="M522.7,-508.807C558.386,-496.797 612.928,-478.441 650.946,-465.647"/>
<polygon fill="black" stroke="black" points="652.356,-468.865 660.717,-462.359 650.123,-462.231 652.356,-468.865"/>
</g>
<!-- types/lost -->
<g id="node23" class="node"><title>types/lost</title>
<ellipse fill="none" stroke="black" cx="804.469" cy="-450" rx="46.2923" ry="18"/>
<text text-anchor="middle" x="804.469" y="-446.3" font-family="Times New Roman,serif" font-size="14.00">types/lost</text>
</g>
<!-- types/equiv&#45;&gt;types/lost -->
<g id="edge18" class="edge"><title>types/equiv&#45;&gt;types/lost</title>
<path fill="none" stroke="black" d="M532.397,-513.196C585.136,-503.899 674.089,-487.193 749.469,-468 753.07,-467.083 756.786,-466.074 760.507,-465.018"/>
<polygon fill="black" stroke="black" points="761.683,-468.321 770.293,-462.148 759.713,-461.604 761.683,-468.321"/>
</g>
<!-- types/unit -->
<g id="node24" class="node"><title>types/unit</title>
<ellipse fill="none" stroke="black" cx="439.469" cy="-450" rx="46.2923" ry="18"/>
<text text-anchor="middle" x="439.469" y="-446.3" font-family="Times New Roman,serif" font-size="14.00">types/unit</text>
</g>
<!-- types/equiv&#45;&gt;types/unit -->
<g id="edge19" class="edge"><title>types/equiv&#45;&gt;types/unit</title>
<path fill="none" stroke="black" d="M475.33,-504.411C469.735,-496.077 462.833,-485.797 456.582,-476.488"/>
<polygon fill="black" stroke="black" points="459.334,-474.307 450.854,-467.956 453.522,-478.209 459.334,-474.307"/>
</g>
<!-- types/sigma -->
<g id="node25" class="node"><title>types/sigma</title>
<ellipse fill="none" stroke="black" cx="587.469" cy="-378" rx="53.8905" ry="18"/>
<text text-anchor="middle" x="587.469" y="-374.3" font-family="Times New Roman,serif" font-size="14.00">types/sigma</text>
</g>
<!-- types/equiv&#45;&gt;types/sigma -->
<g id="edge20" class="edge"><title>types/equiv&#45;&gt;types/sigma</title>
<path fill="none" stroke="black" d="M498.252,-504.433C515.795,-479.769 548.916,-433.203 569.494,-404.271"/>
<polygon fill="black" stroke="black" points="572.503,-406.079 575.447,-395.902 566.799,-402.022 572.503,-406.079"/>
</g>
<!-- structures -->
<g id="node6" class="node"><title>structures</title>
<ellipse fill="none" stroke="black" cx="316.469" cy="-378" rx="46.2923" ry="18"/>
<text text-anchor="middle" x="316.469" y="-374.3" font-family="Times New Roman,serif" font-size="14.00">structures</text>
</g>
<!-- HITs/interval -->
<g id="node7" class="node"><title>HITs/interval</title>
<ellipse fill="none" stroke="black" cx="694.469" cy="-306" rx="57.6901" ry="18"/>
<text text-anchor="middle" x="694.469" y="-302.3" font-family="Times New Roman,serif" font-size="14.00">HITs/interval</text>
</g>
<!-- structures&#45;&gt;HITs/interval -->
<g id="edge4" class="edge"><title>structures&#45;&gt;HITs/interval</title>
<path fill="none" stroke="black" d="M357.28,-369.442C424.514,-356.992 558.796,-332.125 636.074,-317.814"/>
<polygon fill="black" stroke="black" points="636.931,-321.215 646.127,-315.952 635.657,-314.332 636.931,-321.215"/>
</g>
<!-- HITs/truncation -->
<g id="node8" class="node"><title>HITs/truncation</title>
<ellipse fill="none" stroke="black" cx="1042.47" cy="-234" rx="68.4888" ry="18"/>
<text text-anchor="middle" x="1042.47" y="-230.3" font-family="Times New Roman,serif" font-size="14.00">HITs/truncation</text>
</g>
<!-- structures&#45;&gt;HITs/truncation -->
<g id="edge5" class="edge"><title>structures&#45;&gt;HITs/truncation</title>
<path fill="none" stroke="black" d="M361.195,-373.281C466.85,-364.267 725.719,-340.763 761.469,-324 782.533,-314.123 778.904,-298.878 799.469,-288 829.478,-272.126 914.304,-255.756 975.282,-245.489"/>
<polygon fill="black" stroke="black" points="975.942,-248.928 985.231,-243.832 974.792,-242.023 975.942,-248.928"/>
</g>
<!-- algebra/core -->
<g id="node9" class="node"><title>algebra/core</title>
<ellipse fill="none" stroke="black" cx="237.469" cy="-306" rx="55.4913" ry="18"/>
<text text-anchor="middle" x="237.469" y="-302.3" font-family="Times New Roman,serif" font-size="14.00">algebra/core</text>
</g>
<!-- structures&#45;&gt;algebra/core -->
<g id="edge6" class="edge"><title>structures&#45;&gt;algebra/core</title>
<path fill="none" stroke="black" d="M298.542,-361.116C288.112,-351.874 274.786,-340.066 263.245,-329.84"/>
<polygon fill="black" stroke="black" points="265.403,-327.076 255.598,-323.064 260.761,-332.315 265.403,-327.076"/>
</g>
<!-- types/nat -->
<g id="node10" class="node"><title>types/nat</title>
<ellipse fill="none" stroke="black" cx="354.469" cy="-306" rx="43.5923" ry="18"/>
<text text-anchor="middle" x="354.469" y="-302.3" font-family="Times New Roman,serif" font-size="14.00">types/nat</text>
</g>
<!-- structures&#45;&gt;types/nat -->
<g id="edge7" class="edge"><title>structures&#45;&gt;types/nat</title>
<path fill="none" stroke="black" d="M325.667,-360.055C330.102,-351.887 335.517,-341.912 340.45,-332.824"/>
<polygon fill="black" stroke="black" points="343.66,-334.247 345.355,-323.789 337.508,-330.908 343.66,-334.247"/>
</g>
<!-- types/product -->
<g id="node29" class="node"><title>types/product</title>
<ellipse fill="none" stroke="black" cx="814.469" cy="-234" rx="61.99" ry="18"/>
<text text-anchor="middle" x="814.469" y="-230.3" font-family="Times New Roman,serif" font-size="14.00">types/product</text>
</g>
<!-- HITs/interval&#45;&gt;types/product -->
<g id="edge46" class="edge"><title>HITs/interval&#45;&gt;types/product</title>
<path fill="none" stroke="black" d="M720.507,-289.811C737.686,-279.79 760.403,-266.538 779.197,-255.575"/>
<polygon fill="black" stroke="black" points="781.193,-258.463 788.067,-250.401 777.666,-252.417 781.193,-258.463"/>
</g>
<!-- theorems/fibration -->
<g id="node31" class="node"><title>theorems/fibration</title>
<ellipse fill="none" stroke="black" cx="658.469" cy="-234" rx="76.8869" ry="18"/>
<text text-anchor="middle" x="658.469" y="-230.3" font-family="Times New Roman,serif" font-size="14.00">theorems/fibration</text>
</g>
<!-- HITs/interval&#45;&gt;theorems/fibration -->
<g id="edge47" class="edge"><title>HITs/interval&#45;&gt;theorems/fibration</title>
<path fill="none" stroke="black" d="M685.754,-288.055C681.615,-280.007 676.574,-270.205 671.956,-261.226"/>
<polygon fill="black" stroke="black" points="675.039,-259.567 667.353,-252.275 668.814,-262.769 675.039,-259.567"/>
</g>
<!-- theorems/prop -->
<g id="node40" class="node"><title>theorems/prop</title>
<ellipse fill="none" stroke="black" cx="895.469" cy="-162" rx="63.8893" ry="18"/>
<text text-anchor="middle" x="895.469" y="-158.3" font-family="Times New Roman,serif" font-size="14.00">theorems/prop</text>
</g>
<!-- HITs/interval&#45;&gt;theorems/prop -->
<g id="edge48" class="edge"><title>HITs/interval&#45;&gt;theorems/prop</title>
<path fill="none" stroke="black" d="M738.266,-294.16C793.124,-280.392 880.585,-257.728 885.469,-252 899.768,-235.228 901.298,-209.743 899.816,-190.336"/>
<polygon fill="black" stroke="black" points="903.283,-189.846 898.744,-180.273 896.323,-190.588 903.283,-189.846"/>
</g>
<!-- HITs/truncation&#45;&gt;theorems/prop -->
<g id="edge53" class="edge"><title>HITs/truncation&#45;&gt;theorems/prop</title>
<path fill="none" stroke="black" d="M1010.93,-217.983C988.889,-207.486 959.269,-193.381 935.55,-182.086"/>
<polygon fill="black" stroke="black" points="936.981,-178.891 926.447,-177.752 933.971,-185.211 936.981,-178.891"/>
</g>
<!-- HITs/simplicial -->
<g id="node42" class="node"><title>HITs/simplicial</title>
<ellipse fill="none" stroke="black" cx="1042.47" cy="-162" rx="65.7887" ry="18"/>
<text text-anchor="middle" x="1042.47" y="-158.3" font-family="Times New Roman,serif" font-size="14.00">HITs/simplicial</text>
</g>
<!-- HITs/truncation&#45;&gt;HITs/simplicial -->
<g id="edge54" class="edge"><title>HITs/truncation&#45;&gt;HITs/simplicial</title>
<path fill="none" stroke="black" d="M1042.47,-215.697C1042.47,-207.983 1042.47,-198.712 1042.47,-190.112"/>
<polygon fill="black" stroke="black" points="1045.97,-190.104 1042.47,-180.104 1038.97,-190.104 1045.97,-190.104"/>
</g>
<!-- theorems/mere_eq_lemma -->
<g id="node43" class="node"><title>theorems/mere_eq_lemma</title>
<ellipse fill="none" stroke="black" cx="1232.47" cy="-162" rx="105.881" ry="18"/>
<text text-anchor="middle" x="1232.47" y="-158.3" font-family="Times New Roman,serif" font-size="14.00">theorems/mere_eq_lemma</text>
</g>
<!-- HITs/truncation&#45;&gt;theorems/mere_eq_lemma -->
<g id="edge55" class="edge"><title>HITs/truncation&#45;&gt;theorems/mere_eq_lemma</title>
<path fill="none" stroke="black" d="M1080.46,-219.003C1109.22,-208.409 1149.03,-193.74 1180.7,-182.073"/>
<polygon fill="black" stroke="black" points="1182.07,-185.298 1190.24,-178.557 1179.65,-178.73 1182.07,-185.298"/>
</g>
<!-- theorems/graphs -->
<g id="node44" class="node"><title>theorems/graphs</title>
<ellipse fill="none" stroke="black" cx="1427.47" cy="-162" rx="70.6878" ry="18"/>
<text text-anchor="middle" x="1427.47" y="-158.3" font-family="Times New Roman,serif" font-size="14.00">theorems/graphs</text>
</g>
<!-- HITs/truncation&#45;&gt;theorems/graphs -->
<g id="edge56" class="edge"><title>HITs/truncation&#45;&gt;theorems/graphs</title>
<path fill="none" stroke="black" d="M1099.08,-223.812C1160.4,-213.709 1261.06,-196.683 1347.47,-180 1353.27,-178.879 1359.31,-177.673 1365.34,-176.439"/>
<polygon fill="black" stroke="black" points="1366.37,-179.8 1375.46,-174.347 1364.95,-172.946 1366.37,-179.8"/>
</g>
<!-- algebra/group -->
<g id="node17" class="node"><title>algebra/group</title>
<ellipse fill="none" stroke="black" cx="193.469" cy="-234" rx="60.3893" ry="18"/>
<text text-anchor="middle" x="193.469" y="-230.3" font-family="Times New Roman,serif" font-size="14.00">algebra/group</text>
</g>
<!-- algebra/core&#45;&gt;algebra/group -->
<g id="edge8" class="edge"><title>algebra/core&#45;&gt;algebra/group</title>
<path fill="none" stroke="black" d="M226.818,-288.055C221.629,-279.801 215.281,-269.701 209.521,-260.538"/>
<polygon fill="black" stroke="black" points="212.307,-258.393 204.022,-251.789 206.38,-262.118 212.307,-258.393"/>
</g>
<!-- HITs/circle -->
<g id="node11" class="node"><title>HITs/circle</title>
<ellipse fill="none" stroke="black" stroke-dasharray="5,2" cx="378.469" cy="-90" rx="51.9908" ry="18"/>
<text text-anchor="middle" x="378.469" y="-86.3" font-family="Times New Roman,serif" font-size="14.00">HITs/circle</text>
</g>
<!-- types/nat&#45;&gt;HITs/circle -->
<g id="edge27" class="edge"><title>types/nat&#45;&gt;HITs/circle</title>
<path fill="none" stroke="black" d="M332.627,-290.347C320.687,-280.961 307.027,-267.625 300.469,-252 294.277,-237.247 296.063,-231.382 300.469,-216 311.557,-177.284 338.508,-138.912 357.616,-115.103"/>
<polygon fill="black" stroke="black" points="360.372,-117.263 364.009,-107.312 354.96,-112.822 360.372,-117.263"/>
</g>
<!-- HITs/ntrunc -->
<g id="node13" class="node"><title>HITs/ntrunc</title>
<ellipse fill="none" stroke="black" stroke-dasharray="5,2" cx="375.469" cy="-18" rx="55.4913" ry="18"/>
<text text-anchor="middle" x="375.469" y="-14.3" font-family="Times New Roman,serif" font-size="14.00">HITs/ntrunc</text>
</g>
<!-- HITs/circle&#45;&gt;HITs/ntrunc -->
<g id="edge36" class="edge"><title>HITs/circle&#45;&gt;HITs/ntrunc</title>
<path fill="none" stroke="black" d="M377.727,-71.6966C377.397,-63.9827 376.999,-54.7125 376.631,-46.1124"/>
<polygon fill="black" stroke="black" points="380.127,-45.9453 376.202,-36.1043 373.133,-46.2451 380.127,-45.9453"/>
</g>
<!-- theorems/hopf -->
<g id="node16" class="node"><title>theorems/hopf</title>
<ellipse fill="none" stroke="black" stroke-dasharray="5,2" cx="512.469" cy="-18" rx="63.8893" ry="18"/>
<text text-anchor="middle" x="512.469" y="-14.3" font-family="Times New Roman,serif" font-size="14.00">theorems/hopf</text>
</g>
<!-- HITs/circle&#45;&gt;theorems/hopf -->
<g id="edge37" class="edge"><title>HITs/circle&#45;&gt;theorems/hopf</title>
<path fill="none" stroke="black" d="M405.909,-74.6655C425.606,-64.3758 452.411,-50.3735 474.208,-38.9868"/>
<polygon fill="black" stroke="black" points="475.965,-42.0179 483.208,-34.2854 472.724,-35.8134 475.965,-42.0179"/>
</g>
<!-- theorems/ua -->
<g id="node14" class="node"><title>theorems/ua</title>
<ellipse fill="none" stroke="black" stroke-dasharray="5,2" cx="620.469" cy="-162" rx="54.6905" ry="18"/>
<text text-anchor="middle" x="620.469" y="-158.3" font-family="Times New Roman,serif" font-size="14.00">theorems/ua</text>
</g>
<!-- theorems/ua&#45;&gt;HITs/circle -->
<g id="edge65" class="edge"><title>theorems/ua&#45;&gt;HITs/circle</title>
<path fill="none" stroke="black" d="M580.778,-149.519C538.642,-137.331 472.022,-118.061 426.843,-104.993"/>
<polygon fill="black" stroke="black" points="427.559,-101.556 416.98,-102.14 425.614,-108.281 427.559,-101.556"/>
</g>
<!-- cubical/V -->
<g id="node15" class="node"><title>cubical/V</title>
<ellipse fill="none" stroke="black" stroke-dasharray="5,2" cx="639.469" cy="-18" rx="45.4919" ry="18"/>
<text text-anchor="middle" x="639.469" y="-14.3" font-family="Times New Roman,serif" font-size="14.00">cubical/V</text>
</g>
<!-- theorems/ua&#45;&gt;cubical/V -->
<g id="edge66" class="edge"><title>theorems/ua&#45;&gt;cubical/V</title>
<path fill="none" stroke="black" d="M622.761,-143.871C625.999,-119.67 631.948,-75.2108 635.803,-46.3932"/>
<polygon fill="black" stroke="black" points="639.312,-46.5651 637.169,-36.1893 632.373,-45.6367 639.312,-46.5651"/>
</g>
<!-- algebra/homology -->
<g id="node18" class="node"><title>algebra/homology</title>
<ellipse fill="none" stroke="black" cx="178.469" cy="-162" rx="75.2868" ry="18"/>
<text text-anchor="middle" x="178.469" y="-158.3" font-family="Times New Roman,serif" font-size="14.00">algebra/homology</text>
</g>
<!-- algebra/group&#45;&gt;algebra/homology -->
<g id="edge9" class="edge"><title>algebra/group&#45;&gt;algebra/homology</title>
<path fill="none" stroke="black" d="M189.761,-215.697C188.108,-207.983 186.121,-198.712 184.279,-190.112"/>
<polygon fill="black" stroke="black" points="187.652,-189.149 182.134,-180.104 180.807,-190.616 187.652,-189.149"/>
</g>
<!-- types/coproduct&#45;&gt;structures -->
<g id="edge10" class="edge"><title>types/coproduct&#45;&gt;structures</title>
<path fill="none" stroke="black" d="M307.435,-431.697C308.757,-423.983 310.347,-414.712 311.821,-406.112"/>
<polygon fill="black" stroke="black" points="315.297,-406.552 313.537,-396.104 308.397,-405.369 315.297,-406.552"/>
</g>
<!-- types/integer -->
<g id="node20" class="node"><title>types/integer</title>
<ellipse fill="none" stroke="black" cx="114.469" cy="-378" rx="56.59" ry="18"/>
<text text-anchor="middle" x="114.469" y="-374.3" font-family="Times New Roman,serif" font-size="14.00">types/integer</text>
</g>
<!-- types/coproduct&#45;&gt;types/integer -->
<g id="edge11" class="edge"><title>types/coproduct&#45;&gt;types/integer</title>
<path fill="none" stroke="black" d="M266.019,-434.834C235.261,-423.502 192.068,-407.589 159.659,-395.649"/>
<polygon fill="black" stroke="black" points="160.566,-392.253 149.973,-392.081 158.146,-398.822 160.566,-392.253"/>
</g>
<!-- types/integer&#45;&gt;algebra/core -->
<g id="edge24" class="edge"><title>types/integer&#45;&gt;algebra/core</title>
<path fill="none" stroke="black" d="M140.855,-361.983C158.771,-351.787 182.666,-338.189 202.209,-327.067"/>
<polygon fill="black" stroke="black" points="204.166,-329.98 211.126,-321.992 200.703,-323.896 204.166,-329.98"/>
</g>
<!-- types/integer&#45;&gt;HITs/circle -->
<g id="edge25" class="edge"><title>types/integer&#45;&gt;HITs/circle</title>
<path fill="none" stroke="black" d="M87.4961,-362.131C72.4218,-352.758 54.1718,-339.508 41.4687,-324 9.66434,-285.172 -12.768,-261.476 8.46873,-216 29.561,-170.833 49.3838,-165.267 94.4687,-144 166.19,-110.169 257.645,-97.91 317.104,-93.4817"/>
<polygon fill="black" stroke="black" points="317.358,-96.9726 327.092,-92.7892 316.874,-89.9894 317.358,-96.9726"/>
</g>
<!-- HITs/reals -->
<g id="node28" class="node"><title>HITs/reals</title>
<ellipse fill="none" stroke="black" cx="66.4687" cy="-234" rx="48.9926" ry="18"/>
<text text-anchor="middle" x="66.4687" y="-230.3" font-family="Times New Roman,serif" font-size="14.00">HITs/reals</text>
</g>
<!-- types/integer&#45;&gt;HITs/reals -->
<g id="edge26" class="edge"><title>types/integer&#45;&gt;HITs/reals</title>
<path fill="none" stroke="black" d="M86.6236,-362.267C72.7065,-353.254 57.2142,-340.309 49.4687,-324 40.0303,-304.126 45.9794,-279.402 53.3196,-261.06"/>
<polygon fill="black" stroke="black" points="56.5448,-262.42 57.3307,-251.855 50.1275,-259.624 56.5448,-262.42"/>
</g>
<!-- types/dep_path&#45;&gt;types/equiv -->
<g id="edge12" class="edge"><title>types/dep_path&#45;&gt;types/equiv</title>
<path fill="none" stroke="black" d="M486.469,-575.697C486.469,-567.983 486.469,-558.712 486.469,-550.112"/>
<polygon fill="black" stroke="black" points="489.969,-550.104 486.469,-540.104 482.969,-550.104 489.969,-550.104"/>
</g>
<!-- types/heq&#45;&gt;HITs/interval -->
<g id="edge21" class="edge"><title>types/heq&#45;&gt;HITs/interval</title>
<path fill="none" stroke="black" d="M694.469,-431.871C694.469,-407.67 694.469,-363.211 694.469,-334.393"/>
<polygon fill="black" stroke="black" points="697.969,-334.189 694.469,-324.189 690.969,-334.189 697.969,-334.189"/>
</g>
<!-- HITs/int -->
<g id="node26" class="node"><title>HITs/int</title>
<ellipse fill="none" stroke="black" cx="1366.47" cy="-378" rx="40.8928" ry="18"/>
<text text-anchor="middle" x="1366.47" y="-374.3" font-family="Times New Roman,serif" font-size="14.00">HITs/int</text>
</g>
<!-- types/heq&#45;&gt;HITs/int -->
<g id="edge22" class="edge"><title>types/heq&#45;&gt;HITs/int</title>
<path fill="none" stroke="black" d="M727.918,-437.414C734.966,-435.326 742.406,-433.378 749.469,-432 857.622,-410.893 1188.17,-389.606 1315.62,-381.961"/>
<polygon fill="black" stroke="black" points="1316.1,-385.438 1325.87,-381.348 1315.68,-378.45 1316.1,-385.438"/>
</g>
<!-- HITs/graph -->
<g id="node27" class="node"><title>HITs/graph</title>
<ellipse fill="none" stroke="black" cx="958.469" cy="-378" rx="52.7911" ry="18"/>
<text text-anchor="middle" x="958.469" y="-374.3" font-family="Times New Roman,serif" font-size="14.00">HITs/graph</text>
</g>
<!-- types/heq&#45;&gt;HITs/graph -->
<g id="edge23" class="edge"><title>types/heq&#45;&gt;HITs/graph</title>
<path fill="none" stroke="black" d="M729.009,-438.027C735.774,-435.962 742.83,-433.866 749.469,-432 802.681,-417.04 864.042,-401.705 906.447,-391.404"/>
<polygon fill="black" stroke="black" points="907.371,-394.782 916.267,-389.027 905.724,-387.978 907.371,-394.782"/>
</g>
<!-- types/unit&#45;&gt;structures -->
<g id="edge33" class="edge"><title>types/unit&#45;&gt;structures</title>
<path fill="none" stroke="black" d="M414.578,-434.834C396.194,-424.372 370.948,-410.004 350.67,-398.464"/>
<polygon fill="black" stroke="black" points="352.167,-395.289 341.745,-393.385 348.705,-401.373 352.167,-395.289"/>
</g>
<!-- types/unit&#45;&gt;types/nat -->
<g id="edge34" class="edge"><title>types/unit&#45;&gt;types/nat</title>
<path fill="none" stroke="black" d="M429.384,-432.153C414.623,-407.493 387.016,-361.374 369.752,-332.533"/>
<polygon fill="black" stroke="black" points="372.679,-330.608 364.54,-323.825 366.673,-334.203 372.679,-330.608"/>
</g>
<!-- HITs/suspension -->
<g id="node33" class="node"><title>HITs/suspension</title>
<ellipse fill="none" stroke="black" cx="382.469" cy="-234" rx="72.5877" ry="18"/>
<text text-anchor="middle" x="382.469" y="-230.3" font-family="Times New Roman,serif" font-size="14.00">HITs/suspension</text>
</g>
<!-- types/unit&#45;&gt;HITs/suspension -->
<g id="edge35" class="edge"><title>types/unit&#45;&gt;HITs/suspension</title>
<path fill="none" stroke="black" d="M437.446,-431.726C433.639,-401.86 424.245,-338.882 407.469,-288 404.538,-279.111 400.485,-269.766 396.495,-261.441"/>
<polygon fill="black" stroke="black" points="399.498,-259.619 391.911,-252.224 393.23,-262.737 399.498,-259.619"/>
</g>
<!-- types/sigma&#45;&gt;theorems/fibration -->
<g id="edge30" class="edge"><title>types/sigma&#45;&gt;theorems/fibration</title>
<path fill="none" stroke="black" d="M594.462,-360.015C602.062,-341.915 614.82,-312.545 627.469,-288 632.13,-278.954 637.626,-269.284 642.686,-260.713"/>
<polygon fill="black" stroke="black" points="645.813,-262.305 647.945,-251.927 639.806,-258.71 645.813,-262.305"/>
</g>
<!-- HITs/rat -->
<g id="node39" class="node"><title>HITs/rat</title>
<ellipse fill="none" stroke="black" cx="1596.47" cy="-306" rx="41.6928" ry="18"/>
<text text-anchor="middle" x="1596.47" y="-302.3" font-family="Times New Roman,serif" font-size="14.00">HITs/rat</text>
</g>
<!-- HITs/int&#45;&gt;HITs/rat -->
<g id="edge45" class="edge"><title>HITs/int&#45;&gt;HITs/rat</title>
<path fill="none" stroke="black" d="M1399.42,-366.971C1439.96,-354.635 1508.86,-333.663 1553.51,-320.074"/>
<polygon fill="black" stroke="black" points="1554.66,-323.384 1563.2,-317.124 1552.62,-316.688 1554.66,-323.384"/>
</g>
<!-- HITs/colimit -->
<g id="node34" class="node"><title>HITs/colimit</title>
<ellipse fill="none" stroke="black" cx="1033.47" cy="-306" rx="56.59" ry="18"/>
<text text-anchor="middle" x="1033.47" y="-302.3" font-family="Times New Roman,serif" font-size="14.00">HITs/colimit</text>
</g>
<!-- HITs/graph&#45;&gt;HITs/colimit -->
<g id="edge40" class="edge"><title>HITs/graph&#45;&gt;HITs/colimit</title>
<path fill="none" stroke="black" d="M975.864,-360.765C985.614,-351.665 997.938,-340.162 1008.68,-330.134"/>
<polygon fill="black" stroke="black" points="1011.25,-332.529 1016.17,-323.147 1006.47,-327.412 1011.25,-332.529"/>
</g>
<!-- HITs/generalized -->
<g id="node35" class="node"><title>HITs/generalized</title>
<ellipse fill="none" stroke="black" cx="1180.47" cy="-306" rx="72.2875" ry="18"/>
<text text-anchor="middle" x="1180.47" y="-302.3" font-family="Times New Roman,serif" font-size="14.00">HITs/generalized</text>
</g>
<!-- HITs/graph&#45;&gt;HITs/generalized -->
<g id="edge41" class="edge"><title>HITs/graph&#45;&gt;HITs/generalized</title>
<path fill="none" stroke="black" d="M995.877,-365.205C1032.07,-353.794 1087.25,-336.394 1127.85,-323.59"/>
<polygon fill="black" stroke="black" points="1129.1,-326.868 1137.58,-320.522 1126.99,-320.192 1129.1,-326.868"/>
</g>
<!-- HITs/pushout -->
<g id="node36" class="node"><title>HITs/pushout</title>
<ellipse fill="none" stroke="black" cx="518.469" cy="-306" rx="61.99" ry="18"/>
<text text-anchor="middle" x="518.469" y="-302.3" font-family="Times New Roman,serif" font-size="14.00">HITs/pushout</text>
</g>
<!-- HITs/graph&#45;&gt;HITs/pushout -->
<g id="edge42" class="edge"><title>HITs/graph&#45;&gt;HITs/pushout</title>
<path fill="none" stroke="black" d="M911.798,-369.575C832.362,-356.938 670.824,-331.238 581.459,-317.021"/>
<polygon fill="black" stroke="black" points="581.882,-313.545 571.457,-315.43 580.783,-320.458 581.882,-313.545"/>
</g>
<!-- HITs/moebius -->
<g id="node37" class="node"><title>HITs/moebius</title>
<ellipse fill="none" stroke="black" cx="1384.47" cy="-18" rx="63.0888" ry="18"/>
<text text-anchor="middle" x="1384.47" y="-14.3" font-family="Times New Roman,serif" font-size="14.00">HITs/moebius</text>
</g>
<!-- HITs/graph&#45;&gt;HITs/moebius -->
<g id="edge43" class="edge"><title>HITs/graph&#45;&gt;HITs/moebius</title>
<path fill="none" stroke="black" d="M1010.63,-375.057C1151.05,-368.417 1526.47,-340.775 1526.47,-235 1526.47,-235 1526.47,-235 1526.47,-161 1526.47,-103.509 1467.55,-61.164 1425.62,-38.307"/>
<polygon fill="black" stroke="black" points="1427.17,-35.1679 1416.69,-33.5921 1423.9,-41.3575 1427.17,-35.1679"/>
</g>
<!-- types/precategory -->
<g id="node38" class="node"><title>types/precategory</title>
<ellipse fill="none" stroke="black" cx="883.469" cy="-306" rx="75.2868" ry="18"/>
<text text-anchor="middle" x="883.469" y="-302.3" font-family="Times New Roman,serif" font-size="14.00">types/precategory</text>
</g>
<!-- HITs/graph&#45;&gt;types/precategory -->
<g id="edge44" class="edge"><title>HITs/graph&#45;&gt;types/precategory</title>
<path fill="none" stroke="black" d="M941.074,-360.765C931.463,-351.795 919.351,-340.49 908.716,-330.564"/>
<polygon fill="black" stroke="black" points="910.989,-327.898 901.29,-323.633 906.213,-333.015 910.989,-327.898"/>
</g>
<!-- types/product&#45;&gt;theorems/ua -->
<g id="edge28" class="edge"><title>types/product&#45;&gt;theorems/ua</title>
<path fill="none" stroke="black" d="M777.064,-219.503C745.196,-208.005 699.316,-191.45 665.45,-179.23"/>
<polygon fill="black" stroke="black" points="666.392,-175.849 655.798,-175.748 664.016,-182.434 666.392,-175.849"/>
</g>
<!-- cubical/cubes -->
<g id="node30" class="node"><title>cubical/cubes</title>
<ellipse fill="none" stroke="black" cx="753.469" cy="-162" rx="60.3893" ry="18"/>
<text text-anchor="middle" x="753.469" y="-158.3" font-family="Times New Roman,serif" font-size="14.00">cubical/cubes</text>
</g>
<!-- types/product&#45;&gt;cubical/cubes -->
<g id="edge29" class="edge"><title>types/product&#45;&gt;cubical/cubes</title>
<path fill="none" stroke="black" d="M800.013,-216.411C792.526,-207.82 783.236,-197.159 774.93,-187.627"/>
<polygon fill="black" stroke="black" points="777.453,-185.196 768.245,-179.956 772.176,-189.795 777.453,-185.196"/>
</g>
<!-- cubical/path -->
<g id="node46" class="node"><title>cubical/path</title>
<ellipse fill="none" stroke="black" cx="865.469" cy="-90" rx="54.6905" ry="18"/>
<text text-anchor="middle" x="865.469" y="-86.3" font-family="Times New Roman,serif" font-size="14.00">cubical/path</text>
</g>
<!-- cubical/cubes&#45;&gt;cubical/path -->
<g id="edge57" class="edge"><title>cubical/cubes&#45;&gt;cubical/path</title>
<path fill="none" stroke="black" d="M778.325,-145.465C794.24,-135.518 815.076,-122.496 832.383,-111.679"/>
<polygon fill="black" stroke="black" points="834.442,-114.519 841.067,-106.251 830.732,-108.583 834.442,-114.519"/>
</g>
<!-- theorems/fibration&#45;&gt;theorems/hopf -->
<g id="edge63" class="edge"><title>theorems/fibration&#45;&gt;theorems/hopf</title>
<path fill="none" stroke="black" d="M614.141,-219.267C593.894,-210.907 571.198,-198.245 556.469,-180 524.934,-140.939 515.93,-81.0093 513.404,-46.3472"/>
<polygon fill="black" stroke="black" points="516.879,-45.8142 512.791,-36.0396 509.891,-46.2298 516.879,-45.8142"/>
</g>
<!-- types/swale -->
<g id="node32" class="node"><title>types/swale</title>
<ellipse fill="none" stroke="black" cx="111.469" cy="-306" rx="52.7911" ry="18"/>
<text text-anchor="middle" x="111.469" y="-302.3" font-family="Times New Roman,serif" font-size="14.00">types/swale</text>
</g>
<!-- types/swale&#45;&gt;algebra/group -->
<g id="edge31" class="edge"><title>types/swale&#45;&gt;algebra/group</title>
<path fill="none" stroke="black" d="M130.076,-289.116C140.826,-279.939 154.539,-268.233 166.459,-258.057"/>
<polygon fill="black" stroke="black" points="169.033,-260.462 174.366,-251.307 164.488,-255.138 169.033,-260.462"/>
</g>
<!-- types/swale&#45;&gt;HITs/reals -->
<g id="edge32" class="edge"><title>types/swale&#45;&gt;HITs/reals</title>
<path fill="none" stroke="black" d="M100.575,-288.055C95.2139,-279.715 88.6414,-269.491 82.702,-260.252"/>
<polygon fill="black" stroke="black" points="85.6134,-258.308 77.2617,-251.789 79.7251,-262.093 85.6134,-258.308"/>
</g>
<!-- HITs/suspension&#45;&gt;HITs/circle -->
<g id="edge52" class="edge"><title>HITs/suspension&#45;&gt;HITs/circle</title>
<path fill="none" stroke="black" d="M381.986,-215.871C381.305,-191.67 380.052,-147.211 379.24,-118.393"/>
<polygon fill="black" stroke="black" points="382.733,-118.087 378.953,-108.189 375.736,-118.284 382.733,-118.087"/>
</g>
<!-- HITs/colimit&#45;&gt;HITs/truncation -->
<g id="edge38" class="edge"><title>HITs/colimit&#45;&gt;HITs/truncation</title>
<path fill="none" stroke="black" d="M1035.69,-287.697C1036.69,-279.983 1037.88,-270.712 1038.98,-262.112"/>
<polygon fill="black" stroke="black" points="1042.47,-262.469 1040.27,-252.104 1035.52,-261.576 1042.47,-262.469"/>
</g>
<!-- HITs/generalized&#45;&gt;HITs/truncation -->
<g id="edge39" class="edge"><title>HITs/generalized&#45;&gt;HITs/truncation</title>
<path fill="none" stroke="black" d="M1150.18,-289.638C1130.05,-279.426 1103.42,-265.916 1081.67,-254.885"/>
<polygon fill="black" stroke="black" points="1083.18,-251.728 1072.68,-250.326 1080.02,-257.971 1083.18,-251.728"/>
</g>
<!-- HITs/pushout&#45;&gt;HITs/reals -->
<g id="edge49" class="edge"><title>HITs/pushout&#45;&gt;HITs/reals</title>
<path fill="none" stroke="black" d="M465.717,-296.64C447.302,-293.796 426.486,-290.665 407.469,-288 281.905,-270.401 248.584,-277.913 124.469,-252 120.367,-251.144 116.133,-250.141 111.908,-249.058"/>
<polygon fill="black" stroke="black" points="112.7,-245.646 102.134,-246.417 110.875,-252.404 112.7,-245.646"/>
</g>
<!-- HITs/pushout&#45;&gt;HITs/suspension -->
<g id="edge50" class="edge"><title>HITs/pushout&#45;&gt;HITs/suspension</title>
<path fill="none" stroke="black" d="M489.293,-289.983C469.488,-279.789 443.075,-266.195 421.469,-255.074"/>
<polygon fill="black" stroke="black" points="423.03,-251.941 412.537,-250.476 419.826,-258.165 423.03,-251.941"/>
</g>
<!-- HITs/join -->
<g id="node41" class="node"><title>HITs/join</title>
<ellipse fill="none" stroke="black" cx="518.469" cy="-234" rx="45.4919" ry="18"/>
<text text-anchor="middle" x="518.469" y="-230.3" font-family="Times New Roman,serif" font-size="14.00">HITs/join</text>
</g>
<!-- HITs/pushout&#45;&gt;HITs/join -->
<g id="edge51" class="edge"><title>HITs/pushout&#45;&gt;HITs/join</title>
<path fill="none" stroke="black" d="M518.469,-287.697C518.469,-279.983 518.469,-270.712 518.469,-262.112"/>
<polygon fill="black" stroke="black" points="521.969,-262.104 518.469,-252.104 514.969,-262.104 521.969,-262.104"/>
</g>
<!-- cubical/connection -->
<g id="node45" class="node"><title>cubical/connection</title>
<ellipse fill="none" stroke="black" cx="782.469" cy="-18" rx="79.0865" ry="18"/>
<text text-anchor="middle" x="782.469" y="-14.3" font-family="Times New Roman,serif" font-size="14.00">cubical/connection</text>
</g>
<!-- cubical/path&#45;&gt;cubical/V -->
<g id="edge58" class="edge"><title>cubical/path&#45;&gt;cubical/V</title>
<path fill="none" stroke="black" d="M827.131,-77.1255C787.491,-64.8476 725.663,-45.6975 683.911,-32.7653"/>
<polygon fill="black" stroke="black" points="684.866,-29.3971 674.278,-29.7817 682.795,-36.0837 684.866,-29.3971"/>
</g>
<!-- cubical/path&#45;&gt;HITs/moebius -->
<g id="edge59" class="edge"><title>cubical/path&#45;&gt;HITs/moebius</title>
<path fill="none" stroke="black" d="M915.233,-82.2881C1009.27,-69.6044 1213.08,-42.1166 1318.43,-27.9066"/>
<polygon fill="black" stroke="black" points="1319.18,-31.3376 1328.62,-26.5322 1318.24,-24.4004 1319.18,-31.3376"/>
</g>
<!-- cubical/path&#45;&gt;cubical/connection -->
<g id="edge60" class="edge"><title>cubical/path&#45;&gt;cubical/connection</title>
<path fill="none" stroke="black" d="M846.218,-72.7646C835.479,-63.7076 821.918,-52.2705 810.067,-42.2756"/>
<polygon fill="black" stroke="black" points="812.092,-39.4049 802.191,-35.6334 807.579,-44.756 812.092,-39.4049"/>
</g>
<!-- cubical/example -->
<g id="node47" class="node"><title>cubical/example</title>
<ellipse fill="none" stroke="black" cx="948.469" cy="-18" rx="68.7879" ry="18"/>
<text text-anchor="middle" x="948.469" y="-14.3" font-family="Times New Roman,serif" font-size="14.00">cubical/example</text>
</g>
<!-- cubical/path&#45;&gt;cubical/example -->
<g id="edge61" class="edge"><title>cubical/path&#45;&gt;cubical/example</title>
<path fill="none" stroke="black" d="M884.719,-72.7646C895.536,-63.642 909.216,-52.1046 921.128,-42.0585"/>
<polygon fill="black" stroke="black" points="923.647,-44.5124 929.035,-35.3898 919.134,-39.1613 923.647,-44.5124"/>
</g>
<!-- cubical/square -->
<g id="node48" class="node"><title>cubical/square</title>
<ellipse fill="none" stroke="black" cx="1098.47" cy="-18" rx="63.0888" ry="18"/>
<text text-anchor="middle" x="1098.47" y="-14.3" font-family="Times New Roman,serif" font-size="14.00">cubical/square</text>
</g>
<!-- cubical/path&#45;&gt;cubical/square -->
<g id="edge62" class="edge"><title>cubical/path&#45;&gt;cubical/square</title>
<path fill="none" stroke="black" d="M904.468,-77.2836C943.529,-65.5485 1003.86,-47.4224 1046.87,-34.5021"/>
<polygon fill="black" stroke="black" points="1048.01,-37.8124 1056.58,-31.5831 1046,-31.1084 1048.01,-37.8124"/>
</g>
<!-- theorems/functions -->
<g id="node49" class="node"><title>theorems/functions</title>
<ellipse fill="none" stroke="black" cx="651.469" cy="-594" rx="79.8859" ry="18"/>
<text text-anchor="middle" x="651.469" y="-590.3" font-family="Times New Roman,serif" font-size="14.00">theorems/functions</text>
</g>
<!-- theorems/functions&#45;&gt;types/equiv -->
<g id="edge64" class="edge"><title>theorems/functions&#45;&gt;types/equiv</title>
<path fill="none" stroke="black" d="M615.666,-577.811C589.637,-566.769 554.362,-551.803 527.247,-540.3"/>
<polygon fill="black" stroke="black" points="528.597,-537.071 518.025,-536.387 525.864,-543.515 528.597,-537.071"/>
</g>
<!-- theorems/topology -->
<g id="node50" class="node"><title>theorems/topology</title>
<ellipse fill="none" stroke="black" cx="654.469" cy="-738" rx="79.0865" ry="18"/>
<text text-anchor="middle" x="654.469" y="-734.3" font-family="Times New Roman,serif" font-size="14.00">theorems/topology</text>
</g>
</g>
</svg>
