<?xml version="1.0" encoding="UTF-8" standalone="no"?>
<!DOCTYPE svg PUBLIC "-//W3C//DTD SVG 1.1//EN"
 "http://www.w3.org/Graphics/SVG/1.1/DTD/svg11.dtd">
<!-- Generated by graphviz version 2.43.0 (0)
 -->
<!-- Title: dependency_map Pages: 1 -->
<svg width="1625pt" height="1052pt"
 viewBox="0.00 0.00 1625.24 1052.00" xmlns="http://www.w3.org/2000/svg" xmlns:xlink="http://www.w3.org/1999/xlink">
<g id="graph0" class="graph" transform="scale(1 1) rotate(0) translate(4 1048)">
<title>dependency_map</title>
<polygon fill="white" stroke="transparent" points="-4,4 -4,-1048 1621.24,-1048 1621.24,4 -4,4"/>
<!-- proto -->
<g id="node1" class="node">
<title>proto</title>
<ellipse fill="none" stroke="black" cx="682.49" cy="-1026" rx="29.5" ry="18"/>
<text text-anchor="middle" x="682.49" y="-1022.3" font-family="Times,serif" font-size="14.00">proto</text>
</g>
<!-- types/eq -->
<g id="node2" class="node">
<title>types/eq</title>
<ellipse fill="none" stroke="black" cx="741.49" cy="-954" rx="40.09" ry="18"/>
<text text-anchor="middle" x="741.49" y="-950.3" font-family="Times,serif" font-size="14.00">types/eq</text>
</g>
<!-- proto&#45;&gt;types/eq -->
<g id="edge1" class="edge">
<title>proto&#45;&gt;types/eq</title>
<path fill="none" stroke="black" d="M695.29,-1009.81C702.89,-1000.8 712.68,-989.18 721.3,-978.95"/>
<polygon fill="black" stroke="black" points="724.12,-981.04 727.89,-971.13 718.77,-976.52 724.12,-981.04"/>
</g>
<!-- support -->
<g id="node4" class="node">
<title>support</title>
<ellipse fill="none" stroke="black" cx="741.49" cy="-882" rx="37.09" ry="18"/>
<text text-anchor="middle" x="741.49" y="-878.3" font-family="Times,serif" font-size="14.00">support</text>
</g>
<!-- types/eq&#45;&gt;support -->
<g id="edge21" class="edge">
<title>types/eq&#45;&gt;support</title>
<path fill="none" stroke="black" d="M741.49,-935.7C741.49,-927.98 741.49,-918.71 741.49,-910.11"/>
<polygon fill="black" stroke="black" points="744.99,-910.1 741.49,-900.1 737.99,-910.1 744.99,-910.1"/>
</g>
<!-- meta/hott_theory -->
<g id="node3" class="node">
<title>meta/hott_theory</title>
<ellipse fill="none" stroke="black" cx="801.49" cy="-1026" rx="71.49" ry="18"/>
<text text-anchor="middle" x="801.49" y="-1022.3" font-family="Times,serif" font-size="14.00">meta/hott_theory</text>
</g>
<!-- meta/hott_theory&#45;&gt;types/eq -->
<g id="edge2" class="edge">
<title>meta/hott_theory&#45;&gt;types/eq</title>
<path fill="none" stroke="black" d="M786.97,-1008.05C779.49,-999.33 770.24,-988.54 762.05,-978.98"/>
<polygon fill="black" stroke="black" points="764.63,-976.62 755.47,-971.31 759.32,-981.18 764.63,-976.62"/>
</g>
<!-- types/equiv -->
<g id="node5" class="node">
<title>types/equiv</title>
<ellipse fill="none" stroke="black" cx="741.49" cy="-810" rx="51.19" ry="18"/>
<text text-anchor="middle" x="741.49" y="-806.3" font-family="Times,serif" font-size="14.00">types/equiv</text>
</g>
<!-- support&#45;&gt;types/equiv -->
<g id="edge3" class="edge">
<title>support&#45;&gt;types/equiv</title>
<path fill="none" stroke="black" d="M741.49,-863.7C741.49,-855.98 741.49,-846.71 741.49,-838.11"/>
<polygon fill="black" stroke="black" points="744.99,-838.1 741.49,-828.1 737.99,-838.1 744.99,-838.1"/>
</g>
<!-- types/coproduct -->
<g id="node25" class="node">
<title>types/coproduct</title>
<ellipse fill="none" stroke="black" cx="942.49" cy="-666" rx="66.89" ry="18"/>
<text text-anchor="middle" x="942.49" y="-662.3" font-family="Times,serif" font-size="14.00">types/coproduct</text>
</g>
<!-- types/equiv&#45;&gt;types/coproduct -->
<g id="edge24" class="edge">
<title>types/equiv&#45;&gt;types/coproduct</title>
<path fill="none" stroke="black" d="M784.01,-799.84C813.38,-791.93 852.1,-778.18 880.49,-756 902.04,-739.16 919.09,-712.78 929.82,-693.11"/>
<polygon fill="black" stroke="black" points="933.02,-694.54 934.56,-684.06 926.82,-691.29 933.02,-694.54"/>
</g>
<!-- types/heq -->
<g id="node28" class="node">
<title>types/heq</title>
<ellipse fill="none" stroke="black" cx="496.49" cy="-738" rx="44.39" ry="18"/>
<text text-anchor="middle" x="496.49" y="-734.3" font-family="Times,serif" font-size="14.00">types/heq</text>
</g>
<!-- types/equiv&#45;&gt;types/heq -->
<g id="edge25" class="edge">
<title>types/equiv&#45;&gt;types/heq</title>
<path fill="none" stroke="black" d="M702.78,-798.14C664.95,-787.49 605.72,-770.77 554.49,-756 550.12,-754.74 545.56,-753.42 541.01,-752.09"/>
<polygon fill="black" stroke="black" points="541.71,-748.65 531.13,-749.21 539.75,-755.37 541.71,-748.65"/>
</g>
<!-- HITs/infinitesimal -->
<g id="node29" class="node">
<title>HITs/infinitesimal</title>
<ellipse fill="none" stroke="black" cx="672.49" cy="-738" rx="76.09" ry="18"/>
<text text-anchor="middle" x="672.49" y="-734.3" font-family="Times,serif" font-size="14.00">HITs/infinitesimal</text>
</g>
<!-- types/equiv&#45;&gt;HITs/infinitesimal -->
<g id="edge26" class="edge">
<title>types/equiv&#45;&gt;HITs/infinitesimal</title>
<path fill="none" stroke="black" d="M725.49,-792.76C716.73,-783.88 705.72,-772.71 696,-762.85"/>
<polygon fill="black" stroke="black" points="698.4,-760.3 688.89,-755.63 693.41,-765.21 698.4,-760.3"/>
</g>
<!-- types/lost -->
<g id="node30" class="node">
<title>types/lost</title>
<ellipse fill="none" stroke="black" cx="810.49" cy="-738" rx="44.39" ry="18"/>
<text text-anchor="middle" x="810.49" y="-734.3" font-family="Times,serif" font-size="14.00">types/lost</text>
</g>
<!-- types/equiv&#45;&gt;types/lost -->
<g id="edge27" class="edge">
<title>types/equiv&#45;&gt;types/lost</title>
<path fill="none" stroke="black" d="M757.49,-792.76C766.38,-783.75 777.58,-772.39 787.4,-762.43"/>
<polygon fill="black" stroke="black" points="790.05,-764.73 794.57,-755.15 785.06,-759.81 790.05,-764.73"/>
</g>
<!-- types/unit -->
<g id="node31" class="node">
<title>types/unit</title>
<ellipse fill="none" stroke="black" cx="589.49" cy="-594" rx="45.49" ry="18"/>
<text text-anchor="middle" x="589.49" y="-590.3" font-family="Times,serif" font-size="14.00">types/unit</text>
</g>
<!-- types/equiv&#45;&gt;types/unit -->
<g id="edge28" class="edge">
<title>types/equiv&#45;&gt;types/unit</title>
<path fill="none" stroke="black" d="M690.95,-806.28C655.64,-801.42 610.81,-788.69 587.49,-756 559.24,-716.4 570.32,-656.26 580.31,-621.79"/>
<polygon fill="black" stroke="black" points="583.74,-622.55 583.33,-611.96 577.05,-620.49 583.74,-622.55"/>
</g>
<!-- types/sigma -->
<g id="node32" class="node">
<title>types/sigma</title>
<ellipse fill="none" stroke="black" cx="804.49" cy="-666" rx="53.09" ry="18"/>
<text text-anchor="middle" x="804.49" y="-662.3" font-family="Times,serif" font-size="14.00">types/sigma</text>
</g>
<!-- types/equiv&#45;&gt;types/sigma -->
<g id="edge29" class="edge">
<title>types/equiv&#45;&gt;types/sigma</title>
<path fill="none" stroke="black" d="M787.56,-801.76C814.62,-794.88 846.71,-781.59 863.49,-756 872.27,-742.62 870.01,-734.61 863.49,-720 857.96,-707.6 847.93,-696.88 837.7,-688.4"/>
<polygon fill="black" stroke="black" points="839.57,-685.43 829.52,-682.08 835.29,-690.97 839.57,-685.43"/>
</g>
<!-- structures -->
<g id="node6" class="node">
<title>structures</title>
<ellipse fill="none" stroke="black" cx="804.49" cy="-522" rx="44.69" ry="18"/>
<text text-anchor="middle" x="804.49" y="-518.3" font-family="Times,serif" font-size="14.00">structures</text>
</g>
<!-- HITs/interval -->
<g id="node7" class="node">
<title>HITs/interval</title>
<ellipse fill="none" stroke="black" cx="1154.49" cy="-450" rx="57.69" ry="18"/>
<text text-anchor="middle" x="1154.49" y="-446.3" font-family="Times,serif" font-size="14.00">HITs/interval</text>
</g>
<!-- structures&#45;&gt;HITs/interval -->
<g id="edge4" class="edge">
<title>structures&#45;&gt;HITs/interval</title>
<path fill="none" stroke="black" d="M843.62,-513.17C905.34,-500.83 1025.6,-476.78 1097.1,-462.48"/>
<polygon fill="black" stroke="black" points="1098.16,-465.83 1107.28,-460.44 1096.79,-458.97 1098.16,-465.83"/>
</g>
<!-- HITs/merely -->
<g id="node8" class="node">
<title>HITs/merely</title>
<ellipse fill="none" stroke="black" cx="581.49" cy="-450" rx="55.79" ry="18"/>
<text text-anchor="middle" x="581.49" y="-446.3" font-family="Times,serif" font-size="14.00">HITs/merely</text>
</g>
<!-- structures&#45;&gt;HITs/merely -->
<g id="edge5" class="edge">
<title>structures&#45;&gt;HITs/merely</title>
<path fill="none" stroke="black" d="M770.14,-510.22C732.58,-498.43 672.14,-479.45 629.81,-466.17"/>
<polygon fill="black" stroke="black" points="630.59,-462.75 620,-463.09 628.5,-469.42 630.59,-462.75"/>
</g>
<!-- HITs/trunc -->
<g id="node9" class="node">
<title>HITs/trunc</title>
<ellipse fill="none" stroke="black" cx="807.49" cy="-450" rx="49.29" ry="18"/>
<text text-anchor="middle" x="807.49" y="-446.3" font-family="Times,serif" font-size="14.00">HITs/trunc</text>
</g>
<!-- structures&#45;&gt;HITs/trunc -->
<g id="edge6" class="edge">
<title>structures&#45;&gt;HITs/trunc</title>
<path fill="none" stroke="black" d="M805.23,-503.7C805.56,-495.98 805.96,-486.71 806.33,-478.11"/>
<polygon fill="black" stroke="black" points="809.83,-478.25 806.76,-468.1 802.83,-477.95 809.83,-478.25"/>
</g>
<!-- types/nat -->
<g id="node10" class="node">
<title>types/nat</title>
<ellipse fill="none" stroke="black" cx="697.49" cy="-450" rx="42.49" ry="18"/>
<text text-anchor="middle" x="697.49" y="-446.3" font-family="Times,serif" font-size="14.00">types/nat</text>
</g>
<!-- structures&#45;&gt;types/nat -->
<g id="edge7" class="edge">
<title>structures&#45;&gt;types/nat</title>
<path fill="none" stroke="black" d="M782.06,-506.33C766.41,-496.08 745.32,-482.29 728.12,-471.04"/>
<polygon fill="black" stroke="black" points="729.81,-467.96 719.53,-465.42 725.98,-473.82 729.81,-467.96"/>
</g>
<!-- theorems/ua -->
<g id="node11" class="node">
<title>theorems/ua</title>
<ellipse fill="none" stroke="black" cx="928.49" cy="-450" rx="53.89" ry="18"/>
<text text-anchor="middle" x="928.49" y="-446.3" font-family="Times,serif" font-size="14.00">theorems/ua</text>
</g>
<!-- structures&#45;&gt;theorems/ua -->
<g id="edge8" class="edge">
<title>structures&#45;&gt;theorems/ua</title>
<path fill="none" stroke="black" d="M829.58,-506.83C847.87,-496.51 872.9,-482.38 893.2,-470.92"/>
<polygon fill="black" stroke="black" points="895.16,-473.83 902.15,-465.87 891.72,-467.74 895.16,-473.83"/>
</g>
<!-- cubical/cubes -->
<g id="node48" class="node">
<title>cubical/cubes</title>
<ellipse fill="none" stroke="black" cx="1390.49" cy="-378" rx="58.49" ry="18"/>
<text text-anchor="middle" x="1390.49" y="-374.3" font-family="Times,serif" font-size="14.00">cubical/cubes</text>
</g>
<!-- HITs/interval&#45;&gt;cubical/cubes -->
<g id="edge51" class="edge">
<title>HITs/interval&#45;&gt;cubical/cubes</title>
<path fill="none" stroke="black" d="M1194.79,-437.05C1234.98,-425.13 1296.8,-406.79 1340.18,-393.92"/>
<polygon fill="black" stroke="black" points="1341.37,-397.22 1349.96,-391.02 1339.38,-390.51 1341.37,-397.22"/>
</g>
<!-- theorems/prop -->
<g id="node49" class="node">
<title>theorems/prop</title>
<ellipse fill="none" stroke="black" cx="928.49" cy="-378" rx="61.99" ry="18"/>
<text text-anchor="middle" x="928.49" y="-374.3" font-family="Times,serif" font-size="14.00">theorems/prop</text>
</g>
<!-- HITs/interval&#45;&gt;theorems/prop -->
<g id="edge52" class="edge">
<title>HITs/interval&#45;&gt;theorems/prop</title>
<path fill="none" stroke="black" d="M1115.13,-436.81C1077.31,-425.09 1020,-407.34 978.87,-394.61"/>
<polygon fill="black" stroke="black" points="979.9,-391.26 969.31,-391.64 977.83,-397.95 979.9,-391.26"/>
</g>
<!-- theorems/fibration -->
<g id="node50" class="node">
<title>theorems/fibration</title>
<ellipse fill="none" stroke="black" cx="1154.49" cy="-306" rx="76.09" ry="18"/>
<text text-anchor="middle" x="1154.49" y="-302.3" font-family="Times,serif" font-size="14.00">theorems/fibration</text>
</g>
<!-- HITs/interval&#45;&gt;theorems/fibration -->
<g id="edge53" class="edge">
<title>HITs/interval&#45;&gt;theorems/fibration</title>
<path fill="none" stroke="black" d="M1154.49,-431.87C1154.49,-407.67 1154.49,-363.21 1154.49,-334.39"/>
<polygon fill="black" stroke="black" points="1157.99,-334.19 1154.49,-324.19 1150.99,-334.19 1157.99,-334.19"/>
</g>
<!-- HITs/merely&#45;&gt;theorems/prop -->
<g id="edge54" class="edge">
<title>HITs/merely&#45;&gt;theorems/prop</title>
<path fill="none" stroke="black" d="M622.65,-437.77C630.54,-435.75 638.75,-433.74 646.49,-432 721.69,-415.12 808.99,-399.29 866.3,-389.4"/>
<polygon fill="black" stroke="black" points="867.03,-392.83 876.29,-387.68 865.84,-385.93 867.03,-392.83"/>
</g>
<!-- theorems/ontological -->
<g id="node52" class="node">
<title>theorems/ontological</title>
<ellipse fill="none" stroke="black" cx="443.49" cy="-378" rx="85.29" ry="18"/>
<text text-anchor="middle" x="443.49" y="-374.3" font-family="Times,serif" font-size="14.00">theorems/ontological</text>
</g>
<!-- HITs/merely&#45;&gt;theorems/ontological -->
<g id="edge55" class="edge">
<title>HITs/merely&#45;&gt;theorems/ontological</title>
<path fill="none" stroke="black" d="M552.9,-434.5C533,-424.4 506.19,-410.8 484.09,-399.59"/>
<polygon fill="black" stroke="black" points="485.44,-396.35 474.94,-394.95 482.27,-402.59 485.44,-396.35"/>
</g>
<!-- HITs/simplicial -->
<g id="node53" class="node">
<title>HITs/simplicial</title>
<ellipse fill="none" stroke="black" cx="612.49" cy="-378" rx="66.09" ry="18"/>
<text text-anchor="middle" x="612.49" y="-374.3" font-family="Times,serif" font-size="14.00">HITs/simplicial</text>
</g>
<!-- HITs/merely&#45;&gt;HITs/simplicial -->
<g id="edge56" class="edge">
<title>HITs/merely&#45;&gt;HITs/simplicial</title>
<path fill="none" stroke="black" d="M589,-432.05C592.52,-424.09 596.81,-414.41 600.75,-405.51"/>
<polygon fill="black" stroke="black" points="603.99,-406.84 604.84,-396.28 597.59,-404 603.99,-406.84"/>
</g>
<!-- theorems/functions -->
<g id="node54" class="node">
<title>theorems/functions</title>
<ellipse fill="none" stroke="black" cx="145.49" cy="-234" rx="78.79" ry="18"/>
<text text-anchor="middle" x="145.49" y="-230.3" font-family="Times,serif" font-size="14.00">theorems/functions</text>
</g>
<!-- HITs/merely&#45;&gt;theorems/functions -->
<g id="edge57" class="edge">
<title>HITs/merely&#45;&gt;theorems/functions</title>
<path fill="none" stroke="black" d="M529.55,-443.06C421.06,-430.55 179.88,-402.12 173.49,-396 137.47,-361.5 137.72,-298.45 141.41,-262.34"/>
<polygon fill="black" stroke="black" points="144.93,-262.4 142.63,-252.06 137.98,-261.57 144.93,-262.4"/>
</g>
<!-- algebra/monoid -->
<g id="node14" class="node">
<title>algebra/monoid</title>
<ellipse fill="none" stroke="black" cx="601.49" cy="-162" rx="66.09" ry="18"/>
<text text-anchor="middle" x="601.49" y="-158.3" font-family="Times,serif" font-size="14.00">algebra/monoid</text>
</g>
<!-- HITs/trunc&#45;&gt;algebra/monoid -->
<g id="edge62" class="edge">
<title>HITs/trunc&#45;&gt;algebra/monoid</title>
<path fill="none" stroke="black" d="M816.5,-431.99C825.44,-412.5 835.66,-380.61 819.49,-360 777.97,-307.08 735.7,-347.01 672.49,-324 668.24,-322.45 528.88,-255.84 526.49,-252 518.04,-238.41 519.13,-230.21 526.49,-216 533.64,-202.2 546.22,-191.22 559.06,-182.92"/>
<polygon fill="black" stroke="black" points="561.16,-185.74 567.93,-177.6 557.55,-179.74 561.16,-185.74"/>
</g>
<!-- HITs/quotient -->
<g id="node47" class="node">
<title>HITs/quotient</title>
<ellipse fill="none" stroke="black" cx="242.49" cy="-378" rx="59.59" ry="18"/>
<text text-anchor="middle" x="242.49" y="-374.3" font-family="Times,serif" font-size="14.00">HITs/quotient</text>
</g>
<!-- HITs/trunc&#45;&gt;HITs/quotient -->
<g id="edge63" class="edge">
<title>HITs/trunc&#45;&gt;HITs/quotient</title>
<path fill="none" stroke="black" d="M771.56,-437.47C764,-435.38 756.04,-433.41 748.49,-432 573.48,-399.2 526.18,-417.98 349.49,-396 334.48,-394.13 318.33,-391.76 303.25,-389.38"/>
<polygon fill="black" stroke="black" points="303.44,-385.87 293.01,-387.75 302.33,-392.78 303.44,-385.87"/>
</g>
<!-- theorems/nat -->
<g id="node37" class="node">
<title>theorems/nat</title>
<ellipse fill="none" stroke="black" cx="753.49" cy="-378" rx="56.59" ry="18"/>
<text text-anchor="middle" x="753.49" y="-374.3" font-family="Times,serif" font-size="14.00">theorems/nat</text>
</g>
<!-- types/nat&#45;&gt;theorems/nat -->
<g id="edge34" class="edge">
<title>types/nat&#45;&gt;theorems/nat</title>
<path fill="none" stroke="black" d="M710.48,-432.76C717.38,-424.14 726,-413.36 733.71,-403.73"/>
<polygon fill="black" stroke="black" points="736.67,-405.63 740.18,-395.63 731.2,-401.26 736.67,-405.63"/>
</g>
<!-- theorems/ua&#45;&gt;theorems/nat -->
<g id="edge82" class="edge">
<title>theorems/ua&#45;&gt;theorems/nat</title>
<path fill="none" stroke="black" d="M895.16,-435.67C867.24,-424.5 827.19,-408.48 796.79,-396.32"/>
<polygon fill="black" stroke="black" points="797.88,-392.98 787.29,-392.52 795.28,-399.48 797.88,-392.98"/>
</g>
<!-- theorems/ua&#45;&gt;theorems/prop -->
<g id="edge83" class="edge">
<title>theorems/ua&#45;&gt;theorems/prop</title>
<path fill="none" stroke="black" d="M928.49,-431.7C928.49,-423.98 928.49,-414.71 928.49,-406.11"/>
<polygon fill="black" stroke="black" points="931.99,-406.1 928.49,-396.1 924.99,-406.1 931.99,-406.1"/>
</g>
<!-- cubical/V -->
<g id="node59" class="node">
<title>cubical/V</title>
<ellipse fill="none" stroke="black" cx="1258.49" cy="-234" rx="44.69" ry="18"/>
<text text-anchor="middle" x="1258.49" y="-230.3" font-family="Times,serif" font-size="14.00">cubical/V</text>
</g>
<!-- theorems/ua&#45;&gt;cubical/V -->
<g id="edge84" class="edge">
<title>theorems/ua&#45;&gt;cubical/V</title>
<path fill="none" stroke="black" d="M978.94,-443.33C1048.5,-432.73 1172.8,-403.26 1239.49,-324 1253.91,-306.86 1258.19,-281.42 1259.13,-262.12"/>
<polygon fill="black" stroke="black" points="1262.63,-262.2 1259.36,-252.12 1255.63,-262.04 1262.63,-262.2"/>
</g>
<!-- algebra/basic -->
<g id="node12" class="node">
<title>algebra/basic</title>
<ellipse fill="none" stroke="black" cx="592.49" cy="-234" rx="57.39" ry="18"/>
<text text-anchor="middle" x="592.49" y="-230.3" font-family="Times,serif" font-size="14.00">algebra/basic</text>
</g>
<!-- algebra/category -->
<g id="node13" class="node">
<title>algebra/category</title>
<ellipse fill="none" stroke="black" cx="1010.49" cy="-162" rx="69.59" ry="18"/>
<text text-anchor="middle" x="1010.49" y="-158.3" font-family="Times,serif" font-size="14.00">algebra/category</text>
</g>
<!-- algebra/basic&#45;&gt;algebra/category -->
<g id="edge9" class="edge">
<title>algebra/basic&#45;&gt;algebra/category</title>
<path fill="none" stroke="black" d="M634.24,-221.56C642.25,-219.56 650.61,-217.6 658.49,-216 754.74,-196.41 867.15,-180.72 938.56,-171.63"/>
<polygon fill="black" stroke="black" points="939.31,-175.07 948.79,-170.34 938.43,-168.12 939.31,-175.07"/>
</g>
<!-- algebra/basic&#45;&gt;algebra/monoid -->
<g id="edge10" class="edge">
<title>algebra/basic&#45;&gt;algebra/monoid</title>
<path fill="none" stroke="black" d="M594.72,-215.7C595.71,-207.98 596.9,-198.71 598.01,-190.11"/>
<polygon fill="black" stroke="black" points="601.49,-190.47 599.29,-180.1 594.55,-189.58 601.49,-190.47"/>
</g>
<!-- algebra/group -->
<g id="node15" class="node">
<title>algebra/group</title>
<ellipse fill="none" stroke="black" cx="277.49" cy="-162" rx="59.59" ry="18"/>
<text text-anchor="middle" x="277.49" y="-158.3" font-family="Times,serif" font-size="14.00">algebra/group</text>
</g>
<!-- algebra/basic&#45;&gt;algebra/group -->
<g id="edge11" class="edge">
<title>algebra/basic&#45;&gt;algebra/group</title>
<path fill="none" stroke="black" d="M546.15,-223.44C496.64,-213.13 415.88,-196.02 346.49,-180 341.78,-178.91 336.9,-177.76 332,-176.59"/>
<polygon fill="black" stroke="black" points="332.53,-173.11 321.99,-174.17 330.88,-179.92 332.53,-173.11"/>
</g>
<!-- algebra/eilenberg_maclane -->
<g id="node17" class="node">
<title>algebra/eilenberg_maclane</title>
<ellipse fill="none" stroke="black" cx="876.49" cy="-90" rx="105.88" ry="18"/>
<text text-anchor="middle" x="876.49" y="-86.3" font-family="Times,serif" font-size="14.00">algebra/eilenberg_maclane</text>
</g>
<!-- algebra/group&#45;&gt;algebra/eilenberg_maclane -->
<g id="edge12" class="edge">
<title>algebra/group&#45;&gt;algebra/eilenberg_maclane</title>
<path fill="none" stroke="black" d="M320.36,-149.44C328.97,-147.4 337.98,-145.47 346.49,-144 491.05,-119.09 659.97,-104.7 767.54,-97.36"/>
<polygon fill="black" stroke="black" points="768.02,-100.84 777.76,-96.67 767.54,-93.85 768.02,-100.84"/>
</g>
<!-- algebra/finite -->
<g id="node18" class="node">
<title>algebra/finite</title>
<ellipse fill="none" stroke="black" cx="270.49" cy="-90" rx="57.69" ry="18"/>
<text text-anchor="middle" x="270.49" y="-86.3" font-family="Times,serif" font-size="14.00">algebra/finite</text>
</g>
<!-- algebra/group&#45;&gt;algebra/finite -->
<g id="edge13" class="edge">
<title>algebra/group&#45;&gt;algebra/finite</title>
<path fill="none" stroke="black" d="M275.76,-143.7C274.99,-135.98 274.06,-126.71 273.2,-118.11"/>
<polygon fill="black" stroke="black" points="276.68,-117.71 272.2,-108.1 269.71,-118.4 276.68,-117.71"/>
</g>
<!-- algebra/ring -->
<g id="node19" class="node">
<title>algebra/ring</title>
<ellipse fill="none" stroke="black" cx="399.49" cy="-90" rx="53.09" ry="18"/>
<text text-anchor="middle" x="399.49" y="-86.3" font-family="Times,serif" font-size="14.00">algebra/ring</text>
</g>
<!-- algebra/group&#45;&gt;algebra/ring -->
<g id="edge14" class="edge">
<title>algebra/group&#45;&gt;algebra/ring</title>
<path fill="none" stroke="black" d="M303.96,-145.81C321.75,-135.61 345.38,-122.05 364.68,-110.97"/>
<polygon fill="black" stroke="black" points="366.56,-113.93 373.49,-105.92 363.07,-107.86 366.56,-113.93"/>
</g>
<!-- algebra/transformational -->
<g id="node20" class="node">
<title>algebra/transformational</title>
<ellipse fill="none" stroke="black" cx="97.49" cy="-90" rx="97.48" ry="18"/>
<text text-anchor="middle" x="97.49" y="-86.3" font-family="Times,serif" font-size="14.00">algebra/transformational</text>
</g>
<!-- algebra/group&#45;&gt;algebra/transformational -->
<g id="edge15" class="edge">
<title>algebra/group&#45;&gt;algebra/transformational</title>
<path fill="none" stroke="black" d="M242.36,-147.34C215.12,-136.75 177.05,-121.94 146.77,-110.16"/>
<polygon fill="black" stroke="black" points="147.82,-106.82 137.24,-106.46 145.29,-113.34 147.82,-106.82"/>
</g>
<!-- algebra/Z -->
<g id="node21" class="node">
<title>algebra/Z</title>
<ellipse fill="none" stroke="black" cx="514.49" cy="-90" rx="44.39" ry="18"/>
<text text-anchor="middle" x="514.49" y="-86.3" font-family="Times,serif" font-size="14.00">algebra/Z</text>
</g>
<!-- algebra/group&#45;&gt;algebra/Z -->
<g id="edge16" class="edge">
<title>algebra/group&#45;&gt;algebra/Z</title>
<path fill="none" stroke="black" d="M319.99,-149.15C357.35,-138.64 413.15,-122.71 461.49,-108 464.78,-107 468.18,-105.95 471.59,-104.88"/>
<polygon fill="black" stroke="black" points="472.7,-108.2 481.18,-101.85 470.59,-101.53 472.7,-108.2"/>
</g>
<!-- algebra/boolean -->
<g id="node16" class="node">
<title>algebra/boolean</title>
<ellipse fill="none" stroke="black" cx="376.49" cy="-18" rx="66.89" ry="18"/>
<text text-anchor="middle" x="376.49" y="-14.3" font-family="Times,serif" font-size="14.00">algebra/boolean</text>
</g>
<!-- algebra/ring&#45;&gt;algebra/boolean -->
<g id="edge17" class="edge">
<title>algebra/ring&#45;&gt;algebra/boolean</title>
<path fill="none" stroke="black" d="M393.92,-72.05C391.33,-64.18 388.19,-54.62 385.3,-45.79"/>
<polygon fill="black" stroke="black" points="388.61,-44.68 382.17,-36.28 381.96,-46.87 388.61,-44.68"/>
</g>
<!-- algebra/orgraph -->
<g id="node23" class="node">
<title>algebra/orgraph</title>
<ellipse fill="none" stroke="black" cx="935.49" cy="-18" rx="66.09" ry="18"/>
<text text-anchor="middle" x="935.49" y="-14.3" font-family="Times,serif" font-size="14.00">algebra/orgraph</text>
</g>
<!-- algebra/ring&#45;&gt;algebra/orgraph -->
<g id="edge18" class="edge">
<title>algebra/ring&#45;&gt;algebra/orgraph</title>
<path fill="none" stroke="black" d="M437.97,-77.45C445.71,-75.41 453.82,-73.47 461.49,-72 601.41,-45.17 767.35,-30.46 861.14,-23.7"/>
<polygon fill="black" stroke="black" points="861.65,-27.18 871.38,-22.98 861.16,-20.19 861.65,-27.18"/>
</g>
<!-- algebra/homology -->
<g id="node22" class="node">
<title>algebra/homology</title>
<ellipse fill="none" stroke="black" cx="536.49" cy="-18" rx="75.29" ry="18"/>
<text text-anchor="middle" x="536.49" y="-14.3" font-family="Times,serif" font-size="14.00">algebra/homology</text>
</g>
<!-- algebra/Z&#45;&gt;algebra/homology -->
<g id="edge19" class="edge">
<title>algebra/Z&#45;&gt;algebra/homology</title>
<path fill="none" stroke="black" d="M519.82,-72.05C522.27,-64.26 525.23,-54.82 527.98,-46.08"/>
<polygon fill="black" stroke="black" points="531.4,-46.86 531.06,-36.28 524.72,-44.77 531.4,-46.86"/>
</g>
<!-- types/category -->
<g id="node24" class="node">
<title>types/category</title>
<ellipse fill="none" stroke="black" cx="861.49" cy="-234" rx="61.99" ry="18"/>
<text text-anchor="middle" x="861.49" y="-230.3" font-family="Times,serif" font-size="14.00">types/category</text>
</g>
<!-- types/coproduct&#45;&gt;structures -->
<g id="edge20" class="edge">
<title>types/coproduct&#45;&gt;structures</title>
<path fill="none" stroke="black" d="M926.39,-648.43C901.85,-623.18 855,-574.97 827.07,-546.23"/>
<polygon fill="black" stroke="black" points="829.55,-543.76 820.07,-539.03 824.53,-548.64 829.55,-543.76"/>
</g>
<!-- types/ens -->
<g id="node26" class="node">
<title>types/ens</title>
<ellipse fill="none" stroke="black" cx="725.49" cy="-306" rx="43.59" ry="18"/>
<text text-anchor="middle" x="725.49" y="-302.3" font-family="Times,serif" font-size="14.00">types/ens</text>
</g>
<!-- types/ens&#45;&gt;algebra/basic -->
<g id="edge22" class="edge">
<title>types/ens&#45;&gt;algebra/basic</title>
<path fill="none" stroke="black" d="M699.53,-291.34C679.6,-280.85 651.81,-266.22 629.54,-254.5"/>
<polygon fill="black" stroke="black" points="631.16,-251.4 620.68,-249.84 627.9,-257.59 631.16,-251.4"/>
</g>
<!-- types/setquot -->
<g id="node27" class="node">
<title>types/setquot</title>
<ellipse fill="none" stroke="black" cx="724.49" cy="-234" rx="57.39" ry="18"/>
<text text-anchor="middle" x="724.49" y="-230.3" font-family="Times,serif" font-size="14.00">types/setquot</text>
</g>
<!-- types/ens&#45;&gt;types/setquot -->
<g id="edge23" class="edge">
<title>types/ens&#45;&gt;types/setquot</title>
<path fill="none" stroke="black" d="M725.24,-287.7C725.13,-279.98 725,-270.71 724.88,-262.11"/>
<polygon fill="black" stroke="black" points="728.38,-262.05 724.74,-252.1 721.38,-262.15 728.38,-262.05"/>
</g>
<!-- HITs/graph -->
<g id="node33" class="node">
<title>HITs/graph</title>
<ellipse fill="none" stroke="black" cx="474.49" cy="-594" rx="51.19" ry="18"/>
<text text-anchor="middle" x="474.49" y="-590.3" font-family="Times,serif" font-size="14.00">HITs/graph</text>
</g>
<!-- types/heq&#45;&gt;HITs/graph -->
<g id="edge30" class="edge">
<title>types/heq&#45;&gt;HITs/graph</title>
<path fill="none" stroke="black" d="M493.84,-719.87C490.09,-695.67 483.2,-651.21 478.74,-622.39"/>
<polygon fill="black" stroke="black" points="482.14,-621.54 477.15,-612.19 475.23,-622.61 482.14,-621.54"/>
</g>
<!-- theorems/funext -->
<g id="node34" class="node">
<title>theorems/funext</title>
<ellipse fill="none" stroke="black" cx="664.49" cy="-666" rx="68.49" ry="18"/>
<text text-anchor="middle" x="664.49" y="-662.3" font-family="Times,serif" font-size="14.00">theorems/funext</text>
</g>
<!-- types/heq&#45;&gt;theorems/funext -->
<g id="edge31" class="edge">
<title>types/heq&#45;&gt;theorems/funext</title>
<path fill="none" stroke="black" d="M526.14,-724.65C552.23,-713.77 590.59,-697.79 620.31,-685.41"/>
<polygon fill="black" stroke="black" points="621.74,-688.61 629.62,-681.53 619.04,-682.14 621.74,-688.61"/>
</g>
<!-- types/unit&#45;&gt;structures -->
<g id="edge38" class="edge">
<title>types/unit&#45;&gt;structures</title>
<path fill="none" stroke="black" d="M623.56,-581.91C660.75,-569.8 720.4,-550.38 760.96,-537.17"/>
<polygon fill="black" stroke="black" points="762.16,-540.46 770.58,-534.04 759.99,-533.81 762.16,-540.46"/>
</g>
<!-- HITs/suspension -->
<g id="node40" class="node">
<title>HITs/suspension</title>
<ellipse fill="none" stroke="black" cx="340.49" cy="-450" rx="69.59" ry="18"/>
<text text-anchor="middle" x="340.49" y="-446.3" font-family="Times,serif" font-size="14.00">HITs/suspension</text>
</g>
<!-- types/unit&#45;&gt;HITs/suspension -->
<g id="edge39" class="edge">
<title>types/unit&#45;&gt;HITs/suspension</title>
<path fill="none" stroke="black" d="M590.67,-575.73C591.03,-555.69 588.36,-522.99 569.49,-504 547.71,-482.07 471.52,-467.54 412.94,-459.32"/>
<polygon fill="black" stroke="black" points="413.34,-455.85 402.96,-457.96 412.4,-462.78 413.34,-455.85"/>
</g>
<!-- types/sigma&#45;&gt;structures -->
<g id="edge37" class="edge">
<title>types/sigma&#45;&gt;structures</title>
<path fill="none" stroke="black" d="M804.49,-647.87C804.49,-623.67 804.49,-579.21 804.49,-550.39"/>
<polygon fill="black" stroke="black" points="807.99,-550.19 804.49,-540.19 800.99,-550.19 807.99,-550.19"/>
</g>
<!-- HITs/colimit -->
<g id="node44" class="node">
<title>HITs/colimit</title>
<ellipse fill="none" stroke="black" cx="673.49" cy="-522" rx="56.59" ry="18"/>
<text text-anchor="middle" x="673.49" y="-518.3" font-family="Times,serif" font-size="14.00">HITs/colimit</text>
</g>
<!-- HITs/graph&#45;&gt;HITs/colimit -->
<g id="edge47" class="edge">
<title>HITs/graph&#45;&gt;HITs/colimit</title>
<path fill="none" stroke="black" d="M509.61,-580.65C542.35,-569.13 591.39,-551.88 627.29,-539.25"/>
<polygon fill="black" stroke="black" points="628.77,-542.44 637.04,-535.82 626.45,-535.84 628.77,-542.44"/>
</g>
<!-- HITs/generalized -->
<g id="node45" class="node">
<title>HITs/generalized</title>
<ellipse fill="none" stroke="black" cx="489.49" cy="-522" rx="71.49" ry="18"/>
<text text-anchor="middle" x="489.49" y="-518.3" font-family="Times,serif" font-size="14.00">HITs/generalized</text>
</g>
<!-- HITs/graph&#45;&gt;HITs/generalized -->
<g id="edge48" class="edge">
<title>HITs/graph&#45;&gt;HITs/generalized</title>
<path fill="none" stroke="black" d="M478.2,-575.7C479.85,-567.98 481.84,-558.71 483.68,-550.11"/>
<polygon fill="black" stroke="black" points="487.15,-550.62 485.83,-540.1 480.31,-549.15 487.15,-550.62"/>
</g>
<!-- HITs/pushout -->
<g id="node46" class="node">
<title>HITs/pushout</title>
<ellipse fill="none" stroke="black" cx="340.49" cy="-522" rx="59.29" ry="18"/>
<text text-anchor="middle" x="340.49" y="-518.3" font-family="Times,serif" font-size="14.00">HITs/pushout</text>
</g>
<!-- HITs/graph&#45;&gt;HITs/pushout -->
<g id="edge49" class="edge">
<title>HITs/graph&#45;&gt;HITs/pushout</title>
<path fill="none" stroke="black" d="M447.05,-578.67C427.22,-568.31 400.18,-554.18 378.31,-542.75"/>
<polygon fill="black" stroke="black" points="379.77,-539.57 369.28,-538.04 376.53,-545.77 379.77,-539.57"/>
</g>
<!-- HITs/graph&#45;&gt;HITs/quotient -->
<g id="edge50" class="edge">
<title>HITs/graph&#45;&gt;HITs/quotient</title>
<path fill="none" stroke="black" d="M427.59,-586.57C374.71,-578.35 293.36,-562.43 272.49,-540 238.62,-503.59 237.03,-441.78 239.42,-406.27"/>
<polygon fill="black" stroke="black" points="242.92,-406.41 240.26,-396.15 235.94,-405.83 242.92,-406.41"/>
</g>
<!-- types/product -->
<g id="node39" class="node">
<title>types/product</title>
<ellipse fill="none" stroke="black" cx="713.49" cy="-594" rx="58.49" ry="18"/>
<text text-anchor="middle" x="713.49" y="-590.3" font-family="Times,serif" font-size="14.00">types/product</text>
</g>
<!-- theorems/funext&#45;&gt;types/product -->
<g id="edge74" class="edge">
<title>theorems/funext&#45;&gt;types/product</title>
<path fill="none" stroke="black" d="M676.35,-648.05C682.19,-639.71 689.35,-629.49 695.82,-620.25"/>
<polygon fill="black" stroke="black" points="698.87,-621.99 701.74,-611.79 693.14,-617.97 698.87,-621.99"/>
</g>
<!-- types/integer -->
<g id="node35" class="node">
<title>types/integer</title>
<ellipse fill="none" stroke="black" cx="334.49" cy="-306" rx="55.79" ry="18"/>
<text text-anchor="middle" x="334.49" y="-302.3" font-family="Times,serif" font-size="14.00">types/integer</text>
</g>
<!-- types/integer&#45;&gt;algebra/group -->
<g id="edge32" class="edge">
<title>types/integer&#45;&gt;algebra/group</title>
<path fill="none" stroke="black" d="M327.62,-287.87C317.82,-263.46 299.74,-218.43 288.18,-189.64"/>
<polygon fill="black" stroke="black" points="291.36,-188.17 284.39,-180.19 284.87,-190.77 291.36,-188.17"/>
</g>
<!-- HITs/circle -->
<g id="node36" class="node">
<title>HITs/circle</title>
<ellipse fill="none" stroke="black" cx="418.49" cy="-234" rx="50.89" ry="18"/>
<text text-anchor="middle" x="418.49" y="-230.3" font-family="Times,serif" font-size="14.00">HITs/circle</text>
</g>
<!-- types/integer&#45;&gt;HITs/circle -->
<g id="edge33" class="edge">
<title>types/integer&#45;&gt;HITs/circle</title>
<path fill="none" stroke="black" d="M353.97,-288.76C365.19,-279.42 379.44,-267.55 391.69,-257.33"/>
<polygon fill="black" stroke="black" points="393.96,-260 399.4,-250.91 389.48,-254.62 393.96,-260"/>
</g>
<!-- HITs/circle&#45;&gt;algebra/Z -->
<g id="edge40" class="edge">
<title>HITs/circle&#45;&gt;algebra/Z</title>
<path fill="none" stroke="black" d="M445.19,-218.55C459.92,-209.31 477.42,-196.06 488.49,-180 501.23,-161.52 507.8,-136.77 511.15,-118.07"/>
<polygon fill="black" stroke="black" points="514.62,-118.53 512.73,-108.11 507.71,-117.43 514.62,-118.53"/>
</g>
<!-- theorems/hopf -->
<g id="node41" class="node">
<title>theorems/hopf</title>
<ellipse fill="none" stroke="black" cx="797.49" cy="-162" rx="61.99" ry="18"/>
<text text-anchor="middle" x="797.49" y="-158.3" font-family="Times,serif" font-size="14.00">theorems/hopf</text>
</g>
<!-- HITs/circle&#45;&gt;theorems/hopf -->
<g id="edge41" class="edge">
<title>HITs/circle&#45;&gt;theorems/hopf</title>
<path fill="none" stroke="black" d="M462.34,-224.9C530.03,-212.4 660.16,-188.36 736.84,-174.2"/>
<polygon fill="black" stroke="black" points="737.63,-177.62 746.83,-172.36 736.36,-170.73 737.63,-177.62"/>
</g>
<!-- HITs/moebius -->
<g id="node42" class="node">
<title>HITs/moebius</title>
<ellipse fill="none" stroke="black" cx="417.49" cy="-162" rx="61.99" ry="18"/>
<text text-anchor="middle" x="417.49" y="-158.3" font-family="Times,serif" font-size="14.00">HITs/moebius</text>
</g>
<!-- HITs/circle&#45;&gt;HITs/moebius -->
<g id="edge42" class="edge">
<title>HITs/circle&#45;&gt;HITs/moebius</title>
<path fill="none" stroke="black" d="M418.24,-215.7C418.13,-207.98 418,-198.71 417.88,-190.11"/>
<polygon fill="black" stroke="black" points="421.38,-190.05 417.74,-180.1 414.38,-190.15 421.38,-190.05"/>
</g>
<!-- HITs/reals -->
<g id="node43" class="node">
<title>HITs/reals</title>
<ellipse fill="none" stroke="black" cx="147.49" cy="-162" rx="48.19" ry="18"/>
<text text-anchor="middle" x="147.49" y="-158.3" font-family="Times,serif" font-size="14.00">HITs/reals</text>
</g>
<!-- HITs/circle&#45;&gt;HITs/reals -->
<g id="edge43" class="edge">
<title>HITs/circle&#45;&gt;HITs/reals</title>
<path fill="none" stroke="black" d="M377.76,-223.04C335.4,-212.6 267.18,-195.58 208.49,-180 203.89,-178.78 199.09,-177.48 194.3,-176.17"/>
<polygon fill="black" stroke="black" points="195.12,-172.77 184.55,-173.48 193.26,-179.51 195.12,-172.77"/>
</g>
<!-- theorems/nat&#45;&gt;types/integer -->
<g id="edge75" class="edge">
<title>theorems/nat&#45;&gt;types/integer</title>
<path fill="none" stroke="black" d="M712.1,-365.64C703.97,-363.61 695.49,-361.63 687.49,-360 586.2,-339.41 467.04,-323.15 396.31,-314.32"/>
<polygon fill="black" stroke="black" points="396.58,-310.83 386.23,-313.07 395.72,-317.77 396.58,-310.83"/>
</g>
<!-- HITs/int -->
<g id="node61" class="node">
<title>HITs/int</title>
<ellipse fill="none" stroke="black" cx="547.49" cy="-306" rx="40.09" ry="18"/>
<text text-anchor="middle" x="547.49" y="-302.3" font-family="Times,serif" font-size="14.00">HITs/int</text>
</g>
<!-- theorems/nat&#45;&gt;HITs/int -->
<g id="edge76" class="edge">
<title>theorems/nat&#45;&gt;HITs/int</title>
<path fill="none" stroke="black" d="M716.19,-364.32C680,-352.03 625.24,-333.42 588.01,-320.77"/>
<polygon fill="black" stroke="black" points="589.06,-317.43 578.47,-317.53 586.81,-324.06 589.06,-317.43"/>
</g>
<!-- types/precategory -->
<g id="node38" class="node">
<title>types/precategory</title>
<ellipse fill="none" stroke="black" cx="880.49" cy="-306" rx="73.39" ry="18"/>
<text text-anchor="middle" x="880.49" y="-302.3" font-family="Times,serif" font-size="14.00">types/precategory</text>
</g>
<!-- types/precategory&#45;&gt;types/category -->
<g id="edge35" class="edge">
<title>types/precategory&#45;&gt;types/category</title>
<path fill="none" stroke="black" d="M875.79,-287.7C873.68,-279.9 871.13,-270.51 868.77,-261.83"/>
<polygon fill="black" stroke="black" points="872.13,-260.84 866.13,-252.1 865.38,-262.67 872.13,-260.84"/>
</g>
<!-- types/product&#45;&gt;structures -->
<g id="edge36" class="edge">
<title>types/product&#45;&gt;structures</title>
<path fill="none" stroke="black" d="M734.14,-577.12C746.65,-567.5 762.77,-555.1 776.42,-544.59"/>
<polygon fill="black" stroke="black" points="778.76,-547.21 784.55,-538.34 774.49,-541.66 778.76,-547.21"/>
</g>
<!-- HITs/suspension&#45;&gt;HITs/circle -->
<g id="edge60" class="edge">
<title>HITs/suspension&#45;&gt;HITs/circle</title>
<path fill="none" stroke="black" d="M338.24,-431.67C336.64,-412.75 336.67,-382.19 349.49,-360 363.19,-336.29 384.52,-346.93 399.49,-324 411.48,-305.64 416.05,-281.04 417.73,-262.35"/>
<polygon fill="black" stroke="black" points="421.24,-262.34 418.42,-252.12 414.25,-261.87 421.24,-262.34"/>
</g>
<!-- HITs/join -->
<g id="node51" class="node">
<title>HITs/join</title>
<ellipse fill="none" stroke="black" cx="81.49" cy="-378" rx="44.69" ry="18"/>
<text text-anchor="middle" x="81.49" y="-374.3" font-family="Times,serif" font-size="14.00">HITs/join</text>
</g>
<!-- HITs/suspension&#45;&gt;HITs/join -->
<g id="edge61" class="edge">
<title>HITs/suspension&#45;&gt;HITs/join</title>
<path fill="none" stroke="black" d="M293.13,-436.76C252.56,-426.19 192.6,-410.41 140.49,-396 135.92,-394.73 131.15,-393.4 126.39,-392.05"/>
<polygon fill="black" stroke="black" points="127.29,-388.66 116.71,-389.28 125.37,-395.39 127.29,-388.66"/>
</g>
<!-- HITs/colimit&#45;&gt;HITs/merely -->
<g id="edge44" class="edge">
<title>HITs/colimit&#45;&gt;HITs/merely</title>
<path fill="none" stroke="black" d="M652.62,-505.12C640.15,-495.63 624.13,-483.44 610.45,-473.03"/>
<polygon fill="black" stroke="black" points="612.36,-470.09 602.28,-466.82 608.12,-475.66 612.36,-470.09"/>
</g>
<!-- HITs/colimit&#45;&gt;types/nat -->
<g id="edge45" class="edge">
<title>HITs/colimit&#45;&gt;types/nat</title>
<path fill="none" stroke="black" d="M679.3,-504.05C682,-496.18 685.28,-486.62 688.3,-477.79"/>
<polygon fill="black" stroke="black" points="691.64,-478.87 691.57,-468.28 685.01,-476.6 691.64,-478.87"/>
</g>
<!-- HITs/generalized&#45;&gt;HITs/merely -->
<g id="edge46" class="edge">
<title>HITs/generalized&#45;&gt;HITs/merely</title>
<path fill="none" stroke="black" d="M510.83,-504.76C523.23,-495.33 539.01,-483.32 552.52,-473.04"/>
<polygon fill="black" stroke="black" points="554.75,-475.75 560.59,-466.91 550.51,-470.18 554.75,-475.75"/>
</g>
<!-- HITs/pushout&#45;&gt;HITs/suspension -->
<g id="edge58" class="edge">
<title>HITs/pushout&#45;&gt;HITs/suspension</title>
<path fill="none" stroke="black" d="M340.49,-503.7C340.49,-495.98 340.49,-486.71 340.49,-478.11"/>
<polygon fill="black" stroke="black" points="343.99,-478.1 340.49,-468.1 336.99,-478.1 343.99,-478.1"/>
</g>
<!-- HITs/quotient&#45;&gt;algebra/group -->
<g id="edge59" class="edge">
<title>HITs/quotient&#45;&gt;algebra/group</title>
<path fill="none" stroke="black" d="M245.3,-359.85C251.36,-322.75 265.75,-234.81 273.06,-190.1"/>
<polygon fill="black" stroke="black" points="276.51,-190.67 274.67,-180.23 269.6,-189.54 276.51,-190.67"/>
</g>
<!-- cubical/path -->
<g id="node56" class="node">
<title>cubical/path</title>
<ellipse fill="none" stroke="black" cx="1394.49" cy="-306" rx="53.89" ry="18"/>
<text text-anchor="middle" x="1394.49" y="-302.3" font-family="Times,serif" font-size="14.00">cubical/path</text>
</g>
<!-- cubical/cubes&#45;&gt;cubical/path -->
<g id="edge64" class="edge">
<title>cubical/cubes&#45;&gt;cubical/path</title>
<path fill="none" stroke="black" d="M1391.48,-359.7C1391.92,-351.98 1392.45,-342.71 1392.94,-334.11"/>
<polygon fill="black" stroke="black" points="1396.44,-334.29 1393.51,-324.1 1389.45,-333.89 1396.44,-334.29"/>
</g>
<!-- theorems/prop&#45;&gt;algebra/eilenberg_maclane -->
<g id="edge77" class="edge">
<title>theorems/prop&#45;&gt;algebra/eilenberg_maclane</title>
<path fill="none" stroke="black" d="M952.08,-361.28C979.79,-343 1027.33,-312.25 1069.49,-288 1099.48,-270.75 1120.56,-281.58 1138.49,-252 1146.79,-238.32 1143.2,-231.29 1138.49,-216 1127.1,-179.01 1121.25,-166.13 1089.49,-144 1056.99,-121.35 1015.76,-108.36 978.25,-100.91"/>
<polygon fill="black" stroke="black" points="978.76,-97.45 968.29,-99.05 977.47,-104.33 978.76,-97.45"/>
</g>
<!-- theorems/prop&#45;&gt;types/ens -->
<g id="edge78" class="edge">
<title>theorems/prop&#45;&gt;types/ens</title>
<path fill="none" stroke="black" d="M890.31,-363.83C855.35,-351.78 803.71,-333.97 767.57,-321.51"/>
<polygon fill="black" stroke="black" points="768.41,-318.1 757.82,-318.15 766.13,-324.72 768.41,-318.1"/>
</g>
<!-- theorems/prop&#45;&gt;HITs/circle -->
<g id="edge79" class="edge">
<title>theorems/prop&#45;&gt;HITs/circle</title>
<path fill="none" stroke="black" d="M877.22,-367.88C813.84,-356.35 709.77,-336.49 672.49,-324 637.05,-312.13 631.39,-301.37 596.49,-288 554.11,-271.76 504.52,-257.36 468.46,-247.68"/>
<polygon fill="black" stroke="black" points="469.23,-244.26 458.66,-245.08 467.43,-251.03 469.23,-244.26"/>
</g>
<!-- theorems/prop&#45;&gt;types/precategory -->
<g id="edge80" class="edge">
<title>theorems/prop&#45;&gt;types/precategory</title>
<path fill="none" stroke="black" d="M916.87,-360.05C911.15,-351.71 904.14,-341.49 897.81,-332.25"/>
<polygon fill="black" stroke="black" points="900.55,-330.06 892,-323.79 894.77,-334.02 900.55,-330.06"/>
</g>
<!-- theorems/classical -->
<g id="node60" class="node">
<title>theorems/classical</title>
<ellipse fill="none" stroke="black" cx="1054.49" cy="-234" rx="75.29" ry="18"/>
<text text-anchor="middle" x="1054.49" y="-230.3" font-family="Times,serif" font-size="14.00">theorems/classical</text>
</g>
<!-- theorems/prop&#45;&gt;theorems/classical -->
<g id="edge81" class="edge">
<title>theorems/prop&#45;&gt;theorems/classical</title>
<path fill="none" stroke="black" d="M943.19,-360.43C965.27,-335.56 1007.11,-288.4 1032.73,-259.53"/>
<polygon fill="black" stroke="black" points="1035.47,-261.7 1039.49,-251.9 1030.24,-257.06 1035.47,-261.7"/>
</g>
<!-- theorems/fibration&#45;&gt;theorems/hopf -->
<g id="edge71" class="edge">
<title>theorems/fibration&#45;&gt;theorems/hopf</title>
<path fill="none" stroke="black" d="M1093.61,-295.07C1056.31,-287.19 1008.58,-273.78 970.49,-252 950.3,-240.45 952.12,-228.48 932.49,-216 907.05,-199.83 875.89,-187.19 849.91,-178.32"/>
<polygon fill="black" stroke="black" points="850.83,-174.94 840.23,-175.11 848.62,-181.58 850.83,-174.94"/>
</g>
<!-- theorems/functions&#45;&gt;algebra/group -->
<g id="edge72" class="edge">
<title>theorems/functions&#45;&gt;algebra/group</title>
<path fill="none" stroke="black" d="M175.11,-217.29C194.36,-207.08 219.61,-193.69 240.22,-182.77"/>
<polygon fill="black" stroke="black" points="242.13,-185.71 249.32,-177.94 238.85,-179.53 242.13,-185.71"/>
</g>
<!-- theorems/functions&#45;&gt;HITs/reals -->
<g id="edge73" class="edge">
<title>theorems/functions&#45;&gt;HITs/reals</title>
<path fill="none" stroke="black" d="M145.99,-215.7C146.21,-207.98 146.47,-198.71 146.72,-190.11"/>
<polygon fill="black" stroke="black" points="150.22,-190.2 147,-180.1 143.22,-190 150.22,-190.2"/>
</g>
<!-- cubical/connection -->
<g id="node55" class="node">
<title>cubical/connection</title>
<ellipse fill="none" stroke="black" cx="1398.49" cy="-234" rx="77.19" ry="18"/>
<text text-anchor="middle" x="1398.49" y="-230.3" font-family="Times,serif" font-size="14.00">cubical/connection</text>
</g>
<!-- cubical/path&#45;&gt;cubical/connection -->
<g id="edge65" class="edge">
<title>cubical/path&#45;&gt;cubical/connection</title>
<path fill="none" stroke="black" d="M1395.48,-287.7C1395.92,-279.98 1396.45,-270.71 1396.94,-262.11"/>
<polygon fill="black" stroke="black" points="1400.44,-262.29 1397.51,-252.1 1393.45,-261.89 1400.44,-262.29"/>
</g>
<!-- cubical/square -->
<g id="node58" class="node">
<title>cubical/square</title>
<ellipse fill="none" stroke="black" cx="1555.49" cy="-234" rx="61.99" ry="18"/>
<text text-anchor="middle" x="1555.49" y="-230.3" font-family="Times,serif" font-size="14.00">cubical/square</text>
</g>
<!-- cubical/path&#45;&gt;cubical/square -->
<g id="edge66" class="edge">
<title>cubical/path&#45;&gt;cubical/square</title>
<path fill="none" stroke="black" d="M1425.92,-291.34C1450.8,-280.52 1485.8,-265.3 1513.16,-253.41"/>
<polygon fill="black" stroke="black" points="1514.71,-256.55 1522.49,-249.35 1511.92,-250.13 1514.71,-256.55"/>
</g>
<!-- cubical/path&#45;&gt;cubical/V -->
<g id="edge67" class="edge">
<title>cubical/path&#45;&gt;cubical/V</title>
<path fill="none" stroke="black" d="M1366.31,-290.5C1345.39,-279.73 1316.7,-264.96 1294.17,-253.36"/>
<polygon fill="black" stroke="black" points="1295.74,-250.24 1285.25,-248.77 1292.54,-256.46 1295.74,-250.24"/>
</g>
<!-- cubical/example -->
<g id="node57" class="node">
<title>cubical/example</title>
<ellipse fill="none" stroke="black" cx="1275.49" cy="-162" rx="68.79" ry="18"/>
<text text-anchor="middle" x="1275.49" y="-158.3" font-family="Times,serif" font-size="14.00">cubical/example</text>
</g>
<!-- cubical/V&#45;&gt;cubical/example -->
<g id="edge68" class="edge">
<title>cubical/V&#45;&gt;cubical/example</title>
<path fill="none" stroke="black" d="M1262.61,-216.05C1264.5,-208.26 1266.79,-198.82 1268.92,-190.08"/>
<polygon fill="black" stroke="black" points="1272.34,-190.82 1271.3,-180.28 1265.53,-189.17 1272.34,-190.82"/>
</g>
<!-- theorems/classical&#45;&gt;algebra/category -->
<g id="edge69" class="edge">
<title>theorems/classical&#45;&gt;algebra/category</title>
<path fill="none" stroke="black" d="M1043.84,-216.05C1038.73,-207.92 1032.49,-198 1026.8,-188.94"/>
<polygon fill="black" stroke="black" points="1029.64,-186.88 1021.35,-180.28 1023.71,-190.6 1029.64,-186.88"/>
</g>
<!-- theorems/classical&#45;&gt;algebra/orgraph -->
<g id="edge70" class="edge">
<title>theorems/classical&#45;&gt;algebra/orgraph</title>
<path fill="none" stroke="black" d="M1069.34,-216.3C1083.54,-198.2 1101.2,-168.58 1089.49,-144 1066.29,-95.28 1013.78,-59.36 976.54,-38.83"/>
<polygon fill="black" stroke="black" points="977.9,-35.59 967.43,-33.95 974.59,-41.76 977.9,-35.59"/>
</g>
</g>
</svg>
