<?xml version="1.0" encoding="UTF-8" standalone="no"?>
<!DOCTYPE svg PUBLIC "-//W3C//DTD SVG 1.1//EN"
 "http://www.w3.org/Graphics/SVG/1.1/DTD/svg11.dtd">
<!-- Generated by graphviz version 2.43.0 (0)
 -->
<!-- Title: dependency_map Pages: 1 -->
<svg width="2199pt" height="1052pt"
 viewBox="0.00 0.00 2199.09 1052.00" xmlns="http://www.w3.org/2000/svg" xmlns:xlink="http://www.w3.org/1999/xlink">
<g id="graph0" class="graph" transform="scale(1 1) rotate(0) translate(4 1048)">
<title>dependency_map</title>
<polygon fill="white" stroke="transparent" points="-4,4 -4,-1048 2195.09,-1048 2195.09,4 -4,4"/>
<!-- proto -->
<g id="node1" class="node">
<title>proto</title>
<ellipse fill="none" stroke="black" cx="689.09" cy="-1026" rx="36" ry="18"/>
<text text-anchor="middle" x="689.09" y="-1022.3" font-family="Times,serif" font-size="14.00">proto</text>
</g>
<!-- types/eq -->
<g id="node2" class="node">
<title>types/eq</title>
<ellipse fill="none" stroke="black" cx="761.09" cy="-954" rx="50.09" ry="18"/>
<text text-anchor="middle" x="761.09" y="-950.3" font-family="Times,serif" font-size="14.00">types/eq</text>
</g>
<!-- proto&#45;&gt;types/eq -->
<g id="edge1" class="edge">
<title>proto&#45;&gt;types/eq</title>
<path fill="none" stroke="black" d="M705.07,-1009.46C714.47,-1000.32 726.55,-988.59 737.07,-978.35"/>
<polygon fill="black" stroke="black" points="739.68,-980.7 744.41,-971.22 734.8,-975.68 739.68,-980.7"/>
</g>
<!-- support -->
<g id="node4" class="node">
<title>support</title>
<ellipse fill="none" stroke="black" cx="761.09" cy="-882" rx="46.59" ry="18"/>
<text text-anchor="middle" x="761.09" y="-878.3" font-family="Times,serif" font-size="14.00">support</text>
</g>
<!-- types/eq&#45;&gt;support -->
<g id="edge20" class="edge">
<title>types/eq&#45;&gt;support</title>
<path fill="none" stroke="black" d="M761.09,-935.7C761.09,-927.98 761.09,-918.71 761.09,-910.11"/>
<polygon fill="black" stroke="black" points="764.59,-910.1 761.09,-900.1 757.59,-910.1 764.59,-910.1"/>
</g>
<!-- meta/hott_theory -->
<g id="node3" class="node">
<title>meta/hott_theory</title>
<ellipse fill="none" stroke="black" cx="834.09" cy="-1026" rx="90.98" ry="18"/>
<text text-anchor="middle" x="834.09" y="-1022.3" font-family="Times,serif" font-size="14.00">meta/hott_theory</text>
</g>
<!-- meta/hott_theory&#45;&gt;types/eq -->
<g id="edge2" class="edge">
<title>meta/hott_theory&#45;&gt;types/eq</title>
<path fill="none" stroke="black" d="M816.42,-1008.05C807.14,-999.16 795.62,-988.11 785.51,-978.41"/>
<polygon fill="black" stroke="black" points="787.74,-975.7 778.1,-971.31 782.89,-980.75 787.74,-975.7"/>
</g>
<!-- types/equiv -->
<g id="node5" class="node">
<title>types/equiv</title>
<ellipse fill="none" stroke="black" cx="761.09" cy="-810" rx="64.19" ry="18"/>
<text text-anchor="middle" x="761.09" y="-806.3" font-family="Times,serif" font-size="14.00">types/equiv</text>
</g>
<!-- support&#45;&gt;types/equiv -->
<g id="edge3" class="edge">
<title>support&#45;&gt;types/equiv</title>
<path fill="none" stroke="black" d="M761.09,-863.7C761.09,-855.98 761.09,-846.71 761.09,-838.11"/>
<polygon fill="black" stroke="black" points="764.59,-838.1 761.09,-828.1 757.59,-838.1 764.59,-838.1"/>
</g>
<!-- types/coproduct -->
<g id="node24" class="node">
<title>types/coproduct</title>
<ellipse fill="none" stroke="black" cx="702.09" cy="-666" rx="85.29" ry="18"/>
<text text-anchor="middle" x="702.09" y="-662.3" font-family="Times,serif" font-size="14.00">types/coproduct</text>
</g>
<!-- types/equiv&#45;&gt;types/coproduct -->
<g id="edge23" class="edge">
<title>types/equiv&#45;&gt;types/coproduct</title>
<path fill="none" stroke="black" d="M705.64,-800.58C657.05,-791.94 591.78,-776.81 576.09,-756 566.46,-743.22 567.24,-733.33 576.09,-720 588.45,-701.4 608.74,-689.31 629.47,-681.46"/>
<polygon fill="black" stroke="black" points="630.7,-684.74 639,-678.15 628.4,-678.13 630.7,-684.74"/>
</g>
<!-- types/heq -->
<g id="node27" class="node">
<title>types/heq</title>
<ellipse fill="none" stroke="black" cx="473.09" cy="-738" rx="55.79" ry="18"/>
<text text-anchor="middle" x="473.09" y="-734.3" font-family="Times,serif" font-size="14.00">types/heq</text>
</g>
<!-- types/equiv&#45;&gt;types/heq -->
<g id="edge24" class="edge">
<title>types/equiv&#45;&gt;types/heq</title>
<path fill="none" stroke="black" d="M714.18,-797.6C662.67,-785.08 580.13,-765.02 526.26,-751.92"/>
<polygon fill="black" stroke="black" points="526.76,-748.44 516.22,-749.48 525.11,-755.24 526.76,-748.44"/>
</g>
<!-- HITs/infinitesimal -->
<g id="node28" class="node">
<title>HITs/infinitesimal</title>
<ellipse fill="none" stroke="black" cx="678.09" cy="-738" rx="92.88" ry="18"/>
<text text-anchor="middle" x="678.09" y="-734.3" font-family="Times,serif" font-size="14.00">HITs/infinitesimal</text>
</g>
<!-- types/equiv&#45;&gt;HITs/infinitesimal -->
<g id="edge25" class="edge">
<title>types/equiv&#45;&gt;HITs/infinitesimal</title>
<path fill="none" stroke="black" d="M741.84,-792.76C731.1,-783.71 717.54,-772.27 705.69,-762.28"/>
<polygon fill="black" stroke="black" points="707.72,-759.4 697.82,-755.63 703.2,-764.76 707.72,-759.4"/>
</g>
<!-- types/lost -->
<g id="node29" class="node">
<title>types/lost</title>
<ellipse fill="none" stroke="black" cx="845.09" cy="-738" rx="55.79" ry="18"/>
<text text-anchor="middle" x="845.09" y="-734.3" font-family="Times,serif" font-size="14.00">types/lost</text>
</g>
<!-- types/equiv&#45;&gt;types/lost -->
<g id="edge26" class="edge">
<title>types/equiv&#45;&gt;types/lost</title>
<path fill="none" stroke="black" d="M780.58,-792.76C791.71,-783.49 805.84,-771.71 818.03,-761.55"/>
<polygon fill="black" stroke="black" points="820.28,-764.24 825.72,-755.15 815.79,-758.86 820.28,-764.24"/>
</g>
<!-- types/unit -->
<g id="node30" class="node">
<title>types/unit</title>
<ellipse fill="none" stroke="black" cx="926.09" cy="-594" rx="57.69" ry="18"/>
<text text-anchor="middle" x="926.09" y="-590.3" font-family="Times,serif" font-size="14.00">types/unit</text>
</g>
<!-- types/equiv&#45;&gt;types/unit -->
<g id="edge27" class="edge">
<title>types/equiv&#45;&gt;types/unit</title>
<path fill="none" stroke="black" d="M821.79,-803.66C856.93,-797.49 899.53,-784.27 927.09,-756 961.23,-720.99 957.65,-695.96 948.09,-648 946.3,-639.01 942.96,-629.64 939.41,-621.32"/>
<polygon fill="black" stroke="black" points="942.55,-619.77 935.22,-612.12 936.18,-622.67 942.55,-619.77"/>
</g>
<!-- types/sigma -->
<g id="node31" class="node">
<title>types/sigma</title>
<ellipse fill="none" stroke="black" cx="872.09" cy="-666" rx="66.89" ry="18"/>
<text text-anchor="middle" x="872.09" y="-662.3" font-family="Times,serif" font-size="14.00">types/sigma</text>
</g>
<!-- types/equiv&#45;&gt;types/sigma -->
<g id="edge28" class="edge">
<title>types/equiv&#45;&gt;types/sigma</title>
<path fill="none" stroke="black" d="M821.53,-803.82C853.45,-797.65 890.07,-784.38 910.09,-756 924.19,-736.03 909.99,-710.02 895.11,-691.28"/>
<polygon fill="black" stroke="black" points="897.66,-688.88 888.54,-683.48 892.31,-693.38 897.66,-688.88"/>
</g>
<!-- structures -->
<g id="node6" class="node">
<title>structures</title>
<ellipse fill="none" stroke="black" cx="839.09" cy="-522" rx="59.29" ry="18"/>
<text text-anchor="middle" x="839.09" y="-518.3" font-family="Times,serif" font-size="14.00">structures</text>
</g>
<!-- HITs/interval -->
<g id="node7" class="node">
<title>HITs/interval</title>
<ellipse fill="none" stroke="black" cx="1536.09" cy="-450" rx="71.49" ry="18"/>
<text text-anchor="middle" x="1536.09" y="-446.3" font-family="Times,serif" font-size="14.00">HITs/interval</text>
</g>
<!-- structures&#45;&gt;HITs/interval -->
<g id="edge4" class="edge">
<title>structures&#45;&gt;HITs/interval</title>
<path fill="none" stroke="black" d="M894.37,-515.45C1018.53,-502.98 1319.66,-472.74 1460.77,-458.56"/>
<polygon fill="black" stroke="black" points="1461.46,-462.01 1471.06,-457.53 1460.76,-455.05 1461.46,-462.01"/>
</g>
<!-- HITs/merely -->
<g id="node8" class="node">
<title>HITs/merely</title>
<ellipse fill="none" stroke="black" cx="531.09" cy="-450" rx="67.69" ry="18"/>
<text text-anchor="middle" x="531.09" y="-446.3" font-family="Times,serif" font-size="14.00">HITs/merely</text>
</g>
<!-- structures&#45;&gt;HITs/merely -->
<g id="edge5" class="edge">
<title>structures&#45;&gt;HITs/merely</title>
<path fill="none" stroke="black" d="M795.24,-509.85C787.22,-507.86 778.91,-505.84 771.09,-504 710.41,-489.72 640.82,-474.47 592.25,-464.02"/>
<polygon fill="black" stroke="black" points="592.73,-460.54 582.22,-461.86 591.26,-467.38 592.73,-460.54"/>
</g>
<!-- HITs/trunc -->
<g id="node9" class="node">
<title>HITs/trunc</title>
<ellipse fill="none" stroke="black" cx="176.09" cy="-450" rx="59.59" ry="18"/>
<text text-anchor="middle" x="176.09" y="-446.3" font-family="Times,serif" font-size="14.00">HITs/trunc</text>
</g>
<!-- structures&#45;&gt;HITs/trunc -->
<g id="edge6" class="edge">
<title>structures&#45;&gt;HITs/trunc</title>
<path fill="none" stroke="black" d="M796.87,-509.36C788.38,-507.33 779.49,-505.42 771.09,-504 671.3,-487.19 377.85,-465.21 244.02,-455.71"/>
<polygon fill="black" stroke="black" points="244.11,-452.21 233.89,-454.99 243.62,-459.19 244.11,-452.21"/>
</g>
<!-- types/nat -->
<g id="node10" class="node">
<title>types/nat</title>
<ellipse fill="none" stroke="black" cx="732.09" cy="-450" rx="53.89" ry="18"/>
<text text-anchor="middle" x="732.09" y="-446.3" font-family="Times,serif" font-size="14.00">types/nat</text>
</g>
<!-- structures&#45;&gt;types/nat -->
<g id="edge7" class="edge">
<title>structures&#45;&gt;types/nat</title>
<path fill="none" stroke="black" d="M815.35,-505.46C800.28,-495.61 780.6,-482.73 764.16,-471.98"/>
<polygon fill="black" stroke="black" points="765.69,-468.8 755.41,-466.25 761.86,-474.65 765.69,-468.8"/>
</g>
<!-- theorems/ua -->
<g id="node11" class="node">
<title>theorems/ua</title>
<ellipse fill="none" stroke="black" cx="1119.09" cy="-450" rx="68.79" ry="18"/>
<text text-anchor="middle" x="1119.09" y="-446.3" font-family="Times,serif" font-size="14.00">theorems/ua</text>
</g>
<!-- structures&#45;&gt;theorems/ua -->
<g id="edge8" class="edge">
<title>structures&#45;&gt;theorems/ua</title>
<path fill="none" stroke="black" d="M883.15,-509.99C931.19,-497.98 1008.25,-478.71 1061.16,-465.48"/>
<polygon fill="black" stroke="black" points="1062.22,-468.83 1071.07,-463.01 1060.52,-462.04 1062.22,-468.83"/>
</g>
<!-- cubical/cubes -->
<g id="node47" class="node">
<title>cubical/cubes</title>
<ellipse fill="none" stroke="black" cx="1910.09" cy="-378" rx="73.39" ry="18"/>
<text text-anchor="middle" x="1910.09" y="-374.3" font-family="Times,serif" font-size="14.00">cubical/cubes</text>
</g>
<!-- HITs/interval&#45;&gt;cubical/cubes -->
<g id="edge50" class="edge">
<title>HITs/interval&#45;&gt;cubical/cubes</title>
<path fill="none" stroke="black" d="M1591.68,-438.6C1658.92,-426.01 1772.01,-404.84 1843.75,-391.42"/>
<polygon fill="black" stroke="black" points="1844.4,-394.86 1853.59,-389.58 1843.11,-387.98 1844.4,-394.86"/>
</g>
<!-- theorems/prop -->
<g id="node48" class="node">
<title>theorems/prop</title>
<ellipse fill="none" stroke="black" cx="1147.09" cy="-378" rx="79.09" ry="18"/>
<text text-anchor="middle" x="1147.09" y="-374.3" font-family="Times,serif" font-size="14.00">theorems/prop</text>
</g>
<!-- HITs/interval&#45;&gt;theorems/prop -->
<g id="edge51" class="edge">
<title>HITs/interval&#45;&gt;theorems/prop</title>
<path fill="none" stroke="black" d="M1479.53,-438.82C1410.06,-426.32 1292.21,-405.11 1217.09,-391.6"/>
<polygon fill="black" stroke="black" points="1217.71,-388.15 1207.24,-389.82 1216.47,-395.04 1217.71,-388.15"/>
</g>
<!-- theorems/fibration -->
<g id="node49" class="node">
<title>theorems/fibration</title>
<ellipse fill="none" stroke="black" cx="1632.09" cy="-306" rx="96.68" ry="18"/>
<text text-anchor="middle" x="1632.09" y="-302.3" font-family="Times,serif" font-size="14.00">theorems/fibration</text>
</g>
<!-- HITs/interval&#45;&gt;theorems/fibration -->
<g id="edge52" class="edge">
<title>HITs/interval&#45;&gt;theorems/fibration</title>
<path fill="none" stroke="black" d="M1547.48,-432.15C1564.14,-407.52 1595.27,-361.47 1614.77,-332.63"/>
<polygon fill="black" stroke="black" points="1617.72,-334.51 1620.42,-324.27 1611.92,-330.59 1617.72,-334.51"/>
</g>
<!-- HITs/merely&#45;&gt;theorems/prop -->
<g id="edge53" class="edge">
<title>HITs/merely&#45;&gt;theorems/prop</title>
<path fill="none" stroke="black" d="M590.85,-441.48C615.12,-438.46 643.44,-435 669.09,-432 808.92,-415.64 971.91,-397.84 1066.89,-387.59"/>
<polygon fill="black" stroke="black" points="1067.43,-391.05 1077,-386.5 1066.68,-384.09 1067.43,-391.05"/>
</g>
<!-- theorems/logic -->
<g id="node51" class="node">
<title>theorems/logic</title>
<ellipse fill="none" stroke="black" cx="460.09" cy="-378" rx="79.09" ry="18"/>
<text text-anchor="middle" x="460.09" y="-374.3" font-family="Times,serif" font-size="14.00">theorems/logic</text>
</g>
<!-- HITs/merely&#45;&gt;theorems/logic -->
<g id="edge54" class="edge">
<title>HITs/merely&#45;&gt;theorems/logic</title>
<path fill="none" stroke="black" d="M514.27,-432.41C505.38,-423.65 494.31,-412.73 484.49,-403.06"/>
<polygon fill="black" stroke="black" points="486.87,-400.48 477.29,-395.96 481.96,-405.47 486.87,-400.48"/>
</g>
<!-- HITs/simplicial -->
<g id="node52" class="node">
<title>HITs/simplicial</title>
<ellipse fill="none" stroke="black" cx="283.09" cy="-378" rx="79.09" ry="18"/>
<text text-anchor="middle" x="283.09" y="-374.3" font-family="Times,serif" font-size="14.00">HITs/simplicial</text>
</g>
<!-- HITs/merely&#45;&gt;HITs/simplicial -->
<g id="edge55" class="edge">
<title>HITs/merely&#45;&gt;HITs/simplicial</title>
<path fill="none" stroke="black" d="M486.47,-436.4C445.63,-424.88 384.97,-407.76 340.53,-395.21"/>
<polygon fill="black" stroke="black" points="341.31,-391.8 330.74,-392.45 339.41,-398.53 341.31,-391.8"/>
</g>
<!-- theorems/functions -->
<g id="node53" class="node">
<title>theorems/functions</title>
<ellipse fill="none" stroke="black" cx="502.09" cy="-234" rx="100.98" ry="18"/>
<text text-anchor="middle" x="502.09" y="-230.3" font-family="Times,serif" font-size="14.00">theorems/functions</text>
</g>
<!-- HITs/merely&#45;&gt;theorems/functions -->
<g id="edge56" class="edge">
<title>HITs/merely&#45;&gt;theorems/functions</title>
<path fill="none" stroke="black" d="M538.16,-431.67C541.93,-421.47 546.18,-408.22 548.09,-396 550.57,-380.19 550.9,-375.75 548.09,-360 541.79,-324.63 526.19,-286.15 514.91,-261.36"/>
<polygon fill="black" stroke="black" points="518.06,-259.84 510.67,-252.25 511.71,-262.8 518.06,-259.84"/>
</g>
<!-- algebra/monoid -->
<g id="node14" class="node">
<title>algebra/monoid</title>
<ellipse fill="none" stroke="black" cx="494.09" cy="-162" rx="83.39" ry="18"/>
<text text-anchor="middle" x="494.09" y="-158.3" font-family="Times,serif" font-size="14.00">algebra/monoid</text>
</g>
<!-- HITs/trunc&#45;&gt;algebra/monoid -->
<g id="edge61" class="edge">
<title>HITs/trunc&#45;&gt;algebra/monoid</title>
<path fill="none" stroke="black" d="M176.2,-431.9C177.08,-412.9 180.83,-382.01 195.09,-360 254.78,-267.89 374.37,-209.12 442.84,-181.52"/>
<polygon fill="black" stroke="black" points="444.54,-184.61 452.55,-177.68 441.97,-178.1 444.54,-184.61"/>
</g>
<!-- HITs/quotient -->
<g id="node46" class="node">
<title>HITs/quotient</title>
<ellipse fill="none" stroke="black" cx="74.09" cy="-378" rx="74.19" ry="18"/>
<text text-anchor="middle" x="74.09" y="-374.3" font-family="Times,serif" font-size="14.00">HITs/quotient</text>
</g>
<!-- HITs/trunc&#45;&gt;HITs/quotient -->
<g id="edge62" class="edge">
<title>HITs/trunc&#45;&gt;HITs/quotient</title>
<path fill="none" stroke="black" d="M153.2,-433.29C139.36,-423.79 121.49,-411.53 106.24,-401.06"/>
<polygon fill="black" stroke="black" points="107.84,-397.92 97.62,-395.14 103.88,-403.69 107.84,-397.92"/>
</g>
<!-- theorems/nat -->
<g id="node36" class="node">
<title>theorems/nat</title>
<ellipse fill="none" stroke="black" cx="790.09" cy="-378" rx="72.59" ry="18"/>
<text text-anchor="middle" x="790.09" y="-374.3" font-family="Times,serif" font-size="14.00">theorems/nat</text>
</g>
<!-- types/nat&#45;&gt;theorems/nat -->
<g id="edge33" class="edge">
<title>types/nat&#45;&gt;theorems/nat</title>
<path fill="none" stroke="black" d="M745.84,-432.41C752.89,-423.91 761.61,-413.37 769.45,-403.91"/>
<polygon fill="black" stroke="black" points="772.36,-405.89 776.04,-395.96 766.97,-401.42 772.36,-405.89"/>
</g>
<!-- theorems/ua&#45;&gt;theorems/nat -->
<g id="edge80" class="edge">
<title>theorems/ua&#45;&gt;theorems/nat</title>
<path fill="none" stroke="black" d="M1067.33,-437.99C1009.47,-425.68 915.78,-405.74 853.56,-392.5"/>
<polygon fill="black" stroke="black" points="853.98,-389.01 843.47,-390.36 852.52,-395.86 853.98,-389.01"/>
</g>
<!-- theorems/ua&#45;&gt;theorems/prop -->
<g id="edge81" class="edge">
<title>theorems/ua&#45;&gt;theorems/prop</title>
<path fill="none" stroke="black" d="M1125.87,-432.05C1129.02,-424.18 1132.85,-414.62 1136.38,-405.79"/>
<polygon fill="black" stroke="black" points="1139.72,-406.86 1140.18,-396.28 1133.22,-404.26 1139.72,-406.86"/>
</g>
<!-- cubical/V -->
<g id="node58" class="node">
<title>cubical/V</title>
<ellipse fill="none" stroke="black" cx="1753.09" cy="-234" rx="52.79" ry="18"/>
<text text-anchor="middle" x="1753.09" y="-230.3" font-family="Times,serif" font-size="14.00">cubical/V</text>
</g>
<!-- theorems/ua&#45;&gt;cubical/V -->
<g id="edge82" class="edge">
<title>theorems/ua&#45;&gt;cubical/V</title>
<path fill="none" stroke="black" d="M1185.39,-444.88C1329.01,-434.55 1662.07,-402.52 1738.09,-324 1753.64,-307.95 1756.52,-282.17 1756.02,-262.47"/>
<polygon fill="black" stroke="black" points="1759.5,-262.05 1755.46,-252.26 1752.51,-262.44 1759.5,-262.05"/>
</g>
<!-- algebra/basic -->
<g id="node12" class="node">
<title>algebra/basic</title>
<ellipse fill="none" stroke="black" cx="694.09" cy="-234" rx="72.59" ry="18"/>
<text text-anchor="middle" x="694.09" y="-230.3" font-family="Times,serif" font-size="14.00">algebra/basic</text>
</g>
<!-- algebra/category -->
<g id="node13" class="node">
<title>algebra/category</title>
<ellipse fill="none" stroke="black" cx="1022.09" cy="-162" rx="89.08" ry="18"/>
<text text-anchor="middle" x="1022.09" y="-158.3" font-family="Times,serif" font-size="14.00">algebra/category</text>
</g>
<!-- algebra/basic&#45;&gt;algebra/category -->
<g id="edge9" class="edge">
<title>algebra/basic&#45;&gt;algebra/category</title>
<path fill="none" stroke="black" d="M747.16,-221.68C803.23,-209.71 891.89,-190.79 953.3,-177.68"/>
<polygon fill="black" stroke="black" points="954.24,-181.06 963.29,-175.55 952.78,-174.21 954.24,-181.06"/>
</g>
<!-- algebra/basic&#45;&gt;algebra/monoid -->
<g id="edge10" class="edge">
<title>algebra/basic&#45;&gt;algebra/monoid</title>
<path fill="none" stroke="black" d="M653.62,-218.83C622.45,-207.93 579.16,-192.77 545.54,-181.01"/>
<polygon fill="black" stroke="black" points="546.48,-177.63 535.88,-177.63 544.17,-184.23 546.48,-177.63"/>
</g>
<!-- algebra/group -->
<g id="node15" class="node">
<title>algebra/group</title>
<ellipse fill="none" stroke="black" cx="317.09" cy="-162" rx="76.09" ry="18"/>
<text text-anchor="middle" x="317.09" y="-158.3" font-family="Times,serif" font-size="14.00">algebra/group</text>
</g>
<!-- algebra/basic&#45;&gt;algebra/group -->
<g id="edge11" class="edge">
<title>algebra/basic&#45;&gt;algebra/group</title>
<path fill="none" stroke="black" d="M640.77,-221.67C631.24,-219.72 621.38,-217.76 612.09,-216 519.05,-198.39 495.2,-197.29 402.09,-180 395.88,-178.85 389.42,-177.61 382.95,-176.36"/>
<polygon fill="black" stroke="black" points="383.32,-172.86 372.83,-174.38 381.97,-179.73 383.32,-172.86"/>
</g>
<!-- algebra/eilenberg_maclane -->
<g id="node17" class="node">
<title>algebra/eilenberg_maclane</title>
<ellipse fill="none" stroke="black" cx="1116.09" cy="-90" rx="135.68" ry="18"/>
<text text-anchor="middle" x="1116.09" y="-86.3" font-family="Times,serif" font-size="14.00">algebra/eilenberg_maclane</text>
</g>
<!-- algebra/group&#45;&gt;algebra/eilenberg_maclane -->
<g id="edge12" class="edge">
<title>algebra/group&#45;&gt;algebra/eilenberg_maclane</title>
<path fill="none" stroke="black" d="M370.88,-149.2C381.2,-147.23 391.95,-145.38 402.09,-144 510.97,-129.13 810.07,-109.52 984.67,-98.81"/>
<polygon fill="black" stroke="black" points="984.93,-102.3 994.7,-98.19 984.5,-95.31 984.93,-102.3"/>
</g>
<!-- algebra/finite -->
<g id="node18" class="node">
<title>algebra/finite</title>
<ellipse fill="none" stroke="black" cx="535.09" cy="-90" rx="72.59" ry="18"/>
<text text-anchor="middle" x="535.09" y="-86.3" font-family="Times,serif" font-size="14.00">algebra/finite</text>
</g>
<!-- algebra/group&#45;&gt;algebra/finite -->
<g id="edge13" class="edge">
<title>algebra/group&#45;&gt;algebra/finite</title>
<path fill="none" stroke="black" d="M360.42,-147.09C395.65,-135.78 445.45,-119.78 482.87,-107.77"/>
<polygon fill="black" stroke="black" points="484.14,-111.04 492.59,-104.65 482,-104.37 484.14,-111.04"/>
</g>
<!-- algebra/ring -->
<g id="node19" class="node">
<title>algebra/ring</title>
<ellipse fill="none" stroke="black" cx="105.09" cy="-90" rx="67.69" ry="18"/>
<text text-anchor="middle" x="105.09" y="-86.3" font-family="Times,serif" font-size="14.00">algebra/ring</text>
</g>
<!-- algebra/group&#45;&gt;algebra/ring -->
<g id="edge14" class="edge">
<title>algebra/group&#45;&gt;algebra/ring</title>
<path fill="none" stroke="black" d="M274.7,-147C240.46,-135.7 192.17,-119.75 155.87,-107.77"/>
<polygon fill="black" stroke="black" points="156.56,-104.31 145.97,-104.5 154.37,-110.96 156.56,-104.31"/>
</g>
<!-- algebra/transformational -->
<g id="node20" class="node">
<title>algebra/transformational</title>
<ellipse fill="none" stroke="black" cx="317.09" cy="-90" rx="126.98" ry="18"/>
<text text-anchor="middle" x="317.09" y="-86.3" font-family="Times,serif" font-size="14.00">algebra/transformational</text>
</g>
<!-- algebra/group&#45;&gt;algebra/transformational -->
<g id="edge15" class="edge">
<title>algebra/group&#45;&gt;algebra/transformational</title>
<path fill="none" stroke="black" d="M317.09,-143.7C317.09,-135.98 317.09,-126.71 317.09,-118.11"/>
<polygon fill="black" stroke="black" points="320.59,-118.1 317.09,-108.1 313.59,-118.1 320.59,-118.1"/>
</g>
<!-- algebra/Z -->
<g id="node21" class="node">
<title>algebra/Z</title>
<ellipse fill="none" stroke="black" cx="710.09" cy="-90" rx="55.49" ry="18"/>
<text text-anchor="middle" x="710.09" y="-86.3" font-family="Times,serif" font-size="14.00">algebra/Z</text>
</g>
<!-- algebra/group&#45;&gt;algebra/Z -->
<g id="edge16" class="edge">
<title>algebra/group&#45;&gt;algebra/Z</title>
<path fill="none" stroke="black" d="M372.83,-149.59C382.57,-147.67 392.62,-145.74 402.09,-144 497.39,-126.5 521.66,-124.71 617.09,-108 628.84,-105.94 641.41,-103.68 653.39,-101.5"/>
<polygon fill="black" stroke="black" points="654.07,-104.94 663.28,-99.7 652.82,-98.05 654.07,-104.94"/>
</g>
<!-- algebra/boolean -->
<g id="node16" class="node">
<title>algebra/boolean</title>
<ellipse fill="none" stroke="black" cx="105.09" cy="-18" rx="85.29" ry="18"/>
<text text-anchor="middle" x="105.09" y="-14.3" font-family="Times,serif" font-size="14.00">algebra/boolean</text>
</g>
<!-- algebra/ring&#45;&gt;algebra/boolean -->
<g id="edge17" class="edge">
<title>algebra/ring&#45;&gt;algebra/boolean</title>
<path fill="none" stroke="black" d="M105.09,-71.7C105.09,-63.98 105.09,-54.71 105.09,-46.11"/>
<polygon fill="black" stroke="black" points="108.59,-46.1 105.09,-36.1 101.59,-46.1 108.59,-46.1"/>
</g>
<!-- algebra/homology -->
<g id="node22" class="node">
<title>algebra/homology</title>
<ellipse fill="none" stroke="black" cx="710.09" cy="-18" rx="93.68" ry="18"/>
<text text-anchor="middle" x="710.09" y="-14.3" font-family="Times,serif" font-size="14.00">algebra/homology</text>
</g>
<!-- algebra/Z&#45;&gt;algebra/homology -->
<g id="edge18" class="edge">
<title>algebra/Z&#45;&gt;algebra/homology</title>
<path fill="none" stroke="black" d="M710.09,-71.7C710.09,-63.98 710.09,-54.71 710.09,-46.11"/>
<polygon fill="black" stroke="black" points="713.59,-46.1 710.09,-36.1 706.59,-46.1 713.59,-46.1"/>
</g>
<!-- types/category -->
<g id="node23" class="node">
<title>types/category</title>
<ellipse fill="none" stroke="black" cx="1422.09" cy="-234" rx="79.09" ry="18"/>
<text text-anchor="middle" x="1422.09" y="-230.3" font-family="Times,serif" font-size="14.00">types/category</text>
</g>
<!-- types/coproduct&#45;&gt;structures -->
<g id="edge19" class="edge">
<title>types/coproduct&#45;&gt;structures</title>
<path fill="none" stroke="black" d="M718.35,-648.15C742.68,-622.93 788.67,-575.26 816.34,-546.59"/>
<polygon fill="black" stroke="black" points="818.86,-549.01 823.28,-539.39 813.82,-544.15 818.86,-549.01"/>
</g>
<!-- types/ens -->
<g id="node25" class="node">
<title>types/ens</title>
<ellipse fill="none" stroke="black" cx="1004.09" cy="-306" rx="55.49" ry="18"/>
<text text-anchor="middle" x="1004.09" y="-302.3" font-family="Times,serif" font-size="14.00">types/ens</text>
</g>
<!-- types/ens&#45;&gt;algebra/basic -->
<g id="edge21" class="edge">
<title>types/ens&#45;&gt;algebra/basic</title>
<path fill="none" stroke="black" d="M960.01,-295.05C906.57,-282.98 816.18,-262.57 755.83,-248.94"/>
<polygon fill="black" stroke="black" points="756.57,-245.52 746.04,-246.73 755.03,-252.35 756.57,-245.52"/>
</g>
<!-- types/setquot -->
<g id="node26" class="node">
<title>types/setquot</title>
<ellipse fill="none" stroke="black" cx="1004.09" cy="-234" rx="74.19" ry="18"/>
<text text-anchor="middle" x="1004.09" y="-230.3" font-family="Times,serif" font-size="14.00">types/setquot</text>
</g>
<!-- types/ens&#45;&gt;types/setquot -->
<g id="edge22" class="edge">
<title>types/ens&#45;&gt;types/setquot</title>
<path fill="none" stroke="black" d="M1004.09,-287.7C1004.09,-279.98 1004.09,-270.71 1004.09,-262.11"/>
<polygon fill="black" stroke="black" points="1007.59,-262.1 1004.09,-252.1 1000.59,-262.1 1007.59,-262.1"/>
</g>
<!-- HITs/graph -->
<g id="node32" class="node">
<title>HITs/graph</title>
<ellipse fill="none" stroke="black" cx="397.09" cy="-594" rx="62.29" ry="18"/>
<text text-anchor="middle" x="397.09" y="-590.3" font-family="Times,serif" font-size="14.00">HITs/graph</text>
</g>
<!-- types/heq&#45;&gt;HITs/graph -->
<g id="edge29" class="edge">
<title>types/heq&#45;&gt;HITs/graph</title>
<path fill="none" stroke="black" d="M450.42,-721.34C438.43,-711.88 424.49,-698.81 416.09,-684 405.34,-665.05 400.66,-640.68 398.63,-622.24"/>
<polygon fill="black" stroke="black" points="402.1,-621.79 397.71,-612.15 395.13,-622.42 402.1,-621.79"/>
</g>
<!-- theorems/funext -->
<g id="node33" class="node">
<title>theorems/funext</title>
<ellipse fill="none" stroke="black" cx="512.09" cy="-666" rx="87.18" ry="18"/>
<text text-anchor="middle" x="512.09" y="-662.3" font-family="Times,serif" font-size="14.00">theorems/funext</text>
</g>
<!-- types/heq&#45;&gt;theorems/funext -->
<g id="edge30" class="edge">
<title>types/heq&#45;&gt;theorems/funext</title>
<path fill="none" stroke="black" d="M482.53,-720.05C487.02,-712.01 492.48,-702.2 497.48,-693.23"/>
<polygon fill="black" stroke="black" points="500.66,-694.71 502.47,-684.28 494.54,-691.31 500.66,-694.71"/>
</g>
<!-- types/unit&#45;&gt;structures -->
<g id="edge37" class="edge">
<title>types/unit&#45;&gt;structures</title>
<path fill="none" stroke="black" d="M905.92,-576.76C894.39,-567.49 879.75,-555.71 867.12,-545.55"/>
<polygon fill="black" stroke="black" points="869.15,-542.69 859.16,-539.15 864.76,-548.14 869.15,-542.69"/>
</g>
<!-- HITs/suspension -->
<g id="node39" class="node">
<title>HITs/suspension</title>
<ellipse fill="none" stroke="black" cx="891.09" cy="-450" rx="87.18" ry="18"/>
<text text-anchor="middle" x="891.09" y="-446.3" font-family="Times,serif" font-size="14.00">HITs/suspension</text>
</g>
<!-- types/unit&#45;&gt;HITs/suspension -->
<g id="edge38" class="edge">
<title>types/unit&#45;&gt;HITs/suspension</title>
<path fill="none" stroke="black" d="M922.87,-575.84C919.38,-557.84 913.47,-528.79 907.09,-504 904.88,-495.4 902.18,-486.1 899.63,-477.73"/>
<polygon fill="black" stroke="black" points="902.95,-476.6 896.64,-468.08 896.26,-478.67 902.95,-476.6"/>
</g>
<!-- types/sigma&#45;&gt;structures -->
<g id="edge36" class="edge">
<title>types/sigma&#45;&gt;structures</title>
<path fill="none" stroke="black" d="M867.79,-647.83C865.22,-637.47 861.91,-623.99 859.09,-612 854.23,-591.32 848.97,-567.87 845.07,-550.24"/>
<polygon fill="black" stroke="black" points="848.4,-549.1 842.83,-540.08 841.57,-550.6 848.4,-549.1"/>
</g>
<!-- HITs/colimit -->
<g id="node43" class="node">
<title>HITs/colimit</title>
<ellipse fill="none" stroke="black" cx="531.09" cy="-522" rx="66.89" ry="18"/>
<text text-anchor="middle" x="531.09" y="-518.3" font-family="Times,serif" font-size="14.00">HITs/colimit</text>
</g>
<!-- HITs/graph&#45;&gt;HITs/colimit -->
<g id="edge46" class="edge">
<title>HITs/graph&#45;&gt;HITs/colimit</title>
<path fill="none" stroke="black" d="M425.84,-577.98C445.4,-567.76 471.5,-554.13 492.82,-542.99"/>
<polygon fill="black" stroke="black" points="494.69,-545.97 501.93,-538.23 491.45,-539.76 494.69,-545.97"/>
</g>
<!-- HITs/generalized -->
<g id="node44" class="node">
<title>HITs/generalized</title>
<ellipse fill="none" stroke="black" cx="357.09" cy="-522" rx="89.08" ry="18"/>
<text text-anchor="middle" x="357.09" y="-518.3" font-family="Times,serif" font-size="14.00">HITs/generalized</text>
</g>
<!-- HITs/graph&#45;&gt;HITs/generalized -->
<g id="edge47" class="edge">
<title>HITs/graph&#45;&gt;HITs/generalized</title>
<path fill="none" stroke="black" d="M387.41,-576.05C382.81,-568.01 377.21,-558.2 372.08,-549.23"/>
<polygon fill="black" stroke="black" points="374.97,-547.22 366.97,-540.28 368.89,-550.69 374.97,-547.22"/>
</g>
<!-- HITs/pushout -->
<g id="node45" class="node">
<title>HITs/pushout</title>
<ellipse fill="none" stroke="black" cx="689.09" cy="-522" rx="72.59" ry="18"/>
<text text-anchor="middle" x="689.09" y="-518.3" font-family="Times,serif" font-size="14.00">HITs/pushout</text>
</g>
<!-- HITs/graph&#45;&gt;HITs/pushout -->
<g id="edge48" class="edge">
<title>HITs/graph&#45;&gt;HITs/pushout</title>
<path fill="none" stroke="black" d="M443.36,-581.91C493.47,-569.9 573.61,-550.69 628.66,-537.49"/>
<polygon fill="black" stroke="black" points="629.72,-540.83 638.63,-535.1 628.09,-534.02 629.72,-540.83"/>
</g>
<!-- HITs/graph&#45;&gt;HITs/quotient -->
<g id="edge49" class="edge">
<title>HITs/graph&#45;&gt;HITs/quotient</title>
<path fill="none" stroke="black" d="M345.05,-584.03C280.45,-570.24 170.98,-537.73 107.09,-468 91.31,-450.78 82.89,-425.34 78.52,-406.07"/>
<polygon fill="black" stroke="black" points="81.91,-405.18 76.48,-396.08 75.05,-406.58 81.91,-405.18"/>
</g>
<!-- types/product -->
<g id="node38" class="node">
<title>types/product</title>
<ellipse fill="none" stroke="black" cx="576.09" cy="-594" rx="75.29" ry="18"/>
<text text-anchor="middle" x="576.09" y="-590.3" font-family="Times,serif" font-size="14.00">types/product</text>
</g>
<!-- theorems/funext&#45;&gt;types/product -->
<g id="edge72" class="edge">
<title>theorems/funext&#45;&gt;types/product</title>
<path fill="none" stroke="black" d="M527.59,-648.05C535.45,-639.46 545.14,-628.86 553.79,-619.4"/>
<polygon fill="black" stroke="black" points="556.58,-621.53 560.74,-611.79 551.41,-616.81 556.58,-621.53"/>
</g>
<!-- types/integer -->
<g id="node34" class="node">
<title>types/integer</title>
<ellipse fill="none" stroke="black" cx="668.09" cy="-306" rx="72.59" ry="18"/>
<text text-anchor="middle" x="668.09" y="-302.3" font-family="Times,serif" font-size="14.00">types/integer</text>
</g>
<!-- types/integer&#45;&gt;algebra/group -->
<g id="edge31" class="edge">
<title>types/integer&#45;&gt;algebra/group</title>
<path fill="none" stroke="black" d="M595.44,-304.16C536.91,-300.52 454.39,-288.51 392.09,-252 366.13,-236.78 344.99,-209.14 331.85,-188.69"/>
<polygon fill="black" stroke="black" points="334.79,-186.8 326.55,-180.14 328.84,-190.48 334.79,-186.8"/>
</g>
<!-- HITs/circle -->
<g id="node35" class="node">
<title>HITs/circle</title>
<ellipse fill="none" stroke="black" cx="845.09" cy="-234" rx="60.39" ry="18"/>
<text text-anchor="middle" x="845.09" y="-230.3" font-family="Times,serif" font-size="14.00">HITs/circle</text>
</g>
<!-- types/integer&#45;&gt;HITs/circle -->
<g id="edge32" class="edge">
<title>types/integer&#45;&gt;HITs/circle</title>
<path fill="none" stroke="black" d="M705.2,-290.33C732.98,-279.34 771.09,-264.27 800.52,-252.63"/>
<polygon fill="black" stroke="black" points="802.13,-255.75 810.14,-248.82 799.56,-249.24 802.13,-255.75"/>
</g>
<!-- HITs/circle&#45;&gt;algebra/Z -->
<g id="edge39" class="edge">
<title>HITs/circle&#45;&gt;algebra/Z</title>
<path fill="none" stroke="black" d="M812.86,-218.6C795.09,-209.47 773.55,-196.29 758.09,-180 740.91,-161.89 728.01,-136.43 719.93,-117.39"/>
<polygon fill="black" stroke="black" points="723.15,-116.03 716.15,-108.08 716.67,-118.66 723.15,-116.03"/>
</g>
<!-- theorems/hopf -->
<g id="node40" class="node">
<title>theorems/hopf</title>
<ellipse fill="none" stroke="black" cx="1207.09" cy="-162" rx="77.99" ry="18"/>
<text text-anchor="middle" x="1207.09" y="-158.3" font-family="Times,serif" font-size="14.00">theorems/hopf</text>
</g>
<!-- HITs/circle&#45;&gt;theorems/hopf -->
<g id="edge40" class="edge">
<title>HITs/circle&#45;&gt;theorems/hopf</title>
<path fill="none" stroke="black" d="M891.25,-222.36C901.08,-220.18 911.42,-217.96 921.09,-216 1009.19,-198.19 1031.76,-196.62 1120.09,-180 1126.6,-178.78 1133.37,-177.48 1140.14,-176.18"/>
<polygon fill="black" stroke="black" points="1140.87,-179.61 1150.02,-174.27 1139.54,-172.73 1140.87,-179.61"/>
</g>
<!-- HITs/moebius -->
<g id="node41" class="node">
<title>HITs/moebius</title>
<ellipse fill="none" stroke="black" cx="841.09" cy="-162" rx="74.19" ry="18"/>
<text text-anchor="middle" x="841.09" y="-158.3" font-family="Times,serif" font-size="14.00">HITs/moebius</text>
</g>
<!-- HITs/circle&#45;&gt;HITs/moebius -->
<g id="edge41" class="edge">
<title>HITs/circle&#45;&gt;HITs/moebius</title>
<path fill="none" stroke="black" d="M844.1,-215.7C843.66,-207.98 843.13,-198.71 842.64,-190.11"/>
<polygon fill="black" stroke="black" points="846.14,-189.89 842.07,-180.1 839.15,-190.29 846.14,-189.89"/>
</g>
<!-- HITs/reals -->
<g id="node42" class="node">
<title>HITs/reals</title>
<ellipse fill="none" stroke="black" cx="653.09" cy="-162" rx="57.69" ry="18"/>
<text text-anchor="middle" x="653.09" y="-158.3" font-family="Times,serif" font-size="14.00">HITs/reals</text>
</g>
<!-- HITs/circle&#45;&gt;HITs/reals -->
<g id="edge42" class="edge">
<title>HITs/circle&#45;&gt;HITs/reals</title>
<path fill="none" stroke="black" d="M808.07,-219.5C776.93,-208.15 732.27,-191.87 698.88,-179.69"/>
<polygon fill="black" stroke="black" points="699.94,-176.35 689.35,-176.22 697.54,-182.93 699.94,-176.35"/>
</g>
<!-- theorems/nat&#45;&gt;types/integer -->
<g id="edge73" class="edge">
<title>theorems/nat&#45;&gt;types/integer</title>
<path fill="none" stroke="black" d="M762.71,-361.29C745.57,-351.45 723.27,-338.66 704.62,-327.96"/>
<polygon fill="black" stroke="black" points="706.22,-324.84 695.8,-322.9 702.74,-330.91 706.22,-324.84"/>
</g>
<!-- HITs/int -->
<g id="node60" class="node">
<title>HITs/int</title>
<ellipse fill="none" stroke="black" cx="807.09" cy="-306" rx="48.19" ry="18"/>
<text text-anchor="middle" x="807.09" y="-302.3" font-family="Times,serif" font-size="14.00">HITs/int</text>
</g>
<!-- theorems/nat&#45;&gt;HITs/int -->
<g id="edge74" class="edge">
<title>theorems/nat&#45;&gt;HITs/int</title>
<path fill="none" stroke="black" d="M794.3,-359.7C796.19,-351.9 798.47,-342.51 800.58,-333.83"/>
<polygon fill="black" stroke="black" points="803.98,-334.65 802.94,-324.1 797.18,-333 803.98,-334.65"/>
</g>
<!-- types/precategory -->
<g id="node37" class="node">
<title>types/precategory</title>
<ellipse fill="none" stroke="black" cx="1422.09" cy="-306" rx="94.78" ry="18"/>
<text text-anchor="middle" x="1422.09" y="-302.3" font-family="Times,serif" font-size="14.00">types/precategory</text>
</g>
<!-- types/precategory&#45;&gt;types/category -->
<g id="edge34" class="edge">
<title>types/precategory&#45;&gt;types/category</title>
<path fill="none" stroke="black" d="M1422.09,-287.7C1422.09,-279.98 1422.09,-270.71 1422.09,-262.11"/>
<polygon fill="black" stroke="black" points="1425.59,-262.1 1422.09,-252.1 1418.59,-262.1 1425.59,-262.1"/>
</g>
<!-- types/product&#45;&gt;structures -->
<g id="edge35" class="edge">
<title>types/product&#45;&gt;structures</title>
<path fill="none" stroke="black" d="M624.33,-580.16C670.16,-567.96 738.9,-549.67 786.2,-537.08"/>
<polygon fill="black" stroke="black" points="787.19,-540.44 795.95,-534.48 785.39,-533.67 787.19,-540.44"/>
</g>
<!-- HITs/suspension&#45;&gt;HITs/circle -->
<g id="edge59" class="edge">
<title>HITs/suspension&#45;&gt;HITs/circle</title>
<path fill="none" stroke="black" d="M889.24,-431.87C885.8,-402.22 877.54,-339.56 864.09,-288 861.81,-279.26 858.7,-269.92 855.66,-261.56"/>
<polygon fill="black" stroke="black" points="858.84,-260.07 852.04,-251.94 852.29,-262.54 858.84,-260.07"/>
</g>
<!-- HITs/join -->
<g id="node50" class="node">
<title>HITs/join</title>
<ellipse fill="none" stroke="black" cx="647.09" cy="-378" rx="51.99" ry="18"/>
<text text-anchor="middle" x="647.09" y="-374.3" font-family="Times,serif" font-size="14.00">HITs/join</text>
</g>
<!-- HITs/suspension&#45;&gt;HITs/join -->
<g id="edge60" class="edge">
<title>HITs/suspension&#45;&gt;HITs/join</title>
<path fill="none" stroke="black" d="M842.3,-435C799.69,-422.78 738.16,-405.12 695.62,-392.92"/>
<polygon fill="black" stroke="black" points="696.35,-389.49 685.77,-390.1 694.42,-396.22 696.35,-389.49"/>
</g>
<!-- HITs/colimit&#45;&gt;HITs/merely -->
<g id="edge43" class="edge">
<title>HITs/colimit&#45;&gt;HITs/merely</title>
<path fill="none" stroke="black" d="M531.09,-503.7C531.09,-495.98 531.09,-486.71 531.09,-478.11"/>
<polygon fill="black" stroke="black" points="534.59,-478.1 531.09,-468.1 527.59,-478.1 534.59,-478.1"/>
</g>
<!-- HITs/colimit&#45;&gt;types/nat -->
<g id="edge44" class="edge">
<title>HITs/colimit&#45;&gt;types/nat</title>
<path fill="none" stroke="black" d="M570.33,-507.34C603.64,-495.74 651.47,-479.08 686.49,-466.88"/>
<polygon fill="black" stroke="black" points="687.71,-470.16 696,-463.57 685.41,-463.55 687.71,-470.16"/>
</g>
<!-- HITs/generalized&#45;&gt;HITs/merely -->
<g id="edge45" class="edge">
<title>HITs/generalized&#45;&gt;HITs/merely</title>
<path fill="none" stroke="black" d="M395.28,-505.64C421.95,-494.91 457.66,-480.54 485.77,-469.23"/>
<polygon fill="black" stroke="black" points="487.4,-472.35 495.37,-465.37 484.79,-465.86 487.4,-472.35"/>
</g>
<!-- HITs/pushout&#45;&gt;HITs/suspension -->
<g id="edge57" class="edge">
<title>HITs/pushout&#45;&gt;HITs/suspension</title>
<path fill="none" stroke="black" d="M729.49,-507C760.82,-496.14 804.5,-481.01 838.55,-469.21"/>
<polygon fill="black" stroke="black" points="840.03,-472.4 848.33,-465.82 837.74,-465.79 840.03,-472.4"/>
</g>
<!-- HITs/quotient&#45;&gt;algebra/group -->
<g id="edge58" class="edge">
<title>HITs/quotient&#45;&gt;algebra/group</title>
<path fill="none" stroke="black" d="M78.84,-360C88.8,-327.37 114.95,-255.71 162.09,-216 185.93,-195.92 217.76,-183.32 246.37,-175.48"/>
<polygon fill="black" stroke="black" points="247.54,-178.79 256.34,-172.9 245.78,-172.01 247.54,-178.79"/>
</g>
<!-- cubical/path -->
<g id="node55" class="node">
<title>cubical/path</title>
<ellipse fill="none" stroke="black" cx="1913.09" cy="-306" rx="67.69" ry="18"/>
<text text-anchor="middle" x="1913.09" y="-302.3" font-family="Times,serif" font-size="14.00">cubical/path</text>
</g>
<!-- cubical/cubes&#45;&gt;cubical/path -->
<g id="edge63" class="edge">
<title>cubical/cubes&#45;&gt;cubical/path</title>
<path fill="none" stroke="black" d="M1910.83,-359.7C1911.17,-351.98 1911.56,-342.71 1911.93,-334.11"/>
<polygon fill="black" stroke="black" points="1915.43,-334.25 1912.36,-324.1 1908.44,-333.95 1915.43,-334.25"/>
</g>
<!-- theorems/prop&#45;&gt;algebra/eilenberg_maclane -->
<g id="edge75" class="edge">
<title>theorems/prop&#45;&gt;algebra/eilenberg_maclane</title>
<path fill="none" stroke="black" d="M1209.78,-366.79C1235.58,-359.3 1263.3,-346.36 1280.09,-324 1328.29,-259.84 1342.06,-208.33 1294.09,-144 1282.59,-128.57 1243.1,-116.01 1204.24,-106.99"/>
<polygon fill="black" stroke="black" points="1204.91,-103.55 1194.39,-104.77 1203.38,-110.38 1204.91,-103.55"/>
</g>
<!-- theorems/prop&#45;&gt;types/ens -->
<g id="edge76" class="edge">
<title>theorems/prop&#45;&gt;types/ens</title>
<path fill="none" stroke="black" d="M1115.36,-361.46C1093.81,-350.92 1065.19,-336.91 1042.37,-325.74"/>
<polygon fill="black" stroke="black" points="1043.83,-322.55 1033.31,-321.3 1040.75,-328.84 1043.83,-322.55"/>
</g>
<!-- theorems/prop&#45;&gt;HITs/circle -->
<g id="edge77" class="edge">
<title>theorems/prop&#45;&gt;HITs/circle</title>
<path fill="none" stroke="black" d="M1079.61,-368.49C1037.53,-361.11 983.35,-347.73 940.09,-324 924.16,-315.26 890.75,-282.38 868.12,-259.14"/>
<polygon fill="black" stroke="black" points="870.36,-256.42 860.89,-251.67 865.33,-261.29 870.36,-256.42"/>
</g>
<!-- theorems/prop&#45;&gt;types/precategory -->
<g id="edge78" class="edge">
<title>theorems/prop&#45;&gt;types/precategory</title>
<path fill="none" stroke="black" d="M1197.85,-364.08C1243.01,-352.59 1309.26,-335.72 1358.04,-323.3"/>
<polygon fill="black" stroke="black" points="1359.04,-326.66 1367.87,-320.8 1357.31,-319.88 1359.04,-326.66"/>
</g>
<!-- theorems/classical -->
<g id="node59" class="node">
<title>theorems/classical</title>
<ellipse fill="none" stroke="black" cx="1174.09" cy="-306" rx="96.68" ry="18"/>
<text text-anchor="middle" x="1174.09" y="-302.3" font-family="Times,serif" font-size="14.00">theorems/classical</text>
</g>
<!-- theorems/prop&#45;&gt;theorems/classical -->
<g id="edge79" class="edge">
<title>theorems/prop&#45;&gt;theorems/classical</title>
<path fill="none" stroke="black" d="M1153.63,-360.05C1156.67,-352.18 1160.36,-342.62 1163.76,-333.79"/>
<polygon fill="black" stroke="black" points="1167.1,-334.86 1167.43,-324.28 1160.57,-332.35 1167.1,-334.86"/>
</g>
<!-- theorems/fibration&#45;&gt;theorems/hopf -->
<g id="edge69" class="edge">
<title>theorems/fibration&#45;&gt;theorems/hopf</title>
<path fill="none" stroke="black" d="M1614.71,-288.24C1592.4,-267.75 1551.6,-233.63 1510.09,-216 1440.49,-186.43 1355.17,-173.36 1292.82,-167.58"/>
<polygon fill="black" stroke="black" points="1292.9,-164.07 1282.63,-166.68 1292.28,-171.04 1292.9,-164.07"/>
</g>
<!-- theorems/functions&#45;&gt;algebra/group -->
<g id="edge70" class="edge">
<title>theorems/functions&#45;&gt;algebra/group</title>
<path fill="none" stroke="black" d="M461.04,-217.46C432.6,-206.71 394.66,-192.35 364.87,-181.08"/>
<polygon fill="black" stroke="black" points="366.1,-177.8 355.51,-177.54 363.62,-184.35 366.1,-177.8"/>
</g>
<!-- theorems/functions&#45;&gt;HITs/reals -->
<g id="edge71" class="edge">
<title>theorems/functions&#45;&gt;HITs/reals</title>
<path fill="none" stroke="black" d="M536.74,-216.94C559.49,-206.39 589.33,-192.56 613.09,-181.55"/>
<polygon fill="black" stroke="black" points="614.6,-184.7 622.2,-177.32 611.66,-178.35 614.6,-184.7"/>
</g>
<!-- cubical/connection -->
<g id="node54" class="node">
<title>cubical/connection</title>
<ellipse fill="none" stroke="black" cx="1920.09" cy="-234" rx="96.68" ry="18"/>
<text text-anchor="middle" x="1920.09" y="-230.3" font-family="Times,serif" font-size="14.00">cubical/connection</text>
</g>
<!-- cubical/path&#45;&gt;cubical/connection -->
<g id="edge64" class="edge">
<title>cubical/path&#45;&gt;cubical/connection</title>
<path fill="none" stroke="black" d="M1914.82,-287.7C1915.6,-279.98 1916.52,-270.71 1917.38,-262.11"/>
<polygon fill="black" stroke="black" points="1920.87,-262.4 1918.38,-252.1 1913.91,-261.71 1920.87,-262.4"/>
</g>
<!-- cubical/square -->
<g id="node57" class="node">
<title>cubical/square</title>
<ellipse fill="none" stroke="black" cx="2113.09" cy="-234" rx="77.99" ry="18"/>
<text text-anchor="middle" x="2113.09" y="-230.3" font-family="Times,serif" font-size="14.00">cubical/square</text>
</g>
<!-- cubical/path&#45;&gt;cubical/square -->
<g id="edge65" class="edge">
<title>cubical/path&#45;&gt;cubical/square</title>
<path fill="none" stroke="black" d="M1952.61,-291.17C1984,-280.18 2028.14,-264.73 2062.18,-252.82"/>
<polygon fill="black" stroke="black" points="2063.66,-256.01 2071.94,-249.4 2061.35,-249.4 2063.66,-256.01"/>
</g>
<!-- cubical/path&#45;&gt;cubical/V -->
<g id="edge66" class="edge">
<title>cubical/path&#45;&gt;cubical/V</title>
<path fill="none" stroke="black" d="M1879.55,-290.33C1854.5,-279.36 1820.14,-264.33 1793.56,-252.7"/>
<polygon fill="black" stroke="black" points="1794.71,-249.39 1784.15,-248.59 1791.91,-255.8 1794.71,-249.39"/>
</g>
<!-- cubical/example -->
<g id="node56" class="node">
<title>cubical/example</title>
<ellipse fill="none" stroke="black" cx="1753.09" cy="-162" rx="85.29" ry="18"/>
<text text-anchor="middle" x="1753.09" y="-158.3" font-family="Times,serif" font-size="14.00">cubical/example</text>
</g>
<!-- cubical/V&#45;&gt;cubical/example -->
<g id="edge67" class="edge">
<title>cubical/V&#45;&gt;cubical/example</title>
<path fill="none" stroke="black" d="M1753.09,-215.7C1753.09,-207.98 1753.09,-198.71 1753.09,-190.11"/>
<polygon fill="black" stroke="black" points="1756.59,-190.1 1753.09,-180.1 1749.59,-190.1 1756.59,-190.1"/>
</g>
<!-- theorems/classical&#45;&gt;algebra/category -->
<g id="edge68" class="edge">
<title>theorems/classical&#45;&gt;algebra/category</title>
<path fill="none" stroke="black" d="M1158.6,-288.04C1141.6,-269.71 1113.25,-239.9 1087.09,-216 1075.85,-205.72 1062.94,-195 1051.61,-185.9"/>
<polygon fill="black" stroke="black" points="1053.68,-183.08 1043.68,-179.6 1049.33,-188.56 1053.68,-183.08"/>
</g>
</g>
</svg>
