<?xml version="1.0" encoding="UTF-8" standalone="no"?>
<!DOCTYPE svg PUBLIC "-//W3C//DTD SVG 1.1//EN"
 "http://www.w3.org/Graphics/SVG/1.1/DTD/svg11.dtd">
<!-- Generated by graphviz version 2.38.0 (20140413.2041)
 -->
<!-- Title: dependency_map Pages: 1 -->
<svg width="1557pt" height="836pt"
 viewBox="0.00 0.00 1557.00 836.00" xmlns="http://www.w3.org/2000/svg" xmlns:xlink="http://www.w3.org/1999/xlink">
<g id="graph0" class="graph" transform="scale(1 1) rotate(0) translate(4 832)">
<title>dependency_map</title>
<polygon fill="white" stroke="none" points="-4,4 -4,-832 1553,-832 1553,4 -4,4"/>
<!-- proto -->
<g id="node1" class="node"><title>proto</title>
<ellipse fill="none" stroke="black" cx="930" cy="-810" rx="30.5947" ry="18"/>
<text text-anchor="middle" x="930" y="-806.3" font-family="Times New Roman,serif" font-size="14.00">proto</text>
</g>
<!-- types/eq -->
<g id="node2" class="node"><title>types/eq</title>
<ellipse fill="none" stroke="black" cx="990" cy="-738" rx="41.6928" ry="18"/>
<text text-anchor="middle" x="990" y="-734.3" font-family="Times New Roman,serif" font-size="14.00">types/eq</text>
</g>
<!-- proto&#45;&gt;types/eq -->
<g id="edge1" class="edge"><title>proto&#45;&gt;types/eq</title>
<path fill="none" stroke="black" d="M943.316,-793.465C950.944,-784.566 960.681,-773.205 969.288,-763.164"/>
<polygon fill="black" stroke="black" points="972.035,-765.338 975.885,-755.467 966.72,-760.782 972.035,-765.338"/>
</g>
<!-- support -->
<g id="node4" class="node"><title>support</title>
<ellipse fill="none" stroke="black" cx="928" cy="-666" rx="38.9931" ry="18"/>
<text text-anchor="middle" x="928" y="-662.3" font-family="Times New Roman,serif" font-size="14.00">support</text>
</g>
<!-- types/eq&#45;&gt;support -->
<g id="edge13" class="edge"><title>types/eq&#45;&gt;support</title>
<path fill="none" stroke="black" d="M975.62,-720.765C967.717,-711.841 957.767,-700.608 949.009,-690.719"/>
<polygon fill="black" stroke="black" points="951.552,-688.313 942.302,-683.147 946.312,-692.954 951.552,-688.313"/>
</g>
<!-- types/dep_path -->
<g id="node16" class="node"><title>types/dep_path</title>
<ellipse fill="none" stroke="black" cx="1052" cy="-666" rx="66.8882" ry="18"/>
<text text-anchor="middle" x="1052" y="-662.3" font-family="Times New Roman,serif" font-size="14.00">types/dep_path</text>
</g>
<!-- types/eq&#45;&gt;types/dep_path -->
<g id="edge14" class="edge"><title>types/eq&#45;&gt;types/dep_path</title>
<path fill="none" stroke="black" d="M1004.38,-720.765C1012.17,-711.969 1021.95,-700.928 1030.62,-691.144"/>
<polygon fill="black" stroke="black" points="1033.26,-693.44 1037.27,-683.633 1028.02,-688.799 1033.26,-693.44"/>
</g>
<!-- meta/hott_theory -->
<g id="node3" class="node"><title>meta/hott_theory</title>
<ellipse fill="none" stroke="black" cx="1051" cy="-810" rx="72.2875" ry="18"/>
<text text-anchor="middle" x="1051" y="-806.3" font-family="Times New Roman,serif" font-size="14.00">meta/hott_theory</text>
</g>
<!-- meta/hott_theory&#45;&gt;types/eq -->
<g id="edge2" class="edge"><title>meta/hott_theory&#45;&gt;types/eq</title>
<path fill="none" stroke="black" d="M1036.23,-792.055C1028.63,-783.33 1019.23,-772.544 1010.9,-762.981"/>
<polygon fill="black" stroke="black" points="1013.42,-760.547 1004.21,-755.307 1008.14,-765.146 1013.42,-760.547"/>
</g>
<!-- types/equiv -->
<g id="node5" class="node"><title>types/equiv</title>
<ellipse fill="none" stroke="black" cx="1052" cy="-594" rx="51.9908" ry="18"/>
<text text-anchor="middle" x="1052" y="-590.3" font-family="Times New Roman,serif" font-size="14.00">types/equiv</text>
</g>
<!-- support&#45;&gt;types/equiv -->
<g id="edge3" class="edge"><title>support&#45;&gt;types/equiv</title>
<path fill="none" stroke="black" d="M951.615,-651.669C970.101,-641.233 996.092,-626.561 1017,-614.761"/>
<polygon fill="black" stroke="black" points="1018.91,-617.698 1025.9,-609.734 1015.47,-611.602 1018.91,-617.698"/>
</g>
<!-- types/coproduct -->
<g id="node13" class="node"><title>types/coproduct</title>
<ellipse fill="none" stroke="black" cx="1257" cy="-522" rx="70.6878" ry="18"/>
<text text-anchor="middle" x="1257" y="-518.3" font-family="Times New Roman,serif" font-size="14.00">types/coproduct</text>
</g>
<!-- types/equiv&#45;&gt;types/coproduct -->
<g id="edge15" class="edge"><title>types/equiv&#45;&gt;types/coproduct</title>
<path fill="none" stroke="black" d="M1087.71,-580.807C1120.67,-569.552 1169.95,-552.725 1206.85,-540.123"/>
<polygon fill="black" stroke="black" points="1208.1,-543.397 1216.43,-536.853 1205.84,-536.773 1208.1,-543.397"/>
</g>
<!-- types/heq -->
<g id="node17" class="node"><title>types/heq</title>
<ellipse fill="none" stroke="black" cx="726" cy="-522" rx="46.2923" ry="18"/>
<text text-anchor="middle" x="726" y="-518.3" font-family="Times New Roman,serif" font-size="14.00">types/heq</text>
</g>
<!-- types/equiv&#45;&gt;types/heq -->
<g id="edge16" class="edge"><title>types/equiv&#45;&gt;types/heq</title>
<path fill="none" stroke="black" d="M1007.14,-584.874C954.63,-575.153 865.168,-557.932 789,-540 783.555,-538.718 777.867,-537.298 772.232,-535.842"/>
<polygon fill="black" stroke="black" points="772.773,-532.365 762.211,-533.201 770.989,-539.134 772.773,-532.365"/>
</g>
<!-- HITs/infinitesimal -->
<g id="node18" class="node"><title>HITs/infinitesimal</title>
<ellipse fill="none" stroke="black" cx="983" cy="-522" rx="74.9875" ry="18"/>
<text text-anchor="middle" x="983" y="-518.3" font-family="Times New Roman,serif" font-size="14.00">HITs/infinitesimal</text>
</g>
<!-- types/equiv&#45;&gt;HITs/infinitesimal -->
<g id="edge17" class="edge"><title>types/equiv&#45;&gt;HITs/infinitesimal</title>
<path fill="none" stroke="black" d="M1036,-576.765C1027.24,-567.882 1016.23,-556.709 1006.51,-546.854"/>
<polygon fill="black" stroke="black" points="1008.91,-544.298 999.396,-539.633 1003.92,-549.212 1008.91,-544.298"/>
</g>
<!-- types/lost -->
<g id="node19" class="node"><title>types/lost</title>
<ellipse fill="none" stroke="black" cx="1122" cy="-522" rx="46.2923" ry="18"/>
<text text-anchor="middle" x="1122" y="-518.3" font-family="Times New Roman,serif" font-size="14.00">types/lost</text>
</g>
<!-- types/equiv&#45;&gt;types/lost -->
<g id="edge18" class="edge"><title>types/equiv&#45;&gt;types/lost</title>
<path fill="none" stroke="black" d="M1068.24,-576.765C1077.25,-567.753 1088.61,-556.385 1098.57,-546.426"/>
<polygon fill="black" stroke="black" points="1101.26,-548.693 1105.85,-539.147 1096.31,-543.744 1101.26,-548.693"/>
</g>
<!-- types/unit -->
<g id="node20" class="node"><title>types/unit</title>
<ellipse fill="none" stroke="black" cx="844" cy="-522" rx="46.2923" ry="18"/>
<text text-anchor="middle" x="844" y="-518.3" font-family="Times New Roman,serif" font-size="14.00">types/unit</text>
</g>
<!-- types/equiv&#45;&gt;types/unit -->
<g id="edge19" class="edge"><title>types/equiv&#45;&gt;types/unit</title>
<path fill="none" stroke="black" d="M1015.77,-580.807C980.083,-568.797 925.54,-550.441 887.522,-537.647"/>
<polygon fill="black" stroke="black" points="888.345,-534.231 877.751,-534.359 886.113,-540.865 888.345,-534.231"/>
</g>
<!-- types/sigma -->
<g id="node21" class="node"><title>types/sigma</title>
<ellipse fill="none" stroke="black" cx="1456" cy="-306" rx="53.8905" ry="18"/>
<text text-anchor="middle" x="1456" y="-302.3" font-family="Times New Roman,serif" font-size="14.00">types/sigma</text>
</g>
<!-- types/equiv&#45;&gt;types/sigma -->
<g id="edge20" class="edge"><title>types/equiv&#45;&gt;types/sigma</title>
<path fill="none" stroke="black" d="M1101.79,-588.79C1173.14,-581.925 1299.94,-566.372 1337,-540 1408.02,-489.456 1439.44,-383.745 1450.71,-333.989"/>
<polygon fill="black" stroke="black" points="1454.19,-334.498 1452.88,-323.984 1447.34,-333.018 1454.19,-334.498"/>
</g>
<!-- structures -->
<g id="node6" class="node"><title>structures</title>
<ellipse fill="none" stroke="black" cx="931" cy="-450" rx="46.2923" ry="18"/>
<text text-anchor="middle" x="931" y="-446.3" font-family="Times New Roman,serif" font-size="14.00">structures</text>
</g>
<!-- HITs/interval -->
<g id="node7" class="node"><title>HITs/interval</title>
<ellipse fill="none" stroke="black" cx="888" cy="-378" rx="57.6901" ry="18"/>
<text text-anchor="middle" x="888" y="-374.3" font-family="Times New Roman,serif" font-size="14.00">HITs/interval</text>
</g>
<!-- structures&#45;&gt;HITs/interval -->
<g id="edge4" class="edge"><title>structures&#45;&gt;HITs/interval</title>
<path fill="none" stroke="black" d="M920.81,-432.411C915.69,-424.077 909.375,-413.797 903.657,-404.488"/>
<polygon fill="black" stroke="black" points="906.632,-402.645 898.416,-395.956 900.668,-406.309 906.632,-402.645"/>
</g>
<!-- HITs/truncation -->
<g id="node8" class="node"><title>HITs/truncation</title>
<ellipse fill="none" stroke="black" cx="271" cy="-306" rx="68.4888" ry="18"/>
<text text-anchor="middle" x="271" y="-302.3" font-family="Times New Roman,serif" font-size="14.00">HITs/truncation</text>
</g>
<!-- structures&#45;&gt;HITs/truncation -->
<g id="edge5" class="edge"><title>structures&#45;&gt;HITs/truncation</title>
<path fill="none" stroke="black" d="M903.129,-435.587C851.742,-410.867 747.082,-360.572 745,-360 574.173,-313.023 523.075,-351.152 348,-324 342.107,-323.086 335.99,-321.991 329.895,-320.803"/>
<polygon fill="black" stroke="black" points="330.201,-317.293 319.704,-318.731 328.806,-324.153 330.201,-317.293"/>
</g>
<!-- algebra/core -->
<g id="node9" class="node"><title>algebra/core</title>
<ellipse fill="none" stroke="black" cx="1057" cy="-378" rx="55.4913" ry="18"/>
<text text-anchor="middle" x="1057" y="-374.3" font-family="Times New Roman,serif" font-size="14.00">algebra/core</text>
</g>
<!-- structures&#45;&gt;algebra/core -->
<g id="edge6" class="edge"><title>structures&#45;&gt;algebra/core</title>
<path fill="none" stroke="black" d="M956.498,-434.834C975.165,-424.464 1000.74,-410.257 1021.42,-398.769"/>
<polygon fill="black" stroke="black" points="1023.19,-401.785 1030.24,-393.869 1019.79,-395.666 1023.19,-401.785"/>
</g>
<!-- types/nat -->
<g id="node10" class="node"><title>types/nat</title>
<ellipse fill="none" stroke="black" cx="915" cy="-234" rx="43.5923" ry="18"/>
<text text-anchor="middle" x="915" y="-230.3" font-family="Times New Roman,serif" font-size="14.00">types/nat</text>
</g>
<!-- structures&#45;&gt;types/nat -->
<g id="edge7" class="edge"><title>structures&#45;&gt;types/nat</title>
<path fill="none" stroke="black" d="M940.954,-431.978C946.272,-421.888 952.272,-408.638 955,-396 965.354,-348.035 944.209,-292.603 928.906,-260.888"/>
<polygon fill="black" stroke="black" points="931.987,-259.222 924.386,-251.841 925.725,-262.351 931.987,-259.222"/>
</g>
<!-- types/product -->
<g id="node27" class="node"><title>types/product</title>
<ellipse fill="none" stroke="black" cx="799" cy="-306" rx="61.99" ry="18"/>
<text text-anchor="middle" x="799" y="-302.3" font-family="Times New Roman,serif" font-size="14.00">types/product</text>
</g>
<!-- HITs/interval&#45;&gt;types/product -->
<g id="edge54" class="edge"><title>HITs/interval&#45;&gt;types/product</title>
<path fill="none" stroke="black" d="M867.805,-361.116C855.828,-351.696 840.462,-339.611 827.291,-329.251"/>
<polygon fill="black" stroke="black" points="829.448,-326.495 819.424,-323.064 825.12,-331.997 829.448,-326.495"/>
</g>
<!-- theorems/fibration -->
<g id="node30" class="node"><title>theorems/fibration</title>
<ellipse fill="none" stroke="black" cx="1406" cy="-234" rx="76.8869" ry="18"/>
<text text-anchor="middle" x="1406" y="-230.3" font-family="Times New Roman,serif" font-size="14.00">theorems/fibration</text>
</g>
<!-- HITs/interval&#45;&gt;theorems/fibration -->
<g id="edge55" class="edge"><title>HITs/interval&#45;&gt;theorems/fibration</title>
<path fill="none" stroke="black" d="M901.506,-360.229C919.346,-339.396 952.877,-304.581 990,-288 1109.39,-234.675 1152.33,-268.881 1282,-252 1298.15,-249.898 1315.47,-247.569 1331.89,-245.327"/>
<polygon fill="black" stroke="black" points="1332.55,-248.77 1341.98,-243.945 1331.6,-241.835 1332.55,-248.77"/>
</g>
<!-- theorems/prop -->
<g id="node31" class="node"><title>theorems/prop</title>
<ellipse fill="none" stroke="black" cx="1209" cy="-234" rx="63.8893" ry="18"/>
<text text-anchor="middle" x="1209" y="-230.3" font-family="Times New Roman,serif" font-size="14.00">theorems/prop</text>
</g>
<!-- HITs/interval&#45;&gt;theorems/prop -->
<g id="edge56" class="edge"><title>HITs/interval&#45;&gt;theorems/prop</title>
<path fill="none" stroke="black" d="M888.733,-359.696C890.582,-339.311 896.883,-305.956 918,-288 992.812,-224.387 1039.68,-271.147 1136,-252 1141.34,-250.938 1146.89,-249.768 1152.44,-248.554"/>
<polygon fill="black" stroke="black" points="1153.37,-251.933 1162.37,-246.337 1151.84,-245.101 1153.37,-251.933"/>
</g>
<!-- HITs/truncation&#45;&gt;theorems/prop -->
<g id="edge61" class="edge"><title>HITs/truncation&#45;&gt;theorems/prop</title>
<path fill="none" stroke="black" d="M318.832,-293.108C328.438,-291.097 338.5,-289.256 348,-288 695.562,-242.04 788.708,-299.959 1136,-252 1141.86,-251.19 1147.95,-250.132 1153.99,-248.938"/>
<polygon fill="black" stroke="black" points="1155,-252.302 1164.07,-246.822 1153.56,-245.451 1155,-252.302"/>
</g>
<!-- HITs/simplicial -->
<g id="node44" class="node"><title>HITs/simplicial</title>
<ellipse fill="none" stroke="black" cx="94" cy="-234" rx="65.7887" ry="18"/>
<text text-anchor="middle" x="94" y="-230.3" font-family="Times New Roman,serif" font-size="14.00">HITs/simplicial</text>
</g>
<!-- HITs/truncation&#45;&gt;HITs/simplicial -->
<g id="edge62" class="edge"><title>HITs/truncation&#45;&gt;HITs/simplicial</title>
<path fill="none" stroke="black" d="M234.754,-290.666C207.102,-279.729 168.845,-264.6 139.194,-252.873"/>
<polygon fill="black" stroke="black" points="140.481,-249.619 129.894,-249.196 137.906,-256.128 140.481,-249.619"/>
</g>
<!-- theorems/mere_eq_lemma -->
<g id="node45" class="node"><title>theorems/mere_eq_lemma</title>
<ellipse fill="none" stroke="black" cx="284" cy="-234" rx="105.881" ry="18"/>
<text text-anchor="middle" x="284" y="-230.3" font-family="Times New Roman,serif" font-size="14.00">theorems/mere_eq_lemma</text>
</g>
<!-- HITs/truncation&#45;&gt;theorems/mere_eq_lemma -->
<g id="edge63" class="edge"><title>HITs/truncation&#45;&gt;theorems/mere_eq_lemma</title>
<path fill="none" stroke="black" d="M274.213,-287.697C275.646,-279.983 277.368,-270.712 278.965,-262.112"/>
<polygon fill="black" stroke="black" points="282.439,-262.575 280.823,-252.104 275.556,-261.297 282.439,-262.575"/>
</g>
<!-- theorems/graphs -->
<g id="node46" class="node"><title>theorems/graphs</title>
<ellipse fill="none" stroke="black" cx="479" cy="-234" rx="70.6878" ry="18"/>
<text text-anchor="middle" x="479" y="-230.3" font-family="Times New Roman,serif" font-size="14.00">theorems/graphs</text>
</g>
<!-- HITs/truncation&#45;&gt;theorems/graphs -->
<g id="edge64" class="edge"><title>HITs/truncation&#45;&gt;theorems/graphs</title>
<path fill="none" stroke="black" d="M311.598,-291.337C344.991,-280.099 392.485,-264.116 428.36,-252.042"/>
<polygon fill="black" stroke="black" points="429.788,-255.255 438.149,-248.748 427.555,-248.62 429.788,-255.255"/>
</g>
<!-- algebra/group -->
<g id="node11" class="node"><title>algebra/group</title>
<ellipse fill="none" stroke="black" cx="1059" cy="-306" rx="60.3893" ry="18"/>
<text text-anchor="middle" x="1059" y="-302.3" font-family="Times New Roman,serif" font-size="14.00">algebra/group</text>
</g>
<!-- algebra/core&#45;&gt;algebra/group -->
<g id="edge8" class="edge"><title>algebra/core&#45;&gt;algebra/group</title>
<path fill="none" stroke="black" d="M1057.49,-359.697C1057.71,-351.983 1057.98,-342.712 1058.23,-334.112"/>
<polygon fill="black" stroke="black" points="1061.72,-334.2 1058.51,-324.104 1054.73,-334 1061.72,-334.2"/>
</g>
<!-- theorems/nat -->
<g id="node26" class="node"><title>theorems/nat</title>
<ellipse fill="none" stroke="black" cx="925" cy="-162" rx="57.3905" ry="18"/>
<text text-anchor="middle" x="925" y="-158.3" font-family="Times New Roman,serif" font-size="14.00">theorems/nat</text>
</g>
<!-- types/nat&#45;&gt;theorems/nat -->
<g id="edge27" class="edge"><title>types/nat&#45;&gt;theorems/nat</title>
<path fill="none" stroke="black" d="M917.472,-215.697C918.574,-207.983 919.898,-198.712 921.127,-190.112"/>
<polygon fill="black" stroke="black" points="924.607,-190.499 922.557,-180.104 917.677,-189.509 924.607,-190.499"/>
</g>
<!-- algebra/homology -->
<g id="node12" class="node"><title>algebra/homology</title>
<ellipse fill="none" stroke="black" cx="1052" cy="-234" rx="75.2868" ry="18"/>
<text text-anchor="middle" x="1052" y="-230.3" font-family="Times New Roman,serif" font-size="14.00">algebra/homology</text>
</g>
<!-- algebra/group&#45;&gt;algebra/homology -->
<g id="edge9" class="edge"><title>algebra/group&#45;&gt;algebra/homology</title>
<path fill="none" stroke="black" d="M1057.27,-287.697C1056.5,-279.983 1055.57,-270.712 1054.71,-262.112"/>
<polygon fill="black" stroke="black" points="1058.19,-261.706 1053.71,-252.104 1051.22,-262.403 1058.19,-261.706"/>
</g>
<!-- types/coproduct&#45;&gt;structures -->
<g id="edge10" class="edge"><title>types/coproduct&#45;&gt;structures</title>
<path fill="none" stroke="black" d="M1204.62,-509.753C1142.86,-496.492 1040.98,-474.615 980.498,-461.628"/>
<polygon fill="black" stroke="black" points="980.944,-458.145 970.432,-459.467 979.475,-464.989 980.944,-458.145"/>
</g>
<!-- types/integer -->
<g id="node14" class="node"><title>types/integer</title>
<ellipse fill="none" stroke="black" cx="1264" cy="-450" rx="56.59" ry="18"/>
<text text-anchor="middle" x="1264" y="-446.3" font-family="Times New Roman,serif" font-size="14.00">types/integer</text>
</g>
<!-- types/coproduct&#45;&gt;types/integer -->
<g id="edge11" class="edge"><title>types/coproduct&#45;&gt;types/integer</title>
<path fill="none" stroke="black" d="M1258.73,-503.697C1259.5,-495.983 1260.43,-486.712 1261.29,-478.112"/>
<polygon fill="black" stroke="black" points="1264.78,-478.403 1262.29,-468.104 1257.81,-477.706 1264.78,-478.403"/>
</g>
<!-- types/integer&#45;&gt;algebra/core -->
<g id="edge23" class="edge"><title>types/integer&#45;&gt;algebra/core</title>
<path fill="none" stroke="black" d="M1226.51,-436.324C1191.97,-424.642 1140.59,-407.266 1103.45,-394.708"/>
<polygon fill="black" stroke="black" points="1104.45,-391.352 1093.86,-391.464 1102.21,-397.984 1104.45,-391.352"/>
</g>
<!-- HITs/circle -->
<g id="node23" class="node"><title>HITs/circle</title>
<ellipse fill="none" stroke="black" cx="925" cy="-90" rx="51.9908" ry="18"/>
<text text-anchor="middle" x="925" y="-86.3" font-family="Times New Roman,serif" font-size="14.00">HITs/circle</text>
</g>
<!-- types/integer&#45;&gt;HITs/circle -->
<g id="edge24" class="edge"><title>types/integer&#45;&gt;HITs/circle</title>
<path fill="none" stroke="black" d="M1319.29,-445.725C1402.17,-437.494 1549,-408.578 1549,-307 1549,-307 1549,-307 1549,-233 1549,-118.508 1144.55,-96.3288 986.883,-92.0322"/>
<polygon fill="black" stroke="black" points="986.949,-88.5328 976.862,-91.7743 986.768,-95.5305 986.949,-88.5328"/>
</g>
<!-- HITs/reals -->
<g id="node24" class="node"><title>HITs/reals</title>
<ellipse fill="none" stroke="black" cx="1186" cy="-306" rx="48.9926" ry="18"/>
<text text-anchor="middle" x="1186" y="-302.3" font-family="Times New Roman,serif" font-size="14.00">HITs/reals</text>
</g>
<!-- types/integer&#45;&gt;HITs/reals -->
<g id="edge25" class="edge"><title>types/integer&#45;&gt;HITs/reals</title>
<path fill="none" stroke="black" d="M1263.45,-431.811C1262.18,-413.014 1258.06,-382.563 1245,-360 1237.97,-347.844 1227.17,-336.961 1216.73,-328.267"/>
<polygon fill="black" stroke="black" points="1218.89,-325.518 1208.88,-322.059 1214.55,-331.008 1218.89,-325.518"/>
</g>
<!-- types/rational -->
<g id="node25" class="node"><title>types/rational</title>
<ellipse fill="none" stroke="black" cx="1351" cy="-378" rx="59.2899" ry="18"/>
<text text-anchor="middle" x="1351" y="-374.3" font-family="Times New Roman,serif" font-size="14.00">types/rational</text>
</g>
<!-- types/integer&#45;&gt;types/rational -->
<g id="edge26" class="edge"><title>types/integer&#45;&gt;types/rational</title>
<path fill="none" stroke="black" d="M1283.74,-433.116C1295.34,-423.785 1310.19,-411.838 1322.98,-401.545"/>
<polygon fill="black" stroke="black" points="1325.44,-404.059 1331.04,-395.064 1321.05,-398.605 1325.44,-404.059"/>
</g>
<!-- types/dedekind -->
<g id="node15" class="node"><title>types/dedekind</title>
<ellipse fill="none" stroke="black" cx="1318" cy="-306" rx="65.7887" ry="18"/>
<text text-anchor="middle" x="1318" y="-302.3" font-family="Times New Roman,serif" font-size="14.00">types/dedekind</text>
</g>
<!-- types/dedekind&#45;&gt;theorems/nat -->
<g id="edge32" class="edge"><title>types/dedekind&#45;&gt;theorems/nat</title>
<path fill="none" stroke="black" d="M1316.14,-287.911C1312.93,-267.417 1304.39,-233.63 1282,-216 1238.15,-181.48 1082.47,-169.338 991.821,-165.146"/>
<polygon fill="black" stroke="black" points="991.785,-161.641 981.64,-164.696 991.476,-168.634 991.785,-161.641"/>
</g>
<!-- types/dedekind&#45;&gt;theorems/fibration -->
<g id="edge33" class="edge"><title>types/dedekind&#45;&gt;theorems/fibration</title>
<path fill="none" stroke="black" d="M1338.41,-288.765C1349.99,-279.554 1364.66,-267.882 1377.38,-257.769"/>
<polygon fill="black" stroke="black" points="1379.75,-260.354 1385.4,-251.39 1375.39,-254.876 1379.75,-260.354"/>
</g>
<!-- types/dedekind&#45;&gt;theorems/prop -->
<g id="edge34" class="edge"><title>types/dedekind&#45;&gt;theorems/prop</title>
<path fill="none" stroke="black" d="M1293.54,-289.291C1278.39,-279.564 1258.74,-266.946 1242.2,-256.322"/>
<polygon fill="black" stroke="black" points="1243.69,-253.116 1233.38,-250.657 1239.9,-259.006 1243.69,-253.116"/>
</g>
<!-- types/dep_path&#45;&gt;types/equiv -->
<g id="edge12" class="edge"><title>types/dep_path&#45;&gt;types/equiv</title>
<path fill="none" stroke="black" d="M1052,-647.697C1052,-639.983 1052,-630.712 1052,-622.112"/>
<polygon fill="black" stroke="black" points="1055.5,-622.104 1052,-612.104 1048.5,-622.104 1055.5,-622.104"/>
</g>
<!-- types/heq&#45;&gt;HITs/interval -->
<g id="edge21" class="edge"><title>types/heq&#45;&gt;HITs/interval</title>
<path fill="none" stroke="black" d="M743.956,-505.261C772.511,-480.231 828.422,-431.222 861.562,-402.174"/>
<polygon fill="black" stroke="black" points="864.253,-404.47 869.466,-395.246 859.639,-399.206 864.253,-404.47"/>
</g>
<!-- HITs/graph -->
<g id="node22" class="node"><title>HITs/graph</title>
<ellipse fill="none" stroke="black" cx="385" cy="-450" rx="52.7911" ry="18"/>
<text text-anchor="middle" x="385" y="-446.3" font-family="Times New Roman,serif" font-size="14.00">HITs/graph</text>
</g>
<!-- types/heq&#45;&gt;HITs/graph -->
<g id="edge22" class="edge"><title>types/heq&#45;&gt;HITs/graph</title>
<path fill="none" stroke="black" d="M686.216,-512.833C625.054,-500.278 507.807,-476.21 439.021,-462.089"/>
<polygon fill="black" stroke="black" points="439.324,-458.579 428.825,-459.996 437.917,-465.436 439.324,-458.579"/>
</g>
<!-- types/unit&#45;&gt;structures -->
<g id="edge40" class="edge"><title>types/unit&#45;&gt;structures</title>
<path fill="none" stroke="black" d="M863.308,-505.465C875.248,-495.858 890.752,-483.383 903.91,-472.797"/>
<polygon fill="black" stroke="black" points="906.149,-475.488 911.746,-466.492 901.761,-470.034 906.149,-475.488"/>
</g>
<!-- HITs/suspension -->
<g id="node33" class="node"><title>HITs/suspension</title>
<ellipse fill="none" stroke="black" cx="641" cy="-306" rx="72.5877" ry="18"/>
<text text-anchor="middle" x="641" y="-302.3" font-family="Times New Roman,serif" font-size="14.00">HITs/suspension</text>
</g>
<!-- types/unit&#45;&gt;HITs/suspension -->
<g id="edge41" class="edge"><title>types/unit&#45;&gt;HITs/suspension</title>
<path fill="none" stroke="black" d="M837.211,-503.856C823.835,-471.928 791.294,-402.731 745,-360 729.204,-345.42 708.642,-333.822 689.975,-325.239"/>
<polygon fill="black" stroke="black" points="691.271,-321.985 680.709,-321.148 688.443,-328.389 691.271,-321.985"/>
</g>
<!-- types/sigma&#45;&gt;theorems/nat -->
<g id="edge35" class="edge"><title>types/sigma&#45;&gt;theorems/nat</title>
<path fill="none" stroke="black" d="M1471.92,-288.708C1488.94,-269.321 1511.08,-236.947 1492,-216 1458.92,-179.679 1135.36,-167.808 992.368,-164.316"/>
<polygon fill="black" stroke="black" points="992.06,-160.808 981.98,-164.07 991.894,-167.806 992.06,-160.808"/>
</g>
<!-- types/sigma&#45;&gt;theorems/fibration -->
<g id="edge36" class="edge"><title>types/sigma&#45;&gt;theorems/fibration</title>
<path fill="none" stroke="black" d="M1444.15,-288.411C1438.14,-279.992 1430.7,-269.585 1424,-260.201"/>
<polygon fill="black" stroke="black" points="1426.77,-258.059 1418.11,-251.956 1421.08,-262.128 1426.77,-258.059"/>
</g>
<!-- types/sigma&#45;&gt;theorems/prop -->
<g id="edge37" class="edge"><title>types/sigma&#45;&gt;theorems/prop</title>
<path fill="none" stroke="black" d="M1416.32,-293.753C1374.52,-281.908 1308.47,-263.189 1262.18,-250.071"/>
<polygon fill="black" stroke="black" points="1262.9,-246.638 1252.33,-247.279 1260.99,-253.373 1262.9,-246.638"/>
</g>
<!-- HITs/moebius -->
<g id="node36" class="node"><title>HITs/moebius</title>
<ellipse fill="none" stroke="black" cx="781" cy="-18" rx="63.0888" ry="18"/>
<text text-anchor="middle" x="781" y="-14.3" font-family="Times New Roman,serif" font-size="14.00">HITs/moebius</text>
</g>
<!-- HITs/graph&#45;&gt;HITs/moebius -->
<g id="edge47" class="edge"><title>HITs/graph&#45;&gt;HITs/moebius</title>
<path fill="none" stroke="black" d="M332.839,-446.837C248.484,-442.387 87.0148,-429.627 42,-396 6.95882,-369.824 0,-350.739 0,-307 0,-307 0,-307 0,-161 0,-46.8184 129.717,-97.5633 241,-72 405.151,-34.2921 603.417,-23.4032 708.073,-20.265"/>
<polygon fill="black" stroke="black" points="708.316,-23.7596 718.212,-19.9766 708.117,-16.7625 708.316,-23.7596"/>
</g>
<!-- HITs/colimit -->
<g id="node37" class="node"><title>HITs/colimit</title>
<ellipse fill="none" stroke="black" cx="270" cy="-378" rx="56.59" ry="18"/>
<text text-anchor="middle" x="270" y="-374.3" font-family="Times New Roman,serif" font-size="14.00">HITs/colimit</text>
</g>
<!-- HITs/graph&#45;&gt;HITs/colimit -->
<g id="edge48" class="edge"><title>HITs/graph&#45;&gt;HITs/colimit</title>
<path fill="none" stroke="black" d="M360.33,-433.983C343.768,-423.902 321.743,-410.496 303.587,-399.444"/>
<polygon fill="black" stroke="black" points="305.388,-396.443 295.026,-394.233 301.749,-402.423 305.388,-396.443"/>
</g>
<!-- HITs/generalized -->
<g id="node38" class="node"><title>HITs/generalized</title>
<ellipse fill="none" stroke="black" cx="123" cy="-378" rx="72.2875" ry="18"/>
<text text-anchor="middle" x="123" y="-374.3" font-family="Times New Roman,serif" font-size="14.00">HITs/generalized</text>
</g>
<!-- HITs/graph&#45;&gt;HITs/generalized -->
<g id="edge49" class="edge"><title>HITs/graph&#45;&gt;HITs/generalized</title>
<path fill="none" stroke="black" d="M344.923,-438.292C300.978,-426.551 230.096,-407.614 180.29,-394.306"/>
<polygon fill="black" stroke="black" points="181.188,-390.924 170.624,-391.724 179.381,-397.687 181.188,-390.924"/>
</g>
<!-- HITs/int -->
<g id="node39" class="node"><title>HITs/int</title>
<ellipse fill="none" stroke="black" cx="385" cy="-378" rx="40.8928" ry="18"/>
<text text-anchor="middle" x="385" y="-374.3" font-family="Times New Roman,serif" font-size="14.00">HITs/int</text>
</g>
<!-- HITs/graph&#45;&gt;HITs/int -->
<g id="edge50" class="edge"><title>HITs/graph&#45;&gt;HITs/int</title>
<path fill="none" stroke="black" d="M385,-431.697C385,-423.983 385,-414.712 385,-406.112"/>
<polygon fill="black" stroke="black" points="388.5,-406.104 385,-396.104 381.5,-406.104 388.5,-406.104"/>
</g>
<!-- HITs/pushout -->
<g id="node40" class="node"><title>HITs/pushout</title>
<ellipse fill="none" stroke="black" cx="506" cy="-378" rx="61.99" ry="18"/>
<text text-anchor="middle" x="506" y="-374.3" font-family="Times New Roman,serif" font-size="14.00">HITs/pushout</text>
</g>
<!-- HITs/graph&#45;&gt;HITs/pushout -->
<g id="edge51" class="edge"><title>HITs/graph&#45;&gt;HITs/pushout</title>
<path fill="none" stroke="black" d="M410.661,-434.155C428.148,-424.038 451.526,-410.514 470.755,-399.389"/>
<polygon fill="black" stroke="black" points="472.636,-402.345 479.54,-394.308 469.131,-396.286 472.636,-402.345"/>
</g>
<!-- types/precategory -->
<g id="node41" class="node"><title>types/precategory</title>
<ellipse fill="none" stroke="black" cx="661" cy="-378" rx="75.2868" ry="18"/>
<text text-anchor="middle" x="661" y="-374.3" font-family="Times New Roman,serif" font-size="14.00">types/precategory</text>
</g>
<!-- HITs/graph&#45;&gt;types/precategory -->
<g id="edge52" class="edge"><title>HITs/graph&#45;&gt;types/precategory</title>
<path fill="none" stroke="black" d="M426.022,-438.596C472.435,-426.824 548.442,-407.547 601.4,-394.116"/>
<polygon fill="black" stroke="black" points="602.505,-397.447 611.337,-391.596 600.784,-390.661 602.505,-397.447"/>
</g>
<!-- HITs/ntrunc -->
<g id="node34" class="node"><title>HITs/ntrunc</title>
<ellipse fill="none" stroke="black" cx="925" cy="-18" rx="55.4913" ry="18"/>
<text text-anchor="middle" x="925" y="-14.3" font-family="Times New Roman,serif" font-size="14.00">HITs/ntrunc</text>
</g>
<!-- HITs/circle&#45;&gt;HITs/ntrunc -->
<g id="edge42" class="edge"><title>HITs/circle&#45;&gt;HITs/ntrunc</title>
<path fill="none" stroke="black" d="M925,-71.6966C925,-63.9827 925,-54.7125 925,-46.1124"/>
<polygon fill="black" stroke="black" points="928.5,-46.1043 925,-36.1043 921.5,-46.1044 928.5,-46.1043"/>
</g>
<!-- theorems/hopf -->
<g id="node35" class="node"><title>theorems/hopf</title>
<ellipse fill="none" stroke="black" cx="1234" cy="-18" rx="63.8893" ry="18"/>
<text text-anchor="middle" x="1234" y="-14.3" font-family="Times New Roman,serif" font-size="14.00">theorems/hopf</text>
</g>
<!-- HITs/circle&#45;&gt;theorems/hopf -->
<g id="edge43" class="edge"><title>HITs/circle&#45;&gt;theorems/hopf</title>
<path fill="none" stroke="black" d="M967.317,-79.4136C1021.41,-67.1589 1115.32,-45.886 1176.03,-32.1314"/>
<polygon fill="black" stroke="black" points="1176.87,-35.53 1185.85,-29.907 1175.33,-28.703 1176.87,-35.53"/>
</g>
<!-- HITs/circle&#45;&gt;HITs/moebius -->
<g id="edge44" class="edge"><title>HITs/circle&#45;&gt;HITs/moebius</title>
<path fill="none" stroke="black" d="M896.206,-75.0027C874.541,-64.4712 844.594,-49.9137 820.663,-38.2806"/>
<polygon fill="black" stroke="black" points="822.008,-35.043 811.484,-33.8188 818.948,-41.3386 822.008,-35.043"/>
</g>
<!-- types/rational&#45;&gt;types/dedekind -->
<g id="edge30" class="edge"><title>types/rational&#45;&gt;types/dedekind</title>
<path fill="none" stroke="black" d="M1343.01,-360.055C1339.26,-352.091 1334.69,-342.411 1330.5,-333.51"/>
<polygon fill="black" stroke="black" points="1333.57,-331.828 1326.14,-324.275 1327.24,-334.813 1333.57,-331.828"/>
</g>
<!-- types/rational&#45;&gt;types/sigma -->
<g id="edge31" class="edge"><title>types/rational&#45;&gt;types/sigma</title>
<path fill="none" stroke="black" d="M1374.56,-361.291C1389.26,-351.495 1408.35,-338.769 1424.35,-328.1"/>
<polygon fill="black" stroke="black" points="1426.5,-330.875 1432.88,-322.416 1422.61,-325.051 1426.5,-330.875"/>
</g>
<!-- theorems/nat&#45;&gt;HITs/circle -->
<g id="edge73" class="edge"><title>theorems/nat&#45;&gt;HITs/circle</title>
<path fill="none" stroke="black" d="M925,-143.697C925,-135.983 925,-126.712 925,-118.112"/>
<polygon fill="black" stroke="black" points="928.5,-118.104 925,-108.104 921.5,-118.104 928.5,-118.104"/>
</g>
<!-- cubical/cubes -->
<g id="node28" class="node"><title>cubical/cubes</title>
<ellipse fill="none" stroke="black" cx="666" cy="-234" rx="60.3893" ry="18"/>
<text text-anchor="middle" x="666" y="-230.3" font-family="Times New Roman,serif" font-size="14.00">cubical/cubes</text>
</g>
<!-- types/product&#45;&gt;cubical/cubes -->
<g id="edge28" class="edge"><title>types/product&#45;&gt;cubical/cubes</title>
<path fill="none" stroke="black" d="M770.468,-289.983C750.921,-279.695 724.791,-265.942 703.554,-254.765"/>
<polygon fill="black" stroke="black" points="704.964,-251.552 694.485,-249.992 701.704,-257.747 704.964,-251.552"/>
</g>
<!-- theorems/ua -->
<g id="node29" class="node"><title>theorems/ua</title>
<ellipse fill="none" stroke="black" cx="799" cy="-234" rx="54.6905" ry="18"/>
<text text-anchor="middle" x="799" y="-230.3" font-family="Times New Roman,serif" font-size="14.00">theorems/ua</text>
</g>
<!-- types/product&#45;&gt;theorems/ua -->
<g id="edge29" class="edge"><title>types/product&#45;&gt;theorems/ua</title>
<path fill="none" stroke="black" d="M799,-287.697C799,-279.983 799,-270.712 799,-262.112"/>
<polygon fill="black" stroke="black" points="802.5,-262.104 799,-252.104 795.5,-262.104 802.5,-262.104"/>
</g>
<!-- cubical/path -->
<g id="node48" class="node"><title>cubical/path</title>
<ellipse fill="none" stroke="black" cx="495" cy="-162" rx="54.6905" ry="18"/>
<text text-anchor="middle" x="495" y="-158.3" font-family="Times New Roman,serif" font-size="14.00">cubical/path</text>
</g>
<!-- cubical/cubes&#45;&gt;cubical/path -->
<g id="edge65" class="edge"><title>cubical/cubes&#45;&gt;cubical/path</title>
<path fill="none" stroke="black" d="M631.807,-219.003C604.661,-207.89 566.566,-192.296 537.467,-180.384"/>
<polygon fill="black" stroke="black" points="538.553,-177.047 527.972,-176.497 535.901,-183.525 538.553,-177.047"/>
</g>
<!-- theorems/ua&#45;&gt;theorems/nat -->
<g id="edge74" class="edge"><title>theorems/ua&#45;&gt;theorems/nat</title>
<path fill="none" stroke="black" d="M825.721,-218.155C844.139,-207.923 868.831,-194.205 888.982,-183.01"/>
<polygon fill="black" stroke="black" points="890.841,-185.981 897.883,-178.065 887.441,-179.862 890.841,-185.981"/>
</g>
<!-- cubical/V -->
<g id="node51" class="node"><title>cubical/V</title>
<ellipse fill="none" stroke="black" cx="781" cy="-90" rx="45.4919" ry="18"/>
<text text-anchor="middle" x="781" y="-86.3" font-family="Times New Roman,serif" font-size="14.00">cubical/V</text>
</g>
<!-- theorems/ua&#45;&gt;cubical/V -->
<g id="edge75" class="edge"><title>theorems/ua&#45;&gt;cubical/V</title>
<path fill="none" stroke="black" d="M796.829,-215.871C793.761,-191.67 788.125,-147.211 784.472,-118.393"/>
<polygon fill="black" stroke="black" points="787.909,-117.67 783.179,-108.189 780.964,-118.55 787.909,-117.67"/>
</g>
<!-- theorems/fibration&#45;&gt;theorems/hopf -->
<g id="edge71" class="edge"><title>theorems/fibration&#45;&gt;theorems/hopf</title>
<path fill="none" stroke="black" d="M1392.5,-216.208C1362.3,-178.626 1289.13,-87.5951 1253.78,-43.6063"/>
<polygon fill="black" stroke="black" points="1256.43,-41.316 1247.43,-35.7142 1250.97,-45.7014 1256.43,-41.316"/>
</g>
<!-- types/swale -->
<g id="node32" class="node"><title>types/swale</title>
<ellipse fill="none" stroke="black" cx="1183" cy="-378" rx="52.7911" ry="18"/>
<text text-anchor="middle" x="1183" y="-374.3" font-family="Times New Roman,serif" font-size="14.00">types/swale</text>
</g>
<!-- types/swale&#45;&gt;algebra/group -->
<g id="edge38" class="edge"><title>types/swale&#45;&gt;algebra/group</title>
<path fill="none" stroke="black" d="M1157.01,-362.326C1138.9,-352.105 1114.52,-338.344 1094.61,-327.104"/>
<polygon fill="black" stroke="black" points="1096.25,-324.007 1085.82,-322.138 1092.8,-330.102 1096.25,-324.007"/>
</g>
<!-- types/swale&#45;&gt;HITs/reals -->
<g id="edge39" class="edge"><title>types/swale&#45;&gt;HITs/reals</title>
<path fill="none" stroke="black" d="M1183.74,-359.697C1184.07,-351.983 1184.47,-342.712 1184.84,-334.112"/>
<polygon fill="black" stroke="black" points="1188.34,-334.245 1185.27,-324.104 1181.34,-333.945 1188.34,-334.245"/>
</g>
<!-- HITs/suspension&#45;&gt;HITs/circle -->
<g id="edge60" class="edge"><title>HITs/suspension&#45;&gt;HITs/circle</title>
<path fill="none" stroke="black" d="M622.489,-288.47C604.086,-269.988 580.765,-239.561 597,-216 629.313,-169.106 789.276,-124.057 873.275,-103.155"/>
<polygon fill="black" stroke="black" points="874.256,-106.518 883.128,-100.727 872.581,-99.7211 874.256,-106.518"/>
</g>
<!-- HITs/colimit&#45;&gt;HITs/truncation -->
<g id="edge45" class="edge"><title>HITs/colimit&#45;&gt;HITs/truncation</title>
<path fill="none" stroke="black" d="M270.247,-359.697C270.357,-351.983 270.49,-342.712 270.613,-334.112"/>
<polygon fill="black" stroke="black" points="274.112,-334.153 270.756,-324.104 267.113,-334.053 274.112,-334.153"/>
</g>
<!-- HITs/generalized&#45;&gt;HITs/truncation -->
<g id="edge46" class="edge"><title>HITs/generalized&#45;&gt;HITs/truncation</title>
<path fill="none" stroke="black" d="M155.114,-361.811C177.104,-351.41 206.453,-337.529 230.113,-326.339"/>
<polygon fill="black" stroke="black" points="231.66,-329.479 239.203,-322.039 228.667,-323.151 231.66,-329.479"/>
</g>
<!-- HITs/rat -->
<g id="node42" class="node"><title>HITs/rat</title>
<ellipse fill="none" stroke="black" cx="399" cy="-306" rx="41.6928" ry="18"/>
<text text-anchor="middle" x="399" y="-302.3" font-family="Times New Roman,serif" font-size="14.00">HITs/rat</text>
</g>
<!-- HITs/int&#45;&gt;HITs/rat -->
<g id="edge53" class="edge"><title>HITs/int&#45;&gt;HITs/rat</title>
<path fill="none" stroke="black" d="M388.389,-360.055C389.931,-352.346 391.795,-343.027 393.527,-334.364"/>
<polygon fill="black" stroke="black" points="397.016,-334.768 395.545,-324.275 390.152,-333.395 397.016,-334.768"/>
</g>
<!-- HITs/pushout&#45;&gt;HITs/reals -->
<g id="edge57" class="edge"><title>HITs/pushout&#45;&gt;HITs/reals</title>
<path fill="none" stroke="black" d="M550.085,-365.22C558.944,-363.199 568.227,-361.327 577,-360 819.651,-323.295 886.345,-366.772 1128,-324 1132.36,-323.228 1136.86,-322.249 1141.33,-321.151"/>
<polygon fill="black" stroke="black" points="1142.25,-324.53 1151.02,-318.595 1140.46,-317.762 1142.25,-324.53"/>
</g>
<!-- HITs/pushout&#45;&gt;HITs/suspension -->
<g id="edge58" class="edge"><title>HITs/pushout&#45;&gt;HITs/suspension</title>
<path fill="none" stroke="black" d="M534.961,-361.983C554.533,-351.835 580.605,-338.316 601.999,-327.223"/>
<polygon fill="black" stroke="black" points="603.887,-330.187 611.153,-322.476 600.664,-323.972 603.887,-330.187"/>
</g>
<!-- HITs/join -->
<g id="node43" class="node"><title>HITs/join</title>
<ellipse fill="none" stroke="black" cx="505" cy="-306" rx="45.4919" ry="18"/>
<text text-anchor="middle" x="505" y="-302.3" font-family="Times New Roman,serif" font-size="14.00">HITs/join</text>
</g>
<!-- HITs/pushout&#45;&gt;HITs/join -->
<g id="edge59" class="edge"><title>HITs/pushout&#45;&gt;HITs/join</title>
<path fill="none" stroke="black" d="M505.753,-359.697C505.643,-351.983 505.51,-342.712 505.387,-334.112"/>
<polygon fill="black" stroke="black" points="508.887,-334.053 505.244,-324.104 501.888,-334.153 508.887,-334.053"/>
</g>
<!-- cubical/connection -->
<g id="node47" class="node"><title>cubical/connection</title>
<ellipse fill="none" stroke="black" cx="329" cy="-90" rx="79.0865" ry="18"/>
<text text-anchor="middle" x="329" y="-86.3" font-family="Times New Roman,serif" font-size="14.00">cubical/connection</text>
</g>
<!-- cubical/path&#45;&gt;cubical/connection -->
<g id="edge66" class="edge"><title>cubical/path&#45;&gt;cubical/connection</title>
<path fill="none" stroke="black" d="M462.599,-147.337C437.448,-136.731 402.271,-121.897 374.327,-110.114"/>
<polygon fill="black" stroke="black" points="375.346,-106.745 364.772,-106.085 372.626,-113.195 375.346,-106.745"/>
</g>
<!-- cubical/example -->
<g id="node49" class="node"><title>cubical/example</title>
<ellipse fill="none" stroke="black" cx="495" cy="-90" rx="68.7879" ry="18"/>
<text text-anchor="middle" x="495" y="-86.3" font-family="Times New Roman,serif" font-size="14.00">cubical/example</text>
</g>
<!-- cubical/path&#45;&gt;cubical/example -->
<g id="edge67" class="edge"><title>cubical/path&#45;&gt;cubical/example</title>
<path fill="none" stroke="black" d="M495,-143.697C495,-135.983 495,-126.712 495,-118.112"/>
<polygon fill="black" stroke="black" points="498.5,-118.104 495,-108.104 491.5,-118.104 498.5,-118.104"/>
</g>
<!-- cubical/square -->
<g id="node50" class="node"><title>cubical/square</title>
<ellipse fill="none" stroke="black" cx="645" cy="-90" rx="63.0888" ry="18"/>
<text text-anchor="middle" x="645" y="-86.3" font-family="Times New Roman,serif" font-size="14.00">cubical/square</text>
</g>
<!-- cubical/path&#45;&gt;cubical/square -->
<g id="edge68" class="edge"><title>cubical/path&#45;&gt;cubical/square</title>
<path fill="none" stroke="black" d="M525.355,-146.834C548.127,-136.207 579.534,-121.551 604.455,-109.921"/>
<polygon fill="black" stroke="black" points="606.076,-113.027 613.658,-105.626 603.116,-106.684 606.076,-113.027"/>
</g>
<!-- cubical/path&#45;&gt;cubical/V -->
<g id="edge69" class="edge"><title>cubical/path&#45;&gt;cubical/V</title>
<path fill="none" stroke="black" d="M537.312,-150.501C546.128,-148.334 555.364,-146.08 564,-144 631.915,-127.644 649.235,-124.969 717,-108 722.715,-106.569 728.707,-105.029 734.636,-103.482"/>
<polygon fill="black" stroke="black" points="735.714,-106.818 744.494,-100.889 733.933,-100.048 735.714,-106.818"/>
</g>
<!-- cubical/V&#45;&gt;HITs/moebius -->
<g id="edge70" class="edge"><title>cubical/V&#45;&gt;HITs/moebius</title>
<path fill="none" stroke="black" d="M781,-71.6966C781,-63.9827 781,-54.7125 781,-46.1124"/>
<polygon fill="black" stroke="black" points="784.5,-46.1043 781,-36.1043 777.5,-46.1044 784.5,-46.1043"/>
</g>
<!-- theorems/functions -->
<g id="node52" class="node"><title>theorems/functions</title>
<ellipse fill="none" stroke="black" cx="1217" cy="-666" rx="79.8859" ry="18"/>
<text text-anchor="middle" x="1217" y="-662.3" font-family="Times New Roman,serif" font-size="14.00">theorems/functions</text>
</g>
<!-- theorems/functions&#45;&gt;types/equiv -->
<g id="edge72" class="edge"><title>theorems/functions&#45;&gt;types/equiv</title>
<path fill="none" stroke="black" d="M1181.2,-649.811C1155.17,-638.769 1119.89,-623.803 1092.78,-612.3"/>
<polygon fill="black" stroke="black" points="1094.13,-609.071 1083.56,-608.387 1091.39,-615.515 1094.13,-609.071"/>
</g>
<!-- theorems/topology -->
<g id="node53" class="node"><title>theorems/topology</title>
<ellipse fill="none" stroke="black" cx="1220" cy="-810" rx="79.0865" ry="18"/>
<text text-anchor="middle" x="1220" y="-806.3" font-family="Times New Roman,serif" font-size="14.00">theorems/topology</text>
</g>
</g>
</svg>
