<?xml version="1.0" encoding="UTF-8" standalone="no"?>
<!DOCTYPE svg PUBLIC "-//W3C//DTD SVG 1.1//EN"
 "http://www.w3.org/Graphics/SVG/1.1/DTD/svg11.dtd">
<!-- Generated by graphviz version 2.38.0 (20140413.2041)
 -->
<!-- Title: dependency_map Pages: 1 -->
<svg width="1284pt" height="764pt"
 viewBox="0.00 0.00 1284.44 764.00" xmlns="http://www.w3.org/2000/svg" xmlns:xlink="http://www.w3.org/1999/xlink">
<g id="graph0" class="graph" transform="scale(1 1) rotate(0) translate(4 760)">
<title>dependency_map</title>
<polygon fill="white" stroke="none" points="-4,4 -4,-760 1280.44,-760 1280.44,4 -4,4"/>
<!-- proto -->
<g id="node1" class="node"><title>proto</title>
<ellipse fill="none" stroke="black" cx="419.545" cy="-738" rx="30.5947" ry="18"/>
<text text-anchor="middle" x="419.545" y="-734.3" font-family="Times New Roman,serif" font-size="14.00">proto</text>
</g>
<!-- types/eq -->
<g id="node2" class="node"><title>types/eq</title>
<ellipse fill="none" stroke="black" cx="479.545" cy="-666" rx="41.6928" ry="18"/>
<text text-anchor="middle" x="479.545" y="-662.3" font-family="Times New Roman,serif" font-size="14.00">types/eq</text>
</g>
<!-- proto&#45;&gt;types/eq -->
<g id="edge1" class="edge"><title>proto&#45;&gt;types/eq</title>
<path fill="none" stroke="black" d="M432.861,-721.465C440.489,-712.566 450.226,-701.205 458.833,-691.164"/>
<polygon fill="black" stroke="black" points="461.58,-693.338 465.43,-683.467 456.265,-688.782 461.58,-693.338"/>
</g>
<!-- support -->
<g id="node4" class="node"><title>support</title>
<ellipse fill="none" stroke="black" cx="541.545" cy="-594" rx="38.9931" ry="18"/>
<text text-anchor="middle" x="541.545" y="-590.3" font-family="Times New Roman,serif" font-size="14.00">support</text>
</g>
<!-- types/eq&#45;&gt;support -->
<g id="edge10" class="edge"><title>types/eq&#45;&gt;support</title>
<path fill="none" stroke="black" d="M493.925,-648.765C501.828,-639.841 511.778,-628.608 520.536,-618.719"/>
<polygon fill="black" stroke="black" points="523.233,-620.954 527.243,-611.147 517.993,-616.313 523.233,-620.954"/>
</g>
<!-- types/dep_path -->
<g id="node17" class="node"><title>types/dep_path</title>
<ellipse fill="none" stroke="black" cx="417.545" cy="-594" rx="66.8882" ry="18"/>
<text text-anchor="middle" x="417.545" y="-590.3" font-family="Times New Roman,serif" font-size="14.00">types/dep_path</text>
</g>
<!-- types/eq&#45;&gt;types/dep_path -->
<g id="edge11" class="edge"><title>types/eq&#45;&gt;types/dep_path</title>
<path fill="none" stroke="black" d="M465.165,-648.765C457.375,-639.969 447.596,-628.928 438.93,-619.144"/>
<polygon fill="black" stroke="black" points="441.528,-616.799 432.277,-611.633 436.288,-621.44 441.528,-616.799"/>
</g>
<!-- meta/hott_theory -->
<g id="node3" class="node"><title>meta/hott_theory</title>
<ellipse fill="none" stroke="black" cx="540.545" cy="-738" rx="72.2875" ry="18"/>
<text text-anchor="middle" x="540.545" y="-734.3" font-family="Times New Roman,serif" font-size="14.00">meta/hott_theory</text>
</g>
<!-- meta/hott_theory&#45;&gt;types/eq -->
<g id="edge2" class="edge"><title>meta/hott_theory&#45;&gt;types/eq</title>
<path fill="none" stroke="black" d="M525.779,-720.055C518.176,-711.33 508.777,-700.544 500.443,-690.981"/>
<polygon fill="black" stroke="black" points="502.964,-688.547 493.755,-683.307 497.686,-693.146 502.964,-688.547"/>
</g>
<!-- types/equiv -->
<g id="node5" class="node"><title>types/equiv</title>
<ellipse fill="none" stroke="black" cx="541.545" cy="-522" rx="51.9908" ry="18"/>
<text text-anchor="middle" x="541.545" y="-518.3" font-family="Times New Roman,serif" font-size="14.00">types/equiv</text>
</g>
<!-- support&#45;&gt;types/equiv -->
<g id="edge3" class="edge"><title>support&#45;&gt;types/equiv</title>
<path fill="none" stroke="black" d="M541.545,-575.697C541.545,-567.983 541.545,-558.712 541.545,-550.112"/>
<polygon fill="black" stroke="black" points="545.045,-550.104 541.545,-540.104 538.045,-550.104 545.045,-550.104"/>
</g>
<!-- HITs/infinitesimal -->
<g id="node11" class="node"><title>HITs/infinitesimal</title>
<ellipse fill="none" stroke="black" stroke-dasharray="5,2" cx="309.545" cy="-450" rx="74.9875" ry="18"/>
<text text-anchor="middle" x="309.545" y="-446.3" font-family="Times New Roman,serif" font-size="14.00">HITs/infinitesimal</text>
</g>
<!-- types/equiv&#45;&gt;HITs/infinitesimal -->
<g id="edge12" class="edge"><title>types/equiv&#45;&gt;HITs/infinitesimal</title>
<path fill="none" stroke="black" d="M503.754,-509.597C465.874,-498.168 407.167,-480.455 364.211,-467.494"/>
<polygon fill="black" stroke="black" points="365.061,-464.095 354.477,-464.557 363.039,-470.796 365.061,-464.095"/>
</g>
<!-- types/coproduct -->
<g id="node15" class="node"><title>types/coproduct</title>
<ellipse fill="none" stroke="black" cx="841.545" cy="-450" rx="70.6878" ry="18"/>
<text text-anchor="middle" x="841.545" y="-446.3" font-family="Times New Roman,serif" font-size="14.00">types/coproduct</text>
</g>
<!-- types/equiv&#45;&gt;types/coproduct -->
<g id="edge13" class="edge"><title>types/equiv&#45;&gt;types/coproduct</title>
<path fill="none" stroke="black" d="M583.575,-511.193C635.099,-499.171 722.78,-478.712 781.425,-465.028"/>
<polygon fill="black" stroke="black" points="782.356,-468.405 791.299,-462.724 780.765,-461.588 782.356,-468.405"/>
</g>
<!-- types/heq -->
<g id="node18" class="node"><title>types/heq</title>
<ellipse fill="none" stroke="black" cx="486.545" cy="-450" rx="46.2923" ry="18"/>
<text text-anchor="middle" x="486.545" y="-446.3" font-family="Times New Roman,serif" font-size="14.00">types/heq</text>
</g>
<!-- types/equiv&#45;&gt;types/heq -->
<g id="edge14" class="edge"><title>types/equiv&#45;&gt;types/heq</title>
<path fill="none" stroke="black" d="M528.511,-504.411C521.73,-495.781 513.308,-485.062 505.793,-475.497"/>
<polygon fill="black" stroke="black" points="508.416,-473.171 499.486,-467.47 502.912,-477.496 508.416,-473.171"/>
</g>
<!-- types/integer -->
<g id="node19" class="node"><title>types/integer</title>
<ellipse fill="none" stroke="black" cx="56.545" cy="-378" rx="56.59" ry="18"/>
<text text-anchor="middle" x="56.545" y="-374.3" font-family="Times New Roman,serif" font-size="14.00">types/integer</text>
</g>
<!-- types/equiv&#45;&gt;types/integer -->
<g id="edge15" class="edge"><title>types/equiv&#45;&gt;types/integer</title>
<path fill="none" stroke="black" d="M507.835,-507.977C485.276,-498.506 455.454,-484.486 431.545,-468 412.393,-454.793 414.544,-442.014 393.545,-432 283.477,-379.511 241.208,-419.473 121.545,-396 116.924,-395.093 112.143,-394.05 107.369,-392.935"/>
<polygon fill="black" stroke="black" points="108.174,-389.529 97.63,-390.569 106.521,-396.331 108.174,-389.529"/>
</g>
<!-- types/lost -->
<g id="node20" class="node"><title>types/lost</title>
<ellipse fill="none" stroke="black" cx="706.545" cy="-450" rx="46.2923" ry="18"/>
<text text-anchor="middle" x="706.545" y="-446.3" font-family="Times New Roman,serif" font-size="14.00">types/lost</text>
</g>
<!-- types/equiv&#45;&gt;types/lost -->
<g id="edge16" class="edge"><title>types/equiv&#45;&gt;types/lost</title>
<path fill="none" stroke="black" d="M573.359,-507.503C600.114,-496.153 638.481,-479.876 667.17,-467.705"/>
<polygon fill="black" stroke="black" points="668.658,-470.875 676.497,-463.748 665.924,-464.431 668.658,-470.875"/>
</g>
<!-- types/unit -->
<g id="node21" class="node"><title>types/unit</title>
<ellipse fill="none" stroke="black" cx="596.545" cy="-450" rx="46.2923" ry="18"/>
<text text-anchor="middle" x="596.545" y="-446.3" font-family="Times New Roman,serif" font-size="14.00">types/unit</text>
</g>
<!-- types/equiv&#45;&gt;types/unit -->
<g id="edge17" class="edge"><title>types/equiv&#45;&gt;types/unit</title>
<path fill="none" stroke="black" d="M554.579,-504.411C561.36,-495.781 569.782,-485.062 577.297,-475.497"/>
<polygon fill="black" stroke="black" points="580.178,-477.496 583.604,-467.47 574.674,-473.171 580.178,-477.496"/>
</g>
<!-- structures -->
<g id="node6" class="node"><title>structures</title>
<ellipse fill="none" stroke="black" cx="787.545" cy="-378" rx="46.2923" ry="18"/>
<text text-anchor="middle" x="787.545" y="-374.3" font-family="Times New Roman,serif" font-size="14.00">structures</text>
</g>
<!-- HITs/interval -->
<g id="node7" class="node"><title>HITs/interval</title>
<ellipse fill="none" stroke="black" cx="754.545" cy="-306" rx="57.6901" ry="18"/>
<text text-anchor="middle" x="754.545" y="-302.3" font-family="Times New Roman,serif" font-size="14.00">HITs/interval</text>
</g>
<!-- structures&#45;&gt;HITs/interval -->
<g id="edge4" class="edge"><title>structures&#45;&gt;HITs/interval</title>
<path fill="none" stroke="black" d="M779.557,-360.055C775.802,-352.091 771.239,-342.411 767.042,-333.51"/>
<polygon fill="black" stroke="black" points="770.119,-331.828 762.689,-324.275 763.787,-334.813 770.119,-331.828"/>
</g>
<!-- HITs/truncation -->
<g id="node8" class="node"><title>HITs/truncation</title>
<ellipse fill="none" stroke="black" cx="588.545" cy="-306" rx="68.4888" ry="18"/>
<text text-anchor="middle" x="588.545" y="-302.3" font-family="Times New Roman,serif" font-size="14.00">HITs/truncation</text>
</g>
<!-- structures&#45;&gt;HITs/truncation -->
<g id="edge5" class="edge"><title>structures&#45;&gt;HITs/truncation</title>
<path fill="none" stroke="black" d="M754.237,-365.284C722.379,-354.077 673.952,-337.043 637.667,-324.279"/>
<polygon fill="black" stroke="black" points="638.373,-320.817 627.778,-320.801 636.05,-327.421 638.373,-320.817"/>
</g>
<!-- algebra -->
<g id="node9" class="node"><title>algebra</title>
<ellipse fill="none" stroke="black" cx="866.545" cy="-306" rx="36.2938" ry="18"/>
<text text-anchor="middle" x="866.545" y="-302.3" font-family="Times New Roman,serif" font-size="14.00">algebra</text>
</g>
<!-- structures&#45;&gt;algebra -->
<g id="edge6" class="edge"><title>structures&#45;&gt;algebra</title>
<path fill="none" stroke="black" d="M805.471,-361.116C816.198,-351.611 829.986,-339.394 841.747,-328.973"/>
<polygon fill="black" stroke="black" points="844.339,-331.353 849.502,-322.101 839.696,-326.114 844.339,-331.353"/>
</g>
<!-- types/product -->
<g id="node27" class="node"><title>types/product</title>
<ellipse fill="none" stroke="black" cx="897.545" cy="-234" rx="61.99" ry="18"/>
<text text-anchor="middle" x="897.545" y="-230.3" font-family="Times New Roman,serif" font-size="14.00">types/product</text>
</g>
<!-- HITs/interval&#45;&gt;types/product -->
<g id="edge33" class="edge"><title>HITs/interval&#45;&gt;types/product</title>
<path fill="none" stroke="black" d="M784.175,-290.496C805.697,-279.961 835.033,-265.6 858.471,-254.127"/>
<polygon fill="black" stroke="black" points="860.018,-257.267 867.461,-249.726 856.941,-250.979 860.018,-257.267"/>
</g>
<!-- theorems/prop -->
<g id="node32" class="node"><title>theorems/prop</title>
<ellipse fill="none" stroke="black" cx="754.545" cy="-234" rx="63.8893" ry="18"/>
<text text-anchor="middle" x="754.545" y="-230.3" font-family="Times New Roman,serif" font-size="14.00">theorems/prop</text>
</g>
<!-- HITs/interval&#45;&gt;theorems/prop -->
<g id="edge34" class="edge"><title>HITs/interval&#45;&gt;theorems/prop</title>
<path fill="none" stroke="black" d="M754.545,-287.697C754.545,-279.983 754.545,-270.712 754.545,-262.112"/>
<polygon fill="black" stroke="black" points="758.045,-262.104 754.545,-252.104 751.045,-262.104 758.045,-262.104"/>
</g>
<!-- HITs/truncation&#45;&gt;theorems/prop -->
<g id="edge39" class="edge"><title>HITs/truncation&#45;&gt;theorems/prop</title>
<path fill="none" stroke="black" d="M623.344,-290.326C648.942,-279.531 683.902,-264.789 711.297,-253.237"/>
<polygon fill="black" stroke="black" points="712.789,-256.406 720.644,-249.296 710.069,-249.956 712.789,-256.406"/>
</g>
<!-- HITs/simplicial -->
<g id="node34" class="node"><title>HITs/simplicial</title>
<ellipse fill="none" stroke="black" cx="376.545" cy="-234" rx="65.7887" ry="18"/>
<text text-anchor="middle" x="376.545" y="-230.3" font-family="Times New Roman,serif" font-size="14.00">HITs/simplicial</text>
</g>
<!-- HITs/truncation&#45;&gt;HITs/simplicial -->
<g id="edge40" class="edge"><title>HITs/truncation&#45;&gt;HITs/simplicial</title>
<path fill="none" stroke="black" d="M547.669,-291.503C513.098,-280.088 463.437,-263.691 426.51,-251.498"/>
<polygon fill="black" stroke="black" points="427.528,-248.148 416.935,-248.336 425.334,-254.795 427.528,-248.148"/>
</g>
<!-- theorems/mere_eq_lemma -->
<g id="node35" class="node"><title>theorems/mere_eq_lemma</title>
<ellipse fill="none" stroke="black" cx="566.545" cy="-234" rx="105.881" ry="18"/>
<text text-anchor="middle" x="566.545" y="-230.3" font-family="Times New Roman,serif" font-size="14.00">theorems/mere_eq_lemma</text>
</g>
<!-- HITs/truncation&#45;&gt;theorems/mere_eq_lemma -->
<g id="edge41" class="edge"><title>HITs/truncation&#45;&gt;theorems/mere_eq_lemma</title>
<path fill="none" stroke="black" d="M583.107,-287.697C580.656,-279.898 577.705,-270.509 574.977,-261.829"/>
<polygon fill="black" stroke="black" points="578.258,-260.595 571.921,-252.104 571.58,-262.694 578.258,-260.595"/>
</g>
<!-- HITs/circle -->
<g id="node10" class="node"><title>HITs/circle</title>
<ellipse fill="none" stroke="black" stroke-dasharray="5,2" cx="282.545" cy="-90" rx="51.9908" ry="18"/>
<text text-anchor="middle" x="282.545" y="-86.3" font-family="Times New Roman,serif" font-size="14.00">HITs/circle</text>
</g>
<!-- HITs/ntrunc -->
<g id="node12" class="node"><title>HITs/ntrunc</title>
<ellipse fill="none" stroke="black" stroke-dasharray="5,2" cx="282.545" cy="-18" rx="55.4913" ry="18"/>
<text text-anchor="middle" x="282.545" y="-14.3" font-family="Times New Roman,serif" font-size="14.00">HITs/ntrunc</text>
</g>
<!-- HITs/circle&#45;&gt;HITs/ntrunc -->
<g id="edge29" class="edge"><title>HITs/circle&#45;&gt;HITs/ntrunc</title>
<path fill="none" stroke="black" d="M282.545,-71.6966C282.545,-63.9827 282.545,-54.7125 282.545,-46.1124"/>
<polygon fill="black" stroke="black" points="286.045,-46.1043 282.545,-36.1043 279.045,-46.1044 286.045,-46.1043"/>
</g>
<!-- theorems/ua -->
<g id="node13" class="node"><title>theorems/ua</title>
<ellipse fill="none" stroke="black" stroke-dasharray="5,2" cx="610.545" cy="-162" rx="54.6905" ry="18"/>
<text text-anchor="middle" x="610.545" y="-158.3" font-family="Times New Roman,serif" font-size="14.00">theorems/ua</text>
</g>
<!-- theorems/ua&#45;&gt;HITs/circle -->
<g id="edge49" class="edge"><title>theorems/ua&#45;&gt;HITs/circle</title>
<path fill="none" stroke="black" d="M565.968,-151.487C506.03,-138.695 399.609,-115.983 335.613,-102.325"/>
<polygon fill="black" stroke="black" points="336.23,-98.8783 325.719,-100.214 334.769,-105.724 336.23,-98.8783"/>
</g>
<!-- cubical/V -->
<g id="node14" class="node"><title>cubical/V</title>
<ellipse fill="none" stroke="black" stroke-dasharray="5,2" cx="610.545" cy="-18" rx="45.4919" ry="18"/>
<text text-anchor="middle" x="610.545" y="-14.3" font-family="Times New Roman,serif" font-size="14.00">cubical/V</text>
</g>
<!-- theorems/ua&#45;&gt;cubical/V -->
<g id="edge50" class="edge"><title>theorems/ua&#45;&gt;cubical/V</title>
<path fill="none" stroke="black" d="M610.545,-143.871C610.545,-119.67 610.545,-75.2108 610.545,-46.3932"/>
<polygon fill="black" stroke="black" points="614.045,-46.1892 610.545,-36.1893 607.045,-46.1893 614.045,-46.1892"/>
</g>
<!-- types/coproduct&#45;&gt;structures -->
<g id="edge7" class="edge"><title>types/coproduct&#45;&gt;structures</title>
<path fill="none" stroke="black" d="M828.473,-432.055C821.973,-423.629 813.989,-413.28 806.805,-403.966"/>
<polygon fill="black" stroke="black" points="809.376,-401.569 800.496,-395.789 803.833,-405.845 809.376,-401.569"/>
</g>
<!-- types/nat -->
<g id="node16" class="node"><title>types/nat</title>
<ellipse fill="none" stroke="black" cx="895.545" cy="-378" rx="43.5923" ry="18"/>
<text text-anchor="middle" x="895.545" y="-374.3" font-family="Times New Roman,serif" font-size="14.00">types/nat</text>
</g>
<!-- types/coproduct&#45;&gt;types/nat -->
<g id="edge8" class="edge"><title>types/coproduct&#45;&gt;types/nat</title>
<path fill="none" stroke="black" d="M854.617,-432.055C861.28,-423.418 869.502,-412.76 876.824,-403.268"/>
<polygon fill="black" stroke="black" points="879.628,-405.363 882.965,-395.307 874.086,-401.087 879.628,-405.363"/>
</g>
<!-- types/dep_path&#45;&gt;types/equiv -->
<g id="edge9" class="edge"><title>types/dep_path&#45;&gt;types/equiv</title>
<path fill="none" stroke="black" d="M445.065,-577.465C463.174,-567.242 487.037,-553.771 506.5,-542.783"/>
<polygon fill="black" stroke="black" points="508.388,-545.737 515.376,-537.773 504.947,-539.641 508.388,-545.737"/>
</g>
<!-- types/heq&#45;&gt;HITs/interval -->
<g id="edge18" class="edge"><title>types/heq&#45;&gt;HITs/interval</title>
<path fill="none" stroke="black" d="M521.788,-438.115C571.139,-422.859 655.031,-396.866 656.545,-396 686.482,-378.869 714.999,-351.236 733.472,-331.302"/>
<polygon fill="black" stroke="black" points="736.142,-333.568 740.278,-323.814 730.962,-328.86 736.142,-333.568"/>
</g>
<!-- HITs/colimit -->
<g id="node22" class="node"><title>HITs/colimit</title>
<ellipse fill="none" stroke="black" cx="428.545" cy="-378" rx="56.59" ry="18"/>
<text text-anchor="middle" x="428.545" y="-374.3" font-family="Times New Roman,serif" font-size="14.00">HITs/colimit</text>
</g>
<!-- types/heq&#45;&gt;HITs/colimit -->
<g id="edge19" class="edge"><title>types/heq&#45;&gt;HITs/colimit</title>
<path fill="none" stroke="black" d="M473.093,-432.765C465.877,-424.056 456.838,-413.147 448.791,-403.435"/>
<polygon fill="black" stroke="black" points="451.402,-401.101 442.327,-395.633 446.012,-405.567 451.402,-401.101"/>
</g>
<!-- HITs/generalized -->
<g id="node23" class="node"><title>HITs/generalized</title>
<ellipse fill="none" stroke="black" cx="575.545" cy="-378" rx="72.2875" ry="18"/>
<text text-anchor="middle" x="575.545" y="-374.3" font-family="Times New Roman,serif" font-size="14.00">HITs/generalized</text>
</g>
<!-- types/heq&#45;&gt;HITs/generalized -->
<g id="edge20" class="edge"><title>types/heq&#45;&gt;HITs/generalized</title>
<path fill="none" stroke="black" d="M506.297,-433.465C518.172,-424.125 533.493,-412.074 546.705,-401.683"/>
<polygon fill="black" stroke="black" points="548.912,-404.4 554.608,-395.467 544.584,-398.898 548.912,-404.4"/>
</g>
<!-- HITs/int -->
<g id="node24" class="node"><title>HITs/int</title>
<ellipse fill="none" stroke="black" cx="313.545" cy="-378" rx="40.8928" ry="18"/>
<text text-anchor="middle" x="313.545" y="-374.3" font-family="Times New Roman,serif" font-size="14.00">HITs/int</text>
</g>
<!-- types/heq&#45;&gt;HITs/int -->
<g id="edge21" class="edge"><title>types/heq&#45;&gt;HITs/int</title>
<path fill="none" stroke="black" d="M455.616,-436.485C426.763,-424.811 383.606,-407.348 352.432,-394.735"/>
<polygon fill="black" stroke="black" points="353.348,-391.33 342.765,-390.823 350.722,-397.819 353.348,-391.33"/>
</g>
<!-- HITs/pushout -->
<g id="node25" class="node"><title>HITs/pushout</title>
<ellipse fill="none" stroke="black" cx="192.545" cy="-378" rx="61.99" ry="18"/>
<text text-anchor="middle" x="192.545" y="-374.3" font-family="Times New Roman,serif" font-size="14.00">HITs/pushout</text>
</g>
<!-- types/heq&#45;&gt;HITs/pushout -->
<g id="edge22" class="edge"><title>types/heq&#45;&gt;HITs/pushout</title>
<path fill="none" stroke="black" d="M450.786,-438.497C442.829,-436.264 434.419,-433.983 426.545,-432 354.602,-413.88 335.845,-412.638 263.545,-396 258.577,-394.857 253.418,-393.653 248.25,-392.436"/>
<polygon fill="black" stroke="black" points="248.886,-388.99 238.349,-390.093 247.274,-395.802 248.886,-388.99"/>
</g>
<!-- types/integer&#45;&gt;HITs/circle -->
<g id="edge23" class="edge"><title>types/integer&#45;&gt;HITs/circle</title>
<path fill="none" stroke="black" d="M42.1068,-360.522C28.0347,-342.348 10.3996,-312.44 22.545,-288 68.1178,-196.293 179.032,-135.851 240.242,-108.261"/>
<polygon fill="black" stroke="black" points="241.89,-111.36 249.622,-104.116 239.06,-104.957 241.89,-111.36"/>
</g>
<!-- HITs/reals -->
<g id="node26" class="node"><title>HITs/reals</title>
<ellipse fill="none" stroke="black" cx="80.545" cy="-306" rx="48.9926" ry="18"/>
<text text-anchor="middle" x="80.545" y="-302.3" font-family="Times New Roman,serif" font-size="14.00">HITs/reals</text>
</g>
<!-- types/integer&#45;&gt;HITs/reals -->
<g id="edge24" class="edge"><title>types/integer&#45;&gt;HITs/reals</title>
<path fill="none" stroke="black" d="M62.3547,-360.055C65.056,-352.176 68.3336,-342.617 71.3585,-333.794"/>
<polygon fill="black" stroke="black" points="74.6895,-334.87 74.622,-324.275 68.0679,-332.6 74.6895,-334.87"/>
</g>
<!-- types/unit&#45;&gt;structures -->
<g id="edge27" class="edge"><title>types/unit&#45;&gt;structures</title>
<path fill="none" stroke="black" d="M628.946,-437.125C661.05,-425.36 710.374,-407.283 745.485,-394.415"/>
<polygon fill="black" stroke="black" points="746.801,-397.66 754.985,-390.933 744.392,-391.088 746.801,-397.66"/>
</g>
<!-- HITs/suspension -->
<g id="node30" class="node"><title>HITs/suspension</title>
<ellipse fill="none" stroke="black" cx="429.545" cy="-306" rx="72.5877" ry="18"/>
<text text-anchor="middle" x="429.545" y="-302.3" font-family="Times New Roman,serif" font-size="14.00">HITs/suspension</text>
</g>
<!-- types/unit&#45;&gt;HITs/suspension -->
<g id="edge28" class="edge"><title>types/unit&#45;&gt;HITs/suspension</title>
<path fill="none" stroke="black" d="M621.06,-434.663C634.232,-425.468 649.232,-412.218 656.545,-396 663.122,-381.414 666.49,-372.534 656.545,-360 653.924,-356.697 558.471,-335.224 492.191,-320.644"/>
<polygon fill="black" stroke="black" points="492.749,-317.183 482.231,-318.457 491.247,-324.02 492.749,-317.183"/>
</g>
<!-- HITs/colimit&#45;&gt;HITs/truncation -->
<g id="edge30" class="edge"><title>HITs/colimit&#45;&gt;HITs/truncation</title>
<path fill="none" stroke="black" d="M460.539,-363.003C484.905,-352.342 518.7,-337.557 545.447,-325.855"/>
<polygon fill="black" stroke="black" points="547.193,-328.912 554.952,-321.697 544.387,-322.499 547.193,-328.912"/>
</g>
<!-- HITs/generalized&#45;&gt;HITs/truncation -->
<g id="edge31" class="edge"><title>HITs/generalized&#45;&gt;HITs/truncation</title>
<path fill="none" stroke="black" d="M578.758,-359.697C580.191,-351.983 581.913,-342.712 583.51,-334.112"/>
<polygon fill="black" stroke="black" points="586.984,-334.575 585.368,-324.104 580.101,-333.297 586.984,-334.575"/>
</g>
<!-- HITs/rat -->
<g id="node31" class="node"><title>HITs/rat</title>
<ellipse fill="none" stroke="black" cx="297.545" cy="-306" rx="41.6928" ry="18"/>
<text text-anchor="middle" x="297.545" y="-302.3" font-family="Times New Roman,serif" font-size="14.00">HITs/rat</text>
</g>
<!-- HITs/int&#45;&gt;HITs/rat -->
<g id="edge32" class="edge"><title>HITs/int&#45;&gt;HITs/rat</title>
<path fill="none" stroke="black" d="M309.672,-360.055C307.89,-352.261 305.733,-342.822 303.734,-334.079"/>
<polygon fill="black" stroke="black" points="307.134,-333.244 301.494,-324.275 300.31,-334.804 307.134,-333.244"/>
</g>
<!-- HITs/pushout&#45;&gt;HITs/reals -->
<g id="edge35" class="edge"><title>HITs/pushout&#45;&gt;HITs/reals</title>
<path fill="none" stroke="black" d="M167.689,-361.465C151.554,-351.381 130.362,-338.136 112.917,-327.232"/>
<polygon fill="black" stroke="black" points="114.517,-324.105 104.182,-321.773 110.807,-330.041 114.517,-324.105"/>
</g>
<!-- HITs/pushout&#45;&gt;HITs/suspension -->
<g id="edge37" class="edge"><title>HITs/pushout&#45;&gt;HITs/suspension</title>
<path fill="none" stroke="black" d="M234.37,-364.647C273.451,-353.104 332.031,-335.802 374.815,-323.165"/>
<polygon fill="black" stroke="black" points="375.91,-326.491 384.509,-320.302 373.927,-319.778 375.91,-326.491"/>
</g>
<!-- HITs/join -->
<g id="node33" class="node"><title>HITs/join</title>
<ellipse fill="none" stroke="black" cx="192.545" cy="-306" rx="45.4919" ry="18"/>
<text text-anchor="middle" x="192.545" y="-302.3" font-family="Times New Roman,serif" font-size="14.00">HITs/join</text>
</g>
<!-- HITs/pushout&#45;&gt;HITs/join -->
<g id="edge36" class="edge"><title>HITs/pushout&#45;&gt;HITs/join</title>
<path fill="none" stroke="black" d="M192.545,-359.697C192.545,-351.983 192.545,-342.712 192.545,-334.112"/>
<polygon fill="black" stroke="black" points="196.045,-334.104 192.545,-324.104 189.045,-334.104 196.045,-334.104"/>
</g>
<!-- types/product&#45;&gt;theorems/ua -->
<g id="edge25" class="edge"><title>types/product&#45;&gt;theorems/ua</title>
<path fill="none" stroke="black" d="M851.752,-221.831C800.352,-209.294 717.102,-188.99 663.093,-175.817"/>
<polygon fill="black" stroke="black" points="663.908,-172.413 653.363,-173.444 662.249,-179.213 663.908,-172.413"/>
</g>
<!-- cubical/cubes -->
<g id="node28" class="node"><title>cubical/cubes</title>
<ellipse fill="none" stroke="black" cx="897.545" cy="-162" rx="60.3893" ry="18"/>
<text text-anchor="middle" x="897.545" y="-158.3" font-family="Times New Roman,serif" font-size="14.00">cubical/cubes</text>
</g>
<!-- types/product&#45;&gt;cubical/cubes -->
<g id="edge26" class="edge"><title>types/product&#45;&gt;cubical/cubes</title>
<path fill="none" stroke="black" d="M897.545,-215.697C897.545,-207.983 897.545,-198.712 897.545,-190.112"/>
<polygon fill="black" stroke="black" points="901.045,-190.104 897.545,-180.104 894.045,-190.104 901.045,-190.104"/>
</g>
<!-- cubical/path -->
<g id="node36" class="node"><title>cubical/path</title>
<ellipse fill="none" stroke="black" cx="897.545" cy="-90" rx="54.6905" ry="18"/>
<text text-anchor="middle" x="897.545" y="-86.3" font-family="Times New Roman,serif" font-size="14.00">cubical/path</text>
</g>
<!-- cubical/cubes&#45;&gt;cubical/path -->
<g id="edge44" class="edge"><title>cubical/cubes&#45;&gt;cubical/path</title>
<path fill="none" stroke="black" d="M897.545,-143.697C897.545,-135.983 897.545,-126.712 897.545,-118.112"/>
<polygon fill="black" stroke="black" points="901.045,-118.104 897.545,-108.104 894.045,-118.104 901.045,-118.104"/>
</g>
<!-- types/sigma -->
<g id="node29" class="node"><title>types/sigma</title>
<ellipse fill="none" stroke="black" cx="684.545" cy="-738" rx="53.8905" ry="18"/>
<text text-anchor="middle" x="684.545" y="-734.3" font-family="Times New Roman,serif" font-size="14.00">types/sigma</text>
</g>
<!-- HITs/suspension&#45;&gt;HITs/circle -->
<g id="edge38" class="edge"><title>HITs/suspension&#45;&gt;HITs/circle</title>
<path fill="none" stroke="black" d="M372.007,-294.842C346.482,-287.327 318.455,-274.343 301.545,-252 272.119,-213.118 273.819,-153.125 277.993,-118.403"/>
<polygon fill="black" stroke="black" points="281.518,-118.458 279.399,-108.077 274.582,-117.513 281.518,-118.458"/>
</g>
<!-- cubical/path&#45;&gt;cubical/V -->
<g id="edge47" class="edge"><title>cubical/path&#45;&gt;cubical/V</title>
<path fill="none" stroke="black" d="M852.389,-79.7356C805.455,-69.8613 729.989,-53.2944 665.545,-36 661.955,-35.0367 658.248,-33.9945 654.533,-32.9167"/>
<polygon fill="black" stroke="black" points="655.339,-29.505 644.756,-30.0102 653.344,-36.2148 655.339,-29.505"/>
</g>
<!-- HITs/moebius -->
<g id="node37" class="node"><title>HITs/moebius</title>
<ellipse fill="none" stroke="black" cx="737.545" cy="-18" rx="63.0888" ry="18"/>
<text text-anchor="middle" x="737.545" y="-14.3" font-family="Times New Roman,serif" font-size="14.00">HITs/moebius</text>
</g>
<!-- cubical/path&#45;&gt;HITs/moebius -->
<g id="edge42" class="edge"><title>cubical/path&#45;&gt;HITs/moebius</title>
<path fill="none" stroke="black" d="M865.934,-75.1703C841.25,-64.3708 806.72,-49.264 779.686,-37.4368"/>
<polygon fill="black" stroke="black" points="781.03,-34.2043 770.465,-33.4026 778.224,-40.6174 781.03,-34.2043"/>
</g>
<!-- cubical/connection -->
<g id="node38" class="node"><title>cubical/connection</title>
<ellipse fill="none" stroke="black" cx="897.545" cy="-18" rx="79.0865" ry="18"/>
<text text-anchor="middle" x="897.545" y="-14.3" font-family="Times New Roman,serif" font-size="14.00">cubical/connection</text>
</g>
<!-- cubical/path&#45;&gt;cubical/connection -->
<g id="edge43" class="edge"><title>cubical/path&#45;&gt;cubical/connection</title>
<path fill="none" stroke="black" d="M897.545,-71.6966C897.545,-63.9827 897.545,-54.7125 897.545,-46.1124"/>
<polygon fill="black" stroke="black" points="901.045,-46.1043 897.545,-36.1043 894.045,-46.1044 901.045,-46.1043"/>
</g>
<!-- cubical/square -->
<g id="node39" class="node"><title>cubical/square</title>
<ellipse fill="none" stroke="black" cx="1057.54" cy="-18" rx="63.0888" ry="18"/>
<text text-anchor="middle" x="1057.54" y="-14.3" font-family="Times New Roman,serif" font-size="14.00">cubical/square</text>
</g>
<!-- cubical/path&#45;&gt;cubical/square -->
<g id="edge45" class="edge"><title>cubical/path&#45;&gt;cubical/square</title>
<path fill="none" stroke="black" d="M929.156,-75.1703C953.84,-64.3708 988.37,-49.264 1015.4,-37.4368"/>
<polygon fill="black" stroke="black" points="1016.87,-40.6174 1024.62,-33.4026 1014.06,-34.2043 1016.87,-40.6174"/>
</g>
<!-- cubical/example -->
<g id="node40" class="node"><title>cubical/example</title>
<ellipse fill="none" stroke="black" cx="1207.54" cy="-18" rx="68.7879" ry="18"/>
<text text-anchor="middle" x="1207.54" y="-14.3" font-family="Times New Roman,serif" font-size="14.00">cubical/example</text>
</g>
<!-- cubical/path&#45;&gt;cubical/example -->
<g id="edge46" class="edge"><title>cubical/path&#45;&gt;cubical/example</title>
<path fill="none" stroke="black" d="M941.303,-79.1192C995.214,-66.9457 1087.07,-46.2035 1147.54,-32.5499"/>
<polygon fill="black" stroke="black" points="1148.35,-35.9549 1157.33,-30.3382 1146.81,-29.1268 1148.35,-35.9549"/>
</g>
<!-- theorems/functions -->
<g id="node41" class="node"><title>theorems/functions</title>
<ellipse fill="none" stroke="black" cx="678.545" cy="-594" rx="79.8859" ry="18"/>
<text text-anchor="middle" x="678.545" y="-590.3" font-family="Times New Roman,serif" font-size="14.00">theorems/functions</text>
</g>
<!-- theorems/functions&#45;&gt;types/equiv -->
<g id="edge48" class="edge"><title>theorems/functions&#45;&gt;types/equiv</title>
<path fill="none" stroke="black" d="M647.8,-577.291C627.229,-566.78 600.052,-552.894 578.333,-541.797"/>
<polygon fill="black" stroke="black" points="579.892,-538.663 569.394,-537.229 576.707,-544.896 579.892,-538.663"/>
</g>
<!-- theorems/topology -->
<g id="node42" class="node"><title>theorems/topology</title>
<ellipse fill="none" stroke="black" cx="835.545" cy="-738" rx="79.0865" ry="18"/>
<text text-anchor="middle" x="835.545" y="-734.3" font-family="Times New Roman,serif" font-size="14.00">theorems/topology</text>
</g>
</g>
</svg>
