<?xml version="1.0" encoding="UTF-8" standalone="no"?>
<!DOCTYPE svg PUBLIC "-//W3C//DTD SVG 1.1//EN"
 "http://www.w3.org/Graphics/SVG/1.1/DTD/svg11.dtd">
<!-- Generated by graphviz version 2.38.0 (20140413.2041)
 -->
<!-- Title: dependency_map Pages: 1 -->
<svg width="956pt" height="836pt"
 viewBox="0.00 0.00 956.04 836.00" xmlns="http://www.w3.org/2000/svg" xmlns:xlink="http://www.w3.org/1999/xlink">
<g id="graph0" class="graph" transform="scale(1 1) rotate(0) translate(4 832)">
<title>dependency_map</title>
<polygon fill="white" stroke="none" points="-4,4 -4,-832 952.041,-832 952.041,4 -4,4"/>
<!-- proto -->
<g id="node1" class="node"><title>proto</title>
<ellipse fill="none" stroke="black" cx="248.445" cy="-810" rx="30.5947" ry="18"/>
<text text-anchor="middle" x="248.445" y="-806.3" font-family="Times New Roman,serif" font-size="14.00">proto</text>
</g>
<!-- types/eq -->
<g id="node2" class="node"><title>types/eq</title>
<ellipse fill="none" stroke="black" cx="308.445" cy="-738" rx="41.6928" ry="18"/>
<text text-anchor="middle" x="308.445" y="-734.3" font-family="Times New Roman,serif" font-size="14.00">types/eq</text>
</g>
<!-- proto&#45;&gt;types/eq -->
<g id="edge1" class="edge"><title>proto&#45;&gt;types/eq</title>
<path fill="none" stroke="black" d="M261.761,-793.465C269.388,-784.566 279.126,-773.205 287.732,-763.164"/>
<polygon fill="black" stroke="black" points="290.479,-765.338 294.33,-755.467 285.165,-760.782 290.479,-765.338"/>
</g>
<!-- support -->
<g id="node4" class="node"><title>support</title>
<ellipse fill="none" stroke="black" cx="246.445" cy="-666" rx="38.9931" ry="18"/>
<text text-anchor="middle" x="246.445" y="-662.3" font-family="Times New Roman,serif" font-size="14.00">support</text>
</g>
<!-- types/eq&#45;&gt;support -->
<g id="edge9" class="edge"><title>types/eq&#45;&gt;support</title>
<path fill="none" stroke="black" d="M294.065,-720.765C286.161,-711.841 276.212,-700.608 267.453,-690.719"/>
<polygon fill="black" stroke="black" points="269.997,-688.313 260.747,-683.147 264.757,-692.954 269.997,-688.313"/>
</g>
<!-- types/dep_path -->
<g id="node17" class="node"><title>types/dep_path</title>
<ellipse fill="none" stroke="black" cx="370.445" cy="-666" rx="66.8882" ry="18"/>
<text text-anchor="middle" x="370.445" y="-662.3" font-family="Times New Roman,serif" font-size="14.00">types/dep_path</text>
</g>
<!-- types/eq&#45;&gt;types/dep_path -->
<g id="edge10" class="edge"><title>types/eq&#45;&gt;types/dep_path</title>
<path fill="none" stroke="black" d="M322.825,-720.765C330.615,-711.969 340.394,-700.928 349.06,-691.144"/>
<polygon fill="black" stroke="black" points="351.702,-693.44 355.712,-683.633 346.462,-688.799 351.702,-693.44"/>
</g>
<!-- meta/hott_theory -->
<g id="node3" class="node"><title>meta/hott_theory</title>
<ellipse fill="none" stroke="black" cx="369.445" cy="-810" rx="72.2875" ry="18"/>
<text text-anchor="middle" x="369.445" y="-806.3" font-family="Times New Roman,serif" font-size="14.00">meta/hott_theory</text>
</g>
<!-- meta/hott_theory&#45;&gt;types/eq -->
<g id="edge2" class="edge"><title>meta/hott_theory&#45;&gt;types/eq</title>
<path fill="none" stroke="black" d="M354.678,-792.055C347.075,-783.33 337.676,-772.544 329.342,-762.981"/>
<polygon fill="black" stroke="black" points="331.864,-760.547 322.655,-755.307 326.586,-765.146 331.864,-760.547"/>
</g>
<!-- types/equiv -->
<g id="node5" class="node"><title>types/equiv</title>
<ellipse fill="none" stroke="black" cx="370.445" cy="-594" rx="51.9908" ry="18"/>
<text text-anchor="middle" x="370.445" y="-590.3" font-family="Times New Roman,serif" font-size="14.00">types/equiv</text>
</g>
<!-- support&#45;&gt;types/equiv -->
<g id="edge3" class="edge"><title>support&#45;&gt;types/equiv</title>
<path fill="none" stroke="black" d="M270.06,-651.669C288.546,-641.233 314.537,-626.561 335.44,-614.761"/>
<polygon fill="black" stroke="black" points="337.357,-617.698 344.345,-609.734 333.916,-611.602 337.357,-617.698"/>
</g>
<!-- HITs/infinitesimal -->
<g id="node11" class="node"><title>HITs/infinitesimal</title>
<ellipse fill="none" stroke="black" stroke-dasharray="5,2" cx="126.445" cy="-522" rx="74.9875" ry="18"/>
<text text-anchor="middle" x="126.445" y="-518.3" font-family="Times New Roman,serif" font-size="14.00">HITs/infinitesimal</text>
</g>
<!-- types/equiv&#45;&gt;HITs/infinitesimal -->
<g id="edge11" class="edge"><title>types/equiv&#45;&gt;HITs/infinitesimal</title>
<path fill="none" stroke="black" d="M331.782,-581.908C291.596,-570.379 228.3,-552.221 182.602,-539.111"/>
<polygon fill="black" stroke="black" points="183.42,-535.704 172.843,-536.311 181.49,-542.433 183.42,-535.704"/>
</g>
<!-- types/coproduct -->
<g id="node15" class="node"><title>types/coproduct</title>
<ellipse fill="none" stroke="black" cx="438.445" cy="-522" rx="70.6878" ry="18"/>
<text text-anchor="middle" x="438.445" y="-518.3" font-family="Times New Roman,serif" font-size="14.00">types/coproduct</text>
</g>
<!-- types/equiv&#45;&gt;types/coproduct -->
<g id="edge12" class="edge"><title>types/equiv&#45;&gt;types/coproduct</title>
<path fill="none" stroke="black" d="M386.216,-576.765C394.845,-567.882 405.698,-556.709 415.272,-546.854"/>
<polygon fill="black" stroke="black" points="417.829,-549.245 422.286,-539.633 412.808,-544.367 417.829,-549.245"/>
</g>
<!-- types/heq -->
<g id="node18" class="node"><title>types/heq</title>
<ellipse fill="none" stroke="black" cx="573.445" cy="-522" rx="46.2923" ry="18"/>
<text text-anchor="middle" x="573.445" y="-518.3" font-family="Times New Roman,serif" font-size="14.00">types/heq</text>
</g>
<!-- types/equiv&#45;&gt;types/heq -->
<g id="edge13" class="edge"><title>types/equiv&#45;&gt;types/heq</title>
<path fill="none" stroke="black" d="M406.27,-580.647C440.959,-568.685 493.584,-550.538 530.501,-537.808"/>
<polygon fill="black" stroke="black" points="531.685,-541.102 539.998,-534.533 529.403,-534.485 531.685,-541.102"/>
</g>
<!-- types/integers -->
<g id="node19" class="node"><title>types/integers</title>
<ellipse fill="none" stroke="black" cx="60.4446" cy="-450" rx="60.3893" ry="18"/>
<text text-anchor="middle" x="60.4446" y="-446.3" font-family="Times New Roman,serif" font-size="14.00">types/integers</text>
</g>
<!-- types/equiv&#45;&gt;types/integers -->
<g id="edge14" class="edge"><title>types/equiv&#45;&gt;types/integers</title>
<path fill="none" stroke="black" d="M334.068,-581C308.888,-571.805 275.222,-557.701 248.445,-540 229.037,-527.171 230.29,-516.14 210.445,-504 181.339,-486.195 145.394,-473.232 115.989,-464.584"/>
<polygon fill="black" stroke="black" points="116.863,-461.194 106.286,-461.816 114.942,-467.926 116.863,-461.194"/>
</g>
<!-- types/lost -->
<g id="node20" class="node"><title>types/lost</title>
<ellipse fill="none" stroke="black" cx="683.445" cy="-522" rx="46.2923" ry="18"/>
<text text-anchor="middle" x="683.445" y="-518.3" font-family="Times New Roman,serif" font-size="14.00">types/lost</text>
</g>
<!-- types/equiv&#45;&gt;types/lost -->
<g id="edge15" class="edge"><title>types/equiv&#45;&gt;types/lost</title>
<path fill="none" stroke="black" d="M415.957,-585.035C467.744,-575.652 554.699,-558.924 628.445,-540 632.045,-539.076 635.759,-538.062 639.479,-537.003"/>
<polygon fill="black" stroke="black" points="640.657,-540.305 649.264,-534.128 638.683,-533.589 640.657,-540.305"/>
</g>
<!-- types/unit -->
<g id="node21" class="node"><title>types/unit</title>
<ellipse fill="none" stroke="black" cx="303.445" cy="-522" rx="46.2923" ry="18"/>
<text text-anchor="middle" x="303.445" y="-518.3" font-family="Times New Roman,serif" font-size="14.00">types/unit</text>
</g>
<!-- types/equiv&#45;&gt;types/unit -->
<g id="edge16" class="edge"><title>types/equiv&#45;&gt;types/unit</title>
<path fill="none" stroke="black" d="M354.905,-576.765C346.28,-567.753 335.399,-556.385 325.867,-546.426"/>
<polygon fill="black" stroke="black" points="328.343,-543.951 318.9,-539.147 323.286,-548.792 328.343,-543.951"/>
</g>
<!-- structures -->
<g id="node6" class="node"><title>structures</title>
<ellipse fill="none" stroke="black" cx="469.445" cy="-450" rx="46.2923" ry="18"/>
<text text-anchor="middle" x="469.445" y="-446.3" font-family="Times New Roman,serif" font-size="14.00">structures</text>
</g>
<!-- HITs/interval -->
<g id="node7" class="node"><title>HITs/interval</title>
<ellipse fill="none" stroke="black" cx="477.445" cy="-378" rx="57.6901" ry="18"/>
<text text-anchor="middle" x="477.445" y="-374.3" font-family="Times New Roman,serif" font-size="14.00">HITs/interval</text>
</g>
<!-- structures&#45;&gt;HITs/interval -->
<g id="edge4" class="edge"><title>structures&#45;&gt;HITs/interval</title>
<path fill="none" stroke="black" d="M471.422,-431.697C472.304,-423.983 473.363,-414.712 474.346,-406.112"/>
<polygon fill="black" stroke="black" points="477.832,-406.437 475.49,-396.104 470.877,-405.642 477.832,-406.437"/>
</g>
<!-- HITs/truncation -->
<g id="node8" class="node"><title>HITs/truncation</title>
<ellipse fill="none" stroke="black" cx="628.445" cy="-378" rx="68.4888" ry="18"/>
<text text-anchor="middle" x="628.445" y="-374.3" font-family="Times New Roman,serif" font-size="14.00">HITs/truncation</text>
</g>
<!-- structures&#45;&gt;HITs/truncation -->
<g id="edge5" class="edge"><title>structures&#45;&gt;HITs/truncation</title>
<path fill="none" stroke="black" d="M498.979,-435.998C523.32,-425.281 558.172,-409.938 585.585,-397.869"/>
<polygon fill="black" stroke="black" points="587.199,-400.983 594.941,-393.75 584.379,-394.576 587.199,-400.983"/>
</g>
<!-- types/product -->
<g id="node27" class="node"><title>types/product</title>
<ellipse fill="none" stroke="black" cx="338.445" cy="-306" rx="61.99" ry="18"/>
<text text-anchor="middle" x="338.445" y="-302.3" font-family="Times New Roman,serif" font-size="14.00">types/product</text>
</g>
<!-- HITs/interval&#45;&gt;types/product -->
<g id="edge32" class="edge"><title>HITs/interval&#45;&gt;types/product</title>
<path fill="none" stroke="black" d="M448.306,-362.326C427.595,-351.896 399.567,-337.781 377.005,-326.419"/>
<polygon fill="black" stroke="black" points="378.53,-323.268 368.024,-321.896 375.381,-329.52 378.53,-323.268"/>
</g>
<!-- theorems/prop -->
<g id="node32" class="node"><title>theorems/prop</title>
<ellipse fill="none" stroke="black" cx="481.445" cy="-306" rx="63.8893" ry="18"/>
<text text-anchor="middle" x="481.445" y="-302.3" font-family="Times New Roman,serif" font-size="14.00">theorems/prop</text>
</g>
<!-- HITs/interval&#45;&gt;theorems/prop -->
<g id="edge33" class="edge"><title>HITs/interval&#45;&gt;theorems/prop</title>
<path fill="none" stroke="black" d="M478.433,-359.697C478.874,-351.983 479.404,-342.712 479.895,-334.112"/>
<polygon fill="black" stroke="black" points="483.391,-334.288 480.467,-324.104 476.402,-333.888 483.391,-334.288"/>
</g>
<!-- HITs/truncation&#45;&gt;theorems/prop -->
<g id="edge39" class="edge"><title>HITs/truncation&#45;&gt;theorems/prop</title>
<path fill="none" stroke="black" d="M596.909,-361.983C574.865,-351.486 545.245,-337.381 521.526,-326.086"/>
<polygon fill="black" stroke="black" points="522.957,-322.891 512.423,-321.752 519.947,-329.211 522.957,-322.891"/>
</g>
<!-- HITs/simplicial -->
<g id="node34" class="node"><title>HITs/simplicial</title>
<ellipse fill="none" stroke="black" cx="628.445" cy="-306" rx="65.7887" ry="18"/>
<text text-anchor="middle" x="628.445" y="-302.3" font-family="Times New Roman,serif" font-size="14.00">HITs/simplicial</text>
</g>
<!-- HITs/truncation&#45;&gt;HITs/simplicial -->
<g id="edge40" class="edge"><title>HITs/truncation&#45;&gt;HITs/simplicial</title>
<path fill="none" stroke="black" d="M628.445,-359.697C628.445,-351.983 628.445,-342.712 628.445,-334.112"/>
<polygon fill="black" stroke="black" points="631.945,-334.104 628.445,-324.104 624.945,-334.104 631.945,-334.104"/>
</g>
<!-- theorems/mere_eq_lemma -->
<g id="node35" class="node"><title>theorems/mere_eq_lemma</title>
<ellipse fill="none" stroke="black" cx="818.445" cy="-306" rx="105.881" ry="18"/>
<text text-anchor="middle" x="818.445" y="-302.3" font-family="Times New Roman,serif" font-size="14.00">theorems/mere_eq_lemma</text>
</g>
<!-- HITs/truncation&#45;&gt;theorems/mere_eq_lemma -->
<g id="edge41" class="edge"><title>HITs/truncation&#45;&gt;theorems/mere_eq_lemma</title>
<path fill="none" stroke="black" d="M666.437,-363.003C695.193,-352.409 735.007,-337.74 766.674,-326.073"/>
<polygon fill="black" stroke="black" points="768.046,-329.298 776.219,-322.557 765.626,-322.73 768.046,-329.298"/>
</g>
<!-- algebra -->
<g id="node9" class="node"><title>algebra</title>
<ellipse fill="none" stroke="black" stroke-dasharray="5,2" cx="83.4446" cy="-18" rx="36.2938" ry="18"/>
<text text-anchor="middle" x="83.4446" y="-14.3" font-family="Times New Roman,serif" font-size="14.00">algebra</text>
</g>
<!-- HITs/circle -->
<g id="node10" class="node"><title>HITs/circle</title>
<ellipse fill="none" stroke="black" stroke-dasharray="5,2" cx="92.4446" cy="-162" rx="51.9908" ry="18"/>
<text text-anchor="middle" x="92.4446" y="-158.3" font-family="Times New Roman,serif" font-size="14.00">HITs/circle</text>
</g>
<!-- HITs/ntrunc -->
<g id="node12" class="node"><title>HITs/ntrunc</title>
<ellipse fill="none" stroke="black" stroke-dasharray="5,2" cx="83.4446" cy="-90" rx="55.4913" ry="18"/>
<text text-anchor="middle" x="83.4446" y="-86.3" font-family="Times New Roman,serif" font-size="14.00">HITs/ntrunc</text>
</g>
<!-- HITs/circle&#45;&gt;HITs/ntrunc -->
<g id="edge28" class="edge"><title>HITs/circle&#45;&gt;HITs/ntrunc</title>
<path fill="none" stroke="black" d="M90.2199,-143.697C89.2281,-135.983 88.0362,-126.712 86.9305,-118.112"/>
<polygon fill="black" stroke="black" points="90.3905,-117.576 85.6438,-108.104 83.4476,-118.469 90.3905,-117.576"/>
</g>
<!-- HITs/ntrunc&#45;&gt;algebra -->
<g id="edge34" class="edge"><title>HITs/ntrunc&#45;&gt;algebra</title>
<path fill="none" stroke="black" d="M83.4446,-71.6966C83.4446,-63.9827 83.4446,-54.7125 83.4446,-46.1124"/>
<polygon fill="black" stroke="black" points="86.9447,-46.1043 83.4446,-36.1043 79.9447,-46.1044 86.9447,-46.1043"/>
</g>
<!-- theorems/ua -->
<g id="node13" class="node"><title>theorems/ua</title>
<ellipse fill="none" stroke="black" stroke-dasharray="5,2" cx="202.445" cy="-234" rx="54.6905" ry="18"/>
<text text-anchor="middle" x="202.445" y="-230.3" font-family="Times New Roman,serif" font-size="14.00">theorems/ua</text>
</g>
<!-- theorems/ua&#45;&gt;HITs/circle -->
<g id="edge49" class="edge"><title>theorems/ua&#45;&gt;HITs/circle</title>
<path fill="none" stroke="black" d="M178.576,-217.811C162.864,-207.813 142.098,-194.598 124.893,-183.649"/>
<polygon fill="black" stroke="black" points="126.582,-180.575 116.266,-178.159 122.824,-186.481 126.582,-180.575"/>
</g>
<!-- cubical/V -->
<g id="node14" class="node"><title>cubical/V</title>
<ellipse fill="none" stroke="black" stroke-dasharray="5,2" cx="202.445" cy="-90" rx="45.4919" ry="18"/>
<text text-anchor="middle" x="202.445" y="-86.3" font-family="Times New Roman,serif" font-size="14.00">cubical/V</text>
</g>
<!-- theorems/ua&#45;&gt;cubical/V -->
<g id="edge50" class="edge"><title>theorems/ua&#45;&gt;cubical/V</title>
<path fill="none" stroke="black" d="M202.445,-215.871C202.445,-191.67 202.445,-147.211 202.445,-118.393"/>
<polygon fill="black" stroke="black" points="205.945,-118.189 202.445,-108.189 198.945,-118.189 205.945,-118.189"/>
</g>
<!-- types/coproduct&#45;&gt;structures -->
<g id="edge6" class="edge"><title>types/coproduct&#45;&gt;structures</title>
<path fill="none" stroke="black" d="M445.949,-504.055C449.528,-495.973 453.891,-486.121 457.881,-477.112"/>
<polygon fill="black" stroke="black" points="461.16,-478.35 462.01,-467.789 454.76,-475.515 461.16,-478.35"/>
</g>
<!-- types/nat -->
<g id="node16" class="node"><title>types/nat</title>
<ellipse fill="none" stroke="black" cx="220.445" cy="-450" rx="43.5923" ry="18"/>
<text text-anchor="middle" x="220.445" y="-446.3" font-family="Times New Roman,serif" font-size="14.00">types/nat</text>
</g>
<!-- types/coproduct&#45;&gt;types/nat -->
<g id="edge7" class="edge"><title>types/coproduct&#45;&gt;types/nat</title>
<path fill="none" stroke="black" d="M395.772,-507.465C362.227,-496.804 314.33,-481.533 272.445,-468 269.372,-467.007 266.198,-465.978 263.004,-464.94"/>
<polygon fill="black" stroke="black" points="264.036,-461.595 253.444,-461.826 261.868,-468.251 264.036,-461.595"/>
</g>
<!-- types/dep_path&#45;&gt;types/equiv -->
<g id="edge8" class="edge"><title>types/dep_path&#45;&gt;types/equiv</title>
<path fill="none" stroke="black" d="M370.445,-647.697C370.445,-639.983 370.445,-630.712 370.445,-622.112"/>
<polygon fill="black" stroke="black" points="373.945,-622.104 370.445,-612.104 366.945,-622.104 373.945,-622.104"/>
</g>
<!-- types/heq&#45;&gt;HITs/interval -->
<g id="edge17" class="edge"><title>types/heq&#45;&gt;HITs/interval</title>
<path fill="none" stroke="black" d="M565.469,-503.937C556.539,-485.515 541.119,-455.637 524.445,-432 517.317,-421.896 508.538,-411.553 500.504,-402.717"/>
<polygon fill="black" stroke="black" points="503.065,-400.332 493.696,-395.385 497.935,-405.095 503.065,-400.332"/>
</g>
<!-- HITs/colimit -->
<g id="node22" class="node"><title>HITs/colimit</title>
<ellipse fill="none" stroke="black" cx="628.445" cy="-450" rx="56.59" ry="18"/>
<text text-anchor="middle" x="628.445" y="-446.3" font-family="Times New Roman,serif" font-size="14.00">HITs/colimit</text>
</g>
<!-- types/heq&#45;&gt;HITs/colimit -->
<g id="edge18" class="edge"><title>types/heq&#45;&gt;HITs/colimit</title>
<path fill="none" stroke="black" d="M586.479,-504.411C593.162,-495.906 601.438,-485.372 608.87,-475.914"/>
<polygon fill="black" stroke="black" points="611.696,-477.982 615.122,-467.956 606.192,-473.657 611.696,-477.982"/>
</g>
<!-- HITs/generalized -->
<g id="node23" class="node"><title>HITs/generalized</title>
<ellipse fill="none" stroke="black" cx="775.445" cy="-450" rx="72.2875" ry="18"/>
<text text-anchor="middle" x="775.445" y="-446.3" font-family="Times New Roman,serif" font-size="14.00">HITs/generalized</text>
</g>
<!-- types/heq&#45;&gt;HITs/generalized -->
<g id="edge19" class="edge"><title>types/heq&#45;&gt;HITs/generalized</title>
<path fill="none" stroke="black" d="M606.801,-509.441C639.101,-498.248 688.482,-481.135 725.476,-468.316"/>
<polygon fill="black" stroke="black" points="726.772,-471.571 735.075,-464.989 724.48,-464.957 726.772,-471.571"/>
</g>
<!-- HITs/int -->
<g id="node24" class="node"><title>HITs/int</title>
<ellipse fill="none" stroke="black" cx="906.445" cy="-450" rx="40.8928" ry="18"/>
<text text-anchor="middle" x="906.445" y="-446.3" font-family="Times New Roman,serif" font-size="14.00">HITs/int</text>
</g>
<!-- types/heq&#45;&gt;HITs/int -->
<g id="edge20" class="edge"><title>types/heq&#45;&gt;HITs/int</title>
<path fill="none" stroke="black" d="M607.271,-509.712C614.224,-507.628 621.533,-505.605 628.445,-504 728.374,-480.793 756.849,-492.602 856.445,-468 859.795,-467.172 863.241,-466.221 866.682,-465.199"/>
<polygon fill="black" stroke="black" points="867.794,-468.519 876.284,-462.181 865.695,-461.841 867.794,-468.519"/>
</g>
<!-- HITs/pushout -->
<g id="node25" class="node"><title>HITs/pushout</title>
<ellipse fill="none" stroke="black" cx="343.445" cy="-450" rx="61.99" ry="18"/>
<text text-anchor="middle" x="343.445" y="-446.3" font-family="Times New Roman,serif" font-size="14.00">HITs/pushout</text>
</g>
<!-- types/heq&#45;&gt;HITs/pushout -->
<g id="edge21" class="edge"><title>types/heq&#45;&gt;HITs/pushout</title>
<path fill="none" stroke="black" d="M538.539,-510.178C531.87,-508.12 524.943,-505.988 518.445,-504 476.864,-491.278 429.678,-476.996 394.789,-466.466"/>
<polygon fill="black" stroke="black" points="395.419,-463 384.834,-463.463 393.397,-469.702 395.419,-463"/>
</g>
<!-- types/integers&#45;&gt;HITs/circle -->
<g id="edge22" class="edge"><title>types/integers&#45;&gt;HITs/circle</title>
<path fill="none" stroke="black" d="M40.5825,-432.547C30.6877,-423.03 19.73,-410.153 14.4446,-396 8.84714,-381.011 11.4465,-375.717 14.4446,-360 26.72,-295.652 59.6629,-225.498 78.5784,-188.755"/>
<polygon fill="black" stroke="black" points="81.763,-190.218 83.2885,-179.733 75.5578,-186.978 81.763,-190.218"/>
</g>
<!-- HITs/reals -->
<g id="node26" class="node"><title>HITs/reals</title>
<ellipse fill="none" stroke="black" cx="72.4446" cy="-378" rx="48.9926" ry="18"/>
<text text-anchor="middle" x="72.4446" y="-374.3" font-family="Times New Roman,serif" font-size="14.00">HITs/reals</text>
</g>
<!-- types/integers&#45;&gt;HITs/reals -->
<g id="edge23" class="edge"><title>types/integers&#45;&gt;HITs/reals</title>
<path fill="none" stroke="black" d="M63.4109,-431.697C64.7333,-423.983 66.3225,-414.712 67.7968,-406.112"/>
<polygon fill="black" stroke="black" points="71.2724,-406.552 69.5125,-396.104 64.3731,-405.369 71.2724,-406.552"/>
</g>
<!-- types/unit&#45;&gt;structures -->
<g id="edge26" class="edge"><title>types/unit&#45;&gt;structures</title>
<path fill="none" stroke="black" d="M333.506,-508.324C360.568,-496.912 400.518,-480.066 430.112,-467.586"/>
<polygon fill="black" stroke="black" points="431.473,-470.811 439.327,-463.7 428.753,-464.361 431.473,-470.811"/>
</g>
<!-- HITs/suspension -->
<g id="node30" class="node"><title>HITs/suspension</title>
<ellipse fill="none" stroke="black" cx="212.445" cy="-378" rx="72.5877" ry="18"/>
<text text-anchor="middle" x="212.445" y="-374.3" font-family="Times New Roman,serif" font-size="14.00">HITs/suspension</text>
</g>
<!-- types/unit&#45;&gt;HITs/suspension -->
<g id="edge27" class="edge"><title>types/unit&#45;&gt;HITs/suspension</title>
<path fill="none" stroke="black" d="M269.092,-509.859C230.821,-497.105 173.486,-476.839 167.445,-468 153.253,-447.238 169.652,-421.385 186.497,-402.902"/>
<polygon fill="black" stroke="black" points="189.24,-405.099 193.656,-395.468 184.198,-400.243 189.24,-405.099"/>
</g>
<!-- HITs/colimit&#45;&gt;HITs/truncation -->
<g id="edge29" class="edge"><title>HITs/colimit&#45;&gt;HITs/truncation</title>
<path fill="none" stroke="black" d="M628.445,-431.697C628.445,-423.983 628.445,-414.712 628.445,-406.112"/>
<polygon fill="black" stroke="black" points="631.945,-406.104 628.445,-396.104 624.945,-406.104 631.945,-406.104"/>
</g>
<!-- HITs/generalized&#45;&gt;HITs/truncation -->
<g id="edge30" class="edge"><title>HITs/generalized&#45;&gt;HITs/truncation</title>
<path fill="none" stroke="black" d="M743.548,-433.811C721.706,-423.41 692.555,-409.529 669.056,-398.339"/>
<polygon fill="black" stroke="black" points="670.56,-395.178 660.026,-394.039 667.55,-401.498 670.56,-395.178"/>
</g>
<!-- HITs/rat -->
<g id="node31" class="node"><title>HITs/rat</title>
<ellipse fill="none" stroke="black" cx="906.445" cy="-378" rx="41.6928" ry="18"/>
<text text-anchor="middle" x="906.445" y="-374.3" font-family="Times New Roman,serif" font-size="14.00">HITs/rat</text>
</g>
<!-- HITs/int&#45;&gt;HITs/rat -->
<g id="edge31" class="edge"><title>HITs/int&#45;&gt;HITs/rat</title>
<path fill="none" stroke="black" d="M906.445,-431.697C906.445,-423.983 906.445,-414.712 906.445,-406.112"/>
<polygon fill="black" stroke="black" points="909.945,-406.104 906.445,-396.104 902.945,-406.104 909.945,-406.104"/>
</g>
<!-- HITs/pushout&#45;&gt;HITs/reals -->
<g id="edge35" class="edge"><title>HITs/pushout&#45;&gt;HITs/reals</title>
<path fill="none" stroke="black" d="M297.601,-437.828C244.887,-424.94 161.617,-404.443 130.445,-396 126.678,-394.98 122.782,-393.897 118.874,-392.792"/>
<polygon fill="black" stroke="black" points="119.776,-389.41 109.199,-390.021 117.848,-396.139 119.776,-389.41"/>
</g>
<!-- HITs/pushout&#45;&gt;HITs/suspension -->
<g id="edge37" class="edge"><title>HITs/pushout&#45;&gt;HITs/suspension</title>
<path fill="none" stroke="black" d="M315.02,-433.811C296.226,-423.769 271.36,-410.482 250.818,-399.505"/>
<polygon fill="black" stroke="black" points="252.191,-396.27 241.721,-394.644 248.892,-402.444 252.191,-396.27"/>
</g>
<!-- HITs/join -->
<g id="node33" class="node"><title>HITs/join</title>
<ellipse fill="none" stroke="black" cx="348.445" cy="-378" rx="45.4919" ry="18"/>
<text text-anchor="middle" x="348.445" y="-374.3" font-family="Times New Roman,serif" font-size="14.00">HITs/join</text>
</g>
<!-- HITs/pushout&#45;&gt;HITs/join -->
<g id="edge36" class="edge"><title>HITs/pushout&#45;&gt;HITs/join</title>
<path fill="none" stroke="black" d="M344.681,-431.697C345.232,-423.983 345.894,-414.712 346.508,-406.112"/>
<polygon fill="black" stroke="black" points="350.001,-406.328 347.223,-396.104 343.019,-405.83 350.001,-406.328"/>
</g>
<!-- types/product&#45;&gt;theorems/ua -->
<g id="edge24" class="edge"><title>types/product&#45;&gt;theorems/ua</title>
<path fill="none" stroke="black" d="M309.269,-289.983C288.918,-279.508 261.589,-265.442 239.668,-254.159"/>
<polygon fill="black" stroke="black" points="241.134,-250.977 230.641,-249.513 237.93,-257.201 241.134,-250.977"/>
</g>
<!-- cubical/cubes -->
<g id="node28" class="node"><title>cubical/cubes</title>
<ellipse fill="none" stroke="black" cx="403.445" cy="-234" rx="60.3893" ry="18"/>
<text text-anchor="middle" x="403.445" y="-230.3" font-family="Times New Roman,serif" font-size="14.00">cubical/cubes</text>
</g>
<!-- types/product&#45;&gt;cubical/cubes -->
<g id="edge25" class="edge"><title>types/product&#45;&gt;cubical/cubes</title>
<path fill="none" stroke="black" d="M353.849,-288.411C362.025,-279.606 372.218,-268.628 381.234,-258.919"/>
<polygon fill="black" stroke="black" points="383.911,-261.179 388.151,-251.47 378.782,-256.416 383.911,-261.179"/>
</g>
<!-- cubical/path -->
<g id="node36" class="node"><title>cubical/path</title>
<ellipse fill="none" stroke="black" cx="446.445" cy="-162" rx="54.6905" ry="18"/>
<text text-anchor="middle" x="446.445" y="-158.3" font-family="Times New Roman,serif" font-size="14.00">cubical/path</text>
</g>
<!-- cubical/cubes&#45;&gt;cubical/path -->
<g id="edge44" class="edge"><title>cubical/cubes&#45;&gt;cubical/path</title>
<path fill="none" stroke="black" d="M413.854,-216.055C418.924,-207.801 425.128,-197.701 430.757,-188.538"/>
<polygon fill="black" stroke="black" points="433.879,-190.142 436.131,-179.789 427.915,-186.478 433.879,-190.142"/>
</g>
<!-- types/sigma -->
<g id="node29" class="node"><title>types/sigma</title>
<ellipse fill="none" stroke="black" cx="513.445" cy="-810" rx="53.8905" ry="18"/>
<text text-anchor="middle" x="513.445" y="-806.3" font-family="Times New Roman,serif" font-size="14.00">types/sigma</text>
</g>
<!-- HITs/suspension&#45;&gt;HITs/circle -->
<g id="edge38" class="edge"><title>HITs/suspension&#45;&gt;HITs/circle</title>
<path fill="none" stroke="black" d="M201.831,-359.791C187.167,-335.856 160.071,-291.049 138.445,-252 126.855,-231.074 114.442,-206.945 105.435,-189.095"/>
<polygon fill="black" stroke="black" points="108.424,-187.249 100.808,-179.884 102.169,-190.391 108.424,-187.249"/>
</g>
<!-- cubical/path&#45;&gt;cubical/V -->
<g id="edge47" class="edge"><title>cubical/path&#45;&gt;cubical/V</title>
<path fill="none" stroke="black" d="M405.801,-149.936C367.466,-139.421 308.438,-123.028 257.445,-108 253.931,-106.964 250.295,-105.877 246.645,-104.773"/>
<polygon fill="black" stroke="black" points="247.609,-101.408 237.023,-101.84 245.568,-108.104 247.609,-101.408"/>
</g>
<!-- HITs/moebius -->
<g id="node37" class="node"><title>HITs/moebius</title>
<ellipse fill="none" stroke="black" cx="329.445" cy="-90" rx="63.0888" ry="18"/>
<text text-anchor="middle" x="329.445" y="-86.3" font-family="Times New Roman,serif" font-size="14.00">HITs/moebius</text>
</g>
<!-- cubical/path&#45;&gt;HITs/moebius -->
<g id="edge42" class="edge"><title>cubical/path&#45;&gt;HITs/moebius</title>
<path fill="none" stroke="black" d="M421.345,-145.983C404.611,-135.972 382.394,-122.679 363.996,-111.672"/>
<polygon fill="black" stroke="black" points="365.69,-108.607 355.312,-106.476 362.097,-114.614 365.69,-108.607"/>
</g>
<!-- cubical/connection -->
<g id="node38" class="node"><title>cubical/connection</title>
<ellipse fill="none" stroke="black" cx="489.445" cy="-90" rx="79.0865" ry="18"/>
<text text-anchor="middle" x="489.445" y="-86.3" font-family="Times New Roman,serif" font-size="14.00">cubical/connection</text>
</g>
<!-- cubical/path&#45;&gt;cubical/connection -->
<g id="edge43" class="edge"><title>cubical/path&#45;&gt;cubical/connection</title>
<path fill="none" stroke="black" d="M456.854,-144.055C461.85,-135.922 467.946,-125.998 473.508,-116.943"/>
<polygon fill="black" stroke="black" points="476.581,-118.628 478.833,-108.275 470.616,-114.964 476.581,-118.628"/>
</g>
<!-- cubical/square -->
<g id="node39" class="node"><title>cubical/square</title>
<ellipse fill="none" stroke="black" cx="649.445" cy="-90" rx="63.0888" ry="18"/>
<text text-anchor="middle" x="649.445" y="-86.3" font-family="Times New Roman,serif" font-size="14.00">cubical/square</text>
</g>
<!-- cubical/path&#45;&gt;cubical/square -->
<g id="edge45" class="edge"><title>cubical/path&#45;&gt;cubical/square</title>
<path fill="none" stroke="black" d="M482.737,-148.485C515.678,-137.127 564.508,-120.288 600.817,-107.768"/>
<polygon fill="black" stroke="black" points="602.389,-110.928 610.702,-104.36 600.107,-104.311 602.389,-110.928"/>
</g>
<!-- cubical/example -->
<g id="node40" class="node"><title>cubical/example</title>
<ellipse fill="none" stroke="black" cx="799.445" cy="-90" rx="68.7879" ry="18"/>
<text text-anchor="middle" x="799.445" y="-86.3" font-family="Times New Roman,serif" font-size="14.00">cubical/example</text>
</g>
<!-- cubical/path&#45;&gt;cubical/example -->
<g id="edge46" class="edge"><title>cubical/path&#45;&gt;cubical/example</title>
<path fill="none" stroke="black" d="M492.737,-152.432C547.445,-142.225 641.191,-124.477 721.445,-108 727.098,-106.839 732.976,-105.606 738.856,-104.356"/>
<polygon fill="black" stroke="black" points="739.669,-107.761 748.714,-102.243 738.202,-100.916 739.669,-107.761"/>
</g>
<!-- theorems/functions -->
<g id="node41" class="node"><title>theorems/functions</title>
<ellipse fill="none" stroke="black" cx="535.445" cy="-666" rx="79.8859" ry="18"/>
<text text-anchor="middle" x="535.445" y="-662.3" font-family="Times New Roman,serif" font-size="14.00">theorems/functions</text>
</g>
<!-- theorems/functions&#45;&gt;types/equiv -->
<g id="edge48" class="edge"><title>theorems/functions&#45;&gt;types/equiv</title>
<path fill="none" stroke="black" d="M499.642,-649.811C473.613,-638.769 438.337,-623.803 411.223,-612.3"/>
<polygon fill="black" stroke="black" points="412.573,-609.071 402.001,-608.387 409.839,-615.515 412.573,-609.071"/>
</g>
<!-- theorems/topology -->
<g id="node42" class="node"><title>theorems/topology</title>
<ellipse fill="none" stroke="black" cx="664.445" cy="-810" rx="79.0865" ry="18"/>
<text text-anchor="middle" x="664.445" y="-806.3" font-family="Times New Roman,serif" font-size="14.00">theorems/topology</text>
</g>
</g>
</svg>
