<?xml version="1.0" encoding="UTF-8" standalone="no"?>
<!DOCTYPE svg PUBLIC "-//W3C//DTD SVG 1.1//EN"
 "http://www.w3.org/Graphics/SVG/1.1/DTD/svg11.dtd">
<!-- Generated by graphviz version 2.38.0 (20140413.2041)
 -->
<!-- Title: dependency_map Pages: 1 -->
<svg width="1726pt" height="764pt"
 viewBox="0.00 0.00 1725.64 764.00" xmlns="http://www.w3.org/2000/svg" xmlns:xlink="http://www.w3.org/1999/xlink">
<g id="graph0" class="graph" transform="scale(1 1) rotate(0) translate(4 760)">
<title>dependency_map</title>
<polygon fill="white" stroke="none" points="-4,4 -4,-760 1721.64,-760 1721.64,4 -4,4"/>
<!-- proto -->
<g id="node1" class="node"><title>proto</title>
<ellipse fill="none" stroke="black" cx="931.044" cy="-738" rx="30.5947" ry="18"/>
<text text-anchor="middle" x="931.044" y="-734.3" font-family="Times New Roman,serif" font-size="14.00">proto</text>
</g>
<!-- types/eq -->
<g id="node2" class="node"><title>types/eq</title>
<ellipse fill="none" stroke="black" cx="991.044" cy="-666" rx="41.6928" ry="18"/>
<text text-anchor="middle" x="991.044" y="-662.3" font-family="Times New Roman,serif" font-size="14.00">types/eq</text>
</g>
<!-- proto&#45;&gt;types/eq -->
<g id="edge1" class="edge"><title>proto&#45;&gt;types/eq</title>
<path fill="none" stroke="black" d="M944.36,-721.465C951.988,-712.566 961.726,-701.205 970.332,-691.164"/>
<polygon fill="black" stroke="black" points="973.079,-693.338 976.93,-683.467 967.764,-688.782 973.079,-693.338"/>
</g>
<!-- support -->
<g id="node4" class="node"><title>support</title>
<ellipse fill="none" stroke="black" cx="929.044" cy="-594" rx="38.9931" ry="18"/>
<text text-anchor="middle" x="929.044" y="-590.3" font-family="Times New Roman,serif" font-size="14.00">support</text>
</g>
<!-- types/eq&#45;&gt;support -->
<g id="edge10" class="edge"><title>types/eq&#45;&gt;support</title>
<path fill="none" stroke="black" d="M976.665,-648.765C968.761,-639.841 958.811,-628.608 950.053,-618.719"/>
<polygon fill="black" stroke="black" points="952.597,-616.313 943.346,-611.147 947.357,-620.954 952.597,-616.313"/>
</g>
<!-- types/dep_path -->
<g id="node17" class="node"><title>types/dep_path</title>
<ellipse fill="none" stroke="black" cx="1053.04" cy="-594" rx="66.8882" ry="18"/>
<text text-anchor="middle" x="1053.04" y="-590.3" font-family="Times New Roman,serif" font-size="14.00">types/dep_path</text>
</g>
<!-- types/eq&#45;&gt;types/dep_path -->
<g id="edge11" class="edge"><title>types/eq&#45;&gt;types/dep_path</title>
<path fill="none" stroke="black" d="M1005.42,-648.765C1013.21,-639.969 1022.99,-628.928 1031.66,-619.144"/>
<polygon fill="black" stroke="black" points="1034.3,-621.44 1038.31,-611.633 1029.06,-616.799 1034.3,-621.44"/>
</g>
<!-- meta/hott_theory -->
<g id="node3" class="node"><title>meta/hott_theory</title>
<ellipse fill="none" stroke="black" cx="1052.04" cy="-738" rx="72.2875" ry="18"/>
<text text-anchor="middle" x="1052.04" y="-734.3" font-family="Times New Roman,serif" font-size="14.00">meta/hott_theory</text>
</g>
<!-- meta/hott_theory&#45;&gt;types/eq -->
<g id="edge2" class="edge"><title>meta/hott_theory&#45;&gt;types/eq</title>
<path fill="none" stroke="black" d="M1037.28,-720.055C1029.68,-711.33 1020.28,-700.544 1011.94,-690.981"/>
<polygon fill="black" stroke="black" points="1014.46,-688.547 1005.25,-683.307 1009.19,-693.146 1014.46,-688.547"/>
</g>
<!-- types/equiv -->
<g id="node5" class="node"><title>types/equiv</title>
<ellipse fill="none" stroke="black" cx="1053.04" cy="-522" rx="51.9908" ry="18"/>
<text text-anchor="middle" x="1053.04" y="-518.3" font-family="Times New Roman,serif" font-size="14.00">types/equiv</text>
</g>
<!-- support&#45;&gt;types/equiv -->
<g id="edge3" class="edge"><title>support&#45;&gt;types/equiv</title>
<path fill="none" stroke="black" d="M952.66,-579.669C971.145,-569.233 997.136,-554.561 1018.04,-542.761"/>
<polygon fill="black" stroke="black" points="1019.96,-545.698 1026.94,-537.734 1016.52,-539.602 1019.96,-545.698"/>
</g>
<!-- HITs/infinitesimal -->
<g id="node11" class="node"><title>HITs/infinitesimal</title>
<ellipse fill="none" stroke="black" stroke-dasharray="5,2" cx="784.044" cy="-450" rx="74.9875" ry="18"/>
<text text-anchor="middle" x="784.044" y="-446.3" font-family="Times New Roman,serif" font-size="14.00">HITs/infinitesimal</text>
</g>
<!-- types/equiv&#45;&gt;HITs/infinitesimal -->
<g id="edge12" class="edge"><title>types/equiv&#45;&gt;HITs/infinitesimal</title>
<path fill="none" stroke="black" d="M1012.77,-510.52C967.703,-498.792 894.267,-479.682 842.794,-466.288"/>
<polygon fill="black" stroke="black" points="843.366,-462.82 832.807,-463.689 841.603,-469.595 843.366,-462.82"/>
</g>
<!-- types/coproduct -->
<g id="node15" class="node"><title>types/coproduct</title>
<ellipse fill="none" stroke="black" cx="986.044" cy="-450" rx="70.6878" ry="18"/>
<text text-anchor="middle" x="986.044" y="-446.3" font-family="Times New Roman,serif" font-size="14.00">types/coproduct</text>
</g>
<!-- types/equiv&#45;&gt;types/coproduct -->
<g id="edge13" class="edge"><title>types/equiv&#45;&gt;types/coproduct</title>
<path fill="none" stroke="black" d="M1037.5,-504.765C1029.09,-495.969 1018.52,-484.928 1009.15,-475.144"/>
<polygon fill="black" stroke="black" points="1011.41,-472.437 1001.96,-467.633 1006.35,-477.278 1011.41,-472.437"/>
</g>
<!-- types/heq -->
<g id="node18" class="node"><title>types/heq</title>
<ellipse fill="none" stroke="black" cx="1231.04" cy="-450" rx="46.2923" ry="18"/>
<text text-anchor="middle" x="1231.04" y="-446.3" font-family="Times New Roman,serif" font-size="14.00">types/heq</text>
</g>
<!-- types/equiv&#45;&gt;types/heq -->
<g id="edge14" class="edge"><title>types/equiv&#45;&gt;types/heq</title>
<path fill="none" stroke="black" d="M1086.11,-507.998C1115.54,-496.424 1158.69,-479.454 1190.26,-467.041"/>
<polygon fill="black" stroke="black" points="1191.63,-470.263 1199.65,-463.346 1189.06,-463.748 1191.63,-470.263"/>
</g>
<!-- types/integer -->
<g id="node19" class="node"><title>types/integer</title>
<ellipse fill="none" stroke="black" cx="803.044" cy="-378" rx="56.59" ry="18"/>
<text text-anchor="middle" x="803.044" y="-374.3" font-family="Times New Roman,serif" font-size="14.00">types/integer</text>
</g>
<!-- types/equiv&#45;&gt;types/integer -->
<g id="edge15" class="edge"><title>types/equiv&#45;&gt;types/integer</title>
<path fill="none" stroke="black" d="M1011.71,-511.032C981.07,-502.503 939.073,-488.35 906.044,-468 886.238,-455.796 885.516,-447.361 868.044,-432 856.253,-421.633 842.863,-410.596 831.313,-401.294"/>
<polygon fill="black" stroke="black" points="833.271,-398.378 823.277,-394.86 828.897,-403.842 833.271,-398.378"/>
</g>
<!-- types/lost -->
<g id="node20" class="node"><title>types/lost</title>
<ellipse fill="none" stroke="black" cx="1341.04" cy="-450" rx="46.2923" ry="18"/>
<text text-anchor="middle" x="1341.04" y="-446.3" font-family="Times New Roman,serif" font-size="14.00">types/lost</text>
</g>
<!-- types/equiv&#45;&gt;types/lost -->
<g id="edge16" class="edge"><title>types/equiv&#45;&gt;types/lost</title>
<path fill="none" stroke="black" d="M1096.66,-512.116C1143.66,-502.301 1220.53,-485.55 1286.04,-468 1289.58,-467.052 1293.24,-466.027 1296.9,-464.967"/>
<polygon fill="black" stroke="black" points="1297.95,-468.305 1306.54,-462.105 1295.96,-461.595 1297.95,-468.305"/>
</g>
<!-- types/unit -->
<g id="node21" class="node"><title>types/unit</title>
<ellipse fill="none" stroke="black" cx="1121.04" cy="-450" rx="46.2923" ry="18"/>
<text text-anchor="middle" x="1121.04" y="-446.3" font-family="Times New Roman,serif" font-size="14.00">types/unit</text>
</g>
<!-- types/equiv&#45;&gt;types/unit -->
<g id="edge17" class="edge"><title>types/equiv&#45;&gt;types/unit</title>
<path fill="none" stroke="black" d="M1068.82,-504.765C1077.57,-495.753 1088.61,-484.385 1098.29,-474.426"/>
<polygon fill="black" stroke="black" points="1100.9,-476.759 1105.36,-467.147 1095.88,-471.881 1100.9,-476.759"/>
</g>
<!-- structures -->
<g id="node6" class="node"><title>structures</title>
<ellipse fill="none" stroke="black" cx="1029.04" cy="-378" rx="46.2923" ry="18"/>
<text text-anchor="middle" x="1029.04" y="-374.3" font-family="Times New Roman,serif" font-size="14.00">structures</text>
</g>
<!-- HITs/interval -->
<g id="node7" class="node"><title>HITs/interval</title>
<ellipse fill="none" stroke="black" cx="1044.04" cy="-306" rx="57.6901" ry="18"/>
<text text-anchor="middle" x="1044.04" y="-302.3" font-family="Times New Roman,serif" font-size="14.00">HITs/interval</text>
</g>
<!-- structures&#45;&gt;HITs/interval -->
<g id="edge4" class="edge"><title>structures&#45;&gt;HITs/interval</title>
<path fill="none" stroke="black" d="M1032.68,-360.055C1034.35,-352.261 1036.37,-342.822 1038.24,-334.079"/>
<polygon fill="black" stroke="black" points="1041.67,-334.787 1040.34,-324.275 1034.82,-333.32 1041.67,-334.787"/>
</g>
<!-- HITs/truncation -->
<g id="node8" class="node"><title>HITs/truncation</title>
<ellipse fill="none" stroke="black" cx="1188.04" cy="-306" rx="68.4888" ry="18"/>
<text text-anchor="middle" x="1188.04" y="-302.3" font-family="Times New Roman,serif" font-size="14.00">HITs/truncation</text>
</g>
<!-- structures&#45;&gt;HITs/truncation -->
<g id="edge5" class="edge"><title>structures&#45;&gt;HITs/truncation</title>
<path fill="none" stroke="black" d="M1058.58,-363.998C1082.92,-353.281 1117.77,-337.938 1145.18,-325.869"/>
<polygon fill="black" stroke="black" points="1146.8,-328.983 1154.54,-321.75 1143.98,-322.576 1146.8,-328.983"/>
</g>
<!-- algebra -->
<g id="node9" class="node"><title>algebra</title>
<ellipse fill="none" stroke="black" cx="816.044" cy="-306" rx="36.2938" ry="18"/>
<text text-anchor="middle" x="816.044" y="-302.3" font-family="Times New Roman,serif" font-size="14.00">algebra</text>
</g>
<!-- structures&#45;&gt;algebra -->
<g id="edge6" class="edge"><title>structures&#45;&gt;algebra</title>
<path fill="none" stroke="black" d="M994.191,-366.118C948.823,-351.936 873.796,-328.416 861.044,-324 858.628,-323.163 856.145,-322.283 853.647,-321.382"/>
<polygon fill="black" stroke="black" points="854.636,-318.017 844.042,-317.852 852.221,-324.587 854.636,-318.017"/>
</g>
<!-- types/product -->
<g id="node27" class="node"><title>types/product</title>
<ellipse fill="none" stroke="black" cx="662.044" cy="-234" rx="61.99" ry="18"/>
<text text-anchor="middle" x="662.044" y="-230.3" font-family="Times New Roman,serif" font-size="14.00">types/product</text>
</g>
<!-- HITs/interval&#45;&gt;types/product -->
<g id="edge34" class="edge"><title>HITs/interval&#45;&gt;types/product</title>
<path fill="none" stroke="black" d="M1001.63,-293.682C993.5,-291.67 985.03,-289.682 977.044,-288 890.637,-269.8 789.852,-253.736 726.005,-244.192"/>
<polygon fill="black" stroke="black" points="726.489,-240.726 716.083,-242.717 725.46,-247.65 726.489,-240.726"/>
</g>
<!-- theorems/prop -->
<g id="node32" class="node"><title>theorems/prop</title>
<ellipse fill="none" stroke="black" cx="1002.04" cy="-234" rx="63.8893" ry="18"/>
<text text-anchor="middle" x="1002.04" y="-230.3" font-family="Times New Roman,serif" font-size="14.00">theorems/prop</text>
</g>
<!-- HITs/interval&#45;&gt;theorems/prop -->
<g id="edge35" class="edge"><title>HITs/interval&#45;&gt;theorems/prop</title>
<path fill="none" stroke="black" d="M1033.88,-288.055C1028.92,-279.801 1022.87,-269.701 1017.37,-260.538"/>
<polygon fill="black" stroke="black" points="1020.26,-258.563 1012.12,-251.789 1014.26,-262.165 1020.26,-258.563"/>
</g>
<!-- HITs/truncation&#45;&gt;theorems/prop -->
<g id="edge40" class="edge"><title>HITs/truncation&#45;&gt;theorems/prop</title>
<path fill="none" stroke="black" d="M1150.4,-290.834C1120.87,-279.72 1079.63,-264.198 1048.12,-252.34"/>
<polygon fill="black" stroke="black" points="1049.27,-249.033 1038.68,-248.787 1046.8,-255.585 1049.27,-249.033"/>
</g>
<!-- HITs/simplicial -->
<g id="node34" class="node"><title>HITs/simplicial</title>
<ellipse fill="none" stroke="black" cx="1149.04" cy="-234" rx="65.7887" ry="18"/>
<text text-anchor="middle" x="1149.04" y="-230.3" font-family="Times New Roman,serif" font-size="14.00">HITs/simplicial</text>
</g>
<!-- HITs/truncation&#45;&gt;HITs/simplicial -->
<g id="edge41" class="edge"><title>HITs/truncation&#45;&gt;HITs/simplicial</title>
<path fill="none" stroke="black" d="M1178.6,-288.055C1174.12,-280.007 1168.66,-270.205 1163.66,-261.226"/>
<polygon fill="black" stroke="black" points="1166.59,-259.308 1158.67,-252.275 1160.48,-262.714 1166.59,-259.308"/>
</g>
<!-- theorems/mere_eq_lemma -->
<g id="node35" class="node"><title>theorems/mere_eq_lemma</title>
<ellipse fill="none" stroke="black" cx="1339.04" cy="-234" rx="105.881" ry="18"/>
<text text-anchor="middle" x="1339.04" y="-230.3" font-family="Times New Roman,serif" font-size="14.00">theorems/mere_eq_lemma</text>
</g>
<!-- HITs/truncation&#45;&gt;theorems/mere_eq_lemma -->
<g id="edge42" class="edge"><title>HITs/truncation&#45;&gt;theorems/mere_eq_lemma</title>
<path fill="none" stroke="black" d="M1220.44,-289.983C1242.24,-279.876 1271.26,-266.425 1295.13,-255.357"/>
<polygon fill="black" stroke="black" points="1296.74,-258.47 1304.34,-251.089 1293.79,-252.119 1296.74,-258.47"/>
</g>
<!-- HITs/circle -->
<g id="node10" class="node"><title>HITs/circle</title>
<ellipse fill="none" stroke="black" stroke-dasharray="5,2" cx="768.044" cy="-90" rx="51.9908" ry="18"/>
<text text-anchor="middle" x="768.044" y="-86.3" font-family="Times New Roman,serif" font-size="14.00">HITs/circle</text>
</g>
<!-- HITs/ntrunc -->
<g id="node12" class="node"><title>HITs/ntrunc</title>
<ellipse fill="none" stroke="black" stroke-dasharray="5,2" cx="785.044" cy="-18" rx="55.4913" ry="18"/>
<text text-anchor="middle" x="785.044" y="-14.3" font-family="Times New Roman,serif" font-size="14.00">HITs/ntrunc</text>
</g>
<!-- HITs/circle&#45;&gt;HITs/ntrunc -->
<g id="edge30" class="edge"><title>HITs/circle&#45;&gt;HITs/ntrunc</title>
<path fill="none" stroke="black" d="M772.16,-72.055C774.052,-64.2609 776.345,-54.8219 778.468,-46.0789"/>
<polygon fill="black" stroke="black" points="781.89,-46.8189 780.849,-36.2753 775.088,-45.1668 781.89,-46.8189"/>
</g>
<!-- theorems/ua -->
<g id="node13" class="node"><title>theorems/ua</title>
<ellipse fill="none" stroke="black" stroke-dasharray="5,2" cx="666.044" cy="-162" rx="54.6905" ry="18"/>
<text text-anchor="middle" x="666.044" y="-158.3" font-family="Times New Roman,serif" font-size="14.00">theorems/ua</text>
</g>
<!-- theorems/ua&#45;&gt;HITs/circle -->
<g id="edge50" class="edge"><title>theorems/ua&#45;&gt;HITs/circle</title>
<path fill="none" stroke="black" d="M688.682,-145.465C702.944,-135.677 721.545,-122.912 737.153,-112.2"/>
<polygon fill="black" stroke="black" points="739.206,-115.036 745.471,-106.492 735.245,-109.265 739.206,-115.036"/>
</g>
<!-- cubical/V -->
<g id="node14" class="node"><title>cubical/V</title>
<ellipse fill="none" stroke="black" stroke-dasharray="5,2" cx="666.044" cy="-18" rx="45.4919" ry="18"/>
<text text-anchor="middle" x="666.044" y="-14.3" font-family="Times New Roman,serif" font-size="14.00">cubical/V</text>
</g>
<!-- theorems/ua&#45;&gt;cubical/V -->
<g id="edge51" class="edge"><title>theorems/ua&#45;&gt;cubical/V</title>
<path fill="none" stroke="black" d="M666.044,-143.871C666.044,-119.67 666.044,-75.2108 666.044,-46.3932"/>
<polygon fill="black" stroke="black" points="669.545,-46.1892 666.044,-36.1893 662.545,-46.1893 669.545,-46.1892"/>
</g>
<!-- types/coproduct&#45;&gt;structures -->
<g id="edge7" class="edge"><title>types/coproduct&#45;&gt;structures</title>
<path fill="none" stroke="black" d="M996.454,-432.055C1001.52,-423.801 1007.73,-413.701 1013.36,-404.538"/>
<polygon fill="black" stroke="black" points="1016.48,-406.142 1018.73,-395.789 1010.51,-402.478 1016.48,-406.142"/>
</g>
<!-- types/nat -->
<g id="node16" class="node"><title>types/nat</title>
<ellipse fill="none" stroke="black" cx="921.044" cy="-378" rx="43.5923" ry="18"/>
<text text-anchor="middle" x="921.044" y="-374.3" font-family="Times New Roman,serif" font-size="14.00">types/nat</text>
</g>
<!-- types/coproduct&#45;&gt;types/nat -->
<g id="edge8" class="edge"><title>types/coproduct&#45;&gt;types/nat</title>
<path fill="none" stroke="black" d="M970.64,-432.411C962.346,-423.479 951.975,-412.31 942.864,-402.498"/>
<polygon fill="black" stroke="black" points="945.26,-399.934 935.891,-394.988 940.13,-404.698 945.26,-399.934"/>
</g>
<!-- types/dep_path&#45;&gt;types/equiv -->
<g id="edge9" class="edge"><title>types/dep_path&#45;&gt;types/equiv</title>
<path fill="none" stroke="black" d="M1053.04,-575.697C1053.04,-567.983 1053.04,-558.712 1053.04,-550.112"/>
<polygon fill="black" stroke="black" points="1056.54,-550.104 1053.04,-540.104 1049.54,-550.104 1056.54,-550.104"/>
</g>
<!-- types/heq&#45;&gt;HITs/interval -->
<g id="edge18" class="edge"><title>types/heq&#45;&gt;HITs/interval</title>
<path fill="none" stroke="black" d="M1198.12,-437.027C1175.43,-427.845 1145.3,-413.744 1122.04,-396 1098.14,-377.759 1076.08,-351.289 1061.56,-331.959"/>
<polygon fill="black" stroke="black" points="1064.38,-329.878 1055.63,-323.896 1058.74,-334.026 1064.38,-329.878"/>
</g>
<!-- HITs/colimit -->
<g id="node22" class="node"><title>HITs/colimit</title>
<ellipse fill="none" stroke="black" cx="1188.04" cy="-378" rx="56.59" ry="18"/>
<text text-anchor="middle" x="1188.04" y="-374.3" font-family="Times New Roman,serif" font-size="14.00">HITs/colimit</text>
</g>
<!-- types/heq&#45;&gt;HITs/colimit -->
<g id="edge19" class="edge"><title>types/heq&#45;&gt;HITs/colimit</title>
<path fill="none" stroke="black" d="M1220.85,-432.411C1215.73,-424.077 1209.42,-413.797 1203.7,-404.488"/>
<polygon fill="black" stroke="black" points="1206.68,-402.645 1198.46,-395.956 1200.71,-406.309 1206.68,-402.645"/>
</g>
<!-- HITs/generalized -->
<g id="node23" class="node"><title>HITs/generalized</title>
<ellipse fill="none" stroke="black" cx="1335.04" cy="-378" rx="72.2875" ry="18"/>
<text text-anchor="middle" x="1335.04" y="-374.3" font-family="Times New Roman,serif" font-size="14.00">HITs/generalized</text>
</g>
<!-- types/heq&#45;&gt;HITs/generalized -->
<g id="edge20" class="edge"><title>types/heq&#45;&gt;HITs/generalized</title>
<path fill="none" stroke="black" d="M1253.1,-434.155C1267.49,-424.47 1286.52,-411.663 1302.62,-400.827"/>
<polygon fill="black" stroke="black" points="1304.87,-403.53 1311.21,-395.043 1300.96,-397.723 1304.87,-403.53"/>
</g>
<!-- HITs/int -->
<g id="node24" class="node"><title>HITs/int</title>
<ellipse fill="none" stroke="black" cx="1661.04" cy="-378" rx="40.8928" ry="18"/>
<text text-anchor="middle" x="1661.04" y="-374.3" font-family="Times New Roman,serif" font-size="14.00">HITs/int</text>
</g>
<!-- types/heq&#45;&gt;HITs/int -->
<g id="edge21" class="edge"><title>types/heq&#45;&gt;HITs/int</title>
<path fill="none" stroke="black" d="M1264.53,-437.577C1271.57,-435.478 1279,-433.484 1286.04,-432 1421.77,-403.399 1459.73,-421.611 1596.04,-396 1603.22,-394.653 1610.76,-392.948 1618.08,-391.142"/>
<polygon fill="black" stroke="black" points="1619.03,-394.512 1627.85,-388.64 1617.29,-387.731 1619.03,-394.512"/>
</g>
<!-- HITs/pushout -->
<g id="node25" class="node"><title>HITs/pushout</title>
<ellipse fill="none" stroke="black" cx="1525.04" cy="-378" rx="61.99" ry="18"/>
<text text-anchor="middle" x="1525.04" y="-374.3" font-family="Times New Roman,serif" font-size="14.00">HITs/pushout</text>
</g>
<!-- types/heq&#45;&gt;HITs/pushout -->
<g id="edge22" class="edge"><title>types/heq&#45;&gt;HITs/pushout</title>
<path fill="none" stroke="black" d="M1265.54,-437.862C1272.31,-435.811 1279.38,-433.763 1286.04,-432 1357.77,-413.029 1376.62,-412.098 1449.04,-396 1455.11,-394.652 1461.44,-393.241 1467.75,-391.832"/>
<polygon fill="black" stroke="black" points="1468.62,-395.225 1477.62,-389.63 1467.09,-388.394 1468.62,-395.225"/>
</g>
<!-- types/integer&#45;&gt;algebra -->
<g id="edge23" class="edge"><title>types/integer&#45;&gt;algebra</title>
<path fill="none" stroke="black" d="M806.258,-359.697C807.69,-351.983 809.412,-342.712 811.009,-334.112"/>
<polygon fill="black" stroke="black" points="814.483,-334.575 812.868,-324.104 807.601,-333.297 814.483,-334.575"/>
</g>
<!-- types/integer&#45;&gt;HITs/circle -->
<g id="edge24" class="edge"><title>types/integer&#45;&gt;HITs/circle</title>
<path fill="none" stroke="black" d="M789.876,-360.422C782.82,-350.48 774.82,-337.23 771.044,-324 750.478,-251.944 758.102,-162.18 763.89,-118.056"/>
<polygon fill="black" stroke="black" points="767.363,-118.493 765.267,-108.107 760.429,-117.533 767.363,-118.493"/>
</g>
<!-- HITs/reals -->
<g id="node26" class="node"><title>HITs/reals</title>
<ellipse fill="none" stroke="black" cx="919.044" cy="-306" rx="48.9926" ry="18"/>
<text text-anchor="middle" x="919.044" y="-302.3" font-family="Times New Roman,serif" font-size="14.00">HITs/reals</text>
</g>
<!-- types/integer&#45;&gt;HITs/reals -->
<g id="edge25" class="edge"><title>types/integer&#45;&gt;HITs/reals</title>
<path fill="none" stroke="black" d="M828.215,-361.811C845.165,-351.583 867.692,-337.988 886.072,-326.897"/>
<polygon fill="black" stroke="black" points="887.965,-329.843 894.718,-321.68 884.348,-323.85 887.965,-329.843"/>
</g>
<!-- types/unit&#45;&gt;structures -->
<g id="edge28" class="edge"><title>types/unit&#45;&gt;structures</title>
<path fill="none" stroke="black" d="M1100.63,-433.465C1087.91,-423.792 1071.38,-411.21 1057.4,-400.577"/>
<polygon fill="black" stroke="black" points="1059.17,-397.521 1049.09,-394.251 1054.93,-403.092 1059.17,-397.521"/>
</g>
<!-- HITs/suspension -->
<g id="node30" class="node"><title>HITs/suspension</title>
<ellipse fill="none" stroke="black" cx="1435.04" cy="-306" rx="72.5877" ry="18"/>
<text text-anchor="middle" x="1435.04" y="-302.3" font-family="Times New Roman,serif" font-size="14.00">HITs/suspension</text>
</g>
<!-- types/unit&#45;&gt;HITs/suspension -->
<g id="edge29" class="edge"><title>types/unit&#45;&gt;HITs/suspension</title>
<path fill="none" stroke="black" d="M1154.86,-437.671C1161.81,-435.589 1169.13,-433.579 1176.04,-432 1228.62,-420.003 1376.76,-432.945 1416.04,-396 1432.63,-380.403 1436.56,-354.165 1436.83,-334.208"/>
<polygon fill="black" stroke="black" points="1440.33,-334.098 1436.68,-324.154 1433.33,-334.208 1440.33,-334.098"/>
</g>
<!-- HITs/colimit&#45;&gt;HITs/truncation -->
<g id="edge31" class="edge"><title>HITs/colimit&#45;&gt;HITs/truncation</title>
<path fill="none" stroke="black" d="M1188.04,-359.697C1188.04,-351.983 1188.04,-342.712 1188.04,-334.112"/>
<polygon fill="black" stroke="black" points="1191.54,-334.104 1188.04,-324.104 1184.54,-334.104 1191.54,-334.104"/>
</g>
<!-- HITs/generalized&#45;&gt;HITs/truncation -->
<g id="edge32" class="edge"><title>HITs/generalized&#45;&gt;HITs/truncation</title>
<path fill="none" stroke="black" d="M1303.15,-361.811C1281.31,-351.41 1252.16,-337.529 1228.66,-326.339"/>
<polygon fill="black" stroke="black" points="1230.16,-323.178 1219.63,-322.039 1227.15,-329.498 1230.16,-323.178"/>
</g>
<!-- HITs/rat -->
<g id="node31" class="node"><title>HITs/rat</title>
<ellipse fill="none" stroke="black" cx="1676.04" cy="-306" rx="41.6928" ry="18"/>
<text text-anchor="middle" x="1676.04" y="-302.3" font-family="Times New Roman,serif" font-size="14.00">HITs/rat</text>
</g>
<!-- HITs/int&#45;&gt;HITs/rat -->
<g id="edge33" class="edge"><title>HITs/int&#45;&gt;HITs/rat</title>
<path fill="none" stroke="black" d="M1664.68,-360.055C1666.35,-352.261 1668.37,-342.822 1670.24,-334.079"/>
<polygon fill="black" stroke="black" points="1673.67,-334.787 1672.34,-324.275 1666.82,-333.32 1673.67,-334.787"/>
</g>
<!-- HITs/pushout&#45;&gt;HITs/reals -->
<g id="edge36" class="edge"><title>HITs/pushout&#45;&gt;HITs/reals</title>
<path fill="none" stroke="black" d="M1473.31,-368.141C1455.23,-365.256 1434.78,-362.226 1416.04,-360 1221.65,-336.901 1169.52,-359.716 977.044,-324 972.866,-323.225 968.558,-322.269 964.266,-321.21"/>
<polygon fill="black" stroke="black" points="964.912,-317.76 954.349,-318.586 963.121,-324.528 964.912,-317.76"/>
</g>
<!-- HITs/pushout&#45;&gt;HITs/suspension -->
<g id="edge38" class="edge"><title>HITs/pushout&#45;&gt;HITs/suspension</title>
<path fill="none" stroke="black" d="M1504.17,-360.765C1492.33,-351.554 1477.32,-339.882 1464.32,-329.769"/>
<polygon fill="black" stroke="black" points="1466.16,-326.766 1456.12,-323.39 1461.86,-332.292 1466.16,-326.766"/>
</g>
<!-- HITs/join -->
<g id="node33" class="node"><title>HITs/join</title>
<ellipse fill="none" stroke="black" cx="1571.04" cy="-306" rx="45.4919" ry="18"/>
<text text-anchor="middle" x="1571.04" y="-302.3" font-family="Times New Roman,serif" font-size="14.00">HITs/join</text>
</g>
<!-- HITs/pushout&#45;&gt;HITs/join -->
<g id="edge37" class="edge"><title>HITs/pushout&#45;&gt;HITs/join</title>
<path fill="none" stroke="black" d="M1536.18,-360.055C1541.66,-351.715 1548.38,-341.491 1554.45,-332.252"/>
<polygon fill="black" stroke="black" points="1557.44,-334.068 1560.01,-323.789 1551.59,-330.224 1557.44,-334.068"/>
</g>
<!-- types/product&#45;&gt;theorems/ua -->
<g id="edge26" class="edge"><title>types/product&#45;&gt;theorems/ua</title>
<path fill="none" stroke="black" d="M663.033,-215.697C663.474,-207.983 664.004,-198.712 664.495,-190.112"/>
<polygon fill="black" stroke="black" points="667.991,-190.288 665.067,-180.104 661.002,-189.888 667.991,-190.288"/>
</g>
<!-- cubical/cubes -->
<g id="node28" class="node"><title>cubical/cubes</title>
<ellipse fill="none" stroke="black" cx="490.044" cy="-162" rx="60.3893" ry="18"/>
<text text-anchor="middle" x="490.044" y="-158.3" font-family="Times New Roman,serif" font-size="14.00">cubical/cubes</text>
</g>
<!-- types/product&#45;&gt;cubical/cubes -->
<g id="edge27" class="edge"><title>types/product&#45;&gt;cubical/cubes</title>
<path fill="none" stroke="black" d="M627.651,-219.003C600.699,-208.034 563.016,-192.698 533.897,-180.847"/>
<polygon fill="black" stroke="black" points="534.96,-177.501 524.378,-176.973 532.321,-183.984 534.96,-177.501"/>
</g>
<!-- cubical/path -->
<g id="node36" class="node"><title>cubical/path</title>
<ellipse fill="none" stroke="black" cx="405.044" cy="-90" rx="54.6905" ry="18"/>
<text text-anchor="middle" x="405.044" y="-86.3" font-family="Times New Roman,serif" font-size="14.00">cubical/path</text>
</g>
<!-- cubical/cubes&#45;&gt;cubical/path -->
<g id="edge45" class="edge"><title>cubical/cubes&#45;&gt;cubical/path</title>
<path fill="none" stroke="black" d="M470.33,-144.765C458.985,-135.422 444.565,-123.546 432.164,-113.334"/>
<polygon fill="black" stroke="black" points="434.303,-110.561 424.359,-106.906 429.853,-115.965 434.303,-110.561"/>
</g>
<!-- types/sigma -->
<g id="node29" class="node"><title>types/sigma</title>
<ellipse fill="none" stroke="black" cx="1196.04" cy="-738" rx="53.8905" ry="18"/>
<text text-anchor="middle" x="1196.04" y="-734.3" font-family="Times New Roman,serif" font-size="14.00">types/sigma</text>
</g>
<!-- HITs/suspension&#45;&gt;HITs/circle -->
<g id="edge39" class="edge"><title>HITs/suspension&#45;&gt;HITs/circle</title>
<path fill="none" stroke="black" d="M1446.26,-287.906C1457.55,-268.342 1471.05,-236.382 1454.04,-216 1374.64,-120.814 983.261,-97.9258 829.872,-92.5778"/>
<polygon fill="black" stroke="black" points="829.794,-89.0733 819.682,-92.2363 829.559,-96.0694 829.794,-89.0733"/>
</g>
<!-- cubical/path&#45;&gt;cubical/V -->
<g id="edge48" class="edge"><title>cubical/path&#45;&gt;cubical/V</title>
<path fill="none" stroke="black" d="M447.814,-78.6311C489.591,-68.3537 554.902,-51.8888 611.044,-36 614.621,-34.9879 618.318,-33.9111 622.027,-32.8098"/>
<polygon fill="black" stroke="black" points="623.229,-36.103 631.793,-29.8648 621.208,-29.4011 623.229,-36.103"/>
</g>
<!-- HITs/moebius -->
<g id="node37" class="node"><title>HITs/moebius</title>
<ellipse fill="none" stroke="black" cx="363.044" cy="-18" rx="63.0888" ry="18"/>
<text text-anchor="middle" x="363.044" y="-14.3" font-family="Times New Roman,serif" font-size="14.00">HITs/moebius</text>
</g>
<!-- cubical/path&#45;&gt;HITs/moebius -->
<g id="edge43" class="edge"><title>cubical/path&#45;&gt;HITs/moebius</title>
<path fill="none" stroke="black" d="M394.877,-72.055C389.925,-63.8006 383.865,-53.7014 378.367,-44.5378"/>
<polygon fill="black" stroke="black" points="381.264,-42.5632 373.118,-35.789 375.262,-46.1647 381.264,-42.5632"/>
</g>
<!-- cubical/connection -->
<g id="node38" class="node"><title>cubical/connection</title>
<ellipse fill="none" stroke="black" cx="523.044" cy="-18" rx="79.0865" ry="18"/>
<text text-anchor="middle" x="523.044" y="-14.3" font-family="Times New Roman,serif" font-size="14.00">cubical/connection</text>
</g>
<!-- cubical/path&#45;&gt;cubical/connection -->
<g id="edge44" class="edge"><title>cubical/path&#45;&gt;cubical/connection</title>
<path fill="none" stroke="black" d="M430.358,-73.9832C447.003,-64.1096 469.025,-51.0451 487.428,-40.1286"/>
<polygon fill="black" stroke="black" points="489.316,-43.0778 496.131,-34.9655 485.745,-37.0574 489.316,-43.0778"/>
</g>
<!-- cubical/square -->
<g id="node39" class="node"><title>cubical/square</title>
<ellipse fill="none" stroke="black" cx="63.0444" cy="-18" rx="63.0888" ry="18"/>
<text text-anchor="middle" x="63.0444" y="-14.3" font-family="Times New Roman,serif" font-size="14.00">cubical/square</text>
</g>
<!-- cubical/path&#45;&gt;cubical/square -->
<g id="edge46" class="edge"><title>cubical/path&#45;&gt;cubical/square</title>
<path fill="none" stroke="black" d="M358.591,-80.4373C304.706,-70.3761 213.253,-52.9025 135.044,-36 129.995,-34.9088 124.756,-33.7409 119.51,-32.5473"/>
<polygon fill="black" stroke="black" points="119.993,-29.067 109.463,-30.2336 118.422,-35.8885 119.993,-29.067"/>
</g>
<!-- cubical/example -->
<g id="node40" class="node"><title>cubical/example</title>
<ellipse fill="none" stroke="black" cx="213.044" cy="-18" rx="68.7879" ry="18"/>
<text text-anchor="middle" x="213.044" y="-14.3" font-family="Times New Roman,serif" font-size="14.00">cubical/example</text>
</g>
<!-- cubical/path&#45;&gt;cubical/example -->
<g id="edge47" class="edge"><title>cubical/path&#45;&gt;cubical/example</title>
<path fill="none" stroke="black" d="M369.829,-76.1609C339.382,-65.0606 295.078,-48.9081 261.327,-36.603"/>
<polygon fill="black" stroke="black" points="262.258,-33.2171 251.664,-33.08 259.86,-39.7937 262.258,-33.2171"/>
</g>
<!-- theorems/functions -->
<g id="node41" class="node"><title>theorems/functions</title>
<ellipse fill="none" stroke="black" cx="1218.04" cy="-594" rx="79.8859" ry="18"/>
<text text-anchor="middle" x="1218.04" y="-590.3" font-family="Times New Roman,serif" font-size="14.00">theorems/functions</text>
</g>
<!-- theorems/functions&#45;&gt;types/equiv -->
<g id="edge49" class="edge"><title>theorems/functions&#45;&gt;types/equiv</title>
<path fill="none" stroke="black" d="M1182.24,-577.811C1156.21,-566.769 1120.94,-551.803 1093.82,-540.3"/>
<polygon fill="black" stroke="black" points="1095.17,-537.071 1084.6,-536.387 1092.44,-543.515 1095.17,-537.071"/>
</g>
<!-- theorems/topology -->
<g id="node42" class="node"><title>theorems/topology</title>
<ellipse fill="none" stroke="black" cx="1347.04" cy="-738" rx="79.0865" ry="18"/>
<text text-anchor="middle" x="1347.04" y="-734.3" font-family="Times New Roman,serif" font-size="14.00">theorems/topology</text>
</g>
</g>
</svg>
