<?xml version="1.0" encoding="UTF-8" standalone="no"?>
<!DOCTYPE svg PUBLIC "-//W3C//DTD SVG 1.1//EN"
 "http://www.w3.org/Graphics/SVG/1.1/DTD/svg11.dtd">
<!-- Generated by graphviz version 2.43.0 (0)
 -->
<!-- Title: dependency_map Pages: 1 -->
<svg width="1755pt" height="908pt"
 viewBox="0.00 0.00 1754.58 908.00" xmlns="http://www.w3.org/2000/svg" xmlns:xlink="http://www.w3.org/1999/xlink">
<g id="graph0" class="graph" transform="scale(1 1) rotate(0) translate(4 904)">
<title>dependency_map</title>
<polygon fill="white" stroke="transparent" points="-4,4 -4,-904 1750.58,-904 1750.58,4 -4,4"/>
<!-- proto -->
<g id="node1" class="node">
<title>proto</title>
<ellipse fill="none" stroke="black" cx="890.99" cy="-882" rx="36" ry="18"/>
<text text-anchor="middle" x="890.99" y="-878.3" font-family="Times,serif" font-size="14.00">proto</text>
</g>
<!-- types/eq -->
<g id="node2" class="node">
<title>types/eq</title>
<ellipse fill="none" stroke="black" cx="962.99" cy="-810" rx="50.09" ry="18"/>
<text text-anchor="middle" x="962.99" y="-806.3" font-family="Times,serif" font-size="14.00">types/eq</text>
</g>
<!-- proto&#45;&gt;types/eq -->
<g id="edge1" class="edge">
<title>proto&#45;&gt;types/eq</title>
<path fill="none" stroke="black" d="M906.97,-865.46C916.37,-856.32 928.45,-844.59 938.97,-834.35"/>
<polygon fill="black" stroke="black" points="941.58,-836.7 946.31,-827.22 936.7,-831.68 941.58,-836.7"/>
</g>
<!-- support -->
<g id="node4" class="node">
<title>support</title>
<ellipse fill="none" stroke="black" cx="962.99" cy="-738" rx="46.59" ry="18"/>
<text text-anchor="middle" x="962.99" y="-734.3" font-family="Times,serif" font-size="14.00">support</text>
</g>
<!-- types/eq&#45;&gt;support -->
<g id="edge14" class="edge">
<title>types/eq&#45;&gt;support</title>
<path fill="none" stroke="black" d="M962.99,-791.7C962.99,-783.98 962.99,-774.71 962.99,-766.11"/>
<polygon fill="black" stroke="black" points="966.49,-766.1 962.99,-756.1 959.49,-766.1 966.49,-766.1"/>
</g>
<!-- meta/hott_theory -->
<g id="node3" class="node">
<title>meta/hott_theory</title>
<ellipse fill="none" stroke="black" cx="1035.99" cy="-882" rx="90.98" ry="18"/>
<text text-anchor="middle" x="1035.99" y="-878.3" font-family="Times,serif" font-size="14.00">meta/hott_theory</text>
</g>
<!-- meta/hott_theory&#45;&gt;types/eq -->
<g id="edge2" class="edge">
<title>meta/hott_theory&#45;&gt;types/eq</title>
<path fill="none" stroke="black" d="M1018.32,-864.05C1009.04,-855.16 997.52,-844.11 987.4,-834.41"/>
<polygon fill="black" stroke="black" points="989.64,-831.7 980,-827.31 984.79,-836.75 989.64,-831.7"/>
</g>
<!-- types/equiv -->
<g id="node5" class="node">
<title>types/equiv</title>
<ellipse fill="none" stroke="black" cx="962.99" cy="-666" rx="64.19" ry="18"/>
<text text-anchor="middle" x="962.99" y="-662.3" font-family="Times,serif" font-size="14.00">types/equiv</text>
</g>
<!-- support&#45;&gt;types/equiv -->
<g id="edge3" class="edge">
<title>support&#45;&gt;types/equiv</title>
<path fill="none" stroke="black" d="M962.99,-719.7C962.99,-711.98 962.99,-702.71 962.99,-694.11"/>
<polygon fill="black" stroke="black" points="966.49,-694.1 962.99,-684.1 959.49,-694.1 966.49,-694.1"/>
</g>
<!-- types/coproduct -->
<g id="node18" class="node">
<title>types/coproduct</title>
<ellipse fill="none" stroke="black" cx="920.99" cy="-522" rx="85.29" ry="18"/>
<text text-anchor="middle" x="920.99" y="-518.3" font-family="Times,serif" font-size="14.00">types/coproduct</text>
</g>
<!-- types/equiv&#45;&gt;types/coproduct -->
<g id="edge15" class="edge">
<title>types/equiv&#45;&gt;types/coproduct</title>
<path fill="none" stroke="black" d="M954.65,-648.15C949.84,-637.89 943.97,-624.42 939.99,-612 933.46,-591.59 928.52,-567.83 925.31,-549.99"/>
<polygon fill="black" stroke="black" points="928.73,-549.25 923.58,-539.99 921.84,-550.44 928.73,-549.25"/>
</g>
<!-- types/heq -->
<g id="node19" class="node">
<title>types/heq</title>
<ellipse fill="none" stroke="black" cx="1004.99" cy="-594" rx="55.79" ry="18"/>
<text text-anchor="middle" x="1004.99" y="-590.3" font-family="Times,serif" font-size="14.00">types/heq</text>
</g>
<!-- types/equiv&#45;&gt;types/heq -->
<g id="edge16" class="edge">
<title>types/equiv&#45;&gt;types/heq</title>
<path fill="none" stroke="black" d="M973.16,-648.05C978.11,-639.8 984.17,-629.7 989.67,-620.54"/>
<polygon fill="black" stroke="black" points="992.78,-622.16 994.92,-611.79 986.77,-618.56 992.78,-622.16"/>
</g>
<!-- HITs/infinitesimal -->
<g id="node20" class="node">
<title>HITs/infinitesimal</title>
<ellipse fill="none" stroke="black" cx="1171.99" cy="-594" rx="92.88" ry="18"/>
<text text-anchor="middle" x="1171.99" y="-590.3" font-family="Times,serif" font-size="14.00">HITs/infinitesimal</text>
</g>
<!-- types/equiv&#45;&gt;HITs/infinitesimal -->
<g id="edge17" class="edge">
<title>types/equiv&#45;&gt;HITs/infinitesimal</title>
<path fill="none" stroke="black" d="M1002.8,-651.67C1035.38,-640.75 1081.8,-625.21 1117.78,-613.16"/>
<polygon fill="black" stroke="black" points="1119.26,-616.35 1127.63,-609.86 1117.04,-609.71 1119.26,-616.35"/>
</g>
<!-- types/lost -->
<g id="node21" class="node">
<title>types/lost</title>
<ellipse fill="none" stroke="black" cx="1338.99" cy="-594" rx="55.79" ry="18"/>
<text text-anchor="middle" x="1338.99" y="-590.3" font-family="Times,serif" font-size="14.00">types/lost</text>
</g>
<!-- types/equiv&#45;&gt;types/lost -->
<g id="edge18" class="edge">
<title>types/equiv&#45;&gt;types/lost</title>
<path fill="none" stroke="black" d="M1018.89,-656.97C1081.36,-647.66 1185.38,-631.1 1273.99,-612 1278.6,-611.01 1283.37,-609.91 1288.13,-608.75"/>
<polygon fill="black" stroke="black" points="1289,-612.14 1297.86,-606.33 1287.31,-605.35 1289,-612.14"/>
</g>
<!-- types/unit -->
<g id="node22" class="node">
<title>types/unit</title>
<ellipse fill="none" stroke="black" cx="687.99" cy="-450" rx="57.69" ry="18"/>
<text text-anchor="middle" x="687.99" y="-446.3" font-family="Times,serif" font-size="14.00">types/unit</text>
</g>
<!-- types/equiv&#45;&gt;types/unit -->
<g id="edge19" class="edge">
<title>types/equiv&#45;&gt;types/unit</title>
<path fill="none" stroke="black" d="M904.13,-658.65C835.35,-647.69 724.64,-618.24 674.99,-540 663.15,-521.34 668.38,-496.1 675.42,-477.27"/>
<polygon fill="black" stroke="black" points="678.74,-478.39 679.31,-467.81 672.27,-475.73 678.74,-478.39"/>
</g>
<!-- types/sigma -->
<g id="node23" class="node">
<title>types/sigma</title>
<ellipse fill="none" stroke="black" cx="750.99" cy="-522" rx="66.89" ry="18"/>
<text text-anchor="middle" x="750.99" y="-518.3" font-family="Times,serif" font-size="14.00">types/sigma</text>
</g>
<!-- types/equiv&#45;&gt;types/sigma -->
<g id="edge20" class="edge">
<title>types/equiv&#45;&gt;types/sigma</title>
<path fill="none" stroke="black" d="M939.09,-648.99C900.89,-623.4 826.06,-573.28 783.19,-544.57"/>
<polygon fill="black" stroke="black" points="785.07,-541.61 774.81,-538.95 781.17,-547.43 785.07,-541.61"/>
</g>
<!-- structures -->
<g id="node6" class="node">
<title>structures</title>
<ellipse fill="none" stroke="black" cx="825.99" cy="-378" rx="59.29" ry="18"/>
<text text-anchor="middle" x="825.99" y="-374.3" font-family="Times,serif" font-size="14.00">structures</text>
</g>
<!-- HITs/interval -->
<g id="node7" class="node">
<title>HITs/interval</title>
<ellipse fill="none" stroke="black" cx="510.99" cy="-306" rx="71.49" ry="18"/>
<text text-anchor="middle" x="510.99" y="-302.3" font-family="Times,serif" font-size="14.00">HITs/interval</text>
</g>
<!-- structures&#45;&gt;HITs/interval -->
<g id="edge4" class="edge">
<title>structures&#45;&gt;HITs/interval</title>
<path fill="none" stroke="black" d="M779.51,-366.67C724.64,-354.48 633.18,-334.15 572.48,-320.66"/>
<polygon fill="black" stroke="black" points="573.16,-317.23 562.64,-318.48 571.65,-324.06 573.16,-317.23"/>
</g>
<!-- HITs/merely -->
<g id="node8" class="node">
<title>HITs/merely</title>
<ellipse fill="none" stroke="black" cx="1279.99" cy="-306" rx="67.69" ry="18"/>
<text text-anchor="middle" x="1279.99" y="-302.3" font-family="Times,serif" font-size="14.00">HITs/merely</text>
</g>
<!-- structures&#45;&gt;HITs/merely -->
<g id="edge5" class="edge">
<title>structures&#45;&gt;HITs/merely</title>
<path fill="none" stroke="black" d="M868.61,-365.45C876.99,-363.43 885.73,-361.51 893.99,-360 1030.45,-335.13 1067.24,-347.17 1203.99,-324 1209.71,-323.03 1215.65,-321.91 1221.58,-320.71"/>
<polygon fill="black" stroke="black" points="1222.42,-324.11 1231.49,-318.64 1220.99,-317.26 1222.42,-324.11"/>
</g>
<!-- HITs/trunc -->
<g id="node9" class="node">
<title>HITs/trunc</title>
<ellipse fill="none" stroke="black" cx="1134.99" cy="-306" rx="59.59" ry="18"/>
<text text-anchor="middle" x="1134.99" y="-302.3" font-family="Times,serif" font-size="14.00">HITs/trunc</text>
</g>
<!-- structures&#45;&gt;HITs/trunc -->
<g id="edge6" class="edge">
<title>structures&#45;&gt;HITs/trunc</title>
<path fill="none" stroke="black" d="M869.83,-365.78C877.85,-363.8 886.17,-361.8 893.99,-360 970.11,-342.53 989.84,-341.34 1065.99,-324 1070.71,-322.93 1075.59,-321.78 1080.49,-320.62"/>
<polygon fill="black" stroke="black" points="1081.6,-323.95 1090.51,-318.2 1079.97,-317.14 1081.6,-323.95"/>
</g>
<!-- types/nat -->
<g id="node10" class="node">
<title>types/nat</title>
<ellipse fill="none" stroke="black" cx="1002.99" cy="-306" rx="53.89" ry="18"/>
<text text-anchor="middle" x="1002.99" y="-302.3" font-family="Times,serif" font-size="14.00">types/nat</text>
</g>
<!-- structures&#45;&gt;types/nat -->
<g id="edge7" class="edge">
<title>structures&#45;&gt;types/nat</title>
<path fill="none" stroke="black" d="M860.54,-363.34C888.96,-352.1 929.37,-336.12 959.9,-324.04"/>
<polygon fill="black" stroke="black" points="961.42,-327.2 969.43,-320.27 958.85,-320.7 961.42,-327.2"/>
</g>
<!-- theorems/ua -->
<g id="node11" class="node">
<title>theorems/ua</title>
<ellipse fill="none" stroke="black" cx="861.99" cy="-306" rx="68.79" ry="18"/>
<text text-anchor="middle" x="861.99" y="-302.3" font-family="Times,serif" font-size="14.00">theorems/ua</text>
</g>
<!-- structures&#45;&gt;theorems/ua -->
<g id="edge8" class="edge">
<title>structures&#45;&gt;theorems/ua</title>
<path fill="none" stroke="black" d="M834.71,-360.05C838.85,-352.01 843.89,-342.2 848.51,-333.23"/>
<polygon fill="black" stroke="black" points="851.65,-334.77 853.11,-324.28 845.42,-331.57 851.65,-334.77"/>
</g>
<!-- cubical/cubes -->
<g id="node39" class="node">
<title>cubical/cubes</title>
<ellipse fill="none" stroke="black" cx="376.99" cy="-234" rx="73.39" ry="18"/>
<text text-anchor="middle" x="376.99" y="-230.3" font-family="Times,serif" font-size="14.00">cubical/cubes</text>
</g>
<!-- HITs/interval&#45;&gt;cubical/cubes -->
<g id="edge41" class="edge">
<title>HITs/interval&#45;&gt;cubical/cubes</title>
<path fill="none" stroke="black" d="M481.25,-289.46C461.91,-279.36 436.49,-266.08 415.59,-255.16"/>
<polygon fill="black" stroke="black" points="417.13,-252.02 406.65,-250.49 413.89,-258.22 417.13,-252.02"/>
</g>
<!-- theorems/prop -->
<g id="node40" class="node">
<title>theorems/prop</title>
<ellipse fill="none" stroke="black" cx="840.99" cy="-234" rx="79.09" ry="18"/>
<text text-anchor="middle" x="840.99" y="-230.3" font-family="Times,serif" font-size="14.00">theorems/prop</text>
</g>
<!-- HITs/interval&#45;&gt;theorems/prop -->
<g id="edge42" class="edge">
<title>HITs/interval&#45;&gt;theorems/prop</title>
<path fill="none" stroke="black" d="M564.01,-293.75C621.4,-281.58 713,-262.15 775,-249"/>
<polygon fill="black" stroke="black" points="776.01,-252.36 785.07,-246.86 774.56,-245.51 776.01,-252.36"/>
</g>
<!-- theorems/fibration -->
<g id="node41" class="node">
<title>theorems/fibration</title>
<ellipse fill="none" stroke="black" cx="562.99" cy="-162" rx="96.68" ry="18"/>
<text text-anchor="middle" x="562.99" y="-158.3" font-family="Times,serif" font-size="14.00">theorems/fibration</text>
</g>
<!-- HITs/interval&#45;&gt;theorems/fibration -->
<g id="edge43" class="edge">
<title>HITs/interval&#45;&gt;theorems/fibration</title>
<path fill="none" stroke="black" d="M517.27,-287.87C526.21,-263.46 542.7,-218.43 553.24,-189.64"/>
<polygon fill="black" stroke="black" points="556.55,-190.78 556.7,-180.19 549.97,-188.38 556.55,-190.78"/>
</g>
<!-- HITs/merely&#45;&gt;theorems/prop -->
<g id="edge44" class="edge">
<title>HITs/merely&#45;&gt;theorems/prop</title>
<path fill="none" stroke="black" d="M1231.47,-293.46C1222.37,-291.49 1212.91,-289.58 1203.99,-288 1082.61,-266.52 1050.67,-271.7 928.99,-252 922.28,-250.91 915.3,-249.7 908.34,-248.44"/>
<polygon fill="black" stroke="black" points="908.65,-244.94 898.18,-246.57 907.38,-251.83 908.65,-244.94"/>
</g>
<!-- HITs/simplicial -->
<g id="node43" class="node">
<title>HITs/simplicial</title>
<ellipse fill="none" stroke="black" cx="1180.99" cy="-234" rx="79.09" ry="18"/>
<text text-anchor="middle" x="1180.99" y="-230.3" font-family="Times,serif" font-size="14.00">HITs/simplicial</text>
</g>
<!-- HITs/merely&#45;&gt;HITs/simplicial -->
<g id="edge45" class="edge">
<title>HITs/merely&#45;&gt;HITs/simplicial</title>
<path fill="none" stroke="black" d="M1257.03,-288.76C1243.76,-279.38 1226.87,-267.44 1212.38,-257.19"/>
<polygon fill="black" stroke="black" points="1214.36,-254.31 1204.17,-251.39 1210.32,-260.02 1214.36,-254.31"/>
</g>
<!-- theorems/functions -->
<g id="node44" class="node">
<title>theorems/functions</title>
<ellipse fill="none" stroke="black" cx="1453.99" cy="-162" rx="100.98" ry="18"/>
<text text-anchor="middle" x="1453.99" y="-158.3" font-family="Times,serif" font-size="14.00">theorems/functions</text>
</g>
<!-- HITs/merely&#45;&gt;theorems/functions -->
<g id="edge46" class="edge">
<title>HITs/merely&#45;&gt;theorems/functions</title>
<path fill="none" stroke="black" d="M1341.68,-298.46C1373.89,-291.85 1411.4,-278.59 1434.99,-252 1449.86,-235.25 1454.09,-209.76 1454.9,-190.35"/>
<polygon fill="black" stroke="black" points="1458.4,-190.33 1455.05,-180.28 1451.4,-190.23 1458.4,-190.33"/>
</g>
<!-- HITs/quotient -->
<g id="node38" class="node">
<title>HITs/quotient</title>
<ellipse fill="none" stroke="black" cx="1351.99" cy="-234" rx="74.19" ry="18"/>
<text text-anchor="middle" x="1351.99" y="-230.3" font-family="Times,serif" font-size="14.00">HITs/quotient</text>
</g>
<!-- HITs/trunc&#45;&gt;HITs/quotient -->
<g id="edge51" class="edge">
<title>HITs/trunc&#45;&gt;HITs/quotient</title>
<path fill="none" stroke="black" d="M1174.29,-292.32C1209.27,-281.04 1260.72,-264.44 1299.27,-252.01"/>
<polygon fill="black" stroke="black" points="1300.83,-255.18 1309.27,-248.78 1298.68,-248.52 1300.83,-255.18"/>
</g>
<!-- theorems/nat -->
<g id="node28" class="node">
<title>theorems/nat</title>
<ellipse fill="none" stroke="black" cx="1010.99" cy="-234" rx="72.59" ry="18"/>
<text text-anchor="middle" x="1010.99" y="-230.3" font-family="Times,serif" font-size="14.00">theorems/nat</text>
</g>
<!-- types/nat&#45;&gt;theorems/nat -->
<g id="edge25" class="edge">
<title>types/nat&#45;&gt;theorems/nat</title>
<path fill="none" stroke="black" d="M1004.97,-287.7C1005.85,-279.98 1006.91,-270.71 1007.89,-262.11"/>
<polygon fill="black" stroke="black" points="1011.38,-262.44 1009.04,-252.1 1004.43,-261.64 1011.38,-262.44"/>
</g>
<!-- theorems/ua&#45;&gt;theorems/nat -->
<g id="edge65" class="edge">
<title>theorems/ua&#45;&gt;theorems/nat</title>
<path fill="none" stroke="black" d="M893.96,-289.98C916,-279.63 945.51,-265.76 969.39,-254.55"/>
<polygon fill="black" stroke="black" points="971,-257.65 978.57,-250.23 968.03,-251.32 971,-257.65"/>
</g>
<!-- cubical/V -->
<g id="node49" class="node">
<title>cubical/V</title>
<ellipse fill="none" stroke="black" cx="437.99" cy="-90" rx="52.79" ry="18"/>
<text text-anchor="middle" x="437.99" y="-86.3" font-family="Times,serif" font-size="14.00">cubical/V</text>
</g>
<!-- theorems/ua&#45;&gt;cubical/V -->
<g id="edge66" class="edge">
<title>theorems/ua&#45;&gt;cubical/V</title>
<path fill="none" stroke="black" d="M830.27,-289.81C779.84,-265.76 685.38,-221.07 668.99,-216 577.69,-187.74 525.98,-246.14 456.99,-180 440.56,-164.24 436.61,-138.03 436.29,-118.12"/>
<polygon fill="black" stroke="black" points="439.79,-118.14 436.42,-108.09 432.79,-118.04 439.79,-118.14"/>
</g>
<!-- algebra/eilenberg_maclane -->
<g id="node12" class="node">
<title>algebra/eilenberg_maclane</title>
<ellipse fill="none" stroke="black" cx="1089.99" cy="-18" rx="135.68" ry="18"/>
<text text-anchor="middle" x="1089.99" y="-14.3" font-family="Times,serif" font-size="14.00">algebra/eilenberg_maclane</text>
</g>
<!-- algebra/finite -->
<g id="node13" class="node">
<title>algebra/finite</title>
<ellipse fill="none" stroke="black" cx="1468.99" cy="-18" rx="72.59" ry="18"/>
<text text-anchor="middle" x="1468.99" y="-14.3" font-family="Times,serif" font-size="14.00">algebra/finite</text>
</g>
<!-- algebra/group -->
<g id="node14" class="node">
<title>algebra/group</title>
<ellipse fill="none" stroke="black" cx="1324.99" cy="-90" rx="76.09" ry="18"/>
<text text-anchor="middle" x="1324.99" y="-86.3" font-family="Times,serif" font-size="14.00">algebra/group</text>
</g>
<!-- algebra/group&#45;&gt;algebra/eilenberg_maclane -->
<g id="edge9" class="edge">
<title>algebra/group&#45;&gt;algebra/eilenberg_maclane</title>
<path fill="none" stroke="black" d="M1279.68,-75.5C1243.46,-64.71 1192.29,-49.47 1152.22,-37.54"/>
<polygon fill="black" stroke="black" points="1153.13,-34.16 1142.55,-34.65 1151.13,-40.86 1153.13,-34.16"/>
</g>
<!-- algebra/group&#45;&gt;algebra/finite -->
<g id="edge10" class="edge">
<title>algebra/group&#45;&gt;algebra/finite</title>
<path fill="none" stroke="black" d="M1356.95,-73.46C1378.07,-63.2 1405.93,-49.66 1428.58,-38.64"/>
<polygon fill="black" stroke="black" points="1430.16,-41.77 1437.62,-34.25 1427.1,-35.48 1430.16,-41.77"/>
</g>
<!-- algebra/homology -->
<g id="node15" class="node">
<title>algebra/homology</title>
<ellipse fill="none" stroke="black" cx="1652.99" cy="-18" rx="93.68" ry="18"/>
<text text-anchor="middle" x="1652.99" y="-14.3" font-family="Times,serif" font-size="14.00">algebra/homology</text>
</g>
<!-- algebra/group&#45;&gt;algebra/homology -->
<g id="edge11" class="edge">
<title>algebra/group&#45;&gt;algebra/homology</title>
<path fill="none" stroke="black" d="M1379.52,-77.36C1435.26,-65.47 1522.04,-46.95 1582.86,-33.97"/>
<polygon fill="black" stroke="black" points="1583.72,-37.36 1592.76,-31.85 1582.25,-30.52 1583.72,-37.36"/>
</g>
<!-- algebra/ring -->
<g id="node16" class="node">
<title>algebra/ring</title>
<ellipse fill="none" stroke="black" cx="1310.99" cy="-18" rx="67.69" ry="18"/>
<text text-anchor="middle" x="1310.99" y="-14.3" font-family="Times,serif" font-size="14.00">algebra/ring</text>
</g>
<!-- algebra/group&#45;&gt;algebra/ring -->
<g id="edge12" class="edge">
<title>algebra/group&#45;&gt;algebra/ring</title>
<path fill="none" stroke="black" d="M1321.53,-71.7C1319.99,-63.98 1318.14,-54.71 1316.42,-46.11"/>
<polygon fill="black" stroke="black" points="1319.81,-45.22 1314.41,-36.1 1312.94,-46.6 1319.81,-45.22"/>
</g>
<!-- types/category -->
<g id="node17" class="node">
<title>types/category</title>
<ellipse fill="none" stroke="black" cx="864.99" cy="-90" rx="79.09" ry="18"/>
<text text-anchor="middle" x="864.99" y="-86.3" font-family="Times,serif" font-size="14.00">types/category</text>
</g>
<!-- types/coproduct&#45;&gt;structures -->
<g id="edge13" class="edge">
<title>types/coproduct&#45;&gt;structures</title>
<path fill="none" stroke="black" d="M909.72,-504.15C893.15,-479.39 862.1,-432.97 842.82,-404.16"/>
<polygon fill="black" stroke="black" points="845.72,-402.19 837.25,-395.82 839.9,-406.08 845.72,-402.19"/>
</g>
<!-- HITs/graph -->
<g id="node24" class="node">
<title>HITs/graph</title>
<ellipse fill="none" stroke="black" cx="1225.99" cy="-450" rx="62.29" ry="18"/>
<text text-anchor="middle" x="1225.99" y="-446.3" font-family="Times,serif" font-size="14.00">HITs/graph</text>
</g>
<!-- types/heq&#45;&gt;HITs/graph -->
<g id="edge21" class="edge">
<title>types/heq&#45;&gt;HITs/graph</title>
<path fill="none" stroke="black" d="M1047.29,-581.94C1106.47,-566.46 1206.82,-540.18 1206.99,-540 1222.55,-523.71 1226.67,-497.95 1227.27,-478.33"/>
<polygon fill="black" stroke="black" points="1230.77,-478.17 1227.29,-468.16 1223.77,-478.15 1230.77,-478.17"/>
</g>
<!-- theorems/funext -->
<g id="node25" class="node">
<title>theorems/funext</title>
<ellipse fill="none" stroke="black" cx="1110.99" cy="-522" rx="87.18" ry="18"/>
<text text-anchor="middle" x="1110.99" y="-518.3" font-family="Times,serif" font-size="14.00">theorems/funext</text>
</g>
<!-- types/heq&#45;&gt;theorems/funext -->
<g id="edge22" class="edge">
<title>types/heq&#45;&gt;theorems/funext</title>
<path fill="none" stroke="black" d="M1028.52,-577.46C1042.93,-567.95 1061.6,-555.62 1077.53,-545.1"/>
<polygon fill="black" stroke="black" points="1079.64,-547.9 1086.06,-539.47 1075.78,-542.06 1079.64,-547.9"/>
</g>
<!-- types/unit&#45;&gt;structures -->
<g id="edge29" class="edge">
<title>types/unit&#45;&gt;structures</title>
<path fill="none" stroke="black" d="M716.92,-434.33C737.39,-423.94 765.06,-409.91 787.41,-398.57"/>
<polygon fill="black" stroke="black" points="789.29,-401.54 796.63,-393.9 786.12,-395.3 789.29,-401.54"/>
</g>
<!-- HITs/suspension -->
<g id="node31" class="node">
<title>HITs/suspension</title>
<ellipse fill="none" stroke="black" cx="687.99" cy="-306" rx="87.18" ry="18"/>
<text text-anchor="middle" x="687.99" y="-302.3" font-family="Times,serif" font-size="14.00">HITs/suspension</text>
</g>
<!-- types/unit&#45;&gt;HITs/suspension -->
<g id="edge30" class="edge">
<title>types/unit&#45;&gt;HITs/suspension</title>
<path fill="none" stroke="black" d="M687.99,-431.87C687.99,-407.67 687.99,-363.21 687.99,-334.39"/>
<polygon fill="black" stroke="black" points="691.49,-334.19 687.99,-324.19 684.49,-334.19 691.49,-334.19"/>
</g>
<!-- types/sigma&#45;&gt;structures -->
<g id="edge28" class="edge">
<title>types/sigma&#45;&gt;structures</title>
<path fill="none" stroke="black" d="M759.89,-504.15C772.86,-479.6 797.06,-433.77 812.31,-404.91"/>
<polygon fill="black" stroke="black" points="815.53,-406.3 817.11,-395.82 809.34,-403.03 815.53,-406.3"/>
</g>
<!-- HITs/colimit -->
<g id="node35" class="node">
<title>HITs/colimit</title>
<ellipse fill="none" stroke="black" cx="1133.99" cy="-378" rx="66.89" ry="18"/>
<text text-anchor="middle" x="1133.99" y="-374.3" font-family="Times,serif" font-size="14.00">HITs/colimit</text>
</g>
<!-- HITs/graph&#45;&gt;HITs/colimit -->
<g id="edge37" class="edge">
<title>HITs/graph&#45;&gt;HITs/colimit</title>
<path fill="none" stroke="black" d="M1204.66,-432.76C1192.35,-423.4 1176.69,-411.49 1163.25,-401.26"/>
<polygon fill="black" stroke="black" points="1165.29,-398.42 1155.22,-395.15 1161.05,-403.99 1165.29,-398.42"/>
</g>
<!-- HITs/generalized -->
<g id="node36" class="node">
<title>HITs/generalized</title>
<ellipse fill="none" stroke="black" cx="1307.99" cy="-378" rx="89.08" ry="18"/>
<text text-anchor="middle" x="1307.99" y="-374.3" font-family="Times,serif" font-size="14.00">HITs/generalized</text>
</g>
<!-- HITs/graph&#45;&gt;HITs/generalized -->
<g id="edge38" class="edge">
<title>HITs/graph&#45;&gt;HITs/generalized</title>
<path fill="none" stroke="black" d="M1245.01,-432.76C1255.62,-423.71 1269.02,-412.27 1280.73,-402.28"/>
<polygon fill="black" stroke="black" points="1283.18,-404.79 1288.51,-395.63 1278.63,-399.46 1283.18,-404.79"/>
</g>
<!-- HITs/pushout -->
<g id="node37" class="node">
<title>HITs/pushout</title>
<ellipse fill="none" stroke="black" cx="975.99" cy="-378" rx="72.59" ry="18"/>
<text text-anchor="middle" x="975.99" y="-374.3" font-family="Times,serif" font-size="14.00">HITs/pushout</text>
</g>
<!-- HITs/graph&#45;&gt;HITs/pushout -->
<g id="edge39" class="edge">
<title>HITs/graph&#45;&gt;HITs/pushout</title>
<path fill="none" stroke="black" d="M1182.73,-436.89C1141.07,-425.22 1077.83,-407.51 1032.27,-394.76"/>
<polygon fill="black" stroke="black" points="1033.11,-391.36 1022.54,-392.03 1031.23,-398.1 1033.11,-391.36"/>
</g>
<!-- HITs/graph&#45;&gt;HITs/quotient -->
<g id="edge40" class="edge">
<title>HITs/graph&#45;&gt;HITs/quotient</title>
<path fill="none" stroke="black" d="M1279.51,-440.46C1326.85,-431.67 1390.72,-416.41 1405.99,-396 1437.25,-354.21 1399.47,-293.25 1373.18,-259.6"/>
<polygon fill="black" stroke="black" points="1375.78,-257.25 1366.79,-251.66 1370.33,-261.64 1375.78,-257.25"/>
</g>
<!-- types/product -->
<g id="node30" class="node">
<title>types/product</title>
<ellipse fill="none" stroke="black" cx="1013.99" cy="-450" rx="75.29" ry="18"/>
<text text-anchor="middle" x="1013.99" y="-446.3" font-family="Times,serif" font-size="14.00">types/product</text>
</g>
<!-- theorems/funext&#45;&gt;types/product -->
<g id="edge59" class="edge">
<title>theorems/funext&#45;&gt;types/product</title>
<path fill="none" stroke="black" d="M1088.01,-504.41C1075.11,-495.1 1058.84,-483.37 1044.85,-473.27"/>
<polygon fill="black" stroke="black" points="1046.64,-470.24 1036.48,-467.23 1042.54,-475.92 1046.64,-470.24"/>
</g>
<!-- types/integer -->
<g id="node26" class="node">
<title>types/integer</title>
<ellipse fill="none" stroke="black" cx="1072.99" cy="-162" rx="72.59" ry="18"/>
<text text-anchor="middle" x="1072.99" y="-158.3" font-family="Times,serif" font-size="14.00">types/integer</text>
</g>
<!-- types/integer&#45;&gt;algebra/group -->
<g id="edge23" class="edge">
<title>types/integer&#45;&gt;algebra/group</title>
<path fill="none" stroke="black" d="M1119.51,-148.08C1161.29,-136.47 1222.77,-119.39 1267.6,-106.94"/>
<polygon fill="black" stroke="black" points="1268.77,-110.25 1277.47,-104.2 1266.89,-103.51 1268.77,-110.25"/>
</g>
<!-- HITs/circle -->
<g id="node27" class="node">
<title>HITs/circle</title>
<ellipse fill="none" stroke="black" cx="706.99" cy="-90" rx="60.39" ry="18"/>
<text text-anchor="middle" x="706.99" y="-86.3" font-family="Times,serif" font-size="14.00">HITs/circle</text>
</g>
<!-- types/integer&#45;&gt;HITs/circle -->
<g id="edge24" class="edge">
<title>types/integer&#45;&gt;HITs/circle</title>
<path fill="none" stroke="black" d="M1013.82,-151.5C953.92,-141.62 858.73,-125.23 776.99,-108 772,-106.95 766.81,-105.8 761.63,-104.61"/>
<polygon fill="black" stroke="black" points="762.25,-101.16 751.71,-102.29 760.65,-107.97 762.25,-101.16"/>
</g>
<!-- theorems/hopf -->
<g id="node32" class="node">
<title>theorems/hopf</title>
<ellipse fill="none" stroke="black" cx="557.99" cy="-18" rx="77.99" ry="18"/>
<text text-anchor="middle" x="557.99" y="-14.3" font-family="Times,serif" font-size="14.00">theorems/hopf</text>
</g>
<!-- HITs/circle&#45;&gt;theorems/hopf -->
<g id="edge31" class="edge">
<title>HITs/circle&#45;&gt;theorems/hopf</title>
<path fill="none" stroke="black" d="M676.12,-74.5C654.15,-64.17 624.36,-50.18 600.19,-38.82"/>
<polygon fill="black" stroke="black" points="601.43,-35.54 590.89,-34.46 598.46,-41.88 601.43,-35.54"/>
</g>
<!-- HITs/moebius -->
<g id="node33" class="node">
<title>HITs/moebius</title>
<ellipse fill="none" stroke="black" cx="861.99" cy="-18" rx="74.19" ry="18"/>
<text text-anchor="middle" x="861.99" y="-14.3" font-family="Times,serif" font-size="14.00">HITs/moebius</text>
</g>
<!-- HITs/circle&#45;&gt;HITs/moebius -->
<g id="edge32" class="edge">
<title>HITs/circle&#45;&gt;HITs/moebius</title>
<path fill="none" stroke="black" d="M738.73,-74.67C761.9,-64.2 793.57,-49.9 819.01,-38.41"/>
<polygon fill="black" stroke="black" points="820.74,-41.47 828.42,-34.16 817.86,-35.09 820.74,-41.47"/>
</g>
<!-- HITs/reals -->
<g id="node34" class="node">
<title>HITs/reals</title>
<ellipse fill="none" stroke="black" cx="711.99" cy="-18" rx="57.69" ry="18"/>
<text text-anchor="middle" x="711.99" y="-14.3" font-family="Times,serif" font-size="14.00">HITs/reals</text>
</g>
<!-- HITs/circle&#45;&gt;HITs/reals -->
<g id="edge33" class="edge">
<title>HITs/circle&#45;&gt;HITs/reals</title>
<path fill="none" stroke="black" d="M708.23,-71.7C708.78,-63.98 709.44,-54.71 710.06,-46.11"/>
<polygon fill="black" stroke="black" points="713.55,-46.33 710.77,-36.1 706.57,-45.83 713.55,-46.33"/>
</g>
<!-- theorems/nat&#45;&gt;types/integer -->
<g id="edge60" class="edge">
<title>theorems/nat&#45;&gt;types/integer</title>
<path fill="none" stroke="black" d="M1026,-216.05C1033.62,-207.46 1043.01,-196.86 1051.38,-187.4"/>
<polygon fill="black" stroke="black" points="1054.11,-189.6 1058.12,-179.79 1048.87,-184.95 1054.11,-189.6"/>
</g>
<!-- HITs/int -->
<g id="node50" class="node">
<title>HITs/int</title>
<ellipse fill="none" stroke="black" cx="1211.99" cy="-162" rx="48.19" ry="18"/>
<text text-anchor="middle" x="1211.99" y="-158.3" font-family="Times,serif" font-size="14.00">HITs/int</text>
</g>
<!-- theorems/nat&#45;&gt;HITs/int -->
<g id="edge61" class="edge">
<title>theorems/nat&#45;&gt;HITs/int</title>
<path fill="none" stroke="black" d="M1051.67,-218.83C1085.5,-207.05 1133.54,-190.32 1168.2,-178.25"/>
<polygon fill="black" stroke="black" points="1169.76,-181.41 1178.05,-174.82 1167.46,-174.8 1169.76,-181.41"/>
</g>
<!-- types/precategory -->
<g id="node29" class="node">
<title>types/precategory</title>
<ellipse fill="none" stroke="black" cx="848.99" cy="-162" rx="94.78" ry="18"/>
<text text-anchor="middle" x="848.99" y="-158.3" font-family="Times,serif" font-size="14.00">types/precategory</text>
</g>
<!-- types/precategory&#45;&gt;types/category -->
<g id="edge26" class="edge">
<title>types/precategory&#45;&gt;types/category</title>
<path fill="none" stroke="black" d="M852.95,-143.7C854.71,-135.98 856.83,-126.71 858.8,-118.11"/>
<polygon fill="black" stroke="black" points="862.27,-118.63 861.08,-108.1 855.44,-117.07 862.27,-118.63"/>
</g>
<!-- types/product&#45;&gt;structures -->
<g id="edge27" class="edge">
<title>types/product&#45;&gt;structures</title>
<path fill="none" stroke="black" d="M975.04,-434.5C944.92,-423.28 903.16,-407.73 871.51,-395.95"/>
<polygon fill="black" stroke="black" points="872.62,-392.63 862.03,-392.42 870.18,-399.19 872.62,-392.63"/>
</g>
<!-- HITs/suspension&#45;&gt;HITs/circle -->
<g id="edge49" class="edge">
<title>HITs/suspension&#45;&gt;HITs/circle</title>
<path fill="none" stroke="black" d="M689.52,-287.85C692.8,-250.83 700.58,-163.18 704.56,-118.39"/>
<polygon fill="black" stroke="black" points="708.06,-118.5 705.46,-108.23 701.09,-117.88 708.06,-118.5"/>
</g>
<!-- HITs/join -->
<g id="node42" class="node">
<title>HITs/join</title>
<ellipse fill="none" stroke="black" cx="607.99" cy="-234" rx="51.99" ry="18"/>
<text text-anchor="middle" x="607.99" y="-230.3" font-family="Times,serif" font-size="14.00">HITs/join</text>
</g>
<!-- HITs/suspension&#45;&gt;HITs/join -->
<g id="edge50" class="edge">
<title>HITs/suspension&#45;&gt;HITs/join</title>
<path fill="none" stroke="black" d="M669.03,-288.41C658.52,-279.21 645.3,-267.64 633.85,-257.63"/>
<polygon fill="black" stroke="black" points="636.1,-254.94 626.27,-250.99 631.49,-260.21 636.1,-254.94"/>
</g>
<!-- HITs/colimit&#45;&gt;HITs/merely -->
<g id="edge34" class="edge">
<title>HITs/colimit&#45;&gt;HITs/merely</title>
<path fill="none" stroke="black" d="M1165.31,-361.98C1187.06,-351.56 1216.23,-337.57 1239.71,-326.32"/>
<polygon fill="black" stroke="black" points="1241.22,-329.47 1248.72,-321.99 1238.19,-323.16 1241.22,-329.47"/>
</g>
<!-- HITs/colimit&#45;&gt;types/nat -->
<g id="edge35" class="edge">
<title>HITs/colimit&#45;&gt;types/nat</title>
<path fill="none" stroke="black" d="M1105.24,-361.64C1085.82,-351.26 1060.03,-337.48 1039.21,-326.35"/>
<polygon fill="black" stroke="black" points="1040.8,-323.23 1030.33,-321.61 1037.5,-329.41 1040.8,-323.23"/>
</g>
<!-- HITs/generalized&#45;&gt;HITs/merely -->
<g id="edge36" class="edge">
<title>HITs/generalized&#45;&gt;HITs/merely</title>
<path fill="none" stroke="black" d="M1301.07,-359.7C1297.92,-351.81 1294.11,-342.3 1290.61,-333.55"/>
<polygon fill="black" stroke="black" points="1293.8,-332.09 1286.83,-324.1 1287.3,-334.69 1293.8,-332.09"/>
</g>
<!-- HITs/pushout&#45;&gt;HITs/suspension -->
<g id="edge47" class="edge">
<title>HITs/pushout&#45;&gt;HITs/suspension</title>
<path fill="none" stroke="black" d="M925.83,-364.81C877.68,-353.1 804.75,-335.38 752.35,-322.64"/>
<polygon fill="black" stroke="black" points="753.02,-319.2 742.48,-320.24 751.37,-326.01 753.02,-319.2"/>
</g>
<!-- HITs/quotient&#45;&gt;algebra/group -->
<g id="edge48" class="edge">
<title>HITs/quotient&#45;&gt;algebra/group</title>
<path fill="none" stroke="black" d="M1348.74,-215.87C1344.13,-191.67 1335.68,-147.21 1330.2,-118.39"/>
<polygon fill="black" stroke="black" points="1333.57,-117.36 1328.26,-108.19 1326.69,-118.67 1333.57,-117.36"/>
</g>
<!-- cubical/path -->
<g id="node46" class="node">
<title>cubical/path</title>
<ellipse fill="none" stroke="black" cx="306.99" cy="-162" rx="67.69" ry="18"/>
<text text-anchor="middle" x="306.99" y="-158.3" font-family="Times,serif" font-size="14.00">cubical/path</text>
</g>
<!-- cubical/cubes&#45;&gt;cubical/path -->
<g id="edge52" class="edge">
<title>cubical/cubes&#45;&gt;cubical/path</title>
<path fill="none" stroke="black" d="M360.4,-216.41C351.51,-207.52 340.4,-196.41 330.62,-186.63"/>
<polygon fill="black" stroke="black" points="333.01,-184.07 323.46,-179.47 328.06,-189.02 333.01,-184.07"/>
</g>
<!-- theorems/prop&#45;&gt;algebra/eilenberg_maclane -->
<g id="edge62" class="edge">
<title>theorems/prop&#45;&gt;algebra/eilenberg_maclane</title>
<path fill="none" stroke="black" d="M881.93,-218.53C904.23,-209.48 931.56,-196.42 952.99,-180 980.05,-159.26 1039.99,-83.83 1070.84,-44.01"/>
<polygon fill="black" stroke="black" points="1073.61,-46.14 1076.95,-36.09 1068.07,-41.86 1073.61,-46.14"/>
</g>
<!-- theorems/prop&#45;&gt;HITs/circle -->
<g id="edge63" class="edge">
<title>theorems/prop&#45;&gt;HITs/circle</title>
<path fill="none" stroke="black" d="M801.47,-218.37C782.36,-209.65 760.31,-196.95 744.99,-180 729.12,-162.44 719.21,-137.25 713.5,-118.14"/>
<polygon fill="black" stroke="black" points="716.8,-116.94 710.76,-108.24 710.06,-118.82 716.8,-116.94"/>
</g>
<!-- theorems/prop&#45;&gt;types/precategory -->
<g id="edge64" class="edge">
<title>theorems/prop&#45;&gt;types/precategory</title>
<path fill="none" stroke="black" d="M842.97,-215.7C843.85,-207.98 844.91,-198.71 845.89,-190.11"/>
<polygon fill="black" stroke="black" points="849.38,-190.44 847.04,-180.1 842.43,-189.64 849.38,-190.44"/>
</g>
<!-- theorems/fibration&#45;&gt;theorems/hopf -->
<g id="edge57" class="edge">
<title>theorems/fibration&#45;&gt;theorems/hopf</title>
<path fill="none" stroke="black" d="M562.39,-143.87C561.54,-119.67 559.97,-75.21 558.96,-46.39"/>
<polygon fill="black" stroke="black" points="562.45,-46.06 558.6,-36.19 555.45,-46.31 562.45,-46.06"/>
</g>
<!-- theorems/functions&#45;&gt;algebra/group -->
<g id="edge58" class="edge">
<title>theorems/functions&#45;&gt;algebra/group</title>
<path fill="none" stroke="black" d="M1424.07,-144.76C1405.83,-134.86 1382.33,-122.12 1362.81,-111.52"/>
<polygon fill="black" stroke="black" points="1364.32,-108.36 1353.86,-106.67 1360.98,-114.51 1364.32,-108.36"/>
</g>
<!-- cubical/connection -->
<g id="node45" class="node">
<title>cubical/connection</title>
<ellipse fill="none" stroke="black" cx="270.99" cy="-90" rx="96.68" ry="18"/>
<text text-anchor="middle" x="270.99" y="-86.3" font-family="Times,serif" font-size="14.00">cubical/connection</text>
</g>
<!-- cubical/path&#45;&gt;cubical/connection -->
<g id="edge53" class="edge">
<title>cubical/path&#45;&gt;cubical/connection</title>
<path fill="none" stroke="black" d="M298.28,-144.05C294.14,-136.01 289.1,-126.2 284.48,-117.23"/>
<polygon fill="black" stroke="black" points="287.56,-115.57 279.88,-108.28 281.34,-118.77 287.56,-115.57"/>
</g>
<!-- cubical/square -->
<g id="node48" class="node">
<title>cubical/square</title>
<ellipse fill="none" stroke="black" cx="77.99" cy="-90" rx="77.99" ry="18"/>
<text text-anchor="middle" x="77.99" y="-86.3" font-family="Times,serif" font-size="14.00">cubical/square</text>
</g>
<!-- cubical/path&#45;&gt;cubical/square -->
<g id="edge54" class="edge">
<title>cubical/path&#45;&gt;cubical/square</title>
<path fill="none" stroke="black" d="M264.46,-148C227.29,-136.64 173.12,-120.08 132.73,-107.73"/>
<polygon fill="black" stroke="black" points="133.63,-104.35 123.04,-104.77 131.58,-111.04 133.63,-104.35"/>
</g>
<!-- cubical/path&#45;&gt;cubical/V -->
<g id="edge55" class="edge">
<title>cubical/path&#45;&gt;cubical/V</title>
<path fill="none" stroke="black" d="M335.74,-145.64C355.16,-135.26 380.95,-121.48 401.78,-110.35"/>
<polygon fill="black" stroke="black" points="403.49,-113.41 410.66,-105.61 400.19,-107.23 403.49,-113.41"/>
</g>
<!-- cubical/example -->
<g id="node47" class="node">
<title>cubical/example</title>
<ellipse fill="none" stroke="black" cx="376.99" cy="-18" rx="85.29" ry="18"/>
<text text-anchor="middle" x="376.99" y="-14.3" font-family="Times,serif" font-size="14.00">cubical/example</text>
</g>
<!-- cubical/V&#45;&gt;cubical/example -->
<g id="edge56" class="edge">
<title>cubical/V&#45;&gt;cubical/example</title>
<path fill="none" stroke="black" d="M423.54,-72.41C416.05,-63.82 406.76,-53.16 398.45,-43.63"/>
<polygon fill="black" stroke="black" points="400.98,-41.2 391.77,-35.96 395.7,-45.79 400.98,-41.2"/>
</g>
</g>
</svg>
