<?xml version="1.0" encoding="UTF-8" standalone="no"?>
<!DOCTYPE svg PUBLIC "-//W3C//DTD SVG 1.1//EN"
 "http://www.w3.org/Graphics/SVG/1.1/DTD/svg11.dtd">
<!-- Generated by graphviz version 2.38.0 (20140413.2041)
 -->
<!-- Title: dependency_map Pages: 1 -->
<svg width="1629pt" height="764pt"
 viewBox="0.00 0.00 1628.59 764.00" xmlns="http://www.w3.org/2000/svg" xmlns:xlink="http://www.w3.org/1999/xlink">
<g id="graph0" class="graph" transform="scale(1 1) rotate(0) translate(4 760)">
<title>dependency_map</title>
<polygon fill="white" stroke="none" points="-4,4 -4,-760 1624.59,-760 1624.59,4 -4,4"/>
<!-- proto -->
<g id="node1" class="node"><title>proto</title>
<ellipse fill="none" stroke="black" cx="367.998" cy="-738" rx="30.5947" ry="18"/>
<text text-anchor="middle" x="367.998" y="-734.3" font-family="Times New Roman,serif" font-size="14.00">proto</text>
</g>
<!-- types/eq -->
<g id="node2" class="node"><title>types/eq</title>
<ellipse fill="none" stroke="black" cx="427.998" cy="-666" rx="41.6928" ry="18"/>
<text text-anchor="middle" x="427.998" y="-662.3" font-family="Times New Roman,serif" font-size="14.00">types/eq</text>
</g>
<!-- proto&#45;&gt;types/eq -->
<g id="edge1" class="edge"><title>proto&#45;&gt;types/eq</title>
<path fill="none" stroke="black" d="M381.314,-721.465C388.942,-712.566 398.68,-701.205 407.286,-691.164"/>
<polygon fill="black" stroke="black" points="410.033,-693.338 413.884,-683.467 404.718,-688.782 410.033,-693.338"/>
</g>
<!-- support -->
<g id="node4" class="node"><title>support</title>
<ellipse fill="none" stroke="black" cx="365.998" cy="-594" rx="38.9931" ry="18"/>
<text text-anchor="middle" x="365.998" y="-590.3" font-family="Times New Roman,serif" font-size="14.00">support</text>
</g>
<!-- types/eq&#45;&gt;support -->
<g id="edge12" class="edge"><title>types/eq&#45;&gt;support</title>
<path fill="none" stroke="black" d="M413.618,-648.765C405.715,-639.841 395.765,-628.608 387.007,-618.719"/>
<polygon fill="black" stroke="black" points="389.551,-616.313 380.3,-611.147 384.31,-620.954 389.551,-616.313"/>
</g>
<!-- types/dep_path -->
<g id="node19" class="node"><title>types/dep_path</title>
<ellipse fill="none" stroke="black" cx="489.998" cy="-594" rx="66.8882" ry="18"/>
<text text-anchor="middle" x="489.998" y="-590.3" font-family="Times New Roman,serif" font-size="14.00">types/dep_path</text>
</g>
<!-- types/eq&#45;&gt;types/dep_path -->
<g id="edge13" class="edge"><title>types/eq&#45;&gt;types/dep_path</title>
<path fill="none" stroke="black" d="M442.378,-648.765C450.169,-639.969 459.947,-628.928 468.614,-619.144"/>
<polygon fill="black" stroke="black" points="471.256,-621.44 475.266,-611.633 466.015,-616.799 471.256,-621.44"/>
</g>
<!-- meta/hott_theory -->
<g id="node3" class="node"><title>meta/hott_theory</title>
<ellipse fill="none" stroke="black" cx="488.998" cy="-738" rx="72.2875" ry="18"/>
<text text-anchor="middle" x="488.998" y="-734.3" font-family="Times New Roman,serif" font-size="14.00">meta/hott_theory</text>
</g>
<!-- meta/hott_theory&#45;&gt;types/eq -->
<g id="edge2" class="edge"><title>meta/hott_theory&#45;&gt;types/eq</title>
<path fill="none" stroke="black" d="M474.232,-720.055C466.629,-711.33 457.23,-700.544 448.896,-690.981"/>
<polygon fill="black" stroke="black" points="451.417,-688.547 442.209,-683.307 446.14,-693.146 451.417,-688.547"/>
</g>
<!-- types/equiv -->
<g id="node5" class="node"><title>types/equiv</title>
<ellipse fill="none" stroke="black" cx="489.998" cy="-522" rx="51.9908" ry="18"/>
<text text-anchor="middle" x="489.998" y="-518.3" font-family="Times New Roman,serif" font-size="14.00">types/equiv</text>
</g>
<!-- support&#45;&gt;types/equiv -->
<g id="edge3" class="edge"><title>support&#45;&gt;types/equiv</title>
<path fill="none" stroke="black" d="M389.614,-579.669C408.099,-569.233 434.09,-554.561 454.994,-542.761"/>
<polygon fill="black" stroke="black" points="456.911,-545.698 463.899,-537.734 453.47,-539.602 456.911,-545.698"/>
</g>
<!-- HITs/infinitesimal -->
<g id="node12" class="node"><title>HITs/infinitesimal</title>
<ellipse fill="none" stroke="black" stroke-dasharray="5,2" cx="143.998" cy="-450" rx="74.9875" ry="18"/>
<text text-anchor="middle" x="143.998" y="-446.3" font-family="Times New Roman,serif" font-size="14.00">HITs/infinitesimal</text>
</g>
<!-- types/equiv&#45;&gt;HITs/infinitesimal -->
<g id="edge14" class="edge"><title>types/equiv&#45;&gt;HITs/infinitesimal</title>
<path fill="none" stroke="black" d="M446.177,-512.134C386.295,-500.02 278.439,-478.199 209.092,-464.169"/>
<polygon fill="black" stroke="black" points="209.646,-460.71 199.15,-462.158 208.258,-467.571 209.646,-460.71"/>
</g>
<!-- types/coproduct -->
<g id="node17" class="node"><title>types/coproduct</title>
<ellipse fill="none" stroke="black" cx="307.998" cy="-450" rx="70.6878" ry="18"/>
<text text-anchor="middle" x="307.998" y="-446.3" font-family="Times New Roman,serif" font-size="14.00">types/coproduct</text>
</g>
<!-- types/equiv&#45;&gt;types/coproduct -->
<g id="edge15" class="edge"><title>types/equiv&#45;&gt;types/coproduct</title>
<path fill="none" stroke="black" d="M456.617,-508.161C428.066,-497.18 386.66,-481.254 354.8,-469.001"/>
<polygon fill="black" stroke="black" points="355.834,-465.648 345.244,-465.325 353.321,-472.182 355.834,-465.648"/>
</g>
<!-- types/heq -->
<g id="node20" class="node"><title>types/heq</title>
<ellipse fill="none" stroke="black" cx="697.998" cy="-450" rx="46.2923" ry="18"/>
<text text-anchor="middle" x="697.998" y="-446.3" font-family="Times New Roman,serif" font-size="14.00">types/heq</text>
</g>
<!-- types/equiv&#45;&gt;types/heq -->
<g id="edge16" class="edge"><title>types/equiv&#45;&gt;types/heq</title>
<path fill="none" stroke="black" d="M526.229,-508.807C561.915,-496.797 616.458,-478.441 654.476,-465.647"/>
<polygon fill="black" stroke="black" points="655.886,-468.865 664.247,-462.359 653.653,-462.231 655.886,-468.865"/>
</g>
<!-- types/lost -->
<g id="node21" class="node"><title>types/lost</title>
<ellipse fill="none" stroke="black" cx="807.998" cy="-450" rx="46.2923" ry="18"/>
<text text-anchor="middle" x="807.998" y="-446.3" font-family="Times New Roman,serif" font-size="14.00">types/lost</text>
</g>
<!-- types/equiv&#45;&gt;types/lost -->
<g id="edge17" class="edge"><title>types/equiv&#45;&gt;types/lost</title>
<path fill="none" stroke="black" d="M535.926,-513.196C588.666,-503.899 677.619,-487.193 752.998,-468 756.6,-467.083 760.316,-466.074 764.037,-465.018"/>
<polygon fill="black" stroke="black" points="765.212,-468.321 773.823,-462.148 763.242,-461.604 765.212,-468.321"/>
</g>
<!-- types/unit -->
<g id="node22" class="node"><title>types/unit</title>
<ellipse fill="none" stroke="black" cx="442.998" cy="-450" rx="46.2923" ry="18"/>
<text text-anchor="middle" x="442.998" y="-446.3" font-family="Times New Roman,serif" font-size="14.00">types/unit</text>
</g>
<!-- types/equiv&#45;&gt;types/unit -->
<g id="edge18" class="edge"><title>types/equiv&#45;&gt;types/unit</title>
<path fill="none" stroke="black" d="M478.86,-504.411C473.265,-496.077 466.362,-485.797 460.112,-476.488"/>
<polygon fill="black" stroke="black" points="462.863,-474.307 454.383,-467.956 457.052,-478.209 462.863,-474.307"/>
</g>
<!-- types/sigma -->
<g id="node23" class="node"><title>types/sigma</title>
<ellipse fill="none" stroke="black" cx="590.998" cy="-378" rx="53.8905" ry="18"/>
<text text-anchor="middle" x="590.998" y="-374.3" font-family="Times New Roman,serif" font-size="14.00">types/sigma</text>
</g>
<!-- types/equiv&#45;&gt;types/sigma -->
<g id="edge19" class="edge"><title>types/equiv&#45;&gt;types/sigma</title>
<path fill="none" stroke="black" d="M501.782,-504.433C519.325,-479.769 552.445,-433.203 573.024,-404.271"/>
<polygon fill="black" stroke="black" points="576.033,-406.079 578.977,-395.902 570.328,-402.022 576.033,-406.079"/>
</g>
<!-- structures -->
<g id="node6" class="node"><title>structures</title>
<ellipse fill="none" stroke="black" cx="319.998" cy="-378" rx="46.2923" ry="18"/>
<text text-anchor="middle" x="319.998" y="-374.3" font-family="Times New Roman,serif" font-size="14.00">structures</text>
</g>
<!-- HITs/interval -->
<g id="node7" class="node"><title>HITs/interval</title>
<ellipse fill="none" stroke="black" cx="697.998" cy="-306" rx="57.6901" ry="18"/>
<text text-anchor="middle" x="697.998" y="-302.3" font-family="Times New Roman,serif" font-size="14.00">HITs/interval</text>
</g>
<!-- structures&#45;&gt;HITs/interval -->
<g id="edge4" class="edge"><title>structures&#45;&gt;HITs/interval</title>
<path fill="none" stroke="black" d="M360.81,-369.442C428.044,-356.992 562.326,-332.125 639.603,-317.814"/>
<polygon fill="black" stroke="black" points="640.461,-321.215 649.656,-315.952 639.186,-314.332 640.461,-321.215"/>
</g>
<!-- HITs/truncation -->
<g id="node8" class="node"><title>HITs/truncation</title>
<ellipse fill="none" stroke="black" cx="1066" cy="-234" rx="68.4888" ry="18"/>
<text text-anchor="middle" x="1066" y="-230.3" font-family="Times New Roman,serif" font-size="14.00">HITs/truncation</text>
</g>
<!-- structures&#45;&gt;HITs/truncation -->
<g id="edge5" class="edge"><title>structures&#45;&gt;HITs/truncation</title>
<path fill="none" stroke="black" d="M364.724,-373.281C470.38,-364.267 729.248,-340.763 764.998,-324 786.062,-314.123 782.348,-298.715 802.998,-288 861.186,-257.809 934.884,-244.795 989.452,-239.197"/>
<polygon fill="black" stroke="black" points="989.793,-242.68 999.41,-238.235 989.12,-235.713 989.793,-242.68"/>
</g>
<!-- algebra/core -->
<g id="node9" class="node"><title>algebra/core</title>
<ellipse fill="none" stroke="black" cx="240.998" cy="-306" rx="55.4913" ry="18"/>
<text text-anchor="middle" x="240.998" y="-302.3" font-family="Times New Roman,serif" font-size="14.00">algebra/core</text>
</g>
<!-- structures&#45;&gt;algebra/core -->
<g id="edge6" class="edge"><title>structures&#45;&gt;algebra/core</title>
<path fill="none" stroke="black" d="M302.072,-361.116C291.641,-351.874 278.315,-340.066 266.774,-329.84"/>
<polygon fill="black" stroke="black" points="268.933,-327.076 259.127,-323.064 264.29,-332.315 268.933,-327.076"/>
</g>
<!-- types/nat -->
<g id="node10" class="node"><title>types/nat</title>
<ellipse fill="none" stroke="black" cx="357.998" cy="-306" rx="43.5923" ry="18"/>
<text text-anchor="middle" x="357.998" y="-302.3" font-family="Times New Roman,serif" font-size="14.00">types/nat</text>
</g>
<!-- structures&#45;&gt;types/nat -->
<g id="edge7" class="edge"><title>structures&#45;&gt;types/nat</title>
<path fill="none" stroke="black" d="M329.197,-360.055C333.631,-351.887 339.046,-341.912 343.979,-332.824"/>
<polygon fill="black" stroke="black" points="347.189,-334.247 348.884,-323.789 341.037,-330.908 347.189,-334.247"/>
</g>
<!-- types/product -->
<g id="node27" class="node"><title>types/product</title>
<ellipse fill="none" stroke="black" cx="817.998" cy="-234" rx="61.99" ry="18"/>
<text text-anchor="middle" x="817.998" y="-230.3" font-family="Times New Roman,serif" font-size="14.00">types/product</text>
</g>
<!-- HITs/interval&#45;&gt;types/product -->
<g id="edge45" class="edge"><title>HITs/interval&#45;&gt;types/product</title>
<path fill="none" stroke="black" d="M724.036,-289.811C741.216,-279.79 763.933,-266.538 782.727,-255.575"/>
<polygon fill="black" stroke="black" points="784.722,-258.463 791.596,-250.401 781.195,-252.417 784.722,-258.463"/>
</g>
<!-- theorems/fibration -->
<g id="node29" class="node"><title>theorems/fibration</title>
<ellipse fill="none" stroke="black" cx="661.998" cy="-234" rx="76.8869" ry="18"/>
<text text-anchor="middle" x="661.998" y="-230.3" font-family="Times New Roman,serif" font-size="14.00">theorems/fibration</text>
</g>
<!-- HITs/interval&#45;&gt;theorems/fibration -->
<g id="edge46" class="edge"><title>HITs/interval&#45;&gt;theorems/fibration</title>
<path fill="none" stroke="black" d="M689.284,-288.055C685.145,-280.007 680.103,-270.205 675.486,-261.226"/>
<polygon fill="black" stroke="black" points="678.569,-259.567 670.883,-252.275 672.344,-262.769 678.569,-259.567"/>
</g>
<!-- theorems/prop -->
<g id="node39" class="node"><title>theorems/prop</title>
<ellipse fill="none" stroke="black" cx="877.998" cy="-162" rx="63.8893" ry="18"/>
<text text-anchor="middle" x="877.998" y="-158.3" font-family="Times New Roman,serif" font-size="14.00">theorems/prop</text>
</g>
<!-- HITs/interval&#45;&gt;theorems/prop -->
<g id="edge47" class="edge"><title>HITs/interval&#45;&gt;theorems/prop</title>
<path fill="none" stroke="black" d="M741.894,-294.24C796.861,-280.559 884.442,-257.992 888.998,-252 902.479,-234.269 897.457,-208.561 890.403,-189.329"/>
<polygon fill="black" stroke="black" points="893.602,-187.904 886.616,-179.939 887.11,-190.522 893.602,-187.904"/>
</g>
<!-- HITs/truncation&#45;&gt;theorems/prop -->
<g id="edge52" class="edge"><title>HITs/truncation&#45;&gt;theorems/prop</title>
<path fill="none" stroke="black" d="M1027.95,-218.834C998.103,-207.72 956.415,-192.198 924.569,-180.34"/>
<polygon fill="black" stroke="black" points="925.618,-176.996 915.025,-176.787 923.175,-183.556 925.618,-176.996"/>
</g>
<!-- HITs/simplicial -->
<g id="node41" class="node"><title>HITs/simplicial</title>
<ellipse fill="none" stroke="black" cx="1415" cy="-162" rx="65.7887" ry="18"/>
<text text-anchor="middle" x="1415" y="-158.3" font-family="Times New Roman,serif" font-size="14.00">HITs/simplicial</text>
</g>
<!-- HITs/truncation&#45;&gt;HITs/simplicial -->
<g id="edge53" class="edge"><title>HITs/truncation&#45;&gt;HITs/simplicial</title>
<path fill="none" stroke="black" d="M1120.38,-223.107C1175.94,-212.862 1264.64,-196.123 1341,-180 1346.24,-178.894 1351.68,-177.71 1357.12,-176.502"/>
<polygon fill="black" stroke="black" points="1357.9,-179.916 1366.89,-174.312 1356.36,-173.086 1357.9,-179.916"/>
</g>
<!-- theorems/mere_eq_lemma -->
<g id="node42" class="node"><title>theorems/mere_eq_lemma</title>
<ellipse fill="none" stroke="black" cx="1066" cy="-162" rx="105.881" ry="18"/>
<text text-anchor="middle" x="1066" y="-158.3" font-family="Times New Roman,serif" font-size="14.00">theorems/mere_eq_lemma</text>
</g>
<!-- HITs/truncation&#45;&gt;theorems/mere_eq_lemma -->
<g id="edge54" class="edge"><title>HITs/truncation&#45;&gt;theorems/mere_eq_lemma</title>
<path fill="none" stroke="black" d="M1066,-215.697C1066,-207.983 1066,-198.712 1066,-190.112"/>
<polygon fill="black" stroke="black" points="1069.5,-190.104 1066,-180.104 1062.5,-190.104 1069.5,-190.104"/>
</g>
<!-- theorems/graphs -->
<g id="node43" class="node"><title>theorems/graphs</title>
<ellipse fill="none" stroke="black" cx="1261" cy="-162" rx="70.6878" ry="18"/>
<text text-anchor="middle" x="1261" y="-158.3" font-family="Times New Roman,serif" font-size="14.00">theorems/graphs</text>
</g>
<!-- HITs/truncation&#45;&gt;theorems/graphs -->
<g id="edge55" class="edge"><title>HITs/truncation&#45;&gt;theorems/graphs</title>
<path fill="none" stroke="black" d="M1104.99,-219.003C1135.84,-207.927 1179.1,-192.399 1212.24,-180.502"/>
<polygon fill="black" stroke="black" points="1213.51,-183.766 1221.74,-177.093 1211.15,-177.177 1213.51,-183.766"/>
</g>
<!-- algebra/group -->
<g id="node16" class="node"><title>algebra/group</title>
<ellipse fill="none" stroke="black" cx="196.998" cy="-234" rx="60.3893" ry="18"/>
<text text-anchor="middle" x="196.998" y="-230.3" font-family="Times New Roman,serif" font-size="14.00">algebra/group</text>
</g>
<!-- algebra/core&#45;&gt;algebra/group -->
<g id="edge8" class="edge"><title>algebra/core&#45;&gt;algebra/group</title>
<path fill="none" stroke="black" d="M230.347,-288.055C225.159,-279.801 218.811,-269.701 213.051,-260.538"/>
<polygon fill="black" stroke="black" points="215.836,-258.393 207.551,-251.789 209.91,-262.118 215.836,-258.393"/>
</g>
<!-- HITs/circle -->
<g id="node11" class="node"><title>HITs/circle</title>
<ellipse fill="none" stroke="black" stroke-dasharray="5,2" cx="375.998" cy="-90" rx="51.9908" ry="18"/>
<text text-anchor="middle" x="375.998" y="-86.3" font-family="Times New Roman,serif" font-size="14.00">HITs/circle</text>
</g>
<!-- types/nat&#45;&gt;HITs/circle -->
<g id="edge26" class="edge"><title>types/nat&#45;&gt;HITs/circle</title>
<path fill="none" stroke="black" d="M336.157,-290.347C324.217,-280.961 310.556,-267.625 303.998,-252 297.806,-237.247 299.865,-231.457 303.998,-216 314.139,-178.076 338.856,-139.73 356.496,-115.696"/>
<polygon fill="black" stroke="black" points="359.432,-117.616 362.635,-107.517 353.833,-113.414 359.432,-117.616"/>
</g>
<!-- HITs/ntrunc -->
<g id="node13" class="node"><title>HITs/ntrunc</title>
<ellipse fill="none" stroke="black" stroke-dasharray="5,2" cx="365.998" cy="-18" rx="55.4913" ry="18"/>
<text text-anchor="middle" x="365.998" y="-14.3" font-family="Times New Roman,serif" font-size="14.00">HITs/ntrunc</text>
</g>
<!-- HITs/circle&#45;&gt;HITs/ntrunc -->
<g id="edge35" class="edge"><title>HITs/circle&#45;&gt;HITs/ntrunc</title>
<path fill="none" stroke="black" d="M373.526,-71.6966C372.424,-63.9827 371.1,-54.7125 369.871,-46.1124"/>
<polygon fill="black" stroke="black" points="373.321,-45.5088 368.442,-36.1043 366.391,-46.4988 373.321,-45.5088"/>
</g>
<!-- theorems/hopf -->
<g id="node32" class="node"><title>theorems/hopf</title>
<ellipse fill="none" stroke="black" cx="502.998" cy="-18" rx="63.8893" ry="18"/>
<text text-anchor="middle" x="502.998" y="-14.3" font-family="Times New Roman,serif" font-size="14.00">theorems/hopf</text>
</g>
<!-- HITs/circle&#45;&gt;theorems/hopf -->
<g id="edge36" class="edge"><title>HITs/circle&#45;&gt;theorems/hopf</title>
<path fill="none" stroke="black" d="M402.622,-74.3257C421.04,-64.1741 445.792,-50.5313 466.107,-39.3336"/>
<polygon fill="black" stroke="black" points="468.022,-42.2745 475.091,-34.3821 464.643,-36.144 468.022,-42.2745"/>
</g>
<!-- theorems/ua -->
<g id="node14" class="node"><title>theorems/ua</title>
<ellipse fill="none" stroke="black" stroke-dasharray="5,2" cx="602.998" cy="-162" rx="54.6905" ry="18"/>
<text text-anchor="middle" x="602.998" y="-158.3" font-family="Times New Roman,serif" font-size="14.00">theorems/ua</text>
</g>
<!-- theorems/ua&#45;&gt;HITs/circle -->
<g id="edge64" class="edge"><title>theorems/ua&#45;&gt;HITs/circle</title>
<path fill="none" stroke="black" d="M564.491,-149.125C525.495,-137.1 465.122,-118.483 423.253,-105.572"/>
<polygon fill="black" stroke="black" points="424.148,-102.185 413.56,-102.583 422.085,-108.874 424.148,-102.185"/>
</g>
<!-- cubical/V -->
<g id="node15" class="node"><title>cubical/V</title>
<ellipse fill="none" stroke="black" stroke-dasharray="5,2" cx="629.998" cy="-18" rx="45.4919" ry="18"/>
<text text-anchor="middle" x="629.998" y="-14.3" font-family="Times New Roman,serif" font-size="14.00">cubical/V</text>
</g>
<!-- theorems/ua&#45;&gt;cubical/V -->
<g id="edge65" class="edge"><title>theorems/ua&#45;&gt;cubical/V</title>
<path fill="none" stroke="black" d="M606.255,-143.871C610.857,-119.67 619.31,-75.2108 624.79,-46.3932"/>
<polygon fill="black" stroke="black" points="628.3,-46.6671 626.73,-36.1893 621.423,-45.3594 628.3,-46.6671"/>
</g>
<!-- types/coproduct&#45;&gt;structures -->
<g id="edge9" class="edge"><title>types/coproduct&#45;&gt;structures</title>
<path fill="none" stroke="black" d="M310.965,-431.697C312.287,-423.983 313.876,-414.712 315.35,-406.112"/>
<polygon fill="black" stroke="black" points="318.826,-406.552 317.066,-396.104 311.927,-405.369 318.826,-406.552"/>
</g>
<!-- types/integer -->
<g id="node18" class="node"><title>types/integer</title>
<ellipse fill="none" stroke="black" cx="117.998" cy="-378" rx="56.59" ry="18"/>
<text text-anchor="middle" x="117.998" y="-374.3" font-family="Times New Roman,serif" font-size="14.00">types/integer</text>
</g>
<!-- types/coproduct&#45;&gt;types/integer -->
<g id="edge10" class="edge"><title>types/coproduct&#45;&gt;types/integer</title>
<path fill="none" stroke="black" d="M269.549,-434.834C238.791,-423.502 195.598,-407.589 163.189,-395.649"/>
<polygon fill="black" stroke="black" points="164.096,-392.253 153.502,-392.081 161.676,-398.822 164.096,-392.253"/>
</g>
<!-- types/integer&#45;&gt;algebra/core -->
<g id="edge23" class="edge"><title>types/integer&#45;&gt;algebra/core</title>
<path fill="none" stroke="black" d="M144.385,-361.983C162.301,-351.787 186.195,-338.189 205.738,-327.067"/>
<polygon fill="black" stroke="black" points="207.695,-329.98 214.655,-321.992 204.233,-323.896 207.695,-329.98"/>
</g>
<!-- types/integer&#45;&gt;HITs/circle -->
<g id="edge24" class="edge"><title>types/integer&#45;&gt;HITs/circle</title>
<path fill="none" stroke="black" d="M91.0256,-362.131C75.9514,-352.758 57.7014,-339.508 44.9983,-324 13.1939,-285.172 -17.1645,-256.849 11.9983,-216 80.9453,-119.424 229.407,-96.6855 313.881,-91.8163"/>
<polygon fill="black" stroke="black" points="314.297,-95.2998 324.106,-91.2963 313.941,-88.3088 314.297,-95.2998"/>
</g>
<!-- HITs/reals -->
<g id="node26" class="node"><title>HITs/reals</title>
<ellipse fill="none" stroke="black" cx="69.9983" cy="-234" rx="48.9926" ry="18"/>
<text text-anchor="middle" x="69.9983" y="-230.3" font-family="Times New Roman,serif" font-size="14.00">HITs/reals</text>
</g>
<!-- types/integer&#45;&gt;HITs/reals -->
<g id="edge25" class="edge"><title>types/integer&#45;&gt;HITs/reals</title>
<path fill="none" stroke="black" d="M90.1531,-362.267C76.236,-353.254 60.7437,-340.309 52.9983,-324 43.5599,-304.126 49.5089,-279.402 56.8491,-261.06"/>
<polygon fill="black" stroke="black" points="60.0744,-262.42 60.8603,-251.855 53.6571,-259.624 60.0744,-262.42"/>
</g>
<!-- types/dep_path&#45;&gt;types/equiv -->
<g id="edge11" class="edge"><title>types/dep_path&#45;&gt;types/equiv</title>
<path fill="none" stroke="black" d="M489.998,-575.697C489.998,-567.983 489.998,-558.712 489.998,-550.112"/>
<polygon fill="black" stroke="black" points="493.498,-550.104 489.998,-540.104 486.498,-550.104 493.498,-550.104"/>
</g>
<!-- types/heq&#45;&gt;HITs/interval -->
<g id="edge20" class="edge"><title>types/heq&#45;&gt;HITs/interval</title>
<path fill="none" stroke="black" d="M697.998,-431.871C697.998,-407.67 697.998,-363.211 697.998,-334.393"/>
<polygon fill="black" stroke="black" points="701.498,-334.189 697.998,-324.189 694.498,-334.189 701.498,-334.189"/>
</g>
<!-- HITs/int -->
<g id="node24" class="node"><title>HITs/int</title>
<ellipse fill="none" stroke="black" cx="1349" cy="-378" rx="40.8928" ry="18"/>
<text text-anchor="middle" x="1349" y="-374.3" font-family="Times New Roman,serif" font-size="14.00">HITs/int</text>
</g>
<!-- types/heq&#45;&gt;HITs/int -->
<g id="edge21" class="edge"><title>types/heq&#45;&gt;HITs/int</title>
<path fill="none" stroke="black" d="M731.451,-437.43C738.498,-435.341 745.938,-433.389 752.998,-432 857.095,-411.523 1174.5,-389.982 1298.56,-382.111"/>
<polygon fill="black" stroke="black" points="1298.79,-385.603 1308.55,-381.479 1298.35,-378.617 1298.79,-385.603"/>
</g>
<!-- HITs/graph -->
<g id="node25" class="node"><title>HITs/graph</title>
<ellipse fill="none" stroke="black" cx="961.998" cy="-378" rx="52.7911" ry="18"/>
<text text-anchor="middle" x="961.998" y="-374.3" font-family="Times New Roman,serif" font-size="14.00">HITs/graph</text>
</g>
<!-- types/heq&#45;&gt;HITs/graph -->
<g id="edge22" class="edge"><title>types/heq&#45;&gt;HITs/graph</title>
<path fill="none" stroke="black" d="M732.538,-438.027C739.304,-435.962 746.36,-433.866 752.998,-432 806.21,-417.04 867.571,-401.705 909.977,-391.404"/>
<polygon fill="black" stroke="black" points="910.901,-394.782 919.796,-389.027 909.254,-387.978 910.901,-394.782"/>
</g>
<!-- types/unit&#45;&gt;structures -->
<g id="edge32" class="edge"><title>types/unit&#45;&gt;structures</title>
<path fill="none" stroke="black" d="M418.107,-434.834C399.723,-424.372 374.477,-410.004 354.199,-398.464"/>
<polygon fill="black" stroke="black" points="355.697,-395.289 345.274,-393.385 352.234,-401.373 355.697,-395.289"/>
</g>
<!-- types/unit&#45;&gt;types/nat -->
<g id="edge33" class="edge"><title>types/unit&#45;&gt;types/nat</title>
<path fill="none" stroke="black" d="M432.914,-432.153C418.152,-407.493 390.546,-361.374 373.282,-332.533"/>
<polygon fill="black" stroke="black" points="376.209,-330.608 368.07,-323.825 370.203,-334.203 376.209,-330.608"/>
</g>
<!-- HITs/suspension -->
<g id="node31" class="node"><title>HITs/suspension</title>
<ellipse fill="none" stroke="black" cx="385.998" cy="-234" rx="72.5877" ry="18"/>
<text text-anchor="middle" x="385.998" y="-230.3" font-family="Times New Roman,serif" font-size="14.00">HITs/suspension</text>
</g>
<!-- types/unit&#45;&gt;HITs/suspension -->
<g id="edge34" class="edge"><title>types/unit&#45;&gt;HITs/suspension</title>
<path fill="none" stroke="black" d="M440.975,-431.726C437.168,-401.86 427.774,-338.882 410.998,-288 408.068,-279.111 404.015,-269.766 400.024,-261.441"/>
<polygon fill="black" stroke="black" points="403.027,-259.619 395.44,-252.224 396.76,-262.737 403.027,-259.619"/>
</g>
<!-- types/sigma&#45;&gt;theorems/fibration -->
<g id="edge29" class="edge"><title>types/sigma&#45;&gt;theorems/fibration</title>
<path fill="none" stroke="black" d="M597.992,-360.015C605.592,-341.915 618.35,-312.545 630.998,-288 635.66,-278.954 641.156,-269.284 646.216,-260.713"/>
<polygon fill="black" stroke="black" points="649.342,-262.305 651.475,-251.927 643.336,-258.71 649.342,-262.305"/>
</g>
<!-- HITs/rat -->
<g id="node38" class="node"><title>HITs/rat</title>
<ellipse fill="none" stroke="black" cx="1579" cy="-306" rx="41.6928" ry="18"/>
<text text-anchor="middle" x="1579" y="-302.3" font-family="Times New Roman,serif" font-size="14.00">HITs/rat</text>
</g>
<!-- HITs/int&#45;&gt;HITs/rat -->
<g id="edge44" class="edge"><title>HITs/int&#45;&gt;HITs/rat</title>
<path fill="none" stroke="black" d="M1381.95,-366.971C1422.48,-354.635 1491.39,-333.663 1536.04,-320.074"/>
<polygon fill="black" stroke="black" points="1537.19,-323.384 1545.73,-317.124 1535.15,-316.688 1537.19,-323.384"/>
</g>
<!-- HITs/colimit -->
<g id="node33" class="node"><title>HITs/colimit</title>
<ellipse fill="none" stroke="black" cx="1037" cy="-306" rx="56.59" ry="18"/>
<text text-anchor="middle" x="1037" y="-302.3" font-family="Times New Roman,serif" font-size="14.00">HITs/colimit</text>
</g>
<!-- HITs/graph&#45;&gt;HITs/colimit -->
<g id="edge39" class="edge"><title>HITs/graph&#45;&gt;HITs/colimit</title>
<path fill="none" stroke="black" d="M979.393,-360.765C989.143,-351.665 1001.47,-340.162 1012.21,-330.134"/>
<polygon fill="black" stroke="black" points="1014.78,-332.529 1019.7,-323.147 1010,-327.412 1014.78,-332.529"/>
</g>
<!-- HITs/generalized -->
<g id="node34" class="node"><title>HITs/generalized</title>
<ellipse fill="none" stroke="black" cx="1184" cy="-306" rx="72.2875" ry="18"/>
<text text-anchor="middle" x="1184" y="-302.3" font-family="Times New Roman,serif" font-size="14.00">HITs/generalized</text>
</g>
<!-- HITs/graph&#45;&gt;HITs/generalized -->
<g id="edge40" class="edge"><title>HITs/graph&#45;&gt;HITs/generalized</title>
<path fill="none" stroke="black" d="M999.406,-365.205C1035.59,-353.794 1090.78,-336.394 1131.38,-323.59"/>
<polygon fill="black" stroke="black" points="1132.63,-326.868 1141.11,-320.522 1130.52,-320.192 1132.63,-326.868"/>
</g>
<!-- HITs/pushout -->
<g id="node35" class="node"><title>HITs/pushout</title>
<ellipse fill="none" stroke="black" cx="521.998" cy="-306" rx="61.99" ry="18"/>
<text text-anchor="middle" x="521.998" y="-302.3" font-family="Times New Roman,serif" font-size="14.00">HITs/pushout</text>
</g>
<!-- HITs/graph&#45;&gt;HITs/pushout -->
<g id="edge41" class="edge"><title>HITs/graph&#45;&gt;HITs/pushout</title>
<path fill="none" stroke="black" d="M915.327,-369.575C835.892,-356.938 674.354,-331.238 584.988,-317.021"/>
<polygon fill="black" stroke="black" points="585.412,-313.545 574.986,-315.43 584.312,-320.458 585.412,-313.545"/>
</g>
<!-- HITs/moebius -->
<g id="node36" class="node"><title>HITs/moebius</title>
<ellipse fill="none" stroke="black" cx="1371" cy="-18" rx="63.0888" ry="18"/>
<text text-anchor="middle" x="1371" y="-14.3" font-family="Times New Roman,serif" font-size="14.00">HITs/moebius</text>
</g>
<!-- HITs/graph&#45;&gt;HITs/moebius -->
<g id="edge42" class="edge"><title>HITs/graph&#45;&gt;HITs/moebius</title>
<path fill="none" stroke="black" d="M1013.95,-374.574C1150.49,-366.789 1509,-336.67 1509,-235 1509,-235 1509,-235 1509,-161 1509,-104.431 1451.98,-61.9148 1411.24,-38.7581"/>
<polygon fill="black" stroke="black" points="1412.76,-35.5977 1402.31,-33.8386 1409.38,-41.7291 1412.76,-35.5977"/>
</g>
<!-- types/precategory -->
<g id="node37" class="node"><title>types/precategory</title>
<ellipse fill="none" stroke="black" cx="886.998" cy="-306" rx="75.2868" ry="18"/>
<text text-anchor="middle" x="886.998" y="-302.3" font-family="Times New Roman,serif" font-size="14.00">types/precategory</text>
</g>
<!-- HITs/graph&#45;&gt;types/precategory -->
<g id="edge43" class="edge"><title>HITs/graph&#45;&gt;types/precategory</title>
<path fill="none" stroke="black" d="M944.603,-360.765C934.993,-351.795 922.881,-340.49 912.246,-330.564"/>
<polygon fill="black" stroke="black" points="914.518,-327.898 904.82,-323.633 909.742,-333.015 914.518,-327.898"/>
</g>
<!-- types/product&#45;&gt;theorems/ua -->
<g id="edge27" class="edge"><title>types/product&#45;&gt;theorems/ua</title>
<path fill="none" stroke="black" d="M778.313,-220.079C742.226,-208.33 688.905,-190.97 650.551,-178.482"/>
<polygon fill="black" stroke="black" points="651.242,-175.027 640.65,-175.259 649.075,-181.683 651.242,-175.027"/>
</g>
<!-- cubical/cubes -->
<g id="node28" class="node"><title>cubical/cubes</title>
<ellipse fill="none" stroke="black" cx="735.998" cy="-162" rx="60.3893" ry="18"/>
<text text-anchor="middle" x="735.998" y="-158.3" font-family="Times New Roman,serif" font-size="14.00">cubical/cubes</text>
</g>
<!-- types/product&#45;&gt;cubical/cubes -->
<g id="edge28" class="edge"><title>types/product&#45;&gt;cubical/cubes</title>
<path fill="none" stroke="black" d="M798.98,-216.765C788.216,-207.576 774.583,-195.938 762.756,-185.842"/>
<polygon fill="black" stroke="black" points="764.792,-182.978 754.914,-179.147 760.247,-188.302 764.792,-182.978"/>
</g>
<!-- cubical/path -->
<g id="node45" class="node"><title>cubical/path</title>
<ellipse fill="none" stroke="black" cx="855.998" cy="-90" rx="54.6905" ry="18"/>
<text text-anchor="middle" x="855.998" y="-86.3" font-family="Times New Roman,serif" font-size="14.00">cubical/path</text>
</g>
<!-- cubical/cubes&#45;&gt;cubical/path -->
<g id="edge56" class="edge"><title>cubical/cubes&#45;&gt;cubical/path</title>
<path fill="none" stroke="black" d="M762.333,-145.638C779.645,-135.539 802.487,-122.215 821.28,-111.253"/>
<polygon fill="black" stroke="black" points="823.264,-114.147 830.138,-106.085 819.736,-108.101 823.264,-114.147"/>
</g>
<!-- theorems/fibration&#45;&gt;theorems/hopf -->
<g id="edge62" class="edge"><title>theorems/fibration&#45;&gt;theorems/hopf</title>
<path fill="none" stroke="black" d="M607.003,-221.317C582.845,-213.487 556.134,-200.679 538.998,-180 507.337,-141.792 502.042,-81.5607 501.927,-46.6146"/>
<polygon fill="black" stroke="black" points="505.431,-46.2559 502.044,-36.2168 498.431,-46.1765 505.431,-46.2559"/>
</g>
<!-- types/swale -->
<g id="node30" class="node"><title>types/swale</title>
<ellipse fill="none" stroke="black" cx="114.998" cy="-306" rx="52.7911" ry="18"/>
<text text-anchor="middle" x="114.998" y="-302.3" font-family="Times New Roman,serif" font-size="14.00">types/swale</text>
</g>
<!-- types/swale&#45;&gt;algebra/group -->
<g id="edge30" class="edge"><title>types/swale&#45;&gt;algebra/group</title>
<path fill="none" stroke="black" d="M133.605,-289.116C144.355,-279.939 158.068,-268.233 169.988,-258.057"/>
<polygon fill="black" stroke="black" points="172.563,-260.462 177.896,-251.307 168.018,-255.138 172.563,-260.462"/>
</g>
<!-- types/swale&#45;&gt;HITs/reals -->
<g id="edge31" class="edge"><title>types/swale&#45;&gt;HITs/reals</title>
<path fill="none" stroke="black" d="M104.105,-288.055C98.7434,-279.715 92.1709,-269.491 86.2315,-260.252"/>
<polygon fill="black" stroke="black" points="89.1429,-258.308 80.7912,-251.789 83.2547,-262.093 89.1429,-258.308"/>
</g>
<!-- HITs/suspension&#45;&gt;HITs/circle -->
<g id="edge51" class="edge"><title>HITs/suspension&#45;&gt;HITs/circle</title>
<path fill="none" stroke="black" d="M384.792,-215.871C383.088,-191.67 379.957,-147.211 377.927,-118.393"/>
<polygon fill="black" stroke="black" points="381.403,-117.919 377.209,-108.189 374.42,-118.41 381.403,-117.919"/>
</g>
<!-- HITs/colimit&#45;&gt;HITs/truncation -->
<g id="edge37" class="edge"><title>HITs/colimit&#45;&gt;HITs/truncation</title>
<path fill="none" stroke="black" d="M1044.02,-288.055C1047.28,-280.176 1051.24,-270.617 1054.9,-261.794"/>
<polygon fill="black" stroke="black" points="1058.25,-262.853 1058.84,-252.275 1051.78,-260.174 1058.25,-262.853"/>
</g>
<!-- HITs/generalized&#45;&gt;HITs/truncation -->
<g id="edge38" class="edge"><title>HITs/generalized&#45;&gt;HITs/truncation</title>
<path fill="none" stroke="black" d="M1157.22,-289.116C1140.78,-279.36 1119.51,-266.747 1101.65,-256.152"/>
<polygon fill="black" stroke="black" points="1103.05,-252.913 1092.67,-250.821 1099.48,-258.933 1103.05,-252.913"/>
</g>
<!-- HITs/pushout&#45;&gt;HITs/reals -->
<g id="edge48" class="edge"><title>HITs/pushout&#45;&gt;HITs/reals</title>
<path fill="none" stroke="black" d="M469.246,-296.64C450.831,-293.796 430.015,-290.665 410.998,-288 285.434,-270.401 252.113,-277.913 127.998,-252 123.896,-251.144 119.662,-250.141 115.438,-249.058"/>
<polygon fill="black" stroke="black" points="116.23,-245.646 105.663,-246.417 114.404,-252.404 116.23,-245.646"/>
</g>
<!-- HITs/pushout&#45;&gt;HITs/suspension -->
<g id="edge49" class="edge"><title>HITs/pushout&#45;&gt;HITs/suspension</title>
<path fill="none" stroke="black" d="M492.823,-289.983C473.018,-279.789 446.605,-266.195 424.999,-255.074"/>
<polygon fill="black" stroke="black" points="426.56,-251.941 416.066,-250.476 423.356,-258.165 426.56,-251.941"/>
</g>
<!-- HITs/join -->
<g id="node40" class="node"><title>HITs/join</title>
<ellipse fill="none" stroke="black" cx="521.998" cy="-234" rx="45.4919" ry="18"/>
<text text-anchor="middle" x="521.998" y="-230.3" font-family="Times New Roman,serif" font-size="14.00">HITs/join</text>
</g>
<!-- HITs/pushout&#45;&gt;HITs/join -->
<g id="edge50" class="edge"><title>HITs/pushout&#45;&gt;HITs/join</title>
<path fill="none" stroke="black" d="M521.998,-287.697C521.998,-279.983 521.998,-270.712 521.998,-262.112"/>
<polygon fill="black" stroke="black" points="525.498,-262.104 521.998,-252.104 518.498,-262.104 525.498,-262.104"/>
</g>
<!-- cubical/connection -->
<g id="node44" class="node"><title>cubical/connection</title>
<ellipse fill="none" stroke="black" cx="772.998" cy="-18" rx="79.0865" ry="18"/>
<text text-anchor="middle" x="772.998" y="-14.3" font-family="Times New Roman,serif" font-size="14.00">cubical/connection</text>
</g>
<!-- cubical/path&#45;&gt;cubical/V -->
<g id="edge57" class="edge"><title>cubical/path&#45;&gt;cubical/V</title>
<path fill="none" stroke="black" d="M817.66,-77.1255C778.02,-64.8476 716.193,-45.6975 674.441,-32.7653"/>
<polygon fill="black" stroke="black" points="675.396,-29.3971 664.808,-29.7817 673.324,-36.0837 675.396,-29.3971"/>
</g>
<!-- cubical/path&#45;&gt;HITs/moebius -->
<g id="edge58" class="edge"><title>cubical/path&#45;&gt;HITs/moebius</title>
<path fill="none" stroke="black" d="M905.379,-82.2881C998.573,-69.6209 1200.4,-42.1883 1305.06,-27.9623"/>
<polygon fill="black" stroke="black" points="1305.75,-31.4012 1315.19,-26.5861 1304.81,-24.4649 1305.75,-31.4012"/>
</g>
<!-- cubical/path&#45;&gt;cubical/connection -->
<g id="edge59" class="edge"><title>cubical/path&#45;&gt;cubical/connection</title>
<path fill="none" stroke="black" d="M836.748,-72.7646C826.009,-63.7076 812.448,-52.2705 800.596,-42.2756"/>
<polygon fill="black" stroke="black" points="802.622,-39.4049 792.721,-35.6334 798.109,-44.756 802.622,-39.4049"/>
</g>
<!-- cubical/example -->
<g id="node46" class="node"><title>cubical/example</title>
<ellipse fill="none" stroke="black" cx="938.998" cy="-18" rx="68.7879" ry="18"/>
<text text-anchor="middle" x="938.998" y="-14.3" font-family="Times New Roman,serif" font-size="14.00">cubical/example</text>
</g>
<!-- cubical/path&#45;&gt;cubical/example -->
<g id="edge60" class="edge"><title>cubical/path&#45;&gt;cubical/example</title>
<path fill="none" stroke="black" d="M875.249,-72.7646C886.066,-63.642 899.746,-52.1046 911.657,-42.0585"/>
<polygon fill="black" stroke="black" points="914.177,-44.5124 919.565,-35.3898 909.664,-39.1613 914.177,-44.5124"/>
</g>
<!-- cubical/square -->
<g id="node47" class="node"><title>cubical/square</title>
<ellipse fill="none" stroke="black" cx="1089" cy="-18" rx="63.0888" ry="18"/>
<text text-anchor="middle" x="1089" y="-14.3" font-family="Times New Roman,serif" font-size="14.00">cubical/square</text>
</g>
<!-- cubical/path&#45;&gt;cubical/square -->
<g id="edge61" class="edge"><title>cubical/path&#45;&gt;cubical/square</title>
<path fill="none" stroke="black" d="M894.997,-77.2836C934.058,-65.5485 994.392,-47.4224 1037.4,-34.5021"/>
<polygon fill="black" stroke="black" points="1038.54,-37.8124 1047.11,-31.5831 1036.53,-31.1084 1038.54,-37.8124"/>
</g>
<!-- theorems/functions -->
<g id="node48" class="node"><title>theorems/functions</title>
<ellipse fill="none" stroke="black" cx="654.998" cy="-594" rx="79.8859" ry="18"/>
<text text-anchor="middle" x="654.998" y="-590.3" font-family="Times New Roman,serif" font-size="14.00">theorems/functions</text>
</g>
<!-- theorems/functions&#45;&gt;types/equiv -->
<g id="edge63" class="edge"><title>theorems/functions&#45;&gt;types/equiv</title>
<path fill="none" stroke="black" d="M619.196,-577.811C593.167,-566.769 557.891,-551.803 530.776,-540.3"/>
<polygon fill="black" stroke="black" points="532.127,-537.071 521.554,-536.387 529.393,-543.515 532.127,-537.071"/>
</g>
<!-- theorems/topology -->
<g id="node49" class="node"><title>theorems/topology</title>
<ellipse fill="none" stroke="black" cx="657.998" cy="-738" rx="79.0865" ry="18"/>
<text text-anchor="middle" x="657.998" y="-734.3" font-family="Times New Roman,serif" font-size="14.00">theorems/topology</text>
</g>
</g>
</svg>
