<?xml version="1.0" encoding="UTF-8" standalone="no"?>
<!DOCTYPE svg PUBLIC "-//W3C//DTD SVG 1.1//EN"
 "http://www.w3.org/Graphics/SVG/1.1/DTD/svg11.dtd">
<!-- Generated by graphviz version 2.43.0 (0)
 -->
<!-- Title: dependency_map Pages: 1 -->
<svg width="1841pt" height="908pt"
 viewBox="0.00 0.00 1840.99 908.00" xmlns="http://www.w3.org/2000/svg" xmlns:xlink="http://www.w3.org/1999/xlink">
<g id="graph0" class="graph" transform="scale(1 1) rotate(0) translate(4 904)">
<title>dependency_map</title>
<polygon fill="white" stroke="transparent" points="-4,4 -4,-904 1836.99,-904 1836.99,4 -4,4"/>
<!-- proto -->
<g id="node1" class="node">
<title>proto</title>
<ellipse fill="none" stroke="black" cx="1322.99" cy="-882" rx="36" ry="18"/>
<text text-anchor="middle" x="1322.99" y="-878.3" font-family="Times,serif" font-size="14.00">proto</text>
</g>
<!-- types/eq -->
<g id="node2" class="node">
<title>types/eq</title>
<ellipse fill="none" stroke="black" cx="1394.99" cy="-810" rx="50.09" ry="18"/>
<text text-anchor="middle" x="1394.99" y="-806.3" font-family="Times,serif" font-size="14.00">types/eq</text>
</g>
<!-- proto&#45;&gt;types/eq -->
<g id="edge1" class="edge">
<title>proto&#45;&gt;types/eq</title>
<path fill="none" stroke="black" d="M1338.97,-865.46C1348.37,-856.32 1360.45,-844.59 1370.97,-834.35"/>
<polygon fill="black" stroke="black" points="1373.58,-836.7 1378.31,-827.22 1368.7,-831.68 1373.58,-836.7"/>
</g>
<!-- support -->
<g id="node4" class="node">
<title>support</title>
<ellipse fill="none" stroke="black" cx="1394.99" cy="-738" rx="46.59" ry="18"/>
<text text-anchor="middle" x="1394.99" y="-734.3" font-family="Times,serif" font-size="14.00">support</text>
</g>
<!-- types/eq&#45;&gt;support -->
<g id="edge15" class="edge">
<title>types/eq&#45;&gt;support</title>
<path fill="none" stroke="black" d="M1394.99,-791.7C1394.99,-783.98 1394.99,-774.71 1394.99,-766.11"/>
<polygon fill="black" stroke="black" points="1398.49,-766.1 1394.99,-756.1 1391.49,-766.1 1398.49,-766.1"/>
</g>
<!-- meta/hott_theory -->
<g id="node3" class="node">
<title>meta/hott_theory</title>
<ellipse fill="none" stroke="black" cx="1467.99" cy="-882" rx="90.98" ry="18"/>
<text text-anchor="middle" x="1467.99" y="-878.3" font-family="Times,serif" font-size="14.00">meta/hott_theory</text>
</g>
<!-- meta/hott_theory&#45;&gt;types/eq -->
<g id="edge2" class="edge">
<title>meta/hott_theory&#45;&gt;types/eq</title>
<path fill="none" stroke="black" d="M1450.32,-864.05C1441.04,-855.16 1429.52,-844.11 1419.4,-834.41"/>
<polygon fill="black" stroke="black" points="1421.64,-831.7 1412,-827.31 1416.79,-836.75 1421.64,-831.7"/>
</g>
<!-- types/equiv -->
<g id="node5" class="node">
<title>types/equiv</title>
<ellipse fill="none" stroke="black" cx="1394.99" cy="-666" rx="64.19" ry="18"/>
<text text-anchor="middle" x="1394.99" y="-662.3" font-family="Times,serif" font-size="14.00">types/equiv</text>
</g>
<!-- support&#45;&gt;types/equiv -->
<g id="edge3" class="edge">
<title>support&#45;&gt;types/equiv</title>
<path fill="none" stroke="black" d="M1394.99,-719.7C1394.99,-711.98 1394.99,-702.71 1394.99,-694.11"/>
<polygon fill="black" stroke="black" points="1398.49,-694.1 1394.99,-684.1 1391.49,-694.1 1398.49,-694.1"/>
</g>
<!-- types/coproduct -->
<g id="node19" class="node">
<title>types/coproduct</title>
<ellipse fill="none" stroke="black" cx="1262.99" cy="-522" rx="85.29" ry="18"/>
<text text-anchor="middle" x="1262.99" y="-518.3" font-family="Times,serif" font-size="14.00">types/coproduct</text>
</g>
<!-- types/equiv&#45;&gt;types/coproduct -->
<g id="edge18" class="edge">
<title>types/equiv&#45;&gt;types/coproduct</title>
<path fill="none" stroke="black" d="M1391.2,-647.79C1386.18,-628.41 1375.71,-596.9 1356.99,-576 1344.56,-562.12 1327.59,-551.02 1311.5,-542.64"/>
<polygon fill="black" stroke="black" points="1312.68,-539.32 1302.16,-538.02 1309.57,-545.59 1312.68,-539.32"/>
</g>
<!-- types/heq -->
<g id="node22" class="node">
<title>types/heq</title>
<ellipse fill="none" stroke="black" cx="1291.99" cy="-594" rx="55.79" ry="18"/>
<text text-anchor="middle" x="1291.99" y="-590.3" font-family="Times,serif" font-size="14.00">types/heq</text>
</g>
<!-- types/equiv&#45;&gt;types/heq -->
<g id="edge19" class="edge">
<title>types/equiv&#45;&gt;types/heq</title>
<path fill="none" stroke="black" d="M1371.62,-649.12C1357.3,-639.38 1338.79,-626.8 1323.22,-616.22"/>
<polygon fill="black" stroke="black" points="1325.16,-613.31 1314.92,-610.58 1321.22,-619.1 1325.16,-613.31"/>
</g>
<!-- HITs/infinitesimal -->
<g id="node23" class="node">
<title>HITs/infinitesimal</title>
<ellipse fill="none" stroke="black" cx="1534.99" cy="-594" rx="92.88" ry="18"/>
<text text-anchor="middle" x="1534.99" y="-590.3" font-family="Times,serif" font-size="14.00">HITs/infinitesimal</text>
</g>
<!-- types/equiv&#45;&gt;HITs/infinitesimal -->
<g id="edge20" class="edge">
<title>types/equiv&#45;&gt;HITs/infinitesimal</title>
<path fill="none" stroke="black" d="M1425.03,-649.98C1445.13,-639.93 1471.86,-626.57 1493.92,-615.54"/>
<polygon fill="black" stroke="black" points="1495.68,-618.57 1503.06,-610.97 1492.55,-612.31 1495.68,-618.57"/>
</g>
<!-- types/lost -->
<g id="node24" class="node">
<title>types/lost</title>
<ellipse fill="none" stroke="black" cx="1701.99" cy="-594" rx="55.79" ry="18"/>
<text text-anchor="middle" x="1701.99" y="-590.3" font-family="Times,serif" font-size="14.00">types/lost</text>
</g>
<!-- types/equiv&#45;&gt;types/lost -->
<g id="edge21" class="edge">
<title>types/equiv&#45;&gt;types/lost</title>
<path fill="none" stroke="black" d="M1445.18,-654.62C1494.22,-644.34 1570.92,-627.87 1636.99,-612 1641.39,-610.94 1645.94,-609.82 1650.5,-608.67"/>
<polygon fill="black" stroke="black" points="1651.62,-612 1660.45,-606.13 1649.89,-605.21 1651.62,-612"/>
</g>
<!-- types/unit -->
<g id="node25" class="node">
<title>types/unit</title>
<ellipse fill="none" stroke="black" cx="1454.99" cy="-450" rx="57.69" ry="18"/>
<text text-anchor="middle" x="1454.99" y="-446.3" font-family="Times,serif" font-size="14.00">types/unit</text>
</g>
<!-- types/equiv&#45;&gt;types/unit -->
<g id="edge22" class="edge">
<title>types/equiv&#45;&gt;types/unit</title>
<path fill="none" stroke="black" d="M1399.8,-647.85C1410.2,-610.75 1434.86,-522.81 1447.39,-478.1"/>
<polygon fill="black" stroke="black" points="1450.83,-478.81 1450.16,-468.23 1444.09,-476.92 1450.83,-478.81"/>
</g>
<!-- types/sigma -->
<g id="node26" class="node">
<title>types/sigma</title>
<ellipse fill="none" stroke="black" cx="900.99" cy="-522" rx="66.89" ry="18"/>
<text text-anchor="middle" x="900.99" y="-518.3" font-family="Times,serif" font-size="14.00">types/sigma</text>
</g>
<!-- types/equiv&#45;&gt;types/sigma -->
<g id="edge23" class="edge">
<title>types/equiv&#45;&gt;types/sigma</title>
<path fill="none" stroke="black" d="M1351.59,-652.52C1261.33,-626.58 1053.64,-566.88 954.96,-538.51"/>
<polygon fill="black" stroke="black" points="955.76,-535.1 945.19,-535.7 953.83,-541.83 955.76,-535.1"/>
</g>
<!-- structures -->
<g id="node6" class="node">
<title>structures</title>
<ellipse fill="none" stroke="black" cx="1072.99" cy="-378" rx="59.29" ry="18"/>
<text text-anchor="middle" x="1072.99" y="-374.3" font-family="Times,serif" font-size="14.00">structures</text>
</g>
<!-- HITs/interval -->
<g id="node7" class="node">
<title>HITs/interval</title>
<ellipse fill="none" stroke="black" cx="703.99" cy="-306" rx="71.49" ry="18"/>
<text text-anchor="middle" x="703.99" y="-302.3" font-family="Times,serif" font-size="14.00">HITs/interval</text>
</g>
<!-- structures&#45;&gt;HITs/interval -->
<g id="edge4" class="edge">
<title>structures&#45;&gt;HITs/interval</title>
<path fill="none" stroke="black" d="M1023.99,-367.7C958.46,-355.27 842.09,-333.2 769.21,-319.37"/>
<polygon fill="black" stroke="black" points="769.7,-315.9 759.22,-317.48 768.39,-322.78 769.7,-315.9"/>
</g>
<!-- HITs/merely -->
<g id="node8" class="node">
<title>HITs/merely</title>
<ellipse fill="none" stroke="black" cx="1411.99" cy="-306" rx="67.69" ry="18"/>
<text text-anchor="middle" x="1411.99" y="-302.3" font-family="Times,serif" font-size="14.00">HITs/merely</text>
</g>
<!-- structures&#45;&gt;HITs/merely -->
<g id="edge5" class="edge">
<title>structures&#45;&gt;HITs/merely</title>
<path fill="none" stroke="black" d="M1120.49,-367.19C1180.63,-354.77 1284.37,-333.35 1350.51,-319.7"/>
<polygon fill="black" stroke="black" points="1351.3,-323.11 1360.38,-317.66 1349.88,-316.25 1351.3,-323.11"/>
</g>
<!-- HITs/trunc -->
<g id="node9" class="node">
<title>HITs/trunc</title>
<ellipse fill="none" stroke="black" cx="1071.99" cy="-306" rx="59.59" ry="18"/>
<text text-anchor="middle" x="1071.99" y="-302.3" font-family="Times,serif" font-size="14.00">HITs/trunc</text>
</g>
<!-- structures&#45;&gt;HITs/trunc -->
<g id="edge6" class="edge">
<title>structures&#45;&gt;HITs/trunc</title>
<path fill="none" stroke="black" d="M1072.75,-359.7C1072.64,-351.98 1072.5,-342.71 1072.38,-334.11"/>
<polygon fill="black" stroke="black" points="1075.88,-334.05 1072.24,-324.1 1068.88,-334.15 1075.88,-334.05"/>
</g>
<!-- types/nat -->
<g id="node10" class="node">
<title>types/nat</title>
<ellipse fill="none" stroke="black" cx="1254.99" cy="-306" rx="53.89" ry="18"/>
<text text-anchor="middle" x="1254.99" y="-302.3" font-family="Times,serif" font-size="14.00">types/nat</text>
</g>
<!-- structures&#45;&gt;types/nat -->
<g id="edge7" class="edge">
<title>structures&#45;&gt;types/nat</title>
<path fill="none" stroke="black" d="M1108.08,-363.5C1137.57,-352.16 1179.85,-335.9 1211.48,-323.73"/>
<polygon fill="black" stroke="black" points="1212.86,-326.96 1220.93,-320.1 1210.34,-320.42 1212.86,-326.96"/>
</g>
<!-- theorems/ua -->
<g id="node11" class="node">
<title>theorems/ua</title>
<ellipse fill="none" stroke="black" cx="894.99" cy="-306" rx="68.79" ry="18"/>
<text text-anchor="middle" x="894.99" y="-302.3" font-family="Times,serif" font-size="14.00">theorems/ua</text>
</g>
<!-- structures&#45;&gt;theorems/ua -->
<g id="edge8" class="edge">
<title>structures&#45;&gt;theorems/ua</title>
<path fill="none" stroke="black" d="M1038.25,-363.34C1010.5,-352.42 971.36,-337.03 941.01,-325.09"/>
<polygon fill="black" stroke="black" points="942.07,-321.75 931.48,-321.35 939.51,-328.27 942.07,-321.75"/>
</g>
<!-- cubical/cubes -->
<g id="node42" class="node">
<title>cubical/cubes</title>
<ellipse fill="none" stroke="black" cx="333.99" cy="-234" rx="73.39" ry="18"/>
<text text-anchor="middle" x="333.99" y="-230.3" font-family="Times,serif" font-size="14.00">cubical/cubes</text>
</g>
<!-- HITs/interval&#45;&gt;cubical/cubes -->
<g id="edge45" class="edge">
<title>HITs/interval&#45;&gt;cubical/cubes</title>
<path fill="none" stroke="black" d="M648.6,-294.52C582.31,-281.98 471.4,-261 400.53,-247.59"/>
<polygon fill="black" stroke="black" points="400.85,-244.09 390.37,-245.67 399.55,-250.96 400.85,-244.09"/>
</g>
<!-- theorems/prop -->
<g id="node43" class="node">
<title>theorems/prop</title>
<ellipse fill="none" stroke="black" cx="852.99" cy="-234" rx="79.09" ry="18"/>
<text text-anchor="middle" x="852.99" y="-230.3" font-family="Times,serif" font-size="14.00">theorems/prop</text>
</g>
<!-- HITs/interval&#45;&gt;theorems/prop -->
<g id="edge46" class="edge">
<title>HITs/interval&#45;&gt;theorems/prop</title>
<path fill="none" stroke="black" d="M736.32,-289.81C758.24,-279.52 787.41,-265.81 811.1,-254.68"/>
<polygon fill="black" stroke="black" points="812.65,-257.82 820.21,-250.4 809.67,-251.49 812.65,-257.82"/>
</g>
<!-- theorems/fibration -->
<g id="node44" class="node">
<title>theorems/fibration</title>
<ellipse fill="none" stroke="black" cx="628.99" cy="-234" rx="96.68" ry="18"/>
<text text-anchor="middle" x="628.99" y="-230.3" font-family="Times,serif" font-size="14.00">theorems/fibration</text>
</g>
<!-- HITs/interval&#45;&gt;theorems/fibration -->
<g id="edge47" class="edge">
<title>HITs/interval&#45;&gt;theorems/fibration</title>
<path fill="none" stroke="black" d="M686.22,-288.41C676.67,-279.5 664.73,-268.36 654.23,-258.56"/>
<polygon fill="black" stroke="black" points="656.6,-255.98 646.9,-251.71 651.82,-261.09 656.6,-255.98"/>
</g>
<!-- HITs/merely&#45;&gt;theorems/prop -->
<g id="edge48" class="edge">
<title>HITs/merely&#45;&gt;theorems/prop</title>
<path fill="none" stroke="black" d="M1358.9,-294.77C1345.57,-292.38 1331.28,-289.96 1317.99,-288 1280.9,-282.54 1055.6,-257.4 932.75,-243.8"/>
<polygon fill="black" stroke="black" points="932.96,-240.3 922.64,-242.68 932.19,-247.26 932.96,-240.3"/>
</g>
<!-- HITs/simplicial -->
<g id="node46" class="node">
<title>HITs/simplicial</title>
<ellipse fill="none" stroke="black" cx="1427.99" cy="-234" rx="79.09" ry="18"/>
<text text-anchor="middle" x="1427.99" y="-230.3" font-family="Times,serif" font-size="14.00">HITs/simplicial</text>
</g>
<!-- HITs/merely&#45;&gt;HITs/simplicial -->
<g id="edge49" class="edge">
<title>HITs/merely&#45;&gt;HITs/simplicial</title>
<path fill="none" stroke="black" d="M1415.95,-287.7C1417.71,-279.98 1419.83,-270.71 1421.8,-262.11"/>
<polygon fill="black" stroke="black" points="1425.27,-262.63 1424.08,-252.1 1418.44,-261.07 1425.27,-262.63"/>
</g>
<!-- theorems/functions -->
<g id="node47" class="node">
<title>theorems/functions</title>
<ellipse fill="none" stroke="black" cx="1571.99" cy="-162" rx="100.98" ry="18"/>
<text text-anchor="middle" x="1571.99" y="-158.3" font-family="Times,serif" font-size="14.00">theorems/functions</text>
</g>
<!-- HITs/merely&#45;&gt;theorems/functions -->
<g id="edge50" class="edge">
<title>HITs/merely&#45;&gt;theorems/functions</title>
<path fill="none" stroke="black" d="M1450.63,-291.2C1471.65,-282.33 1497.14,-269.22 1515.99,-252 1535.36,-234.3 1550.63,-208.43 1560.3,-189.13"/>
<polygon fill="black" stroke="black" points="1563.52,-190.51 1564.72,-179.99 1557.22,-187.47 1563.52,-190.51"/>
</g>
<!-- HITs/quotient -->
<g id="node41" class="node">
<title>HITs/quotient</title>
<ellipse fill="none" stroke="black" cx="1092.99" cy="-234" rx="74.19" ry="18"/>
<text text-anchor="middle" x="1092.99" y="-230.3" font-family="Times,serif" font-size="14.00">HITs/quotient</text>
</g>
<!-- HITs/trunc&#45;&gt;HITs/quotient -->
<g id="edge55" class="edge">
<title>HITs/trunc&#45;&gt;HITs/quotient</title>
<path fill="none" stroke="black" d="M1077.08,-288.05C1079.41,-280.26 1082.25,-270.82 1084.87,-262.08"/>
<polygon fill="black" stroke="black" points="1088.29,-262.86 1087.81,-252.28 1081.58,-260.85 1088.29,-262.86"/>
</g>
<!-- theorems/nat -->
<g id="node31" class="node">
<title>theorems/nat</title>
<ellipse fill="none" stroke="black" cx="1257.99" cy="-234" rx="72.59" ry="18"/>
<text text-anchor="middle" x="1257.99" y="-230.3" font-family="Times,serif" font-size="14.00">theorems/nat</text>
</g>
<!-- types/nat&#45;&gt;theorems/nat -->
<g id="edge28" class="edge">
<title>types/nat&#45;&gt;theorems/nat</title>
<path fill="none" stroke="black" d="M1255.73,-287.7C1256.07,-279.98 1256.46,-270.71 1256.83,-262.11"/>
<polygon fill="black" stroke="black" points="1260.33,-262.25 1257.26,-252.1 1253.33,-261.95 1260.33,-262.25"/>
</g>
<!-- theorems/ua&#45;&gt;theorems/nat -->
<g id="edge72" class="edge">
<title>theorems/ua&#45;&gt;theorems/nat</title>
<path fill="none" stroke="black" d="M949.71,-294.98C1006.38,-284.53 1097.46,-267.54 1175.99,-252 1181.84,-250.84 1187.92,-249.62 1194,-248.38"/>
<polygon fill="black" stroke="black" points="1195.11,-251.73 1204.21,-246.29 1193.71,-244.87 1195.11,-251.73"/>
</g>
<!-- theorems/ua&#45;&gt;theorems/prop -->
<g id="edge73" class="edge">
<title>theorems/ua&#45;&gt;theorems/prop</title>
<path fill="none" stroke="black" d="M884.83,-288.05C879.95,-279.92 873.99,-270 868.56,-260.94"/>
<polygon fill="black" stroke="black" points="871.5,-259.05 863.36,-252.28 865.5,-262.65 871.5,-259.05"/>
</g>
<!-- cubical/V -->
<g id="node52" class="node">
<title>cubical/V</title>
<ellipse fill="none" stroke="black" cx="437.99" cy="-90" rx="52.79" ry="18"/>
<text text-anchor="middle" x="437.99" y="-86.3" font-family="Times,serif" font-size="14.00">cubical/V</text>
</g>
<!-- theorems/ua&#45;&gt;cubical/V -->
<g id="edge74" class="edge">
<title>theorems/ua&#45;&gt;cubical/V</title>
<path fill="none" stroke="black" d="M837.41,-296.01C820.23,-293.38 801.36,-290.53 783.99,-288 726.05,-279.57 570.95,-285.59 522.99,-252 477.05,-219.82 453.95,-154.87 444.11,-118.06"/>
<polygon fill="black" stroke="black" points="447.42,-116.88 441.57,-108.04 440.63,-118.6 447.42,-116.88"/>
</g>
<!-- algebra/eilenberg_maclane -->
<g id="node12" class="node">
<title>algebra/eilenberg_maclane</title>
<ellipse fill="none" stroke="black" cx="446.99" cy="-18" rx="135.68" ry="18"/>
<text text-anchor="middle" x="446.99" y="-14.3" font-family="Times,serif" font-size="14.00">algebra/eilenberg_maclane</text>
</g>
<!-- algebra/finite -->
<g id="node13" class="node">
<title>algebra/finite</title>
<ellipse fill="none" stroke="black" cx="1205.99" cy="-18" rx="72.59" ry="18"/>
<text text-anchor="middle" x="1205.99" y="-14.3" font-family="Times,serif" font-size="14.00">algebra/finite</text>
</g>
<!-- algebra/group -->
<g id="node14" class="node">
<title>algebra/group</title>
<ellipse fill="none" stroke="black" cx="1126.99" cy="-90" rx="76.09" ry="18"/>
<text text-anchor="middle" x="1126.99" y="-86.3" font-family="Times,serif" font-size="14.00">algebra/group</text>
</g>
<!-- algebra/group&#45;&gt;algebra/eilenberg_maclane -->
<g id="edge9" class="edge">
<title>algebra/group&#45;&gt;algebra/eilenberg_maclane</title>
<path fill="none" stroke="black" d="M1057.57,-82.56C955.34,-72.98 758.33,-54.15 590.99,-36 578.95,-34.69 566.34,-33.28 553.81,-31.84"/>
<polygon fill="black" stroke="black" points="554.12,-28.35 543.79,-30.68 553.32,-35.31 554.12,-28.35"/>
</g>
<!-- algebra/group&#45;&gt;algebra/finite -->
<g id="edge10" class="edge">
<title>algebra/group&#45;&gt;algebra/finite</title>
<path fill="none" stroke="black" d="M1145.71,-72.41C1155.85,-63.43 1168.53,-52.19 1179.65,-42.34"/>
<polygon fill="black" stroke="black" points="1182.24,-44.72 1187.41,-35.47 1177.6,-39.48 1182.24,-44.72"/>
</g>
<!-- algebra/homology -->
<g id="node15" class="node">
<title>algebra/homology</title>
<ellipse fill="none" stroke="black" cx="693.99" cy="-18" rx="93.68" ry="18"/>
<text text-anchor="middle" x="693.99" y="-14.3" font-family="Times,serif" font-size="14.00">algebra/homology</text>
</g>
<!-- algebra/group&#45;&gt;algebra/homology -->
<g id="edge11" class="edge">
<title>algebra/group&#45;&gt;algebra/homology</title>
<path fill="none" stroke="black" d="M1065.66,-79.3C999.2,-68.76 890.04,-51.37 795.99,-36 788.18,-34.72 780.04,-33.38 771.91,-32.04"/>
<polygon fill="black" stroke="black" points="772.46,-28.58 762.02,-30.4 771.31,-35.49 772.46,-28.58"/>
</g>
<!-- algebra/ring -->
<g id="node16" class="node">
<title>algebra/ring</title>
<ellipse fill="none" stroke="black" cx="872.99" cy="-18" rx="67.69" ry="18"/>
<text text-anchor="middle" x="872.99" y="-14.3" font-family="Times,serif" font-size="14.00">algebra/ring</text>
</g>
<!-- algebra/group&#45;&gt;algebra/ring -->
<g id="edge12" class="edge">
<title>algebra/group&#45;&gt;algebra/ring</title>
<path fill="none" stroke="black" d="M1079.52,-75.92C1036.53,-64.07 973.21,-46.62 928.03,-34.17"/>
<polygon fill="black" stroke="black" points="928.68,-30.72 918.1,-31.43 926.82,-37.46 928.68,-30.72"/>
</g>
<!-- algebra/Z -->
<g id="node17" class="node">
<title>algebra/Z</title>
<ellipse fill="none" stroke="black" cx="1351.99" cy="-18" rx="55.49" ry="18"/>
<text text-anchor="middle" x="1351.99" y="-14.3" font-family="Times,serif" font-size="14.00">algebra/Z</text>
</g>
<!-- algebra/group&#45;&gt;algebra/Z -->
<g id="edge13" class="edge">
<title>algebra/group&#45;&gt;algebra/Z</title>
<path fill="none" stroke="black" d="M1171.18,-75.25C1209.4,-63.36 1264.57,-46.2 1303.89,-33.96"/>
<polygon fill="black" stroke="black" points="1305.02,-37.28 1313.53,-30.97 1302.94,-30.59 1305.02,-37.28"/>
</g>
<!-- types/category -->
<g id="node18" class="node">
<title>types/category</title>
<ellipse fill="none" stroke="black" cx="663.99" cy="-90" rx="79.09" ry="18"/>
<text text-anchor="middle" x="663.99" y="-86.3" font-family="Times,serif" font-size="14.00">types/category</text>
</g>
<!-- types/coproduct&#45;&gt;structures -->
<g id="edge14" class="edge">
<title>types/coproduct&#45;&gt;structures</title>
<path fill="none" stroke="black" d="M1244.47,-504.12C1223.79,-485.59 1189.01,-455.38 1156.99,-432 1141.39,-420.61 1123.36,-409.04 1108.01,-399.63"/>
<polygon fill="black" stroke="black" points="1109.69,-396.55 1099.33,-394.35 1106.06,-402.54 1109.69,-396.55"/>
</g>
<!-- types/ens -->
<g id="node20" class="node">
<title>types/ens</title>
<ellipse fill="none" stroke="black" cx="831.99" cy="-162" rx="55.49" ry="18"/>
<text text-anchor="middle" x="831.99" y="-158.3" font-family="Times,serif" font-size="14.00">types/ens</text>
</g>
<!-- types/ens&#45;&gt;algebra/group -->
<g id="edge16" class="edge">
<title>types/ens&#45;&gt;algebra/group</title>
<path fill="none" stroke="black" d="M873.25,-149.82C880.81,-147.84 888.63,-145.82 895.99,-144 952.37,-130.05 1016.8,-115.37 1063.26,-105.01"/>
<polygon fill="black" stroke="black" points="1064.19,-108.39 1073.19,-102.8 1062.67,-101.55 1064.19,-108.39"/>
</g>
<!-- types/setquot -->
<g id="node21" class="node">
<title>types/setquot</title>
<ellipse fill="none" stroke="black" cx="834.99" cy="-90" rx="74.19" ry="18"/>
<text text-anchor="middle" x="834.99" y="-86.3" font-family="Times,serif" font-size="14.00">types/setquot</text>
</g>
<!-- types/ens&#45;&gt;types/setquot -->
<g id="edge17" class="edge">
<title>types/ens&#45;&gt;types/setquot</title>
<path fill="none" stroke="black" d="M832.73,-143.7C833.07,-135.98 833.46,-126.71 833.83,-118.11"/>
<polygon fill="black" stroke="black" points="837.33,-118.25 834.26,-108.1 830.33,-117.95 837.33,-118.25"/>
</g>
<!-- HITs/graph -->
<g id="node27" class="node">
<title>HITs/graph</title>
<ellipse fill="none" stroke="black" cx="1316.99" cy="-450" rx="62.29" ry="18"/>
<text text-anchor="middle" x="1316.99" y="-446.3" font-family="Times,serif" font-size="14.00">HITs/graph</text>
</g>
<!-- types/heq&#45;&gt;HITs/graph -->
<g id="edge24" class="edge">
<title>types/heq&#45;&gt;HITs/graph</title>
<path fill="none" stroke="black" d="M1319.84,-578.27C1333.76,-569.25 1349.25,-556.31 1356.99,-540 1363.86,-525.55 1362.08,-519.17 1356.99,-504 1353.53,-493.67 1347.18,-483.74 1340.53,-475.33"/>
<polygon fill="black" stroke="black" points="1343.02,-472.85 1333.89,-467.47 1337.67,-477.37 1343.02,-472.85"/>
</g>
<!-- theorems/funext -->
<g id="node28" class="node">
<title>theorems/funext</title>
<ellipse fill="none" stroke="black" cx="1072.99" cy="-522" rx="87.18" ry="18"/>
<text text-anchor="middle" x="1072.99" y="-518.3" font-family="Times,serif" font-size="14.00">theorems/funext</text>
</g>
<!-- types/heq&#45;&gt;theorems/funext -->
<g id="edge25" class="edge">
<title>types/heq&#45;&gt;theorems/funext</title>
<path fill="none" stroke="black" d="M1253.85,-580.81C1219.05,-569.68 1167.23,-553.12 1127.96,-540.57"/>
<polygon fill="black" stroke="black" points="1128.86,-537.18 1118.27,-537.47 1126.73,-543.85 1128.86,-537.18"/>
</g>
<!-- types/unit&#45;&gt;structures -->
<g id="edge32" class="edge">
<title>types/unit&#45;&gt;structures</title>
<path fill="none" stroke="black" d="M1412.58,-437.68C1404.45,-435.67 1395.98,-433.68 1387.99,-432 1363.61,-426.87 1218.26,-402.83 1133.77,-388.95"/>
<polygon fill="black" stroke="black" points="1134.21,-385.48 1123.78,-387.31 1133.08,-392.38 1134.21,-385.48"/>
</g>
<!-- HITs/suspension -->
<g id="node34" class="node">
<title>HITs/suspension</title>
<ellipse fill="none" stroke="black" cx="1706.99" cy="-306" rx="87.18" ry="18"/>
<text text-anchor="middle" x="1706.99" y="-302.3" font-family="Times,serif" font-size="14.00">HITs/suspension</text>
</g>
<!-- types/unit&#45;&gt;HITs/suspension -->
<g id="edge33" class="edge">
<title>types/unit&#45;&gt;HITs/suspension</title>
<path fill="none" stroke="black" d="M1509.46,-443.71C1571.18,-436.56 1666.41,-421.66 1690.99,-396 1706.48,-379.83 1709.68,-354.06 1709.47,-334.41"/>
<polygon fill="black" stroke="black" points="1712.96,-334.06 1709.06,-324.21 1705.97,-334.34 1712.96,-334.06"/>
</g>
<!-- types/sigma&#45;&gt;structures -->
<g id="edge31" class="edge">
<title>types/sigma&#45;&gt;structures</title>
<path fill="none" stroke="black" d="M915.55,-504.11C932.22,-485.31 960.88,-454.6 988.99,-432 1003.94,-419.99 1021.74,-408.42 1037.11,-399.16"/>
<polygon fill="black" stroke="black" points="1039.01,-402.1 1045.83,-394 1035.45,-396.08 1039.01,-402.1"/>
</g>
<!-- HITs/colimit -->
<g id="node38" class="node">
<title>HITs/colimit</title>
<ellipse fill="none" stroke="black" cx="1254.99" cy="-378" rx="66.89" ry="18"/>
<text text-anchor="middle" x="1254.99" y="-374.3" font-family="Times,serif" font-size="14.00">HITs/colimit</text>
</g>
<!-- HITs/graph&#45;&gt;HITs/colimit -->
<g id="edge41" class="edge">
<title>HITs/graph&#45;&gt;HITs/colimit</title>
<path fill="none" stroke="black" d="M1302.3,-432.41C1294.69,-423.82 1285.25,-413.16 1276.81,-403.63"/>
<polygon fill="black" stroke="black" points="1279.26,-401.12 1270.01,-395.96 1274.02,-405.76 1279.26,-401.12"/>
</g>
<!-- HITs/generalized -->
<g id="node39" class="node">
<title>HITs/generalized</title>
<ellipse fill="none" stroke="black" cx="1428.99" cy="-378" rx="89.08" ry="18"/>
<text text-anchor="middle" x="1428.99" y="-374.3" font-family="Times,serif" font-size="14.00">HITs/generalized</text>
</g>
<!-- HITs/graph&#45;&gt;HITs/generalized -->
<g id="edge42" class="edge">
<title>HITs/graph&#45;&gt;HITs/generalized</title>
<path fill="none" stroke="black" d="M1341.85,-433.46C1357.33,-423.79 1377.45,-411.21 1394.47,-400.58"/>
<polygon fill="black" stroke="black" points="1396.41,-403.49 1403.04,-395.22 1392.7,-397.55 1396.41,-403.49"/>
</g>
<!-- HITs/pushout -->
<g id="node40" class="node">
<title>HITs/pushout</title>
<ellipse fill="none" stroke="black" cx="1608.99" cy="-378" rx="72.59" ry="18"/>
<text text-anchor="middle" x="1608.99" y="-374.3" font-family="Times,serif" font-size="14.00">HITs/pushout</text>
</g>
<!-- HITs/graph&#45;&gt;HITs/pushout -->
<g id="edge43" class="edge">
<title>HITs/graph&#45;&gt;HITs/pushout</title>
<path fill="none" stroke="black" d="M1363.26,-437.91C1413.37,-425.9 1493.51,-406.69 1548.56,-393.49"/>
<polygon fill="black" stroke="black" points="1549.62,-396.83 1558.53,-391.1 1547.99,-390.02 1549.62,-396.83"/>
</g>
<!-- HITs/graph&#45;&gt;HITs/quotient -->
<g id="edge44" class="edge">
<title>HITs/graph&#45;&gt;HITs/quotient</title>
<path fill="none" stroke="black" d="M1264.83,-440.08C1236.12,-432.7 1201.8,-419.46 1178.99,-396 1143.53,-359.51 1167.03,-331.72 1140.99,-288 1134.87,-277.71 1126.54,-267.65 1118.54,-259.11"/>
<polygon fill="black" stroke="black" points="1120.84,-256.45 1111.36,-251.72 1115.83,-261.33 1120.84,-256.45"/>
</g>
<!-- types/product -->
<g id="node33" class="node">
<title>types/product</title>
<ellipse fill="none" stroke="black" cx="1072.99" cy="-450" rx="75.29" ry="18"/>
<text text-anchor="middle" x="1072.99" y="-446.3" font-family="Times,serif" font-size="14.00">types/product</text>
</g>
<!-- theorems/funext&#45;&gt;types/product -->
<g id="edge64" class="edge">
<title>theorems/funext&#45;&gt;types/product</title>
<path fill="none" stroke="black" d="M1072.99,-503.7C1072.99,-495.98 1072.99,-486.71 1072.99,-478.11"/>
<polygon fill="black" stroke="black" points="1076.49,-478.1 1072.99,-468.1 1069.49,-478.1 1076.49,-478.1"/>
</g>
<!-- types/integer -->
<g id="node29" class="node">
<title>types/integer</title>
<ellipse fill="none" stroke="black" cx="1265.99" cy="-162" rx="72.59" ry="18"/>
<text text-anchor="middle" x="1265.99" y="-158.3" font-family="Times,serif" font-size="14.00">types/integer</text>
</g>
<!-- types/integer&#45;&gt;algebra/group -->
<g id="edge26" class="edge">
<title>types/integer&#45;&gt;algebra/group</title>
<path fill="none" stroke="black" d="M1235.49,-145.64C1215.35,-135.5 1188.75,-122.1 1166.93,-111.11"/>
<polygon fill="black" stroke="black" points="1168.41,-107.94 1157.91,-106.57 1165.26,-114.19 1168.41,-107.94"/>
</g>
<!-- HITs/circle -->
<g id="node30" class="node">
<title>HITs/circle</title>
<ellipse fill="none" stroke="black" cx="1351.99" cy="-90" rx="60.39" ry="18"/>
<text text-anchor="middle" x="1351.99" y="-86.3" font-family="Times,serif" font-size="14.00">HITs/circle</text>
</g>
<!-- types/integer&#45;&gt;HITs/circle -->
<g id="edge27" class="edge">
<title>types/integer&#45;&gt;HITs/circle</title>
<path fill="none" stroke="black" d="M1286.37,-144.41C1297.7,-135.19 1311.96,-123.59 1324.28,-113.55"/>
<polygon fill="black" stroke="black" points="1326.51,-116.26 1332.06,-107.23 1322.09,-110.83 1326.51,-116.26"/>
</g>
<!-- HITs/circle&#45;&gt;algebra/Z -->
<g id="edge34" class="edge">
<title>HITs/circle&#45;&gt;algebra/Z</title>
<path fill="none" stroke="black" d="M1351.99,-71.7C1351.99,-63.98 1351.99,-54.71 1351.99,-46.11"/>
<polygon fill="black" stroke="black" points="1355.49,-46.1 1351.99,-36.1 1348.49,-46.1 1355.49,-46.1"/>
</g>
<!-- theorems/hopf -->
<g id="node35" class="node">
<title>theorems/hopf</title>
<ellipse fill="none" stroke="black" cx="1036.99" cy="-18" rx="77.99" ry="18"/>
<text text-anchor="middle" x="1036.99" y="-14.3" font-family="Times,serif" font-size="14.00">theorems/hopf</text>
</g>
<!-- HITs/circle&#45;&gt;theorems/hopf -->
<g id="edge35" class="edge">
<title>HITs/circle&#45;&gt;theorems/hopf</title>
<path fill="none" stroke="black" d="M1305.17,-78.6C1251.03,-66.56 1161.6,-46.69 1101.05,-33.23"/>
<polygon fill="black" stroke="black" points="1101.73,-29.8 1091.21,-31.05 1100.21,-36.63 1101.73,-29.8"/>
</g>
<!-- HITs/moebius -->
<g id="node36" class="node">
<title>HITs/moebius</title>
<ellipse fill="none" stroke="black" cx="1498.99" cy="-18" rx="74.19" ry="18"/>
<text text-anchor="middle" x="1498.99" y="-14.3" font-family="Times,serif" font-size="14.00">HITs/moebius</text>
</g>
<!-- HITs/circle&#45;&gt;HITs/moebius -->
<g id="edge36" class="edge">
<title>HITs/circle&#45;&gt;HITs/moebius</title>
<path fill="none" stroke="black" d="M1382.81,-74.33C1404.59,-63.96 1434.01,-49.94 1457.8,-38.61"/>
<polygon fill="black" stroke="black" points="1459.42,-41.72 1466.95,-34.26 1456.41,-35.4 1459.42,-41.72"/>
</g>
<!-- HITs/reals -->
<g id="node37" class="node">
<title>HITs/reals</title>
<ellipse fill="none" stroke="black" cx="1648.99" cy="-18" rx="57.69" ry="18"/>
<text text-anchor="middle" x="1648.99" y="-14.3" font-family="Times,serif" font-size="14.00">HITs/reals</text>
</g>
<!-- HITs/circle&#45;&gt;HITs/reals -->
<g id="edge37" class="edge">
<title>HITs/circle&#45;&gt;HITs/reals</title>
<path fill="none" stroke="black" d="M1398.76,-78.54C1445.28,-68.06 1518.67,-51.33 1581.99,-36 1586.56,-34.89 1591.31,-33.73 1596.06,-32.55"/>
<polygon fill="black" stroke="black" points="1596.93,-35.94 1605.78,-30.11 1595.23,-29.15 1596.93,-35.94"/>
</g>
<!-- theorems/nat&#45;&gt;types/integer -->
<g id="edge65" class="edge">
<title>theorems/nat&#45;&gt;types/integer</title>
<path fill="none" stroke="black" d="M1259.97,-215.7C1260.85,-207.98 1261.91,-198.71 1262.89,-190.11"/>
<polygon fill="black" stroke="black" points="1266.38,-190.44 1264.04,-180.1 1259.43,-189.64 1266.38,-190.44"/>
</g>
<!-- HITs/int -->
<g id="node54" class="node">
<title>HITs/int</title>
<ellipse fill="none" stroke="black" cx="1404.99" cy="-162" rx="48.19" ry="18"/>
<text text-anchor="middle" x="1404.99" y="-158.3" font-family="Times,serif" font-size="14.00">HITs/int</text>
</g>
<!-- theorems/nat&#45;&gt;HITs/int -->
<g id="edge66" class="edge">
<title>theorems/nat&#45;&gt;HITs/int</title>
<path fill="none" stroke="black" d="M1289.89,-217.81C1312.55,-207.02 1343.08,-192.48 1367,-181.09"/>
<polygon fill="black" stroke="black" points="1368.62,-184.2 1376.15,-176.74 1365.61,-177.88 1368.62,-184.2"/>
</g>
<!-- types/precategory -->
<g id="node32" class="node">
<title>types/precategory</title>
<ellipse fill="none" stroke="black" cx="663.99" cy="-162" rx="94.78" ry="18"/>
<text text-anchor="middle" x="663.99" y="-158.3" font-family="Times,serif" font-size="14.00">types/precategory</text>
</g>
<!-- types/precategory&#45;&gt;types/category -->
<g id="edge29" class="edge">
<title>types/precategory&#45;&gt;types/category</title>
<path fill="none" stroke="black" d="M663.99,-143.7C663.99,-135.98 663.99,-126.71 663.99,-118.11"/>
<polygon fill="black" stroke="black" points="667.49,-118.1 663.99,-108.1 660.49,-118.1 667.49,-118.1"/>
</g>
<!-- types/product&#45;&gt;structures -->
<g id="edge30" class="edge">
<title>types/product&#45;&gt;structures</title>
<path fill="none" stroke="black" d="M1072.99,-431.7C1072.99,-423.98 1072.99,-414.71 1072.99,-406.11"/>
<polygon fill="black" stroke="black" points="1076.49,-406.1 1072.99,-396.1 1069.49,-406.1 1076.49,-406.1"/>
</g>
<!-- HITs/suspension&#45;&gt;HITs/circle -->
<g id="edge53" class="edge">
<title>HITs/suspension&#45;&gt;HITs/circle</title>
<path fill="none" stroke="black" d="M1710.15,-287.84C1715.12,-254.93 1720.6,-182.8 1681.99,-144 1646.55,-108.37 1508,-96.69 1422.09,-92.87"/>
<polygon fill="black" stroke="black" points="1422.02,-89.36 1411.89,-92.44 1421.73,-96.35 1422.02,-89.36"/>
</g>
<!-- HITs/join -->
<g id="node45" class="node">
<title>HITs/join</title>
<ellipse fill="none" stroke="black" cx="1780.99" cy="-234" rx="51.99" ry="18"/>
<text text-anchor="middle" x="1780.99" y="-230.3" font-family="Times,serif" font-size="14.00">HITs/join</text>
</g>
<!-- HITs/suspension&#45;&gt;HITs/join -->
<g id="edge54" class="edge">
<title>HITs/suspension&#45;&gt;HITs/join</title>
<path fill="none" stroke="black" d="M1724.91,-288.05C1734.38,-279.09 1746.16,-267.95 1756.47,-258.2"/>
<polygon fill="black" stroke="black" points="1759.15,-260.48 1764.01,-251.07 1754.34,-255.4 1759.15,-260.48"/>
</g>
<!-- HITs/colimit&#45;&gt;HITs/merely -->
<g id="edge38" class="edge">
<title>HITs/colimit&#45;&gt;HITs/merely</title>
<path fill="none" stroke="black" d="M1288.29,-362.15C1311.91,-351.62 1343.83,-337.39 1369.32,-326.03"/>
<polygon fill="black" stroke="black" points="1371.04,-329.09 1378.75,-321.82 1368.19,-322.7 1371.04,-329.09"/>
</g>
<!-- HITs/colimit&#45;&gt;types/nat -->
<g id="edge39" class="edge">
<title>HITs/colimit&#45;&gt;types/nat</title>
<path fill="none" stroke="black" d="M1254.99,-359.7C1254.99,-351.98 1254.99,-342.71 1254.99,-334.11"/>
<polygon fill="black" stroke="black" points="1258.49,-334.1 1254.99,-324.1 1251.49,-334.1 1258.49,-334.1"/>
</g>
<!-- HITs/generalized&#45;&gt;HITs/merely -->
<g id="edge40" class="edge">
<title>HITs/generalized&#45;&gt;HITs/merely</title>
<path fill="none" stroke="black" d="M1424.79,-359.7C1422.9,-351.9 1420.62,-342.51 1418.51,-333.83"/>
<polygon fill="black" stroke="black" points="1421.91,-333 1416.15,-324.1 1415.11,-334.65 1421.91,-333"/>
</g>
<!-- HITs/pushout&#45;&gt;HITs/suspension -->
<g id="edge51" class="edge">
<title>HITs/pushout&#45;&gt;HITs/suspension</title>
<path fill="none" stroke="black" d="M1631.72,-360.76C1644.74,-351.47 1661.27,-339.66 1675.52,-329.48"/>
<polygon fill="black" stroke="black" points="1677.94,-332.05 1684.05,-323.39 1673.88,-326.35 1677.94,-332.05"/>
</g>
<!-- HITs/quotient&#45;&gt;algebra/group -->
<g id="edge52" class="edge">
<title>HITs/quotient&#45;&gt;algebra/group</title>
<path fill="none" stroke="black" d="M1098.14,-215.89C1101.18,-205.54 1105,-192.07 1107.99,-180 1113.09,-159.43 1118.07,-135.97 1121.64,-118.31"/>
<polygon fill="black" stroke="black" points="1125.15,-118.63 1123.68,-108.14 1118.29,-117.26 1125.15,-118.63"/>
</g>
<!-- cubical/path -->
<g id="node49" class="node">
<title>cubical/path</title>
<ellipse fill="none" stroke="black" cx="287.99" cy="-162" rx="67.69" ry="18"/>
<text text-anchor="middle" x="287.99" y="-158.3" font-family="Times,serif" font-size="14.00">cubical/path</text>
</g>
<!-- cubical/cubes&#45;&gt;cubical/path -->
<g id="edge56" class="edge">
<title>cubical/cubes&#45;&gt;cubical/path</title>
<path fill="none" stroke="black" d="M322.86,-216.05C317.38,-207.71 310.66,-197.49 304.59,-188.25"/>
<polygon fill="black" stroke="black" points="307.44,-186.22 299.03,-179.79 301.59,-190.07 307.44,-186.22"/>
</g>
<!-- theorems/prop&#45;&gt;algebra/eilenberg_maclane -->
<g id="edge67" class="edge">
<title>theorems/prop&#45;&gt;algebra/eilenberg_maclane</title>
<path fill="none" stroke="black" d="M789.87,-222.99C706.57,-209.57 569.32,-186.68 559.99,-180 515.35,-148.04 533.06,-115.84 499.99,-72 492.28,-61.77 482.66,-51.58 473.74,-42.9"/>
<polygon fill="black" stroke="black" points="476.14,-40.34 466.48,-35.99 471.32,-45.42 476.14,-40.34"/>
</g>
<!-- theorems/prop&#45;&gt;types/ens -->
<g id="edge68" class="edge">
<title>theorems/prop&#45;&gt;types/ens</title>
<path fill="none" stroke="black" d="M847.8,-215.7C845.46,-207.9 842.65,-198.51 840.04,-189.83"/>
<polygon fill="black" stroke="black" points="843.35,-188.68 837.12,-180.1 836.65,-190.69 843.35,-188.68"/>
</g>
<!-- theorems/prop&#45;&gt;HITs/circle -->
<g id="edge69" class="edge">
<title>theorems/prop&#45;&gt;HITs/circle</title>
<path fill="none" stroke="black" d="M918.57,-223.77C970.76,-215.38 1045.19,-201.07 1107.99,-180 1143.43,-168.11 1149.2,-157.65 1183.99,-144 1221.79,-129.17 1265.57,-115.46 1298.96,-105.71"/>
<polygon fill="black" stroke="black" points="1300.34,-108.95 1308.97,-102.81 1298.39,-102.23 1300.34,-108.95"/>
</g>
<!-- theorems/prop&#45;&gt;types/precategory -->
<g id="edge70" class="edge">
<title>theorems/prop&#45;&gt;types/precategory</title>
<path fill="none" stroke="black" d="M813.37,-218.33C784.75,-207.73 745.86,-193.32 714.93,-181.87"/>
<polygon fill="black" stroke="black" points="715.79,-178.45 705.2,-178.26 713.36,-185.02 715.79,-178.45"/>
</g>
<!-- theorems/classical -->
<g id="node53" class="node">
<title>theorems/classical</title>
<ellipse fill="none" stroke="black" cx="1001.99" cy="-162" rx="96.68" ry="18"/>
<text text-anchor="middle" x="1001.99" y="-158.3" font-family="Times,serif" font-size="14.00">theorems/classical</text>
</g>
<!-- theorems/prop&#45;&gt;theorems/classical -->
<g id="edge71" class="edge">
<title>theorems/prop&#45;&gt;theorems/classical</title>
<path fill="none" stroke="black" d="M886.06,-217.46C907.46,-207.41 935.55,-194.22 958.72,-183.33"/>
<polygon fill="black" stroke="black" points="960.42,-186.4 967.98,-178.98 957.45,-180.06 960.42,-186.4"/>
</g>
<!-- theorems/fibration&#45;&gt;theorems/hopf -->
<g id="edge61" class="edge">
<title>theorems/fibration&#45;&gt;theorems/hopf</title>
<path fill="none" stroke="black" d="M596.61,-216.89C582.63,-208.07 567.74,-195.72 559.99,-180 547.29,-154.23 574.77,-73.08 575.99,-72 638.54,-16.69 867.37,-48.02 949.99,-36 957.01,-34.98 964.32,-33.78 971.58,-32.49"/>
<polygon fill="black" stroke="black" points="972.23,-35.93 981.44,-30.69 970.97,-29.04 972.23,-35.93"/>
</g>
<!-- theorems/functions&#45;&gt;algebra/group -->
<g id="edge62" class="edge">
<title>theorems/functions&#45;&gt;algebra/group</title>
<path fill="none" stroke="black" d="M1499.01,-149.52C1415.93,-136.45 1281.08,-115.24 1198.58,-102.26"/>
<polygon fill="black" stroke="black" points="1198.96,-98.78 1188.54,-100.68 1197.88,-105.69 1198.96,-98.78"/>
</g>
<!-- theorems/functions&#45;&gt;HITs/reals -->
<g id="edge63" class="edge">
<title>theorems/functions&#45;&gt;HITs/reals</title>
<path fill="none" stroke="black" d="M1581.28,-143.87C1594.58,-119.35 1619.15,-74.03 1634.75,-45.26"/>
<polygon fill="black" stroke="black" points="1637.98,-46.65 1639.67,-36.19 1631.83,-43.31 1637.98,-46.65"/>
</g>
<!-- cubical/connection -->
<g id="node48" class="node">
<title>cubical/connection</title>
<ellipse fill="none" stroke="black" cx="270.99" cy="-90" rx="96.68" ry="18"/>
<text text-anchor="middle" x="270.99" y="-86.3" font-family="Times,serif" font-size="14.00">cubical/connection</text>
</g>
<!-- cubical/path&#45;&gt;cubical/connection -->
<g id="edge57" class="edge">
<title>cubical/path&#45;&gt;cubical/connection</title>
<path fill="none" stroke="black" d="M283.79,-143.7C281.9,-135.9 279.62,-126.51 277.51,-117.83"/>
<polygon fill="black" stroke="black" points="280.91,-117 275.15,-108.1 274.11,-118.65 280.91,-117"/>
</g>
<!-- cubical/square -->
<g id="node51" class="node">
<title>cubical/square</title>
<ellipse fill="none" stroke="black" cx="77.99" cy="-90" rx="77.99" ry="18"/>
<text text-anchor="middle" x="77.99" y="-86.3" font-family="Times,serif" font-size="14.00">cubical/square</text>
</g>
<!-- cubical/path&#45;&gt;cubical/square -->
<g id="edge58" class="edge">
<title>cubical/path&#45;&gt;cubical/square</title>
<path fill="none" stroke="black" d="M247.5,-147.5C214.17,-136.39 166.66,-120.56 130.42,-108.48"/>
<polygon fill="black" stroke="black" points="131.11,-105.02 120.52,-105.18 128.9,-111.66 131.11,-105.02"/>
</g>
<!-- cubical/path&#45;&gt;cubical/V -->
<g id="edge59" class="edge">
<title>cubical/path&#45;&gt;cubical/V</title>
<path fill="none" stroke="black" d="M320.17,-145.98C343.2,-135.24 374.32,-120.71 398.8,-109.29"/>
<polygon fill="black" stroke="black" points="400.58,-112.32 408.16,-104.92 397.62,-105.98 400.58,-112.32"/>
</g>
<!-- cubical/example -->
<g id="node50" class="node">
<title>cubical/example</title>
<ellipse fill="none" stroke="black" cx="207.99" cy="-18" rx="85.29" ry="18"/>
<text text-anchor="middle" x="207.99" y="-14.3" font-family="Times,serif" font-size="14.00">cubical/example</text>
</g>
<!-- cubical/V&#45;&gt;cubical/example -->
<g id="edge60" class="edge">
<title>cubical/V&#45;&gt;cubical/example</title>
<path fill="none" stroke="black" d="M400.01,-77.44C362.96,-66.16 306.17,-48.88 263.95,-36.03"/>
<polygon fill="black" stroke="black" points="264.95,-32.68 254.37,-33.11 262.92,-39.37 264.95,-32.68"/>
</g>
</g>
</svg>
