<?xml version="1.0" encoding="UTF-8" standalone="no"?>
<!DOCTYPE svg PUBLIC "-//W3C//DTD SVG 1.1//EN"
 "http://www.w3.org/Graphics/SVG/1.1/DTD/svg11.dtd">
<!-- Generated by graphviz version 2.38.0 (20140413.2041)
 -->
<!-- Title: dependency_map Pages: 1 -->
<svg width="1444pt" height="764pt"
 viewBox="0.00 0.00 1443.69 764.00" xmlns="http://www.w3.org/2000/svg" xmlns:xlink="http://www.w3.org/1999/xlink">
<g id="graph0" class="graph" transform="scale(1 1) rotate(0) translate(4 760)">
<title>dependency_map</title>
<polygon fill="white" stroke="none" points="-4,4 -4,-760 1439.69,-760 1439.69,4 -4,4"/>
<!-- proto -->
<g id="node1" class="node"><title>proto</title>
<ellipse fill="none" stroke="black" cx="700.044" cy="-738" rx="30.5947" ry="18"/>
<text text-anchor="middle" x="700.044" y="-734.3" font-family="Times New Roman,serif" font-size="14.00">proto</text>
</g>
<!-- types/eq -->
<g id="node2" class="node"><title>types/eq</title>
<ellipse fill="none" stroke="black" cx="760.044" cy="-666" rx="41.6928" ry="18"/>
<text text-anchor="middle" x="760.044" y="-662.3" font-family="Times New Roman,serif" font-size="14.00">types/eq</text>
</g>
<!-- proto&#45;&gt;types/eq -->
<g id="edge1" class="edge"><title>proto&#45;&gt;types/eq</title>
<path fill="none" stroke="black" d="M713.36,-721.465C720.988,-712.566 730.726,-701.205 739.332,-691.164"/>
<polygon fill="black" stroke="black" points="742.079,-693.338 745.93,-683.467 736.764,-688.782 742.079,-693.338"/>
</g>
<!-- support -->
<g id="node4" class="node"><title>support</title>
<ellipse fill="none" stroke="black" cx="760.044" cy="-594" rx="38.9931" ry="18"/>
<text text-anchor="middle" x="760.044" y="-590.3" font-family="Times New Roman,serif" font-size="14.00">support</text>
</g>
<!-- types/eq&#45;&gt;support -->
<g id="edge11" class="edge"><title>types/eq&#45;&gt;support</title>
<path fill="none" stroke="black" d="M760.044,-647.697C760.044,-639.983 760.044,-630.712 760.044,-622.112"/>
<polygon fill="black" stroke="black" points="763.545,-622.104 760.044,-612.104 756.545,-622.104 763.545,-622.104"/>
</g>
<!-- meta/hott_theory -->
<g id="node3" class="node"><title>meta/hott_theory</title>
<ellipse fill="none" stroke="black" cx="821.044" cy="-738" rx="72.2875" ry="18"/>
<text text-anchor="middle" x="821.044" y="-734.3" font-family="Times New Roman,serif" font-size="14.00">meta/hott_theory</text>
</g>
<!-- meta/hott_theory&#45;&gt;types/eq -->
<g id="edge2" class="edge"><title>meta/hott_theory&#45;&gt;types/eq</title>
<path fill="none" stroke="black" d="M806.278,-720.055C798.675,-711.33 789.276,-700.544 780.942,-690.981"/>
<polygon fill="black" stroke="black" points="783.463,-688.547 774.255,-683.307 778.186,-693.146 783.463,-688.547"/>
</g>
<!-- types/equiv -->
<g id="node5" class="node"><title>types/equiv</title>
<ellipse fill="none" stroke="black" cx="760.044" cy="-522" rx="51.9908" ry="18"/>
<text text-anchor="middle" x="760.044" y="-518.3" font-family="Times New Roman,serif" font-size="14.00">types/equiv</text>
</g>
<!-- support&#45;&gt;types/equiv -->
<g id="edge3" class="edge"><title>support&#45;&gt;types/equiv</title>
<path fill="none" stroke="black" d="M760.044,-575.697C760.044,-567.983 760.044,-558.712 760.044,-550.112"/>
<polygon fill="black" stroke="black" points="763.545,-550.104 760.044,-540.104 756.545,-550.104 763.545,-550.104"/>
</g>
<!-- types/coproduct -->
<g id="node13" class="node"><title>types/coproduct</title>
<ellipse fill="none" stroke="black" cx="490.044" cy="-378" rx="70.6878" ry="18"/>
<text text-anchor="middle" x="490.044" y="-374.3" font-family="Times New Roman,serif" font-size="14.00">types/coproduct</text>
</g>
<!-- types/equiv&#45;&gt;types/coproduct -->
<g id="edge12" class="edge"><title>types/equiv&#45;&gt;types/coproduct</title>
<path fill="none" stroke="black" d="M716.749,-511.856C682.562,-503.516 634.398,-489.228 596.044,-468 564.352,-450.459 533.23,-422.717 512.995,-402.869"/>
<polygon fill="black" stroke="black" points="515.346,-400.271 505.794,-395.686 510.402,-405.227 515.346,-400.271"/>
</g>
<!-- types/heq -->
<g id="node16" class="node"><title>types/heq</title>
<ellipse fill="none" stroke="black" cx="940.044" cy="-450" rx="46.2923" ry="18"/>
<text text-anchor="middle" x="940.044" y="-446.3" font-family="Times New Roman,serif" font-size="14.00">types/heq</text>
</g>
<!-- types/equiv&#45;&gt;types/heq -->
<g id="edge13" class="edge"><title>types/equiv&#45;&gt;types/heq</title>
<path fill="none" stroke="black" d="M793.479,-507.998C823.332,-496.388 867.148,-479.349 899.093,-466.926"/>
<polygon fill="black" stroke="black" points="900.546,-470.116 908.598,-463.229 898.009,-463.592 900.546,-470.116"/>
</g>
<!-- HITs/infinitesimal -->
<g id="node17" class="node"><title>HITs/infinitesimal</title>
<ellipse fill="none" stroke="black" cx="691.044" cy="-450" rx="74.9875" ry="18"/>
<text text-anchor="middle" x="691.044" y="-446.3" font-family="Times New Roman,serif" font-size="14.00">HITs/infinitesimal</text>
</g>
<!-- types/equiv&#45;&gt;HITs/infinitesimal -->
<g id="edge14" class="edge"><title>types/equiv&#45;&gt;HITs/infinitesimal</title>
<path fill="none" stroke="black" d="M744.041,-504.765C735.285,-495.882 724.272,-484.709 714.557,-474.854"/>
<polygon fill="black" stroke="black" points="716.953,-472.298 707.44,-467.633 711.968,-477.212 716.953,-472.298"/>
</g>
<!-- types/lost -->
<g id="node18" class="node"><title>types/lost</title>
<ellipse fill="none" stroke="black" cx="830.044" cy="-450" rx="46.2923" ry="18"/>
<text text-anchor="middle" x="830.044" y="-446.3" font-family="Times New Roman,serif" font-size="14.00">types/lost</text>
</g>
<!-- types/equiv&#45;&gt;types/lost -->
<g id="edge15" class="edge"><title>types/equiv&#45;&gt;types/lost</title>
<path fill="none" stroke="black" d="M776.28,-504.765C785.291,-495.753 796.659,-484.385 806.618,-474.426"/>
<polygon fill="black" stroke="black" points="809.301,-476.693 813.897,-467.147 804.351,-471.744 809.301,-476.693"/>
</g>
<!-- types/unit -->
<g id="node19" class="node"><title>types/unit</title>
<ellipse fill="none" stroke="black" cx="625.044" cy="-378" rx="46.2923" ry="18"/>
<text text-anchor="middle" x="625.044" y="-374.3" font-family="Times New Roman,serif" font-size="14.00">types/unit</text>
</g>
<!-- types/equiv&#45;&gt;types/unit -->
<g id="edge16" class="edge"><title>types/equiv&#45;&gt;types/unit</title>
<path fill="none" stroke="black" d="M709.075,-518.071C674.111,-513.089 630.032,-500.29 607.044,-468 593.905,-449.543 601.192,-423.759 610.111,-404.693"/>
<polygon fill="black" stroke="black" points="613.284,-406.174 614.681,-395.671 607.04,-403.01 613.284,-406.174"/>
</g>
<!-- types/sigma -->
<g id="node20" class="node"><title>types/sigma</title>
<ellipse fill="none" stroke="black" cx="1028.04" cy="-234" rx="53.8905" ry="18"/>
<text text-anchor="middle" x="1028.04" y="-230.3" font-family="Times New Roman,serif" font-size="14.00">types/sigma</text>
</g>
<!-- types/equiv&#45;&gt;types/sigma -->
<g id="edge17" class="edge"><title>types/equiv&#45;&gt;types/sigma</title>
<path fill="none" stroke="black" d="M809.604,-516.375C870.966,-509.579 970.415,-494.713 995.044,-468 1047.7,-410.894 1040.34,-310.099 1033.07,-262.003"/>
<polygon fill="black" stroke="black" points="1036.51,-261.345 1031.45,-252.037 1029.6,-262.47 1036.51,-261.345"/>
</g>
<!-- structures -->
<g id="node6" class="node"><title>structures</title>
<ellipse fill="none" stroke="black" cx="669.044" cy="-306" rx="46.2923" ry="18"/>
<text text-anchor="middle" x="669.044" y="-302.3" font-family="Times New Roman,serif" font-size="14.00">structures</text>
</g>
<!-- theorems/ua -->
<g id="node7" class="node"><title>theorems/ua</title>
<ellipse fill="none" stroke="black" cx="797.044" cy="-234" rx="54.6905" ry="18"/>
<text text-anchor="middle" x="797.044" y="-230.3" font-family="Times New Roman,serif" font-size="14.00">theorems/ua</text>
</g>
<!-- structures&#45;&gt;theorems/ua -->
<g id="edge4" class="edge"><title>structures&#45;&gt;theorems/ua</title>
<path fill="none" stroke="black" d="M694.639,-291.003C713.705,-280.576 739.986,-266.204 761.15,-254.63"/>
<polygon fill="black" stroke="black" points="763.076,-257.566 770.17,-249.697 759.717,-251.424 763.076,-257.566"/>
</g>
<!-- HITs/interval -->
<g id="node8" class="node"><title>HITs/interval</title>
<ellipse fill="none" stroke="black" cx="667.044" cy="-234" rx="57.6901" ry="18"/>
<text text-anchor="middle" x="667.044" y="-230.3" font-family="Times New Roman,serif" font-size="14.00">HITs/interval</text>
</g>
<!-- structures&#45;&gt;HITs/interval -->
<g id="edge5" class="edge"><title>structures&#45;&gt;HITs/interval</title>
<path fill="none" stroke="black" d="M668.55,-287.697C668.33,-279.983 668.065,-270.712 667.819,-262.112"/>
<polygon fill="black" stroke="black" points="671.317,-262 667.533,-252.104 664.32,-262.2 671.317,-262"/>
</g>
<!-- HITs/merely -->
<g id="node9" class="node"><title>HITs/merely</title>
<ellipse fill="none" stroke="black" cx="1156.04" cy="-234" rx="55.7903" ry="18"/>
<text text-anchor="middle" x="1156.04" y="-230.3" font-family="Times New Roman,serif" font-size="14.00">HITs/merely</text>
</g>
<!-- structures&#45;&gt;HITs/merely -->
<g id="edge6" class="edge"><title>structures&#45;&gt;HITs/merely</title>
<path fill="none" stroke="black" d="M703.14,-293.675C710.62,-291.516 718.546,-289.474 726.044,-288 885.993,-256.561 930.584,-280.712 1091.04,-252 1095.82,-251.146 1100.75,-250.121 1105.67,-249.004"/>
<polygon fill="black" stroke="black" points="1106.78,-252.337 1115.69,-246.604 1105.15,-245.529 1106.78,-252.337"/>
</g>
<!-- HITs/trunc -->
<g id="node10" class="node"><title>HITs/trunc</title>
<ellipse fill="none" stroke="black" cx="540.044" cy="-234" rx="50.8918" ry="18"/>
<text text-anchor="middle" x="540.044" y="-230.3" font-family="Times New Roman,serif" font-size="14.00">HITs/trunc</text>
</g>
<!-- structures&#45;&gt;HITs/trunc -->
<g id="edge7" class="edge"><title>structures&#45;&gt;HITs/trunc</title>
<path fill="none" stroke="black" d="M643.249,-291.003C623.82,-280.46 596.955,-265.882 575.505,-254.242"/>
<polygon fill="black" stroke="black" points="577.14,-251.147 566.682,-249.454 573.802,-257.3 577.14,-251.147"/>
</g>
<!-- types/nat -->
<g id="node11" class="node"><title>types/nat</title>
<ellipse fill="none" stroke="black" cx="913.044" cy="-234" rx="43.5923" ry="18"/>
<text text-anchor="middle" x="913.044" y="-230.3" font-family="Times New Roman,serif" font-size="14.00">types/nat</text>
</g>
<!-- structures&#45;&gt;types/nat -->
<g id="edge8" class="edge"><title>structures&#45;&gt;types/nat</title>
<path fill="none" stroke="black" d="M704.269,-294.319C711.462,-292.187 718.988,-289.993 726.044,-288 785.804,-271.124 801.51,-269.655 861.044,-252 864.186,-251.068 867.425,-250.079 870.679,-249.065"/>
<polygon fill="black" stroke="black" points="871.927,-252.341 880.399,-245.978 869.808,-245.669 871.927,-252.341"/>
</g>
<!-- theorems/nat -->
<g id="node25" class="node"><title>theorems/nat</title>
<ellipse fill="none" stroke="black" cx="905.044" cy="-162" rx="57.3905" ry="18"/>
<text text-anchor="middle" x="905.044" y="-158.3" font-family="Times New Roman,serif" font-size="14.00">theorems/nat</text>
</g>
<!-- theorems/ua&#45;&gt;theorems/nat -->
<g id="edge62" class="edge"><title>theorems/ua&#45;&gt;theorems/nat</title>
<path fill="none" stroke="black" d="M820.745,-217.638C835.834,-207.859 855.589,-195.054 872.182,-184.3"/>
<polygon fill="black" stroke="black" points="874.538,-186.944 881.025,-178.568 870.73,-181.07 874.538,-186.944"/>
</g>
<!-- cubical/V -->
<g id="node45" class="node"><title>cubical/V</title>
<ellipse fill="none" stroke="black" cx="927.044" cy="-18" rx="45.4919" ry="18"/>
<text text-anchor="middle" x="927.044" y="-14.3" font-family="Times New Roman,serif" font-size="14.00">cubical/V</text>
</g>
<!-- theorems/ua&#45;&gt;cubical/V -->
<g id="edge63" class="edge"><title>theorems/ua&#45;&gt;cubical/V</title>
<path fill="none" stroke="black" d="M799.8,-215.929C805.526,-184.718 821.11,-117.481 855.044,-72 865.019,-58.6315 879.306,-47.1474 892.528,-38.3214"/>
<polygon fill="black" stroke="black" points="894.459,-41.2413 901.007,-32.9121 890.694,-35.3399 894.459,-41.2413"/>
</g>
<!-- HITs/circle -->
<g id="node23" class="node"><title>HITs/circle</title>
<ellipse fill="none" stroke="black" cx="323.044" cy="-90" rx="51.9908" ry="18"/>
<text text-anchor="middle" x="323.044" y="-86.3" font-family="Times New Roman,serif" font-size="14.00">HITs/circle</text>
</g>
<!-- HITs/interval&#45;&gt;HITs/circle -->
<g id="edge41" class="edge"><title>HITs/interval&#45;&gt;HITs/circle</title>
<path fill="none" stroke="black" d="M625.2,-221.496C576.974,-208.067 502.812,-186.823 491.044,-180 470.918,-168.331 472.596,-156.608 453.044,-144 427.616,-127.602 396.28,-114.645 370.745,-105.647"/>
<polygon fill="black" stroke="black" points="371.861,-102.33 361.267,-102.394 369.588,-108.951 371.861,-102.33"/>
</g>
<!-- theorems/fibration -->
<g id="node28" class="node"><title>theorems/fibration</title>
<ellipse fill="none" stroke="black" cx="715.044" cy="-162" rx="76.8869" ry="18"/>
<text text-anchor="middle" x="715.044" y="-158.3" font-family="Times New Roman,serif" font-size="14.00">theorems/fibration</text>
</g>
<!-- HITs/interval&#45;&gt;theorems/fibration -->
<g id="edge42" class="edge"><title>HITs/interval&#45;&gt;theorems/fibration</title>
<path fill="none" stroke="black" d="M678.664,-216.055C684.299,-207.837 691.188,-197.791 697.449,-188.66"/>
<polygon fill="black" stroke="black" points="700.43,-190.502 703.198,-180.275 694.657,-186.543 700.43,-190.502"/>
</g>
<!-- theorems/prop -->
<g id="node29" class="node"><title>theorems/prop</title>
<ellipse fill="none" stroke="black" cx="1044.04" cy="-162" rx="63.8893" ry="18"/>
<text text-anchor="middle" x="1044.04" y="-158.3" font-family="Times New Roman,serif" font-size="14.00">theorems/prop</text>
</g>
<!-- HITs/interval&#45;&gt;theorems/prop -->
<g id="edge43" class="edge"><title>HITs/interval&#45;&gt;theorems/prop</title>
<path fill="none" stroke="black" d="M709.147,-221.473C717.054,-219.503 725.277,-217.584 733.044,-216 837.869,-194.63 865.978,-200.148 971.044,-180 976.396,-178.974 981.95,-177.828 987.497,-176.63"/>
<polygon fill="black" stroke="black" points="988.422,-180.01 997.429,-174.431 986.909,-173.176 988.422,-180.01"/>
</g>
<!-- cubical/cubes -->
<g id="node38" class="node"><title>cubical/cubes</title>
<ellipse fill="none" stroke="black" cx="560.044" cy="-162" rx="60.3893" ry="18"/>
<text text-anchor="middle" x="560.044" y="-158.3" font-family="Times New Roman,serif" font-size="14.00">cubical/cubes</text>
</g>
<!-- HITs/interval&#45;&gt;cubical/cubes -->
<g id="edge44" class="edge"><title>HITs/interval&#45;&gt;cubical/cubes</title>
<path fill="none" stroke="black" d="M643.298,-217.465C628.44,-207.745 609.094,-195.089 592.791,-184.423"/>
<polygon fill="black" stroke="black" points="594.379,-181.28 584.095,-178.734 590.547,-187.137 594.379,-181.28"/>
</g>
<!-- HITs/merely&#45;&gt;theorems/prop -->
<g id="edge45" class="edge"><title>HITs/merely&#45;&gt;theorems/prop</title>
<path fill="none" stroke="black" d="M1131.47,-217.638C1115.67,-207.768 1094.95,-194.817 1077.65,-184.001"/>
<polygon fill="black" stroke="black" points="1079.29,-180.9 1068.95,-178.568 1075.58,-186.836 1079.29,-180.9"/>
</g>
<!-- theorems/functions -->
<g id="node30" class="node"><title>theorems/functions</title>
<ellipse fill="none" stroke="black" cx="1206.04" cy="-162" rx="79.8859" ry="18"/>
<text text-anchor="middle" x="1206.04" y="-158.3" font-family="Times New Roman,serif" font-size="14.00">theorems/functions</text>
</g>
<!-- HITs/merely&#45;&gt;theorems/functions -->
<g id="edge46" class="edge"><title>HITs/merely&#45;&gt;theorems/functions</title>
<path fill="none" stroke="black" d="M1168.15,-216.055C1174.02,-207.837 1181.19,-197.791 1187.72,-188.66"/>
<polygon fill="black" stroke="black" points="1190.74,-190.447 1193.7,-180.275 1185.04,-186.378 1190.74,-190.447"/>
</g>
<!-- HITs/simplicial -->
<g id="node40" class="node"><title>HITs/simplicial</title>
<ellipse fill="none" stroke="black" cx="1370.04" cy="-162" rx="65.7887" ry="18"/>
<text text-anchor="middle" x="1370.04" y="-158.3" font-family="Times New Roman,serif" font-size="14.00">HITs/simplicial</text>
</g>
<!-- HITs/merely&#45;&gt;HITs/simplicial -->
<g id="edge47" class="edge"><title>HITs/merely&#45;&gt;HITs/simplicial</title>
<path fill="none" stroke="black" d="M1193.81,-220.647C1228.73,-209.225 1280.88,-192.165 1319.4,-179.566"/>
<polygon fill="black" stroke="black" points="1320.96,-182.737 1329.38,-176.302 1318.79,-176.084 1320.96,-182.737"/>
</g>
<!-- types/nat&#45;&gt;theorems/nat -->
<g id="edge22" class="edge"><title>types/nat&#45;&gt;theorems/nat</title>
<path fill="none" stroke="black" d="M911.067,-215.697C910.185,-207.983 909.126,-198.712 908.143,-190.112"/>
<polygon fill="black" stroke="black" points="911.612,-189.642 906.999,-180.104 904.657,-190.437 911.612,-189.642"/>
</g>
<!-- types/category -->
<g id="node12" class="node"><title>types/category</title>
<ellipse fill="none" stroke="black" cx="1054.04" cy="-18" rx="63.8893" ry="18"/>
<text text-anchor="middle" x="1054.04" y="-14.3" font-family="Times New Roman,serif" font-size="14.00">types/category</text>
</g>
<!-- types/coproduct&#45;&gt;structures -->
<g id="edge9" class="edge"><title>types/coproduct&#45;&gt;structures</title>
<path fill="none" stroke="black" d="M527.133,-362.496C556.61,-350.969 597.797,-334.862 628.21,-322.969"/>
<polygon fill="black" stroke="black" points="629.639,-326.168 637.678,-319.266 627.09,-319.649 629.639,-326.168"/>
</g>
<!-- types/integer -->
<g id="node14" class="node"><title>types/integer</title>
<ellipse fill="none" stroke="black" cx="288.044" cy="-306" rx="56.59" ry="18"/>
<text text-anchor="middle" x="288.044" y="-302.3" font-family="Times New Roman,serif" font-size="14.00">types/integer</text>
</g>
<!-- types/coproduct&#45;&gt;types/integer -->
<g id="edge10" class="edge"><title>types/coproduct&#45;&gt;types/integer</title>
<path fill="none" stroke="black" d="M449.652,-363.003C416.396,-351.478 369.229,-335.133 334.431,-323.075"/>
<polygon fill="black" stroke="black" points="335.561,-319.762 324.966,-319.795 333.269,-326.376 335.561,-319.762"/>
</g>
<!-- types/integer&#45;&gt;HITs/circle -->
<g id="edge20" class="edge"><title>types/integer&#45;&gt;HITs/circle</title>
<path fill="none" stroke="black" d="M290.849,-287.849C296.917,-250.753 311.3,-162.81 318.612,-118.103"/>
<polygon fill="black" stroke="black" points="322.066,-118.666 320.226,-108.232 315.158,-117.536 322.066,-118.666"/>
</g>
<!-- types/rational -->
<g id="node24" class="node"><title>types/rational</title>
<ellipse fill="none" stroke="black" cx="197.044" cy="-234" rx="59.2899" ry="18"/>
<text text-anchor="middle" x="197.044" y="-230.3" font-family="Times New Roman,serif" font-size="14.00">types/rational</text>
</g>
<!-- types/integer&#45;&gt;types/rational -->
<g id="edge21" class="edge"><title>types/integer&#45;&gt;types/rational</title>
<path fill="none" stroke="black" d="M267.395,-289.116C255.149,-279.696 239.438,-267.611 225.971,-257.251"/>
<polygon fill="black" stroke="black" points="227.987,-254.386 217.927,-251.064 223.719,-259.935 227.987,-254.386"/>
</g>
<!-- types/dedekind -->
<g id="node15" class="node"><title>types/dedekind</title>
<ellipse fill="none" stroke="black" cx="194.044" cy="-162" rx="65.7887" ry="18"/>
<text text-anchor="middle" x="194.044" y="-158.3" font-family="Times New Roman,serif" font-size="14.00">types/dedekind</text>
</g>
<!-- HITs/graph -->
<g id="node21" class="node"><title>HITs/graph</title>
<ellipse fill="none" stroke="black" cx="940.044" cy="-378" rx="52.7911" ry="18"/>
<text text-anchor="middle" x="940.044" y="-374.3" font-family="Times New Roman,serif" font-size="14.00">HITs/graph</text>
</g>
<!-- types/heq&#45;&gt;HITs/graph -->
<g id="edge18" class="edge"><title>types/heq&#45;&gt;HITs/graph</title>
<path fill="none" stroke="black" d="M940.044,-431.697C940.044,-423.983 940.044,-414.712 940.044,-406.112"/>
<polygon fill="black" stroke="black" points="943.545,-406.104 940.044,-396.104 936.545,-406.104 943.545,-406.104"/>
</g>
<!-- theorems/funext -->
<g id="node22" class="node"><title>theorems/funext</title>
<ellipse fill="none" stroke="black" cx="797.044" cy="-378" rx="68.7879" ry="18"/>
<text text-anchor="middle" x="797.044" y="-374.3" font-family="Times New Roman,serif" font-size="14.00">theorems/funext</text>
</g>
<!-- types/heq&#45;&gt;theorems/funext -->
<g id="edge19" class="edge"><title>types/heq&#45;&gt;theorems/funext</title>
<path fill="none" stroke="black" d="M912.473,-435.503C891.121,-425.051 861.237,-410.423 837.225,-398.669"/>
<polygon fill="black" stroke="black" points="838.528,-395.41 828.007,-394.157 835.45,-401.697 838.528,-395.41"/>
</g>
<!-- types/unit&#45;&gt;structures -->
<g id="edge30" class="edge"><title>types/unit&#45;&gt;structures</title>
<path fill="none" stroke="black" d="M635.472,-360.411C640.71,-352.077 647.172,-341.797 653.023,-332.488"/>
<polygon fill="black" stroke="black" points="656.028,-334.285 658.386,-323.956 650.101,-330.56 656.028,-334.285"/>
</g>
<!-- HITs/suspension -->
<g id="node31" class="node"><title>HITs/suspension</title>
<ellipse fill="none" stroke="black" cx="399.044" cy="-234" rx="72.5877" ry="18"/>
<text text-anchor="middle" x="399.044" y="-230.3" font-family="Times New Roman,serif" font-size="14.00">HITs/suspension</text>
</g>
<!-- types/unit&#45;&gt;HITs/suspension -->
<g id="edge31" class="edge"><title>types/unit&#45;&gt;HITs/suspension</title>
<path fill="none" stroke="black" d="M590.157,-366.118C583.487,-364.065 576.555,-361.951 570.044,-360 515.073,-343.526 490.531,-360.251 446.044,-324 426.435,-308.021 413.974,-281.653 406.847,-261.756"/>
<polygon fill="black" stroke="black" points="410.086,-260.406 403.597,-252.031 403.447,-262.624 410.086,-260.406"/>
</g>
<!-- types/sigma&#45;&gt;theorems/nat -->
<g id="edge26" class="edge"><title>types/sigma&#45;&gt;theorems/nat</title>
<path fill="none" stroke="black" d="M1001.96,-218.155C984.061,-207.969 960.093,-194.328 940.47,-183.161"/>
<polygon fill="black" stroke="black" points="941.938,-179.969 931.516,-178.065 938.476,-186.053 941.938,-179.969"/>
</g>
<!-- types/sigma&#45;&gt;theorems/fibration -->
<g id="edge27" class="edge"><title>types/sigma&#45;&gt;theorems/fibration</title>
<path fill="none" stroke="black" d="M988.445,-221.765C981.022,-219.766 973.312,-217.762 966.044,-216 903.96,-200.948 832.649,-186.124 781.941,-175.999"/>
<polygon fill="black" stroke="black" points="782.574,-172.556 772.083,-174.038 781.208,-179.422 782.574,-172.556"/>
</g>
<!-- types/sigma&#45;&gt;theorems/prop -->
<g id="edge28" class="edge"><title>types/sigma&#45;&gt;theorems/prop</title>
<path fill="none" stroke="black" d="M1032,-215.697C1033.76,-207.983 1035.88,-198.712 1037.85,-190.112"/>
<polygon fill="black" stroke="black" points="1041.32,-190.633 1040.13,-180.104 1034.49,-189.073 1041.32,-190.633"/>
</g>
<!-- types/sigma&#45;&gt;theorems/functions -->
<g id="edge29" class="edge"><title>types/sigma&#45;&gt;theorems/functions</title>
<path fill="none" stroke="black" d="M1061.52,-219.834C1088.88,-209.077 1127.88,-193.739 1158.47,-181.708"/>
<polygon fill="black" stroke="black" points="1160.06,-184.845 1168.09,-177.928 1157.5,-178.33 1160.06,-184.845"/>
</g>
<!-- HITs/colimit -->
<g id="node35" class="node"><title>HITs/colimit</title>
<ellipse fill="none" stroke="black" cx="940.044" cy="-306" rx="56.59" ry="18"/>
<text text-anchor="middle" x="940.044" y="-302.3" font-family="Times New Roman,serif" font-size="14.00">HITs/colimit</text>
</g>
<!-- HITs/graph&#45;&gt;HITs/colimit -->
<g id="edge38" class="edge"><title>HITs/graph&#45;&gt;HITs/colimit</title>
<path fill="none" stroke="black" d="M940.044,-359.697C940.044,-351.983 940.044,-342.712 940.044,-334.112"/>
<polygon fill="black" stroke="black" points="943.545,-334.104 940.044,-324.104 936.545,-334.104 943.545,-334.104"/>
</g>
<!-- HITs/generalized -->
<g id="node36" class="node"><title>HITs/generalized</title>
<ellipse fill="none" stroke="black" cx="1141.04" cy="-306" rx="72.2875" ry="18"/>
<text text-anchor="middle" x="1141.04" y="-302.3" font-family="Times New Roman,serif" font-size="14.00">HITs/generalized</text>
</g>
<!-- HITs/graph&#45;&gt;HITs/generalized -->
<g id="edge39" class="edge"><title>HITs/graph&#45;&gt;HITs/generalized</title>
<path fill="none" stroke="black" d="M975.516,-364.647C1007.55,-353.489 1055.04,-336.951 1090.95,-324.446"/>
<polygon fill="black" stroke="black" points="1092.45,-327.628 1100.75,-321.034 1090.15,-321.017 1092.45,-327.628"/>
</g>
<!-- HITs/pushout -->
<g id="node37" class="node"><title>HITs/pushout</title>
<ellipse fill="none" stroke="black" cx="517.044" cy="-306" rx="61.99" ry="18"/>
<text text-anchor="middle" x="517.044" y="-302.3" font-family="Times New Roman,serif" font-size="14.00">HITs/pushout</text>
</g>
<!-- HITs/graph&#45;&gt;HITs/pushout -->
<g id="edge40" class="edge"><title>HITs/graph&#45;&gt;HITs/pushout</title>
<path fill="none" stroke="black" d="M900.689,-365.906C892.269,-363.758 883.396,-361.662 875.044,-360 760.198,-337.145 729.734,-342.11 614.044,-324 602.3,-322.161 589.779,-320.068 577.771,-317.993"/>
<polygon fill="black" stroke="black" points="578.285,-314.53 567.832,-316.26 577.083,-321.426 578.285,-314.53"/>
</g>
<!-- theorems/funext&#45;&gt;structures -->
<g id="edge57" class="edge"><title>theorems/funext&#45;&gt;structures</title>
<path fill="none" stroke="black" d="M768.637,-361.465C749.476,-350.986 724.074,-337.094 703.72,-325.963"/>
<polygon fill="black" stroke="black" points="705.217,-322.793 694.764,-321.066 701.859,-328.935 705.217,-322.793"/>
</g>
<!-- types/product -->
<g id="node27" class="node"><title>types/product</title>
<ellipse fill="none" stroke="black" cx="797.044" cy="-306" rx="61.99" ry="18"/>
<text text-anchor="middle" x="797.044" y="-302.3" font-family="Times New Roman,serif" font-size="14.00">types/product</text>
</g>
<!-- theorems/funext&#45;&gt;types/product -->
<g id="edge58" class="edge"><title>theorems/funext&#45;&gt;types/product</title>
<path fill="none" stroke="black" d="M797.044,-359.697C797.044,-351.983 797.044,-342.712 797.044,-334.112"/>
<polygon fill="black" stroke="black" points="800.545,-334.104 797.044,-324.104 793.545,-334.104 800.545,-334.104"/>
</g>
<!-- theorems/hopf -->
<g id="node32" class="node"><title>theorems/hopf</title>
<ellipse fill="none" stroke="black" cx="323.044" cy="-18" rx="63.8893" ry="18"/>
<text text-anchor="middle" x="323.044" y="-14.3" font-family="Times New Roman,serif" font-size="14.00">theorems/hopf</text>
</g>
<!-- HITs/circle&#45;&gt;theorems/hopf -->
<g id="edge32" class="edge"><title>HITs/circle&#45;&gt;theorems/hopf</title>
<path fill="none" stroke="black" d="M323.044,-71.6966C323.044,-63.9827 323.044,-54.7125 323.044,-46.1124"/>
<polygon fill="black" stroke="black" points="326.545,-46.1043 323.044,-36.1043 319.545,-46.1044 326.545,-46.1043"/>
</g>
<!-- HITs/moebius -->
<g id="node33" class="node"><title>HITs/moebius</title>
<ellipse fill="none" stroke="black" cx="63.0444" cy="-18" rx="63.0888" ry="18"/>
<text text-anchor="middle" x="63.0444" y="-14.3" font-family="Times New Roman,serif" font-size="14.00">HITs/moebius</text>
</g>
<!-- HITs/circle&#45;&gt;HITs/moebius -->
<g id="edge33" class="edge"><title>HITs/circle&#45;&gt;HITs/moebius</title>
<path fill="none" stroke="black" d="M283.273,-78.2923C238.823,-66.3249 166.601,-46.8806 117.062,-33.5432"/>
<polygon fill="black" stroke="black" points="117.729,-30.0981 107.163,-30.878 115.909,-36.8574 117.729,-30.0981"/>
</g>
<!-- HITs/reals -->
<g id="node34" class="node"><title>HITs/reals</title>
<ellipse fill="none" stroke="black" cx="193.044" cy="-18" rx="48.9926" ry="18"/>
<text text-anchor="middle" x="193.044" y="-14.3" font-family="Times New Roman,serif" font-size="14.00">HITs/reals</text>
</g>
<!-- HITs/circle&#45;&gt;HITs/reals -->
<g id="edge34" class="edge"><title>HITs/circle&#45;&gt;HITs/reals</title>
<path fill="none" stroke="black" d="M296.108,-74.496C276.544,-63.9611 249.875,-49.6011 228.568,-38.128"/>
<polygon fill="black" stroke="black" points="229.965,-34.9054 219.501,-33.246 226.647,-41.0687 229.965,-34.9054"/>
</g>
<!-- types/rational&#45;&gt;types/dedekind -->
<g id="edge25" class="edge"><title>types/rational&#45;&gt;types/dedekind</title>
<path fill="none" stroke="black" d="M196.303,-215.697C195.972,-207.983 195.575,-198.712 195.206,-190.112"/>
<polygon fill="black" stroke="black" points="198.703,-189.945 194.777,-180.104 191.709,-190.245 198.703,-189.945"/>
</g>
<!-- theorems/nat&#45;&gt;HITs/circle -->
<g id="edge59" class="edge"><title>theorems/nat&#45;&gt;HITs/circle</title>
<path fill="none" stroke="black" d="M856.185,-152.48C838.806,-149.591 819.079,-146.472 801.044,-144 650.902,-123.419 473.378,-105.38 382.775,-96.6236"/>
<polygon fill="black" stroke="black" points="382.983,-93.1275 372.694,-95.653 382.312,-100.095 382.983,-93.1275"/>
</g>
<!-- HITs/int -->
<g id="node46" class="node"><title>HITs/int</title>
<ellipse fill="none" stroke="black" cx="905.044" cy="-90" rx="40.8928" ry="18"/>
<text text-anchor="middle" x="905.044" y="-86.3" font-family="Times New Roman,serif" font-size="14.00">HITs/int</text>
</g>
<!-- theorems/nat&#45;&gt;HITs/int -->
<g id="edge60" class="edge"><title>theorems/nat&#45;&gt;HITs/int</title>
<path fill="none" stroke="black" d="M905.044,-143.697C905.044,-135.983 905.044,-126.712 905.044,-118.112"/>
<polygon fill="black" stroke="black" points="908.545,-118.104 905.044,-108.104 901.545,-118.104 908.545,-118.104"/>
</g>
<!-- types/precategory -->
<g id="node26" class="node"><title>types/precategory</title>
<ellipse fill="none" stroke="black" cx="1050.04" cy="-90" rx="75.2868" ry="18"/>
<text text-anchor="middle" x="1050.04" y="-86.3" font-family="Times New Roman,serif" font-size="14.00">types/precategory</text>
</g>
<!-- types/precategory&#45;&gt;types/category -->
<g id="edge23" class="edge"><title>types/precategory&#45;&gt;types/category</title>
<path fill="none" stroke="black" d="M1051.03,-71.6966C1051.47,-63.9827 1052,-54.7125 1052.5,-46.1124"/>
<polygon fill="black" stroke="black" points="1055.99,-46.2878 1053.07,-36.1043 1049,-45.8883 1055.99,-46.2878"/>
</g>
<!-- types/product&#45;&gt;theorems/ua -->
<g id="edge24" class="edge"><title>types/product&#45;&gt;theorems/ua</title>
<path fill="none" stroke="black" d="M797.044,-287.697C797.044,-279.983 797.044,-270.712 797.044,-262.112"/>
<polygon fill="black" stroke="black" points="800.545,-262.104 797.044,-252.104 793.545,-262.104 800.545,-262.104"/>
</g>
<!-- theorems/fibration&#45;&gt;theorems/hopf -->
<g id="edge56" class="edge"><title>theorems/fibration&#45;&gt;theorems/hopf</title>
<path fill="none" stroke="black" d="M672.823,-146.941C641.59,-136.449 598.058,-121.633 560.044,-108 493.085,-83.9857 416.062,-54.7622 368.464,-36.515"/>
<polygon fill="black" stroke="black" points="369.648,-33.2208 359.058,-32.9053 367.14,-39.756 369.648,-33.2208"/>
</g>
<!-- theorems/prop&#45;&gt;types/precategory -->
<g id="edge61" class="edge"><title>theorems/prop&#45;&gt;types/precategory</title>
<path fill="none" stroke="black" d="M1045.53,-143.697C1046.19,-135.983 1046.98,-126.712 1047.72,-118.112"/>
<polygon fill="black" stroke="black" points="1051.21,-118.367 1048.58,-108.104 1044.24,-117.769 1051.21,-118.367"/>
</g>
<!-- HITs/suspension&#45;&gt;HITs/circle -->
<g id="edge49" class="edge"><title>HITs/suspension&#45;&gt;HITs/circle</title>
<path fill="none" stroke="black" d="M377.488,-216.772C366.248,-207.232 353.182,-194.262 345.044,-180 334.164,-160.932 328.622,-136.576 325.824,-118.164"/>
<polygon fill="black" stroke="black" points="329.272,-117.542 324.474,-108.096 322.334,-118.472 329.272,-117.542"/>
</g>
<!-- HITs/join -->
<g id="node39" class="node"><title>HITs/join</title>
<ellipse fill="none" stroke="black" cx="399.044" cy="-162" rx="45.4919" ry="18"/>
<text text-anchor="middle" x="399.044" y="-158.3" font-family="Times New Roman,serif" font-size="14.00">HITs/join</text>
</g>
<!-- HITs/suspension&#45;&gt;HITs/join -->
<g id="edge50" class="edge"><title>HITs/suspension&#45;&gt;HITs/join</title>
<path fill="none" stroke="black" d="M399.044,-215.697C399.044,-207.983 399.044,-198.712 399.044,-190.112"/>
<polygon fill="black" stroke="black" points="402.545,-190.104 399.044,-180.104 395.545,-190.104 402.545,-190.104"/>
</g>
<!-- HITs/colimit&#45;&gt;HITs/merely -->
<g id="edge35" class="edge"><title>HITs/colimit&#45;&gt;HITs/merely</title>
<path fill="none" stroke="black" d="M978.164,-292.647C1014.45,-280.887 1069.18,-263.15 1108.34,-250.459"/>
<polygon fill="black" stroke="black" points="1109.51,-253.76 1117.94,-247.347 1107.35,-247.101 1109.51,-253.76"/>
</g>
<!-- HITs/colimit&#45;&gt;types/nat -->
<g id="edge36" class="edge"><title>HITs/colimit&#45;&gt;types/nat</title>
<path fill="none" stroke="black" d="M933.508,-288.055C930.47,-280.176 926.782,-270.617 923.379,-261.794"/>
<polygon fill="black" stroke="black" points="926.572,-260.346 919.708,-252.275 920.041,-262.865 926.572,-260.346"/>
</g>
<!-- HITs/generalized&#45;&gt;HITs/merely -->
<g id="edge37" class="edge"><title>HITs/generalized&#45;&gt;HITs/merely</title>
<path fill="none" stroke="black" d="M1144.75,-287.697C1146.41,-279.983 1148.39,-270.712 1150.23,-262.112"/>
<polygon fill="black" stroke="black" points="1153.71,-262.616 1152.38,-252.104 1146.86,-261.149 1153.71,-262.616"/>
</g>
<!-- HITs/pushout&#45;&gt;HITs/suspension -->
<g id="edge48" class="edge"><title>HITs/pushout&#45;&gt;HITs/suspension</title>
<path fill="none" stroke="black" d="M491.149,-289.638C474.474,-279.747 452.584,-266.761 434.328,-255.931"/>
<polygon fill="black" stroke="black" points="436.083,-252.903 425.697,-250.811 432.512,-258.923 436.083,-252.903"/>
</g>
<!-- cubical/path -->
<g id="node42" class="node"><title>cubical/path</title>
<ellipse fill="none" stroke="black" cx="624.044" cy="-90" rx="54.6905" ry="18"/>
<text text-anchor="middle" x="624.044" y="-86.3" font-family="Times New Roman,serif" font-size="14.00">cubical/path</text>
</g>
<!-- cubical/cubes&#45;&gt;cubical/path -->
<g id="edge51" class="edge"><title>cubical/cubes&#45;&gt;cubical/path</title>
<path fill="none" stroke="black" d="M575.212,-144.411C583.262,-135.606 593.299,-124.628 602.176,-114.919"/>
<polygon fill="black" stroke="black" points="604.822,-117.212 608.986,-107.47 599.655,-112.489 604.822,-117.212"/>
</g>
<!-- cubical/connection -->
<g id="node41" class="node"><title>cubical/connection</title>
<ellipse fill="none" stroke="black" cx="784.044" cy="-18" rx="79.0865" ry="18"/>
<text text-anchor="middle" x="784.044" y="-14.3" font-family="Times New Roman,serif" font-size="14.00">cubical/connection</text>
</g>
<!-- cubical/path&#45;&gt;cubical/connection -->
<g id="edge52" class="edge"><title>cubical/path&#45;&gt;cubical/connection</title>
<path fill="none" stroke="black" d="M655.655,-75.1703C679.664,-64.6664 712.987,-50.0877 739.667,-38.4151"/>
<polygon fill="black" stroke="black" points="741.408,-41.4739 749.166,-34.2591 738.602,-35.0608 741.408,-41.4739"/>
</g>
<!-- cubical/example -->
<g id="node43" class="node"><title>cubical/example</title>
<ellipse fill="none" stroke="black" cx="474.044" cy="-18" rx="68.7879" ry="18"/>
<text text-anchor="middle" x="474.044" y="-14.3" font-family="Times New Roman,serif" font-size="14.00">cubical/example</text>
</g>
<!-- cubical/path&#45;&gt;cubical/example -->
<g id="edge53" class="edge"><title>cubical/path&#45;&gt;cubical/example</title>
<path fill="none" stroke="black" d="M593.69,-74.8345C571.145,-64.3135 540.138,-49.8435 515.339,-38.2706"/>
<polygon fill="black" stroke="black" points="516.71,-35.0485 506.169,-33.9912 513.75,-41.3918 516.71,-35.0485"/>
</g>
<!-- cubical/square -->
<g id="node44" class="node"><title>cubical/square</title>
<ellipse fill="none" stroke="black" cx="624.044" cy="-18" rx="63.0888" ry="18"/>
<text text-anchor="middle" x="624.044" y="-14.3" font-family="Times New Roman,serif" font-size="14.00">cubical/square</text>
</g>
<!-- cubical/path&#45;&gt;cubical/square -->
<g id="edge54" class="edge"><title>cubical/path&#45;&gt;cubical/square</title>
<path fill="none" stroke="black" d="M624.044,-71.6966C624.044,-63.9827 624.044,-54.7125 624.044,-46.1124"/>
<polygon fill="black" stroke="black" points="627.545,-46.1043 624.044,-36.1043 620.545,-46.1044 627.545,-46.1043"/>
</g>
<!-- cubical/path&#45;&gt;cubical/V -->
<g id="edge55" class="edge"><title>cubical/path&#45;&gt;cubical/V</title>
<path fill="none" stroke="black" d="M670.499,-80.3581C720.548,-70.7488 802.39,-54.1691 872.044,-36 875.641,-35.0619 879.353,-34.0377 883.071,-32.972"/>
<polygon fill="black" stroke="black" points="884.252,-36.2727 892.853,-30.0855 882.271,-29.5589 884.252,-36.2727"/>
</g>
</g>
</svg>
