<?xml version="1.0" encoding="UTF-8" standalone="no"?>
<!DOCTYPE svg PUBLIC "-//W3C//DTD SVG 1.1//EN"
 "http://www.w3.org/Graphics/SVG/1.1/DTD/svg11.dtd">
<!-- Generated by graphviz version 2.38.0 (20140413.2041)
 -->
<!-- Title: dependency_map Pages: 1 -->
<svg width="1409pt" height="836pt"
 viewBox="0.00 0.00 1409.09 836.00" xmlns="http://www.w3.org/2000/svg" xmlns:xlink="http://www.w3.org/1999/xlink">
<g id="graph0" class="graph" transform="scale(1 1) rotate(0) translate(4 832)">
<title>dependency_map</title>
<polygon fill="white" stroke="none" points="-4,4 -4,-832 1405.09,-832 1405.09,4 -4,4"/>
<!-- proto -->
<g id="node1" class="node"><title>proto</title>
<ellipse fill="none" stroke="black" cx="886.941" cy="-810" rx="30.5947" ry="18"/>
<text text-anchor="middle" x="886.941" y="-806.3" font-family="Times New Roman,serif" font-size="14.00">proto</text>
</g>
<!-- types/eq -->
<g id="node2" class="node"><title>types/eq</title>
<ellipse fill="none" stroke="black" cx="946.941" cy="-738" rx="41.6928" ry="18"/>
<text text-anchor="middle" x="946.941" y="-734.3" font-family="Times New Roman,serif" font-size="14.00">types/eq</text>
</g>
<!-- proto&#45;&gt;types/eq -->
<g id="edge1" class="edge"><title>proto&#45;&gt;types/eq</title>
<path fill="none" stroke="black" d="M900.257,-793.465C907.884,-784.566 917.622,-773.205 926.228,-763.164"/>
<polygon fill="black" stroke="black" points="928.975,-765.338 932.826,-755.467 923.661,-760.782 928.975,-765.338"/>
</g>
<!-- support -->
<g id="node4" class="node"><title>support</title>
<ellipse fill="none" stroke="black" cx="884.941" cy="-666" rx="38.9931" ry="18"/>
<text text-anchor="middle" x="884.941" y="-662.3" font-family="Times New Roman,serif" font-size="14.00">support</text>
</g>
<!-- types/eq&#45;&gt;support -->
<g id="edge10" class="edge"><title>types/eq&#45;&gt;support</title>
<path fill="none" stroke="black" d="M932.561,-720.765C924.657,-711.841 914.708,-700.608 905.949,-690.719"/>
<polygon fill="black" stroke="black" points="908.493,-688.313 899.243,-683.147 903.253,-692.954 908.493,-688.313"/>
</g>
<!-- types/dep_path -->
<g id="node13" class="node"><title>types/dep_path</title>
<ellipse fill="none" stroke="black" cx="1008.94" cy="-666" rx="66.8882" ry="18"/>
<text text-anchor="middle" x="1008.94" y="-662.3" font-family="Times New Roman,serif" font-size="14.00">types/dep_path</text>
</g>
<!-- types/eq&#45;&gt;types/dep_path -->
<g id="edge11" class="edge"><title>types/eq&#45;&gt;types/dep_path</title>
<path fill="none" stroke="black" d="M961.32,-720.765C969.111,-711.969 978.89,-700.928 987.556,-691.144"/>
<polygon fill="black" stroke="black" points="990.198,-693.44 994.208,-683.633 984.958,-688.799 990.198,-693.44"/>
</g>
<!-- meta/hott_theory -->
<g id="node3" class="node"><title>meta/hott_theory</title>
<ellipse fill="none" stroke="black" cx="1007.94" cy="-810" rx="72.2875" ry="18"/>
<text text-anchor="middle" x="1007.94" y="-806.3" font-family="Times New Roman,serif" font-size="14.00">meta/hott_theory</text>
</g>
<!-- meta/hott_theory&#45;&gt;types/eq -->
<g id="edge2" class="edge"><title>meta/hott_theory&#45;&gt;types/eq</title>
<path fill="none" stroke="black" d="M993.174,-792.055C985.571,-783.33 976.172,-772.544 967.838,-762.981"/>
<polygon fill="black" stroke="black" points="970.359,-760.547 961.151,-755.307 965.082,-765.146 970.359,-760.547"/>
</g>
<!-- types/equiv -->
<g id="node5" class="node"><title>types/equiv</title>
<ellipse fill="none" stroke="black" cx="1008.94" cy="-594" rx="51.9908" ry="18"/>
<text text-anchor="middle" x="1008.94" y="-590.3" font-family="Times New Roman,serif" font-size="14.00">types/equiv</text>
</g>
<!-- support&#45;&gt;types/equiv -->
<g id="edge3" class="edge"><title>support&#45;&gt;types/equiv</title>
<path fill="none" stroke="black" d="M908.556,-651.669C927.041,-641.233 953.032,-626.561 973.936,-614.761"/>
<polygon fill="black" stroke="black" points="975.853,-617.698 982.841,-609.734 972.412,-611.602 975.853,-617.698"/>
</g>
<!-- types/coproduct -->
<g id="node10" class="node"><title>types/coproduct</title>
<ellipse fill="none" stroke="black" cx="941.941" cy="-522" rx="70.6878" ry="18"/>
<text text-anchor="middle" x="941.941" y="-518.3" font-family="Times New Roman,serif" font-size="14.00">types/coproduct</text>
</g>
<!-- types/equiv&#45;&gt;types/coproduct -->
<g id="edge12" class="edge"><title>types/equiv&#45;&gt;types/coproduct</title>
<path fill="none" stroke="black" d="M993.401,-576.765C984.982,-567.969 974.415,-556.928 965.05,-547.144"/>
<polygon fill="black" stroke="black" points="967.304,-544.437 957.861,-539.633 962.247,-549.278 967.304,-544.437"/>
</g>
<!-- types/heq -->
<g id="node14" class="node"><title>types/heq</title>
<ellipse fill="none" stroke="black" cx="742.941" cy="-522" rx="46.2923" ry="18"/>
<text text-anchor="middle" x="742.941" y="-518.3" font-family="Times New Roman,serif" font-size="14.00">types/heq</text>
</g>
<!-- types/equiv&#45;&gt;types/heq -->
<g id="edge13" class="edge"><title>types/equiv&#45;&gt;types/heq</title>
<path fill="none" stroke="black" d="M968.83,-582.445C920.935,-569.841 840.941,-548.789 790.121,-535.416"/>
<polygon fill="black" stroke="black" points="790.926,-532.009 780.365,-532.848 789.145,-538.778 790.926,-532.009"/>
</g>
<!-- HITs/infinitesimal -->
<g id="node15" class="node"><title>HITs/infinitesimal</title>
<ellipse fill="none" stroke="black" cx="1215.94" cy="-522" rx="74.9875" ry="18"/>
<text text-anchor="middle" x="1215.94" y="-518.3" font-family="Times New Roman,serif" font-size="14.00">HITs/infinitesimal</text>
</g>
<!-- types/equiv&#45;&gt;HITs/infinitesimal -->
<g id="edge14" class="edge"><title>types/equiv&#45;&gt;HITs/infinitesimal</title>
<path fill="none" stroke="black" d="M1045,-580.807C1078.07,-569.624 1127.41,-552.939 1164.59,-540.365"/>
<polygon fill="black" stroke="black" points="1165.89,-543.619 1174.25,-537.1 1163.65,-536.988 1165.89,-543.619"/>
</g>
<!-- types/lost -->
<g id="node16" class="node"><title>types/lost</title>
<ellipse fill="none" stroke="black" cx="1354.94" cy="-522" rx="46.2923" ry="18"/>
<text text-anchor="middle" x="1354.94" y="-518.3" font-family="Times New Roman,serif" font-size="14.00">types/lost</text>
</g>
<!-- types/equiv&#45;&gt;types/lost -->
<g id="edge15" class="edge"><title>types/equiv&#45;&gt;types/lost</title>
<path fill="none" stroke="black" d="M1055.92,-586.215C1113.76,-577.458 1214.77,-560.84 1299.94,-540 1303.55,-539.117 1307.27,-538.131 1311,-537.092"/>
<polygon fill="black" stroke="black" points="1312.16,-540.398 1320.79,-534.249 1310.21,-533.676 1312.16,-540.398"/>
</g>
<!-- types/unit -->
<g id="node17" class="node"><title>types/unit</title>
<ellipse fill="none" stroke="black" cx="1076.94" cy="-522" rx="46.2923" ry="18"/>
<text text-anchor="middle" x="1076.94" y="-518.3" font-family="Times New Roman,serif" font-size="14.00">types/unit</text>
</g>
<!-- types/equiv&#45;&gt;types/unit -->
<g id="edge16" class="edge"><title>types/equiv&#45;&gt;types/unit</title>
<path fill="none" stroke="black" d="M1024.71,-576.765C1033.47,-567.753 1044.51,-556.385 1054.18,-546.426"/>
<polygon fill="black" stroke="black" points="1056.8,-548.759 1061.25,-539.147 1051.78,-543.881 1056.8,-548.759"/>
</g>
<!-- types/sigma -->
<g id="node18" class="node"><title>types/sigma</title>
<ellipse fill="none" stroke="black" cx="842.941" cy="-306" rx="53.8905" ry="18"/>
<text text-anchor="middle" x="842.941" y="-302.3" font-family="Times New Roman,serif" font-size="14.00">types/sigma</text>
</g>
<!-- types/equiv&#45;&gt;types/sigma -->
<g id="edge17" class="edge"><title>types/equiv&#45;&gt;types/sigma</title>
<path fill="none" stroke="black" d="M959.25,-588.675C926.222,-583.001 884.854,-569.95 861.941,-540 815.383,-479.144 827.162,-381.326 836.555,-334.161"/>
<polygon fill="black" stroke="black" points="840.038,-334.609 838.678,-324.102 833.188,-333.164 840.038,-334.609"/>
</g>
<!-- structures -->
<g id="node6" class="node"><title>structures</title>
<ellipse fill="none" stroke="black" cx="941.941" cy="-450" rx="46.2923" ry="18"/>
<text text-anchor="middle" x="941.941" y="-446.3" font-family="Times New Roman,serif" font-size="14.00">structures</text>
</g>
<!-- HITs/interval -->
<g id="node7" class="node"><title>HITs/interval</title>
<ellipse fill="none" stroke="black" cx="742.941" cy="-378" rx="57.6901" ry="18"/>
<text text-anchor="middle" x="742.941" y="-374.3" font-family="Times New Roman,serif" font-size="14.00">HITs/interval</text>
</g>
<!-- structures&#45;&gt;HITs/interval -->
<g id="edge4" class="edge"><title>structures&#45;&gt;HITs/interval</title>
<path fill="none" stroke="black" d="M908.632,-437.284C875.927,-425.779 825.76,-408.133 789.194,-395.27"/>
<polygon fill="black" stroke="black" points="790.334,-391.961 779.739,-391.944 788.011,-398.564 790.334,-391.961"/>
</g>
<!-- HITs/truncation -->
<g id="node8" class="node"><title>HITs/truncation</title>
<ellipse fill="none" stroke="black" cx="243.941" cy="-306" rx="68.4888" ry="18"/>
<text text-anchor="middle" x="243.941" y="-302.3" font-family="Times New Roman,serif" font-size="14.00">HITs/truncation</text>
</g>
<!-- structures&#45;&gt;HITs/truncation -->
<g id="edge5" class="edge"><title>structures&#45;&gt;HITs/truncation</title>
<path fill="none" stroke="black" d="M896.337,-446.625C803.787,-441.233 597.321,-426.131 533.941,-396 512.93,-386.011 516.563,-370.768 495.941,-360 425.937,-323.449 399.188,-340.409 321.941,-324 316.295,-322.801 310.423,-321.542 304.546,-320.275"/>
<polygon fill="black" stroke="black" points="305.207,-316.837 294.693,-318.143 303.726,-323.678 305.207,-316.837"/>
</g>
<!-- types/nat -->
<g id="node9" class="node"><title>types/nat</title>
<ellipse fill="none" stroke="black" cx="957.941" cy="-306" rx="43.5923" ry="18"/>
<text text-anchor="middle" x="957.941" y="-302.3" font-family="Times New Roman,serif" font-size="14.00">types/nat</text>
</g>
<!-- structures&#45;&gt;types/nat -->
<g id="edge6" class="edge"><title>structures&#45;&gt;types/nat</title>
<path fill="none" stroke="black" d="M943.871,-431.871C946.597,-407.67 951.607,-363.211 954.854,-334.393"/>
<polygon fill="black" stroke="black" points="958.362,-334.518 956.004,-324.189 951.406,-333.734 958.362,-334.518"/>
</g>
<!-- types/product -->
<g id="node23" class="node"><title>types/product</title>
<ellipse fill="none" stroke="black" cx="632.941" cy="-306" rx="61.99" ry="18"/>
<text text-anchor="middle" x="632.941" y="-302.3" font-family="Times New Roman,serif" font-size="14.00">types/product</text>
</g>
<!-- HITs/interval&#45;&gt;types/product -->
<g id="edge40" class="edge"><title>HITs/interval&#45;&gt;types/product</title>
<path fill="none" stroke="black" d="M718.801,-361.638C703.29,-351.768 682.939,-338.817 665.943,-328.001"/>
<polygon fill="black" stroke="black" points="667.72,-324.984 657.404,-322.568 663.962,-330.889 667.72,-324.984"/>
</g>
<!-- theorems/fibration -->
<g id="node26" class="node"><title>theorems/fibration</title>
<ellipse fill="none" stroke="black" cx="1000.94" cy="-234" rx="76.8869" ry="18"/>
<text text-anchor="middle" x="1000.94" y="-230.3" font-family="Times New Roman,serif" font-size="14.00">theorems/fibration</text>
</g>
<!-- HITs/interval&#45;&gt;theorems/fibration -->
<g id="edge41" class="edge"><title>HITs/interval&#45;&gt;theorems/fibration</title>
<path fill="none" stroke="black" d="M745.334,-359.866C749.081,-339.649 758.295,-306.458 779.941,-288 786.041,-282.798 873.5,-262.833 936.537,-248.951"/>
<polygon fill="black" stroke="black" points="937.411,-252.342 946.428,-246.778 935.91,-245.505 937.411,-252.342"/>
</g>
<!-- theorems/prop -->
<g id="node27" class="node"><title>theorems/prop</title>
<ellipse fill="none" stroke="black" cx="842.941" cy="-234" rx="63.8893" ry="18"/>
<text text-anchor="middle" x="842.941" y="-230.3" font-family="Times New Roman,serif" font-size="14.00">theorems/prop</text>
</g>
<!-- HITs/interval&#45;&gt;theorems/prop -->
<g id="edge42" class="edge"><title>HITs/interval&#45;&gt;theorems/prop</title>
<path fill="none" stroke="black" d="M739.054,-359.822C735.736,-340.759 733.397,-309.813 746.941,-288 757.108,-271.624 774.25,-259.911 791.259,-251.734"/>
<polygon fill="black" stroke="black" points="792.941,-254.816 800.649,-247.548 790.091,-248.423 792.941,-254.816"/>
</g>
<!-- HITs/reals -->
<g id="node31" class="node"><title>HITs/reals</title>
<ellipse fill="none" stroke="black" cx="700.941" cy="-18" rx="48.9926" ry="18"/>
<text text-anchor="middle" x="700.941" y="-14.3" font-family="Times New Roman,serif" font-size="14.00">HITs/reals</text>
</g>
<!-- HITs/interval&#45;&gt;HITs/reals -->
<g id="edge43" class="edge"><title>HITs/interval&#45;&gt;HITs/reals</title>
<path fill="none" stroke="black" d="M699.731,-365.823C649.959,-352.72 573.514,-331.8 561.941,-324 473.262,-264.238 473.399,-213.502 455.941,-108 453.328,-92.2147 445.894,-84.4525 455.941,-72 479.058,-43.3466 578.641,-29.4171 643.514,-23.2651"/>
<polygon fill="black" stroke="black" points="643.97,-26.7381 653.61,-22.3435 643.334,-19.7671 643.97,-26.7381"/>
</g>
<!-- HITs/truncation&#45;&gt;theorems/prop -->
<g id="edge47" class="edge"><title>HITs/truncation&#45;&gt;theorems/prop</title>
<path fill="none" stroke="black" d="M292.853,-293.286C302.454,-291.286 312.481,-289.404 321.941,-288 519.969,-258.618 573.174,-283.091 770.941,-252 776.412,-251.14 782.084,-250.087 787.732,-248.931"/>
<polygon fill="black" stroke="black" points="788.787,-252.284 797.827,-246.758 787.314,-245.441 788.787,-252.284"/>
</g>
<!-- HITs/simplicial -->
<g id="node37" class="node"><title>HITs/simplicial</title>
<ellipse fill="none" stroke="black" cx="295.941" cy="-234" rx="65.7887" ry="18"/>
<text text-anchor="middle" x="295.941" y="-230.3" font-family="Times New Roman,serif" font-size="14.00">HITs/simplicial</text>
</g>
<!-- HITs/truncation&#45;&gt;HITs/simplicial -->
<g id="edge48" class="edge"><title>HITs/truncation&#45;&gt;HITs/simplicial</title>
<path fill="none" stroke="black" d="M256.528,-288.055C262.788,-279.629 270.476,-269.28 277.394,-259.966"/>
<polygon fill="black" stroke="black" points="280.315,-261.904 283.469,-251.789 274.696,-257.729 280.315,-261.904"/>
</g>
<!-- theorems/mere_eq_lemma -->
<g id="node38" class="node"><title>theorems/mere_eq_lemma</title>
<ellipse fill="none" stroke="black" cx="105.941" cy="-234" rx="105.881" ry="18"/>
<text text-anchor="middle" x="105.941" y="-230.3" font-family="Times New Roman,serif" font-size="14.00">theorems/mere_eq_lemma</text>
</g>
<!-- HITs/truncation&#45;&gt;theorems/mere_eq_lemma -->
<g id="edge49" class="edge"><title>HITs/truncation&#45;&gt;theorems/mere_eq_lemma</title>
<path fill="none" stroke="black" d="M213.997,-289.811C194.524,-279.933 168.863,-266.917 147.434,-256.047"/>
<polygon fill="black" stroke="black" points="148.734,-252.783 138.233,-251.38 145.568,-259.025 148.734,-252.783"/>
</g>
<!-- theorems/nat -->
<g id="node22" class="node"><title>theorems/nat</title>
<ellipse fill="none" stroke="black" cx="1143.94" cy="-162" rx="57.3905" ry="18"/>
<text text-anchor="middle" x="1143.94" y="-158.3" font-family="Times New Roman,serif" font-size="14.00">theorems/nat</text>
</g>
<!-- types/nat&#45;&gt;theorems/nat -->
<g id="edge22" class="edge"><title>types/nat&#45;&gt;theorems/nat</title>
<path fill="none" stroke="black" d="M991.096,-294.166C1038.47,-278.685 1119.87,-252.076 1119.94,-252 1135.65,-235.444 1141.3,-209.719 1143.23,-190.175"/>
<polygon fill="black" stroke="black" points="1146.73,-190.277 1143.96,-180.052 1139.75,-189.775 1146.73,-190.277"/>
</g>
<!-- types/coproduct&#45;&gt;structures -->
<g id="edge7" class="edge"><title>types/coproduct&#45;&gt;structures</title>
<path fill="none" stroke="black" d="M941.941,-503.697C941.941,-495.983 941.941,-486.712 941.941,-478.112"/>
<polygon fill="black" stroke="black" points="945.441,-478.104 941.941,-468.104 938.441,-478.104 945.441,-478.104"/>
</g>
<!-- types/integer -->
<g id="node11" class="node"><title>types/integer</title>
<ellipse fill="none" stroke="black" cx="1084.94" cy="-450" rx="56.59" ry="18"/>
<text text-anchor="middle" x="1084.94" y="-446.3" font-family="Times New Roman,serif" font-size="14.00">types/integer</text>
</g>
<!-- types/coproduct&#45;&gt;types/integer -->
<g id="edge8" class="edge"><title>types/coproduct&#45;&gt;types/integer</title>
<path fill="none" stroke="black" d="M972.969,-505.811C994.484,-495.279 1023.29,-481.18 1046.29,-469.918"/>
<polygon fill="black" stroke="black" points="1048,-472.982 1055.44,-465.442 1044.92,-466.695 1048,-472.982"/>
</g>
<!-- HITs/circle -->
<g id="node20" class="node"><title>HITs/circle</title>
<ellipse fill="none" stroke="black" cx="1239.94" cy="-90" rx="51.9908" ry="18"/>
<text text-anchor="middle" x="1239.94" y="-86.3" font-family="Times New Roman,serif" font-size="14.00">HITs/circle</text>
</g>
<!-- types/integer&#45;&gt;HITs/circle -->
<g id="edge20" class="edge"><title>types/integer&#45;&gt;HITs/circle</title>
<path fill="none" stroke="black" d="M1137.88,-443.382C1213.11,-432.137 1341.94,-399.394 1341.94,-307 1341.94,-307 1341.94,-307 1341.94,-233 1341.94,-183.059 1299.81,-138.657 1269.7,-113.303"/>
<polygon fill="black" stroke="black" points="1271.53,-110.281 1261.57,-106.668 1267.11,-115.703 1271.53,-110.281"/>
</g>
<!-- types/rational -->
<g id="node21" class="node"><title>types/rational</title>
<ellipse fill="none" stroke="black" cx="1084.94" cy="-378" rx="59.2899" ry="18"/>
<text text-anchor="middle" x="1084.94" y="-374.3" font-family="Times New Roman,serif" font-size="14.00">types/rational</text>
</g>
<!-- types/integer&#45;&gt;types/rational -->
<g id="edge21" class="edge"><title>types/integer&#45;&gt;types/rational</title>
<path fill="none" stroke="black" d="M1084.94,-431.697C1084.94,-423.983 1084.94,-414.712 1084.94,-406.112"/>
<polygon fill="black" stroke="black" points="1088.44,-406.104 1084.94,-396.104 1081.44,-406.104 1088.44,-406.104"/>
</g>
<!-- types/dedekind -->
<g id="node12" class="node"><title>types/dedekind</title>
<ellipse fill="none" stroke="black" cx="1084.94" cy="-306" rx="65.7887" ry="18"/>
<text text-anchor="middle" x="1084.94" y="-302.3" font-family="Times New Roman,serif" font-size="14.00">types/dedekind</text>
</g>
<!-- types/dep_path&#45;&gt;types/equiv -->
<g id="edge9" class="edge"><title>types/dep_path&#45;&gt;types/equiv</title>
<path fill="none" stroke="black" d="M1008.94,-647.697C1008.94,-639.983 1008.94,-630.712 1008.94,-622.112"/>
<polygon fill="black" stroke="black" points="1012.44,-622.104 1008.94,-612.104 1005.44,-622.104 1012.44,-622.104"/>
</g>
<!-- types/heq&#45;&gt;HITs/interval -->
<g id="edge18" class="edge"><title>types/heq&#45;&gt;HITs/interval</title>
<path fill="none" stroke="black" d="M742.941,-503.871C742.941,-479.67 742.941,-435.211 742.941,-406.393"/>
<polygon fill="black" stroke="black" points="746.441,-406.189 742.941,-396.189 739.441,-406.189 746.441,-406.189"/>
</g>
<!-- HITs/graph -->
<g id="node19" class="node"><title>HITs/graph</title>
<ellipse fill="none" stroke="black" cx="411.941" cy="-450" rx="52.7911" ry="18"/>
<text text-anchor="middle" x="411.941" y="-446.3" font-family="Times New Roman,serif" font-size="14.00">HITs/graph</text>
</g>
<!-- types/heq&#45;&gt;HITs/graph -->
<g id="edge19" class="edge"><title>types/heq&#45;&gt;HITs/graph</title>
<path fill="none" stroke="black" d="M703.343,-512.626C644.013,-500.079 531.927,-476.375 465.393,-462.304"/>
<polygon fill="black" stroke="black" points="466.028,-458.861 455.52,-460.216 464.579,-465.71 466.028,-458.861"/>
</g>
<!-- types/unit&#45;&gt;structures -->
<g id="edge29" class="edge"><title>types/unit&#45;&gt;structures</title>
<path fill="none" stroke="black" d="M1050.27,-507.17C1029.47,-496.384 1000.38,-481.302 977.583,-469.481"/>
<polygon fill="black" stroke="black" points="979.046,-466.297 968.557,-464.801 975.823,-472.511 979.046,-466.297"/>
</g>
<!-- HITs/suspension -->
<g id="node28" class="node"><title>HITs/suspension</title>
<ellipse fill="none" stroke="black" cx="1240.94" cy="-306" rx="72.5877" ry="18"/>
<text text-anchor="middle" x="1240.94" y="-302.3" font-family="Times New Roman,serif" font-size="14.00">HITs/suspension</text>
</g>
<!-- types/unit&#45;&gt;HITs/suspension -->
<g id="edge30" class="edge"><title>types/unit&#45;&gt;HITs/suspension</title>
<path fill="none" stroke="black" d="M1102.07,-506.903C1117.51,-497.362 1136.93,-483.668 1150.94,-468 1187.88,-426.678 1216.01,-367.63 1230.36,-333.719"/>
<polygon fill="black" stroke="black" points="1233.77,-334.627 1234.36,-324.049 1227.31,-331.949 1233.77,-334.627"/>
</g>
<!-- types/sigma&#45;&gt;theorems/nat -->
<g id="edge26" class="edge"><title>types/sigma&#45;&gt;theorems/nat</title>
<path fill="none" stroke="black" d="M882.521,-293.689C889.947,-291.697 897.662,-289.715 904.941,-288 985.198,-269.086 1018.8,-298.437 1086.94,-252 1109.22,-236.815 1124.71,-209.736 1133.85,-189.423"/>
<polygon fill="black" stroke="black" points="1137.14,-190.647 1137.84,-180.076 1130.7,-187.903 1137.14,-190.647"/>
</g>
<!-- types/sigma&#45;&gt;theorems/fibration -->
<g id="edge27" class="edge"><title>types/sigma&#45;&gt;theorems/fibration</title>
<path fill="none" stroke="black" d="M874.156,-291.17C897.945,-280.631 930.994,-265.989 957.385,-254.297"/>
<polygon fill="black" stroke="black" points="959.052,-257.386 966.777,-250.136 956.216,-250.986 959.052,-257.386"/>
</g>
<!-- types/sigma&#45;&gt;theorems/prop -->
<g id="edge28" class="edge"><title>types/sigma&#45;&gt;theorems/prop</title>
<path fill="none" stroke="black" d="M842.941,-287.697C842.941,-279.983 842.941,-270.712 842.941,-262.112"/>
<polygon fill="black" stroke="black" points="846.441,-262.104 842.941,-252.104 839.441,-262.104 846.441,-262.104"/>
</g>
<!-- HITs/colimit -->
<g id="node32" class="node"><title>HITs/colimit</title>
<ellipse fill="none" stroke="black" cx="98.9406" cy="-378" rx="56.59" ry="18"/>
<text text-anchor="middle" x="98.9406" y="-374.3" font-family="Times New Roman,serif" font-size="14.00">HITs/colimit</text>
</g>
<!-- HITs/graph&#45;&gt;HITs/colimit -->
<g id="edge36" class="edge"><title>HITs/graph&#45;&gt;HITs/colimit</title>
<path fill="none" stroke="black" d="M367.646,-440.062C318.12,-429.937 235.585,-412.67 164.941,-396 160.359,-394.919 155.608,-393.763 150.851,-392.583"/>
<polygon fill="black" stroke="black" points="151.68,-389.182 141.128,-390.139 149.973,-395.971 151.68,-389.182"/>
</g>
<!-- HITs/generalized -->
<g id="node33" class="node"><title>HITs/generalized</title>
<ellipse fill="none" stroke="black" cx="245.941" cy="-378" rx="72.2875" ry="18"/>
<text text-anchor="middle" x="245.941" y="-374.3" font-family="Times New Roman,serif" font-size="14.00">HITs/generalized</text>
</g>
<!-- HITs/graph&#45;&gt;HITs/generalized -->
<g id="edge37" class="edge"><title>HITs/graph&#45;&gt;HITs/generalized</title>
<path fill="none" stroke="black" d="M379.934,-435.503C354.456,-424.759 318.511,-409.602 290.264,-397.69"/>
<polygon fill="black" stroke="black" points="291.58,-394.447 281.005,-393.786 288.86,-400.897 291.58,-394.447"/>
</g>
<!-- HITs/pushout -->
<g id="node34" class="node"><title>HITs/pushout</title>
<ellipse fill="none" stroke="black" cx="604.941" cy="-378" rx="61.99" ry="18"/>
<text text-anchor="middle" x="604.941" y="-374.3" font-family="Times New Roman,serif" font-size="14.00">HITs/pushout</text>
</g>
<!-- HITs/graph&#45;&gt;HITs/pushout -->
<g id="edge38" class="edge"><title>HITs/graph&#45;&gt;HITs/pushout</title>
<path fill="none" stroke="black" d="M446.891,-436.324C478.035,-425.028 523.857,-408.408 558.154,-395.969"/>
<polygon fill="black" stroke="black" points="559.741,-399.117 567.949,-392.417 557.354,-392.536 559.741,-399.117"/>
</g>
<!-- types/precategory -->
<g id="node35" class="node"><title>types/precategory</title>
<ellipse fill="none" stroke="black" cx="411.941" cy="-378" rx="75.2868" ry="18"/>
<text text-anchor="middle" x="411.941" y="-374.3" font-family="Times New Roman,serif" font-size="14.00">types/precategory</text>
</g>
<!-- HITs/graph&#45;&gt;types/precategory -->
<g id="edge39" class="edge"><title>HITs/graph&#45;&gt;types/precategory</title>
<path fill="none" stroke="black" d="M411.941,-431.697C411.941,-423.983 411.941,-414.712 411.941,-406.112"/>
<polygon fill="black" stroke="black" points="415.441,-406.104 411.941,-396.104 408.441,-406.104 415.441,-406.104"/>
</g>
<!-- theorems/hopf -->
<g id="node29" class="node"><title>theorems/hopf</title>
<ellipse fill="none" stroke="black" cx="1076.94" cy="-18" rx="63.8893" ry="18"/>
<text text-anchor="middle" x="1076.94" y="-14.3" font-family="Times New Roman,serif" font-size="14.00">theorems/hopf</text>
</g>
<!-- HITs/circle&#45;&gt;theorems/hopf -->
<g id="edge31" class="edge"><title>HITs/circle&#45;&gt;theorems/hopf</title>
<path fill="none" stroke="black" d="M1208.51,-75.5033C1183.36,-64.6995 1147.81,-49.4327 1120,-37.4915"/>
<polygon fill="black" stroke="black" points="1121.09,-34.1492 1110.52,-33.4192 1118.32,-40.5812 1121.09,-34.1492"/>
</g>
<!-- HITs/moebius -->
<g id="node30" class="node"><title>HITs/moebius</title>
<ellipse fill="none" stroke="black" cx="1239.94" cy="-18" rx="63.0888" ry="18"/>
<text text-anchor="middle" x="1239.94" y="-14.3" font-family="Times New Roman,serif" font-size="14.00">HITs/moebius</text>
</g>
<!-- HITs/circle&#45;&gt;HITs/moebius -->
<g id="edge32" class="edge"><title>HITs/circle&#45;&gt;HITs/moebius</title>
<path fill="none" stroke="black" d="M1239.94,-71.6966C1239.94,-63.9827 1239.94,-54.7125 1239.94,-46.1124"/>
<polygon fill="black" stroke="black" points="1243.44,-46.1043 1239.94,-36.1043 1236.44,-46.1044 1243.44,-46.1043"/>
</g>
<!-- HITs/circle&#45;&gt;HITs/reals -->
<g id="edge33" class="edge"><title>HITs/circle&#45;&gt;HITs/reals</title>
<path fill="none" stroke="black" d="M1202.42,-77.5205C1194.71,-75.4506 1186.6,-73.4827 1178.94,-72 1028.97,-42.9848 849.227,-28.3727 758.859,-22.3961"/>
<polygon fill="black" stroke="black" points="759.021,-18.8994 748.815,-21.7432 758.567,-25.8846 759.021,-18.8994"/>
</g>
<!-- types/rational&#45;&gt;types/dedekind -->
<g id="edge25" class="edge"><title>types/rational&#45;&gt;types/dedekind</title>
<path fill="none" stroke="black" d="M1084.94,-359.697C1084.94,-351.983 1084.94,-342.712 1084.94,-334.112"/>
<polygon fill="black" stroke="black" points="1088.44,-334.104 1084.94,-324.104 1081.44,-334.104 1088.44,-334.104"/>
</g>
<!-- theorems/nat&#45;&gt;HITs/circle -->
<g id="edge57" class="edge"><title>theorems/nat&#45;&gt;HITs/circle</title>
<path fill="none" stroke="black" d="M1165.72,-145.116C1178.95,-135.472 1196.01,-123.035 1210.43,-112.516"/>
<polygon fill="black" stroke="black" points="1212.56,-115.3 1218.57,-106.58 1208.43,-109.644 1212.56,-115.3"/>
</g>
<!-- HITs/int -->
<g id="node45" class="node"><title>HITs/int</title>
<ellipse fill="none" stroke="black" cx="1128.94" cy="-90" rx="40.8928" ry="18"/>
<text text-anchor="middle" x="1128.94" y="-86.3" font-family="Times New Roman,serif" font-size="14.00">HITs/int</text>
</g>
<!-- theorems/nat&#45;&gt;HITs/int -->
<g id="edge58" class="edge"><title>theorems/nat&#45;&gt;HITs/int</title>
<path fill="none" stroke="black" d="M1140.23,-143.697C1138.58,-135.983 1136.59,-126.712 1134.75,-118.112"/>
<polygon fill="black" stroke="black" points="1138.12,-117.149 1132.61,-108.104 1131.28,-118.616 1138.12,-117.149"/>
</g>
<!-- cubical/cubes -->
<g id="node24" class="node"><title>cubical/cubes</title>
<ellipse fill="none" stroke="black" cx="573.941" cy="-234" rx="60.3893" ry="18"/>
<text text-anchor="middle" x="573.941" y="-230.3" font-family="Times New Roman,serif" font-size="14.00">cubical/cubes</text>
</g>
<!-- types/product&#45;&gt;cubical/cubes -->
<g id="edge23" class="edge"><title>types/product&#45;&gt;cubical/cubes</title>
<path fill="none" stroke="black" d="M618.958,-288.411C611.717,-279.82 602.732,-269.159 594.698,-259.627"/>
<polygon fill="black" stroke="black" points="597.353,-257.347 588.232,-251.956 592.001,-261.858 597.353,-257.347"/>
</g>
<!-- theorems/ua -->
<g id="node25" class="node"><title>theorems/ua</title>
<ellipse fill="none" stroke="black" cx="706.941" cy="-234" rx="54.6905" ry="18"/>
<text text-anchor="middle" x="706.941" y="-230.3" font-family="Times New Roman,serif" font-size="14.00">theorems/ua</text>
</g>
<!-- types/product&#45;&gt;theorems/ua -->
<g id="edge24" class="edge"><title>types/product&#45;&gt;theorems/ua</title>
<path fill="none" stroke="black" d="M650.478,-288.411C660.039,-279.367 672.024,-268.03 682.489,-258.13"/>
<polygon fill="black" stroke="black" points="684.925,-260.643 689.785,-251.228 680.115,-255.558 684.925,-260.643"/>
</g>
<!-- cubical/path -->
<g id="node40" class="node"><title>cubical/path</title>
<ellipse fill="none" stroke="black" cx="683.941" cy="-162" rx="54.6905" ry="18"/>
<text text-anchor="middle" x="683.941" y="-158.3" font-family="Times New Roman,serif" font-size="14.00">cubical/path</text>
</g>
<!-- cubical/cubes&#45;&gt;cubical/path -->
<g id="edge50" class="edge"><title>cubical/cubes&#45;&gt;cubical/path</title>
<path fill="none" stroke="black" d="M598.353,-217.465C613.984,-207.518 634.448,-194.496 651.446,-183.679"/>
<polygon fill="black" stroke="black" points="653.417,-186.573 659.975,-178.251 649.659,-180.667 653.417,-186.573"/>
</g>
<!-- theorems/ua&#45;&gt;theorems/nat -->
<g id="edge59" class="edge"><title>theorems/ua&#45;&gt;theorems/nat</title>
<path fill="none" stroke="black" d="M746.42,-221.552C754.177,-219.528 762.283,-217.57 769.941,-216 877.93,-193.865 1005.35,-177.948 1080.13,-169.626"/>
<polygon fill="black" stroke="black" points="1080.77,-173.077 1090.32,-168.503 1080,-166.12 1080.77,-173.077"/>
</g>
<!-- cubical/V -->
<g id="node43" class="node"><title>cubical/V</title>
<ellipse fill="none" stroke="black" cx="986.941" cy="-90" rx="45.4919" ry="18"/>
<text text-anchor="middle" x="986.941" y="-86.3" font-family="Times New Roman,serif" font-size="14.00">cubical/V</text>
</g>
<!-- theorems/ua&#45;&gt;cubical/V -->
<g id="edge60" class="edge"><title>theorems/ua&#45;&gt;cubical/V</title>
<path fill="none" stroke="black" d="M735.329,-218.603C786.586,-192.608 894.485,-137.888 950.878,-109.289"/>
<polygon fill="black" stroke="black" points="952.791,-112.243 960.127,-104.598 949.625,-106 952.791,-112.243"/>
</g>
<!-- theorems/fibration&#45;&gt;theorems/hopf -->
<g id="edge55" class="edge"><title>theorems/fibration&#45;&gt;theorems/hopf</title>
<path fill="none" stroke="black" d="M1007.03,-215.849C1020.27,-178.583 1051.73,-90.0016 1067.53,-45.4898"/>
<polygon fill="black" stroke="black" points="1070.88,-46.5301 1070.93,-35.9354 1064.28,-44.1874 1070.88,-46.5301"/>
</g>
<!-- HITs/suspension&#45;&gt;HITs/circle -->
<g id="edge46" class="edge"><title>HITs/suspension&#45;&gt;HITs/circle</title>
<path fill="none" stroke="black" d="M1240.86,-287.849C1240.69,-250.832 1240.28,-163.181 1240.07,-118.386"/>
<polygon fill="black" stroke="black" points="1243.57,-118.216 1240.02,-108.232 1236.57,-118.249 1243.57,-118.216"/>
</g>
<!-- HITs/colimit&#45;&gt;HITs/truncation -->
<g id="edge34" class="edge"><title>HITs/colimit&#45;&gt;HITs/truncation</title>
<path fill="none" stroke="black" d="M128.633,-362.666C150.284,-352.213 179.871,-337.93 203.653,-326.449"/>
<polygon fill="black" stroke="black" points="205.3,-329.54 212.784,-322.041 202.257,-323.237 205.3,-329.54"/>
</g>
<!-- HITs/generalized&#45;&gt;HITs/truncation -->
<g id="edge35" class="edge"><title>HITs/generalized&#45;&gt;HITs/truncation</title>
<path fill="none" stroke="black" d="M245.446,-359.697C245.226,-351.983 244.961,-342.712 244.715,-334.112"/>
<polygon fill="black" stroke="black" points="248.214,-334 244.429,-324.104 241.216,-334.2 248.214,-334"/>
</g>
<!-- HITs/pushout&#45;&gt;HITs/suspension -->
<g id="edge44" class="edge"><title>HITs/pushout&#45;&gt;HITs/suspension</title>
<path fill="none" stroke="black" d="M649.035,-365.282C657.893,-363.257 667.174,-361.366 675.941,-360 889.072,-326.779 946.363,-354.22 1159.94,-324 1166.29,-323.102 1172.89,-322 1179.45,-320.793"/>
<polygon fill="black" stroke="black" points="1180.54,-324.148 1189.7,-318.824 1179.22,-317.273 1180.54,-324.148"/>
</g>
<!-- HITs/join -->
<g id="node36" class="node"><title>HITs/join</title>
<ellipse fill="none" stroke="black" cx="375.941" cy="-306" rx="45.4919" ry="18"/>
<text text-anchor="middle" x="375.941" y="-302.3" font-family="Times New Roman,serif" font-size="14.00">HITs/join</text>
</g>
<!-- HITs/pushout&#45;&gt;HITs/join -->
<g id="edge45" class="edge"><title>HITs/pushout&#45;&gt;HITs/join</title>
<path fill="none" stroke="black" d="M564,-364.485C523.625,-352.144 462.087,-333.333 420.502,-320.621"/>
<polygon fill="black" stroke="black" points="421.492,-317.264 410.906,-317.688 419.446,-323.958 421.492,-317.264"/>
</g>
<!-- cubical/connection -->
<g id="node39" class="node"><title>cubical/connection</title>
<ellipse fill="none" stroke="black" cx="843.941" cy="-90" rx="79.0865" ry="18"/>
<text text-anchor="middle" x="843.941" y="-86.3" font-family="Times New Roman,serif" font-size="14.00">cubical/connection</text>
</g>
<!-- cubical/path&#45;&gt;cubical/connection -->
<g id="edge51" class="edge"><title>cubical/path&#45;&gt;cubical/connection</title>
<path fill="none" stroke="black" d="M715.551,-147.17C739.56,-136.666 772.883,-122.088 799.563,-110.415"/>
<polygon fill="black" stroke="black" points="801.304,-113.474 809.063,-106.259 798.498,-107.061 801.304,-113.474"/>
</g>
<!-- cubical/example -->
<g id="node41" class="node"><title>cubical/example</title>
<ellipse fill="none" stroke="black" cx="533.941" cy="-90" rx="68.7879" ry="18"/>
<text text-anchor="middle" x="533.941" y="-86.3" font-family="Times New Roman,serif" font-size="14.00">cubical/example</text>
</g>
<!-- cubical/path&#45;&gt;cubical/example -->
<g id="edge52" class="edge"><title>cubical/path&#45;&gt;cubical/example</title>
<path fill="none" stroke="black" d="M653.586,-146.834C631.041,-136.314 600.034,-121.844 575.235,-110.271"/>
<polygon fill="black" stroke="black" points="576.607,-107.049 566.065,-105.991 573.646,-113.392 576.607,-107.049"/>
</g>
<!-- cubical/square -->
<g id="node42" class="node"><title>cubical/square</title>
<ellipse fill="none" stroke="black" cx="683.941" cy="-90" rx="63.0888" ry="18"/>
<text text-anchor="middle" x="683.941" y="-86.3" font-family="Times New Roman,serif" font-size="14.00">cubical/square</text>
</g>
<!-- cubical/path&#45;&gt;cubical/square -->
<g id="edge53" class="edge"><title>cubical/path&#45;&gt;cubical/square</title>
<path fill="none" stroke="black" d="M683.941,-143.697C683.941,-135.983 683.941,-126.712 683.941,-118.112"/>
<polygon fill="black" stroke="black" points="687.441,-118.104 683.941,-108.104 680.441,-118.104 687.441,-118.104"/>
</g>
<!-- cubical/path&#45;&gt;cubical/V -->
<g id="edge54" class="edge"><title>cubical/path&#45;&gt;cubical/V</title>
<path fill="none" stroke="black" d="M730.395,-152.358C780.445,-142.749 862.286,-126.169 931.941,-108 935.537,-107.062 939.249,-106.038 942.967,-104.972"/>
<polygon fill="black" stroke="black" points="944.149,-108.273 952.749,-102.085 942.167,-101.559 944.149,-108.273"/>
</g>
<!-- theorems/functions -->
<g id="node44" class="node"><title>theorems/functions</title>
<ellipse fill="none" stroke="black" cx="1173.94" cy="-666" rx="79.8859" ry="18"/>
<text text-anchor="middle" x="1173.94" y="-662.3" font-family="Times New Roman,serif" font-size="14.00">theorems/functions</text>
</g>
<!-- theorems/functions&#45;&gt;types/equiv -->
<g id="edge56" class="edge"><title>theorems/functions&#45;&gt;types/equiv</title>
<path fill="none" stroke="black" d="M1138.14,-649.811C1112.11,-638.769 1076.83,-623.803 1049.72,-612.3"/>
<polygon fill="black" stroke="black" points="1051.07,-609.071 1040.5,-608.387 1048.34,-615.515 1051.07,-609.071"/>
</g>
</g>
</svg>
