<?xml version="1.0" encoding="UTF-8" standalone="no"?>
<!DOCTYPE svg PUBLIC "-//W3C//DTD SVG 1.1//EN"
 "http://www.w3.org/Graphics/SVG/1.1/DTD/svg11.dtd">
<!-- Generated by graphviz version 2.38.0 (20140413.2041)
 -->
<!-- Title: dependency_map Pages: 1 -->
<svg width="1617pt" height="836pt"
 viewBox="0.00 0.00 1617.00 836.00" xmlns="http://www.w3.org/2000/svg" xmlns:xlink="http://www.w3.org/1999/xlink">
<g id="graph0" class="graph" transform="scale(1 1) rotate(0) translate(4 832)">
<title>dependency_map</title>
<polygon fill="white" stroke="none" points="-4,4 -4,-832 1613,-832 1613,4 -4,4"/>
<!-- proto -->
<g id="node1" class="node"><title>proto</title>
<ellipse fill="none" stroke="black" cx="626" cy="-810" rx="30.5947" ry="18"/>
<text text-anchor="middle" x="626" y="-806.3" font-family="Times New Roman,serif" font-size="14.00">proto</text>
</g>
<!-- types/eq -->
<g id="node2" class="node"><title>types/eq</title>
<ellipse fill="none" stroke="black" cx="686" cy="-738" rx="41.6928" ry="18"/>
<text text-anchor="middle" x="686" y="-734.3" font-family="Times New Roman,serif" font-size="14.00">types/eq</text>
</g>
<!-- proto&#45;&gt;types/eq -->
<g id="edge1" class="edge"><title>proto&#45;&gt;types/eq</title>
<path fill="none" stroke="black" d="M639.316,-793.465C646.944,-784.566 656.681,-773.205 665.288,-763.164"/>
<polygon fill="black" stroke="black" points="668.035,-765.338 671.885,-755.467 662.72,-760.782 668.035,-765.338"/>
</g>
<!-- support -->
<g id="node4" class="node"><title>support</title>
<ellipse fill="none" stroke="black" cx="748" cy="-666" rx="38.9931" ry="18"/>
<text text-anchor="middle" x="748" y="-662.3" font-family="Times New Roman,serif" font-size="14.00">support</text>
</g>
<!-- types/eq&#45;&gt;support -->
<g id="edge13" class="edge"><title>types/eq&#45;&gt;support</title>
<path fill="none" stroke="black" d="M700.38,-720.765C708.283,-711.841 718.233,-700.608 726.991,-690.719"/>
<polygon fill="black" stroke="black" points="729.688,-692.954 733.698,-683.147 724.448,-688.313 729.688,-692.954"/>
</g>
<!-- types/dep_path -->
<g id="node15" class="node"><title>types/dep_path</title>
<ellipse fill="none" stroke="black" cx="624" cy="-666" rx="66.8882" ry="18"/>
<text text-anchor="middle" x="624" y="-662.3" font-family="Times New Roman,serif" font-size="14.00">types/dep_path</text>
</g>
<!-- types/eq&#45;&gt;types/dep_path -->
<g id="edge14" class="edge"><title>types/eq&#45;&gt;types/dep_path</title>
<path fill="none" stroke="black" d="M671.62,-720.765C663.83,-711.969 654.051,-700.928 645.385,-691.144"/>
<polygon fill="black" stroke="black" points="647.983,-688.799 638.732,-683.633 642.743,-693.44 647.983,-688.799"/>
</g>
<!-- meta/hott_theory -->
<g id="node3" class="node"><title>meta/hott_theory</title>
<ellipse fill="none" stroke="black" cx="747" cy="-810" rx="72.2875" ry="18"/>
<text text-anchor="middle" x="747" y="-806.3" font-family="Times New Roman,serif" font-size="14.00">meta/hott_theory</text>
</g>
<!-- meta/hott_theory&#45;&gt;types/eq -->
<g id="edge2" class="edge"><title>meta/hott_theory&#45;&gt;types/eq</title>
<path fill="none" stroke="black" d="M732.234,-792.055C724.631,-783.33 715.232,-772.544 706.898,-762.981"/>
<polygon fill="black" stroke="black" points="709.419,-760.547 700.21,-755.307 704.142,-765.146 709.419,-760.547"/>
</g>
<!-- types/equiv -->
<g id="node5" class="node"><title>types/equiv</title>
<ellipse fill="none" stroke="black" cx="748" cy="-594" rx="51.9908" ry="18"/>
<text text-anchor="middle" x="748" y="-590.3" font-family="Times New Roman,serif" font-size="14.00">types/equiv</text>
</g>
<!-- support&#45;&gt;types/equiv -->
<g id="edge3" class="edge"><title>support&#45;&gt;types/equiv</title>
<path fill="none" stroke="black" d="M748,-647.697C748,-639.983 748,-630.712 748,-622.112"/>
<polygon fill="black" stroke="black" points="751.5,-622.104 748,-612.104 744.5,-622.104 751.5,-622.104"/>
</g>
<!-- types/coproduct -->
<g id="node13" class="node"><title>types/coproduct</title>
<ellipse fill="none" stroke="black" cx="604" cy="-522" rx="70.6878" ry="18"/>
<text text-anchor="middle" x="604" y="-518.3" font-family="Times New Roman,serif" font-size="14.00">types/coproduct</text>
</g>
<!-- types/equiv&#45;&gt;types/coproduct -->
<g id="edge15" class="edge"><title>types/equiv&#45;&gt;types/coproduct</title>
<path fill="none" stroke="black" d="M719.206,-579.003C697.758,-568.577 668.194,-554.205 644.385,-542.632"/>
<polygon fill="black" stroke="black" points="645.764,-539.41 635.24,-538.186 642.704,-545.706 645.764,-539.41"/>
</g>
<!-- types/heq -->
<g id="node16" class="node"><title>types/heq</title>
<ellipse fill="none" stroke="black" cx="785" cy="-522" rx="46.2923" ry="18"/>
<text text-anchor="middle" x="785" y="-518.3" font-family="Times New Roman,serif" font-size="14.00">types/heq</text>
</g>
<!-- types/equiv&#45;&gt;types/heq -->
<g id="edge16" class="edge"><title>types/equiv&#45;&gt;types/heq</title>
<path fill="none" stroke="black" d="M756.957,-576.055C761.274,-567.887 766.547,-557.912 771.35,-548.824"/>
<polygon fill="black" stroke="black" points="774.547,-550.266 776.126,-539.789 768.358,-546.994 774.547,-550.266"/>
</g>
<!-- HITs/infinitesimal -->
<g id="node17" class="node"><title>HITs/infinitesimal</title>
<ellipse fill="none" stroke="black" cx="924" cy="-522" rx="74.9875" ry="18"/>
<text text-anchor="middle" x="924" y="-518.3" font-family="Times New Roman,serif" font-size="14.00">HITs/infinitesimal</text>
</g>
<!-- types/equiv&#45;&gt;HITs/infinitesimal -->
<g id="edge17" class="edge"><title>types/equiv&#45;&gt;HITs/infinitesimal</title>
<path fill="none" stroke="black" d="M780.692,-579.998C807.871,-569.187 846.889,-553.669 877.351,-541.554"/>
<polygon fill="black" stroke="black" points="878.916,-544.698 886.914,-537.75 876.329,-538.194 878.916,-544.698"/>
</g>
<!-- types/lost -->
<g id="node18" class="node"><title>types/lost</title>
<ellipse fill="none" stroke="black" cx="1063" cy="-522" rx="46.2923" ry="18"/>
<text text-anchor="middle" x="1063" y="-518.3" font-family="Times New Roman,serif" font-size="14.00">types/lost</text>
</g>
<!-- types/equiv&#45;&gt;types/lost -->
<g id="edge18" class="edge"><title>types/equiv&#45;&gt;types/lost</title>
<path fill="none" stroke="black" d="M793.399,-585.15C845.533,-575.811 933.468,-559.066 1008,-540 1011.6,-539.079 1015.32,-538.067 1019.04,-537.009"/>
<polygon fill="black" stroke="black" points="1020.21,-540.312 1028.82,-534.136 1018.24,-533.595 1020.21,-540.312"/>
</g>
<!-- types/unit -->
<g id="node19" class="node"><title>types/unit</title>
<ellipse fill="none" stroke="black" cx="469" cy="-522" rx="46.2923" ry="18"/>
<text text-anchor="middle" x="469" y="-518.3" font-family="Times New Roman,serif" font-size="14.00">types/unit</text>
</g>
<!-- types/equiv&#45;&gt;types/unit -->
<g id="edge19" class="edge"><title>types/equiv&#45;&gt;types/unit</title>
<path fill="none" stroke="black" d="M704.84,-583.695C659.571,-573.724 586.462,-557.022 524,-540 520.465,-539.037 516.815,-538.001 513.155,-536.933"/>
<polygon fill="black" stroke="black" points="514.1,-533.562 503.517,-534.058 512.099,-540.27 514.1,-533.562"/>
</g>
<!-- types/sigma -->
<g id="node20" class="node"><title>types/sigma</title>
<ellipse fill="none" stroke="black" cx="713" cy="-306" rx="53.8905" ry="18"/>
<text text-anchor="middle" x="713" y="-302.3" font-family="Times New Roman,serif" font-size="14.00">types/sigma</text>
</g>
<!-- types/equiv&#45;&gt;types/sigma -->
<g id="edge20" class="edge"><title>types/equiv&#45;&gt;types/sigma</title>
<path fill="none" stroke="black" d="M741.036,-576.119C737.114,-565.855 732.511,-552.381 730,-540 715.135,-466.712 712.864,-378.131 712.757,-334.301"/>
<polygon fill="black" stroke="black" points="716.257,-334.162 712.77,-324.158 709.257,-334.153 716.257,-334.162"/>
</g>
<!-- structures -->
<g id="node6" class="node"><title>structures</title>
<ellipse fill="none" stroke="black" cx="603" cy="-450" rx="46.2923" ry="18"/>
<text text-anchor="middle" x="603" y="-446.3" font-family="Times New Roman,serif" font-size="14.00">structures</text>
</g>
<!-- HITs/interval -->
<g id="node7" class="node"><title>HITs/interval</title>
<ellipse fill="none" stroke="black" cx="797" cy="-378" rx="57.6901" ry="18"/>
<text text-anchor="middle" x="797" y="-374.3" font-family="Times New Roman,serif" font-size="14.00">HITs/interval</text>
</g>
<!-- structures&#45;&gt;HITs/interval -->
<g id="edge4" class="edge"><title>structures&#45;&gt;HITs/interval</title>
<path fill="none" stroke="black" d="M635.909,-437.125C667.53,-425.716 715.597,-408.372 750.999,-395.598"/>
<polygon fill="black" stroke="black" points="752.405,-398.812 760.624,-392.125 750.03,-392.227 752.405,-398.812"/>
</g>
<!-- HITs/truncation -->
<g id="node8" class="node"><title>HITs/truncation</title>
<ellipse fill="none" stroke="black" cx="1151" cy="-306" rx="68.4888" ry="18"/>
<text text-anchor="middle" x="1151" y="-302.3" font-family="Times New Roman,serif" font-size="14.00">HITs/truncation</text>
</g>
<!-- structures&#45;&gt;HITs/truncation -->
<g id="edge5" class="edge"><title>structures&#45;&gt;HITs/truncation</title>
<path fill="none" stroke="black" d="M646.369,-443.612C698.884,-436.313 789.551,-421.215 864,-396 898.641,-384.267 903.622,-372.484 938,-360 986.911,-342.239 1044.25,-328.346 1087.1,-319.248"/>
<polygon fill="black" stroke="black" points="1088.05,-322.626 1097.12,-317.153 1086.61,-315.774 1088.05,-322.626"/>
</g>
<!-- algebra/core -->
<g id="node9" class="node"><title>algebra/core</title>
<ellipse fill="none" stroke="black" cx="194" cy="-378" rx="55.4913" ry="18"/>
<text text-anchor="middle" x="194" y="-374.3" font-family="Times New Roman,serif" font-size="14.00">algebra/core</text>
</g>
<!-- structures&#45;&gt;algebra/core -->
<g id="edge6" class="edge"><title>structures&#45;&gt;algebra/core</title>
<path fill="none" stroke="black" d="M559.433,-443.83C493.725,-435.689 365.512,-418.47 258,-396 253.576,-395.075 249.002,-394.034 244.427,-392.933"/>
<polygon fill="black" stroke="black" points="245.021,-389.474 234.471,-390.451 243.328,-396.266 245.021,-389.474"/>
</g>
<!-- types/nat -->
<g id="node10" class="node"><title>types/nat</title>
<ellipse fill="none" stroke="black" cx="598" cy="-306" rx="43.5923" ry="18"/>
<text text-anchor="middle" x="598" y="-302.3" font-family="Times New Roman,serif" font-size="14.00">types/nat</text>
</g>
<!-- structures&#45;&gt;types/nat -->
<g id="edge7" class="edge"><title>structures&#45;&gt;types/nat</title>
<path fill="none" stroke="black" d="M602.397,-431.871C601.545,-407.67 599.979,-363.211 598.965,-334.393"/>
<polygon fill="black" stroke="black" points="602.455,-334.06 598.605,-324.189 595.459,-334.306 602.455,-334.06"/>
</g>
<!-- types/product -->
<g id="node25" class="node"><title>types/product</title>
<ellipse fill="none" stroke="black" cx="923" cy="-306" rx="61.99" ry="18"/>
<text text-anchor="middle" x="923" y="-302.3" font-family="Times New Roman,serif" font-size="14.00">types/product</text>
</g>
<!-- HITs/interval&#45;&gt;types/product -->
<g id="edge48" class="edge"><title>HITs/interval&#45;&gt;types/product</title>
<path fill="none" stroke="black" d="M824.03,-361.983C842.341,-351.811 866.747,-338.252 886.741,-327.144"/>
<polygon fill="black" stroke="black" points="888.538,-330.149 895.58,-322.233 885.138,-324.03 888.538,-330.149"/>
</g>
<!-- theorems/fibration -->
<g id="node28" class="node"><title>theorems/fibration</title>
<ellipse fill="none" stroke="black" cx="555" cy="-234" rx="76.8869" ry="18"/>
<text text-anchor="middle" x="555" y="-230.3" font-family="Times New Roman,serif" font-size="14.00">theorems/fibration</text>
</g>
<!-- HITs/interval&#45;&gt;theorems/fibration -->
<g id="edge49" class="edge"><title>HITs/interval&#45;&gt;theorems/fibration</title>
<path fill="none" stroke="black" d="M797.934,-359.735C798.023,-339.705 794.937,-307.006 776,-288 770.35,-282.329 683.019,-262.542 619.857,-248.82"/>
<polygon fill="black" stroke="black" points="620.459,-245.369 609.944,-246.673 618.977,-252.211 620.459,-245.369"/>
</g>
<!-- theorems/prop -->
<g id="node29" class="node"><title>theorems/prop</title>
<ellipse fill="none" stroke="black" cx="713" cy="-234" rx="63.8893" ry="18"/>
<text text-anchor="middle" x="713" y="-230.3" font-family="Times New Roman,serif" font-size="14.00">theorems/prop</text>
</g>
<!-- HITs/interval&#45;&gt;theorems/prop -->
<g id="edge50" class="edge"><title>HITs/interval&#45;&gt;theorems/prop</title>
<path fill="none" stroke="black" d="M805.284,-359.999C813.204,-341.094 822.155,-310.289 809,-288 799.284,-271.538 782.422,-259.836 765.514,-251.693"/>
<polygon fill="black" stroke="black" points="766.72,-248.399 756.161,-247.527 763.872,-254.793 766.72,-248.399"/>
</g>
<!-- HITs/truncation&#45;&gt;theorems/prop -->
<g id="edge55" class="edge"><title>HITs/truncation&#45;&gt;theorems/prop</title>
<path fill="none" stroke="black" d="M1089.85,-297.817C1016.96,-288.869 891.597,-272.262 785,-252 779.716,-250.996 774.235,-249.865 768.761,-248.676"/>
<polygon fill="black" stroke="black" points="769.485,-245.252 758.963,-246.489 767.96,-252.084 769.485,-245.252"/>
</g>
<!-- HITs/simplicial -->
<g id="node42" class="node"><title>HITs/simplicial</title>
<ellipse fill="none" stroke="black" cx="1515" cy="-234" rx="65.7887" ry="18"/>
<text text-anchor="middle" x="1515" y="-230.3" font-family="Times New Roman,serif" font-size="14.00">HITs/simplicial</text>
</g>
<!-- HITs/truncation&#45;&gt;HITs/simplicial -->
<g id="edge56" class="edge"><title>HITs/truncation&#45;&gt;HITs/simplicial</title>
<path fill="none" stroke="black" d="M1206.74,-295.581C1265.23,-285.517 1359.79,-268.739 1441,-252 1446.24,-250.919 1451.69,-249.753 1457.14,-248.556"/>
<polygon fill="black" stroke="black" points="1457.9,-251.971 1466.9,-246.38 1456.38,-245.138 1457.9,-251.971"/>
</g>
<!-- theorems/mere_eq_lemma -->
<g id="node43" class="node"><title>theorems/mere_eq_lemma</title>
<ellipse fill="none" stroke="black" cx="1166" cy="-234" rx="105.881" ry="18"/>
<text text-anchor="middle" x="1166" y="-230.3" font-family="Times New Roman,serif" font-size="14.00">theorems/mere_eq_lemma</text>
</g>
<!-- HITs/truncation&#45;&gt;theorems/mere_eq_lemma -->
<g id="edge57" class="edge"><title>HITs/truncation&#45;&gt;theorems/mere_eq_lemma</title>
<path fill="none" stroke="black" d="M1154.71,-287.697C1156.36,-279.983 1158.35,-270.712 1160.19,-262.112"/>
<polygon fill="black" stroke="black" points="1163.66,-262.616 1162.33,-252.104 1156.82,-261.149 1163.66,-262.616"/>
</g>
<!-- theorems/graphs -->
<g id="node44" class="node"><title>theorems/graphs</title>
<ellipse fill="none" stroke="black" cx="1361" cy="-234" rx="70.6878" ry="18"/>
<text text-anchor="middle" x="1361" y="-230.3" font-family="Times New Roman,serif" font-size="14.00">theorems/graphs</text>
</g>
<!-- HITs/truncation&#45;&gt;theorems/graphs -->
<g id="edge58" class="edge"><title>HITs/truncation&#45;&gt;theorems/graphs</title>
<path fill="none" stroke="black" d="M1191.49,-291.503C1225.26,-280.246 1273.57,-264.142 1309.99,-252.005"/>
<polygon fill="black" stroke="black" points="1311.54,-255.177 1319.92,-248.694 1309.32,-248.536 1311.54,-255.177"/>
</g>
<!-- algebra/group -->
<g id="node11" class="node"><title>algebra/group</title>
<ellipse fill="none" stroke="black" cx="252" cy="-306" rx="60.3893" ry="18"/>
<text text-anchor="middle" x="252" y="-302.3" font-family="Times New Roman,serif" font-size="14.00">algebra/group</text>
</g>
<!-- algebra/core&#45;&gt;algebra/group -->
<g id="edge8" class="edge"><title>algebra/core&#45;&gt;algebra/group</title>
<path fill="none" stroke="black" d="M207.745,-360.411C214.793,-351.906 223.52,-341.372 231.357,-331.914"/>
<polygon fill="black" stroke="black" points="234.265,-333.89 237.951,-323.956 228.875,-329.423 234.265,-333.89"/>
</g>
<!-- theorems/nat -->
<g id="node24" class="node"><title>theorems/nat</title>
<ellipse fill="none" stroke="black" cx="434" cy="-162" rx="57.3905" ry="18"/>
<text text-anchor="middle" x="434" y="-158.3" font-family="Times New Roman,serif" font-size="14.00">theorems/nat</text>
</g>
<!-- types/nat&#45;&gt;theorems/nat -->
<g id="edge26" class="edge"><title>types/nat&#45;&gt;theorems/nat</title>
<path fill="none" stroke="black" d="M564.562,-294.191C517.275,-278.888 436.499,-252.672 436,-252 423.02,-234.513 423.723,-209.313 426.979,-190.189"/>
<polygon fill="black" stroke="black" points="430.431,-190.772 428.979,-180.277 423.57,-189.387 430.431,-190.772"/>
</g>
<!-- algebra/homology -->
<g id="node12" class="node"><title>algebra/homology</title>
<ellipse fill="none" stroke="black" cx="252" cy="-234" rx="75.2868" ry="18"/>
<text text-anchor="middle" x="252" y="-230.3" font-family="Times New Roman,serif" font-size="14.00">algebra/homology</text>
</g>
<!-- algebra/group&#45;&gt;algebra/homology -->
<g id="edge9" class="edge"><title>algebra/group&#45;&gt;algebra/homology</title>
<path fill="none" stroke="black" d="M252,-287.697C252,-279.983 252,-270.712 252,-262.112"/>
<polygon fill="black" stroke="black" points="255.5,-262.104 252,-252.104 248.5,-262.104 255.5,-262.104"/>
</g>
<!-- types/coproduct&#45;&gt;structures -->
<g id="edge10" class="edge"><title>types/coproduct&#45;&gt;structures</title>
<path fill="none" stroke="black" d="M603.753,-503.697C603.643,-495.983 603.51,-486.712 603.387,-478.112"/>
<polygon fill="black" stroke="black" points="606.887,-478.053 603.244,-468.104 599.888,-478.153 606.887,-478.053"/>
</g>
<!-- types/integer -->
<g id="node14" class="node"><title>types/integer</title>
<ellipse fill="none" stroke="black" cx="297" cy="-450" rx="56.59" ry="18"/>
<text text-anchor="middle" x="297" y="-446.3" font-family="Times New Roman,serif" font-size="14.00">types/integer</text>
</g>
<!-- types/coproduct&#45;&gt;types/integer -->
<g id="edge11" class="edge"><title>types/coproduct&#45;&gt;types/integer</title>
<path fill="none" stroke="black" d="M552.961,-509.362C497.309,-496.673 408.588,-476.443 351.579,-463.445"/>
<polygon fill="black" stroke="black" points="352.195,-459.995 341.667,-461.185 350.639,-466.82 352.195,-459.995"/>
</g>
<!-- types/integer&#45;&gt;algebra/core -->
<g id="edge23" class="edge"><title>types/integer&#45;&gt;algebra/core</title>
<path fill="none" stroke="black" d="M274.141,-433.465C259.739,-423.677 240.956,-410.912 225.194,-400.2"/>
<polygon fill="black" stroke="black" points="227.033,-397.218 216.795,-394.492 223.099,-403.008 227.033,-397.218"/>
</g>
<!-- HITs/circle -->
<g id="node22" class="node"><title>HITs/circle</title>
<ellipse fill="none" stroke="black" cx="426" cy="-90" rx="51.9908" ry="18"/>
<text text-anchor="middle" x="426" y="-86.3" font-family="Times New Roman,serif" font-size="14.00">HITs/circle</text>
</g>
<!-- types/integer&#45;&gt;HITs/circle -->
<g id="edge24" class="edge"><title>types/integer&#45;&gt;HITs/circle</title>
<path fill="none" stroke="black" d="M241.137,-446.69C155.103,-439.806 0,-412.733 0,-307 0,-307 0,-307 0,-233 0,-156.474 250.541,-113.809 367.347,-98.0759"/>
<polygon fill="black" stroke="black" points="368.093,-101.508 377.547,-96.7248 367.174,-94.5684 368.093,-101.508"/>
</g>
<!-- HITs/reals -->
<g id="node23" class="node"><title>HITs/reals</title>
<ellipse fill="none" stroke="black" cx="379" cy="-306" rx="48.9926" ry="18"/>
<text text-anchor="middle" x="379" y="-302.3" font-family="Times New Roman,serif" font-size="14.00">HITs/reals</text>
</g>
<!-- types/integer&#45;&gt;HITs/reals -->
<g id="edge25" class="edge"><title>types/integer&#45;&gt;HITs/reals</title>
<path fill="none" stroke="black" d="M333.584,-436.093C351.593,-427.669 371.621,-414.703 382,-396 392.459,-377.154 390.636,-352.439 386.807,-333.837"/>
<polygon fill="black" stroke="black" points="390.176,-332.872 384.469,-323.945 383.363,-334.482 390.176,-332.872"/>
</g>
<!-- types/dep_path&#45;&gt;types/equiv -->
<g id="edge12" class="edge"><title>types/dep_path&#45;&gt;types/equiv</title>
<path fill="none" stroke="black" d="M651.52,-649.465C669.629,-639.242 693.492,-625.771 712.955,-614.783"/>
<polygon fill="black" stroke="black" points="714.843,-617.737 721.831,-609.773 711.402,-611.641 714.843,-617.737"/>
</g>
<!-- types/heq&#45;&gt;HITs/interval -->
<g id="edge21" class="edge"><title>types/heq&#45;&gt;HITs/interval</title>
<path fill="none" stroke="black" d="M786.447,-503.871C788.493,-479.67 792.25,-435.211 794.685,-406.393"/>
<polygon fill="black" stroke="black" points="798.193,-406.449 795.547,-396.189 791.218,-405.859 798.193,-406.449"/>
</g>
<!-- HITs/graph -->
<g id="node21" class="node"><title>HITs/graph</title>
<ellipse fill="none" stroke="black" cx="1151" cy="-450" rx="52.7911" ry="18"/>
<text text-anchor="middle" x="1151" y="-446.3" font-family="Times New Roman,serif" font-size="14.00">HITs/graph</text>
</g>
<!-- types/heq&#45;&gt;HITs/graph -->
<g id="edge22" class="edge"><title>types/heq&#45;&gt;HITs/graph</title>
<path fill="none" stroke="black" d="M819.135,-509.69C825.999,-507.631 833.195,-505.624 840,-504 927.053,-483.223 1029.68,-467.376 1092.54,-458.631"/>
<polygon fill="black" stroke="black" points="1093.23,-462.069 1102.65,-457.237 1092.27,-455.135 1093.23,-462.069"/>
</g>
<!-- types/unit&#45;&gt;structures -->
<g id="edge34" class="edge"><title>types/unit&#45;&gt;structures</title>
<path fill="none" stroke="black" d="M495.474,-507.17C516.121,-496.384 544.994,-481.302 567.621,-469.481"/>
<polygon fill="black" stroke="black" points="569.338,-472.533 576.581,-464.801 566.097,-466.329 569.338,-472.533"/>
</g>
<!-- HITs/suspension -->
<g id="node31" class="node"><title>HITs/suspension</title>
<ellipse fill="none" stroke="black" cx="101" cy="-306" rx="72.5877" ry="18"/>
<text text-anchor="middle" x="101" y="-302.3" font-family="Times New Roman,serif" font-size="14.00">HITs/suspension</text>
</g>
<!-- types/unit&#45;&gt;HITs/suspension -->
<g id="edge35" class="edge"><title>types/unit&#45;&gt;HITs/suspension</title>
<path fill="none" stroke="black" d="M424.791,-516.504C375.715,-510.313 294.992,-496.517 231,-468 180.646,-445.561 162.622,-440.439 130,-396 116.593,-377.737 109.188,-352.97 105.224,-334.2"/>
<polygon fill="black" stroke="black" points="108.628,-333.368 103.314,-324.203 101.753,-334.682 108.628,-333.368"/>
</g>
<!-- types/sigma&#45;&gt;theorems/nat -->
<g id="edge29" class="edge"><title>types/sigma&#45;&gt;theorems/nat</title>
<path fill="none" stroke="black" d="M673.419,-293.689C665.994,-291.697 658.279,-289.715 651,-288 570.743,-269.086 532.294,-304.848 469,-252 450.635,-236.666 441.855,-210.395 437.689,-190.358"/>
<polygon fill="black" stroke="black" points="441.086,-189.476 435.861,-180.259 434.198,-190.723 441.086,-189.476"/>
</g>
<!-- types/sigma&#45;&gt;theorems/fibration -->
<g id="edge30" class="edge"><title>types/sigma&#45;&gt;theorems/fibration</title>
<path fill="none" stroke="black" d="M681.784,-291.17C657.995,-280.631 624.947,-265.989 598.556,-254.297"/>
<polygon fill="black" stroke="black" points="599.724,-250.986 589.164,-250.136 596.889,-257.386 599.724,-250.986"/>
</g>
<!-- types/sigma&#45;&gt;theorems/prop -->
<g id="edge31" class="edge"><title>types/sigma&#45;&gt;theorems/prop</title>
<path fill="none" stroke="black" d="M713,-287.697C713,-279.983 713,-270.712 713,-262.112"/>
<polygon fill="black" stroke="black" points="716.5,-262.104 713,-252.104 709.5,-262.104 716.5,-262.104"/>
</g>
<!-- HITs/moebius -->
<g id="node34" class="node"><title>HITs/moebius</title>
<ellipse fill="none" stroke="black" cx="849" cy="-18" rx="63.0888" ry="18"/>
<text text-anchor="middle" x="849" y="-14.3" font-family="Times New Roman,serif" font-size="14.00">HITs/moebius</text>
</g>
<!-- HITs/graph&#45;&gt;HITs/moebius -->
<g id="edge41" class="edge"><title>HITs/graph&#45;&gt;HITs/moebius</title>
<path fill="none" stroke="black" d="M1203.84,-449.613C1274.57,-448.553 1402.51,-439.957 1501,-396 1557.8,-370.651 1609,-369.198 1609,-307 1609,-307 1609,-307 1609,-161 1609,-51.3915 1485.61,-97.4619 1379,-72 1218.84,-33.7482 1025.05,-23.0677 921.914,-20.1099"/>
<polygon fill="black" stroke="black" points="922.008,-16.6112 911.916,-19.8393 921.818,-23.6086 922.008,-16.6112"/>
</g>
<!-- HITs/colimit -->
<g id="node35" class="node"><title>HITs/colimit</title>
<ellipse fill="none" stroke="black" cx="1004" cy="-378" rx="56.59" ry="18"/>
<text text-anchor="middle" x="1004" y="-374.3" font-family="Times New Roman,serif" font-size="14.00">HITs/colimit</text>
</g>
<!-- HITs/graph&#45;&gt;HITs/colimit -->
<g id="edge42" class="edge"><title>HITs/graph&#45;&gt;HITs/colimit</title>
<path fill="none" stroke="black" d="M1121.61,-435.003C1099.09,-424.283 1067.82,-409.392 1043.19,-397.66"/>
<polygon fill="black" stroke="black" points="1044.63,-394.473 1034.1,-393.333 1041.62,-400.793 1044.63,-394.473"/>
</g>
<!-- HITs/generalized -->
<g id="node36" class="node"><title>HITs/generalized</title>
<ellipse fill="none" stroke="black" cx="1151" cy="-378" rx="72.2875" ry="18"/>
<text text-anchor="middle" x="1151" y="-374.3" font-family="Times New Roman,serif" font-size="14.00">HITs/generalized</text>
</g>
<!-- HITs/graph&#45;&gt;HITs/generalized -->
<g id="edge43" class="edge"><title>HITs/graph&#45;&gt;HITs/generalized</title>
<path fill="none" stroke="black" d="M1151,-431.697C1151,-423.983 1151,-414.712 1151,-406.112"/>
<polygon fill="black" stroke="black" points="1154.5,-406.104 1151,-396.104 1147.5,-406.104 1154.5,-406.104"/>
</g>
<!-- HITs/int -->
<g id="node37" class="node"><title>HITs/int</title>
<ellipse fill="none" stroke="black" cx="1451" cy="-378" rx="40.8928" ry="18"/>
<text text-anchor="middle" x="1451" y="-374.3" font-family="Times New Roman,serif" font-size="14.00">HITs/int</text>
</g>
<!-- HITs/graph&#45;&gt;HITs/int -->
<g id="edge44" class="edge"><title>HITs/graph&#45;&gt;HITs/int</title>
<path fill="none" stroke="black" d="M1197.01,-440.943C1247.47,-431.716 1330.63,-415.349 1401,-396 1404.14,-395.137 1407.37,-394.187 1410.6,-393.189"/>
<polygon fill="black" stroke="black" points="1411.79,-396.486 1420.24,-390.099 1409.65,-389.82 1411.79,-396.486"/>
</g>
<!-- HITs/pushout -->
<g id="node38" class="node"><title>HITs/pushout</title>
<ellipse fill="none" stroke="black" cx="491" cy="-378" rx="61.99" ry="18"/>
<text text-anchor="middle" x="491" y="-374.3" font-family="Times New Roman,serif" font-size="14.00">HITs/pushout</text>
</g>
<!-- HITs/graph&#45;&gt;HITs/pushout -->
<g id="edge45" class="edge"><title>HITs/graph&#45;&gt;HITs/pushout</title>
<path fill="none" stroke="black" d="M1101.39,-443.739C984.377,-431.328 691.018,-400.214 558.201,-386.127"/>
<polygon fill="black" stroke="black" points="558.467,-382.636 548.154,-385.062 557.729,-389.597 558.467,-382.636"/>
</g>
<!-- types/precategory -->
<g id="node39" class="node"><title>types/precategory</title>
<ellipse fill="none" stroke="black" cx="1317" cy="-378" rx="75.2868" ry="18"/>
<text text-anchor="middle" x="1317" y="-374.3" font-family="Times New Roman,serif" font-size="14.00">types/precategory</text>
</g>
<!-- HITs/graph&#45;&gt;types/precategory -->
<g id="edge46" class="edge"><title>HITs/graph&#45;&gt;types/precategory</title>
<path fill="none" stroke="black" d="M1183.01,-435.503C1208.4,-424.795 1244.19,-409.703 1272.4,-397.809"/>
<polygon fill="black" stroke="black" points="1273.79,-401.02 1281.64,-393.909 1271.07,-394.57 1273.79,-401.02"/>
</g>
<!-- HITs/ntrunc -->
<g id="node32" class="node"><title>HITs/ntrunc</title>
<ellipse fill="none" stroke="black" cx="418" cy="-18" rx="55.4913" ry="18"/>
<text text-anchor="middle" x="418" y="-14.3" font-family="Times New Roman,serif" font-size="14.00">HITs/ntrunc</text>
</g>
<!-- HITs/circle&#45;&gt;HITs/ntrunc -->
<g id="edge36" class="edge"><title>HITs/circle&#45;&gt;HITs/ntrunc</title>
<path fill="none" stroke="black" d="M424.022,-71.6966C423.141,-63.9827 422.081,-54.7125 421.099,-46.1124"/>
<polygon fill="black" stroke="black" points="424.568,-45.6422 419.955,-36.1043 417.613,-46.4371 424.568,-45.6422"/>
</g>
<!-- theorems/hopf -->
<g id="node33" class="node"><title>theorems/hopf</title>
<ellipse fill="none" stroke="black" cx="555" cy="-18" rx="63.8893" ry="18"/>
<text text-anchor="middle" x="555" y="-14.3" font-family="Times New Roman,serif" font-size="14.00">theorems/hopf</text>
</g>
<!-- HITs/circle&#45;&gt;theorems/hopf -->
<g id="edge37" class="edge"><title>HITs/circle&#45;&gt;theorems/hopf</title>
<path fill="none" stroke="black" d="M452.729,-74.496C471.629,-64.2402 497.209,-50.3592 518.059,-39.0457"/>
<polygon fill="black" stroke="black" points="519.847,-42.0576 526.967,-34.2119 516.508,-35.9051 519.847,-42.0576"/>
</g>
<!-- HITs/circle&#45;&gt;HITs/moebius -->
<g id="edge38" class="edge"><title>HITs/circle&#45;&gt;HITs/moebius</title>
<path fill="none" stroke="black" d="M472.074,-81.3755C548.077,-68.7982 699.852,-43.6816 785.814,-29.4563"/>
<polygon fill="black" stroke="black" points="786.412,-32.9051 795.706,-27.8193 785.269,-25.999 786.412,-32.9051"/>
</g>
<!-- theorems/nat&#45;&gt;HITs/circle -->
<g id="edge67" class="edge"><title>theorems/nat&#45;&gt;HITs/circle</title>
<path fill="none" stroke="black" d="M432.022,-143.697C431.141,-135.983 430.081,-126.712 429.099,-118.112"/>
<polygon fill="black" stroke="black" points="432.568,-117.642 427.955,-108.104 425.613,-118.437 432.568,-117.642"/>
</g>
<!-- cubical/cubes -->
<g id="node26" class="node"><title>cubical/cubes</title>
<ellipse fill="none" stroke="black" cx="982" cy="-234" rx="60.3893" ry="18"/>
<text text-anchor="middle" x="982" y="-230.3" font-family="Times New Roman,serif" font-size="14.00">cubical/cubes</text>
</g>
<!-- types/product&#45;&gt;cubical/cubes -->
<g id="edge27" class="edge"><title>types/product&#45;&gt;cubical/cubes</title>
<path fill="none" stroke="black" d="M936.982,-288.411C944.223,-279.82 953.209,-269.159 961.243,-259.627"/>
<polygon fill="black" stroke="black" points="963.94,-261.858 967.708,-251.956 958.587,-257.347 963.94,-261.858"/>
</g>
<!-- theorems/ua -->
<g id="node27" class="node"><title>theorems/ua</title>
<ellipse fill="none" stroke="black" cx="849" cy="-234" rx="54.6905" ry="18"/>
<text text-anchor="middle" x="849" y="-230.3" font-family="Times New Roman,serif" font-size="14.00">theorems/ua</text>
</g>
<!-- types/product&#45;&gt;theorems/ua -->
<g id="edge28" class="edge"><title>types/product&#45;&gt;theorems/ua</title>
<path fill="none" stroke="black" d="M905.463,-288.411C895.902,-279.367 883.917,-268.03 873.451,-258.13"/>
<polygon fill="black" stroke="black" points="875.826,-255.558 866.156,-251.228 871.015,-260.643 875.826,-255.558"/>
</g>
<!-- cubical/path -->
<g id="node46" class="node"><title>cubical/path</title>
<ellipse fill="none" stroke="black" cx="982" cy="-162" rx="54.6905" ry="18"/>
<text text-anchor="middle" x="982" y="-158.3" font-family="Times New Roman,serif" font-size="14.00">cubical/path</text>
</g>
<!-- cubical/cubes&#45;&gt;cubical/path -->
<g id="edge59" class="edge"><title>cubical/cubes&#45;&gt;cubical/path</title>
<path fill="none" stroke="black" d="M982,-215.697C982,-207.983 982,-198.712 982,-190.112"/>
<polygon fill="black" stroke="black" points="985.5,-190.104 982,-180.104 978.5,-190.104 985.5,-190.104"/>
</g>
<!-- theorems/ua&#45;&gt;theorems/nat -->
<g id="edge68" class="edge"><title>theorems/ua&#45;&gt;theorems/nat</title>
<path fill="none" stroke="black" d="M809.173,-221.517C801.519,-219.519 793.54,-217.58 786,-216 685.686,-194.985 567.617,-178.955 496.897,-170.271"/>
<polygon fill="black" stroke="black" points="497.164,-166.778 486.814,-169.043 496.318,-173.726 497.164,-166.778"/>
</g>
<!-- cubical/V -->
<g id="node49" class="node"><title>cubical/V</title>
<ellipse fill="none" stroke="black" cx="849" cy="-90" rx="45.4919" ry="18"/>
<text text-anchor="middle" x="849" y="-86.3" font-family="Times New Roman,serif" font-size="14.00">cubical/V</text>
</g>
<!-- theorems/ua&#45;&gt;cubical/V -->
<g id="edge69" class="edge"><title>theorems/ua&#45;&gt;cubical/V</title>
<path fill="none" stroke="black" d="M849,-215.871C849,-191.67 849,-147.211 849,-118.393"/>
<polygon fill="black" stroke="black" points="852.5,-118.189 849,-108.189 845.5,-118.189 852.5,-118.189"/>
</g>
<!-- theorems/fibration&#45;&gt;theorems/hopf -->
<g id="edge65" class="edge"><title>theorems/fibration&#45;&gt;theorems/hopf</title>
<path fill="none" stroke="black" d="M555,-215.849C555,-178.832 555,-91.1809 555,-46.3863"/>
<polygon fill="black" stroke="black" points="558.5,-46.2324 555,-36.2325 551.5,-46.2325 558.5,-46.2324"/>
</g>
<!-- types/swale -->
<g id="node30" class="node"><title>types/swale</title>
<ellipse fill="none" stroke="black" cx="320" cy="-378" rx="52.7911" ry="18"/>
<text text-anchor="middle" x="320" y="-374.3" font-family="Times New Roman,serif" font-size="14.00">types/swale</text>
</g>
<!-- types/swale&#45;&gt;algebra/group -->
<g id="edge32" class="edge"><title>types/swale&#45;&gt;algebra/group</title>
<path fill="none" stroke="black" d="M304.229,-360.765C295.599,-351.882 284.746,-340.709 275.172,-330.854"/>
<polygon fill="black" stroke="black" points="277.637,-328.367 268.158,-323.633 272.616,-333.245 277.637,-328.367"/>
</g>
<!-- types/swale&#45;&gt;HITs/reals -->
<g id="edge33" class="edge"><title>types/swale&#45;&gt;HITs/reals</title>
<path fill="none" stroke="black" d="M333.982,-360.411C341.33,-351.693 350.473,-340.845 358.596,-331.208"/>
<polygon fill="black" stroke="black" points="361.35,-333.372 365.118,-323.47 355.997,-328.861 361.35,-333.372"/>
</g>
<!-- HITs/suspension&#45;&gt;HITs/circle -->
<g id="edge54" class="edge"><title>HITs/suspension&#45;&gt;HITs/circle</title>
<path fill="none" stroke="black" d="M110.413,-287.997C121.894,-268.519 142.906,-236.64 168,-216 232.909,-162.61 324.442,-125.267 379.234,-106.031"/>
<polygon fill="black" stroke="black" points="380.384,-109.337 388.692,-102.763 378.098,-102.721 380.384,-109.337"/>
</g>
<!-- HITs/colimit&#45;&gt;HITs/truncation -->
<g id="edge39" class="edge"><title>HITs/colimit&#45;&gt;HITs/truncation</title>
<path fill="none" stroke="black" d="M1034.1,-362.666C1056.05,-352.213 1086.05,-337.93 1110.16,-326.449"/>
<polygon fill="black" stroke="black" points="1111.89,-329.5 1119.41,-322.041 1108.88,-323.18 1111.89,-329.5"/>
</g>
<!-- HITs/generalized&#45;&gt;HITs/truncation -->
<g id="edge40" class="edge"><title>HITs/generalized&#45;&gt;HITs/truncation</title>
<path fill="none" stroke="black" d="M1151,-359.697C1151,-351.983 1151,-342.712 1151,-334.112"/>
<polygon fill="black" stroke="black" points="1154.5,-334.104 1151,-324.104 1147.5,-334.104 1154.5,-334.104"/>
</g>
<!-- HITs/rat -->
<g id="node40" class="node"><title>HITs/rat</title>
<ellipse fill="none" stroke="black" cx="1451" cy="-306" rx="41.6928" ry="18"/>
<text text-anchor="middle" x="1451" y="-302.3" font-family="Times New Roman,serif" font-size="14.00">HITs/rat</text>
</g>
<!-- HITs/int&#45;&gt;HITs/rat -->
<g id="edge47" class="edge"><title>HITs/int&#45;&gt;HITs/rat</title>
<path fill="none" stroke="black" d="M1451,-359.697C1451,-351.983 1451,-342.712 1451,-334.112"/>
<polygon fill="black" stroke="black" points="1454.5,-334.104 1451,-324.104 1447.5,-334.104 1454.5,-334.104"/>
</g>
<!-- HITs/pushout&#45;&gt;HITs/reals -->
<g id="edge51" class="edge"><title>HITs/pushout&#45;&gt;HITs/reals</title>
<path fill="none" stroke="black" d="M466.144,-361.465C450.009,-351.381 428.817,-338.136 411.372,-327.232"/>
<polygon fill="black" stroke="black" points="412.972,-324.105 402.637,-321.773 409.262,-330.041 412.972,-324.105"/>
</g>
<!-- HITs/pushout&#45;&gt;HITs/suspension -->
<g id="edge52" class="edge"><title>HITs/pushout&#45;&gt;HITs/suspension</title>
<path fill="none" stroke="black" d="M438.311,-368.493C376.904,-358.449 272.424,-340.958 183,-324 176.907,-322.844 170.568,-321.602 164.233,-320.334"/>
<polygon fill="black" stroke="black" points="164.816,-316.881 154.32,-318.328 163.427,-323.742 164.816,-316.881"/>
</g>
<!-- HITs/join -->
<g id="node41" class="node"><title>HITs/join</title>
<ellipse fill="none" stroke="black" cx="491" cy="-306" rx="45.4919" ry="18"/>
<text text-anchor="middle" x="491" y="-302.3" font-family="Times New Roman,serif" font-size="14.00">HITs/join</text>
</g>
<!-- HITs/pushout&#45;&gt;HITs/join -->
<g id="edge53" class="edge"><title>HITs/pushout&#45;&gt;HITs/join</title>
<path fill="none" stroke="black" d="M491,-359.697C491,-351.983 491,-342.712 491,-334.112"/>
<polygon fill="black" stroke="black" points="494.5,-334.104 491,-324.104 487.5,-334.104 494.5,-334.104"/>
</g>
<!-- cubical/connection -->
<g id="node45" class="node"><title>cubical/connection</title>
<ellipse fill="none" stroke="black" cx="1291" cy="-90" rx="79.0865" ry="18"/>
<text text-anchor="middle" x="1291" y="-86.3" font-family="Times New Roman,serif" font-size="14.00">cubical/connection</text>
</g>
<!-- cubical/path&#45;&gt;cubical/connection -->
<g id="edge60" class="edge"><title>cubical/path&#45;&gt;cubical/connection</title>
<path fill="none" stroke="black" d="M1025.62,-151.119C1078.17,-139.213 1166.91,-119.112 1227.17,-105.461"/>
<polygon fill="black" stroke="black" points="1227.97,-108.867 1236.95,-103.244 1226.43,-102.04 1227.97,-108.867"/>
</g>
<!-- cubical/example -->
<g id="node47" class="node"><title>cubical/example</title>
<ellipse fill="none" stroke="black" cx="981" cy="-90" rx="68.7879" ry="18"/>
<text text-anchor="middle" x="981" y="-86.3" font-family="Times New Roman,serif" font-size="14.00">cubical/example</text>
</g>
<!-- cubical/path&#45;&gt;cubical/example -->
<g id="edge61" class="edge"><title>cubical/path&#45;&gt;cubical/example</title>
<path fill="none" stroke="black" d="M981.753,-143.697C981.643,-135.983 981.51,-126.712 981.387,-118.112"/>
<polygon fill="black" stroke="black" points="984.887,-118.053 981.244,-108.104 977.888,-118.153 984.887,-118.053"/>
</g>
<!-- cubical/square -->
<g id="node48" class="node"><title>cubical/square</title>
<ellipse fill="none" stroke="black" cx="1131" cy="-90" rx="63.0888" ry="18"/>
<text text-anchor="middle" x="1131" y="-86.3" font-family="Times New Roman,serif" font-size="14.00">cubical/square</text>
</g>
<!-- cubical/path&#45;&gt;cubical/square -->
<g id="edge62" class="edge"><title>cubical/path&#45;&gt;cubical/square</title>
<path fill="none" stroke="black" d="M1012.15,-146.834C1034.7,-136.243 1065.76,-121.648 1090.48,-110.037"/>
<polygon fill="black" stroke="black" points="1092.05,-113.168 1099.61,-105.748 1089.07,-106.832 1092.05,-113.168"/>
</g>
<!-- cubical/path&#45;&gt;cubical/V -->
<g id="edge63" class="edge"><title>cubical/path&#45;&gt;cubical/V</title>
<path fill="none" stroke="black" d="M954.119,-146.326C933.857,-135.662 906.276,-121.145 884.449,-109.657"/>
<polygon fill="black" stroke="black" points="885.965,-106.5 875.485,-104.94 882.704,-112.694 885.965,-106.5"/>
</g>
<!-- cubical/V&#45;&gt;HITs/moebius -->
<g id="edge64" class="edge"><title>cubical/V&#45;&gt;HITs/moebius</title>
<path fill="none" stroke="black" d="M849,-71.6966C849,-63.9827 849,-54.7125 849,-46.1124"/>
<polygon fill="black" stroke="black" points="852.5,-46.1043 849,-36.1043 845.5,-46.1044 852.5,-46.1043"/>
</g>
<!-- theorems/functions -->
<g id="node50" class="node"><title>theorems/functions</title>
<ellipse fill="none" stroke="black" cx="885" cy="-666" rx="79.8859" ry="18"/>
<text text-anchor="middle" x="885" y="-662.3" font-family="Times New Roman,serif" font-size="14.00">theorems/functions</text>
</g>
<!-- theorems/functions&#45;&gt;types/equiv -->
<g id="edge66" class="edge"><title>theorems/functions&#45;&gt;types/equiv</title>
<path fill="none" stroke="black" d="M854.255,-649.291C833.684,-638.78 806.507,-624.894 784.788,-613.797"/>
<polygon fill="black" stroke="black" points="786.347,-610.663 775.849,-609.229 783.162,-616.896 786.347,-610.663"/>
</g>
<!-- theorems/topology -->
<g id="node51" class="node"><title>theorems/topology</title>
<ellipse fill="none" stroke="black" cx="916" cy="-810" rx="79.0865" ry="18"/>
<text text-anchor="middle" x="916" y="-806.3" font-family="Times New Roman,serif" font-size="14.00">theorems/topology</text>
</g>
</g>
</svg>
