<?xml version="1.0" encoding="UTF-8" standalone="no"?>
<!DOCTYPE svg PUBLIC "-//W3C//DTD SVG 1.1//EN"
 "http://www.w3.org/Graphics/SVG/1.1/DTD/svg11.dtd">
<!-- Generated by graphviz version 2.38.0 (20140413.2041)
 -->
<!-- Title: dependency_map Pages: 1 -->
<svg width="1523pt" height="764pt"
 viewBox="0.00 0.00 1522.69 764.00" xmlns="http://www.w3.org/2000/svg" xmlns:xlink="http://www.w3.org/1999/xlink">
<g id="graph0" class="graph" transform="scale(1 1) rotate(0) translate(4 760)">
<title>dependency_map</title>
<polygon fill="white" stroke="none" points="-4,4 -4,-760 1518.69,-760 1518.69,4 -4,4"/>
<!-- proto -->
<g id="node1" class="node"><title>proto</title>
<ellipse fill="none" stroke="black" cx="480.746" cy="-738" rx="30.5947" ry="18"/>
<text text-anchor="middle" x="480.746" y="-734.3" font-family="Times New Roman,serif" font-size="14.00">proto</text>
</g>
<!-- types/eq -->
<g id="node2" class="node"><title>types/eq</title>
<ellipse fill="none" stroke="black" cx="540.746" cy="-666" rx="41.6928" ry="18"/>
<text text-anchor="middle" x="540.746" y="-662.3" font-family="Times New Roman,serif" font-size="14.00">types/eq</text>
</g>
<!-- proto&#45;&gt;types/eq -->
<g id="edge1" class="edge"><title>proto&#45;&gt;types/eq</title>
<path fill="none" stroke="black" d="M494.062,-721.465C501.689,-712.566 511.427,-701.205 520.033,-691.164"/>
<polygon fill="black" stroke="black" points="522.78,-693.338 526.631,-683.467 517.466,-688.782 522.78,-693.338"/>
</g>
<!-- support -->
<g id="node4" class="node"><title>support</title>
<ellipse fill="none" stroke="black" cx="540.746" cy="-594" rx="38.9931" ry="18"/>
<text text-anchor="middle" x="540.746" y="-590.3" font-family="Times New Roman,serif" font-size="14.00">support</text>
</g>
<!-- types/eq&#45;&gt;support -->
<g id="edge12" class="edge"><title>types/eq&#45;&gt;support</title>
<path fill="none" stroke="black" d="M540.746,-647.697C540.746,-639.983 540.746,-630.712 540.746,-622.112"/>
<polygon fill="black" stroke="black" points="544.246,-622.104 540.746,-612.104 537.246,-622.104 544.246,-622.104"/>
</g>
<!-- meta/hott_theory -->
<g id="node3" class="node"><title>meta/hott_theory</title>
<ellipse fill="none" stroke="black" cx="601.746" cy="-738" rx="72.2875" ry="18"/>
<text text-anchor="middle" x="601.746" y="-734.3" font-family="Times New Roman,serif" font-size="14.00">meta/hott_theory</text>
</g>
<!-- meta/hott_theory&#45;&gt;types/eq -->
<g id="edge2" class="edge"><title>meta/hott_theory&#45;&gt;types/eq</title>
<path fill="none" stroke="black" d="M586.979,-720.055C579.376,-711.33 569.977,-700.544 561.643,-690.981"/>
<polygon fill="black" stroke="black" points="564.165,-688.547 554.956,-683.307 558.887,-693.146 564.165,-688.547"/>
</g>
<!-- types/equiv -->
<g id="node5" class="node"><title>types/equiv</title>
<ellipse fill="none" stroke="black" cx="540.746" cy="-522" rx="51.9908" ry="18"/>
<text text-anchor="middle" x="540.746" y="-518.3" font-family="Times New Roman,serif" font-size="14.00">types/equiv</text>
</g>
<!-- support&#45;&gt;types/equiv -->
<g id="edge3" class="edge"><title>support&#45;&gt;types/equiv</title>
<path fill="none" stroke="black" d="M540.746,-575.697C540.746,-567.983 540.746,-558.712 540.746,-550.112"/>
<polygon fill="black" stroke="black" points="544.246,-550.104 540.746,-540.104 537.246,-550.104 544.246,-550.104"/>
</g>
<!-- types/coproduct -->
<g id="node15" class="node"><title>types/coproduct</title>
<ellipse fill="none" stroke="black" cx="322.746" cy="-378" rx="70.6878" ry="18"/>
<text text-anchor="middle" x="322.746" y="-374.3" font-family="Times New Roman,serif" font-size="14.00">types/coproduct</text>
</g>
<!-- types/equiv&#45;&gt;types/coproduct -->
<g id="edge13" class="edge"><title>types/equiv&#45;&gt;types/coproduct</title>
<path fill="none" stroke="black" d="M493.066,-514.501C458.148,-507.742 411.209,-494.285 377.746,-468 357.094,-451.779 342.227,-425.494 333.197,-405.686"/>
<polygon fill="black" stroke="black" points="336.309,-404.064 329.121,-396.281 329.886,-406.848 336.309,-404.064"/>
</g>
<!-- types/heq -->
<g id="node18" class="node"><title>types/heq</title>
<ellipse fill="none" stroke="black" cx="848.746" cy="-450" rx="46.2923" ry="18"/>
<text text-anchor="middle" x="848.746" y="-446.3" font-family="Times New Roman,serif" font-size="14.00">types/heq</text>
</g>
<!-- types/equiv&#45;&gt;types/heq -->
<g id="edge14" class="edge"><title>types/equiv&#45;&gt;types/heq</title>
<path fill="none" stroke="black" d="M585.433,-512.709C635.827,-503.094 720.093,-486.217 791.746,-468 795.799,-466.969 799.996,-465.84 804.191,-464.667"/>
<polygon fill="black" stroke="black" points="805.255,-468.003 813.904,-461.883 803.326,-461.274 805.255,-468.003"/>
</g>
<!-- HITs/infinitesimal -->
<g id="node19" class="node"><title>HITs/infinitesimal</title>
<ellipse fill="none" stroke="black" cx="471.746" cy="-450" rx="74.9875" ry="18"/>
<text text-anchor="middle" x="471.746" y="-446.3" font-family="Times New Roman,serif" font-size="14.00">HITs/infinitesimal</text>
</g>
<!-- types/equiv&#45;&gt;HITs/infinitesimal -->
<g id="edge15" class="edge"><title>types/equiv&#45;&gt;HITs/infinitesimal</title>
<path fill="none" stroke="black" d="M524.742,-504.765C515.986,-495.882 504.974,-484.709 495.259,-474.854"/>
<polygon fill="black" stroke="black" points="497.654,-472.298 488.141,-467.633 492.669,-477.212 497.654,-472.298"/>
</g>
<!-- types/lost -->
<g id="node20" class="node"><title>types/lost</title>
<ellipse fill="none" stroke="black" cx="610.746" cy="-450" rx="46.2923" ry="18"/>
<text text-anchor="middle" x="610.746" y="-446.3" font-family="Times New Roman,serif" font-size="14.00">types/lost</text>
</g>
<!-- types/equiv&#45;&gt;types/lost -->
<g id="edge16" class="edge"><title>types/equiv&#45;&gt;types/lost</title>
<path fill="none" stroke="black" d="M556.981,-504.765C565.993,-495.753 577.361,-484.385 587.32,-474.426"/>
<polygon fill="black" stroke="black" points="590.002,-476.693 594.598,-467.147 585.052,-471.744 590.002,-476.693"/>
</g>
<!-- types/unit -->
<g id="node21" class="node"><title>types/unit</title>
<ellipse fill="none" stroke="black" cx="457.746" cy="-378" rx="46.2923" ry="18"/>
<text text-anchor="middle" x="457.746" y="-374.3" font-family="Times New Roman,serif" font-size="14.00">types/unit</text>
</g>
<!-- types/equiv&#45;&gt;types/unit -->
<g id="edge17" class="edge"><title>types/equiv&#45;&gt;types/unit</title>
<path fill="none" stroke="black" d="M489.776,-518.071C454.812,-513.089 410.733,-500.29 387.746,-468 378.467,-454.966 380.623,-446.327 387.746,-432 394.803,-417.805 407.679,-406.396 420.481,-397.852"/>
<polygon fill="black" stroke="black" points="422.614,-400.648 429.26,-392.397 418.919,-394.702 422.614,-400.648"/>
</g>
<!-- types/sigma -->
<g id="node22" class="node"><title>types/sigma</title>
<ellipse fill="none" stroke="black" cx="728.746" cy="-450" rx="53.8905" ry="18"/>
<text text-anchor="middle" x="728.746" y="-446.3" font-family="Times New Roman,serif" font-size="14.00">types/sigma</text>
</g>
<!-- types/equiv&#45;&gt;types/sigma -->
<g id="edge18" class="edge"><title>types/equiv&#45;&gt;types/sigma</title>
<path fill="none" stroke="black" d="M574.791,-508.324C605.513,-496.885 650.899,-479.986 684.439,-467.497"/>
<polygon fill="black" stroke="black" points="685.849,-470.707 693.999,-463.938 683.406,-464.147 685.849,-470.707"/>
</g>
<!-- structures -->
<g id="node6" class="node"><title>structures</title>
<ellipse fill="none" stroke="black" cx="727.746" cy="-306" rx="46.2923" ry="18"/>
<text text-anchor="middle" x="727.746" y="-302.3" font-family="Times New Roman,serif" font-size="14.00">structures</text>
</g>
<!-- HITs/interval -->
<g id="node7" class="node"><title>HITs/interval</title>
<ellipse fill="none" stroke="black" cx="616.746" cy="-234" rx="57.6901" ry="18"/>
<text text-anchor="middle" x="616.746" y="-230.3" font-family="Times New Roman,serif" font-size="14.00">HITs/interval</text>
</g>
<!-- structures&#45;&gt;HITs/interval -->
<g id="edge4" class="edge"><title>structures&#45;&gt;HITs/interval</title>
<path fill="none" stroke="black" d="M704.476,-290.326C688.669,-280.357 667.523,-267.022 649.952,-255.941"/>
<polygon fill="black" stroke="black" points="651.463,-252.756 641.137,-250.382 647.729,-258.677 651.463,-252.756"/>
</g>
<!-- HITs/merely -->
<g id="node8" class="node"><title>HITs/merely</title>
<ellipse fill="none" stroke="black" cx="1138.75" cy="-234" rx="55.7903" ry="18"/>
<text text-anchor="middle" x="1138.75" y="-230.3" font-family="Times New Roman,serif" font-size="14.00">HITs/merely</text>
</g>
<!-- structures&#45;&gt;HITs/merely -->
<g id="edge5" class="edge"><title>structures&#45;&gt;HITs/merely</title>
<path fill="none" stroke="black" d="M761.531,-293.531C768.488,-291.46 775.808,-289.489 782.746,-288 910.163,-260.651 945.758,-276.541 1073.75,-252 1078.51,-251.087 1083.44,-250.022 1088.35,-248.879"/>
<polygon fill="black" stroke="black" points="1089.48,-252.208 1098.37,-246.447 1087.82,-245.406 1089.48,-252.208"/>
</g>
<!-- HITs/trunc -->
<g id="node9" class="node"><title>HITs/trunc</title>
<ellipse fill="none" stroke="black" cx="1013.75" cy="-234" rx="50.8918" ry="18"/>
<text text-anchor="middle" x="1013.75" y="-230.3" font-family="Times New Roman,serif" font-size="14.00">HITs/trunc</text>
</g>
<!-- structures&#45;&gt;HITs/trunc -->
<g id="edge6" class="edge"><title>structures&#45;&gt;HITs/trunc</title>
<path fill="none" stroke="black" d="M762.252,-293.905C769.021,-291.851 776.086,-289.791 782.746,-288 843.456,-271.677 913.983,-255.959 960.983,-245.938"/>
<polygon fill="black" stroke="black" points="961.88,-249.326 970.936,-243.827 960.427,-242.479 961.88,-249.326"/>
</g>
<!-- types/nat -->
<g id="node10" class="node"><title>types/nat</title>
<ellipse fill="none" stroke="black" cx="735.746" cy="-234" rx="43.5923" ry="18"/>
<text text-anchor="middle" x="735.746" y="-230.3" font-family="Times New Roman,serif" font-size="14.00">types/nat</text>
</g>
<!-- structures&#45;&gt;types/nat -->
<g id="edge7" class="edge"><title>structures&#45;&gt;types/nat</title>
<path fill="none" stroke="black" d="M729.723,-287.697C730.605,-279.983 731.664,-270.712 732.647,-262.112"/>
<polygon fill="black" stroke="black" points="736.133,-262.437 733.791,-252.104 729.178,-261.642 736.133,-262.437"/>
</g>
<!-- theorems/ua -->
<g id="node11" class="node"><title>theorems/ua</title>
<ellipse fill="none" stroke="black" cx="851.746" cy="-234" rx="54.6905" ry="18"/>
<text text-anchor="middle" x="851.746" y="-230.3" font-family="Times New Roman,serif" font-size="14.00">theorems/ua</text>
</g>
<!-- structures&#45;&gt;theorems/ua -->
<g id="edge8" class="edge"><title>structures&#45;&gt;theorems/ua</title>
<path fill="none" stroke="black" d="M752.839,-290.834C771.127,-280.511 796.151,-266.384 816.452,-254.924"/>
<polygon fill="black" stroke="black" points="818.418,-257.833 825.406,-249.869 814.977,-251.737 818.418,-257.833"/>
</g>
<!-- HITs/circle -->
<g id="node25" class="node"><title>HITs/circle</title>
<ellipse fill="none" stroke="black" cx="323.746" cy="-90" rx="51.9908" ry="18"/>
<text text-anchor="middle" x="323.746" y="-86.3" font-family="Times New Roman,serif" font-size="14.00">HITs/circle</text>
</g>
<!-- HITs/interval&#45;&gt;HITs/circle -->
<g id="edge41" class="edge"><title>HITs/interval&#45;&gt;HITs/circle</title>
<path fill="none" stroke="black" d="M587.536,-218.332C568.919,-208.468 544.645,-194.632 524.746,-180 505.741,-166.026 506.089,-155.941 485.746,-144 466.413,-132.652 413.222,-116.172 373.02,-104.61"/>
<polygon fill="black" stroke="black" points="373.943,-101.234 363.367,-101.856 372.023,-107.965 373.943,-101.234"/>
</g>
<!-- theorems/prop -->
<g id="node30" class="node"><title>theorems/prop</title>
<ellipse fill="none" stroke="black" cx="943.746" cy="-162" rx="63.8893" ry="18"/>
<text text-anchor="middle" x="943.746" y="-158.3" font-family="Times New Roman,serif" font-size="14.00">theorems/prop</text>
</g>
<!-- HITs/interval&#45;&gt;theorems/prop -->
<g id="edge42" class="edge"><title>HITs/interval&#45;&gt;theorems/prop</title>
<path fill="none" stroke="black" d="M659.271,-221.702C667.062,-219.73 675.135,-217.752 682.746,-216 750.687,-200.363 829.139,-184.76 882.15,-174.575"/>
<polygon fill="black" stroke="black" points="882.91,-177.993 892.073,-172.675 881.593,-171.118 882.91,-177.993"/>
</g>
<!-- cubical/cubes -->
<g id="node39" class="node"><title>cubical/cubes</title>
<ellipse fill="none" stroke="black" cx="630.746" cy="-162" rx="60.3893" ry="18"/>
<text text-anchor="middle" x="630.746" y="-158.3" font-family="Times New Roman,serif" font-size="14.00">cubical/cubes</text>
</g>
<!-- HITs/interval&#45;&gt;cubical/cubes -->
<g id="edge43" class="edge"><title>HITs/interval&#45;&gt;cubical/cubes</title>
<path fill="none" stroke="black" d="M620.206,-215.697C621.749,-207.983 623.603,-198.712 625.323,-190.112"/>
<polygon fill="black" stroke="black" points="628.796,-190.597 627.325,-180.104 621.932,-189.224 628.796,-190.597"/>
</g>
<!-- theorems/fibration -->
<g id="node40" class="node"><title>theorems/fibration</title>
<ellipse fill="none" stroke="black" cx="474.746" cy="-90" rx="76.8869" ry="18"/>
<text text-anchor="middle" x="474.746" y="-86.3" font-family="Times New Roman,serif" font-size="14.00">theorems/fibration</text>
</g>
<!-- HITs/interval&#45;&gt;theorems/fibration -->
<g id="edge44" class="edge"><title>HITs/interval&#45;&gt;theorems/fibration</title>
<path fill="none" stroke="black" d="M599.277,-216.422C588.402,-206.038 574.167,-192.333 561.746,-180 539.877,-158.287 515.371,-133.143 497.955,-115.13"/>
<polygon fill="black" stroke="black" points="500.417,-112.641 490.953,-107.878 495.381,-117.503 500.417,-112.641"/>
</g>
<!-- HITs/merely&#45;&gt;theorems/prop -->
<g id="edge45" class="edge"><title>HITs/merely&#45;&gt;theorems/prop</title>
<path fill="none" stroke="black" d="M1102.98,-220.161C1071.66,-208.917 1025.89,-192.489 991.457,-180.127"/>
<polygon fill="black" stroke="black" points="992.209,-176.679 981.615,-176.594 989.844,-183.267 992.209,-176.679"/>
</g>
<!-- HITs/simplicial -->
<g id="node42" class="node"><title>HITs/simplicial</title>
<ellipse fill="none" stroke="black" cx="1270.75" cy="-162" rx="65.7887" ry="18"/>
<text text-anchor="middle" x="1270.75" y="-158.3" font-family="Times New Roman,serif" font-size="14.00">HITs/simplicial</text>
</g>
<!-- HITs/merely&#45;&gt;HITs/simplicial -->
<g id="edge46" class="edge"><title>HITs/merely&#45;&gt;HITs/simplicial</title>
<path fill="none" stroke="black" d="M1166.42,-218.326C1185.65,-208.128 1211.52,-194.408 1232.69,-183.182"/>
<polygon fill="black" stroke="black" points="1234.54,-186.159 1241.74,-178.382 1231.27,-179.975 1234.54,-186.159"/>
</g>
<!-- theorems/functions -->
<g id="node43" class="node"><title>theorems/functions</title>
<ellipse fill="none" stroke="black" cx="1434.75" cy="-162" rx="79.8859" ry="18"/>
<text text-anchor="middle" x="1434.75" y="-158.3" font-family="Times New Roman,serif" font-size="14.00">theorems/functions</text>
</g>
<!-- HITs/merely&#45;&gt;theorems/functions -->
<g id="edge47" class="edge"><title>HITs/merely&#45;&gt;theorems/functions</title>
<path fill="none" stroke="black" d="M1182.42,-222.671C1232.41,-210.85 1314.7,-191.389 1371.65,-177.921"/>
<polygon fill="black" stroke="black" points="1372.7,-181.271 1381.62,-175.563 1371.08,-174.459 1372.7,-181.271"/>
</g>
<!-- HITs/quotient -->
<g id="node38" class="node"><title>HITs/quotient</title>
<ellipse fill="none" stroke="black" cx="1125.75" cy="-162" rx="61.99" ry="18"/>
<text text-anchor="middle" x="1125.75" y="-158.3" font-family="Times New Roman,serif" font-size="14.00">HITs/quotient</text>
</g>
<!-- HITs/trunc&#45;&gt;HITs/quotient -->
<g id="edge52" class="edge"><title>HITs/trunc&#45;&gt;HITs/quotient</title>
<path fill="none" stroke="black" d="M1037.77,-217.983C1053.54,-208.131 1074.38,-195.102 1091.83,-184.199"/>
<polygon fill="black" stroke="black" points="1093.97,-186.988 1100.59,-178.72 1090.26,-181.052 1093.97,-186.988"/>
</g>
<!-- theorems/nat -->
<g id="node27" class="node"><title>theorems/nat</title>
<ellipse fill="none" stroke="black" cx="766.746" cy="-162" rx="57.3905" ry="18"/>
<text text-anchor="middle" x="766.746" y="-158.3" font-family="Times New Roman,serif" font-size="14.00">theorems/nat</text>
</g>
<!-- types/nat&#45;&gt;theorems/nat -->
<g id="edge23" class="edge"><title>types/nat&#45;&gt;theorems/nat</title>
<path fill="none" stroke="black" d="M743.25,-216.055C746.777,-208.091 751.064,-198.411 755.006,-189.51"/>
<polygon fill="black" stroke="black" points="758.246,-190.836 759.095,-180.275 751.846,-188.002 758.246,-190.836"/>
</g>
<!-- algebra/group -->
<g id="node12" class="node"><title>algebra/group</title>
<ellipse fill="none" stroke="black" cx="1168.75" cy="-90" rx="60.3893" ry="18"/>
<text text-anchor="middle" x="1168.75" y="-86.3" font-family="Times New Roman,serif" font-size="14.00">algebra/group</text>
</g>
<!-- theorems/ua&#45;&gt;algebra/group -->
<g id="edge65" class="edge"><title>theorems/ua&#45;&gt;algebra/group</title>
<path fill="none" stroke="black" d="M897.45,-224.118C931.918,-216.084 979.465,-202.074 1016.75,-180 1036.76,-168.147 1035.5,-157.074 1054.75,-144 1075.82,-129.682 1101.38,-117.403 1122.95,-108.279"/>
<polygon fill="black" stroke="black" points="1124.33,-111.495 1132.23,-104.439 1121.65,-105.026 1124.33,-111.495"/>
</g>
<!-- theorems/ua&#45;&gt;theorems/nat -->
<g id="edge66" class="edge"><title>theorems/ua&#45;&gt;theorems/nat</title>
<path fill="none" stroke="black" d="M832.458,-217.116C821.127,-207.785 806.621,-195.838 794.122,-185.545"/>
<polygon fill="black" stroke="black" points="796.196,-182.719 786.251,-179.064 791.746,-188.122 796.196,-182.719"/>
</g>
<!-- cubical/V -->
<g id="node48" class="node"><title>cubical/V</title>
<ellipse fill="none" stroke="black" cx="926.746" cy="-18" rx="45.4919" ry="18"/>
<text text-anchor="middle" x="926.746" y="-14.3" font-family="Times New Roman,serif" font-size="14.00">cubical/V</text>
</g>
<!-- theorems/ua&#45;&gt;cubical/V -->
<g id="edge67" class="edge"><title>theorems/ua&#45;&gt;cubical/V</title>
<path fill="none" stroke="black" d="M854.28,-215.989C857.232,-197.868 862.748,-168.48 870.746,-144 882.284,-108.679 900.601,-69.9062 913.122,-45.0544"/>
<polygon fill="black" stroke="black" points="916.348,-46.4328 917.773,-35.9342 910.112,-43.2529 916.348,-46.4328"/>
</g>
<!-- algebra/homology -->
<g id="node13" class="node"><title>algebra/homology</title>
<ellipse fill="none" stroke="black" cx="1210.75" cy="-18" rx="75.2868" ry="18"/>
<text text-anchor="middle" x="1210.75" y="-14.3" font-family="Times New Roman,serif" font-size="14.00">algebra/homology</text>
</g>
<!-- algebra/group&#45;&gt;algebra/homology -->
<g id="edge9" class="edge"><title>algebra/group&#45;&gt;algebra/homology</title>
<path fill="none" stroke="black" d="M1178.91,-72.055C1183.79,-63.922 1189.75,-53.998 1195.18,-44.9426"/>
<polygon fill="black" stroke="black" points="1198.24,-46.651 1200.38,-36.2753 1192.23,-43.0495 1198.24,-46.651"/>
</g>
<!-- types/category -->
<g id="node14" class="node"><title>types/category</title>
<ellipse fill="none" stroke="black" cx="1053.75" cy="-18" rx="63.8893" ry="18"/>
<text text-anchor="middle" x="1053.75" y="-14.3" font-family="Times New Roman,serif" font-size="14.00">types/category</text>
</g>
<!-- types/coproduct&#45;&gt;structures -->
<g id="edge10" class="edge"><title>types/coproduct&#45;&gt;structures</title>
<path fill="none" stroke="black" d="M374.293,-365.548C383.737,-363.592 393.522,-361.659 402.746,-360 510.633,-340.598 538.834,-343.267 646.746,-324 657.143,-322.144 668.248,-319.952 678.797,-317.77"/>
<polygon fill="black" stroke="black" points="679.631,-321.171 688.699,-315.693 678.194,-314.32 679.631,-321.171"/>
</g>
<!-- types/integer -->
<g id="node16" class="node"><title>types/integer</title>
<ellipse fill="none" stroke="black" cx="320.746" cy="-306" rx="56.59" ry="18"/>
<text text-anchor="middle" x="320.746" y="-302.3" font-family="Times New Roman,serif" font-size="14.00">types/integer</text>
</g>
<!-- types/coproduct&#45;&gt;types/integer -->
<g id="edge11" class="edge"><title>types/coproduct&#45;&gt;types/integer</title>
<path fill="none" stroke="black" d="M322.251,-359.697C322.031,-351.983 321.766,-342.712 321.52,-334.112"/>
<polygon fill="black" stroke="black" points="325.019,-334 321.234,-324.104 318.021,-334.2 325.019,-334"/>
</g>
<!-- types/integer&#45;&gt;HITs/circle -->
<g id="edge21" class="edge"><title>types/integer&#45;&gt;HITs/circle</title>
<path fill="none" stroke="black" d="M320.986,-287.849C321.505,-250.832 322.734,-163.181 323.362,-118.386"/>
<polygon fill="black" stroke="black" points="326.863,-118.281 323.504,-108.232 319.864,-118.182 326.863,-118.281"/>
</g>
<!-- types/rational -->
<g id="node26" class="node"><title>types/rational</title>
<ellipse fill="none" stroke="black" cx="229.746" cy="-234" rx="59.2899" ry="18"/>
<text text-anchor="middle" x="229.746" y="-230.3" font-family="Times New Roman,serif" font-size="14.00">types/rational</text>
</g>
<!-- types/integer&#45;&gt;types/rational -->
<g id="edge22" class="edge"><title>types/integer&#45;&gt;types/rational</title>
<path fill="none" stroke="black" d="M300.096,-289.116C287.85,-279.696 272.14,-267.611 258.672,-257.251"/>
<polygon fill="black" stroke="black" points="260.689,-254.386 250.628,-251.064 256.421,-259.935 260.689,-254.386"/>
</g>
<!-- types/dedekind -->
<g id="node17" class="node"><title>types/dedekind</title>
<ellipse fill="none" stroke="black" cx="226.746" cy="-162" rx="65.7887" ry="18"/>
<text text-anchor="middle" x="226.746" y="-158.3" font-family="Times New Roman,serif" font-size="14.00">types/dedekind</text>
</g>
<!-- HITs/graph -->
<g id="node23" class="node"><title>HITs/graph</title>
<ellipse fill="none" stroke="black" cx="989.746" cy="-378" rx="52.7911" ry="18"/>
<text text-anchor="middle" x="989.746" y="-374.3" font-family="Times New Roman,serif" font-size="14.00">HITs/graph</text>
</g>
<!-- types/heq&#45;&gt;HITs/graph -->
<g id="edge19" class="edge"><title>types/heq&#45;&gt;HITs/graph</title>
<path fill="none" stroke="black" d="M876.267,-435.337C897.775,-424.659 927.914,-409.696 951.727,-397.875"/>
<polygon fill="black" stroke="black" points="953.439,-400.932 960.84,-393.35 950.327,-394.662 953.439,-400.932"/>
</g>
<!-- theorems/funext -->
<g id="node24" class="node"><title>theorems/funext</title>
<ellipse fill="none" stroke="black" cx="848.746" cy="-378" rx="68.7879" ry="18"/>
<text text-anchor="middle" x="848.746" y="-374.3" font-family="Times New Roman,serif" font-size="14.00">theorems/funext</text>
</g>
<!-- types/heq&#45;&gt;theorems/funext -->
<g id="edge20" class="edge"><title>types/heq&#45;&gt;theorems/funext</title>
<path fill="none" stroke="black" d="M848.746,-431.697C848.746,-423.983 848.746,-414.712 848.746,-406.112"/>
<polygon fill="black" stroke="black" points="852.246,-406.104 848.746,-396.104 845.246,-406.104 852.246,-406.104"/>
</g>
<!-- types/unit&#45;&gt;structures -->
<g id="edge29" class="edge"><title>types/unit&#45;&gt;structures</title>
<path fill="none" stroke="black" d="M495.005,-367.34C543.387,-354.797 627.869,-332.894 680.645,-319.211"/>
<polygon fill="black" stroke="black" points="681.634,-322.571 690.436,-316.673 679.878,-315.795 681.634,-322.571"/>
</g>
<!-- HITs/suspension -->
<g id="node31" class="node"><title>HITs/suspension</title>
<ellipse fill="none" stroke="black" cx="437.746" cy="-234" rx="72.5877" ry="18"/>
<text text-anchor="middle" x="437.746" y="-230.3" font-family="Times New Roman,serif" font-size="14.00">HITs/suspension</text>
</g>
<!-- types/unit&#45;&gt;HITs/suspension -->
<g id="edge30" class="edge"><title>types/unit&#45;&gt;HITs/suspension</title>
<path fill="none" stroke="black" d="M455.333,-359.871C451.925,-335.67 445.663,-291.211 441.604,-262.393"/>
<polygon fill="black" stroke="black" points="445.027,-261.603 440.167,-252.189 438.096,-262.58 445.027,-261.603"/>
</g>
<!-- types/sigma&#45;&gt;structures -->
<g id="edge28" class="edge"><title>types/sigma&#45;&gt;structures</title>
<path fill="none" stroke="black" d="M728.625,-431.871C728.455,-407.67 728.142,-363.211 727.939,-334.393"/>
<polygon fill="black" stroke="black" points="731.437,-334.164 727.867,-324.189 724.437,-334.214 731.437,-334.164"/>
</g>
<!-- HITs/colimit -->
<g id="node35" class="node"><title>HITs/colimit</title>
<ellipse fill="none" stroke="black" cx="989.746" cy="-306" rx="56.59" ry="18"/>
<text text-anchor="middle" x="989.746" y="-302.3" font-family="Times New Roman,serif" font-size="14.00">HITs/colimit</text>
</g>
<!-- HITs/graph&#45;&gt;HITs/colimit -->
<g id="edge37" class="edge"><title>HITs/graph&#45;&gt;HITs/colimit</title>
<path fill="none" stroke="black" d="M989.746,-359.697C989.746,-351.983 989.746,-342.712 989.746,-334.112"/>
<polygon fill="black" stroke="black" points="993.246,-334.104 989.746,-324.104 986.246,-334.104 993.246,-334.104"/>
</g>
<!-- HITs/generalized -->
<g id="node36" class="node"><title>HITs/generalized</title>
<ellipse fill="none" stroke="black" cx="1136.75" cy="-306" rx="72.2875" ry="18"/>
<text text-anchor="middle" x="1136.75" y="-302.3" font-family="Times New Roman,serif" font-size="14.00">HITs/generalized</text>
</g>
<!-- HITs/graph&#45;&gt;HITs/generalized -->
<g id="edge38" class="edge"><title>HITs/graph&#45;&gt;HITs/generalized</title>
<path fill="none" stroke="black" d="M1019.14,-363.003C1041.03,-352.577 1071.21,-338.205 1095.52,-326.632"/>
<polygon fill="black" stroke="black" points="1097.33,-329.646 1104.85,-322.186 1094.32,-323.326 1097.33,-329.646"/>
</g>
<!-- HITs/pushout -->
<g id="node37" class="node"><title>HITs/pushout</title>
<ellipse fill="none" stroke="black" cx="575.746" cy="-306" rx="61.99" ry="18"/>
<text text-anchor="middle" x="575.746" y="-302.3" font-family="Times New Roman,serif" font-size="14.00">HITs/pushout</text>
</g>
<!-- HITs/graph&#45;&gt;HITs/pushout -->
<g id="edge39" class="edge"><title>HITs/graph&#45;&gt;HITs/pushout</title>
<path fill="none" stroke="black" d="M950.94,-365.728C942.98,-363.642 934.625,-361.615 926.746,-360 815.051,-337.105 785.358,-341.844 672.746,-324 661.07,-322.15 648.626,-320.059 636.68,-317.993"/>
<polygon fill="black" stroke="black" points="637.243,-314.538 626.79,-316.268 636.04,-321.434 637.243,-314.538"/>
</g>
<!-- HITs/graph&#45;&gt;HITs/quotient -->
<g id="edge40" class="edge"><title>HITs/graph&#45;&gt;HITs/quotient</title>
<path fill="none" stroke="black" d="M1040,-372.494C1100.28,-365.927 1195.98,-351.408 1217.75,-324 1232.86,-304.974 1212.81,-229.748 1203.75,-216 1194.65,-202.21 1180.61,-191.057 1166.93,-182.604"/>
<polygon fill="black" stroke="black" points="1168.46,-179.442 1158.05,-177.439 1164.94,-185.493 1168.46,-179.442"/>
</g>
<!-- theorems/funext&#45;&gt;structures -->
<g id="edge60" class="edge"><title>theorems/funext&#45;&gt;structures</title>
<path fill="none" stroke="black" d="M821.591,-361.291C803.867,-351.037 780.59,-337.571 761.653,-326.616"/>
<polygon fill="black" stroke="black" points="763.157,-323.442 752.748,-321.464 759.651,-329.501 763.157,-323.442"/>
</g>
<!-- types/product -->
<g id="node29" class="node"><title>types/product</title>
<ellipse fill="none" stroke="black" cx="853.746" cy="-306" rx="61.99" ry="18"/>
<text text-anchor="middle" x="853.746" y="-302.3" font-family="Times New Roman,serif" font-size="14.00">types/product</text>
</g>
<!-- theorems/funext&#45;&gt;types/product -->
<g id="edge61" class="edge"><title>theorems/funext&#45;&gt;types/product</title>
<path fill="none" stroke="black" d="M849.982,-359.697C850.533,-351.983 851.195,-342.712 851.809,-334.112"/>
<polygon fill="black" stroke="black" points="855.302,-334.328 852.524,-324.104 848.32,-333.83 855.302,-334.328"/>
</g>
<!-- theorems/hopf -->
<g id="node32" class="node"><title>theorems/hopf</title>
<ellipse fill="none" stroke="black" cx="323.746" cy="-18" rx="63.8893" ry="18"/>
<text text-anchor="middle" x="323.746" y="-14.3" font-family="Times New Roman,serif" font-size="14.00">theorems/hopf</text>
</g>
<!-- HITs/circle&#45;&gt;theorems/hopf -->
<g id="edge31" class="edge"><title>HITs/circle&#45;&gt;theorems/hopf</title>
<path fill="none" stroke="black" d="M323.746,-71.6966C323.746,-63.9827 323.746,-54.7125 323.746,-46.1124"/>
<polygon fill="black" stroke="black" points="327.246,-46.1043 323.746,-36.1043 320.246,-46.1044 327.246,-46.1043"/>
</g>
<!-- HITs/moebius -->
<g id="node33" class="node"><title>HITs/moebius</title>
<ellipse fill="none" stroke="black" cx="178.746" cy="-18" rx="63.0888" ry="18"/>
<text text-anchor="middle" x="178.746" y="-14.3" font-family="Times New Roman,serif" font-size="14.00">HITs/moebius</text>
</g>
<!-- HITs/circle&#45;&gt;HITs/moebius -->
<g id="edge32" class="edge"><title>HITs/circle&#45;&gt;HITs/moebius</title>
<path fill="none" stroke="black" d="M294.751,-75.0027C272.936,-64.4712 242.781,-49.9137 218.684,-38.2806"/>
<polygon fill="black" stroke="black" points="219.969,-35.0144 209.442,-33.8188 216.926,-41.3183 219.969,-35.0144"/>
</g>
<!-- HITs/reals -->
<g id="node34" class="node"><title>HITs/reals</title>
<ellipse fill="none" stroke="black" cx="48.7457" cy="-18" rx="48.9926" ry="18"/>
<text text-anchor="middle" x="48.7457" y="-14.3" font-family="Times New Roman,serif" font-size="14.00">HITs/reals</text>
</g>
<!-- HITs/circle&#45;&gt;HITs/reals -->
<g id="edge33" class="edge"><title>HITs/circle&#45;&gt;HITs/reals</title>
<path fill="none" stroke="black" d="M281.595,-79.3056C237.766,-69.0847 167.234,-52.2425 106.746,-36 102.977,-34.988 99.0795,-33.9114 95.1698,-32.8101"/>
<polygon fill="black" stroke="black" points="96.0703,-29.4274 85.4935,-30.045 94.1469,-36.158 96.0703,-29.4274"/>
</g>
<!-- types/rational&#45;&gt;types/dedekind -->
<g id="edge27" class="edge"><title>types/rational&#45;&gt;types/dedekind</title>
<path fill="none" stroke="black" d="M229.004,-215.697C228.674,-207.983 228.276,-198.712 227.908,-190.112"/>
<polygon fill="black" stroke="black" points="231.404,-189.945 227.479,-180.104 224.41,-190.245 231.404,-189.945"/>
</g>
<!-- theorems/nat&#45;&gt;HITs/circle -->
<g id="edge62" class="edge"><title>theorems/nat&#45;&gt;HITs/circle</title>
<path fill="none" stroke="black" d="M725.119,-149.524C716.761,-147.479 708.008,-145.519 699.746,-144 562.895,-118.834 525.503,-133.667 388.746,-108 383.372,-106.991 377.787,-105.782 372.248,-104.48"/>
<polygon fill="black" stroke="black" points="372.929,-101.043 362.383,-102.058 371.26,-107.841 372.929,-101.043"/>
</g>
<!-- HITs/int -->
<g id="node49" class="node"><title>HITs/int</title>
<ellipse fill="none" stroke="black" cx="766.746" cy="-90" rx="40.8928" ry="18"/>
<text text-anchor="middle" x="766.746" y="-86.3" font-family="Times New Roman,serif" font-size="14.00">HITs/int</text>
</g>
<!-- theorems/nat&#45;&gt;HITs/int -->
<g id="edge63" class="edge"><title>theorems/nat&#45;&gt;HITs/int</title>
<path fill="none" stroke="black" d="M766.746,-143.697C766.746,-135.983 766.746,-126.712 766.746,-118.112"/>
<polygon fill="black" stroke="black" points="770.246,-118.104 766.746,-108.104 763.246,-118.104 770.246,-118.104"/>
</g>
<!-- types/precategory -->
<g id="node28" class="node"><title>types/precategory</title>
<ellipse fill="none" stroke="black" cx="1006.75" cy="-90" rx="75.2868" ry="18"/>
<text text-anchor="middle" x="1006.75" y="-86.3" font-family="Times New Roman,serif" font-size="14.00">types/precategory</text>
</g>
<!-- types/precategory&#45;&gt;types/category -->
<g id="edge24" class="edge"><title>types/precategory&#45;&gt;types/category</title>
<path fill="none" stroke="black" d="M1018.12,-72.055C1023.72,-63.7147 1030.59,-53.4908 1036.79,-44.2517"/>
<polygon fill="black" stroke="black" points="1039.8,-46.0423 1042.47,-35.789 1033.99,-42.1402 1039.8,-46.0423"/>
</g>
<!-- types/product&#45;&gt;theorems/ua -->
<g id="edge25" class="edge"><title>types/product&#45;&gt;theorems/ua</title>
<path fill="none" stroke="black" d="M853.251,-287.697C853.031,-279.983 852.766,-270.712 852.52,-262.112"/>
<polygon fill="black" stroke="black" points="856.019,-262 852.234,-252.104 849.021,-262.2 856.019,-262"/>
</g>
<!-- types/product&#45;&gt;theorems/prop -->
<g id="edge26" class="edge"><title>types/product&#45;&gt;theorems/prop</title>
<path fill="none" stroke="black" d="M877.86,-289.393C890.732,-279.956 905.906,-266.884 915.746,-252 928.125,-233.276 935.306,-208.745 939.29,-190.179"/>
<polygon fill="black" stroke="black" points="942.739,-190.778 941.234,-180.291 935.871,-189.428 942.739,-190.778"/>
</g>
<!-- theorems/prop&#45;&gt;types/precategory -->
<g id="edge64" class="edge"><title>theorems/prop&#45;&gt;types/precategory</title>
<path fill="none" stroke="black" d="M958.676,-144.411C966.408,-135.82 976.002,-125.159 984.581,-115.627"/>
<polygon fill="black" stroke="black" points="987.397,-117.731 991.485,-107.956 982.194,-113.048 987.397,-117.731"/>
</g>
<!-- HITs/suspension&#45;&gt;HITs/circle -->
<g id="edge50" class="edge"><title>HITs/suspension&#45;&gt;HITs/circle</title>
<path fill="none" stroke="black" d="M416.304,-216.737C404.156,-206.899 389.156,-193.649 377.746,-180 361.458,-160.517 346.782,-135.61 336.856,-117.102"/>
<polygon fill="black" stroke="black" points="339.861,-115.297 332.114,-108.07 333.663,-118.551 339.861,-115.297"/>
</g>
<!-- HITs/join -->
<g id="node41" class="node"><title>HITs/join</title>
<ellipse fill="none" stroke="black" cx="431.746" cy="-162" rx="45.4919" ry="18"/>
<text text-anchor="middle" x="431.746" y="-158.3" font-family="Times New Roman,serif" font-size="14.00">HITs/join</text>
</g>
<!-- HITs/suspension&#45;&gt;HITs/join -->
<g id="edge51" class="edge"><title>HITs/suspension&#45;&gt;HITs/join</title>
<path fill="none" stroke="black" d="M436.263,-215.697C435.601,-207.983 434.807,-198.712 434.07,-190.112"/>
<polygon fill="black" stroke="black" points="437.553,-189.769 433.212,-180.104 430.579,-190.367 437.553,-189.769"/>
</g>
<!-- HITs/colimit&#45;&gt;HITs/merely -->
<g id="edge34" class="edge"><title>HITs/colimit&#45;&gt;HITs/merely</title>
<path fill="none" stroke="black" d="M1020.26,-290.666C1043.13,-279.919 1074.63,-265.122 1099.4,-253.486"/>
<polygon fill="black" stroke="black" points="1100.97,-256.616 1108.53,-249.196 1097.99,-250.28 1100.97,-256.616"/>
</g>
<!-- HITs/colimit&#45;&gt;types/nat -->
<g id="edge35" class="edge"><title>HITs/colimit&#45;&gt;types/nat</title>
<path fill="none" stroke="black" d="M947.457,-293.938C889.389,-278.744 791.648,-253.149 787.746,-252 784.602,-251.075 781.362,-250.09 778.107,-249.079"/>
<polygon fill="black" stroke="black" points="778.976,-245.682 768.385,-245.998 776.861,-252.356 778.976,-245.682"/>
</g>
<!-- HITs/generalized&#45;&gt;HITs/merely -->
<g id="edge36" class="edge"><title>HITs/generalized&#45;&gt;HITs/merely</title>
<path fill="none" stroke="black" d="M1137.24,-287.697C1137.46,-279.983 1137.73,-270.712 1137.97,-262.112"/>
<polygon fill="black" stroke="black" points="1141.47,-262.2 1138.26,-252.104 1134.47,-262 1141.47,-262.2"/>
</g>
<!-- HITs/pushout&#45;&gt;HITs/suspension -->
<g id="edge48" class="edge"><title>HITs/pushout&#45;&gt;HITs/suspension</title>
<path fill="none" stroke="black" d="M546.141,-289.983C526.045,-279.789 499.244,-266.195 477.32,-255.074"/>
<polygon fill="black" stroke="black" points="478.758,-251.879 468.256,-250.476 475.591,-258.121 478.758,-251.879"/>
</g>
<!-- HITs/quotient&#45;&gt;algebra/group -->
<g id="edge49" class="edge"><title>HITs/quotient&#45;&gt;algebra/group</title>
<path fill="none" stroke="black" d="M1136.15,-144.055C1141.23,-135.801 1147.43,-125.701 1153.06,-116.538"/>
<polygon fill="black" stroke="black" points="1156.18,-118.142 1158.43,-107.789 1150.22,-114.478 1156.18,-118.142"/>
</g>
<!-- cubical/path -->
<g id="node45" class="node"><title>cubical/path</title>
<ellipse fill="none" stroke="black" cx="630.746" cy="-90" rx="54.6905" ry="18"/>
<text text-anchor="middle" x="630.746" y="-86.3" font-family="Times New Roman,serif" font-size="14.00">cubical/path</text>
</g>
<!-- cubical/cubes&#45;&gt;cubical/path -->
<g id="edge53" class="edge"><title>cubical/cubes&#45;&gt;cubical/path</title>
<path fill="none" stroke="black" d="M630.746,-143.697C630.746,-135.983 630.746,-126.712 630.746,-118.112"/>
<polygon fill="black" stroke="black" points="634.246,-118.104 630.746,-108.104 627.246,-118.104 634.246,-118.104"/>
</g>
<!-- theorems/fibration&#45;&gt;theorems/hopf -->
<g id="edge58" class="edge"><title>theorems/fibration&#45;&gt;theorems/hopf</title>
<path fill="none" stroke="black" d="M441.608,-73.6382C418.999,-63.1571 388.896,-49.2021 364.772,-38.019"/>
<polygon fill="black" stroke="black" points="366.058,-34.7571 355.513,-33.7266 363.114,-41.1079 366.058,-34.7571"/>
</g>
<!-- theorems/functions&#45;&gt;algebra/group -->
<g id="edge59" class="edge"><title>theorems/functions&#45;&gt;algebra/group</title>
<path fill="none" stroke="black" d="M1384.71,-147.834C1338.35,-135.632 1269.58,-117.536 1222.17,-105.058"/>
<polygon fill="black" stroke="black" points="1222.95,-101.645 1212.39,-102.484 1221.17,-108.414 1222.95,-101.645"/>
</g>
<!-- cubical/connection -->
<g id="node44" class="node"><title>cubical/connection</title>
<ellipse fill="none" stroke="black" cx="628.746" cy="-18" rx="79.0865" ry="18"/>
<text text-anchor="middle" x="628.746" y="-14.3" font-family="Times New Roman,serif" font-size="14.00">cubical/connection</text>
</g>
<!-- cubical/path&#45;&gt;cubical/connection -->
<g id="edge54" class="edge"><title>cubical/path&#45;&gt;cubical/connection</title>
<path fill="none" stroke="black" d="M630.251,-71.6966C630.031,-63.9827 629.766,-54.7125 629.52,-46.1124"/>
<polygon fill="black" stroke="black" points="633.019,-46.0003 629.234,-36.1043 626.021,-46.2002 633.019,-46.0003"/>
</g>
<!-- cubical/example -->
<g id="node46" class="node"><title>cubical/example</title>
<ellipse fill="none" stroke="black" cx="794.746" cy="-18" rx="68.7879" ry="18"/>
<text text-anchor="middle" x="794.746" y="-14.3" font-family="Times New Roman,serif" font-size="14.00">cubical/example</text>
</g>
<!-- cubical/path&#45;&gt;cubical/example -->
<g id="edge55" class="edge"><title>cubical/path&#45;&gt;cubical/example</title>
<path fill="none" stroke="black" d="M662.756,-75.3371C687.855,-64.6241 723.058,-49.5984 750.797,-37.7586"/>
<polygon fill="black" stroke="black" points="752.445,-40.8607 760.268,-33.716 749.697,-34.4226 752.445,-40.8607"/>
</g>
<!-- cubical/square -->
<g id="node47" class="node"><title>cubical/square</title>
<ellipse fill="none" stroke="black" cx="468.746" cy="-18" rx="63.0888" ry="18"/>
<text text-anchor="middle" x="468.746" y="-14.3" font-family="Times New Roman,serif" font-size="14.00">cubical/square</text>
</g>
<!-- cubical/path&#45;&gt;cubical/square -->
<g id="edge56" class="edge"><title>cubical/path&#45;&gt;cubical/square</title>
<path fill="none" stroke="black" d="M598.74,-75.1703C573.747,-64.3708 538.785,-49.264 511.414,-37.4368"/>
<polygon fill="black" stroke="black" points="512.645,-34.1563 502.077,-33.4026 509.869,-40.5821 512.645,-34.1563"/>
</g>
<!-- cubical/path&#45;&gt;cubical/V -->
<g id="edge57" class="edge"><title>cubical/path&#45;&gt;cubical/V</title>
<path fill="none" stroke="black" d="M675.654,-79.667C734.932,-67.2606 836.068,-45.7687 872.746,-36 876.125,-35.1 879.608,-34.1219 883.1,-33.1046"/>
<polygon fill="black" stroke="black" points="884.318,-36.3934 892.89,-30.1668 882.306,-29.6888 884.318,-36.3934"/>
</g>
</g>
</svg>
