<?xml version="1.0" encoding="UTF-8" standalone="no"?>
<!DOCTYPE svg PUBLIC "-//W3C//DTD SVG 1.1//EN"
 "http://www.w3.org/Graphics/SVG/1.1/DTD/svg11.dtd">
<!-- Generated by graphviz version 2.38.0 (20140413.2041)
 -->
<!-- Title: dependency_map Pages: 1 -->
<svg width="1362pt" height="836pt"
 viewBox="0.00 0.00 1362.34 836.00" xmlns="http://www.w3.org/2000/svg" xmlns:xlink="http://www.w3.org/1999/xlink">
<g id="graph0" class="graph" transform="scale(1 1) rotate(0) translate(4 832)">
<title>dependency_map</title>
<polygon fill="white" stroke="none" points="-4,4 -4,-832 1358.34,-832 1358.34,4 -4,4"/>
<!-- proto -->
<g id="node1" class="node"><title>proto</title>
<ellipse fill="none" stroke="black" cx="706.644" cy="-810" rx="30.5947" ry="18"/>
<text text-anchor="middle" x="706.644" y="-806.3" font-family="Times New Roman,serif" font-size="14.00">proto</text>
</g>
<!-- types/eq -->
<g id="node2" class="node"><title>types/eq</title>
<ellipse fill="none" stroke="black" cx="766.644" cy="-738" rx="41.6928" ry="18"/>
<text text-anchor="middle" x="766.644" y="-734.3" font-family="Times New Roman,serif" font-size="14.00">types/eq</text>
</g>
<!-- proto&#45;&gt;types/eq -->
<g id="edge1" class="edge"><title>proto&#45;&gt;types/eq</title>
<path fill="none" stroke="black" d="M719.96,-793.465C727.588,-784.566 737.326,-773.205 745.932,-763.164"/>
<polygon fill="black" stroke="black" points="748.679,-765.338 752.529,-755.467 743.364,-760.782 748.679,-765.338"/>
</g>
<!-- support -->
<g id="node4" class="node"><title>support</title>
<ellipse fill="none" stroke="black" cx="828.644" cy="-666" rx="38.9931" ry="18"/>
<text text-anchor="middle" x="828.644" y="-662.3" font-family="Times New Roman,serif" font-size="14.00">support</text>
</g>
<!-- types/eq&#45;&gt;support -->
<g id="edge10" class="edge"><title>types/eq&#45;&gt;support</title>
<path fill="none" stroke="black" d="M781.024,-720.765C788.928,-711.841 798.877,-700.608 807.636,-690.719"/>
<polygon fill="black" stroke="black" points="810.332,-692.954 814.342,-683.147 805.092,-688.313 810.332,-692.954"/>
</g>
<!-- types/dep_path -->
<g id="node13" class="node"><title>types/dep_path</title>
<ellipse fill="none" stroke="black" cx="704.644" cy="-666" rx="66.8882" ry="18"/>
<text text-anchor="middle" x="704.644" y="-662.3" font-family="Times New Roman,serif" font-size="14.00">types/dep_path</text>
</g>
<!-- types/eq&#45;&gt;types/dep_path -->
<g id="edge11" class="edge"><title>types/eq&#45;&gt;types/dep_path</title>
<path fill="none" stroke="black" d="M752.264,-720.765C744.474,-711.969 734.695,-700.928 726.029,-691.144"/>
<polygon fill="black" stroke="black" points="728.627,-688.799 719.377,-683.633 723.387,-693.44 728.627,-688.799"/>
</g>
<!-- meta/hott_theory -->
<g id="node3" class="node"><title>meta/hott_theory</title>
<ellipse fill="none" stroke="black" cx="827.644" cy="-810" rx="72.2875" ry="18"/>
<text text-anchor="middle" x="827.644" y="-806.3" font-family="Times New Roman,serif" font-size="14.00">meta/hott_theory</text>
</g>
<!-- meta/hott_theory&#45;&gt;types/eq -->
<g id="edge2" class="edge"><title>meta/hott_theory&#45;&gt;types/eq</title>
<path fill="none" stroke="black" d="M812.878,-792.055C805.275,-783.33 795.876,-772.544 787.542,-762.981"/>
<polygon fill="black" stroke="black" points="790.063,-760.547 780.855,-755.307 784.786,-765.146 790.063,-760.547"/>
</g>
<!-- types/equiv -->
<g id="node5" class="node"><title>types/equiv</title>
<ellipse fill="none" stroke="black" cx="828.644" cy="-594" rx="51.9908" ry="18"/>
<text text-anchor="middle" x="828.644" y="-590.3" font-family="Times New Roman,serif" font-size="14.00">types/equiv</text>
</g>
<!-- support&#45;&gt;types/equiv -->
<g id="edge3" class="edge"><title>support&#45;&gt;types/equiv</title>
<path fill="none" stroke="black" d="M828.644,-647.697C828.644,-639.983 828.644,-630.712 828.644,-622.112"/>
<polygon fill="black" stroke="black" points="832.144,-622.104 828.644,-612.104 825.144,-622.104 832.144,-622.104"/>
</g>
<!-- types/coproduct -->
<g id="node10" class="node"><title>types/coproduct</title>
<ellipse fill="none" stroke="black" cx="485.644" cy="-522" rx="70.6878" ry="18"/>
<text text-anchor="middle" x="485.644" y="-518.3" font-family="Times New Roman,serif" font-size="14.00">types/coproduct</text>
</g>
<!-- types/equiv&#45;&gt;types/coproduct -->
<g id="edge12" class="edge"><title>types/equiv&#45;&gt;types/coproduct</title>
<path fill="none" stroke="black" d="M784.408,-584.233C732.121,-573.837 642.498,-555.909 565.644,-540 559.943,-538.82 554.017,-537.582 548.083,-536.334"/>
<polygon fill="black" stroke="black" points="548.635,-532.874 538.128,-534.235 547.19,-539.723 548.635,-532.874"/>
</g>
<!-- types/heq -->
<g id="node14" class="node"><title>types/heq</title>
<ellipse fill="none" stroke="black" cx="1008.64" cy="-522" rx="46.2923" ry="18"/>
<text text-anchor="middle" x="1008.64" y="-518.3" font-family="Times New Roman,serif" font-size="14.00">types/heq</text>
</g>
<!-- types/equiv&#45;&gt;types/heq -->
<g id="edge13" class="edge"><title>types/equiv&#45;&gt;types/heq</title>
<path fill="none" stroke="black" d="M862.079,-579.998C891.932,-568.388 935.747,-551.349 967.693,-538.926"/>
<polygon fill="black" stroke="black" points="969.146,-542.116 977.197,-535.229 966.609,-535.592 969.146,-542.116"/>
</g>
<!-- HITs/infinitesimal -->
<g id="node15" class="node"><title>HITs/infinitesimal</title>
<ellipse fill="none" stroke="black" cx="759.644" cy="-522" rx="74.9875" ry="18"/>
<text text-anchor="middle" x="759.644" y="-518.3" font-family="Times New Roman,serif" font-size="14.00">HITs/infinitesimal</text>
</g>
<!-- types/equiv&#45;&gt;HITs/infinitesimal -->
<g id="edge14" class="edge"><title>types/equiv&#45;&gt;HITs/infinitesimal</title>
<path fill="none" stroke="black" d="M812.641,-576.765C803.885,-567.882 792.872,-556.709 783.157,-546.854"/>
<polygon fill="black" stroke="black" points="785.553,-544.298 776.04,-539.633 780.567,-549.212 785.553,-544.298"/>
</g>
<!-- types/lost -->
<g id="node16" class="node"><title>types/lost</title>
<ellipse fill="none" stroke="black" cx="898.644" cy="-522" rx="46.2923" ry="18"/>
<text text-anchor="middle" x="898.644" y="-518.3" font-family="Times New Roman,serif" font-size="14.00">types/lost</text>
</g>
<!-- types/equiv&#45;&gt;types/lost -->
<g id="edge15" class="edge"><title>types/equiv&#45;&gt;types/lost</title>
<path fill="none" stroke="black" d="M844.88,-576.765C853.891,-567.753 865.259,-556.385 875.218,-546.426"/>
<polygon fill="black" stroke="black" points="877.901,-548.693 882.497,-539.147 872.951,-543.744 877.901,-548.693"/>
</g>
<!-- types/unit -->
<g id="node17" class="node"><title>types/unit</title>
<ellipse fill="none" stroke="black" cx="620.644" cy="-522" rx="46.2923" ry="18"/>
<text text-anchor="middle" x="620.644" y="-518.3" font-family="Times New Roman,serif" font-size="14.00">types/unit</text>
</g>
<!-- types/equiv&#45;&gt;types/unit -->
<g id="edge16" class="edge"><title>types/equiv&#45;&gt;types/unit</title>
<path fill="none" stroke="black" d="M792.413,-580.807C756.727,-568.797 702.185,-550.441 664.166,-537.647"/>
<polygon fill="black" stroke="black" points="664.99,-534.231 654.395,-534.359 662.757,-540.865 664.99,-534.231"/>
</g>
<!-- types/sigma -->
<g id="node18" class="node"><title>types/sigma</title>
<ellipse fill="none" stroke="black" cx="1090.64" cy="-306" rx="53.8905" ry="18"/>
<text text-anchor="middle" x="1090.64" y="-302.3" font-family="Times New Roman,serif" font-size="14.00">types/sigma</text>
</g>
<!-- types/equiv&#45;&gt;types/sigma -->
<g id="edge17" class="edge"><title>types/equiv&#45;&gt;types/sigma</title>
<path fill="none" stroke="black" d="M878.309,-588.471C939.784,-581.778 1039.36,-567.023 1063.64,-540 1115.4,-482.42 1105.17,-381.855 1096.48,-333.909"/>
<polygon fill="black" stroke="black" points="1099.9,-333.13 1094.56,-323.975 1093.02,-334.457 1099.9,-333.13"/>
</g>
<!-- structures -->
<g id="node6" class="node"><title>structures</title>
<ellipse fill="none" stroke="black" cx="884.644" cy="-450" rx="46.2923" ry="18"/>
<text text-anchor="middle" x="884.644" y="-446.3" font-family="Times New Roman,serif" font-size="14.00">structures</text>
</g>
<!-- HITs/interval -->
<g id="node7" class="node"><title>HITs/interval</title>
<ellipse fill="none" stroke="black" cx="1008.64" cy="-378" rx="57.6901" ry="18"/>
<text text-anchor="middle" x="1008.64" y="-374.3" font-family="Times New Roman,serif" font-size="14.00">HITs/interval</text>
</g>
<!-- structures&#45;&gt;HITs/interval -->
<g id="edge4" class="edge"><title>structures&#45;&gt;HITs/interval</title>
<path fill="none" stroke="black" d="M909.737,-434.834C927.903,-424.58 952.714,-410.574 972.941,-399.155"/>
<polygon fill="black" stroke="black" points="974.884,-402.077 981.872,-394.114 971.443,-395.982 974.884,-402.077"/>
</g>
<!-- HITs/truncation -->
<g id="node8" class="node"><title>HITs/truncation</title>
<ellipse fill="none" stroke="black" cx="651.644" cy="-306" rx="68.4888" ry="18"/>
<text text-anchor="middle" x="651.644" y="-302.3" font-family="Times New Roman,serif" font-size="14.00">HITs/truncation</text>
</g>
<!-- structures&#45;&gt;HITs/truncation -->
<g id="edge5" class="edge"><title>structures&#45;&gt;HITs/truncation</title>
<path fill="none" stroke="black" d="M885.987,-431.797C886.548,-411.826 884.216,-379.185 865.644,-360 855.027,-349.033 774.547,-331.154 715.394,-319.236"/>
<polygon fill="black" stroke="black" points="715.852,-315.758 705.36,-317.23 714.48,-322.622 715.852,-315.758"/>
</g>
<!-- types/nat -->
<g id="node9" class="node"><title>types/nat</title>
<ellipse fill="none" stroke="black" cx="936.644" cy="-306" rx="43.5923" ry="18"/>
<text text-anchor="middle" x="936.644" y="-302.3" font-family="Times New Roman,serif" font-size="14.00">types/nat</text>
</g>
<!-- structures&#45;&gt;types/nat -->
<g id="edge6" class="edge"><title>structures&#45;&gt;types/nat</title>
<path fill="none" stroke="black" d="M890.813,-432.153C899.766,-407.706 916.441,-362.171 927.018,-333.286"/>
<polygon fill="black" stroke="black" points="930.331,-334.419 930.483,-323.825 923.758,-332.012 930.331,-334.419"/>
</g>
<!-- types/product -->
<g id="node23" class="node"><title>types/product</title>
<ellipse fill="none" stroke="black" cx="813.644" cy="-306" rx="61.99" ry="18"/>
<text text-anchor="middle" x="813.644" y="-302.3" font-family="Times New Roman,serif" font-size="14.00">types/product</text>
</g>
<!-- HITs/interval&#45;&gt;types/product -->
<g id="edge41" class="edge"><title>HITs/interval&#45;&gt;types/product</title>
<path fill="none" stroke="black" d="M971.966,-363.834C940.537,-352.551 895.068,-336.229 860.913,-323.968"/>
<polygon fill="black" stroke="black" points="861.748,-320.55 851.154,-320.465 859.383,-327.138 861.748,-320.55"/>
</g>
<!-- theorems/fibration -->
<g id="node26" class="node"><title>theorems/fibration</title>
<ellipse fill="none" stroke="black" cx="1277.64" cy="-234" rx="76.8869" ry="18"/>
<text text-anchor="middle" x="1277.64" y="-230.3" font-family="Times New Roman,serif" font-size="14.00">theorems/fibration</text>
</g>
<!-- HITs/interval&#45;&gt;theorems/fibration -->
<g id="edge42" class="edge"><title>HITs/interval&#45;&gt;theorems/fibration</title>
<path fill="none" stroke="black" d="M1058.84,-368.804C1096.02,-361.18 1146.9,-347.382 1186.64,-324 1215.1,-307.256 1241.34,-279.74 1258.25,-259.729"/>
<polygon fill="black" stroke="black" points="1261.02,-261.872 1264.7,-251.934 1255.63,-257.413 1261.02,-261.872"/>
</g>
<!-- theorems/prop -->
<g id="node27" class="node"><title>theorems/prop</title>
<ellipse fill="none" stroke="black" cx="1042.64" cy="-234" rx="63.8893" ry="18"/>
<text text-anchor="middle" x="1042.64" y="-230.3" font-family="Times New Roman,serif" font-size="14.00">theorems/prop</text>
</g>
<!-- HITs/interval&#45;&gt;theorems/prop -->
<g id="edge43" class="edge"><title>HITs/interval&#45;&gt;theorems/prop</title>
<path fill="none" stroke="black" d="M1011.96,-359.862C1015.51,-341.884 1021.48,-312.843 1027.64,-288 1029.77,-279.422 1032.32,-270.129 1034.7,-261.757"/>
<polygon fill="black" stroke="black" points="1038.08,-262.689 1037.49,-252.11 1031.35,-260.743 1038.08,-262.689"/>
</g>
<!-- HITs/reals -->
<g id="node31" class="node"><title>HITs/reals</title>
<ellipse fill="none" stroke="black" cx="365.644" cy="-18" rx="48.9926" ry="18"/>
<text text-anchor="middle" x="365.644" y="-14.3" font-family="Times New Roman,serif" font-size="14.00">HITs/reals</text>
</g>
<!-- HITs/interval&#45;&gt;HITs/reals -->
<g id="edge44" class="edge"><title>HITs/interval&#45;&gt;HITs/reals</title>
<path fill="none" stroke="black" d="M1061.41,-370.539C1092.61,-363.963 1130.44,-350.707 1153.64,-324 1180.17,-293.468 1172.64,-275.447 1172.64,-235 1172.64,-235 1172.64,-235 1172.64,-161 1172.64,-74.533 1082.76,-95.8351 999.644,-72 892.415,-41.2503 559.703,-26.0297 424.082,-20.9758"/>
<polygon fill="black" stroke="black" points="424.013,-17.471 413.892,-20.6015 423.756,-24.4663 424.013,-17.471"/>
</g>
<!-- HITs/truncation&#45;&gt;theorems/prop -->
<g id="edge48" class="edge"><title>HITs/truncation&#45;&gt;theorems/prop</title>
<path fill="none" stroke="black" d="M705.521,-294.845C717.724,-292.57 730.626,-290.184 742.644,-288 824.425,-273.137 918.857,-256.549 979.587,-245.955"/>
<polygon fill="black" stroke="black" points="980.529,-249.343 989.779,-244.178 979.326,-242.447 980.529,-249.343"/>
</g>
<!-- HITs/simplicial -->
<g id="node37" class="node"><title>HITs/simplicial</title>
<ellipse fill="none" stroke="black" cx="360.644" cy="-234" rx="65.7887" ry="18"/>
<text text-anchor="middle" x="360.644" y="-230.3" font-family="Times New Roman,serif" font-size="14.00">HITs/simplicial</text>
</g>
<!-- HITs/truncation&#45;&gt;HITs/simplicial -->
<g id="edge49" class="edge"><title>HITs/truncation&#45;&gt;HITs/simplicial</title>
<path fill="none" stroke="black" d="M602.937,-293.284C552.063,-281.046 472.295,-261.858 418.309,-248.871"/>
<polygon fill="black" stroke="black" points="419.083,-245.458 408.542,-246.522 417.446,-252.263 419.083,-245.458"/>
</g>
<!-- theorems/mere_eq_lemma -->
<g id="node38" class="node"><title>theorems/mere_eq_lemma</title>
<ellipse fill="none" stroke="black" cx="550.644" cy="-234" rx="105.881" ry="18"/>
<text text-anchor="middle" x="550.644" y="-230.3" font-family="Times New Roman,serif" font-size="14.00">theorems/mere_eq_lemma</text>
</g>
<!-- HITs/truncation&#45;&gt;theorems/mere_eq_lemma -->
<g id="edge50" class="edge"><title>HITs/truncation&#45;&gt;theorems/mere_eq_lemma</title>
<path fill="none" stroke="black" d="M628.473,-288.941C615.036,-279.628 597.905,-267.755 583.138,-257.52"/>
<polygon fill="black" stroke="black" points="584.975,-254.535 574.762,-251.715 580.987,-260.288 584.975,-254.535"/>
</g>
<!-- theorems/nat -->
<g id="node22" class="node"><title>theorems/nat</title>
<ellipse fill="none" stroke="black" cx="949.644" cy="-162" rx="57.3905" ry="18"/>
<text text-anchor="middle" x="949.644" y="-158.3" font-family="Times New Roman,serif" font-size="14.00">theorems/nat</text>
</g>
<!-- types/nat&#45;&gt;theorems/nat -->
<g id="edge22" class="edge"><title>types/nat&#45;&gt;theorems/nat</title>
<path fill="none" stroke="black" d="M938.212,-287.871C940.428,-263.67 944.498,-219.211 947.136,-190.393"/>
<polygon fill="black" stroke="black" points="950.644,-190.467 948.071,-180.189 943.673,-189.829 950.644,-190.467"/>
</g>
<!-- types/coproduct&#45;&gt;structures -->
<g id="edge7" class="edge"><title>types/coproduct&#45;&gt;structures</title>
<path fill="none" stroke="black" d="M537.647,-509.597C546.955,-507.657 556.576,-505.716 565.644,-504 659.308,-486.277 769.06,-468.748 832.353,-458.953"/>
<polygon fill="black" stroke="black" points="833.132,-462.374 842.481,-457.39 832.064,-455.456 833.132,-462.374"/>
</g>
<!-- types/integer -->
<g id="node11" class="node"><title>types/integer</title>
<ellipse fill="none" stroke="black" cx="119.644" cy="-450" rx="56.59" ry="18"/>
<text text-anchor="middle" x="119.644" y="-446.3" font-family="Times New Roman,serif" font-size="14.00">types/integer</text>
</g>
<!-- types/coproduct&#45;&gt;types/integer -->
<g id="edge8" class="edge"><title>types/coproduct&#45;&gt;types/integer</title>
<path fill="none" stroke="black" d="M427.52,-511.567C367.885,-501.653 272.516,-485.141 190.644,-468 184.843,-466.785 178.791,-465.447 172.775,-464.071"/>
<polygon fill="black" stroke="black" points="173.267,-460.592 162.734,-461.735 171.68,-467.41 173.267,-460.592"/>
</g>
<!-- HITs/circle -->
<g id="node20" class="node"><title>HITs/circle</title>
<ellipse fill="none" stroke="black" cx="359.644" cy="-90" rx="51.9908" ry="18"/>
<text text-anchor="middle" x="359.644" y="-86.3" font-family="Times New Roman,serif" font-size="14.00">HITs/circle</text>
</g>
<!-- types/integer&#45;&gt;HITs/circle -->
<g id="edge20" class="edge"><title>types/integer&#45;&gt;HITs/circle</title>
<path fill="none" stroke="black" d="M127.03,-431.841C148.453,-383.265 214.35,-241.979 296.644,-144 306.167,-132.662 318.299,-121.821 329.37,-112.932"/>
<polygon fill="black" stroke="black" points="331.834,-115.448 337.567,-106.539 327.529,-109.928 331.834,-115.448"/>
</g>
<!-- types/rational -->
<g id="node21" class="node"><title>types/rational</title>
<ellipse fill="none" stroke="black" cx="73.6442" cy="-378" rx="59.2899" ry="18"/>
<text text-anchor="middle" x="73.6442" y="-374.3" font-family="Times New Roman,serif" font-size="14.00">types/rational</text>
</g>
<!-- types/integer&#45;&gt;types/rational -->
<g id="edge21" class="edge"><title>types/integer&#45;&gt;types/rational</title>
<path fill="none" stroke="black" d="M108.509,-432.055C103.028,-423.715 96.3095,-413.491 90.2382,-404.252"/>
<polygon fill="black" stroke="black" points="93.0937,-402.224 84.6769,-395.789 87.2438,-406.068 93.0937,-402.224"/>
</g>
<!-- types/dedekind -->
<g id="node12" class="node"><title>types/dedekind</title>
<ellipse fill="none" stroke="black" cx="65.6442" cy="-306" rx="65.7887" ry="18"/>
<text text-anchor="middle" x="65.6442" y="-302.3" font-family="Times New Roman,serif" font-size="14.00">types/dedekind</text>
</g>
<!-- types/dep_path&#45;&gt;types/equiv -->
<g id="edge9" class="edge"><title>types/dep_path&#45;&gt;types/equiv</title>
<path fill="none" stroke="black" d="M732.164,-649.465C750.273,-639.242 774.136,-625.771 793.599,-614.783"/>
<polygon fill="black" stroke="black" points="795.487,-617.737 802.475,-609.773 792.046,-611.641 795.487,-617.737"/>
</g>
<!-- types/heq&#45;&gt;HITs/interval -->
<g id="edge18" class="edge"><title>types/heq&#45;&gt;HITs/interval</title>
<path fill="none" stroke="black" d="M1008.64,-503.871C1008.64,-479.67 1008.64,-435.211 1008.64,-406.393"/>
<polygon fill="black" stroke="black" points="1012.14,-406.189 1008.64,-396.189 1005.14,-406.189 1012.14,-406.189"/>
</g>
<!-- HITs/graph -->
<g id="node19" class="node"><title>HITs/graph</title>
<ellipse fill="none" stroke="black" cx="562.644" cy="-450" rx="52.7911" ry="18"/>
<text text-anchor="middle" x="562.644" y="-446.3" font-family="Times New Roman,serif" font-size="14.00">HITs/graph</text>
</g>
<!-- types/heq&#45;&gt;HITs/graph -->
<g id="edge19" class="edge"><title>types/heq&#45;&gt;HITs/graph</title>
<path fill="none" stroke="black" d="M974.845,-509.594C967.89,-507.518 960.573,-505.53 953.644,-504 838.091,-478.493 700.45,-463.277 623.145,-456.078"/>
<polygon fill="black" stroke="black" points="623.383,-452.585 613.105,-455.156 622.743,-459.555 623.383,-452.585"/>
</g>
<!-- types/unit&#45;&gt;structures -->
<g id="edge29" class="edge"><title>types/unit&#45;&gt;structures</title>
<path fill="none" stroke="black" d="M655.184,-510.027C661.95,-507.962 669.005,-505.866 675.644,-504 730.524,-488.571 794.072,-472.743 836.554,-462.451"/>
<polygon fill="black" stroke="black" points="837.451,-465.835 846.35,-460.085 835.808,-459.03 837.451,-465.835"/>
</g>
<!-- HITs/suspension -->
<g id="node28" class="node"><title>HITs/suspension</title>
<ellipse fill="none" stroke="black" cx="298.644" cy="-306" rx="72.5877" ry="18"/>
<text text-anchor="middle" x="298.644" y="-302.3" font-family="Times New Roman,serif" font-size="14.00">HITs/suspension</text>
</g>
<!-- types/unit&#45;&gt;HITs/suspension -->
<g id="edge30" class="edge"><title>types/unit&#45;&gt;HITs/suspension</title>
<path fill="none" stroke="black" d="M585.715,-510.041C497.401,-482.175 271.477,-409.835 261.644,-396 247.627,-376.277 261.25,-350.439 275.76,-331.687"/>
<polygon fill="black" stroke="black" points="278.537,-333.821 282.174,-323.87 273.125,-329.381 278.537,-333.821"/>
</g>
<!-- types/sigma&#45;&gt;theorems/nat -->
<g id="edge26" class="edge"><title>types/sigma&#45;&gt;theorems/nat</title>
<path fill="none" stroke="black" d="M1103.11,-288.399C1115.81,-269.298 1131.55,-237.773 1115.64,-216 1093.07,-185.094 1052.27,-171.791 1016.76,-166.24"/>
<polygon fill="black" stroke="black" points="1016.81,-162.714 1006.43,-164.814 1015.86,-169.648 1016.81,-162.714"/>
</g>
<!-- types/sigma&#45;&gt;theorems/fibration -->
<g id="edge27" class="edge"><title>types/sigma&#45;&gt;theorems/fibration</title>
<path fill="none" stroke="black" d="M1125.38,-291.998C1154.48,-281.105 1196.35,-265.432 1228.82,-253.277"/>
<polygon fill="black" stroke="black" points="1230.43,-256.41 1238.57,-249.626 1227.98,-249.854 1230.43,-256.41"/>
</g>
<!-- types/sigma&#45;&gt;theorems/prop -->
<g id="edge28" class="edge"><title>types/sigma&#45;&gt;theorems/prop</title>
<path fill="none" stroke="black" d="M1079.02,-288.055C1073.31,-279.715 1066.29,-269.491 1059.96,-260.252"/>
<polygon fill="black" stroke="black" points="1062.7,-258.057 1054.16,-251.789 1056.93,-262.016 1062.7,-258.057"/>
</g>
<!-- HITs/moebius -->
<g id="node30" class="node"><title>HITs/moebius</title>
<ellipse fill="none" stroke="black" cx="235.644" cy="-18" rx="63.0888" ry="18"/>
<text text-anchor="middle" x="235.644" y="-14.3" font-family="Times New Roman,serif" font-size="14.00">HITs/moebius</text>
</g>
<!-- HITs/graph&#45;&gt;HITs/moebius -->
<g id="edge36" class="edge"><title>HITs/graph&#45;&gt;HITs/moebius</title>
<path fill="none" stroke="black" d="M511.789,-445.011C436.972,-438.323 301.761,-422.872 261.644,-396 191.266,-348.859 159.644,-319.707 159.644,-235 159.644,-235 159.644,-235 159.644,-161 159.644,-120.254 161.45,-107.39 181.644,-72 188.053,-60.769 197.517,-50.3387 206.74,-41.754"/>
<polygon fill="black" stroke="black" points="209.197,-44.2529 214.357,-34.9997 204.553,-39.0152 209.197,-44.2529"/>
</g>
<!-- HITs/colimit -->
<g id="node32" class="node"><title>HITs/colimit</title>
<ellipse fill="none" stroke="black" cx="637.644" cy="-378" rx="56.59" ry="18"/>
<text text-anchor="middle" x="637.644" y="-374.3" font-family="Times New Roman,serif" font-size="14.00">HITs/colimit</text>
</g>
<!-- HITs/graph&#45;&gt;HITs/colimit -->
<g id="edge37" class="edge"><title>HITs/graph&#45;&gt;HITs/colimit</title>
<path fill="none" stroke="black" d="M580.039,-432.765C589.789,-423.665 602.113,-412.162 612.858,-402.134"/>
<polygon fill="black" stroke="black" points="615.421,-404.529 620.343,-395.147 610.645,-399.412 615.421,-404.529"/>
</g>
<!-- HITs/generalized -->
<g id="node33" class="node"><title>HITs/generalized</title>
<ellipse fill="none" stroke="black" cx="784.644" cy="-378" rx="72.2875" ry="18"/>
<text text-anchor="middle" x="784.644" y="-374.3" font-family="Times New Roman,serif" font-size="14.00">HITs/generalized</text>
</g>
<!-- HITs/graph&#45;&gt;HITs/generalized -->
<g id="edge38" class="edge"><title>HITs/graph&#45;&gt;HITs/generalized</title>
<path fill="none" stroke="black" d="M600.052,-437.205C636.241,-425.794 691.422,-408.394 732.03,-395.59"/>
<polygon fill="black" stroke="black" points="733.274,-398.868 741.759,-392.522 731.169,-392.192 733.274,-398.868"/>
</g>
<!-- HITs/pushout -->
<g id="node34" class="node"><title>HITs/pushout</title>
<ellipse fill="none" stroke="black" cx="332.644" cy="-378" rx="61.99" ry="18"/>
<text text-anchor="middle" x="332.644" y="-374.3" font-family="Times New Roman,serif" font-size="14.00">HITs/pushout</text>
</g>
<!-- HITs/graph&#45;&gt;HITs/pushout -->
<g id="edge39" class="edge"><title>HITs/graph&#45;&gt;HITs/pushout</title>
<path fill="none" stroke="black" d="M524.664,-437.441C486.076,-425.697 426.074,-407.435 383.421,-394.454"/>
<polygon fill="black" stroke="black" points="384.374,-391.085 373.788,-391.522 382.336,-397.782 384.374,-391.085"/>
</g>
<!-- types/precategory -->
<g id="node35" class="node"><title>types/precategory</title>
<ellipse fill="none" stroke="black" cx="487.644" cy="-378" rx="75.2868" ry="18"/>
<text text-anchor="middle" x="487.644" y="-374.3" font-family="Times New Roman,serif" font-size="14.00">types/precategory</text>
</g>
<!-- HITs/graph&#45;&gt;types/precategory -->
<g id="edge40" class="edge"><title>HITs/graph&#45;&gt;types/precategory</title>
<path fill="none" stroke="black" d="M545.249,-432.765C535.638,-423.795 523.527,-412.49 512.892,-402.564"/>
<polygon fill="black" stroke="black" points="515.164,-399.898 505.466,-395.633 510.388,-405.015 515.164,-399.898"/>
</g>
<!-- theorems/hopf -->
<g id="node29" class="node"><title>theorems/hopf</title>
<ellipse fill="none" stroke="black" cx="872.644" cy="-18" rx="63.8893" ry="18"/>
<text text-anchor="middle" x="872.644" y="-14.3" font-family="Times New Roman,serif" font-size="14.00">theorems/hopf</text>
</g>
<!-- HITs/circle&#45;&gt;theorems/hopf -->
<g id="edge31" class="edge"><title>HITs/circle&#45;&gt;theorems/hopf</title>
<path fill="none" stroke="black" d="M398.084,-77.6702C406.147,-75.5638 414.635,-73.5437 422.644,-72 555.407,-46.4119 712.743,-31.2925 801.811,-24.1188"/>
<polygon fill="black" stroke="black" points="802.108,-27.6063 811.799,-23.3246 801.553,-20.6283 802.108,-27.6063"/>
</g>
<!-- HITs/circle&#45;&gt;HITs/moebius -->
<g id="edge32" class="edge"><title>HITs/circle&#45;&gt;HITs/moebius</title>
<path fill="none" stroke="black" d="M333.65,-74.3257C315.667,-64.1741 291.5,-50.5313 271.664,-39.3336"/>
<polygon fill="black" stroke="black" points="273.321,-36.2502 262.892,-34.3821 269.88,-42.346 273.321,-36.2502"/>
</g>
<!-- HITs/circle&#45;&gt;HITs/reals -->
<g id="edge33" class="edge"><title>HITs/circle&#45;&gt;HITs/reals</title>
<path fill="none" stroke="black" d="M361.127,-71.6966C361.789,-63.9827 362.583,-54.7125 363.32,-46.1124"/>
<polygon fill="black" stroke="black" points="366.811,-46.3667 364.178,-36.1043 359.837,-45.7689 366.811,-46.3667"/>
</g>
<!-- types/rational&#45;&gt;types/dedekind -->
<g id="edge25" class="edge"><title>types/rational&#45;&gt;types/dedekind</title>
<path fill="none" stroke="black" d="M71.6666,-359.697C70.7851,-351.983 69.7256,-342.712 68.7427,-334.112"/>
<polygon fill="black" stroke="black" points="72.2119,-333.642 67.599,-324.104 65.2571,-334.437 72.2119,-333.642"/>
</g>
<!-- theorems/nat&#45;&gt;HITs/circle -->
<g id="edge59" class="edge"><title>theorems/nat&#45;&gt;HITs/circle</title>
<path fill="none" stroke="black" d="M894.974,-156.643C779.141,-147.224 512.29,-124.489 422.644,-108 417.688,-107.088 412.552,-105.98 407.448,-104.771"/>
<polygon fill="black" stroke="black" points="408.278,-101.371 397.729,-102.348 406.585,-108.163 408.278,-101.371"/>
</g>
<!-- HITs/int -->
<g id="node45" class="node"><title>HITs/int</title>
<ellipse fill="none" stroke="black" cx="949.644" cy="-90" rx="40.8928" ry="18"/>
<text text-anchor="middle" x="949.644" y="-86.3" font-family="Times New Roman,serif" font-size="14.00">HITs/int</text>
</g>
<!-- theorems/nat&#45;&gt;HITs/int -->
<g id="edge60" class="edge"><title>theorems/nat&#45;&gt;HITs/int</title>
<path fill="none" stroke="black" d="M949.644,-143.697C949.644,-135.983 949.644,-126.712 949.644,-118.112"/>
<polygon fill="black" stroke="black" points="953.144,-118.104 949.644,-108.104 946.144,-118.104 953.144,-118.104"/>
</g>
<!-- cubical/cubes -->
<g id="node24" class="node"><title>cubical/cubes</title>
<ellipse fill="none" stroke="black" cx="734.644" cy="-234" rx="60.3893" ry="18"/>
<text text-anchor="middle" x="734.644" y="-230.3" font-family="Times New Roman,serif" font-size="14.00">cubical/cubes</text>
</g>
<!-- types/product&#45;&gt;cubical/cubes -->
<g id="edge23" class="edge"><title>types/product&#45;&gt;cubical/cubes</title>
<path fill="none" stroke="black" d="M795.321,-288.765C785.026,-279.642 772.005,-268.105 760.667,-258.059"/>
<polygon fill="black" stroke="black" points="762.947,-255.402 753.141,-251.39 758.305,-260.641 762.947,-255.402"/>
</g>
<!-- theorems/ua -->
<g id="node25" class="node"><title>theorems/ua</title>
<ellipse fill="none" stroke="black" cx="867.644" cy="-234" rx="54.6905" ry="18"/>
<text text-anchor="middle" x="867.644" y="-230.3" font-family="Times New Roman,serif" font-size="14.00">theorems/ua</text>
</g>
<!-- types/product&#45;&gt;theorems/ua -->
<g id="edge24" class="edge"><title>types/product&#45;&gt;theorems/ua</title>
<path fill="none" stroke="black" d="M826.716,-288.055C833.216,-279.629 841.2,-269.28 848.384,-259.966"/>
<polygon fill="black" stroke="black" points="851.356,-261.845 854.693,-251.789 845.813,-257.569 851.356,-261.845"/>
</g>
<!-- cubical/path -->
<g id="node40" class="node"><title>cubical/path</title>
<ellipse fill="none" stroke="black" cx="654.644" cy="-162" rx="54.6905" ry="18"/>
<text text-anchor="middle" x="654.644" y="-158.3" font-family="Times New Roman,serif" font-size="14.00">cubical/path</text>
</g>
<!-- cubical/cubes&#45;&gt;cubical/path -->
<g id="edge51" class="edge"><title>cubical/cubes&#45;&gt;cubical/path</title>
<path fill="none" stroke="black" d="M716.089,-216.765C705.589,-207.576 692.288,-195.938 680.749,-185.842"/>
<polygon fill="black" stroke="black" points="682.929,-183.098 673.098,-179.147 678.319,-188.366 682.929,-183.098"/>
</g>
<!-- theorems/ua&#45;&gt;theorems/nat -->
<g id="edge61" class="edge"><title>theorems/ua&#45;&gt;theorems/nat</title>
<path fill="none" stroke="black" d="M886.663,-216.765C897.426,-207.576 911.059,-195.938 922.887,-185.842"/>
<polygon fill="black" stroke="black" points="925.396,-188.302 930.729,-179.147 920.851,-182.978 925.396,-188.302"/>
</g>
<!-- cubical/V -->
<g id="node43" class="node"><title>cubical/V</title>
<ellipse fill="none" stroke="black" cx="235.644" cy="-90" rx="45.4919" ry="18"/>
<text text-anchor="middle" x="235.644" y="-86.3" font-family="Times New Roman,serif" font-size="14.00">cubical/V</text>
</g>
<!-- theorems/ua&#45;&gt;cubical/V -->
<g id="edge62" class="edge"><title>theorems/ua&#45;&gt;cubical/V</title>
<path fill="none" stroke="black" d="M827.496,-221.73C819.619,-219.691 811.397,-217.681 803.644,-216 709.815,-195.655 684.651,-199.506 590.644,-180 459.767,-152.844 428.065,-141.413 298.644,-108 293.228,-106.602 287.558,-105.11 281.933,-103.614"/>
<polygon fill="black" stroke="black" points="282.486,-100.139 271.921,-100.934 280.676,-106.901 282.486,-100.139"/>
</g>
<!-- theorems/fibration&#45;&gt;theorems/hopf -->
<g id="edge57" class="edge"><title>theorems/fibration&#45;&gt;theorems/hopf</title>
<path fill="none" stroke="black" d="M1273.26,-215.799C1263.74,-182.169 1237.77,-107.866 1186.64,-72 1148.45,-45.2047 1024.13,-30.7038 943.852,-23.9332"/>
<polygon fill="black" stroke="black" points="944.057,-20.4383 933.803,-23.1065 943.483,-27.4147 944.057,-20.4383"/>
</g>
<!-- HITs/suspension&#45;&gt;HITs/circle -->
<g id="edge47" class="edge"><title>HITs/suspension&#45;&gt;HITs/circle</title>
<path fill="none" stroke="black" d="M292.082,-288.017C286.031,-269.918 278.922,-240.549 285.644,-216 296.084,-177.873 321.483,-139.572 339.608,-115.604"/>
<polygon fill="black" stroke="black" points="342.566,-117.501 345.915,-107.45 337.028,-113.218 342.566,-117.501"/>
</g>
<!-- HITs/colimit&#45;&gt;HITs/truncation -->
<g id="edge34" class="edge"><title>HITs/colimit&#45;&gt;HITs/truncation</title>
<path fill="none" stroke="black" d="M641.105,-359.697C642.648,-351.983 644.502,-342.712 646.222,-334.112"/>
<polygon fill="black" stroke="black" points="649.694,-334.597 648.223,-324.104 642.83,-333.224 649.694,-334.597"/>
</g>
<!-- HITs/generalized&#45;&gt;HITs/truncation -->
<g id="edge35" class="edge"><title>HITs/generalized&#45;&gt;HITs/truncation</title>
<path fill="none" stroke="black" d="M755.127,-361.465C735.928,-351.36 710.698,-338.081 689.957,-327.165"/>
<polygon fill="black" stroke="black" points="691.558,-324.052 681.079,-322.492 688.298,-330.247 691.558,-324.052"/>
</g>
<!-- HITs/pushout&#45;&gt;HITs/suspension -->
<g id="edge45" class="edge"><title>HITs/pushout&#45;&gt;HITs/suspension</title>
<path fill="none" stroke="black" d="M324.414,-360.055C320.546,-352.091 315.844,-342.411 311.52,-333.51"/>
<polygon fill="black" stroke="black" points="314.552,-331.741 307.035,-324.275 308.256,-334.8 314.552,-331.741"/>
</g>
<!-- HITs/join -->
<g id="node36" class="node"><title>HITs/join</title>
<ellipse fill="none" stroke="black" cx="434.644" cy="-306" rx="45.4919" ry="18"/>
<text text-anchor="middle" x="434.644" y="-302.3" font-family="Times New Roman,serif" font-size="14.00">HITs/join</text>
</g>
<!-- HITs/pushout&#45;&gt;HITs/join -->
<g id="edge46" class="edge"><title>HITs/pushout&#45;&gt;HITs/join</title>
<path fill="none" stroke="black" d="M355.79,-361.116C370.271,-351.178 389.075,-338.273 404.687,-327.559"/>
<polygon fill="black" stroke="black" points="406.721,-330.408 412.985,-321.864 402.76,-324.637 406.721,-330.408"/>
</g>
<!-- cubical/connection -->
<g id="node39" class="node"><title>cubical/connection</title>
<ellipse fill="none" stroke="black" cx="654.644" cy="-90" rx="79.0865" ry="18"/>
<text text-anchor="middle" x="654.644" y="-86.3" font-family="Times New Roman,serif" font-size="14.00">cubical/connection</text>
</g>
<!-- cubical/path&#45;&gt;cubical/connection -->
<g id="edge52" class="edge"><title>cubical/path&#45;&gt;cubical/connection</title>
<path fill="none" stroke="black" d="M654.644,-143.697C654.644,-135.983 654.644,-126.712 654.644,-118.112"/>
<polygon fill="black" stroke="black" points="658.144,-118.104 654.644,-108.104 651.144,-118.104 658.144,-118.104"/>
</g>
<!-- cubical/example -->
<g id="node41" class="node"><title>cubical/example</title>
<ellipse fill="none" stroke="black" cx="820.644" cy="-90" rx="68.7879" ry="18"/>
<text text-anchor="middle" x="820.644" y="-86.3" font-family="Times New Roman,serif" font-size="14.00">cubical/example</text>
</g>
<!-- cubical/path&#45;&gt;cubical/example -->
<g id="edge53" class="edge"><title>cubical/path&#45;&gt;cubical/example</title>
<path fill="none" stroke="black" d="M687.045,-147.337C712.645,-136.542 748.632,-121.367 776.807,-109.486"/>
<polygon fill="black" stroke="black" points="778.182,-112.704 786.036,-105.594 775.462,-106.254 778.182,-112.704"/>
</g>
<!-- cubical/square -->
<g id="node42" class="node"><title>cubical/square</title>
<ellipse fill="none" stroke="black" cx="494.644" cy="-90" rx="63.0888" ry="18"/>
<text text-anchor="middle" x="494.644" y="-86.3" font-family="Times New Roman,serif" font-size="14.00">cubical/square</text>
</g>
<!-- cubical/path&#45;&gt;cubical/square -->
<g id="edge54" class="edge"><title>cubical/path&#45;&gt;cubical/square</title>
<path fill="none" stroke="black" d="M623.033,-147.17C598.349,-136.371 563.819,-121.264 536.785,-109.437"/>
<polygon fill="black" stroke="black" points="538.129,-106.204 527.564,-105.403 535.323,-112.617 538.129,-106.204"/>
</g>
<!-- cubical/path&#45;&gt;cubical/V -->
<g id="edge55" class="edge"><title>cubical/path&#45;&gt;cubical/V</title>
<path fill="none" stroke="black" d="M603.912,-155.323C534.56,-147.136 406.456,-130.492 298.644,-108 292.89,-106.799 286.879,-105.387 280.954,-103.898"/>
<polygon fill="black" stroke="black" points="281.68,-100.471 271.121,-101.344 279.92,-107.246 281.68,-100.471"/>
</g>
<!-- cubical/V&#45;&gt;HITs/moebius -->
<g id="edge56" class="edge"><title>cubical/V&#45;&gt;HITs/moebius</title>
<path fill="none" stroke="black" d="M235.644,-71.6966C235.644,-63.9827 235.644,-54.7125 235.644,-46.1124"/>
<polygon fill="black" stroke="black" points="239.144,-46.1043 235.644,-36.1043 232.144,-46.1044 239.144,-46.1043"/>
</g>
<!-- theorems/functions -->
<g id="node44" class="node"><title>theorems/functions</title>
<ellipse fill="none" stroke="black" cx="965.644" cy="-666" rx="79.8859" ry="18"/>
<text text-anchor="middle" x="965.644" y="-662.3" font-family="Times New Roman,serif" font-size="14.00">theorems/functions</text>
</g>
<!-- theorems/functions&#45;&gt;types/equiv -->
<g id="edge58" class="edge"><title>theorems/functions&#45;&gt;types/equiv</title>
<path fill="none" stroke="black" d="M934.899,-649.291C914.328,-638.78 887.151,-624.894 865.432,-613.797"/>
<polygon fill="black" stroke="black" points="866.991,-610.663 856.493,-609.229 863.806,-616.896 866.991,-610.663"/>
</g>
</g>
</svg>
