<?xml version="1.0" encoding="UTF-8" standalone="no"?>
<!DOCTYPE svg PUBLIC "-//W3C//DTD SVG 1.1//EN"
 "http://www.w3.org/Graphics/SVG/1.1/DTD/svg11.dtd">
<!-- Generated by graphviz version 2.38.0 (20140413.2041)
 -->
<!-- Title: dependency_map Pages: 1 -->
<svg width="1492pt" height="836pt"
 viewBox="0.00 0.00 1491.79 836.00" xmlns="http://www.w3.org/2000/svg" xmlns:xlink="http://www.w3.org/1999/xlink">
<g id="graph0" class="graph" transform="scale(1 1) rotate(0) translate(4 832)">
<title>dependency_map</title>
<polygon fill="white" stroke="none" points="-4,4 -4,-832 1487.79,-832 1487.79,4 -4,4"/>
<!-- proto -->
<g id="node1" class="node"><title>proto</title>
<ellipse fill="none" stroke="black" cx="993.644" cy="-810" rx="30.5947" ry="18"/>
<text text-anchor="middle" x="993.644" y="-806.3" font-family="Times New Roman,serif" font-size="14.00">proto</text>
</g>
<!-- types/eq -->
<g id="node2" class="node"><title>types/eq</title>
<ellipse fill="none" stroke="black" cx="1053.64" cy="-738" rx="41.6928" ry="18"/>
<text text-anchor="middle" x="1053.64" y="-734.3" font-family="Times New Roman,serif" font-size="14.00">types/eq</text>
</g>
<!-- proto&#45;&gt;types/eq -->
<g id="edge1" class="edge"><title>proto&#45;&gt;types/eq</title>
<path fill="none" stroke="black" d="M1006.96,-793.465C1014.59,-784.566 1024.33,-773.205 1032.93,-763.164"/>
<polygon fill="black" stroke="black" points="1035.68,-765.338 1039.53,-755.467 1030.36,-760.782 1035.68,-765.338"/>
</g>
<!-- support -->
<g id="node4" class="node"><title>support</title>
<ellipse fill="none" stroke="black" cx="1115.64" cy="-666" rx="38.9931" ry="18"/>
<text text-anchor="middle" x="1115.64" y="-662.3" font-family="Times New Roman,serif" font-size="14.00">support</text>
</g>
<!-- types/eq&#45;&gt;support -->
<g id="edge10" class="edge"><title>types/eq&#45;&gt;support</title>
<path fill="none" stroke="black" d="M1068.02,-720.765C1075.93,-711.841 1085.88,-700.608 1094.64,-690.719"/>
<polygon fill="black" stroke="black" points="1097.33,-692.954 1101.34,-683.147 1092.09,-688.313 1097.33,-692.954"/>
</g>
<!-- types/dep_path -->
<g id="node13" class="node"><title>types/dep_path</title>
<ellipse fill="none" stroke="black" cx="991.644" cy="-666" rx="66.8882" ry="18"/>
<text text-anchor="middle" x="991.644" y="-662.3" font-family="Times New Roman,serif" font-size="14.00">types/dep_path</text>
</g>
<!-- types/eq&#45;&gt;types/dep_path -->
<g id="edge11" class="edge"><title>types/eq&#45;&gt;types/dep_path</title>
<path fill="none" stroke="black" d="M1039.26,-720.765C1031.47,-711.969 1021.69,-700.928 1013.03,-691.144"/>
<polygon fill="black" stroke="black" points="1015.63,-688.799 1006.38,-683.633 1010.39,-693.44 1015.63,-688.799"/>
</g>
<!-- meta/hott_theory -->
<g id="node3" class="node"><title>meta/hott_theory</title>
<ellipse fill="none" stroke="black" cx="1114.64" cy="-810" rx="72.2875" ry="18"/>
<text text-anchor="middle" x="1114.64" y="-806.3" font-family="Times New Roman,serif" font-size="14.00">meta/hott_theory</text>
</g>
<!-- meta/hott_theory&#45;&gt;types/eq -->
<g id="edge2" class="edge"><title>meta/hott_theory&#45;&gt;types/eq</title>
<path fill="none" stroke="black" d="M1099.88,-792.055C1092.27,-783.33 1082.88,-772.544 1074.54,-762.981"/>
<polygon fill="black" stroke="black" points="1077.06,-760.547 1067.85,-755.307 1071.79,-765.146 1077.06,-760.547"/>
</g>
<!-- types/equiv -->
<g id="node5" class="node"><title>types/equiv</title>
<ellipse fill="none" stroke="black" cx="1115.64" cy="-594" rx="51.9908" ry="18"/>
<text text-anchor="middle" x="1115.64" y="-590.3" font-family="Times New Roman,serif" font-size="14.00">types/equiv</text>
</g>
<!-- support&#45;&gt;types/equiv -->
<g id="edge3" class="edge"><title>support&#45;&gt;types/equiv</title>
<path fill="none" stroke="black" d="M1115.64,-647.697C1115.64,-639.983 1115.64,-630.712 1115.64,-622.112"/>
<polygon fill="black" stroke="black" points="1119.14,-622.104 1115.64,-612.104 1112.14,-622.104 1119.14,-622.104"/>
</g>
<!-- types/coproduct -->
<g id="node10" class="node"><title>types/coproduct</title>
<ellipse fill="none" stroke="black" cx="510.644" cy="-522" rx="70.6878" ry="18"/>
<text text-anchor="middle" x="510.644" y="-518.3" font-family="Times New Roman,serif" font-size="14.00">types/coproduct</text>
</g>
<!-- types/equiv&#45;&gt;types/coproduct -->
<g id="edge12" class="edge"><title>types/equiv&#45;&gt;types/coproduct</title>
<path fill="none" stroke="black" d="M1067.16,-587.39C961.337,-575.146 709.16,-545.969 583.875,-531.473"/>
<polygon fill="black" stroke="black" points="583.952,-527.959 573.616,-530.286 583.147,-534.912 583.952,-527.959"/>
</g>
<!-- types/heq -->
<g id="node14" class="node"><title>types/heq</title>
<ellipse fill="none" stroke="black" cx="1035.64" cy="-522" rx="46.2923" ry="18"/>
<text text-anchor="middle" x="1035.64" y="-518.3" font-family="Times New Roman,serif" font-size="14.00">types/heq</text>
</g>
<!-- types/equiv&#45;&gt;types/heq -->
<g id="edge13" class="edge"><title>types/equiv&#45;&gt;types/heq</title>
<path fill="none" stroke="black" d="M1097.49,-577.116C1086.85,-567.808 1073.24,-555.898 1061.5,-545.622"/>
<polygon fill="black" stroke="black" points="1063.56,-542.772 1053.73,-538.821 1058.95,-548.04 1063.56,-542.772"/>
</g>
<!-- HITs/infinitesimal -->
<g id="node15" class="node"><title>HITs/infinitesimal</title>
<ellipse fill="none" stroke="black" cx="1298.64" cy="-522" rx="74.9875" ry="18"/>
<text text-anchor="middle" x="1298.64" y="-518.3" font-family="Times New Roman,serif" font-size="14.00">HITs/infinitesimal</text>
</g>
<!-- types/equiv&#45;&gt;HITs/infinitesimal -->
<g id="edge14" class="edge"><title>types/equiv&#45;&gt;HITs/infinitesimal</title>
<path fill="none" stroke="black" d="M1149.21,-580.161C1177.73,-569.251 1219.01,-553.462 1250.96,-541.241"/>
<polygon fill="black" stroke="black" points="1252.46,-544.414 1260.55,-537.572 1249.96,-537.876 1252.46,-544.414"/>
</g>
<!-- types/lost -->
<g id="node16" class="node"><title>types/lost</title>
<ellipse fill="none" stroke="black" cx="1437.64" cy="-522" rx="46.2923" ry="18"/>
<text text-anchor="middle" x="1437.64" y="-518.3" font-family="Times New Roman,serif" font-size="14.00">types/lost</text>
</g>
<!-- types/equiv&#45;&gt;types/lost -->
<g id="edge15" class="edge"><title>types/equiv&#45;&gt;types/lost</title>
<path fill="none" stroke="black" d="M1161.8,-585.34C1215.28,-576.117 1305.91,-559.42 1382.64,-540 1386.25,-539.088 1389.96,-538.083 1393.69,-537.03"/>
<polygon fill="black" stroke="black" points="1394.86,-540.333 1403.47,-534.164 1392.89,-533.615 1394.86,-540.333"/>
</g>
<!-- types/unit -->
<g id="node17" class="node"><title>types/unit</title>
<ellipse fill="none" stroke="black" cx="925.644" cy="-522" rx="46.2923" ry="18"/>
<text text-anchor="middle" x="925.644" y="-518.3" font-family="Times New Roman,serif" font-size="14.00">types/unit</text>
</g>
<!-- types/equiv&#45;&gt;types/unit -->
<g id="edge16" class="edge"><title>types/equiv&#45;&gt;types/unit</title>
<path fill="none" stroke="black" d="M1081.24,-580.324C1049.31,-568.562 1001.72,-551.028 967.583,-538.451"/>
<polygon fill="black" stroke="black" points="968.489,-535.055 957.895,-534.882 966.069,-541.623 968.489,-535.055"/>
</g>
<!-- types/sigma -->
<g id="node18" class="node"><title>types/sigma</title>
<ellipse fill="none" stroke="black" cx="1044.64" cy="-306" rx="53.8905" ry="18"/>
<text text-anchor="middle" x="1044.64" y="-302.3" font-family="Times New Roman,serif" font-size="14.00">types/sigma</text>
</g>
<!-- types/equiv&#45;&gt;types/sigma -->
<g id="edge17" class="edge"><title>types/equiv&#45;&gt;types/sigma</title>
<path fill="none" stroke="black" d="M1128.3,-576.516C1157.65,-536.146 1224.3,-430.494 1176.64,-360 1166.92,-345.616 1128.05,-331.043 1094.99,-320.828"/>
<polygon fill="black" stroke="black" points="1095.99,-317.473 1085.4,-317.935 1093.96,-324.175 1095.99,-317.473"/>
</g>
<!-- structures -->
<g id="node6" class="node"><title>structures</title>
<ellipse fill="none" stroke="black" cx="510.644" cy="-450" rx="46.2923" ry="18"/>
<text text-anchor="middle" x="510.644" y="-446.3" font-family="Times New Roman,serif" font-size="14.00">structures</text>
</g>
<!-- HITs/interval -->
<g id="node7" class="node"><title>HITs/interval</title>
<ellipse fill="none" stroke="black" cx="467.644" cy="-378" rx="57.6901" ry="18"/>
<text text-anchor="middle" x="467.644" y="-374.3" font-family="Times New Roman,serif" font-size="14.00">HITs/interval</text>
</g>
<!-- structures&#45;&gt;HITs/interval -->
<g id="edge4" class="edge"><title>structures&#45;&gt;HITs/interval</title>
<path fill="none" stroke="black" d="M500.454,-432.411C495.335,-424.077 489.02,-413.797 483.301,-404.488"/>
<polygon fill="black" stroke="black" points="486.277,-402.645 478.06,-395.956 480.312,-406.309 486.277,-402.645"/>
</g>
<!-- HITs/truncation -->
<g id="node8" class="node"><title>HITs/truncation</title>
<ellipse fill="none" stroke="black" cx="659.644" cy="-306" rx="68.4888" ry="18"/>
<text text-anchor="middle" x="659.644" y="-302.3" font-family="Times New Roman,serif" font-size="14.00">HITs/truncation</text>
</g>
<!-- structures&#45;&gt;HITs/truncation -->
<g id="edge5" class="edge"><title>structures&#45;&gt;HITs/truncation</title>
<path fill="none" stroke="black" d="M519.608,-432.021C530.332,-412.855 549.736,-381.545 572.644,-360 586.322,-347.136 603.617,-335.827 619.178,-326.995"/>
<polygon fill="black" stroke="black" points="621.023,-329.974 628.098,-322.088 617.65,-323.841 621.023,-329.974"/>
</g>
<!-- types/nat -->
<g id="node9" class="node"><title>types/nat</title>
<ellipse fill="none" stroke="black" cx="534.644" cy="-234" rx="43.5923" ry="18"/>
<text text-anchor="middle" x="534.644" y="-230.3" font-family="Times New Roman,serif" font-size="14.00">types/nat</text>
</g>
<!-- structures&#45;&gt;types/nat -->
<g id="edge6" class="edge"><title>structures&#45;&gt;types/nat</title>
<path fill="none" stroke="black" d="M470.629,-440.993C445.846,-433.746 415.924,-420.323 400.644,-396 392.133,-382.452 394.265,-374.674 400.644,-360 421.049,-313.062 468.726,-275.754 501.341,-254.508"/>
<polygon fill="black" stroke="black" points="503.536,-257.26 510.105,-248.947 499.786,-251.35 503.536,-257.26"/>
</g>
<!-- types/product -->
<g id="node23" class="node"><title>types/product</title>
<ellipse fill="none" stroke="black" cx="291.644" cy="-306" rx="61.99" ry="18"/>
<text text-anchor="middle" x="291.644" y="-302.3" font-family="Times New Roman,serif" font-size="14.00">types/product</text>
</g>
<!-- HITs/interval&#45;&gt;types/product -->
<g id="edge40" class="edge"><title>HITs/interval&#45;&gt;types/product</title>
<path fill="none" stroke="black" d="M433.292,-363.337C405.489,-352.279 366.134,-336.626 335.959,-324.625"/>
<polygon fill="black" stroke="black" points="337.097,-321.311 326.511,-320.868 334.51,-327.816 337.097,-321.311"/>
</g>
<!-- theorems/fibration -->
<g id="node26" class="node"><title>theorems/fibration</title>
<ellipse fill="none" stroke="black" cx="817.644" cy="-234" rx="76.8869" ry="18"/>
<text text-anchor="middle" x="817.644" y="-230.3" font-family="Times New Roman,serif" font-size="14.00">theorems/fibration</text>
</g>
<!-- HITs/interval&#45;&gt;theorems/fibration -->
<g id="edge41" class="edge"><title>HITs/interval&#45;&gt;theorems/fibration</title>
<path fill="none" stroke="black" d="M487.324,-361.014C517.325,-336.761 572.138,-292.949 582.644,-288 597.93,-280.799 687.564,-261.569 751.588,-248.367"/>
<polygon fill="black" stroke="black" points="752.538,-251.745 761.628,-246.303 751.128,-244.888 752.538,-251.745"/>
</g>
<!-- theorems/prop -->
<g id="node27" class="node"><title>theorems/prop</title>
<ellipse fill="none" stroke="black" cx="659.644" cy="-234" rx="63.8893" ry="18"/>
<text text-anchor="middle" x="659.644" y="-230.3" font-family="Times New Roman,serif" font-size="14.00">theorems/prop</text>
</g>
<!-- HITs/interval&#45;&gt;theorems/prop -->
<g id="edge42" class="edge"><title>HITs/interval&#45;&gt;theorems/prop</title>
<path fill="none" stroke="black" d="M476.88,-360.141C488.38,-340.502 509.706,-308.178 535.644,-288 556.758,-271.575 583.725,-259.254 607.116,-250.645"/>
<polygon fill="black" stroke="black" points="608.3,-253.939 616.555,-247.298 605.961,-247.342 608.3,-253.939"/>
</g>
<!-- HITs/reals -->
<g id="node31" class="node"><title>HITs/reals</title>
<ellipse fill="none" stroke="black" cx="319.644" cy="-18" rx="48.9926" ry="18"/>
<text text-anchor="middle" x="319.644" y="-14.3" font-family="Times New Roman,serif" font-size="14.00">HITs/reals</text>
</g>
<!-- HITs/interval&#45;&gt;HITs/reals -->
<g id="edge43" class="edge"><title>HITs/interval&#45;&gt;HITs/reals</title>
<path fill="none" stroke="black" d="M410.014,-375.712C357.088,-372.089 278.354,-360.342 220.644,-324 117.962,-259.336 92.8595,-222.835 53.6442,-108 48.4735,-92.8585 43.4959,-84.3698 53.6442,-72 79.4421,-40.5548 191.554,-27.4141 261.739,-22.1929"/>
<polygon fill="black" stroke="black" points="262.048,-25.6799 271.774,-21.4788 261.551,-18.6975 262.048,-25.6799"/>
</g>
<!-- HITs/truncation&#45;&gt;theorems/prop -->
<g id="edge47" class="edge"><title>HITs/truncation&#45;&gt;theorems/prop</title>
<path fill="none" stroke="black" d="M659.644,-287.697C659.644,-279.983 659.644,-270.712 659.644,-262.112"/>
<polygon fill="black" stroke="black" points="663.144,-262.104 659.644,-252.104 656.144,-262.104 663.144,-262.104"/>
</g>
<!-- HITs/simplicial -->
<g id="node37" class="node"><title>HITs/simplicial</title>
<ellipse fill="none" stroke="black" cx="977.644" cy="-234" rx="65.7887" ry="18"/>
<text text-anchor="middle" x="977.644" y="-230.3" font-family="Times New Roman,serif" font-size="14.00">HITs/simplicial</text>
</g>
<!-- HITs/truncation&#45;&gt;HITs/simplicial -->
<g id="edge48" class="edge"><title>HITs/truncation&#45;&gt;HITs/simplicial</title>
<path fill="none" stroke="black" d="M711.093,-294.011C760.501,-283.414 837.225,-266.842 903.644,-252 908.661,-250.879 913.867,-249.705 919.088,-248.52"/>
<polygon fill="black" stroke="black" points="920.128,-251.873 929.1,-246.239 918.573,-245.048 920.128,-251.873"/>
</g>
<!-- theorems/nat -->
<g id="node22" class="node"><title>theorems/nat</title>
<ellipse fill="none" stroke="black" cx="687.644" cy="-162" rx="57.3905" ry="18"/>
<text text-anchor="middle" x="687.644" y="-158.3" font-family="Times New Roman,serif" font-size="14.00">theorems/nat</text>
</g>
<!-- types/nat&#45;&gt;theorems/nat -->
<g id="edge22" class="edge"><title>types/nat&#45;&gt;theorems/nat</title>
<path fill="none" stroke="black" d="M562.707,-220.161C586.371,-209.334 620.541,-193.701 647.167,-181.519"/>
<polygon fill="black" stroke="black" points="648.964,-184.546 656.602,-177.202 646.052,-178.18 648.964,-184.546"/>
</g>
<!-- types/coproduct&#45;&gt;structures -->
<g id="edge7" class="edge"><title>types/coproduct&#45;&gt;structures</title>
<path fill="none" stroke="black" d="M510.644,-503.697C510.644,-495.983 510.644,-486.712 510.644,-478.112"/>
<polygon fill="black" stroke="black" points="514.144,-478.104 510.644,-468.104 507.144,-478.104 514.144,-478.104"/>
</g>
<!-- types/integer -->
<g id="node11" class="node"><title>types/integer</title>
<ellipse fill="none" stroke="black" cx="159.644" cy="-450" rx="56.59" ry="18"/>
<text text-anchor="middle" x="159.644" y="-446.3" font-family="Times New Roman,serif" font-size="14.00">types/integer</text>
</g>
<!-- types/coproduct&#45;&gt;types/integer -->
<g id="edge8" class="edge"><title>types/coproduct&#45;&gt;types/integer</title>
<path fill="none" stroke="black" d="M456.57,-510.216C391.362,-497.211 282.287,-475.459 216.053,-462.25"/>
<polygon fill="black" stroke="black" points="216.694,-458.809 206.203,-460.285 215.325,-465.673 216.694,-458.809"/>
</g>
<!-- HITs/circle -->
<g id="node20" class="node"><title>HITs/circle</title>
<ellipse fill="none" stroke="black" cx="798.644" cy="-90" rx="51.9908" ry="18"/>
<text text-anchor="middle" x="798.644" y="-86.3" font-family="Times New Roman,serif" font-size="14.00">HITs/circle</text>
</g>
<!-- types/integer&#45;&gt;HITs/circle -->
<g id="edge20" class="edge"><title>types/integer&#45;&gt;HITs/circle</title>
<path fill="none" stroke="black" d="M158.216,-432.001C155.617,-389.033 155.215,-275.284 216.644,-216 237.914,-195.473 708.918,-114.972 737.644,-108 741.731,-107.008 745.958,-105.933 750.192,-104.822"/>
<polygon fill="black" stroke="black" points="751.271,-108.157 760.024,-102.186 749.458,-101.395 751.271,-108.157"/>
</g>
<!-- types/rational -->
<g id="node21" class="node"><title>types/rational</title>
<ellipse fill="none" stroke="black" cx="68.6442" cy="-378" rx="59.2899" ry="18"/>
<text text-anchor="middle" x="68.6442" y="-374.3" font-family="Times New Roman,serif" font-size="14.00">types/rational</text>
</g>
<!-- types/integer&#45;&gt;types/rational -->
<g id="edge21" class="edge"><title>types/integer&#45;&gt;types/rational</title>
<path fill="none" stroke="black" d="M138.995,-433.116C126.749,-423.696 111.038,-411.611 97.5709,-401.251"/>
<polygon fill="black" stroke="black" points="99.587,-398.386 89.5268,-395.064 95.319,-403.935 99.587,-398.386"/>
</g>
<!-- types/dedekind -->
<g id="node12" class="node"><title>types/dedekind</title>
<ellipse fill="none" stroke="black" cx="65.6442" cy="-306" rx="65.7887" ry="18"/>
<text text-anchor="middle" x="65.6442" y="-302.3" font-family="Times New Roman,serif" font-size="14.00">types/dedekind</text>
</g>
<!-- types/dep_path&#45;&gt;types/equiv -->
<g id="edge9" class="edge"><title>types/dep_path&#45;&gt;types/equiv</title>
<path fill="none" stroke="black" d="M1019.16,-649.465C1037.27,-639.242 1061.14,-625.771 1080.6,-614.783"/>
<polygon fill="black" stroke="black" points="1082.49,-617.737 1089.47,-609.773 1079.05,-611.641 1082.49,-617.737"/>
</g>
<!-- types/heq&#45;&gt;HITs/interval -->
<g id="edge18" class="edge"><title>types/heq&#45;&gt;HITs/interval</title>
<path fill="none" stroke="black" d="M1001.12,-509.977C994.351,-507.916 987.292,-505.835 980.644,-504 815.248,-458.334 617.462,-412.621 523.074,-391.343"/>
<polygon fill="black" stroke="black" points="523.699,-387.896 513.175,-389.116 522.163,-394.726 523.699,-387.896"/>
</g>
<!-- HITs/graph -->
<g id="node19" class="node"><title>HITs/graph</title>
<ellipse fill="none" stroke="black" cx="950.644" cy="-450" rx="52.7911" ry="18"/>
<text text-anchor="middle" x="950.644" y="-446.3" font-family="Times New Roman,serif" font-size="14.00">HITs/graph</text>
</g>
<!-- types/heq&#45;&gt;HITs/graph -->
<g id="edge19" class="edge"><title>types/heq&#45;&gt;HITs/graph</title>
<path fill="none" stroke="black" d="M1016.78,-505.465C1005.39,-496.081 990.668,-483.96 978.01,-473.536"/>
<polygon fill="black" stroke="black" points="979.989,-470.632 970.045,-466.977 975.539,-476.036 979.989,-470.632"/>
</g>
<!-- types/unit&#45;&gt;structures -->
<g id="edge29" class="edge"><title>types/unit&#45;&gt;structures</title>
<path fill="none" stroke="black" d="M883.952,-513.968C807.592,-501.088 645.502,-473.747 562.296,-459.712"/>
<polygon fill="black" stroke="black" points="562.751,-456.24 552.308,-458.028 561.587,-463.142 562.751,-456.24"/>
</g>
<!-- HITs/suspension -->
<g id="node28" class="node"><title>HITs/suspension</title>
<ellipse fill="none" stroke="black" cx="1189.64" cy="-306" rx="72.5877" ry="18"/>
<text text-anchor="middle" x="1189.64" y="-302.3" font-family="Times New Roman,serif" font-size="14.00">HITs/suspension</text>
</g>
<!-- types/unit&#45;&gt;HITs/suspension -->
<g id="edge30" class="edge"><title>types/unit&#45;&gt;HITs/suspension</title>
<path fill="none" stroke="black" d="M958.281,-509.107C1019.75,-486.04 1149.01,-434.143 1176.64,-396 1189.49,-378.263 1192.16,-353.247 1191.95,-334.252"/>
<polygon fill="black" stroke="black" points="1195.45,-333.994 1191.57,-324.134 1188.45,-334.259 1195.45,-333.994"/>
</g>
<!-- types/sigma&#45;&gt;theorems/nat -->
<g id="edge26" class="edge"><title>types/sigma&#45;&gt;theorems/nat</title>
<path fill="none" stroke="black" d="M1052.73,-288.019C1060.82,-268.262 1069.8,-235.826 1052.64,-216 1014.95,-172.434 849.908,-163.927 755.17,-162.718"/>
<polygon fill="black" stroke="black" points="755.14,-159.218 745.104,-162.614 755.067,-166.218 755.14,-159.218"/>
</g>
<!-- types/sigma&#45;&gt;theorems/fibration -->
<g id="edge27" class="edge"><title>types/sigma&#45;&gt;theorems/fibration</title>
<path fill="none" stroke="black" d="M1006.39,-293.205C969.546,-281.842 913.44,-264.541 871.968,-251.752"/>
<polygon fill="black" stroke="black" points="872.881,-248.371 862.294,-248.769 870.818,-255.06 872.881,-248.371"/>
</g>
<!-- types/sigma&#45;&gt;theorems/prop -->
<g id="edge28" class="edge"><title>types/sigma&#45;&gt;theorems/prop</title>
<path fill="none" stroke="black" d="M1005.16,-293.566C997.406,-291.541 989.3,-289.578 981.644,-288 871.699,-265.336 841.935,-272.919 731.644,-252 726.36,-250.998 720.878,-249.869 715.405,-248.681"/>
<polygon fill="black" stroke="black" points="716.128,-245.256 705.606,-246.494 714.603,-252.088 716.128,-245.256"/>
</g>
<!-- HITs/colimit -->
<g id="node32" class="node"><title>HITs/colimit</title>
<ellipse fill="none" stroke="black" cx="800.644" cy="-378" rx="56.59" ry="18"/>
<text text-anchor="middle" x="800.644" y="-374.3" font-family="Times New Roman,serif" font-size="14.00">HITs/colimit</text>
</g>
<!-- HITs/graph&#45;&gt;HITs/colimit -->
<g id="edge36" class="edge"><title>HITs/graph&#45;&gt;HITs/colimit</title>
<path fill="none" stroke="black" d="M920.65,-435.003C897.604,-424.248 865.56,-409.294 840.381,-397.544"/>
<polygon fill="black" stroke="black" points="841.643,-394.27 831.101,-393.213 838.682,-400.614 841.643,-394.27"/>
</g>
<!-- HITs/generalized -->
<g id="node33" class="node"><title>HITs/generalized</title>
<ellipse fill="none" stroke="black" cx="653.644" cy="-378" rx="72.2875" ry="18"/>
<text text-anchor="middle" x="653.644" y="-374.3" font-family="Times New Roman,serif" font-size="14.00">HITs/generalized</text>
</g>
<!-- HITs/graph&#45;&gt;HITs/generalized -->
<g id="edge37" class="edge"><title>HITs/graph&#45;&gt;HITs/generalized</title>
<path fill="none" stroke="black" d="M908.407,-439.045C857.539,-427.056 771.739,-406.834 713.925,-393.208"/>
<polygon fill="black" stroke="black" points="714.72,-389.799 704.184,-390.912 713.114,-396.612 714.72,-389.799"/>
</g>
<!-- HITs/pushout -->
<g id="node34" class="node"><title>HITs/pushout</title>
<ellipse fill="none" stroke="black" cx="1105.64" cy="-378" rx="61.99" ry="18"/>
<text text-anchor="middle" x="1105.64" y="-374.3" font-family="Times New Roman,serif" font-size="14.00">HITs/pushout</text>
</g>
<!-- HITs/graph&#45;&gt;HITs/pushout -->
<g id="edge38" class="edge"><title>HITs/graph&#45;&gt;HITs/pushout</title>
<path fill="none" stroke="black" d="M981.267,-435.17C1005,-424.453 1038.12,-409.495 1064.22,-397.709"/>
<polygon fill="black" stroke="black" points="1065.81,-400.83 1073.48,-393.524 1062.93,-394.45 1065.81,-400.83"/>
</g>
<!-- types/precategory -->
<g id="node35" class="node"><title>types/precategory</title>
<ellipse fill="none" stroke="black" cx="950.644" cy="-378" rx="75.2868" ry="18"/>
<text text-anchor="middle" x="950.644" y="-374.3" font-family="Times New Roman,serif" font-size="14.00">types/precategory</text>
</g>
<!-- HITs/graph&#45;&gt;types/precategory -->
<g id="edge39" class="edge"><title>HITs/graph&#45;&gt;types/precategory</title>
<path fill="none" stroke="black" d="M950.644,-431.697C950.644,-423.983 950.644,-414.712 950.644,-406.112"/>
<polygon fill="black" stroke="black" points="954.144,-406.104 950.644,-396.104 947.144,-406.104 954.144,-406.104"/>
</g>
<!-- theorems/hopf -->
<g id="node29" class="node"><title>theorems/hopf</title>
<ellipse fill="none" stroke="black" cx="878.644" cy="-18" rx="63.8893" ry="18"/>
<text text-anchor="middle" x="878.644" y="-14.3" font-family="Times New Roman,serif" font-size="14.00">theorems/hopf</text>
</g>
<!-- HITs/circle&#45;&gt;theorems/hopf -->
<g id="edge31" class="edge"><title>HITs/circle&#45;&gt;theorems/hopf</title>
<path fill="none" stroke="black" d="M816.797,-73.1159C827.285,-63.9391 840.664,-52.2331 852.293,-42.0574"/>
<polygon fill="black" stroke="black" points="854.787,-44.5261 860.008,-35.307 850.177,-39.2581 854.787,-44.5261"/>
</g>
<!-- HITs/moebius -->
<g id="node30" class="node"><title>HITs/moebius</title>
<ellipse fill="none" stroke="black" cx="733.644" cy="-18" rx="63.0888" ry="18"/>
<text text-anchor="middle" x="733.644" y="-14.3" font-family="Times New Roman,serif" font-size="14.00">HITs/moebius</text>
</g>
<!-- HITs/circle&#45;&gt;HITs/moebius -->
<g id="edge32" class="edge"><title>HITs/circle&#45;&gt;HITs/moebius</title>
<path fill="none" stroke="black" d="M783.568,-72.7646C775.401,-63.9689 765.149,-52.9283 756.064,-43.144"/>
<polygon fill="black" stroke="black" points="758.459,-40.5798 749.089,-35.6334 753.329,-45.3429 758.459,-40.5798"/>
</g>
<!-- HITs/circle&#45;&gt;HITs/reals -->
<g id="edge33" class="edge"><title>HITs/circle&#45;&gt;HITs/reals</title>
<path fill="none" stroke="black" d="M760.78,-77.5269C753.167,-75.4813 745.188,-73.521 737.644,-72 609.911,-46.2459 457.553,-30.6713 376.685,-23.5794"/>
<polygon fill="black" stroke="black" points="376.973,-20.0913 366.709,-22.7158 376.369,-27.0653 376.973,-20.0913"/>
</g>
<!-- types/rational&#45;&gt;types/dedekind -->
<g id="edge25" class="edge"><title>types/rational&#45;&gt;types/dedekind</title>
<path fill="none" stroke="black" d="M67.9026,-359.697C67.572,-351.983 67.1747,-342.712 66.8061,-334.112"/>
<polygon fill="black" stroke="black" points="70.3023,-333.945 66.3772,-324.104 63.3087,-334.245 70.3023,-333.945"/>
</g>
<!-- theorems/nat&#45;&gt;HITs/circle -->
<g id="edge56" class="edge"><title>theorems/nat&#45;&gt;HITs/circle</title>
<path fill="none" stroke="black" d="M712.004,-145.638C727.872,-135.631 748.763,-122.457 766.054,-111.552"/>
<polygon fill="black" stroke="black" points="768.132,-114.38 774.723,-106.085 764.398,-108.459 768.132,-114.38"/>
</g>
<!-- HITs/int -->
<g id="node44" class="node"><title>HITs/int</title>
<ellipse fill="none" stroke="black" cx="687.644" cy="-90" rx="40.8928" ry="18"/>
<text text-anchor="middle" x="687.644" y="-86.3" font-family="Times New Roman,serif" font-size="14.00">HITs/int</text>
</g>
<!-- theorems/nat&#45;&gt;HITs/int -->
<g id="edge57" class="edge"><title>theorems/nat&#45;&gt;HITs/int</title>
<path fill="none" stroke="black" d="M687.644,-143.697C687.644,-135.983 687.644,-126.712 687.644,-118.112"/>
<polygon fill="black" stroke="black" points="691.144,-118.104 687.644,-108.104 684.144,-118.104 691.144,-118.104"/>
</g>
<!-- cubical/cubes -->
<g id="node24" class="node"><title>cubical/cubes</title>
<ellipse fill="none" stroke="black" cx="285.644" cy="-234" rx="60.3893" ry="18"/>
<text text-anchor="middle" x="285.644" y="-230.3" font-family="Times New Roman,serif" font-size="14.00">cubical/cubes</text>
</g>
<!-- types/product&#45;&gt;cubical/cubes -->
<g id="edge23" class="edge"><title>types/product&#45;&gt;cubical/cubes</title>
<path fill="none" stroke="black" d="M290.161,-287.697C289.5,-279.983 288.705,-270.712 287.968,-262.112"/>
<polygon fill="black" stroke="black" points="291.452,-261.769 287.11,-252.104 284.477,-262.367 291.452,-261.769"/>
</g>
<!-- theorems/ua -->
<g id="node25" class="node"><title>theorems/ua</title>
<ellipse fill="none" stroke="black" cx="418.644" cy="-234" rx="54.6905" ry="18"/>
<text text-anchor="middle" x="418.644" y="-230.3" font-family="Times New Roman,serif" font-size="14.00">theorems/ua</text>
</g>
<!-- types/product&#45;&gt;theorems/ua -->
<g id="edge24" class="edge"><title>types/product&#45;&gt;theorems/ua</title>
<path fill="none" stroke="black" d="M319.201,-289.811C337.801,-279.559 362.535,-265.927 382.682,-254.822"/>
<polygon fill="black" stroke="black" points="384.509,-257.811 391.577,-249.919 381.13,-251.681 384.509,-257.811"/>
</g>
<!-- cubical/path -->
<g id="node39" class="node"><title>cubical/path</title>
<ellipse fill="none" stroke="black" cx="285.644" cy="-162" rx="54.6905" ry="18"/>
<text text-anchor="middle" x="285.644" y="-158.3" font-family="Times New Roman,serif" font-size="14.00">cubical/path</text>
</g>
<!-- cubical/cubes&#45;&gt;cubical/path -->
<g id="edge49" class="edge"><title>cubical/cubes&#45;&gt;cubical/path</title>
<path fill="none" stroke="black" d="M285.644,-215.697C285.644,-207.983 285.644,-198.712 285.644,-190.112"/>
<polygon fill="black" stroke="black" points="289.144,-190.104 285.644,-180.104 282.144,-190.104 289.144,-190.104"/>
</g>
<!-- theorems/ua&#45;&gt;theorems/nat -->
<g id="edge58" class="edge"><title>theorems/ua&#45;&gt;theorems/nat</title>
<path fill="none" stroke="black" d="M459.293,-221.956C466.725,-219.958 474.414,-217.905 481.644,-216 533.602,-202.306 593.045,-187.057 634.679,-176.445"/>
<polygon fill="black" stroke="black" points="635.774,-179.778 644.6,-173.918 634.046,-172.995 635.774,-179.778"/>
</g>
<!-- cubical/V -->
<g id="node42" class="node"><title>cubical/V</title>
<ellipse fill="none" stroke="black" cx="583.644" cy="-90" rx="45.4919" ry="18"/>
<text text-anchor="middle" x="583.644" y="-86.3" font-family="Times New Roman,serif" font-size="14.00">cubical/V</text>
</g>
<!-- theorems/ua&#45;&gt;cubical/V -->
<g id="edge59" class="edge"><title>theorems/ua&#45;&gt;cubical/V</title>
<path fill="none" stroke="black" d="M437.251,-216.987C466.62,-191.712 523.824,-142.481 557.37,-113.612"/>
<polygon fill="black" stroke="black" points="560.061,-115.914 565.357,-106.738 555.494,-110.608 560.061,-115.914"/>
</g>
<!-- theorems/fibration&#45;&gt;theorems/hopf -->
<g id="edge54" class="edge"><title>theorems/fibration&#45;&gt;theorems/hopf</title>
<path fill="none" stroke="black" d="M824.118,-215.801C832.962,-191.877 848.944,-147.083 859.644,-108 865.241,-87.5563 870.19,-64.0978 873.633,-46.3987"/>
<polygon fill="black" stroke="black" points="877.142,-46.6794 875.574,-36.2012 870.266,-45.3702 877.142,-46.6794"/>
</g>
<!-- HITs/suspension&#45;&gt;HITs/circle -->
<g id="edge46" class="edge"><title>HITs/suspension&#45;&gt;HITs/circle</title>
<path fill="none" stroke="black" d="M1170.52,-288.508C1147.92,-269.511 1108.67,-238.082 1071.64,-216 994.356,-169.903 897.16,-129.133 842.052,-107.468"/>
<polygon fill="black" stroke="black" points="843.183,-104.153 832.594,-103.776 840.637,-110.673 843.183,-104.153"/>
</g>
<!-- HITs/colimit&#45;&gt;HITs/truncation -->
<g id="edge34" class="edge"><title>HITs/colimit&#45;&gt;HITs/truncation</title>
<path fill="none" stroke="black" d="M771.429,-362.496C750.586,-352.148 722.309,-338.11 699.41,-326.742"/>
<polygon fill="black" stroke="black" points="700.799,-323.524 690.285,-322.212 697.686,-329.794 700.799,-323.524"/>
</g>
<!-- HITs/generalized&#45;&gt;HITs/truncation -->
<g id="edge35" class="edge"><title>HITs/generalized&#45;&gt;HITs/truncation</title>
<path fill="none" stroke="black" d="M655.127,-359.697C655.789,-351.983 656.583,-342.712 657.32,-334.112"/>
<polygon fill="black" stroke="black" points="660.811,-334.367 658.178,-324.104 653.837,-333.769 660.811,-334.367"/>
</g>
<!-- HITs/pushout&#45;&gt;HITs/suspension -->
<g id="edge44" class="edge"><title>HITs/pushout&#45;&gt;HITs/suspension</title>
<path fill="none" stroke="black" d="M1125.13,-360.765C1136.07,-351.642 1149.92,-340.105 1161.97,-330.059"/>
<polygon fill="black" stroke="black" points="1164.53,-332.48 1169.98,-323.39 1160.05,-327.103 1164.53,-332.48"/>
</g>
<!-- HITs/join -->
<g id="node36" class="node"><title>HITs/join</title>
<ellipse fill="none" stroke="black" cx="927.644" cy="-306" rx="45.4919" ry="18"/>
<text text-anchor="middle" x="927.644" y="-302.3" font-family="Times New Roman,serif" font-size="14.00">HITs/join</text>
</g>
<!-- HITs/pushout&#45;&gt;HITs/join -->
<g id="edge45" class="edge"><title>HITs/pushout&#45;&gt;HITs/join</title>
<path fill="none" stroke="black" d="M1070.48,-363.17C1041.13,-351.629 999.275,-335.169 968.456,-323.05"/>
<polygon fill="black" stroke="black" points="969.455,-319.681 958.867,-319.279 966.893,-326.196 969.455,-319.681"/>
</g>
<!-- cubical/connection -->
<g id="node38" class="node"><title>cubical/connection</title>
<ellipse fill="none" stroke="black" cx="285.644" cy="-90" rx="79.0865" ry="18"/>
<text text-anchor="middle" x="285.644" y="-86.3" font-family="Times New Roman,serif" font-size="14.00">cubical/connection</text>
</g>
<!-- cubical/path&#45;&gt;cubical/connection -->
<g id="edge50" class="edge"><title>cubical/path&#45;&gt;cubical/connection</title>
<path fill="none" stroke="black" d="M285.644,-143.697C285.644,-135.983 285.644,-126.712 285.644,-118.112"/>
<polygon fill="black" stroke="black" points="289.144,-118.104 285.644,-108.104 282.144,-118.104 289.144,-118.104"/>
</g>
<!-- cubical/example -->
<g id="node40" class="node"><title>cubical/example</title>
<ellipse fill="none" stroke="black" cx="451.644" cy="-90" rx="68.7879" ry="18"/>
<text text-anchor="middle" x="451.644" y="-86.3" font-family="Times New Roman,serif" font-size="14.00">cubical/example</text>
</g>
<!-- cubical/path&#45;&gt;cubical/example -->
<g id="edge51" class="edge"><title>cubical/path&#45;&gt;cubical/example</title>
<path fill="none" stroke="black" d="M318.045,-147.337C343.645,-136.542 379.632,-121.367 407.807,-109.486"/>
<polygon fill="black" stroke="black" points="409.182,-112.704 417.036,-105.594 406.462,-106.254 409.182,-112.704"/>
</g>
<!-- cubical/square -->
<g id="node41" class="node"><title>cubical/square</title>
<ellipse fill="none" stroke="black" cx="125.644" cy="-90" rx="63.0888" ry="18"/>
<text text-anchor="middle" x="125.644" y="-86.3" font-family="Times New Roman,serif" font-size="14.00">cubical/square</text>
</g>
<!-- cubical/path&#45;&gt;cubical/square -->
<g id="edge52" class="edge"><title>cubical/path&#45;&gt;cubical/square</title>
<path fill="none" stroke="black" d="M254.033,-147.17C229.349,-136.371 194.819,-121.264 167.785,-109.437"/>
<polygon fill="black" stroke="black" points="169.129,-106.204 158.564,-105.403 166.323,-112.617 169.129,-106.204"/>
</g>
<!-- cubical/path&#45;&gt;cubical/V -->
<g id="edge53" class="edge"><title>cubical/path&#45;&gt;cubical/V</title>
<path fill="none" stroke="black" d="M327.545,-150.402C336.474,-148.22 345.859,-145.985 354.644,-144 432.098,-126.499 452.784,-127.948 529.644,-108 533.029,-107.122 536.516,-106.159 540.011,-105.152"/>
<polygon fill="black" stroke="black" points="541.222,-108.444 549.806,-102.234 539.223,-101.735 541.222,-108.444"/>
</g>
<!-- theorems/functions -->
<g id="node43" class="node"><title>theorems/functions</title>
<ellipse fill="none" stroke="black" cx="1252.64" cy="-666" rx="79.8859" ry="18"/>
<text text-anchor="middle" x="1252.64" y="-662.3" font-family="Times New Roman,serif" font-size="14.00">theorems/functions</text>
</g>
<!-- theorems/functions&#45;&gt;types/equiv -->
<g id="edge55" class="edge"><title>theorems/functions&#45;&gt;types/equiv</title>
<path fill="none" stroke="black" d="M1221.9,-649.291C1201.33,-638.78 1174.15,-624.894 1152.43,-613.797"/>
<polygon fill="black" stroke="black" points="1153.99,-610.663 1143.49,-609.229 1150.81,-616.896 1153.99,-610.663"/>
</g>
</g>
</svg>
