<?xml version="1.0" encoding="UTF-8" standalone="no"?>
<!DOCTYPE svg PUBLIC "-//W3C//DTD SVG 1.1//EN"
 "http://www.w3.org/Graphics/SVG/1.1/DTD/svg11.dtd">
<!-- Generated by graphviz version 2.43.0 (0)
 -->
<!-- Title: dependency_map Pages: 1 -->
<svg width="1625pt" height="1124pt"
 viewBox="0.00 0.00 1625.24 1124.00" xmlns="http://www.w3.org/2000/svg" xmlns:xlink="http://www.w3.org/1999/xlink">
<g id="graph0" class="graph" transform="scale(1 1) rotate(0) translate(4 1120)">
<title>dependency_map</title>
<polygon fill="white" stroke="transparent" points="-4,4 -4,-1120 1621.24,-1120 1621.24,4 -4,4"/>
<!-- proto -->
<g id="node1" class="node">
<title>proto</title>
<ellipse fill="none" stroke="black" cx="682.49" cy="-1098" rx="29.5" ry="18"/>
<text text-anchor="middle" x="682.49" y="-1094.3" font-family="Times,serif" font-size="14.00">proto</text>
</g>
<!-- types/eq -->
<g id="node2" class="node">
<title>types/eq</title>
<ellipse fill="none" stroke="black" cx="741.49" cy="-1026" rx="40.09" ry="18"/>
<text text-anchor="middle" x="741.49" y="-1022.3" font-family="Times,serif" font-size="14.00">types/eq</text>
</g>
<!-- proto&#45;&gt;types/eq -->
<g id="edge1" class="edge">
<title>proto&#45;&gt;types/eq</title>
<path fill="none" stroke="black" d="M695.29,-1081.81C702.89,-1072.8 712.68,-1061.18 721.3,-1050.95"/>
<polygon fill="black" stroke="black" points="724.12,-1053.04 727.89,-1043.13 718.77,-1048.52 724.12,-1053.04"/>
</g>
<!-- support -->
<g id="node4" class="node">
<title>support</title>
<ellipse fill="none" stroke="black" cx="741.49" cy="-954" rx="37.09" ry="18"/>
<text text-anchor="middle" x="741.49" y="-950.3" font-family="Times,serif" font-size="14.00">support</text>
</g>
<!-- types/eq&#45;&gt;support -->
<g id="edge22" class="edge">
<title>types/eq&#45;&gt;support</title>
<path fill="none" stroke="black" d="M741.49,-1007.7C741.49,-999.98 741.49,-990.71 741.49,-982.11"/>
<polygon fill="black" stroke="black" points="744.99,-982.1 741.49,-972.1 737.99,-982.1 744.99,-982.1"/>
</g>
<!-- meta/hott_theory -->
<g id="node3" class="node">
<title>meta/hott_theory</title>
<ellipse fill="none" stroke="black" cx="801.49" cy="-1098" rx="71.49" ry="18"/>
<text text-anchor="middle" x="801.49" y="-1094.3" font-family="Times,serif" font-size="14.00">meta/hott_theory</text>
</g>
<!-- meta/hott_theory&#45;&gt;types/eq -->
<g id="edge2" class="edge">
<title>meta/hott_theory&#45;&gt;types/eq</title>
<path fill="none" stroke="black" d="M786.97,-1080.05C779.49,-1071.33 770.24,-1060.54 762.05,-1050.98"/>
<polygon fill="black" stroke="black" points="764.63,-1048.62 755.47,-1043.31 759.32,-1053.18 764.63,-1048.62"/>
</g>
<!-- types/equiv -->
<g id="node5" class="node">
<title>types/equiv</title>
<ellipse fill="none" stroke="black" cx="741.49" cy="-882" rx="51.19" ry="18"/>
<text text-anchor="middle" x="741.49" y="-878.3" font-family="Times,serif" font-size="14.00">types/equiv</text>
</g>
<!-- support&#45;&gt;types/equiv -->
<g id="edge3" class="edge">
<title>support&#45;&gt;types/equiv</title>
<path fill="none" stroke="black" d="M741.49,-935.7C741.49,-927.98 741.49,-918.71 741.49,-910.11"/>
<polygon fill="black" stroke="black" points="744.99,-910.1 741.49,-900.1 737.99,-910.1 744.99,-910.1"/>
</g>
<!-- types/coproduct -->
<g id="node26" class="node">
<title>types/coproduct</title>
<ellipse fill="none" stroke="black" cx="942.49" cy="-738" rx="66.89" ry="18"/>
<text text-anchor="middle" x="942.49" y="-734.3" font-family="Times,serif" font-size="14.00">types/coproduct</text>
</g>
<!-- types/equiv&#45;&gt;types/coproduct -->
<g id="edge25" class="edge">
<title>types/equiv&#45;&gt;types/coproduct</title>
<path fill="none" stroke="black" d="M784.01,-871.84C813.38,-863.93 852.1,-850.18 880.49,-828 902.04,-811.16 919.09,-784.78 929.82,-765.11"/>
<polygon fill="black" stroke="black" points="933.02,-766.54 934.56,-756.06 926.82,-763.29 933.02,-766.54"/>
</g>
<!-- types/heq -->
<g id="node29" class="node">
<title>types/heq</title>
<ellipse fill="none" stroke="black" cx="496.49" cy="-810" rx="44.39" ry="18"/>
<text text-anchor="middle" x="496.49" y="-806.3" font-family="Times,serif" font-size="14.00">types/heq</text>
</g>
<!-- types/equiv&#45;&gt;types/heq -->
<g id="edge26" class="edge">
<title>types/equiv&#45;&gt;types/heq</title>
<path fill="none" stroke="black" d="M702.78,-870.14C664.95,-859.49 605.72,-842.77 554.49,-828 550.12,-826.74 545.56,-825.42 541.01,-824.09"/>
<polygon fill="black" stroke="black" points="541.71,-820.65 531.13,-821.21 539.75,-827.37 541.71,-820.65"/>
</g>
<!-- HITs/infinitesimal -->
<g id="node30" class="node">
<title>HITs/infinitesimal</title>
<ellipse fill="none" stroke="black" cx="672.49" cy="-810" rx="76.09" ry="18"/>
<text text-anchor="middle" x="672.49" y="-806.3" font-family="Times,serif" font-size="14.00">HITs/infinitesimal</text>
</g>
<!-- types/equiv&#45;&gt;HITs/infinitesimal -->
<g id="edge27" class="edge">
<title>types/equiv&#45;&gt;HITs/infinitesimal</title>
<path fill="none" stroke="black" d="M725.49,-864.76C716.73,-855.88 705.72,-844.71 696,-834.85"/>
<polygon fill="black" stroke="black" points="698.4,-832.3 688.89,-827.63 693.41,-837.21 698.4,-832.3"/>
</g>
<!-- types/lost -->
<g id="node31" class="node">
<title>types/lost</title>
<ellipse fill="none" stroke="black" cx="810.49" cy="-810" rx="44.39" ry="18"/>
<text text-anchor="middle" x="810.49" y="-806.3" font-family="Times,serif" font-size="14.00">types/lost</text>
</g>
<!-- types/equiv&#45;&gt;types/lost -->
<g id="edge28" class="edge">
<title>types/equiv&#45;&gt;types/lost</title>
<path fill="none" stroke="black" d="M757.49,-864.76C766.38,-855.75 777.58,-844.39 787.4,-834.43"/>
<polygon fill="black" stroke="black" points="790.05,-836.73 794.57,-827.15 785.06,-831.81 790.05,-836.73"/>
</g>
<!-- types/unit -->
<g id="node32" class="node">
<title>types/unit</title>
<ellipse fill="none" stroke="black" cx="589.49" cy="-666" rx="45.49" ry="18"/>
<text text-anchor="middle" x="589.49" y="-662.3" font-family="Times,serif" font-size="14.00">types/unit</text>
</g>
<!-- types/equiv&#45;&gt;types/unit -->
<g id="edge29" class="edge">
<title>types/equiv&#45;&gt;types/unit</title>
<path fill="none" stroke="black" d="M690.95,-878.28C655.64,-873.42 610.81,-860.69 587.49,-828 559.24,-788.4 570.32,-728.26 580.31,-693.79"/>
<polygon fill="black" stroke="black" points="583.74,-694.55 583.33,-683.96 577.05,-692.49 583.74,-694.55"/>
</g>
<!-- types/sigma -->
<g id="node33" class="node">
<title>types/sigma</title>
<ellipse fill="none" stroke="black" cx="804.49" cy="-738" rx="53.09" ry="18"/>
<text text-anchor="middle" x="804.49" y="-734.3" font-family="Times,serif" font-size="14.00">types/sigma</text>
</g>
<!-- types/equiv&#45;&gt;types/sigma -->
<g id="edge30" class="edge">
<title>types/equiv&#45;&gt;types/sigma</title>
<path fill="none" stroke="black" d="M787.56,-873.76C814.62,-866.88 846.71,-853.59 863.49,-828 872.27,-814.62 870.01,-806.61 863.49,-792 857.96,-779.6 847.93,-768.88 837.7,-760.4"/>
<polygon fill="black" stroke="black" points="839.57,-757.43 829.52,-754.08 835.29,-762.97 839.57,-757.43"/>
</g>
<!-- structures -->
<g id="node6" class="node">
<title>structures</title>
<ellipse fill="none" stroke="black" cx="804.49" cy="-594" rx="44.69" ry="18"/>
<text text-anchor="middle" x="804.49" y="-590.3" font-family="Times,serif" font-size="14.00">structures</text>
</g>
<!-- HITs/interval -->
<g id="node7" class="node">
<title>HITs/interval</title>
<ellipse fill="none" stroke="black" cx="1154.49" cy="-522" rx="57.69" ry="18"/>
<text text-anchor="middle" x="1154.49" y="-518.3" font-family="Times,serif" font-size="14.00">HITs/interval</text>
</g>
<!-- structures&#45;&gt;HITs/interval -->
<g id="edge4" class="edge">
<title>structures&#45;&gt;HITs/interval</title>
<path fill="none" stroke="black" d="M843.62,-585.17C905.34,-572.83 1025.6,-548.78 1097.1,-534.48"/>
<polygon fill="black" stroke="black" points="1098.16,-537.83 1107.28,-532.44 1096.79,-530.97 1098.16,-537.83"/>
</g>
<!-- HITs/merely -->
<g id="node8" class="node">
<title>HITs/merely</title>
<ellipse fill="none" stroke="black" cx="581.49" cy="-522" rx="55.79" ry="18"/>
<text text-anchor="middle" x="581.49" y="-518.3" font-family="Times,serif" font-size="14.00">HITs/merely</text>
</g>
<!-- structures&#45;&gt;HITs/merely -->
<g id="edge5" class="edge">
<title>structures&#45;&gt;HITs/merely</title>
<path fill="none" stroke="black" d="M770.14,-582.22C732.58,-570.43 672.14,-551.45 629.81,-538.17"/>
<polygon fill="black" stroke="black" points="630.59,-534.75 620,-535.09 628.5,-541.42 630.59,-534.75"/>
</g>
<!-- HITs/trunc -->
<g id="node9" class="node">
<title>HITs/trunc</title>
<ellipse fill="none" stroke="black" cx="807.49" cy="-522" rx="49.29" ry="18"/>
<text text-anchor="middle" x="807.49" y="-518.3" font-family="Times,serif" font-size="14.00">HITs/trunc</text>
</g>
<!-- structures&#45;&gt;HITs/trunc -->
<g id="edge6" class="edge">
<title>structures&#45;&gt;HITs/trunc</title>
<path fill="none" stroke="black" d="M805.23,-575.7C805.56,-567.98 805.96,-558.71 806.33,-550.11"/>
<polygon fill="black" stroke="black" points="809.83,-550.25 806.76,-540.1 802.83,-549.95 809.83,-550.25"/>
</g>
<!-- types/nat -->
<g id="node10" class="node">
<title>types/nat</title>
<ellipse fill="none" stroke="black" cx="697.49" cy="-522" rx="42.49" ry="18"/>
<text text-anchor="middle" x="697.49" y="-518.3" font-family="Times,serif" font-size="14.00">types/nat</text>
</g>
<!-- structures&#45;&gt;types/nat -->
<g id="edge7" class="edge">
<title>structures&#45;&gt;types/nat</title>
<path fill="none" stroke="black" d="M782.06,-578.33C766.41,-568.08 745.32,-554.29 728.12,-543.04"/>
<polygon fill="black" stroke="black" points="729.81,-539.96 719.53,-537.42 725.98,-545.82 729.81,-539.96"/>
</g>
<!-- theorems/ua -->
<g id="node11" class="node">
<title>theorems/ua</title>
<ellipse fill="none" stroke="black" cx="928.49" cy="-522" rx="53.89" ry="18"/>
<text text-anchor="middle" x="928.49" y="-518.3" font-family="Times,serif" font-size="14.00">theorems/ua</text>
</g>
<!-- structures&#45;&gt;theorems/ua -->
<g id="edge8" class="edge">
<title>structures&#45;&gt;theorems/ua</title>
<path fill="none" stroke="black" d="M829.58,-578.83C847.87,-568.51 872.9,-554.38 893.2,-542.92"/>
<polygon fill="black" stroke="black" points="895.16,-545.83 902.15,-537.87 891.72,-539.74 895.16,-545.83"/>
</g>
<!-- cubical/cubes -->
<g id="node49" class="node">
<title>cubical/cubes</title>
<ellipse fill="none" stroke="black" cx="1390.49" cy="-450" rx="58.49" ry="18"/>
<text text-anchor="middle" x="1390.49" y="-446.3" font-family="Times,serif" font-size="14.00">cubical/cubes</text>
</g>
<!-- HITs/interval&#45;&gt;cubical/cubes -->
<g id="edge52" class="edge">
<title>HITs/interval&#45;&gt;cubical/cubes</title>
<path fill="none" stroke="black" d="M1194.79,-509.05C1234.98,-497.13 1296.8,-478.79 1340.18,-465.92"/>
<polygon fill="black" stroke="black" points="1341.37,-469.22 1349.96,-463.02 1339.38,-462.51 1341.37,-469.22"/>
</g>
<!-- theorems/prop -->
<g id="node50" class="node">
<title>theorems/prop</title>
<ellipse fill="none" stroke="black" cx="928.49" cy="-450" rx="61.99" ry="18"/>
<text text-anchor="middle" x="928.49" y="-446.3" font-family="Times,serif" font-size="14.00">theorems/prop</text>
</g>
<!-- HITs/interval&#45;&gt;theorems/prop -->
<g id="edge53" class="edge">
<title>HITs/interval&#45;&gt;theorems/prop</title>
<path fill="none" stroke="black" d="M1115.13,-508.81C1077.31,-497.09 1020,-479.34 978.87,-466.61"/>
<polygon fill="black" stroke="black" points="979.9,-463.26 969.31,-463.64 977.83,-469.95 979.9,-463.26"/>
</g>
<!-- theorems/fibration -->
<g id="node51" class="node">
<title>theorems/fibration</title>
<ellipse fill="none" stroke="black" cx="1154.49" cy="-378" rx="76.09" ry="18"/>
<text text-anchor="middle" x="1154.49" y="-374.3" font-family="Times,serif" font-size="14.00">theorems/fibration</text>
</g>
<!-- HITs/interval&#45;&gt;theorems/fibration -->
<g id="edge54" class="edge">
<title>HITs/interval&#45;&gt;theorems/fibration</title>
<path fill="none" stroke="black" d="M1154.49,-503.87C1154.49,-479.67 1154.49,-435.21 1154.49,-406.39"/>
<polygon fill="black" stroke="black" points="1157.99,-406.19 1154.49,-396.19 1150.99,-406.19 1157.99,-406.19"/>
</g>
<!-- HITs/merely&#45;&gt;theorems/prop -->
<g id="edge55" class="edge">
<title>HITs/merely&#45;&gt;theorems/prop</title>
<path fill="none" stroke="black" d="M622.65,-509.77C630.54,-507.75 638.75,-505.74 646.49,-504 721.69,-487.12 808.99,-471.29 866.3,-461.4"/>
<polygon fill="black" stroke="black" points="867.03,-464.83 876.29,-459.68 865.84,-457.93 867.03,-464.83"/>
</g>
<!-- theorems/ontological -->
<g id="node53" class="node">
<title>theorems/ontological</title>
<ellipse fill="none" stroke="black" cx="443.49" cy="-450" rx="85.29" ry="18"/>
<text text-anchor="middle" x="443.49" y="-446.3" font-family="Times,serif" font-size="14.00">theorems/ontological</text>
</g>
<!-- HITs/merely&#45;&gt;theorems/ontological -->
<g id="edge56" class="edge">
<title>HITs/merely&#45;&gt;theorems/ontological</title>
<path fill="none" stroke="black" d="M552.9,-506.5C533,-496.4 506.19,-482.8 484.09,-471.59"/>
<polygon fill="black" stroke="black" points="485.44,-468.35 474.94,-466.95 482.27,-474.59 485.44,-468.35"/>
</g>
<!-- HITs/simplicial -->
<g id="node54" class="node">
<title>HITs/simplicial</title>
<ellipse fill="none" stroke="black" cx="612.49" cy="-450" rx="66.09" ry="18"/>
<text text-anchor="middle" x="612.49" y="-446.3" font-family="Times,serif" font-size="14.00">HITs/simplicial</text>
</g>
<!-- HITs/merely&#45;&gt;HITs/simplicial -->
<g id="edge57" class="edge">
<title>HITs/merely&#45;&gt;HITs/simplicial</title>
<path fill="none" stroke="black" d="M589,-504.05C592.52,-496.09 596.81,-486.41 600.75,-477.51"/>
<polygon fill="black" stroke="black" points="603.99,-478.84 604.84,-468.28 597.59,-476 603.99,-478.84"/>
</g>
<!-- theorems/functions -->
<g id="node55" class="node">
<title>theorems/functions</title>
<ellipse fill="none" stroke="black" cx="145.49" cy="-306" rx="78.79" ry="18"/>
<text text-anchor="middle" x="145.49" y="-302.3" font-family="Times,serif" font-size="14.00">theorems/functions</text>
</g>
<!-- HITs/merely&#45;&gt;theorems/functions -->
<g id="edge58" class="edge">
<title>HITs/merely&#45;&gt;theorems/functions</title>
<path fill="none" stroke="black" d="M529.55,-515.06C421.06,-502.55 179.88,-474.12 173.49,-468 137.47,-433.5 137.72,-370.45 141.41,-334.34"/>
<polygon fill="black" stroke="black" points="144.93,-334.4 142.63,-324.06 137.98,-333.57 144.93,-334.4"/>
</g>
<!-- algebra/monoid -->
<g id="node14" class="node">
<title>algebra/monoid</title>
<ellipse fill="none" stroke="black" cx="601.49" cy="-234" rx="66.09" ry="18"/>
<text text-anchor="middle" x="601.49" y="-230.3" font-family="Times,serif" font-size="14.00">algebra/monoid</text>
</g>
<!-- HITs/trunc&#45;&gt;algebra/monoid -->
<g id="edge63" class="edge">
<title>HITs/trunc&#45;&gt;algebra/monoid</title>
<path fill="none" stroke="black" d="M816.5,-503.99C825.44,-484.5 835.66,-452.61 819.49,-432 777.97,-379.08 735.7,-419.01 672.49,-396 668.24,-394.45 528.88,-327.84 526.49,-324 518.04,-310.41 519.13,-302.21 526.49,-288 533.64,-274.2 546.22,-263.22 559.06,-254.92"/>
<polygon fill="black" stroke="black" points="561.16,-257.74 567.93,-249.6 557.55,-251.74 561.16,-257.74"/>
</g>
<!-- HITs/quotient -->
<g id="node48" class="node">
<title>HITs/quotient</title>
<ellipse fill="none" stroke="black" cx="242.49" cy="-450" rx="59.59" ry="18"/>
<text text-anchor="middle" x="242.49" y="-446.3" font-family="Times,serif" font-size="14.00">HITs/quotient</text>
</g>
<!-- HITs/trunc&#45;&gt;HITs/quotient -->
<g id="edge64" class="edge">
<title>HITs/trunc&#45;&gt;HITs/quotient</title>
<path fill="none" stroke="black" d="M771.56,-509.47C764,-507.38 756.04,-505.41 748.49,-504 573.48,-471.2 526.18,-489.98 349.49,-468 334.48,-466.13 318.33,-463.76 303.25,-461.38"/>
<polygon fill="black" stroke="black" points="303.44,-457.87 293.01,-459.75 302.33,-464.78 303.44,-457.87"/>
</g>
<!-- theorems/nat -->
<g id="node38" class="node">
<title>theorems/nat</title>
<ellipse fill="none" stroke="black" cx="753.49" cy="-450" rx="56.59" ry="18"/>
<text text-anchor="middle" x="753.49" y="-446.3" font-family="Times,serif" font-size="14.00">theorems/nat</text>
</g>
<!-- types/nat&#45;&gt;theorems/nat -->
<g id="edge35" class="edge">
<title>types/nat&#45;&gt;theorems/nat</title>
<path fill="none" stroke="black" d="M710.48,-504.76C717.38,-496.14 726,-485.36 733.71,-475.73"/>
<polygon fill="black" stroke="black" points="736.67,-477.63 740.18,-467.63 731.2,-473.26 736.67,-477.63"/>
</g>
<!-- theorems/ua&#45;&gt;theorems/nat -->
<g id="edge83" class="edge">
<title>theorems/ua&#45;&gt;theorems/nat</title>
<path fill="none" stroke="black" d="M895.16,-507.67C867.24,-496.5 827.19,-480.48 796.79,-468.32"/>
<polygon fill="black" stroke="black" points="797.88,-464.98 787.29,-464.52 795.28,-471.48 797.88,-464.98"/>
</g>
<!-- theorems/ua&#45;&gt;theorems/prop -->
<g id="edge84" class="edge">
<title>theorems/ua&#45;&gt;theorems/prop</title>
<path fill="none" stroke="black" d="M928.49,-503.7C928.49,-495.98 928.49,-486.71 928.49,-478.11"/>
<polygon fill="black" stroke="black" points="931.99,-478.1 928.49,-468.1 924.99,-478.1 931.99,-478.1"/>
</g>
<!-- cubical/V -->
<g id="node60" class="node">
<title>cubical/V</title>
<ellipse fill="none" stroke="black" cx="1258.49" cy="-306" rx="44.69" ry="18"/>
<text text-anchor="middle" x="1258.49" y="-302.3" font-family="Times,serif" font-size="14.00">cubical/V</text>
</g>
<!-- theorems/ua&#45;&gt;cubical/V -->
<g id="edge85" class="edge">
<title>theorems/ua&#45;&gt;cubical/V</title>
<path fill="none" stroke="black" d="M978.94,-515.33C1048.5,-504.73 1172.8,-475.26 1239.49,-396 1253.91,-378.86 1258.19,-353.42 1259.13,-334.12"/>
<polygon fill="black" stroke="black" points="1262.63,-334.2 1259.36,-324.12 1255.63,-334.04 1262.63,-334.2"/>
</g>
<!-- algebra/basic -->
<g id="node12" class="node">
<title>algebra/basic</title>
<ellipse fill="none" stroke="black" cx="592.49" cy="-306" rx="57.39" ry="18"/>
<text text-anchor="middle" x="592.49" y="-302.3" font-family="Times,serif" font-size="14.00">algebra/basic</text>
</g>
<!-- algebra/category -->
<g id="node13" class="node">
<title>algebra/category</title>
<ellipse fill="none" stroke="black" cx="1010.49" cy="-234" rx="69.59" ry="18"/>
<text text-anchor="middle" x="1010.49" y="-230.3" font-family="Times,serif" font-size="14.00">algebra/category</text>
</g>
<!-- algebra/basic&#45;&gt;algebra/category -->
<g id="edge9" class="edge">
<title>algebra/basic&#45;&gt;algebra/category</title>
<path fill="none" stroke="black" d="M634.24,-293.56C642.25,-291.56 650.61,-289.6 658.49,-288 754.74,-268.41 867.15,-252.72 938.56,-243.63"/>
<polygon fill="black" stroke="black" points="939.31,-247.07 948.79,-242.34 938.43,-240.12 939.31,-247.07"/>
</g>
<!-- algebra/basic&#45;&gt;algebra/monoid -->
<g id="edge10" class="edge">
<title>algebra/basic&#45;&gt;algebra/monoid</title>
<path fill="none" stroke="black" d="M594.72,-287.7C595.71,-279.98 596.9,-270.71 598.01,-262.11"/>
<polygon fill="black" stroke="black" points="601.49,-262.47 599.29,-252.1 594.55,-261.58 601.49,-262.47"/>
</g>
<!-- algebra/group -->
<g id="node15" class="node">
<title>algebra/group</title>
<ellipse fill="none" stroke="black" cx="277.49" cy="-234" rx="59.59" ry="18"/>
<text text-anchor="middle" x="277.49" y="-230.3" font-family="Times,serif" font-size="14.00">algebra/group</text>
</g>
<!-- algebra/basic&#45;&gt;algebra/group -->
<g id="edge11" class="edge">
<title>algebra/basic&#45;&gt;algebra/group</title>
<path fill="none" stroke="black" d="M546.15,-295.44C496.64,-285.13 415.88,-268.02 346.49,-252 341.78,-250.91 336.9,-249.76 332,-248.59"/>
<polygon fill="black" stroke="black" points="332.53,-245.11 321.99,-246.17 330.88,-251.92 332.53,-245.11"/>
</g>
<!-- algebra/eilenberg_maclane -->
<g id="node17" class="node">
<title>algebra/eilenberg_maclane</title>
<ellipse fill="none" stroke="black" cx="876.49" cy="-162" rx="105.88" ry="18"/>
<text text-anchor="middle" x="876.49" y="-158.3" font-family="Times,serif" font-size="14.00">algebra/eilenberg_maclane</text>
</g>
<!-- algebra/group&#45;&gt;algebra/eilenberg_maclane -->
<g id="edge12" class="edge">
<title>algebra/group&#45;&gt;algebra/eilenberg_maclane</title>
<path fill="none" stroke="black" d="M320.36,-221.44C328.97,-219.4 337.98,-217.47 346.49,-216 491.05,-191.09 659.97,-176.7 767.54,-169.36"/>
<polygon fill="black" stroke="black" points="768.02,-172.84 777.76,-168.67 767.54,-165.85 768.02,-172.84"/>
</g>
<!-- algebra/finite -->
<g id="node18" class="node">
<title>algebra/finite</title>
<ellipse fill="none" stroke="black" cx="270.49" cy="-162" rx="57.69" ry="18"/>
<text text-anchor="middle" x="270.49" y="-158.3" font-family="Times,serif" font-size="14.00">algebra/finite</text>
</g>
<!-- algebra/group&#45;&gt;algebra/finite -->
<g id="edge13" class="edge">
<title>algebra/group&#45;&gt;algebra/finite</title>
<path fill="none" stroke="black" d="M275.76,-215.7C274.99,-207.98 274.06,-198.71 273.2,-190.11"/>
<polygon fill="black" stroke="black" points="276.68,-189.71 272.2,-180.1 269.71,-190.4 276.68,-189.71"/>
</g>
<!-- algebra/ring -->
<g id="node19" class="node">
<title>algebra/ring</title>
<ellipse fill="none" stroke="black" cx="399.49" cy="-162" rx="53.09" ry="18"/>
<text text-anchor="middle" x="399.49" y="-158.3" font-family="Times,serif" font-size="14.00">algebra/ring</text>
</g>
<!-- algebra/group&#45;&gt;algebra/ring -->
<g id="edge14" class="edge">
<title>algebra/group&#45;&gt;algebra/ring</title>
<path fill="none" stroke="black" d="M303.96,-217.81C321.75,-207.61 345.38,-194.05 364.68,-182.97"/>
<polygon fill="black" stroke="black" points="366.56,-185.93 373.49,-177.92 363.07,-179.86 366.56,-185.93"/>
</g>
<!-- algebra/transformational -->
<g id="node20" class="node">
<title>algebra/transformational</title>
<ellipse fill="none" stroke="black" cx="97.49" cy="-162" rx="97.48" ry="18"/>
<text text-anchor="middle" x="97.49" y="-158.3" font-family="Times,serif" font-size="14.00">algebra/transformational</text>
</g>
<!-- algebra/group&#45;&gt;algebra/transformational -->
<g id="edge15" class="edge">
<title>algebra/group&#45;&gt;algebra/transformational</title>
<path fill="none" stroke="black" d="M242.36,-219.34C215.12,-208.75 177.05,-193.94 146.77,-182.16"/>
<polygon fill="black" stroke="black" points="147.82,-178.82 137.24,-178.46 145.29,-185.34 147.82,-178.82"/>
</g>
<!-- algebra/Z -->
<g id="node21" class="node">
<title>algebra/Z</title>
<ellipse fill="none" stroke="black" cx="514.49" cy="-162" rx="44.39" ry="18"/>
<text text-anchor="middle" x="514.49" y="-158.3" font-family="Times,serif" font-size="14.00">algebra/Z</text>
</g>
<!-- algebra/group&#45;&gt;algebra/Z -->
<g id="edge16" class="edge">
<title>algebra/group&#45;&gt;algebra/Z</title>
<path fill="none" stroke="black" d="M319.99,-221.15C357.35,-210.64 413.15,-194.71 461.49,-180 464.78,-179 468.18,-177.95 471.59,-176.88"/>
<polygon fill="black" stroke="black" points="472.7,-180.2 481.18,-173.85 470.59,-173.53 472.7,-180.2"/>
</g>
<!-- algebra/boolean -->
<g id="node16" class="node">
<title>algebra/boolean</title>
<ellipse fill="none" stroke="black" cx="376.49" cy="-90" rx="66.89" ry="18"/>
<text text-anchor="middle" x="376.49" y="-86.3" font-family="Times,serif" font-size="14.00">algebra/boolean</text>
</g>
<!-- algebra/ring&#45;&gt;algebra/boolean -->
<g id="edge18" class="edge">
<title>algebra/ring&#45;&gt;algebra/boolean</title>
<path fill="none" stroke="black" d="M393.92,-144.05C391.33,-136.18 388.19,-126.62 385.3,-117.79"/>
<polygon fill="black" stroke="black" points="388.61,-116.68 382.17,-108.28 381.96,-118.87 388.61,-116.68"/>
</g>
<!-- algebra/orgraph -->
<g id="node23" class="node">
<title>algebra/orgraph</title>
<ellipse fill="none" stroke="black" cx="935.49" cy="-90" rx="66.09" ry="18"/>
<text text-anchor="middle" x="935.49" y="-86.3" font-family="Times,serif" font-size="14.00">algebra/orgraph</text>
</g>
<!-- algebra/ring&#45;&gt;algebra/orgraph -->
<g id="edge19" class="edge">
<title>algebra/ring&#45;&gt;algebra/orgraph</title>
<path fill="none" stroke="black" d="M437.97,-149.45C445.71,-147.41 453.82,-145.47 461.49,-144 601.41,-117.17 767.35,-102.46 861.14,-95.7"/>
<polygon fill="black" stroke="black" points="861.65,-99.18 871.38,-94.98 861.16,-92.19 861.65,-99.18"/>
</g>
<!-- algebra/homology -->
<g id="node22" class="node">
<title>algebra/homology</title>
<ellipse fill="none" stroke="black" cx="536.49" cy="-90" rx="75.29" ry="18"/>
<text text-anchor="middle" x="536.49" y="-86.3" font-family="Times,serif" font-size="14.00">algebra/homology</text>
</g>
<!-- algebra/Z&#45;&gt;algebra/homology -->
<g id="edge20" class="edge">
<title>algebra/Z&#45;&gt;algebra/homology</title>
<path fill="none" stroke="black" d="M519.82,-144.05C522.27,-136.26 525.23,-126.82 527.98,-118.08"/>
<polygon fill="black" stroke="black" points="531.4,-118.86 531.06,-108.28 524.72,-116.77 531.4,-118.86"/>
</g>
<!-- algebra/real -->
<g id="node24" class="node">
<title>algebra/real</title>
<ellipse fill="none" stroke="black" cx="935.49" cy="-18" rx="51.99" ry="18"/>
<text text-anchor="middle" x="935.49" y="-14.3" font-family="Times,serif" font-size="14.00">algebra/real</text>
</g>
<!-- algebra/orgraph&#45;&gt;algebra/real -->
<g id="edge17" class="edge">
<title>algebra/orgraph&#45;&gt;algebra/real</title>
<path fill="none" stroke="black" d="M935.49,-71.7C935.49,-63.98 935.49,-54.71 935.49,-46.11"/>
<polygon fill="black" stroke="black" points="938.99,-46.1 935.49,-36.1 931.99,-46.1 938.99,-46.1"/>
</g>
<!-- types/category -->
<g id="node25" class="node">
<title>types/category</title>
<ellipse fill="none" stroke="black" cx="861.49" cy="-306" rx="61.99" ry="18"/>
<text text-anchor="middle" x="861.49" y="-302.3" font-family="Times,serif" font-size="14.00">types/category</text>
</g>
<!-- types/coproduct&#45;&gt;structures -->
<g id="edge21" class="edge">
<title>types/coproduct&#45;&gt;structures</title>
<path fill="none" stroke="black" d="M926.39,-720.43C901.85,-695.18 855,-646.97 827.07,-618.23"/>
<polygon fill="black" stroke="black" points="829.55,-615.76 820.07,-611.03 824.53,-620.64 829.55,-615.76"/>
</g>
<!-- types/ens -->
<g id="node27" class="node">
<title>types/ens</title>
<ellipse fill="none" stroke="black" cx="725.49" cy="-378" rx="43.59" ry="18"/>
<text text-anchor="middle" x="725.49" y="-374.3" font-family="Times,serif" font-size="14.00">types/ens</text>
</g>
<!-- types/ens&#45;&gt;algebra/basic -->
<g id="edge23" class="edge">
<title>types/ens&#45;&gt;algebra/basic</title>
<path fill="none" stroke="black" d="M699.53,-363.34C679.6,-352.85 651.81,-338.22 629.54,-326.5"/>
<polygon fill="black" stroke="black" points="631.16,-323.4 620.68,-321.84 627.9,-329.59 631.16,-323.4"/>
</g>
<!-- types/setquot -->
<g id="node28" class="node">
<title>types/setquot</title>
<ellipse fill="none" stroke="black" cx="724.49" cy="-306" rx="57.39" ry="18"/>
<text text-anchor="middle" x="724.49" y="-302.3" font-family="Times,serif" font-size="14.00">types/setquot</text>
</g>
<!-- types/ens&#45;&gt;types/setquot -->
<g id="edge24" class="edge">
<title>types/ens&#45;&gt;types/setquot</title>
<path fill="none" stroke="black" d="M725.24,-359.7C725.13,-351.98 725,-342.71 724.88,-334.11"/>
<polygon fill="black" stroke="black" points="728.38,-334.05 724.74,-324.1 721.38,-334.15 728.38,-334.05"/>
</g>
<!-- HITs/graph -->
<g id="node34" class="node">
<title>HITs/graph</title>
<ellipse fill="none" stroke="black" cx="474.49" cy="-666" rx="51.19" ry="18"/>
<text text-anchor="middle" x="474.49" y="-662.3" font-family="Times,serif" font-size="14.00">HITs/graph</text>
</g>
<!-- types/heq&#45;&gt;HITs/graph -->
<g id="edge31" class="edge">
<title>types/heq&#45;&gt;HITs/graph</title>
<path fill="none" stroke="black" d="M493.84,-791.87C490.09,-767.67 483.2,-723.21 478.74,-694.39"/>
<polygon fill="black" stroke="black" points="482.14,-693.54 477.15,-684.19 475.23,-694.61 482.14,-693.54"/>
</g>
<!-- theorems/funext -->
<g id="node35" class="node">
<title>theorems/funext</title>
<ellipse fill="none" stroke="black" cx="664.49" cy="-738" rx="68.49" ry="18"/>
<text text-anchor="middle" x="664.49" y="-734.3" font-family="Times,serif" font-size="14.00">theorems/funext</text>
</g>
<!-- types/heq&#45;&gt;theorems/funext -->
<g id="edge32" class="edge">
<title>types/heq&#45;&gt;theorems/funext</title>
<path fill="none" stroke="black" d="M526.14,-796.65C552.23,-785.77 590.59,-769.79 620.31,-757.41"/>
<polygon fill="black" stroke="black" points="621.74,-760.61 629.62,-753.53 619.04,-754.14 621.74,-760.61"/>
</g>
<!-- types/unit&#45;&gt;structures -->
<g id="edge39" class="edge">
<title>types/unit&#45;&gt;structures</title>
<path fill="none" stroke="black" d="M623.56,-653.91C660.75,-641.8 720.4,-622.38 760.96,-609.17"/>
<polygon fill="black" stroke="black" points="762.16,-612.46 770.58,-606.04 759.99,-605.81 762.16,-612.46"/>
</g>
<!-- HITs/suspension -->
<g id="node41" class="node">
<title>HITs/suspension</title>
<ellipse fill="none" stroke="black" cx="340.49" cy="-522" rx="69.59" ry="18"/>
<text text-anchor="middle" x="340.49" y="-518.3" font-family="Times,serif" font-size="14.00">HITs/suspension</text>
</g>
<!-- types/unit&#45;&gt;HITs/suspension -->
<g id="edge40" class="edge">
<title>types/unit&#45;&gt;HITs/suspension</title>
<path fill="none" stroke="black" d="M590.67,-647.73C591.03,-627.69 588.36,-594.99 569.49,-576 547.71,-554.07 471.52,-539.54 412.94,-531.32"/>
<polygon fill="black" stroke="black" points="413.34,-527.85 402.96,-529.96 412.4,-534.78 413.34,-527.85"/>
</g>
<!-- types/sigma&#45;&gt;structures -->
<g id="edge38" class="edge">
<title>types/sigma&#45;&gt;structures</title>
<path fill="none" stroke="black" d="M804.49,-719.87C804.49,-695.67 804.49,-651.21 804.49,-622.39"/>
<polygon fill="black" stroke="black" points="807.99,-622.19 804.49,-612.19 800.99,-622.19 807.99,-622.19"/>
</g>
<!-- HITs/colimit -->
<g id="node45" class="node">
<title>HITs/colimit</title>
<ellipse fill="none" stroke="black" cx="673.49" cy="-594" rx="56.59" ry="18"/>
<text text-anchor="middle" x="673.49" y="-590.3" font-family="Times,serif" font-size="14.00">HITs/colimit</text>
</g>
<!-- HITs/graph&#45;&gt;HITs/colimit -->
<g id="edge48" class="edge">
<title>HITs/graph&#45;&gt;HITs/colimit</title>
<path fill="none" stroke="black" d="M509.61,-652.65C542.35,-641.13 591.39,-623.88 627.29,-611.25"/>
<polygon fill="black" stroke="black" points="628.77,-614.44 637.04,-607.82 626.45,-607.84 628.77,-614.44"/>
</g>
<!-- HITs/generalized -->
<g id="node46" class="node">
<title>HITs/generalized</title>
<ellipse fill="none" stroke="black" cx="489.49" cy="-594" rx="71.49" ry="18"/>
<text text-anchor="middle" x="489.49" y="-590.3" font-family="Times,serif" font-size="14.00">HITs/generalized</text>
</g>
<!-- HITs/graph&#45;&gt;HITs/generalized -->
<g id="edge49" class="edge">
<title>HITs/graph&#45;&gt;HITs/generalized</title>
<path fill="none" stroke="black" d="M478.2,-647.7C479.85,-639.98 481.84,-630.71 483.68,-622.11"/>
<polygon fill="black" stroke="black" points="487.15,-622.62 485.83,-612.1 480.31,-621.15 487.15,-622.62"/>
</g>
<!-- HITs/pushout -->
<g id="node47" class="node">
<title>HITs/pushout</title>
<ellipse fill="none" stroke="black" cx="340.49" cy="-594" rx="59.29" ry="18"/>
<text text-anchor="middle" x="340.49" y="-590.3" font-family="Times,serif" font-size="14.00">HITs/pushout</text>
</g>
<!-- HITs/graph&#45;&gt;HITs/pushout -->
<g id="edge50" class="edge">
<title>HITs/graph&#45;&gt;HITs/pushout</title>
<path fill="none" stroke="black" d="M447.05,-650.67C427.22,-640.31 400.18,-626.18 378.31,-614.75"/>
<polygon fill="black" stroke="black" points="379.77,-611.57 369.28,-610.04 376.53,-617.77 379.77,-611.57"/>
</g>
<!-- HITs/graph&#45;&gt;HITs/quotient -->
<g id="edge51" class="edge">
<title>HITs/graph&#45;&gt;HITs/quotient</title>
<path fill="none" stroke="black" d="M427.59,-658.57C374.71,-650.35 293.36,-634.43 272.49,-612 238.62,-575.59 237.03,-513.78 239.42,-478.27"/>
<polygon fill="black" stroke="black" points="242.92,-478.41 240.26,-468.15 235.94,-477.83 242.92,-478.41"/>
</g>
<!-- types/product -->
<g id="node40" class="node">
<title>types/product</title>
<ellipse fill="none" stroke="black" cx="713.49" cy="-666" rx="58.49" ry="18"/>
<text text-anchor="middle" x="713.49" y="-662.3" font-family="Times,serif" font-size="14.00">types/product</text>
</g>
<!-- theorems/funext&#45;&gt;types/product -->
<g id="edge75" class="edge">
<title>theorems/funext&#45;&gt;types/product</title>
<path fill="none" stroke="black" d="M676.35,-720.05C682.19,-711.71 689.35,-701.49 695.82,-692.25"/>
<polygon fill="black" stroke="black" points="698.87,-693.99 701.74,-683.79 693.14,-689.97 698.87,-693.99"/>
</g>
<!-- types/integer -->
<g id="node36" class="node">
<title>types/integer</title>
<ellipse fill="none" stroke="black" cx="334.49" cy="-378" rx="55.79" ry="18"/>
<text text-anchor="middle" x="334.49" y="-374.3" font-family="Times,serif" font-size="14.00">types/integer</text>
</g>
<!-- types/integer&#45;&gt;algebra/group -->
<g id="edge33" class="edge">
<title>types/integer&#45;&gt;algebra/group</title>
<path fill="none" stroke="black" d="M327.62,-359.87C317.82,-335.46 299.74,-290.43 288.18,-261.64"/>
<polygon fill="black" stroke="black" points="291.36,-260.17 284.39,-252.19 284.87,-262.77 291.36,-260.17"/>
</g>
<!-- HITs/circle -->
<g id="node37" class="node">
<title>HITs/circle</title>
<ellipse fill="none" stroke="black" cx="418.49" cy="-306" rx="50.89" ry="18"/>
<text text-anchor="middle" x="418.49" y="-302.3" font-family="Times,serif" font-size="14.00">HITs/circle</text>
</g>
<!-- types/integer&#45;&gt;HITs/circle -->
<g id="edge34" class="edge">
<title>types/integer&#45;&gt;HITs/circle</title>
<path fill="none" stroke="black" d="M353.97,-360.76C365.19,-351.42 379.44,-339.55 391.69,-329.33"/>
<polygon fill="black" stroke="black" points="393.96,-332 399.4,-322.91 389.48,-326.62 393.96,-332"/>
</g>
<!-- HITs/circle&#45;&gt;algebra/Z -->
<g id="edge41" class="edge">
<title>HITs/circle&#45;&gt;algebra/Z</title>
<path fill="none" stroke="black" d="M445.19,-290.55C459.92,-281.31 477.42,-268.06 488.49,-252 501.23,-233.52 507.8,-208.77 511.15,-190.07"/>
<polygon fill="black" stroke="black" points="514.62,-190.53 512.73,-180.11 507.71,-189.43 514.62,-190.53"/>
</g>
<!-- theorems/hopf -->
<g id="node42" class="node">
<title>theorems/hopf</title>
<ellipse fill="none" stroke="black" cx="797.49" cy="-234" rx="61.99" ry="18"/>
<text text-anchor="middle" x="797.49" y="-230.3" font-family="Times,serif" font-size="14.00">theorems/hopf</text>
</g>
<!-- HITs/circle&#45;&gt;theorems/hopf -->
<g id="edge42" class="edge">
<title>HITs/circle&#45;&gt;theorems/hopf</title>
<path fill="none" stroke="black" d="M462.34,-296.9C530.03,-284.4 660.16,-260.36 736.84,-246.2"/>
<polygon fill="black" stroke="black" points="737.63,-249.62 746.83,-244.36 736.36,-242.73 737.63,-249.62"/>
</g>
<!-- HITs/moebius -->
<g id="node43" class="node">
<title>HITs/moebius</title>
<ellipse fill="none" stroke="black" cx="417.49" cy="-234" rx="61.99" ry="18"/>
<text text-anchor="middle" x="417.49" y="-230.3" font-family="Times,serif" font-size="14.00">HITs/moebius</text>
</g>
<!-- HITs/circle&#45;&gt;HITs/moebius -->
<g id="edge43" class="edge">
<title>HITs/circle&#45;&gt;HITs/moebius</title>
<path fill="none" stroke="black" d="M418.24,-287.7C418.13,-279.98 418,-270.71 417.88,-262.11"/>
<polygon fill="black" stroke="black" points="421.38,-262.05 417.74,-252.1 414.38,-262.15 421.38,-262.05"/>
</g>
<!-- HITs/reals -->
<g id="node44" class="node">
<title>HITs/reals</title>
<ellipse fill="none" stroke="black" cx="147.49" cy="-234" rx="48.19" ry="18"/>
<text text-anchor="middle" x="147.49" y="-230.3" font-family="Times,serif" font-size="14.00">HITs/reals</text>
</g>
<!-- HITs/circle&#45;&gt;HITs/reals -->
<g id="edge44" class="edge">
<title>HITs/circle&#45;&gt;HITs/reals</title>
<path fill="none" stroke="black" d="M377.76,-295.04C335.4,-284.6 267.18,-267.58 208.49,-252 203.89,-250.78 199.09,-249.48 194.3,-248.17"/>
<polygon fill="black" stroke="black" points="195.12,-244.77 184.55,-245.48 193.26,-251.51 195.12,-244.77"/>
</g>
<!-- theorems/nat&#45;&gt;types/integer -->
<g id="edge76" class="edge">
<title>theorems/nat&#45;&gt;types/integer</title>
<path fill="none" stroke="black" d="M712.1,-437.64C703.97,-435.61 695.49,-433.63 687.49,-432 586.2,-411.41 467.04,-395.15 396.31,-386.32"/>
<polygon fill="black" stroke="black" points="396.58,-382.83 386.23,-385.07 395.72,-389.77 396.58,-382.83"/>
</g>
<!-- HITs/int -->
<g id="node62" class="node">
<title>HITs/int</title>
<ellipse fill="none" stroke="black" cx="547.49" cy="-378" rx="40.09" ry="18"/>
<text text-anchor="middle" x="547.49" y="-374.3" font-family="Times,serif" font-size="14.00">HITs/int</text>
</g>
<!-- theorems/nat&#45;&gt;HITs/int -->
<g id="edge77" class="edge">
<title>theorems/nat&#45;&gt;HITs/int</title>
<path fill="none" stroke="black" d="M716.19,-436.32C680,-424.03 625.24,-405.42 588.01,-392.77"/>
<polygon fill="black" stroke="black" points="589.06,-389.43 578.47,-389.53 586.81,-396.06 589.06,-389.43"/>
</g>
<!-- types/precategory -->
<g id="node39" class="node">
<title>types/precategory</title>
<ellipse fill="none" stroke="black" cx="880.49" cy="-378" rx="73.39" ry="18"/>
<text text-anchor="middle" x="880.49" y="-374.3" font-family="Times,serif" font-size="14.00">types/precategory</text>
</g>
<!-- types/precategory&#45;&gt;types/category -->
<g id="edge36" class="edge">
<title>types/precategory&#45;&gt;types/category</title>
<path fill="none" stroke="black" d="M875.79,-359.7C873.68,-351.9 871.13,-342.51 868.77,-333.83"/>
<polygon fill="black" stroke="black" points="872.13,-332.84 866.13,-324.1 865.38,-334.67 872.13,-332.84"/>
</g>
<!-- types/product&#45;&gt;structures -->
<g id="edge37" class="edge">
<title>types/product&#45;&gt;structures</title>
<path fill="none" stroke="black" d="M734.14,-649.12C746.65,-639.5 762.77,-627.1 776.42,-616.59"/>
<polygon fill="black" stroke="black" points="778.76,-619.21 784.55,-610.34 774.49,-613.66 778.76,-619.21"/>
</g>
<!-- HITs/suspension&#45;&gt;HITs/circle -->
<g id="edge61" class="edge">
<title>HITs/suspension&#45;&gt;HITs/circle</title>
<path fill="none" stroke="black" d="M338.24,-503.67C336.64,-484.75 336.67,-454.19 349.49,-432 363.19,-408.29 384.52,-418.93 399.49,-396 411.48,-377.64 416.05,-353.04 417.73,-334.35"/>
<polygon fill="black" stroke="black" points="421.24,-334.34 418.42,-324.12 414.25,-333.87 421.24,-334.34"/>
</g>
<!-- HITs/join -->
<g id="node52" class="node">
<title>HITs/join</title>
<ellipse fill="none" stroke="black" cx="81.49" cy="-450" rx="44.69" ry="18"/>
<text text-anchor="middle" x="81.49" y="-446.3" font-family="Times,serif" font-size="14.00">HITs/join</text>
</g>
<!-- HITs/suspension&#45;&gt;HITs/join -->
<g id="edge62" class="edge">
<title>HITs/suspension&#45;&gt;HITs/join</title>
<path fill="none" stroke="black" d="M293.13,-508.76C252.56,-498.19 192.6,-482.41 140.49,-468 135.92,-466.73 131.15,-465.4 126.39,-464.05"/>
<polygon fill="black" stroke="black" points="127.29,-460.66 116.71,-461.28 125.37,-467.39 127.29,-460.66"/>
</g>
<!-- HITs/colimit&#45;&gt;HITs/merely -->
<g id="edge45" class="edge">
<title>HITs/colimit&#45;&gt;HITs/merely</title>
<path fill="none" stroke="black" d="M652.62,-577.12C640.15,-567.63 624.13,-555.44 610.45,-545.03"/>
<polygon fill="black" stroke="black" points="612.36,-542.09 602.28,-538.82 608.12,-547.66 612.36,-542.09"/>
</g>
<!-- HITs/colimit&#45;&gt;types/nat -->
<g id="edge46" class="edge">
<title>HITs/colimit&#45;&gt;types/nat</title>
<path fill="none" stroke="black" d="M679.3,-576.05C682,-568.18 685.28,-558.62 688.3,-549.79"/>
<polygon fill="black" stroke="black" points="691.64,-550.87 691.57,-540.28 685.01,-548.6 691.64,-550.87"/>
</g>
<!-- HITs/generalized&#45;&gt;HITs/merely -->
<g id="edge47" class="edge">
<title>HITs/generalized&#45;&gt;HITs/merely</title>
<path fill="none" stroke="black" d="M510.83,-576.76C523.23,-567.33 539.01,-555.32 552.52,-545.04"/>
<polygon fill="black" stroke="black" points="554.75,-547.75 560.59,-538.91 550.51,-542.18 554.75,-547.75"/>
</g>
<!-- HITs/pushout&#45;&gt;HITs/suspension -->
<g id="edge59" class="edge">
<title>HITs/pushout&#45;&gt;HITs/suspension</title>
<path fill="none" stroke="black" d="M340.49,-575.7C340.49,-567.98 340.49,-558.71 340.49,-550.11"/>
<polygon fill="black" stroke="black" points="343.99,-550.1 340.49,-540.1 336.99,-550.1 343.99,-550.1"/>
</g>
<!-- HITs/quotient&#45;&gt;algebra/group -->
<g id="edge60" class="edge">
<title>HITs/quotient&#45;&gt;algebra/group</title>
<path fill="none" stroke="black" d="M245.3,-431.85C251.36,-394.75 265.75,-306.81 273.06,-262.1"/>
<polygon fill="black" stroke="black" points="276.51,-262.67 274.67,-252.23 269.6,-261.54 276.51,-262.67"/>
</g>
<!-- cubical/path -->
<g id="node57" class="node">
<title>cubical/path</title>
<ellipse fill="none" stroke="black" cx="1394.49" cy="-378" rx="53.89" ry="18"/>
<text text-anchor="middle" x="1394.49" y="-374.3" font-family="Times,serif" font-size="14.00">cubical/path</text>
</g>
<!-- cubical/cubes&#45;&gt;cubical/path -->
<g id="edge65" class="edge">
<title>cubical/cubes&#45;&gt;cubical/path</title>
<path fill="none" stroke="black" d="M1391.48,-431.7C1391.92,-423.98 1392.45,-414.71 1392.94,-406.11"/>
<polygon fill="black" stroke="black" points="1396.44,-406.29 1393.51,-396.1 1389.45,-405.89 1396.44,-406.29"/>
</g>
<!-- theorems/prop&#45;&gt;algebra/eilenberg_maclane -->
<g id="edge78" class="edge">
<title>theorems/prop&#45;&gt;algebra/eilenberg_maclane</title>
<path fill="none" stroke="black" d="M952.08,-433.28C979.79,-415 1027.33,-384.25 1069.49,-360 1099.48,-342.75 1120.56,-353.58 1138.49,-324 1146.79,-310.32 1143.2,-303.29 1138.49,-288 1127.1,-251.01 1121.25,-238.13 1089.49,-216 1056.99,-193.35 1015.76,-180.36 978.25,-172.91"/>
<polygon fill="black" stroke="black" points="978.76,-169.45 968.29,-171.05 977.47,-176.33 978.76,-169.45"/>
</g>
<!-- theorems/prop&#45;&gt;types/ens -->
<g id="edge79" class="edge">
<title>theorems/prop&#45;&gt;types/ens</title>
<path fill="none" stroke="black" d="M890.31,-435.83C855.35,-423.78 803.71,-405.97 767.57,-393.51"/>
<polygon fill="black" stroke="black" points="768.41,-390.1 757.82,-390.15 766.13,-396.72 768.41,-390.1"/>
</g>
<!-- theorems/prop&#45;&gt;HITs/circle -->
<g id="edge80" class="edge">
<title>theorems/prop&#45;&gt;HITs/circle</title>
<path fill="none" stroke="black" d="M877.22,-439.88C813.84,-428.35 709.77,-408.49 672.49,-396 637.05,-384.13 631.39,-373.37 596.49,-360 554.11,-343.76 504.52,-329.36 468.46,-319.68"/>
<polygon fill="black" stroke="black" points="469.23,-316.26 458.66,-317.08 467.43,-323.03 469.23,-316.26"/>
</g>
<!-- theorems/prop&#45;&gt;types/precategory -->
<g id="edge81" class="edge">
<title>theorems/prop&#45;&gt;types/precategory</title>
<path fill="none" stroke="black" d="M916.87,-432.05C911.15,-423.71 904.14,-413.49 897.81,-404.25"/>
<polygon fill="black" stroke="black" points="900.55,-402.06 892,-395.79 894.77,-406.02 900.55,-402.06"/>
</g>
<!-- theorems/classical -->
<g id="node61" class="node">
<title>theorems/classical</title>
<ellipse fill="none" stroke="black" cx="1054.49" cy="-306" rx="75.29" ry="18"/>
<text text-anchor="middle" x="1054.49" y="-302.3" font-family="Times,serif" font-size="14.00">theorems/classical</text>
</g>
<!-- theorems/prop&#45;&gt;theorems/classical -->
<g id="edge82" class="edge">
<title>theorems/prop&#45;&gt;theorems/classical</title>
<path fill="none" stroke="black" d="M943.19,-432.43C965.27,-407.56 1007.11,-360.4 1032.73,-331.53"/>
<polygon fill="black" stroke="black" points="1035.47,-333.7 1039.49,-323.9 1030.24,-329.06 1035.47,-333.7"/>
</g>
<!-- theorems/fibration&#45;&gt;theorems/hopf -->
<g id="edge72" class="edge">
<title>theorems/fibration&#45;&gt;theorems/hopf</title>
<path fill="none" stroke="black" d="M1093.61,-367.07C1056.31,-359.19 1008.58,-345.78 970.49,-324 950.3,-312.45 952.12,-300.48 932.49,-288 907.05,-271.83 875.89,-259.19 849.91,-250.32"/>
<polygon fill="black" stroke="black" points="850.83,-246.94 840.23,-247.11 848.62,-253.58 850.83,-246.94"/>
</g>
<!-- theorems/functions&#45;&gt;algebra/group -->
<g id="edge73" class="edge">
<title>theorems/functions&#45;&gt;algebra/group</title>
<path fill="none" stroke="black" d="M175.11,-289.29C194.36,-279.08 219.61,-265.69 240.22,-254.77"/>
<polygon fill="black" stroke="black" points="242.13,-257.71 249.32,-249.94 238.85,-251.53 242.13,-257.71"/>
</g>
<!-- theorems/functions&#45;&gt;HITs/reals -->
<g id="edge74" class="edge">
<title>theorems/functions&#45;&gt;HITs/reals</title>
<path fill="none" stroke="black" d="M145.99,-287.7C146.21,-279.98 146.47,-270.71 146.72,-262.11"/>
<polygon fill="black" stroke="black" points="150.22,-262.2 147,-252.1 143.22,-262 150.22,-262.2"/>
</g>
<!-- cubical/connection -->
<g id="node56" class="node">
<title>cubical/connection</title>
<ellipse fill="none" stroke="black" cx="1398.49" cy="-306" rx="77.19" ry="18"/>
<text text-anchor="middle" x="1398.49" y="-302.3" font-family="Times,serif" font-size="14.00">cubical/connection</text>
</g>
<!-- cubical/path&#45;&gt;cubical/connection -->
<g id="edge66" class="edge">
<title>cubical/path&#45;&gt;cubical/connection</title>
<path fill="none" stroke="black" d="M1395.48,-359.7C1395.92,-351.98 1396.45,-342.71 1396.94,-334.11"/>
<polygon fill="black" stroke="black" points="1400.44,-334.29 1397.51,-324.1 1393.45,-333.89 1400.44,-334.29"/>
</g>
<!-- cubical/square -->
<g id="node59" class="node">
<title>cubical/square</title>
<ellipse fill="none" stroke="black" cx="1555.49" cy="-306" rx="61.99" ry="18"/>
<text text-anchor="middle" x="1555.49" y="-302.3" font-family="Times,serif" font-size="14.00">cubical/square</text>
</g>
<!-- cubical/path&#45;&gt;cubical/square -->
<g id="edge67" class="edge">
<title>cubical/path&#45;&gt;cubical/square</title>
<path fill="none" stroke="black" d="M1425.92,-363.34C1450.8,-352.52 1485.8,-337.3 1513.16,-325.41"/>
<polygon fill="black" stroke="black" points="1514.71,-328.55 1522.49,-321.35 1511.92,-322.13 1514.71,-328.55"/>
</g>
<!-- cubical/path&#45;&gt;cubical/V -->
<g id="edge68" class="edge">
<title>cubical/path&#45;&gt;cubical/V</title>
<path fill="none" stroke="black" d="M1366.31,-362.5C1345.39,-351.73 1316.7,-336.96 1294.17,-325.36"/>
<polygon fill="black" stroke="black" points="1295.74,-322.24 1285.25,-320.77 1292.54,-328.46 1295.74,-322.24"/>
</g>
<!-- cubical/example -->
<g id="node58" class="node">
<title>cubical/example</title>
<ellipse fill="none" stroke="black" cx="1275.49" cy="-234" rx="68.79" ry="18"/>
<text text-anchor="middle" x="1275.49" y="-230.3" font-family="Times,serif" font-size="14.00">cubical/example</text>
</g>
<!-- cubical/V&#45;&gt;cubical/example -->
<g id="edge69" class="edge">
<title>cubical/V&#45;&gt;cubical/example</title>
<path fill="none" stroke="black" d="M1262.61,-288.05C1264.5,-280.26 1266.79,-270.82 1268.92,-262.08"/>
<polygon fill="black" stroke="black" points="1272.34,-262.82 1271.3,-252.28 1265.53,-261.17 1272.34,-262.82"/>
</g>
<!-- theorems/classical&#45;&gt;algebra/category -->
<g id="edge70" class="edge">
<title>theorems/classical&#45;&gt;algebra/category</title>
<path fill="none" stroke="black" d="M1043.84,-288.05C1038.73,-279.92 1032.49,-270 1026.8,-260.94"/>
<polygon fill="black" stroke="black" points="1029.64,-258.88 1021.35,-252.28 1023.71,-262.6 1029.64,-258.88"/>
</g>
<!-- theorems/classical&#45;&gt;algebra/orgraph -->
<g id="edge71" class="edge">
<title>theorems/classical&#45;&gt;algebra/orgraph</title>
<path fill="none" stroke="black" d="M1069.34,-288.3C1083.54,-270.2 1101.2,-240.58 1089.49,-216 1066.29,-167.28 1013.78,-131.36 976.54,-110.83"/>
<polygon fill="black" stroke="black" points="977.9,-107.59 967.43,-105.95 974.59,-113.76 977.9,-107.59"/>
</g>
</g>
</svg>
