<?xml version="1.0" encoding="UTF-8" standalone="no"?>
<!DOCTYPE svg PUBLIC "-//W3C//DTD SVG 1.1//EN"
 "http://www.w3.org/Graphics/SVG/1.1/DTD/svg11.dtd">
<!-- Generated by graphviz version 2.38.0 (20140413.2041)
 -->
<!-- Title: dependency_map Pages: 1 -->
<svg width="1629pt" height="764pt"
 viewBox="0.00 0.00 1628.75 764.00" xmlns="http://www.w3.org/2000/svg" xmlns:xlink="http://www.w3.org/1999/xlink">
<g id="graph0" class="graph" transform="scale(1 1) rotate(0) translate(4 760)">
<title>dependency_map</title>
<polygon fill="white" stroke="none" points="-4,4 -4,-760 1624.75,-760 1624.75,4 -4,4"/>
<!-- proto -->
<g id="node1" class="node"><title>proto</title>
<ellipse fill="none" stroke="black" cx="492.746" cy="-738" rx="30.5947" ry="18"/>
<text text-anchor="middle" x="492.746" y="-734.3" font-family="Times New Roman,serif" font-size="14.00">proto</text>
</g>
<!-- types/eq -->
<g id="node2" class="node"><title>types/eq</title>
<ellipse fill="none" stroke="black" cx="552.746" cy="-666" rx="41.6928" ry="18"/>
<text text-anchor="middle" x="552.746" y="-662.3" font-family="Times New Roman,serif" font-size="14.00">types/eq</text>
</g>
<!-- proto&#45;&gt;types/eq -->
<g id="edge1" class="edge"><title>proto&#45;&gt;types/eq</title>
<path fill="none" stroke="black" d="M506.062,-721.465C513.689,-712.566 523.427,-701.205 532.033,-691.164"/>
<polygon fill="black" stroke="black" points="534.78,-693.338 538.631,-683.467 529.466,-688.782 534.78,-693.338"/>
</g>
<!-- support -->
<g id="node4" class="node"><title>support</title>
<ellipse fill="none" stroke="black" cx="614.746" cy="-594" rx="38.9931" ry="18"/>
<text text-anchor="middle" x="614.746" y="-590.3" font-family="Times New Roman,serif" font-size="14.00">support</text>
</g>
<!-- types/eq&#45;&gt;support -->
<g id="edge13" class="edge"><title>types/eq&#45;&gt;support</title>
<path fill="none" stroke="black" d="M567.126,-648.765C575.029,-639.841 584.979,-628.608 593.737,-618.719"/>
<polygon fill="black" stroke="black" points="596.433,-620.954 600.444,-611.147 591.193,-616.313 596.433,-620.954"/>
</g>
<!-- types/dep_path -->
<g id="node21" class="node"><title>types/dep_path</title>
<ellipse fill="none" stroke="black" cx="490.746" cy="-594" rx="66.8882" ry="18"/>
<text text-anchor="middle" x="490.746" y="-590.3" font-family="Times New Roman,serif" font-size="14.00">types/dep_path</text>
</g>
<!-- types/eq&#45;&gt;types/dep_path -->
<g id="edge14" class="edge"><title>types/eq&#45;&gt;types/dep_path</title>
<path fill="none" stroke="black" d="M538.366,-648.765C530.575,-639.969 520.796,-628.928 512.13,-619.144"/>
<polygon fill="black" stroke="black" points="514.729,-616.799 505.478,-611.633 509.488,-621.44 514.729,-616.799"/>
</g>
<!-- meta/hott_theory -->
<g id="node3" class="node"><title>meta/hott_theory</title>
<ellipse fill="none" stroke="black" cx="613.746" cy="-738" rx="72.2875" ry="18"/>
<text text-anchor="middle" x="613.746" y="-734.3" font-family="Times New Roman,serif" font-size="14.00">meta/hott_theory</text>
</g>
<!-- meta/hott_theory&#45;&gt;types/eq -->
<g id="edge2" class="edge"><title>meta/hott_theory&#45;&gt;types/eq</title>
<path fill="none" stroke="black" d="M598.979,-720.055C591.376,-711.33 581.977,-700.544 573.643,-690.981"/>
<polygon fill="black" stroke="black" points="576.165,-688.547 566.956,-683.307 570.887,-693.146 576.165,-688.547"/>
</g>
<!-- types/equiv -->
<g id="node5" class="node"><title>types/equiv</title>
<ellipse fill="none" stroke="black" cx="614.746" cy="-522" rx="51.9908" ry="18"/>
<text text-anchor="middle" x="614.746" y="-518.3" font-family="Times New Roman,serif" font-size="14.00">types/equiv</text>
</g>
<!-- support&#45;&gt;types/equiv -->
<g id="edge3" class="edge"><title>support&#45;&gt;types/equiv</title>
<path fill="none" stroke="black" d="M614.746,-575.697C614.746,-567.983 614.746,-558.712 614.746,-550.112"/>
<polygon fill="black" stroke="black" points="618.246,-550.104 614.746,-540.104 611.246,-550.104 618.246,-550.104"/>
</g>
<!-- HITs/infinitesimal -->
<g id="node12" class="node"><title>HITs/infinitesimal</title>
<ellipse fill="none" stroke="black" stroke-dasharray="5,2" cx="231.746" cy="-450" rx="74.9875" ry="18"/>
<text text-anchor="middle" x="231.746" y="-446.3" font-family="Times New Roman,serif" font-size="14.00">HITs/infinitesimal</text>
</g>
<!-- types/equiv&#45;&gt;HITs/infinitesimal -->
<g id="edge15" class="edge"><title>types/equiv&#45;&gt;HITs/infinitesimal</title>
<path fill="none" stroke="black" d="M569.093,-513.262C510.396,-503.231 405.35,-485.006 315.746,-468 309.606,-466.835 303.22,-465.594 296.834,-464.335"/>
<polygon fill="black" stroke="black" points="297.324,-460.864 286.833,-462.347 295.959,-467.729 297.324,-460.864"/>
</g>
<!-- types/coproduct -->
<g id="node19" class="node"><title>types/coproduct</title>
<ellipse fill="none" stroke="black" cx="395.746" cy="-450" rx="70.6878" ry="18"/>
<text text-anchor="middle" x="395.746" y="-446.3" font-family="Times New Roman,serif" font-size="14.00">types/coproduct</text>
</g>
<!-- types/equiv&#45;&gt;types/coproduct -->
<g id="edge16" class="edge"><title>types/equiv&#45;&gt;types/coproduct</title>
<path fill="none" stroke="black" d="M577.595,-509.125C541.857,-497.702 487.508,-480.33 447.53,-467.552"/>
<polygon fill="black" stroke="black" points="448.544,-464.202 437.953,-464.491 446.412,-470.869 448.544,-464.202"/>
</g>
<!-- types/heq -->
<g id="node22" class="node"><title>types/heq</title>
<ellipse fill="none" stroke="black" cx="773.746" cy="-450" rx="46.2923" ry="18"/>
<text text-anchor="middle" x="773.746" y="-446.3" font-family="Times New Roman,serif" font-size="14.00">types/heq</text>
</g>
<!-- types/equiv&#45;&gt;types/heq -->
<g id="edge17" class="edge"><title>types/equiv&#45;&gt;types/heq</title>
<path fill="none" stroke="black" d="M645.78,-507.337C671.326,-496.09 707.67,-480.09 735.101,-468.013"/>
<polygon fill="black" stroke="black" points="736.658,-471.152 744.4,-463.919 733.838,-464.745 736.658,-471.152"/>
</g>
<!-- types/lost -->
<g id="node23" class="node"><title>types/lost</title>
<ellipse fill="none" stroke="black" cx="883.746" cy="-450" rx="46.2923" ry="18"/>
<text text-anchor="middle" x="883.746" y="-446.3" font-family="Times New Roman,serif" font-size="14.00">types/lost</text>
</g>
<!-- types/equiv&#45;&gt;types/lost -->
<g id="edge18" class="edge"><title>types/equiv&#45;&gt;types/lost</title>
<path fill="none" stroke="black" d="M656.756,-511.343C700.04,-501.218 769.376,-484.513 828.746,-468 832.275,-467.018 835.922,-465.969 839.579,-464.892"/>
<polygon fill="black" stroke="black" points="840.641,-468.228 849.214,-462.003 838.63,-461.523 840.641,-468.228"/>
</g>
<!-- types/unit -->
<g id="node24" class="node"><title>types/unit</title>
<ellipse fill="none" stroke="black" cx="530.746" cy="-450" rx="46.2923" ry="18"/>
<text text-anchor="middle" x="530.746" y="-446.3" font-family="Times New Roman,serif" font-size="14.00">types/unit</text>
</g>
<!-- types/equiv&#45;&gt;types/unit -->
<g id="edge19" class="edge"><title>types/equiv&#45;&gt;types/unit</title>
<path fill="none" stroke="black" d="M595.685,-505.116C584.328,-495.652 569.744,-483.499 557.275,-473.108"/>
<polygon fill="black" stroke="black" points="559.365,-470.293 549.442,-466.58 554.883,-475.671 559.365,-470.293"/>
</g>
<!-- types/sigma -->
<g id="node25" class="node"><title>types/sigma</title>
<ellipse fill="none" stroke="black" cx="885.746" cy="-306" rx="53.8905" ry="18"/>
<text text-anchor="middle" x="885.746" y="-302.3" font-family="Times New Roman,serif" font-size="14.00">types/sigma</text>
</g>
<!-- types/equiv&#45;&gt;types/sigma -->
<g id="edge20" class="edge"><title>types/equiv&#45;&gt;types/sigma</title>
<path fill="none" stroke="black" d="M632.852,-504.877C653.365,-486.759 687.952,-456.657 718.746,-432 765.586,-394.493 821.752,-353.173 855.549,-328.689"/>
<polygon fill="black" stroke="black" points="857.998,-331.238 864.052,-322.543 853.897,-325.565 857.998,-331.238"/>
</g>
<!-- structures -->
<g id="node6" class="node"><title>structures</title>
<ellipse fill="none" stroke="black" cx="455.746" cy="-378" rx="46.2923" ry="18"/>
<text text-anchor="middle" x="455.746" y="-374.3" font-family="Times New Roman,serif" font-size="14.00">structures</text>
</g>
<!-- HITs/interval -->
<g id="node7" class="node"><title>HITs/interval</title>
<ellipse fill="none" stroke="black" cx="755.746" cy="-306" rx="57.6901" ry="18"/>
<text text-anchor="middle" x="755.746" y="-302.3" font-family="Times New Roman,serif" font-size="14.00">HITs/interval</text>
</g>
<!-- structures&#45;&gt;HITs/interval -->
<g id="edge4" class="edge"><title>structures&#45;&gt;HITs/interval</title>
<path fill="none" stroke="black" d="M494.98,-368.387C541.344,-358.137 620.783,-340.349 688.746,-324 693.318,-322.9 698.06,-321.739 702.814,-320.56"/>
<polygon fill="black" stroke="black" points="703.681,-323.951 712.535,-318.132 701.985,-317.16 703.681,-323.951"/>
</g>
<!-- HITs/truncation -->
<g id="node8" class="node"><title>HITs/truncation</title>
<ellipse fill="none" stroke="black" cx="1142.75" cy="-234" rx="68.4888" ry="18"/>
<text text-anchor="middle" x="1142.75" y="-230.3" font-family="Times New Roman,serif" font-size="14.00">HITs/truncation</text>
</g>
<!-- structures&#45;&gt;HITs/truncation -->
<g id="edge5" class="edge"><title>structures&#45;&gt;HITs/truncation</title>
<path fill="none" stroke="black" d="M501.763,-375.787C608.496,-372.381 869.816,-360.461 948.746,-324 969.866,-314.244 966.827,-300.02 986.746,-288 1016.12,-270.275 1052.21,-257.525 1082.28,-248.979"/>
<polygon fill="black" stroke="black" points="1083.52,-252.269 1092.23,-246.241 1081.66,-245.52 1083.52,-252.269"/>
</g>
<!-- algebra/core -->
<g id="node9" class="node"><title>algebra/core</title>
<ellipse fill="none" stroke="black" cx="338.746" cy="-306" rx="55.4913" ry="18"/>
<text text-anchor="middle" x="338.746" y="-302.3" font-family="Times New Roman,serif" font-size="14.00">algebra/core</text>
</g>
<!-- structures&#45;&gt;algebra/core -->
<g id="edge6" class="edge"><title>structures&#45;&gt;algebra/core</title>
<path fill="none" stroke="black" d="M431.503,-362.496C414.515,-352.332 391.576,-338.608 372.76,-327.351"/>
<polygon fill="black" stroke="black" points="374.55,-324.343 364.171,-322.212 370.956,-330.35 374.55,-324.343"/>
</g>
<!-- types/nat -->
<g id="node10" class="node"><title>types/nat</title>
<ellipse fill="none" stroke="black" cx="455.746" cy="-306" rx="43.5923" ry="18"/>
<text text-anchor="middle" x="455.746" y="-302.3" font-family="Times New Roman,serif" font-size="14.00">types/nat</text>
</g>
<!-- structures&#45;&gt;types/nat -->
<g id="edge7" class="edge"><title>structures&#45;&gt;types/nat</title>
<path fill="none" stroke="black" d="M455.746,-359.697C455.746,-351.983 455.746,-342.712 455.746,-334.112"/>
<polygon fill="black" stroke="black" points="459.246,-334.104 455.746,-324.104 452.246,-334.104 459.246,-334.104"/>
</g>
<!-- types/product -->
<g id="node28" class="node"><title>types/product</title>
<ellipse fill="none" stroke="black" cx="880.746" cy="-234" rx="61.99" ry="18"/>
<text text-anchor="middle" x="880.746" y="-230.3" font-family="Times New Roman,serif" font-size="14.00">types/product</text>
</g>
<!-- HITs/interval&#45;&gt;types/product -->
<g id="edge47" class="edge"><title>HITs/interval&#45;&gt;types/product</title>
<path fill="none" stroke="black" d="M782.561,-289.983C800.726,-279.811 824.939,-266.252 844.775,-255.144"/>
<polygon fill="black" stroke="black" points="846.528,-258.173 853.543,-250.233 843.108,-252.066 846.528,-258.173"/>
</g>
<!-- theorems/fibration -->
<g id="node30" class="node"><title>theorems/fibration</title>
<ellipse fill="none" stroke="black" cx="724.746" cy="-234" rx="76.8869" ry="18"/>
<text text-anchor="middle" x="724.746" y="-230.3" font-family="Times New Roman,serif" font-size="14.00">theorems/fibration</text>
</g>
<!-- HITs/interval&#45;&gt;theorems/fibration -->
<g id="edge48" class="edge"><title>HITs/interval&#45;&gt;theorems/fibration</title>
<path fill="none" stroke="black" d="M748.241,-288.055C744.715,-280.091 740.428,-270.411 736.486,-261.51"/>
<polygon fill="black" stroke="black" points="739.646,-260.002 732.396,-252.275 733.245,-262.836 739.646,-260.002"/>
</g>
<!-- theorems/prop -->
<g id="node31" class="node"><title>theorems/prop</title>
<ellipse fill="none" stroke="black" cx="989.746" cy="-162" rx="63.8893" ry="18"/>
<text text-anchor="middle" x="989.746" y="-158.3" font-family="Times New Roman,serif" font-size="14.00">theorems/prop</text>
</g>
<!-- HITs/interval&#45;&gt;theorems/prop -->
<g id="edge49" class="edge"><title>HITs/interval&#45;&gt;theorems/prop</title>
<path fill="none" stroke="black" d="M798.899,-293.83C855.709,-279.053 948.795,-254.566 951.746,-252 970.016,-236.115 979.758,-209.913 984.784,-190.043"/>
<polygon fill="black" stroke="black" points="988.254,-190.566 987.059,-180.039 981.428,-189.014 988.254,-190.566"/>
</g>
<!-- HITs/truncation&#45;&gt;theorems/prop -->
<g id="edge54" class="edge"><title>HITs/truncation&#45;&gt;theorems/prop</title>
<path fill="none" stroke="black" d="M1110.3,-218.155C1087.12,-207.55 1055.76,-193.201 1030.83,-181.796"/>
<polygon fill="black" stroke="black" points="1032.17,-178.562 1021.62,-177.584 1029.26,-184.927 1032.17,-178.562"/>
</g>
<!-- HITs/simplicial -->
<g id="node42" class="node"><title>HITs/simplicial</title>
<ellipse fill="none" stroke="black" cx="1296.75" cy="-162" rx="65.7887" ry="18"/>
<text text-anchor="middle" x="1296.75" y="-158.3" font-family="Times New Roman,serif" font-size="14.00">HITs/simplicial</text>
</g>
<!-- HITs/truncation&#45;&gt;HITs/simplicial -->
<g id="edge55" class="edge"><title>HITs/truncation&#45;&gt;HITs/simplicial</title>
<path fill="none" stroke="black" d="M1175.41,-218.155C1198.66,-207.586 1230.09,-193.297 1255.14,-181.911"/>
<polygon fill="black" stroke="black" points="1256.74,-185.028 1264.4,-177.704 1253.85,-178.655 1256.74,-185.028"/>
</g>
<!-- theorems/mere_eq_lemma -->
<g id="node43" class="node"><title>theorems/mere_eq_lemma</title>
<ellipse fill="none" stroke="black" cx="1486.75" cy="-162" rx="105.881" ry="18"/>
<text text-anchor="middle" x="1486.75" y="-158.3" font-family="Times New Roman,serif" font-size="14.00">theorems/mere_eq_lemma</text>
</g>
<!-- HITs/truncation&#45;&gt;theorems/mere_eq_lemma -->
<g id="edge56" class="edge"><title>HITs/truncation&#45;&gt;theorems/mere_eq_lemma</title>
<path fill="none" stroke="black" d="M1194.99,-222.369C1252.74,-210.618 1346.23,-191.593 1411.78,-178.254"/>
<polygon fill="black" stroke="black" points="1412.55,-181.671 1421.65,-176.247 1411.15,-174.811 1412.55,-181.671"/>
</g>
<!-- theorems/graphs -->
<g id="node44" class="node"><title>theorems/graphs</title>
<ellipse fill="none" stroke="black" cx="1142.75" cy="-162" rx="70.6878" ry="18"/>
<text text-anchor="middle" x="1142.75" y="-158.3" font-family="Times New Roman,serif" font-size="14.00">theorems/graphs</text>
</g>
<!-- HITs/truncation&#45;&gt;theorems/graphs -->
<g id="edge57" class="edge"><title>HITs/truncation&#45;&gt;theorems/graphs</title>
<path fill="none" stroke="black" d="M1142.75,-215.697C1142.75,-207.983 1142.75,-198.712 1142.75,-190.112"/>
<polygon fill="black" stroke="black" points="1146.25,-190.104 1142.75,-180.104 1139.25,-190.104 1146.25,-190.104"/>
</g>
<!-- algebra/group -->
<g id="node17" class="node"><title>algebra/group</title>
<ellipse fill="none" stroke="black" cx="175.746" cy="-234" rx="60.3893" ry="18"/>
<text text-anchor="middle" x="175.746" y="-230.3" font-family="Times New Roman,serif" font-size="14.00">algebra/group</text>
</g>
<!-- algebra/core&#45;&gt;algebra/group -->
<g id="edge8" class="edge"><title>algebra/core&#45;&gt;algebra/group</title>
<path fill="none" stroke="black" d="M306.542,-291.17C281.229,-280.3 245.753,-265.064 218.133,-253.203"/>
<polygon fill="black" stroke="black" points="219.29,-249.891 208.72,-249.161 216.528,-256.323 219.29,-249.891"/>
</g>
<!-- HITs/circle -->
<g id="node11" class="node"><title>HITs/circle</title>
<ellipse fill="none" stroke="black" stroke-dasharray="5,2" cx="382.746" cy="-90" rx="51.9908" ry="18"/>
<text text-anchor="middle" x="382.746" y="-86.3" font-family="Times New Roman,serif" font-size="14.00">HITs/circle</text>
</g>
<!-- types/nat&#45;&gt;HITs/circle -->
<g id="edge26" class="edge"><title>types/nat&#45;&gt;HITs/circle</title>
<path fill="none" stroke="black" d="M422.037,-294.453C402.125,-286.287 378.565,-272.794 366.746,-252 342.72,-209.73 358.499,-151.016 371.239,-117.42"/>
<polygon fill="black" stroke="black" points="374.603,-118.432 375.048,-107.847 368.099,-115.844 374.603,-118.432"/>
</g>
<!-- HITs/ntrunc -->
<g id="node13" class="node"><title>HITs/ntrunc</title>
<ellipse fill="none" stroke="black" stroke-dasharray="5,2" cx="322.746" cy="-18" rx="55.4913" ry="18"/>
<text text-anchor="middle" x="322.746" y="-14.3" font-family="Times New Roman,serif" font-size="14.00">HITs/ntrunc</text>
</g>
<!-- HITs/circle&#45;&gt;HITs/ntrunc -->
<g id="edge36" class="edge"><title>HITs/circle&#45;&gt;HITs/ntrunc</title>
<path fill="none" stroke="black" d="M368.527,-72.411C361.054,-63.6933 351.756,-52.8454 343.495,-43.2077"/>
<polygon fill="black" stroke="black" points="346.028,-40.7848 336.863,-35.4699 340.713,-45.3403 346.028,-40.7848"/>
</g>
<!-- theorems/hopf -->
<g id="node16" class="node"><title>theorems/hopf</title>
<ellipse fill="none" stroke="black" stroke-dasharray="5,2" cx="459.746" cy="-18" rx="63.8893" ry="18"/>
<text text-anchor="middle" x="459.746" y="-14.3" font-family="Times New Roman,serif" font-size="14.00">theorems/hopf</text>
</g>
<!-- HITs/circle&#45;&gt;theorems/hopf -->
<g id="edge37" class="edge"><title>HITs/circle&#45;&gt;theorems/hopf</title>
<path fill="none" stroke="black" d="M400.605,-72.7646C410.543,-63.7297 423.087,-52.3262 434.062,-42.3487"/>
<polygon fill="black" stroke="black" points="436.672,-44.7063 441.717,-35.3898 431.963,-39.5268 436.672,-44.7063"/>
</g>
<!-- theorems/ua -->
<g id="node14" class="node"><title>theorems/ua</title>
<ellipse fill="none" stroke="black" stroke-dasharray="5,2" cx="853.746" cy="-162" rx="54.6905" ry="18"/>
<text text-anchor="middle" x="853.746" y="-158.3" font-family="Times New Roman,serif" font-size="14.00">theorems/ua</text>
</g>
<!-- theorems/ua&#45;&gt;HITs/circle -->
<g id="edge66" class="edge"><title>theorems/ua&#45;&gt;HITs/circle</title>
<path fill="none" stroke="black" d="M813.988,-149.582C806.004,-147.532 797.641,-145.556 789.746,-144 667.639,-119.938 522.7,-104.039 442.921,-96.3644"/>
<polygon fill="black" stroke="black" points="442.864,-92.8433 432.578,-95.3805 442.201,-99.8118 442.864,-92.8433"/>
</g>
<!-- cubical/V -->
<g id="node15" class="node"><title>cubical/V</title>
<ellipse fill="none" stroke="black" stroke-dasharray="5,2" cx="1063.75" cy="-18" rx="45.4919" ry="18"/>
<text text-anchor="middle" x="1063.75" y="-14.3" font-family="Times New Roman,serif" font-size="14.00">cubical/V</text>
</g>
<!-- theorems/ua&#45;&gt;cubical/V -->
<g id="edge67" class="edge"><title>theorems/ua&#45;&gt;cubical/V</title>
<path fill="none" stroke="black" d="M876.619,-145.533C914.63,-119.831 990.815,-68.3149 1033.32,-39.576"/>
<polygon fill="black" stroke="black" points="1035.53,-42.3075 1041.85,-33.8066 1031.6,-36.5088 1035.53,-42.3075"/>
</g>
<!-- algebra/homology -->
<g id="node18" class="node"><title>algebra/homology</title>
<ellipse fill="none" stroke="black" cx="160.746" cy="-162" rx="75.2868" ry="18"/>
<text text-anchor="middle" x="160.746" y="-158.3" font-family="Times New Roman,serif" font-size="14.00">algebra/homology</text>
</g>
<!-- algebra/group&#45;&gt;algebra/homology -->
<g id="edge9" class="edge"><title>algebra/group&#45;&gt;algebra/homology</title>
<path fill="none" stroke="black" d="M172.038,-215.697C170.385,-207.983 168.398,-198.712 166.555,-190.112"/>
<polygon fill="black" stroke="black" points="169.929,-189.149 164.411,-180.104 163.084,-190.616 169.929,-189.149"/>
</g>
<!-- types/coproduct&#45;&gt;structures -->
<g id="edge10" class="edge"><title>types/coproduct&#45;&gt;structures</title>
<path fill="none" stroke="black" d="M410.27,-432.055C417.748,-423.33 426.993,-412.544 435.191,-402.981"/>
<polygon fill="black" stroke="black" points="437.918,-405.177 441.768,-395.307 432.603,-400.622 437.918,-405.177"/>
</g>
<!-- types/integer -->
<g id="node20" class="node"><title>types/integer</title>
<ellipse fill="none" stroke="black" cx="276.746" cy="-378" rx="56.59" ry="18"/>
<text text-anchor="middle" x="276.746" y="-374.3" font-family="Times New Roman,serif" font-size="14.00">types/integer</text>
</g>
<!-- types/coproduct&#45;&gt;types/integer -->
<g id="edge11" class="edge"><title>types/coproduct&#45;&gt;types/integer</title>
<path fill="none" stroke="black" d="M369.04,-433.291C351.962,-423.245 329.642,-410.116 311.23,-399.285"/>
<polygon fill="black" stroke="black" points="312.939,-396.23 302.545,-394.176 309.39,-402.263 312.939,-396.23"/>
</g>
<!-- types/integer&#45;&gt;algebra/core -->
<g id="edge23" class="edge"><title>types/integer&#45;&gt;algebra/core</title>
<path fill="none" stroke="black" d="M291.439,-360.411C299.16,-351.693 308.768,-340.845 317.305,-331.208"/>
<polygon fill="black" stroke="black" points="320.148,-333.276 324.158,-323.47 314.908,-328.635 320.148,-333.276"/>
</g>
<!-- types/integer&#45;&gt;HITs/circle -->
<g id="edge24" class="edge"><title>types/integer&#45;&gt;HITs/circle</title>
<path fill="none" stroke="black" d="M273.721,-359.972C271.108,-341.836 268.622,-312.437 274.746,-288 291.613,-220.685 337.202,-151.781 363.442,-116.012"/>
<polygon fill="black" stroke="black" points="366.501,-117.764 369.667,-107.653 360.887,-113.583 366.501,-117.764"/>
</g>
<!-- HITs/reals -->
<g id="node27" class="node"><title>HITs/reals</title>
<ellipse fill="none" stroke="black" cx="48.7457" cy="-234" rx="48.9926" ry="18"/>
<text text-anchor="middle" x="48.7457" y="-230.3" font-family="Times New Roman,serif" font-size="14.00">HITs/reals</text>
</g>
<!-- types/integer&#45;&gt;HITs/reals -->
<g id="edge25" class="edge"><title>types/integer&#45;&gt;HITs/reals</title>
<path fill="none" stroke="black" d="M223.2,-371.997C184.751,-366.007 133.598,-352.856 97.7457,-324 77.7626,-307.917 64.6704,-281.385 57.0888,-261.466"/>
<polygon fill="black" stroke="black" points="60.3735,-260.257 53.7113,-252.018 53.7821,-262.613 60.3735,-260.257"/>
</g>
<!-- types/dep_path&#45;&gt;types/equiv -->
<g id="edge12" class="edge"><title>types/dep_path&#45;&gt;types/equiv</title>
<path fill="none" stroke="black" d="M518.265,-577.465C536.374,-567.242 560.238,-553.771 579.701,-542.783"/>
<polygon fill="black" stroke="black" points="581.589,-545.737 588.576,-537.773 578.147,-539.641 581.589,-545.737"/>
</g>
<!-- types/heq&#45;&gt;HITs/interval -->
<g id="edge21" class="edge"><title>types/heq&#45;&gt;HITs/interval</title>
<path fill="none" stroke="black" d="M771.574,-431.871C768.507,-407.67 762.871,-363.211 759.218,-334.393"/>
<polygon fill="black" stroke="black" points="762.654,-333.67 757.925,-324.189 755.71,-334.55 762.654,-333.67"/>
</g>
<!-- HITs/graph -->
<g id="node26" class="node"><title>HITs/graph</title>
<ellipse fill="none" stroke="black" cx="1199.75" cy="-378" rx="52.7911" ry="18"/>
<text text-anchor="middle" x="1199.75" y="-374.3" font-family="Times New Roman,serif" font-size="14.00">HITs/graph</text>
</g>
<!-- types/heq&#45;&gt;HITs/graph -->
<g id="edge22" class="edge"><title>types/heq&#45;&gt;HITs/graph</title>
<path fill="none" stroke="black" d="M807.553,-437.633C814.508,-435.554 821.822,-433.554 828.746,-432 936.973,-407.703 1065.59,-392.262 1139.44,-384.658"/>
<polygon fill="black" stroke="black" points="1139.89,-388.13 1149.48,-383.637 1139.18,-381.166 1139.89,-388.13"/>
</g>
<!-- types/unit&#45;&gt;structures -->
<g id="edge33" class="edge"><title>types/unit&#45;&gt;structures</title>
<path fill="none" stroke="black" d="M513.727,-433.116C503.85,-423.897 491.239,-412.127 480.302,-401.919"/>
<polygon fill="black" stroke="black" points="482.396,-399.086 472.697,-394.821 477.619,-404.203 482.396,-399.086"/>
</g>
<!-- types/unit&#45;&gt;types/nat -->
<g id="edge34" class="edge"><title>types/unit&#45;&gt;types/nat</title>
<path fill="none" stroke="black" d="M497.247,-437.529C460.658,-424.666 406.457,-404.496 400.746,-396 391.819,-382.721 394.486,-374.725 400.746,-360 406.026,-347.578 415.803,-336.655 425.665,-328.003"/>
<polygon fill="black" stroke="black" points="427.999,-330.616 433.509,-321.566 423.558,-325.205 427.999,-330.616"/>
</g>
<!-- HITs/suspension -->
<g id="node33" class="node"><title>HITs/suspension</title>
<ellipse fill="none" stroke="black" cx="448.746" cy="-234" rx="72.5877" ry="18"/>
<text text-anchor="middle" x="448.746" y="-230.3" font-family="Times New Roman,serif" font-size="14.00">HITs/suspension</text>
</g>
<!-- types/unit&#45;&gt;HITs/suspension -->
<g id="edge35" class="edge"><title>types/unit&#45;&gt;HITs/suspension</title>
<path fill="none" stroke="black" d="M532.157,-431.837C533.909,-401.052 534.044,-335.255 508.746,-288 502.431,-276.204 492.381,-265.786 482.298,-257.376"/>
<polygon fill="black" stroke="black" points="484.301,-254.499 474.275,-251.075 479.978,-260.004 484.301,-254.499"/>
</g>
<!-- types/sigma&#45;&gt;theorems/fibration -->
<g id="edge29" class="edge"><title>types/sigma&#45;&gt;theorems/fibration</title>
<path fill="none" stroke="black" d="M854.321,-291.337C829.927,-280.731 795.81,-265.897 768.707,-254.114"/>
<polygon fill="black" stroke="black" points="770.007,-250.862 759.44,-250.085 767.215,-257.282 770.007,-250.862"/>
</g>
<!-- types/sigma&#45;&gt;theorems/prop -->
<g id="edge30" class="edge"><title>types/sigma&#45;&gt;theorems/prop</title>
<path fill="none" stroke="black" d="M926.188,-293.902C947.349,-285.874 971.538,-272.711 984.746,-252 996.347,-233.809 996.795,-209.036 994.797,-190.245"/>
<polygon fill="black" stroke="black" points="998.253,-189.677 993.448,-180.234 991.315,-190.612 998.253,-189.677"/>
</g>
<!-- HITs/colimit -->
<g id="node34" class="node"><title>HITs/colimit</title>
<ellipse fill="none" stroke="black" cx="1052.75" cy="-306" rx="56.59" ry="18"/>
<text text-anchor="middle" x="1052.75" y="-302.3" font-family="Times New Roman,serif" font-size="14.00">HITs/colimit</text>
</g>
<!-- HITs/graph&#45;&gt;HITs/colimit -->
<g id="edge40" class="edge"><title>HITs/graph&#45;&gt;HITs/colimit</title>
<path fill="none" stroke="black" d="M1170.35,-363.003C1147.84,-352.283 1116.57,-337.392 1091.93,-325.66"/>
<polygon fill="black" stroke="black" points="1093.38,-322.473 1082.85,-321.333 1090.37,-328.793 1093.38,-322.473"/>
</g>
<!-- HITs/generalized -->
<g id="node35" class="node"><title>HITs/generalized</title>
<ellipse fill="none" stroke="black" cx="1199.75" cy="-306" rx="72.2875" ry="18"/>
<text text-anchor="middle" x="1199.75" y="-302.3" font-family="Times New Roman,serif" font-size="14.00">HITs/generalized</text>
</g>
<!-- HITs/graph&#45;&gt;HITs/generalized -->
<g id="edge41" class="edge"><title>HITs/graph&#45;&gt;HITs/generalized</title>
<path fill="none" stroke="black" d="M1199.75,-359.697C1199.75,-351.983 1199.75,-342.712 1199.75,-334.112"/>
<polygon fill="black" stroke="black" points="1203.25,-334.104 1199.75,-324.104 1196.25,-334.104 1203.25,-334.104"/>
</g>
<!-- HITs/int -->
<g id="node36" class="node"><title>HITs/int</title>
<ellipse fill="none" stroke="black" cx="1499.75" cy="-306" rx="40.8928" ry="18"/>
<text text-anchor="middle" x="1499.75" y="-302.3" font-family="Times New Roman,serif" font-size="14.00">HITs/int</text>
</g>
<!-- HITs/graph&#45;&gt;HITs/int -->
<g id="edge42" class="edge"><title>HITs/graph&#45;&gt;HITs/int</title>
<path fill="none" stroke="black" d="M1245.76,-368.943C1296.21,-359.716 1379.37,-343.349 1449.75,-324 1452.88,-323.137 1456.11,-322.187 1459.35,-321.189"/>
<polygon fill="black" stroke="black" points="1460.53,-324.486 1468.98,-318.099 1458.39,-317.82 1460.53,-324.486"/>
</g>
<!-- HITs/pushout -->
<g id="node37" class="node"><title>HITs/pushout</title>
<ellipse fill="none" stroke="black" cx="617.746" cy="-306" rx="61.99" ry="18"/>
<text text-anchor="middle" x="617.746" y="-302.3" font-family="Times New Roman,serif" font-size="14.00">HITs/pushout</text>
</g>
<!-- HITs/graph&#45;&gt;HITs/pushout -->
<g id="edge43" class="edge"><title>HITs/graph&#45;&gt;HITs/pushout</title>
<path fill="none" stroke="black" d="M1148.31,-373.914C1055.83,-367.867 855.57,-352.496 688.746,-324 683.358,-323.08 677.77,-321.987 672.203,-320.806"/>
<polygon fill="black" stroke="black" points="672.773,-317.348 662.253,-318.604 671.26,-324.182 672.773,-317.348"/>
</g>
<!-- HITs/moebius -->
<g id="node38" class="node"><title>HITs/moebius</title>
<ellipse fill="none" stroke="black" cx="1422.75" cy="-18" rx="63.0888" ry="18"/>
<text text-anchor="middle" x="1422.75" y="-14.3" font-family="Times New Roman,serif" font-size="14.00">HITs/moebius</text>
</g>
<!-- HITs/graph&#45;&gt;HITs/moebius -->
<g id="edge44" class="edge"><title>HITs/graph&#45;&gt;HITs/moebius</title>
<path fill="none" stroke="black" d="M1251.14,-373.813C1335.73,-367.815 1499.92,-352.782 1549.75,-324 1593.56,-298.689 1620.75,-285.6 1620.75,-235 1620.75,-235 1620.75,-235 1620.75,-161 1620.75,-90.8211 1537.59,-51.9653 1479.06,-33.3078"/>
<polygon fill="black" stroke="black" points="1479.75,-29.8604 1469.17,-30.2703 1477.7,-36.5519 1479.75,-29.8604"/>
</g>
<!-- types/precategory -->
<g id="node39" class="node"><title>types/precategory</title>
<ellipse fill="none" stroke="black" cx="1365.75" cy="-306" rx="75.2868" ry="18"/>
<text text-anchor="middle" x="1365.75" y="-302.3" font-family="Times New Roman,serif" font-size="14.00">types/precategory</text>
</g>
<!-- HITs/graph&#45;&gt;types/precategory -->
<g id="edge45" class="edge"><title>HITs/graph&#45;&gt;types/precategory</title>
<path fill="none" stroke="black" d="M1231.75,-363.503C1257.15,-352.795 1292.94,-337.703 1321.14,-325.809"/>
<polygon fill="black" stroke="black" points="1322.53,-329.02 1330.39,-321.909 1319.81,-322.57 1322.53,-329.02"/>
</g>
<!-- types/product&#45;&gt;theorems/ua -->
<g id="edge27" class="edge"><title>types/product&#45;&gt;theorems/ua</title>
<path fill="none" stroke="black" d="M874.21,-216.055C871.171,-208.176 867.483,-198.617 864.081,-189.794"/>
<polygon fill="black" stroke="black" points="867.273,-188.346 860.409,-180.275 860.742,-190.865 867.273,-188.346"/>
</g>
<!-- cubical/cubes -->
<g id="node29" class="node"><title>cubical/cubes</title>
<ellipse fill="none" stroke="black" cx="720.746" cy="-162" rx="60.3893" ry="18"/>
<text text-anchor="middle" x="720.746" y="-158.3" font-family="Times New Roman,serif" font-size="14.00">cubical/cubes</text>
</g>
<!-- types/product&#45;&gt;cubical/cubes -->
<g id="edge28" class="edge"><title>types/product&#45;&gt;cubical/cubes</title>
<path fill="none" stroke="black" d="M847.981,-218.666C823.309,-207.871 789.298,-192.992 762.647,-181.332"/>
<polygon fill="black" stroke="black" points="763.757,-177.997 753.193,-177.196 760.951,-184.41 763.757,-177.997"/>
</g>
<!-- cubical/path -->
<g id="node46" class="node"><title>cubical/path</title>
<ellipse fill="none" stroke="black" cx="815.746" cy="-90" rx="54.6905" ry="18"/>
<text text-anchor="middle" x="815.746" y="-86.3" font-family="Times New Roman,serif" font-size="14.00">cubical/path</text>
</g>
<!-- cubical/cubes&#45;&gt;cubical/path -->
<g id="edge58" class="edge"><title>cubical/cubes&#45;&gt;cubical/path</title>
<path fill="none" stroke="black" d="M742.303,-145.116C755.178,-135.629 771.721,-123.439 785.846,-113.031"/>
<polygon fill="black" stroke="black" points="788.3,-115.571 794.274,-106.821 784.147,-109.936 788.3,-115.571"/>
</g>
<!-- theorems/fibration&#45;&gt;theorems/hopf -->
<g id="edge64" class="edge"><title>theorems/fibration&#45;&gt;theorems/hopf</title>
<path fill="none" stroke="black" d="M701.425,-216.697C686.94,-206.416 668.041,-192.722 651.746,-180 591.178,-132.712 522.782,-74.0289 486.198,-42.1901"/>
<polygon fill="black" stroke="black" points="488.297,-39.3773 478.46,-35.4434 483.697,-44.6534 488.297,-39.3773"/>
</g>
<!-- types/swale -->
<g id="node32" class="node"><title>types/swale</title>
<ellipse fill="none" stroke="black" cx="159.746" cy="-306" rx="52.7911" ry="18"/>
<text text-anchor="middle" x="159.746" y="-302.3" font-family="Times New Roman,serif" font-size="14.00">types/swale</text>
</g>
<!-- types/swale&#45;&gt;algebra/group -->
<g id="edge31" class="edge"><title>types/swale&#45;&gt;algebra/group</title>
<path fill="none" stroke="black" d="M163.701,-287.697C165.464,-279.983 167.583,-270.712 169.549,-262.112"/>
<polygon fill="black" stroke="black" points="173.02,-262.633 171.836,-252.104 166.196,-261.073 173.02,-262.633"/>
</g>
<!-- types/swale&#45;&gt;HITs/reals -->
<g id="edge32" class="edge"><title>types/swale&#45;&gt;HITs/reals</title>
<path fill="none" stroke="black" d="M135.66,-289.811C119.697,-279.744 98.5636,-266.417 81.1331,-255.425"/>
<polygon fill="black" stroke="black" points="82.7282,-252.293 72.4027,-249.919 78.9942,-258.214 82.7282,-252.293"/>
</g>
<!-- HITs/suspension&#45;&gt;HITs/circle -->
<g id="edge53" class="edge"><title>HITs/suspension&#45;&gt;HITs/circle</title>
<path fill="none" stroke="black" d="M440.785,-215.871C429.387,-191.35 408.324,-146.032 394.951,-117.259"/>
<polygon fill="black" stroke="black" points="398.124,-115.782 390.735,-108.189 391.776,-118.733 398.124,-115.782"/>
</g>
<!-- HITs/colimit&#45;&gt;HITs/truncation -->
<g id="edge38" class="edge"><title>HITs/colimit&#45;&gt;HITs/truncation</title>
<path fill="none" stroke="black" d="M1073.17,-289.116C1085.19,-279.763 1100.6,-267.782 1113.85,-257.472"/>
<polygon fill="black" stroke="black" points="1116.03,-260.209 1121.78,-251.307 1111.74,-254.684 1116.03,-260.209"/>
</g>
<!-- HITs/generalized&#45;&gt;HITs/truncation -->
<g id="edge39" class="edge"><title>HITs/generalized&#45;&gt;HITs/truncation</title>
<path fill="none" stroke="black" d="M1185.95,-288.055C1179.02,-279.543 1170.49,-269.068 1162.84,-259.681"/>
<polygon fill="black" stroke="black" points="1165.45,-257.333 1156.42,-251.789 1160.02,-261.753 1165.45,-257.333"/>
</g>
<!-- HITs/rat -->
<g id="node40" class="node"><title>HITs/rat</title>
<ellipse fill="none" stroke="black" cx="1499.75" cy="-234" rx="41.6928" ry="18"/>
<text text-anchor="middle" x="1499.75" y="-230.3" font-family="Times New Roman,serif" font-size="14.00">HITs/rat</text>
</g>
<!-- HITs/int&#45;&gt;HITs/rat -->
<g id="edge46" class="edge"><title>HITs/int&#45;&gt;HITs/rat</title>
<path fill="none" stroke="black" d="M1499.75,-287.697C1499.75,-279.983 1499.75,-270.712 1499.75,-262.112"/>
<polygon fill="black" stroke="black" points="1503.25,-262.104 1499.75,-252.104 1496.25,-262.104 1503.25,-262.104"/>
</g>
<!-- HITs/pushout&#45;&gt;HITs/reals -->
<g id="edge50" class="edge"><title>HITs/pushout&#45;&gt;HITs/reals</title>
<path fill="none" stroke="black" d="M565.726,-296.177C547.715,-293.311 527.375,-290.284 508.746,-288 330.698,-266.167 282.993,-285.387 106.746,-252 102.57,-251.209 98.2643,-250.243 93.9737,-249.177"/>
<polygon fill="black" stroke="black" points="94.6219,-245.728 84.0585,-246.543 92.8248,-252.493 94.6219,-245.728"/>
</g>
<!-- HITs/pushout&#45;&gt;HITs/suspension -->
<g id="edge51" class="edge"><title>HITs/pushout&#45;&gt;HITs/suspension</title>
<path fill="none" stroke="black" d="M583.546,-290.834C557.636,-280.103 521.807,-265.262 493.599,-253.578"/>
<polygon fill="black" stroke="black" points="494.929,-250.341 484.351,-249.748 492.25,-256.808 494.929,-250.341"/>
</g>
<!-- HITs/join -->
<g id="node41" class="node"><title>HITs/join</title>
<ellipse fill="none" stroke="black" cx="584.746" cy="-234" rx="45.4919" ry="18"/>
<text text-anchor="middle" x="584.746" y="-230.3" font-family="Times New Roman,serif" font-size="14.00">HITs/join</text>
</g>
<!-- HITs/pushout&#45;&gt;HITs/join -->
<g id="edge52" class="edge"><title>HITs/pushout&#45;&gt;HITs/join</title>
<path fill="none" stroke="black" d="M609.757,-288.055C605.947,-279.973 601.303,-270.121 597.055,-261.112"/>
<polygon fill="black" stroke="black" points="600.091,-259.342 592.66,-251.789 593.759,-262.327 600.091,-259.342"/>
</g>
<!-- cubical/connection -->
<g id="node45" class="node"><title>cubical/connection</title>
<ellipse fill="none" stroke="black" cx="920.746" cy="-18" rx="79.0865" ry="18"/>
<text text-anchor="middle" x="920.746" y="-14.3" font-family="Times New Roman,serif" font-size="14.00">cubical/connection</text>
</g>
<!-- cubical/path&#45;&gt;cubical/V -->
<g id="edge59" class="edge"><title>cubical/path&#45;&gt;cubical/V</title>
<path fill="none" stroke="black" d="M856.891,-78.1071C896.038,-67.6473 956.543,-51.2313 1008.75,-36 1012.26,-34.9739 1015.9,-33.893 1019.55,-32.7942"/>
<polygon fill="black" stroke="black" points="1020.63,-36.1258 1029.18,-29.8688 1018.59,-29.4284 1020.63,-36.1258"/>
</g>
<!-- cubical/path&#45;&gt;HITs/moebius -->
<g id="edge60" class="edge"><title>cubical/path&#45;&gt;HITs/moebius</title>
<path fill="none" stroke="black" d="M866.454,-83.1522C975.51,-70.5758 1232.38,-40.9529 1355.13,-26.7972"/>
<polygon fill="black" stroke="black" points="1355.63,-30.2634 1365.16,-25.6408 1354.83,-23.3095 1355.63,-30.2634"/>
</g>
<!-- cubical/path&#45;&gt;cubical/connection -->
<g id="edge61" class="edge"><title>cubical/path&#45;&gt;cubical/connection</title>
<path fill="none" stroke="black" d="M838.788,-73.6382C853.152,-64.0623 871.866,-51.5867 887.784,-40.9745"/>
<polygon fill="black" stroke="black" points="889.915,-43.76 896.294,-35.3008 886.032,-37.9357 889.915,-43.76"/>
</g>
<!-- cubical/example -->
<g id="node47" class="node"><title>cubical/example</title>
<ellipse fill="none" stroke="black" cx="610.746" cy="-18" rx="68.7879" ry="18"/>
<text text-anchor="middle" x="610.746" y="-14.3" font-family="Times New Roman,serif" font-size="14.00">cubical/example</text>
</g>
<!-- cubical/path&#45;&gt;cubical/example -->
<g id="edge62" class="edge"><title>cubical/path&#45;&gt;cubical/example</title>
<path fill="none" stroke="black" d="M779.096,-76.4854C746.006,-65.1863 697.037,-48.4654 660.433,-35.9662"/>
<polygon fill="black" stroke="black" points="661.53,-32.6427 650.936,-32.7234 659.268,-39.2672 661.53,-32.6427"/>
</g>
<!-- cubical/square -->
<g id="node48" class="node"><title>cubical/square</title>
<ellipse fill="none" stroke="black" cx="760.746" cy="-18" rx="63.0888" ry="18"/>
<text text-anchor="middle" x="760.746" y="-14.3" font-family="Times New Roman,serif" font-size="14.00">cubical/square</text>
</g>
<!-- cubical/path&#45;&gt;cubical/square -->
<g id="edge63" class="edge"><title>cubical/path&#45;&gt;cubical/square</title>
<path fill="none" stroke="black" d="M802.711,-72.411C796.029,-63.9056 787.753,-53.3724 780.321,-43.9138"/>
<polygon fill="black" stroke="black" points="782.999,-41.657 774.068,-35.9562 777.495,-45.9818 782.999,-41.657"/>
</g>
<!-- theorems/functions -->
<g id="node49" class="node"><title>theorems/functions</title>
<ellipse fill="none" stroke="black" cx="751.746" cy="-594" rx="79.8859" ry="18"/>
<text text-anchor="middle" x="751.746" y="-590.3" font-family="Times New Roman,serif" font-size="14.00">theorems/functions</text>
</g>
<!-- theorems/functions&#45;&gt;types/equiv -->
<g id="edge65" class="edge"><title>theorems/functions&#45;&gt;types/equiv</title>
<path fill="none" stroke="black" d="M721,-577.291C700.429,-566.78 673.253,-552.894 651.534,-541.797"/>
<polygon fill="black" stroke="black" points="653.092,-538.663 642.595,-537.229 649.907,-544.896 653.092,-538.663"/>
</g>
<!-- theorems/topology -->
<g id="node50" class="node"><title>theorems/topology</title>
<ellipse fill="none" stroke="black" cx="782.746" cy="-738" rx="79.0865" ry="18"/>
<text text-anchor="middle" x="782.746" y="-734.3" font-family="Times New Roman,serif" font-size="14.00">theorems/topology</text>
</g>
</g>
</svg>
