<?xml version="1.0" encoding="UTF-8" standalone="no"?>
<!DOCTYPE svg PUBLIC "-//W3C//DTD SVG 1.1//EN"
 "http://www.w3.org/Graphics/SVG/1.1/DTD/svg11.dtd">
<!-- Generated by graphviz version 2.43.0 (0)
 -->
<!-- Title: dependency_map Pages: 1 -->
<svg width="1947pt" height="1052pt"
 viewBox="0.00 0.00 1946.74 1052.00" xmlns="http://www.w3.org/2000/svg" xmlns:xlink="http://www.w3.org/1999/xlink">
<g id="graph0" class="graph" transform="scale(1 1) rotate(0) translate(4 1048)">
<title>dependency_map</title>
<polygon fill="white" stroke="transparent" points="-4,4 -4,-1048 1942.74,-1048 1942.74,4 -4,4"/>
<!-- proto -->
<g id="node1" class="node">
<title>proto</title>
<ellipse fill="none" stroke="black" cx="1307.14" cy="-1026" rx="36" ry="18"/>
<text text-anchor="middle" x="1307.14" y="-1022.3" font-family="Times,serif" font-size="14.00">proto</text>
</g>
<!-- types/eq -->
<g id="node2" class="node">
<title>types/eq</title>
<ellipse fill="none" stroke="black" cx="1379.14" cy="-954" rx="50.09" ry="18"/>
<text text-anchor="middle" x="1379.14" y="-950.3" font-family="Times,serif" font-size="14.00">types/eq</text>
</g>
<!-- proto&#45;&gt;types/eq -->
<g id="edge1" class="edge">
<title>proto&#45;&gt;types/eq</title>
<path fill="none" stroke="black" d="M1323.12,-1009.46C1332.52,-1000.32 1344.59,-988.59 1355.12,-978.35"/>
<polygon fill="black" stroke="black" points="1357.73,-980.7 1362.46,-971.22 1352.85,-975.68 1357.73,-980.7"/>
</g>
<!-- support -->
<g id="node4" class="node">
<title>support</title>
<ellipse fill="none" stroke="black" cx="1379.14" cy="-882" rx="46.59" ry="18"/>
<text text-anchor="middle" x="1379.14" y="-878.3" font-family="Times,serif" font-size="14.00">support</text>
</g>
<!-- types/eq&#45;&gt;support -->
<g id="edge19" class="edge">
<title>types/eq&#45;&gt;support</title>
<path fill="none" stroke="black" d="M1379.14,-935.7C1379.14,-927.98 1379.14,-918.71 1379.14,-910.11"/>
<polygon fill="black" stroke="black" points="1382.64,-910.1 1379.14,-900.1 1375.64,-910.1 1382.64,-910.1"/>
</g>
<!-- meta/hott_theory -->
<g id="node3" class="node">
<title>meta/hott_theory</title>
<ellipse fill="none" stroke="black" cx="1452.14" cy="-1026" rx="90.98" ry="18"/>
<text text-anchor="middle" x="1452.14" y="-1022.3" font-family="Times,serif" font-size="14.00">meta/hott_theory</text>
</g>
<!-- meta/hott_theory&#45;&gt;types/eq -->
<g id="edge2" class="edge">
<title>meta/hott_theory&#45;&gt;types/eq</title>
<path fill="none" stroke="black" d="M1434.47,-1008.05C1425.19,-999.16 1413.67,-988.11 1403.55,-978.41"/>
<polygon fill="black" stroke="black" points="1405.79,-975.7 1396.15,-971.31 1400.94,-980.75 1405.79,-975.7"/>
</g>
<!-- types/equiv -->
<g id="node5" class="node">
<title>types/equiv</title>
<ellipse fill="none" stroke="black" cx="1379.14" cy="-810" rx="64.19" ry="18"/>
<text text-anchor="middle" x="1379.14" y="-806.3" font-family="Times,serif" font-size="14.00">types/equiv</text>
</g>
<!-- support&#45;&gt;types/equiv -->
<g id="edge3" class="edge">
<title>support&#45;&gt;types/equiv</title>
<path fill="none" stroke="black" d="M1379.14,-863.7C1379.14,-855.98 1379.14,-846.71 1379.14,-838.11"/>
<polygon fill="black" stroke="black" points="1382.64,-838.1 1379.14,-828.1 1375.64,-838.1 1382.64,-838.1"/>
</g>
<!-- types/coproduct -->
<g id="node23" class="node">
<title>types/coproduct</title>
<ellipse fill="none" stroke="black" cx="1078.14" cy="-666" rx="85.29" ry="18"/>
<text text-anchor="middle" x="1078.14" y="-662.3" font-family="Times,serif" font-size="14.00">types/coproduct</text>
</g>
<!-- types/equiv&#45;&gt;types/coproduct -->
<g id="edge22" class="edge">
<title>types/equiv&#45;&gt;types/coproduct</title>
<path fill="none" stroke="black" d="M1347.78,-794.21C1293.47,-768.58 1181.86,-715.93 1120.64,-687.05"/>
<polygon fill="black" stroke="black" points="1121.8,-683.72 1111.26,-682.62 1118.81,-690.06 1121.8,-683.72"/>
</g>
<!-- types/heq -->
<g id="node26" class="node">
<title>types/heq</title>
<ellipse fill="none" stroke="black" cx="1337.14" cy="-738" rx="55.79" ry="18"/>
<text text-anchor="middle" x="1337.14" y="-734.3" font-family="Times,serif" font-size="14.00">types/heq</text>
</g>
<!-- types/equiv&#45;&gt;types/heq -->
<g id="edge23" class="edge">
<title>types/equiv&#45;&gt;types/heq</title>
<path fill="none" stroke="black" d="M1368.98,-792.05C1364.02,-783.8 1357.96,-773.7 1352.47,-764.54"/>
<polygon fill="black" stroke="black" points="1355.36,-762.56 1347.22,-755.79 1349.36,-766.16 1355.36,-762.56"/>
</g>
<!-- HITs/infinitesimal -->
<g id="node27" class="node">
<title>HITs/infinitesimal</title>
<ellipse fill="none" stroke="black" cx="1542.14" cy="-738" rx="92.88" ry="18"/>
<text text-anchor="middle" x="1542.14" y="-734.3" font-family="Times,serif" font-size="14.00">HITs/infinitesimal</text>
</g>
<!-- types/equiv&#45;&gt;HITs/infinitesimal -->
<g id="edge24" class="edge">
<title>types/equiv&#45;&gt;HITs/infinitesimal</title>
<path fill="none" stroke="black" d="M1412.92,-794.5C1437.08,-784.12 1469.9,-770.03 1496.41,-758.64"/>
<polygon fill="black" stroke="black" points="1498.06,-761.74 1505.86,-754.58 1495.3,-755.31 1498.06,-761.74"/>
</g>
<!-- types/lost -->
<g id="node28" class="node">
<title>types/lost</title>
<ellipse fill="none" stroke="black" cx="1709.14" cy="-738" rx="55.79" ry="18"/>
<text text-anchor="middle" x="1709.14" y="-734.3" font-family="Times,serif" font-size="14.00">types/lost</text>
</g>
<!-- types/equiv&#45;&gt;types/lost -->
<g id="edge25" class="edge">
<title>types/equiv&#45;&gt;types/lost</title>
<path fill="none" stroke="black" d="M1431.38,-799.49C1484.97,-789.51 1570.65,-772.94 1644.14,-756 1648.55,-754.98 1653.1,-753.89 1657.67,-752.76"/>
<polygon fill="black" stroke="black" points="1658.78,-756.09 1667.62,-750.25 1657.07,-749.3 1658.78,-756.09"/>
</g>
<!-- types/unit -->
<g id="node29" class="node">
<title>types/unit</title>
<ellipse fill="none" stroke="black" cx="1521.14" cy="-594" rx="57.69" ry="18"/>
<text text-anchor="middle" x="1521.14" y="-590.3" font-family="Times,serif" font-size="14.00">types/unit</text>
</g>
<!-- types/equiv&#45;&gt;types/unit -->
<g id="edge26" class="edge">
<title>types/equiv&#45;&gt;types/unit</title>
<path fill="none" stroke="black" d="M1390.28,-792.21C1415.12,-754.78 1475.12,-664.35 1504.45,-620.16"/>
<polygon fill="black" stroke="black" points="1507.44,-621.98 1510.05,-611.71 1501.61,-618.11 1507.44,-621.98"/>
</g>
<!-- types/sigma -->
<g id="node30" class="node">
<title>types/sigma</title>
<ellipse fill="none" stroke="black" cx="908.14" cy="-666" rx="66.89" ry="18"/>
<text text-anchor="middle" x="908.14" y="-662.3" font-family="Times,serif" font-size="14.00">types/sigma</text>
</g>
<!-- types/equiv&#45;&gt;types/sigma -->
<g id="edge27" class="edge">
<title>types/equiv&#45;&gt;types/sigma</title>
<path fill="none" stroke="black" d="M1334.48,-797.01C1295.9,-786.54 1238.7,-770.76 1189.14,-756 1108.17,-731.89 1014.78,-701.87 958.65,-683.58"/>
<polygon fill="black" stroke="black" points="959.55,-680.19 948.96,-680.42 957.38,-686.85 959.55,-680.19"/>
</g>
<!-- structures -->
<g id="node6" class="node">
<title>structures</title>
<ellipse fill="none" stroke="black" cx="1065.14" cy="-522" rx="59.29" ry="18"/>
<text text-anchor="middle" x="1065.14" y="-518.3" font-family="Times,serif" font-size="14.00">structures</text>
</g>
<!-- HITs/interval -->
<g id="node7" class="node">
<title>HITs/interval</title>
<ellipse fill="none" stroke="black" cx="566.14" cy="-450" rx="71.49" ry="18"/>
<text text-anchor="middle" x="566.14" y="-446.3" font-family="Times,serif" font-size="14.00">HITs/interval</text>
</g>
<!-- structures&#45;&gt;HITs/interval -->
<g id="edge4" class="edge">
<title>structures&#45;&gt;HITs/interval</title>
<path fill="none" stroke="black" d="M1012.68,-513.64C922.69,-501.02 738.79,-475.22 637.32,-460.99"/>
<polygon fill="black" stroke="black" points="637.56,-457.48 627.17,-459.56 636.58,-464.42 637.56,-457.48"/>
</g>
<!-- HITs/merely -->
<g id="node8" class="node">
<title>HITs/merely</title>
<ellipse fill="none" stroke="black" cx="1337.14" cy="-450" rx="67.69" ry="18"/>
<text text-anchor="middle" x="1337.14" y="-446.3" font-family="Times,serif" font-size="14.00">HITs/merely</text>
</g>
<!-- structures&#45;&gt;HITs/merely -->
<g id="edge5" class="edge">
<title>structures&#45;&gt;HITs/merely</title>
<path fill="none" stroke="black" d="M1108.84,-509.75C1155.44,-497.76 1229.42,-478.72 1280.47,-465.59"/>
<polygon fill="black" stroke="black" points="1281.55,-468.92 1290.36,-463.04 1279.8,-462.14 1281.55,-468.92"/>
</g>
<!-- HITs/trunc -->
<g id="node9" class="node">
<title>HITs/trunc</title>
<ellipse fill="none" stroke="black" cx="1065.14" cy="-450" rx="59.59" ry="18"/>
<text text-anchor="middle" x="1065.14" y="-446.3" font-family="Times,serif" font-size="14.00">HITs/trunc</text>
</g>
<!-- structures&#45;&gt;HITs/trunc -->
<g id="edge6" class="edge">
<title>structures&#45;&gt;HITs/trunc</title>
<path fill="none" stroke="black" d="M1065.14,-503.7C1065.14,-495.98 1065.14,-486.71 1065.14,-478.11"/>
<polygon fill="black" stroke="black" points="1068.64,-478.1 1065.14,-468.1 1061.64,-478.1 1068.64,-478.1"/>
</g>
<!-- types/nat -->
<g id="node10" class="node">
<title>types/nat</title>
<ellipse fill="none" stroke="black" cx="1197.14" cy="-450" rx="53.89" ry="18"/>
<text text-anchor="middle" x="1197.14" y="-446.3" font-family="Times,serif" font-size="14.00">types/nat</text>
</g>
<!-- structures&#45;&gt;types/nat -->
<g id="edge7" class="edge">
<title>structures&#45;&gt;types/nat</title>
<path fill="none" stroke="black" d="M1093.46,-505.98C1113.12,-495.56 1139.5,-481.57 1160.73,-470.31"/>
<polygon fill="black" stroke="black" points="1162.58,-473.29 1169.78,-465.51 1159.3,-467.11 1162.58,-473.29"/>
</g>
<!-- theorems/ua -->
<g id="node11" class="node">
<title>theorems/ua</title>
<ellipse fill="none" stroke="black" cx="896.14" cy="-450" rx="68.79" ry="18"/>
<text text-anchor="middle" x="896.14" y="-446.3" font-family="Times,serif" font-size="14.00">theorems/ua</text>
</g>
<!-- structures&#45;&gt;theorems/ua -->
<g id="edge8" class="edge">
<title>structures&#45;&gt;theorems/ua</title>
<path fill="none" stroke="black" d="M1031.35,-507C1005.3,-496.21 969.05,-481.2 940.64,-469.43"/>
<polygon fill="black" stroke="black" points="941.91,-466.17 931.33,-465.58 939.23,-472.64 941.91,-466.17"/>
</g>
<!-- cubical/cubes -->
<g id="node46" class="node">
<title>cubical/cubes</title>
<ellipse fill="none" stroke="black" cx="300.14" cy="-378" rx="73.39" ry="18"/>
<text text-anchor="middle" x="300.14" y="-374.3" font-family="Times,serif" font-size="14.00">cubical/cubes</text>
</g>
<!-- HITs/interval&#45;&gt;cubical/cubes -->
<g id="edge49" class="edge">
<title>HITs/interval&#45;&gt;cubical/cubes</title>
<path fill="none" stroke="black" d="M518.59,-436.49C473.66,-424.66 406.19,-406.91 358.13,-394.26"/>
<polygon fill="black" stroke="black" points="358.74,-390.8 348.18,-391.64 356.96,-397.57 358.74,-390.8"/>
</g>
<!-- theorems/prop -->
<g id="node47" class="node">
<title>theorems/prop</title>
<ellipse fill="none" stroke="black" cx="893.14" cy="-378" rx="79.09" ry="18"/>
<text text-anchor="middle" x="893.14" y="-374.3" font-family="Times,serif" font-size="14.00">theorems/prop</text>
</g>
<!-- HITs/interval&#45;&gt;theorems/prop -->
<g id="edge50" class="edge">
<title>HITs/interval&#45;&gt;theorems/prop</title>
<path fill="none" stroke="black" d="M618.68,-437.75C675.46,-425.6 766.04,-406.21 827.47,-393.06"/>
<polygon fill="black" stroke="black" points="828.41,-396.44 837.45,-390.92 826.94,-389.59 828.41,-396.44"/>
</g>
<!-- theorems/fibration -->
<g id="node48" class="node">
<title>theorems/fibration</title>
<ellipse fill="none" stroke="black" cx="430.14" cy="-306" rx="96.68" ry="18"/>
<text text-anchor="middle" x="430.14" y="-302.3" font-family="Times,serif" font-size="14.00">theorems/fibration</text>
</g>
<!-- HITs/interval&#45;&gt;theorems/fibration -->
<g id="edge51" class="edge">
<title>HITs/interval&#45;&gt;theorems/fibration</title>
<path fill="none" stroke="black" d="M550.28,-432.43C526.35,-407.45 480.9,-359.99 453.28,-331.16"/>
<polygon fill="black" stroke="black" points="455.77,-328.7 446.33,-323.9 450.72,-333.54 455.77,-328.7"/>
</g>
<!-- HITs/merely&#45;&gt;theorems/prop -->
<g id="edge52" class="edge">
<title>HITs/merely&#45;&gt;theorems/prop</title>
<path fill="none" stroke="black" d="M1287.96,-437.57C1278.74,-435.59 1269.17,-433.65 1260.14,-432 1161.09,-413.94 1046.1,-398.17 971.6,-388.62"/>
<polygon fill="black" stroke="black" points="971.73,-385.11 961.37,-387.32 970.84,-392.06 971.73,-385.11"/>
</g>
<!-- HITs/simplicial -->
<g id="node50" class="node">
<title>HITs/simplicial</title>
<ellipse fill="none" stroke="black" cx="1337.14" cy="-378" rx="79.09" ry="18"/>
<text text-anchor="middle" x="1337.14" y="-374.3" font-family="Times,serif" font-size="14.00">HITs/simplicial</text>
</g>
<!-- HITs/merely&#45;&gt;HITs/simplicial -->
<g id="edge53" class="edge">
<title>HITs/merely&#45;&gt;HITs/simplicial</title>
<path fill="none" stroke="black" d="M1337.14,-431.7C1337.14,-423.98 1337.14,-414.71 1337.14,-406.11"/>
<polygon fill="black" stroke="black" points="1340.64,-406.1 1337.14,-396.1 1333.64,-406.1 1340.64,-406.1"/>
</g>
<!-- theorems/functions -->
<g id="node51" class="node">
<title>theorems/functions</title>
<ellipse fill="none" stroke="black" cx="1659.14" cy="-234" rx="100.98" ry="18"/>
<text text-anchor="middle" x="1659.14" y="-230.3" font-family="Times,serif" font-size="14.00">theorems/functions</text>
</g>
<!-- HITs/merely&#45;&gt;theorems/functions -->
<g id="edge54" class="edge">
<title>HITs/merely&#45;&gt;theorems/functions</title>
<path fill="none" stroke="black" d="M1399.14,-442.69C1464.63,-434.9 1562.36,-419.68 1591.14,-396 1632.52,-361.96 1649.17,-298.29 1655.51,-262.05"/>
<polygon fill="black" stroke="black" points="1658.97,-262.61 1657.11,-252.18 1652.06,-261.49 1658.97,-262.61"/>
</g>
<!-- algebra/monoid -->
<g id="node14" class="node">
<title>algebra/monoid</title>
<ellipse fill="none" stroke="black" cx="1099.14" cy="-162" rx="83.39" ry="18"/>
<text text-anchor="middle" x="1099.14" y="-158.3" font-family="Times,serif" font-size="14.00">algebra/monoid</text>
</g>
<!-- HITs/trunc&#45;&gt;algebra/monoid -->
<g id="edge59" class="edge">
<title>HITs/trunc&#45;&gt;algebra/monoid</title>
<path fill="none" stroke="black" d="M1066.09,-431.9C1067.76,-413.18 1072.38,-382.8 1085.14,-360 1096.34,-339.98 1108.4,-342.37 1122.14,-324 1143.82,-295.03 1151.44,-287.12 1160.14,-252 1163.99,-236.47 1166.78,-230.56 1160.14,-216 1154.63,-203.91 1144.85,-193.52 1134.72,-185.21"/>
<polygon fill="black" stroke="black" points="1136.66,-182.29 1126.59,-179.01 1132.41,-187.86 1136.66,-182.29"/>
</g>
<!-- HITs/quotient -->
<g id="node45" class="node">
<title>HITs/quotient</title>
<ellipse fill="none" stroke="black" cx="1508.14" cy="-378" rx="74.19" ry="18"/>
<text text-anchor="middle" x="1508.14" y="-374.3" font-family="Times,serif" font-size="14.00">HITs/quotient</text>
</g>
<!-- HITs/trunc&#45;&gt;HITs/quotient -->
<g id="edge60" class="edge">
<title>HITs/trunc&#45;&gt;HITs/quotient</title>
<path fill="none" stroke="black" d="M1108.41,-437.51C1116.9,-435.49 1125.77,-433.54 1134.14,-432 1262.3,-408.37 1296.54,-417.09 1425.14,-396 1431.43,-394.97 1437.96,-393.8 1444.48,-392.57"/>
<polygon fill="black" stroke="black" points="1445.53,-395.93 1454.68,-390.6 1444.2,-389.06 1445.53,-395.93"/>
</g>
<!-- theorems/nat -->
<g id="node35" class="node">
<title>theorems/nat</title>
<ellipse fill="none" stroke="black" cx="1167.14" cy="-378" rx="72.59" ry="18"/>
<text text-anchor="middle" x="1167.14" y="-374.3" font-family="Times,serif" font-size="14.00">theorems/nat</text>
</g>
<!-- types/nat&#45;&gt;theorems/nat -->
<g id="edge32" class="edge">
<title>types/nat&#45;&gt;theorems/nat</title>
<path fill="none" stroke="black" d="M1189.88,-432.05C1186.47,-424.09 1182.32,-414.41 1178.5,-405.51"/>
<polygon fill="black" stroke="black" points="1181.7,-404.09 1174.55,-396.28 1175.27,-406.85 1181.7,-404.09"/>
</g>
<!-- theorems/ua&#45;&gt;theorems/nat -->
<g id="edge78" class="edge">
<title>theorems/ua&#45;&gt;theorems/nat</title>
<path fill="none" stroke="black" d="M943.35,-436.81C989.31,-424.93 1059.29,-406.86 1108.74,-394.09"/>
<polygon fill="black" stroke="black" points="1109.85,-397.41 1118.65,-391.52 1108.1,-390.64 1109.85,-397.41"/>
</g>
<!-- theorems/ua&#45;&gt;theorems/prop -->
<g id="edge79" class="edge">
<title>theorems/ua&#45;&gt;theorems/prop</title>
<path fill="none" stroke="black" d="M895.4,-431.7C895.07,-423.98 894.67,-414.71 894.3,-406.11"/>
<polygon fill="black" stroke="black" points="897.8,-405.95 893.88,-396.1 890.81,-406.25 897.8,-405.95"/>
</g>
<!-- cubical/V -->
<g id="node56" class="node">
<title>cubical/V</title>
<ellipse fill="none" stroke="black" cx="85.14" cy="-234" rx="52.79" ry="18"/>
<text text-anchor="middle" x="85.14" y="-230.3" font-family="Times,serif" font-size="14.00">cubical/V</text>
</g>
<!-- theorems/ua&#45;&gt;cubical/V -->
<g id="edge80" class="edge">
<title>theorems/ua&#45;&gt;cubical/V</title>
<path fill="none" stroke="black" d="M830.2,-444.53C662.43,-433.06 231.63,-403.01 218.14,-396 160.26,-365.93 118.04,-298.6 98.06,-261.24"/>
<polygon fill="black" stroke="black" points="100.97,-259.24 93.24,-251.99 94.76,-262.47 100.97,-259.24"/>
</g>
<!-- algebra/basic -->
<g id="node12" class="node">
<title>algebra/basic</title>
<ellipse fill="none" stroke="black" cx="1078.14" cy="-234" rx="72.59" ry="18"/>
<text text-anchor="middle" x="1078.14" y="-230.3" font-family="Times,serif" font-size="14.00">algebra/basic</text>
</g>
<!-- algebra/category -->
<g id="node13" class="node">
<title>algebra/category</title>
<ellipse fill="none" stroke="black" cx="890.14" cy="-162" rx="89.08" ry="18"/>
<text text-anchor="middle" x="890.14" y="-158.3" font-family="Times,serif" font-size="14.00">algebra/category</text>
</g>
<!-- algebra/basic&#45;&gt;algebra/category -->
<g id="edge9" class="edge">
<title>algebra/basic&#45;&gt;algebra/category</title>
<path fill="none" stroke="black" d="M1039.64,-218.67C1010.92,-207.97 971.44,-193.27 940.26,-181.66"/>
<polygon fill="black" stroke="black" points="941.46,-178.37 930.87,-178.16 939.02,-184.93 941.46,-178.37"/>
</g>
<!-- algebra/basic&#45;&gt;algebra/monoid -->
<g id="edge10" class="edge">
<title>algebra/basic&#45;&gt;algebra/monoid</title>
<path fill="none" stroke="black" d="M1083.33,-215.7C1085.67,-207.9 1088.49,-198.51 1091.09,-189.83"/>
<polygon fill="black" stroke="black" points="1094.49,-190.69 1094.01,-180.1 1087.79,-188.68 1094.49,-190.69"/>
</g>
<!-- algebra/group -->
<g id="node15" class="node">
<title>algebra/group</title>
<ellipse fill="none" stroke="black" cx="1495.14" cy="-162" rx="76.09" ry="18"/>
<text text-anchor="middle" x="1495.14" y="-158.3" font-family="Times,serif" font-size="14.00">algebra/group</text>
</g>
<!-- algebra/basic&#45;&gt;algebra/group -->
<g id="edge11" class="edge">
<title>algebra/basic&#45;&gt;algebra/group</title>
<path fill="none" stroke="black" d="M1136.56,-223.19C1212.23,-210.49 1343.99,-188.37 1424.99,-174.78"/>
<polygon fill="black" stroke="black" points="1425.81,-178.19 1435.09,-173.08 1424.65,-171.28 1425.81,-178.19"/>
</g>
<!-- algebra/eilenberg_maclane -->
<g id="node16" class="node">
<title>algebra/eilenberg_maclane</title>
<ellipse fill="none" stroke="black" cx="821.14" cy="-90" rx="135.68" ry="18"/>
<text text-anchor="middle" x="821.14" y="-86.3" font-family="Times,serif" font-size="14.00">algebra/eilenberg_maclane</text>
</g>
<!-- algebra/group&#45;&gt;algebra/eilenberg_maclane -->
<g id="edge12" class="edge">
<title>algebra/group&#45;&gt;algebra/eilenberg_maclane</title>
<path fill="none" stroke="black" d="M1431.39,-152.08C1410.9,-149.34 1388.08,-146.41 1367.14,-144 1220.92,-127.2 1052.25,-111.37 941.53,-101.46"/>
<polygon fill="black" stroke="black" points="941.6,-97.95 931.33,-100.55 940.98,-104.92 941.6,-97.95"/>
</g>
<!-- algebra/finite -->
<g id="node17" class="node">
<title>algebra/finite</title>
<ellipse fill="none" stroke="black" cx="1713.14" cy="-90" rx="72.59" ry="18"/>
<text text-anchor="middle" x="1713.14" y="-86.3" font-family="Times,serif" font-size="14.00">algebra/finite</text>
</g>
<!-- algebra/group&#45;&gt;algebra/finite -->
<g id="edge13" class="edge">
<title>algebra/group&#45;&gt;algebra/finite</title>
<path fill="none" stroke="black" d="M1538.47,-147.09C1573.69,-135.78 1623.5,-119.78 1660.92,-107.77"/>
<polygon fill="black" stroke="black" points="1662.19,-111.04 1670.64,-104.65 1660.05,-104.37 1662.19,-111.04"/>
</g>
<!-- algebra/ring -->
<g id="node18" class="node">
<title>algebra/ring</title>
<ellipse fill="none" stroke="black" cx="1871.14" cy="-90" rx="67.69" ry="18"/>
<text text-anchor="middle" x="1871.14" y="-86.3" font-family="Times,serif" font-size="14.00">algebra/ring</text>
</g>
<!-- algebra/group&#45;&gt;algebra/ring -->
<g id="edge14" class="edge">
<title>algebra/group&#45;&gt;algebra/ring</title>
<path fill="none" stroke="black" d="M1553.03,-150.2C1564.34,-148.12 1576.11,-145.97 1587.14,-144 1679.49,-127.48 1703.11,-126.25 1795.14,-108 1800.53,-106.93 1806.12,-105.77 1811.72,-104.58"/>
<polygon fill="black" stroke="black" points="1812.71,-107.95 1821.75,-102.41 1811.24,-101.11 1812.71,-107.95"/>
</g>
<!-- algebra/transformational -->
<g id="node19" class="node">
<title>algebra/transformational</title>
<ellipse fill="none" stroke="black" cx="1495.14" cy="-90" rx="126.98" ry="18"/>
<text text-anchor="middle" x="1495.14" y="-86.3" font-family="Times,serif" font-size="14.00">algebra/transformational</text>
</g>
<!-- algebra/group&#45;&gt;algebra/transformational -->
<g id="edge15" class="edge">
<title>algebra/group&#45;&gt;algebra/transformational</title>
<path fill="none" stroke="black" d="M1495.14,-143.7C1495.14,-135.98 1495.14,-126.71 1495.14,-118.11"/>
<polygon fill="black" stroke="black" points="1498.64,-118.1 1495.14,-108.1 1491.64,-118.1 1498.64,-118.1"/>
</g>
<!-- algebra/Z -->
<g id="node20" class="node">
<title>algebra/Z</title>
<ellipse fill="none" stroke="black" cx="1295.14" cy="-90" rx="55.49" ry="18"/>
<text text-anchor="middle" x="1295.14" y="-86.3" font-family="Times,serif" font-size="14.00">algebra/Z</text>
</g>
<!-- algebra/group&#45;&gt;algebra/Z -->
<g id="edge16" class="edge">
<title>algebra/group&#45;&gt;algebra/Z</title>
<path fill="none" stroke="black" d="M1454.19,-146.67C1421.32,-135.16 1375.19,-119.02 1341.07,-107.08"/>
<polygon fill="black" stroke="black" points="1341.94,-103.67 1331.34,-103.67 1339.63,-110.28 1341.94,-103.67"/>
</g>
<!-- algebra/homology -->
<g id="node21" class="node">
<title>algebra/homology</title>
<ellipse fill="none" stroke="black" cx="1295.14" cy="-18" rx="93.68" ry="18"/>
<text text-anchor="middle" x="1295.14" y="-14.3" font-family="Times,serif" font-size="14.00">algebra/homology</text>
</g>
<!-- algebra/Z&#45;&gt;algebra/homology -->
<g id="edge17" class="edge">
<title>algebra/Z&#45;&gt;algebra/homology</title>
<path fill="none" stroke="black" d="M1295.14,-71.7C1295.14,-63.98 1295.14,-54.71 1295.14,-46.11"/>
<polygon fill="black" stroke="black" points="1298.64,-46.1 1295.14,-36.1 1291.64,-46.1 1298.64,-46.1"/>
</g>
<!-- types/category -->
<g id="node22" class="node">
<title>types/category</title>
<ellipse fill="none" stroke="black" cx="700.14" cy="-234" rx="79.09" ry="18"/>
<text text-anchor="middle" x="700.14" y="-230.3" font-family="Times,serif" font-size="14.00">types/category</text>
</g>
<!-- types/coproduct&#45;&gt;structures -->
<g id="edge18" class="edge">
<title>types/coproduct&#45;&gt;structures</title>
<path fill="none" stroke="black" d="M1076.57,-647.87C1074.36,-623.67 1070.29,-579.21 1067.65,-550.39"/>
<polygon fill="black" stroke="black" points="1071.11,-549.83 1066.72,-540.19 1064.14,-550.47 1071.11,-549.83"/>
</g>
<!-- types/ens -->
<g id="node24" class="node">
<title>types/ens</title>
<ellipse fill="none" stroke="black" cx="1058.14" cy="-306" rx="55.49" ry="18"/>
<text text-anchor="middle" x="1058.14" y="-302.3" font-family="Times,serif" font-size="14.00">types/ens</text>
</g>
<!-- types/ens&#45;&gt;algebra/basic -->
<g id="edge20" class="edge">
<title>types/ens&#45;&gt;algebra/basic</title>
<path fill="none" stroke="black" d="M1062.98,-288.05C1065.21,-280.26 1067.91,-270.82 1070.41,-262.08"/>
<polygon fill="black" stroke="black" points="1073.82,-262.85 1073.21,-252.28 1067.09,-260.93 1073.82,-262.85"/>
</g>
<!-- types/setquot -->
<g id="node25" class="node">
<title>types/setquot</title>
<ellipse fill="none" stroke="black" cx="913.14" cy="-234" rx="74.19" ry="18"/>
<text text-anchor="middle" x="913.14" y="-230.3" font-family="Times,serif" font-size="14.00">types/setquot</text>
</g>
<!-- types/ens&#45;&gt;types/setquot -->
<g id="edge21" class="edge">
<title>types/ens&#45;&gt;types/setquot</title>
<path fill="none" stroke="black" d="M1028.45,-290.67C1006.94,-280.28 977.61,-266.12 953.91,-254.68"/>
<polygon fill="black" stroke="black" points="955.33,-251.48 944.81,-250.29 952.29,-257.78 955.33,-251.48"/>
</g>
<!-- HITs/graph -->
<g id="node31" class="node">
<title>HITs/graph</title>
<ellipse fill="none" stroke="black" cx="1383.14" cy="-594" rx="62.29" ry="18"/>
<text text-anchor="middle" x="1383.14" y="-590.3" font-family="Times,serif" font-size="14.00">HITs/graph</text>
</g>
<!-- types/heq&#45;&gt;HITs/graph -->
<g id="edge28" class="edge">
<title>types/heq&#45;&gt;HITs/graph</title>
<path fill="none" stroke="black" d="M1347.33,-719.84C1352.98,-709.71 1359.73,-696.46 1364.14,-684 1371.3,-663.8 1376.21,-640.03 1379.24,-622.13"/>
<polygon fill="black" stroke="black" points="1382.72,-622.52 1380.85,-612.09 1375.81,-621.41 1382.72,-622.52"/>
</g>
<!-- theorems/funext -->
<g id="node32" class="node">
<title>theorems/funext</title>
<ellipse fill="none" stroke="black" cx="1268.14" cy="-666" rx="87.18" ry="18"/>
<text text-anchor="middle" x="1268.14" y="-662.3" font-family="Times,serif" font-size="14.00">theorems/funext</text>
</g>
<!-- types/heq&#45;&gt;theorems/funext -->
<g id="edge29" class="edge">
<title>types/heq&#45;&gt;theorems/funext</title>
<path fill="none" stroke="black" d="M1320.79,-720.41C1312.24,-711.73 1301.6,-700.95 1292.14,-691.34"/>
<polygon fill="black" stroke="black" points="1294.37,-688.62 1284.86,-683.96 1289.38,-693.54 1294.37,-688.62"/>
</g>
<!-- types/unit&#45;&gt;structures -->
<g id="edge36" class="edge">
<title>types/unit&#45;&gt;structures</title>
<path fill="none" stroke="black" d="M1479.16,-581.41C1470.91,-579.4 1462.29,-577.48 1454.14,-576 1312.9,-550.29 1274.43,-565.47 1133.14,-540 1128.11,-539.09 1122.89,-538.02 1117.69,-536.87"/>
<polygon fill="black" stroke="black" points="1118.29,-533.42 1107.76,-534.58 1116.71,-540.24 1118.29,-533.42"/>
</g>
<!-- HITs/suspension -->
<g id="node38" class="node">
<title>HITs/suspension</title>
<ellipse fill="none" stroke="black" cx="1659.14" cy="-450" rx="87.18" ry="18"/>
<text text-anchor="middle" x="1659.14" y="-446.3" font-family="Times,serif" font-size="14.00">HITs/suspension</text>
</g>
<!-- types/unit&#45;&gt;HITs/suspension -->
<g id="edge37" class="edge">
<title>types/unit&#45;&gt;HITs/suspension</title>
<path fill="none" stroke="black" d="M1578.19,-590.57C1614.62,-585.69 1659.35,-572.82 1683.14,-540 1696.62,-521.41 1687.45,-495.69 1676.78,-476.68"/>
<polygon fill="black" stroke="black" points="1679.68,-474.7 1671.52,-467.95 1673.68,-478.32 1679.68,-474.7"/>
</g>
<!-- types/sigma&#45;&gt;structures -->
<g id="edge35" class="edge">
<title>types/sigma&#45;&gt;structures</title>
<path fill="none" stroke="black" d="M926.46,-648.43C954.35,-623.21 1007.56,-575.08 1039.35,-546.33"/>
<polygon fill="black" stroke="black" points="1041.87,-548.77 1046.94,-539.46 1037.18,-543.57 1041.87,-548.77"/>
</g>
<!-- HITs/colimit -->
<g id="node42" class="node">
<title>HITs/colimit</title>
<ellipse fill="none" stroke="black" cx="1209.14" cy="-522" rx="66.89" ry="18"/>
<text text-anchor="middle" x="1209.14" y="-518.3" font-family="Times,serif" font-size="14.00">HITs/colimit</text>
</g>
<!-- HITs/graph&#45;&gt;HITs/colimit -->
<g id="edge45" class="edge">
<title>HITs/graph&#45;&gt;HITs/colimit</title>
<path fill="none" stroke="black" d="M1348.35,-579C1321.35,-568.14 1283.71,-553 1254.37,-541.2"/>
<polygon fill="black" stroke="black" points="1255.36,-537.82 1244.77,-537.33 1252.74,-544.31 1255.36,-537.82"/>
</g>
<!-- HITs/generalized -->
<g id="node43" class="node">
<title>HITs/generalized</title>
<ellipse fill="none" stroke="black" cx="1383.14" cy="-522" rx="89.08" ry="18"/>
<text text-anchor="middle" x="1383.14" y="-518.3" font-family="Times,serif" font-size="14.00">HITs/generalized</text>
</g>
<!-- HITs/graph&#45;&gt;HITs/generalized -->
<g id="edge46" class="edge">
<title>HITs/graph&#45;&gt;HITs/generalized</title>
<path fill="none" stroke="black" d="M1383.14,-575.7C1383.14,-567.98 1383.14,-558.71 1383.14,-550.11"/>
<polygon fill="black" stroke="black" points="1386.64,-550.1 1383.14,-540.1 1379.64,-550.1 1386.64,-550.1"/>
</g>
<!-- HITs/pushout -->
<g id="node44" class="node">
<title>HITs/pushout</title>
<ellipse fill="none" stroke="black" cx="1601.14" cy="-522" rx="72.59" ry="18"/>
<text text-anchor="middle" x="1601.14" y="-518.3" font-family="Times,serif" font-size="14.00">HITs/pushout</text>
</g>
<!-- HITs/graph&#45;&gt;HITs/pushout -->
<g id="edge47" class="edge">
<title>HITs/graph&#45;&gt;HITs/pushout</title>
<path fill="none" stroke="black" d="M1423.13,-580.16C1458.33,-568.86 1509.85,-552.31 1548.42,-539.93"/>
<polygon fill="black" stroke="black" points="1549.98,-543.1 1558.43,-536.71 1547.84,-536.44 1549.98,-543.1"/>
</g>
<!-- HITs/graph&#45;&gt;HITs/quotient -->
<g id="edge48" class="edge">
<title>HITs/graph&#45;&gt;HITs/quotient</title>
<path fill="none" stroke="black" d="M1424.31,-580.42C1444.52,-572.13 1467.42,-559.2 1481.14,-540 1509.62,-500.16 1511.96,-440.75 1510.47,-406.34"/>
<polygon fill="black" stroke="black" points="1513.94,-405.88 1509.87,-396.1 1506.96,-406.29 1513.94,-405.88"/>
</g>
<!-- types/product -->
<g id="node37" class="node">
<title>types/product</title>
<ellipse fill="none" stroke="black" cx="1204.14" cy="-594" rx="75.29" ry="18"/>
<text text-anchor="middle" x="1204.14" y="-590.3" font-family="Times,serif" font-size="14.00">types/product</text>
</g>
<!-- theorems/funext&#45;&gt;types/product -->
<g id="edge70" class="edge">
<title>theorems/funext&#45;&gt;types/product</title>
<path fill="none" stroke="black" d="M1252.65,-648.05C1244.79,-639.46 1235.1,-628.86 1226.45,-619.4"/>
<polygon fill="black" stroke="black" points="1228.82,-616.81 1219.49,-611.79 1223.66,-621.53 1228.82,-616.81"/>
</g>
<!-- types/integer -->
<g id="node33" class="node">
<title>types/integer</title>
<ellipse fill="none" stroke="black" cx="1394.14" cy="-306" rx="72.59" ry="18"/>
<text text-anchor="middle" x="1394.14" y="-302.3" font-family="Times,serif" font-size="14.00">types/integer</text>
</g>
<!-- types/integer&#45;&gt;algebra/group -->
<g id="edge30" class="edge">
<title>types/integer&#45;&gt;algebra/group</title>
<path fill="none" stroke="black" d="M1417.2,-288.86C1429.66,-279.25 1444.6,-266.19 1455.14,-252 1469.21,-233.07 1479.8,-208.41 1486.55,-189.85"/>
<polygon fill="black" stroke="black" points="1489.91,-190.83 1489.89,-180.24 1483.3,-188.53 1489.91,-190.83"/>
</g>
<!-- HITs/circle -->
<g id="node34" class="node">
<title>HITs/circle</title>
<ellipse fill="none" stroke="black" cx="1386.14" cy="-234" rx="60.39" ry="18"/>
<text text-anchor="middle" x="1386.14" y="-230.3" font-family="Times,serif" font-size="14.00">HITs/circle</text>
</g>
<!-- types/integer&#45;&gt;HITs/circle -->
<g id="edge31" class="edge">
<title>types/integer&#45;&gt;HITs/circle</title>
<path fill="none" stroke="black" d="M1392.16,-287.7C1391.28,-279.98 1390.22,-270.71 1389.24,-262.11"/>
<polygon fill="black" stroke="black" points="1392.71,-261.64 1388.1,-252.1 1385.76,-262.44 1392.71,-261.64"/>
</g>
<!-- HITs/circle&#45;&gt;algebra/Z -->
<g id="edge38" class="edge">
<title>HITs/circle&#45;&gt;algebra/Z</title>
<path fill="none" stroke="black" d="M1386.02,-215.9C1385.13,-196.91 1381.37,-166.03 1367.14,-144 1358.52,-130.65 1345.28,-119.5 1332.5,-110.93"/>
<polygon fill="black" stroke="black" points="1334.1,-107.8 1323.78,-105.41 1330.36,-113.72 1334.1,-107.8"/>
</g>
<!-- theorems/hopf -->
<g id="node39" class="node">
<title>theorems/hopf</title>
<ellipse fill="none" stroke="black" cx="666.14" cy="-162" rx="77.99" ry="18"/>
<text text-anchor="middle" x="666.14" y="-158.3" font-family="Times,serif" font-size="14.00">theorems/hopf</text>
</g>
<!-- HITs/circle&#45;&gt;theorems/hopf -->
<g id="edge39" class="edge">
<title>HITs/circle&#45;&gt;theorems/hopf</title>
<path fill="none" stroke="black" d="M1328.3,-228.71C1221.98,-220.63 988.41,-201.98 792.14,-180 775.52,-178.14 757.7,-175.89 740.85,-173.65"/>
<polygon fill="black" stroke="black" points="740.87,-170.12 730.5,-172.25 739.94,-177.05 740.87,-170.12"/>
</g>
<!-- HITs/moebius -->
<g id="node40" class="node">
<title>HITs/moebius</title>
<ellipse fill="none" stroke="black" cx="1284.14" cy="-162" rx="74.19" ry="18"/>
<text text-anchor="middle" x="1284.14" y="-158.3" font-family="Times,serif" font-size="14.00">HITs/moebius</text>
</g>
<!-- HITs/circle&#45;&gt;HITs/moebius -->
<g id="edge40" class="edge">
<title>HITs/circle&#45;&gt;HITs/moebius</title>
<path fill="none" stroke="black" d="M1363.25,-217.29C1349.41,-207.79 1331.54,-195.53 1316.29,-185.06"/>
<polygon fill="black" stroke="black" points="1317.89,-181.92 1307.66,-179.14 1313.93,-187.69 1317.89,-181.92"/>
</g>
<!-- HITs/reals -->
<g id="node41" class="node">
<title>HITs/reals</title>
<ellipse fill="none" stroke="black" cx="1654.14" cy="-162" rx="57.69" ry="18"/>
<text text-anchor="middle" x="1654.14" y="-158.3" font-family="Times,serif" font-size="14.00">HITs/reals</text>
</g>
<!-- HITs/circle&#45;&gt;HITs/reals -->
<g id="edge41" class="edge">
<title>HITs/circle&#45;&gt;HITs/reals</title>
<path fill="none" stroke="black" d="M1430.1,-221.52C1476.92,-209.29 1551.03,-189.93 1601.07,-176.86"/>
<polygon fill="black" stroke="black" points="1602.26,-180.17 1611.05,-174.26 1600.49,-173.4 1602.26,-180.17"/>
</g>
<!-- theorems/nat&#45;&gt;types/integer -->
<g id="edge71" class="edge">
<title>theorems/nat&#45;&gt;types/integer</title>
<path fill="none" stroke="black" d="M1210.91,-363.5C1247.97,-352.08 1301.21,-335.66 1340.77,-323.46"/>
<polygon fill="black" stroke="black" points="1341.98,-326.75 1350.51,-320.46 1339.92,-320.06 1341.98,-326.75"/>
</g>
<!-- HITs/int -->
<g id="node58" class="node">
<title>HITs/int</title>
<ellipse fill="none" stroke="black" cx="1255.14" cy="-306" rx="48.19" ry="18"/>
<text text-anchor="middle" x="1255.14" y="-302.3" font-family="Times,serif" font-size="14.00">HITs/int</text>
</g>
<!-- theorems/nat&#45;&gt;HITs/int -->
<g id="edge72" class="edge">
<title>theorems/nat&#45;&gt;HITs/int</title>
<path fill="none" stroke="black" d="M1188,-360.41C1199.84,-350.99 1214.81,-339.09 1227.6,-328.91"/>
<polygon fill="black" stroke="black" points="1230,-331.48 1235.64,-322.51 1225.64,-326 1230,-331.48"/>
</g>
<!-- types/precategory -->
<g id="node36" class="node">
<title>types/precategory</title>
<ellipse fill="none" stroke="black" cx="678.14" cy="-306" rx="94.78" ry="18"/>
<text text-anchor="middle" x="678.14" y="-302.3" font-family="Times,serif" font-size="14.00">types/precategory</text>
</g>
<!-- types/precategory&#45;&gt;types/category -->
<g id="edge33" class="edge">
<title>types/precategory&#45;&gt;types/category</title>
<path fill="none" stroke="black" d="M683.58,-287.7C686.03,-279.9 688.98,-270.51 691.71,-261.83"/>
<polygon fill="black" stroke="black" points="695.11,-262.69 694.77,-252.1 688.43,-260.59 695.11,-262.69"/>
</g>
<!-- types/product&#45;&gt;structures -->
<g id="edge34" class="edge">
<title>types/product&#45;&gt;structures</title>
<path fill="none" stroke="black" d="M1173.29,-577.46C1152.72,-567.1 1125.52,-553.4 1103.54,-542.34"/>
<polygon fill="black" stroke="black" points="1104.98,-539.14 1094.48,-537.77 1101.83,-545.4 1104.98,-539.14"/>
</g>
<!-- HITs/suspension&#45;&gt;HITs/circle -->
<g id="edge57" class="edge">
<title>HITs/suspension&#45;&gt;HITs/circle</title>
<path fill="none" stroke="black" d="M1648.69,-431.79C1636.51,-412.71 1615,-381.74 1591.14,-360 1540.62,-313.97 1470.71,-275.62 1426.99,-254"/>
<polygon fill="black" stroke="black" points="1428.32,-250.76 1417.8,-249.52 1425.25,-257.05 1428.32,-250.76"/>
</g>
<!-- HITs/join -->
<g id="node49" class="node">
<title>HITs/join</title>
<ellipse fill="none" stroke="black" cx="1728.14" cy="-378" rx="51.99" ry="18"/>
<text text-anchor="middle" x="1728.14" y="-374.3" font-family="Times,serif" font-size="14.00">HITs/join</text>
</g>
<!-- HITs/suspension&#45;&gt;HITs/join -->
<g id="edge58" class="edge">
<title>HITs/suspension&#45;&gt;HITs/join</title>
<path fill="none" stroke="black" d="M1675.85,-432.05C1684.53,-423.24 1695.29,-412.33 1704.79,-402.69"/>
<polygon fill="black" stroke="black" points="1707.54,-404.89 1712.07,-395.31 1702.56,-399.97 1707.54,-404.89"/>
</g>
<!-- HITs/colimit&#45;&gt;HITs/merely -->
<g id="edge42" class="edge">
<title>HITs/colimit&#45;&gt;HITs/merely</title>
<path fill="none" stroke="black" d="M1237.23,-505.64C1255.61,-495.59 1279.83,-482.34 1299.82,-471.41"/>
<polygon fill="black" stroke="black" points="1301.58,-474.44 1308.68,-466.57 1298.22,-468.3 1301.58,-474.44"/>
</g>
<!-- HITs/colimit&#45;&gt;types/nat -->
<g id="edge43" class="edge">
<title>HITs/colimit&#45;&gt;types/nat</title>
<path fill="none" stroke="black" d="M1206.18,-503.7C1204.85,-495.98 1203.26,-486.71 1201.79,-478.11"/>
<polygon fill="black" stroke="black" points="1205.21,-477.37 1200.07,-468.1 1198.31,-478.55 1205.21,-477.37"/>
</g>
<!-- HITs/generalized&#45;&gt;HITs/merely -->
<g id="edge44" class="edge">
<title>HITs/generalized&#45;&gt;HITs/merely</title>
<path fill="none" stroke="black" d="M1372.01,-504.05C1366.53,-495.71 1359.81,-485.49 1353.74,-476.25"/>
<polygon fill="black" stroke="black" points="1356.59,-474.22 1348.18,-467.79 1350.74,-478.07 1356.59,-474.22"/>
</g>
<!-- HITs/pushout&#45;&gt;HITs/suspension -->
<g id="edge55" class="edge">
<title>HITs/pushout&#45;&gt;HITs/suspension</title>
<path fill="none" stroke="black" d="M1615.18,-504.05C1622.24,-495.54 1630.91,-485.07 1638.69,-475.68"/>
<polygon fill="black" stroke="black" points="1641.55,-477.72 1645.23,-467.79 1636.16,-473.26 1641.55,-477.72"/>
</g>
<!-- HITs/quotient&#45;&gt;algebra/group -->
<g id="edge56" class="edge">
<title>HITs/quotient&#45;&gt;algebra/group</title>
<path fill="none" stroke="black" d="M1507.1,-359.85C1504.85,-322.83 1499.53,-235.18 1496.81,-190.39"/>
<polygon fill="black" stroke="black" points="1500.29,-190 1496.19,-180.23 1493.3,-190.43 1500.29,-190"/>
</g>
<!-- cubical/path -->
<g id="node53" class="node">
<title>cubical/path</title>
<ellipse fill="none" stroke="black" cx="248.14" cy="-306" rx="67.69" ry="18"/>
<text text-anchor="middle" x="248.14" y="-302.3" font-family="Times,serif" font-size="14.00">cubical/path</text>
</g>
<!-- cubical/cubes&#45;&gt;cubical/path -->
<g id="edge61" class="edge">
<title>cubical/cubes&#45;&gt;cubical/path</title>
<path fill="none" stroke="black" d="M287.55,-360.05C281.3,-351.63 273.61,-341.28 266.69,-331.97"/>
<polygon fill="black" stroke="black" points="269.39,-329.73 260.61,-323.79 263.77,-333.9 269.39,-329.73"/>
</g>
<!-- theorems/prop&#45;&gt;algebra/eilenberg_maclane -->
<g id="edge73" class="edge">
<title>theorems/prop&#45;&gt;algebra/eilenberg_maclane</title>
<path fill="none" stroke="black" d="M814.51,-375.17C730.21,-371.35 604.36,-359.65 574.14,-324 561.06,-308.57 530.41,-202.46 579.14,-144 595.93,-123.86 651.61,-110.89 705.33,-102.82"/>
<polygon fill="black" stroke="black" points="705.94,-106.26 715.33,-101.37 704.93,-99.34 705.94,-106.26"/>
</g>
<!-- theorems/prop&#45;&gt;types/ens -->
<g id="edge74" class="edge">
<title>theorems/prop&#45;&gt;types/ens</title>
<path fill="none" stroke="black" d="M928.94,-361.81C954.61,-350.92 989.26,-336.22 1016.21,-324.79"/>
<polygon fill="black" stroke="black" points="1017.93,-327.86 1025.77,-320.74 1015.19,-321.42 1017.93,-327.86"/>
</g>
<!-- theorems/prop&#45;&gt;HITs/circle -->
<g id="edge75" class="edge">
<title>theorems/prop&#45;&gt;HITs/circle</title>
<path fill="none" stroke="black" d="M954.42,-366.53C1001.12,-357.67 1066.64,-343.31 1122.14,-324 1157.44,-311.72 1163.14,-301.12 1198.14,-288 1241.58,-271.72 1292.26,-257.71 1330.06,-248.19"/>
<polygon fill="black" stroke="black" points="1331.01,-251.56 1339.86,-245.74 1329.32,-244.76 1331.01,-251.56"/>
</g>
<!-- theorems/prop&#45;&gt;types/precategory -->
<g id="edge76" class="edge">
<title>theorems/prop&#45;&gt;types/precategory</title>
<path fill="none" stroke="black" d="M849.63,-362.83C816.21,-351.95 769.81,-336.85 733.7,-325.09"/>
<polygon fill="black" stroke="black" points="734.4,-321.64 723.81,-321.87 732.24,-328.29 734.4,-321.64"/>
</g>
<!-- theorems/classical -->
<g id="node57" class="node">
<title>theorems/classical</title>
<ellipse fill="none" stroke="black" cx="888.14" cy="-306" rx="96.68" ry="18"/>
<text text-anchor="middle" x="888.14" y="-302.3" font-family="Times,serif" font-size="14.00">theorems/classical</text>
</g>
<!-- theorems/prop&#45;&gt;theorems/classical -->
<g id="edge77" class="edge">
<title>theorems/prop&#45;&gt;theorems/classical</title>
<path fill="none" stroke="black" d="M891.91,-359.7C891.36,-351.98 890.69,-342.71 890.08,-334.11"/>
<polygon fill="black" stroke="black" points="893.57,-333.83 889.36,-324.1 886.59,-334.33 893.57,-333.83"/>
</g>
<!-- theorems/fibration&#45;&gt;theorems/hopf -->
<g id="edge67" class="edge">
<title>theorems/fibration&#45;&gt;theorems/hopf</title>
<path fill="none" stroke="black" d="M463.24,-288.93C483.44,-278.85 509.62,-265.28 532.14,-252 568.18,-230.75 607.92,-203.9 634.69,-185.28"/>
<polygon fill="black" stroke="black" points="636.72,-188.13 642.91,-179.54 632.71,-182.39 636.72,-188.13"/>
</g>
<!-- theorems/functions&#45;&gt;algebra/group -->
<g id="edge68" class="edge">
<title>theorems/functions&#45;&gt;algebra/group</title>
<path fill="none" stroke="black" d="M1621.93,-217.12C1597.54,-206.71 1565.53,-193.05 1539.78,-182.05"/>
<polygon fill="black" stroke="black" points="1540.82,-178.69 1530.24,-177.98 1538.07,-185.13 1540.82,-178.69"/>
</g>
<!-- theorems/functions&#45;&gt;HITs/reals -->
<g id="edge69" class="edge">
<title>theorems/functions&#45;&gt;HITs/reals</title>
<path fill="none" stroke="black" d="M1657.91,-215.7C1657.36,-207.98 1656.69,-198.71 1656.08,-190.11"/>
<polygon fill="black" stroke="black" points="1659.57,-189.83 1655.36,-180.1 1652.59,-190.33 1659.57,-189.83"/>
</g>
<!-- cubical/connection -->
<g id="node52" class="node">
<title>cubical/connection</title>
<ellipse fill="none" stroke="black" cx="252.14" cy="-234" rx="96.68" ry="18"/>
<text text-anchor="middle" x="252.14" y="-230.3" font-family="Times,serif" font-size="14.00">cubical/connection</text>
</g>
<!-- cubical/path&#45;&gt;cubical/connection -->
<g id="edge62" class="edge">
<title>cubical/path&#45;&gt;cubical/connection</title>
<path fill="none" stroke="black" d="M249.13,-287.7C249.57,-279.98 250.1,-270.71 250.59,-262.11"/>
<polygon fill="black" stroke="black" points="254.09,-262.29 251.17,-252.1 247.1,-261.89 254.09,-262.29"/>
</g>
<!-- cubical/square -->
<g id="node55" class="node">
<title>cubical/square</title>
<ellipse fill="none" stroke="black" cx="445.14" cy="-234" rx="77.99" ry="18"/>
<text text-anchor="middle" x="445.14" y="-230.3" font-family="Times,serif" font-size="14.00">cubical/square</text>
</g>
<!-- cubical/path&#45;&gt;cubical/square -->
<g id="edge63" class="edge">
<title>cubical/path&#45;&gt;cubical/square</title>
<path fill="none" stroke="black" d="M287.06,-291.17C317.99,-280.18 361.46,-264.73 394.99,-252.82"/>
<polygon fill="black" stroke="black" points="396.36,-256.05 404.61,-249.4 394.01,-249.45 396.36,-256.05"/>
</g>
<!-- cubical/path&#45;&gt;cubical/V -->
<g id="edge64" class="edge">
<title>cubical/path&#45;&gt;cubical/V</title>
<path fill="none" stroke="black" d="M213.97,-290.33C188.25,-279.28 152.91,-264.1 125.74,-252.44"/>
<polygon fill="black" stroke="black" points="127.08,-249.2 116.51,-248.47 124.31,-255.63 127.08,-249.2"/>
</g>
<!-- cubical/example -->
<g id="node54" class="node">
<title>cubical/example</title>
<ellipse fill="none" stroke="black" cx="85.14" cy="-162" rx="85.29" ry="18"/>
<text text-anchor="middle" x="85.14" y="-158.3" font-family="Times,serif" font-size="14.00">cubical/example</text>
</g>
<!-- cubical/V&#45;&gt;cubical/example -->
<g id="edge65" class="edge">
<title>cubical/V&#45;&gt;cubical/example</title>
<path fill="none" stroke="black" d="M85.14,-215.7C85.14,-207.98 85.14,-198.71 85.14,-190.11"/>
<polygon fill="black" stroke="black" points="88.64,-190.1 85.14,-180.1 81.64,-190.1 88.64,-190.1"/>
</g>
<!-- theorems/classical&#45;&gt;algebra/category -->
<g id="edge66" class="edge">
<title>theorems/classical&#45;&gt;algebra/category</title>
<path fill="none" stroke="black" d="M861.71,-288.47C849.68,-279.35 836.69,-266.85 830.14,-252 823.69,-237.36 823.57,-230.59 830.14,-216 835.51,-204.1 845.01,-193.8 854.89,-185.53"/>
<polygon fill="black" stroke="black" points="857.1,-188.25 862.83,-179.34 852.79,-182.73 857.1,-188.25"/>
</g>
</g>
</svg>
