<?xml version="1.0" encoding="UTF-8" standalone="no"?>
<!DOCTYPE svg PUBLIC "-//W3C//DTD SVG 1.1//EN"
 "http://www.w3.org/Graphics/SVG/1.1/DTD/svg11.dtd">
<!-- Generated by graphviz version 2.38.0 (20140413.2041)
 -->
<!-- Title: dependency_map Pages: 1 -->
<svg width="1662pt" height="836pt"
 viewBox="0.00 0.00 1661.79 836.00" xmlns="http://www.w3.org/2000/svg" xmlns:xlink="http://www.w3.org/1999/xlink">
<g id="graph0" class="graph" transform="scale(1 1) rotate(0) translate(4 832)">
<title>dependency_map</title>
<polygon fill="white" stroke="none" points="-4,4 -4,-832 1657.79,-832 1657.79,4 -4,4"/>
<!-- proto -->
<g id="node1" class="node"><title>proto</title>
<ellipse fill="none" stroke="black" cx="1014.29" cy="-810" rx="30.5947" ry="18"/>
<text text-anchor="middle" x="1014.29" y="-806.3" font-family="Times New Roman,serif" font-size="14.00">proto</text>
</g>
<!-- types/eq -->
<g id="node2" class="node"><title>types/eq</title>
<ellipse fill="none" stroke="black" cx="1074.29" cy="-738" rx="41.6928" ry="18"/>
<text text-anchor="middle" x="1074.29" y="-734.3" font-family="Times New Roman,serif" font-size="14.00">types/eq</text>
</g>
<!-- proto&#45;&gt;types/eq -->
<g id="edge1" class="edge"><title>proto&#45;&gt;types/eq</title>
<path fill="none" stroke="black" d="M1027.61,-793.465C1035.24,-784.566 1044.97,-773.205 1053.58,-763.164"/>
<polygon fill="black" stroke="black" points="1056.33,-765.338 1060.18,-755.467 1051.01,-760.782 1056.33,-765.338"/>
</g>
<!-- support -->
<g id="node4" class="node"><title>support</title>
<ellipse fill="none" stroke="black" cx="1074.29" cy="-666" rx="38.9931" ry="18"/>
<text text-anchor="middle" x="1074.29" y="-662.3" font-family="Times New Roman,serif" font-size="14.00">support</text>
</g>
<!-- types/eq&#45;&gt;support -->
<g id="edge12" class="edge"><title>types/eq&#45;&gt;support</title>
<path fill="none" stroke="black" d="M1074.29,-719.697C1074.29,-711.983 1074.29,-702.712 1074.29,-694.112"/>
<polygon fill="black" stroke="black" points="1077.79,-694.104 1074.29,-684.104 1070.79,-694.104 1077.79,-694.104"/>
</g>
<!-- meta/hott_theory -->
<g id="node3" class="node"><title>meta/hott_theory</title>
<ellipse fill="none" stroke="black" cx="1135.29" cy="-810" rx="72.2875" ry="18"/>
<text text-anchor="middle" x="1135.29" y="-806.3" font-family="Times New Roman,serif" font-size="14.00">meta/hott_theory</text>
</g>
<!-- meta/hott_theory&#45;&gt;types/eq -->
<g id="edge2" class="edge"><title>meta/hott_theory&#45;&gt;types/eq</title>
<path fill="none" stroke="black" d="M1120.53,-792.055C1112.92,-783.33 1103.52,-772.544 1095.19,-762.981"/>
<polygon fill="black" stroke="black" points="1097.71,-760.547 1088.5,-755.307 1092.43,-765.146 1097.71,-760.547"/>
</g>
<!-- types/equiv -->
<g id="node5" class="node"><title>types/equiv</title>
<ellipse fill="none" stroke="black" cx="1074.29" cy="-594" rx="51.9908" ry="18"/>
<text text-anchor="middle" x="1074.29" y="-590.3" font-family="Times New Roman,serif" font-size="14.00">types/equiv</text>
</g>
<!-- support&#45;&gt;types/equiv -->
<g id="edge3" class="edge"><title>support&#45;&gt;types/equiv</title>
<path fill="none" stroke="black" d="M1074.29,-647.697C1074.29,-639.983 1074.29,-630.712 1074.29,-622.112"/>
<polygon fill="black" stroke="black" points="1077.79,-622.104 1074.29,-612.104 1070.79,-622.104 1077.79,-622.104"/>
</g>
<!-- types/coproduct -->
<g id="node15" class="node"><title>types/coproduct</title>
<ellipse fill="none" stroke="black" cx="776.293" cy="-450" rx="70.6878" ry="18"/>
<text text-anchor="middle" x="776.293" y="-446.3" font-family="Times New Roman,serif" font-size="14.00">types/coproduct</text>
</g>
<!-- types/equiv&#45;&gt;types/coproduct -->
<g id="edge13" class="edge"><title>types/equiv&#45;&gt;types/coproduct</title>
<path fill="none" stroke="black" d="M1023.51,-589.962C952.066,-584.621 827.022,-571.02 795.293,-540 779.088,-524.157 775.078,-498.127 774.684,-478.3"/>
<polygon fill="black" stroke="black" points="778.186,-478.06 774.783,-468.027 771.187,-477.993 778.186,-478.06"/>
</g>
<!-- types/heq -->
<g id="node18" class="node"><title>types/heq</title>
<ellipse fill="none" stroke="black" cx="1292.29" cy="-522" rx="46.2923" ry="18"/>
<text text-anchor="middle" x="1292.29" y="-518.3" font-family="Times New Roman,serif" font-size="14.00">types/heq</text>
</g>
<!-- types/equiv&#45;&gt;types/heq -->
<g id="edge14" class="edge"><title>types/equiv&#45;&gt;types/heq</title>
<path fill="none" stroke="black" d="M1111.27,-581.125C1149.09,-568.982 1207.85,-550.115 1248.1,-537.191"/>
<polygon fill="black" stroke="black" points="1249.2,-540.512 1257.65,-534.123 1247.06,-533.847 1249.2,-540.512"/>
</g>
<!-- HITs/infinitesimal -->
<g id="node19" class="node"><title>HITs/infinitesimal</title>
<ellipse fill="none" stroke="black" cx="1005.29" cy="-522" rx="74.9875" ry="18"/>
<text text-anchor="middle" x="1005.29" y="-518.3" font-family="Times New Roman,serif" font-size="14.00">HITs/infinitesimal</text>
</g>
<!-- types/equiv&#45;&gt;HITs/infinitesimal -->
<g id="edge15" class="edge"><title>types/equiv&#45;&gt;HITs/infinitesimal</title>
<path fill="none" stroke="black" d="M1058.29,-576.765C1049.53,-567.882 1038.52,-556.709 1028.81,-546.854"/>
<polygon fill="black" stroke="black" points="1031.2,-544.298 1021.69,-539.633 1026.22,-549.212 1031.2,-544.298"/>
</g>
<!-- types/lost -->
<g id="node20" class="node"><title>types/lost</title>
<ellipse fill="none" stroke="black" cx="1144.29" cy="-522" rx="46.2923" ry="18"/>
<text text-anchor="middle" x="1144.29" y="-518.3" font-family="Times New Roman,serif" font-size="14.00">types/lost</text>
</g>
<!-- types/equiv&#45;&gt;types/lost -->
<g id="edge16" class="edge"><title>types/equiv&#45;&gt;types/lost</title>
<path fill="none" stroke="black" d="M1090.53,-576.765C1099.54,-567.753 1110.91,-556.385 1120.87,-546.426"/>
<polygon fill="black" stroke="black" points="1123.55,-548.693 1128.15,-539.147 1118.6,-543.744 1123.55,-548.693"/>
</g>
<!-- types/unit -->
<g id="node21" class="node"><title>types/unit</title>
<ellipse fill="none" stroke="black" cx="1107.29" cy="-450" rx="46.2923" ry="18"/>
<text text-anchor="middle" x="1107.29" y="-446.3" font-family="Times New Roman,serif" font-size="14.00">types/unit</text>
</g>
<!-- types/equiv&#45;&gt;types/unit -->
<g id="edge17" class="edge"><title>types/equiv&#45;&gt;types/unit</title>
<path fill="none" stroke="black" d="M1121.15,-586.154C1148.92,-579.423 1181.98,-566.139 1199.29,-540 1208.13,-526.66 1207.3,-517.853 1199.29,-504 1189,-486.197 1170.21,-473.845 1152.28,-465.575"/>
<polygon fill="black" stroke="black" points="1153.6,-462.334 1143.03,-461.615 1150.85,-468.769 1153.6,-462.334"/>
</g>
<!-- types/sigma -->
<g id="node22" class="node"><title>types/sigma</title>
<ellipse fill="none" stroke="black" cx="858.293" cy="-522" rx="53.8905" ry="18"/>
<text text-anchor="middle" x="858.293" y="-518.3" font-family="Times New Roman,serif" font-size="14.00">types/sigma</text>
</g>
<!-- types/equiv&#45;&gt;types/sigma -->
<g id="edge18" class="edge"><title>types/equiv&#45;&gt;types/sigma</title>
<path fill="none" stroke="black" d="M1037.65,-581.125C1001.15,-569.295 944.952,-551.084 905.205,-538.203"/>
<polygon fill="black" stroke="black" points="906.069,-534.804 895.477,-535.05 903.91,-541.463 906.069,-534.804"/>
</g>
<!-- structures -->
<g id="node6" class="node"><title>structures</title>
<ellipse fill="none" stroke="black" cx="1008.29" cy="-378" rx="46.2923" ry="18"/>
<text text-anchor="middle" x="1008.29" y="-374.3" font-family="Times New Roman,serif" font-size="14.00">structures</text>
</g>
<!-- HITs/interval -->
<g id="node7" class="node"><title>HITs/interval</title>
<ellipse fill="none" stroke="black" cx="726.293" cy="-306" rx="57.6901" ry="18"/>
<text text-anchor="middle" x="726.293" y="-302.3" font-family="Times New Roman,serif" font-size="14.00">HITs/interval</text>
</g>
<!-- structures&#45;&gt;HITs/interval -->
<g id="edge4" class="edge"><title>structures&#45;&gt;HITs/interval</title>
<path fill="none" stroke="black" d="M970.554,-367.632C921.566,-355.472 835.768,-334.175 780.002,-320.332"/>
<polygon fill="black" stroke="black" points="780.845,-316.935 770.296,-317.923 779.158,-323.729 780.845,-316.935"/>
</g>
<!-- HITs/merely -->
<g id="node8" class="node"><title>HITs/merely</title>
<ellipse fill="none" stroke="black" cx="1136.29" cy="-306" rx="55.7903" ry="18"/>
<text text-anchor="middle" x="1136.29" y="-302.3" font-family="Times New Roman,serif" font-size="14.00">HITs/merely</text>
</g>
<!-- structures&#45;&gt;HITs/merely -->
<g id="edge5" class="edge"><title>structures&#45;&gt;HITs/merely</title>
<path fill="none" stroke="black" d="M1033.89,-363.003C1052.83,-352.646 1078.88,-338.395 1099.97,-326.861"/>
<polygon fill="black" stroke="black" points="1101.88,-329.81 1108.97,-321.941 1098.52,-323.668 1101.88,-329.81"/>
</g>
<!-- HITs/trunc -->
<g id="node9" class="node"><title>HITs/trunc</title>
<ellipse fill="none" stroke="black" cx="1307.29" cy="-306" rx="50.8918" ry="18"/>
<text text-anchor="middle" x="1307.29" y="-302.3" font-family="Times New Roman,serif" font-size="14.00">HITs/trunc</text>
</g>
<!-- structures&#45;&gt;HITs/trunc -->
<g id="edge6" class="edge"><title>structures&#45;&gt;HITs/trunc</title>
<path fill="none" stroke="black" d="M1044.61,-366.732C1053.02,-364.439 1061.95,-362.075 1070.29,-360 1133.51,-344.274 1206.75,-328.224 1254.89,-317.97"/>
<polygon fill="black" stroke="black" points="1255.71,-321.373 1264.77,-315.872 1254.26,-314.526 1255.71,-321.373"/>
</g>
<!-- types/product -->
<g id="node10" class="node"><title>types/product</title>
<ellipse fill="none" stroke="black" cx="878.293" cy="-306" rx="61.99" ry="18"/>
<text text-anchor="middle" x="878.293" y="-302.3" font-family="Times New Roman,serif" font-size="14.00">types/product</text>
</g>
<!-- structures&#45;&gt;types/product -->
<g id="edge7" class="edge"><title>structures&#45;&gt;types/product</title>
<path fill="none" stroke="black" d="M982.298,-363.003C963.107,-352.669 936.718,-338.459 915.324,-326.94"/>
<polygon fill="black" stroke="black" points="916.96,-323.846 906.496,-322.186 913.641,-330.009 916.96,-323.846"/>
</g>
<!-- types/nat -->
<g id="node11" class="node"><title>types/nat</title>
<ellipse fill="none" stroke="black" cx="1008.29" cy="-306" rx="43.5923" ry="18"/>
<text text-anchor="middle" x="1008.29" y="-302.3" font-family="Times New Roman,serif" font-size="14.00">types/nat</text>
</g>
<!-- structures&#45;&gt;types/nat -->
<g id="edge8" class="edge"><title>structures&#45;&gt;types/nat</title>
<path fill="none" stroke="black" d="M1008.29,-359.697C1008.29,-351.983 1008.29,-342.712 1008.29,-334.112"/>
<polygon fill="black" stroke="black" points="1011.79,-334.104 1008.29,-324.104 1004.79,-334.104 1011.79,-334.104"/>
</g>
<!-- HITs/circle -->
<g id="node25" class="node"><title>HITs/circle</title>
<ellipse fill="none" stroke="black" cx="725.293" cy="-90" rx="51.9908" ry="18"/>
<text text-anchor="middle" x="725.293" y="-86.3" font-family="Times New Roman,serif" font-size="14.00">HITs/circle</text>
</g>
<!-- HITs/interval&#45;&gt;HITs/circle -->
<g id="edge40" class="edge"><title>HITs/interval&#45;&gt;HITs/circle</title>
<path fill="none" stroke="black" d="M726.213,-287.849C726.04,-250.832 725.63,-163.181 725.421,-118.386"/>
<polygon fill="black" stroke="black" points="728.92,-118.216 725.373,-108.232 721.92,-118.249 728.92,-118.216"/>
</g>
<!-- cubical/cubes -->
<g id="node38" class="node"><title>cubical/cubes</title>
<ellipse fill="none" stroke="black" cx="552.293" cy="-234" rx="60.3893" ry="18"/>
<text text-anchor="middle" x="552.293" y="-230.3" font-family="Times New Roman,serif" font-size="14.00">cubical/cubes</text>
</g>
<!-- HITs/interval&#45;&gt;cubical/cubes -->
<g id="edge41" class="edge"><title>HITs/interval&#45;&gt;cubical/cubes</title>
<path fill="none" stroke="black" d="M692.331,-291.337C664.844,-280.279 625.936,-264.626 596.105,-252.625"/>
<polygon fill="black" stroke="black" points="597.348,-249.353 586.764,-248.868 594.735,-255.847 597.348,-249.353"/>
</g>
<!-- theorems/prop -->
<g id="node39" class="node"><title>theorems/prop</title>
<ellipse fill="none" stroke="black" cx="974.293" cy="-234" rx="63.8893" ry="18"/>
<text text-anchor="middle" x="974.293" y="-230.3" font-family="Times New Roman,serif" font-size="14.00">theorems/prop</text>
</g>
<!-- HITs/interval&#45;&gt;theorems/prop -->
<g id="edge42" class="edge"><title>HITs/interval&#45;&gt;theorems/prop</title>
<path fill="none" stroke="black" d="M767.524,-293.362C809.612,-281.483 875.114,-262.994 921.089,-250.017"/>
<polygon fill="black" stroke="black" points="922.204,-253.339 930.877,-247.254 920.303,-246.603 922.204,-253.339"/>
</g>
<!-- theorems/fibration -->
<g id="node40" class="node"><title>theorems/fibration</title>
<ellipse fill="none" stroke="black" cx="541.293" cy="-162" rx="76.8869" ry="18"/>
<text text-anchor="middle" x="541.293" y="-158.3" font-family="Times New Roman,serif" font-size="14.00">theorems/fibration</text>
</g>
<!-- HITs/interval&#45;&gt;theorems/fibration -->
<g id="edge43" class="edge"><title>HITs/interval&#45;&gt;theorems/fibration</title>
<path fill="none" stroke="black" d="M708.247,-288.567C687.746,-270.171 653.013,-239.82 621.293,-216 606.73,-205.064 590.018,-193.804 575.646,-184.49"/>
<polygon fill="black" stroke="black" points="577.347,-181.423 567.041,-178.963 573.564,-187.312 577.347,-181.423"/>
</g>
<!-- HITs/merely&#45;&gt;theorems/prop -->
<g id="edge44" class="edge"><title>HITs/merely&#45;&gt;theorems/prop</title>
<path fill="none" stroke="black" d="M1104.29,-291.17C1079.29,-280.371 1044.33,-265.264 1016.96,-253.437"/>
<polygon fill="black" stroke="black" points="1018.19,-250.156 1007.62,-249.403 1015.42,-256.582 1018.19,-250.156"/>
</g>
<!-- HITs/simplicial -->
<g id="node42" class="node"><title>HITs/simplicial</title>
<ellipse fill="none" stroke="black" cx="1300.29" cy="-234" rx="65.7887" ry="18"/>
<text text-anchor="middle" x="1300.29" y="-230.3" font-family="Times New Roman,serif" font-size="14.00">HITs/simplicial</text>
</g>
<!-- HITs/merely&#45;&gt;HITs/simplicial -->
<g id="edge45" class="edge"><title>HITs/merely&#45;&gt;HITs/simplicial</title>
<path fill="none" stroke="black" d="M1168.69,-291.17C1193.91,-280.406 1229.16,-265.364 1256.82,-253.554"/>
<polygon fill="black" stroke="black" points="1258.44,-256.669 1266.27,-249.524 1255.69,-250.231 1258.44,-256.669"/>
</g>
<!-- theorems/functions -->
<g id="node43" class="node"><title>theorems/functions</title>
<ellipse fill="none" stroke="black" cx="1136.29" cy="-234" rx="79.8859" ry="18"/>
<text text-anchor="middle" x="1136.29" y="-230.3" font-family="Times New Roman,serif" font-size="14.00">theorems/functions</text>
</g>
<!-- HITs/merely&#45;&gt;theorems/functions -->
<g id="edge46" class="edge"><title>HITs/merely&#45;&gt;theorems/functions</title>
<path fill="none" stroke="black" d="M1136.29,-287.697C1136.29,-279.983 1136.29,-270.712 1136.29,-262.112"/>
<polygon fill="black" stroke="black" points="1139.79,-262.104 1136.29,-252.104 1132.79,-262.104 1139.79,-262.104"/>
</g>
<!-- HITs/quotient -->
<g id="node37" class="node"><title>HITs/quotient</title>
<ellipse fill="none" stroke="black" cx="1445.29" cy="-234" rx="61.99" ry="18"/>
<text text-anchor="middle" x="1445.29" y="-230.3" font-family="Times New Roman,serif" font-size="14.00">HITs/quotient</text>
</g>
<!-- HITs/trunc&#45;&gt;HITs/quotient -->
<g id="edge51" class="edge"><title>HITs/trunc&#45;&gt;HITs/quotient</title>
<path fill="none" stroke="black" d="M1335.22,-290.834C1355.85,-280.371 1384.18,-266.002 1406.93,-254.461"/>
<polygon fill="black" stroke="black" points="1408.64,-257.514 1415.98,-249.869 1405.48,-251.272 1408.64,-257.514"/>
</g>
<!-- theorems/ua -->
<g id="node29" class="node"><title>theorems/ua</title>
<ellipse fill="none" stroke="black" cx="799.293" cy="-234" rx="54.6905" ry="18"/>
<text text-anchor="middle" x="799.293" y="-230.3" font-family="Times New Roman,serif" font-size="14.00">theorems/ua</text>
</g>
<!-- types/product&#45;&gt;theorems/ua -->
<g id="edge25" class="edge"><title>types/product&#45;&gt;theorems/ua</title>
<path fill="none" stroke="black" d="M859.97,-288.765C849.601,-279.576 836.466,-267.938 825.072,-257.842"/>
<polygon fill="black" stroke="black" points="827.322,-255.16 817.516,-251.147 822.68,-260.399 827.322,-255.16"/>
</g>
<!-- theorems/nat -->
<g id="node27" class="node"><title>theorems/nat</title>
<ellipse fill="none" stroke="black" cx="839.293" cy="-162" rx="57.3905" ry="18"/>
<text text-anchor="middle" x="839.293" y="-158.3" font-family="Times New Roman,serif" font-size="14.00">theorems/nat</text>
</g>
<!-- types/nat&#45;&gt;theorems/nat -->
<g id="edge23" class="edge"><title>types/nat&#45;&gt;theorems/nat</title>
<path fill="none" stroke="black" d="M975.838,-293.884C953.221,-285.017 923.281,-270.942 901.293,-252 880.695,-234.255 863.611,-208.218 852.628,-188.886"/>
<polygon fill="black" stroke="black" points="855.626,-187.074 847.738,-180 849.493,-190.448 855.626,-187.074"/>
</g>
<!-- algebra/group -->
<g id="node12" class="node"><title>algebra/group</title>
<ellipse fill="none" stroke="black" cx="1145.29" cy="-162" rx="60.3893" ry="18"/>
<text text-anchor="middle" x="1145.29" y="-158.3" font-family="Times New Roman,serif" font-size="14.00">algebra/group</text>
</g>
<!-- algebra/homology -->
<g id="node13" class="node"><title>algebra/homology</title>
<ellipse fill="none" stroke="black" cx="1146.29" cy="-90" rx="75.2868" ry="18"/>
<text text-anchor="middle" x="1146.29" y="-86.3" font-family="Times New Roman,serif" font-size="14.00">algebra/homology</text>
</g>
<!-- algebra/group&#45;&gt;algebra/homology -->
<g id="edge9" class="edge"><title>algebra/group&#45;&gt;algebra/homology</title>
<path fill="none" stroke="black" d="M1145.54,-143.697C1145.65,-135.983 1145.78,-126.712 1145.91,-118.112"/>
<polygon fill="black" stroke="black" points="1149.41,-118.153 1146.05,-108.104 1142.41,-118.053 1149.41,-118.153"/>
</g>
<!-- types/category -->
<g id="node14" class="node"><title>types/category</title>
<ellipse fill="none" stroke="black" cx="989.293" cy="-90" rx="63.8893" ry="18"/>
<text text-anchor="middle" x="989.293" y="-86.3" font-family="Times New Roman,serif" font-size="14.00">types/category</text>
</g>
<!-- types/coproduct&#45;&gt;structures -->
<g id="edge10" class="edge"><title>types/coproduct&#45;&gt;structures</title>
<path fill="none" stroke="black" d="M820.203,-435.751C861.101,-423.411 921.807,-405.095 963.11,-392.633"/>
<polygon fill="black" stroke="black" points="964.346,-395.916 972.909,-389.676 962.324,-389.214 964.346,-395.916"/>
</g>
<!-- types/integer -->
<g id="node16" class="node"><title>types/integer</title>
<ellipse fill="none" stroke="black" cx="640.293" cy="-378" rx="56.59" ry="18"/>
<text text-anchor="middle" x="640.293" y="-374.3" font-family="Times New Roman,serif" font-size="14.00">types/integer</text>
</g>
<!-- types/coproduct&#45;&gt;types/integer -->
<g id="edge11" class="edge"><title>types/coproduct&#45;&gt;types/integer</title>
<path fill="none" stroke="black" d="M746.447,-433.638C726.196,-423.215 699.269,-409.355 677.602,-398.203"/>
<polygon fill="black" stroke="black" points="679.167,-395.072 668.674,-393.608 675.963,-401.296 679.167,-395.072"/>
</g>
<!-- types/integer&#45;&gt;HITs/circle -->
<g id="edge21" class="edge"><title>types/integer&#45;&gt;HITs/circle</title>
<path fill="none" stroke="black" d="M643.367,-359.8C646.729,-341.772 652.545,-312.69 659.293,-288 676.2,-226.142 701.455,-155.19 715.31,-117.608"/>
<polygon fill="black" stroke="black" points="718.704,-118.522 718.898,-107.929 712.14,-116.088 718.704,-118.522"/>
</g>
<!-- types/rational -->
<g id="node26" class="node"><title>types/rational</title>
<ellipse fill="none" stroke="black" cx="480.293" cy="-306" rx="59.2899" ry="18"/>
<text text-anchor="middle" x="480.293" y="-302.3" font-family="Times New Roman,serif" font-size="14.00">types/rational</text>
</g>
<!-- types/integer&#45;&gt;types/rational -->
<g id="edge22" class="edge"><title>types/integer&#45;&gt;types/rational</title>
<path fill="none" stroke="black" d="M608.299,-363.003C583.5,-352.153 548.933,-337.03 521.971,-325.234"/>
<polygon fill="black" stroke="black" points="523.344,-322.015 512.78,-321.213 520.538,-328.428 523.344,-322.015"/>
</g>
<!-- types/dedekind -->
<g id="node17" class="node"><title>types/dedekind</title>
<ellipse fill="none" stroke="black" cx="408.293" cy="-234" rx="65.7887" ry="18"/>
<text text-anchor="middle" x="408.293" y="-230.3" font-family="Times New Roman,serif" font-size="14.00">types/dedekind</text>
</g>
<!-- HITs/graph -->
<g id="node23" class="node"><title>HITs/graph</title>
<ellipse fill="none" stroke="black" cx="1380.29" cy="-450" rx="52.7911" ry="18"/>
<text text-anchor="middle" x="1380.29" y="-446.3" font-family="Times New Roman,serif" font-size="14.00">HITs/graph</text>
</g>
<!-- types/heq&#45;&gt;HITs/graph -->
<g id="edge19" class="edge"><title>types/heq&#45;&gt;HITs/graph</title>
<path fill="none" stroke="black" d="M1311.82,-505.465C1323.82,-495.925 1339.36,-483.557 1352.61,-473.018"/>
<polygon fill="black" stroke="black" points="1354.87,-475.698 1360.51,-466.734 1350.51,-470.22 1354.87,-475.698"/>
</g>
<!-- theorems/funext -->
<g id="node24" class="node"><title>theorems/funext</title>
<ellipse fill="none" stroke="black" cx="1240.29" cy="-450" rx="68.7879" ry="18"/>
<text text-anchor="middle" x="1240.29" y="-446.3" font-family="Times New Roman,serif" font-size="14.00">theorems/funext</text>
</g>
<!-- types/heq&#45;&gt;theorems/funext -->
<g id="edge20" class="edge"><title>types/heq&#45;&gt;theorems/funext</title>
<path fill="none" stroke="black" d="M1279.97,-504.411C1273.72,-495.992 1265.98,-485.585 1259.01,-476.201"/>
<polygon fill="black" stroke="black" points="1261.66,-473.897 1252.89,-467.956 1256.04,-478.071 1261.66,-473.897"/>
</g>
<!-- types/unit&#45;&gt;structures -->
<g id="edge28" class="edge"><title>types/unit&#45;&gt;structures</title>
<path fill="none" stroke="black" d="M1085.81,-433.811C1071.8,-423.904 1053.32,-410.84 1037.92,-399.951"/>
<polygon fill="black" stroke="black" points="1039.92,-397.075 1029.73,-394.159 1035.88,-402.79 1039.92,-397.075"/>
</g>
<!-- HITs/suspension -->
<g id="node30" class="node"><title>HITs/suspension</title>
<ellipse fill="none" stroke="black" cx="1534.29" cy="-306" rx="72.5877" ry="18"/>
<text text-anchor="middle" x="1534.29" y="-302.3" font-family="Times New Roman,serif" font-size="14.00">HITs/suspension</text>
</g>
<!-- types/unit&#45;&gt;HITs/suspension -->
<g id="edge29" class="edge"><title>types/unit&#45;&gt;HITs/suspension</title>
<path fill="none" stroke="black" d="M1134.52,-435.158C1153.85,-425.008 1180.19,-410.518 1202.29,-396 1224.28,-381.552 1225.25,-370.699 1249.29,-360 1314.71,-330.886 1395.44,-317.763 1454.25,-311.848"/>
<polygon fill="black" stroke="black" points="1454.62,-315.33 1464.24,-310.893 1453.95,-308.362 1454.62,-315.33"/>
</g>
<!-- types/sigma&#45;&gt;structures -->
<g id="edge27" class="edge"><title>types/sigma&#45;&gt;structures</title>
<path fill="none" stroke="black" d="M875.5,-504.711C902.061,-479.566 953.159,-431.193 983.641,-402.337"/>
<polygon fill="black" stroke="black" points="986.431,-404.516 991.287,-395.099 981.618,-399.432 986.431,-404.516"/>
</g>
<!-- HITs/colimit -->
<g id="node34" class="node"><title>HITs/colimit</title>
<ellipse fill="none" stroke="black" cx="1136.29" cy="-378" rx="56.59" ry="18"/>
<text text-anchor="middle" x="1136.29" y="-374.3" font-family="Times New Roman,serif" font-size="14.00">HITs/colimit</text>
</g>
<!-- HITs/graph&#45;&gt;HITs/colimit -->
<g id="edge36" class="edge"><title>HITs/graph&#45;&gt;HITs/colimit</title>
<path fill="none" stroke="black" d="M1341.36,-437.831C1299.37,-425.784 1232.37,-406.564 1186.46,-393.392"/>
<polygon fill="black" stroke="black" points="1187.29,-389.989 1176.71,-390.595 1185.36,-396.717 1187.29,-389.989"/>
</g>
<!-- HITs/generalized -->
<g id="node35" class="node"><title>HITs/generalized</title>
<ellipse fill="none" stroke="black" cx="1330.29" cy="-378" rx="72.2875" ry="18"/>
<text text-anchor="middle" x="1330.29" y="-374.3" font-family="Times New Roman,serif" font-size="14.00">HITs/generalized</text>
</g>
<!-- HITs/graph&#45;&gt;HITs/generalized -->
<g id="edge37" class="edge"><title>HITs/graph&#45;&gt;HITs/generalized</title>
<path fill="none" stroke="black" d="M1368.44,-432.411C1362.43,-423.992 1355,-413.585 1348.29,-404.201"/>
<polygon fill="black" stroke="black" points="1351.07,-402.059 1342.4,-395.956 1345.37,-406.128 1351.07,-402.059"/>
</g>
<!-- HITs/pushout -->
<g id="node36" class="node"><title>HITs/pushout</title>
<ellipse fill="none" stroke="black" cx="1527.29" cy="-378" rx="61.99" ry="18"/>
<text text-anchor="middle" x="1527.29" y="-374.3" font-family="Times New Roman,serif" font-size="14.00">HITs/pushout</text>
</g>
<!-- HITs/graph&#45;&gt;HITs/pushout -->
<g id="edge38" class="edge"><title>HITs/graph&#45;&gt;HITs/pushout</title>
<path fill="none" stroke="black" d="M1409.69,-435.003C1431.98,-424.389 1462.85,-409.687 1487.37,-398.009"/>
<polygon fill="black" stroke="black" points="1488.91,-401.156 1496.43,-393.697 1485.9,-394.836 1488.91,-401.156"/>
</g>
<!-- HITs/graph&#45;&gt;HITs/quotient -->
<g id="edge39" class="edge"><title>HITs/graph&#45;&gt;HITs/quotient</title>
<path fill="none" stroke="black" d="M1392.1,-432.046C1398.63,-421.978 1406.38,-408.728 1411.29,-396 1428.68,-350.99 1437.93,-295.287 1442.2,-262.596"/>
<polygon fill="black" stroke="black" points="1445.71,-262.796 1443.47,-252.44 1438.76,-261.931 1445.71,-262.796"/>
</g>
<!-- theorems/funext&#45;&gt;structures -->
<g id="edge59" class="edge"><title>theorems/funext&#45;&gt;structures</title>
<path fill="none" stroke="black" d="M1196.93,-435.916C1156.01,-423.57 1094.92,-405.137 1053.43,-392.619"/>
<polygon fill="black" stroke="black" points="1054.43,-389.266 1043.85,-389.728 1052.41,-395.968 1054.43,-389.266"/>
</g>
<!-- theorems/hopf -->
<g id="node31" class="node"><title>theorems/hopf</title>
<ellipse fill="none" stroke="black" cx="595.293" cy="-18" rx="63.8893" ry="18"/>
<text text-anchor="middle" x="595.293" y="-14.3" font-family="Times New Roman,serif" font-size="14.00">theorems/hopf</text>
</g>
<!-- HITs/circle&#45;&gt;theorems/hopf -->
<g id="edge30" class="edge"><title>HITs/circle&#45;&gt;theorems/hopf</title>
<path fill="none" stroke="black" d="M698.357,-74.496C679.31,-64.2402 653.532,-50.3592 632.521,-39.0457"/>
<polygon fill="black" stroke="black" points="634.008,-35.8713 623.544,-34.2119 630.689,-42.0346 634.008,-35.8713"/>
</g>
<!-- HITs/moebius -->
<g id="node32" class="node"><title>HITs/moebius</title>
<ellipse fill="none" stroke="black" cx="855.293" cy="-18" rx="63.0888" ry="18"/>
<text text-anchor="middle" x="855.293" y="-14.3" font-family="Times New Roman,serif" font-size="14.00">HITs/moebius</text>
</g>
<!-- HITs/circle&#45;&gt;HITs/moebius -->
<g id="edge31" class="edge"><title>HITs/circle&#45;&gt;HITs/moebius</title>
<path fill="none" stroke="black" d="M752.229,-74.496C771.276,-64.2402 797.054,-50.3592 818.065,-39.0457"/>
<polygon fill="black" stroke="black" points="819.897,-42.0346 827.042,-34.2119 816.578,-35.8713 819.897,-42.0346"/>
</g>
<!-- HITs/reals -->
<g id="node33" class="node"><title>HITs/reals</title>
<ellipse fill="none" stroke="black" cx="725.293" cy="-18" rx="48.9926" ry="18"/>
<text text-anchor="middle" x="725.293" y="-14.3" font-family="Times New Roman,serif" font-size="14.00">HITs/reals</text>
</g>
<!-- HITs/circle&#45;&gt;HITs/reals -->
<g id="edge32" class="edge"><title>HITs/circle&#45;&gt;HITs/reals</title>
<path fill="none" stroke="black" d="M725.293,-71.6966C725.293,-63.9827 725.293,-54.7125 725.293,-46.1124"/>
<polygon fill="black" stroke="black" points="728.793,-46.1043 725.293,-36.1043 721.793,-46.1044 728.793,-46.1043"/>
</g>
<!-- types/rational&#45;&gt;types/dedekind -->
<g id="edge26" class="edge"><title>types/rational&#45;&gt;types/dedekind</title>
<path fill="none" stroke="black" d="M463.23,-288.411C454.084,-279.519 442.658,-268.411 432.599,-258.631"/>
<polygon fill="black" stroke="black" points="434.843,-255.931 425.233,-251.47 429.964,-260.95 434.843,-255.931"/>
</g>
<!-- theorems/nat&#45;&gt;HITs/circle -->
<g id="edge60" class="edge"><title>theorems/nat&#45;&gt;HITs/circle</title>
<path fill="none" stroke="black" d="M814.275,-145.638C797.978,-135.631 776.523,-122.457 758.763,-111.552"/>
<polygon fill="black" stroke="black" points="760.214,-108.335 749.86,-106.085 756.551,-114.301 760.214,-108.335"/>
</g>
<!-- HITs/int -->
<g id="node49" class="node"><title>HITs/int</title>
<ellipse fill="none" stroke="black" cx="839.293" cy="-90" rx="40.8928" ry="18"/>
<text text-anchor="middle" x="839.293" y="-86.3" font-family="Times New Roman,serif" font-size="14.00">HITs/int</text>
</g>
<!-- theorems/nat&#45;&gt;HITs/int -->
<g id="edge61" class="edge"><title>theorems/nat&#45;&gt;HITs/int</title>
<path fill="none" stroke="black" d="M839.293,-143.697C839.293,-135.983 839.293,-126.712 839.293,-118.112"/>
<polygon fill="black" stroke="black" points="842.793,-118.104 839.293,-108.104 835.793,-118.104 842.793,-118.104"/>
</g>
<!-- types/precategory -->
<g id="node28" class="node"><title>types/precategory</title>
<ellipse fill="none" stroke="black" cx="990.293" cy="-162" rx="75.2868" ry="18"/>
<text text-anchor="middle" x="990.293" y="-158.3" font-family="Times New Roman,serif" font-size="14.00">types/precategory</text>
</g>
<!-- types/precategory&#45;&gt;types/category -->
<g id="edge24" class="edge"><title>types/precategory&#45;&gt;types/category</title>
<path fill="none" stroke="black" d="M990.046,-143.697C989.936,-135.983 989.803,-126.712 989.68,-118.112"/>
<polygon fill="black" stroke="black" points="993.18,-118.053 989.537,-108.104 986.181,-118.153 993.18,-118.053"/>
</g>
<!-- theorems/ua&#45;&gt;algebra/group -->
<g id="edge63" class="edge"><title>theorems/ua&#45;&gt;algebra/group</title>
<path fill="none" stroke="black" d="M846.134,-224.63C900.968,-214.68 994.449,-197.244 1074.29,-180 1079.56,-178.863 1085.03,-177.635 1090.5,-176.377"/>
<polygon fill="black" stroke="black" points="1091.35,-179.774 1100.29,-174.095 1089.76,-172.957 1091.35,-179.774"/>
</g>
<!-- theorems/ua&#45;&gt;theorems/nat -->
<g id="edge64" class="edge"><title>theorems/ua&#45;&gt;theorems/nat</title>
<path fill="none" stroke="black" d="M808.976,-216.055C813.693,-207.801 819.464,-197.701 824.7,-188.538"/>
<polygon fill="black" stroke="black" points="827.777,-190.208 829.699,-179.789 821.699,-186.735 827.777,-190.208"/>
</g>
<!-- cubical/V -->
<g id="node48" class="node"><title>cubical/V</title>
<ellipse fill="none" stroke="black" cx="522.293" cy="-90" rx="45.4919" ry="18"/>
<text text-anchor="middle" x="522.293" y="-86.3" font-family="Times New Roman,serif" font-size="14.00">cubical/V</text>
</g>
<!-- theorems/ua&#45;&gt;cubical/V -->
<g id="edge65" class="edge"><title>theorems/ua&#45;&gt;cubical/V</title>
<path fill="none" stroke="black" d="M771.333,-218.423C737.337,-200.724 678.188,-170.012 627.293,-144 604.533,-132.368 578.926,-119.439 558.698,-109.263"/>
<polygon fill="black" stroke="black" points="560.032,-106.016 549.525,-104.652 556.888,-112.271 560.032,-106.016"/>
</g>
<!-- HITs/suspension&#45;&gt;HITs/circle -->
<g id="edge49" class="edge"><title>HITs/suspension&#45;&gt;HITs/circle</title>
<path fill="none" stroke="black" d="M1535.88,-287.788C1536.72,-267.81 1534.8,-235.16 1516.29,-216 1402.81,-98.5352 950.21,-135.965 789.293,-108 784.185,-107.112 778.891,-106.01 773.635,-104.796"/>
<polygon fill="black" stroke="black" points="774.178,-101.326 763.632,-102.351 772.515,-108.125 774.178,-101.326"/>
</g>
<!-- HITs/join -->
<g id="node41" class="node"><title>HITs/join</title>
<ellipse fill="none" stroke="black" cx="1608.29" cy="-234" rx="45.4919" ry="18"/>
<text text-anchor="middle" x="1608.29" y="-230.3" font-family="Times New Roman,serif" font-size="14.00">HITs/join</text>
</g>
<!-- HITs/suspension&#45;&gt;HITs/join -->
<g id="edge50" class="edge"><title>HITs/suspension&#45;&gt;HITs/join</title>
<path fill="none" stroke="black" d="M1551.83,-288.411C1561.46,-279.302 1573.55,-267.866 1584.07,-257.916"/>
<polygon fill="black" stroke="black" points="1586.53,-260.403 1591.39,-250.988 1581.72,-255.317 1586.53,-260.403"/>
</g>
<!-- HITs/colimit&#45;&gt;HITs/merely -->
<g id="edge33" class="edge"><title>HITs/colimit&#45;&gt;HITs/merely</title>
<path fill="none" stroke="black" d="M1136.29,-359.697C1136.29,-351.983 1136.29,-342.712 1136.29,-334.112"/>
<polygon fill="black" stroke="black" points="1139.79,-334.104 1136.29,-324.104 1132.79,-334.104 1139.79,-334.104"/>
</g>
<!-- HITs/colimit&#45;&gt;types/nat -->
<g id="edge34" class="edge"><title>HITs/colimit&#45;&gt;types/nat</title>
<path fill="none" stroke="black" d="M1109.15,-362.155C1089.71,-351.527 1063.4,-337.139 1042.53,-325.723"/>
<polygon fill="black" stroke="black" points="1044.11,-322.599 1033.66,-320.872 1040.75,-328.741 1044.11,-322.599"/>
</g>
<!-- HITs/generalized&#45;&gt;HITs/merely -->
<g id="edge35" class="edge"><title>HITs/generalized&#45;&gt;HITs/merely</title>
<path fill="none" stroke="black" d="M1291.03,-362.834C1259.39,-351.417 1214.86,-335.35 1181.69,-323.38"/>
<polygon fill="black" stroke="black" points="1182.82,-320.066 1172.22,-319.964 1180.44,-326.65 1182.82,-320.066"/>
</g>
<!-- HITs/pushout&#45;&gt;HITs/suspension -->
<g id="edge47" class="edge"><title>HITs/pushout&#45;&gt;HITs/suspension</title>
<path fill="none" stroke="black" d="M1529.02,-359.697C1529.79,-351.983 1530.72,-342.712 1531.58,-334.112"/>
<polygon fill="black" stroke="black" points="1535.07,-334.403 1532.58,-324.104 1528.1,-333.706 1535.07,-334.403"/>
</g>
<!-- HITs/quotient&#45;&gt;algebra/group -->
<g id="edge48" class="edge"><title>HITs/quotient&#45;&gt;algebra/group</title>
<path fill="none" stroke="black" d="M1399.37,-221.766C1391.35,-219.827 1383.08,-217.843 1375.29,-216 1316.22,-202.022 1248.51,-186.475 1201.92,-175.855"/>
<polygon fill="black" stroke="black" points="1202.55,-172.408 1192.02,-173.599 1201,-179.233 1202.55,-172.408"/>
</g>
<!-- cubical/path -->
<g id="node45" class="node"><title>cubical/path</title>
<ellipse fill="none" stroke="black" cx="392.293" cy="-162" rx="54.6905" ry="18"/>
<text text-anchor="middle" x="392.293" y="-158.3" font-family="Times New Roman,serif" font-size="14.00">cubical/path</text>
</g>
<!-- cubical/cubes&#45;&gt;cubical/path -->
<g id="edge52" class="edge"><title>cubical/cubes&#45;&gt;cubical/path</title>
<path fill="none" stroke="black" d="M519.528,-218.666C494.612,-207.765 460.171,-192.697 433.405,-180.987"/>
<polygon fill="black" stroke="black" points="434.488,-177.64 423.923,-176.838 431.682,-184.053 434.488,-177.64"/>
</g>
<!-- theorems/prop&#45;&gt;types/precategory -->
<g id="edge62" class="edge"><title>theorems/prop&#45;&gt;types/precategory</title>
<path fill="none" stroke="black" d="M978.248,-215.697C980.011,-207.983 982.13,-198.712 984.096,-190.112"/>
<polygon fill="black" stroke="black" points="987.567,-190.633 986.383,-180.104 980.743,-189.073 987.567,-190.633"/>
</g>
<!-- theorems/fibration&#45;&gt;theorems/hopf -->
<g id="edge57" class="edge"><title>theorems/fibration&#45;&gt;theorems/hopf</title>
<path fill="none" stroke="black" d="M554.7,-144.262C562.086,-134.267 570.836,-121.017 576.293,-108 584.578,-88.2388 589.417,-64.437 592.136,-46.4219"/>
<polygon fill="black" stroke="black" points="595.633,-46.6846 593.535,-36.2996 588.699,-45.7265 595.633,-46.6846"/>
</g>
<!-- theorems/functions&#45;&gt;algebra/group -->
<g id="edge58" class="edge"><title>theorems/functions&#45;&gt;algebra/group</title>
<path fill="none" stroke="black" d="M1138.52,-215.697C1139.51,-207.983 1140.7,-198.712 1141.81,-190.112"/>
<polygon fill="black" stroke="black" points="1145.29,-190.469 1143.09,-180.104 1138.35,-189.576 1145.29,-190.469"/>
</g>
<!-- cubical/connection -->
<g id="node44" class="node"><title>cubical/connection</title>
<ellipse fill="none" stroke="black" cx="79.293" cy="-90" rx="79.0865" ry="18"/>
<text text-anchor="middle" x="79.293" y="-86.3" font-family="Times New Roman,serif" font-size="14.00">cubical/connection</text>
</g>
<!-- cubical/path&#45;&gt;cubical/connection -->
<g id="edge53" class="edge"><title>cubical/path&#45;&gt;cubical/connection</title>
<path fill="none" stroke="black" d="M348.442,-151.193C295.132,-139.271 204.722,-119.051 143.55,-105.371"/>
<polygon fill="black" stroke="black" points="144.14,-101.916 133.617,-103.149 142.612,-108.747 144.14,-101.916"/>
</g>
<!-- cubical/example -->
<g id="node46" class="node"><title>cubical/example</title>
<ellipse fill="none" stroke="black" cx="245.293" cy="-90" rx="68.7879" ry="18"/>
<text text-anchor="middle" x="245.293" y="-86.3" font-family="Times New Roman,serif" font-size="14.00">cubical/example</text>
</g>
<!-- cubical/path&#45;&gt;cubical/example -->
<g id="edge54" class="edge"><title>cubical/path&#45;&gt;cubical/example</title>
<path fill="none" stroke="black" d="M362.545,-146.834C340.623,-136.395 310.535,-122.068 286.328,-110.54"/>
<polygon fill="black" stroke="black" points="287.565,-107.253 277.031,-106.114 284.555,-113.573 287.565,-107.253"/>
</g>
<!-- cubical/square -->
<g id="node47" class="node"><title>cubical/square</title>
<ellipse fill="none" stroke="black" cx="395.293" cy="-90" rx="63.0888" ry="18"/>
<text text-anchor="middle" x="395.293" y="-86.3" font-family="Times New Roman,serif" font-size="14.00">cubical/square</text>
</g>
<!-- cubical/path&#45;&gt;cubical/square -->
<g id="edge55" class="edge"><title>cubical/path&#45;&gt;cubical/square</title>
<path fill="none" stroke="black" d="M393.035,-143.697C393.365,-135.983 393.762,-126.712 394.131,-118.112"/>
<polygon fill="black" stroke="black" points="397.628,-118.245 394.56,-108.104 390.635,-117.945 397.628,-118.245"/>
</g>
<!-- cubical/path&#45;&gt;cubical/V -->
<g id="edge56" class="edge"><title>cubical/path&#45;&gt;cubical/V</title>
<path fill="none" stroke="black" d="M419.545,-146.326C439.261,-135.709 466.069,-121.275 487.357,-109.811"/>
<polygon fill="black" stroke="black" points="489.26,-112.762 496.405,-104.94 485.941,-106.599 489.26,-112.762"/>
</g>
</g>
</svg>
