<?xml version="1.0" encoding="UTF-8" standalone="no"?>
<!DOCTYPE svg PUBLIC "-//W3C//DTD SVG 1.1//EN"
 "http://www.w3.org/Graphics/SVG/1.1/DTD/svg11.dtd">
<!-- Generated by graphviz version 2.43.0 (0)
 -->
<!-- Title: dependency_map Pages: 1 -->
<svg width="1625pt" height="1196pt"
 viewBox="0.00 0.00 1625.24 1196.00" xmlns="http://www.w3.org/2000/svg" xmlns:xlink="http://www.w3.org/1999/xlink">
<g id="graph0" class="graph" transform="scale(1 1) rotate(0) translate(4 1192)">
<title>dependency_map</title>
<polygon fill="white" stroke="transparent" points="-4,4 -4,-1192 1621.24,-1192 1621.24,4 -4,4"/>
<!-- proto -->
<g id="node1" class="node">
<title>proto</title>
<ellipse fill="none" stroke="black" cx="682.49" cy="-1170" rx="29.5" ry="18"/>
<text text-anchor="middle" x="682.49" y="-1166.3" font-family="Times,serif" font-size="14.00">proto</text>
</g>
<!-- types/eq -->
<g id="node2" class="node">
<title>types/eq</title>
<ellipse fill="none" stroke="black" cx="741.49" cy="-1098" rx="40.09" ry="18"/>
<text text-anchor="middle" x="741.49" y="-1094.3" font-family="Times,serif" font-size="14.00">types/eq</text>
</g>
<!-- proto&#45;&gt;types/eq -->
<g id="edge1" class="edge">
<title>proto&#45;&gt;types/eq</title>
<path fill="none" stroke="black" d="M695.29,-1153.81C702.89,-1144.8 712.68,-1133.18 721.3,-1122.95"/>
<polygon fill="black" stroke="black" points="724.12,-1125.04 727.89,-1115.13 718.77,-1120.52 724.12,-1125.04"/>
</g>
<!-- support -->
<g id="node4" class="node">
<title>support</title>
<ellipse fill="none" stroke="black" cx="741.49" cy="-1026" rx="37.09" ry="18"/>
<text text-anchor="middle" x="741.49" y="-1022.3" font-family="Times,serif" font-size="14.00">support</text>
</g>
<!-- types/eq&#45;&gt;support -->
<g id="edge23" class="edge">
<title>types/eq&#45;&gt;support</title>
<path fill="none" stroke="black" d="M741.49,-1079.7C741.49,-1071.98 741.49,-1062.71 741.49,-1054.11"/>
<polygon fill="black" stroke="black" points="744.99,-1054.1 741.49,-1044.1 737.99,-1054.1 744.99,-1054.1"/>
</g>
<!-- meta/hott_theory -->
<g id="node3" class="node">
<title>meta/hott_theory</title>
<ellipse fill="none" stroke="black" cx="801.49" cy="-1170" rx="71.49" ry="18"/>
<text text-anchor="middle" x="801.49" y="-1166.3" font-family="Times,serif" font-size="14.00">meta/hott_theory</text>
</g>
<!-- meta/hott_theory&#45;&gt;types/eq -->
<g id="edge2" class="edge">
<title>meta/hott_theory&#45;&gt;types/eq</title>
<path fill="none" stroke="black" d="M786.97,-1152.05C779.49,-1143.33 770.24,-1132.54 762.05,-1122.98"/>
<polygon fill="black" stroke="black" points="764.63,-1120.62 755.47,-1115.31 759.32,-1125.18 764.63,-1120.62"/>
</g>
<!-- types/equiv -->
<g id="node5" class="node">
<title>types/equiv</title>
<ellipse fill="none" stroke="black" cx="741.49" cy="-954" rx="51.19" ry="18"/>
<text text-anchor="middle" x="741.49" y="-950.3" font-family="Times,serif" font-size="14.00">types/equiv</text>
</g>
<!-- support&#45;&gt;types/equiv -->
<g id="edge3" class="edge">
<title>support&#45;&gt;types/equiv</title>
<path fill="none" stroke="black" d="M741.49,-1007.7C741.49,-999.98 741.49,-990.71 741.49,-982.11"/>
<polygon fill="black" stroke="black" points="744.99,-982.1 741.49,-972.1 737.99,-982.1 744.99,-982.1"/>
</g>
<!-- types/coproduct -->
<g id="node27" class="node">
<title>types/coproduct</title>
<ellipse fill="none" stroke="black" cx="942.49" cy="-810" rx="66.89" ry="18"/>
<text text-anchor="middle" x="942.49" y="-806.3" font-family="Times,serif" font-size="14.00">types/coproduct</text>
</g>
<!-- types/equiv&#45;&gt;types/coproduct -->
<g id="edge26" class="edge">
<title>types/equiv&#45;&gt;types/coproduct</title>
<path fill="none" stroke="black" d="M784.01,-943.84C813.38,-935.93 852.1,-922.18 880.49,-900 902.04,-883.16 919.09,-856.78 929.82,-837.11"/>
<polygon fill="black" stroke="black" points="933.02,-838.54 934.56,-828.06 926.82,-835.29 933.02,-838.54"/>
</g>
<!-- types/heq -->
<g id="node30" class="node">
<title>types/heq</title>
<ellipse fill="none" stroke="black" cx="496.49" cy="-882" rx="44.39" ry="18"/>
<text text-anchor="middle" x="496.49" y="-878.3" font-family="Times,serif" font-size="14.00">types/heq</text>
</g>
<!-- types/equiv&#45;&gt;types/heq -->
<g id="edge27" class="edge">
<title>types/equiv&#45;&gt;types/heq</title>
<path fill="none" stroke="black" d="M702.78,-942.14C664.95,-931.49 605.72,-914.77 554.49,-900 550.12,-898.74 545.56,-897.42 541.01,-896.09"/>
<polygon fill="black" stroke="black" points="541.71,-892.65 531.13,-893.21 539.75,-899.37 541.71,-892.65"/>
</g>
<!-- HITs/infinitesimal -->
<g id="node31" class="node">
<title>HITs/infinitesimal</title>
<ellipse fill="none" stroke="black" cx="672.49" cy="-882" rx="76.09" ry="18"/>
<text text-anchor="middle" x="672.49" y="-878.3" font-family="Times,serif" font-size="14.00">HITs/infinitesimal</text>
</g>
<!-- types/equiv&#45;&gt;HITs/infinitesimal -->
<g id="edge28" class="edge">
<title>types/equiv&#45;&gt;HITs/infinitesimal</title>
<path fill="none" stroke="black" d="M725.49,-936.76C716.73,-927.88 705.72,-916.71 696,-906.85"/>
<polygon fill="black" stroke="black" points="698.4,-904.3 688.89,-899.63 693.41,-909.21 698.4,-904.3"/>
</g>
<!-- types/lost -->
<g id="node32" class="node">
<title>types/lost</title>
<ellipse fill="none" stroke="black" cx="810.49" cy="-882" rx="44.39" ry="18"/>
<text text-anchor="middle" x="810.49" y="-878.3" font-family="Times,serif" font-size="14.00">types/lost</text>
</g>
<!-- types/equiv&#45;&gt;types/lost -->
<g id="edge29" class="edge">
<title>types/equiv&#45;&gt;types/lost</title>
<path fill="none" stroke="black" d="M757.49,-936.76C766.38,-927.75 777.58,-916.39 787.4,-906.43"/>
<polygon fill="black" stroke="black" points="790.05,-908.73 794.57,-899.15 785.06,-903.81 790.05,-908.73"/>
</g>
<!-- types/unit -->
<g id="node33" class="node">
<title>types/unit</title>
<ellipse fill="none" stroke="black" cx="589.49" cy="-738" rx="45.49" ry="18"/>
<text text-anchor="middle" x="589.49" y="-734.3" font-family="Times,serif" font-size="14.00">types/unit</text>
</g>
<!-- types/equiv&#45;&gt;types/unit -->
<g id="edge30" class="edge">
<title>types/equiv&#45;&gt;types/unit</title>
<path fill="none" stroke="black" d="M690.95,-950.28C655.64,-945.42 610.81,-932.69 587.49,-900 559.24,-860.4 570.32,-800.26 580.31,-765.79"/>
<polygon fill="black" stroke="black" points="583.74,-766.55 583.33,-755.96 577.05,-764.49 583.74,-766.55"/>
</g>
<!-- types/sigma -->
<g id="node34" class="node">
<title>types/sigma</title>
<ellipse fill="none" stroke="black" cx="804.49" cy="-810" rx="53.09" ry="18"/>
<text text-anchor="middle" x="804.49" y="-806.3" font-family="Times,serif" font-size="14.00">types/sigma</text>
</g>
<!-- types/equiv&#45;&gt;types/sigma -->
<g id="edge31" class="edge">
<title>types/equiv&#45;&gt;types/sigma</title>
<path fill="none" stroke="black" d="M787.56,-945.76C814.62,-938.88 846.71,-925.59 863.49,-900 872.27,-886.62 870.01,-878.61 863.49,-864 857.96,-851.6 847.93,-840.88 837.7,-832.4"/>
<polygon fill="black" stroke="black" points="839.57,-829.43 829.52,-826.08 835.29,-834.97 839.57,-829.43"/>
</g>
<!-- structures -->
<g id="node6" class="node">
<title>structures</title>
<ellipse fill="none" stroke="black" cx="804.49" cy="-666" rx="44.69" ry="18"/>
<text text-anchor="middle" x="804.49" y="-662.3" font-family="Times,serif" font-size="14.00">structures</text>
</g>
<!-- HITs/interval -->
<g id="node7" class="node">
<title>HITs/interval</title>
<ellipse fill="none" stroke="black" cx="1154.49" cy="-594" rx="57.69" ry="18"/>
<text text-anchor="middle" x="1154.49" y="-590.3" font-family="Times,serif" font-size="14.00">HITs/interval</text>
</g>
<!-- structures&#45;&gt;HITs/interval -->
<g id="edge4" class="edge">
<title>structures&#45;&gt;HITs/interval</title>
<path fill="none" stroke="black" d="M843.62,-657.17C905.34,-644.83 1025.6,-620.78 1097.1,-606.48"/>
<polygon fill="black" stroke="black" points="1098.16,-609.83 1107.28,-604.44 1096.79,-602.97 1098.16,-609.83"/>
</g>
<!-- HITs/merely -->
<g id="node8" class="node">
<title>HITs/merely</title>
<ellipse fill="none" stroke="black" cx="581.49" cy="-594" rx="55.79" ry="18"/>
<text text-anchor="middle" x="581.49" y="-590.3" font-family="Times,serif" font-size="14.00">HITs/merely</text>
</g>
<!-- structures&#45;&gt;HITs/merely -->
<g id="edge5" class="edge">
<title>structures&#45;&gt;HITs/merely</title>
<path fill="none" stroke="black" d="M770.14,-654.22C732.58,-642.43 672.14,-623.45 629.81,-610.17"/>
<polygon fill="black" stroke="black" points="630.59,-606.75 620,-607.09 628.5,-613.42 630.59,-606.75"/>
</g>
<!-- HITs/trunc -->
<g id="node9" class="node">
<title>HITs/trunc</title>
<ellipse fill="none" stroke="black" cx="807.49" cy="-594" rx="49.29" ry="18"/>
<text text-anchor="middle" x="807.49" y="-590.3" font-family="Times,serif" font-size="14.00">HITs/trunc</text>
</g>
<!-- structures&#45;&gt;HITs/trunc -->
<g id="edge6" class="edge">
<title>structures&#45;&gt;HITs/trunc</title>
<path fill="none" stroke="black" d="M805.23,-647.7C805.56,-639.98 805.96,-630.71 806.33,-622.11"/>
<polygon fill="black" stroke="black" points="809.83,-622.25 806.76,-612.1 802.83,-621.95 809.83,-622.25"/>
</g>
<!-- types/nat -->
<g id="node10" class="node">
<title>types/nat</title>
<ellipse fill="none" stroke="black" cx="697.49" cy="-594" rx="42.49" ry="18"/>
<text text-anchor="middle" x="697.49" y="-590.3" font-family="Times,serif" font-size="14.00">types/nat</text>
</g>
<!-- structures&#45;&gt;types/nat -->
<g id="edge7" class="edge">
<title>structures&#45;&gt;types/nat</title>
<path fill="none" stroke="black" d="M782.06,-650.33C766.41,-640.08 745.32,-626.29 728.12,-615.04"/>
<polygon fill="black" stroke="black" points="729.81,-611.96 719.53,-609.42 725.98,-617.82 729.81,-611.96"/>
</g>
<!-- theorems/ua -->
<g id="node11" class="node">
<title>theorems/ua</title>
<ellipse fill="none" stroke="black" cx="928.49" cy="-594" rx="53.89" ry="18"/>
<text text-anchor="middle" x="928.49" y="-590.3" font-family="Times,serif" font-size="14.00">theorems/ua</text>
</g>
<!-- structures&#45;&gt;theorems/ua -->
<g id="edge8" class="edge">
<title>structures&#45;&gt;theorems/ua</title>
<path fill="none" stroke="black" d="M829.58,-650.83C847.87,-640.51 872.9,-626.38 893.2,-614.92"/>
<polygon fill="black" stroke="black" points="895.16,-617.83 902.15,-609.87 891.72,-611.74 895.16,-617.83"/>
</g>
<!-- cubical/cubes -->
<g id="node50" class="node">
<title>cubical/cubes</title>
<ellipse fill="none" stroke="black" cx="1390.49" cy="-522" rx="58.49" ry="18"/>
<text text-anchor="middle" x="1390.49" y="-518.3" font-family="Times,serif" font-size="14.00">cubical/cubes</text>
</g>
<!-- HITs/interval&#45;&gt;cubical/cubes -->
<g id="edge53" class="edge">
<title>HITs/interval&#45;&gt;cubical/cubes</title>
<path fill="none" stroke="black" d="M1194.79,-581.05C1234.98,-569.13 1296.8,-550.79 1340.18,-537.92"/>
<polygon fill="black" stroke="black" points="1341.37,-541.22 1349.96,-535.02 1339.38,-534.51 1341.37,-541.22"/>
</g>
<!-- theorems/prop -->
<g id="node51" class="node">
<title>theorems/prop</title>
<ellipse fill="none" stroke="black" cx="928.49" cy="-522" rx="61.99" ry="18"/>
<text text-anchor="middle" x="928.49" y="-518.3" font-family="Times,serif" font-size="14.00">theorems/prop</text>
</g>
<!-- HITs/interval&#45;&gt;theorems/prop -->
<g id="edge54" class="edge">
<title>HITs/interval&#45;&gt;theorems/prop</title>
<path fill="none" stroke="black" d="M1115.13,-580.81C1077.31,-569.09 1020,-551.34 978.87,-538.61"/>
<polygon fill="black" stroke="black" points="979.9,-535.26 969.31,-535.64 977.83,-541.95 979.9,-535.26"/>
</g>
<!-- theorems/fibration -->
<g id="node52" class="node">
<title>theorems/fibration</title>
<ellipse fill="none" stroke="black" cx="1154.49" cy="-450" rx="76.09" ry="18"/>
<text text-anchor="middle" x="1154.49" y="-446.3" font-family="Times,serif" font-size="14.00">theorems/fibration</text>
</g>
<!-- HITs/interval&#45;&gt;theorems/fibration -->
<g id="edge55" class="edge">
<title>HITs/interval&#45;&gt;theorems/fibration</title>
<path fill="none" stroke="black" d="M1154.49,-575.87C1154.49,-551.67 1154.49,-507.21 1154.49,-478.39"/>
<polygon fill="black" stroke="black" points="1157.99,-478.19 1154.49,-468.19 1150.99,-478.19 1157.99,-478.19"/>
</g>
<!-- HITs/merely&#45;&gt;theorems/prop -->
<g id="edge56" class="edge">
<title>HITs/merely&#45;&gt;theorems/prop</title>
<path fill="none" stroke="black" d="M622.65,-581.77C630.54,-579.75 638.75,-577.74 646.49,-576 721.69,-559.12 808.99,-543.29 866.3,-533.4"/>
<polygon fill="black" stroke="black" points="867.03,-536.83 876.29,-531.68 865.84,-529.93 867.03,-536.83"/>
</g>
<!-- theorems/ontological -->
<g id="node54" class="node">
<title>theorems/ontological</title>
<ellipse fill="none" stroke="black" cx="443.49" cy="-522" rx="85.29" ry="18"/>
<text text-anchor="middle" x="443.49" y="-518.3" font-family="Times,serif" font-size="14.00">theorems/ontological</text>
</g>
<!-- HITs/merely&#45;&gt;theorems/ontological -->
<g id="edge57" class="edge">
<title>HITs/merely&#45;&gt;theorems/ontological</title>
<path fill="none" stroke="black" d="M552.9,-578.5C533,-568.4 506.19,-554.8 484.09,-543.59"/>
<polygon fill="black" stroke="black" points="485.44,-540.35 474.94,-538.95 482.27,-546.59 485.44,-540.35"/>
</g>
<!-- HITs/simplicial -->
<g id="node55" class="node">
<title>HITs/simplicial</title>
<ellipse fill="none" stroke="black" cx="612.49" cy="-522" rx="66.09" ry="18"/>
<text text-anchor="middle" x="612.49" y="-518.3" font-family="Times,serif" font-size="14.00">HITs/simplicial</text>
</g>
<!-- HITs/merely&#45;&gt;HITs/simplicial -->
<g id="edge58" class="edge">
<title>HITs/merely&#45;&gt;HITs/simplicial</title>
<path fill="none" stroke="black" d="M589,-576.05C592.52,-568.09 596.81,-558.41 600.75,-549.51"/>
<polygon fill="black" stroke="black" points="603.99,-550.84 604.84,-540.28 597.59,-548 603.99,-550.84"/>
</g>
<!-- theorems/functions -->
<g id="node56" class="node">
<title>theorems/functions</title>
<ellipse fill="none" stroke="black" cx="145.49" cy="-378" rx="78.79" ry="18"/>
<text text-anchor="middle" x="145.49" y="-374.3" font-family="Times,serif" font-size="14.00">theorems/functions</text>
</g>
<!-- HITs/merely&#45;&gt;theorems/functions -->
<g id="edge59" class="edge">
<title>HITs/merely&#45;&gt;theorems/functions</title>
<path fill="none" stroke="black" d="M529.55,-587.06C421.06,-574.55 179.88,-546.12 173.49,-540 137.47,-505.5 137.72,-442.45 141.41,-406.34"/>
<polygon fill="black" stroke="black" points="144.93,-406.4 142.63,-396.06 137.98,-405.57 144.93,-406.4"/>
</g>
<!-- algebra/monoid -->
<g id="node14" class="node">
<title>algebra/monoid</title>
<ellipse fill="none" stroke="black" cx="601.49" cy="-306" rx="66.09" ry="18"/>
<text text-anchor="middle" x="601.49" y="-302.3" font-family="Times,serif" font-size="14.00">algebra/monoid</text>
</g>
<!-- HITs/trunc&#45;&gt;algebra/monoid -->
<g id="edge64" class="edge">
<title>HITs/trunc&#45;&gt;algebra/monoid</title>
<path fill="none" stroke="black" d="M816.5,-575.99C825.44,-556.5 835.66,-524.61 819.49,-504 777.97,-451.08 735.7,-491.01 672.49,-468 668.24,-466.45 528.88,-399.84 526.49,-396 518.04,-382.41 519.13,-374.21 526.49,-360 533.64,-346.2 546.22,-335.22 559.06,-326.92"/>
<polygon fill="black" stroke="black" points="561.16,-329.74 567.93,-321.6 557.55,-323.74 561.16,-329.74"/>
</g>
<!-- HITs/quotient -->
<g id="node49" class="node">
<title>HITs/quotient</title>
<ellipse fill="none" stroke="black" cx="242.49" cy="-522" rx="59.59" ry="18"/>
<text text-anchor="middle" x="242.49" y="-518.3" font-family="Times,serif" font-size="14.00">HITs/quotient</text>
</g>
<!-- HITs/trunc&#45;&gt;HITs/quotient -->
<g id="edge65" class="edge">
<title>HITs/trunc&#45;&gt;HITs/quotient</title>
<path fill="none" stroke="black" d="M771.56,-581.47C764,-579.38 756.04,-577.41 748.49,-576 573.48,-543.2 526.18,-561.98 349.49,-540 334.48,-538.13 318.33,-535.76 303.25,-533.38"/>
<polygon fill="black" stroke="black" points="303.44,-529.87 293.01,-531.75 302.33,-536.78 303.44,-529.87"/>
</g>
<!-- theorems/nat -->
<g id="node39" class="node">
<title>theorems/nat</title>
<ellipse fill="none" stroke="black" cx="753.49" cy="-522" rx="56.59" ry="18"/>
<text text-anchor="middle" x="753.49" y="-518.3" font-family="Times,serif" font-size="14.00">theorems/nat</text>
</g>
<!-- types/nat&#45;&gt;theorems/nat -->
<g id="edge36" class="edge">
<title>types/nat&#45;&gt;theorems/nat</title>
<path fill="none" stroke="black" d="M710.48,-576.76C717.38,-568.14 726,-557.36 733.71,-547.73"/>
<polygon fill="black" stroke="black" points="736.67,-549.63 740.18,-539.63 731.2,-545.26 736.67,-549.63"/>
</g>
<!-- theorems/ua&#45;&gt;theorems/nat -->
<g id="edge84" class="edge">
<title>theorems/ua&#45;&gt;theorems/nat</title>
<path fill="none" stroke="black" d="M895.16,-579.67C867.24,-568.5 827.19,-552.48 796.79,-540.32"/>
<polygon fill="black" stroke="black" points="797.88,-536.98 787.29,-536.52 795.28,-543.48 797.88,-536.98"/>
</g>
<!-- theorems/ua&#45;&gt;theorems/prop -->
<g id="edge85" class="edge">
<title>theorems/ua&#45;&gt;theorems/prop</title>
<path fill="none" stroke="black" d="M928.49,-575.7C928.49,-567.98 928.49,-558.71 928.49,-550.11"/>
<polygon fill="black" stroke="black" points="931.99,-550.1 928.49,-540.1 924.99,-550.1 931.99,-550.1"/>
</g>
<!-- cubical/V -->
<g id="node61" class="node">
<title>cubical/V</title>
<ellipse fill="none" stroke="black" cx="1258.49" cy="-378" rx="44.69" ry="18"/>
<text text-anchor="middle" x="1258.49" y="-374.3" font-family="Times,serif" font-size="14.00">cubical/V</text>
</g>
<!-- theorems/ua&#45;&gt;cubical/V -->
<g id="edge86" class="edge">
<title>theorems/ua&#45;&gt;cubical/V</title>
<path fill="none" stroke="black" d="M978.94,-587.33C1048.5,-576.73 1172.8,-547.26 1239.49,-468 1253.91,-450.86 1258.19,-425.42 1259.13,-406.12"/>
<polygon fill="black" stroke="black" points="1262.63,-406.2 1259.36,-396.12 1255.63,-406.04 1262.63,-406.2"/>
</g>
<!-- algebra/basic -->
<g id="node12" class="node">
<title>algebra/basic</title>
<ellipse fill="none" stroke="black" cx="592.49" cy="-378" rx="57.39" ry="18"/>
<text text-anchor="middle" x="592.49" y="-374.3" font-family="Times,serif" font-size="14.00">algebra/basic</text>
</g>
<!-- algebra/category -->
<g id="node13" class="node">
<title>algebra/category</title>
<ellipse fill="none" stroke="black" cx="1010.49" cy="-306" rx="69.59" ry="18"/>
<text text-anchor="middle" x="1010.49" y="-302.3" font-family="Times,serif" font-size="14.00">algebra/category</text>
</g>
<!-- algebra/basic&#45;&gt;algebra/category -->
<g id="edge9" class="edge">
<title>algebra/basic&#45;&gt;algebra/category</title>
<path fill="none" stroke="black" d="M634.24,-365.56C642.25,-363.56 650.61,-361.6 658.49,-360 754.74,-340.41 867.15,-324.72 938.56,-315.63"/>
<polygon fill="black" stroke="black" points="939.31,-319.07 948.79,-314.34 938.43,-312.12 939.31,-319.07"/>
</g>
<!-- algebra/basic&#45;&gt;algebra/monoid -->
<g id="edge10" class="edge">
<title>algebra/basic&#45;&gt;algebra/monoid</title>
<path fill="none" stroke="black" d="M594.72,-359.7C595.71,-351.98 596.9,-342.71 598.01,-334.11"/>
<polygon fill="black" stroke="black" points="601.49,-334.47 599.29,-324.1 594.55,-333.58 601.49,-334.47"/>
</g>
<!-- algebra/group -->
<g id="node15" class="node">
<title>algebra/group</title>
<ellipse fill="none" stroke="black" cx="277.49" cy="-306" rx="59.59" ry="18"/>
<text text-anchor="middle" x="277.49" y="-302.3" font-family="Times,serif" font-size="14.00">algebra/group</text>
</g>
<!-- algebra/basic&#45;&gt;algebra/group -->
<g id="edge11" class="edge">
<title>algebra/basic&#45;&gt;algebra/group</title>
<path fill="none" stroke="black" d="M546.15,-367.44C496.64,-357.13 415.88,-340.02 346.49,-324 341.78,-322.91 336.9,-321.76 332,-320.59"/>
<polygon fill="black" stroke="black" points="332.53,-317.11 321.99,-318.17 330.88,-323.92 332.53,-317.11"/>
</g>
<!-- algebra/eilenberg_maclane -->
<g id="node17" class="node">
<title>algebra/eilenberg_maclane</title>
<ellipse fill="none" stroke="black" cx="876.49" cy="-234" rx="105.88" ry="18"/>
<text text-anchor="middle" x="876.49" y="-230.3" font-family="Times,serif" font-size="14.00">algebra/eilenberg_maclane</text>
</g>
<!-- algebra/group&#45;&gt;algebra/eilenberg_maclane -->
<g id="edge12" class="edge">
<title>algebra/group&#45;&gt;algebra/eilenberg_maclane</title>
<path fill="none" stroke="black" d="M320.36,-293.44C328.97,-291.4 337.98,-289.47 346.49,-288 491.05,-263.09 659.97,-248.7 767.54,-241.36"/>
<polygon fill="black" stroke="black" points="768.02,-244.84 777.76,-240.67 767.54,-237.85 768.02,-244.84"/>
</g>
<!-- algebra/finite -->
<g id="node18" class="node">
<title>algebra/finite</title>
<ellipse fill="none" stroke="black" cx="270.49" cy="-234" rx="57.69" ry="18"/>
<text text-anchor="middle" x="270.49" y="-230.3" font-family="Times,serif" font-size="14.00">algebra/finite</text>
</g>
<!-- algebra/group&#45;&gt;algebra/finite -->
<g id="edge13" class="edge">
<title>algebra/group&#45;&gt;algebra/finite</title>
<path fill="none" stroke="black" d="M275.76,-287.7C274.99,-279.98 274.06,-270.71 273.2,-262.11"/>
<polygon fill="black" stroke="black" points="276.68,-261.71 272.2,-252.1 269.71,-262.4 276.68,-261.71"/>
</g>
<!-- algebra/ring -->
<g id="node19" class="node">
<title>algebra/ring</title>
<ellipse fill="none" stroke="black" cx="399.49" cy="-234" rx="53.09" ry="18"/>
<text text-anchor="middle" x="399.49" y="-230.3" font-family="Times,serif" font-size="14.00">algebra/ring</text>
</g>
<!-- algebra/group&#45;&gt;algebra/ring -->
<g id="edge14" class="edge">
<title>algebra/group&#45;&gt;algebra/ring</title>
<path fill="none" stroke="black" d="M303.96,-289.81C321.75,-279.61 345.38,-266.05 364.68,-254.97"/>
<polygon fill="black" stroke="black" points="366.56,-257.93 373.49,-249.92 363.07,-251.86 366.56,-257.93"/>
</g>
<!-- algebra/transformational -->
<g id="node20" class="node">
<title>algebra/transformational</title>
<ellipse fill="none" stroke="black" cx="97.49" cy="-234" rx="97.48" ry="18"/>
<text text-anchor="middle" x="97.49" y="-230.3" font-family="Times,serif" font-size="14.00">algebra/transformational</text>
</g>
<!-- algebra/group&#45;&gt;algebra/transformational -->
<g id="edge15" class="edge">
<title>algebra/group&#45;&gt;algebra/transformational</title>
<path fill="none" stroke="black" d="M242.36,-291.34C215.12,-280.75 177.05,-265.94 146.77,-254.16"/>
<polygon fill="black" stroke="black" points="147.82,-250.82 137.24,-250.46 145.29,-257.34 147.82,-250.82"/>
</g>
<!-- algebra/Z -->
<g id="node21" class="node">
<title>algebra/Z</title>
<ellipse fill="none" stroke="black" cx="514.49" cy="-234" rx="44.39" ry="18"/>
<text text-anchor="middle" x="514.49" y="-230.3" font-family="Times,serif" font-size="14.00">algebra/Z</text>
</g>
<!-- algebra/group&#45;&gt;algebra/Z -->
<g id="edge16" class="edge">
<title>algebra/group&#45;&gt;algebra/Z</title>
<path fill="none" stroke="black" d="M319.99,-293.15C357.35,-282.64 413.15,-266.71 461.49,-252 464.78,-251 468.18,-249.95 471.59,-248.88"/>
<polygon fill="black" stroke="black" points="472.7,-252.2 481.18,-245.85 470.59,-245.53 472.7,-252.2"/>
</g>
<!-- algebra/boolean -->
<g id="node16" class="node">
<title>algebra/boolean</title>
<ellipse fill="none" stroke="black" cx="376.49" cy="-162" rx="66.89" ry="18"/>
<text text-anchor="middle" x="376.49" y="-158.3" font-family="Times,serif" font-size="14.00">algebra/boolean</text>
</g>
<!-- algebra/ring&#45;&gt;algebra/boolean -->
<g id="edge19" class="edge">
<title>algebra/ring&#45;&gt;algebra/boolean</title>
<path fill="none" stroke="black" d="M393.92,-216.05C391.33,-208.18 388.19,-198.62 385.3,-189.79"/>
<polygon fill="black" stroke="black" points="388.61,-188.68 382.17,-180.28 381.96,-190.87 388.61,-188.68"/>
</g>
<!-- algebra/orgraph -->
<g id="node24" class="node">
<title>algebra/orgraph</title>
<ellipse fill="none" stroke="black" cx="935.49" cy="-162" rx="66.09" ry="18"/>
<text text-anchor="middle" x="935.49" y="-158.3" font-family="Times,serif" font-size="14.00">algebra/orgraph</text>
</g>
<!-- algebra/ring&#45;&gt;algebra/orgraph -->
<g id="edge20" class="edge">
<title>algebra/ring&#45;&gt;algebra/orgraph</title>
<path fill="none" stroke="black" d="M437.97,-221.45C445.71,-219.41 453.82,-217.47 461.49,-216 601.41,-189.17 767.35,-174.46 861.14,-167.7"/>
<polygon fill="black" stroke="black" points="861.65,-171.18 871.38,-166.98 861.16,-164.19 861.65,-171.18"/>
</g>
<!-- algebra/homology -->
<g id="node22" class="node">
<title>algebra/homology</title>
<ellipse fill="none" stroke="black" cx="536.49" cy="-162" rx="75.29" ry="18"/>
<text text-anchor="middle" x="536.49" y="-158.3" font-family="Times,serif" font-size="14.00">algebra/homology</text>
</g>
<!-- algebra/Z&#45;&gt;algebra/homology -->
<g id="edge21" class="edge">
<title>algebra/Z&#45;&gt;algebra/homology</title>
<path fill="none" stroke="black" d="M519.82,-216.05C522.27,-208.26 525.23,-198.82 527.98,-190.08"/>
<polygon fill="black" stroke="black" points="531.4,-190.86 531.06,-180.28 524.72,-188.77 531.4,-190.86"/>
</g>
<!-- algebra/limited -->
<g id="node23" class="node">
<title>algebra/limited</title>
<ellipse fill="none" stroke="black" cx="935.49" cy="-18" rx="64.19" ry="18"/>
<text text-anchor="middle" x="935.49" y="-14.3" font-family="Times,serif" font-size="14.00">algebra/limited</text>
</g>
<!-- algebra/reals -->
<g id="node25" class="node">
<title>algebra/reals</title>
<ellipse fill="none" stroke="black" cx="935.49" cy="-90" rx="55.79" ry="18"/>
<text text-anchor="middle" x="935.49" y="-86.3" font-family="Times,serif" font-size="14.00">algebra/reals</text>
</g>
<!-- algebra/orgraph&#45;&gt;algebra/reals -->
<g id="edge17" class="edge">
<title>algebra/orgraph&#45;&gt;algebra/reals</title>
<path fill="none" stroke="black" d="M935.49,-143.7C935.49,-135.98 935.49,-126.71 935.49,-118.11"/>
<polygon fill="black" stroke="black" points="938.99,-118.1 935.49,-108.1 931.99,-118.1 938.99,-118.1"/>
</g>
<!-- algebra/reals&#45;&gt;algebra/limited -->
<g id="edge18" class="edge">
<title>algebra/reals&#45;&gt;algebra/limited</title>
<path fill="none" stroke="black" d="M935.49,-71.7C935.49,-63.98 935.49,-54.71 935.49,-46.11"/>
<polygon fill="black" stroke="black" points="938.99,-46.1 935.49,-36.1 931.99,-46.1 938.99,-46.1"/>
</g>
<!-- types/category -->
<g id="node26" class="node">
<title>types/category</title>
<ellipse fill="none" stroke="black" cx="861.49" cy="-378" rx="61.99" ry="18"/>
<text text-anchor="middle" x="861.49" y="-374.3" font-family="Times,serif" font-size="14.00">types/category</text>
</g>
<!-- types/coproduct&#45;&gt;structures -->
<g id="edge22" class="edge">
<title>types/coproduct&#45;&gt;structures</title>
<path fill="none" stroke="black" d="M926.39,-792.43C901.85,-767.18 855,-718.97 827.07,-690.23"/>
<polygon fill="black" stroke="black" points="829.55,-687.76 820.07,-683.03 824.53,-692.64 829.55,-687.76"/>
</g>
<!-- types/ens -->
<g id="node28" class="node">
<title>types/ens</title>
<ellipse fill="none" stroke="black" cx="725.49" cy="-450" rx="43.59" ry="18"/>
<text text-anchor="middle" x="725.49" y="-446.3" font-family="Times,serif" font-size="14.00">types/ens</text>
</g>
<!-- types/ens&#45;&gt;algebra/basic -->
<g id="edge24" class="edge">
<title>types/ens&#45;&gt;algebra/basic</title>
<path fill="none" stroke="black" d="M699.53,-435.34C679.6,-424.85 651.81,-410.22 629.54,-398.5"/>
<polygon fill="black" stroke="black" points="631.16,-395.4 620.68,-393.84 627.9,-401.59 631.16,-395.4"/>
</g>
<!-- types/setquot -->
<g id="node29" class="node">
<title>types/setquot</title>
<ellipse fill="none" stroke="black" cx="724.49" cy="-378" rx="57.39" ry="18"/>
<text text-anchor="middle" x="724.49" y="-374.3" font-family="Times,serif" font-size="14.00">types/setquot</text>
</g>
<!-- types/ens&#45;&gt;types/setquot -->
<g id="edge25" class="edge">
<title>types/ens&#45;&gt;types/setquot</title>
<path fill="none" stroke="black" d="M725.24,-431.7C725.13,-423.98 725,-414.71 724.88,-406.11"/>
<polygon fill="black" stroke="black" points="728.38,-406.05 724.74,-396.1 721.38,-406.15 728.38,-406.05"/>
</g>
<!-- HITs/graph -->
<g id="node35" class="node">
<title>HITs/graph</title>
<ellipse fill="none" stroke="black" cx="474.49" cy="-738" rx="51.19" ry="18"/>
<text text-anchor="middle" x="474.49" y="-734.3" font-family="Times,serif" font-size="14.00">HITs/graph</text>
</g>
<!-- types/heq&#45;&gt;HITs/graph -->
<g id="edge32" class="edge">
<title>types/heq&#45;&gt;HITs/graph</title>
<path fill="none" stroke="black" d="M493.84,-863.87C490.09,-839.67 483.2,-795.21 478.74,-766.39"/>
<polygon fill="black" stroke="black" points="482.14,-765.54 477.15,-756.19 475.23,-766.61 482.14,-765.54"/>
</g>
<!-- theorems/funext -->
<g id="node36" class="node">
<title>theorems/funext</title>
<ellipse fill="none" stroke="black" cx="664.49" cy="-810" rx="68.49" ry="18"/>
<text text-anchor="middle" x="664.49" y="-806.3" font-family="Times,serif" font-size="14.00">theorems/funext</text>
</g>
<!-- types/heq&#45;&gt;theorems/funext -->
<g id="edge33" class="edge">
<title>types/heq&#45;&gt;theorems/funext</title>
<path fill="none" stroke="black" d="M526.14,-868.65C552.23,-857.77 590.59,-841.79 620.31,-829.41"/>
<polygon fill="black" stroke="black" points="621.74,-832.61 629.62,-825.53 619.04,-826.14 621.74,-832.61"/>
</g>
<!-- types/unit&#45;&gt;structures -->
<g id="edge40" class="edge">
<title>types/unit&#45;&gt;structures</title>
<path fill="none" stroke="black" d="M623.56,-725.91C660.75,-713.8 720.4,-694.38 760.96,-681.17"/>
<polygon fill="black" stroke="black" points="762.16,-684.46 770.58,-678.04 759.99,-677.81 762.16,-684.46"/>
</g>
<!-- HITs/suspension -->
<g id="node42" class="node">
<title>HITs/suspension</title>
<ellipse fill="none" stroke="black" cx="340.49" cy="-594" rx="69.59" ry="18"/>
<text text-anchor="middle" x="340.49" y="-590.3" font-family="Times,serif" font-size="14.00">HITs/suspension</text>
</g>
<!-- types/unit&#45;&gt;HITs/suspension -->
<g id="edge41" class="edge">
<title>types/unit&#45;&gt;HITs/suspension</title>
<path fill="none" stroke="black" d="M590.67,-719.73C591.03,-699.69 588.36,-666.99 569.49,-648 547.71,-626.07 471.52,-611.54 412.94,-603.32"/>
<polygon fill="black" stroke="black" points="413.34,-599.85 402.96,-601.96 412.4,-606.78 413.34,-599.85"/>
</g>
<!-- types/sigma&#45;&gt;structures -->
<g id="edge39" class="edge">
<title>types/sigma&#45;&gt;structures</title>
<path fill="none" stroke="black" d="M804.49,-791.87C804.49,-767.67 804.49,-723.21 804.49,-694.39"/>
<polygon fill="black" stroke="black" points="807.99,-694.19 804.49,-684.19 800.99,-694.19 807.99,-694.19"/>
</g>
<!-- HITs/colimit -->
<g id="node46" class="node">
<title>HITs/colimit</title>
<ellipse fill="none" stroke="black" cx="673.49" cy="-666" rx="56.59" ry="18"/>
<text text-anchor="middle" x="673.49" y="-662.3" font-family="Times,serif" font-size="14.00">HITs/colimit</text>
</g>
<!-- HITs/graph&#45;&gt;HITs/colimit -->
<g id="edge49" class="edge">
<title>HITs/graph&#45;&gt;HITs/colimit</title>
<path fill="none" stroke="black" d="M509.61,-724.65C542.35,-713.13 591.39,-695.88 627.29,-683.25"/>
<polygon fill="black" stroke="black" points="628.77,-686.44 637.04,-679.82 626.45,-679.84 628.77,-686.44"/>
</g>
<!-- HITs/generalized -->
<g id="node47" class="node">
<title>HITs/generalized</title>
<ellipse fill="none" stroke="black" cx="489.49" cy="-666" rx="71.49" ry="18"/>
<text text-anchor="middle" x="489.49" y="-662.3" font-family="Times,serif" font-size="14.00">HITs/generalized</text>
</g>
<!-- HITs/graph&#45;&gt;HITs/generalized -->
<g id="edge50" class="edge">
<title>HITs/graph&#45;&gt;HITs/generalized</title>
<path fill="none" stroke="black" d="M478.2,-719.7C479.85,-711.98 481.84,-702.71 483.68,-694.11"/>
<polygon fill="black" stroke="black" points="487.15,-694.62 485.83,-684.1 480.31,-693.15 487.15,-694.62"/>
</g>
<!-- HITs/pushout -->
<g id="node48" class="node">
<title>HITs/pushout</title>
<ellipse fill="none" stroke="black" cx="340.49" cy="-666" rx="59.29" ry="18"/>
<text text-anchor="middle" x="340.49" y="-662.3" font-family="Times,serif" font-size="14.00">HITs/pushout</text>
</g>
<!-- HITs/graph&#45;&gt;HITs/pushout -->
<g id="edge51" class="edge">
<title>HITs/graph&#45;&gt;HITs/pushout</title>
<path fill="none" stroke="black" d="M447.05,-722.67C427.22,-712.31 400.18,-698.18 378.31,-686.75"/>
<polygon fill="black" stroke="black" points="379.77,-683.57 369.28,-682.04 376.53,-689.77 379.77,-683.57"/>
</g>
<!-- HITs/graph&#45;&gt;HITs/quotient -->
<g id="edge52" class="edge">
<title>HITs/graph&#45;&gt;HITs/quotient</title>
<path fill="none" stroke="black" d="M427.59,-730.57C374.71,-722.35 293.36,-706.43 272.49,-684 238.62,-647.59 237.03,-585.78 239.42,-550.27"/>
<polygon fill="black" stroke="black" points="242.92,-550.41 240.26,-540.15 235.94,-549.83 242.92,-550.41"/>
</g>
<!-- types/product -->
<g id="node41" class="node">
<title>types/product</title>
<ellipse fill="none" stroke="black" cx="713.49" cy="-738" rx="58.49" ry="18"/>
<text text-anchor="middle" x="713.49" y="-734.3" font-family="Times,serif" font-size="14.00">types/product</text>
</g>
<!-- theorems/funext&#45;&gt;types/product -->
<g id="edge76" class="edge">
<title>theorems/funext&#45;&gt;types/product</title>
<path fill="none" stroke="black" d="M676.35,-792.05C682.19,-783.71 689.35,-773.49 695.82,-764.25"/>
<polygon fill="black" stroke="black" points="698.87,-765.99 701.74,-755.79 693.14,-761.97 698.87,-765.99"/>
</g>
<!-- types/integer -->
<g id="node37" class="node">
<title>types/integer</title>
<ellipse fill="none" stroke="black" cx="334.49" cy="-450" rx="55.79" ry="18"/>
<text text-anchor="middle" x="334.49" y="-446.3" font-family="Times,serif" font-size="14.00">types/integer</text>
</g>
<!-- types/integer&#45;&gt;algebra/group -->
<g id="edge34" class="edge">
<title>types/integer&#45;&gt;algebra/group</title>
<path fill="none" stroke="black" d="M327.62,-431.87C317.82,-407.46 299.74,-362.43 288.18,-333.64"/>
<polygon fill="black" stroke="black" points="291.36,-332.17 284.39,-324.19 284.87,-334.77 291.36,-332.17"/>
</g>
<!-- HITs/circle -->
<g id="node38" class="node">
<title>HITs/circle</title>
<ellipse fill="none" stroke="black" cx="418.49" cy="-378" rx="50.89" ry="18"/>
<text text-anchor="middle" x="418.49" y="-374.3" font-family="Times,serif" font-size="14.00">HITs/circle</text>
</g>
<!-- types/integer&#45;&gt;HITs/circle -->
<g id="edge35" class="edge">
<title>types/integer&#45;&gt;HITs/circle</title>
<path fill="none" stroke="black" d="M353.97,-432.76C365.19,-423.42 379.44,-411.55 391.69,-401.33"/>
<polygon fill="black" stroke="black" points="393.96,-404 399.4,-394.91 389.48,-398.62 393.96,-404"/>
</g>
<!-- HITs/circle&#45;&gt;algebra/Z -->
<g id="edge42" class="edge">
<title>HITs/circle&#45;&gt;algebra/Z</title>
<path fill="none" stroke="black" d="M445.19,-362.55C459.92,-353.31 477.42,-340.06 488.49,-324 501.23,-305.52 507.8,-280.77 511.15,-262.07"/>
<polygon fill="black" stroke="black" points="514.62,-262.53 512.73,-252.11 507.71,-261.43 514.62,-262.53"/>
</g>
<!-- theorems/hopf -->
<g id="node43" class="node">
<title>theorems/hopf</title>
<ellipse fill="none" stroke="black" cx="797.49" cy="-306" rx="61.99" ry="18"/>
<text text-anchor="middle" x="797.49" y="-302.3" font-family="Times,serif" font-size="14.00">theorems/hopf</text>
</g>
<!-- HITs/circle&#45;&gt;theorems/hopf -->
<g id="edge43" class="edge">
<title>HITs/circle&#45;&gt;theorems/hopf</title>
<path fill="none" stroke="black" d="M462.34,-368.9C530.03,-356.4 660.16,-332.36 736.84,-318.2"/>
<polygon fill="black" stroke="black" points="737.63,-321.62 746.83,-316.36 736.36,-314.73 737.63,-321.62"/>
</g>
<!-- HITs/moebius -->
<g id="node44" class="node">
<title>HITs/moebius</title>
<ellipse fill="none" stroke="black" cx="417.49" cy="-306" rx="61.99" ry="18"/>
<text text-anchor="middle" x="417.49" y="-302.3" font-family="Times,serif" font-size="14.00">HITs/moebius</text>
</g>
<!-- HITs/circle&#45;&gt;HITs/moebius -->
<g id="edge44" class="edge">
<title>HITs/circle&#45;&gt;HITs/moebius</title>
<path fill="none" stroke="black" d="M418.24,-359.7C418.13,-351.98 418,-342.71 417.88,-334.11"/>
<polygon fill="black" stroke="black" points="421.38,-334.05 417.74,-324.1 414.38,-334.15 421.38,-334.05"/>
</g>
<!-- HITs/reals -->
<g id="node45" class="node">
<title>HITs/reals</title>
<ellipse fill="none" stroke="black" cx="147.49" cy="-306" rx="48.19" ry="18"/>
<text text-anchor="middle" x="147.49" y="-302.3" font-family="Times,serif" font-size="14.00">HITs/reals</text>
</g>
<!-- HITs/circle&#45;&gt;HITs/reals -->
<g id="edge45" class="edge">
<title>HITs/circle&#45;&gt;HITs/reals</title>
<path fill="none" stroke="black" d="M377.76,-367.04C335.4,-356.6 267.18,-339.58 208.49,-324 203.89,-322.78 199.09,-321.48 194.3,-320.17"/>
<polygon fill="black" stroke="black" points="195.12,-316.77 184.55,-317.48 193.26,-323.51 195.12,-316.77"/>
</g>
<!-- theorems/nat&#45;&gt;types/integer -->
<g id="edge77" class="edge">
<title>theorems/nat&#45;&gt;types/integer</title>
<path fill="none" stroke="black" d="M712.1,-509.64C703.97,-507.61 695.49,-505.63 687.49,-504 586.2,-483.41 467.04,-467.15 396.31,-458.32"/>
<polygon fill="black" stroke="black" points="396.58,-454.83 386.23,-457.07 395.72,-461.77 396.58,-454.83"/>
</g>
<!-- HITs/int -->
<g id="node63" class="node">
<title>HITs/int</title>
<ellipse fill="none" stroke="black" cx="547.49" cy="-450" rx="40.09" ry="18"/>
<text text-anchor="middle" x="547.49" y="-446.3" font-family="Times,serif" font-size="14.00">HITs/int</text>
</g>
<!-- theorems/nat&#45;&gt;HITs/int -->
<g id="edge78" class="edge">
<title>theorems/nat&#45;&gt;HITs/int</title>
<path fill="none" stroke="black" d="M716.19,-508.32C680,-496.03 625.24,-477.42 588.01,-464.77"/>
<polygon fill="black" stroke="black" points="589.06,-461.43 578.47,-461.53 586.81,-468.06 589.06,-461.43"/>
</g>
<!-- types/precategory -->
<g id="node40" class="node">
<title>types/precategory</title>
<ellipse fill="none" stroke="black" cx="880.49" cy="-450" rx="73.39" ry="18"/>
<text text-anchor="middle" x="880.49" y="-446.3" font-family="Times,serif" font-size="14.00">types/precategory</text>
</g>
<!-- types/precategory&#45;&gt;types/category -->
<g id="edge37" class="edge">
<title>types/precategory&#45;&gt;types/category</title>
<path fill="none" stroke="black" d="M875.79,-431.7C873.68,-423.9 871.13,-414.51 868.77,-405.83"/>
<polygon fill="black" stroke="black" points="872.13,-404.84 866.13,-396.1 865.38,-406.67 872.13,-404.84"/>
</g>
<!-- types/product&#45;&gt;structures -->
<g id="edge38" class="edge">
<title>types/product&#45;&gt;structures</title>
<path fill="none" stroke="black" d="M734.14,-721.12C746.65,-711.5 762.77,-699.1 776.42,-688.59"/>
<polygon fill="black" stroke="black" points="778.76,-691.21 784.55,-682.34 774.49,-685.66 778.76,-691.21"/>
</g>
<!-- HITs/suspension&#45;&gt;HITs/circle -->
<g id="edge62" class="edge">
<title>HITs/suspension&#45;&gt;HITs/circle</title>
<path fill="none" stroke="black" d="M338.24,-575.67C336.64,-556.75 336.67,-526.19 349.49,-504 363.19,-480.29 384.52,-490.93 399.49,-468 411.48,-449.64 416.05,-425.04 417.73,-406.35"/>
<polygon fill="black" stroke="black" points="421.24,-406.34 418.42,-396.12 414.25,-405.87 421.24,-406.34"/>
</g>
<!-- HITs/join -->
<g id="node53" class="node">
<title>HITs/join</title>
<ellipse fill="none" stroke="black" cx="81.49" cy="-522" rx="44.69" ry="18"/>
<text text-anchor="middle" x="81.49" y="-518.3" font-family="Times,serif" font-size="14.00">HITs/join</text>
</g>
<!-- HITs/suspension&#45;&gt;HITs/join -->
<g id="edge63" class="edge">
<title>HITs/suspension&#45;&gt;HITs/join</title>
<path fill="none" stroke="black" d="M293.13,-580.76C252.56,-570.19 192.6,-554.41 140.49,-540 135.92,-538.73 131.15,-537.4 126.39,-536.05"/>
<polygon fill="black" stroke="black" points="127.29,-532.66 116.71,-533.28 125.37,-539.39 127.29,-532.66"/>
</g>
<!-- HITs/colimit&#45;&gt;HITs/merely -->
<g id="edge46" class="edge">
<title>HITs/colimit&#45;&gt;HITs/merely</title>
<path fill="none" stroke="black" d="M652.62,-649.12C640.15,-639.63 624.13,-627.44 610.45,-617.03"/>
<polygon fill="black" stroke="black" points="612.36,-614.09 602.28,-610.82 608.12,-619.66 612.36,-614.09"/>
</g>
<!-- HITs/colimit&#45;&gt;types/nat -->
<g id="edge47" class="edge">
<title>HITs/colimit&#45;&gt;types/nat</title>
<path fill="none" stroke="black" d="M679.3,-648.05C682,-640.18 685.28,-630.62 688.3,-621.79"/>
<polygon fill="black" stroke="black" points="691.64,-622.87 691.57,-612.28 685.01,-620.6 691.64,-622.87"/>
</g>
<!-- HITs/generalized&#45;&gt;HITs/merely -->
<g id="edge48" class="edge">
<title>HITs/generalized&#45;&gt;HITs/merely</title>
<path fill="none" stroke="black" d="M510.83,-648.76C523.23,-639.33 539.01,-627.32 552.52,-617.04"/>
<polygon fill="black" stroke="black" points="554.75,-619.75 560.59,-610.91 550.51,-614.18 554.75,-619.75"/>
</g>
<!-- HITs/pushout&#45;&gt;HITs/suspension -->
<g id="edge60" class="edge">
<title>HITs/pushout&#45;&gt;HITs/suspension</title>
<path fill="none" stroke="black" d="M340.49,-647.7C340.49,-639.98 340.49,-630.71 340.49,-622.11"/>
<polygon fill="black" stroke="black" points="343.99,-622.1 340.49,-612.1 336.99,-622.1 343.99,-622.1"/>
</g>
<!-- HITs/quotient&#45;&gt;algebra/group -->
<g id="edge61" class="edge">
<title>HITs/quotient&#45;&gt;algebra/group</title>
<path fill="none" stroke="black" d="M245.3,-503.85C251.36,-466.75 265.75,-378.81 273.06,-334.1"/>
<polygon fill="black" stroke="black" points="276.51,-334.67 274.67,-324.23 269.6,-333.54 276.51,-334.67"/>
</g>
<!-- cubical/path -->
<g id="node58" class="node">
<title>cubical/path</title>
<ellipse fill="none" stroke="black" cx="1394.49" cy="-450" rx="53.89" ry="18"/>
<text text-anchor="middle" x="1394.49" y="-446.3" font-family="Times,serif" font-size="14.00">cubical/path</text>
</g>
<!-- cubical/cubes&#45;&gt;cubical/path -->
<g id="edge66" class="edge">
<title>cubical/cubes&#45;&gt;cubical/path</title>
<path fill="none" stroke="black" d="M1391.48,-503.7C1391.92,-495.98 1392.45,-486.71 1392.94,-478.11"/>
<polygon fill="black" stroke="black" points="1396.44,-478.29 1393.51,-468.1 1389.45,-477.89 1396.44,-478.29"/>
</g>
<!-- theorems/prop&#45;&gt;algebra/eilenberg_maclane -->
<g id="edge79" class="edge">
<title>theorems/prop&#45;&gt;algebra/eilenberg_maclane</title>
<path fill="none" stroke="black" d="M952.08,-505.28C979.79,-487 1027.33,-456.25 1069.49,-432 1099.48,-414.75 1120.56,-425.58 1138.49,-396 1146.79,-382.32 1143.2,-375.29 1138.49,-360 1127.1,-323.01 1121.25,-310.13 1089.49,-288 1056.99,-265.35 1015.76,-252.36 978.25,-244.91"/>
<polygon fill="black" stroke="black" points="978.76,-241.45 968.29,-243.05 977.47,-248.33 978.76,-241.45"/>
</g>
<!-- theorems/prop&#45;&gt;types/ens -->
<g id="edge80" class="edge">
<title>theorems/prop&#45;&gt;types/ens</title>
<path fill="none" stroke="black" d="M890.31,-507.83C855.35,-495.78 803.71,-477.97 767.57,-465.51"/>
<polygon fill="black" stroke="black" points="768.41,-462.1 757.82,-462.15 766.13,-468.72 768.41,-462.1"/>
</g>
<!-- theorems/prop&#45;&gt;HITs/circle -->
<g id="edge81" class="edge">
<title>theorems/prop&#45;&gt;HITs/circle</title>
<path fill="none" stroke="black" d="M877.22,-511.88C813.84,-500.35 709.77,-480.49 672.49,-468 637.05,-456.13 631.39,-445.37 596.49,-432 554.11,-415.76 504.52,-401.36 468.46,-391.68"/>
<polygon fill="black" stroke="black" points="469.23,-388.26 458.66,-389.08 467.43,-395.03 469.23,-388.26"/>
</g>
<!-- theorems/prop&#45;&gt;types/precategory -->
<g id="edge82" class="edge">
<title>theorems/prop&#45;&gt;types/precategory</title>
<path fill="none" stroke="black" d="M916.87,-504.05C911.15,-495.71 904.14,-485.49 897.81,-476.25"/>
<polygon fill="black" stroke="black" points="900.55,-474.06 892,-467.79 894.77,-478.02 900.55,-474.06"/>
</g>
<!-- theorems/classical -->
<g id="node62" class="node">
<title>theorems/classical</title>
<ellipse fill="none" stroke="black" cx="1054.49" cy="-378" rx="75.29" ry="18"/>
<text text-anchor="middle" x="1054.49" y="-374.3" font-family="Times,serif" font-size="14.00">theorems/classical</text>
</g>
<!-- theorems/prop&#45;&gt;theorems/classical -->
<g id="edge83" class="edge">
<title>theorems/prop&#45;&gt;theorems/classical</title>
<path fill="none" stroke="black" d="M943.19,-504.43C965.27,-479.56 1007.11,-432.4 1032.73,-403.53"/>
<polygon fill="black" stroke="black" points="1035.47,-405.7 1039.49,-395.9 1030.24,-401.06 1035.47,-405.7"/>
</g>
<!-- theorems/fibration&#45;&gt;theorems/hopf -->
<g id="edge73" class="edge">
<title>theorems/fibration&#45;&gt;theorems/hopf</title>
<path fill="none" stroke="black" d="M1093.61,-439.07C1056.31,-431.19 1008.58,-417.78 970.49,-396 950.3,-384.45 952.12,-372.48 932.49,-360 907.05,-343.83 875.89,-331.19 849.91,-322.32"/>
<polygon fill="black" stroke="black" points="850.83,-318.94 840.23,-319.11 848.62,-325.58 850.83,-318.94"/>
</g>
<!-- theorems/functions&#45;&gt;algebra/group -->
<g id="edge74" class="edge">
<title>theorems/functions&#45;&gt;algebra/group</title>
<path fill="none" stroke="black" d="M175.11,-361.29C194.36,-351.08 219.61,-337.69 240.22,-326.77"/>
<polygon fill="black" stroke="black" points="242.13,-329.71 249.32,-321.94 238.85,-323.53 242.13,-329.71"/>
</g>
<!-- theorems/functions&#45;&gt;HITs/reals -->
<g id="edge75" class="edge">
<title>theorems/functions&#45;&gt;HITs/reals</title>
<path fill="none" stroke="black" d="M145.99,-359.7C146.21,-351.98 146.47,-342.71 146.72,-334.11"/>
<polygon fill="black" stroke="black" points="150.22,-334.2 147,-324.1 143.22,-334 150.22,-334.2"/>
</g>
<!-- cubical/connection -->
<g id="node57" class="node">
<title>cubical/connection</title>
<ellipse fill="none" stroke="black" cx="1398.49" cy="-378" rx="77.19" ry="18"/>
<text text-anchor="middle" x="1398.49" y="-374.3" font-family="Times,serif" font-size="14.00">cubical/connection</text>
</g>
<!-- cubical/path&#45;&gt;cubical/connection -->
<g id="edge67" class="edge">
<title>cubical/path&#45;&gt;cubical/connection</title>
<path fill="none" stroke="black" d="M1395.48,-431.7C1395.92,-423.98 1396.45,-414.71 1396.94,-406.11"/>
<polygon fill="black" stroke="black" points="1400.44,-406.29 1397.51,-396.1 1393.45,-405.89 1400.44,-406.29"/>
</g>
<!-- cubical/square -->
<g id="node60" class="node">
<title>cubical/square</title>
<ellipse fill="none" stroke="black" cx="1555.49" cy="-378" rx="61.99" ry="18"/>
<text text-anchor="middle" x="1555.49" y="-374.3" font-family="Times,serif" font-size="14.00">cubical/square</text>
</g>
<!-- cubical/path&#45;&gt;cubical/square -->
<g id="edge68" class="edge">
<title>cubical/path&#45;&gt;cubical/square</title>
<path fill="none" stroke="black" d="M1425.92,-435.34C1450.8,-424.52 1485.8,-409.3 1513.16,-397.41"/>
<polygon fill="black" stroke="black" points="1514.71,-400.55 1522.49,-393.35 1511.92,-394.13 1514.71,-400.55"/>
</g>
<!-- cubical/path&#45;&gt;cubical/V -->
<g id="edge69" class="edge">
<title>cubical/path&#45;&gt;cubical/V</title>
<path fill="none" stroke="black" d="M1366.31,-434.5C1345.39,-423.73 1316.7,-408.96 1294.17,-397.36"/>
<polygon fill="black" stroke="black" points="1295.74,-394.24 1285.25,-392.77 1292.54,-400.46 1295.74,-394.24"/>
</g>
<!-- cubical/example -->
<g id="node59" class="node">
<title>cubical/example</title>
<ellipse fill="none" stroke="black" cx="1275.49" cy="-306" rx="68.79" ry="18"/>
<text text-anchor="middle" x="1275.49" y="-302.3" font-family="Times,serif" font-size="14.00">cubical/example</text>
</g>
<!-- cubical/V&#45;&gt;cubical/example -->
<g id="edge70" class="edge">
<title>cubical/V&#45;&gt;cubical/example</title>
<path fill="none" stroke="black" d="M1262.61,-360.05C1264.5,-352.26 1266.79,-342.82 1268.92,-334.08"/>
<polygon fill="black" stroke="black" points="1272.34,-334.82 1271.3,-324.28 1265.53,-333.17 1272.34,-334.82"/>
</g>
<!-- theorems/classical&#45;&gt;algebra/category -->
<g id="edge71" class="edge">
<title>theorems/classical&#45;&gt;algebra/category</title>
<path fill="none" stroke="black" d="M1043.84,-360.05C1038.73,-351.92 1032.49,-342 1026.8,-332.94"/>
<polygon fill="black" stroke="black" points="1029.64,-330.88 1021.35,-324.28 1023.71,-334.6 1029.64,-330.88"/>
</g>
<!-- theorems/classical&#45;&gt;algebra/orgraph -->
<g id="edge72" class="edge">
<title>theorems/classical&#45;&gt;algebra/orgraph</title>
<path fill="none" stroke="black" d="M1069.34,-360.3C1083.54,-342.2 1101.2,-312.58 1089.49,-288 1066.29,-239.28 1013.78,-203.36 976.54,-182.83"/>
<polygon fill="black" stroke="black" points="977.9,-179.59 967.43,-177.95 974.59,-185.76 977.9,-179.59"/>
</g>
</g>
</svg>
