<?xml version="1.0" encoding="UTF-8" standalone="no"?>
<!DOCTYPE svg PUBLIC "-//W3C//DTD SVG 1.1//EN"
 "http://www.w3.org/Graphics/SVG/1.1/DTD/svg11.dtd">
<!-- Generated by graphviz version 2.38.0 (20140413.2041)
 -->
<!-- Title: dependency_map Pages: 1 -->
<svg width="1363pt" height="764pt"
 viewBox="0.00 0.00 1363.03 764.00" xmlns="http://www.w3.org/2000/svg" xmlns:xlink="http://www.w3.org/1999/xlink">
<g id="graph0" class="graph" transform="scale(1 1) rotate(0) translate(4 760)">
<title>dependency_map</title>
<polygon fill="white" stroke="none" points="-4,4 -4,-760 1359.03,-760 1359.03,4 -4,4"/>
<!-- proto -->
<g id="node1" class="node"><title>proto</title>
<ellipse fill="none" stroke="black" cx="681.596" cy="-738" rx="30.5947" ry="18"/>
<text text-anchor="middle" x="681.596" y="-734.3" font-family="Times New Roman,serif" font-size="14.00">proto</text>
</g>
<!-- types/eq -->
<g id="node2" class="node"><title>types/eq</title>
<ellipse fill="none" stroke="black" cx="741.596" cy="-666" rx="41.6928" ry="18"/>
<text text-anchor="middle" x="741.596" y="-662.3" font-family="Times New Roman,serif" font-size="14.00">types/eq</text>
</g>
<!-- proto&#45;&gt;types/eq -->
<g id="edge1" class="edge"><title>proto&#45;&gt;types/eq</title>
<path fill="none" stroke="black" d="M694.912,-721.465C702.54,-712.566 712.278,-701.205 720.884,-691.164"/>
<polygon fill="black" stroke="black" points="723.631,-693.338 727.482,-683.467 718.316,-688.782 723.631,-693.338"/>
</g>
<!-- support -->
<g id="node4" class="node"><title>support</title>
<ellipse fill="none" stroke="black" cx="803.596" cy="-594" rx="38.9931" ry="18"/>
<text text-anchor="middle" x="803.596" y="-590.3" font-family="Times New Roman,serif" font-size="14.00">support</text>
</g>
<!-- types/eq&#45;&gt;support -->
<g id="edge11" class="edge"><title>types/eq&#45;&gt;support</title>
<path fill="none" stroke="black" d="M755.976,-648.765C763.88,-639.841 773.829,-628.608 782.588,-618.719"/>
<polygon fill="black" stroke="black" points="785.284,-620.954 789.294,-611.147 780.044,-616.313 785.284,-620.954"/>
</g>
<!-- types/dep_path -->
<g id="node18" class="node"><title>types/dep_path</title>
<ellipse fill="none" stroke="black" cx="679.596" cy="-594" rx="66.8882" ry="18"/>
<text text-anchor="middle" x="679.596" y="-590.3" font-family="Times New Roman,serif" font-size="14.00">types/dep_path</text>
</g>
<!-- types/eq&#45;&gt;types/dep_path -->
<g id="edge12" class="edge"><title>types/eq&#45;&gt;types/dep_path</title>
<path fill="none" stroke="black" d="M727.216,-648.765C719.426,-639.969 709.647,-628.928 700.981,-619.144"/>
<polygon fill="black" stroke="black" points="703.579,-616.799 694.329,-611.633 698.339,-621.44 703.579,-616.799"/>
</g>
<!-- meta/hott_theory -->
<g id="node3" class="node"><title>meta/hott_theory</title>
<ellipse fill="none" stroke="black" cx="802.596" cy="-738" rx="72.2875" ry="18"/>
<text text-anchor="middle" x="802.596" y="-734.3" font-family="Times New Roman,serif" font-size="14.00">meta/hott_theory</text>
</g>
<!-- meta/hott_theory&#45;&gt;types/eq -->
<g id="edge2" class="edge"><title>meta/hott_theory&#45;&gt;types/eq</title>
<path fill="none" stroke="black" d="M787.83,-720.055C780.227,-711.33 770.828,-700.544 762.494,-690.981"/>
<polygon fill="black" stroke="black" points="765.015,-688.547 755.807,-683.307 759.738,-693.146 765.015,-688.547"/>
</g>
<!-- types/equiv -->
<g id="node5" class="node"><title>types/equiv</title>
<ellipse fill="none" stroke="black" cx="803.596" cy="-522" rx="51.9908" ry="18"/>
<text text-anchor="middle" x="803.596" y="-518.3" font-family="Times New Roman,serif" font-size="14.00">types/equiv</text>
</g>
<!-- support&#45;&gt;types/equiv -->
<g id="edge3" class="edge"><title>support&#45;&gt;types/equiv</title>
<path fill="none" stroke="black" d="M803.596,-575.697C803.596,-567.983 803.596,-558.712 803.596,-550.112"/>
<polygon fill="black" stroke="black" points="807.096,-550.104 803.596,-540.104 800.096,-550.104 807.096,-550.104"/>
</g>
<!-- HITs/infinitesimal -->
<g id="node11" class="node"><title>HITs/infinitesimal</title>
<ellipse fill="none" stroke="black" stroke-dasharray="5,2" cx="462.596" cy="-450" rx="74.9875" ry="18"/>
<text text-anchor="middle" x="462.596" y="-446.3" font-family="Times New Roman,serif" font-size="14.00">HITs/infinitesimal</text>
</g>
<!-- types/equiv&#45;&gt;HITs/infinitesimal -->
<g id="edge13" class="edge"><title>types/equiv&#45;&gt;HITs/infinitesimal</title>
<path fill="none" stroke="black" d="M760.062,-512.063C701.228,-499.986 595.86,-478.356 527.62,-464.348"/>
<polygon fill="black" stroke="black" points="527.915,-460.836 517.415,-462.253 526.507,-467.693 527.915,-460.836"/>
</g>
<!-- types/coproduct -->
<g id="node16" class="node"><title>types/coproduct</title>
<ellipse fill="none" stroke="black" cx="736.596" cy="-450" rx="70.6878" ry="18"/>
<text text-anchor="middle" x="736.596" y="-446.3" font-family="Times New Roman,serif" font-size="14.00">types/coproduct</text>
</g>
<!-- types/equiv&#45;&gt;types/coproduct -->
<g id="edge14" class="edge"><title>types/equiv&#45;&gt;types/coproduct</title>
<path fill="none" stroke="black" d="M788.057,-504.765C779.638,-495.969 769.071,-484.928 759.706,-475.144"/>
<polygon fill="black" stroke="black" points="761.96,-472.437 752.517,-467.633 756.903,-477.278 761.96,-472.437"/>
</g>
<!-- types/heq -->
<g id="node19" class="node"><title>types/heq</title>
<ellipse fill="none" stroke="black" cx="601.596" cy="-450" rx="46.2923" ry="18"/>
<text text-anchor="middle" x="601.596" y="-446.3" font-family="Times New Roman,serif" font-size="14.00">types/heq</text>
</g>
<!-- types/equiv&#45;&gt;types/heq -->
<g id="edge15" class="edge"><title>types/equiv&#45;&gt;types/heq</title>
<path fill="none" stroke="black" d="M767.948,-508.647C733.429,-496.685 681.064,-478.538 644.328,-465.808"/>
<polygon fill="black" stroke="black" points="645.473,-462.501 634.878,-462.533 643.181,-469.115 645.473,-462.501"/>
</g>
<!-- types/integer -->
<g id="node20" class="node"><title>types/integer</title>
<ellipse fill="none" stroke="black" cx="1184.6" cy="-378" rx="56.59" ry="18"/>
<text text-anchor="middle" x="1184.6" y="-374.3" font-family="Times New Roman,serif" font-size="14.00">types/integer</text>
</g>
<!-- types/equiv&#45;&gt;types/integer -->
<g id="edge16" class="edge"><title>types/equiv&#45;&gt;types/integer</title>
<path fill="none" stroke="black" d="M851.341,-514.683C899.397,-507.285 975.018,-492.776 1036.6,-468 1080.21,-450.453 1125.91,-421.018 1154.79,-400.837"/>
<polygon fill="black" stroke="black" points="1157.04,-403.527 1163.19,-394.894 1153,-397.812 1157.04,-403.527"/>
</g>
<!-- types/lost -->
<g id="node21" class="node"><title>types/lost</title>
<ellipse fill="none" stroke="black" cx="981.596" cy="-450" rx="46.2923" ry="18"/>
<text text-anchor="middle" x="981.596" y="-446.3" font-family="Times New Roman,serif" font-size="14.00">types/lost</text>
</g>
<!-- types/equiv&#45;&gt;types/lost -->
<g id="edge17" class="edge"><title>types/equiv&#45;&gt;types/lost</title>
<path fill="none" stroke="black" d="M836.66,-507.998C866.089,-496.424 909.242,-479.454 940.807,-467.041"/>
<polygon fill="black" stroke="black" points="942.178,-470.263 950.203,-463.346 939.616,-463.748 942.178,-470.263"/>
</g>
<!-- types/unit -->
<g id="node22" class="node"><title>types/unit</title>
<ellipse fill="none" stroke="black" cx="871.596" cy="-450" rx="46.2923" ry="18"/>
<text text-anchor="middle" x="871.596" y="-446.3" font-family="Times New Roman,serif" font-size="14.00">types/unit</text>
</g>
<!-- types/equiv&#45;&gt;types/unit -->
<g id="edge18" class="edge"><title>types/equiv&#45;&gt;types/unit</title>
<path fill="none" stroke="black" d="M819.368,-504.765C828.122,-495.753 839.165,-484.385 848.84,-474.426"/>
<polygon fill="black" stroke="black" points="851.453,-476.759 855.91,-467.147 846.432,-471.881 851.453,-476.759"/>
</g>
<!-- structures -->
<g id="node6" class="node"><title>structures</title>
<ellipse fill="none" stroke="black" cx="813.596" cy="-378" rx="46.2923" ry="18"/>
<text text-anchor="middle" x="813.596" y="-374.3" font-family="Times New Roman,serif" font-size="14.00">structures</text>
</g>
<!-- HITs/interval -->
<g id="node7" class="node"><title>HITs/interval</title>
<ellipse fill="none" stroke="black" cx="747.596" cy="-306" rx="57.6901" ry="18"/>
<text text-anchor="middle" x="747.596" y="-302.3" font-family="Times New Roman,serif" font-size="14.00">HITs/interval</text>
</g>
<!-- structures&#45;&gt;HITs/interval -->
<g id="edge4" class="edge"><title>structures&#45;&gt;HITs/interval</title>
<path fill="none" stroke="black" d="M798.289,-360.765C789.996,-351.969 779.586,-340.928 770.361,-331.144"/>
<polygon fill="black" stroke="black" points="772.686,-328.508 763.279,-323.633 767.593,-333.31 772.686,-328.508"/>
</g>
<!-- HITs/truncation -->
<g id="node8" class="node"><title>HITs/truncation</title>
<ellipse fill="none" stroke="black" cx="563.596" cy="-234" rx="68.4888" ry="18"/>
<text text-anchor="middle" x="563.596" y="-230.3" font-family="Times New Roman,serif" font-size="14.00">HITs/truncation</text>
</g>
<!-- structures&#45;&gt;HITs/truncation -->
<g id="edge5" class="edge"><title>structures&#45;&gt;HITs/truncation</title>
<path fill="none" stroke="black" d="M778.81,-366.045C751.267,-356.693 712.292,-341.928 680.596,-324 671.267,-318.723 623.801,-282.048 592.266,-257.454"/>
<polygon fill="black" stroke="black" points="594.269,-254.577 584.233,-251.181 589.961,-260.094 594.269,-254.577"/>
</g>
<!-- algebra/core -->
<g id="node9" class="node"><title>algebra/core</title>
<ellipse fill="none" stroke="black" cx="1081.6" cy="-306" rx="55.4913" ry="18"/>
<text text-anchor="middle" x="1081.6" y="-302.3" font-family="Times New Roman,serif" font-size="14.00">algebra/core</text>
</g>
<!-- structures&#45;&gt;algebra/core -->
<g id="edge6" class="edge"><title>structures&#45;&gt;algebra/core</title>
<path fill="none" stroke="black" d="M850.861,-367.267C897.476,-355.091 977.536,-334.18 1030.02,-320.472"/>
<polygon fill="black" stroke="black" points="1031.01,-323.83 1039.8,-317.916 1029.24,-317.057 1031.01,-323.83"/>
</g>
<!-- types/product -->
<g id="node26" class="node"><title>types/product</title>
<ellipse fill="none" stroke="black" cx="749.596" cy="-234" rx="61.99" ry="18"/>
<text text-anchor="middle" x="749.596" y="-230.3" font-family="Times New Roman,serif" font-size="14.00">types/product</text>
</g>
<!-- HITs/interval&#45;&gt;types/product -->
<g id="edge40" class="edge"><title>HITs/interval&#45;&gt;types/product</title>
<path fill="none" stroke="black" d="M748.091,-287.697C748.311,-279.983 748.576,-270.712 748.822,-262.112"/>
<polygon fill="black" stroke="black" points="752.32,-262.2 749.108,-252.104 745.323,-262 752.32,-262.2"/>
</g>
<!-- theorems/prop -->
<g id="node37" class="node"><title>theorems/prop</title>
<ellipse fill="none" stroke="black" cx="742.596" cy="-162" rx="63.8893" ry="18"/>
<text text-anchor="middle" x="742.596" y="-158.3" font-family="Times New Roman,serif" font-size="14.00">theorems/prop</text>
</g>
<!-- HITs/interval&#45;&gt;theorems/prop -->
<g id="edge41" class="edge"><title>HITs/interval&#45;&gt;theorems/prop</title>
<path fill="none" stroke="black" d="M717.726,-290.443C703.059,-281.551 686.81,-268.665 678.596,-252 671.523,-237.648 671.788,-230.479 678.596,-216 684.565,-203.308 695.23,-192.612 706.164,-184.227"/>
<polygon fill="black" stroke="black" points="708.401,-186.931 714.504,-178.27 704.332,-181.234 708.401,-186.931"/>
</g>
<!-- theorems/graphs -->
<g id="node35" class="node"><title>theorems/graphs</title>
<ellipse fill="none" stroke="black" cx="210.596" cy="-162" rx="70.6878" ry="18"/>
<text text-anchor="middle" x="210.596" y="-158.3" font-family="Times New Roman,serif" font-size="14.00">theorems/graphs</text>
</g>
<!-- HITs/truncation&#45;&gt;theorems/graphs -->
<g id="edge46" class="edge"><title>HITs/truncation&#45;&gt;theorems/graphs</title>
<path fill="none" stroke="black" d="M509.927,-222.87C454.835,-212.404 366.652,-195.462 290.596,-180 284.891,-178.84 278.962,-177.616 273.026,-176.377"/>
<polygon fill="black" stroke="black" points="273.574,-172.916 263.069,-174.289 272.137,-179.767 273.574,-172.916"/>
</g>
<!-- HITs/truncation&#45;&gt;theorems/prop -->
<g id="edge47" class="edge"><title>HITs/truncation&#45;&gt;theorems/prop</title>
<path fill="none" stroke="black" d="M600.252,-218.666C628.401,-207.657 667.417,-192.4 697.484,-180.642"/>
<polygon fill="black" stroke="black" points="698.868,-183.859 706.906,-176.957 696.318,-177.339 698.868,-183.859"/>
</g>
<!-- HITs/simplicial -->
<g id="node39" class="node"><title>HITs/simplicial</title>
<ellipse fill="none" stroke="black" cx="595.596" cy="-162" rx="65.7887" ry="18"/>
<text text-anchor="middle" x="595.596" y="-158.3" font-family="Times New Roman,serif" font-size="14.00">HITs/simplicial</text>
</g>
<!-- HITs/truncation&#45;&gt;HITs/simplicial -->
<g id="edge48" class="edge"><title>HITs/truncation&#45;&gt;HITs/simplicial</title>
<path fill="none" stroke="black" d="M571.343,-216.055C574.983,-208.091 579.409,-198.411 583.478,-189.51"/>
<polygon fill="black" stroke="black" points="586.725,-190.825 587.699,-180.275 580.358,-187.915 586.725,-190.825"/>
</g>
<!-- theorems/mere_eq_lemma -->
<g id="node40" class="node"><title>theorems/mere_eq_lemma</title>
<ellipse fill="none" stroke="black" cx="405.596" cy="-162" rx="105.881" ry="18"/>
<text text-anchor="middle" x="405.596" y="-158.3" font-family="Times New Roman,serif" font-size="14.00">theorems/mere_eq_lemma</text>
</g>
<!-- HITs/truncation&#45;&gt;theorems/mere_eq_lemma -->
<g id="edge49" class="edge"><title>HITs/truncation&#45;&gt;theorems/mere_eq_lemma</title>
<path fill="none" stroke="black" d="M530.089,-218.155C507.116,-207.977 476.358,-194.35 451.163,-183.188"/>
<polygon fill="black" stroke="black" points="452.368,-179.894 441.808,-179.043 449.533,-186.294 452.368,-179.894"/>
</g>
<!-- algebra/group -->
<g id="node15" class="node"><title>algebra/group</title>
<ellipse fill="none" stroke="black" cx="1161.6" cy="-234" rx="60.3893" ry="18"/>
<text text-anchor="middle" x="1161.6" y="-230.3" font-family="Times New Roman,serif" font-size="14.00">algebra/group</text>
</g>
<!-- algebra/core&#45;&gt;algebra/group -->
<g id="edge7" class="edge"><title>algebra/core&#45;&gt;algebra/group</title>
<path fill="none" stroke="black" d="M1100.15,-288.765C1110.65,-279.576 1123.95,-267.938 1135.49,-257.842"/>
<polygon fill="black" stroke="black" points="1137.92,-260.366 1143.14,-251.147 1133.31,-255.098 1137.92,-260.366"/>
</g>
<!-- HITs/circle -->
<g id="node10" class="node"><title>HITs/circle</title>
<ellipse fill="none" stroke="black" stroke-dasharray="5,2" cx="1122.6" cy="-90" rx="51.9908" ry="18"/>
<text text-anchor="middle" x="1122.6" y="-86.3" font-family="Times New Roman,serif" font-size="14.00">HITs/circle</text>
</g>
<!-- HITs/ntrunc -->
<g id="node12" class="node"><title>HITs/ntrunc</title>
<ellipse fill="none" stroke="black" stroke-dasharray="5,2" cx="1131.6" cy="-18" rx="55.4913" ry="18"/>
<text text-anchor="middle" x="1131.6" y="-14.3" font-family="Times New Roman,serif" font-size="14.00">HITs/ntrunc</text>
</g>
<!-- HITs/circle&#45;&gt;HITs/ntrunc -->
<g id="edge31" class="edge"><title>HITs/circle&#45;&gt;HITs/ntrunc</title>
<path fill="none" stroke="black" d="M1124.82,-71.6966C1125.81,-63.9827 1127,-54.7125 1128.11,-46.1124"/>
<polygon fill="black" stroke="black" points="1131.59,-46.469 1129.4,-36.1043 1124.65,-45.5763 1131.59,-46.469"/>
</g>
<!-- theorems/ua -->
<g id="node13" class="node"><title>theorems/ua</title>
<ellipse fill="none" stroke="black" stroke-dasharray="5,2" cx="1017.6" cy="-162" rx="54.6905" ry="18"/>
<text text-anchor="middle" x="1017.6" y="-158.3" font-family="Times New Roman,serif" font-size="14.00">theorems/ua</text>
</g>
<!-- theorems/ua&#45;&gt;HITs/circle -->
<g id="edge57" class="edge"><title>theorems/ua&#45;&gt;HITs/circle</title>
<path fill="none" stroke="black" d="M1040.64,-145.638C1055.41,-135.791 1074.78,-122.876 1090.98,-112.076"/>
<polygon fill="black" stroke="black" points="1093.23,-114.785 1099.61,-106.326 1089.35,-108.961 1093.23,-114.785"/>
</g>
<!-- cubical/V -->
<g id="node14" class="node"><title>cubical/V</title>
<ellipse fill="none" stroke="black" stroke-dasharray="5,2" cx="1012.6" cy="-18" rx="45.4919" ry="18"/>
<text text-anchor="middle" x="1012.6" y="-14.3" font-family="Times New Roman,serif" font-size="14.00">cubical/V</text>
</g>
<!-- theorems/ua&#45;&gt;cubical/V -->
<g id="edge58" class="edge"><title>theorems/ua&#45;&gt;cubical/V</title>
<path fill="none" stroke="black" d="M1016.99,-143.871C1016.14,-119.67 1014.58,-75.2108 1013.56,-46.3932"/>
<polygon fill="black" stroke="black" points="1017.05,-46.0599 1013.2,-36.1893 1010.06,-46.3063 1017.05,-46.0599"/>
</g>
<!-- types/coproduct&#45;&gt;structures -->
<g id="edge8" class="edge"><title>types/coproduct&#45;&gt;structures</title>
<path fill="none" stroke="black" d="M754.844,-432.411C764.936,-423.237 777.623,-411.703 788.623,-401.703"/>
<polygon fill="black" stroke="black" points="791.227,-404.065 796.273,-394.749 786.519,-398.886 791.227,-404.065"/>
</g>
<!-- types/nat -->
<g id="node17" class="node"><title>types/nat</title>
<ellipse fill="none" stroke="black" cx="705.596" cy="-378" rx="43.5923" ry="18"/>
<text text-anchor="middle" x="705.596" y="-374.3" font-family="Times New Roman,serif" font-size="14.00">types/nat</text>
</g>
<!-- types/coproduct&#45;&gt;types/nat -->
<g id="edge9" class="edge"><title>types/coproduct&#45;&gt;types/nat</title>
<path fill="none" stroke="black" d="M729.092,-432.055C725.513,-423.973 721.15,-414.121 717.16,-405.112"/>
<polygon fill="black" stroke="black" points="720.281,-403.515 713.031,-395.789 713.881,-406.35 720.281,-403.515"/>
</g>
<!-- types/dep_path&#45;&gt;types/equiv -->
<g id="edge10" class="edge"><title>types/dep_path&#45;&gt;types/equiv</title>
<path fill="none" stroke="black" d="M707.116,-577.465C725.225,-567.242 749.088,-553.771 768.551,-542.783"/>
<polygon fill="black" stroke="black" points="770.439,-545.737 777.427,-537.773 766.998,-539.641 770.439,-545.737"/>
</g>
<!-- types/heq&#45;&gt;HITs/interval -->
<g id="edge19" class="edge"><title>types/heq&#45;&gt;HITs/interval</title>
<path fill="none" stroke="black" d="M607.99,-432.137C616.005,-412.79 631.32,-381.034 652.596,-360 667.215,-345.548 686.576,-333.804 704.004,-325.078"/>
<polygon fill="black" stroke="black" points="705.947,-328.028 713.445,-320.543 702.916,-321.718 705.947,-328.028"/>
</g>
<!-- HITs/int -->
<g id="node23" class="node"><title>HITs/int</title>
<ellipse fill="none" stroke="black" cx="291.596" cy="-378" rx="40.8928" ry="18"/>
<text text-anchor="middle" x="291.596" y="-374.3" font-family="Times New Roman,serif" font-size="14.00">HITs/int</text>
</g>
<!-- types/heq&#45;&gt;HITs/int -->
<g id="edge20" class="edge"><title>types/heq&#45;&gt;HITs/int</title>
<path fill="none" stroke="black" d="M567.413,-437.884C560.553,-435.809 553.371,-433.747 546.596,-432 474.911,-413.516 390.62,-396.997 339.167,-387.49"/>
<polygon fill="black" stroke="black" points="339.482,-383.989 329.015,-385.626 338.218,-390.874 339.482,-383.989"/>
</g>
<!-- HITs/graph -->
<g id="node24" class="node"><title>HITs/graph</title>
<ellipse fill="none" stroke="black" cx="510.596" cy="-378" rx="52.7911" ry="18"/>
<text text-anchor="middle" x="510.596" y="-374.3" font-family="Times New Roman,serif" font-size="14.00">HITs/graph</text>
</g>
<!-- types/heq&#45;&gt;HITs/graph -->
<g id="edge21" class="edge"><title>types/heq&#45;&gt;HITs/graph</title>
<path fill="none" stroke="black" d="M581.4,-433.465C568.999,-423.925 552.92,-411.557 539.219,-401.018"/>
<polygon fill="black" stroke="black" points="541.111,-398.057 531.05,-394.734 536.843,-403.605 541.111,-398.057"/>
</g>
<!-- types/integer&#45;&gt;algebra/core -->
<g id="edge22" class="edge"><title>types/integer&#45;&gt;algebra/core</title>
<path fill="none" stroke="black" d="M1161.74,-361.465C1147.34,-351.677 1128.55,-338.912 1112.79,-328.2"/>
<polygon fill="black" stroke="black" points="1114.63,-325.218 1104.39,-322.492 1110.69,-331.008 1114.63,-325.218"/>
</g>
<!-- types/integer&#45;&gt;HITs/circle -->
<g id="edge23" class="edge"><title>types/integer&#45;&gt;HITs/circle</title>
<path fill="none" stroke="black" d="M1218.5,-363.567C1276.46,-338.486 1384.84,-281.14 1346.6,-216 1309.66,-153.092 1228.28,-119.511 1174.46,-103.483"/>
<polygon fill="black" stroke="black" points="1175.32,-100.09 1164.74,-100.691 1173.39,-106.817 1175.32,-100.09"/>
</g>
<!-- HITs/reals -->
<g id="node25" class="node"><title>HITs/reals</title>
<ellipse fill="none" stroke="black" cx="1288.6" cy="-234" rx="48.9926" ry="18"/>
<text text-anchor="middle" x="1288.6" y="-230.3" font-family="Times New Roman,serif" font-size="14.00">HITs/reals</text>
</g>
<!-- types/integer&#45;&gt;HITs/reals -->
<g id="edge24" class="edge"><title>types/integer&#45;&gt;HITs/reals</title>
<path fill="none" stroke="black" d="M1218.78,-363.548C1236.55,-354.849 1257.11,-341.795 1269.6,-324 1282.25,-305.968 1286.75,-281.181 1288.24,-262.344"/>
<polygon fill="black" stroke="black" points="1291.73,-262.482 1288.79,-252.305 1284.74,-262.097 1291.73,-262.482"/>
</g>
<!-- types/unit&#45;&gt;structures -->
<g id="edge29" class="edge"><title>types/unit&#45;&gt;structures</title>
<path fill="none" stroke="black" d="M858.144,-432.765C850.928,-424.056 841.889,-413.147 833.842,-403.435"/>
<polygon fill="black" stroke="black" points="836.454,-401.101 827.378,-395.633 831.063,-405.567 836.454,-401.101"/>
</g>
<!-- HITs/suspension -->
<g id="node30" class="node"><title>HITs/suspension</title>
<ellipse fill="none" stroke="black" cx="1010.6" cy="-234" rx="72.5877" ry="18"/>
<text text-anchor="middle" x="1010.6" y="-230.3" font-family="Times New Roman,serif" font-size="14.00">HITs/suspension</text>
</g>
<!-- types/unit&#45;&gt;HITs/suspension -->
<g id="edge30" class="edge"><title>types/unit&#45;&gt;HITs/suspension</title>
<path fill="none" stroke="black" d="M885.565,-432.746C905.101,-409.568 941.05,-365.248 966.596,-324 979.078,-303.846 990.848,-279.66 999.068,-261.591"/>
<polygon fill="black" stroke="black" points="1002.36,-262.803 1003.25,-252.246 995.971,-259.943 1002.36,-262.803"/>
</g>
<!-- HITs/rat -->
<g id="node36" class="node"><title>HITs/rat</title>
<ellipse fill="none" stroke="black" cx="41.5963" cy="-306" rx="41.6928" ry="18"/>
<text text-anchor="middle" x="41.5963" y="-302.3" font-family="Times New Roman,serif" font-size="14.00">HITs/rat</text>
</g>
<!-- HITs/int&#45;&gt;HITs/rat -->
<g id="edge39" class="edge"><title>HITs/int&#45;&gt;HITs/rat</title>
<path fill="none" stroke="black" d="M257.522,-368.001C218.717,-357.68 153.454,-340.105 97.5963,-324 93.2504,-322.747 88.7226,-321.416 84.2076,-320.071"/>
<polygon fill="black" stroke="black" points="85.0036,-316.656 74.4195,-317.132 82.9905,-323.36 85.0036,-316.656"/>
</g>
<!-- HITs/colimit -->
<g id="node31" class="node"><title>HITs/colimit</title>
<ellipse fill="none" stroke="black" cx="565.596" cy="-306" rx="56.59" ry="18"/>
<text text-anchor="middle" x="565.596" y="-302.3" font-family="Times New Roman,serif" font-size="14.00">HITs/colimit</text>
</g>
<!-- HITs/graph&#45;&gt;HITs/colimit -->
<g id="edge34" class="edge"><title>HITs/graph&#45;&gt;HITs/colimit</title>
<path fill="none" stroke="black" d="M523.631,-360.411C530.313,-351.906 538.589,-341.372 546.021,-331.914"/>
<polygon fill="black" stroke="black" points="548.847,-333.982 552.274,-323.956 543.343,-329.657 548.847,-333.982"/>
</g>
<!-- HITs/generalized -->
<g id="node32" class="node"><title>HITs/generalized</title>
<ellipse fill="none" stroke="black" cx="418.596" cy="-306" rx="72.2875" ry="18"/>
<text text-anchor="middle" x="418.596" y="-302.3" font-family="Times New Roman,serif" font-size="14.00">HITs/generalized</text>
</g>
<!-- HITs/graph&#45;&gt;HITs/generalized -->
<g id="edge35" class="edge"><title>HITs/graph&#45;&gt;HITs/generalized</title>
<path fill="none" stroke="black" d="M489.72,-361.116C477.427,-351.763 461.681,-339.782 448.131,-329.472"/>
<polygon fill="black" stroke="black" points="450.106,-326.577 440.028,-323.307 445.867,-332.148 450.106,-326.577"/>
</g>
<!-- HITs/pushout -->
<g id="node33" class="node"><title>HITs/pushout</title>
<ellipse fill="none" stroke="black" cx="895.596" cy="-306" rx="61.99" ry="18"/>
<text text-anchor="middle" x="895.596" y="-302.3" font-family="Times New Roman,serif" font-size="14.00">HITs/pushout</text>
</g>
<!-- HITs/graph&#45;&gt;HITs/pushout -->
<g id="edge36" class="edge"><title>HITs/graph&#45;&gt;HITs/pushout</title>
<path fill="none" stroke="black" d="M557.039,-369.411C616.745,-359.539 723.577,-341.48 814.596,-324 821.955,-322.587 829.677,-321.044 837.308,-319.483"/>
<polygon fill="black" stroke="black" points="838.166,-322.88 847.251,-317.429 836.75,-316.024 838.166,-322.88"/>
</g>
<!-- HITs/moebius -->
<g id="node34" class="node"><title>HITs/moebius</title>
<ellipse fill="none" stroke="black" cx="260.596" cy="-18" rx="63.0888" ry="18"/>
<text text-anchor="middle" x="260.596" y="-14.3" font-family="Times New Roman,serif" font-size="14.00">HITs/moebius</text>
</g>
<!-- HITs/graph&#45;&gt;HITs/moebius -->
<g id="edge37" class="edge"><title>HITs/graph&#45;&gt;HITs/moebius</title>
<path fill="none" stroke="black" d="M462.864,-370.325C356.956,-354.177 111.596,-308.803 111.596,-235 111.596,-235 111.596,-235 111.596,-161 111.596,-102.118 173.328,-60.2049 217.323,-37.8116"/>
<polygon fill="black" stroke="black" points="218.991,-40.8913 226.413,-33.3303 215.896,-34.6128 218.991,-40.8913"/>
</g>
<!-- HITs/graph&#45;&gt;theorems/graphs -->
<g id="edge38" class="edge"><title>HITs/graph&#45;&gt;theorems/graphs</title>
<path fill="none" stroke="black" d="M462.808,-370.327C426.044,-363.403 375.316,-349.811 337.596,-324 285.273,-288.197 244.288,-224.294 224.188,-188.713"/>
<polygon fill="black" stroke="black" points="227.211,-186.947 219.306,-179.893 221.086,-190.337 227.211,-186.947"/>
</g>
<!-- types/product&#45;&gt;theorems/ua -->
<g id="edge25" class="edge"><title>types/product&#45;&gt;theorems/ua</title>
<path fill="none" stroke="black" d="M794.185,-221.49C835.526,-210.801 898.74,-194.412 953.596,-180 957.903,-178.869 962.372,-177.69 966.855,-176.505"/>
<polygon fill="black" stroke="black" points="967.864,-179.859 976.635,-173.916 966.072,-173.092 967.864,-179.859"/>
</g>
<!-- cubical/cubes -->
<g id="node27" class="node"><title>cubical/cubes</title>
<ellipse fill="none" stroke="black" cx="884.596" cy="-162" rx="60.3893" ry="18"/>
<text text-anchor="middle" x="884.596" y="-158.3" font-family="Times New Roman,serif" font-size="14.00">cubical/cubes</text>
</g>
<!-- types/product&#45;&gt;cubical/cubes -->
<g id="edge26" class="edge"><title>types/product&#45;&gt;cubical/cubes</title>
<path fill="none" stroke="black" d="M778.557,-217.983C798.488,-207.649 825.16,-193.819 846.767,-182.615"/>
<polygon fill="black" stroke="black" points="848.417,-185.702 855.683,-177.992 845.195,-179.488 848.417,-185.702"/>
</g>
<!-- cubical/path -->
<g id="node42" class="node"><title>cubical/path</title>
<ellipse fill="none" stroke="black" cx="809.596" cy="-90" rx="54.6905" ry="18"/>
<text text-anchor="middle" x="809.596" y="-86.3" font-family="Times New Roman,serif" font-size="14.00">cubical/path</text>
</g>
<!-- cubical/cubes&#45;&gt;cubical/path -->
<g id="edge50" class="edge"><title>cubical/cubes&#45;&gt;cubical/path</title>
<path fill="none" stroke="black" d="M866.822,-144.411C857.132,-135.367 844.985,-124.03 834.378,-114.13"/>
<polygon fill="black" stroke="black" points="836.683,-111.493 826.984,-107.228 831.906,-116.61 836.683,-111.493"/>
</g>
<!-- types/sigma -->
<g id="node28" class="node"><title>types/sigma</title>
<ellipse fill="none" stroke="black" cx="946.596" cy="-738" rx="53.8905" ry="18"/>
<text text-anchor="middle" x="946.596" y="-734.3" font-family="Times New Roman,serif" font-size="14.00">types/sigma</text>
</g>
<!-- types/swale -->
<g id="node29" class="node"><title>types/swale</title>
<ellipse fill="none" stroke="black" cx="1207.6" cy="-306" rx="52.7911" ry="18"/>
<text text-anchor="middle" x="1207.6" y="-302.3" font-family="Times New Roman,serif" font-size="14.00">types/swale</text>
</g>
<!-- types/swale&#45;&gt;algebra/group -->
<g id="edge27" class="edge"><title>types/swale&#45;&gt;algebra/group</title>
<path fill="none" stroke="black" d="M1196.46,-288.055C1190.98,-279.715 1184.26,-269.491 1178.19,-260.252"/>
<polygon fill="black" stroke="black" points="1181.05,-258.224 1172.63,-251.789 1175.2,-262.068 1181.05,-258.224"/>
</g>
<!-- types/swale&#45;&gt;HITs/reals -->
<g id="edge28" class="edge"><title>types/swale&#45;&gt;HITs/reals</title>
<path fill="none" stroke="black" d="M1225.98,-289.116C1236.75,-279.808 1250.53,-267.898 1262.42,-257.622"/>
<polygon fill="black" stroke="black" points="1265.01,-260.008 1270.29,-250.821 1260.43,-254.712 1265.01,-260.008"/>
</g>
<!-- HITs/suspension&#45;&gt;HITs/circle -->
<g id="edge45" class="edge"><title>HITs/suspension&#45;&gt;HITs/circle</title>
<path fill="none" stroke="black" d="M1037.84,-217.307C1052.29,-207.93 1069.5,-194.943 1081.6,-180 1096.59,-161.482 1107.45,-136.586 1114.21,-117.834"/>
<polygon fill="black" stroke="black" points="1117.61,-118.722 1117.55,-108.128 1110.99,-116.448 1117.61,-118.722"/>
</g>
<!-- HITs/colimit&#45;&gt;HITs/truncation -->
<g id="edge32" class="edge"><title>HITs/colimit&#45;&gt;HITs/truncation</title>
<path fill="none" stroke="black" d="M565.102,-287.697C564.882,-279.983 564.617,-270.712 564.371,-262.112"/>
<polygon fill="black" stroke="black" points="567.869,-262 564.085,-252.104 560.872,-262.2 567.869,-262"/>
</g>
<!-- HITs/generalized&#45;&gt;HITs/truncation -->
<g id="edge33" class="edge"><title>HITs/generalized&#45;&gt;HITs/truncation</title>
<path fill="none" stroke="black" d="M450.417,-289.638C471.812,-279.31 500.195,-265.607 523.185,-254.509"/>
<polygon fill="black" stroke="black" points="524.864,-257.585 532.348,-250.085 521.821,-251.281 524.864,-257.585"/>
</g>
<!-- HITs/pushout&#45;&gt;HITs/reals -->
<g id="edge42" class="edge"><title>HITs/pushout&#45;&gt;HITs/reals</title>
<path fill="none" stroke="black" d="M949.951,-297.267C1030.65,-285.639 1178.24,-263.763 1230.6,-252 1234.52,-251.119 1238.56,-250.122 1242.6,-249.063"/>
<polygon fill="black" stroke="black" points="1243.86,-252.347 1252.58,-246.332 1242.01,-245.595 1243.86,-252.347"/>
</g>
<!-- HITs/pushout&#45;&gt;HITs/suspension -->
<g id="edge43" class="edge"><title>HITs/pushout&#45;&gt;HITs/suspension</title>
<path fill="none" stroke="black" d="M921.119,-289.465C937.122,-279.724 957.971,-267.033 975.517,-256.353"/>
<polygon fill="black" stroke="black" points="977.626,-259.166 984.348,-250.977 973.986,-253.187 977.626,-259.166"/>
</g>
<!-- HITs/join -->
<g id="node38" class="node"><title>HITs/join</title>
<ellipse fill="none" stroke="black" cx="874.596" cy="-234" rx="45.4919" ry="18"/>
<text text-anchor="middle" x="874.596" y="-230.3" font-family="Times New Roman,serif" font-size="14.00">HITs/join</text>
</g>
<!-- HITs/pushout&#45;&gt;HITs/join -->
<g id="edge44" class="edge"><title>HITs/pushout&#45;&gt;HITs/join</title>
<path fill="none" stroke="black" d="M890.513,-288.055C888.175,-280.261 885.343,-270.822 882.72,-262.079"/>
<polygon fill="black" stroke="black" points="886.005,-260.848 879.779,-252.275 879.3,-262.859 886.005,-260.848"/>
</g>
<!-- cubical/connection -->
<g id="node41" class="node"><title>cubical/connection</title>
<ellipse fill="none" stroke="black" cx="569.596" cy="-18" rx="79.0865" ry="18"/>
<text text-anchor="middle" x="569.596" y="-14.3" font-family="Times New Roman,serif" font-size="14.00">cubical/connection</text>
</g>
<!-- cubical/path&#45;&gt;cubical/V -->
<g id="edge51" class="edge"><title>cubical/path&#45;&gt;cubical/V</title>
<path fill="none" stroke="black" d="M845.889,-76.4854C880.645,-64.5004 933.092,-46.4154 969.854,-33.7389"/>
<polygon fill="black" stroke="black" points="970.997,-37.047 979.309,-30.4782 968.715,-30.4294 970.997,-37.047"/>
</g>
<!-- cubical/path&#45;&gt;HITs/moebius -->
<g id="edge52" class="edge"><title>cubical/path&#45;&gt;HITs/moebius</title>
<path fill="none" stroke="black" d="M759.421,-82.6024C660.083,-69.9363 438.374,-41.6674 327.054,-27.4736"/>
<polygon fill="black" stroke="black" points="327.32,-23.9793 316.958,-26.1863 326.435,-30.9231 327.32,-23.9793"/>
</g>
<!-- cubical/path&#45;&gt;cubical/connection -->
<g id="edge53" class="edge"><title>cubical/path&#45;&gt;cubical/connection</title>
<path fill="none" stroke="black" d="M770.234,-77.5193C731.042,-66.0884 670.493,-48.4281 626.158,-35.4971"/>
<polygon fill="black" stroke="black" points="626.973,-32.0891 616.393,-32.6491 625.013,-38.8091 626.973,-32.0891"/>
</g>
<!-- cubical/example -->
<g id="node43" class="node"><title>cubical/example</title>
<ellipse fill="none" stroke="black" cx="735.596" cy="-18" rx="68.7879" ry="18"/>
<text text-anchor="middle" x="735.596" y="-14.3" font-family="Times New Roman,serif" font-size="14.00">cubical/example</text>
</g>
<!-- cubical/path&#45;&gt;cubical/example -->
<g id="edge54" class="edge"><title>cubical/path&#45;&gt;cubical/example</title>
<path fill="none" stroke="black" d="M792.433,-72.7646C782.951,-63.7947 771,-52.4902 760.507,-42.5643"/>
<polygon fill="black" stroke="black" points="762.85,-39.9628 753.18,-35.6334 758.04,-45.0481 762.85,-39.9628"/>
</g>
<!-- cubical/square -->
<g id="node44" class="node"><title>cubical/square</title>
<ellipse fill="none" stroke="black" cx="885.596" cy="-18" rx="63.0888" ry="18"/>
<text text-anchor="middle" x="885.596" y="-14.3" font-family="Times New Roman,serif" font-size="14.00">cubical/square</text>
</g>
<!-- cubical/path&#45;&gt;cubical/square -->
<g id="edge55" class="edge"><title>cubical/path&#45;&gt;cubical/square</title>
<path fill="none" stroke="black" d="M827.223,-72.7646C837.033,-63.7297 849.414,-52.3262 860.246,-42.3487"/>
<polygon fill="black" stroke="black" points="862.817,-44.739 867.802,-35.3898 858.075,-39.5902 862.817,-44.739"/>
</g>
<!-- theorems/functions -->
<g id="node45" class="node"><title>theorems/functions</title>
<ellipse fill="none" stroke="black" cx="940.596" cy="-594" rx="79.8859" ry="18"/>
<text text-anchor="middle" x="940.596" y="-590.3" font-family="Times New Roman,serif" font-size="14.00">theorems/functions</text>
</g>
<!-- theorems/functions&#45;&gt;types/equiv -->
<g id="edge56" class="edge"><title>theorems/functions&#45;&gt;types/equiv</title>
<path fill="none" stroke="black" d="M909.851,-577.291C889.28,-566.78 862.103,-552.894 840.384,-541.797"/>
<polygon fill="black" stroke="black" points="841.943,-538.663 831.445,-537.229 838.758,-544.896 841.943,-538.663"/>
</g>
<!-- theorems/topology -->
<g id="node46" class="node"><title>theorems/topology</title>
<ellipse fill="none" stroke="black" cx="1097.6" cy="-738" rx="79.0865" ry="18"/>
<text text-anchor="middle" x="1097.6" y="-734.3" font-family="Times New Roman,serif" font-size="14.00">theorems/topology</text>
</g>
</g>
</svg>
