<?xml version="1.0" encoding="UTF-8" standalone="no"?>
<!DOCTYPE svg PUBLIC "-//W3C//DTD SVG 1.1//EN"
 "http://www.w3.org/Graphics/SVG/1.1/DTD/svg11.dtd">
<!-- Generated by graphviz version 2.38.0 (20140413.2041)
 -->
<!-- Title: dependency_map Pages: 1 -->
<svg width="1589pt" height="836pt"
 viewBox="0.00 0.00 1589.50 836.00" xmlns="http://www.w3.org/2000/svg" xmlns:xlink="http://www.w3.org/1999/xlink">
<g id="graph0" class="graph" transform="scale(1 1) rotate(0) translate(4 832)">
<title>dependency_map</title>
<polygon fill="white" stroke="none" points="-4,4 -4,-832 1585.5,-832 1585.5,4 -4,4"/>
<!-- proto -->
<g id="node1" class="node"><title>proto</title>
<ellipse fill="none" stroke="black" cx="604" cy="-810" rx="30.5947" ry="18"/>
<text text-anchor="middle" x="604" y="-806.3" font-family="Times New Roman,serif" font-size="14.00">proto</text>
</g>
<!-- types/eq -->
<g id="node2" class="node"><title>types/eq</title>
<ellipse fill="none" stroke="black" cx="664" cy="-738" rx="41.6928" ry="18"/>
<text text-anchor="middle" x="664" y="-734.3" font-family="Times New Roman,serif" font-size="14.00">types/eq</text>
</g>
<!-- proto&#45;&gt;types/eq -->
<g id="edge1" class="edge"><title>proto&#45;&gt;types/eq</title>
<path fill="none" stroke="black" d="M617.316,-793.465C624.944,-784.566 634.681,-773.205 643.288,-763.164"/>
<polygon fill="black" stroke="black" points="646.035,-765.338 649.885,-755.467 640.72,-760.782 646.035,-765.338"/>
</g>
<!-- support -->
<g id="node4" class="node"><title>support</title>
<ellipse fill="none" stroke="black" cx="726" cy="-666" rx="38.9931" ry="18"/>
<text text-anchor="middle" x="726" y="-662.3" font-family="Times New Roman,serif" font-size="14.00">support</text>
</g>
<!-- types/eq&#45;&gt;support -->
<g id="edge13" class="edge"><title>types/eq&#45;&gt;support</title>
<path fill="none" stroke="black" d="M678.38,-720.765C686.283,-711.841 696.233,-700.608 704.991,-690.719"/>
<polygon fill="black" stroke="black" points="707.688,-692.954 711.698,-683.147 702.448,-688.313 707.688,-692.954"/>
</g>
<!-- types/dep_path -->
<g id="node15" class="node"><title>types/dep_path</title>
<ellipse fill="none" stroke="black" cx="602" cy="-666" rx="66.8882" ry="18"/>
<text text-anchor="middle" x="602" y="-662.3" font-family="Times New Roman,serif" font-size="14.00">types/dep_path</text>
</g>
<!-- types/eq&#45;&gt;types/dep_path -->
<g id="edge14" class="edge"><title>types/eq&#45;&gt;types/dep_path</title>
<path fill="none" stroke="black" d="M649.62,-720.765C641.83,-711.969 632.051,-700.928 623.385,-691.144"/>
<polygon fill="black" stroke="black" points="625.983,-688.799 616.732,-683.633 620.743,-693.44 625.983,-688.799"/>
</g>
<!-- meta/hott_theory -->
<g id="node3" class="node"><title>meta/hott_theory</title>
<ellipse fill="none" stroke="black" cx="725" cy="-810" rx="72.2875" ry="18"/>
<text text-anchor="middle" x="725" y="-806.3" font-family="Times New Roman,serif" font-size="14.00">meta/hott_theory</text>
</g>
<!-- meta/hott_theory&#45;&gt;types/eq -->
<g id="edge2" class="edge"><title>meta/hott_theory&#45;&gt;types/eq</title>
<path fill="none" stroke="black" d="M710.234,-792.055C702.631,-783.33 693.232,-772.544 684.898,-762.981"/>
<polygon fill="black" stroke="black" points="687.419,-760.547 678.21,-755.307 682.142,-765.146 687.419,-760.547"/>
</g>
<!-- types/equiv -->
<g id="node5" class="node"><title>types/equiv</title>
<ellipse fill="none" stroke="black" cx="726" cy="-594" rx="51.9908" ry="18"/>
<text text-anchor="middle" x="726" y="-590.3" font-family="Times New Roman,serif" font-size="14.00">types/equiv</text>
</g>
<!-- support&#45;&gt;types/equiv -->
<g id="edge3" class="edge"><title>support&#45;&gt;types/equiv</title>
<path fill="none" stroke="black" d="M726,-647.697C726,-639.983 726,-630.712 726,-622.112"/>
<polygon fill="black" stroke="black" points="729.5,-622.104 726,-612.104 722.5,-622.104 729.5,-622.104"/>
</g>
<!-- types/coproduct -->
<g id="node13" class="node"><title>types/coproduct</title>
<ellipse fill="none" stroke="black" cx="455" cy="-522" rx="70.6878" ry="18"/>
<text text-anchor="middle" x="455" y="-518.3" font-family="Times New Roman,serif" font-size="14.00">types/coproduct</text>
</g>
<!-- types/equiv&#45;&gt;types/coproduct -->
<g id="edge15" class="edge"><title>types/equiv&#45;&gt;types/coproduct</title>
<path fill="none" stroke="black" d="M685.721,-582.596C639.872,-570.753 564.61,-551.313 512.575,-537.872"/>
<polygon fill="black" stroke="black" points="513.375,-534.464 502.818,-535.351 511.625,-541.241 513.375,-534.464"/>
</g>
<!-- types/heq -->
<g id="node16" class="node"><title>types/heq</title>
<ellipse fill="none" stroke="black" cx="763" cy="-522" rx="46.2923" ry="18"/>
<text text-anchor="middle" x="763" y="-518.3" font-family="Times New Roman,serif" font-size="14.00">types/heq</text>
</g>
<!-- types/equiv&#45;&gt;types/heq -->
<g id="edge16" class="edge"><title>types/equiv&#45;&gt;types/heq</title>
<path fill="none" stroke="black" d="M734.957,-576.055C739.274,-567.887 744.547,-557.912 749.35,-548.824"/>
<polygon fill="black" stroke="black" points="752.547,-550.266 754.126,-539.789 746.358,-546.994 752.547,-550.266"/>
</g>
<!-- HITs/infinitesimal -->
<g id="node17" class="node"><title>HITs/infinitesimal</title>
<ellipse fill="none" stroke="black" cx="902" cy="-522" rx="74.9875" ry="18"/>
<text text-anchor="middle" x="902" y="-518.3" font-family="Times New Roman,serif" font-size="14.00">HITs/infinitesimal</text>
</g>
<!-- types/equiv&#45;&gt;HITs/infinitesimal -->
<g id="edge17" class="edge"><title>types/equiv&#45;&gt;HITs/infinitesimal</title>
<path fill="none" stroke="black" d="M758.692,-579.998C785.871,-569.187 824.889,-553.669 855.351,-541.554"/>
<polygon fill="black" stroke="black" points="856.916,-544.698 864.914,-537.75 854.329,-538.194 856.916,-544.698"/>
</g>
<!-- types/lost -->
<g id="node18" class="node"><title>types/lost</title>
<ellipse fill="none" stroke="black" cx="1041" cy="-522" rx="46.2923" ry="18"/>
<text text-anchor="middle" x="1041" y="-518.3" font-family="Times New Roman,serif" font-size="14.00">types/lost</text>
</g>
<!-- types/equiv&#45;&gt;types/lost -->
<g id="edge18" class="edge"><title>types/equiv&#45;&gt;types/lost</title>
<path fill="none" stroke="black" d="M771.399,-585.15C823.533,-575.811 911.468,-559.066 986,-540 989.601,-539.079 993.316,-538.067 997.036,-537.009"/>
<polygon fill="black" stroke="black" points="998.213,-540.312 1006.82,-534.136 996.241,-533.595 998.213,-540.312"/>
</g>
<!-- types/unit -->
<g id="node19" class="node"><title>types/unit</title>
<ellipse fill="none" stroke="black" cx="590" cy="-522" rx="46.2923" ry="18"/>
<text text-anchor="middle" x="590" y="-518.3" font-family="Times New Roman,serif" font-size="14.00">types/unit</text>
</g>
<!-- types/equiv&#45;&gt;types/unit -->
<g id="edge19" class="edge"><title>types/equiv&#45;&gt;types/unit</title>
<path fill="none" stroke="black" d="M698.15,-578.666C677.25,-567.908 648.466,-553.093 625.847,-541.451"/>
<polygon fill="black" stroke="black" points="627.379,-538.303 616.886,-536.838 624.175,-544.527 627.379,-538.303"/>
</g>
<!-- types/sigma -->
<g id="node20" class="node"><title>types/sigma</title>
<ellipse fill="none" stroke="black" cx="781" cy="-378" rx="53.8905" ry="18"/>
<text text-anchor="middle" x="781" y="-374.3" font-family="Times New Roman,serif" font-size="14.00">types/sigma</text>
</g>
<!-- types/equiv&#45;&gt;types/sigma -->
<g id="edge20" class="edge"><title>types/equiv&#45;&gt;types/sigma</title>
<path fill="none" stroke="black" d="M717.942,-576.117C710.421,-558.103 701.288,-528.804 708,-504 718.29,-465.975 743.348,-427.651 761.231,-403.651"/>
<polygon fill="black" stroke="black" points="764.177,-405.559 767.454,-395.483 758.609,-401.316 764.177,-405.559"/>
</g>
<!-- structures -->
<g id="node6" class="node"><title>structures</title>
<ellipse fill="none" stroke="black" cx="571" cy="-450" rx="46.2923" ry="18"/>
<text text-anchor="middle" x="571" y="-446.3" font-family="Times New Roman,serif" font-size="14.00">structures</text>
</g>
<!-- HITs/interval -->
<g id="node7" class="node"><title>HITs/interval</title>
<ellipse fill="none" stroke="black" cx="651" cy="-378" rx="57.6901" ry="18"/>
<text text-anchor="middle" x="651" y="-374.3" font-family="Times New Roman,serif" font-size="14.00">HITs/interval</text>
</g>
<!-- structures&#45;&gt;HITs/interval -->
<g id="edge4" class="edge"><title>structures&#45;&gt;HITs/interval</title>
<path fill="none" stroke="black" d="M589.153,-433.116C599.641,-423.939 613.019,-412.233 624.649,-402.057"/>
<polygon fill="black" stroke="black" points="627.142,-404.526 632.363,-395.307 622.533,-399.258 627.142,-404.526"/>
</g>
<!-- HITs/truncation -->
<g id="node8" class="node"><title>HITs/truncation</title>
<ellipse fill="none" stroke="black" cx="1132" cy="-306" rx="68.4888" ry="18"/>
<text text-anchor="middle" x="1132" y="-302.3" font-family="Times New Roman,serif" font-size="14.00">HITs/truncation</text>
</g>
<!-- structures&#45;&gt;HITs/truncation -->
<g id="edge5" class="edge"><title>structures&#45;&gt;HITs/truncation</title>
<path fill="none" stroke="black" d="M617.023,-447.841C673.438,-444.724 770.582,-433.763 844,-396 864.688,-385.359 861.404,-370.818 882,-360 936.223,-331.519 1004.66,-318.343 1056.22,-312.248"/>
<polygon fill="black" stroke="black" points="1056.75,-315.71 1066.3,-311.12 1055.97,-308.754 1056.75,-315.71"/>
</g>
<!-- algebra/core -->
<g id="node9" class="node"><title>algebra/core</title>
<ellipse fill="none" stroke="black" cx="284" cy="-378" rx="55.4913" ry="18"/>
<text text-anchor="middle" x="284" y="-374.3" font-family="Times New Roman,serif" font-size="14.00">algebra/core</text>
</g>
<!-- structures&#45;&gt;algebra/core -->
<g id="edge6" class="edge"><title>structures&#45;&gt;algebra/core</title>
<path fill="none" stroke="black" d="M532.889,-439.705C482.544,-427.425 393.627,-405.738 336.824,-391.884"/>
<polygon fill="black" stroke="black" points="337.499,-388.446 326.955,-389.477 335.841,-395.247 337.499,-388.446"/>
</g>
<!-- types/nat -->
<g id="node10" class="node"><title>types/nat</title>
<ellipse fill="none" stroke="black" cx="403" cy="-234" rx="43.5923" ry="18"/>
<text text-anchor="middle" x="403" y="-230.3" font-family="Times New Roman,serif" font-size="14.00">types/nat</text>
</g>
<!-- structures&#45;&gt;types/nat -->
<g id="edge7" class="edge"><title>structures&#45;&gt;types/nat</title>
<path fill="none" stroke="black" d="M573.401,-431.725C576.86,-399.58 579.471,-330.036 545,-288 541.621,-283.879 485.646,-263.747 445.001,-249.52"/>
<polygon fill="black" stroke="black" points="446.151,-246.214 435.556,-246.223 443.844,-252.823 446.151,-246.214"/>
</g>
<!-- types/product -->
<g id="node25" class="node"><title>types/product</title>
<ellipse fill="none" stroke="black" cx="654" cy="-306" rx="61.99" ry="18"/>
<text text-anchor="middle" x="654" y="-302.3" font-family="Times New Roman,serif" font-size="14.00">types/product</text>
</g>
<!-- HITs/interval&#45;&gt;types/product -->
<g id="edge47" class="edge"><title>HITs/interval&#45;&gt;types/product</title>
<path fill="none" stroke="black" d="M651.742,-359.697C652.072,-351.983 652.469,-342.712 652.838,-334.112"/>
<polygon fill="black" stroke="black" points="656.335,-334.245 653.267,-324.104 649.342,-333.945 656.335,-334.245"/>
</g>
<!-- theorems/fibration -->
<g id="node28" class="node"><title>theorems/fibration</title>
<ellipse fill="none" stroke="black" cx="887" cy="-306" rx="76.8869" ry="18"/>
<text text-anchor="middle" x="887" y="-302.3" font-family="Times New Roman,serif" font-size="14.00">theorems/fibration</text>
</g>
<!-- HITs/interval&#45;&gt;theorems/fibration -->
<g id="edge48" class="edge"><title>HITs/interval&#45;&gt;theorems/fibration</title>
<path fill="none" stroke="black" d="M691.302,-365.046C729.897,-353.598 788.454,-336.23 831.46,-323.474"/>
<polygon fill="black" stroke="black" points="832.619,-326.781 841.21,-320.582 830.628,-320.07 832.619,-326.781"/>
</g>
<!-- theorems/prop -->
<g id="node29" class="node"><title>theorems/prop</title>
<ellipse fill="none" stroke="black" cx="794" cy="-234" rx="63.8893" ry="18"/>
<text text-anchor="middle" x="794" y="-230.3" font-family="Times New Roman,serif" font-size="14.00">theorems/prop</text>
</g>
<!-- HITs/interval&#45;&gt;theorems/prop -->
<g id="edge49" class="edge"><title>HITs/interval&#45;&gt;theorems/prop</title>
<path fill="none" stroke="black" d="M676.033,-361.701C691.059,-351.899 710.087,-338.358 725,-324 745.184,-304.568 764.392,-279.003 777.392,-260.26"/>
<polygon fill="black" stroke="black" points="780.338,-262.153 783.081,-251.92 774.555,-258.209 780.338,-262.153"/>
</g>
<!-- HITs/truncation&#45;&gt;theorems/prop -->
<g id="edge54" class="edge"><title>HITs/truncation&#45;&gt;theorems/prop</title>
<path fill="none" stroke="black" d="M1079.93,-294.216C1018.85,-281.566 917.793,-260.638 853.623,-247.348"/>
<polygon fill="black" stroke="black" points="854.154,-243.884 843.652,-245.283 852.735,-250.738 854.154,-243.884"/>
</g>
<!-- HITs/simplicial -->
<g id="node42" class="node"><title>HITs/simplicial</title>
<ellipse fill="none" stroke="black" cx="1139" cy="-234" rx="65.7887" ry="18"/>
<text text-anchor="middle" x="1139" y="-230.3" font-family="Times New Roman,serif" font-size="14.00">HITs/simplicial</text>
</g>
<!-- HITs/truncation&#45;&gt;HITs/simplicial -->
<g id="edge55" class="edge"><title>HITs/truncation&#45;&gt;HITs/simplicial</title>
<path fill="none" stroke="black" d="M1133.73,-287.697C1134.5,-279.983 1135.43,-270.712 1136.29,-262.112"/>
<polygon fill="black" stroke="black" points="1139.78,-262.403 1137.29,-252.104 1132.81,-261.706 1139.78,-262.403"/>
</g>
<!-- theorems/mere_eq_lemma -->
<g id="node43" class="node"><title>theorems/mere_eq_lemma</title>
<ellipse fill="none" stroke="black" cx="1329" cy="-234" rx="105.881" ry="18"/>
<text text-anchor="middle" x="1329" y="-230.3" font-family="Times New Roman,serif" font-size="14.00">theorems/mere_eq_lemma</text>
</g>
<!-- HITs/truncation&#45;&gt;theorems/mere_eq_lemma -->
<g id="edge56" class="edge"><title>HITs/truncation&#45;&gt;theorems/mere_eq_lemma</title>
<path fill="none" stroke="black" d="M1170.92,-291.17C1200.93,-280.509 1242.75,-265.649 1275.84,-253.891"/>
<polygon fill="black" stroke="black" points="1277.11,-257.153 1285.36,-250.507 1274.76,-250.557 1277.11,-257.153"/>
</g>
<!-- theorems/graphs -->
<g id="node44" class="node"><title>theorems/graphs</title>
<ellipse fill="none" stroke="black" cx="985" cy="-234" rx="70.6878" ry="18"/>
<text text-anchor="middle" x="985" y="-230.3" font-family="Times New Roman,serif" font-size="14.00">theorems/graphs</text>
</g>
<!-- HITs/truncation&#45;&gt;theorems/graphs -->
<g id="edge57" class="edge"><title>HITs/truncation&#45;&gt;theorems/graphs</title>
<path fill="none" stroke="black" d="M1100.46,-289.983C1078.64,-279.592 1049.4,-265.667 1025.8,-254.43"/>
<polygon fill="black" stroke="black" points="1027.27,-251.252 1016.74,-250.113 1024.26,-257.572 1027.27,-251.252"/>
</g>
<!-- algebra/group -->
<g id="node11" class="node"><title>algebra/group</title>
<ellipse fill="none" stroke="black" cx="204" cy="-306" rx="60.3893" ry="18"/>
<text text-anchor="middle" x="204" y="-302.3" font-family="Times New Roman,serif" font-size="14.00">algebra/group</text>
</g>
<!-- algebra/core&#45;&gt;algebra/group -->
<g id="edge8" class="edge"><title>algebra/core&#45;&gt;algebra/group</title>
<path fill="none" stroke="black" d="M265.445,-360.765C254.944,-351.576 241.644,-339.938 230.105,-329.842"/>
<polygon fill="black" stroke="black" points="232.285,-327.098 222.454,-323.147 227.675,-332.366 232.285,-327.098"/>
</g>
<!-- theorems/nat -->
<g id="node24" class="node"><title>theorems/nat</title>
<ellipse fill="none" stroke="black" cx="415" cy="-162" rx="57.3905" ry="18"/>
<text text-anchor="middle" x="415" y="-158.3" font-family="Times New Roman,serif" font-size="14.00">theorems/nat</text>
</g>
<!-- types/nat&#45;&gt;theorems/nat -->
<g id="edge26" class="edge"><title>types/nat&#45;&gt;theorems/nat</title>
<path fill="none" stroke="black" d="M405.966,-215.697C407.289,-207.983 408.878,-198.712 410.352,-190.112"/>
<polygon fill="black" stroke="black" points="413.828,-190.552 412.068,-180.104 406.928,-189.369 413.828,-190.552"/>
</g>
<!-- algebra/homology -->
<g id="node12" class="node"><title>algebra/homology</title>
<ellipse fill="none" stroke="black" cx="204" cy="-234" rx="75.2868" ry="18"/>
<text text-anchor="middle" x="204" y="-230.3" font-family="Times New Roman,serif" font-size="14.00">algebra/homology</text>
</g>
<!-- algebra/group&#45;&gt;algebra/homology -->
<g id="edge9" class="edge"><title>algebra/group&#45;&gt;algebra/homology</title>
<path fill="none" stroke="black" d="M204,-287.697C204,-279.983 204,-270.712 204,-262.112"/>
<polygon fill="black" stroke="black" points="207.5,-262.104 204,-252.104 200.5,-262.104 207.5,-262.104"/>
</g>
<!-- types/coproduct&#45;&gt;structures -->
<g id="edge10" class="edge"><title>types/coproduct&#45;&gt;structures</title>
<path fill="none" stroke="black" d="M481.322,-505.116C498.058,-495.017 519.869,-481.855 537.79,-471.04"/>
<polygon fill="black" stroke="black" points="540.006,-473.791 546.76,-465.628 536.39,-467.798 540.006,-473.791"/>
</g>
<!-- types/integer -->
<g id="node14" class="node"><title>types/integer</title>
<ellipse fill="none" stroke="black" cx="181" cy="-450" rx="56.59" ry="18"/>
<text text-anchor="middle" x="181" y="-446.3" font-family="Times New Roman,serif" font-size="14.00">types/integer</text>
</g>
<!-- types/coproduct&#45;&gt;types/integer -->
<g id="edge11" class="edge"><title>types/coproduct&#45;&gt;types/integer</title>
<path fill="none" stroke="black" d="M406.959,-508.727C358.426,-496.328 283.653,-477.225 233.563,-464.429"/>
<polygon fill="black" stroke="black" points="234.134,-460.962 223.579,-461.878 232.401,-467.744 234.134,-460.962"/>
</g>
<!-- types/integer&#45;&gt;algebra/core -->
<g id="edge23" class="edge"><title>types/integer&#45;&gt;algebra/core</title>
<path fill="none" stroke="black" d="M203.859,-433.465C218.261,-423.677 237.044,-410.912 252.806,-400.2"/>
<polygon fill="black" stroke="black" points="254.901,-403.008 261.205,-394.492 250.967,-397.218 254.901,-403.008"/>
</g>
<!-- HITs/circle -->
<g id="node22" class="node"><title>HITs/circle</title>
<ellipse fill="none" stroke="black" cx="330" cy="-90" rx="51.9908" ry="18"/>
<text text-anchor="middle" x="330" y="-86.3" font-family="Times New Roman,serif" font-size="14.00">HITs/circle</text>
</g>
<!-- types/integer&#45;&gt;HITs/circle -->
<g id="edge24" class="edge"><title>types/integer&#45;&gt;HITs/circle</title>
<path fill="none" stroke="black" d="M140.83,-437.285C87.5062,-418.974 0,-378.093 0,-307 0,-307 0,-307 0,-233 0,-117.759 171.904,-94.8974 267.569,-91.0971"/>
<polygon fill="black" stroke="black" points="267.835,-94.5902 277.711,-90.7541 267.598,-87.5942 267.835,-94.5902"/>
</g>
<!-- HITs/reals -->
<g id="node23" class="node"><title>HITs/reals</title>
<ellipse fill="none" stroke="black" cx="77" cy="-306" rx="48.9926" ry="18"/>
<text text-anchor="middle" x="77" y="-302.3" font-family="Times New Roman,serif" font-size="14.00">HITs/reals</text>
</g>
<!-- types/integer&#45;&gt;HITs/reals -->
<g id="edge25" class="edge"><title>types/integer&#45;&gt;HITs/reals</title>
<path fill="none" stroke="black" d="M146.814,-435.548C129.043,-426.849 108.485,-413.795 96,-396 83.3492,-377.968 78.8424,-353.181 77.3613,-334.344"/>
<polygon fill="black" stroke="black" points="80.8531,-334.097 76.8085,-324.305 73.8637,-334.482 80.8531,-334.097"/>
</g>
<!-- types/dep_path&#45;&gt;types/equiv -->
<g id="edge12" class="edge"><title>types/dep_path&#45;&gt;types/equiv</title>
<path fill="none" stroke="black" d="M629.52,-649.465C647.629,-639.242 671.492,-625.771 690.955,-614.783"/>
<polygon fill="black" stroke="black" points="692.843,-617.737 699.831,-609.773 689.402,-611.641 692.843,-617.737"/>
</g>
<!-- types/heq&#45;&gt;HITs/interval -->
<g id="edge21" class="edge"><title>types/heq&#45;&gt;HITs/interval</title>
<path fill="none" stroke="black" d="M750.152,-504.711C730.593,-479.913 693.215,-432.523 670.357,-403.541"/>
<polygon fill="black" stroke="black" points="672.984,-401.221 664.043,-395.537 667.488,-405.556 672.984,-401.221"/>
</g>
<!-- HITs/graph -->
<g id="node21" class="node"><title>HITs/graph</title>
<ellipse fill="none" stroke="black" cx="1132" cy="-450" rx="52.7911" ry="18"/>
<text text-anchor="middle" x="1132" y="-446.3" font-family="Times New Roman,serif" font-size="14.00">HITs/graph</text>
</g>
<!-- types/heq&#45;&gt;HITs/graph -->
<g id="edge22" class="edge"><title>types/heq&#45;&gt;HITs/graph</title>
<path fill="none" stroke="black" d="M797.133,-509.682C803.998,-507.623 811.194,-505.619 818,-504 906.013,-483.068 1009.81,-467.24 1073.25,-458.544"/>
<polygon fill="black" stroke="black" points="1074.02,-461.972 1083.46,-457.159 1073.08,-455.035 1074.02,-461.972"/>
</g>
<!-- types/unit&#45;&gt;structures -->
<g id="edge33" class="edge"><title>types/unit&#45;&gt;structures</title>
<path fill="none" stroke="black" d="M585.401,-504.055C583.285,-496.261 580.723,-486.822 578.35,-478.079"/>
<polygon fill="black" stroke="black" points="581.686,-477.009 575.689,-468.275 574.931,-478.843 581.686,-477.009"/>
</g>
<!-- HITs/suspension -->
<g id="node31" class="node"><title>HITs/suspension</title>
<ellipse fill="none" stroke="black" cx="355" cy="-306" rx="72.5877" ry="18"/>
<text text-anchor="middle" x="355" y="-302.3" font-family="Times New Roman,serif" font-size="14.00">HITs/suspension</text>
</g>
<!-- types/unit&#45;&gt;HITs/suspension -->
<g id="edge34" class="edge"><title>types/unit&#45;&gt;HITs/suspension</title>
<path fill="none" stroke="black" d="M560.642,-507.961C519.853,-488.601 445.79,-448.79 399,-396 382.816,-377.74 371.076,-352.461 363.815,-333.509"/>
<polygon fill="black" stroke="black" points="367.053,-332.172 360.333,-323.981 360.478,-334.575 367.053,-332.172"/>
</g>
<!-- types/sigma&#45;&gt;theorems/fibration -->
<g id="edge29" class="edge"><title>types/sigma&#45;&gt;theorems/fibration</title>
<path fill="none" stroke="black" d="M804.262,-361.638C818.763,-352.062 837.654,-339.587 853.724,-328.974"/>
<polygon fill="black" stroke="black" points="855.9,-331.732 862.316,-323.301 852.043,-325.891 855.9,-331.732"/>
</g>
<!-- types/sigma&#45;&gt;theorems/prop -->
<g id="edge30" class="edge"><title>types/sigma&#45;&gt;theorems/prop</title>
<path fill="none" stroke="black" d="M782.568,-359.871C784.784,-335.67 788.854,-291.211 791.492,-262.393"/>
<polygon fill="black" stroke="black" points="795,-262.467 792.426,-252.189 788.029,-261.829 795,-262.467"/>
</g>
<!-- HITs/moebius -->
<g id="node34" class="node"><title>HITs/moebius</title>
<ellipse fill="none" stroke="black" cx="1463" cy="-18" rx="63.0888" ry="18"/>
<text text-anchor="middle" x="1463" y="-14.3" font-family="Times New Roman,serif" font-size="14.00">HITs/moebius</text>
</g>
<!-- HITs/graph&#45;&gt;HITs/moebius -->
<g id="edge40" class="edge"><title>HITs/graph&#45;&gt;HITs/moebius</title>
<path fill="none" stroke="black" d="M1184.14,-447.05C1263.09,-442.992 1407.61,-430.888 1444,-396 1473.2,-368.007 1463,-347.447 1463,-307 1463,-307 1463,-307 1463,-161 1463,-120.996 1463,-74.6528 1463,-46.0798"/>
<polygon fill="black" stroke="black" points="1466.5,-46.0492 1463,-36.0493 1459.5,-46.0493 1466.5,-46.0492"/>
</g>
<!-- HITs/colimit -->
<g id="node35" class="node"><title>HITs/colimit</title>
<ellipse fill="none" stroke="black" cx="1279" cy="-378" rx="56.59" ry="18"/>
<text text-anchor="middle" x="1279" y="-374.3" font-family="Times New Roman,serif" font-size="14.00">HITs/colimit</text>
</g>
<!-- HITs/graph&#45;&gt;HITs/colimit -->
<g id="edge41" class="edge"><title>HITs/graph&#45;&gt;HITs/colimit</title>
<path fill="none" stroke="black" d="M1161.39,-435.003C1183.91,-424.283 1215.18,-409.392 1239.81,-397.66"/>
<polygon fill="black" stroke="black" points="1241.38,-400.793 1248.9,-393.333 1238.37,-394.473 1241.38,-400.793"/>
</g>
<!-- HITs/generalized -->
<g id="node36" class="node"><title>HITs/generalized</title>
<ellipse fill="none" stroke="black" cx="1132" cy="-378" rx="72.2875" ry="18"/>
<text text-anchor="middle" x="1132" y="-374.3" font-family="Times New Roman,serif" font-size="14.00">HITs/generalized</text>
</g>
<!-- HITs/graph&#45;&gt;HITs/generalized -->
<g id="edge42" class="edge"><title>HITs/graph&#45;&gt;HITs/generalized</title>
<path fill="none" stroke="black" d="M1132,-431.697C1132,-423.983 1132,-414.712 1132,-406.112"/>
<polygon fill="black" stroke="black" points="1135.5,-406.104 1132,-396.104 1128.5,-406.104 1135.5,-406.104"/>
</g>
<!-- HITs/int -->
<g id="node37" class="node"><title>HITs/int</title>
<ellipse fill="none" stroke="black" cx="1394" cy="-378" rx="40.8928" ry="18"/>
<text text-anchor="middle" x="1394" y="-374.3" font-family="Times New Roman,serif" font-size="14.00">HITs/int</text>
</g>
<!-- HITs/graph&#45;&gt;HITs/int -->
<g id="edge43" class="edge"><title>HITs/graph&#45;&gt;HITs/int</title>
<path fill="none" stroke="black" d="M1175.14,-439.467C1218.39,-429.629 1286.74,-413.317 1345,-396 1347.93,-395.13 1350.94,-394.193 1353.96,-393.22"/>
<polygon fill="black" stroke="black" points="1355.17,-396.508 1363.56,-390.038 1352.96,-389.863 1355.17,-396.508"/>
</g>
<!-- HITs/pushout -->
<g id="node38" class="node"><title>HITs/pushout</title>
<ellipse fill="none" stroke="black" cx="470" cy="-378" rx="61.99" ry="18"/>
<text text-anchor="middle" x="470" y="-374.3" font-family="Times New Roman,serif" font-size="14.00">HITs/pushout</text>
</g>
<!-- HITs/graph&#45;&gt;HITs/pushout -->
<g id="edge44" class="edge"><title>HITs/graph&#45;&gt;HITs/pushout</title>
<path fill="none" stroke="black" d="M1081.29,-444.976C984.456,-437.097 766.624,-418.433 584,-396 567.388,-393.959 549.462,-391.438 532.853,-388.967"/>
<polygon fill="black" stroke="black" points="533.116,-385.467 522.706,-387.44 532.074,-392.389 533.116,-385.467"/>
</g>
<!-- types/precategory -->
<g id="node39" class="node"><title>types/precategory</title>
<ellipse fill="none" stroke="black" cx="966" cy="-378" rx="75.2868" ry="18"/>
<text text-anchor="middle" x="966" y="-374.3" font-family="Times New Roman,serif" font-size="14.00">types/precategory</text>
</g>
<!-- HITs/graph&#45;&gt;types/precategory -->
<g id="edge45" class="edge"><title>HITs/graph&#45;&gt;types/precategory</title>
<path fill="none" stroke="black" d="M1099.99,-435.503C1074.6,-424.795 1038.81,-409.703 1010.6,-397.809"/>
<polygon fill="black" stroke="black" points="1011.93,-394.57 1001.36,-393.909 1009.21,-401.02 1011.93,-394.57"/>
</g>
<!-- HITs/ntrunc -->
<g id="node32" class="node"><title>HITs/ntrunc</title>
<ellipse fill="none" stroke="black" cx="330" cy="-18" rx="55.4913" ry="18"/>
<text text-anchor="middle" x="330" y="-14.3" font-family="Times New Roman,serif" font-size="14.00">HITs/ntrunc</text>
</g>
<!-- HITs/circle&#45;&gt;HITs/ntrunc -->
<g id="edge35" class="edge"><title>HITs/circle&#45;&gt;HITs/ntrunc</title>
<path fill="none" stroke="black" d="M330,-71.6966C330,-63.9827 330,-54.7125 330,-46.1124"/>
<polygon fill="black" stroke="black" points="333.5,-46.1043 330,-36.1043 326.5,-46.1044 333.5,-46.1043"/>
</g>
<!-- theorems/hopf -->
<g id="node33" class="node"><title>theorems/hopf</title>
<ellipse fill="none" stroke="black" cx="676" cy="-18" rx="63.8893" ry="18"/>
<text text-anchor="middle" x="676" y="-14.3" font-family="Times New Roman,serif" font-size="14.00">theorems/hopf</text>
</g>
<!-- HITs/circle&#45;&gt;theorems/hopf -->
<g id="edge36" class="edge"><title>HITs/circle&#45;&gt;theorems/hopf</title>
<path fill="none" stroke="black" d="M368.265,-77.7819C375.773,-75.7381 383.61,-73.7133 391,-72 466.272,-54.5479 553.767,-38.966 611.749,-29.2882"/>
<polygon fill="black" stroke="black" points="612.573,-32.6994 621.865,-27.6097 611.427,-25.7939 612.573,-32.6994"/>
</g>
<!-- HITs/circle&#45;&gt;HITs/moebius -->
<g id="edge37" class="edge"><title>HITs/circle&#45;&gt;HITs/moebius</title>
<path fill="none" stroke="black" d="M367.129,-77.2394C374.943,-75.1642 383.186,-73.2658 391,-72 584.097,-40.72 1181.52,-25.0986 1390.18,-20.4912"/>
<polygon fill="black" stroke="black" points="1390.49,-23.9853 1400.41,-20.2672 1390.33,-16.987 1390.49,-23.9853"/>
</g>
<!-- theorems/nat&#45;&gt;HITs/circle -->
<g id="edge66" class="edge"><title>theorems/nat&#45;&gt;HITs/circle</title>
<path fill="none" stroke="black" d="M395.286,-144.765C383.941,-135.422 369.52,-123.546 357.119,-113.334"/>
<polygon fill="black" stroke="black" points="359.259,-110.561 349.314,-106.906 354.809,-115.965 359.259,-110.561"/>
</g>
<!-- cubical/cubes -->
<g id="node26" class="node"><title>cubical/cubes</title>
<ellipse fill="none" stroke="black" cx="525" cy="-234" rx="60.3893" ry="18"/>
<text text-anchor="middle" x="525" y="-230.3" font-family="Times New Roman,serif" font-size="14.00">cubical/cubes</text>
</g>
<!-- types/product&#45;&gt;cubical/cubes -->
<g id="edge27" class="edge"><title>types/product&#45;&gt;cubical/cubes</title>
<path fill="none" stroke="black" d="M626.009,-289.811C607.245,-279.629 582.335,-266.112 561.947,-255.049"/>
<polygon fill="black" stroke="black" points="563.395,-251.853 552.936,-250.159 560.057,-258.005 563.395,-251.853"/>
</g>
<!-- theorems/ua -->
<g id="node27" class="node"><title>theorems/ua</title>
<ellipse fill="none" stroke="black" cx="658" cy="-234" rx="54.6905" ry="18"/>
<text text-anchor="middle" x="658" y="-230.3" font-family="Times New Roman,serif" font-size="14.00">theorems/ua</text>
</g>
<!-- types/product&#45;&gt;theorems/ua -->
<g id="edge28" class="edge"><title>types/product&#45;&gt;theorems/ua</title>
<path fill="none" stroke="black" d="M654.989,-287.697C655.43,-279.983 655.959,-270.712 656.451,-262.112"/>
<polygon fill="black" stroke="black" points="659.946,-262.288 657.023,-252.104 652.958,-261.888 659.946,-262.288"/>
</g>
<!-- cubical/path -->
<g id="node46" class="node"><title>cubical/path</title>
<ellipse fill="none" stroke="black" cx="619" cy="-162" rx="54.6905" ry="18"/>
<text text-anchor="middle" x="619" y="-158.3" font-family="Times New Roman,serif" font-size="14.00">cubical/path</text>
</g>
<!-- cubical/cubes&#45;&gt;cubical/path -->
<g id="edge58" class="edge"><title>cubical/cubes&#45;&gt;cubical/path</title>
<path fill="none" stroke="black" d="M546.33,-217.116C559.07,-207.629 575.439,-195.439 589.415,-185.031"/>
<polygon fill="black" stroke="black" points="591.824,-187.601 597.754,-178.821 587.643,-181.987 591.824,-187.601"/>
</g>
<!-- theorems/ua&#45;&gt;theorems/nat -->
<g id="edge67" class="edge"><title>theorems/ua&#45;&gt;theorems/nat</title>
<path fill="none" stroke="black" d="M618.417,-221.597C576.695,-209.579 510.849,-190.611 465.433,-177.528"/>
<polygon fill="black" stroke="black" points="466.361,-174.153 455.783,-174.748 464.423,-180.88 466.361,-174.153"/>
</g>
<!-- cubical/V -->
<g id="node49" class="node"><title>cubical/V</title>
<ellipse fill="none" stroke="black" cx="1536" cy="-90" rx="45.4919" ry="18"/>
<text text-anchor="middle" x="1536" y="-86.3" font-family="Times New Roman,serif" font-size="14.00">cubical/V</text>
</g>
<!-- theorems/ua&#45;&gt;cubical/V -->
<g id="edge68" class="edge"><title>theorems/ua&#45;&gt;cubical/V</title>
<path fill="none" stroke="black" d="M697.831,-221.533C705.484,-219.535 713.462,-217.59 721,-216 1005.68,-155.955 1352.04,-112.462 1482.7,-97.0873"/>
<polygon fill="black" stroke="black" points="1483.31,-100.54 1492.84,-95.9002 1482.5,-93.5873 1483.31,-100.54"/>
</g>
<!-- theorems/fibration&#45;&gt;theorems/hopf -->
<g id="edge64" class="edge"><title>theorems/fibration&#45;&gt;theorems/hopf</title>
<path fill="none" stroke="black" d="M891.408,-287.953C901.192,-245.846 919.904,-135.726 867,-72 850.754,-52.4309 789.59,-37.7903 740.796,-28.911"/>
<polygon fill="black" stroke="black" points="741.364,-25.4572 730.906,-27.1582 740.142,-32.3497 741.364,-25.4572"/>
</g>
<!-- types/swale -->
<g id="node30" class="node"><title>types/swale</title>
<ellipse fill="none" stroke="black" cx="158" cy="-378" rx="52.7911" ry="18"/>
<text text-anchor="middle" x="158" y="-374.3" font-family="Times New Roman,serif" font-size="14.00">types/swale</text>
</g>
<!-- types/swale&#45;&gt;algebra/group -->
<g id="edge31" class="edge"><title>types/swale&#45;&gt;algebra/group</title>
<path fill="none" stroke="black" d="M169.135,-360.055C174.616,-351.715 181.335,-341.491 187.406,-332.252"/>
<polygon fill="black" stroke="black" points="190.4,-334.068 192.967,-323.789 184.55,-330.224 190.4,-334.068"/>
</g>
<!-- types/swale&#45;&gt;HITs/reals -->
<g id="edge32" class="edge"><title>types/swale&#45;&gt;HITs/reals</title>
<path fill="none" stroke="black" d="M139.62,-361.116C128.849,-351.808 115.068,-339.898 103.177,-329.622"/>
<polygon fill="black" stroke="black" points="105.162,-326.712 95.3074,-322.821 100.585,-332.008 105.162,-326.712"/>
</g>
<!-- HITs/suspension&#45;&gt;HITs/circle -->
<g id="edge53" class="edge"><title>HITs/suspension&#45;&gt;HITs/circle</title>
<path fill="none" stroke="black" d="M352.996,-287.849C348.672,-250.832 338.432,-163.181 333.199,-118.386"/>
<polygon fill="black" stroke="black" points="336.65,-117.759 332.013,-108.232 329.697,-118.571 336.65,-117.759"/>
</g>
<!-- HITs/colimit&#45;&gt;HITs/truncation -->
<g id="edge38" class="edge"><title>HITs/colimit&#45;&gt;HITs/truncation</title>
<path fill="none" stroke="black" d="M1248.9,-362.666C1226.95,-352.213 1196.95,-337.93 1172.84,-326.449"/>
<polygon fill="black" stroke="black" points="1174.12,-323.18 1163.59,-322.041 1171.11,-329.5 1174.12,-323.18"/>
</g>
<!-- HITs/generalized&#45;&gt;HITs/truncation -->
<g id="edge39" class="edge"><title>HITs/generalized&#45;&gt;HITs/truncation</title>
<path fill="none" stroke="black" d="M1132,-359.697C1132,-351.983 1132,-342.712 1132,-334.112"/>
<polygon fill="black" stroke="black" points="1135.5,-334.104 1132,-324.104 1128.5,-334.104 1135.5,-334.104"/>
</g>
<!-- HITs/rat -->
<g id="node40" class="node"><title>HITs/rat</title>
<ellipse fill="none" stroke="black" cx="1393" cy="-306" rx="41.6928" ry="18"/>
<text text-anchor="middle" x="1393" y="-302.3" font-family="Times New Roman,serif" font-size="14.00">HITs/rat</text>
</g>
<!-- HITs/int&#45;&gt;HITs/rat -->
<g id="edge46" class="edge"><title>HITs/int&#45;&gt;HITs/rat</title>
<path fill="none" stroke="black" d="M1393.75,-359.697C1393.64,-351.983 1393.51,-342.712 1393.39,-334.112"/>
<polygon fill="black" stroke="black" points="1396.89,-334.053 1393.24,-324.104 1389.89,-334.153 1396.89,-334.053"/>
</g>
<!-- HITs/pushout&#45;&gt;HITs/reals -->
<g id="edge50" class="edge"><title>HITs/pushout&#45;&gt;HITs/reals</title>
<path fill="none" stroke="black" d="M415.645,-369.267C334.949,-357.639 187.352,-335.763 135,-324 131.081,-323.119 127.037,-322.122 122.993,-321.063"/>
<polygon fill="black" stroke="black" points="123.582,-317.595 113.012,-318.332 121.734,-324.347 123.582,-317.595"/>
</g>
<!-- HITs/pushout&#45;&gt;HITs/suspension -->
<g id="edge51" class="edge"><title>HITs/pushout&#45;&gt;HITs/suspension</title>
<path fill="none" stroke="black" d="M444.478,-361.465C428.475,-351.724 407.626,-339.033 390.08,-328.353"/>
<polygon fill="black" stroke="black" points="391.61,-325.187 381.248,-322.977 387.97,-331.166 391.61,-325.187"/>
</g>
<!-- HITs/join -->
<g id="node41" class="node"><title>HITs/join</title>
<ellipse fill="none" stroke="black" cx="491" cy="-306" rx="45.4919" ry="18"/>
<text text-anchor="middle" x="491" y="-302.3" font-family="Times New Roman,serif" font-size="14.00">HITs/join</text>
</g>
<!-- HITs/pushout&#45;&gt;HITs/join -->
<g id="edge52" class="edge"><title>HITs/pushout&#45;&gt;HITs/join</title>
<path fill="none" stroke="black" d="M475.084,-360.055C477.422,-352.261 480.253,-342.822 482.876,-334.079"/>
<polygon fill="black" stroke="black" points="486.296,-334.859 485.817,-324.275 479.591,-332.848 486.296,-334.859"/>
</g>
<!-- cubical/connection -->
<g id="node45" class="node"><title>cubical/connection</title>
<ellipse fill="none" stroke="black" cx="779" cy="-90" rx="79.0865" ry="18"/>
<text text-anchor="middle" x="779" y="-86.3" font-family="Times New Roman,serif" font-size="14.00">cubical/connection</text>
</g>
<!-- cubical/path&#45;&gt;cubical/connection -->
<g id="edge59" class="edge"><title>cubical/path&#45;&gt;cubical/connection</title>
<path fill="none" stroke="black" d="M650.611,-147.17C674.62,-136.666 707.942,-122.088 734.623,-110.415"/>
<polygon fill="black" stroke="black" points="736.363,-113.474 744.122,-106.259 733.558,-107.061 736.363,-113.474"/>
</g>
<!-- cubical/example -->
<g id="node47" class="node"><title>cubical/example</title>
<ellipse fill="none" stroke="black" cx="469" cy="-90" rx="68.7879" ry="18"/>
<text text-anchor="middle" x="469" y="-86.3" font-family="Times New Roman,serif" font-size="14.00">cubical/example</text>
</g>
<!-- cubical/path&#45;&gt;cubical/example -->
<g id="edge60" class="edge"><title>cubical/path&#45;&gt;cubical/example</title>
<path fill="none" stroke="black" d="M588.645,-146.834C566.1,-136.314 535.093,-121.844 510.294,-110.271"/>
<polygon fill="black" stroke="black" points="511.666,-107.049 501.124,-105.991 508.706,-113.392 511.666,-107.049"/>
</g>
<!-- cubical/square -->
<g id="node48" class="node"><title>cubical/square</title>
<ellipse fill="none" stroke="black" cx="619" cy="-90" rx="63.0888" ry="18"/>
<text text-anchor="middle" x="619" y="-86.3" font-family="Times New Roman,serif" font-size="14.00">cubical/square</text>
</g>
<!-- cubical/path&#45;&gt;cubical/square -->
<g id="edge61" class="edge"><title>cubical/path&#45;&gt;cubical/square</title>
<path fill="none" stroke="black" d="M619,-143.697C619,-135.983 619,-126.712 619,-118.112"/>
<polygon fill="black" stroke="black" points="622.5,-118.104 619,-108.104 615.5,-118.104 622.5,-118.104"/>
</g>
<!-- cubical/path&#45;&gt;cubical/V -->
<g id="edge62" class="edge"><title>cubical/path&#45;&gt;cubical/V</title>
<path fill="none" stroke="black" d="M671.595,-156.985C832.655,-144.69 1318.05,-107.638 1481.56,-95.1559"/>
<polygon fill="black" stroke="black" points="1482.15,-98.6209 1491.86,-94.3698 1481.62,-91.6412 1482.15,-98.6209"/>
</g>
<!-- cubical/V&#45;&gt;HITs/moebius -->
<g id="edge63" class="edge"><title>cubical/V&#45;&gt;HITs/moebius</title>
<path fill="none" stroke="black" d="M1519.44,-73.1159C1510.02,-64.0922 1498.06,-52.6231 1487.58,-42.5681"/>
<polygon fill="black" stroke="black" points="1489.9,-39.9466 1480.26,-35.5516 1485.06,-44.9991 1489.9,-39.9466"/>
</g>
<!-- theorems/functions -->
<g id="node50" class="node"><title>theorems/functions</title>
<ellipse fill="none" stroke="black" cx="863" cy="-666" rx="79.8859" ry="18"/>
<text text-anchor="middle" x="863" y="-662.3" font-family="Times New Roman,serif" font-size="14.00">theorems/functions</text>
</g>
<!-- theorems/functions&#45;&gt;types/equiv -->
<g id="edge65" class="edge"><title>theorems/functions&#45;&gt;types/equiv</title>
<path fill="none" stroke="black" d="M832.255,-649.291C811.684,-638.78 784.507,-624.894 762.788,-613.797"/>
<polygon fill="black" stroke="black" points="764.347,-610.663 753.849,-609.229 761.162,-616.896 764.347,-610.663"/>
</g>
<!-- theorems/topology -->
<g id="node51" class="node"><title>theorems/topology</title>
<ellipse fill="none" stroke="black" cx="894" cy="-810" rx="79.0865" ry="18"/>
<text text-anchor="middle" x="894" y="-806.3" font-family="Times New Roman,serif" font-size="14.00">theorems/topology</text>
</g>
</g>
</svg>
