<?xml version="1.0" encoding="UTF-8" standalone="no"?>
<!DOCTYPE svg PUBLIC "-//W3C//DTD SVG 1.1//EN"
 "http://www.w3.org/Graphics/SVG/1.1/DTD/svg11.dtd">
<!-- Generated by graphviz version 2.38.0 (20140413.2041)
 -->
<!-- Title: dependency_map Pages: 1 -->
<svg width="1789pt" height="836pt"
 viewBox="0.00 0.00 1788.74 836.00" xmlns="http://www.w3.org/2000/svg" xmlns:xlink="http://www.w3.org/1999/xlink">
<g id="graph0" class="graph" transform="scale(1 1) rotate(0) translate(4 832)">
<title>dependency_map</title>
<polygon fill="white" stroke="none" points="-4,4 -4,-832 1784.74,-832 1784.74,4 -4,4"/>
<!-- proto -->
<g id="node1" class="node"><title>proto</title>
<ellipse fill="none" stroke="black" cx="1131.6" cy="-810" rx="30.5947" ry="18"/>
<text text-anchor="middle" x="1131.6" y="-806.3" font-family="Times New Roman,serif" font-size="14.00">proto</text>
</g>
<!-- types/eq -->
<g id="node2" class="node"><title>types/eq</title>
<ellipse fill="none" stroke="black" cx="1191.6" cy="-738" rx="41.6928" ry="18"/>
<text text-anchor="middle" x="1191.6" y="-734.3" font-family="Times New Roman,serif" font-size="14.00">types/eq</text>
</g>
<!-- proto&#45;&gt;types/eq -->
<g id="edge1" class="edge"><title>proto&#45;&gt;types/eq</title>
<path fill="none" stroke="black" d="M1144.91,-793.465C1152.54,-784.566 1162.28,-773.205 1170.88,-763.164"/>
<polygon fill="black" stroke="black" points="1173.63,-765.338 1177.48,-755.467 1168.32,-760.782 1173.63,-765.338"/>
</g>
<!-- support -->
<g id="node4" class="node"><title>support</title>
<ellipse fill="none" stroke="black" cx="1253.6" cy="-666" rx="38.9931" ry="18"/>
<text text-anchor="middle" x="1253.6" y="-662.3" font-family="Times New Roman,serif" font-size="14.00">support</text>
</g>
<!-- types/eq&#45;&gt;support -->
<g id="edge13" class="edge"><title>types/eq&#45;&gt;support</title>
<path fill="none" stroke="black" d="M1205.98,-720.765C1213.88,-711.841 1223.83,-700.608 1232.59,-690.719"/>
<polygon fill="black" stroke="black" points="1235.28,-692.954 1239.29,-683.147 1230.04,-688.313 1235.28,-692.954"/>
</g>
<!-- types/dep_path -->
<g id="node15" class="node"><title>types/dep_path</title>
<ellipse fill="none" stroke="black" cx="1129.6" cy="-666" rx="66.8882" ry="18"/>
<text text-anchor="middle" x="1129.6" y="-662.3" font-family="Times New Roman,serif" font-size="14.00">types/dep_path</text>
</g>
<!-- types/eq&#45;&gt;types/dep_path -->
<g id="edge14" class="edge"><title>types/eq&#45;&gt;types/dep_path</title>
<path fill="none" stroke="black" d="M1177.22,-720.765C1169.43,-711.969 1159.65,-700.928 1150.98,-691.144"/>
<polygon fill="black" stroke="black" points="1153.58,-688.799 1144.33,-683.633 1148.34,-693.44 1153.58,-688.799"/>
</g>
<!-- meta/hott_theory -->
<g id="node3" class="node"><title>meta/hott_theory</title>
<ellipse fill="none" stroke="black" cx="1252.6" cy="-810" rx="72.2875" ry="18"/>
<text text-anchor="middle" x="1252.6" y="-806.3" font-family="Times New Roman,serif" font-size="14.00">meta/hott_theory</text>
</g>
<!-- meta/hott_theory&#45;&gt;types/eq -->
<g id="edge2" class="edge"><title>meta/hott_theory&#45;&gt;types/eq</title>
<path fill="none" stroke="black" d="M1237.83,-792.055C1230.23,-783.33 1220.83,-772.544 1212.49,-762.981"/>
<polygon fill="black" stroke="black" points="1215.02,-760.547 1205.81,-755.307 1209.74,-765.146 1215.02,-760.547"/>
</g>
<!-- types/equiv -->
<g id="node5" class="node"><title>types/equiv</title>
<ellipse fill="none" stroke="black" cx="1253.6" cy="-594" rx="51.9908" ry="18"/>
<text text-anchor="middle" x="1253.6" y="-590.3" font-family="Times New Roman,serif" font-size="14.00">types/equiv</text>
</g>
<!-- support&#45;&gt;types/equiv -->
<g id="edge3" class="edge"><title>support&#45;&gt;types/equiv</title>
<path fill="none" stroke="black" d="M1253.6,-647.697C1253.6,-639.983 1253.6,-630.712 1253.6,-622.112"/>
<polygon fill="black" stroke="black" points="1257.1,-622.104 1253.6,-612.104 1250.1,-622.104 1257.1,-622.104"/>
</g>
<!-- types/coproduct -->
<g id="node13" class="node"><title>types/coproduct</title>
<ellipse fill="none" stroke="black" cx="1321.6" cy="-522" rx="70.6878" ry="18"/>
<text text-anchor="middle" x="1321.6" y="-518.3" font-family="Times New Roman,serif" font-size="14.00">types/coproduct</text>
</g>
<!-- types/equiv&#45;&gt;types/coproduct -->
<g id="edge15" class="edge"><title>types/equiv&#45;&gt;types/coproduct</title>
<path fill="none" stroke="black" d="M1269.37,-576.765C1278,-567.882 1288.85,-556.709 1298.42,-546.854"/>
<polygon fill="black" stroke="black" points="1300.98,-549.245 1305.44,-539.633 1295.96,-544.367 1300.98,-549.245"/>
</g>
<!-- types/heq -->
<g id="node16" class="node"><title>types/heq</title>
<ellipse fill="none" stroke="black" cx="911.596" cy="-522" rx="46.2923" ry="18"/>
<text text-anchor="middle" x="911.596" y="-518.3" font-family="Times New Roman,serif" font-size="14.00">types/heq</text>
</g>
<!-- types/equiv&#45;&gt;types/heq -->
<g id="edge16" class="edge"><title>types/equiv&#45;&gt;types/heq</title>
<path fill="none" stroke="black" d="M1209.93,-584.063C1146.3,-571.039 1028.4,-546.907 961.445,-533.203"/>
<polygon fill="black" stroke="black" points="962.05,-529.754 951.551,-531.178 960.646,-536.612 962.05,-529.754"/>
</g>
<!-- HITs/infinitesimal -->
<g id="node17" class="node"><title>HITs/infinitesimal</title>
<ellipse fill="none" stroke="black" cx="1485.6" cy="-522" rx="74.9875" ry="18"/>
<text text-anchor="middle" x="1485.6" y="-518.3" font-family="Times New Roman,serif" font-size="14.00">HITs/infinitesimal</text>
</g>
<!-- types/equiv&#45;&gt;HITs/infinitesimal -->
<g id="edge17" class="edge"><title>types/equiv&#45;&gt;HITs/infinitesimal</title>
<path fill="none" stroke="black" d="M1291.39,-581.597C1329.27,-570.168 1387.97,-552.455 1430.93,-539.494"/>
<polygon fill="black" stroke="black" points="1432.1,-542.796 1440.66,-536.557 1430.08,-536.095 1432.1,-542.796"/>
</g>
<!-- types/lost -->
<g id="node18" class="node"><title>types/lost</title>
<ellipse fill="none" stroke="black" cx="1624.6" cy="-522" rx="46.2923" ry="18"/>
<text text-anchor="middle" x="1624.6" y="-518.3" font-family="Times New Roman,serif" font-size="14.00">types/lost</text>
</g>
<!-- types/equiv&#45;&gt;types/lost -->
<g id="edge18" class="edge"><title>types/equiv&#45;&gt;types/lost</title>
<path fill="none" stroke="black" d="M1301.64,-586.977C1363.92,-578.706 1475.69,-562.282 1569.6,-540 1573.21,-539.142 1576.94,-538.174 1580.67,-537.147"/>
<polygon fill="black" stroke="black" points="1581.82,-540.456 1590.46,-534.324 1579.89,-533.73 1581.82,-540.456"/>
</g>
<!-- types/unit -->
<g id="node19" class="node"><title>types/unit</title>
<ellipse fill="none" stroke="black" cx="1186.6" cy="-522" rx="46.2923" ry="18"/>
<text text-anchor="middle" x="1186.6" y="-518.3" font-family="Times New Roman,serif" font-size="14.00">types/unit</text>
</g>
<!-- types/equiv&#45;&gt;types/unit -->
<g id="edge19" class="edge"><title>types/equiv&#45;&gt;types/unit</title>
<path fill="none" stroke="black" d="M1238.06,-576.765C1229.43,-567.753 1218.55,-556.385 1209.02,-546.426"/>
<polygon fill="black" stroke="black" points="1211.49,-543.951 1202.05,-539.147 1206.44,-548.792 1211.49,-543.951"/>
</g>
<!-- types/sigma -->
<g id="node20" class="node"><title>types/sigma</title>
<ellipse fill="none" stroke="black" cx="1006.6" cy="-306" rx="53.8905" ry="18"/>
<text text-anchor="middle" x="1006.6" y="-302.3" font-family="Times New Roman,serif" font-size="14.00">types/sigma</text>
</g>
<!-- types/equiv&#45;&gt;types/sigma -->
<g id="edge20" class="edge"><title>types/equiv&#45;&gt;types/sigma</title>
<path fill="none" stroke="black" d="M1212.71,-582.702C1187,-574.555 1154.49,-560.991 1131.6,-540 1067.29,-481.037 1029.57,-381.202 1014.41,-333.68"/>
<polygon fill="black" stroke="black" points="1017.74,-332.613 1011.43,-324.101 1011.05,-334.689 1017.74,-332.613"/>
</g>
<!-- structures -->
<g id="node6" class="node"><title>structures</title>
<ellipse fill="none" stroke="black" cx="1292.6" cy="-450" rx="46.2923" ry="18"/>
<text text-anchor="middle" x="1292.6" y="-446.3" font-family="Times New Roman,serif" font-size="14.00">structures</text>
</g>
<!-- HITs/interval -->
<g id="node7" class="node"><title>HITs/interval</title>
<ellipse fill="none" stroke="black" cx="911.596" cy="-378" rx="57.6901" ry="18"/>
<text text-anchor="middle" x="911.596" y="-374.3" font-family="Times New Roman,serif" font-size="14.00">HITs/interval</text>
</g>
<!-- structures&#45;&gt;HITs/interval -->
<g id="edge4" class="edge"><title>structures&#45;&gt;HITs/interval</title>
<path fill="none" stroke="black" d="M1251.82,-441.509C1184.12,-429.07 1048.27,-404.11 970.267,-389.779"/>
<polygon fill="black" stroke="black" points="970.59,-386.28 960.122,-387.916 969.325,-393.165 970.59,-386.28"/>
</g>
<!-- HITs/truncation -->
<g id="node8" class="node"><title>HITs/truncation</title>
<ellipse fill="none" stroke="black" cx="554.596" cy="-306" rx="68.4888" ry="18"/>
<text text-anchor="middle" x="554.596" y="-302.3" font-family="Times New Roman,serif" font-size="14.00">HITs/truncation</text>
</g>
<!-- structures&#45;&gt;HITs/truncation -->
<g id="edge5" class="edge"><title>structures&#45;&gt;HITs/truncation</title>
<path fill="none" stroke="black" d="M1247.33,-446.348C1165.99,-440.984 990.013,-426.655 844.596,-396 757.398,-377.618 658.773,-344.653 601.923,-324.414"/>
<polygon fill="black" stroke="black" points="603.081,-321.111 592.487,-321.034 600.721,-327.701 603.081,-321.111"/>
</g>
<!-- algebra/core -->
<g id="node9" class="node"><title>algebra/core</title>
<ellipse fill="none" stroke="black" cx="1382.6" cy="-378" rx="55.4913" ry="18"/>
<text text-anchor="middle" x="1382.6" y="-374.3" font-family="Times New Roman,serif" font-size="14.00">algebra/core</text>
</g>
<!-- structures&#45;&gt;algebra/core -->
<g id="edge6" class="edge"><title>structures&#45;&gt;algebra/core</title>
<path fill="none" stroke="black" d="M1312.57,-433.465C1324.75,-423.992 1340.52,-411.729 1354,-401.239"/>
<polygon fill="black" stroke="black" points="1356.31,-403.879 1362.05,-394.977 1352.01,-398.354 1356.31,-403.879"/>
</g>
<!-- types/nat -->
<g id="node10" class="node"><title>types/nat</title>
<ellipse fill="none" stroke="black" cx="1393.6" cy="-306" rx="43.5923" ry="18"/>
<text text-anchor="middle" x="1393.6" y="-302.3" font-family="Times New Roman,serif" font-size="14.00">types/nat</text>
</g>
<!-- structures&#45;&gt;types/nat -->
<g id="edge7" class="edge"><title>structures&#45;&gt;types/nat</title>
<path fill="none" stroke="black" d="M1294.22,-431.799C1296.75,-412.714 1303.07,-381.749 1318.6,-360 1328.63,-345.948 1343.59,-334.301 1357.52,-325.539"/>
<polygon fill="black" stroke="black" points="1359.67,-328.332 1366.46,-320.201 1356.08,-322.322 1359.67,-328.332"/>
</g>
<!-- types/product -->
<g id="node26" class="node"><title>types/product</title>
<ellipse fill="none" stroke="black" cx="834.596" cy="-306" rx="61.99" ry="18"/>
<text text-anchor="middle" x="834.596" y="-302.3" font-family="Times New Roman,serif" font-size="14.00">types/product</text>
</g>
<!-- HITs/interval&#45;&gt;types/product -->
<g id="edge49" class="edge"><title>HITs/interval&#45;&gt;types/product</title>
<path fill="none" stroke="black" d="M893.737,-360.765C883.799,-351.73 871.255,-340.326 860.28,-330.349"/>
<polygon fill="black" stroke="black" points="862.379,-327.527 852.625,-323.39 857.67,-332.706 862.379,-327.527"/>
</g>
<!-- theorems/fibration -->
<g id="node29" class="node"><title>theorems/fibration</title>
<ellipse fill="none" stroke="black" cx="1166.6" cy="-234" rx="76.8869" ry="18"/>
<text text-anchor="middle" x="1166.6" y="-230.3" font-family="Times New Roman,serif" font-size="14.00">theorems/fibration</text>
</g>
<!-- HITs/interval&#45;&gt;theorems/fibration -->
<g id="edge50" class="edge"><title>HITs/interval&#45;&gt;theorems/fibration</title>
<path fill="none" stroke="black" d="M912.958,-359.915C915.503,-339.747 922.786,-306.604 943.596,-288 949.633,-282.603 1038.17,-262.638 1101.84,-248.815"/>
<polygon fill="black" stroke="black" points="1102.79,-252.19 1111.83,-246.653 1101.31,-245.348 1102.79,-252.19"/>
</g>
<!-- theorems/prop -->
<g id="node30" class="node"><title>theorems/prop</title>
<ellipse fill="none" stroke="black" cx="742.596" cy="-234" rx="63.8893" ry="18"/>
<text text-anchor="middle" x="742.596" y="-230.3" font-family="Times New Roman,serif" font-size="14.00">theorems/prop</text>
</g>
<!-- HITs/interval&#45;&gt;theorems/prop -->
<g id="edge51" class="edge"><title>HITs/interval&#45;&gt;theorems/prop</title>
<path fill="none" stroke="black" d="M858.321,-370.723C826.494,-364.214 787.693,-350.964 763.596,-324 748.601,-307.221 743.773,-281.736 742.451,-262.331"/>
<polygon fill="black" stroke="black" points="745.945,-262.117 742.034,-252.27 738.951,-262.406 745.945,-262.117"/>
</g>
<!-- HITs/truncation&#45;&gt;theorems/prop -->
<g id="edge56" class="edge"><title>HITs/truncation&#45;&gt;theorems/prop</title>
<path fill="none" stroke="black" d="M592.641,-290.834C622.492,-279.72 664.18,-264.198 696.026,-252.34"/>
<polygon fill="black" stroke="black" points="697.419,-255.556 705.569,-248.787 694.977,-248.996 697.419,-255.556"/>
</g>
<!-- HITs/simplicial -->
<g id="node43" class="node"><title>HITs/simplicial</title>
<ellipse fill="none" stroke="black" cx="364.596" cy="-234" rx="65.7887" ry="18"/>
<text text-anchor="middle" x="364.596" y="-230.3" font-family="Times New Roman,serif" font-size="14.00">HITs/simplicial</text>
</g>
<!-- HITs/truncation&#45;&gt;HITs/simplicial -->
<g id="edge57" class="edge"><title>HITs/truncation&#45;&gt;HITs/simplicial</title>
<path fill="none" stroke="black" d="M516.604,-291.003C486.474,-279.902 444.204,-264.329 411.885,-252.422"/>
<polygon fill="black" stroke="black" points="412.792,-249.027 402.199,-248.854 410.372,-255.595 412.792,-249.027"/>
</g>
<!-- theorems/mere_eq_lemma -->
<g id="node44" class="node"><title>theorems/mere_eq_lemma</title>
<ellipse fill="none" stroke="black" cx="554.596" cy="-234" rx="105.881" ry="18"/>
<text text-anchor="middle" x="554.596" y="-230.3" font-family="Times New Roman,serif" font-size="14.00">theorems/mere_eq_lemma</text>
</g>
<!-- HITs/truncation&#45;&gt;theorems/mere_eq_lemma -->
<g id="edge58" class="edge"><title>HITs/truncation&#45;&gt;theorems/mere_eq_lemma</title>
<path fill="none" stroke="black" d="M554.596,-287.697C554.596,-279.983 554.596,-270.712 554.596,-262.112"/>
<polygon fill="black" stroke="black" points="558.096,-262.104 554.596,-252.104 551.096,-262.104 558.096,-262.104"/>
</g>
<!-- theorems/graphs -->
<g id="node45" class="node"><title>theorems/graphs</title>
<ellipse fill="none" stroke="black" cx="210.596" cy="-234" rx="70.6878" ry="18"/>
<text text-anchor="middle" x="210.596" y="-230.3" font-family="Times New Roman,serif" font-size="14.00">theorems/graphs</text>
</g>
<!-- HITs/truncation&#45;&gt;theorems/graphs -->
<g id="edge59" class="edge"><title>HITs/truncation&#45;&gt;theorems/graphs</title>
<path fill="none" stroke="black" d="M501.506,-294.618C447.972,-284.094 362.983,-267.234 289.596,-252 284.188,-250.877 278.574,-249.698 272.946,-248.505"/>
<polygon fill="black" stroke="black" points="273.351,-245.013 262.842,-246.355 271.894,-251.86 273.351,-245.013"/>
</g>
<!-- algebra/group -->
<g id="node11" class="node"><title>algebra/group</title>
<ellipse fill="none" stroke="black" cx="1553.6" cy="-306" rx="60.3893" ry="18"/>
<text text-anchor="middle" x="1553.6" y="-302.3" font-family="Times New Roman,serif" font-size="14.00">algebra/group</text>
</g>
<!-- algebra/core&#45;&gt;algebra/group -->
<g id="edge8" class="edge"><title>algebra/core&#45;&gt;algebra/group</title>
<path fill="none" stroke="black" d="M1415.57,-363.503C1442.42,-352.51 1480.57,-336.894 1509.96,-324.865"/>
<polygon fill="black" stroke="black" points="1511.63,-327.962 1519.56,-320.934 1508.98,-321.484 1511.63,-327.962"/>
</g>
<!-- theorems/nat -->
<g id="node25" class="node"><title>theorems/nat</title>
<ellipse fill="none" stroke="black" cx="1270.6" cy="-162" rx="57.3905" ry="18"/>
<text text-anchor="middle" x="1270.6" y="-158.3" font-family="Times New Roman,serif" font-size="14.00">theorems/nat</text>
</g>
<!-- types/nat&#45;&gt;theorems/nat -->
<g id="edge27" class="edge"><title>types/nat&#45;&gt;theorems/nat</title>
<path fill="none" stroke="black" d="M1379.49,-288.711C1357.91,-263.807 1316.6,-216.115 1291.53,-187.169"/>
<polygon fill="black" stroke="black" points="1294.11,-184.804 1284.92,-179.537 1288.82,-189.387 1294.11,-184.804"/>
</g>
<!-- algebra/homology -->
<g id="node12" class="node"><title>algebra/homology</title>
<ellipse fill="none" stroke="black" cx="1568.6" cy="-234" rx="75.2868" ry="18"/>
<text text-anchor="middle" x="1568.6" y="-230.3" font-family="Times New Roman,serif" font-size="14.00">algebra/homology</text>
</g>
<!-- algebra/group&#45;&gt;algebra/homology -->
<g id="edge9" class="edge"><title>algebra/group&#45;&gt;algebra/homology</title>
<path fill="none" stroke="black" d="M1557.3,-287.697C1558.96,-279.983 1560.94,-270.712 1562.79,-262.112"/>
<polygon fill="black" stroke="black" points="1566.26,-262.616 1564.93,-252.104 1559.41,-261.149 1566.26,-262.616"/>
</g>
<!-- types/coproduct&#45;&gt;structures -->
<g id="edge10" class="edge"><title>types/coproduct&#45;&gt;structures</title>
<path fill="none" stroke="black" d="M1314.58,-504.055C1311.31,-496.176 1307.35,-486.617 1303.7,-477.794"/>
<polygon fill="black" stroke="black" points="1306.81,-476.174 1299.75,-468.275 1300.35,-478.853 1306.81,-476.174"/>
</g>
<!-- types/integer -->
<g id="node14" class="node"><title>types/integer</title>
<ellipse fill="none" stroke="black" cx="1465.6" cy="-450" rx="56.59" ry="18"/>
<text text-anchor="middle" x="1465.6" y="-446.3" font-family="Times New Roman,serif" font-size="14.00">types/integer</text>
</g>
<!-- types/coproduct&#45;&gt;types/integer -->
<g id="edge11" class="edge"><title>types/coproduct&#45;&gt;types/integer</title>
<path fill="none" stroke="black" d="M1352.84,-505.811C1374.51,-495.279 1403.51,-481.18 1426.68,-469.918"/>
<polygon fill="black" stroke="black" points="1428.42,-472.961 1435.89,-465.442 1425.36,-466.666 1428.42,-472.961"/>
</g>
<!-- types/integer&#45;&gt;algebra/core -->
<g id="edge23" class="edge"><title>types/integer&#45;&gt;algebra/core</title>
<path fill="none" stroke="black" d="M1446.35,-432.765C1435.45,-423.576 1421.65,-411.938 1409.68,-401.842"/>
<polygon fill="black" stroke="black" points="1411.64,-398.919 1401.74,-395.147 1407.13,-404.27 1411.64,-398.919"/>
</g>
<!-- HITs/circle -->
<g id="node22" class="node"><title>HITs/circle</title>
<ellipse fill="none" stroke="black" cx="1296.6" cy="-90" rx="51.9908" ry="18"/>
<text text-anchor="middle" x="1296.6" y="-86.3" font-family="Times New Roman,serif" font-size="14.00">HITs/circle</text>
</g>
<!-- types/integer&#45;&gt;HITs/circle -->
<g id="edge24" class="edge"><title>types/integer&#45;&gt;HITs/circle</title>
<path fill="none" stroke="black" d="M1465.6,-431.951C1465.6,-405.292 1465.6,-352.115 1465.6,-307 1465.6,-307 1465.6,-307 1465.6,-233 1465.6,-168.376 1392.27,-127.275 1342.21,-106.748"/>
<polygon fill="black" stroke="black" points="1343.44,-103.468 1332.85,-103.034 1340.86,-109.975 1343.44,-103.468"/>
</g>
<!-- HITs/reals -->
<g id="node23" class="node"><title>HITs/reals</title>
<ellipse fill="none" stroke="black" cx="1680.6" cy="-306" rx="48.9926" ry="18"/>
<text text-anchor="middle" x="1680.6" y="-302.3" font-family="Times New Roman,serif" font-size="14.00">HITs/reals</text>
</g>
<!-- types/integer&#45;&gt;HITs/reals -->
<g id="edge25" class="edge"><title>types/integer&#45;&gt;HITs/reals</title>
<path fill="none" stroke="black" d="M1512.68,-440.02C1544.12,-432.281 1585.13,-418.674 1615.6,-396 1638.12,-379.235 1656.18,-352.443 1667.49,-332.63"/>
<polygon fill="black" stroke="black" points="1670.59,-334.257 1672.35,-323.809 1664.46,-330.88 1670.59,-334.257"/>
</g>
<!-- types/rational -->
<g id="node24" class="node"><title>types/rational</title>
<ellipse fill="none" stroke="black" cx="1721.6" cy="-378" rx="59.2899" ry="18"/>
<text text-anchor="middle" x="1721.6" y="-374.3" font-family="Times New Roman,serif" font-size="14.00">types/rational</text>
</g>
<!-- types/integer&#45;&gt;types/rational -->
<g id="edge26" class="edge"><title>types/integer&#45;&gt;types/rational</title>
<path fill="none" stroke="black" d="M1507.01,-437.675C1551.14,-425.61 1621.11,-406.477 1669.08,-393.361"/>
<polygon fill="black" stroke="black" points="1670.24,-396.672 1678.96,-390.658 1668.39,-389.92 1670.24,-396.672"/>
</g>
<!-- types/dep_path&#45;&gt;types/equiv -->
<g id="edge12" class="edge"><title>types/dep_path&#45;&gt;types/equiv</title>
<path fill="none" stroke="black" d="M1157.12,-649.465C1175.22,-639.242 1199.09,-625.771 1218.55,-614.783"/>
<polygon fill="black" stroke="black" points="1220.44,-617.737 1227.43,-609.773 1217,-611.641 1220.44,-617.737"/>
</g>
<!-- types/heq&#45;&gt;HITs/interval -->
<g id="edge21" class="edge"><title>types/heq&#45;&gt;HITs/interval</title>
<path fill="none" stroke="black" d="M911.596,-503.871C911.596,-479.67 911.596,-435.211 911.596,-406.393"/>
<polygon fill="black" stroke="black" points="915.096,-406.189 911.596,-396.189 908.096,-406.189 915.096,-406.189"/>
</g>
<!-- HITs/graph -->
<g id="node21" class="node"><title>HITs/graph</title>
<ellipse fill="none" stroke="black" cx="481.596" cy="-450" rx="52.7911" ry="18"/>
<text text-anchor="middle" x="481.596" y="-446.3" font-family="Times New Roman,serif" font-size="14.00">HITs/graph</text>
</g>
<!-- types/heq&#45;&gt;HITs/graph -->
<g id="edge22" class="edge"><title>types/heq&#45;&gt;HITs/graph</title>
<path fill="none" stroke="black" d="M869.975,-514.225C792.427,-501.6 625.771,-474.47 538.122,-460.202"/>
<polygon fill="black" stroke="black" points="538.526,-456.722 528.093,-458.569 537.401,-463.631 538.526,-456.722"/>
</g>
<!-- types/unit&#45;&gt;structures -->
<g id="edge35" class="edge"><title>types/unit&#45;&gt;structures</title>
<path fill="none" stroke="black" d="M1209.08,-506.155C1224.39,-496.039 1244.87,-482.515 1261.72,-471.391"/>
<polygon fill="black" stroke="black" points="1263.73,-474.255 1270.15,-465.824 1259.88,-468.414 1263.73,-474.255"/>
</g>
<!-- HITs/suspension -->
<g id="node32" class="node"><title>HITs/suspension</title>
<ellipse fill="none" stroke="black" cx="1259.6" cy="-306" rx="72.5877" ry="18"/>
<text text-anchor="middle" x="1259.6" y="-302.3" font-family="Times New Roman,serif" font-size="14.00">HITs/suspension</text>
</g>
<!-- types/unit&#45;&gt;HITs/suspension -->
<g id="edge36" class="edge"><title>types/unit&#45;&gt;HITs/suspension</title>
<path fill="none" stroke="black" d="M1192.45,-503.849C1205.13,-466.675 1235.23,-378.439 1250.45,-333.82"/>
<polygon fill="black" stroke="black" points="1253.8,-334.827 1253.72,-324.232 1247.18,-332.567 1253.8,-334.827"/>
</g>
<!-- types/sigma&#45;&gt;theorems/nat -->
<g id="edge30" class="edge"><title>types/sigma&#45;&gt;theorems/nat</title>
<path fill="none" stroke="black" d="M1046.48,-293.789C1054.13,-291.767 1062.09,-289.748 1069.6,-288 1150.33,-269.191 1193.83,-310.458 1252.6,-252 1268.53,-236.147 1272.3,-210.342 1272.51,-190.59"/>
<polygon fill="black" stroke="black" points="1276.01,-190.272 1272.32,-180.341 1269.01,-190.405 1276.01,-190.272"/>
</g>
<!-- types/sigma&#45;&gt;theorems/fibration -->
<g id="edge31" class="edge"><title>types/sigma&#45;&gt;theorems/fibration</title>
<path fill="none" stroke="black" d="M1038.21,-291.17C1062.3,-280.631 1095.76,-265.989 1122.49,-254.297"/>
<polygon fill="black" stroke="black" points="1124.24,-257.351 1132,-250.136 1121.44,-250.937 1124.24,-257.351"/>
</g>
<!-- types/sigma&#45;&gt;theorems/prop -->
<g id="edge32" class="edge"><title>types/sigma&#45;&gt;theorems/prop</title>
<path fill="none" stroke="black" d="M965.636,-294.139C920.422,-282.151 847.423,-262.795 797.332,-249.513"/>
<polygon fill="black" stroke="black" points="798.198,-246.122 787.635,-246.942 796.403,-252.888 798.198,-246.122"/>
</g>
<!-- HITs/moebius -->
<g id="node35" class="node"><title>HITs/moebius</title>
<ellipse fill="none" stroke="black" cx="636.596" cy="-18" rx="63.0888" ry="18"/>
<text text-anchor="middle" x="636.596" y="-14.3" font-family="Times New Roman,serif" font-size="14.00">HITs/moebius</text>
</g>
<!-- HITs/graph&#45;&gt;HITs/moebius -->
<g id="edge42" class="edge"><title>HITs/graph&#45;&gt;HITs/moebius</title>
<path fill="none" stroke="black" d="M431.252,-444.704C379.319,-438.834 296.919,-425.448 231.596,-396 171.062,-368.711 111.596,-373.401 111.596,-307 111.596,-307 111.596,-307 111.596,-161 111.596,-68.0428 422.173,-34.076 565.573,-23.3471"/>
<polygon fill="black" stroke="black" points="565.884,-26.8338 575.602,-22.6143 565.374,-19.8524 565.884,-26.8338"/>
</g>
<!-- HITs/colimit -->
<g id="node36" class="node"><title>HITs/colimit</title>
<ellipse fill="none" stroke="black" cx="628.596" cy="-378" rx="56.59" ry="18"/>
<text text-anchor="middle" x="628.596" y="-374.3" font-family="Times New Roman,serif" font-size="14.00">HITs/colimit</text>
</g>
<!-- HITs/graph&#45;&gt;HITs/colimit -->
<g id="edge43" class="edge"><title>HITs/graph&#45;&gt;HITs/colimit</title>
<path fill="none" stroke="black" d="M510.991,-435.003C533.502,-424.283 564.772,-409.392 589.41,-397.66"/>
<polygon fill="black" stroke="black" points="590.972,-400.793 598.496,-393.333 587.963,-394.473 590.972,-400.793"/>
</g>
<!-- HITs/generalized -->
<g id="node37" class="node"><title>HITs/generalized</title>
<ellipse fill="none" stroke="black" cx="481.596" cy="-378" rx="72.2875" ry="18"/>
<text text-anchor="middle" x="481.596" y="-374.3" font-family="Times New Roman,serif" font-size="14.00">HITs/generalized</text>
</g>
<!-- HITs/graph&#45;&gt;HITs/generalized -->
<g id="edge44" class="edge"><title>HITs/graph&#45;&gt;HITs/generalized</title>
<path fill="none" stroke="black" d="M481.596,-431.697C481.596,-423.983 481.596,-414.712 481.596,-406.112"/>
<polygon fill="black" stroke="black" points="485.096,-406.104 481.596,-396.104 478.096,-406.104 485.096,-406.104"/>
</g>
<!-- HITs/int -->
<g id="node38" class="node"><title>HITs/int</title>
<ellipse fill="none" stroke="black" cx="41.5963" cy="-378" rx="40.8928" ry="18"/>
<text text-anchor="middle" x="41.5963" y="-374.3" font-family="Times New Roman,serif" font-size="14.00">HITs/int</text>
</g>
<!-- HITs/graph&#45;&gt;HITs/int -->
<g id="edge45" class="edge"><title>HITs/graph&#45;&gt;HITs/int</title>
<path fill="none" stroke="black" d="M431.138,-444.594C357.301,-437.57 215.756,-421.92 97.5963,-396 92.8822,-394.966 87.9896,-393.73 83.1469,-392.404"/>
<polygon fill="black" stroke="black" points="83.9279,-388.986 73.3501,-389.588 81.994,-395.714 83.9279,-388.986"/>
</g>
<!-- HITs/pushout -->
<g id="node39" class="node"><title>HITs/pushout</title>
<ellipse fill="none" stroke="black" cx="1124.6" cy="-378" rx="61.99" ry="18"/>
<text text-anchor="middle" x="1124.6" y="-374.3" font-family="Times New Roman,serif" font-size="14.00">HITs/pushout</text>
</g>
<!-- HITs/graph&#45;&gt;HITs/pushout -->
<g id="edge46" class="edge"><title>HITs/graph&#45;&gt;HITs/pushout</title>
<path fill="none" stroke="black" d="M531.346,-443.856C620.852,-434.565 814.957,-414.252 978.596,-396 1004.68,-393.091 1033.36,-389.776 1058.35,-386.851"/>
<polygon fill="black" stroke="black" points="1058.93,-390.307 1068.45,-385.666 1058.11,-383.355 1058.93,-390.307"/>
</g>
<!-- types/precategory -->
<g id="node40" class="node"><title>types/precategory</title>
<ellipse fill="none" stroke="black" cx="315.596" cy="-378" rx="75.2868" ry="18"/>
<text text-anchor="middle" x="315.596" y="-374.3" font-family="Times New Roman,serif" font-size="14.00">types/precategory</text>
</g>
<!-- HITs/graph&#45;&gt;types/precategory -->
<g id="edge47" class="edge"><title>HITs/graph&#45;&gt;types/precategory</title>
<path fill="none" stroke="black" d="M449.59,-435.503C424.196,-424.795 388.405,-409.703 360.201,-397.809"/>
<polygon fill="black" stroke="black" points="361.527,-394.57 350.953,-393.909 358.807,-401.02 361.527,-394.57"/>
</g>
<!-- HITs/ntrunc -->
<g id="node33" class="node"><title>HITs/ntrunc</title>
<ellipse fill="none" stroke="black" cx="1322.6" cy="-18" rx="55.4913" ry="18"/>
<text text-anchor="middle" x="1322.6" y="-14.3" font-family="Times New Roman,serif" font-size="14.00">HITs/ntrunc</text>
</g>
<!-- HITs/circle&#45;&gt;HITs/ntrunc -->
<g id="edge37" class="edge"><title>HITs/circle&#45;&gt;HITs/ntrunc</title>
<path fill="none" stroke="black" d="M1302.89,-72.055C1305.82,-64.1762 1309.37,-54.6165 1312.64,-45.794"/>
<polygon fill="black" stroke="black" points="1315.98,-46.8682 1316.18,-36.2753 1309.42,-44.4309 1315.98,-46.8682"/>
</g>
<!-- theorems/hopf -->
<g id="node34" class="node"><title>theorems/hopf</title>
<ellipse fill="none" stroke="black" cx="1185.6" cy="-18" rx="63.8893" ry="18"/>
<text text-anchor="middle" x="1185.6" y="-14.3" font-family="Times New Roman,serif" font-size="14.00">theorems/hopf</text>
</g>
<!-- HITs/circle&#45;&gt;theorems/hopf -->
<g id="edge38" class="edge"><title>HITs/circle&#45;&gt;theorems/hopf</title>
<path fill="none" stroke="black" d="M1272.78,-73.9832C1257.16,-64.1309 1236.5,-51.1016 1219.21,-40.1994"/>
<polygon fill="black" stroke="black" points="1220.85,-37.094 1210.52,-34.7203 1217.12,-43.015 1220.85,-37.094"/>
</g>
<!-- HITs/circle&#45;&gt;HITs/moebius -->
<g id="edge39" class="edge"><title>HITs/circle&#45;&gt;HITs/moebius</title>
<path fill="none" stroke="black" d="M1249.1,-82.4366C1224.5,-79.1267 1193.96,-75.1562 1166.6,-72 1001.63,-52.9693 807.297,-34.5575 705.98,-25.2611"/>
<polygon fill="black" stroke="black" points="706.153,-21.7624 695.876,-24.3359 705.515,-28.7333 706.153,-21.7624"/>
</g>
<!-- theorems/nat&#45;&gt;HITs/circle -->
<g id="edge68" class="edge"><title>theorems/nat&#45;&gt;HITs/circle</title>
<path fill="none" stroke="black" d="M1276.89,-144.055C1279.82,-136.176 1283.37,-126.617 1286.64,-117.794"/>
<polygon fill="black" stroke="black" points="1289.98,-118.868 1290.18,-108.275 1283.42,-116.431 1289.98,-118.868"/>
</g>
<!-- cubical/cubes -->
<g id="node27" class="node"><title>cubical/cubes</title>
<ellipse fill="none" stroke="black" cx="1011.6" cy="-234" rx="60.3893" ry="18"/>
<text text-anchor="middle" x="1011.6" y="-230.3" font-family="Times New Roman,serif" font-size="14.00">cubical/cubes</text>
</g>
<!-- types/product&#45;&gt;cubical/cubes -->
<g id="edge28" class="edge"><title>types/product&#45;&gt;cubical/cubes</title>
<path fill="none" stroke="black" d="M869.989,-291.003C898.028,-279.914 937.351,-264.363 967.447,-252.46"/>
<polygon fill="black" stroke="black" points="968.856,-255.667 976.868,-248.734 966.281,-249.157 968.856,-255.667"/>
</g>
<!-- theorems/ua -->
<g id="node28" class="node"><title>theorems/ua</title>
<ellipse fill="none" stroke="black" cx="878.596" cy="-234" rx="54.6905" ry="18"/>
<text text-anchor="middle" x="878.596" y="-230.3" font-family="Times New Roman,serif" font-size="14.00">theorems/ua</text>
</g>
<!-- types/product&#45;&gt;theorems/ua -->
<g id="edge29" class="edge"><title>types/product&#45;&gt;theorems/ua</title>
<path fill="none" stroke="black" d="M845.247,-288.055C850.436,-279.801 856.784,-269.701 862.544,-260.538"/>
<polygon fill="black" stroke="black" points="865.685,-262.118 868.043,-251.789 859.758,-258.393 865.685,-262.118"/>
</g>
<!-- cubical/path -->
<g id="node47" class="node"><title>cubical/path</title>
<ellipse fill="none" stroke="black" cx="918.596" cy="-162" rx="54.6905" ry="18"/>
<text text-anchor="middle" x="918.596" y="-158.3" font-family="Times New Roman,serif" font-size="14.00">cubical/path</text>
</g>
<!-- cubical/cubes&#45;&gt;cubical/path -->
<g id="edge60" class="edge"><title>cubical/cubes&#45;&gt;cubical/path</title>
<path fill="none" stroke="black" d="M990.493,-217.116C977.889,-207.629 961.694,-195.439 947.866,-185.031"/>
<polygon fill="black" stroke="black" points="949.71,-182.039 939.616,-178.821 945.501,-187.631 949.71,-182.039"/>
</g>
<!-- theorems/ua&#45;&gt;theorems/nat -->
<g id="edge69" class="edge"><title>theorems/ua&#45;&gt;theorems/nat</title>
<path fill="none" stroke="black" d="M918.735,-221.685C926.612,-219.65 934.838,-217.653 942.596,-216 1034.57,-196.404 1142.42,-180.273 1208.63,-171.14"/>
<polygon fill="black" stroke="black" points="1209.46,-174.56 1218.89,-169.735 1208.51,-167.624 1209.46,-174.56"/>
</g>
<!-- cubical/V -->
<g id="node50" class="node"><title>cubical/V</title>
<ellipse fill="none" stroke="black" cx="636.596" cy="-90" rx="45.4919" ry="18"/>
<text text-anchor="middle" x="636.596" y="-86.3" font-family="Times New Roman,serif" font-size="14.00">cubical/V</text>
</g>
<!-- theorems/ua&#45;&gt;cubical/V -->
<g id="edge70" class="edge"><title>theorems/ua&#45;&gt;cubical/V</title>
<path fill="none" stroke="black" d="M853.155,-218.072C809.149,-192.25 718.846,-139.262 669.901,-110.542"/>
<polygon fill="black" stroke="black" points="671.373,-107.348 660.976,-105.306 667.83,-113.385 671.373,-107.348"/>
</g>
<!-- theorems/fibration&#45;&gt;theorems/hopf -->
<g id="edge66" class="edge"><title>theorems/fibration&#45;&gt;theorems/hopf</title>
<path fill="none" stroke="black" d="M1168.12,-215.849C1171.41,-178.832 1179.19,-91.1809 1183.16,-46.3863"/>
<polygon fill="black" stroke="black" points="1186.67,-46.5028 1184.07,-36.2325 1179.7,-45.8837 1186.67,-46.5028"/>
</g>
<!-- types/swale -->
<g id="node31" class="node"><title>types/swale</title>
<ellipse fill="none" stroke="black" cx="1553.6" cy="-378" rx="52.7911" ry="18"/>
<text text-anchor="middle" x="1553.6" y="-374.3" font-family="Times New Roman,serif" font-size="14.00">types/swale</text>
</g>
<!-- types/swale&#45;&gt;algebra/group -->
<g id="edge33" class="edge"><title>types/swale&#45;&gt;algebra/group</title>
<path fill="none" stroke="black" d="M1553.6,-359.697C1553.6,-351.983 1553.6,-342.712 1553.6,-334.112"/>
<polygon fill="black" stroke="black" points="1557.1,-334.104 1553.6,-324.104 1550.1,-334.104 1557.1,-334.104"/>
</g>
<!-- types/swale&#45;&gt;HITs/reals -->
<g id="edge34" class="edge"><title>types/swale&#45;&gt;HITs/reals</title>
<path fill="none" stroke="black" d="M1580.22,-362.326C1599.23,-351.849 1624.98,-337.654 1645.64,-326.265"/>
<polygon fill="black" stroke="black" points="1647.37,-329.308 1654.44,-321.415 1644,-323.177 1647.37,-329.308"/>
</g>
<!-- HITs/suspension&#45;&gt;HITs/circle -->
<g id="edge55" class="edge"><title>HITs/suspension&#45;&gt;HITs/circle</title>
<path fill="none" stroke="black" d="M1274.19,-288.266C1292.92,-265.57 1324.44,-222.916 1336.6,-180 1340.96,-164.606 1341.68,-159.171 1336.6,-144 1333.14,-133.67 1326.78,-123.745 1320.14,-115.333"/>
<polygon fill="black" stroke="black" points="1322.62,-112.849 1313.5,-107.466 1317.27,-117.365 1322.62,-112.849"/>
</g>
<!-- HITs/colimit&#45;&gt;HITs/truncation -->
<g id="edge40" class="edge"><title>HITs/colimit&#45;&gt;HITs/truncation</title>
<path fill="none" stroke="black" d="M611.433,-360.765C601.951,-351.795 590,-340.49 579.507,-330.564"/>
<polygon fill="black" stroke="black" points="581.85,-327.963 572.18,-323.633 577.04,-333.048 581.85,-327.963"/>
</g>
<!-- HITs/generalized&#45;&gt;HITs/truncation -->
<g id="edge41" class="edge"><title>HITs/generalized&#45;&gt;HITs/truncation</title>
<path fill="none" stroke="black" d="M498.896,-360.411C508.169,-351.519 519.754,-340.411 529.953,-330.631"/>
<polygon fill="black" stroke="black" points="532.625,-332.917 537.421,-323.47 527.78,-327.865 532.625,-332.917"/>
</g>
<!-- HITs/rat -->
<g id="node41" class="node"><title>HITs/rat</title>
<ellipse fill="none" stroke="black" cx="41.5963" cy="-306" rx="41.6928" ry="18"/>
<text text-anchor="middle" x="41.5963" y="-302.3" font-family="Times New Roman,serif" font-size="14.00">HITs/rat</text>
</g>
<!-- HITs/int&#45;&gt;HITs/rat -->
<g id="edge48" class="edge"><title>HITs/int&#45;&gt;HITs/rat</title>
<path fill="none" stroke="black" d="M41.5963,-359.697C41.5963,-351.983 41.5963,-342.712 41.5963,-334.112"/>
<polygon fill="black" stroke="black" points="45.0964,-334.104 41.5963,-324.104 38.0964,-334.104 45.0964,-334.104"/>
</g>
<!-- HITs/pushout&#45;&gt;HITs/reals -->
<g id="edge52" class="edge"><title>HITs/pushout&#45;&gt;HITs/reals</title>
<path fill="none" stroke="black" d="M1183.08,-372.101C1295.91,-362.432 1539.76,-340.41 1622.6,-324 1626.76,-323.174 1631.07,-322.184 1635.35,-321.103"/>
<polygon fill="black" stroke="black" points="1636.51,-324.416 1645.26,-318.447 1634.7,-317.654 1636.51,-324.416"/>
</g>
<!-- HITs/pushout&#45;&gt;HITs/suspension -->
<g id="edge53" class="edge"><title>HITs/pushout&#45;&gt;HITs/suspension</title>
<path fill="none" stroke="black" d="M1153.56,-361.983C1173.13,-351.835 1199.2,-338.316 1220.6,-327.223"/>
<polygon fill="black" stroke="black" points="1222.48,-330.187 1229.75,-322.476 1219.26,-323.972 1222.48,-330.187"/>
</g>
<!-- HITs/join -->
<g id="node42" class="node"><title>HITs/join</title>
<ellipse fill="none" stroke="black" cx="1123.6" cy="-306" rx="45.4919" ry="18"/>
<text text-anchor="middle" x="1123.6" y="-302.3" font-family="Times New Roman,serif" font-size="14.00">HITs/join</text>
</g>
<!-- HITs/pushout&#45;&gt;HITs/join -->
<g id="edge54" class="edge"><title>HITs/pushout&#45;&gt;HITs/join</title>
<path fill="none" stroke="black" d="M1124.35,-359.697C1124.24,-351.983 1124.11,-342.712 1123.98,-334.112"/>
<polygon fill="black" stroke="black" points="1127.48,-334.053 1123.84,-324.104 1120.48,-334.153 1127.48,-334.053"/>
</g>
<!-- cubical/connection -->
<g id="node46" class="node"><title>cubical/connection</title>
<ellipse fill="none" stroke="black" cx="1078.6" cy="-90" rx="79.0865" ry="18"/>
<text text-anchor="middle" x="1078.6" y="-86.3" font-family="Times New Roman,serif" font-size="14.00">cubical/connection</text>
</g>
<!-- cubical/path&#45;&gt;cubical/connection -->
<g id="edge61" class="edge"><title>cubical/path&#45;&gt;cubical/connection</title>
<path fill="none" stroke="black" d="M950.207,-147.17C974.216,-136.666 1007.54,-122.088 1034.22,-110.415"/>
<polygon fill="black" stroke="black" points="1035.96,-113.474 1043.72,-106.259 1033.15,-107.061 1035.96,-113.474"/>
</g>
<!-- cubical/example -->
<g id="node48" class="node"><title>cubical/example</title>
<ellipse fill="none" stroke="black" cx="768.596" cy="-90" rx="68.7879" ry="18"/>
<text text-anchor="middle" x="768.596" y="-86.3" font-family="Times New Roman,serif" font-size="14.00">cubical/example</text>
</g>
<!-- cubical/path&#45;&gt;cubical/example -->
<g id="edge62" class="edge"><title>cubical/path&#45;&gt;cubical/example</title>
<path fill="none" stroke="black" d="M888.242,-146.834C865.697,-136.314 834.69,-121.844 809.89,-110.271"/>
<polygon fill="black" stroke="black" points="811.262,-107.049 800.72,-105.991 808.302,-113.392 811.262,-107.049"/>
</g>
<!-- cubical/square -->
<g id="node49" class="node"><title>cubical/square</title>
<ellipse fill="none" stroke="black" cx="918.596" cy="-90" rx="63.0888" ry="18"/>
<text text-anchor="middle" x="918.596" y="-86.3" font-family="Times New Roman,serif" font-size="14.00">cubical/square</text>
</g>
<!-- cubical/path&#45;&gt;cubical/square -->
<g id="edge63" class="edge"><title>cubical/path&#45;&gt;cubical/square</title>
<path fill="none" stroke="black" d="M918.596,-143.697C918.596,-135.983 918.596,-126.712 918.596,-118.112"/>
<polygon fill="black" stroke="black" points="922.096,-118.104 918.596,-108.104 915.096,-118.104 922.096,-118.104"/>
</g>
<!-- cubical/path&#45;&gt;cubical/V -->
<g id="edge64" class="edge"><title>cubical/path&#45;&gt;cubical/V</title>
<path fill="none" stroke="black" d="M873.78,-151.645C827.619,-141.761 753.712,-125.243 690.596,-108 687.223,-107.078 683.745,-106.085 680.255,-105.057"/>
<polygon fill="black" stroke="black" points="681.055,-101.642 670.47,-102.1 679.03,-108.343 681.055,-101.642"/>
</g>
<!-- cubical/V&#45;&gt;HITs/moebius -->
<g id="edge65" class="edge"><title>cubical/V&#45;&gt;HITs/moebius</title>
<path fill="none" stroke="black" d="M636.596,-71.6966C636.596,-63.9827 636.596,-54.7125 636.596,-46.1124"/>
<polygon fill="black" stroke="black" points="640.096,-46.1043 636.596,-36.1043 633.096,-46.1044 640.096,-46.1043"/>
</g>
<!-- theorems/functions -->
<g id="node51" class="node"><title>theorems/functions</title>
<ellipse fill="none" stroke="black" cx="1390.6" cy="-666" rx="79.8859" ry="18"/>
<text text-anchor="middle" x="1390.6" y="-662.3" font-family="Times New Roman,serif" font-size="14.00">theorems/functions</text>
</g>
<!-- theorems/functions&#45;&gt;types/equiv -->
<g id="edge67" class="edge"><title>theorems/functions&#45;&gt;types/equiv</title>
<path fill="none" stroke="black" d="M1359.85,-649.291C1339.28,-638.78 1312.1,-624.894 1290.38,-613.797"/>
<polygon fill="black" stroke="black" points="1291.94,-610.663 1281.45,-609.229 1288.76,-616.896 1291.94,-610.663"/>
</g>
<!-- theorems/topology -->
<g id="node52" class="node"><title>theorems/topology</title>
<ellipse fill="none" stroke="black" cx="1421.6" cy="-810" rx="79.0865" ry="18"/>
<text text-anchor="middle" x="1421.6" y="-806.3" font-family="Times New Roman,serif" font-size="14.00">theorems/topology</text>
</g>
</g>
</svg>
